<?xml version="1.0" standalone="no"?>
<!DOCTYPE svg PUBLIC "-//W3C//DTD SVG 1.1//EN" "http://www.w3.org/Graphics/SVG/1.1/DTD/svg11.dtd" >
<svg xmlns="http://www.w3.org/2000/svg" xmlns:xlink="http://www.w3.org/1999/xlink" version="1.1">
<metadata>
Created by FontForge 20170731 at Fri Dec 10 18:39:14 2021
 By Aleksey,,,
</metadata>
<defs>
<font id="ArsenicaTrial-Regular" horiz-adv-x="0" >
  <font-face 
    font-family="Arsenica Trial"
    font-weight="400"
    font-stretch="normal"
    units-per-em="1000"
    panose-1="0 0 5 0 0 0 0 0 0 0"
    ascent="800"
    descent="-200"
    x-height="452"
    cap-height="703"
    bbox="-694 -226 1384.67 1055"
    underline-thickness="50"
    underline-position="-150"
    unicode-range="U+0020-F8FF"
  />
<missing-glyph horiz-adv-x="459" 
d="M85 717h291v-917h-291v917zM305 625v31h-151v-31h60v-34h-61v-30h152v30h-60v34h60zM245 473v64h-92v-95h152v31h-60zM183 506h31v-33h-31v33zM305 387v30h-152v-30h61v-34h-61v-30h92v64h60zM305 270v92h-30v-60h-122v-32h152zM305 147v103h-91v-51h31v21h30v-43h-92v73
h-30v-103h152zM305 -12v104h-152v-104h152zM183 61h92v-43h-92v43zM305 -63v30h-152v-30h64l-64 -43v-31h152v31h-93l64 43h29z" />
    <glyph glyph-name=".notdef" horiz-adv-x="459" 
d="M85 717h291v-917h-291v917zM305 625v31h-151v-31h60v-34h-61v-30h152v30h-60v34h60zM245 473v64h-92v-95h152v31h-60zM183 506h31v-33h-31v33zM305 387v30h-152v-30h61v-34h-61v-30h92v64h60zM305 270v92h-30v-60h-122v-32h152zM305 147v103h-91v-51h31v21h30v-43h-92v73
h-30v-103h152zM305 -12v104h-152v-104h152zM183 61h92v-43h-92v43zM305 -63v30h-152v-30h64l-64 -43v-31h152v31h-93l64 43h29z" />
    <glyph glyph-name=".null" 
 />
    <glyph glyph-name="nonmarkingreturn" horiz-adv-x="333" 
 />
    <glyph glyph-name="space" unicode=" " horiz-adv-x="209" 
 />
    <glyph glyph-name="exclam" unicode="!" horiz-adv-x="295" 
d="M105 485q-20 138 -20 180q0 23 14 33.5t42 10.5q55 0 55 -44q0 -43 -20 -183q-28 -197 -32 -304q0 -4 -3.5 -4t-3.5 4q-4 108 -32 307zM90 1q-14 10 -14 25q0 20 22 34.5t57 14.5q24 0 38 -10t14 -25q0 -20 -23 -34.5t-56 -14.5q-24 0 -38 10z" />
    <glyph glyph-name="quotedbl" unicode="&#x22;" horiz-adv-x="192" 
d="M44.5 508q-3.5 0 -3.5 4q-2 44 -8 72.5t-14 53.5q-1 4 -4.5 15.5t-3.5 21.5q-1 18 5.5 24t27.5 6q22 0 28.5 -6.5t6.5 -23.5q0 -10 -3.5 -21.5t-4.5 -15.5q-9 -25 -15 -53t-7 -73q-1 -4 -4.5 -4zM146.5 508q-3.5 0 -3.5 4q-2 44 -8 72.5t-14 53.5q-1 4 -4.5 15.5
t-3.5 21.5q-1 18 5.5 24t27.5 6q22 0 28.5 -6.5t6.5 -23.5q0 -10 -3.5 -21.5t-4.5 -15.5q-9 -25 -15 -53t-7 -73q-1 -4 -4.5 -4z" />
    <glyph glyph-name="numbersign" unicode="#" horiz-adv-x="487" 
d="M475 465q7 0 7 -3q0 -4 -8 -4h-47l-47 -215h46q8 0 8 -4t-8 -4h-47q-7 -31 -8 -40q-32 -152 -38 -184q-4 -13 -15 -13q-14 0 -12 16q25 125 46 221h-265l-48 -224q-2 -13 -14 -13q-15 0 -11 16l47 221h-49q-7 0 -7 4t8 4h50l46 215h-49q-7 0 -7 3q0 4 8 4h50
q41 190 48 225q3 14 15 14q14 0 10 -17l-47 -222h265q33 153 50 225q2 9 5.5 11.5t9.5 2.5t9 -3.5t1 -13.5l-49 -222h47zM353 243l47 215h-265q-10 -54 -24 -111l-22 -104h264z" />
    <glyph glyph-name="dollar" unicode="$" horiz-adv-x="628" 
d="M547 91q-30 -44 -86 -72t-130 -33v-53q0 -10 -5 -10q-2 0 -3.5 2.5t-1.5 7.5v52h-18q-65 0 -118.5 18.5t-83.5 49t-30 64.5q0 9 1 14l39 153q2 8 5 8q1 0 2 -2.5t0 -7.5q-2 -18 -2 -52q0 -117 51 -172.5t154 -55.5q0 205 1 323q-4 3 -25 13q-66 36 -107 63.5t-66 61.5
t-25 76q0 40 27 77.5t78 64t119 32.5v52q0 5 1.5 8t3.5 3q5 0 5 -11v-52q8 1 24 1q48 0 95 -14t77.5 -39.5t30.5 -58.5q0 -5 -2 -15l-36 -150q-1 -6 -4 -6q-4 0 -3 9q4 28 4 60q0 96 -46.5 146.5t-138.5 50.5h-1l-1 -262l32 -16q68 -34 111 -62.5t72.5 -70.5t29.5 -98
q0 -53 -30 -97zM221.5 509.5q33.5 -33.5 100.5 -68.5l1 256q-75 -2 -105 -28.5t-30 -79.5q0 -46 33.5 -79.5zM439.5 33.5q45.5 29.5 45.5 103.5q0 60 -40 102t-113 81q-1 -116 -1 -318q63 2 108.5 31.5z" />
    <glyph glyph-name="percent" unicode="%" horiz-adv-x="722" 
d="M64.5 404q-38.5 50 -38.5 130q0 84 41 132.5t105 48.5q67 0 105 -50.5t38 -130.5q0 -84 -40.5 -132t-105.5 -48q-66 0 -104.5 50zM271 495q0 49 -16 96.5t-42 77.5t-55 30q-46 0 -66.5 -32.5t-20.5 -93.5q0 -49 16 -96.5t42 -77.5t56 -30q86 0 86 126zM444.5 35.5
q-38.5 50.5 -38.5 130.5q0 83 41 131.5t105 48.5q67 0 105.5 -50t38.5 -130q0 -84 -41 -132.5t-106 -48.5q-66 0 -104.5 50.5zM631 33q20 32 20 94q0 49 -16 96.5t-42 77.5t-55 30q-87 0 -87 -126q0 -49 16 -96.5t42.5 -77.5t55.5 -30q46 0 66 32z" />
    <glyph glyph-name="ampersand" unicode="&#x26;" horiz-adv-x="881" 
d="M878 484q2 -2 -1 -6q-18 -23 -49.5 -45t-75.5 -37q42 -35 70 -91.5t28 -131.5q0 -53 -19 -96t-54 -67.5t-81 -24.5q-53 0 -89 32.5t-66 87.5q-6 10 -10.5 19l-8.5 17q-45 -76 -100 -116t-149 -40q-68 0 -121 30.5t-82 83.5t-29 120q0 49 28 103.5t81 91.5t126 37
q37 0 68 -4q-30 46 -45.5 80.5t-15.5 64.5q0 55 52 89t137 34q55 0 97 -19t64 -47.5t22 -55.5q0 -17 -9 -29l-92 -131q84 -7 156 -7q62 0 102 16t60 40q4 4 6 2zM808 253.5q-26 57.5 -64.5 94.5t-73.5 37l-138 1q-5 0 -8.5 2t-3.5 5t3 9q6 10 14 20q37 57 51 85t15 51
q0 38 -20.5 70t-54 51t-70.5 19q-33 0 -52.5 -4.5t-32 -21t-12.5 -50.5q0 -32 18 -67t59 -99q55 -84 92 -155l93 -173q24 -45 51 -69t67 -24q47 0 70 25.5t23 78.5q0 57 -26 114.5zM437.5 65.5q39.5 23.5 80.5 82.5q-45 86 -78 144l-10 19q-41 70 -88.5 96.5t-102.5 26.5
q-67 0 -95 -48t-28 -105q0 -63 25.5 -118t76 -88t120.5 -33q60 0 99.5 23.5z" />
    <glyph glyph-name="quotesingle" unicode="'" horiz-adv-x="95" 
d="M47.5 508q-3.5 0 -3.5 4q-2 44 -8 72.5t-14 53.5q-1 4 -4.5 15.5t-3.5 21.5q-1 18 5.5 24t27.5 6q22 0 28.5 -6.5t6.5 -23.5q0 -10 -3.5 -21.5t-4.5 -15.5q-9 -25 -15 -53t-7 -73q-1 -4 -4.5 -4z" />
    <glyph glyph-name="parenleft" unicode="(" horiz-adv-x="315" 
d="M100 26.5q-74 109.5 -74 247.5q0 307 283 461q4 2 5.5 -0.5t-1.5 -4.5q-86 -63 -136 -181.5t-50 -245.5q0 -143 49.5 -267.5t136.5 -187.5q3 -2 1.5 -5t-5.5 0q-135 74 -209 183.5z" />
    <glyph glyph-name="parenright" unicode=")" horiz-adv-x="315" 
d="M214 551q74 -110 74 -248q0 -307 -282 -460q-4 -3 -5.5 0t1.5 5q86 63 136 181.5t50 245.5q0 143 -49.5 267.5t-136.5 187.5q-3 2 -1.5 4.5t5.5 0.5q134 -74 208 -184z" />
    <glyph glyph-name="asterisk" unicode="*" horiz-adv-x="278" 
d="M251 620q0 -10 -11 -15q-8 -2 -13 -2q-7 0 -16.5 1t-22.5 1q-24 0 -44 -6q21 -27 52 -44l10.5 -7t11.5 -10q4 -8 4 -10q0 -9 -15 -20q-11 -8 -20 -8q-8 0 -12 7q-4 5 -10 26q-6 33 -25 61q-19 -29 -25 -61q-6 -21 -10 -26q-6 -9 -13 -9t-19 9q-15 11 -15 20q0 6 4 11
q8 9 22 17q31 20 50 44q-19 5 -41 5q-12 0 -21.5 -1t-16.5 -1q-6 0 -14 2q-14 5 -14 17q0 5 3 14q8 21 20 21q8 0 15.5 -4.5t19.5 -14.5q31 -24 52 -33q-1 20 -5 34.5t-11 32.5q-8 18 -8 26q0 10 5.5 14t20.5 4t21 -4t6 -14t-8 -26q-1 -3 -8 -21t-8 -46q27 10 42.5 22
t17.5 14q15 13 21 15q3 1 7 1q6 0 10 -4.5t8 -15.5q3 -9 3 -16z" />
    <glyph glyph-name="plus" unicode="+" horiz-adv-x="398" 
d="M193 226q0 3 -1 5.5t-4 2.5h-133q-6 0 -10 2.5t-4 5.5t4 5t10 2h132q4 0 5 3t1 8v131q0 6 2.5 10t5.5 4t5.5 -4t2.5 -10v-131q0 -5 1 -8t4 -3h132q5 0 8 -2.5t3 -5.5q0 -7 -11 -7h-132q-3 0 -4 -2.5t-1 -5.5v-131q0 -13 -8 -13t-8 13v131z" />
    <glyph glyph-name="comma" unicode="," horiz-adv-x="227" 
d="M63 -128.5q-1 2.5 4 5.5q68 37 68 95q0 11 -9 14.5t-27 5.5q-24 3 -37 10t-13 26q0 16 19.5 31.5t47.5 15.5q35 1 51 -15t16 -40q0 -31 -18 -61.5t-44.5 -53.5t-51.5 -34q-5 -2 -6 0.5z" />
    <glyph glyph-name="hyphen" unicode="-" horiz-adv-x="310" 
d="M36 245q-8 0 -8 4q0 1 2.5 2t5.5 1h258q4 0 6.5 -1t2.5 -2q0 -4 -9 -4h-258z" />
    <glyph glyph-name="period" unicode="." horiz-adv-x="227" 
d="M62 1q-14 10 -14 25q0 20 22 34.5t57 14.5q24 0 38 -10t14 -25q0 -20 -23 -34.5t-56 -14.5q-24 0 -38 10z" />
    <glyph glyph-name="slash" unicode="/" horiz-adv-x="215" 
d="M81 214q89 375 120 492q1 9 5 9t3 -11q-13 -49 -113 -463q-49 -208 -81 -337q-1 -4 -2.5 -6t-4.5 -2q-4 0 -2 9q52 216 75 309z" />
    <glyph glyph-name="zero" unicode="0" horiz-adv-x="630" 
d="M459.5 28.5q66.5 39.5 105 106.5t38.5 146q0 80 -40 146t-106 104.5t-142 38.5q-81 0 -147.5 -40t-104 -107t-37.5 -144q0 -76 38.5 -143t104.5 -107t145 -40t145.5 39.5zM139 475q36 31 81.5 48.5t94.5 17.5q48 0 92.5 -18t78.5 -48h-347zM508 454q66 -79 66 -175
q0 -46 -15.5 -88.5t-43.5 -77.5h-346zM119 104q-31 36 -48 81t-17 94q2 97 58 167h346zM140 84h349q-37 -30 -81.5 -47.5t-92.5 -17.5q-95 0 -175 65z" />
    <glyph glyph-name="one" unicode="1" horiz-adv-x="630" 
d="M459.5 28.5q66.5 39.5 105 106.5t38.5 146q0 80 -40 146t-106 104.5t-142 38.5q-81 0 -147.5 -40t-104 -107t-37.5 -144q0 -76 38.5 -143t104.5 -107t145 -40t145.5 39.5zM139 475q36 31 81.5 48.5t94.5 17.5q48 0 92.5 -18t78.5 -48h-347zM508 454q66 -79 66 -175
q0 -46 -15.5 -88.5t-43.5 -77.5h-346zM119 104q-31 36 -48 81t-17 94q2 97 58 167h346zM140 84h349q-37 -30 -81.5 -47.5t-92.5 -17.5q-95 0 -175 65z" />
    <glyph glyph-name="two" unicode="2" horiz-adv-x="630" 
d="M459.5 28.5q66.5 39.5 105 106.5t38.5 146q0 80 -40 146t-106 104.5t-142 38.5q-81 0 -147.5 -40t-104 -107t-37.5 -144q0 -76 38.5 -143t104.5 -107t145 -40t145.5 39.5zM139 475q36 31 81.5 48.5t94.5 17.5q48 0 92.5 -18t78.5 -48h-347zM508 454q66 -79 66 -175
q0 -46 -15.5 -88.5t-43.5 -77.5h-346zM119 104q-31 36 -48 81t-17 94q2 97 58 167h346zM140 84h349q-37 -30 -81.5 -47.5t-92.5 -17.5q-95 0 -175 65z" />
    <glyph glyph-name="three" unicode="3" horiz-adv-x="630" 
d="M459.5 28.5q66.5 39.5 105 106.5t38.5 146q0 80 -40 146t-106 104.5t-142 38.5q-81 0 -147.5 -40t-104 -107t-37.5 -144q0 -76 38.5 -143t104.5 -107t145 -40t145.5 39.5zM139 475q36 31 81.5 48.5t94.5 17.5q48 0 92.5 -18t78.5 -48h-347zM508 454q66 -79 66 -175
q0 -46 -15.5 -88.5t-43.5 -77.5h-346zM119 104q-31 36 -48 81t-17 94q2 97 58 167h346zM140 84h349q-37 -30 -81.5 -47.5t-92.5 -17.5q-95 0 -175 65z" />
    <glyph glyph-name="four" unicode="4" horiz-adv-x="745" 
d="M459.5 28.5q66.5 39.5 105 106.5t38.5 146q0 80 -40 146t-106 104.5t-142 38.5q-81 0 -147.5 -40t-104 -107t-37.5 -144q0 -76 38.5 -143t104.5 -107t145 -40t145.5 39.5zM139 475q36 31 81.5 48.5t94.5 17.5q48 0 92.5 -18t78.5 -48h-347zM508 454q66 -79 66 -175
q0 -46 -15.5 -88.5t-43.5 -77.5h-346zM119 104q-31 36 -48 81t-17 94q2 97 58 167h346zM140 84h349q-37 -30 -81.5 -47.5t-92.5 -17.5q-95 0 -175 65z" />
    <glyph glyph-name="five" unicode="5" horiz-adv-x="630" 
d="M459.5 28.5q66.5 39.5 105 106.5t38.5 146q0 80 -40 146t-106 104.5t-142 38.5q-81 0 -147.5 -40t-104 -107t-37.5 -144q0 -76 38.5 -143t104.5 -107t145 -40t145.5 39.5zM139 475q36 31 81.5 48.5t94.5 17.5q48 0 92.5 -18t78.5 -48h-347zM508 454q66 -79 66 -175
q0 -46 -15.5 -88.5t-43.5 -77.5h-346zM119 104q-31 36 -48 81t-17 94q2 97 58 167h346zM140 84h349q-37 -30 -81.5 -47.5t-92.5 -17.5q-95 0 -175 65z" />
    <glyph glyph-name="six" unicode="6" horiz-adv-x="630" 
d="M459.5 28.5q66.5 39.5 105 106.5t38.5 146q0 80 -40 146t-106 104.5t-142 38.5q-81 0 -147.5 -40t-104 -107t-37.5 -144q0 -76 38.5 -143t104.5 -107t145 -40t145.5 39.5zM139 475q36 31 81.5 48.5t94.5 17.5q48 0 92.5 -18t78.5 -48h-347zM508 454q66 -79 66 -175
q0 -46 -15.5 -88.5t-43.5 -77.5h-346zM119 104q-31 36 -48 81t-17 94q2 97 58 167h346zM140 84h349q-37 -30 -81.5 -47.5t-92.5 -17.5q-95 0 -175 65z" />
    <glyph glyph-name="seven" unicode="7" horiz-adv-x="630" 
d="M459.5 28.5q66.5 39.5 105 106.5t38.5 146q0 80 -40 146t-106 104.5t-142 38.5q-81 0 -147.5 -40t-104 -107t-37.5 -144q0 -76 38.5 -143t104.5 -107t145 -40t145.5 39.5zM139 475q36 31 81.5 48.5t94.5 17.5q48 0 92.5 -18t78.5 -48h-347zM508 454q66 -79 66 -175
q0 -46 -15.5 -88.5t-43.5 -77.5h-346zM119 104q-31 36 -48 81t-17 94q2 97 58 167h346zM140 84h349q-37 -30 -81.5 -47.5t-92.5 -17.5q-95 0 -175 65z" />
    <glyph glyph-name="eight" unicode="8" horiz-adv-x="630" 
d="M459.5 28.5q66.5 39.5 105 106.5t38.5 146q0 80 -40 146t-106 104.5t-142 38.5q-81 0 -147.5 -40t-104 -107t-37.5 -144q0 -76 38.5 -143t104.5 -107t145 -40t145.5 39.5zM139 475q36 31 81.5 48.5t94.5 17.5q48 0 92.5 -18t78.5 -48h-347zM508 454q66 -79 66 -175
q0 -46 -15.5 -88.5t-43.5 -77.5h-346zM119 104q-31 36 -48 81t-17 94q2 97 58 167h346zM140 84h349q-37 -30 -81.5 -47.5t-92.5 -17.5q-95 0 -175 65z" />
    <glyph glyph-name="nine" unicode="9" horiz-adv-x="630" 
d="M459.5 28.5q66.5 39.5 105 106.5t38.5 146q0 80 -40 146t-106 104.5t-142 38.5q-81 0 -147.5 -40t-104 -107t-37.5 -144q0 -76 38.5 -143t104.5 -107t145 -40t145.5 39.5zM139 475q36 31 81.5 48.5t94.5 17.5q48 0 92.5 -18t78.5 -48h-347zM508 454q66 -79 66 -175
q0 -46 -15.5 -88.5t-43.5 -77.5h-346zM119 104q-31 36 -48 81t-17 94q2 97 58 167h346zM140 84h349q-37 -30 -81.5 -47.5t-92.5 -17.5q-95 0 -175 65z" />
    <glyph glyph-name="colon" unicode=":" horiz-adv-x="227" 
d="M62 363q-14 10 -14 25q0 20 22 34.5t57 14.5q24 0 38 -10t14 -25q0 -20 -23 -34.5t-56 -14.5q-24 0 -38 10zM62 1q-14 10 -14 25q0 20 22 34.5t57 14.5q24 0 38 -10t14 -25q0 -20 -23 -34.5t-56 -14.5q-24 0 -38 10z" />
    <glyph glyph-name="semicolon" unicode=";" horiz-adv-x="227" 
d="M62 363q-14 10 -14 25q0 20 22 34.5t57 14.5q24 0 38 -10t14 -25q0 -20 -23 -34.5t-56 -14.5q-24 0 -38 10zM63 -128.5q-1 2.5 4 5.5q68 37 68 95q0 11 -9 14.5t-27 5.5q-24 3 -37 10t-13 26q0 16 19.5 31.5t47.5 15.5q35 1 51 -15t16 -40q0 -31 -18 -61.5t-44.5 -53.5
t-51.5 -34q-5 -2 -6 0.5z" />
    <glyph glyph-name="less" unicode="&#x3c;" horiz-adv-x="369" 
d="M345 72q5 -3 5 -7q0 -6 -26 -18q-30 -7 -36 -7q-10 0 -18 5l-241 154q-6 3 -7.5 6t-1.5 9v13q0 6 2.5 9t9.5 9l304 198q5 4 10 4q10 0 0 -7l-279 -180q-1 -2 -1 -5q0 -6 6 -9z" />
    <glyph glyph-name="equal" unicode="=" horiz-adv-x="385" 
d="M49 180q-6 0 -9.5 1t-4.5 2q0 3 14 3h290q5 0 7.5 -1t3.5 -2q0 -3 -11 -3h-290zM49 288q-6 0 -9.5 1t-4.5 2q0 3 14 3h290q5 0 7.5 -1t3.5 -2q0 -3 -11 -3h-290z" />
    <glyph glyph-name="greater" unicode="&#x3e;" horiz-adv-x="369" 
d="M340 293q5 -3 6.5 -6t1.5 -9v-13q0 -6 -2 -9.5t-10 -8.5l-303 -198q-5 -4 -10 -4q-11 0 -1 7l277 179q4 3 4 7t-6 8l-273 174q-6 4 -6 7q0 6 27 18q28 7 36 7q9 0 17 -5z" />
    <glyph glyph-name="question" unicode="?" horiz-adv-x="525" 
d="M225 251q11 34 28 57.5t46 56.5q39 43 58 75.5t19 80.5q0 75 -44 118t-114 43q-78 0 -126 -38t-58 -118q-1 -6 -3 -9t-5 -3q-2 0 -4 3t-1 8q8 54 43 97t87.5 67.5t112.5 24.5q61 0 111.5 -23t79.5 -65.5t29 -98.5q0 -44 -17.5 -75.5t-43 -51.5t-68.5 -47
q-44 -27 -69.5 -47.5t-43.5 -53t-18 -78.5q0 -5 -3.5 -5.5t-3.5 4.5q-3 44 8 78zM163 1q-14 10 -14 25q0 20 22 34.5t57 14.5q24 0 38 -10t14 -25q0 -20 -22.5 -34.5t-56.5 -14.5q-24 0 -38 10z" />
    <glyph glyph-name="at" unicode="@" horiz-adv-x="900" 
d="M559 148q0 15 -5 15q-3 0 -9 -7q-107 -129 -252 -129q-56 0 -84 30t-28 82q0 81 48 154t131.5 117t182.5 44q63 0 105.5 -31.5t42.5 -95.5q0 -25 -7 -52l-39 -157q-4 -13 -4 -27q0 -30 37 -30q44 0 82.5 34.5t62 95.5t23.5 139q0 73 -38.5 139t-115.5 107.5t-187 41.5
q-130 0 -232.5 -49t-161 -144t-58.5 -227q0 -108 47 -182.5t130 -112t190 -37.5q149 0 252 74q5 3 7 3t2 -2t-4 -6q-117 -96 -272 -96q-107 0 -193 39.5t-136 118.5t-50 192q0 126 69 230.5t181.5 165t237.5 60.5q111 0 192.5 -44t124 -115.5t42.5 -151.5q0 -79 -36 -150
t-92.5 -114t-114.5 -43q-80 0 -80 67q0 14 5 39zM456 92.5q48 28.5 80 71.5t47 87l13 53q7 27 7 52q0 79 -89 79q-82 0 -139 -43t-85 -107.5t-28 -127.5q0 -93 87 -93q59 0 107 28.5z" />
    <glyph glyph-name="A" unicode="A" horiz-adv-x="718" 
d="M713 0.5q0 -3.5 -4 -3.5q-30 3 -42 3h-137q-22 0 -67 -3q-7 0 -7 3.5t7 3.5q77 4 77 51q0 16 -8 35l-60 142q-7 8 -16 8q-4 0 -12 -3q-67 -32 -143 -50.5t-154 -22.5q-11 0 -20 -5.5t-12 -14.5v1l-23 -55q-8 -19 -8 -35q0 -47 80 -51q7 0 7 -3q0 -4 -8 -4q-45 3 -69 3
h-43q-12 0 -42 -3q-4 0 -4 3.5t4 3.5q25 1 40 19t36 67l213 511q4 9 4 21q0 13 -5 25l-15 36q-3 10 -13 13q-2 1 -0.5 2.5t5.5 1.5h93q6 0 9.5 -2t5.5 -8l252 -600q20 -49 35 -67t40 -19q4 0 4 -3.5zM453 257q4 9 1 15h1l-144 342l-177 -425v-4q0 -6 3.5 -10t10.5 -4
q78 5 154.5 23.5t137.5 49.5q9 4 13 13z" />
    <glyph glyph-name="B" unicode="B" horiz-adv-x="656" 
d="M66 -1q-10 -1 -25 -1q-6 0 -6.5 3t5.5 4q36 1 54.5 20.5t18.5 68.5v512q0 49 -18.5 68.5t-54.5 20.5q-6 1 -5.5 4t5.5 3q16 0 27 -1l28 -1q50 0 128 2q86 2 110 2q112 0 171 -43.5t59 -111.5q0 -67 -41.5 -108t-112.5 -50q98 -9 155.5 -55t57.5 -130q0 -96 -75 -153
t-213 -57q-35 0 -121 2q-72 2 -118 2zM311 393q58 3 90 19.5t45 47t13 79.5q0 72 -42.5 111.5t-110.5 42.5l-67 3q-19 1 -24.5 -7t-5.5 -32v-602q0 -30 7 -40.5t32 -10.5h72q90 0 140 49t50 138q0 188 -197 192l-59 1q-5 0 -5 3t5 3z" />
    <glyph glyph-name="C" unicode="C" horiz-adv-x="685" 
d="M580 351q-1 -5 -4.5 -3.5t-2.5 5.5q15 50 15 95q0 68 -30 126q-25 54 -72.5 83.5t-105.5 29.5q-117 0 -183.5 -58.5t-66.5 -186.5q0 -118 47 -208.5t120 -139.5t148 -49q54 0 115 19.5t107 70.5q4 4 7 4q2 0 1.5 -2.5t-3.5 -5.5q-61 -75 -133 -110.5t-164 -35.5
q-90 0 -166.5 44t-122 124.5t-45.5 184.5q0 106 51 192t138 135t188 49q65 0 120 -19.5t87 -50t32 -60.5q0 -5 -2 -13z" />
    <glyph glyph-name="D" unicode="D" horiz-adv-x="731" 
d="M212 -3q-70 2 -117 2q-29 0 -55 -2q-5 0 -5.5 3.5t5.5 3.5q36 1 54.5 20.5t18.5 69.5v512q0 49 -18 68t-55 21q-6 1 -5.5 4t5.5 3q26 -2 55 -2q33 0 89 2l79 2q218 0 322 -94t104 -257q0 -103 -44 -184t-131.5 -127.5t-212.5 -46.5q-27 0 -89 2zM511.5 94.5
q75.5 91.5 76.5 243.5q0 101 -37 181.5t-114.5 128.5t-195.5 48q-19 0 -25.5 -9.5t-6.5 -30.5v-609q0 -26 13 -35t55 -9q159 0 234.5 91.5z" />
    <glyph glyph-name="E" unicode="E" horiz-adv-x="628" 
d="M41 -3q-5 0 -5.5 3.5t5.5 3.5q36 2 54 21.5t18 68.5v512q0 49 -18 68.5t-54 21.5q-6 0 -5.5 3.5t5.5 3.5q36 -3 54 -3h280q62 0 129 8q18 3 27 3q8 0 12.5 -4.5t5.5 -17.5q2 -84 23 -243q1 -5 -1.5 -5t-3.5 4q-24 101 -39 140t-36 61q-26 29 -83 38t-176 9q-24 0 -24 -33
v-260q0 -10 4.5 -17.5t15.5 -7.5q77 0 98 3q18 2 29.5 10.5t22.5 30t23 63.5q1 6 4 6t2 -6q-7 -39 -7 -93q0 -72 12 -141q1 -5 -2 -5.5t-4 5.5q-19 63 -37 88.5t-43 28.5q-31 3 -98 3q-11 0 -15.5 -8.5t-4.5 -18.5v-287q0 -47 31 -47q122 0 189 11.5t95 38.5
q25 23 41.5 67.5t32.5 128.5q1 7 4 7q4 0 2 -8q-20 -130 -22 -241q-1 -13 -6 -17.5t-14 -4.5q-4 0 -22 2q-72 9 -150 9h-295q-18 0 -54 -3z" />
    <glyph glyph-name="F" unicode="F" horiz-adv-x="596" 
d="M64 -1q-9 -1 -24 -1q-5 0 -5.5 3t5.5 3q34 3 50 24t16 66v512q0 46 -16 66.5t-50 23.5q-6 0 -5.5 3t5.5 3q15 0 24 -1l24 -1h280q91 0 145 9q20 2 23 2q8 0 12 -4.5t5 -17.5q1 -97 20 -227q1 -7 -2 -8t-5 6q-21 83 -47 136.5t-54 73.5q-17 13 -69.5 18t-160.5 5
q-33 0 -33 -50v-267q0 -11 5 -19t16 -8q64 0 108 4q19 2 30.5 9.5t21.5 28.5t22 63q1 6 4.5 6t2.5 -6q-6 -40 -6 -89q0 -75 11 -138q1 -5 -2.5 -5.5t-4.5 5.5q-19 63 -35.5 86t-43.5 26q-33 3 -108 3q-21 0 -21 -26v-225q0 -46 21.5 -65t68.5 -22q8 0 8 -3q0 -1 -2.5 -2
t-5.5 -1q-19 0 -30 1l-34 1h-140z" />
    <glyph glyph-name="G" unicode="G" horiz-adv-x="703" 
d="M209 28.5q-77 43.5 -122.5 123.5t-45.5 184q0 108 52 194t138 134t184 48q67 0 122.5 -18.5t87 -48t31.5 -58.5q0 -8 -1 -12l-69 -211q-2 -5 -6 -4.5t-1 6.5q18 44 18 93q0 61 -30 116q-28 54 -77 82t-109 28q-253 0 -253 -245q0 -120 49 -218t121 -153t137 -55
q73 0 119.5 19t56.5 71q1 28 -18 154q-12 27 -49 41.5t-122 22.5q-5 1 -4.5 4.5t5.5 2.5q62 -4 99 -4q69 0 139 7l11 1q6 0 8.5 -2t2.5 -7q0 -4 -3.5 -14.5t-4.5 -28.5q-3 -67 -3 -148q0 -8 -2 -12.5t-8 -12.5q-55 -63 -125.5 -93t-160.5 -30t-167 43.5z" />
    <glyph glyph-name="H" unicode="H" horiz-adv-x="787" 
d="M751.5 0.5q-0.5 -3.5 -5.5 -3.5q-36 3 -55 3h-131q-16 0 -55 -3q-5 0 -5.5 3.5t5.5 3.5q36 2 54 21.5t18 68.5v281q0 16 -9 16l-8 -2q-82 -35 -167.5 -55t-166.5 -24q-10 -1 -13.5 -7.5t-3.5 -17.5v-191q0 -49 18 -68.5t54 -21.5q6 0 5.5 -3.5t-5.5 -3.5q-36 3 -54 3
h-132q-18 0 -54 -3q-5 0 -5.5 3.5t5.5 3.5q36 2 54 21.5t18 68.5v512q0 49 -18 68.5t-54 21.5q-6 0 -5.5 3.5t5.5 3.5q36 -3 54 -3h132q18 0 54 3q5 0 5.5 -3.5t-5.5 -3.5q-36 -2 -54 -21.5t-18 -68.5v-277q3 -13 16 -12q80 4 166.5 24.5t167.5 54.5q11 5 14.5 11t3.5 16
v183q0 49 -18 68.5t-54 21.5q-6 0 -5.5 3.5t5.5 3.5q39 -3 55 -3h131q19 0 55 3q5 0 5.5 -3.5t-5.5 -3.5q-36 -2 -54 -21.5t-18 -68.5v-512q0 -49 18 -68.5t54 -21.5q6 0 5.5 -3.5z" />
    <glyph glyph-name="I" unicode="I" horiz-adv-x="322" 
d="M95 674.5q-18 19.5 -54 21.5q-6 0 -5.5 3.5t5.5 3.5q36 -3 54 -3h132q18 0 54 3q5 0 5.5 -3.5t-5.5 -3.5q-36 -2 -54 -21.5t-18 -68.5v-512q0 -49 18 -68.5t54 -21.5q6 0 5.5 -3.5t-5.5 -3.5q-36 3 -54 3h-132q-18 0 -54 -3q-5 0 -5.5 3.5t5.5 3.5q36 2 54 21.5t18 68.5
v512q0 49 -18 68.5z" />
    <glyph glyph-name="J" unicode="J" horiz-adv-x="549" 
d="M116 6.5q-44 21.5 -67 58t-23 78.5q0 54 40 84.5t91 37.5q5 1 6 -1.5t-4 -4.5q-27 -12 -40 -32t-13 -56q0 -39 15.5 -78t47 -64.5t76.5 -25.5q69 0 95.5 39t26.5 130q0 31 -9 105q-13 108 -13 153v176q0 49 -18.5 68.5t-54.5 21.5q-6 0 -5.5 3.5t6.5 3.5q36 -3 54 -3h132
q18 0 54 3q5 0 5.5 -3.5t-5.5 -3.5q-36 -2 -54 -21.5t-18 -68.5v-356q0 -131 -59.5 -198t-161.5 -67q-60 0 -104 21.5z" />
    <glyph glyph-name="K" unicode="K" horiz-adv-x="670" 
d="M716 -75q-2 -3 -7 -1q-118 48 -227 175.5t-175 282.5l-98 -114v-174q0 -49 18 -68.5t54 -21.5q6 0 5.5 -3.5t-5.5 -3.5q-36 3 -54 3h-132q-18 0 -54 -3q-5 0 -5.5 3.5t5.5 3.5q36 2 54 21.5t18 68.5v512q0 49 -18 68.5t-54 21.5q-6 0 -5.5 3.5t5.5 3.5q36 -3 54 -3h132
q18 0 54 3q5 0 5.5 -3.5t-5.5 -3.5q-36 -2 -54 -21.5t-18 -68.5v-328l95 112l-3 8l12 2l186 218q20 24 20 42q0 17 -16.5 26t-40.5 10q-6 0 -5.5 3.5t5.5 3.5q36 -3 54 -3h53q24 0 69 3q8 0 8 -4q0 -1 -2.5 -2t-5.5 -1q-39 -1 -64 -17.5t-63 -59.5l-187 -217q35 6 71 19h3
q7 0 9 -4q26 -94 77 -195.5t112.5 -180.5t116.5 -111q5 -2 3 -5z" />
    <glyph glyph-name="L" unicode="L" horiz-adv-x="603" 
d="M41 -3q-5 0 -5.5 3.5t5.5 3.5q36 2 54 21.5t18 68.5v512q0 49 -18 68.5t-54 21.5q-6 0 -5.5 3.5t5.5 3.5q36 -3 54 -3h134q22 0 61 3q6 0 7 -3.5t-6 -3.5q-41 -2 -61.5 -21.5t-20.5 -68.5v-558q0 -25 7.5 -33t24.5 -8q201 0 264 69q24 26 39.5 74.5t27.5 127.5
q1 6 4.5 5.5t2.5 -5.5q-21 -166 -21 -257q0 -19 -2 -25.5t-11 -6.5q-7 0 -59.5 5.5t-162.5 5.5h-228q-18 0 -54 -3z" />
    <glyph glyph-name="M" unicode="M" horiz-adv-x="885" 
d="M871.5 0.5q-0.5 -3.5 -5.5 -3.5q-36 3 -54 3h-137q-21 0 -66 -3q-6 0 -6.5 3.5t6.5 3.5q44 2 66 21.5t17 68.5l-50 522q-1 5 -4 5t-6 -6l-227 -578q-4 -11 -12 -11q-7 0 -11 9l-222 570q-3 7 -6 7t-4 -5l-47 -513l-1 -15q0 -40 21.5 -56.5t62.5 -18.5q7 0 7 -3
q0 -4 -7 -4q-42 3 -66 3h-47q-18 0 -54 -3q-5 0 -5.5 3.5t5.5 3.5q35 2 53.5 21.5t23.5 68.5l50 542q-17 33 -35 45.5t-47 14.5q-6 0 -5.5 3.5t5.5 3.5q36 -3 55 -3h91q11 0 14 -9l207 -530q2 -5 4 -5q3 0 5 5l214 532q2 7 9 7h89q18 0 57 3q5 0 5.5 -3.5t-5.5 -3.5
q-38 -2 -56.5 -22t-13.5 -68l50 -512q5 -49 23.5 -68.5t53.5 -21.5q6 0 5.5 -3.5zM149 630l9 -20z" />
    <glyph glyph-name="N" unicode="N" horiz-adv-x="749" 
d="M730.5 699.5q0.5 -3.5 -5.5 -3.5q-36 -2 -54 -21.5t-18 -68.5v-607q0 -7 -5 -7q-6 0 -10 7l-498 638q-4 4 -6 4q-4 0 -4 -6v-541q0 -49 18 -68.5t54 -21.5q6 0 5.5 -3.5t-5.5 -3.5l-54 3h-44l-55 -3q-5 0 -5.5 3.5t5.5 3.5q36 2 54 21.5t18 68.5l1 565q-18 19 -34 27.5
t-38 9.5q-6 1 -5.5 4t5.5 3l55 -3h89q19 0 26 -12l412 -539q4 -7 9 -7q4 0 4 8l-1 456q0 49 -18 68.5t-54 21.5q-6 0 -5.5 3.5t5.5 3.5q36 -3 55 -3h44q18 0 54 3q5 0 5.5 -3.5z" />
    <glyph glyph-name="O" unicode="O" horiz-adv-x="821" 
d="M207.5 30q-78.5 45 -122.5 125.5t-44 181.5q0 100 50 186.5t138.5 138.5t199.5 52q101 0 181 -45.5t125 -125.5t45 -179q0 -101 -51 -188t-141 -139t-203 -52q-99 0 -177.5 45zM627.5 81q63.5 69 63.5 192q0 100 -45 196t-120.5 157t-161.5 61q-110 0 -172.5 -67.5
t-62.5 -185.5q0 -101 44 -199t118.5 -160.5t159.5 -62.5q113 0 176.5 69z" />
    <glyph glyph-name="P" unicode="P" horiz-adv-x="628" 
d="M253 297q-4 1 -4 4t4 3l62 -1q91 -2 138.5 48t47.5 132q-1 56 -23 103.5t-63.5 76.5t-95.5 31l-77 3q-20 0 -26.5 -9.5t-6.5 -33.5v-560q0 -49 23.5 -68.5t71.5 -21.5q7 0 7 -3q0 -4 -8 -4q-45 3 -70 3h-138q-18 0 -54 -3q-5 0 -5.5 3.5t5.5 3.5q36 2 54 21.5t18 68.5
v512q0 49 -18.5 68.5t-54.5 20.5q-6 1 -5.5 4t6.5 3q15 0 25 -1l29 -1q46 0 120 2q86 2 122 2q128 0 198 -55t70 -155q0 -92 -66.5 -146t-190.5 -54q-22 0 -33 1z" />
    <glyph glyph-name="Q" unicode="Q" horiz-adv-x="821" 
d="M986.5 -76q2.5 -2 -1.5 -6q-32 -35 -80.5 -60t-105.5 -25q-61 0 -140 38t-193 121q-45 -7 -81 -7q-99 0 -177.5 45t-122.5 125.5t-44 181.5q0 100 50 186.5t138.5 138.5t199.5 52q101 0 181 -45.5t125 -125.5t45 -179q0 -113 -63 -207.5t-169 -139.5q113 -73 178.5 -104
t120.5 -31q44 0 75.5 9t56.5 31q5 4 7.5 2zM172.5 236.5q43.5 -97.5 117 -160.5t157.5 -64q-3 9 9 15t32 6q25 0 47 -9q75 23 115.5 87t40.5 162q0 100 -45 196t-120.5 157t-161.5 61q-110 0 -172.5 -67.5t-62.5 -185.5q0 -100 43.5 -197.5z" />
    <glyph glyph-name="R" unicode="R" horiz-adv-x="662" 
d="M715 -76.5q-2 -2.5 -7 -0.5q-125 52 -216.5 154.5t-160.5 269.5l-71 1q-5 0 -5 2.5t5 3.5l44 1q90 6 134.5 55t44.5 128q0 81 -44 117t-141 39l-55 2q-18 1 -26 -7.5t-8 -28.5v-566q0 -49 18 -68.5t54 -21.5q6 0 5.5 -3.5t-5.5 -3.5q-36 3 -54 3h-132q-18 0 -54 -3
q-5 0 -5.5 3.5t5.5 3.5q36 2 54 21.5t18 68.5v512q0 49 -18.5 68.5t-54.5 20.5q-6 1 -5.5 4t5.5 3q16 0 27 -1l28 -1q45 0 113 2q82 2 113 2q140 0 205 -41.5t65 -129.5q0 -70 -55.5 -119t-153.5 -62q18 0 50 4h2q5 0 8 -7q39 -139 111.5 -253t158.5 -167q5 -3 3 -5.5z" />
    <glyph glyph-name="S" unicode="S" horiz-adv-x="628" 
d="M111 284q2 8 5 8q1 0 2 -2.5t0 -7.5q-2 -18 -2 -52q0 -117 51 -172.5t154 -55.5q65 0 114.5 28.5t49.5 106.5q0 67 -49 111.5t-139 89.5q-66 36 -107 63.5t-66 61.5t-25 76q0 43 31 83.5t90 66t137 25.5q48 0 95 -14t77.5 -39.5t30.5 -58.5q0 -5 -2 -15l-36 -150
q-1 -6 -4 -6q-4 0 -3 9q4 28 4 60q0 96 -46.5 146.5t-138.5 50.5q-81 0 -113.5 -27t-32.5 -81q0 -37 21.5 -65t57 -50.5t97.5 -54.5q68 -34 111 -62.5t72.5 -70.5t29.5 -98t-34 -102.5t-96 -73.5t-144 -27q-65 0 -118.5 18.5t-83.5 49t-30 64.5q0 9 1 14z" />
    <glyph glyph-name="T" unicode="T" horiz-adv-x="666" 
d="M644 455.5q-3 -0.5 -5 4.5q-26 109 -48.5 157t-52.5 63q-10 7 -44 10t-91 4q-9 0 -15.5 -9.5t-6.5 -26.5v-564q0 -49 26 -68.5t78 -21.5q8 0 8 -3q0 -4 -8 -4q-51 3 -78 3h-148q-27 0 -78 -3q-8 0 -8 4q0 3 8 3q52 2 78 21.5t26 68.5v564q0 17 -6.5 26.5t-15.5 9.5
q-57 -1 -91 -4t-44 -10q-30 -15 -54 -65.5t-47 -154.5q-2 -5 -5 -4.5t-2 6.5q17 122 17 227q0 13 4.5 17.5t13.5 4.5q8 0 48 -5.5t182 -5.5h96q142 0 182 5.5t49 5.5q8 0 12.5 -4.5t4.5 -17.5q-2 -96 17 -227q1 -6 -2 -6.5z" />
    <glyph glyph-name="U" unicode="U" horiz-adv-x="728" 
d="M231 21q-64 36 -98.5 103t-34.5 156v326q0 49 -15.5 68.5t-47.5 21.5q-5 0 -5 3.5t5 3.5q33 -3 48 -3h133q20 0 65 3q6 0 6.5 -3.5t-6.5 -3.5q-44 -2 -65.5 -21.5t-21.5 -68.5v-330q0 -114 59.5 -181.5t162.5 -67.5q67 0 117 32t77.5 89.5t27.5 133.5l-1 324
q0 49 -21.5 68.5t-65.5 21.5q-7 0 -6.5 3.5t6.5 3.5q45 -3 65 -3h43q16 0 43 3q5 0 5.5 -3.5t-4.5 -3.5q-29 -2 -43.5 -21.5t-14.5 -68.5v-322q0 -91 -32 -158.5t-91.5 -104t-139.5 -36.5q-86 0 -150 36z" />
    <glyph glyph-name="V" unicode="V" horiz-adv-x="710" 
d="M706 699.5q0 -3.5 -5 -3.5q-26 -1 -41.5 -19t-35.5 -68l-215 -554v-1l-2 -8q0 -3 2 -9l3 -8q2 -6 2 -7q0 -5 -6 -7l-70 -27q-2 -1 -6 -1q-6 0 -10 8l-239 614q-19 50 -34 68t-40 19q-4 0 -4 3.5t4 3.5q27 -3 42 -3h138q22 0 67 3q7 0 7.5 -3.5t-6.5 -3.5q-79 -4 -79 -52
q0 -13 8 -35l211 -546q2 -4 4.5 -4.5t3.5 4.5l212 546q8 22 8 36q0 47 -73 51q-7 0 -6.5 3.5t6.5 3.5q42 -3 63 -3h42q14 0 44 3q5 0 5 -3.5z" />
    <glyph glyph-name="W" unicode="W" horiz-adv-x="1038" 
d="M1033 699.5q0 -3.5 -5 -3.5q-26 -2 -42 -20.5t-32 -67.5l-187 -552l-1 -2q-1 -2 -1 -7q0 -6 2 -10l4 -8q1 -2 1 -6q0 -6 -6 -8l-73 -26q-3 -1 -7 -1q-6 0 -8 7l-158 471l-140 -409q-2 -4 -2 -11t1 -9l4 -8q2 -6 2 -7q0 -5 -6 -7l-74 -26q-2 -1 -6 -1q-7 0 -9 7l-206 613
q-16 49 -32 67.5t-42 20.5q-5 0 -5 3.5t5 3.5q30 -3 43 -3h135q19 0 58 3q5 0 5.5 -3.5t-5.5 -3.5q-67 -4 -67 -52q0 -16 7 -36l182 -540q2 -4 4.5 -4t3.5 4l132 386q5 15 5 22q0 6 -5 23l1 -1l-37 110q-16 49 -37.5 67.5t-59.5 20.5q-6 0 -5.5 3.5t6.5 3.5q39 -3 59 -3h141
q19 0 58 3q6 0 6.5 -3.5t-6.5 -3.5q-31 -2 -49 -13.5t-18 -38.5q0 -16 7 -36l180 -539q1 -5 4.5 -5t5.5 4v1l182 539q6 20 6 35q0 50 -73 53q-7 0 -6.5 3.5t6.5 3.5q42 -3 63 -3h43q13 0 43 3q5 0 5 -3.5z" />
    <glyph glyph-name="X" unicode="X" horiz-adv-x="699" 
d="M682.5 0.5q-0.5 -3.5 -5.5 -3.5q-36 3 -55 3h-148q-20 0 -56 -3q-6 0 -6.5 3.5t5.5 3.5q27 1 44.5 11t17.5 29t-15 42l-162 255l-165 -255q-15 -23 -15 -41q0 -20 17.5 -30t45.5 -11q7 0 6.5 -3.5t-6.5 -3.5q-39 3 -58 3h-46q-16 0 -55 -3q-5 0 -5.5 3.5t5.5 3.5
q32 1 51.5 18t50.5 64l170 261l-169 267q-29 47 -48.5 64t-51.5 18q-6 0 -5.5 3.5t5.5 3.5q36 -3 54 -3h149q20 0 59 3q5 0 5.5 -3.5t-5.5 -3.5q-28 -1 -46 -11t-18 -30q0 -15 15 -41l150 -237l154 237q15 22 15 41q0 20 -17.5 30t-45.5 11q-7 0 -6.5 3.5t6.5 3.5
q39 -3 58 -3h45q17 0 53 3q5 0 5.5 -3.5t-5.5 -3.5q-30 -1 -49 -18t-50 -64l-159 -244l180 -284q29 -47 49 -64t52 -18q6 0 5.5 -3.5z" />
    <glyph glyph-name="Y" unicode="Y" horiz-adv-x="643" 
d="M203 -3q-5 0 -5.5 3.5t5.5 3.5q37 2 55 21.5t17 68.5v167q0 18 -8 31l-174 320q-27 49 -42 66t-41 18q-5 0 -4.5 3.5t4.5 3.5l44 -3h140l65 3q6 0 6.5 -3.5t-6.5 -3.5q-74 -4 -74 -46q0 -15 12 -38l166 -307q3 -6 7 -6t7 6l166 307q12 23 12 38q0 42 -74 46q-6 0 -6 3
q0 2 19 2l53 -1h43q14 0 44 3q4 0 4 -3.5t-4 -3.5q-26 -1 -41 -18t-42 -66l-172 -319q-8 -13 -8 -32l1 -167q0 -49 18 -68.5t54 -21.5q6 0 5.5 -3.5t-5.5 -3.5q-36 3 -55 3h-131q-16 0 -55 -3z" />
    <glyph glyph-name="Z" unicode="Z" horiz-adv-x="661" 
d="M556 -7q-33 7 -64 7h-350q-28 0 -58 -2q-9 -1 -25 -1q-19 0 -19 13q0 9 8 20l450 652q2 4 2 7q0 6 -7 6l-286 -14q-37 -2 -60.5 -18t-41.5 -56t-35 -117q-1 -5 -4 -4.5t-2 5.5q8 58 11.5 99.5t4.5 98.5q2 21 18 21q10 0 23 -3q43 -8 81 -8l252 1l138 2q13 0 13 -9
q0 -8 -15 -29l-444 -647q-3 -3 -3 -7q0 -5 8 -5l315 14q51 3 87 59t57 174q2 4 4 4q3 0 2 -4q-11 -70 -16 -134t-5 -107q0 -11 -3.5 -16.5t-13.5 -5.5q-6 0 -22 4z" />
    <glyph glyph-name="bracketleft" unicode="[" horiz-adv-x="290" 
d="M41 715q0 8 2.5 13.5t12.5 5.5h224q10 0 10 -4q0 -1 -2.5 -2t-6.5 -1h-136q-8 0 -11 -2t-3.5 -10.5t-0.5 -22.5v-808q0 -14 0.5 -22.5t3.5 -10.5t11 -2h136q4 0 6.5 -1t2.5 -2q0 -4 -10 -4h-224q-10 0 -12.5 5.5t-2.5 13.5v854z" />
    <glyph glyph-name="backslash" unicode="\" horiz-adv-x="219" 
d="M214 -104q0 -7 -7 -7t-10 10l-23 93l-168 700l-1 5q0 7 7 7t10 -11q21 -93 114 -473l77 -318z" />
    <glyph glyph-name="bracketright" unicode="]" horiz-adv-x="290" 
d="M248 -139q0 -8 -2.5 -13.5t-12.5 -5.5h-223q-10 0 -10 4q0 1 2.5 2t6.5 1h136q8 0 11 2t3.5 10.5t0.5 22.5v808q0 14 -0.5 22.5t-3.5 10.5t-11 2h-136q-4 0 -6.5 1t-2.5 2q0 4 10 4h223q10 0 12.5 -5.5t2.5 -13.5v-854z" />
    <glyph glyph-name="asciicircum" unicode="^" horiz-adv-x="388" 
d="M341 480q6 -9 6 -13t-4 -5t-14 -1q-30 0 -38.5 2.5t-14.5 13.5l-100 184q-1 6 -7 6q-5 0 -8 -6l1 2l-108 -196q-4 -6 -11 -6q-4 0 0 6l132 234q3 7 6.5 9.5t9.5 2.5h4q6 0 9 -1.5t6 -7.5z" />
    <glyph glyph-name="underscore" unicode="_" horiz-adv-x="246" 
d="M13 -47q-8 0 -8 4q0 1 2.5 2t5.5 1h258q4 0 6.5 -1t2.5 -2q0 -4 -9 -4h-258z" />
    <glyph glyph-name="grave" unicode="`" horiz-adv-x="317" 
d="M131 543.5q-45 31.5 -83 67t-38 52.5q0 8 34 8q12 0 30 -2q9 -1 14.5 -7.5t12.5 -23.5q13 -32 31.5 -59.5t59.5 -60.5q4 -3 3 -6t-6 -2q-13 2 -58 33.5z" />
    <glyph glyph-name="a" unicode="a" horiz-adv-x="546" 
d="M552.5 160.5q3.5 0.5 3.5 -5.5q0 -54 -15 -92.5t-38.5 -57.5t-49.5 -19q-58 0 -78 100l-9 39q-19 -64 -66.5 -101.5t-103.5 -37.5q-54 0 -91 22t-54.5 57t-16.5 75q1 51 53 82t129 31q64 0 124 -10l-21 96q-11 51 -38 75t-81 24q-63 0 -109 -37.5t-49 -111.5q-1 -7 -5 -7
t-3 7q3 56 35 96t78.5 60.5t93.5 20.5q80 0 119 -31.5t55 -101.5l50 -233q7 -28 15.5 -43t22.5 -15q10 0 20.5 12t18 37.5t7.5 63.5q0 5 3.5 5.5zM356 173l-12 52q-60 12 -105 12q-65 0 -93 -18.5t-28 -67.5q0 -50 29.5 -83.5t87.5 -33.5q110 0 120 116q2 14 1 23z" />
    <glyph glyph-name="b" unicode="b" horiz-adv-x="549" 
d="M429 437.5q44 -28.5 69 -80.5t25 -121q0 -66 -29.5 -123.5t-82.5 -92t-120 -34.5q-42 0 -71 12.5t-63 35.5q-16 12 -27 17.5t-21 5.5q-7 0 -13.5 -8.5t-17.5 -26.5l-15 -25q-3 -6 -7 -6q-6 0 -4 8q10 73 10 159l-2 418q0 39 -8 54t-24 15q-3 0 -13 -2h-1q-6 0 -6 6
q47 12 83.5 28t64.5 42h1q2 0 4.5 -1.5t1.5 -5.5q-7 -33 -9 -74t-2 -117v-147q2 -35 7 -38q28 57 70.5 93.5t100.5 36.5q55 0 99 -28.5zM412 42q32 39 32 120q0 67 -22 125t-61 93t-89 35q-52 0 -86 -46.5t-34 -123.5v-48q0 -87 33 -140.5t118 -53.5q77 0 109 39z" />
    <glyph glyph-name="c" unicode="c" horiz-adv-x="471" 
d="M394 222q-1 -5 -4.5 -4t-1.5 6q5 23 5 42q0 45 -20 87t-54.5 67.5t-76.5 25.5q-139 0 -139 -155q0 -74 33.5 -133t86 -91.5t105.5 -32.5q32 0 66 11t58 41q4 3 5.5 1t-0.5 -5q-40 -50 -90 -73t-112 -23t-114.5 29t-83.5 82t-31 121q0 69 34 125.5t91.5 89.5t125.5 33
q44 0 81.5 -12t60 -31t22.5 -39q0 -5 -1 -8z" />
    <glyph glyph-name="d" unicode="d" horiz-adv-x="567" 
d="M574 160q3 0 3 -5q0 -70 -26 -118t-74 -48q-35 0 -57.5 25.5t-22.5 76.5v6l-2 7q-4 6 -8 -1q-57 -118 -168 -118q-51 0 -95.5 28.5t-71 80.5t-26.5 120q0 67 32 125t84.5 92.5t110.5 34.5q42 0 78.5 -16.5t64.5 -47.5v174q0 39 -8.5 54t-24.5 15q-3 0 -13 -2
q-4 -1 -6 2.5t0 3.5q47 12 83.5 28.5t63.5 41.5h1q2 0 4.5 -1.5t1.5 -5.5q-7 -33 -9 -74t-2 -117v-412q0 -33 7.5 -48.5t25.5 -15.5q31 0 40.5 29t10.5 81q0 5 3 5zM365.5 77q29.5 40 31.5 116v50q-4 82 -40.5 143t-106.5 61q-77 0 -111 -40.5t-34 -117.5q0 -64 24 -122
t64 -94t86 -36q57 0 86.5 40z" />
    <glyph glyph-name="e" unicode="e" horiz-adv-x="479" 
d="M454.5 86q2.5 -2 0.5 -5q-38 -48 -90 -71.5t-112 -23.5q-61 0 -113 29t-83 82t-31 121q0 70 33.5 126.5t90.5 89t124 32.5q75 0 124.5 -42t49.5 -113q0 -35 -11 -68q-82 -1 -332 -8q12 -59 47.5 -105t82.5 -71t92 -25q83 0 124 52q1 2 3.5 0zM135 409.5
q-35 -39.5 -35 -119.5q0 -28 4 -49l118 4q43 3 133 5q8 16 8 40q0 35 -18 72.5t-47.5 62t-61.5 24.5q-66 0 -101 -39.5z" />
    <glyph glyph-name="f" unicode="f" horiz-adv-x="314" 
d="M35 445q-4 0 -4 2.5t4 3.5q27 4 41.5 12.5t21 27.5t6.5 55q0 52 21.5 90t56 57.5t71.5 19.5q38 0 66 -19q4 -3 4 -7q0 -3 -3 -8q-7 -8 -27 -28q-14 -12 -18 -17q-8 -8 -13 -1q-19 21 -40 32.5t-39 11.5q-21 0 -35 -16q-9 -10 -9 -34q0 -59 49 -170q6 -6 19 -6h106
q2 0 1 -3t-5 -3h-93q-15 0 -21.5 -5.5t-6.5 -23.5v-326q0 -46 20 -64.5t62 -18.5q7 0 7 -4t-7 -4q-20 1 -78 1h-96q-30 0 -60 -2q-5 0 -5 4t5 4q32 0 47 19t15 64v327q0 16 -4 22.5t-16 6.5h-43z" />
    <glyph glyph-name="g" unicode="g" horiz-adv-x="481" 
d="M446.5 -17q29.5 -31 29.5 -74q0 -36 -20 -64t-51.5 -43t-65.5 -15q-51 0 -86 22t-57 53q-39 -18 -82 -18q-48 0 -76 27t-28 68q0 82 103 133q-48 24 -76 68.5t-28 103.5q0 61 30.5 111.5t83.5 80t117 29.5q43 0 85 -16q1 65 37 96t83 31q15 0 23.5 -7t4.5 -19l-17 -55
q-5 -14 -15 -7q-25 16 -53 16q-56 0 -51 -60q51 -25 81 -72t30 -108q0 -58 -31 -107.5t-84.5 -78.5t-117.5 -29q-50 0 -95 20q-35 -17 -53 -34.5t-18 -47.5q0 -24 16.5 -39.5t40.5 -15.5q28 0 52.5 9t61.5 28q42 22 74.5 33.5t72.5 11.5q50 0 79.5 -31zM112 411
q-33 -34 -33 -102q0 -57 22 -113.5t60.5 -92t85.5 -35.5q63 0 97.5 34t34.5 102q0 55 -23.5 111.5t-63.5 93t-86 36.5q-61 0 -94 -34zM413.5 -182q23.5 15 23.5 50q0 26 -16.5 42t-45.5 16q-37 0 -65.5 -10.5t-67.5 -31.5q-26 -14 -39 -20q22 -26 58.5 -43.5t83.5 -17.5
q45 0 68.5 15z" />
    <glyph glyph-name="h" unicode="h" horiz-adv-x="638" 
d="M644.5 160.5q3.5 0.5 3.5 -5.5q0 -54 -15 -92t-38.5 -57t-49.5 -19q-57 0 -80 98l-64 260q-10 44 -28.5 63.5t-62.5 19.5q-36 0 -65 -22t-46 -64t-17 -98v-167q0 -39 14.5 -55t45.5 -17q4 0 4 -3.5t-4 -3.5q-22 1 -105 1q-82 0 -105 -1q-5 0 -4.5 3.5t5.5 3.5q22 0 34 5
t18.5 20.5t6.5 47.5l-2 498q0 39 -8 54t-24 15q-3 0 -13 -2h-1q-6 0 -6 6q47 12 83.5 28t64.5 42h1q2 0 4.5 -1.5t1.5 -5.5q-7 -33 -9 -74t-2 -117v-195q15 58 63.5 99t107.5 41q64 0 94.5 -28t45.5 -87l62 -251q13 -58 40 -58q10 0 20.5 12t18 37.5t7.5 63.5q0 5 3.5 5.5z
" />
    <glyph glyph-name="i" unicode="i" horiz-adv-x="275" 
d="M198.5 29.5q15.5 -23.5 44.5 -24.5q5 0 5 -3.5t-5 -3.5q-18 1 -104 1t-105 -1q-5 0 -5 3.5t5 3.5q59 0 59 84v253q0 32 -9.5 47t-33.5 15q-4 0 -18 -2q-4 -1 -4.5 1.5t2.5 3.5q105 26 152 58q4 3 7.5 2t3.5 -5q-6 -45 -8 -72t-2 -65v-236q0 -36 15.5 -59.5zM83 594.5
q-15 11.5 -15 28.5q0 22 20 37.5t52 15.5q26 0 41.5 -11.5t15.5 -29.5q0 -21 -20.5 -36.5t-52.5 -15.5q-26 0 -41 11.5z" />
    <glyph glyph-name="j" unicode="j" horiz-adv-x="251" 
d="M92 342q0 32 -9.5 47t-33.5 15q-4 0 -18 -2q-3 -1 -3.5 1.5t1.5 3.5q105 26 152 58q4 3 7.5 2t3.5 -5q-5 -40 -7.5 -71t-2.5 -66v-197q0 -86 -40 -142.5t-93 -83t-93 -28.5h-1q-6 0 -6 4t7 4q56 4 96 46t40 165v249zM68 594.5q-15 11.5 -15 28.5q0 22 20 37.5t52 15.5
q26 0 41.5 -11.5t15.5 -29.5q0 -21 -20.5 -36.5t-52.5 -15.5q-26 0 -41 11.5z" />
    <glyph glyph-name="k" unicode="k" horiz-adv-x="560" 
d="M588 -33q0 -2 -2 -3t-6 0q-94 37 -167 109t-137 177l-94 -86v-87q0 -39 14.5 -55t45.5 -17q4 0 4 -3.5t-4 -3.5q-22 1 -105 1q-82 0 -105 -1q-5 0 -4.5 3.5t5.5 3.5q22 0 34 5t18.5 20.5t6.5 47.5l-2 498q0 39 -8 54t-24 15q-3 0 -13 -2h-1q-6 0 -6 6q47 12 83.5 28
t64.5 42h1q2 0 4.5 -1.5t1.5 -5.5q-7 -33 -9 -74t-2 -117v-350l91 85q-3 3 -7 11q7 -1 41 21l111 104q15 12 15 24q0 13 -16.5 20t-35.5 9q-5 0 -4.5 4t5.5 3q50 -2 92 -2q33 0 71 2q5 0 5 -3.5t-6 -3.5q-44 0 -112 -54l-92 -83q8 2 9 0q60 -136 112.5 -214t123.5 -123
q3 -2 3 -4z" />
    <glyph glyph-name="l" unicode="l" horiz-adv-x="274" 
d="M82 629.5q-8 14.5 -25 14.5q-8 0 -12 -1h-1q-6 0 -6 6q96 23 148 69q9 2 7 -6q-7 -33 -9 -74.5t-2 -116.5v-432q0 -36 15.5 -59.5t44.5 -24.5q4 0 4 -3.5t-4 -3.5q-18 1 -105 1q-86 0 -105 -1q-5 0 -4.5 3.5t5.5 3.5q59 0 59 84l-2 487q0 39 -8 53.5z" />
    <glyph glyph-name="m" unicode="m" horiz-adv-x="900" 
d="M906.5 160.5q3.5 0.5 3.5 -5.5q0 -54 -15 -92.5t-38.5 -57.5t-49.5 -19q-58 0 -81 99l-65 262q-11 46 -32 64t-55 18q-49 0 -74 -36t-29 -91l34 -220q6 -33 19.5 -46t27.5 -8q4 1 4.5 -0.5t-2.5 -3.5q-12 -19 -29.5 -28.5t-35.5 -7.5q-28 3 -48 22.5t-25 51.5l-42 269
q-15 98 -88 98q-43 0 -70.5 -43.5t-32.5 -105.5v-203q0 -39 14.5 -55t45.5 -17q5 0 5 -3.5t-5 -3.5q-21 1 -104 1q-82 0 -105 -1q-5 0 -5 3.5t5 3.5q22 0 34 5t18.5 20.5t6.5 47.5v264q0 32 -9.5 47t-33.5 15q-4 0 -18 -2q-4 -1 -4.5 1.5t2.5 3.5q105 26 152 58q4 3 7.5 2
t3.5 -5q-5 -36 -7.5 -65t-2.5 -59q14 52 55 90t94 38q48 0 84.5 -31.5t49.5 -100.5q9 56 50 94t101 38q55 0 88.5 -25.5t48.5 -87.5l62 -253q15 -58 41 -58q10 0 20.5 12t18 37.5t7.5 63.5q0 5 3.5 5.5z" />
    <glyph glyph-name="n" unicode="n" horiz-adv-x="639" 
d="M645 160.5q4 0.5 4 -5.5q0 -54 -15 -92t-39 -57t-50 -19q-57 0 -80 98l-63 260q-11 44 -29.5 63.5t-62.5 19.5q-50 0 -85.5 -42.5t-41.5 -115.5v-193q0 -39 14.5 -55t45.5 -17q5 0 5 -3.5t-5 -3.5q-21 1 -104 1q-82 0 -105 -1q-5 0 -5 3.5t5 3.5q22 0 34 5t18.5 20.5
t6.5 47.5v264q0 32 -9.5 47t-33.5 15q-4 0 -18 -2q-4 -1 -4.5 1.5t2.5 3.5q105 26 152 58q4 3 7.5 2t3.5 -5q-6 -44 -8 -70t-2 -62q16 56 64.5 96t105.5 40q65 0 95.5 -28t44.5 -87l62 -251q7 -29 16.5 -43.5t23.5 -14.5q10 0 21 12t18 37.5t7 63.5q0 5 4 5.5z" />
    <glyph glyph-name="o" unicode="o" horiz-adv-x="551" 
d="M140.5 14q-53.5 29 -84 82t-30.5 121t34 125t94 90.5t133 33.5q67 0 121 -29t85.5 -81.5t31.5 -120.5t-35 -125.5t-95.5 -91t-134.5 -33.5q-66 0 -119.5 29zM409 46q38 38 38 112q0 61 -29.5 128t-77 112t-97.5 45q-66 0 -103 -37.5t-37 -111.5q0 -60 29.5 -127.5
t76 -113t95.5 -45.5q67 0 105 38z" />
    <glyph glyph-name="p" unicode="p" horiz-adv-x="576" 
d="M455.5 437.5q43.5 -28.5 69 -80.5t25.5 -121q0 -65 -29.5 -122.5t-81 -92.5t-113.5 -35q-43 0 -69.5 12t-49.5 30q-15 11 -19 11q-8 0 -8 -19v-132q0 -44 14.5 -63t42.5 -20q4 0 4 -3.5t-4 -3.5q-42 2 -91 2q-63 0 -113 -2q-5 0 -4.5 3.5t5.5 3.5q29 0 42.5 19t13.5 65
v453q0 32 -9.5 47t-33.5 15q-4 0 -18 -2q-4 -1 -4.5 1.5t1.5 3.5q43 11 85 26t67 32q5 3 8 2t3 -5q-7 -65 -8 -85q2 -37 7 -38q62 127 172 127q52 0 95.5 -28.5zM439 43q33 40 33 119q0 66 -22 124t-61.5 93t-88.5 35q-53 0 -86.5 -44t-33.5 -115v-58q0 -84 40 -139t112 -55
q74 0 107 40z" />
    <glyph glyph-name="q" unicode="q" horiz-adv-x="556" 
d="M56.5 339q30.5 58 82.5 92.5t113 34.5q41 0 71.5 -12.5t61.5 -33.5q18 -11 28 -16t19 -5q14 0 27.5 17t28.5 42q3 5 6 5q2 0 3.5 -2t0.5 -5q-11 -81 -11 -163v-405q0 -44 14.5 -63t42.5 -20q5 0 5 -3.5t-5 -3.5q-42 2 -90 2q-63 0 -113 -2q-5 0 -5 3.5t5 3.5
q29 0 42.5 19t13.5 65v171q0 32 -2 42q-1 10 -6 1q-28 -56 -72.5 -87t-103.5 -31q-52 0 -94.5 28.5t-67.5 80.5t-25 120q0 67 30.5 125zM127.5 166.5q22.5 -58.5 61 -94t84.5 -35.5q124 0 124 162v12q0 109 -37 172.5t-116 63.5q-76 0 -107.5 -40t-31.5 -118
q0 -64 22.5 -122.5z" />
    <glyph glyph-name="r" unicode="r" horiz-adv-x="426" 
d="M388.5 447q31.5 -19 31.5 -47q0 -7 -1 -11l-42 -156q-1 -6 -4 -5t-2 7q5 32 5 51q0 57 -27.5 84.5t-72.5 27.5q-54 0 -73.5 -52t-19.5 -130v-139q0 -39 14.5 -55t45.5 -17q5 0 5 -3.5t-5 -3.5q-21 1 -104 1q-82 0 -105 -1q-5 0 -5 3.5t5 3.5q22 0 34 5t18.5 20.5
t6.5 47.5v264q0 32 -9.5 47t-33.5 15q-4 0 -18 -2q-4 -1 -4.5 1.5t2.5 3.5q105 26 152 58q4 3 7.5 2t3.5 -5q-6 -45 -8 -72t-2 -65v-18q13 65 44 112t90 47q40 0 71.5 -19z" />
    <glyph glyph-name="s" unicode="s" horiz-adv-x="433" 
d="M56 179q1 4 3.5 3.5t2.5 -4.5q-2 -87 37 -132t113 -45q50 0 77.5 16t27.5 55q-1 41 -34.5 70.5t-105.5 67.5q-65 36 -98 65t-33 68q0 32 24 60.5t66 45.5t94 17q65 0 117.5 -18t44.5 -52l-28 -111q-1 -3 -3.5 -3t-1.5 4q0 84 -34.5 123.5t-110.5 39.5q-52 0 -71.5 -15
t-19.5 -41q0 -21 16 -39.5t41 -34t76 -43.5q68 -37 107.5 -72.5t39.5 -84.5q0 -36 -25.5 -66.5t-72 -49t-105.5 -18.5q-48 0 -88.5 10.5t-62.5 29.5t-18 41z" />
    <glyph glyph-name="t" unicode="t" horiz-adv-x="306" 
d="M102.5 15q-24.5 29 -24.5 75v327q0 14 -3.5 21t-17.5 7h-34q-5 0 -5 2.5t4 3.5q54 9 93 44.5t51 92.5q2 6 4 6q3 0 3 -6q-1 -60 -4 -118v-3q0 -10 5 -13t19 -3h96q2 0 1 -3t-5 -3h-88q-17 0 -23 -5.5t-6 -21.5v-306q0 -35 15 -54.5t39 -19.5q18 0 38.5 12.5t38.5 37.5
q4 5 6 3.5t-1 -6.5q-34 -50 -70 -74.5t-69 -24.5q-38 0 -62.5 29z" />
    <glyph glyph-name="u" unicode="u" horiz-adv-x="563" 
d="M570 160q3 0 3 -5q0 -69 -26.5 -117.5t-73.5 -48.5q-35 0 -57.5 25.5t-22.5 76.5v33q-12 -62 -55 -100.5t-108 -38.5q-73 0 -117 49.5t-44 145.5v162q0 32 -9.5 47t-33.5 15q-4 0 -18 -2q-4 -1 -4.5 1.5t1.5 3.5q43 11 85 26t67 32q5 3 8 2t3 -5q-5 -46 -7 -73t-2 -64
v-146q0 -160 111 -160q56 0 89.5 45t33.5 125v153q0 32 -9.5 47t-33.5 15q-4 0 -18 -2q-4 -1 -4.5 1.5t1.5 3.5q43 11 85 26t67 32q5 3 8 2t3 -5q-5 -46 -7 -73t-2 -64v-216q0 -33 7.5 -48.5t25.5 -15.5q31 0 40.5 29t10.5 81q0 5 3 5z" />
    <glyph glyph-name="v" unicode="v" horiz-adv-x="523" 
d="M518 448.5q0 -3.5 -4 -3.5q-20 0 -33.5 -17t-32.5 -62l-136 -317q-2 -7 1 -12l6 -13q3 -7 -4 -10l-69 -25q-2 -1 -5 -1q-5 0 -7 6l-159 372q-20 46 -33 62.5t-34 16.5q-3 0 -3 3.5t3 3.5l43 -1h101l75 1q6 0 6 -3.5t-6 -3.5q-64 0 -64 -42q0 -14 9 -37l129 -301
q2 -5 4.5 -5.5t5.5 5.5l129 301q9 23 9 37q0 42 -62 42q-6 0 -6 3.5t6 3.5l73 -1h12l42 1q4 0 4 -3.5z" />
    <glyph glyph-name="w" unicode="w" horiz-adv-x="779" 
d="M774 448.5q0 -3.5 -4 -3.5q-20 0 -33.5 -17t-32.5 -62l-133 -315q-1 -2 -1 -6t2 -8l6 -12l1 -4q0 -5 -5 -7l-68 -25q-2 -1 -5 -1q-6 0 -8 6l-103 261l-85 -204q-1 -2 -1 -6t2 -8l6 -12l1 -4q0 -5 -5 -7l-68 -25q-2 -1 -5 -1q-5 0 -7 6l-154 372q-19 46 -32 62.5t-34 16.5
q-3 0 -3 3.5t3 3.5l43 -1h100l52 1q5 0 5 -3.5t-5 -3.5q-42 0 -42 -37q0 -18 10 -42l124 -301q4 -9 8 0l83 200l-40 101q-19 45 -35 62t-43 17q-4 0 -4 3.5t4 3.5l54 -1h101l61 1q5 0 5 -3.5t-5 -3.5q-51 0 -51 -40q0 -15 9 -39l119 -300q2 -5 4.5 -5.5t4.5 5.5l126 300
q10 23 10 39q0 40 -55 40q-5 0 -5 3.5t5 3.5l65 -1h12l42 1q4 0 4 -3.5z" />
    <glyph glyph-name="x" unicode="x" horiz-adv-x="512" 
d="M512 2.5q0 -3.5 -5 -3.5q-15 1 -60 1h-109q-45 0 -60 -1q-5 0 -5 3.5t5 3.5q21 0 34 8t13 24q0 17 -16 42l-99 149l-102 -149q-17 -24 -17 -42q0 -16 13.5 -24t34.5 -8q5 0 5 -3.5t-5 -3.5q-16 1 -61 1h-13q-45 0 -61 -1q-5 0 -5 3.5t5 3.5q29 0 47.5 15.5t48.5 57.5
l107 156l-90 136q-28 43 -46 58.5t-45 15.5q-4 0 -4 3.5t4 3.5l57 -1h108l65 1q5 0 5 -3.5t-5 -3.5q-24 0 -38 -8t-14 -25q0 -16 16 -41l79 -119l81 120q17 24 17 41q0 16 -14 24t-37 8q-6 0 -6 3.5t6 3.5l64 -1h14l60 1q5 0 5 -3.5t-5 -3.5q-29 0 -47.5 -15.5t-47.5 -57.5
l-86 -125l110 -167q28 -42 46.5 -58t47.5 -16q5 0 5 -3.5z" />
    <glyph glyph-name="y" unicode="y" horiz-adv-x="523" 
d="M518 448.5q0 -3.5 -4 -3.5q-20 0 -33.5 -17t-32.5 -62l-161 -377q-48 -107 -88.5 -152t-94.5 -45q-40 0 -72 19.5t-37 46.5q-1 12 9.5 35.5t22.5 37.5t12 3q0 -19 13 -47t35.5 -48.5t48.5 -20.5q33 0 58 26t53 88q1 3 1 9q0 22 -21 69l-152 356q-20 46 -33 62.5t-34 16.5
q-3 0 -3 3.5t3 3.5l43 -1h101l72 1q6 0 6 -3.5t-6 -3.5q-61 0 -61 -42q0 -14 9 -37l128 -301q6 -11 11 0l129 301q9 21 9 36q0 43 -64 43q-6 0 -6 3.5t6 3.5l75 -1h12l42 1q4 0 4 -3.5z" />
    <glyph glyph-name="z" unicode="z" horiz-adv-x="461" 
d="M398 -3q-15 3 -40 3h-205l-63 -1q-17 -1 -44 -1q-13 0 -13 9q0 7 9 19l279 407q3 5 3 7q0 3 -2.5 4.5t-6.5 0.5l-160 -10q-34 -1 -57 -24.5t-36 -86.5q-1 -4 -4 -4t-3 4q5 35 5 76q0 16 -2 46q0 11 9 11q6 0 20.5 -3t44.5 -3h189l53 2l52 1q8 0 8 -7t-20 -32
q-24 -33 -34 -51l-238 -345q-3 -4 -3 -7q0 -7 10 -6l173 11q34 1 53 13.5t30.5 43t22.5 90.5q2 5 4.5 5t2.5 -5q-8 -64 -8 -120q0 -26 1 -39q0 -11 -9 -11q-6 0 -21 3z" />
    <glyph glyph-name="braceleft" unicode="{" horiz-adv-x="315" 
d="M161 -115.5q-42 36.5 -42 106.5q0 17 1 40.5t2 35.5q4 52 4 83q0 66 -18 102t-75 36q-7 0 -6.5 3.5t6.5 3.5q40 0 60.5 14.5t26.5 41t6 70.5q0 31 -4 91q-1 14 -2 33t-1 42q0 148 187 148q4 0 6.5 -1t2.5 -2q0 -4 -9 -4q-53 0 -75.5 -34t-22.5 -99q0 -33 3 -71
q1 -13 2 -32.5t1 -45.5q0 -59 -32.5 -96t-86.5 -51q-2 -1 -2 -2t2 -2q75 -7 97 -48t22 -97q0 -10 -3 -94q-3 -36 -3 -66q0 -61 24 -98t74 -37q9 0 9 -4q0 -1 -2.5 -2t-6.5 -1q-103 0 -145 36.5z" />
    <glyph glyph-name="bar" unicode="|" horiz-adv-x="224" 
d="M107 714q0 5 1.5 8t3.5 3q5 0 5 -11l-2 -832q0 -10 -5 -10q-2 0 -3.5 2.5t-1.5 7.5z" />
    <glyph glyph-name="braceright" unicode="}" horiz-adv-x="309" 
d="M146 698.5q42 -36.5 42 -106.5q0 -18 -1 -41t-2 -36q-4 -52 -4 -82q0 -67 17.5 -103t75.5 -36q7 0 6.5 -3t-6.5 -3q-40 0 -60.5 -15t-26.5 -41t-6 -70q0 -33 4 -91q1 -15 2 -34t1 -42q0 -147 -187 -147q-4 0 -6.5 1t-2.5 2q0 4 10 4q52 0 74.5 33.5t22.5 98.5q0 35 -3 72
q-1 13 -2 32.5t-1 45.5q0 59 32.5 96t86.5 51q2 1 2 2t-2 1q-75 8 -97 49t-22 96q0 25 1.5 53.5t1.5 41.5q3 35 3 66q0 61 -24 98t-73 37q-10 0 -10 4q0 1 2.5 2t6.5 1q103 0 145 -36.5z" />
    <glyph glyph-name="asciitilde" unicode="~" horiz-adv-x="357" 
d="M43.5 197q-3.5 1 -1.5 6q21 61 70 61q28 0 60 -16l36 -17q22 -11 41 -11q18 0 32 11t27 35q2 6 6 5t2 -7q-13 -32 -30 -47.5t-40 -15.5q-25 0 -60 18l-32 16q-30 15 -49 15q-17 0 -30 -12t-25 -37q-3 -5 -6.5 -4z" />
    <glyph glyph-name="uni00A0" unicode="&#xa0;" horiz-adv-x="209" 
 />
    <glyph glyph-name="exclamdown" unicode="&#xa1;" horiz-adv-x="295" 
d="M190.5 497q14.5 -10 14.5 -25q0 -19 -20.5 -34t-52.5 -15q-26 -1 -41 9t-15 26q0 20 21 34.5t55 14.5q24 0 38.5 -10zM177 13q20 -138 20 -180q0 -45 -56 -45q-55 0 -55 45q0 43 20 183q28 197 32 304q0 5 3.5 5t3.5 -5q4 -108 32 -307z" />
    <glyph glyph-name="cent" unicode="&#xa2;" horiz-adv-x="471" 
d="M457.5 87q1.5 -2 -0.5 -5q-38 -47 -85.5 -70.5t-106.5 -25.5v-176q0 -10 -5 -10q-2 0 -3.5 2.5t-1.5 7.5v176v0q-62 0 -114.5 29t-83.5 82t-31 121q0 65 30.5 120t83.5 88.5t117 38.5v177q0 5 1.5 8t3.5 3q5 0 5 -11v-176h10q44 0 81.5 -12t60 -31t22.5 -39q0 -5 -1 -8
l-46 -154q-1 -5 -4.5 -4t-1.5 6q5 23 5 42q0 63 -36 115t-90 63l-2 -399q33 -11 63 -11q32 0 66 11t58 41q4 3 5.5 1zM147 141q44 -65 108 -92l2 396q-5 1 -15 1q-139 0 -139 -155q0 -85 44 -150z" />
    <glyph glyph-name="sterling" unicode="&#xa3;" horiz-adv-x="610" 
d="M556 100.5q3 -1.5 -1 -6.5q-29 -46 -69.5 -77.5t-104.5 -31.5q-42 0 -70.5 7.5t-62.5 22.5q-27 11 -44.5 16t-39.5 5q-32 0 -80 -16q-26 -17 -45 -25q-15 -8 -24 -8q-4 0 -6 2t-2 4q0 7 8 14.5t23 13.5l59 16q78 59 78 163q0 37 -11 66.5t-32 59.5h-121q-5 0 -5 3.5
t5 3.5h116l-20 28q-33 43 -49.5 76t-16.5 77q0 62 34 106.5t87.5 67t111.5 22.5q83 0 151.5 -29.5t104.5 -102.5q3 -5 -1 -11t-19 -17q-38 -27 -50 -27q-5 0 -7 5q-25 77 -79 120.5t-115 43.5q-40 0 -65.5 -7t-46.5 -25q-15 -13 -22 -35t-7 -62q0 -36 14 -63.5t43 -66.5
q3 -5 17 -24.5t24 -38.5t16 -37h197q5 0 5 -3.5t-5 -3.5h-195q9 -28 9 -63q0 -50 -35.5 -113t-95.5 -110q66 16 122 24t121 8q22 0 79 -5q34 -4 47 -4q23 0 39 7.5t29 26.5q4 5 7 3.5z" />
    <glyph glyph-name="currency" unicode="&#xa4;" horiz-adv-x="383" 
d="M342 178l-22 -21l-44 43q-39 -31 -93 -31q-47 0 -82 24l-37 -38l-11 12l38 34q-41 36 -41 94q0 50 33 86l-42 37l22 22l41 -40q42 30 90 30q51 0 87 -28l38 38l10 -11l-39 -35q18 -17 27.5 -40t9.5 -50q0 -48 -30 -84zM259.5 208q21.5 27 21.5 70q0 33 -13.5 65.5
t-36.5 53t-50 20.5q-43 0 -64 -27t-21 -73q0 -34 13.5 -65.5t37 -51t52.5 -19.5q39 0 60.5 27z" />
    <glyph glyph-name="yen" unicode="&#xa5;" horiz-adv-x="643" 
d="M638 699.5q0 -3.5 -4 -3.5q-26 -1 -41 -18t-42 -66l-172 -319q-4 -6 -6 -14q82 -1 204 -1q7 0 7 -7t-7 -7q-123 0 -206 1v-4l1 -108h205q7 0 7 -7t-7 -7q-123 0 -205 1v-46q0 -49 18 -68.5t54 -21.5q6 0 5.5 -3.5t-5.5 -3.5q-36 3 -55 3h-131q-16 0 -55 -3q-5 0 -5.5 3.5
t5.5 3.5q37 2 55 21.5t17 68.5v46q-95 1 -203 1q-8 0 -8 7q0 2 2 4t6 2h203v107v4q-95 1 -203 1q-3 0 -5.5 2.5t-2.5 4.5q0 7 8 7q107 0 201 -1l-6 13l-174 320q-27 49 -42 66t-41 18q-5 0 -4.5 3.5t4.5 3.5l44 -3h140l65 3q6 0 6.5 -3.5t-6.5 -3.5q-74 -4 -74 -46
q0 -15 12 -38l166 -307q3 -6 7 -6t7 6l166 307q12 23 12 38q0 42 -74 46q-6 0 -6 3q0 2 19 2l53 -1h43q14 0 44 3q4 0 4 -3.5z" />
    <glyph glyph-name="brokenbar" unicode="&#xa6;" horiz-adv-x="225" 
d="M107 690q0 10 7 10q6 0 6 -10q0 -191 -2 -319q0 -7 -6 -7t-6 7zM117 -91q0 -9 -7 -9q-3 0 -5 2.5t-2 6.5q0 84 1 135l1 187q0 8 7 8q6 0 6 -8z" />
    <glyph glyph-name="section" unicode="&#xa7;" horiz-adv-x="548" 
d="M116 -76q-10 1 -13.5 21t-6.5 81l-4 63q-1 4 2.5 4.5t4.5 -3.5q10 -52 29 -95t37 -54q21 -13 45 -13q36 0 62.5 23.5t26.5 63.5q0 31 -11.5 57.5t-35 55.5t-72.5 82q-64 72 -94 111t-45 73.5t-15 74.5q0 64 40 120t111.5 89t160.5 33q44 0 93 -3q13 -1 16.5 -22t5.5 -81
l3 -62q1 -4 -2.5 -4.5t-4.5 3.5q-8 65 -25 101.5t-37 46.5q-12 9 -23 12t-26 3q-37 0 -64 -24t-27 -62q0 -39 31.5 -84t106.5 -118q51 -50 78 -82t42.5 -68.5t15.5 -80.5q0 -68 -46 -129.5t-121.5 -99t-158.5 -37.5q-40 0 -79 4zM432.5 28q50.5 48 50.5 117q0 35 -12.5 64
t-42.5 66t-90 99q-74 76 -112.5 129.5t-38.5 93.5q0 23 9.5 43.5t33.5 41.5q-72 -20 -120.5 -65t-48.5 -102q0 -39 16 -74t48 -74.5t100 -114.5q67 -72 99 -119.5t32 -93.5q0 -23 -9.5 -46t-32.5 -40q68 27 118.5 75z" />
    <glyph glyph-name="dieresis" unicode="&#xa8;" horiz-adv-x="365" 
d="M61.5 549.5q-14.5 11.5 -14.5 27.5q0 19 16 33t42 14q21 0 35 -11.5t14 -28.5q-1 -19 -17 -32.5t-41 -13.5q-20 0 -34.5 11.5zM212 549q-14 11 -14 27q0 20 16 34t42 14q20 0 34 -11t14 -27q0 -20 -15.5 -34t-41.5 -14q-21 0 -35 11z" />
    <glyph glyph-name="copyright" unicode="&#xa9;" horiz-adv-x="776" 
d="M197.5 33q-73.5 45 -115 124.5t-41.5 179.5q0 95 46.5 181t130.5 139t190 53q93 0 167.5 -45t116.5 -124t42 -176t-47 -184t-131.5 -140t-192.5 -53q-92 0 -165.5 45zM556.5 56q74.5 43 114 123.5t39.5 191.5q0 88 -41 160t-114 113t-164 41q-100 0 -173.5 -42.5
t-112 -121t-38.5 -184.5q0 -90 39.5 -164t111 -117t161.5 -43q103 0 177.5 43zM284.5 146.5q-50.5 27.5 -80 78.5t-29.5 117t32.5 120.5t87.5 86t120 31.5q41 0 76.5 -11.5t56 -30.5t20.5 -42q0 -4 -2 -14l-38 -117q-1 -4 -3.5 -4t-1.5 5q2 22 2 32q0 75 -39 116t-105 41
q-65 0 -100.5 -34.5t-35.5 -114.5q0 -71 31 -125.5t79.5 -84t98.5 -29.5q86 0 129 48q3 3 4.5 1t-0.5 -5q-38 -47 -86 -69.5t-107 -22.5t-109.5 27.5z" />
    <glyph glyph-name="ordfeminine" unicode="&#xaa;" horiz-adv-x="321" 
d="M46 583.5q28 17.5 70 17.5q35 0 67 -6l-11 51q-5 27 -21.5 39.5t-46.5 12.5q-33 0 -56.5 -20t-24.5 -59q0 -4 -3 -4t-3 4q0 47 34 71.5t79 24.5q43 0 65 -17.5t30 -55.5l27 -125q3 -16 7.5 -23.5t12.5 -7.5q9 0 17 14t8 46q0 3 3 3.5t3 -3.5q0 -45 -17 -68.5t-38 -23.5
q-18 0 -29 14t-17 41l-4 20q-10 -34 -35.5 -54.5t-57.5 -20.5q-43 0 -65.5 25t-22.5 59q1 28 29 45.5zM186 583q-28 7 -57 7q-37 0 -51 -9.5t-14 -37.5q0 -26 16 -43.5t47 -17.5q32 0 47.5 16.5t16.5 45.5q1 6 0 13zM276 429q3 0 4.5 -1.5t1.5 -3.5q0 -6 -6 -6h-246
q-3 0 -5 2t-2 4t2 3.5t5 1.5h246z" />
    <glyph glyph-name="guillemotleft" unicode="&#xab;" horiz-adv-x="425" 
d="M263.5 479.5q0.5 -1.5 -3.5 -5.5l-192 -186l6 4q-4 -4 -4 -9q0 -4 3 -9l176 -205q5 -7 5 -11q0 -6 -22 -16q-29 -10 -38 -10q-7 0 -10 5l-152 181q-7 9 -7 15v20q0 7 12 16l216 209q2 3 5 3q5 0 5.5 -1.5zM412.5 479.5q0.5 -1.5 -3.5 -5.5l-192 -186l6 4q-4 -4 -4 -9
q0 -4 3 -9l176 -205q5 -7 5 -11q0 -6 -22 -16q-29 -10 -38 -10q-7 0 -10 5l-152 181q-7 9 -7 15v20q0 7 12 16l216 209q2 3 5 3q5 0 5.5 -1.5z" />
    <glyph glyph-name="logicalnot" unicode="&#xac;" horiz-adv-x="500" 
d="M55 234q-6 0 -10 2.5t-4 5.5t4 5t10 2h394q10 0 10 -11v-143q0 -6 -2.5 -10t-5.5 -4t-5 4t-2 10v139h-389z" />
    <glyph glyph-name="uni00AD" unicode="&#xad;" horiz-adv-x="244" 
d="M35 245q-6 0 -6 3.5t6 3.5h195q6 0 6 -3.5t-6 -3.5h-195z" />
    <glyph glyph-name="registered" unicode="&#xae;" horiz-adv-x="541" 
d="M144 263.5q-48 29.5 -75.5 82t-27.5 118.5q0 62 31 119t86.5 92t124.5 35q62 0 111 -29.5t77 -81.5t28 -116t-31 -121.5t-87.5 -92.5t-127.5 -35q-61 0 -109 29.5zM423 315q57 62 57 171q0 57 -27 104t-74.5 74t-106.5 27q-98 0 -154 -61t-56 -166q0 -58 26 -106.5
t72 -76.5t104 -28q102 0 159 62zM145.5 616q0.5 2 2.5 2l22 -1l92 1q57 0 89.5 -21t32.5 -54q0 -35 -22 -54t-65 -24q29 -2 45.5 -11t21.5 -36q2 -10 4.5 -20t4.5 -19q4 -19 11.5 -26.5t19.5 -7.5q2 0 2 -1.5t-2 -1.5l-20 1h-46q-5 0 -7 5l-16 66q-7 29 -18.5 38.5
t-31.5 10.5q-11 1 -26 1q-1 0 -1.5 1t1.5 1q52 2 73.5 19t21.5 58q0 31 -19 49.5t-56 19.5q-27 1 -34 -1.5t-7 -13.5v-217q0 -19 7 -27t21 -8q2 0 2 -1.5t-2 -1.5l-21 1h-61l-21 -1q-2 0 -2.5 1.5t2.5 1.5q14 0 21 8t7 27v200q0 19 -5 26t-18 8q-3 0 -2.5 2z" />
    <glyph glyph-name="macron" unicode="&#xaf;" horiz-adv-x="600" 
d="M188 590q-8 0 -8 5q0 4 8 4h253q9 0 9 -4q0 -5 -9 -5h-253z" />
    <glyph glyph-name="degree" unicode="&#xb0;" horiz-adv-x="289" 
d="M74.5 575q-25.5 22 -25.5 58q0 33 28.5 59t68.5 26q38 0 65.5 -22t27.5 -56q0 -35 -29.5 -61t-71.5 -26q-38 0 -63.5 22zM192 576.5q11 9.5 11 33.5q0 19 -11 41.5t-29 38t-36 15.5q-41 0 -41 -44q0 -20 11 -42t28.5 -37t36.5 -15t30 9.5z" />
    <glyph glyph-name="plusminus" unicode="&#xb1;" horiz-adv-x="404" 
d="M200 244q0 3 -1 5.5t-4 2.5h-133q-6 0 -10 2.5t-4 5.5t4 5t10 2h132q4 0 5 3t1 8v131q0 6 2.5 10t5.5 4t5.5 -4t2.5 -10v-131q0 -5 1 -8t4 -3h132q5 0 8 -2.5t3 -5.5q0 -7 -11 -7h-132q-3 0 -4 -2.5t-1 -5.5v-131q0 -13 -8 -13t-8 13v131zM56 24q-6 0 -9.5 1t-4.5 2
q0 3 14 3h290q5 0 7.5 -1t3.5 -2q0 -3 -11 -3h-290z" />
    <glyph glyph-name="acute" unicode="&#xb4;" horiz-adv-x="317" 
d="M10 511q-1 3 3 6q41 32 59.5 60t31.5 59q7 18 12 24.5t15 7.5q20 2 31 2q33 0 33 -8q0 -14 -38.5 -50t-83.5 -69.5t-57 -34.5q-5 0 -6 3z" />
    <glyph glyph-name="paragraph" unicode="&#xb6;" horiz-adv-x="562" 
d="M212.5 -155q6.5 -1 13.5 -1q42 0 63 21t27 55t6 85v306h-63q-58 0 -104 26t-71.5 70.5t-25.5 99.5q0 53 25.5 97.5t71.5 70t104 25.5h219v-594q0 -127 -61 -199.5t-224 -70.5q-6 0 -6 3t3 5t8 2q8 0 14.5 -1zM371 25q0 -62 -21 -110.5t-70 -65.5q65 12 97 42.5t41 71
t9 100.5v630h-56v-668z" />
    <glyph glyph-name="periodcentered" unicode="&#xb7;" horiz-adv-x="227" 
d="M62 198q-14 10 -14 25q0 20 22 34.5t57 14.5q24 0 38 -10t14 -25q0 -20 -23 -34.5t-56 -14.5q-24 0 -38 10z" />
    <glyph glyph-name="cedilla" unicode="&#xb8;" horiz-adv-x="352" 
d="M92 -185.5q-28 11.5 -28 31.5q0 7 7 16.5t15 9.5q5 0 11 -6.5t7 -8.5q15 -18 30.5 -29t41.5 -11q23 0 35.5 8t12.5 20q-1 18 -31.5 35.5t-88.5 29.5l51 90h11q-10 -15 -17 -28t-14 -30q55 -15 80.5 -34t25.5 -45q0 -23 -23.5 -41.5t-60.5 -18.5t-65 11.5z" />
    <glyph glyph-name="ordmasculine" unicode="&#xba;" horiz-adv-x="303" 
d="M49 489q-36 35 -36 91q0 59 40 97t101 38q56 0 93 -35t37 -91q0 -60 -41.5 -97.5t-103.5 -37.5q-54 0 -90 35zM241 549q0 33 -15.5 68.5t-41 59t-54.5 23.5q-75 0 -75 -81q0 -32 15 -67.5t39.5 -59t53.5 -23.5q78 0 78 80zM269 429q3 0 4.5 -1.5t1.5 -3.5q0 -6 -6 -6
h-247q-3 0 -5 2t-2 4t2 3.5t5 1.5h247z" />
    <glyph glyph-name="guillemotright" unicode="&#xbb;" horiz-adv-x="411" 
d="M363 297q4 -4 6.5 -8t2.5 -9v-19q0 -6 -2.5 -9.5t-9.5 -8.5l-210 -210q-1 -2 -5 -2q-5 0 -5.5 1.5t3.5 5.5l186 185l-3 -2q4 5 4 10t-3 8l-174 187q-4 4 -4 9q0 8 24 18q26 8 32 8q7 0 10 -5zM221 297q4 -4 6.5 -8t2.5 -9v-19q0 -6 -2.5 -9.5t-9.5 -8.5l-210 -210
q-1 -2 -5 -2q-5 0 -5.5 1.5t3.5 5.5l186 185l-3 -2q4 5 4 10t-3 8l-174 187q-4 4 -4 9q0 8 24 18q26 8 32 8q7 0 10 -5z" />
    <glyph glyph-name="questiondown" unicode="&#xbf;" horiz-adv-x="525" 
d="M360.5 499q14.5 -10 14.5 -25q0 -19 -20.5 -34t-52.5 -15q-26 -1 -41 9t-15 26q0 20 21 34.5t55 14.5q24 0 38.5 -10zM300 249q-11 -34 -28 -57.5t-46 -56.5q-39 -43 -58 -75.5t-19 -80.5q0 -75 44 -118t114 -43q78 0 126 38t58 118q1 6 3.5 9t4.5 3t4 -3t1 -8
q-8 -54 -43 -97t-87.5 -67.5t-112.5 -24.5q-61 0 -111.5 23t-79.5 65.5t-29 98.5q0 44 17.5 75.5t43 51.5t68.5 47q44 27 69.5 47.5t43.5 53t18 78.5q0 5 3.5 5.5t3.5 -4.5q3 -44 -8 -78z" />
    <glyph glyph-name="Agrave" unicode="&#xc0;" horiz-adv-x="718" 
d="M713 0.5q0 -3.5 -4 -3.5q-30 3 -42 3h-137q-22 0 -67 -3q-7 0 -7 3.5t7 3.5q77 4 77 51q0 16 -8 35l-60 142q-7 8 -16 8q-4 0 -12 -3q-67 -32 -143 -50.5t-154 -22.5q-11 0 -20 -5.5t-12 -14.5v1l-23 -55q-8 -19 -8 -35q0 -47 80 -51q7 0 7 -3q0 -4 -8 -4q-45 3 -69 3
h-43q-12 0 -42 -3q-4 0 -4 3.5t4 3.5q25 1 40 19t36 67l213 511q4 9 4 21q0 13 -5 25l-15 36q-3 10 -13 13q-2 1 -0.5 2.5t5.5 1.5h93q6 0 9.5 -2t5.5 -8l252 -600q20 -49 35 -67t40 -19q4 0 4 -3.5zM453 257q4 9 1 15h1l-144 342l-177 -425v-4q0 -6 3.5 -10t10.5 -4
q78 5 154.5 23.5t137.5 49.5q9 4 13 13zM330.5 763.5q-51.5 23.5 -95.5 50t-44 39.5q-1 7 16 11t35 4q12 0 16 -2q8 -6 20 -21q21 -25 45.5 -46.5t73.5 -49.5q4 -2 4 -4q0 -3 -7 -5q-12 0 -63.5 23.5z" />
    <glyph glyph-name="Aacute" unicode="&#xc1;" horiz-adv-x="718" 
d="M713 0.5q0 -3.5 -4 -3.5q-30 3 -42 3h-137q-22 0 -67 -3q-7 0 -7 3.5t7 3.5q77 4 77 51q0 16 -8 35l-60 142q-7 8 -16 8q-4 0 -12 -3q-67 -32 -143 -50.5t-154 -22.5q-11 0 -20 -5.5t-12 -14.5v1l-23 -55q-8 -19 -8 -35q0 -47 80 -51q7 0 7 -3q0 -4 -8 -4q-45 3 -69 3
h-43q-12 0 -42 -3q-4 0 -4 3.5t4 3.5q25 1 40 19t36 67l213 511q4 9 4 21q0 13 -5 25l-15 36q-3 10 -13 13q-2 1 -0.5 2.5t5.5 1.5h93q6 0 9.5 -2t5.5 -8l252 -600q20 -49 35 -67t40 -19q4 0 4 -3.5zM453 257q4 9 1 15h1l-144 342l-177 -425v-4q0 -6 3.5 -10t10.5 -4
q78 5 154.5 23.5t137.5 49.5q9 4 13 13zM272 744q-1 3 3 5q49 28 73.5 49.5t45.5 46.5q12 15 20 21q4 2 16 2q18 0 35 -4t16 -11q0 -13 -44 -39.5t-95.5 -50t-63.5 -23.5q-5 1 -6 4z" />
    <glyph glyph-name="Acircumflex" unicode="&#xc2;" horiz-adv-x="718" 
d="M713 0.5q0 -3.5 -4 -3.5q-30 3 -42 3h-137q-22 0 -67 -3q-7 0 -7 3.5t7 3.5q77 4 77 51q0 16 -8 35l-60 142q-7 8 -16 8q-4 0 -12 -3q-67 -32 -143 -50.5t-154 -22.5q-11 0 -20 -5.5t-12 -14.5v1l-23 -55q-8 -19 -8 -35q0 -47 80 -51q7 0 7 -3q0 -4 -8 -4q-45 3 -69 3
h-43q-12 0 -42 -3q-4 0 -4 3.5t4 3.5q25 1 40 19t36 67l213 511q4 9 4 21q0 13 -5 25l-15 36q-3 10 -13 13q-2 1 -0.5 2.5t5.5 1.5h93q6 0 9.5 -2t5.5 -8l252 -600q20 -49 35 -67t40 -19q4 0 4 -3.5zM453 257q4 9 1 15h1l-144 342l-177 -425v-4q0 -6 3.5 -10t10.5 -4
q78 5 154.5 23.5t137.5 49.5q9 4 13 13zM522 740q-1 -3 -5 -3q-27 1 -78 28t-79 57q-27 -29 -78.5 -56.5t-79.5 -28.5q-5 0 -6 2.5t4 4.5q43 18 65.5 39t42.5 50q13 20 23 28.5t28 8.5q19 0 29.5 -8.5t24.5 -28.5q19 -28 41.5 -49t64.5 -39q4 -2 3 -5z" />
    <glyph glyph-name="Atilde" unicode="&#xc3;" horiz-adv-x="718" 
d="M713 0.5q0 -3.5 -4 -3.5q-30 3 -42 3h-137q-22 0 -67 -3q-7 0 -7 3.5t7 3.5q77 4 77 51q0 16 -8 35l-60 142q-7 8 -16 8q-4 0 -12 -3q-67 -32 -143 -50.5t-154 -22.5q-11 0 -20 -5.5t-12 -14.5v1l-23 -55q-8 -19 -8 -35q0 -47 80 -51q7 0 7 -3q0 -4 -8 -4q-45 3 -69 3
h-43q-12 0 -42 -3q-4 0 -4 3.5t4 3.5q25 1 40 19t36 67l213 511q4 9 4 21q0 13 -5 25l-15 36q-3 10 -13 13q-2 1 -0.5 2.5t5.5 1.5h93q6 0 9.5 -2t5.5 -8l252 -600q20 -49 35 -67t40 -19q4 0 4 -3.5zM453 257q4 9 1 15h1l-144 342l-177 -425v-4q0 -6 3.5 -10t10.5 -4
q78 5 154.5 23.5t137.5 49.5q9 4 13 13zM200.5 744q-3.5 1 -2.5 6q29 87 98 87q27 0 63 -14l40 -16q30 -12 52 -12q42 0 62 43q2 4 5.5 3t2.5 -7q-16 -45 -39.5 -66.5t-57.5 -21.5q-26 0 -62 14l-43 17q-41 17 -65 17q-19 0 -29.5 -11t-19.5 -35q-1 -5 -4.5 -4z" />
    <glyph glyph-name="Adieresis" unicode="&#xc4;" horiz-adv-x="718" 
d="M713 0.5q0 -3.5 -4 -3.5q-30 3 -42 3h-137q-22 0 -67 -3q-7 0 -7 3.5t7 3.5q77 4 77 51q0 16 -8 35l-60 142q-7 8 -16 8q-4 0 -12 -3q-67 -32 -143 -50.5t-154 -22.5q-11 0 -20 -5.5t-12 -14.5v1l-23 -55q-8 -19 -8 -35q0 -47 80 -51q7 0 7 -3q0 -4 -8 -4q-45 3 -69 3
h-43q-12 0 -42 -3q-4 0 -4 3.5t4 3.5q25 1 40 19t36 67l213 511q4 9 4 21q0 13 -5 25l-15 36q-3 10 -13 13q-2 1 -0.5 2.5t5.5 1.5h93q6 0 9.5 -2t5.5 -8l252 -600q20 -49 35 -67t40 -19q4 0 4 -3.5zM453 257q4 9 1 15h1l-144 342l-177 -425v-4q0 -6 3.5 -10t10.5 -4
q78 5 154.5 23.5t137.5 49.5q9 4 13 13zM245.5 766.5q-14.5 11.5 -14.5 27.5q0 19 16 33t42 14q21 0 35 -11.5t14 -28.5q-1 -19 -17 -32.5t-41 -13.5q-20 0 -34.5 11.5zM396 766q-14 11 -14 27q0 20 16 34t42 14q20 0 34 -11t14 -27q0 -20 -15.5 -34t-41.5 -14q-21 0 -35 11
z" />
    <glyph glyph-name="Aring" unicode="&#xc5;" horiz-adv-x="718" 
d="M713 0.5q0 -3.5 -4 -3.5q-30 3 -42 3h-137q-22 0 -67 -3q-7 0 -7 3.5t7 3.5q77 4 77 51q0 16 -8 35l-60 142q-7 8 -16 8q-4 0 -12 -3q-67 -32 -143 -50.5t-154 -22.5q-11 0 -20 -5.5t-12 -14.5v1l-23 -55q-8 -19 -8 -35q0 -47 80 -51q7 0 7 -3q0 -4 -8 -4q-45 3 -69 3
h-43q-12 0 -42 -3q-4 0 -4 3.5t4 3.5q25 1 40 19t36 67l213 511q4 9 4 21q0 13 -5 25l-15 36q-3 10 -13 13q-2 1 -0.5 2.5t5.5 1.5h93q6 0 9.5 -2t5.5 -8l252 -600q20 -49 35 -67t40 -19q4 0 4 -3.5zM453 257q4 9 1 15h1l-144 342l-177 -425v-4q0 -6 3.5 -10t10.5 -4
q78 5 154.5 23.5t137.5 49.5q9 4 13 13zM290 743.5q-25 19.5 -25 51.5q0 29 27 52t65 23t65 -19t27 -50t-28.5 -54t-69.5 -23q-36 0 -61 19.5zM415 775q0 17 -11 37t-28 33.5t-35 13.5q-19 0 -29.5 -8.5t-10.5 -30.5q0 -17 11 -37t28 -33.5t35 -13.5q40 0 40 39z" />
    <glyph glyph-name="AE" unicode="&#xc6;" horiz-adv-x="1020" 
d="M994 260q4 0 2 -8q-20 -130 -22 -241q-1 -13 -6 -17.5t-14 -4.5q-4 0 -22 2q-72 9 -150 9h-295q-18 0 -54 -3q-5 0 -5.5 3.5t5.5 3.5q36 2 54 21.5t18 68.5v158q0 10 -8 10q-7 0 -20 -7q-46 -22 -98 -34t-105 -12q-27 0 -54 3h-3q-15 0 -26 -13l-79 -114q-16 -23 -16 -39
q0 -20 20.5 -30.5t51.5 -11.5q7 0 7 -3q0 -4 -7 -4q-42 3 -65 3h-45q-15 0 -48 -3q-5 0 -5 3.5t5 3.5q27 1 43.5 17t49.5 64l376 542q11 17 11 31q0 10 -5 18q-9 10 -23 15l-4 1q-16 4 -25 4q-6 0 -5.5 3.5t5.5 3.5q36 -3 54 -3h280q62 0 129 8q18 3 27 3q8 0 12.5 -4.5
t5.5 -17.5q2 -84 23 -243q1 -4 -1.5 -4.5t-3.5 3.5q-24 101 -39 140t-36 61q-26 29 -83 38t-176 9q-24 0 -24 -33v-260q0 -10 4.5 -17.5t15.5 -7.5q77 0 98 3q18 2 29.5 10.5t22.5 30t23 63.5q1 6 4 6t2 -6q-7 -39 -7 -93q0 -72 12 -141q1 -5 -2 -5.5t-4 5.5
q-19 63 -37 88.5t-43 28.5q-31 3 -98 3q-11 0 -15.5 -8.5t-4.5 -18.5v-287q0 -47 31 -47q122 0 189 11.5t95 38.5q25 23 41.5 67.5t32.5 128.5q1 7 4 7zM496 278.5q9 10.5 9 22.5v147q0 126 -9 181q-1 3 -3 3t-4 -2l-275 -398q-2 -4 -2 -6q0 -6 12 -8q24 -3 49 -3
q108 0 202 47q12 6 21 16.5z" />
    <glyph glyph-name="Ccedilla" unicode="&#xc7;" horiz-adv-x="685" 
d="M674 139q2 0 1.5 -2.5t-3.5 -5.5q-61 -75 -133 -110.5t-164 -35.5q-14 0 -20 1q-12 -18 -22 -44q55 -15 80.5 -34t25.5 -45q0 -23 -23 -41.5t-61 -18.5q-37 0 -65 11.5t-28 31.5q0 7 7 16.5t15 9.5q5 0 11 -6.5t7 -8.5q15 -18 30.5 -29t41.5 -11q23 0 35.5 8t12.5 20
q-1 18 -31.5 35.5t-88.5 29.5l43 76q-84 8 -153.5 53.5t-110 123t-40.5 175.5q0 106 51 192t138 135t188 49q65 0 120 -19.5t87 -50t32 -60.5q0 -5 -2 -13l-75 -220q-1 -5 -4.5 -3.5t-2.5 5.5q15 50 15 95q0 68 -30 126q-25 54 -72.5 83.5t-105.5 29.5q-117 0 -183.5 -58.5
t-66.5 -186.5q0 -118 47 -208.5t120 -139.5t148 -49q54 0 115 19.5t107 70.5q4 4 7 4z" />
    <glyph glyph-name="Egrave" unicode="&#xc8;" horiz-adv-x="628" 
d="M41 -3q-5 0 -5.5 3.5t5.5 3.5q36 2 54 21.5t18 68.5v512q0 49 -18 68.5t-54 21.5q-6 0 -5.5 3.5t5.5 3.5q36 -3 54 -3h280q62 0 129 8q18 3 27 3q8 0 12.5 -4.5t5.5 -17.5q2 -84 23 -243q1 -5 -1.5 -5t-3.5 4q-24 101 -39 140t-36 61q-26 29 -83 38t-176 9q-24 0 -24 -33
v-260q0 -10 4.5 -17.5t15.5 -7.5q77 0 98 3q18 2 29.5 10.5t22.5 30t23 63.5q1 6 4 6t2 -6q-7 -39 -7 -93q0 -72 12 -141q1 -5 -2 -5.5t-4 5.5q-19 63 -37 88.5t-43 28.5q-31 3 -98 3q-11 0 -15.5 -8.5t-4.5 -18.5v-287q0 -47 31 -47q122 0 189 11.5t95 38.5
q25 23 41.5 67.5t32.5 128.5q1 7 4 7q4 0 2 -8q-20 -130 -22 -241q-1 -13 -6 -17.5t-14 -4.5q-4 0 -22 2q-72 9 -150 9h-295q-18 0 -54 -3zM275.5 763.5q-51.5 23.5 -95.5 50t-44 39.5q-1 7 16 11t35 4q12 0 16 -2q8 -6 20 -21q21 -25 45.5 -46.5t73.5 -49.5q4 -2 4 -4
q0 -3 -7 -5q-12 0 -63.5 23.5z" />
    <glyph glyph-name="Eacute" unicode="&#xc9;" horiz-adv-x="628" 
d="M41 -3q-5 0 -5.5 3.5t5.5 3.5q36 2 54 21.5t18 68.5v512q0 49 -18 68.5t-54 21.5q-6 0 -5.5 3.5t5.5 3.5q36 -3 54 -3h280q62 0 129 8q18 3 27 3q8 0 12.5 -4.5t5.5 -17.5q2 -84 23 -243q1 -5 -1.5 -5t-3.5 4q-24 101 -39 140t-36 61q-26 29 -83 38t-176 9q-24 0 -24 -33
v-260q0 -10 4.5 -17.5t15.5 -7.5q77 0 98 3q18 2 29.5 10.5t22.5 30t23 63.5q1 6 4 6t2 -6q-7 -39 -7 -93q0 -72 12 -141q1 -5 -2 -5.5t-4 5.5q-19 63 -37 88.5t-43 28.5q-31 3 -98 3q-11 0 -15.5 -8.5t-4.5 -18.5v-287q0 -47 31 -47q122 0 189 11.5t95 38.5
q25 23 41.5 67.5t32.5 128.5q1 7 4 7q4 0 2 -8q-20 -130 -22 -241q-1 -13 -6 -17.5t-14 -4.5q-4 0 -22 2q-72 9 -150 9h-295q-18 0 -54 -3zM216 744q-1 3 3 5q49 28 73.5 49.5t45.5 46.5q12 15 20 21q4 2 16 2q18 0 35 -4t16 -11q0 -13 -44 -39.5t-95.5 -50t-63.5 -23.5
q-5 1 -6 4z" />
    <glyph glyph-name="Ecircumflex" unicode="&#xca;" horiz-adv-x="628" 
d="M41 -3q-5 0 -5.5 3.5t5.5 3.5q36 2 54 21.5t18 68.5v512q0 49 -18 68.5t-54 21.5q-6 0 -5.5 3.5t5.5 3.5q36 -3 54 -3h280q62 0 129 8q18 3 27 3q8 0 12.5 -4.5t5.5 -17.5q2 -84 23 -243q1 -5 -1.5 -5t-3.5 4q-24 101 -39 140t-36 61q-26 29 -83 38t-176 9q-24 0 -24 -33
v-260q0 -10 4.5 -17.5t15.5 -7.5q77 0 98 3q18 2 29.5 10.5t22.5 30t23 63.5q1 6 4 6t2 -6q-7 -39 -7 -93q0 -72 12 -141q1 -5 -2 -5.5t-4 5.5q-19 63 -37 88.5t-43 28.5q-31 3 -98 3q-11 0 -15.5 -8.5t-4.5 -18.5v-287q0 -47 31 -47q122 0 189 11.5t95 38.5
q25 23 41.5 67.5t32.5 128.5q1 7 4 7q4 0 2 -8q-20 -130 -22 -241q-1 -13 -6 -17.5t-14 -4.5q-4 0 -22 2q-72 9 -150 9h-295q-18 0 -54 -3zM466 740q-1 -3 -5 -3q-27 1 -78 28t-79 57q-27 -29 -78.5 -56.5t-79.5 -28.5q-5 0 -6 2.5t4 4.5q43 18 65.5 39t42.5 50
q13 20 23 28.5t28 8.5q19 0 29.5 -8.5t24.5 -28.5q19 -28 41.5 -49t64.5 -39q4 -2 3 -5z" />
    <glyph glyph-name="Edieresis" unicode="&#xcb;" horiz-adv-x="628" 
d="M41 -3q-5 0 -5.5 3.5t5.5 3.5q36 2 54 21.5t18 68.5v512q0 49 -18 68.5t-54 21.5q-6 0 -5.5 3.5t5.5 3.5q36 -3 54 -3h280q62 0 129 8q18 3 27 3q8 0 12.5 -4.5t5.5 -17.5q2 -84 23 -243q1 -5 -1.5 -5t-3.5 4q-24 101 -39 140t-36 61q-26 29 -83 38t-176 9q-24 0 -24 -33
v-260q0 -10 4.5 -17.5t15.5 -7.5q77 0 98 3q18 2 29.5 10.5t22.5 30t23 63.5q1 6 4 6t2 -6q-7 -39 -7 -93q0 -72 12 -141q1 -5 -2 -5.5t-4 5.5q-19 63 -37 88.5t-43 28.5q-31 3 -98 3q-11 0 -15.5 -8.5t-4.5 -18.5v-287q0 -47 31 -47q122 0 189 11.5t95 38.5
q25 23 41.5 67.5t32.5 128.5q1 7 4 7q4 0 2 -8q-20 -130 -22 -241q-1 -13 -6 -17.5t-14 -4.5q-4 0 -22 2q-72 9 -150 9h-295q-18 0 -54 -3zM189.5 766.5q-14.5 11.5 -14.5 27.5q0 19 16 33t42 14q21 0 35 -11.5t14 -28.5q-1 -19 -17 -32.5t-41 -13.5q-20 0 -34.5 11.5z
M340 766q-14 11 -14 27q0 20 16 34t42 14q20 0 34 -11t14 -27q0 -20 -15.5 -34t-41.5 -14q-21 0 -35 11z" />
    <glyph glyph-name="Igrave" unicode="&#xcc;" horiz-adv-x="322" 
d="M95 674.5q-18 19.5 -54 21.5q-6 0 -5.5 3.5t5.5 3.5q36 -3 54 -3h132q18 0 54 3q5 0 5.5 -3.5t-5.5 -3.5q-36 -2 -54 -21.5t-18 -68.5v-512q0 -49 18 -68.5t54 -21.5q6 0 5.5 -3.5t-5.5 -3.5q-36 3 -54 3h-132q-18 0 -54 -3q-5 0 -5.5 3.5t5.5 3.5q36 2 54 21.5t18 68.5
v512q0 49 -18 68.5zM134.5 763.5q-51.5 23.5 -95.5 50t-44 39.5q-1 7 16 11t35 4q12 0 16 -2q8 -6 20 -21q21 -25 45.5 -46.5t73.5 -49.5q4 -2 4 -4q0 -3 -7 -5q-12 0 -63.5 23.5z" />
    <glyph glyph-name="Iacute" unicode="&#xcd;" horiz-adv-x="322" 
d="M95 674.5q-18 19.5 -54 21.5q-6 0 -5.5 3.5t5.5 3.5q36 -3 54 -3h132q18 0 54 3q5 0 5.5 -3.5t-5.5 -3.5q-36 -2 -54 -21.5t-18 -68.5v-512q0 -49 18 -68.5t54 -21.5q6 0 5.5 -3.5t-5.5 -3.5q-36 3 -54 3h-132q-18 0 -54 -3q-5 0 -5.5 3.5t5.5 3.5q36 2 54 21.5t18 68.5
v512q0 49 -18 68.5zM75 744q-1 3 3 5q49 28 73.5 49.5t45.5 46.5q12 15 20 21q4 2 16 2q18 0 35 -4t16 -11q0 -13 -44 -39.5t-95.5 -50t-63.5 -23.5q-5 1 -6 4z" />
    <glyph glyph-name="Icircumflex" unicode="&#xce;" horiz-adv-x="322" 
d="M95 674.5q-18 19.5 -54 21.5q-6 0 -5.5 3.5t5.5 3.5q36 -3 54 -3h132q18 0 54 3q5 0 5.5 -3.5t-5.5 -3.5q-36 -2 -54 -21.5t-18 -68.5v-512q0 -49 18 -68.5t54 -21.5q6 0 5.5 -3.5t-5.5 -3.5q-36 3 -54 3h-132q-18 0 -54 -3q-5 0 -5.5 3.5t5.5 3.5q36 2 54 21.5t18 68.5
v512q0 49 -18 68.5zM326 740q-1 -3 -5 -3q-27 1 -78 28t-79 57q-27 -29 -78.5 -56.5t-79.5 -28.5q-5 0 -6 2.5t4 4.5q43 18 65.5 39t42.5 50q13 20 23 28.5t28 8.5q19 0 29.5 -8.5t24.5 -28.5q19 -28 41.5 -49t64.5 -39q4 -2 3 -5z" />
    <glyph glyph-name="Idieresis" unicode="&#xcf;" horiz-adv-x="322" 
d="M95 674.5q-18 19.5 -54 21.5q-6 0 -5.5 3.5t5.5 3.5q36 -3 54 -3h132q18 0 54 3q5 0 5.5 -3.5t-5.5 -3.5q-36 -2 -54 -21.5t-18 -68.5v-512q0 -49 18 -68.5t54 -21.5q6 0 5.5 -3.5t-5.5 -3.5q-36 3 -54 3h-132q-18 0 -54 -3q-5 0 -5.5 3.5t5.5 3.5q36 2 54 21.5t18 68.5
v512q0 49 -18 68.5zM49.5 766.5q-14.5 11.5 -14.5 27.5q0 19 16 33t42 14q21 0 35 -11.5t14 -28.5q-1 -19 -17 -32.5t-41 -13.5q-20 0 -34.5 11.5zM200 766q-14 11 -14 27q0 20 16 34t42 14q20 0 34 -11t14 -27q0 -20 -15.5 -34t-41.5 -14q-21 0 -35 11z" />
    <glyph glyph-name="Eth" unicode="&#xd0;" horiz-adv-x="731" 
d="M585 610q104 -94 104 -257q0 -103 -44 -184t-131.5 -127.5t-212.5 -46.5q-27 0 -89 2q-70 2 -117 2q-29 0 -55 -2q-5 0 -5.5 3.5t5.5 3.5q36 1 54.5 20.5t18.5 69.5v252h-71q-4 0 -4 4t4 4h71v252q0 49 -18 68t-55 21q-6 1 -5.5 4t5.5 3q26 -2 55 -2q33 0 89 2l79 2
q218 0 322 -94zM511.5 94.5q75.5 91.5 76.5 243.5q0 101 -37 181.5t-114.5 128.5t-195.5 48q-19 0 -25.5 -9.5t-6.5 -30.5v-302h202q5 0 5 -4t-5 -4h-202v-299q0 -26 13 -35t55 -9q159 0 234.5 91.5z" />
    <glyph glyph-name="Ntilde" unicode="&#xd1;" horiz-adv-x="749" 
d="M730.5 699.5q0.5 -3.5 -5.5 -3.5q-36 -2 -54 -21.5t-18 -68.5v-607q0 -7 -5 -7q-6 0 -10 7l-498 638q-4 4 -6 4q-4 0 -4 -6v-541q0 -49 18 -68.5t54 -21.5q6 0 5.5 -3.5t-5.5 -3.5l-54 3h-44l-55 -3q-5 0 -5.5 3.5t5.5 3.5q36 2 54 21.5t18 68.5l1 565q-18 19 -34 27.5
t-38 9.5q-6 1 -5.5 4t5.5 3l55 -3h89q19 0 26 -12l412 -539q4 -7 9 -7q4 0 4 8l-1 456q0 49 -18 68.5t-54 21.5q-6 0 -5.5 3.5t5.5 3.5q36 -3 55 -3h44q18 0 54 3q5 0 5.5 -3.5zM236.5 744q-3.5 1 -2.5 6q29 87 98 87q27 0 63 -14l40 -16q30 -12 52 -12q42 0 62 43
q2 4 5.5 3t2.5 -7q-16 -45 -39.5 -66.5t-57.5 -21.5q-26 0 -62 14l-43 17q-41 17 -65 17q-19 0 -29.5 -11t-19.5 -35q-1 -5 -4.5 -4z" />
    <glyph glyph-name="Ograve" unicode="&#xd2;" horiz-adv-x="821" 
d="M207.5 30q-78.5 45 -122.5 125.5t-44 181.5q0 100 50 186.5t138.5 138.5t199.5 52q101 0 181 -45.5t125 -125.5t45 -179q0 -101 -51 -188t-141 -139t-203 -52q-99 0 -177.5 45zM627.5 81q63.5 69 63.5 192q0 100 -45 196t-120.5 157t-161.5 61q-110 0 -172.5 -67.5
t-62.5 -185.5q0 -101 44 -199t118.5 -160.5t159.5 -62.5q113 0 176.5 69zM382.5 763.5q-51.5 23.5 -95.5 50t-44 39.5q-1 7 16 11t35 4q12 0 16 -2q8 -6 20 -21q21 -25 45.5 -46.5t73.5 -49.5q4 -2 4 -4q0 -3 -7 -5q-12 0 -63.5 23.5z" />
    <glyph glyph-name="Oacute" unicode="&#xd3;" horiz-adv-x="821" 
d="M207.5 30q-78.5 45 -122.5 125.5t-44 181.5q0 100 50 186.5t138.5 138.5t199.5 52q101 0 181 -45.5t125 -125.5t45 -179q0 -101 -51 -188t-141 -139t-203 -52q-99 0 -177.5 45zM627.5 81q63.5 69 63.5 192q0 100 -45 196t-120.5 157t-161.5 61q-110 0 -172.5 -67.5
t-62.5 -185.5q0 -101 44 -199t118.5 -160.5t159.5 -62.5q113 0 176.5 69zM323 744q-1 3 3 5q49 28 73.5 49.5t45.5 46.5q12 15 20 21q4 2 16 2q18 0 35 -4t16 -11q0 -13 -44 -39.5t-95.5 -50t-63.5 -23.5q-5 1 -6 4z" />
    <glyph glyph-name="Ocircumflex" unicode="&#xd4;" horiz-adv-x="821" 
d="M207.5 30q-78.5 45 -122.5 125.5t-44 181.5q0 100 50 186.5t138.5 138.5t199.5 52q101 0 181 -45.5t125 -125.5t45 -179q0 -101 -51 -188t-141 -139t-203 -52q-99 0 -177.5 45zM627.5 81q63.5 69 63.5 192q0 100 -45 196t-120.5 157t-161.5 61q-110 0 -172.5 -67.5
t-62.5 -185.5q0 -101 44 -199t118.5 -160.5t159.5 -62.5q113 0 176.5 69zM574 740q-1 -3 -5 -3q-27 1 -78 28t-79 57q-27 -29 -78.5 -56.5t-79.5 -28.5q-5 0 -6 2.5t4 4.5q43 18 65.5 39t42.5 50q13 20 23 28.5t28 8.5q19 0 29.5 -8.5t24.5 -28.5q19 -28 41.5 -49t64.5 -39
q4 -2 3 -5z" />
    <glyph glyph-name="Otilde" unicode="&#xd5;" horiz-adv-x="821" 
d="M207.5 30q-78.5 45 -122.5 125.5t-44 181.5q0 100 50 186.5t138.5 138.5t199.5 52q101 0 181 -45.5t125 -125.5t45 -179q0 -101 -51 -188t-141 -139t-203 -52q-99 0 -177.5 45zM627.5 81q63.5 69 63.5 192q0 100 -45 196t-120.5 157t-161.5 61q-110 0 -172.5 -67.5
t-62.5 -185.5q0 -101 44 -199t118.5 -160.5t159.5 -62.5q113 0 176.5 69zM251.5 744q-3.5 1 -2.5 6q29 87 98 87q27 0 63 -14l40 -16q30 -12 52 -12q42 0 62 43q2 4 5.5 3t2.5 -7q-16 -45 -39.5 -66.5t-57.5 -21.5q-26 0 -62 14l-43 17q-41 17 -65 17q-19 0 -29.5 -11
t-19.5 -35q-1 -5 -4.5 -4z" />
    <glyph glyph-name="Odieresis" unicode="&#xd6;" horiz-adv-x="821" 
d="M207.5 30q-78.5 45 -122.5 125.5t-44 181.5q0 100 50 186.5t138.5 138.5t199.5 52q101 0 181 -45.5t125 -125.5t45 -179q0 -101 -51 -188t-141 -139t-203 -52q-99 0 -177.5 45zM627.5 81q63.5 69 63.5 192q0 100 -45 196t-120.5 157t-161.5 61q-110 0 -172.5 -67.5
t-62.5 -185.5q0 -101 44 -199t118.5 -160.5t159.5 -62.5q113 0 176.5 69zM297.5 766.5q-14.5 11.5 -14.5 27.5q0 19 16 33t42 14q21 0 35 -11.5t14 -28.5q-1 -19 -17 -32.5t-41 -13.5q-20 0 -34.5 11.5zM448 766q-14 11 -14 27q0 20 16 34t42 14q20 0 34 -11t14 -27
q0 -20 -15.5 -34t-41.5 -14q-21 0 -35 11z" />
    <glyph glyph-name="multiply" unicode="&#xd7;" horiz-adv-x="316" 
d="M142 235q6 6 1 9l-94 95q-7 7 -7 13q0 5 5 5q6 0 12 -7l95 -94l4 -2q3 0 8 5l92 93q5 5 11 5t6 -5q0 -6 -6 -11l-93 -94q-3 -3 -4.5 -5.5t1.5 -4.5l94 -93q4 -4 4 -9q0 -3 -2 -5t-4 -2q-5 0 -9 4l-95 94q-2 2 -4.5 1.5t-4.5 -3.5l-92 -92q-6 -6 -11 -6t-5 6q0 5 5 10z
" />
    <glyph glyph-name="Oslash" unicode="&#xd8;" horiz-adv-x="821" 
d="M621 662q74 -46 116.5 -124t42.5 -174q0 -101 -51 -188t-141 -139t-203 -52q-98 0 -180 46l-64 -97q-1 -3 -4 -3q-2 0 -3 2t1 6l64 96q-74 45 -116 124t-42 178q0 100 50 186.5t138.5 138.5t199.5 52q104 0 186 -48l64 97q3 4 5 4t2.5 -2.5t-1.5 -6.5zM162 262.5
q33 -85.5 88 -148.5l315 476q-43 46 -94.5 71.5t-106.5 25.5q-110 0 -172.5 -67.5t-62.5 -185.5q0 -86 33 -171.5zM627.5 81q63.5 69 63.5 192q0 84 -32.5 167.5t-88.5 143.5l-314 -476q42 -45 92 -70.5t103 -25.5q113 0 176.5 69z" />
    <glyph glyph-name="Ugrave" unicode="&#xd9;" horiz-adv-x="728" 
d="M231 21q-64 36 -98.5 103t-34.5 156v326q0 49 -15.5 68.5t-47.5 21.5q-5 0 -5 3.5t5 3.5q33 -3 48 -3h133q20 0 65 3q6 0 6.5 -3.5t-6.5 -3.5q-44 -2 -65.5 -21.5t-21.5 -68.5v-330q0 -114 59.5 -181.5t162.5 -67.5q67 0 117 32t77.5 89.5t27.5 133.5l-1 324
q0 49 -21.5 68.5t-65.5 21.5q-7 0 -6.5 3.5t6.5 3.5q45 -3 65 -3h43q16 0 43 3q5 0 5.5 -3.5t-4.5 -3.5q-29 -2 -43.5 -21.5t-14.5 -68.5v-322q0 -91 -32 -158.5t-91.5 -104t-139.5 -36.5q-86 0 -150 36zM367.5 763.5q-51.5 23.5 -95.5 50t-44 39.5q-1 7 16 11t35 4
q12 0 16 -2q8 -6 20 -21q21 -25 45.5 -46.5t73.5 -49.5q4 -2 4 -4q0 -3 -7 -5q-12 0 -63.5 23.5z" />
    <glyph glyph-name="Uacute" unicode="&#xda;" horiz-adv-x="728" 
d="M231 21q-64 36 -98.5 103t-34.5 156v326q0 49 -15.5 68.5t-47.5 21.5q-5 0 -5 3.5t5 3.5q33 -3 48 -3h133q20 0 65 3q6 0 6.5 -3.5t-6.5 -3.5q-44 -2 -65.5 -21.5t-21.5 -68.5v-330q0 -114 59.5 -181.5t162.5 -67.5q67 0 117 32t77.5 89.5t27.5 133.5l-1 324
q0 49 -21.5 68.5t-65.5 21.5q-7 0 -6.5 3.5t6.5 3.5q45 -3 65 -3h43q16 0 43 3q5 0 5.5 -3.5t-4.5 -3.5q-29 -2 -43.5 -21.5t-14.5 -68.5v-322q0 -91 -32 -158.5t-91.5 -104t-139.5 -36.5q-86 0 -150 36zM308 744q-1 3 3 5q49 28 73.5 49.5t45.5 46.5q12 15 20 21q4 2 16 2
q18 0 35 -4t16 -11q0 -13 -44 -39.5t-95.5 -50t-63.5 -23.5q-5 1 -6 4z" />
    <glyph glyph-name="Ucircumflex" unicode="&#xdb;" horiz-adv-x="728" 
d="M231 21q-64 36 -98.5 103t-34.5 156v326q0 49 -15.5 68.5t-47.5 21.5q-5 0 -5 3.5t5 3.5q33 -3 48 -3h133q20 0 65 3q6 0 6.5 -3.5t-6.5 -3.5q-44 -2 -65.5 -21.5t-21.5 -68.5v-330q0 -114 59.5 -181.5t162.5 -67.5q67 0 117 32t77.5 89.5t27.5 133.5l-1 324
q0 49 -21.5 68.5t-65.5 21.5q-7 0 -6.5 3.5t6.5 3.5q45 -3 65 -3h43q16 0 43 3q5 0 5.5 -3.5t-4.5 -3.5q-29 -2 -43.5 -21.5t-14.5 -68.5v-322q0 -91 -32 -158.5t-91.5 -104t-139.5 -36.5q-86 0 -150 36zM559 740q-1 -3 -5 -3q-27 1 -78 28t-79 57q-27 -29 -78.5 -56.5
t-79.5 -28.5q-5 0 -6 2.5t4 4.5q43 18 65.5 39t42.5 50q13 20 23 28.5t28 8.5q19 0 29.5 -8.5t24.5 -28.5q19 -28 41.5 -49t64.5 -39q4 -2 3 -5z" />
    <glyph glyph-name="Udieresis" unicode="&#xdc;" horiz-adv-x="728" 
d="M231 21q-64 36 -98.5 103t-34.5 156v326q0 49 -15.5 68.5t-47.5 21.5q-5 0 -5 3.5t5 3.5q33 -3 48 -3h133q20 0 65 3q6 0 6.5 -3.5t-6.5 -3.5q-44 -2 -65.5 -21.5t-21.5 -68.5v-330q0 -114 59.5 -181.5t162.5 -67.5q67 0 117 32t77.5 89.5t27.5 133.5l-1 324
q0 49 -21.5 68.5t-65.5 21.5q-7 0 -6.5 3.5t6.5 3.5q45 -3 65 -3h43q16 0 43 3q5 0 5.5 -3.5t-4.5 -3.5q-29 -2 -43.5 -21.5t-14.5 -68.5v-322q0 -91 -32 -158.5t-91.5 -104t-139.5 -36.5q-86 0 -150 36zM281.5 766.5q-14.5 11.5 -14.5 27.5q0 19 16 33t42 14q21 0 35 -11.5
t14 -28.5q-1 -19 -17 -32.5t-41 -13.5q-20 0 -34.5 11.5zM432 766q-14 11 -14 27q0 20 16 34t42 14q20 0 34 -11t14 -27q0 -20 -15.5 -34t-41.5 -14q-21 0 -35 11z" />
    <glyph glyph-name="Yacute" unicode="&#xdd;" horiz-adv-x="643" 
d="M203 -3q-5 0 -5.5 3.5t5.5 3.5q37 2 55 21.5t17 68.5v167q0 18 -8 31l-174 320q-27 49 -42 66t-41 18q-5 0 -4.5 3.5t4.5 3.5l44 -3h140l65 3q6 0 6.5 -3.5t-6.5 -3.5q-74 -4 -74 -46q0 -15 12 -38l166 -307q3 -6 7 -6t7 6l166 307q12 23 12 38q0 42 -74 46q-6 0 -6 3
q0 2 19 2l53 -1h43q14 0 44 3q4 0 4 -3.5t-4 -3.5q-26 -1 -41 -18t-42 -66l-172 -319q-8 -13 -8 -32l1 -167q0 -49 18 -68.5t54 -21.5q6 0 5.5 -3.5t-5.5 -3.5q-36 3 -55 3h-131q-16 0 -55 -3zM232 744q-1 3 3 5q49 28 73.5 49.5t45.5 46.5q12 15 20 21q4 2 16 2q18 0 35 -4
t16 -11q0 -13 -44 -39.5t-95.5 -50t-63.5 -23.5q-5 1 -6 4z" />
    <glyph glyph-name="Thorn" unicode="&#xde;" horiz-adv-x="628" 
d="M539 503q66 -56 66 -154t-73.5 -151t-200.5 -47l-71 3q-5 0 -5 3t5 3l60 -1q50 1 91.5 22t65.5 60.5t24 91.5q-1 90 -45.5 152.5t-138.5 64.5l-77 2q-17 1 -24 -8.5t-7 -29.5v-420q0 -49 18 -68.5t54 -21.5q6 0 5.5 -3.5t-5.5 -3.5q-36 3 -54 3h-132q-18 0 -54 -3
q-5 0 -5.5 3.5t5.5 3.5q36 2 54 21.5t18 68.5v512q0 49 -18 68.5t-54 21.5q-6 0 -5.5 3.5t5.5 3.5q36 -3 54 -3h132q18 0 54 3q5 0 5.5 -3.5t-5.5 -3.5q-36 -2 -54 -21.5t-18 -68.5v-22l1 1q0 -26 29 -26h98q136 0 202 -56z" />
    <glyph glyph-name="germandbls" unicode="&#xdf;" horiz-adv-x="602" 
d="M91 0q-45 0 -60 -1q-5 0 -5 3.5t5 3.5q32 0 47.5 19t15.5 65v411q0 95 55.5 154.5t156.5 59.5q52 0 93.5 -19t65.5 -53.5t24 -78.5q0 -49 -35.5 -87.5t-93.5 -52.5q-7 -2 -6.5 -3.5t6.5 -1.5q64 -2 112.5 -32.5t75 -79.5t26.5 -103q0 -69 -29.5 -118.5t-76 -74.5
t-94.5 -25q-45 0 -76.5 16.5t-47.5 41.5t-17 52q-1 5 2 6t4 -5q5 -36 40.5 -62.5t81.5 -26.5q58 0 88.5 34.5t30.5 110.5q0 81 -26.5 138.5t-72 87.5t-101.5 30q-11 0 -11 3t11 4q73 8 102 46.5t29 99.5q0 72 -35 104t-88 32q-57 0 -81 -34.5t-24 -111.5v-520v-32h-92z" />
    <glyph glyph-name="agrave" unicode="&#xe0;" horiz-adv-x="546" 
d="M552.5 160.5q3.5 0.5 3.5 -5.5q0 -54 -15 -92.5t-38.5 -57.5t-49.5 -19q-58 0 -78 100l-9 39q-19 -64 -66.5 -101.5t-103.5 -37.5q-54 0 -91 22t-54.5 57t-16.5 75q1 51 53 82t129 31q64 0 124 -10l-21 96q-11 51 -38 75t-81 24q-63 0 -109 -37.5t-49 -111.5q-1 -7 -5 -7
t-3 7q3 56 35 96t78.5 60.5t93.5 20.5q80 0 119 -31.5t55 -101.5l50 -233q7 -28 15.5 -43t22.5 -15q10 0 20.5 12t18 37.5t7.5 63.5q0 5 3.5 5.5zM356 173l-12 52q-60 12 -105 12q-65 0 -93 -18.5t-28 -67.5q0 -50 29.5 -83.5t87.5 -33.5q110 0 120 116q2 14 1 23z
M240 543.5q-45 31.5 -83 67t-38 52.5q0 8 34 8q12 0 30 -2q9 -1 14.5 -7.5t12.5 -23.5q13 -32 31.5 -59.5t59.5 -60.5q4 -3 3 -6t-6 -2q-13 2 -58 33.5z" />
    <glyph glyph-name="aacute" unicode="&#xe1;" horiz-adv-x="546" 
d="M552.5 160.5q3.5 0.5 3.5 -5.5q0 -54 -15 -92.5t-38.5 -57.5t-49.5 -19q-58 0 -78 100l-9 39q-19 -64 -66.5 -101.5t-103.5 -37.5q-54 0 -91 22t-54.5 57t-16.5 75q1 51 53 82t129 31q64 0 124 -10l-21 96q-11 51 -38 75t-81 24q-63 0 -109 -37.5t-49 -111.5q-1 -7 -5 -7
t-3 7q3 56 35 96t78.5 60.5t93.5 20.5q80 0 119 -31.5t55 -101.5l50 -233q7 -28 15.5 -43t22.5 -15q10 0 20.5 12t18 37.5t7.5 63.5q0 5 3.5 5.5zM356 173l-12 52q-60 12 -105 12q-65 0 -93 -18.5t-28 -67.5q0 -50 29.5 -83.5t87.5 -33.5q110 0 120 116q2 14 1 23zM214 511
q-1 3 3 6q41 32 59.5 60t31.5 59q7 18 12 24.5t15 7.5q20 2 31 2q33 0 33 -8q0 -14 -38.5 -50t-83.5 -69.5t-57 -34.5q-5 0 -6 3z" />
    <glyph glyph-name="acircumflex" unicode="&#xe2;" horiz-adv-x="546" 
d="M552.5 160.5q3.5 0.5 3.5 -5.5q0 -54 -15 -92.5t-38.5 -57.5t-49.5 -19q-58 0 -78 100l-9 39q-19 -64 -66.5 -101.5t-103.5 -37.5q-54 0 -91 22t-54.5 57t-16.5 75q1 51 53 82t129 31q64 0 124 -10l-21 96q-11 51 -38 75t-81 24q-63 0 -109 -37.5t-49 -111.5q-1 -7 -5 -7
t-3 7q3 56 35 96t78.5 60.5t93.5 20.5q80 0 119 -31.5t55 -101.5l50 -233q7 -28 15.5 -43t22.5 -15q10 0 20.5 12t18 37.5t7.5 63.5q0 5 3.5 5.5zM356 173l-12 52q-60 12 -105 12q-65 0 -93 -18.5t-28 -67.5q0 -50 29.5 -83.5t87.5 -33.5q110 0 120 116q2 14 1 23z
M403 517.5q-1 -3.5 -5 -3.5q-25 1 -72.5 32t-73.5 65q-26 -34 -74.5 -65t-73.5 -32q-4 0 -5 3t3 5q41 21 61.5 45t39.5 57q12 23 21.5 33t26.5 10q18 0 28 -10.5t23 -33.5q19 -32 39 -55.5t59 -44.5q4 -2 3 -5.5z" />
    <glyph glyph-name="atilde" unicode="&#xe3;" horiz-adv-x="546" 
d="M552.5 160.5q3.5 0.5 3.5 -5.5q0 -54 -15 -92.5t-38.5 -57.5t-49.5 -19q-58 0 -78 100l-9 39q-19 -64 -66.5 -101.5t-103.5 -37.5q-54 0 -91 22t-54.5 57t-16.5 75q1 51 53 82t129 31q64 0 124 -10l-21 96q-11 51 -38 75t-81 24q-63 0 -109 -37.5t-49 -111.5q-1 -7 -5 -7
t-3 7q3 56 35 96t78.5 60.5t93.5 20.5q80 0 119 -31.5t55 -101.5l50 -233q7 -28 15.5 -43t22.5 -15q10 0 20.5 12t18 37.5t7.5 63.5q0 5 3.5 5.5zM356 173l-12 52q-60 12 -105 12q-65 0 -93 -18.5t-28 -67.5q0 -50 29.5 -83.5t87.5 -33.5q110 0 120 116q2 14 1 23zM92.5 547
q-3.5 1 -2.5 6q29 87 98 87q27 0 63 -14l40 -16q30 -12 52 -12q42 0 62 43q2 4 5.5 3t2.5 -7q-16 -45 -39.5 -66.5t-57.5 -21.5q-26 0 -62 14l-43 17q-41 17 -65 17q-19 0 -29.5 -11t-19.5 -35q-1 -5 -4.5 -4z" />
    <glyph glyph-name="adieresis" unicode="&#xe4;" horiz-adv-x="546" 
d="M552.5 160.5q3.5 0.5 3.5 -5.5q0 -54 -15 -92.5t-38.5 -57.5t-49.5 -19q-58 0 -78 100l-9 39q-19 -64 -66.5 -101.5t-103.5 -37.5q-54 0 -91 22t-54.5 57t-16.5 75q1 51 53 82t129 31q64 0 124 -10l-21 96q-11 51 -38 75t-81 24q-63 0 -109 -37.5t-49 -111.5q-1 -7 -5 -7
t-3 7q3 56 35 96t78.5 60.5t93.5 20.5q80 0 119 -31.5t55 -101.5l50 -233q7 -28 15.5 -43t22.5 -15q10 0 20.5 12t18 37.5t7.5 63.5q0 5 3.5 5.5zM356 173l-12 52q-60 12 -105 12q-65 0 -93 -18.5t-28 -67.5q0 -50 29.5 -83.5t87.5 -33.5q110 0 120 116q2 14 1 23z
M138.5 549.5q-14.5 11.5 -14.5 27.5q0 19 16 33t42 14q21 0 35 -11.5t14 -28.5q-1 -19 -17 -32.5t-41 -13.5q-20 0 -34.5 11.5zM289 549q-14 11 -14 27q0 20 16 34t42 14q20 0 34 -11t14 -27q0 -20 -15.5 -34t-41.5 -14q-21 0 -35 11z" />
    <glyph glyph-name="aring" unicode="&#xe5;" horiz-adv-x="546" 
d="M552.5 160.5q3.5 0.5 3.5 -5.5q0 -54 -15 -92.5t-38.5 -57.5t-49.5 -19q-58 0 -78 100l-9 39q-19 -64 -66.5 -101.5t-103.5 -37.5q-54 0 -91 22t-54.5 57t-16.5 75q1 51 53 82t129 31q64 0 124 -10l-21 96q-11 51 -38 75t-81 24q-63 0 -109 -37.5t-49 -111.5q-1 -7 -5 -7
t-3 7q3 56 35 96t78.5 60.5t93.5 20.5q80 0 119 -31.5t55 -101.5l50 -233q7 -28 15.5 -43t22.5 -15q10 0 20.5 12t18 37.5t7.5 63.5q0 5 3.5 5.5zM356 173l-12 52q-60 12 -105 12q-65 0 -93 -18.5t-28 -67.5q0 -50 29.5 -83.5t87.5 -33.5q110 0 120 116q2 14 1 23z
M184.5 522q-25.5 22 -25.5 58q0 33 28.5 59t68.5 26q38 0 65.5 -22t27.5 -56q0 -35 -29.5 -61t-71.5 -26q-38 0 -63.5 22zM302 523.5q11 9.5 11 33.5q0 19 -11 41.5t-29 38t-36 15.5q-41 0 -41 -44q0 -20 11 -42t28.5 -37t36.5 -15t30 9.5z" />
    <glyph glyph-name="ae" unicode="&#xe6;" horiz-adv-x="797" 
d="M772.5 86q2.5 -2 0.5 -5q-38 -48 -90 -71.5t-112 -23.5q-71 0 -129 38.5t-82 104.5q-19 -65 -67.5 -104t-105.5 -39q-54 0 -90.5 22t-54 57t-16.5 75q1 51 53 82t128 31q65 0 125 -10l-21 96q-12 51 -39 75t-80 24q-63 0 -109 -37.5t-49 -111.5q-1 -7 -5 -7t-3 7
q3 56 34.5 96t78 60.5t94.5 20.5q118 0 154 -107q33 50 87.5 78.5t117.5 28.5q75 0 124.5 -42t49.5 -113q0 -35 -11 -68q-82 -1 -332 -8q12 -59 47.5 -105t82.5 -71t92 -25q83 0 124 52q1 2 3.5 0zM453 409.5q-35 -39.5 -35 -119.5q0 -28 4 -49l118 4q43 3 133 5q8 16 8 40
q0 35 -18 72.5t-47.5 62t-61.5 24.5q-66 0 -101 -39.5zM347 177l-11 48q-60 12 -106 12q-64 0 -92 -18.5t-28 -67.5q0 -50 29.5 -83.5t87.5 -33.5q110 0 119 116q3 10 1 27z" />
    <glyph glyph-name="ccedilla" unicode="&#xe7;" horiz-adv-x="471" 
d="M457.5 87q1.5 -2 -0.5 -5q-39 -49 -88 -72t-111 -24q-12 -18 -22 -44q55 -15 80.5 -34t25.5 -45q0 -23 -23.5 -41.5t-60.5 -18.5t-65 11.5t-28 31.5q0 7 7 16.5t15 9.5q5 0 11 -6.5t7 -8.5q15 -18 30.5 -29t41.5 -11q23 0 35.5 8t12.5 20q-1 18 -31.5 35.5t-88.5 29.5
l43 76q-60 2 -111 31t-81 81.5t-30 119.5q0 69 34 125.5t91.5 89.5t125.5 33q44 0 81.5 -12t60 -31t22.5 -39q0 -5 -1 -8l-46 -154q-1 -5 -4.5 -4t-1.5 6q5 23 5 42q0 45 -20 87t-54.5 67.5t-76.5 25.5q-139 0 -139 -155q0 -74 33.5 -133t86 -91.5t105.5 -32.5q32 0 66 11
t58 41q4 3 5.5 1z" />
    <glyph glyph-name="egrave" unicode="&#xe8;" horiz-adv-x="479" 
d="M454.5 86q2.5 -2 0.5 -5q-38 -48 -90 -71.5t-112 -23.5q-61 0 -113 29t-83 82t-31 121q0 70 33.5 126.5t90.5 89t124 32.5q75 0 124.5 -42t49.5 -113q0 -35 -11 -68q-82 -1 -332 -8q12 -59 47.5 -105t82.5 -71t92 -25q83 0 124 52q1 2 3.5 0zM135 409.5
q-35 -39.5 -35 -119.5q0 -28 4 -49l118 4q43 3 133 5q8 16 8 40q0 35 -18 72.5t-47.5 62t-61.5 24.5q-66 0 -101 -39.5zM244 543.5q-45 31.5 -83 67t-38 52.5q0 8 34 8q12 0 30 -2q9 -1 14.5 -7.5t12.5 -23.5q13 -32 31.5 -59.5t59.5 -60.5q4 -3 3 -6t-6 -2q-13 2 -58 33.5z
" />
    <glyph glyph-name="eacute" unicode="&#xe9;" horiz-adv-x="479" 
d="M454.5 86q2.5 -2 0.5 -5q-38 -48 -90 -71.5t-112 -23.5q-61 0 -113 29t-83 82t-31 121q0 70 33.5 126.5t90.5 89t124 32.5q75 0 124.5 -42t49.5 -113q0 -35 -11 -68q-82 -1 -332 -8q12 -59 47.5 -105t82.5 -71t92 -25q83 0 124 52q1 2 3.5 0zM135 409.5
q-35 -39.5 -35 -119.5q0 -28 4 -49l118 4q43 3 133 5q8 16 8 40q0 35 -18 72.5t-47.5 62t-61.5 24.5q-66 0 -101 -39.5zM218 511q-1 3 3 6q41 32 59.5 60t31.5 59q7 18 12 24.5t15 7.5q20 2 31 2q33 0 33 -8q0 -14 -38.5 -50t-83.5 -69.5t-57 -34.5q-5 0 -6 3z" />
    <glyph glyph-name="ecircumflex" unicode="&#xea;" horiz-adv-x="479" 
d="M454.5 86q2.5 -2 0.5 -5q-38 -48 -90 -71.5t-112 -23.5q-61 0 -113 29t-83 82t-31 121q0 70 33.5 126.5t90.5 89t124 32.5q75 0 124.5 -42t49.5 -113q0 -35 -11 -68q-82 -1 -332 -8q12 -59 47.5 -105t82.5 -71t92 -25q83 0 124 52q1 2 3.5 0zM135 409.5
q-35 -39.5 -35 -119.5q0 -28 4 -49l118 4q43 3 133 5q8 16 8 40q0 35 -18 72.5t-47.5 62t-61.5 24.5q-66 0 -101 -39.5zM407 517.5q-1 -3.5 -5 -3.5q-25 1 -72.5 32t-73.5 65q-26 -34 -74.5 -65t-73.5 -32q-4 0 -5 3t3 5q41 21 61.5 45t39.5 57q12 23 21.5 33t26.5 10
q18 0 28 -10.5t23 -33.5q19 -32 39 -55.5t59 -44.5q4 -2 3 -5.5z" />
    <glyph glyph-name="edieresis" unicode="&#xeb;" horiz-adv-x="479" 
d="M454.5 86q2.5 -2 0.5 -5q-38 -48 -90 -71.5t-112 -23.5q-61 0 -113 29t-83 82t-31 121q0 70 33.5 126.5t90.5 89t124 32.5q75 0 124.5 -42t49.5 -113q0 -35 -11 -68q-82 -1 -332 -8q12 -59 47.5 -105t82.5 -71t92 -25q83 0 124 52q1 2 3.5 0zM135 409.5
q-35 -39.5 -35 -119.5q0 -28 4 -49l118 4q43 3 133 5q8 16 8 40q0 35 -18 72.5t-47.5 62t-61.5 24.5q-66 0 -101 -39.5zM142.5 549.5q-14.5 11.5 -14.5 27.5q0 19 16 33t42 14q21 0 35 -11.5t14 -28.5q-1 -19 -17 -32.5t-41 -13.5q-20 0 -34.5 11.5zM293 549q-14 11 -14 27
q0 20 16 34t42 14q20 0 34 -11t14 -27q0 -20 -15.5 -34t-41.5 -14q-21 0 -35 11z" />
    <glyph glyph-name="igrave" unicode="&#xec;" horiz-adv-x="275" 
d="M198.5 29.5q15.5 -23.5 44.5 -24.5q5 0 5 -3.5t-5 -3.5q-18 1 -104 1t-105 -1q-5 0 -5 3.5t5 3.5q59 0 59 84v253q0 32 -9.5 47t-33.5 15q-4 0 -18 -2q-4 -1 -4.5 1.5t2.5 3.5q105 26 152 58q4 3 7.5 2t3.5 -5q-6 -45 -8 -72t-2 -65v-236q0 -36 15.5 -59.5zM117 543.5
q-45 31.5 -83 67t-38 52.5q0 8 34 8q12 0 30 -2q9 -1 14.5 -7.5t12.5 -23.5q13 -32 31.5 -59.5t59.5 -60.5q4 -3 3 -6t-6 -2q-13 2 -58 33.5z" />
    <glyph glyph-name="iacute" unicode="&#xed;" horiz-adv-x="275" 
d="M198.5 29.5q15.5 -23.5 44.5 -24.5q5 0 5 -3.5t-5 -3.5q-18 1 -104 1t-105 -1q-5 0 -5 3.5t5 3.5q59 0 59 84v253q0 32 -9.5 47t-33.5 15q-4 0 -18 -2q-4 -1 -4.5 1.5t2.5 3.5q105 26 152 58q4 3 7.5 2t3.5 -5q-6 -45 -8 -72t-2 -65v-236q0 -36 15.5 -59.5zM91 511
q-1 3 3 6q41 32 59.5 60t31.5 59q7 18 12 24.5t15 7.5q20 2 31 2q33 0 33 -8q0 -14 -38.5 -50t-83.5 -69.5t-57 -34.5q-5 0 -6 3z" />
    <glyph glyph-name="icircumflex" unicode="&#xee;" horiz-adv-x="275" 
d="M198.5 29.5q15.5 -23.5 44.5 -24.5q5 0 5 -3.5t-5 -3.5q-18 1 -104 1t-105 -1q-5 0 -5 3.5t5 3.5q59 0 59 84v253q0 32 -9.5 47t-33.5 15q-4 0 -18 -2q-4 -1 -4.5 1.5t2.5 3.5q105 26 152 58q4 3 7.5 2t3.5 -5q-6 -45 -8 -72t-2 -65v-236q0 -36 15.5 -59.5zM280 517.5
q-1 -3.5 -5 -3.5q-25 1 -72.5 32t-73.5 65q-26 -34 -74.5 -65t-73.5 -32q-4 0 -5 3t3 5q41 21 61.5 45t39.5 57q12 23 21.5 33t26.5 10q18 0 28 -10.5t23 -33.5q19 -32 39 -55.5t59 -44.5q4 -2 3 -5.5z" />
    <glyph glyph-name="idieresis" unicode="&#xef;" horiz-adv-x="275" 
d="M198.5 29.5q15.5 -23.5 44.5 -24.5q5 0 5 -3.5t-5 -3.5q-18 1 -104 1t-105 -1q-5 0 -5 3.5t5 3.5q59 0 59 84v253q0 32 -9.5 47t-33.5 15q-4 0 -18 -2q-4 -1 -4.5 1.5t2.5 3.5q105 26 152 58q4 3 7.5 2t3.5 -5q-6 -45 -8 -72t-2 -65v-236q0 -36 15.5 -59.5zM15.5 549.5
q-14.5 11.5 -14.5 27.5q0 19 16 33t42 14q21 0 35 -11.5t14 -28.5q-1 -19 -17 -32.5t-41 -13.5q-20 0 -34.5 11.5zM166 549q-14 11 -14 27q0 20 16 34t42 14q20 0 34 -11t14 -27q0 -20 -15.5 -34t-41.5 -14q-21 0 -35 11z" />
    <glyph glyph-name="eth" unicode="&#xf0;" horiz-adv-x="536" 
d="M386 618q60 -55 92 -135.5t32 -182.5q0 -103 -33.5 -174t-90 -106t-125.5 -35q-70 0 -123.5 31.5t-82.5 85t-29 118.5q0 64 29.5 121t79.5 91t108 34q54 0 96.5 -23t71.5 -66q-4 132 -67 219l-124 -63q-7 -3 -7.5 0.5t4.5 5.5l122 63q-34 45 -82 71.5t-104 33.5
q-6 0 -6 3q0 2 2 3t6 0q66 -4 123 -27.5t102 -62.5l68 35l4 1q3 0 3 -2.5t-5 -5.5zM433 174q0 60 -31 124t-76.5 107t-87.5 43q-137 2 -137 -154q0 -63 31 -130.5t75.5 -112t79.5 -44.5q146 0 146 167z" />
    <glyph glyph-name="ntilde" unicode="&#xf1;" horiz-adv-x="639" 
d="M645 160.5q4 0.5 4 -5.5q0 -54 -15 -92t-39 -57t-50 -19q-57 0 -80 98l-63 260q-11 44 -29.5 63.5t-62.5 19.5q-50 0 -85.5 -42.5t-41.5 -115.5v-193q0 -39 14.5 -55t45.5 -17q5 0 5 -3.5t-5 -3.5q-21 1 -104 1q-82 0 -105 -1q-5 0 -5 3.5t5 3.5q22 0 34 5t18.5 20.5
t6.5 47.5v264q0 32 -9.5 47t-33.5 15q-4 0 -18 -2q-4 -1 -4.5 1.5t2.5 3.5q105 26 152 58q4 3 7.5 2t3.5 -5q-6 -44 -8 -70t-2 -62q16 56 64.5 96t105.5 40q65 0 95.5 -28t44.5 -87l62 -251q7 -29 16.5 -43.5t23.5 -14.5q10 0 21 12t18 37.5t7 63.5q0 5 4 5.5zM139.5 547
q-3.5 1 -2.5 6q29 87 98 87q27 0 63 -14l40 -16q30 -12 52 -12q42 0 62 43q2 4 5.5 3t2.5 -7q-16 -45 -39.5 -66.5t-57.5 -21.5q-26 0 -62 14l-43 17q-41 17 -65 17q-19 0 -29.5 -11t-19.5 -35q-1 -5 -4.5 -4z" />
    <glyph glyph-name="ograve" unicode="&#xf2;" horiz-adv-x="551" 
d="M140.5 14q-53.5 29 -84 82t-30.5 121t34 125t94 90.5t133 33.5q67 0 121 -29t85.5 -81.5t31.5 -120.5t-35 -125.5t-95.5 -91t-134.5 -33.5q-66 0 -119.5 29zM409 46q38 38 38 112q0 61 -29.5 128t-77 112t-97.5 45q-66 0 -103 -37.5t-37 -111.5q0 -60 29.5 -127.5
t76 -113t95.5 -45.5q67 0 105 38zM264 543.5q-45 31.5 -83 67t-38 52.5q0 8 34 8q12 0 30 -2q9 -1 14.5 -7.5t12.5 -23.5q13 -32 31.5 -59.5t59.5 -60.5q4 -3 3 -6t-6 -2q-13 2 -58 33.5z" />
    <glyph glyph-name="oacute" unicode="&#xf3;" horiz-adv-x="551" 
d="M140.5 14q-53.5 29 -84 82t-30.5 121t34 125t94 90.5t133 33.5q67 0 121 -29t85.5 -81.5t31.5 -120.5t-35 -125.5t-95.5 -91t-134.5 -33.5q-66 0 -119.5 29zM409 46q38 38 38 112q0 61 -29.5 128t-77 112t-97.5 45q-66 0 -103 -37.5t-37 -111.5q0 -60 29.5 -127.5
t76 -113t95.5 -45.5q67 0 105 38zM239 511q-1 3 3 6q41 32 59.5 60t31.5 59q7 18 12 24.5t15 7.5q20 2 31 2q33 0 33 -8q0 -14 -38.5 -50t-83.5 -69.5t-57 -34.5q-5 0 -6 3z" />
    <glyph glyph-name="ocircumflex" unicode="&#xf4;" horiz-adv-x="551" 
d="M140.5 14q-53.5 29 -84 82t-30.5 121t34 125t94 90.5t133 33.5q67 0 121 -29t85.5 -81.5t31.5 -120.5t-35 -125.5t-95.5 -91t-134.5 -33.5q-66 0 -119.5 29zM409 46q38 38 38 112q0 61 -29.5 128t-77 112t-97.5 45q-66 0 -103 -37.5t-37 -111.5q0 -60 29.5 -127.5
t76 -113t95.5 -45.5q67 0 105 38zM428 517.5q-1 -3.5 -5 -3.5q-25 1 -72.5 32t-73.5 65q-26 -34 -74.5 -65t-73.5 -32q-4 0 -5 3t3 5q41 21 61.5 45t39.5 57q12 23 21.5 33t26.5 10q18 0 28 -10.5t23 -33.5q19 -32 39 -55.5t59 -44.5q4 -2 3 -5.5z" />
    <glyph glyph-name="otilde" unicode="&#xf5;" horiz-adv-x="551" 
d="M140.5 14q-53.5 29 -84 82t-30.5 121t34 125t94 90.5t133 33.5q67 0 121 -29t85.5 -81.5t31.5 -120.5t-35 -125.5t-95.5 -91t-134.5 -33.5q-66 0 -119.5 29zM409 46q38 38 38 112q0 61 -29.5 128t-77 112t-97.5 45q-66 0 -103 -37.5t-37 -111.5q0 -60 29.5 -127.5
t76 -113t95.5 -45.5q67 0 105 38zM117.5 547q-3.5 1 -2.5 6q29 87 98 87q27 0 63 -14l40 -16q30 -12 52 -12q42 0 62 43q2 4 5.5 3t2.5 -7q-16 -45 -39.5 -66.5t-57.5 -21.5q-26 0 -62 14l-43 17q-41 17 -65 17q-19 0 -29.5 -11t-19.5 -35q-1 -5 -4.5 -4z" />
    <glyph glyph-name="odieresis" unicode="&#xf6;" horiz-adv-x="551" 
d="M140.5 14q-53.5 29 -84 82t-30.5 121t34 125t94 90.5t133 33.5q67 0 121 -29t85.5 -81.5t31.5 -120.5t-35 -125.5t-95.5 -91t-134.5 -33.5q-66 0 -119.5 29zM409 46q38 38 38 112q0 61 -29.5 128t-77 112t-97.5 45q-66 0 -103 -37.5t-37 -111.5q0 -60 29.5 -127.5
t76 -113t95.5 -45.5q67 0 105 38zM163.5 549.5q-14.5 11.5 -14.5 27.5q0 19 16 33t42 14q21 0 35 -11.5t14 -28.5q-1 -19 -17 -32.5t-41 -13.5q-20 0 -34.5 11.5zM314 549q-14 11 -14 27q0 20 16 34t42 14q20 0 34 -11t14 -27q0 -20 -15.5 -34t-41.5 -14q-21 0 -35 11z" />
    <glyph glyph-name="divide" unicode="&#xf7;" horiz-adv-x="385" 
d="M144.5 352.5q-14.5 9.5 -14.5 25.5q0 19 20.5 32.5t51.5 13.5q24 0 37.5 -10t13.5 -25q0 -17 -19.5 -31t-49.5 -14q-25 -1 -39.5 8.5zM49 234q-6 0 -9.5 1t-4.5 2q0 3 14 3h290q5 0 7.5 -1t3.5 -2q0 -3 -11 -3h-290zM144.5 71.5q-14.5 9.5 -14.5 25.5q0 19 20.5 32.5
t51.5 13.5q24 0 37.5 -10t13.5 -25q0 -17 -19.5 -31t-49.5 -14q-25 -1 -39.5 8.5z" />
    <glyph glyph-name="oslash" unicode="&#xf8;" horiz-adv-x="551" 
d="M428 425q45 -31 71 -80t26 -110q0 -68 -35 -125.5t-95.5 -91t-134.5 -33.5q-72 0 -130 36l-24 -33q-1 -3 -4 -3q-2 0 -3 2t1 6l23 32q-45 31 -71 80.5t-26 111.5q0 68 34 125t94 90.5t133 33.5q75 0 134 -37l24 33q3 4 5 4t2.5 -2.5t-1.5 -6.5zM122.5 191.5
q19.5 -54.5 51.5 -98.5l199 270q-29 37 -62.5 58.5t-67.5 21.5q-66 0 -103 -37.5t-37 -111.5q0 -48 19.5 -102.5zM409 46q38 38 38 112q0 48 -19 102t-51 97l-198 -270q28 -37 60 -58t65 -21q67 0 105 38z" />
    <glyph glyph-name="ugrave" unicode="&#xf9;" horiz-adv-x="563" 
d="M570 160q3 0 3 -5q0 -69 -26.5 -117.5t-73.5 -48.5q-35 0 -57.5 25.5t-22.5 76.5v33q-12 -62 -55 -100.5t-108 -38.5q-73 0 -117 49.5t-44 145.5v162q0 32 -9.5 47t-33.5 15q-4 0 -18 -2q-4 -1 -4.5 1.5t1.5 3.5q43 11 85 26t67 32q5 3 8 2t3 -5q-5 -46 -7 -73t-2 -64
v-146q0 -160 111 -160q56 0 89.5 45t33.5 125v153q0 32 -9.5 47t-33.5 15q-4 0 -18 -2q-4 -1 -4.5 1.5t1.5 3.5q43 11 85 26t67 32q5 3 8 2t3 -5q-5 -46 -7 -73t-2 -64v-216q0 -33 7.5 -48.5t25.5 -15.5q31 0 40.5 29t10.5 81q0 5 3 5zM277 543.5q-45 31.5 -83 67t-38 52.5
q0 8 34 8q12 0 30 -2q9 -1 14.5 -7.5t12.5 -23.5q13 -32 31.5 -59.5t59.5 -60.5q4 -3 3 -6t-6 -2q-13 2 -58 33.5z" />
    <glyph glyph-name="uacute" unicode="&#xfa;" horiz-adv-x="563" 
d="M570 160q3 0 3 -5q0 -69 -26.5 -117.5t-73.5 -48.5q-35 0 -57.5 25.5t-22.5 76.5v33q-12 -62 -55 -100.5t-108 -38.5q-73 0 -117 49.5t-44 145.5v162q0 32 -9.5 47t-33.5 15q-4 0 -18 -2q-4 -1 -4.5 1.5t1.5 3.5q43 11 85 26t67 32q5 3 8 2t3 -5q-5 -46 -7 -73t-2 -64
v-146q0 -160 111 -160q56 0 89.5 45t33.5 125v153q0 32 -9.5 47t-33.5 15q-4 0 -18 -2q-4 -1 -4.5 1.5t1.5 3.5q43 11 85 26t67 32q5 3 8 2t3 -5q-5 -46 -7 -73t-2 -64v-216q0 -33 7.5 -48.5t25.5 -15.5q31 0 40.5 29t10.5 81q0 5 3 5zM251 511q-1 3 3 6q41 32 59.5 60
t31.5 59q7 18 12 24.5t15 7.5q20 2 31 2q33 0 33 -8q0 -14 -38.5 -50t-83.5 -69.5t-57 -34.5q-5 0 -6 3z" />
    <glyph glyph-name="ucircumflex" unicode="&#xfb;" horiz-adv-x="563" 
d="M570 160q3 0 3 -5q0 -69 -26.5 -117.5t-73.5 -48.5q-35 0 -57.5 25.5t-22.5 76.5v33q-12 -62 -55 -100.5t-108 -38.5q-73 0 -117 49.5t-44 145.5v162q0 32 -9.5 47t-33.5 15q-4 0 -18 -2q-4 -1 -4.5 1.5t1.5 3.5q43 11 85 26t67 32q5 3 8 2t3 -5q-5 -46 -7 -73t-2 -64
v-146q0 -160 111 -160q56 0 89.5 45t33.5 125v153q0 32 -9.5 47t-33.5 15q-4 0 -18 -2q-4 -1 -4.5 1.5t1.5 3.5q43 11 85 26t67 32q5 3 8 2t3 -5q-5 -46 -7 -73t-2 -64v-216q0 -33 7.5 -48.5t25.5 -15.5q31 0 40.5 29t10.5 81q0 5 3 5zM440 517.5q-1 -3.5 -5 -3.5
q-25 1 -72.5 32t-73.5 65q-26 -34 -74.5 -65t-73.5 -32q-4 0 -5 3t3 5q41 21 61.5 45t39.5 57q12 23 21.5 33t26.5 10q18 0 28 -10.5t23 -33.5q19 -32 39 -55.5t59 -44.5q4 -2 3 -5.5z" />
    <glyph glyph-name="udieresis" unicode="&#xfc;" horiz-adv-x="563" 
d="M570 160q3 0 3 -5q0 -69 -26.5 -117.5t-73.5 -48.5q-35 0 -57.5 25.5t-22.5 76.5v33q-12 -62 -55 -100.5t-108 -38.5q-73 0 -117 49.5t-44 145.5v162q0 32 -9.5 47t-33.5 15q-4 0 -18 -2q-4 -1 -4.5 1.5t1.5 3.5q43 11 85 26t67 32q5 3 8 2t3 -5q-5 -46 -7 -73t-2 -64
v-146q0 -160 111 -160q56 0 89.5 45t33.5 125v153q0 32 -9.5 47t-33.5 15q-4 0 -18 -2q-4 -1 -4.5 1.5t1.5 3.5q43 11 85 26t67 32q5 3 8 2t3 -5q-5 -46 -7 -73t-2 -64v-216q0 -33 7.5 -48.5t25.5 -15.5q31 0 40.5 29t10.5 81q0 5 3 5zM175.5 549.5q-14.5 11.5 -14.5 27.5
q0 19 16 33t42 14q21 0 35 -11.5t14 -28.5q-1 -19 -17 -32.5t-41 -13.5q-20 0 -34.5 11.5zM326 549q-14 11 -14 27q0 20 16 34t42 14q20 0 34 -11t14 -27q0 -20 -15.5 -34t-41.5 -14q-21 0 -35 11z" />
    <glyph glyph-name="yacute" unicode="&#xfd;" horiz-adv-x="523" 
d="M518 448.5q0 -3.5 -4 -3.5q-20 0 -33.5 -17t-32.5 -62l-161 -377q-48 -107 -88.5 -152t-94.5 -45q-40 0 -72 19.5t-37 46.5q-1 12 9.5 35.5t22.5 37.5t12 3q0 -19 13 -47t35.5 -48.5t48.5 -20.5q33 0 58 26t53 88q1 3 1 9q0 22 -21 69l-152 356q-20 46 -33 62.5t-34 16.5
q-3 0 -3 3.5t3 3.5l43 -1h101l72 1q6 0 6 -3.5t-6 -3.5q-61 0 -61 -42q0 -14 9 -37l128 -301q6 -11 11 0l129 301q9 21 9 36q0 43 -64 43q-6 0 -6 3.5t6 3.5l75 -1h12l42 1q4 0 4 -3.5zM224 511q-1 3 3 6q41 32 59.5 60t31.5 59q7 18 12 24.5t15 7.5q20 2 31 2q33 0 33 -8
q0 -14 -38.5 -50t-83.5 -69.5t-57 -34.5q-5 0 -6 3z" />
    <glyph glyph-name="thorn" unicode="&#xfe;" horiz-adv-x="549" 
d="M426 437.5q44 -28.5 70.5 -81t26.5 -120.5q0 -65 -30 -122.5t-82.5 -92.5t-114.5 -35q-43 0 -71 12.5t-51 31.5q-3 2 -9.5 6.5t-10.5 4.5q-9 0 -9 -18v-135q0 -44 14.5 -63t42.5 -20q5 0 5 -3.5t-5 -3.5q-42 2 -90 2q-63 0 -113 -2q-5 0 -5 3.5t5 3.5q29 0 42.5 19
t13.5 65v701q0 32 -9 47t-33 15q-5 0 -19 -2q-4 -1 -4.5 2t1.5 4q41 9 84 25t69 33q4 3 7.5 2t3.5 -5q-6 -45 -8 -72t-2 -66v-189q0 -14 2.5 -30t5.5 -17q27 56 70.5 92.5t106.5 36.5q52 0 96 -28.5zM409.5 43q34.5 40 34.5 119q0 65 -23.5 123t-63.5 93.5t-87 35.5
q-54 0 -89.5 -44.5t-35.5 -114.5v-58q0 -53 18.5 -97.5t53.5 -70.5t82 -26q76 0 110.5 40z" />
    <glyph glyph-name="ydieresis" unicode="&#xff;" horiz-adv-x="523" 
d="M518 448.5q0 -3.5 -4 -3.5q-20 0 -33.5 -17t-32.5 -62l-161 -377q-48 -107 -88.5 -152t-94.5 -45q-40 0 -72 19.5t-37 46.5q-1 12 9.5 35.5t22.5 37.5t12 3q0 -19 13 -47t35.5 -48.5t48.5 -20.5q33 0 58 26t53 88q1 3 1 9q0 22 -21 69l-152 356q-20 46 -33 62.5t-34 16.5
q-3 0 -3 3.5t3 3.5l43 -1h101l72 1q6 0 6 -3.5t-6 -3.5q-61 0 -61 -42q0 -14 9 -37l128 -301q6 -11 11 0l129 301q9 21 9 36q0 43 -64 43q-6 0 -6 3.5t6 3.5l75 -1h12l42 1q4 0 4 -3.5zM148.5 549.5q-14.5 11.5 -14.5 27.5q0 19 16 33t42 14q21 0 35 -11.5t14 -28.5
q-1 -19 -17 -32.5t-41 -13.5q-20 0 -34.5 11.5zM299 549q-14 11 -14 27q0 20 16 34t42 14q20 0 34 -11t14 -27q0 -20 -15.5 -34t-41.5 -14q-21 0 -35 11z" />
    <glyph glyph-name="Amacron" unicode="&#x100;" horiz-adv-x="718" 
d="M713 0.5q0 -3.5 -4 -3.5q-30 3 -42 3h-137q-22 0 -67 -3q-7 0 -7 3.5t7 3.5q77 4 77 51q0 16 -8 35l-60 142q-7 8 -16 8q-4 0 -12 -3q-67 -32 -143 -50.5t-154 -22.5q-11 0 -20 -5.5t-12 -14.5v1l-23 -55q-8 -19 -8 -35q0 -47 80 -51q7 0 7 -3q0 -4 -8 -4q-45 3 -69 3
h-43q-12 0 -42 -3q-4 0 -4 3.5t4 3.5q25 1 40 19t36 67l213 511q4 9 4 21q0 13 -5 25l-15 36q-3 10 -13 13q-2 1 -0.5 2.5t5.5 1.5h93q6 0 9.5 -2t5.5 -8l252 -600q20 -49 35 -67t40 -19q4 0 4 -3.5zM453 257q4 9 1 15h1l-144 342l-177 -425v-4q0 -6 3.5 -10t10.5 -4
q78 5 154.5 23.5t137.5 49.5q9 4 13 13zM233 765q-8 0 -8 5q0 4 8 4h253q9 0 9 -4q0 -5 -9 -5h-253z" />
    <glyph glyph-name="amacron" unicode="&#x101;" horiz-adv-x="546" 
d="M552.5 160.5q3.5 0.5 3.5 -5.5q0 -54 -15 -92.5t-38.5 -57.5t-49.5 -19q-58 0 -78 100l-9 39q-19 -64 -66.5 -101.5t-103.5 -37.5q-54 0 -91 22t-54.5 57t-16.5 75q1 51 53 82t129 31q64 0 124 -10l-21 96q-11 51 -38 75t-81 24q-63 0 -109 -37.5t-49 -111.5q-1 -7 -5 -7
t-3 7q3 56 35 96t78.5 60.5t93.5 20.5q80 0 119 -31.5t55 -101.5l50 -233q7 -28 15.5 -43t22.5 -15q10 0 20.5 12t18 37.5t7.5 63.5q0 5 3.5 5.5zM356 173l-12 52q-60 12 -105 12q-65 0 -93 -18.5t-28 -67.5q0 -50 29.5 -83.5t87.5 -33.5q110 0 120 116q2 14 1 23zM125 590
q-8 0 -8 5q0 4 8 4h253q9 0 9 -4q0 -5 -9 -5h-253z" />
    <glyph glyph-name="Abreve" unicode="&#x102;" horiz-adv-x="718" 
d="M713 0.5q0 -3.5 -4 -3.5q-30 3 -42 3h-137q-22 0 -67 -3q-7 0 -7 3.5t7 3.5q77 4 77 51q0 16 -8 35l-60 142q-7 8 -16 8q-4 0 -12 -3q-67 -32 -143 -50.5t-154 -22.5q-11 0 -20 -5.5t-12 -14.5v1l-23 -55q-8 -19 -8 -35q0 -47 80 -51q7 0 7 -3q0 -4 -8 -4q-45 3 -69 3
h-43q-12 0 -42 -3q-4 0 -4 3.5t4 3.5q25 1 40 19t36 67l213 511q4 9 4 21q0 13 -5 25l-15 36q-3 10 -13 13q-2 1 -0.5 2.5t5.5 1.5h93q6 0 9.5 -2t5.5 -8l252 -600q20 -49 35 -67t40 -19q4 0 4 -3.5zM453 257q4 9 1 15h1l-144 342l-177 -425v-4q0 -6 3.5 -10t10.5 -4
q78 5 154.5 23.5t137.5 49.5q9 4 13 13zM288.5 871.5q7.5 -2.5 7.5 -8.5q0 -22 9 -45.5t28.5 -40.5t49.5 -17q48 0 67 33.5t19 69.5q0 6 4 6q5 0 5 -5q0 -48 -28.5 -87.5t-94.5 -39.5q-43 0 -71 21t-40 50.5t-12 55.5q0 5 6 7.5t22 2.5q21 0 28.5 -2.5z" />
    <glyph glyph-name="abreve" unicode="&#x103;" horiz-adv-x="546" 
d="M552.5 160.5q3.5 0.5 3.5 -5.5q0 -54 -15 -92.5t-38.5 -57.5t-49.5 -19q-58 0 -78 100l-9 39q-19 -64 -66.5 -101.5t-103.5 -37.5q-54 0 -91 22t-54.5 57t-16.5 75q1 51 53 82t129 31q64 0 124 -10l-21 96q-11 51 -38 75t-81 24q-63 0 -109 -37.5t-49 -111.5q-1 -7 -5 -7
t-3 7q3 56 35 96t78.5 60.5t93.5 20.5q80 0 119 -31.5t55 -101.5l50 -233q7 -28 15.5 -43t22.5 -15q10 0 20.5 12t18 37.5t7.5 63.5q0 5 3.5 5.5zM356 173l-12 52q-60 12 -105 12q-65 0 -93 -18.5t-28 -67.5q0 -50 29.5 -83.5t87.5 -33.5q110 0 120 116q2 14 1 23z
M181.5 650.5q7.5 -2.5 7.5 -8.5q0 -22 9 -45.5t28.5 -40.5t49.5 -17q48 0 67 33.5t19 69.5q0 6 4 6q5 0 5 -5q0 -48 -28.5 -87.5t-94.5 -39.5q-43 0 -71 21t-40 50.5t-12 55.5q0 5 6 7.5t22 2.5q21 0 28.5 -2.5z" />
    <glyph glyph-name="Aogonek" unicode="&#x104;" horiz-adv-x="718" 
d="M712.5 -81q3.5 0 3.5 -5q0 -43 -26 -68t-70 -25q-33 0 -52.5 16t-19.5 44q0 35 27.5 64t74.5 55h-120q-22 0 -67 -3q-7 0 -7 3.5t7 3.5q77 4 77 51q0 16 -8 35l-60 142q-7 8 -16 8q-4 0 -12 -3q-67 -32 -143 -50.5t-154 -22.5q-11 0 -20 -5.5t-12 -14.5v1l-23 -55
q-8 -19 -8 -35q0 -47 80 -51q7 0 7 -3q0 -4 -8 -4q-45 3 -69 3h-43q-12 0 -42 -3q-4 0 -4 3.5t4 3.5q25 1 40 19t36 67l213 511q4 9 4 21q0 13 -5 25l-15 36q-3 10 -13 13q-2 1 -0.5 2.5t5.5 1.5h93q6 0 9.5 -2t5.5 -8l252 -600q20 -49 35 -67t40 -19q4 0 4 -3.5t-4 -3.5
q-30 3 -42 3h-6q-32 -28 -43 -50t-11 -46q0 -23 12.5 -35.5t33.5 -12.5q56 0 56 58q0 5 3.5 5zM453 257q4 9 1 15h1l-144 342l-177 -425v-4q0 -6 3.5 -10t10.5 -4q78 5 154.5 23.5t137.5 49.5q9 4 13 13z" />
    <glyph glyph-name="aogonek" unicode="&#x105;" horiz-adv-x="546" 
d="M547.5 -79q3.5 0 3.5 -5q0 -43 -26 -68t-70 -25q-33 0 -52.5 16t-19.5 44q0 54 76 103h-6q-58 0 -78 100l-9 39q-19 -64 -66.5 -101.5t-103.5 -37.5q-54 0 -91 22t-54.5 57t-16.5 75q1 51 53 82t129 31q64 0 124 -10l-21 96q-11 51 -38 75t-81 24q-63 0 -109 -37.5
t-49 -111.5q-1 -7 -5 -7t-3 7q3 56 35 96t78.5 60.5t93.5 20.5q80 0 119 -31.5t55 -101.5l50 -233q7 -28 15.5 -43t22.5 -15q10 0 20.5 12t18 37.5t7.5 63.5q0 5 3.5 5.5t3.5 -5.5q0 -61 -18.5 -101.5t-47.5 -57.5q-28 -25 -38 -46t-10 -44t12.5 -35.5t33.5 -12.5
q56 0 56 58q0 5 3.5 5zM356 173l-12 52q-60 12 -105 12q-65 0 -93 -18.5t-28 -67.5q0 -50 29.5 -83.5t87.5 -33.5q110 0 120 116q2 14 1 23z" />
    <glyph glyph-name="Cacute" unicode="&#x106;" horiz-adv-x="685" 
d="M580 351q-1 -5 -4.5 -3.5t-2.5 5.5q15 50 15 95q0 68 -30 126q-25 54 -72.5 83.5t-105.5 29.5q-117 0 -183.5 -58.5t-66.5 -186.5q0 -118 47 -208.5t120 -139.5t148 -49q54 0 115 19.5t107 70.5q4 4 7 4q2 0 1.5 -2.5t-3.5 -5.5q-61 -75 -133 -110.5t-164 -35.5
q-90 0 -166.5 44t-122 124.5t-45.5 184.5q0 106 51 192t138 135t188 49q65 0 120 -19.5t87 -50t32 -60.5q0 -5 -2 -13zM265 744q-1 3 3 5q49 28 73.5 49.5t45.5 46.5q12 15 20 21q4 2 16 2q18 0 35 -4t16 -11q0 -13 -44 -39.5t-95.5 -50t-63.5 -23.5q-5 1 -6 4z" />
    <glyph glyph-name="cacute" unicode="&#x107;" horiz-adv-x="471" 
d="M394 222q-1 -5 -4.5 -4t-1.5 6q5 23 5 42q0 45 -20 87t-54.5 67.5t-76.5 25.5q-139 0 -139 -155q0 -74 33.5 -133t86 -91.5t105.5 -32.5q32 0 66 11t58 41q4 3 5.5 1t-0.5 -5q-40 -50 -90 -73t-112 -23t-114.5 29t-83.5 82t-31 121q0 69 34 125.5t91.5 89.5t125.5 33
q44 0 81.5 -12t60 -31t22.5 -39q0 -5 -1 -8zM224 510q-1 3 3 6q41 32 59.5 60t31.5 59q7 18 12 24.5t15 7.5q20 2 31 2q33 0 33 -8q0 -14 -38.5 -50t-83.5 -69.5t-57 -34.5q-5 0 -6 3z" />
    <glyph glyph-name="Ccircumflex" unicode="&#x108;" horiz-adv-x="685" 
d="M580 351q-1 -5 -4.5 -3.5t-2.5 5.5q15 50 15 95q0 68 -30 126q-25 54 -72.5 83.5t-105.5 29.5q-117 0 -183.5 -58.5t-66.5 -186.5q0 -118 47 -208.5t120 -139.5t148 -49q54 0 115 19.5t107 70.5q4 4 7 4q2 0 1.5 -2.5t-3.5 -5.5q-61 -75 -133 -110.5t-164 -35.5
q-90 0 -166.5 44t-122 124.5t-45.5 184.5q0 106 51 192t138 135t188 49q65 0 120 -19.5t87 -50t32 -60.5q0 -5 -2 -13zM515 740q-1 -3 -5 -3q-27 1 -78 28t-79 57q-27 -29 -78.5 -56.5t-79.5 -28.5q-5 0 -6 2.5t4 4.5q43 18 65.5 39t42.5 50q13 20 23 28.5t28 8.5
q19 0 29.5 -8.5t24.5 -28.5q19 -28 41.5 -49t64.5 -39q4 -2 3 -5z" />
    <glyph glyph-name="ccircumflex" unicode="&#x109;" horiz-adv-x="471" 
d="M394 222q-1 -5 -4.5 -4t-1.5 6q5 23 5 42q0 45 -20 87t-54.5 67.5t-76.5 25.5q-139 0 -139 -155q0 -74 33.5 -133t86 -91.5t105.5 -32.5q32 0 66 11t58 41q4 3 5.5 1t-0.5 -5q-40 -50 -90 -73t-112 -23t-114.5 29t-83.5 82t-31 121q0 69 34 125.5t91.5 89.5t125.5 33
q44 0 81.5 -12t60 -31t22.5 -39q0 -5 -1 -8zM413 516.5q-1 -3.5 -5 -3.5q-25 1 -72.5 32t-73.5 65q-26 -34 -74.5 -65t-73.5 -32q-4 0 -5 3t3 5q41 21 61.5 45t39.5 57q12 23 21.5 33t26.5 10q18 0 28 -10.5t23 -33.5q19 -32 39 -55.5t59 -44.5q4 -2 3 -5.5z" />
    <glyph glyph-name="Cdotaccent" unicode="&#x10a;" horiz-adv-x="685" 
d="M580 351q-1 -5 -4.5 -3.5t-2.5 5.5q15 50 15 95q0 68 -30 126q-25 54 -72.5 83.5t-105.5 29.5q-117 0 -183.5 -58.5t-66.5 -186.5q0 -118 47 -208.5t120 -139.5t148 -49q54 0 115 19.5t107 70.5q4 4 7 4q2 0 1.5 -2.5t-3.5 -5.5q-61 -75 -133 -110.5t-164 -35.5
q-90 0 -166.5 44t-122 124.5t-45.5 184.5q0 106 51 192t138 135t188 49q65 0 120 -19.5t87 -50t32 -60.5q0 -5 -2 -13zM309 759q-14 11 -14 27q0 20 19.5 34.5t48.5 14.5q25 0 39 -11t14 -28q0 -19 -19.5 -33.5t-48.5 -14.5q-25 0 -39 11z" />
    <glyph glyph-name="cdotaccent" unicode="&#x10b;" horiz-adv-x="471" 
d="M394 222q-1 -5 -4.5 -4t-1.5 6q5 23 5 42q0 45 -20 87t-54.5 67.5t-76.5 25.5q-139 0 -139 -155q0 -74 33.5 -133t86 -91.5t105.5 -32.5q32 0 66 11t58 41q4 3 5.5 1t-0.5 -5q-40 -50 -90 -73t-112 -23t-114.5 29t-83.5 82t-31 121q0 69 34 125.5t91.5 89.5t125.5 33
q44 0 81.5 -12t60 -31t22.5 -39q0 -5 -1 -8zM223.5 545.5q-14.5 11.5 -14.5 28.5q0 19 16 33t42 14q20 0 34.5 -11.5t14.5 -28.5q0 -20 -16 -33.5t-42 -13.5q-20 0 -34.5 11.5z" />
    <glyph glyph-name="Ccaron" unicode="&#x10c;" horiz-adv-x="685" 
d="M580 351q-1 -5 -4.5 -3.5t-2.5 5.5q15 50 15 95q0 68 -30 126q-25 54 -72.5 83.5t-105.5 29.5q-117 0 -183.5 -58.5t-66.5 -186.5q0 -118 47 -208.5t120 -139.5t148 -49q54 0 115 19.5t107 70.5q4 4 7 4q2 0 1.5 -2.5t-3.5 -5.5q-61 -75 -133 -110.5t-164 -35.5
q-90 0 -166.5 44t-122 124.5t-45.5 184.5q0 106 51 192t138 135t188 49q65 0 120 -19.5t87 -50t32 -60.5q0 -5 -2 -13zM504 864.5q1 -2.5 -3 -4.5q-41 -17 -62 -37.5t-38 -47.5q-13 -19 -22.5 -27t-26.5 -8q-18 0 -27.5 8t-23.5 28q-18 26 -38.5 46t-59.5 38q-4 2 -3 4.5
t5 2.5q25 -1 73 -27t74 -54q26 28 74 54t73 27q4 0 5 -2.5z" />
    <glyph glyph-name="ccaron" unicode="&#x10d;" horiz-adv-x="471" 
d="M394 222q-1 -5 -4.5 -4t-1.5 6q5 23 5 42q0 45 -20 87t-54.5 67.5t-76.5 25.5q-139 0 -139 -155q0 -74 33.5 -133t86 -91.5t105.5 -32.5q32 0 66 11t58 41q4 3 5.5 1t-0.5 -5q-40 -50 -90 -73t-112 -23t-114.5 29t-83.5 82t-31 121q0 69 34 125.5t91.5 89.5t125.5 33
q44 0 81.5 -12t60 -31t22.5 -39q0 -5 -1 -8zM413 657.5q1 -3.5 -3 -5.5q-41 -20 -62 -44.5t-38 -56.5q-13 -23 -22.5 -33t-26.5 -10q-18 0 -27.5 9.5t-23.5 33.5q-17 31 -37.5 55.5t-60.5 45.5q-4 2 -3 5.5t5 3.5q25 -2 72.5 -33t74.5 -64q26 34 74 65t73 32q4 0 5 -3.5z
" />
    <glyph glyph-name="Dcaron" unicode="&#x10e;" horiz-adv-x="731" 
d="M212 -3q-70 2 -117 2q-29 0 -55 -2q-5 0 -5.5 3.5t5.5 3.5q36 1 54.5 20.5t18.5 69.5v512q0 49 -18 68t-55 21q-6 1 -5.5 4t5.5 3q26 -2 55 -2q33 0 89 2l79 2q218 0 322 -94t104 -257q0 -103 -44 -184t-131.5 -127.5t-212.5 -46.5q-27 0 -89 2zM511.5 94.5
q75.5 91.5 76.5 243.5q0 101 -37 181.5t-114.5 128.5t-195.5 48q-19 0 -25.5 -9.5t-6.5 -30.5v-609q0 -26 13 -35t55 -9q159 0 234.5 91.5zM478 864.5q1 -2.5 -3 -4.5q-41 -17 -62 -37.5t-38 -47.5q-13 -19 -22.5 -27t-26.5 -8q-18 0 -27.5 8t-23.5 28q-18 26 -38.5 46
t-59.5 38q-4 2 -3 4.5t5 2.5q25 -1 73 -27t74 -54q26 28 74 54t73 27q4 0 5 -2.5z" />
    <glyph glyph-name="dcaron" unicode="&#x10f;" horiz-adv-x="567" 
d="M574 160q3 0 3 -5q0 -70 -26 -118t-74 -48q-35 0 -57.5 25.5t-22.5 76.5v6l-2 7q-4 6 -8 -1q-57 -118 -168 -118q-51 0 -95.5 28.5t-71 80.5t-26.5 120q0 67 32 125t84.5 92.5t110.5 34.5q42 0 78.5 -16.5t64.5 -47.5v174q0 39 -8.5 54t-24.5 15q-3 0 -13 -2
q-4 -1 -6 2.5t0 3.5q47 12 83.5 28.5t63.5 41.5h1q2 0 4.5 -1.5t1.5 -5.5q-7 -33 -9 -74t-2 -117v-412q0 -33 7.5 -48.5t25.5 -15.5q31 0 40.5 29t10.5 81q0 5 3 5zM365.5 77q29.5 40 31.5 116v50q-4 82 -40.5 143t-106.5 61q-77 0 -111 -40.5t-34 -117.5q0 -64 24 -122
t64 -94t86 -36q57 0 86.5 40zM572.5 514q-3.5 0 -3.5 4q-2 44 -8 72.5t-14 53.5q-1 4 -4.5 15.5t-3.5 21.5q-1 18 5.5 24t27.5 6q22 0 28.5 -6.5t6.5 -23.5q0 -10 -3.5 -21.5t-4.5 -15.5q-9 -25 -15 -53t-7 -73q-1 -4 -4.5 -4z" />
    <glyph glyph-name="Dcroat" unicode="&#x110;" horiz-adv-x="731" 
d="M585 610q104 -94 104 -257q0 -103 -44 -184t-131.5 -127.5t-212.5 -46.5q-27 0 -89 2q-70 2 -117 2q-29 0 -55 -2q-5 0 -5.5 3.5t5.5 3.5q36 1 54.5 20.5t18.5 69.5v252h-71q-4 0 -4 4t4 4h71v252q0 49 -18 68t-55 21q-6 1 -5.5 4t5.5 3q26 -2 55 -2q33 0 89 2l79 2
q218 0 322 -94zM511.5 94.5q75.5 91.5 76.5 243.5q0 101 -37 181.5t-114.5 128.5t-195.5 48q-19 0 -25.5 -9.5t-6.5 -30.5v-302h202q5 0 5 -4t-5 -4h-202v-299q0 -26 13 -35t55 -9q159 0 234.5 91.5z" />
    <glyph glyph-name="dcroat" unicode="&#x111;" horiz-adv-x="567" 
d="M574 160q3 0 3 -5q0 -70 -26 -118t-74 -48q-35 0 -57.5 25.5t-22.5 76.5v6l-2 7q-4 6 -8 -1q-57 -118 -168 -118q-51 0 -95.5 28.5t-71 80.5t-26.5 120q0 67 32 125t84.5 92.5t110.5 34.5q42 0 78.5 -16.5t64.5 -47.5v158h-110q-9 0 -9 5q0 4 9 4h110v7q0 39 -8.5 54
t-24.5 15q-3 0 -13 -2q-4 -1 -6 2.5t0 3.5q47 12 83.5 28.5t63.5 41.5h1q2 0 4.5 -1.5t1.5 -5.5q-10 -52 -11 -143h70q9 0 9 -4q0 -5 -9 -5h-70v-39v-412q0 -33 7.5 -48.5t25.5 -15.5q31 0 40.5 29t10.5 81q0 5 3 5zM365.5 77q29.5 40 31.5 116v50q-4 82 -40.5 143
t-106.5 61q-77 0 -111 -40.5t-34 -117.5q0 -64 24 -122t64 -94t86 -36q57 0 86.5 40z" />
    <glyph glyph-name="Emacron" unicode="&#x112;" horiz-adv-x="628" 
d="M41 -3q-5 0 -5.5 3.5t5.5 3.5q36 2 54 21.5t18 68.5v512q0 49 -18 68.5t-54 21.5q-6 0 -5.5 3.5t5.5 3.5q36 -3 54 -3h280q62 0 129 8q18 3 27 3q8 0 12.5 -4.5t5.5 -17.5q2 -84 23 -243q1 -5 -1.5 -5t-3.5 4q-24 101 -39 140t-36 61q-26 29 -83 38t-176 9q-24 0 -24 -33
v-260q0 -10 4.5 -17.5t15.5 -7.5q77 0 98 3q18 2 29.5 10.5t22.5 30t23 63.5q1 6 4 6t2 -6q-7 -39 -7 -93q0 -72 12 -141q1 -5 -2 -5.5t-4 5.5q-19 63 -37 88.5t-43 28.5q-31 3 -98 3q-11 0 -15.5 -8.5t-4.5 -18.5v-287q0 -47 31 -47q122 0 189 11.5t95 38.5
q25 23 41.5 67.5t32.5 128.5q1 7 4 7q4 0 2 -8q-20 -130 -22 -241q-1 -13 -6 -17.5t-14 -4.5q-4 0 -22 2q-72 9 -150 9h-295q-18 0 -54 -3zM177 765q-8 0 -8 5q0 4 8 4h253q9 0 9 -4q0 -5 -9 -5h-253z" />
    <glyph glyph-name="emacron" unicode="&#x113;" horiz-adv-x="479" 
d="M454.5 86q2.5 -2 0.5 -5q-38 -48 -90 -71.5t-112 -23.5q-61 0 -113 29t-83 82t-31 121q0 70 33.5 126.5t90.5 89t124 32.5q75 0 124.5 -42t49.5 -113q0 -35 -11 -68q-82 -1 -332 -8q12 -59 47.5 -105t82.5 -71t92 -25q83 0 124 52q1 2 3.5 0zM135 409.5
q-35 -39.5 -35 -119.5q0 -28 4 -49l118 4q43 3 133 5q8 16 8 40q0 35 -18 72.5t-47.5 62t-61.5 24.5q-66 0 -101 -39.5zM129 590q-8 0 -8 5q0 4 8 4h253q9 0 9 -4q0 -5 -9 -5h-253z" />
    <glyph glyph-name="Ebreve" unicode="&#x114;" horiz-adv-x="628" 
d="M41 -3q-5 0 -5.5 3.5t5.5 3.5q36 2 54 21.5t18 68.5v512q0 49 -18 68.5t-54 21.5q-6 0 -5.5 3.5t5.5 3.5q36 -3 54 -3h280q62 0 129 8q18 3 27 3q8 0 12.5 -4.5t5.5 -17.5q2 -84 23 -243q1 -5 -1.5 -5t-3.5 4q-24 101 -39 140t-36 61q-26 29 -83 38t-176 9q-24 0 -24 -33
v-260q0 -10 4.5 -17.5t15.5 -7.5q77 0 98 3q18 2 29.5 10.5t22.5 30t23 63.5q1 6 4 6t2 -6q-7 -39 -7 -93q0 -72 12 -141q1 -5 -2 -5.5t-4 5.5q-19 63 -37 88.5t-43 28.5q-31 3 -98 3q-11 0 -15.5 -8.5t-4.5 -18.5v-287q0 -47 31 -47q122 0 189 11.5t95 38.5
q25 23 41.5 67.5t32.5 128.5q1 7 4 7q4 0 2 -8q-20 -130 -22 -241q-1 -13 -6 -17.5t-14 -4.5q-4 0 -22 2q-72 9 -150 9h-295q-18 0 -54 -3zM232.5 871.5q7.5 -2.5 7.5 -8.5q0 -22 9 -45.5t28.5 -40.5t49.5 -17q48 0 67 33.5t19 69.5q0 6 4 6q5 0 5 -5q0 -48 -28.5 -87.5
t-94.5 -39.5q-43 0 -71 21t-40 50.5t-12 55.5q0 5 6 7.5t22 2.5q21 0 28.5 -2.5z" />
    <glyph glyph-name="ebreve" unicode="&#x115;" horiz-adv-x="479" 
d="M454.5 86q2.5 -2 0.5 -5q-38 -48 -90 -71.5t-112 -23.5q-61 0 -113 29t-83 82t-31 121q0 70 33.5 126.5t90.5 89t124 32.5q75 0 124.5 -42t49.5 -113q0 -35 -11 -68q-82 -1 -332 -8q12 -59 47.5 -105t82.5 -71t92 -25q83 0 124 52q1 2 3.5 0zM135 409.5
q-35 -39.5 -35 -119.5q0 -28 4 -49l118 4q43 3 133 5q8 16 8 40q0 35 -18 72.5t-47.5 62t-61.5 24.5q-66 0 -101 -39.5zM184.5 650.5q7.5 -2.5 7.5 -8.5q0 -22 9 -45.5t28.5 -40.5t49.5 -17q48 0 67 33.5t19 69.5q0 6 4 6q5 0 5 -5q0 -48 -28.5 -87.5t-94.5 -39.5
q-43 0 -71 21t-40 50.5t-12 55.5q0 5 6 7.5t22 2.5q21 0 28.5 -2.5z" />
    <glyph glyph-name="Edotaccent" unicode="&#x116;" horiz-adv-x="628" 
d="M41 -3q-5 0 -5.5 3.5t5.5 3.5q36 2 54 21.5t18 68.5v512q0 49 -18 68.5t-54 21.5q-6 0 -5.5 3.5t5.5 3.5q36 -3 54 -3h280q62 0 129 8q18 3 27 3q8 0 12.5 -4.5t5.5 -17.5q2 -84 23 -243q1 -5 -1.5 -5t-3.5 4q-24 101 -39 140t-36 61q-26 29 -83 38t-176 9q-24 0 -24 -33
v-260q0 -10 4.5 -17.5t15.5 -7.5q77 0 98 3q18 2 29.5 10.5t22.5 30t23 63.5q1 6 4 6t2 -6q-7 -39 -7 -93q0 -72 12 -141q1 -5 -2 -5.5t-4 5.5q-19 63 -37 88.5t-43 28.5q-31 3 -98 3q-11 0 -15.5 -8.5t-4.5 -18.5v-287q0 -47 31 -47q122 0 189 11.5t95 38.5
q25 23 41.5 67.5t32.5 128.5q1 7 4 7q4 0 2 -8q-20 -130 -22 -241q-1 -13 -6 -17.5t-14 -4.5q-4 0 -22 2q-72 9 -150 9h-295q-18 0 -54 -3zM260 759q-14 11 -14 27q0 20 19.5 34.5t48.5 14.5q25 0 39 -11t14 -28q0 -19 -19.5 -33.5t-48.5 -14.5q-25 0 -39 11z" />
    <glyph glyph-name="edotaccent" unicode="&#x117;" horiz-adv-x="479" 
d="M454.5 86q2.5 -2 0.5 -5q-38 -48 -90 -71.5t-112 -23.5q-61 0 -113 29t-83 82t-31 121q0 70 33.5 126.5t90.5 89t124 32.5q75 0 124.5 -42t49.5 -113q0 -35 -11 -68q-82 -1 -332 -8q12 -59 47.5 -105t82.5 -71t92 -25q83 0 124 52q1 2 3.5 0zM135 409.5
q-35 -39.5 -35 -119.5q0 -28 4 -49l118 4q43 3 133 5q8 16 8 40q0 35 -18 72.5t-47.5 62t-61.5 24.5q-66 0 -101 -39.5zM217.5 546.5q-14.5 11.5 -14.5 28.5q0 19 16 33t42 14q20 0 34.5 -11.5t14.5 -28.5q0 -20 -16 -33.5t-42 -13.5q-20 0 -34.5 11.5z" />
    <glyph glyph-name="Eogonek" unicode="&#x118;" horiz-adv-x="628" 
d="M484.5 -48.5q-8.5 -19.5 -8.5 -41.5q0 -23 12.5 -35.5t33.5 -12.5q56 0 56 58q0 5 3.5 5t3.5 -5q0 -43 -26 -68t-70 -25q-33 0 -52.5 16t-19.5 44q0 31 22.5 57.5t61.5 51.5q-50 4 -111 4h-295q-18 0 -54 -3q-5 0 -5.5 3.5t5.5 3.5q36 2 54 21.5t18 68.5v512
q0 49 -18 68.5t-54 21.5q-6 0 -5.5 3.5t5.5 3.5q36 -3 54 -3h280q62 0 129 8q18 3 27 3q8 0 12.5 -4.5t5.5 -17.5q2 -84 23 -243q1 -5 -1.5 -5t-3.5 4q-24 101 -39 140t-36 61q-26 29 -83 38t-176 9q-24 0 -24 -33v-260q0 -10 4.5 -17.5t15.5 -7.5q77 0 98 3q18 2 29.5 10.5
t22.5 30t23 63.5q1 6 4 6t2 -6q-7 -39 -7 -93q0 -72 12 -141q1 -5 -2 -5.5t-4 5.5q-19 63 -37 88.5t-43 28.5q-31 3 -98 3q-11 0 -15.5 -8.5t-4.5 -18.5v-287q0 -47 31 -47q122 0 189 11.5t95 38.5q25 23 41.5 67.5t32.5 128.5q1 7 4 7q4 0 2 -8q-20 -130 -22 -241
q-1 -13 -5.5 -17.5t-12.5 -4.5q-5 0 -47 5q-24 -23 -32.5 -42.5z" />
    <glyph glyph-name="eogonek" unicode="&#x119;" horiz-adv-x="479" 
d="M454.5 86q2.5 -2 0.5 -5q-38 -47 -91 -72q-34 -29 -46 -51.5t-12 -47.5q0 -23 12.5 -35.5t33.5 -12.5q56 0 56 58q0 5 3.5 5t3.5 -5q0 -43 -26 -68t-70 -25q-33 0 -52.5 16t-19.5 44q0 59 89 111q-39 -12 -83 -12q-61 0 -113 29t-83 82t-31 121q0 70 33.5 126.5t90.5 89
t124 32.5q75 0 124.5 -42t49.5 -113q0 -35 -11 -68q-82 -1 -332 -8q12 -59 47.5 -105t82.5 -71t92 -25q83 0 124 52q1 2 3.5 0zM135 409.5q-35 -39.5 -35 -119.5q0 -28 4 -49l118 4q43 3 133 5q8 16 8 40q0 35 -18 72.5t-47.5 62t-61.5 24.5q-66 0 -101 -39.5z" />
    <glyph glyph-name="Ecaron" unicode="&#x11a;" horiz-adv-x="628" 
d="M41 -3q-5 0 -5.5 3.5t5.5 3.5q36 2 54 21.5t18 68.5v512q0 49 -18 68.5t-54 21.5q-6 0 -5.5 3.5t5.5 3.5q36 -3 54 -3h280q62 0 129 8q18 3 27 3q8 0 12.5 -4.5t5.5 -17.5q2 -84 23 -243q1 -5 -1.5 -5t-3.5 4q-24 101 -39 140t-36 61q-26 29 -83 38t-176 9q-24 0 -24 -33
v-260q0 -10 4.5 -17.5t15.5 -7.5q77 0 98 3q18 2 29.5 10.5t22.5 30t23 63.5q1 6 4 6t2 -6q-7 -39 -7 -93q0 -72 12 -141q1 -5 -2 -5.5t-4 5.5q-19 63 -37 88.5t-43 28.5q-31 3 -98 3q-11 0 -15.5 -8.5t-4.5 -18.5v-287q0 -47 31 -47q122 0 189 11.5t95 38.5
q25 23 41.5 67.5t32.5 128.5q1 7 4 7q4 0 2 -8q-20 -130 -22 -241q-1 -13 -6 -17.5t-14 -4.5q-4 0 -22 2q-72 9 -150 9h-295q-18 0 -54 -3zM455 864.5q1 -2.5 -3 -4.5q-41 -17 -62 -37.5t-38 -47.5q-13 -19 -22.5 -27t-26.5 -8q-18 0 -27.5 8t-23.5 28q-18 26 -38.5 46
t-59.5 38q-4 2 -3 4.5t5 2.5q25 -1 73 -27t74 -54q26 28 74 54t73 27q4 0 5 -2.5z" />
    <glyph glyph-name="ecaron" unicode="&#x11b;" horiz-adv-x="479" 
d="M454.5 86q2.5 -2 0.5 -5q-38 -48 -90 -71.5t-112 -23.5q-61 0 -113 29t-83 82t-31 121q0 70 33.5 126.5t90.5 89t124 32.5q75 0 124.5 -42t49.5 -113q0 -35 -11 -68q-82 -1 -332 -8q12 -59 47.5 -105t82.5 -71t92 -25q83 0 124 52q1 2 3.5 0zM135 409.5
q-35 -39.5 -35 -119.5q0 -28 4 -49l118 4q43 3 133 5q8 16 8 40q0 35 -18 72.5t-47.5 62t-61.5 24.5q-66 0 -101 -39.5zM407 658.5q1 -3.5 -3 -5.5q-41 -20 -62 -44.5t-38 -56.5q-13 -23 -22.5 -33t-26.5 -10q-18 0 -27.5 9.5t-23.5 33.5q-17 31 -37.5 55.5t-60.5 45.5
q-4 2 -3 5.5t5 3.5q25 -2 72.5 -33t74.5 -64q26 34 74 65t73 32q4 0 5 -3.5z" />
    <glyph glyph-name="Gcircumflex" unicode="&#x11c;" horiz-adv-x="703" 
d="M209 28.5q-77 43.5 -122.5 123.5t-45.5 184q0 108 52 194t138 134t184 48q67 0 122.5 -18.5t87 -48t31.5 -58.5q0 -8 -1 -12l-69 -211q-2 -5 -6 -4.5t-1 6.5q18 44 18 93q0 61 -30 116q-28 54 -77 82t-109 28q-253 0 -253 -245q0 -120 49 -218t121 -153t137 -55
q73 0 119.5 19t56.5 71q1 28 -18 154q-12 27 -49 41.5t-122 22.5q-5 1 -4.5 4.5t5.5 2.5q62 -4 99 -4q69 0 139 7l11 1q6 0 8.5 -2t2.5 -7q0 -4 -3.5 -14.5t-4.5 -28.5q-3 -67 -3 -148q0 -8 -2 -12.5t-8 -12.5q-55 -63 -125.5 -93t-160.5 -30t-167 43.5zM542 740
q-1 -3 -5 -3q-27 1 -78 28t-79 57q-27 -29 -78.5 -56.5t-79.5 -28.5q-5 0 -6 2.5t4 4.5q43 18 65.5 39t42.5 50q13 20 23 28.5t28 8.5q19 0 29.5 -8.5t24.5 -28.5q19 -28 41.5 -49t64.5 -39q4 -2 3 -5z" />
    <glyph glyph-name="gcircumflex" unicode="&#x11d;" horiz-adv-x="481" 
d="M446 -17q30 -31 30 -74q0 -37 -20 -65t-52 -42.5t-66 -14.5q-87 0 -143 74q-41 -17 -82 -17q-48 0 -76 27t-28 68q0 82 103 133q-47 24 -75 68.5t-28 103.5q0 61 30.5 111.5t83.5 80t117 29.5q34 0 90 -4q7 0 40 -2.5t74 -1.5q4 0 4 -3q0 -2 -3 -4t-8 -2l-39 1
q-70 0 -50 -13q45 -26 72.5 -70.5t27.5 -101.5q0 -58 -31 -107.5t-84.5 -78.5t-117.5 -29q-50 0 -95 20q-35 -17 -53 -34.5t-18 -47.5q0 -24 16 -39.5t41 -15.5q28 0 52.5 9t61.5 28q42 22 74.5 33.5t72.5 11.5q49 0 79 -31zM112 411q-33 -34 -33 -102q0 -57 22 -113.5
t60.5 -92t85.5 -35.5q63 0 97.5 34t34.5 102q0 55 -23.5 111.5t-63.5 93t-86 36.5q-61 0 -94 -34zM414 -183q23 14 23 51q0 25 -17 41.5t-46 16.5q-37 0 -65 -10.5t-69 -31.5q-20 -12 -38 -20q23 -26 59 -43.5t83 -17.5t70 14zM390 517.5q-1 -3.5 -5 -3.5q-25 1 -72.5 32
t-73.5 65q-26 -34 -74.5 -65t-73.5 -32q-4 0 -5 3t3 5q41 21 61.5 45t39.5 57q12 23 21.5 33t26.5 10q18 0 28 -10.5t23 -33.5q19 -32 39 -55.5t59 -44.5q4 -2 3 -5.5z" />
    <glyph glyph-name="Gbreve" unicode="&#x11e;" horiz-adv-x="703" 
d="M209 28.5q-77 43.5 -122.5 123.5t-45.5 184q0 108 52 194t138 134t184 48q67 0 122.5 -18.5t87 -48t31.5 -58.5q0 -8 -1 -12l-69 -211q-2 -5 -6 -4.5t-1 6.5q18 44 18 93q0 61 -30 116q-28 54 -77 82t-109 28q-253 0 -253 -245q0 -120 49 -218t121 -153t137 -55
q73 0 119.5 19t56.5 71q1 28 -18 154q-12 27 -49 41.5t-122 22.5q-5 1 -4.5 4.5t5.5 2.5q62 -4 99 -4q69 0 139 7l11 1q6 0 8.5 -2t2.5 -7q0 -4 -3.5 -14.5t-4.5 -28.5q-3 -67 -3 -148q0 -8 -2 -12.5t-8 -12.5q-55 -63 -125.5 -93t-160.5 -30t-167 43.5zM308.5 871.5
q7.5 -2.5 7.5 -8.5q0 -22 9 -45.5t28.5 -40.5t49.5 -17q48 0 67 33.5t19 69.5q0 6 4 6q5 0 5 -5q0 -48 -28.5 -87.5t-94.5 -39.5q-43 0 -71 21t-40 50.5t-12 55.5q0 5 6 7.5t22 2.5q21 0 28.5 -2.5z" />
    <glyph glyph-name="gbreve" unicode="&#x11f;" horiz-adv-x="481" 
d="M446 -17q30 -31 30 -74q0 -37 -20 -65t-52 -42.5t-66 -14.5q-87 0 -143 74q-41 -17 -82 -17q-48 0 -76 27t-28 68q0 82 103 133q-47 24 -75 68.5t-28 103.5q0 61 30.5 111.5t83.5 80t117 29.5q34 0 90 -4q7 0 40 -2.5t74 -1.5q4 0 4 -3q0 -2 -3 -4t-8 -2l-39 1
q-70 0 -50 -13q45 -26 72.5 -70.5t27.5 -101.5q0 -58 -31 -107.5t-84.5 -78.5t-117.5 -29q-50 0 -95 20q-35 -17 -53 -34.5t-18 -47.5q0 -24 16 -39.5t41 -15.5q28 0 52.5 9t61.5 28q42 22 74.5 33.5t72.5 11.5q49 0 79 -31zM112 411q-33 -34 -33 -102q0 -57 22 -113.5
t60.5 -92t85.5 -35.5q63 0 97.5 34t34.5 102q0 55 -23.5 111.5t-63.5 93t-86 36.5q-61 0 -94 -34zM414 -183q23 14 23 51q0 25 -17 41.5t-46 16.5q-37 0 -65 -10.5t-69 -31.5q-20 -12 -38 -20q23 -26 59 -43.5t83 -17.5t70 14zM167.5 650.5q7.5 -2.5 7.5 -8.5q0 -22 9 -45.5
t28.5 -40.5t49.5 -17q48 0 67 33.5t19 69.5q0 6 4 6q5 0 5 -5q0 -48 -28.5 -87.5t-94.5 -39.5q-43 0 -71 21t-40 50.5t-12 55.5q0 5 6 7.5t22 2.5q21 0 28.5 -2.5z" />
    <glyph glyph-name="Gdotaccent" unicode="&#x120;" horiz-adv-x="703" 
d="M209 28.5q-77 43.5 -122.5 123.5t-45.5 184q0 108 52 194t138 134t184 48q67 0 122.5 -18.5t87 -48t31.5 -58.5q0 -8 -1 -12l-69 -211q-2 -5 -6 -4.5t-1 6.5q18 44 18 93q0 61 -30 116q-28 54 -77 82t-109 28q-253 0 -253 -245q0 -120 49 -218t121 -153t137 -55
q73 0 119.5 19t56.5 71q1 28 -18 154q-12 27 -49 41.5t-122 22.5q-5 1 -4.5 4.5t5.5 2.5q62 -4 99 -4q69 0 139 7l11 1q6 0 8.5 -2t2.5 -7q0 -4 -3.5 -14.5t-4.5 -28.5q-3 -67 -3 -148q0 -8 -2 -12.5t-8 -12.5q-55 -63 -125.5 -93t-160.5 -30t-167 43.5zM335 759
q-14 11 -14 27q0 20 19.5 34.5t48.5 14.5q25 0 39 -11t14 -28q0 -19 -19.5 -33.5t-48.5 -14.5q-25 0 -39 11z" />
    <glyph glyph-name="gdotaccent" unicode="&#x121;" horiz-adv-x="481" 
d="M446 -17q30 -31 30 -74q0 -37 -20 -65t-52 -42.5t-66 -14.5q-87 0 -143 74q-41 -17 -82 -17q-48 0 -76 27t-28 68q0 82 103 133q-47 24 -75 68.5t-28 103.5q0 61 30.5 111.5t83.5 80t117 29.5q34 0 90 -4q7 0 40 -2.5t74 -1.5q4 0 4 -3q0 -2 -3 -4t-8 -2l-39 1
q-70 0 -50 -13q45 -26 72.5 -70.5t27.5 -101.5q0 -58 -31 -107.5t-84.5 -78.5t-117.5 -29q-50 0 -95 20q-35 -17 -53 -34.5t-18 -47.5q0 -24 16 -39.5t41 -15.5q28 0 52.5 9t61.5 28q42 22 74.5 33.5t72.5 11.5q49 0 79 -31zM112 411q-33 -34 -33 -102q0 -57 22 -113.5
t60.5 -92t85.5 -35.5q63 0 97.5 34t34.5 102q0 55 -23.5 111.5t-63.5 93t-86 36.5q-61 0 -94 -34zM414 -183q23 14 23 51q0 25 -17 41.5t-46 16.5q-37 0 -65 -10.5t-69 -31.5q-20 -12 -38 -20q23 -26 59 -43.5t83 -17.5t70 14zM200.5 546.5q-14.5 11.5 -14.5 28.5
q0 19 16 33t42 14q20 0 34.5 -11.5t14.5 -28.5q0 -20 -16 -33.5t-42 -13.5q-20 0 -34.5 11.5z" />
    <glyph glyph-name="uni0122" unicode="&#x122;" horiz-adv-x="703" 
d="M209 28.5q-77 43.5 -122.5 123.5t-45.5 184q0 108 52 194t138 134t184 48q67 0 122.5 -18.5t87 -48t31.5 -58.5q0 -8 -1 -12l-69 -211q-2 -5 -6 -4.5t-1 6.5q18 44 18 93q0 61 -30 116q-28 54 -77 82t-109 28q-253 0 -253 -245q0 -120 49 -218t121 -153t137 -55
q73 0 119.5 19t56.5 71q1 28 -18 154q-12 27 -49 41.5t-122 22.5q-5 1 -4.5 4.5t5.5 2.5q62 -4 99 -4q69 0 139 7l11 1q6 0 8.5 -2t2.5 -7q0 -4 -3.5 -14.5t-4.5 -28.5q-3 -67 -3 -148q0 -8 -2 -12.5t-8 -12.5q-55 -63 -125.5 -93t-160.5 -30t-167 43.5zM332 -199.5
q-1 2.5 3 4.5q50 27 50 69q0 8 -6 10.5t-21 4.5q-17 2 -26.5 7t-9.5 19q0 12 15 23.5t37 11.5q24 0 35 -11.5t11 -28.5q0 -34 -27 -65.5t-56 -44.5q-4 -2 -5 0.5z" />
    <glyph glyph-name="uni0123" unicode="&#x123;" horiz-adv-x="481" 
d="M446 -17q30 -31 30 -74q0 -37 -20 -65t-52 -42.5t-66 -14.5q-87 0 -143 74q-41 -17 -82 -17q-48 0 -76 27t-28 68q0 82 103 133q-47 24 -75 68.5t-28 103.5q0 61 30.5 111.5t83.5 80t117 29.5q34 0 90 -4q7 0 40 -2.5t74 -1.5q4 0 4 -3q0 -2 -3 -4t-8 -2l-39 1
q-70 0 -50 -13q45 -26 72.5 -70.5t27.5 -101.5q0 -58 -31 -107.5t-84.5 -78.5t-117.5 -29q-50 0 -95 20q-35 -17 -53 -34.5t-18 -47.5q0 -24 16 -39.5t41 -15.5q28 0 52.5 9t61.5 28q42 22 74.5 33.5t72.5 11.5q49 0 79 -31zM112 411q-33 -34 -33 -102q0 -57 22 -113.5
t60.5 -92t85.5 -35.5q63 0 97.5 34t34.5 102q0 55 -23.5 111.5t-63.5 93t-86 36.5q-61 0 -94 -34zM414 -183q23 14 23 51q0 25 -17 41.5t-46 16.5q-37 0 -65 -10.5t-69 -31.5q-20 -12 -38 -20q23 -26 59 -43.5t83 -17.5t70 14zM289.5 720q0.5 -2 -3.5 -5q-62 -34 -62 -87
q0 -9 8 -12.5t26 -6.5q21 -2 33 -8.5t12 -23.5q0 -15 -19 -29t-46 -14q-31 0 -44.5 14.5t-13.5 35.5q0 41 34 80.5t70 55.5q5 2 5.5 0z" />
    <glyph glyph-name="Hcircumflex" unicode="&#x124;" horiz-adv-x="787" 
d="M751.5 0.5q-0.5 -3.5 -5.5 -3.5q-36 3 -55 3h-131q-16 0 -55 -3q-5 0 -5.5 3.5t5.5 3.5q36 2 54 21.5t18 68.5v281q0 16 -9 16l-8 -2q-82 -35 -167.5 -55t-166.5 -24q-10 -1 -13.5 -7.5t-3.5 -17.5v-191q0 -49 18 -68.5t54 -21.5q6 0 5.5 -3.5t-5.5 -3.5q-36 3 -54 3
h-132q-18 0 -54 -3q-5 0 -5.5 3.5t5.5 3.5q36 2 54 21.5t18 68.5v512q0 49 -18 68.5t-54 21.5q-6 0 -5.5 3.5t5.5 3.5q36 -3 54 -3h132q18 0 54 3q5 0 5.5 -3.5t-5.5 -3.5q-36 -2 -54 -21.5t-18 -68.5v-277q3 -13 16 -12q80 4 166.5 24.5t167.5 54.5q11 5 14.5 11t3.5 16
v183q0 49 -18 68.5t-54 21.5q-6 0 -5.5 3.5t5.5 3.5q39 -3 55 -3h131q19 0 55 3q5 0 5.5 -3.5t-5.5 -3.5q-36 -2 -54 -21.5t-18 -68.5v-512q0 -49 18 -68.5t54 -21.5q6 0 5.5 -3.5zM556 740q-1 -3 -5 -3q-27 1 -78 28t-79 57q-27 -29 -78.5 -56.5t-79.5 -28.5q-5 0 -6 2.5
t4 4.5q43 18 65.5 39t42.5 50q13 20 23 28.5t28 8.5q19 0 29.5 -8.5t24.5 -28.5q19 -28 41.5 -49t64.5 -39q4 -2 3 -5z" />
    <glyph glyph-name="hcircumflex" unicode="&#x125;" horiz-adv-x="638" 
d="M644.5 160.5q3.5 0.5 3.5 -5.5q0 -54 -15 -92t-38.5 -57t-49.5 -19q-57 0 -80 98l-64 260q-10 44 -28.5 63.5t-62.5 19.5q-36 0 -65 -22t-46 -64t-17 -98v-167q0 -39 14.5 -55t45.5 -17q4 0 4 -3.5t-4 -3.5q-22 1 -105 1q-82 0 -105 -1q-5 0 -4.5 3.5t5.5 3.5q22 0 34 5
t18.5 20.5t6.5 47.5l-2 498q0 39 -8 54t-24 15q-3 0 -13 -2h-1q-6 0 -6 6q47 12 83.5 28t64.5 42h1q2 0 4.5 -1.5t1.5 -5.5q-7 -33 -9 -74t-2 -117v-195q15 58 63.5 99t107.5 41q64 0 94.5 -28t45.5 -87l62 -251q13 -58 40 -58q10 0 20.5 12t18 37.5t7.5 63.5q0 5 3.5 5.5z
M357 740q-1 -3 -5 -3q-27 1 -78 28t-79 57q-27 -29 -78.5 -56.5t-79.5 -28.5q-5 0 -6 2.5t4 4.5q43 18 65.5 39t42.5 50q13 20 23 28.5t28 8.5q19 0 29.5 -8.5t24.5 -28.5q19 -28 41.5 -49t64.5 -39q4 -2 3 -5z" />
    <glyph glyph-name="Hbar" unicode="&#x126;" horiz-adv-x="787" 
d="M751.5 0.5q-0.5 -3.5 -5.5 -3.5q-36 3 -55 3h-131q-16 0 -55 -3q-5 0 -5.5 3.5t5.5 3.5q36 2 54 21.5t18 68.5v281q0 16 -9 16l-8 -2q-82 -35 -167.5 -55t-166.5 -24q-10 -1 -13.5 -7.5t-3.5 -17.5v-191q0 -49 18 -68.5t54 -21.5q6 0 5.5 -3.5t-5.5 -3.5q-36 3 -54 3
h-132q-18 0 -54 -3q-5 0 -5.5 3.5t5.5 3.5q36 2 54 21.5t18 68.5v416h-49q-5 0 -5 3.5t5 3.5h49v89q0 49 -18 68.5t-54 21.5q-6 0 -5.5 3.5t5.5 3.5q36 -3 54 -3h132q18 0 54 3q5 0 5.5 -3.5t-5.5 -3.5q-36 -2 -54 -21.5t-18 -68.5v-89h368v89q0 49 -18 68.5t-54 21.5
q-6 0 -5.5 3.5t5.5 3.5q39 -3 55 -3h131q19 0 55 3q5 0 5.5 -3.5t-5.5 -3.5q-36 -2 -54 -21.5t-18 -68.5v-89h47q5 0 5 -3.5t-5 -3.5h-47v-416q0 -49 18 -68.5t54 -21.5q6 0 5.5 -3.5zM573.5 407q3.5 6 3.5 16v87h-368v-181q3 -13 16 -12q80 4 166.5 24.5t167.5 54.5
q11 5 14.5 11z" />
    <glyph glyph-name="hbar" unicode="&#x127;" horiz-adv-x="638" 
d="M644.5 160.5q3.5 0.5 3.5 -5.5q0 -54 -15 -92t-38.5 -57t-49.5 -19q-57 0 -80 98l-64 260q-10 44 -28.5 63.5t-62.5 19.5q-36 0 -65 -22t-46 -64t-17 -98v-167q0 -39 14.5 -55t45.5 -17q4 0 4 -3.5t-4 -3.5q-22 1 -105 1q-82 0 -105 -1q-5 0 -4.5 3.5t5.5 3.5q22 0 34 5
t18.5 20.5t6.5 47.5l-2 459h-82q-10 0 -10 5q0 4 10 4h82v30q0 39 -8 54t-24 15q-3 0 -13 -2h-1q-6 0 -6 6q47 12 83.5 28t64.5 42h1q2 0 4.5 -1.5t1.5 -5.5q-6 -32 -8.5 -69t-2.5 -97h96q10 0 10 -4q0 -5 -10 -5h-96v-16v-195q15 58 63.5 99t107.5 41q64 0 94.5 -28
t45.5 -87l62 -251q13 -58 40 -58q10 0 20.5 12t18 37.5t7.5 63.5q0 5 3.5 5.5z" />
    <glyph glyph-name="Itilde" unicode="&#x128;" horiz-adv-x="322" 
d="M95 674.5q-18 19.5 -54 21.5q-6 0 -5.5 3.5t5.5 3.5q36 -3 54 -3h132q18 0 54 3q5 0 5.5 -3.5t-5.5 -3.5q-36 -2 -54 -21.5t-18 -68.5v-512q0 -49 18 -68.5t54 -21.5q6 0 5.5 -3.5t-5.5 -3.5q-36 3 -54 3h-132q-18 0 -54 -3q-5 0 -5.5 3.5t5.5 3.5q36 2 54 21.5t18 68.5
v512q0 49 -18 68.5zM3.5 744q-3.5 1 -2.5 6q29 87 98 87q27 0 63 -14l40 -16q30 -12 52 -12q42 0 62 43q2 4 5.5 3t2.5 -7q-16 -45 -39.5 -66.5t-57.5 -21.5q-26 0 -62 14l-43 17q-41 17 -65 17q-19 0 -29.5 -11t-19.5 -35q-1 -5 -4.5 -4z" />
    <glyph glyph-name="itilde" unicode="&#x129;" horiz-adv-x="275" 
d="M198.5 29.5q15.5 -23.5 44.5 -24.5q5 0 5 -3.5t-5 -3.5q-18 1 -104 1t-105 -1q-5 0 -5 3.5t5 3.5q59 0 59 84v253q0 32 -9.5 47t-33.5 15q-4 0 -18 -2q-4 -1 -4.5 1.5t2.5 3.5q105 26 152 58q4 3 7.5 2t3.5 -5q-6 -45 -8 -72t-2 -65v-236q0 -36 15.5 -59.5zM-30.5 547
q-3.5 1 -2.5 6q29 87 98 87q27 0 63 -14l40 -16q30 -12 52 -12q42 0 62 43q2 4 5.5 3t2.5 -7q-16 -45 -39.5 -66.5t-57.5 -21.5q-26 0 -62 14l-43 17q-41 17 -65 17q-19 0 -29.5 -11t-19.5 -35q-1 -5 -4.5 -4z" />
    <glyph glyph-name="Imacron" unicode="&#x12a;" horiz-adv-x="322" 
d="M95 674.5q-18 19.5 -54 21.5q-6 0 -5.5 3.5t5.5 3.5q36 -3 54 -3h132q18 0 54 3q5 0 5.5 -3.5t-5.5 -3.5q-36 -2 -54 -21.5t-18 -68.5v-512q0 -49 18 -68.5t54 -21.5q6 0 5.5 -3.5t-5.5 -3.5q-36 3 -54 3h-132q-18 0 -54 -3q-5 0 -5.5 3.5t5.5 3.5q36 2 54 21.5t18 68.5
v512q0 49 -18 68.5zM36 765q-8 0 -8 5q0 4 8 4h253q9 0 9 -4q0 -5 -9 -5h-253z" />
    <glyph glyph-name="imacron" unicode="&#x12b;" horiz-adv-x="275" 
d="M198.5 29.5q15.5 -23.5 44.5 -24.5q5 0 5 -3.5t-5 -3.5q-18 1 -104 1t-105 -1q-5 0 -5 3.5t5 3.5q59 0 59 84v253q0 32 -9.5 47t-33.5 15q-4 0 -18 -2q-4 -1 -4.5 1.5t2.5 3.5q105 26 152 58q4 3 7.5 2t3.5 -5q-6 -45 -8 -72t-2 -65v-236q0 -36 15.5 -59.5zM2 590
q-8 0 -8 5q0 4 8 4h253q9 0 9 -4q0 -5 -9 -5h-253z" />
    <glyph glyph-name="Ibreve" unicode="&#x12c;" horiz-adv-x="322" 
d="M95 674.5q-18 19.5 -54 21.5q-6 0 -5.5 3.5t5.5 3.5q36 -3 54 -3h132q18 0 54 3q5 0 5.5 -3.5t-5.5 -3.5q-36 -2 -54 -21.5t-18 -68.5v-512q0 -49 18 -68.5t54 -21.5q6 0 5.5 -3.5t-5.5 -3.5q-36 3 -54 3h-132q-18 0 -54 -3q-5 0 -5.5 3.5t5.5 3.5q36 2 54 21.5t18 68.5
v512q0 49 -18 68.5zM92.5 871.5q7.5 -2.5 7.5 -8.5q0 -22 9 -45.5t28.5 -40.5t49.5 -17q48 0 67 33.5t19 69.5q0 6 4 6q5 0 5 -5q0 -48 -28.5 -87.5t-94.5 -39.5q-43 0 -71 21t-40 50.5t-12 55.5q0 5 6 7.5t22 2.5q21 0 28.5 -2.5z" />
    <glyph glyph-name="ibreve" unicode="&#x12d;" horiz-adv-x="275" 
d="M198.5 29.5q15.5 -23.5 44.5 -24.5q5 0 5 -3.5t-5 -3.5q-18 1 -104 1t-105 -1q-5 0 -5 3.5t5 3.5q59 0 59 84v253q0 32 -9.5 47t-33.5 15q-4 0 -18 -2q-4 -1 -4.5 1.5t2.5 3.5q105 26 152 58q4 3 7.5 2t3.5 -5q-6 -45 -8 -72t-2 -65v-236q0 -36 15.5 -59.5zM57.5 650.5
q7.5 -2.5 7.5 -8.5q0 -22 9 -45.5t28.5 -40.5t49.5 -17q48 0 67 33.5t19 69.5q0 6 4 6q5 0 5 -5q0 -48 -28.5 -87.5t-94.5 -39.5q-43 0 -71 21t-40 50.5t-12 55.5q0 5 6 7.5t22 2.5q21 0 28.5 -2.5z" />
    <glyph glyph-name="Iogonek" unicode="&#x12e;" horiz-adv-x="322" 
d="M286.5 0.5q-0.5 -3.5 -5.5 -3.5q-36 3 -54 3h-45q-35 -30 -47 -52.5t-12 -47.5q0 -23 12.5 -35.5t33.5 -12.5q56 0 56 58q0 5 3.5 5t3.5 -5q0 -43 -26 -68t-70 -25q-33 0 -52.5 16t-19.5 44q0 36 29.5 65.5t79.5 57.5h-78q-18 0 -54 -3q-5 0 -5.5 3.5t5.5 3.5
q36 2 54 21.5t18 68.5v512q0 49 -18 68.5t-54 21.5q-6 0 -5.5 3.5t5.5 3.5q36 -3 54 -3h132q18 0 54 3q5 0 5.5 -3.5t-5.5 -3.5q-36 -2 -54 -21.5t-18 -68.5v-512q0 -49 18 -68.5t54 -21.5q6 0 5.5 -3.5z" />
    <glyph glyph-name="iogonek" unicode="&#x12f;" horiz-adv-x="275" 
d="M83 594.5q-15 11.5 -15 28.5q0 22 20 37.5t52 15.5q26 0 41.5 -11.5t15.5 -29.5q0 -21 -20.5 -36.5t-52.5 -15.5q-26 0 -41 11.5zM275.5 -85q3.5 0 3.5 -5q0 -43 -26 -68t-70 -25q-33 0 -52.5 16t-19.5 44q0 36 29 65t78 57l-82 1q-66 0 -102 -2q-5 0 -5 3.5t5 3.5
q59 0 59 84v253q0 32 -9.5 47t-33.5 15q-4 0 -18 -2q-4 -1 -4.5 1.5t2.5 3.5q105 26 152 58q4 3 7.5 2t3.5 -5q-6 -45 -8 -72t-2 -65v-236q0 -36 15.5 -59.5t44.5 -24.5q5 0 5 -3.5t-5 -3.5q-9 0 -16 1q-33 -30 -45 -52t-12 -47q0 -23 12.5 -35.5t33.5 -12.5q56 0 56 58
q0 5 3.5 5z" />
    <glyph glyph-name="Idotaccent" unicode="&#x130;" horiz-adv-x="322" 
d="M95 674.5q-18 19.5 -54 21.5q-6 0 -5.5 3.5t5.5 3.5q36 -3 54 -3h132q18 0 54 3q5 0 5.5 -3.5t-5.5 -3.5q-36 -2 -54 -21.5t-18 -68.5v-512q0 -49 18 -68.5t54 -21.5q6 0 5.5 -3.5t-5.5 -3.5q-36 3 -54 3h-132q-18 0 -54 -3q-5 0 -5.5 3.5t5.5 3.5q36 2 54 21.5t18 68.5
v512q0 49 -18 68.5zM119 759q-14 11 -14 27q0 20 19.5 34.5t48.5 14.5q25 0 39 -11t14 -28q0 -19 -19.5 -33.5t-48.5 -14.5q-25 0 -39 11z" />
    <glyph glyph-name="dotlessi" unicode="&#x131;" horiz-adv-x="275" 
d="M198.5 29.5q15.5 -23.5 44.5 -24.5q5 0 5 -3.5t-5 -3.5q-18 1 -104 1t-105 -1q-5 0 -5 3.5t5 3.5q59 0 59 84v253q0 32 -9.5 47t-33.5 15q-4 0 -18 -2q-4 -1 -4.5 1.5t2.5 3.5q105 26 152 58q4 3 7.5 2t3.5 -5q-6 -45 -8 -72t-2 -65v-236q0 -36 15.5 -59.5z" />
    <glyph glyph-name="IJ" unicode="&#x132;" horiz-adv-x="871" 
d="M95 674.5q-18 19.5 -54 21.5q-6 0 -5.5 3.5t5.5 3.5q36 -3 54 -3h132q18 0 54 3q5 0 5.5 -3.5t-5.5 -3.5q-36 -2 -54 -21.5t-18 -68.5v-512q0 -49 18 -68.5t54 -21.5q6 0 5.5 -3.5t-5.5 -3.5q-36 3 -54 3h-132q-18 0 -54 -3q-5 0 -5.5 3.5t5.5 3.5q36 2 54 21.5t18 68.5
v512q0 49 -18 68.5zM438 6.5q-44 21.5 -67 58t-23 78.5q0 54 40 84.5t91 37.5q5 1 6 -1.5t-4 -4.5q-27 -12 -40 -32t-13 -56q0 -39 15.5 -78t47 -64.5t76.5 -25.5q69 0 95.5 39t26.5 130q0 31 -9 105q-13 108 -13 153v176q0 49 -18.5 68.5t-54.5 21.5q-6 0 -5.5 3.5t6.5 3.5
q36 -3 54 -3h132q18 0 54 3q5 0 5.5 -3.5t-5.5 -3.5q-36 -2 -54 -21.5t-18 -68.5v-356q0 -131 -59.5 -198t-161.5 -67q-60 0 -104 21.5z" />
    <glyph glyph-name="ij" unicode="&#x133;" horiz-adv-x="526" 
d="M198.5 29.5q15.5 -23.5 44.5 -24.5q5 0 5 -3.5t-5 -3.5q-18 1 -104 1t-105 -1q-5 0 -5 3.5t5 3.5q59 0 59 84v253q0 32 -9.5 47t-33.5 15q-4 0 -18 -2q-4 -1 -4.5 1.5t2.5 3.5q105 26 152 58q4 3 7.5 2t3.5 -5q-6 -45 -8 -72t-2 -65v-236q0 -36 15.5 -59.5zM83 594.5
q-15 11.5 -15 28.5q0 22 20 37.5t52 15.5q26 0 41.5 -11.5t15.5 -29.5q0 -21 -20.5 -36.5t-52.5 -15.5q-26 0 -41 11.5zM367 342q0 32 -9.5 47t-33.5 15q-4 0 -18 -2q-3 -1 -3.5 1.5t1.5 3.5q105 26 152 58q4 3 7.5 2t3.5 -5q-5 -40 -7.5 -71t-2.5 -66v-197
q0 -86 -40 -142.5t-93 -83t-93 -28.5h-1q-6 0 -6 4t7 4q56 4 96 46t40 165v249zM343 594.5q-15 11.5 -15 28.5q0 22 20 37.5t52 15.5q26 0 41.5 -11.5t15.5 -29.5q0 -21 -20.5 -36.5t-52.5 -15.5q-26 0 -41 11.5z" />
    <glyph glyph-name="Jcircumflex" unicode="&#x134;" horiz-adv-x="549" 
d="M116 6.5q-44 21.5 -67 58t-23 78.5q0 54 40 84.5t91 37.5q5 1 6 -1.5t-4 -4.5q-27 -12 -40 -32t-13 -56q0 -39 15.5 -78t47 -64.5t76.5 -25.5q69 0 95.5 39t26.5 130q0 31 -9 105q-13 108 -13 153v176q0 49 -18.5 68.5t-54.5 21.5q-6 0 -5.5 3.5t6.5 3.5q36 -3 54 -3h132
q18 0 54 3q5 0 5.5 -3.5t-5.5 -3.5q-36 -2 -54 -21.5t-18 -68.5v-356q0 -131 -59.5 -198t-161.5 -67q-60 0 -104 21.5zM432 740q-1 -3 -5 -3q-27 1 -78 28t-79 57q-27 -29 -78.5 -56.5t-79.5 -28.5q-5 0 -6 2.5t4 4.5q43 18 65.5 39t42.5 50q13 20 23 28.5t28 8.5
q19 0 29.5 -8.5t24.5 -28.5q19 -28 41.5 -49t64.5 -39q4 -2 3 -5z" />
    <glyph glyph-name="jcircumflex" unicode="&#x135;" horiz-adv-x="251" 
d="M92 342q0 32 -9.5 47t-33.5 15q-4 0 -18 -2q-3 -1 -3.5 1.5t1.5 3.5q105 26 152 58q4 3 7.5 2t3.5 -5q-5 -40 -7.5 -71t-2.5 -66v-197q0 -86 -40 -142.5t-93 -83t-93 -28.5h-1q-6 0 -6 4t7 4q56 4 96 46t40 165v249zM266 517.5q-1 -3.5 -5 -3.5q-25 1 -72.5 32t-73.5 65
q-26 -34 -74.5 -65t-73.5 -32q-4 0 -5 3t3 5q41 21 61.5 45t39.5 57q12 23 21.5 33t26.5 10q18 0 28 -10.5t23 -33.5q19 -32 39 -55.5t59 -44.5q4 -2 3 -5.5z" />
    <glyph glyph-name="uni0136" unicode="&#x136;" horiz-adv-x="670" 
d="M716 -75q-2 -3 -7 -1q-118 48 -227 175.5t-175 282.5l-98 -114v-174q0 -49 18 -68.5t54 -21.5q6 0 5.5 -3.5t-5.5 -3.5q-36 3 -54 3h-132q-18 0 -54 -3q-5 0 -5.5 3.5t5.5 3.5q36 2 54 21.5t18 68.5v512q0 49 -18 68.5t-54 21.5q-6 0 -5.5 3.5t5.5 3.5q36 -3 54 -3h132
q18 0 54 3q5 0 5.5 -3.5t-5.5 -3.5q-36 -2 -54 -21.5t-18 -68.5v-328l95 112l-3 8l12 2l186 218q20 24 20 42q0 17 -16.5 26t-40.5 10q-6 0 -5.5 3.5t5.5 3.5q36 -3 54 -3h53q24 0 69 3q8 0 8 -4q0 -1 -2.5 -2t-5.5 -1q-39 -1 -64 -17.5t-63 -59.5l-187 -217q35 6 71 19h3
q7 0 9 -4q26 -94 77 -195.5t112.5 -180.5t116.5 -111q5 -2 3 -5zM321 -223q-1 2 3 5q56 32 56 77q0 9 -7.5 12t-22.5 5q-21 3 -31 8t-10 21q0 14 17 26.5t41 12.5q28 0 40 -12.5t12 -32.5q0 -37 -30 -72t-63 -50q-4 -2 -5 0z" />
    <glyph glyph-name="uni0137" unicode="&#x137;" horiz-adv-x="560" 
d="M588 -33q0 -2 -2 -3t-6 0q-94 37 -167 109t-137 177l-94 -86v-87q0 -39 14.5 -55t45.5 -17q4 0 4 -3.5t-4 -3.5q-22 1 -105 1q-82 0 -105 -1q-5 0 -4.5 3.5t5.5 3.5q22 0 34 5t18.5 20.5t6.5 47.5l-2 498q0 39 -8 54t-24 15q-3 0 -13 -2h-1q-6 0 -6 6q47 12 83.5 28
t64.5 42h1q2 0 4.5 -1.5t1.5 -5.5q-7 -33 -9 -74t-2 -117v-350l91 85q-3 3 -7 11q7 -1 41 21l111 104q15 12 15 24q0 13 -16.5 20t-35.5 9q-5 0 -4.5 4t5.5 3q50 -2 92 -2q33 0 71 2q5 0 5 -3.5t-6 -3.5q-44 0 -112 -54l-92 -83q8 2 9 0q60 -136 112.5 -214t123.5 -123
q3 -2 3 -4zM244 -223q-1 2 3 5q56 32 56 77q0 9 -7.5 12t-22.5 5q-21 3 -31 8t-10 21q0 14 17 26.5t41 12.5q28 0 40 -12.5t12 -32.5q0 -37 -30 -72t-63 -50q-4 -2 -5 0z" />
    <glyph glyph-name="kgreenlandic" unicode="&#x138;" horiz-adv-x="560" 
d="M588 -33q0 -2 -2 -3t-6 0q-93 37 -166.5 109t-136.5 176l-94 -84v-88q0 -39 14.5 -55t45.5 -17q5 0 5 -3.5t-5 -3.5q-21 1 -104 1q-82 0 -105 -1q-5 0 -5 3.5t5 3.5q22 0 34 5t18.5 20.5t6.5 47.5v264q0 32 -9.5 47t-33.5 15q-4 0 -18 -2q-4 -1 -4.5 1.5t2.5 3.5
q105 26 152 58q4 3 7.5 2t3.5 -5q-6 -45 -8 -72t-2 -65v-153l90 84q-3 3 -7 11q7 -1 41 21l111 104q15 12 15 24q0 13 -16.5 20t-35.5 9q-5 0 -4 4t5 3q50 -2 92 -2q34 0 72 2q5 0 4.5 -3.5t-5.5 -3.5q-46 0 -112 -54l-92 -83q6 2 8 0q60 -136 112.5 -214t123.5 -123
q3 -2 3 -4z" />
    <glyph glyph-name="Lacute" unicode="&#x139;" horiz-adv-x="603" 
d="M41 -3q-5 0 -5.5 3.5t5.5 3.5q36 2 54 21.5t18 68.5v512q0 49 -18 68.5t-54 21.5q-6 0 -5.5 3.5t5.5 3.5q36 -3 54 -3h134q22 0 61 3q6 0 7 -3.5t-6 -3.5q-41 -2 -61.5 -21.5t-20.5 -68.5v-558q0 -25 7.5 -33t24.5 -8q201 0 264 69q24 26 39.5 74.5t27.5 127.5
q1 6 4.5 5.5t2.5 -5.5q-21 -166 -21 -257q0 -19 -2 -25.5t-11 -6.5q-7 0 -59.5 5.5t-162.5 5.5h-228q-18 0 -54 -3zM208 744q-1 3 3 5q49 28 73.5 49.5t45.5 46.5q12 15 20 21q4 2 16 2q18 0 35 -4t16 -11q0 -13 -44 -39.5t-95.5 -50t-63.5 -23.5q-5 1 -6 4z" />
    <glyph glyph-name="lacute" unicode="&#x13a;" horiz-adv-x="274" 
d="M82 629.5q-8 14.5 -25 14.5q-8 0 -12 -1h-1q-6 0 -6 6q96 23 148 69q9 2 7 -6q-7 -33 -9 -74.5t-2 -116.5v-432q0 -36 15.5 -59.5t44.5 -24.5q4 0 4 -3.5t-4 -3.5q-18 1 -105 1q-86 0 -105 -1q-5 0 -4.5 3.5t5.5 3.5q59 0 59 84l-2 487q0 39 -8 53.5zM54 744q-1 3 3 5
q49 28 73.5 49.5t45.5 46.5q12 15 20 21q4 2 16 2q18 0 35 -4t16 -11q0 -13 -44 -39.5t-95.5 -50t-63.5 -23.5q-5 1 -6 4z" />
    <glyph glyph-name="uni013B" unicode="&#x13b;" horiz-adv-x="603" 
d="M41 -3q-5 0 -5.5 3.5t5.5 3.5q36 2 54 21.5t18 68.5v512q0 49 -18 68.5t-54 21.5q-6 0 -5.5 3.5t5.5 3.5q36 -3 54 -3h134q22 0 61 3q6 0 7 -3.5t-6 -3.5q-41 -2 -61.5 -21.5t-20.5 -68.5v-558q0 -25 7.5 -33t24.5 -8q201 0 264 69q24 26 39.5 74.5t27.5 127.5
q1 6 4.5 5.5t2.5 -5.5q-21 -166 -21 -257q0 -19 -2 -25.5t-11 -6.5q-7 0 -59.5 5.5t-162.5 5.5h-228q-18 0 -54 -3zM244 -223q-1 2 3 5q56 32 56 77q0 9 -7.5 12t-22.5 5q-21 3 -31 8t-10 21q0 14 17 26.5t41 12.5q28 0 40 -12.5t12 -32.5q0 -37 -30 -72t-63 -50q-4 -2 -5 0
z" />
    <glyph glyph-name="uni013C" unicode="&#x13c;" horiz-adv-x="274" 
d="M82 629.5q-8 14.5 -25 14.5q-8 0 -12 -1h-1q-6 0 -6 6q96 23 148 69q9 2 7 -6q-7 -33 -9 -74.5t-2 -116.5v-432q0 -36 15.5 -59.5t44.5 -24.5q4 0 4 -3.5t-4 -3.5q-18 1 -105 1q-86 0 -105 -1q-5 0 -4.5 3.5t5.5 3.5q59 0 59 84l-2 487q0 39 -8 53.5zM90 -223q-1 2 3 5
q56 32 56 77q0 9 -7.5 12t-22.5 5q-21 3 -31 8t-10 21q0 14 17 26.5t41 12.5q28 0 40 -12.5t12 -32.5q0 -37 -30 -72t-63 -50q-4 -2 -5 0z" />
    <glyph glyph-name="Lcaron" unicode="&#x13d;" horiz-adv-x="603" 
d="M41 -3q-5 0 -5.5 3.5t5.5 3.5q36 2 54 21.5t18 68.5v512q0 49 -18 68.5t-54 21.5q-6 0 -5.5 3.5t5.5 3.5q36 -3 54 -3h134q22 0 61 3q6 0 7 -3.5t-6 -3.5q-41 -2 -61.5 -21.5t-20.5 -68.5v-558q0 -25 7.5 -33t24.5 -8q201 0 264 69q24 26 39.5 74.5t27.5 127.5
q1 6 4.5 5.5t2.5 -5.5q-21 -166 -21 -257q0 -19 -2 -25.5t-11 -6.5q-7 0 -59.5 5.5t-162.5 5.5h-228q-18 0 -54 -3zM547.5 503q-3.5 0 -3.5 4q-2 44 -8 72.5t-14 53.5q-1 4 -4.5 15.5t-3.5 21.5q-1 18 5.5 24t27.5 6q22 0 28.5 -6.5t6.5 -23.5q0 -10 -3.5 -21.5t-4.5 -15.5
q-9 -25 -15 -53t-7 -73q-1 -4 -4.5 -4z" />
    <glyph glyph-name="lcaron" unicode="&#x13e;" horiz-adv-x="274" 
d="M82 629.5q-8 14.5 -25 14.5q-8 0 -12 -1h-1q-6 0 -6 6q96 23 148 69q9 2 7 -6q-7 -33 -9 -74.5t-2 -116.5v-432q0 -36 15.5 -59.5t44.5 -24.5q4 0 4 -3.5t-4 -3.5q-18 1 -105 1q-86 0 -105 -1q-5 0 -4.5 3.5t5.5 3.5q59 0 59 84l-2 487q0 39 -8 53.5zM287.5 509
q-3.5 0 -3.5 4q-2 44 -8 72.5t-14 53.5q-1 4 -4.5 15.5t-3.5 21.5q-1 18 5.5 24t27.5 6q22 0 28.5 -6.5t6.5 -23.5q0 -10 -3.5 -21.5t-4.5 -15.5q-9 -25 -15 -53t-7 -73q-1 -4 -4.5 -4z" />
    <glyph glyph-name="Ldot" unicode="&#x13f;" horiz-adv-x="577" 
d="M41 -3q-5 0 -5.5 3.5t5.5 3.5q36 2 54 21.5t18 68.5v512q0 49 -18 68.5t-54 21.5q-6 0 -5.5 3.5t5.5 3.5q36 -3 54 -3h134q22 0 61 3q6 0 7 -3.5t-6 -3.5q-41 -2 -61.5 -21.5t-20.5 -68.5v-558q0 -25 7.5 -33t24.5 -8q201 0 264 69q24 26 39.5 74.5t27.5 127.5
q1 6 4.5 5.5t2.5 -5.5q-21 -166 -21 -257q0 -19 -2 -25.5t-11 -6.5q-7 0 -59.5 5.5t-162.5 5.5h-228q-18 0 -54 -3zM421 365q-14 10 -14 25q0 20 22 34.5t57 14.5q24 0 38 -10t14 -25q0 -20 -23 -34.5t-56 -14.5q-24 0 -38 10z" />
    <glyph glyph-name="ldot" unicode="&#x140;" horiz-adv-x="259" 
d="M82 629.5q-8 14.5 -25 14.5q-8 0 -12 -1h-1q-6 0 -6 6q96 23 148 69q9 2 7 -6q-7 -33 -9 -74.5t-2 -116.5v-432q0 -36 15.5 -59.5t44.5 -24.5q4 0 4 -3.5t-4 -3.5q-18 1 -105 1q-86 0 -105 -1q-5 0 -4.5 3.5t5.5 3.5q59 0 59 84l-2 487q0 39 -8 53.5zM223 261.5
q-11 8.5 -11 21.5q0 16 17.5 28.5t45.5 12.5q21 0 33.5 -10t10.5 -24q-3 -16 -21.5 -26.5t-44.5 -10.5q-19 0 -30 8.5z" />
    <glyph glyph-name="Lslash" unicode="&#x141;" horiz-adv-x="603" 
d="M576.5 283.5q3.5 -0.5 2.5 -5.5q-21 -166 -21 -257q0 -19 -2 -25.5t-11 -6.5q-7 0 -59.5 5.5t-162.5 5.5h-228q-18 0 -54 -3q-5 0 -5.5 3.5t5.5 3.5q36 2 54 21.5t18 68.5v222l-84 -52l-5 -2q-5 0 -5 3.5t4 5.5l90 55v280q0 49 -18 68.5t-54 21.5q-6 0 -5.5 3.5t5.5 3.5
q36 -3 54 -3h134q22 0 61 3q6 0 7 -3.5t-6 -3.5q-41 -2 -61.5 -21.5t-20.5 -68.5v-220l80 49q4 2 6 2q4 0 4.5 -3t-4.5 -6l-86 -53v-327q0 -25 7.5 -33t24.5 -8q201 0 264 69q24 26 39.5 74.5t27.5 127.5q1 6 4.5 5.5z" />
    <glyph glyph-name="lslash" unicode="&#x142;" horiz-adv-x="274" 
d="M258 407q4 2 6 -1.5t-2 -5.5l-80 -46v-265q0 -36 15.5 -59.5t44.5 -24.5q4 0 4 -3.5t-4 -3.5q-18 1 -105 1q-86 0 -105 -1q-5 0 -4.5 3.5t5.5 3.5q59 0 59 84l-1 212l-77 -44q-4 -2 -5 1.5t2 5.5l80 46l-1 266q0 39 -8 53.5t-25 14.5q-8 0 -12 -1h-1q-6 0 -6 6
q96 23 148 69q9 2 7 -6q-7 -33 -9 -74.5t-2 -116.5v-158z" />
    <glyph glyph-name="Nacute" unicode="&#x143;" horiz-adv-x="749" 
d="M730.5 699.5q0.5 -3.5 -5.5 -3.5q-36 -2 -54 -21.5t-18 -68.5v-607q0 -7 -5 -7q-6 0 -10 7l-498 638q-4 4 -6 4q-4 0 -4 -6v-541q0 -49 18 -68.5t54 -21.5q6 0 5.5 -3.5t-5.5 -3.5l-54 3h-44l-55 -3q-5 0 -5.5 3.5t5.5 3.5q36 2 54 21.5t18 68.5l1 565q-18 19 -34 27.5
t-38 9.5q-6 1 -5.5 4t5.5 3l55 -3h89q19 0 26 -12l412 -539q4 -7 9 -7q4 0 4 8l-1 456q0 49 -18 68.5t-54 21.5q-6 0 -5.5 3.5t5.5 3.5q36 -3 55 -3h44q18 0 54 3q5 0 5.5 -3.5zM308 744q-1 3 3 5q49 28 73.5 49.5t45.5 46.5q12 15 20 21q4 2 16 2q18 0 35 -4t16 -11
q0 -13 -44 -39.5t-95.5 -50t-63.5 -23.5q-5 1 -6 4z" />
    <glyph glyph-name="nacute" unicode="&#x144;" horiz-adv-x="639" 
d="M645 160.5q4 0.5 4 -5.5q0 -54 -15 -92t-39 -57t-50 -19q-57 0 -80 98l-63 260q-11 44 -29.5 63.5t-62.5 19.5q-50 0 -85.5 -42.5t-41.5 -115.5v-193q0 -39 14.5 -55t45.5 -17q5 0 5 -3.5t-5 -3.5q-21 1 -104 1q-82 0 -105 -1q-5 0 -5 3.5t5 3.5q22 0 34 5t18.5 20.5
t6.5 47.5v264q0 32 -9.5 47t-33.5 15q-4 0 -18 -2q-4 -1 -4.5 1.5t2.5 3.5q105 26 152 58q4 3 7.5 2t3.5 -5q-6 -44 -8 -70t-2 -62q16 56 64.5 96t105.5 40q65 0 95.5 -28t44.5 -87l62 -251q7 -29 16.5 -43.5t23.5 -14.5q10 0 21 12t18 37.5t7 63.5q0 5 4 5.5zM261 511
q-1 3 3 6q41 32 59.5 60t31.5 59q7 18 12 24.5t15 7.5q20 2 31 2q33 0 33 -8q0 -14 -38.5 -50t-83.5 -69.5t-57 -34.5q-5 0 -6 3z" />
    <glyph glyph-name="uni0145" unicode="&#x145;" horiz-adv-x="749" 
d="M730.5 699.5q0.5 -3.5 -5.5 -3.5q-36 -2 -54 -21.5t-18 -68.5v-607q0 -7 -5 -7q-6 0 -10 7l-498 638q-4 4 -6 4q-4 0 -4 -6v-541q0 -49 18 -68.5t54 -21.5q6 0 5.5 -3.5t-5.5 -3.5l-54 3h-44l-55 -3q-5 0 -5.5 3.5t5.5 3.5q36 2 54 21.5t18 68.5l1 565q-18 19 -34 27.5
t-38 9.5q-6 1 -5.5 4t5.5 3l55 -3h89q19 0 26 -12l412 -539q4 -7 9 -7q4 0 4 8l-1 456q0 49 -18 68.5t-54 21.5q-6 0 -5.5 3.5t5.5 3.5q36 -3 55 -3h44q18 0 54 3q5 0 5.5 -3.5zM329 -223q-1 2 3 5q56 32 56 77q0 9 -7.5 12t-22.5 5q-21 3 -31 8t-10 21q0 14 17 26.5
t41 12.5q28 0 40 -12.5t12 -32.5q0 -37 -30 -72t-63 -50q-4 -2 -5 0z" />
    <glyph glyph-name="uni0146" unicode="&#x146;" horiz-adv-x="639" 
d="M645 160.5q4 0.5 4 -5.5q0 -54 -15 -92t-39 -57t-50 -19q-57 0 -80 98l-63 260q-11 44 -29.5 63.5t-62.5 19.5q-50 0 -85.5 -42.5t-41.5 -115.5v-193q0 -39 14.5 -55t45.5 -17q5 0 5 -3.5t-5 -3.5q-21 1 -104 1q-82 0 -105 -1q-5 0 -5 3.5t5 3.5q22 0 34 5t18.5 20.5
t6.5 47.5v264q0 32 -9.5 47t-33.5 15q-4 0 -18 -2q-4 -1 -4.5 1.5t2.5 3.5q105 26 152 58q4 3 7.5 2t3.5 -5q-6 -44 -8 -70t-2 -62q16 56 64.5 96t105.5 40q65 0 95.5 -28t44.5 -87l62 -251q7 -29 16.5 -43.5t23.5 -14.5q10 0 21 12t18 37.5t7 63.5q0 5 4 5.5zM273 -223
q-1 2 3 5q56 32 56 77q0 9 -7.5 12t-22.5 5q-21 3 -31 8t-10 21q0 14 17 26.5t41 12.5q28 0 40 -12.5t12 -32.5q0 -37 -30 -72t-63 -50q-4 -2 -5 0z" />
    <glyph glyph-name="Ncaron" unicode="&#x147;" horiz-adv-x="749" 
d="M730.5 699.5q0.5 -3.5 -5.5 -3.5q-36 -2 -54 -21.5t-18 -68.5v-607q0 -7 -5 -7q-6 0 -10 7l-498 638q-4 4 -6 4q-4 0 -4 -6v-541q0 -49 18 -68.5t54 -21.5q6 0 5.5 -3.5t-5.5 -3.5l-54 3h-44l-55 -3q-5 0 -5.5 3.5t5.5 3.5q36 2 54 21.5t18 68.5l1 565q-18 19 -34 27.5
t-38 9.5q-6 1 -5.5 4t5.5 3l55 -3h89q19 0 26 -12l412 -539q4 -7 9 -7q4 0 4 8l-1 456q0 49 -18 68.5t-54 21.5q-6 0 -5.5 3.5t5.5 3.5q36 -3 55 -3h44q18 0 54 3q5 0 5.5 -3.5zM547 864.5q1 -2.5 -3 -4.5q-41 -17 -62 -37.5t-38 -47.5q-13 -19 -22.5 -27t-26.5 -8
q-18 0 -27.5 8t-23.5 28q-18 26 -38.5 46t-59.5 38q-4 2 -3 4.5t5 2.5q25 -1 73 -27t74 -54q26 28 74 54t73 27q4 0 5 -2.5z" />
    <glyph glyph-name="ncaron" unicode="&#x148;" horiz-adv-x="639" 
d="M645 160.5q4 0.5 4 -5.5q0 -54 -15 -92t-39 -57t-50 -19q-57 0 -80 98l-63 260q-11 44 -29.5 63.5t-62.5 19.5q-50 0 -85.5 -42.5t-41.5 -115.5v-193q0 -39 14.5 -55t45.5 -17q5 0 5 -3.5t-5 -3.5q-21 1 -104 1q-82 0 -105 -1q-5 0 -5 3.5t5 3.5q22 0 34 5t18.5 20.5
t6.5 47.5v264q0 32 -9.5 47t-33.5 15q-4 0 -18 -2q-4 -1 -4.5 1.5t2.5 3.5q105 26 152 58q4 3 7.5 2t3.5 -5q-6 -44 -8 -70t-2 -62q16 56 64.5 96t105.5 40q65 0 95.5 -28t44.5 -87l62 -251q7 -29 16.5 -43.5t23.5 -14.5q10 0 21 12t18 37.5t7 63.5q0 5 4 5.5zM450 658.5
q1 -3.5 -3 -5.5q-41 -20 -62 -44.5t-38 -56.5q-13 -23 -22.5 -33t-26.5 -10q-18 0 -27.5 9.5t-23.5 33.5q-17 31 -37.5 55.5t-60.5 45.5q-4 2 -3 5.5t5 3.5q25 -2 72.5 -33t74.5 -64q26 34 74 65t73 32q4 0 5 -3.5z" />
    <glyph glyph-name="Eng" unicode="&#x14a;" horiz-adv-x="740" 
d="M717.5 699.5q0.5 -3.5 -5.5 -3.5q-36 -2 -54 -21.5t-18 -68.5v-607q0 -116 -30.5 -165t-97.5 -49q-50 0 -92 21q-7 4 3.5 20t25.5 29.5t19 8.5q18 -20 35.5 -30t38.5 -10q35 0 54 17t27 54.5t8 103.5v41l-504 597q-4 4 -6 4q-4 0 -4 -6v-541q0 -49 18 -68.5t54 -21.5
q6 0 5.5 -3.5t-5.5 -3.5l-54 3h-44l-55 -3q-5 0 -5.5 3.5t5.5 3.5q36 2 54 21.5t18 68.5l1 565q-18 19 -34 27.5t-38 9.5q-6 1 -5.5 4t5.5 3l55 -3h89q10 0 15.5 -3t10.5 -9l412 -500q6 -6 9 -6q4 0 4 7l-1 417q0 49 -18 68.5t-54 21.5q-6 0 -5.5 3.5t5.5 3.5q36 -3 55 -3
h44q18 0 54 3q5 0 5.5 -3.5z" />
    <glyph glyph-name="eng" unicode="&#x14b;" horiz-adv-x="607" 
d="M468 418.5q46 -50.5 46 -147.5v-143q0 -86 -40 -142.5t-93 -83t-93 -28.5h-2q-6 0 -6 4t7 4q35 3 64 17t51 60t22 134v183q0 81 -30 120t-86 39q-52 0 -88.5 -42.5t-36.5 -130.5v-185q0 -39 14.5 -55t45.5 -17q5 0 5 -3.5t-5 -3.5q-21 1 -104 1q-82 0 -105 -1
q-5 0 -5 3.5t5 3.5q22 0 34 5t18.5 20.5t6.5 47.5v264q0 32 -9.5 47t-33.5 15q-4 0 -18 -2q-4 -1 -4.5 1.5t2.5 3.5q105 26 152 58q4 3 7.5 2t3.5 -5q-5 -37 -7.5 -66t-2.5 -60q15 59 57 96t102 37q80 0 126 -50.5z" />
    <glyph glyph-name="Omacron" unicode="&#x14c;" horiz-adv-x="821" 
d="M207.5 30q-78.5 45 -122.5 125.5t-44 181.5q0 100 50 186.5t138.5 138.5t199.5 52q101 0 181 -45.5t125 -125.5t45 -179q0 -101 -51 -188t-141 -139t-203 -52q-99 0 -177.5 45zM627.5 81q63.5 69 63.5 192q0 100 -45 196t-120.5 157t-161.5 61q-110 0 -172.5 -67.5
t-62.5 -185.5q0 -101 44 -199t118.5 -160.5t159.5 -62.5q113 0 176.5 69zM284 765q-8 0 -8 5q0 4 8 4h253q9 0 9 -4q0 -5 -9 -5h-253z" />
    <glyph glyph-name="omacron" unicode="&#x14d;" horiz-adv-x="551" 
d="M140.5 14q-53.5 29 -84 82t-30.5 121t34 125t94 90.5t133 33.5q67 0 121 -29t85.5 -81.5t31.5 -120.5t-35 -125.5t-95.5 -91t-134.5 -33.5q-66 0 -119.5 29zM409 46q38 38 38 112q0 61 -29.5 128t-77 112t-97.5 45q-66 0 -103 -37.5t-37 -111.5q0 -60 29.5 -127.5
t76 -113t95.5 -45.5q67 0 105 38zM149 590q-8 0 -8 5q0 4 8 4h253q9 0 9 -4q0 -5 -9 -5h-253z" />
    <glyph glyph-name="Obreve" unicode="&#x14e;" horiz-adv-x="821" 
d="M207.5 30q-78.5 45 -122.5 125.5t-44 181.5q0 100 50 186.5t138.5 138.5t199.5 52q101 0 181 -45.5t125 -125.5t45 -179q0 -101 -51 -188t-141 -139t-203 -52q-99 0 -177.5 45zM627.5 81q63.5 69 63.5 192q0 100 -45 196t-120.5 157t-161.5 61q-110 0 -172.5 -67.5
t-62.5 -185.5q0 -101 44 -199t118.5 -160.5t159.5 -62.5q113 0 176.5 69zM340.5 871.5q7.5 -2.5 7.5 -8.5q0 -22 9 -45.5t28.5 -40.5t49.5 -17q48 0 67 33.5t19 69.5q0 6 4 6q5 0 5 -5q0 -48 -28.5 -87.5t-94.5 -39.5q-43 0 -71 21t-40 50.5t-12 55.5q0 5 6 7.5t22 2.5
q21 0 28.5 -2.5z" />
    <glyph glyph-name="obreve" unicode="&#x14f;" horiz-adv-x="551" 
d="M140.5 14q-53.5 29 -84 82t-30.5 121t34 125t94 90.5t133 33.5q67 0 121 -29t85.5 -81.5t31.5 -120.5t-35 -125.5t-95.5 -91t-134.5 -33.5q-66 0 -119.5 29zM409 46q38 38 38 112q0 61 -29.5 128t-77 112t-97.5 45q-66 0 -103 -37.5t-37 -111.5q0 -60 29.5 -127.5
t76 -113t95.5 -45.5q67 0 105 38zM205.5 650.5q7.5 -2.5 7.5 -8.5q0 -22 9 -45.5t28.5 -40.5t49.5 -17q48 0 67 33.5t19 69.5q0 6 4 6q5 0 5 -5q0 -48 -28.5 -87.5t-94.5 -39.5q-43 0 -71 21t-40 50.5t-12 55.5q0 5 6 7.5t22 2.5q21 0 28.5 -2.5z" />
    <glyph glyph-name="Ohungarumlaut" unicode="&#x150;" horiz-adv-x="821" 
d="M207.5 30q-78.5 45 -122.5 125.5t-44 181.5q0 100 50 186.5t138.5 138.5t199.5 52q101 0 181 -45.5t125 -125.5t45 -179q0 -101 -51 -188t-141 -139t-203 -52q-99 0 -177.5 45zM627.5 81q63.5 69 63.5 192q0 100 -45 196t-120.5 157t-161.5 61q-110 0 -172.5 -67.5
t-62.5 -185.5q0 -101 44 -199t118.5 -160.5t159.5 -62.5q113 0 176.5 69zM249 736q-3 0 -4 2.5t3 5.5q40 33 59 61t31 58q7 17 12 24t15 8q20 2 31 2q33 0 33 -8q0 -13 -38 -49t-83 -69t-58 -35h-1zM402 736q-3 0 -4 2.5t3 5.5q40 33 59 61t31 58q7 17 12 24t15 8q20 2 31 2
q33 0 33 -8q0 -13 -38 -49t-83 -69t-58 -35h-1z" />
    <glyph glyph-name="ohungarumlaut" unicode="&#x151;" horiz-adv-x="551" 
d="M140.5 14q-53.5 29 -84 82t-30.5 121t34 125t94 90.5t133 33.5q67 0 121 -29t85.5 -81.5t31.5 -120.5t-35 -125.5t-95.5 -91t-134.5 -33.5q-66 0 -119.5 29zM409 46q38 38 38 112q0 61 -29.5 128t-77 112t-97.5 45q-66 0 -103 -37.5t-37 -111.5q0 -60 29.5 -127.5
t76 -113t95.5 -45.5q67 0 105 38zM165 517q-3 0 -4 2.5t3 5.5q40 33 59 61t31 58q7 17 12 24t15 8q20 2 31 2q33 0 33 -8q0 -13 -38 -49t-83 -69t-58 -35h-1zM318 517q-3 0 -4 2.5t3 5.5q40 33 59 61t31 58q7 17 12 24t15 8q20 2 31 2q33 0 33 -8q0 -13 -38 -49t-83 -69
t-58 -35h-1z" />
    <glyph glyph-name="OE" unicode="&#x152;" horiz-adv-x="1048" 
d="M1022 260q4 0 2 -8q-20 -130 -22 -241q-1 -13 -6 -17.5t-14 -4.5q-4 0 -22 2q-72 9 -150 9h-276l-30 -3q-76 -8 -133 -8q-93 0 -168 44.5t-118.5 124t-43.5 179.5q0 105 49.5 191t137.5 136t201 50q33 0 80 -7q9 -1 34 -4t45 -3h207q62 0 129 8q18 3 27 3q8 0 12.5 -4.5
t5.5 -17.5q2 -84 23 -243q1 -4 -1.5 -4.5t-3.5 3.5q-24 101 -39 140t-36 61q-26 29 -83 38t-176 9q-24 0 -24 -33v-260q0 -10 4.5 -17.5t15.5 -7.5q77 0 98 3q18 2 29.5 10.5t22.5 30t23 63.5q1 6 4 6t2 -6q-7 -39 -7 -93q0 -72 12 -141q1 -5 -2 -5.5t-4 5.5
q-19 63 -37 88.5t-43 28.5q-32 3 -98 3q-11 0 -15.5 -8.5t-4.5 -18.5v-287q0 -47 31 -47q122 0 189 11.5t95 38.5q25 23 41.5 67.5t32.5 128.5q1 7 4 7zM167.5 228.5q38.5 -96.5 102.5 -160.5t138 -64q53 0 73.5 5.5t31.5 22.5q8 13 12 36.5t5.5 79t1.5 171.5
q0 144 -7.5 217.5t-29.5 107.5q-33 49 -104 49q-130 0 -196 -69.5t-66 -207.5q0 -91 38.5 -187.5z" />
    <glyph glyph-name="oe" unicode="&#x153;" horiz-adv-x="900" 
d="M875.5 86q2.5 -2 0.5 -5q-38 -48 -90 -71.5t-112 -23.5q-61 0 -112.5 28.5t-81.5 79.5q-36 -50 -93.5 -79.5t-126.5 -29.5q-66 0 -119.5 29t-84 82t-30.5 121t34 125t94 90.5t133 33.5q65 0 118.5 -28t84.5 -77q34 49 88.5 77t116.5 28q75 0 124.5 -42t49.5 -113
q0 -35 -11 -68q-82 -1 -332 -8q12 -59 47.5 -105t82.5 -71t92 -25q83 0 124 52q1 2 3.5 0zM521 280q2 -12 4 -36v-3l118 4q43 3 133 5q8 16 8 40q0 35 -18 72.5t-47.5 62t-61.5 24.5q-66 0 -101 -39.5t-35 -119.5v-10zM409 46q38 38 38 112q0 61 -29.5 128t-77 112t-97.5 45
q-66 0 -103 -37.5t-37 -111.5q0 -60 29.5 -127.5t76 -113t95.5 -45.5q67 0 105 38z" />
    <glyph glyph-name="Racute" unicode="&#x154;" horiz-adv-x="662" 
d="M715 -76.5q-2 -2.5 -7 -0.5q-125 52 -216.5 154.5t-160.5 269.5l-71 1q-5 0 -5 2.5t5 3.5l44 1q90 6 134.5 55t44.5 128q0 81 -44 117t-141 39l-55 2q-18 1 -26 -7.5t-8 -28.5v-566q0 -49 18 -68.5t54 -21.5q6 0 5.5 -3.5t-5.5 -3.5q-36 3 -54 3h-132q-18 0 -54 -3
q-5 0 -5.5 3.5t5.5 3.5q36 2 54 21.5t18 68.5v512q0 49 -18.5 68.5t-54.5 20.5q-6 1 -5.5 4t5.5 3q16 0 27 -1l28 -1q45 0 113 2q82 2 113 2q140 0 205 -41.5t65 -129.5q0 -70 -55.5 -119t-153.5 -62q18 0 50 4h2q5 0 8 -7q39 -139 111.5 -253t158.5 -167q5 -3 3 -5.5z
M239 744q-1 3 3 5q49 28 73.5 49.5t45.5 46.5q12 15 20 21q4 2 16 2q18 0 35 -4t16 -11q0 -13 -44 -39.5t-95.5 -50t-63.5 -23.5q-5 1 -6 4z" />
    <glyph glyph-name="racute" unicode="&#x155;" horiz-adv-x="426" 
d="M388.5 447q31.5 -19 31.5 -47q0 -7 -1 -11l-42 -156q-1 -6 -4 -5t-2 7q5 32 5 51q0 57 -27.5 84.5t-72.5 27.5q-54 0 -73.5 -52t-19.5 -130v-139q0 -39 14.5 -55t45.5 -17q5 0 5 -3.5t-5 -3.5q-21 1 -104 1q-82 0 -105 -1q-5 0 -5 3.5t5 3.5q22 0 34 5t18.5 20.5
t6.5 47.5v264q0 32 -9.5 47t-33.5 15q-4 0 -18 -2q-4 -1 -4.5 1.5t2.5 3.5q105 26 152 58q4 3 7.5 2t3.5 -5q-6 -45 -8 -72t-2 -65v-18q13 65 44 112t90 47q40 0 71.5 -19zM185 511q-1 3 3 6q41 32 59.5 60t31.5 59q7 18 12 24.5t15 7.5q20 2 31 2q33 0 33 -8
q0 -14 -38.5 -50t-83.5 -69.5t-57 -34.5q-5 0 -6 3z" />
    <glyph glyph-name="uni0156" unicode="&#x156;" horiz-adv-x="662" 
d="M715 -76.5q-2 -2.5 -7 -0.5q-125 52 -216.5 154.5t-160.5 269.5l-71 1q-5 0 -5 2.5t5 3.5l44 1q90 6 134.5 55t44.5 128q0 81 -44 117t-141 39l-55 2q-18 1 -26 -7.5t-8 -28.5v-566q0 -49 18 -68.5t54 -21.5q6 0 5.5 -3.5t-5.5 -3.5q-36 3 -54 3h-132q-18 0 -54 -3
q-5 0 -5.5 3.5t5.5 3.5q36 2 54 21.5t18 68.5v512q0 49 -18.5 68.5t-54.5 20.5q-6 1 -5.5 4t5.5 3q16 0 27 -1l28 -1q45 0 113 2q82 2 113 2q140 0 205 -41.5t65 -129.5q0 -70 -55.5 -119t-153.5 -62q18 0 50 4h2q5 0 8 -7q39 -139 111.5 -253t158.5 -167q5 -3 3 -5.5z
M275 -223q-1 2 3 5q56 32 56 77q0 9 -7.5 12t-22.5 5q-21 3 -31 8t-10 21q0 14 17 26.5t41 12.5q28 0 40 -12.5t12 -32.5q0 -37 -30 -72t-63 -50q-4 -2 -5 0z" />
    <glyph glyph-name="uni0157" unicode="&#x157;" horiz-adv-x="426" 
d="M388.5 447q31.5 -19 31.5 -47q0 -7 -1 -11l-42 -156q-1 -6 -4 -5t-2 7q5 32 5 51q0 57 -27.5 84.5t-72.5 27.5q-54 0 -73.5 -52t-19.5 -130v-139q0 -39 14.5 -55t45.5 -17q5 0 5 -3.5t-5 -3.5q-21 1 -104 1q-82 0 -105 -1q-5 0 -5 3.5t5 3.5q22 0 34 5t18.5 20.5
t6.5 47.5v264q0 32 -9.5 47t-33.5 15q-4 0 -18 -2q-4 -1 -4.5 1.5t2.5 3.5q105 26 152 58q4 3 7.5 2t3.5 -5q-6 -45 -8 -72t-2 -65v-18q13 65 44 112t90 47q40 0 71.5 -19zM144 -223q-1 2 3 5q56 32 56 77q0 9 -7.5 12t-22.5 5q-21 3 -31 8t-10 21q0 14 17 26.5t41 12.5
q28 0 40 -12.5t12 -32.5q0 -37 -30 -72t-63 -50q-4 -2 -5 0z" />
    <glyph glyph-name="Rcaron" unicode="&#x158;" horiz-adv-x="662" 
d="M715 -76.5q-2 -2.5 -7 -0.5q-125 52 -216.5 154.5t-160.5 269.5l-71 1q-5 0 -5 2.5t5 3.5l44 1q90 6 134.5 55t44.5 128q0 81 -44 117t-141 39l-55 2q-18 1 -26 -7.5t-8 -28.5v-566q0 -49 18 -68.5t54 -21.5q6 0 5.5 -3.5t-5.5 -3.5q-36 3 -54 3h-132q-18 0 -54 -3
q-5 0 -5.5 3.5t5.5 3.5q36 2 54 21.5t18 68.5v512q0 49 -18.5 68.5t-54.5 20.5q-6 1 -5.5 4t5.5 3q16 0 27 -1l28 -1q45 0 113 2q82 2 113 2q140 0 205 -41.5t65 -129.5q0 -70 -55.5 -119t-153.5 -62q18 0 50 4h2q5 0 8 -7q39 -139 111.5 -253t158.5 -167q5 -3 3 -5.5z
M479 864.5q1 -2.5 -3 -4.5q-41 -17 -62 -37.5t-38 -47.5q-13 -19 -22.5 -27t-26.5 -8q-18 0 -27.5 8t-23.5 28q-18 26 -38.5 46t-59.5 38q-4 2 -3 4.5t5 2.5q25 -1 73 -27t74 -54q26 28 74 54t73 27q4 0 5 -2.5z" />
    <glyph glyph-name="rcaron" unicode="&#x159;" horiz-adv-x="426" 
d="M388.5 447q31.5 -19 31.5 -47q0 -7 -1 -11l-42 -156q-1 -6 -4 -5t-2 7q5 32 5 51q0 57 -27.5 84.5t-72.5 27.5q-54 0 -73.5 -52t-19.5 -130v-139q0 -39 14.5 -55t45.5 -17q5 0 5 -3.5t-5 -3.5q-21 1 -104 1q-82 0 -105 -1q-5 0 -5 3.5t5 3.5q22 0 34 5t18.5 20.5
t6.5 47.5v264q0 32 -9.5 47t-33.5 15q-4 0 -18 -2q-4 -1 -4.5 1.5t2.5 3.5q105 26 152 58q4 3 7.5 2t3.5 -5q-6 -45 -8 -72t-2 -65v-18q13 65 44 112t90 47q40 0 71.5 -19zM374 658.5q1 -3.5 -3 -5.5q-41 -20 -62 -44.5t-38 -56.5q-13 -23 -22.5 -33t-26.5 -10
q-18 0 -27.5 9.5t-23.5 33.5q-17 31 -37.5 55.5t-60.5 45.5q-4 2 -3 5.5t5 3.5q25 -2 72.5 -33t74.5 -64q26 34 74 65t73 32q4 0 5 -3.5z" />
    <glyph glyph-name="Sacute" unicode="&#x15a;" horiz-adv-x="628" 
d="M111 284q2 8 5 8q1 0 2 -2.5t0 -7.5q-2 -18 -2 -52q0 -117 51 -172.5t154 -55.5q65 0 114.5 28.5t49.5 106.5q0 67 -49 111.5t-139 89.5q-66 36 -107 63.5t-66 61.5t-25 76q0 43 31 83.5t90 66t137 25.5q48 0 95 -14t77.5 -39.5t30.5 -58.5q0 -5 -2 -15l-36 -150
q-1 -6 -4 -6q-4 0 -3 9q4 28 4 60q0 96 -46.5 146.5t-138.5 50.5q-81 0 -113.5 -27t-32.5 -81q0 -37 21.5 -65t57 -50.5t97.5 -54.5q68 -34 111 -62.5t72.5 -70.5t29.5 -98t-34 -102.5t-96 -73.5t-144 -27q-65 0 -118.5 18.5t-83.5 49t-30 64.5q0 9 1 14zM239 744q-1 3 3 5
q49 28 73.5 49.5t45.5 46.5q12 15 20 21q4 2 16 2q18 0 35 -4t16 -11q0 -13 -44 -39.5t-95.5 -50t-63.5 -23.5q-5 1 -6 4z" />
    <glyph glyph-name="sacute" unicode="&#x15b;" horiz-adv-x="433" 
d="M56 179q1 4 3.5 3.5t2.5 -4.5q-2 -87 37 -132t113 -45q50 0 77.5 16t27.5 55q-1 41 -34.5 70.5t-105.5 67.5q-65 36 -98 65t-33 68q0 32 24 60.5t66 45.5t94 17q65 0 117.5 -18t44.5 -52l-28 -111q-1 -3 -3.5 -3t-1.5 4q0 84 -34.5 123.5t-110.5 39.5q-52 0 -71.5 -15
t-19.5 -41q0 -21 16 -39.5t41 -34t76 -43.5q68 -37 107.5 -72.5t39.5 -84.5q0 -36 -25.5 -66.5t-72 -49t-105.5 -18.5q-48 0 -88.5 10.5t-62.5 29.5t-18 41zM173 511q-1 3 3 6q41 32 59.5 60t31.5 59q7 18 12 24.5t15 7.5q20 2 31 2q33 0 33 -8q0 -14 -38.5 -50t-83.5 -69.5
t-57 -34.5q-5 0 -6 3z" />
    <glyph glyph-name="Scircumflex" unicode="&#x15c;" horiz-adv-x="628" 
d="M111 284q2 8 5 8q1 0 2 -2.5t0 -7.5q-2 -18 -2 -52q0 -117 51 -172.5t154 -55.5q65 0 114.5 28.5t49.5 106.5q0 67 -49 111.5t-139 89.5q-66 36 -107 63.5t-66 61.5t-25 76q0 43 31 83.5t90 66t137 25.5q48 0 95 -14t77.5 -39.5t30.5 -58.5q0 -5 -2 -15l-36 -150
q-1 -6 -4 -6q-4 0 -3 9q4 28 4 60q0 96 -46.5 146.5t-138.5 50.5q-81 0 -113.5 -27t-32.5 -81q0 -37 21.5 -65t57 -50.5t97.5 -54.5q68 -34 111 -62.5t72.5 -70.5t29.5 -98t-34 -102.5t-96 -73.5t-144 -27q-65 0 -118.5 18.5t-83.5 49t-30 64.5q0 9 1 14zM490 740
q-1 -3 -5 -3q-27 1 -78 28t-79 57q-27 -29 -78.5 -56.5t-79.5 -28.5q-5 0 -6 2.5t4 4.5q43 18 65.5 39t42.5 50q13 20 23 28.5t28 8.5q19 0 29.5 -8.5t24.5 -28.5q19 -28 41.5 -49t64.5 -39q4 -2 3 -5z" />
    <glyph glyph-name="scircumflex" unicode="&#x15d;" horiz-adv-x="433" 
d="M56 179q1 4 3.5 3.5t2.5 -4.5q-2 -87 37 -132t113 -45q50 0 77.5 16t27.5 55q-1 41 -34.5 70.5t-105.5 67.5q-65 36 -98 65t-33 68q0 32 24 60.5t66 45.5t94 17q65 0 117.5 -18t44.5 -52l-28 -111q-1 -3 -3.5 -3t-1.5 4q0 84 -34.5 123.5t-110.5 39.5q-52 0 -71.5 -15
t-19.5 -41q0 -21 16 -39.5t41 -34t76 -43.5q68 -37 107.5 -72.5t39.5 -84.5q0 -36 -25.5 -66.5t-72 -49t-105.5 -18.5q-48 0 -88.5 10.5t-62.5 29.5t-18 41zM362 517.5q-1 -3.5 -5 -3.5q-25 1 -72.5 32t-73.5 65q-26 -34 -74.5 -65t-73.5 -32q-4 0 -5 3t3 5q41 21 61.5 45
t39.5 57q12 23 21.5 33t26.5 10q18 0 28 -10.5t23 -33.5q19 -32 39 -55.5t59 -44.5q4 -2 3 -5.5z" />
    <glyph glyph-name="Scedilla" unicode="&#x15e;" horiz-adv-x="628" 
d="M545.5 89q-31.5 -45 -89 -73t-134.5 -31q-13 -18 -25 -47q55 -13 80.5 -32t25.5 -45q0 -22 -23.5 -40t-60.5 -18t-65 10.5t-28 30.5q0 7 7 16.5t15 9.5q5 0 11 -6.5t7 -8.5q16 -18 31 -28.5t41 -10.5q23 0 35.5 8t12.5 20q-1 17 -31.5 34t-88.5 30l45 77h-8
q-65 0 -118.5 18.5t-83.5 49t-30 64.5q0 9 1 14l39 153q2 8 5 8q1 0 2 -2.5t0 -7.5q-2 -18 -2 -52q0 -117 51 -172.5t154 -55.5q65 0 114.5 28.5t49.5 106.5q0 67 -49 111.5t-139 89.5q-66 36 -107 63.5t-66 61.5t-25 76q0 43 31 83.5t90 66t137 25.5q48 0 95 -14
t77.5 -39.5t30.5 -58.5q0 -5 -2 -15l-36 -150q-1 -6 -4 -6q-4 0 -3 9q4 28 4 60q0 96 -46.5 146.5t-138.5 50.5q-81 0 -113.5 -27t-32.5 -81q0 -37 21.5 -65t57 -50.5t97.5 -54.5q68 -34 111 -62.5t72.5 -70.5t29.5 -98q0 -54 -31.5 -99z" />
    <glyph glyph-name="scedilla" unicode="&#x15f;" horiz-adv-x="433" 
d="M377.5 52.5q-25.5 -30.5 -72 -49t-105.5 -18.5q-13 -22 -21 -43q55 -15 80.5 -34t25.5 -45q0 -23 -23 -41.5t-61 -18.5q-37 0 -65 11.5t-28 31.5q0 7 7 16.5t15 9.5q5 0 11 -6.5t7 -8.5q15 -18 30.5 -29t41.5 -11q23 0 35.5 8t12.5 20q-1 18 -31.5 35.5t-88.5 29.5l43 75
q-46 1 -84.5 12t-59 29.5t-16.5 39.5l25 113q1 4 3.5 3.5t2.5 -4.5q-2 -87 37 -132t113 -45q50 0 77.5 16t27.5 55q-1 41 -34.5 70.5t-105.5 67.5q-65 36 -98 65t-33 68q0 32 24 60.5t66 45.5t94 17q65 0 117.5 -18t44.5 -52l-28 -111q-1 -3 -3.5 -3t-1.5 4
q0 84 -34.5 123.5t-110.5 39.5q-52 0 -71.5 -15t-19.5 -41q0 -21 16 -39.5t41 -34t76 -43.5q68 -37 107.5 -72.5t39.5 -84.5q0 -36 -25.5 -66.5z" />
    <glyph glyph-name="Scaron" unicode="&#x160;" horiz-adv-x="628" 
d="M111 284q2 8 5 8q1 0 2 -2.5t0 -7.5q-2 -18 -2 -52q0 -117 51 -172.5t154 -55.5q65 0 114.5 28.5t49.5 106.5q0 67 -49 111.5t-139 89.5q-66 36 -107 63.5t-66 61.5t-25 76q0 43 31 83.5t90 66t137 25.5q48 0 95 -14t77.5 -39.5t30.5 -58.5q0 -5 -2 -15l-36 -150
q-1 -6 -4 -6q-4 0 -3 9q4 28 4 60q0 96 -46.5 146.5t-138.5 50.5q-81 0 -113.5 -27t-32.5 -81q0 -37 21.5 -65t57 -50.5t97.5 -54.5q68 -34 111 -62.5t72.5 -70.5t29.5 -98t-34 -102.5t-96 -73.5t-144 -27q-65 0 -118.5 18.5t-83.5 49t-30 64.5q0 9 1 14zM479 864.5
q1 -2.5 -3 -4.5q-41 -17 -62 -37.5t-38 -47.5q-13 -19 -22.5 -27t-26.5 -8q-18 0 -27.5 8t-23.5 28q-18 26 -38.5 46t-59.5 38q-4 2 -3 4.5t5 2.5q25 -1 73 -27t74 -54q26 28 74 54t73 27q4 0 5 -2.5z" />
    <glyph glyph-name="scaron" unicode="&#x161;" horiz-adv-x="433" 
d="M56 179q1 4 3.5 3.5t2.5 -4.5q-2 -87 37 -132t113 -45q50 0 77.5 16t27.5 55q-1 41 -34.5 70.5t-105.5 67.5q-65 36 -98 65t-33 68q0 32 24 60.5t66 45.5t94 17q65 0 117.5 -18t44.5 -52l-28 -111q-1 -3 -3.5 -3t-1.5 4q0 84 -34.5 123.5t-110.5 39.5q-52 0 -71.5 -15
t-19.5 -41q0 -21 16 -39.5t41 -34t76 -43.5q68 -37 107.5 -72.5t39.5 -84.5q0 -36 -25.5 -66.5t-72 -49t-105.5 -18.5q-48 0 -88.5 10.5t-62.5 29.5t-18 41zM362 658.5q1 -3.5 -3 -5.5q-41 -20 -62 -44.5t-38 -56.5q-13 -23 -22.5 -33t-26.5 -10q-18 0 -27.5 9.5t-23.5 33.5
q-17 31 -37.5 55.5t-60.5 45.5q-4 2 -3 5.5t5 3.5q25 -2 72.5 -33t74.5 -64q26 34 74 65t73 32q4 0 5 -3.5z" />
    <glyph glyph-name="uni0162" unicode="&#x162;" horiz-adv-x="666" 
d="M644 455.5q-3 -0.5 -5 4.5q-26 109 -48.5 157t-52.5 63q-10 7 -44 10t-91 4q-9 0 -15.5 -9.5t-6.5 -26.5v-564q0 -49 26 -68.5t78 -21.5q8 0 8 -3q0 -4 -8 -4q-51 3 -78 3h-148q-27 0 -78 -3q-8 0 -8 4q0 3 8 3q52 2 78 21.5t26 68.5v564q0 17 -6.5 26.5t-15.5 9.5
q-57 -1 -91 -4t-44 -10q-30 -15 -54 -65.5t-47 -154.5q-2 -5 -5 -4.5t-2 6.5q17 122 17 227q0 13 4.5 17.5t13.5 4.5q8 0 48 -5.5t182 -5.5h96q142 0 182 5.5t49 5.5q8 0 12.5 -4.5t4.5 -17.5q-2 -96 17 -227q1 -6 -2 -6.5zM263 -185.5q-28 11.5 -28 31.5q0 7 7 16.5t15 9.5
q5 0 11 -6.5t7 -8.5q15 -18 30.5 -29t41.5 -11q23 0 35.5 8t12.5 20q-1 18 -31.5 35.5t-88.5 29.5l51 90h11q-10 -15 -17 -28t-14 -30q55 -15 80.5 -34t25.5 -45q0 -23 -23.5 -41.5t-60.5 -18.5t-65 11.5z" />
    <glyph glyph-name="uni0163" unicode="&#x163;" horiz-adv-x="306" 
d="M305 91.5q2 -1.5 -1 -6.5q-34 -50 -70 -74t-68 -25q-12 -18 -22 -44q55 -15 80.5 -34t25.5 -45q0 -23 -23 -41.5t-61 -18.5q-37 0 -65 11.5t-28 31.5q0 7 7 16.5t15 9.5q5 0 11 -6.5t7 -8.5q15 -18 30.5 -29t41.5 -11q23 0 35.5 8t12.5 20q-1 18 -31.5 35.5t-88.5 29.5
l43 76q-35 4 -56.5 32.5t-21.5 71.5v327q0 14 -3.5 21t-17.5 7h-34q-5 0 -5 2.5t4 3.5q54 9 93 44.5t51 92.5q2 6 4 6q3 0 3 -6q-1 -60 -4 -118v-3q0 -10 5 -13t19 -3h96q2 0 1 -3t-5 -3h-88q-17 0 -23 -5.5t-6 -21.5v-306q0 -35 15 -54.5t39 -19.5q18 0 38.5 12.5
t38.5 37.5q4 5 6 3.5z" />
    <glyph glyph-name="Tcaron" unicode="&#x164;" horiz-adv-x="666" 
d="M644 455.5q-3 -0.5 -5 4.5q-26 109 -48.5 157t-52.5 63q-10 7 -44 10t-91 4q-9 0 -15.5 -9.5t-6.5 -26.5v-564q0 -49 26 -68.5t78 -21.5q8 0 8 -3q0 -4 -8 -4q-51 3 -78 3h-148q-27 0 -78 -3q-8 0 -8 4q0 3 8 3q52 2 78 21.5t26 68.5v564q0 17 -6.5 26.5t-15.5 9.5
q-57 -1 -91 -4t-44 -10q-30 -15 -54 -65.5t-47 -154.5q-2 -5 -5 -4.5t-2 6.5q17 122 17 227q0 13 4.5 17.5t13.5 4.5q8 0 48 -5.5t182 -5.5h96q142 0 182 5.5t49 5.5q8 0 12.5 -4.5t4.5 -17.5q-2 -96 17 -227q1 -6 -2 -6.5zM485 864.5q1 -2.5 -3 -4.5q-41 -17 -62 -37.5
t-38 -47.5q-13 -19 -22.5 -27t-26.5 -8q-18 0 -27.5 8t-23.5 28q-18 26 -38.5 46t-59.5 38q-4 2 -3 4.5t5 2.5q25 -1 73 -27t74 -54q26 28 74 54t73 27q4 0 5 -2.5z" />
    <glyph glyph-name="tcaron" unicode="&#x165;" horiz-adv-x="306" 
d="M102.5 15q-24.5 29 -24.5 75v327q0 14 -3.5 21t-17.5 7h-34q-5 0 -5 2.5t4 3.5q54 9 93 44.5t51 92.5q2 6 4 6q3 0 3 -6q-1 -60 -4 -118v-3q0 -10 5 -13t19 -3h96q2 0 1 -3t-5 -3h-88q-17 0 -23 -5.5t-6 -21.5v-306q0 -35 15 -54.5t39 -19.5q18 0 38.5 12.5t38.5 37.5
q4 5 6 3.5t-1 -6.5q-34 -50 -70 -74.5t-69 -24.5q-38 0 -62.5 29zM301.5 466q-3.5 0 -3.5 4q-2 44 -8 72.5t-14 53.5q-1 4 -4.5 15.5t-3.5 21.5q-1 18 5.5 24t27.5 6q22 0 28.5 -6.5t6.5 -23.5q0 -10 -3.5 -21.5t-4.5 -15.5q-9 -25 -15 -53t-7 -73q-1 -4 -4.5 -4z" />
    <glyph glyph-name="Tbar" unicode="&#x166;" horiz-adv-x="666" 
d="M644 455.5q-3 -0.5 -5 4.5q-26 109 -48.5 157t-52.5 63q-10 7 -44 10t-91 4q-9 0 -15.5 -9.5t-6.5 -26.5v-304h137q5 0 5 -4t-5 -4h-137v-252q0 -49 26 -68.5t78 -21.5q8 0 8 -3q0 -4 -8 -4q-51 3 -78 3h-148q-27 0 -78 -3q-8 0 -8 4q0 3 8 3q52 2 78 21.5t26 68.5v252
h-136q-4 0 -4 4t4 4h136v304q0 17 -6.5 26.5t-15.5 9.5q-57 -1 -91 -4t-44 -10q-30 -15 -54 -65.5t-47 -154.5q-2 -5 -5 -4.5t-2 6.5q17 122 17 227q0 13 4.5 17.5t13.5 4.5q8 0 48 -5.5t182 -5.5h96q142 0 182 5.5t49 5.5q8 0 12.5 -4.5t4.5 -17.5q-2 -96 17 -227
q1 -6 -2 -6.5z" />
    <glyph glyph-name="tbar" unicode="&#x167;" horiz-adv-x="306" 
d="M305 91.5q2 -1.5 -1 -6.5q-34 -50 -70 -74.5t-69 -24.5q-38 0 -62.5 29t-24.5 75v161h-68q-9 0 -9 5q0 4 9 4h68v157q0 14 -3.5 21t-17.5 7h-34q-5 0 -5 2.5t4 3.5q54 9 93 44.5t51 92.5q2 6 4 6q3 0 3 -6q-1 -60 -4 -118v-3q0 -10 5 -13t19 -3h96q2 0 1 -3t-5 -3h-88
q-17 0 -23 -5.5t-6 -21.5v-158h113q9 0 9 -4q0 -5 -9 -5h-113v-139q0 -35 15 -54.5t39 -19.5q18 0 38.5 12.5t38.5 37.5q4 5 6 3.5z" />
    <glyph glyph-name="Utilde" unicode="&#x168;" horiz-adv-x="728" 
d="M231 21q-64 36 -98.5 103t-34.5 156v326q0 49 -15.5 68.5t-47.5 21.5q-5 0 -5 3.5t5 3.5q33 -3 48 -3h133q20 0 65 3q6 0 6.5 -3.5t-6.5 -3.5q-44 -2 -65.5 -21.5t-21.5 -68.5v-330q0 -114 59.5 -181.5t162.5 -67.5q67 0 117 32t77.5 89.5t27.5 133.5l-1 324
q0 49 -21.5 68.5t-65.5 21.5q-7 0 -6.5 3.5t6.5 3.5q45 -3 65 -3h43q16 0 43 3q5 0 5.5 -3.5t-4.5 -3.5q-29 -2 -43.5 -21.5t-14.5 -68.5v-322q0 -91 -32 -158.5t-91.5 -104t-139.5 -36.5q-86 0 -150 36zM236.5 744q-3.5 1 -2.5 6q29 87 98 87q27 0 63 -14l40 -16
q30 -12 52 -12q42 0 62 43q2 4 5.5 3t2.5 -7q-16 -45 -39.5 -66.5t-57.5 -21.5q-26 0 -62 14l-43 17q-41 17 -65 17q-19 0 -29.5 -11t-19.5 -35q-1 -5 -4.5 -4z" />
    <glyph glyph-name="utilde" unicode="&#x169;" horiz-adv-x="563" 
d="M570 160q3 0 3 -5q0 -69 -26.5 -117.5t-73.5 -48.5q-35 0 -57.5 25.5t-22.5 76.5v33q-12 -62 -55 -100.5t-108 -38.5q-73 0 -117 49.5t-44 145.5v162q0 32 -9.5 47t-33.5 15q-4 0 -18 -2q-4 -1 -4.5 1.5t1.5 3.5q43 11 85 26t67 32q5 3 8 2t3 -5q-5 -46 -7 -73t-2 -64
v-146q0 -160 111 -160q56 0 89.5 45t33.5 125v153q0 32 -9.5 47t-33.5 15q-4 0 -18 -2q-4 -1 -4.5 1.5t1.5 3.5q43 11 85 26t67 32q5 3 8 2t3 -5q-5 -46 -7 -73t-2 -64v-216q0 -33 7.5 -48.5t25.5 -15.5q31 0 40.5 29t10.5 81q0 5 3 5zM129.5 547q-3.5 1 -2.5 6q29 87 98 87
q27 0 63 -14l40 -16q30 -12 52 -12q42 0 62 43q2 4 5.5 3t2.5 -7q-16 -45 -39.5 -66.5t-57.5 -21.5q-26 0 -62 14l-43 17q-41 17 -65 17q-19 0 -29.5 -11t-19.5 -35q-1 -5 -4.5 -4z" />
    <glyph glyph-name="Umacron" unicode="&#x16a;" horiz-adv-x="728" 
d="M231 21q-64 36 -98.5 103t-34.5 156v326q0 49 -15.5 68.5t-47.5 21.5q-5 0 -5 3.5t5 3.5q33 -3 48 -3h133q20 0 65 3q6 0 6.5 -3.5t-6.5 -3.5q-44 -2 -65.5 -21.5t-21.5 -68.5v-330q0 -114 59.5 -181.5t162.5 -67.5q67 0 117 32t77.5 89.5t27.5 133.5l-1 324
q0 49 -21.5 68.5t-65.5 21.5q-7 0 -6.5 3.5t6.5 3.5q45 -3 65 -3h43q16 0 43 3q5 0 5.5 -3.5t-4.5 -3.5q-29 -2 -43.5 -21.5t-14.5 -68.5v-322q0 -91 -32 -158.5t-91.5 -104t-139.5 -36.5q-86 0 -150 36zM269 765q-8 0 -8 5q0 4 8 4h253q9 0 9 -4q0 -5 -9 -5h-253z" />
    <glyph glyph-name="umacron" unicode="&#x16b;" horiz-adv-x="563" 
d="M570 160q3 0 3 -5q0 -69 -26.5 -117.5t-73.5 -48.5q-35 0 -57.5 25.5t-22.5 76.5v33q-12 -62 -55 -100.5t-108 -38.5q-73 0 -117 49.5t-44 145.5v162q0 32 -9.5 47t-33.5 15q-4 0 -18 -2q-4 -1 -4.5 1.5t1.5 3.5q43 11 85 26t67 32q5 3 8 2t3 -5q-5 -46 -7 -73t-2 -64
v-146q0 -160 111 -160q56 0 89.5 45t33.5 125v153q0 32 -9.5 47t-33.5 15q-4 0 -18 -2q-4 -1 -4.5 1.5t1.5 3.5q43 11 85 26t67 32q5 3 8 2t3 -5q-5 -46 -7 -73t-2 -64v-216q0 -33 7.5 -48.5t25.5 -15.5q31 0 40.5 29t10.5 81q0 5 3 5zM162 590q-8 0 -8 5q0 4 8 4h253
q9 0 9 -4q0 -5 -9 -5h-253z" />
    <glyph glyph-name="Ubreve" unicode="&#x16c;" horiz-adv-x="728" 
d="M231 21q-64 36 -98.5 103t-34.5 156v326q0 49 -15.5 68.5t-47.5 21.5q-5 0 -5 3.5t5 3.5q33 -3 48 -3h133q20 0 65 3q6 0 6.5 -3.5t-6.5 -3.5q-44 -2 -65.5 -21.5t-21.5 -68.5v-330q0 -114 59.5 -181.5t162.5 -67.5q67 0 117 32t77.5 89.5t27.5 133.5l-1 324
q0 49 -21.5 68.5t-65.5 21.5q-7 0 -6.5 3.5t6.5 3.5q45 -3 65 -3h43q16 0 43 3q5 0 5.5 -3.5t-4.5 -3.5q-29 -2 -43.5 -21.5t-14.5 -68.5v-322q0 -91 -32 -158.5t-91.5 -104t-139.5 -36.5q-86 0 -150 36zM325.5 871.5q7.5 -2.5 7.5 -8.5q0 -22 9 -45.5t28.5 -40.5t49.5 -17
q48 0 67 33.5t19 69.5q0 6 4 6q5 0 5 -5q0 -48 -28.5 -87.5t-94.5 -39.5q-43 0 -71 21t-40 50.5t-12 55.5q0 5 6 7.5t22 2.5q21 0 28.5 -2.5z" />
    <glyph glyph-name="ubreve" unicode="&#x16d;" horiz-adv-x="563" 
d="M570 160q3 0 3 -5q0 -69 -26.5 -117.5t-73.5 -48.5q-35 0 -57.5 25.5t-22.5 76.5v33q-12 -62 -55 -100.5t-108 -38.5q-73 0 -117 49.5t-44 145.5v162q0 32 -9.5 47t-33.5 15q-4 0 -18 -2q-4 -1 -4.5 1.5t1.5 3.5q43 11 85 26t67 32q5 3 8 2t3 -5q-5 -46 -7 -73t-2 -64
v-146q0 -160 111 -160q56 0 89.5 45t33.5 125v153q0 32 -9.5 47t-33.5 15q-4 0 -18 -2q-4 -1 -4.5 1.5t1.5 3.5q43 11 85 26t67 32q5 3 8 2t3 -5q-5 -46 -7 -73t-2 -64v-216q0 -33 7.5 -48.5t25.5 -15.5q31 0 40.5 29t10.5 81q0 5 3 5zM218.5 650.5q7.5 -2.5 7.5 -8.5
q0 -22 9 -45.5t28.5 -40.5t49.5 -17q48 0 67 33.5t19 69.5q0 6 4 6q5 0 5 -5q0 -48 -28.5 -87.5t-94.5 -39.5q-43 0 -71 21t-40 50.5t-12 55.5q0 5 6 7.5t22 2.5q21 0 28.5 -2.5z" />
    <glyph glyph-name="Uring" unicode="&#x16e;" horiz-adv-x="728" 
d="M231 21q-64 36 -98.5 103t-34.5 156v326q0 49 -15.5 68.5t-47.5 21.5q-5 0 -5 3.5t5 3.5q33 -3 48 -3h133q20 0 65 3q6 0 6.5 -3.5t-6.5 -3.5q-44 -2 -65.5 -21.5t-21.5 -68.5v-330q0 -114 59.5 -181.5t162.5 -67.5q67 0 117 32t77.5 89.5t27.5 133.5l-1 324
q0 49 -21.5 68.5t-65.5 21.5q-7 0 -6.5 3.5t6.5 3.5q45 -3 65 -3h43q16 0 43 3q5 0 5.5 -3.5t-4.5 -3.5q-29 -2 -43.5 -21.5t-14.5 -68.5v-322q0 -91 -32 -158.5t-91.5 -104t-139.5 -36.5q-86 0 -150 36zM326 743.5q-25 19.5 -25 51.5q0 29 27 52t65 23t65 -19t27 -50
t-28.5 -54t-69.5 -23q-36 0 -61 19.5zM451 775q0 17 -11 37t-28 33.5t-35 13.5q-19 0 -29.5 -8.5t-10.5 -30.5q0 -17 11 -37t28 -33.5t35 -13.5q40 0 40 39z" />
    <glyph glyph-name="uring" unicode="&#x16f;" horiz-adv-x="563" 
d="M570 160q3 0 3 -5q0 -69 -26.5 -117.5t-73.5 -48.5q-35 0 -57.5 25.5t-22.5 76.5v33q-12 -62 -55 -100.5t-108 -38.5q-73 0 -117 49.5t-44 145.5v162q0 32 -9.5 47t-33.5 15q-4 0 -18 -2q-4 -1 -4.5 1.5t1.5 3.5q43 11 85 26t67 32q5 3 8 2t3 -5q-5 -46 -7 -73t-2 -64
v-146q0 -160 111 -160q56 0 89.5 45t33.5 125v153q0 32 -9.5 47t-33.5 15q-4 0 -18 -2q-4 -1 -4.5 1.5t1.5 3.5q43 11 85 26t67 32q5 3 8 2t3 -5q-5 -46 -7 -73t-2 -64v-216q0 -33 7.5 -48.5t25.5 -15.5q31 0 40.5 29t10.5 81q0 5 3 5zM221.5 522q-25.5 22 -25.5 58
q0 33 28.5 59t68.5 26q38 0 65.5 -22t27.5 -56q0 -35 -29.5 -61t-71.5 -26q-38 0 -63.5 22zM339 523.5q11 9.5 11 33.5q0 19 -11 41.5t-29 38t-36 15.5q-41 0 -41 -44q0 -20 11 -42t28.5 -37t36.5 -15t30 9.5z" />
    <glyph glyph-name="Uhungarumlaut" unicode="&#x170;" horiz-adv-x="728" 
d="M231 21q-64 36 -98.5 103t-34.5 156v326q0 49 -15.5 68.5t-47.5 21.5q-5 0 -5 3.5t5 3.5q33 -3 48 -3h133q20 0 65 3q6 0 6.5 -3.5t-6.5 -3.5q-44 -2 -65.5 -21.5t-21.5 -68.5v-330q0 -114 59.5 -181.5t162.5 -67.5q67 0 117 32t77.5 89.5t27.5 133.5l-1 324
q0 49 -21.5 68.5t-65.5 21.5q-7 0 -6.5 3.5t6.5 3.5q45 -3 65 -3h43q16 0 43 3q5 0 5.5 -3.5t-4.5 -3.5q-29 -2 -43.5 -21.5t-14.5 -68.5v-322q0 -91 -32 -158.5t-91.5 -104t-139.5 -36.5q-86 0 -150 36zM234 736q-3 0 -4 2.5t3 5.5q40 33 59 61t31 58q7 17 12 24t15 8
q20 2 31 2q33 0 33 -8q0 -13 -38 -49t-83 -69t-58 -35h-1zM387 736q-3 0 -4 2.5t3 5.5q40 33 59 61t31 58q7 17 12 24t15 8q20 2 31 2q33 0 33 -8q0 -13 -38 -49t-83 -69t-58 -35h-1z" />
    <glyph glyph-name="uhungarumlaut" unicode="&#x171;" horiz-adv-x="563" 
d="M570 160q3 0 3 -5q0 -69 -26.5 -117.5t-73.5 -48.5q-35 0 -57.5 25.5t-22.5 76.5v33q-12 -62 -55 -100.5t-108 -38.5q-73 0 -117 49.5t-44 145.5v162q0 32 -9.5 47t-33.5 15q-4 0 -18 -2q-4 -1 -4.5 1.5t1.5 3.5q43 11 85 26t67 32q5 3 8 2t3 -5q-5 -46 -7 -73t-2 -64
v-146q0 -160 111 -160q56 0 89.5 45t33.5 125v153q0 32 -9.5 47t-33.5 15q-4 0 -18 -2q-4 -1 -4.5 1.5t1.5 3.5q43 11 85 26t67 32q5 3 8 2t3 -5q-5 -46 -7 -73t-2 -64v-216q0 -33 7.5 -48.5t25.5 -15.5q31 0 40.5 29t10.5 81q0 5 3 5zM178 517q-3 0 -4 2.5t3 5.5
q40 33 59 61t31 58q7 17 12 24t15 8q20 2 31 2q33 0 33 -8q0 -13 -38 -49t-83 -69t-58 -35h-1zM331 517q-3 0 -4 2.5t3 5.5q40 33 59 61t31 58q7 17 12 24t15 8q20 2 31 2q33 0 33 -8q0 -13 -38 -49t-83 -69t-58 -35h-1z" />
    <glyph glyph-name="Uogonek" unicode="&#x172;" horiz-adv-x="728" 
d="M706.5 699.5q0.5 -3.5 -4.5 -3.5q-29 -2 -43.5 -21.5t-14.5 -68.5v-322q0 -98 -37 -168.5t-104 -103.5q-26 -25 -35.5 -45.5t-9.5 -42.5q0 -23 12.5 -35.5t33.5 -12.5q56 0 56 58q0 5 3.5 5t3.5 -5q0 -43 -26 -68t-70 -25q-33 0 -52.5 16t-19.5 44q0 50 64 95
q-39 -11 -82 -11q-86 0 -150 36t-98.5 103t-34.5 156v326q0 49 -15.5 68.5t-47.5 21.5q-5 0 -5 3.5t5 3.5q33 -3 48 -3h133q20 0 65 3q6 0 6.5 -3.5t-6.5 -3.5q-44 -2 -65.5 -21.5t-21.5 -68.5v-330q0 -114 59.5 -181.5t162.5 -67.5q67 0 117 32t77.5 89.5t27.5 133.5
l-1 324q0 49 -21.5 68.5t-65.5 21.5q-7 0 -6.5 3.5t6.5 3.5q45 -3 65 -3h43q16 0 43 3q5 0 5.5 -3.5z" />
    <glyph glyph-name="uogonek" unicode="&#x173;" horiz-adv-x="563" 
d="M571.5 -75q3.5 0 3.5 -5q0 -43 -26 -68t-70 -25q-33 0 -52.5 16t-19.5 44q0 54 75 102h-9q-35 0 -57.5 25.5t-22.5 76.5v33q-12 -62 -55 -100.5t-108 -38.5q-73 0 -117 49.5t-44 145.5v162q0 32 -9.5 47t-33.5 15q-4 0 -18 -2q-4 -1 -4.5 1.5t1.5 3.5q43 11 85 26t67 32
q5 3 8 2t3 -5q-5 -46 -7 -73t-2 -64v-146q0 -160 111 -160q56 0 89.5 45t33.5 125v153q0 32 -9.5 47t-33.5 15q-4 0 -18 -2q-4 -1 -4.5 1.5t1.5 3.5q43 11 85 26t67 32q5 3 8 2t3 -5q-5 -46 -7 -73t-2 -64v-216q0 -33 7.5 -48.5t25.5 -15.5q31 0 40.5 29t10.5 81q0 5 3 5
t3 -5q0 -50 -14.5 -91t-40.5 -61q-30 -27 -41 -48.5t-11 -44.5t12.5 -35.5t33.5 -12.5q56 0 56 58q0 5 3.5 5z" />
    <glyph glyph-name="Wcircumflex" unicode="&#x174;" horiz-adv-x="1038" 
d="M1033 699.5q0 -3.5 -5 -3.5q-26 -2 -42 -20.5t-32 -67.5l-187 -552l-1 -2q-1 -2 -1 -7q0 -6 2 -10l4 -8q1 -2 1 -6q0 -6 -6 -8l-73 -26q-3 -1 -7 -1q-6 0 -8 7l-158 471l-140 -409q-2 -4 -2 -11t1 -9l4 -8q2 -6 2 -7q0 -5 -6 -7l-74 -26q-2 -1 -6 -1q-7 0 -9 7l-206 613
q-16 49 -32 67.5t-42 20.5q-5 0 -5 3.5t5 3.5q30 -3 43 -3h135q19 0 58 3q5 0 5.5 -3.5t-5.5 -3.5q-67 -4 -67 -52q0 -16 7 -36l182 -540q2 -4 4.5 -4t3.5 4l132 386q5 15 5 22q0 6 -5 23l1 -1l-37 110q-16 49 -37.5 67.5t-59.5 20.5q-6 0 -5.5 3.5t6.5 3.5q39 -3 59 -3h141
q19 0 58 3q6 0 6.5 -3.5t-6.5 -3.5q-31 -2 -49 -13.5t-18 -38.5q0 -16 7 -36l180 -539q1 -5 4.5 -5t5.5 4v1l182 539q6 20 6 35q0 50 -73 53q-7 0 -6.5 3.5t6.5 3.5q42 -3 63 -3h43q13 0 43 3q5 0 5 -3.5zM682 740q-1 -3 -5 -3q-27 1 -78 28t-79 57q-27 -29 -78.5 -56.5
t-79.5 -28.5q-5 0 -6 2.5t4 4.5q43 18 65.5 39t42.5 50q13 20 23 28.5t28 8.5q19 0 29.5 -8.5t24.5 -28.5q19 -28 41.5 -49t64.5 -39q4 -2 3 -5z" />
    <glyph glyph-name="wcircumflex" unicode="&#x175;" horiz-adv-x="779" 
d="M774 448.5q0 -3.5 -4 -3.5q-20 0 -33.5 -17t-32.5 -62l-133 -315q-1 -2 -1 -6t2 -8l6 -12l1 -4q0 -5 -5 -7l-68 -25q-2 -1 -5 -1q-6 0 -8 6l-103 261l-85 -204q-1 -2 -1 -6t2 -8l6 -12l1 -4q0 -5 -5 -7l-68 -25q-2 -1 -5 -1q-5 0 -7 6l-154 372q-19 46 -32 62.5t-34 16.5
q-3 0 -3 3.5t3 3.5l43 -1h100l52 1q5 0 5 -3.5t-5 -3.5q-42 0 -42 -37q0 -18 10 -42l124 -301q4 -9 8 0l83 200l-40 101q-19 45 -35 62t-43 17q-4 0 -4 3.5t4 3.5l54 -1h101l61 1q5 0 5 -3.5t-5 -3.5q-51 0 -51 -40q0 -15 9 -39l119 -300q2 -5 4.5 -5.5t4.5 5.5l126 300
q10 23 10 39q0 40 -55 40q-5 0 -5 3.5t5 3.5l65 -1h12l42 1q4 0 4 -3.5zM528 517.5q-1 -3.5 -5 -3.5q-25 1 -72.5 32t-73.5 65q-26 -34 -74.5 -65t-73.5 -32q-4 0 -5 3t3 5q41 21 61.5 45t39.5 57q12 23 21.5 33t26.5 10q18 0 28 -10.5t23 -33.5q19 -32 39 -55.5t59 -44.5
q4 -2 3 -5.5z" />
    <glyph glyph-name="Ycircumflex" unicode="&#x176;" horiz-adv-x="643" 
d="M203 -3q-5 0 -5.5 3.5t5.5 3.5q37 2 55 21.5t17 68.5v167q0 18 -8 31l-174 320q-27 49 -42 66t-41 18q-5 0 -4.5 3.5t4.5 3.5l44 -3h140l65 3q6 0 6.5 -3.5t-6.5 -3.5q-74 -4 -74 -46q0 -15 12 -38l166 -307q3 -6 7 -6t7 6l166 307q12 23 12 38q0 42 -74 46q-6 0 -6 3
q0 2 19 2l53 -1h43q14 0 44 3q4 0 4 -3.5t-4 -3.5q-26 -1 -41 -18t-42 -66l-172 -319q-8 -13 -8 -32l1 -167q0 -49 18 -68.5t54 -21.5q6 0 5.5 -3.5t-5.5 -3.5q-36 3 -55 3h-131q-16 0 -55 -3zM483 740q-1 -3 -5 -3q-27 1 -78 28t-79 57q-27 -29 -78.5 -56.5t-79.5 -28.5
q-5 0 -6 2.5t4 4.5q43 18 65.5 39t42.5 50q13 20 23 28.5t28 8.5q19 0 29.5 -8.5t24.5 -28.5q19 -28 41.5 -49t64.5 -39q4 -2 3 -5z" />
    <glyph glyph-name="ycircumflex" unicode="&#x177;" horiz-adv-x="523" 
d="M518 448.5q0 -3.5 -4 -3.5q-20 0 -33.5 -17t-32.5 -62l-161 -377q-48 -107 -88.5 -152t-94.5 -45q-40 0 -72 19.5t-37 46.5q-1 12 9.5 35.5t22.5 37.5t12 3q0 -19 13 -47t35.5 -48.5t48.5 -20.5q33 0 58 26t53 88q1 3 1 9q0 22 -21 69l-152 356q-20 46 -33 62.5t-34 16.5
q-3 0 -3 3.5t3 3.5l43 -1h101l72 1q6 0 6 -3.5t-6 -3.5q-61 0 -61 -42q0 -14 9 -37l128 -301q6 -11 11 0l129 301q9 21 9 36q0 43 -64 43q-6 0 -6 3.5t6 3.5l75 -1h12l42 1q4 0 4 -3.5zM413 517.5q-1 -3.5 -5 -3.5q-25 1 -72.5 32t-73.5 65q-26 -34 -74.5 -65t-73.5 -32
q-4 0 -5 3t3 5q41 21 61.5 45t39.5 57q12 23 21.5 33t26.5 10q18 0 28 -10.5t23 -33.5q19 -32 39 -55.5t59 -44.5q4 -2 3 -5.5z" />
    <glyph glyph-name="Ydieresis" unicode="&#x178;" horiz-adv-x="643" 
d="M203 -3q-5 0 -5.5 3.5t5.5 3.5q37 2 55 21.5t17 68.5v167q0 18 -8 31l-174 320q-27 49 -42 66t-41 18q-5 0 -4.5 3.5t4.5 3.5l44 -3h140l65 3q6 0 6.5 -3.5t-6.5 -3.5q-74 -4 -74 -46q0 -15 12 -38l166 -307q3 -6 7 -6t7 6l166 307q12 23 12 38q0 42 -74 46q-6 0 -6 3
q0 2 19 2l53 -1h43q14 0 44 3q4 0 4 -3.5t-4 -3.5q-26 -1 -41 -18t-42 -66l-172 -319q-8 -13 -8 -32l1 -167q0 -49 18 -68.5t54 -21.5q6 0 5.5 -3.5t-5.5 -3.5q-36 3 -55 3h-131q-16 0 -55 -3zM206.5 766.5q-14.5 11.5 -14.5 27.5q0 19 16 33t42 14q21 0 35 -11.5t14 -28.5
q-1 -19 -17 -32.5t-41 -13.5q-20 0 -34.5 11.5zM357 766q-14 11 -14 27q0 20 16 34t42 14q20 0 34 -11t14 -27q0 -20 -15.5 -34t-41.5 -14q-21 0 -35 11z" />
    <glyph glyph-name="Zacute" unicode="&#x179;" horiz-adv-x="661" 
d="M556 -7q-33 7 -64 7h-350q-28 0 -58 -2q-9 -1 -25 -1q-19 0 -19 13q0 9 8 20l450 652q2 4 2 7q0 6 -7 6l-286 -14q-37 -2 -60.5 -18t-41.5 -56t-35 -117q-1 -5 -4 -4.5t-2 5.5q8 58 11.5 99.5t4.5 98.5q2 21 18 21q10 0 23 -3q43 -8 81 -8l252 1l138 2q13 0 13 -9
q0 -8 -15 -29l-444 -647q-3 -3 -3 -7q0 -5 8 -5l315 14q51 3 87 59t57 174q2 4 4 4q3 0 2 -4q-11 -70 -16 -134t-5 -107q0 -11 -3.5 -16.5t-13.5 -5.5q-6 0 -22 4zM237 744q-1 3 3 5q49 28 73.5 49.5t45.5 46.5q12 15 20 21q4 2 16 2q18 0 35 -4t16 -11q0 -13 -44 -39.5
t-95.5 -50t-63.5 -23.5q-5 1 -6 4z" />
    <glyph glyph-name="zacute" unicode="&#x17a;" horiz-adv-x="461" 
d="M398 -3q-15 3 -40 3h-205l-63 -1q-17 -1 -44 -1q-13 0 -13 9q0 7 9 19l279 407q3 5 3 7q0 3 -2.5 4.5t-6.5 0.5l-160 -10q-34 -1 -57 -24.5t-36 -86.5q-1 -4 -4 -4t-3 4q5 35 5 76q0 16 -2 46q0 11 9 11q6 0 20.5 -3t44.5 -3h189l53 2l52 1q8 0 8 -7t-20 -32
q-24 -33 -34 -51l-238 -345q-3 -4 -3 -7q0 -7 10 -6l173 11q34 1 53 13.5t30.5 43t22.5 90.5q2 5 4.5 5t2.5 -5q-8 -64 -8 -120q0 -26 1 -39q0 -11 -9 -11q-6 0 -21 3zM197 511q-1 3 3 6q41 32 59.5 60t31.5 59q7 18 12 24.5t15 7.5q20 2 31 2q33 0 33 -8q0 -14 -38.5 -50
t-83.5 -69.5t-57 -34.5q-5 0 -6 3z" />
    <glyph glyph-name="Zdotaccent" unicode="&#x17b;" horiz-adv-x="661" 
d="M556 -7q-33 7 -64 7h-350q-28 0 -58 -2q-9 -1 -25 -1q-19 0 -19 13q0 9 8 20l450 652q2 4 2 7q0 6 -7 6l-286 -14q-37 -2 -60.5 -18t-41.5 -56t-35 -117q-1 -5 -4 -4.5t-2 5.5q8 58 11.5 99.5t4.5 98.5q2 21 18 21q10 0 23 -3q43 -8 81 -8l252 1l138 2q13 0 13 -9
q0 -8 -15 -29l-444 -647q-3 -3 -3 -7q0 -5 8 -5l315 14q51 3 87 59t57 174q2 4 4 4q3 0 2 -4q-11 -70 -16 -134t-5 -107q0 -11 -3.5 -16.5t-13.5 -5.5q-6 0 -22 4zM281 759q-14 11 -14 27q0 20 19.5 34.5t48.5 14.5q25 0 39 -11t14 -28q0 -19 -19.5 -33.5t-48.5 -14.5
q-25 0 -39 11z" />
    <glyph glyph-name="zdotaccent" unicode="&#x17c;" horiz-adv-x="461" 
d="M398 -3q-15 3 -40 3h-205l-63 -1q-17 -1 -44 -1q-13 0 -13 9q0 7 9 19l279 407q3 5 3 7q0 3 -2.5 4.5t-6.5 0.5l-160 -10q-34 -1 -57 -24.5t-36 -86.5q-1 -4 -4 -4t-3 4q5 35 5 76q0 16 -2 46q0 11 9 11q6 0 20.5 -3t44.5 -3h189l53 2l52 1q8 0 8 -7t-20 -32
q-24 -33 -34 -51l-238 -345q-3 -4 -3 -7q0 -7 10 -6l173 11q34 1 53 13.5t30.5 43t22.5 90.5q2 5 4.5 5t2.5 -5q-8 -64 -8 -120q0 -26 1 -39q0 -11 -9 -11q-6 0 -21 3zM196.5 546.5q-14.5 11.5 -14.5 28.5q0 19 16 33t42 14q20 0 34.5 -11.5t14.5 -28.5q0 -20 -16 -33.5
t-42 -13.5q-20 0 -34.5 11.5z" />
    <glyph glyph-name="Zcaron" unicode="&#x17d;" horiz-adv-x="661" 
d="M556 -7q-33 7 -64 7h-350q-28 0 -58 -2q-9 -1 -25 -1q-19 0 -19 13q0 9 8 20l450 652q2 4 2 7q0 6 -7 6l-286 -14q-37 -2 -60.5 -18t-41.5 -56t-35 -117q-1 -5 -4 -4.5t-2 5.5q8 58 11.5 99.5t4.5 98.5q2 21 18 21q10 0 23 -3q43 -8 81 -8l252 1l138 2q13 0 13 -9
q0 -8 -15 -29l-444 -647q-3 -3 -3 -7q0 -5 8 -5l315 14q51 3 87 59t57 174q2 4 4 4q3 0 2 -4q-11 -70 -16 -134t-5 -107q0 -11 -3.5 -16.5t-13.5 -5.5q-6 0 -22 4zM476 864.5q1 -2.5 -3 -4.5q-41 -17 -62 -37.5t-38 -47.5q-13 -19 -22.5 -27t-26.5 -8q-18 0 -27.5 8
t-23.5 28q-18 26 -38.5 46t-59.5 38q-4 2 -3 4.5t5 2.5q25 -1 73 -27t74 -54q26 28 74 54t73 27q4 0 5 -2.5z" />
    <glyph glyph-name="zcaron" unicode="&#x17e;" horiz-adv-x="461" 
d="M398 -3q-15 3 -40 3h-205l-63 -1q-17 -1 -44 -1q-13 0 -13 9q0 7 9 19l279 407q3 5 3 7q0 3 -2.5 4.5t-6.5 0.5l-160 -10q-34 -1 -57 -24.5t-36 -86.5q-1 -4 -4 -4t-3 4q5 35 5 76q0 16 -2 46q0 11 9 11q6 0 20.5 -3t44.5 -3h189l53 2l52 1q8 0 8 -7t-20 -32
q-24 -33 -34 -51l-238 -345q-3 -4 -3 -7q0 -7 10 -6l173 11q34 1 53 13.5t30.5 43t22.5 90.5q2 5 4.5 5t2.5 -5q-8 -64 -8 -120q0 -26 1 -39q0 -11 -9 -11q-6 0 -21 3zM386 658.5q1 -3.5 -3 -5.5q-41 -20 -62 -44.5t-38 -56.5q-13 -23 -22.5 -33t-26.5 -10q-18 0 -27.5 9.5
t-23.5 33.5q-17 31 -37.5 55.5t-60.5 45.5q-4 2 -3 5.5t5 3.5q25 -2 72.5 -33t74.5 -64q26 34 74 65t73 32q4 0 5 -3.5z" />
    <glyph glyph-name="uni018F" unicode="&#x18f;" horiz-adv-x="751" 
d="M547.5 669q75.5 -45 119 -124.5t43.5 -180.5q0 -99 -50 -186t-137.5 -140t-195.5 -53q-91 0 -155 32.5t-97 90t-34 131.5q0 58 17 114l556 -5q-15 84 -58 154t-107.5 111t-138.5 41q-72 0 -125 -19t-101 -72q-5 -5 -7 -5t-1.5 2.5t3.5 6.5q122 147 301 147
q92 0 167.5 -45zM558 79.5q63 68.5 63 192.5q0 31 -5 68l-456 -10q-10 -37 -10 -80q0 -71 30.5 -125.5t83.5 -84t118 -29.5q113 0 176 68.5z" />
    <glyph glyph-name="florin" unicode="&#x192;" horiz-adv-x="674" 
d="M276 59q7 24 7 61q0 30 -1 46q0 110 8 182q2 19 -2 27.5t-16 8.5h-50q-9 0 -9 5q0 3 3.5 5.5t8.5 3.5q27 3 44 16t29 45.5t24 96.5q21 85 78 128t122 43q37 0 67 -15t42 -42q2 -4 2 -8q0 -10 -11 -17q-14 -11 -33 -18.5t-22 -0.5q-19 33 -48 51.5t-59 18.5q-17 0 -35 -8
q-23 -11 -29.5 -47t-6.5 -98l-10 -110q5 -35 30 -35h92q7 0 7 -5q0 -3 -4 -6t-11 -3h-83q-16 0 -23 -7.5t-9 -27.5l-12 -142q-4 -49 -23 -91q-29 -64 -82.5 -97t-109.5 -33q-39 0 -68.5 15.5t-39.5 42.5q-2 4 -2 7q0 10 11 18q10 8 24.5 15t23.5 7q6 0 7 -3q21 -33 50.5 -52
t58.5 -19q18 0 34 8q19 10 26 34z" />
    <glyph glyph-name="uni019D" unicode="&#x19d;" horiz-adv-x="740" 
d="M717.5 699.5q0.5 -3.5 -5.5 -3.5q-36 -2 -54 -21.5t-18 -68.5v-606q0 -8 -5 -8q-6 0 -10 7l-498 638q-4 4 -6 4q-4 0 -4 -6v-636q0 -116 -30 -165t-98 -49q-50 0 -92 21q-7 4 3.5 20t25.5 29.5t19 8.5q18 -20 35.5 -30t38.5 -10q35 0 54 17t27 54.5t8 103.5v157l1 503
q-18 19 -34 27.5t-38 9.5q-6 1 -5.5 4t5.5 3l55 -3h89q19 0 26 -12l412 -539q4 -7 9 -7q4 0 4 8l-1 456q0 49 -18 68.5t-54 21.5q-6 0 -5.5 3.5t5.5 3.5q36 -3 55 -3h44q18 0 54 3q5 0 5.5 -3.5z" />
    <glyph glyph-name="uni01CD" unicode="&#x1cd;" horiz-adv-x="718" 
d="M713 0.5q0 -3.5 -4 -3.5q-30 3 -42 3h-137q-22 0 -67 -3q-7 0 -7 3.5t7 3.5q77 4 77 51q0 16 -8 35l-60 142q-7 8 -16 8q-4 0 -12 -3q-67 -32 -143 -50.5t-154 -22.5q-11 0 -20 -5.5t-12 -14.5v1l-23 -55q-8 -19 -8 -35q0 -47 80 -51q7 0 7 -3q0 -4 -8 -4q-45 3 -69 3
h-43q-12 0 -42 -3q-4 0 -4 3.5t4 3.5q25 1 40 19t36 67l213 511q4 9 4 21q0 13 -5 25l-15 36q-3 10 -13 13q-2 1 -0.5 2.5t5.5 1.5h93q6 0 9.5 -2t5.5 -8l252 -600q20 -49 35 -67t40 -19q4 0 4 -3.5zM453 257q4 9 1 15h1l-144 342l-177 -425v-4q0 -6 3.5 -10t10.5 -4
q78 5 154.5 23.5t137.5 49.5q9 4 13 13zM511 864.5q1 -2.5 -3 -4.5q-41 -17 -62 -37.5t-38 -47.5q-13 -19 -22.5 -27t-26.5 -8q-18 0 -27.5 8t-23.5 28q-18 26 -38.5 46t-59.5 38q-4 2 -3 4.5t5 2.5q25 -1 73 -27t74 -54q26 28 74 54t73 27q4 0 5 -2.5z" />
    <glyph glyph-name="uni01CE" unicode="&#x1ce;" horiz-adv-x="546" 
d="M552.5 160.5q3.5 0.5 3.5 -5.5q0 -54 -15 -92.5t-38.5 -57.5t-49.5 -19q-58 0 -78 100l-9 39q-19 -64 -66.5 -101.5t-103.5 -37.5q-54 0 -91 22t-54.5 57t-16.5 75q1 51 53 82t129 31q64 0 124 -10l-21 96q-11 51 -38 75t-81 24q-63 0 -109 -37.5t-49 -111.5q-1 -7 -5 -7
t-3 7q3 56 35 96t78.5 60.5t93.5 20.5q80 0 119 -31.5t55 -101.5l50 -233q7 -28 15.5 -43t22.5 -15q10 0 20.5 12t18 37.5t7.5 63.5q0 5 3.5 5.5zM356 173l-12 52q-60 12 -105 12q-65 0 -93 -18.5t-28 -67.5q0 -50 29.5 -83.5t87.5 -33.5q110 0 120 116q2 14 1 23z
M403 658.5q1 -3.5 -3 -5.5q-41 -20 -62 -44.5t-38 -56.5q-13 -23 -22.5 -33t-26.5 -10q-18 0 -27.5 9.5t-23.5 33.5q-17 31 -37.5 55.5t-60.5 45.5q-4 2 -3 5.5t5 3.5q25 -2 72.5 -33t74.5 -64q26 34 74 65t73 32q4 0 5 -3.5z" />
    <glyph glyph-name="uni01CF" unicode="&#x1cf;" horiz-adv-x="322" 
d="M95 674.5q-18 19.5 -54 21.5q-6 0 -5.5 3.5t5.5 3.5q36 -3 54 -3h132q18 0 54 3q5 0 5.5 -3.5t-5.5 -3.5q-36 -2 -54 -21.5t-18 -68.5v-512q0 -49 18 -68.5t54 -21.5q6 0 5.5 -3.5t-5.5 -3.5q-36 3 -54 3h-132q-18 0 -54 -3q-5 0 -5.5 3.5t5.5 3.5q36 2 54 21.5t18 68.5
v512q0 49 -18 68.5zM314 864.5q1 -2.5 -3 -4.5q-41 -17 -62 -37.5t-38 -47.5q-13 -19 -22.5 -27t-26.5 -8q-18 0 -27.5 8t-23.5 28q-18 26 -38.5 46t-59.5 38q-4 2 -3 4.5t5 2.5q25 -1 73 -27t74 -54q26 28 74 54t73 27q4 0 5 -2.5z" />
    <glyph glyph-name="uni01D0" unicode="&#x1d0;" horiz-adv-x="275" 
d="M198.5 29.5q15.5 -23.5 44.5 -24.5q5 0 5 -3.5t-5 -3.5q-18 1 -104 1t-105 -1q-5 0 -5 3.5t5 3.5q59 0 59 84v253q0 32 -9.5 47t-33.5 15q-4 0 -18 -2q-4 -1 -4.5 1.5t2.5 3.5q105 26 152 58q4 3 7.5 2t3.5 -5q-6 -45 -8 -72t-2 -65v-236q0 -36 15.5 -59.5zM280 658.5
q1 -3.5 -3 -5.5q-41 -20 -62 -44.5t-38 -56.5q-13 -23 -22.5 -33t-26.5 -10q-18 0 -27.5 9.5t-23.5 33.5q-17 31 -37.5 55.5t-60.5 45.5q-4 2 -3 5.5t5 3.5q25 -2 72.5 -33t74.5 -64q26 34 74 65t73 32q4 0 5 -3.5z" />
    <glyph glyph-name="uni01D1" unicode="&#x1d1;" horiz-adv-x="821" 
d="M207.5 30q-78.5 45 -122.5 125.5t-44 181.5q0 100 50 186.5t138.5 138.5t199.5 52q101 0 181 -45.5t125 -125.5t45 -179q0 -101 -51 -188t-141 -139t-203 -52q-99 0 -177.5 45zM627.5 81q63.5 69 63.5 192q0 100 -45 196t-120.5 157t-161.5 61q-110 0 -172.5 -67.5
t-62.5 -185.5q0 -101 44 -199t118.5 -160.5t159.5 -62.5q113 0 176.5 69zM562 864.5q1 -2.5 -3 -4.5q-41 -17 -62 -37.5t-38 -47.5q-13 -19 -22.5 -27t-26.5 -8q-18 0 -27.5 8t-23.5 28q-18 26 -38.5 46t-59.5 38q-4 2 -3 4.5t5 2.5q25 -1 73 -27t74 -54q26 28 74 54t73 27
q4 0 5 -2.5z" />
    <glyph glyph-name="uni01D2" unicode="&#x1d2;" horiz-adv-x="551" 
d="M140.5 14q-53.5 29 -84 82t-30.5 121t34 125t94 90.5t133 33.5q67 0 121 -29t85.5 -81.5t31.5 -120.5t-35 -125.5t-95.5 -91t-134.5 -33.5q-66 0 -119.5 29zM409 46q38 38 38 112q0 61 -29.5 128t-77 112t-97.5 45q-66 0 -103 -37.5t-37 -111.5q0 -60 29.5 -127.5
t76 -113t95.5 -45.5q67 0 105 38zM428 658.5q1 -3.5 -3 -5.5q-41 -20 -62 -44.5t-38 -56.5q-13 -23 -22.5 -33t-26.5 -10q-18 0 -27.5 9.5t-23.5 33.5q-17 31 -37.5 55.5t-60.5 45.5q-4 2 -3 5.5t5 3.5q25 -2 72.5 -33t74.5 -64q26 34 74 65t73 32q4 0 5 -3.5z" />
    <glyph glyph-name="uni01D3" unicode="&#x1d3;" horiz-adv-x="728" 
d="M231 21q-64 36 -98.5 103t-34.5 156v326q0 49 -15.5 68.5t-47.5 21.5q-5 0 -5 3.5t5 3.5q33 -3 48 -3h133q20 0 65 3q6 0 6.5 -3.5t-6.5 -3.5q-44 -2 -65.5 -21.5t-21.5 -68.5v-330q0 -114 59.5 -181.5t162.5 -67.5q67 0 117 32t77.5 89.5t27.5 133.5l-1 324
q0 49 -21.5 68.5t-65.5 21.5q-7 0 -6.5 3.5t6.5 3.5q45 -3 65 -3h43q16 0 43 3q5 0 5.5 -3.5t-4.5 -3.5q-29 -2 -43.5 -21.5t-14.5 -68.5v-322q0 -91 -32 -158.5t-91.5 -104t-139.5 -36.5q-86 0 -150 36zM547 864.5q1 -2.5 -3 -4.5q-41 -17 -62 -37.5t-38 -47.5
q-13 -19 -22.5 -27t-26.5 -8q-18 0 -27.5 8t-23.5 28q-18 26 -38.5 46t-59.5 38q-4 2 -3 4.5t5 2.5q25 -1 73 -27t74 -54q26 28 74 54t73 27q4 0 5 -2.5z" />
    <glyph glyph-name="uni01D4" unicode="&#x1d4;" horiz-adv-x="563" 
d="M570 160q3 0 3 -5q0 -69 -26.5 -117.5t-73.5 -48.5q-35 0 -57.5 25.5t-22.5 76.5v33q-12 -62 -55 -100.5t-108 -38.5q-73 0 -117 49.5t-44 145.5v162q0 32 -9.5 47t-33.5 15q-4 0 -18 -2q-4 -1 -4.5 1.5t1.5 3.5q43 11 85 26t67 32q5 3 8 2t3 -5q-5 -46 -7 -73t-2 -64
v-146q0 -160 111 -160q56 0 89.5 45t33.5 125v153q0 32 -9.5 47t-33.5 15q-4 0 -18 -2q-4 -1 -4.5 1.5t1.5 3.5q43 11 85 26t67 32q5 3 8 2t3 -5q-5 -46 -7 -73t-2 -64v-216q0 -33 7.5 -48.5t25.5 -15.5q31 0 40.5 29t10.5 81q0 5 3 5zM440 658.5q1 -3.5 -3 -5.5
q-41 -20 -62 -44.5t-38 -56.5q-13 -23 -22.5 -33t-26.5 -10q-18 0 -27.5 9.5t-23.5 33.5q-17 31 -37.5 55.5t-60.5 45.5q-4 2 -3 5.5t5 3.5q25 -2 72.5 -33t74.5 -64q26 34 74 65t73 32q4 0 5 -3.5z" />
    <glyph glyph-name="uni01D5" unicode="&#x1d5;" horiz-adv-x="728" 
d="M231 21q-64 36 -98.5 103t-34.5 156v326q0 49 -15.5 68.5t-47.5 21.5q-5 0 -5 3.5t5 3.5q33 -3 48 -3h133q20 0 65 3q6 0 6.5 -3.5t-6.5 -3.5q-44 -2 -65.5 -21.5t-21.5 -68.5v-330q0 -114 59.5 -181.5t162.5 -67.5q67 0 117 32t77.5 89.5t27.5 133.5l-1 324
q0 49 -21.5 68.5t-65.5 21.5q-7 0 -6.5 3.5t6.5 3.5q45 -3 65 -3h43q16 0 43 3q5 0 5.5 -3.5t-4.5 -3.5q-29 -2 -43.5 -21.5t-14.5 -68.5v-322q0 -91 -32 -158.5t-91.5 -104t-139.5 -36.5q-86 0 -150 36zM281.5 766.5q-14.5 11.5 -14.5 27.5q0 19 16 33t42 14q21 0 35 -11.5
t14 -28.5q-1 -19 -17 -32.5t-41 -13.5q-20 0 -34.5 11.5zM432 766q-14 11 -14 27q0 20 16 34t42 14q20 0 34 -11t14 -27q0 -20 -15.5 -34t-41.5 -14q-21 0 -35 11zM266 880q-8 0 -8 5q0 4 8 4h253q9 0 9 -4q0 -5 -9 -5h-253z" />
    <glyph glyph-name="uni01D6" unicode="&#x1d6;" horiz-adv-x="563" 
d="M570 160q3 0 3 -5q0 -69 -26.5 -117.5t-73.5 -48.5q-35 0 -57.5 25.5t-22.5 76.5v33q-12 -62 -55 -100.5t-108 -38.5q-73 0 -117 49.5t-44 145.5v162q0 32 -9.5 47t-33.5 15q-4 0 -18 -2q-4 -1 -4.5 1.5t1.5 3.5q43 11 85 26t67 32q5 3 8 2t3 -5q-5 -46 -7 -73t-2 -64
v-146q0 -160 111 -160q56 0 89.5 45t33.5 125v153q0 32 -9.5 47t-33.5 15q-4 0 -18 -2q-4 -1 -4.5 1.5t1.5 3.5q43 11 85 26t67 32q5 3 8 2t3 -5q-5 -46 -7 -73t-2 -64v-216q0 -33 7.5 -48.5t25.5 -15.5q31 0 40.5 29t10.5 81q0 5 3 5zM175.5 549.5q-14.5 11.5 -14.5 27.5
q0 19 16 33t42 14q21 0 35 -11.5t14 -28.5q-1 -19 -17 -32.5t-41 -13.5q-20 0 -34.5 11.5zM326 549q-14 11 -14 27q0 20 16 34t42 14q20 0 34 -11t14 -27q0 -20 -15.5 -34t-41.5 -14q-21 0 -35 11zM162 731q-8 0 -8 5q0 4 8 4h253q9 0 9 -4q0 -5 -9 -5h-253z" />
    <glyph glyph-name="uni01D7" unicode="&#x1d7;" horiz-adv-x="728" 
d="M231 21q-64 36 -98.5 103t-34.5 156v326q0 49 -15.5 68.5t-47.5 21.5q-5 0 -5 3.5t5 3.5q33 -3 48 -3h133q20 0 65 3q6 0 6.5 -3.5t-6.5 -3.5q-44 -2 -65.5 -21.5t-21.5 -68.5v-330q0 -114 59.5 -181.5t162.5 -67.5q67 0 117 32t77.5 89.5t27.5 133.5l-1 324
q0 49 -21.5 68.5t-65.5 21.5q-7 0 -6.5 3.5t6.5 3.5q45 -3 65 -3h43q16 0 43 3q5 0 5.5 -3.5t-4.5 -3.5q-29 -2 -43.5 -21.5t-14.5 -68.5v-322q0 -91 -32 -158.5t-91.5 -104t-139.5 -36.5q-86 0 -150 36zM281.5 766.5q-14.5 11.5 -14.5 27.5q0 19 16 33t42 14q21 0 35 -11.5
t14 -28.5q-1 -19 -17 -32.5t-41 -13.5q-20 0 -34.5 11.5zM432 766q-14 11 -14 27q0 20 16 34t42 14q20 0 34 -11t14 -27q0 -20 -15.5 -34t-41.5 -14q-21 0 -35 11zM305 859q-1 3 3 5q49 28 73.5 49.5t45.5 46.5q12 15 20 21q4 2 16 2q18 0 35 -4t16 -11q0 -13 -44 -39.5
t-95.5 -50t-63.5 -23.5q-5 1 -6 4z" />
    <glyph glyph-name="uni01D8" unicode="&#x1d8;" horiz-adv-x="563" 
d="M570 160q3 0 3 -5q0 -69 -26.5 -117.5t-73.5 -48.5q-35 0 -57.5 25.5t-22.5 76.5v33q-12 -62 -55 -100.5t-108 -38.5q-73 0 -117 49.5t-44 145.5v162q0 32 -9.5 47t-33.5 15q-4 0 -18 -2q-4 -1 -4.5 1.5t1.5 3.5q43 11 85 26t67 32q5 3 8 2t3 -5q-5 -46 -7 -73t-2 -64
v-146q0 -160 111 -160q56 0 89.5 45t33.5 125v153q0 32 -9.5 47t-33.5 15q-4 0 -18 -2q-4 -1 -4.5 1.5t1.5 3.5q43 11 85 26t67 32q5 3 8 2t3 -5q-5 -46 -7 -73t-2 -64v-216q0 -33 7.5 -48.5t25.5 -15.5q31 0 40.5 29t10.5 81q0 5 3 5zM175.5 549.5q-14.5 11.5 -14.5 27.5
q0 19 16 33t42 14q21 0 35 -11.5t14 -28.5q-1 -19 -17 -32.5t-41 -13.5q-20 0 -34.5 11.5zM326 549q-14 11 -14 27q0 20 16 34t42 14q20 0 34 -11t14 -27q0 -20 -15.5 -34t-41.5 -14q-21 0 -35 11zM251 652q-1 3 3 6q41 32 59.5 60t31.5 59q7 18 12 24.5t15 7.5q20 2 31 2
q33 0 33 -8q0 -14 -38.5 -50t-83.5 -69.5t-57 -34.5q-5 0 -6 3z" />
    <glyph glyph-name="uni01D9" unicode="&#x1d9;" horiz-adv-x="728" 
d="M231 21q-64 36 -98.5 103t-34.5 156v326q0 49 -15.5 68.5t-47.5 21.5q-5 0 -5 3.5t5 3.5q33 -3 48 -3h133q20 0 65 3q6 0 6.5 -3.5t-6.5 -3.5q-44 -2 -65.5 -21.5t-21.5 -68.5v-330q0 -114 59.5 -181.5t162.5 -67.5q67 0 117 32t77.5 89.5t27.5 133.5l-1 324
q0 49 -21.5 68.5t-65.5 21.5q-7 0 -6.5 3.5t6.5 3.5q45 -3 65 -3h43q16 0 43 3q5 0 5.5 -3.5t-4.5 -3.5q-29 -2 -43.5 -21.5t-14.5 -68.5v-322q0 -91 -32 -158.5t-91.5 -104t-139.5 -36.5q-86 0 -150 36zM281.5 766.5q-14.5 11.5 -14.5 27.5q0 19 16 33t42 14q21 0 35 -11.5
t14 -28.5q-1 -19 -17 -32.5t-41 -13.5q-20 0 -34.5 11.5zM432 766q-14 11 -14 27q0 20 16 34t42 14q20 0 34 -11t14 -27q0 -20 -15.5 -34t-41.5 -14q-21 0 -35 11zM544 979.5q1 -2.5 -3 -4.5q-41 -17 -62 -37.5t-38 -47.5q-13 -19 -22.5 -27t-26.5 -8q-18 0 -27.5 8
t-23.5 28q-18 26 -38.5 46t-59.5 38q-4 2 -3 4.5t5 2.5q25 -1 73 -27t74 -54q26 28 74 54t73 27q4 0 5 -2.5z" />
    <glyph glyph-name="uni01DA" unicode="&#x1da;" horiz-adv-x="563" 
d="M570 160q3 0 3 -5q0 -69 -26.5 -117.5t-73.5 -48.5q-35 0 -57.5 25.5t-22.5 76.5v33q-12 -62 -55 -100.5t-108 -38.5q-73 0 -117 49.5t-44 145.5v162q0 32 -9.5 47t-33.5 15q-4 0 -18 -2q-4 -1 -4.5 1.5t1.5 3.5q43 11 85 26t67 32q5 3 8 2t3 -5q-5 -46 -7 -73t-2 -64
v-146q0 -160 111 -160q56 0 89.5 45t33.5 125v153q0 32 -9.5 47t-33.5 15q-4 0 -18 -2q-4 -1 -4.5 1.5t1.5 3.5q43 11 85 26t67 32q5 3 8 2t3 -5q-5 -46 -7 -73t-2 -64v-216q0 -33 7.5 -48.5t25.5 -15.5q31 0 40.5 29t10.5 81q0 5 3 5zM175.5 549.5q-14.5 11.5 -14.5 27.5
q0 19 16 33t42 14q21 0 35 -11.5t14 -28.5q-1 -19 -17 -32.5t-41 -13.5q-20 0 -34.5 11.5zM326 549q-14 11 -14 27q0 20 16 34t42 14q20 0 34 -11t14 -27q0 -20 -15.5 -34t-41.5 -14q-21 0 -35 11zM440 799.5q1 -3.5 -3 -5.5q-41 -20 -62 -44.5t-38 -56.5q-13 -23 -22.5 -33
t-26.5 -10q-18 0 -27.5 9.5t-23.5 33.5q-17 31 -37.5 55.5t-60.5 45.5q-4 2 -3 5.5t5 3.5q25 -2 72.5 -33t74.5 -64q26 34 74 65t73 32q4 0 5 -3.5z" />
    <glyph glyph-name="uni01DB" unicode="&#x1db;" horiz-adv-x="728" 
d="M231 21q-64 36 -98.5 103t-34.5 156v326q0 49 -15.5 68.5t-47.5 21.5q-5 0 -5 3.5t5 3.5q33 -3 48 -3h133q20 0 65 3q6 0 6.5 -3.5t-6.5 -3.5q-44 -2 -65.5 -21.5t-21.5 -68.5v-330q0 -114 59.5 -181.5t162.5 -67.5q67 0 117 32t77.5 89.5t27.5 133.5l-1 324
q0 49 -21.5 68.5t-65.5 21.5q-7 0 -6.5 3.5t6.5 3.5q45 -3 65 -3h43q16 0 43 3q5 0 5.5 -3.5t-4.5 -3.5q-29 -2 -43.5 -21.5t-14.5 -68.5v-322q0 -91 -32 -158.5t-91.5 -104t-139.5 -36.5q-86 0 -150 36zM281.5 766.5q-14.5 11.5 -14.5 27.5q0 19 16 33t42 14q21 0 35 -11.5
t14 -28.5q-1 -19 -17 -32.5t-41 -13.5q-20 0 -34.5 11.5zM432 766q-14 11 -14 27q0 20 16 34t42 14q20 0 34 -11t14 -27q0 -20 -15.5 -34t-41.5 -14q-21 0 -35 11zM364.5 878.5q-51.5 23.5 -95.5 50t-44 39.5q-1 7 16 11t35 4q12 0 16 -2q8 -6 20 -21q21 -25 45.5 -46.5
t73.5 -49.5q4 -2 4 -4q0 -3 -7 -5q-12 0 -63.5 23.5z" />
    <glyph glyph-name="uni01DC" unicode="&#x1dc;" horiz-adv-x="563" 
d="M570 160q3 0 3 -5q0 -69 -26.5 -117.5t-73.5 -48.5q-35 0 -57.5 25.5t-22.5 76.5v33q-12 -62 -55 -100.5t-108 -38.5q-73 0 -117 49.5t-44 145.5v162q0 32 -9.5 47t-33.5 15q-4 0 -18 -2q-4 -1 -4.5 1.5t1.5 3.5q43 11 85 26t67 32q5 3 8 2t3 -5q-5 -46 -7 -73t-2 -64
v-146q0 -160 111 -160q56 0 89.5 45t33.5 125v153q0 32 -9.5 47t-33.5 15q-4 0 -18 -2q-4 -1 -4.5 1.5t1.5 3.5q43 11 85 26t67 32q5 3 8 2t3 -5q-5 -46 -7 -73t-2 -64v-216q0 -33 7.5 -48.5t25.5 -15.5q31 0 40.5 29t10.5 81q0 5 3 5zM175.5 549.5q-14.5 11.5 -14.5 27.5
q0 19 16 33t42 14q21 0 35 -11.5t14 -28.5q-1 -19 -17 -32.5t-41 -13.5q-20 0 -34.5 11.5zM326 549q-14 11 -14 27q0 20 16 34t42 14q20 0 34 -11t14 -27q0 -20 -15.5 -34t-41.5 -14q-21 0 -35 11zM277 684.5q-45 31.5 -83 67t-38 52.5q0 8 34 8q12 0 30 -2q9 -1 14.5 -7.5
t12.5 -23.5q13 -32 31.5 -59.5t59.5 -60.5q4 -3 3 -6t-6 -2q-13 2 -58 33.5z" />
    <glyph glyph-name="Gcaron" unicode="&#x1e6;" horiz-adv-x="703" 
d="M209 28.5q-77 43.5 -122.5 123.5t-45.5 184q0 108 52 194t138 134t184 48q67 0 122.5 -18.5t87 -48t31.5 -58.5q0 -8 -1 -12l-69 -211q-2 -5 -6 -4.5t-1 6.5q18 44 18 93q0 61 -30 116q-28 54 -77 82t-109 28q-253 0 -253 -245q0 -120 49 -218t121 -153t137 -55
q73 0 119.5 19t56.5 71q1 28 -18 154q-12 27 -49 41.5t-122 22.5q-5 1 -4.5 4.5t5.5 2.5q62 -4 99 -4q69 0 139 7l11 1q6 0 8.5 -2t2.5 -7q0 -4 -3.5 -14.5t-4.5 -28.5q-3 -67 -3 -148q0 -8 -2 -12.5t-8 -12.5q-55 -63 -125.5 -93t-160.5 -30t-167 43.5zM530 864.5
q1 -2.5 -3 -4.5q-41 -17 -62 -37.5t-38 -47.5q-13 -19 -22.5 -27t-26.5 -8q-18 0 -27.5 8t-23.5 28q-18 26 -38.5 46t-59.5 38q-4 2 -3 4.5t5 2.5q25 -1 73 -27t74 -54q26 28 74 54t73 27q4 0 5 -2.5z" />
    <glyph glyph-name="gcaron" unicode="&#x1e7;" horiz-adv-x="481" 
d="M446 -17q30 -31 30 -74q0 -37 -20 -65t-52 -42.5t-66 -14.5q-87 0 -143 74q-41 -17 -82 -17q-48 0 -76 27t-28 68q0 82 103 133q-47 24 -75 68.5t-28 103.5q0 61 30.5 111.5t83.5 80t117 29.5q34 0 90 -4q7 0 40 -2.5t74 -1.5q4 0 4 -3q0 -2 -3 -4t-8 -2l-39 1
q-70 0 -50 -13q45 -26 72.5 -70.5t27.5 -101.5q0 -58 -31 -107.5t-84.5 -78.5t-117.5 -29q-50 0 -95 20q-35 -17 -53 -34.5t-18 -47.5q0 -24 16 -39.5t41 -15.5q28 0 52.5 9t61.5 28q42 22 74.5 33.5t72.5 11.5q49 0 79 -31zM112 411q-33 -34 -33 -102q0 -57 22 -113.5
t60.5 -92t85.5 -35.5q63 0 97.5 34t34.5 102q0 55 -23.5 111.5t-63.5 93t-86 36.5q-61 0 -94 -34zM414 -183q23 14 23 51q0 25 -17 41.5t-46 16.5q-37 0 -65 -10.5t-69 -31.5q-20 -12 -38 -20q23 -26 59 -43.5t83 -17.5t70 14zM390 658.5q1 -3.5 -3 -5.5q-41 -20 -62 -44.5
t-38 -56.5q-13 -23 -22.5 -33t-26.5 -10q-18 0 -27.5 9.5t-23.5 33.5q-17 31 -37.5 55.5t-60.5 45.5q-4 2 -3 5.5t5 3.5q25 -2 72.5 -33t74.5 -64q26 34 74 65t73 32q4 0 5 -3.5z" />
    <glyph glyph-name="uni01EA" unicode="&#x1ea;" horiz-adv-x="821" 
d="M560 -4q-12 -23 -12 -47q0 -23 12.5 -35.5t33.5 -12.5q56 0 56 58q0 5 3.5 5t3.5 -5q0 -43 -26 -68t-70 -25q-33 0 -52.5 16t-19.5 44q0 48 58 91q-75 -32 -162 -32q-99 0 -177.5 45t-122.5 125.5t-44 181.5q0 100 50 186.5t138.5 138.5t199.5 52q101 0 181 -45.5
t125 -125.5t45 -179q0 -96 -47 -180.5t-129 -136.5q-32 -28 -44 -51zM173 235q44 -98 118.5 -160.5t159.5 -62.5q113 0 176.5 69t63.5 192q0 100 -45 196t-120.5 157t-161.5 61q-110 0 -172.5 -67.5t-62.5 -185.5q0 -101 44 -199z" />
    <glyph glyph-name="uni01EB" unicode="&#x1eb;" horiz-adv-x="551" 
d="M352 -31.5q-12 -22.5 -12 -46.5q0 -23 12.5 -35.5t33.5 -12.5q56 0 56 58q0 5 3.5 5t3.5 -5q0 -43 -26 -68t-70 -25q-33 0 -52.5 16t-19.5 44q0 53 74 102q-46 -16 -95 -16q-66 0 -119.5 29t-84 82t-30.5 121t34 125t94 90.5t133 33.5q67 0 121 -29t85.5 -81.5
t31.5 -120.5t-35 -125t-94 -90q-32 -29 -44 -51.5zM409 46q38 38 38 112q0 61 -29.5 128t-77 112t-97.5 45q-66 0 -103 -37.5t-37 -111.5q0 -60 29.5 -127.5t76 -113t95.5 -45.5q67 0 105 38z" />
    <glyph glyph-name="Aringacute" unicode="&#x1fa;" horiz-adv-x="718" 
d="M245 858q-1 3 3 5q44 25 65.5 44t42.5 42q8 11 18 19q4 2 14 2q16 0 31.5 -4t14.5 -10q0 -12 -40 -36t-86 -45t-57 -20q-5 0 -6 3zM406 845q27 -19 27 -50t-28.5 -54t-69.5 -23q-36 0 -61 19.5t-25 51.5q0 29 27 52t65 23t65 -19zM399 769q0 17 -11 37t-28 33.5t-35 13.5
q-40 0 -40 -39q0 -17 11 -37t28 -33.5t35 -13.5q40 0 40 39zM713 0.5q0 -3.5 -4 -3.5q-30 3 -42 3h-137q-22 0 -67 -3q-7 0 -7 3.5t7 3.5q77 4 77 51q0 16 -8 35l-60 142q-7 8 -16 8q-4 0 -12 -3q-67 -32 -143 -50.5t-154 -22.5q-11 0 -20 -5.5t-12 -14.5v1l-23 -55
q-8 -19 -8 -35q0 -47 80 -51q7 0 7 -3q0 -4 -8 -4q-45 3 -69 3h-43q-12 0 -42 -3q-4 0 -4 3.5t4 3.5q25 1 40 19t36 67l213 511q4 9 4 21q0 13 -5 25l-15 36q-3 10 -13 13q-2 1 -0.5 2.5t5.5 1.5h93q6 0 9.5 -2t5.5 -8l252 -600q20 -49 35 -67t40 -19q4 0 4 -3.5zM453 257
q4 9 1 15h1l-144 342l-177 -425v-4q0 -6 3.5 -10t10.5 -4q78 5 154.5 23.5t137.5 49.5q9 4 13 13z" />
    <glyph glyph-name="aringacute" unicode="&#x1fb;" horiz-adv-x="546" 
d="M552.5 160.5q3.5 0.5 3.5 -5.5q0 -54 -15 -92.5t-38.5 -57.5t-49.5 -19q-58 0 -78 100l-9 39q-19 -64 -66.5 -101.5t-103.5 -37.5q-54 0 -91 22t-54.5 57t-16.5 75q1 51 53 82t129 31q64 0 124 -10l-21 96q-11 51 -38 75t-81 24q-63 0 -109 -37.5t-49 -111.5q-1 -7 -5 -7
t-3 7q3 56 35 96t78.5 60.5t93.5 20.5q80 0 119 -31.5t55 -101.5l50 -233q7 -28 15.5 -43t22.5 -15q10 0 20.5 12t18 37.5t7.5 63.5q0 5 3.5 5.5zM356 173l-12 52q-60 12 -105 12q-65 0 -93 -18.5t-28 -67.5q0 -50 29.5 -83.5t87.5 -33.5q110 0 120 116q2 14 1 23z
M184.5 522q-25.5 22 -25.5 58q0 33 28.5 59t68.5 26q38 0 65.5 -22t27.5 -56q0 -35 -29.5 -61t-71.5 -26q-38 0 -63.5 22zM302 523.5q11 9.5 11 33.5q0 19 -11 41.5t-29 38t-36 15.5q-41 0 -41 -44q0 -20 11 -42t28.5 -37t36.5 -15t30 9.5zM214 684q-1 3 3 6q41 32 59.5 60
t31.5 59q7 18 12 24.5t15 7.5q20 2 31 2q33 0 33 -8q0 -14 -38.5 -50t-83.5 -69.5t-57 -34.5q-5 0 -6 3z" />
    <glyph glyph-name="AEacute" unicode="&#x1fc;" horiz-adv-x="1020" 
d="M994 260q4 0 2 -8q-20 -130 -22 -241q-1 -13 -6 -17.5t-14 -4.5q-4 0 -22 2q-72 9 -150 9h-295q-18 0 -54 -3q-5 0 -5.5 3.5t5.5 3.5q36 2 54 21.5t18 68.5v158q0 10 -8 10q-7 0 -20 -7q-46 -22 -98 -34t-105 -12q-27 0 -54 3h-3q-15 0 -26 -13l-79 -114q-16 -23 -16 -39
q0 -20 20.5 -30.5t51.5 -11.5q7 0 7 -3q0 -4 -7 -4q-42 3 -65 3h-45q-15 0 -48 -3q-5 0 -5 3.5t5 3.5q27 1 43.5 17t49.5 64l376 542q11 17 11 31q0 10 -5 18q-9 10 -23 15l-4 1q-16 4 -25 4q-6 0 -5.5 3.5t5.5 3.5q36 -3 54 -3h280q62 0 129 8q18 3 27 3q8 0 12.5 -4.5
t5.5 -17.5q2 -84 23 -243q1 -4 -1.5 -4.5t-3.5 3.5q-24 101 -39 140t-36 61q-26 29 -83 38t-176 9q-24 0 -24 -33v-260q0 -10 4.5 -17.5t15.5 -7.5q77 0 98 3q18 2 29.5 10.5t22.5 30t23 63.5q1 6 4 6t2 -6q-7 -39 -7 -93q0 -72 12 -141q1 -5 -2 -5.5t-4 5.5
q-19 63 -37 88.5t-43 28.5q-31 3 -98 3q-11 0 -15.5 -8.5t-4.5 -18.5v-287q0 -47 31 -47q122 0 189 11.5t95 38.5q25 23 41.5 67.5t32.5 128.5q1 7 4 7zM496 278.5q9 10.5 9 22.5v147q0 126 -9 181q-1 3 -3 3t-4 -2l-275 -398q-2 -4 -2 -6q0 -6 12 -8q24 -3 49 -3
q108 0 202 47q12 6 21 16.5zM639 744q-1 3 3 5q49 28 73.5 49.5t45.5 46.5q12 15 20 21q4 2 16 2q18 0 35 -4t16 -11q0 -13 -44 -39.5t-95.5 -50t-63.5 -23.5q-5 1 -6 4z" />
    <glyph glyph-name="aeacute" unicode="&#x1fd;" horiz-adv-x="797" 
d="M772.5 86q2.5 -2 0.5 -5q-38 -48 -90 -71.5t-112 -23.5q-71 0 -129 38.5t-82 104.5q-19 -65 -67.5 -104t-105.5 -39q-54 0 -90.5 22t-54 57t-16.5 75q1 51 53 82t128 31q65 0 125 -10l-21 96q-12 51 -39 75t-80 24q-63 0 -109 -37.5t-49 -111.5q-1 -7 -5 -7t-3 7
q3 56 34.5 96t78 60.5t94.5 20.5q118 0 154 -107q33 50 87.5 78.5t117.5 28.5q75 0 124.5 -42t49.5 -113q0 -35 -11 -68q-82 -1 -332 -8q12 -59 47.5 -105t82.5 -71t92 -25q83 0 124 52q1 2 3.5 0zM453 409.5q-35 -39.5 -35 -119.5q0 -28 4 -49l118 4q43 3 133 5q8 16 8 40
q0 35 -18 72.5t-47.5 62t-61.5 24.5q-66 0 -101 -39.5zM347 177l-11 48q-60 12 -106 12q-64 0 -92 -18.5t-28 -67.5q0 -50 29.5 -83.5t87.5 -33.5q110 0 119 116q3 10 1 27zM345 511q-1 3 3 6q41 32 59.5 60t31.5 59q7 18 12 24.5t15 7.5q20 2 31 2q33 0 33 -8
q0 -14 -38.5 -50t-83.5 -69.5t-57 -34.5q-5 0 -6 3z" />
    <glyph glyph-name="Oslashacute" unicode="&#x1fe;" horiz-adv-x="821" 
d="M621 662q74 -46 116.5 -124t42.5 -174q0 -101 -51 -188t-141 -139t-203 -52q-98 0 -180 46l-64 -97q-1 -3 -4 -3q-2 0 -3 2t1 6l64 96q-74 45 -116 124t-42 178q0 100 50 186.5t138.5 138.5t199.5 52q104 0 186 -48l64 97q3 4 5 4t2.5 -2.5t-1.5 -6.5zM162 262.5
q33 -85.5 88 -148.5l315 476q-43 46 -94.5 71.5t-106.5 25.5q-110 0 -172.5 -67.5t-62.5 -185.5q0 -86 33 -171.5zM627.5 81q63.5 69 63.5 192q0 84 -32.5 167.5t-88.5 143.5l-314 -476q42 -45 92 -70.5t103 -25.5q113 0 176.5 69zM317 744q-1 3 3 5q49 28 73.5 49.5
t45.5 46.5q12 15 20 21q4 2 16 2q18 0 35 -4t16 -11q0 -13 -44 -39.5t-95.5 -50t-63.5 -23.5q-5 1 -6 4z" />
    </font>
</defs>
</svg>
