<?xml version="1.0" standalone="no"?>
<!DOCTYPE svg PUBLIC "-//W3C//DTD SVG 1.1//EN" "http://www.w3.org/Graphics/SVG/1.1/DTD/svg11.dtd" >
<svg xmlns="http://www.w3.org/2000/svg" xmlns:xlink="http://www.w3.org/1999/xlink" version="1.1">
<metadata>
Created by FontForge 20170731 at Tue Apr  5 20:07:02 2022
 By Aleksey,,,
(c) Bayerische Motoren Werke AG (BMW AG) 2019, 2020, 2021. The font is subject to copyright protection and other intellectual property rights. All rights reserved.
</metadata>
<defs>
<font id="BMWTypeNext-Thin" horiz-adv-x="2263" >
  <font-face 
    font-family="BMWTypeNext Thin"
    font-weight="250"
    font-stretch="normal"
    units-per-em="2048"
    panose-1="0 0 0 0 0 0 0 0 0 0"
    ascent="1597"
    descent="-451"
    x-height="1081"
    cap-height="1544"
    bbox="-260 -573 2705 2161"
    underline-thickness="102"
    underline-position="-462"
    unicode-range="U+000D-FB02"
  />
<missing-glyph horiz-adv-x="1228" 
d="M102 0v1544h1024v-1544h-1024zM657 772l398 -643v1284zM571 772l-397 641v-1284zM614 842l392 633h-783zM614 702l-391 -632h783z" />
    <glyph glyph-name=".notdef" horiz-adv-x="1228" 
d="M102 0v1544h1024v-1544h-1024zM657 772l398 -643v1284zM571 772l-397 641v-1284zM614 842l392 633h-783zM614 702l-391 -632h783z" />
    <glyph glyph-name="uni0000" horiz-adv-x="0" 
 />
    <glyph glyph-name="uni0000" horiz-adv-x="0" 
 />
    <glyph glyph-name="uni000D" unicode="&#xd;" horiz-adv-x="530" 
 />
    <glyph glyph-name="space" unicode=" " horiz-adv-x="530" 
 />
    <glyph glyph-name="exclam" unicode="!" horiz-adv-x="538" 
d="M332 492h-82q-2 61 -2 806v246h86v-246q0 -745 -2 -806zM350 0h-119v258h119v-258z" />
    <glyph glyph-name="quotedbl" unicode="&#x22;" horiz-adv-x="761" 
d="M201 948q-8 244 -8 445v151h100v-151q0 -201 -8 -445h-84zM477 948q-8 244 -8 445v151h100v-151q0 -201 -8 -445h-84z" />
    <glyph glyph-name="numbersign" unicode="#" horiz-adv-x="1331" 
d="M346 0h-82l66 422h-246v80h258l84 547h-248v79h260l64 416h82l-64 -416h400l63 416h82l-64 -416h246v-79h-258l-84 -547h248v-80h-260l-66 -422h-82l66 422h-399zM424 502h399l84 547h-399z" />
    <glyph glyph-name="dollar" unicode="$" horiz-adv-x="1331" 
d="M713 -231h-82v229q-164 7 -428 70v84q300 -72 459 -72q97 0 158.5 15t121.5 55q115 78 115 245q0 129 -51 189q-30 33 -72.5 54t-120.5 50l-317 113q-68 24 -106.5 39.5t-83.5 43t-66 58.5q-30 43 -41 94t-11 127q0 68 23 141.5t74 127.5q52 54 134 79.5t212 30.5v213h82
v-215q160 -15 385 -78v-86q-314 84 -451 84q-200 0 -280 -69q-93 -78 -93 -234q0 -67 9 -107t39 -71q41 -44 192 -96l344 -121q89 -32 145 -67t91 -87q49 -72 49 -213q0 -177 -109 -280q-112 -104 -321 -117v-229z" />
    <glyph glyph-name="percent" unicode="%" horiz-adv-x="2064" 
d="M1599 881q167 0 242 -115q38 -58 49 -136t11 -210q0 -118 -13.5 -196.5t-48.5 -131.5q-75 -115 -240 -115q-156 0 -227 86q-39 48 -55.5 128t-16.5 229q0 150 10.5 226.5t47.5 129.5q75 105 241 105zM1595 801q-111 0 -163 -64q-34 -42 -42 -106.5t-8 -210.5
q0 -113 9 -183t36 -112q26 -38 65.5 -53t106.5 -15q128 0 179 93q25 45 33 108t8 162q0 124 -9 191.5t-38 111.5q-54 78 -177 78zM725 0h-90l729 1544h90zM463 1567q167 0 242 -115q38 -57 48.5 -135t10.5 -211q0 -118 -13.5 -196.5t-48.5 -131.5q-74 -114 -239 -114
q-156 0 -227 86q-39 48 -55.5 128t-16.5 228q0 151 10 227t47 129q75 105 242 105zM459 1487q-112 0 -164 -64q-34 -42 -41.5 -105.5t-7.5 -211.5q0 -113 9 -183t36 -112q26 -38 65.5 -53t106.5 -15q127 0 178 93q25 45 33 108t8 162q0 124 -9 191.5t-38 111.5
q-54 78 -176 78z" />
    <glyph glyph-name="ampersand" unicode="&#x26;" horiz-adv-x="1452" 
d="M1397 0h-117l-260 281q-46 -55 -66 -78t-51 -54t-69 -63q-142 -121 -330 -121q-176 0 -266 94q-97 100 -97 291q0 98 31 176.5t111 171.5q59 69 184 172q-33 33 -74 88q-98 135 -98 281q0 171 106 262q92 78 267 78q103 0 327 -57v-84q-222 59 -327 59q-141 0 -207 -55
q-47 -37 -63.5 -83.5t-16.5 -115.5q0 -51 12 -95.5t26 -69t38 -60.5q64 -94 374 -404h-116l-189 193q-106 -83 -194 -182q-59 -67 -82 -133.5t-23 -147.5q0 -157 78 -229q71 -68 199 -68q117 0 217 64q94 60 217 206l244 297h112l-219 -266z" />
    <glyph glyph-name="quotesingle" unicode="'" horiz-adv-x="485" 
d="M201 948q-8 244 -8 445v151h100v-151q0 -201 -8 -445h-84z" />
    <glyph glyph-name="parenleft" unicode="(" horiz-adv-x="643" 
d="M569 -432q-197 58 -286 194q-24 36 -39 76t-20.5 89.5t-7 81.5t-1.5 91v955q0 78 2.5 121t18 105.5t47.5 109.5q90 135 286 196v-86q-78 -33 -130.5 -71t-88.5 -95q-24 -39 -36 -91.5t-13.5 -90.5t-1.5 -113v-925q0 -75 1.5 -113.5t13.5 -92t36 -91.5q38 -60 89 -96
t130 -68v-86z" />
    <glyph glyph-name="parenright" unicode=")" horiz-adv-x="643" 
d="M74 -432v86q79 32 130 68t89 96q24 38 36 91.5t13.5 92t1.5 113.5v925q0 75 -1.5 113t-13.5 90.5t-36 91.5q-36 57 -88.5 95t-130.5 71v86q196 -61 286 -196q32 -47 47.5 -109.5t18 -105.5t2.5 -121v-955q0 -59 -1.5 -91t-7 -81.5t-20.5 -89.5t-39 -76
q-89 -136 -286 -194z" />
    <glyph glyph-name="asterisk" unicode="*" horiz-adv-x="1091" 
d="M584 758h-76l2 323l-307 -172v88l280 154l-280 154v88l307 -172l-2 323h76l-2 -323l307 172v-88l-281 -154l281 -154v-88l-307 172z" />
    <glyph glyph-name="plus" unicode="+" horiz-adv-x="1433" 
d="M758 229h-84v502h-492v82h492v502h84v-502h493v-82h-493v-502z" />
    <glyph glyph-name="comma" unicode="," horiz-adv-x="489" 
d="M225 -346h-80q27 124 37.5 215.5t10.5 257.5v131h112v-207q0 -182 -80 -397z" />
    <glyph glyph-name="uni00AD" unicode="-" horiz-adv-x="815" 
d="M662 498h-508v86h508v-86z" />
    <glyph glyph-name="uni00AD" unicode="&#x2011;" horiz-adv-x="815" 
d="M662 498h-508v86h508v-86z" />
    <glyph glyph-name="uni00AD" unicode="&#x2010;" horiz-adv-x="815" 
d="M662 498h-508v86h508v-86z" />
    <glyph glyph-name="uni00AD" unicode="&#xad;" horiz-adv-x="815" 
d="M662 498h-508v86h508v-86z" />
    <glyph glyph-name="period" unicode="." horiz-adv-x="489" 
d="M305 0h-121v258h121v-258z" />
    <glyph glyph-name="slash" unicode="/" horiz-adv-x="729" 
d="M123 0h-92l575 1544h92z" />
    <glyph glyph-name="zero" unicode="0" horiz-adv-x="1331" 
d="M662 1579q250 0 356 -193q100 -185 100 -598q0 -445 -92 -622q-53 -101 -138 -151t-224 -50q-129 0 -211.5 38t-133.5 120q-106 166 -106 649q0 233 19 377t77 250q48 87 138 133.5t215 46.5zM659 1497q-173 0 -256 -108q-61 -77 -82.5 -221t-21.5 -394
q0 -226 20.5 -378.5t73.5 -231.5q42 -63 106.5 -90t166.5 -27q105 0 175 37.5t113 126.5q78 160 78 571q0 422 -96 580q-82 135 -277 135z" />
    <glyph glyph-name="one" unicode="1" horiz-adv-x="1331" 
d="M795 0h-84v1468l-461 -149v88l545 178v-1585z" />
    <glyph glyph-name="two" unicode="2" horiz-adv-x="1331" 
d="M1122 0h-958v92q170 195 366 425.5t252 301.5q105 134 149 217t44 187q0 132 -64 196q-42 41 -101.5 59.5t-158.5 18.5q-142 0 -413 -80v84q87 27 205.5 52.5t207.5 25.5q121 0 202.5 -28t135.5 -91q40 -50 56 -104.5t16 -132.5q0 -110 -47 -209t-146 -223
q-279 -348 -604 -709h858v-82z" />
    <glyph glyph-name="three" unicode="3" horiz-adv-x="1331" 
d="M207 10v84q266 -47 381 -47q186 0 280 68q125 96 125 286q0 227 -159 322q-37 23 -79.5 29t-125.5 6h-267v82h426l103 139q92 126 92 254q0 120 -65 182q-85 82 -283 82q-136 0 -416 -70v84q256 68 416 68q128 0 210.5 -25.5t139.5 -85.5q42 -42 63 -105.5t21 -131.5
q0 -140 -96 -281q-47 -68 -109 -149q71 -39 123 -101q92 -114 92 -294q0 -206 -116 -322q-66 -64 -156 -91.5t-221 -27.5q-126 0 -379 45z" />
    <glyph glyph-name="four" unicode="4" horiz-adv-x="1331" 
d="M1038 0h-84v358h-837v80l727 1106h102l-725 -1104h733v408h84v-848z" />
    <glyph glyph-name="five" unicode="5" horiz-adv-x="1331" 
d="M225 6v84q215 -43 369 -43q109 0 185.5 24.5t127.5 82.5q92 109 92 295q0 199 -110 282q-58 45 -149 62.5t-283 17.5h-209v733h788v-82h-704v-569h186q257 0 377 -66q100 -55 145 -154t45 -222q0 -224 -108 -347q-70 -79 -161 -109t-228 -30q-140 0 -363 41z" />
    <glyph glyph-name="six" unicode="6" horiz-adv-x="1331" 
d="M1032 1485q-360 -73 -528 -238q-133 -133 -164 -362q135 6 276 6q156 0 251 -29.5t161 -99.5q98 -103 98 -305q0 -203 -82 -324q-58 -83 -142 -125.5t-228 -42.5q-140 0 -226.5 45.5t-140.5 139.5q-74 129 -74 403q0 69 1.5 117t7.5 126.5t20 141t37 132.5t61 130.5
t89 108.5q199 186 583 260v-84zM330 803q-11 -108 -11 -250q0 -252 62 -363q78 -143 293 -143q110 0 179 29.5t116 95.5q71 98 71 285q0 170 -75 250q-54 60 -135.5 81t-215.5 21q-113 0 -284 -6z" />
    <glyph glyph-name="seven" unicode="7" horiz-adv-x="1331" 
d="M389 0h-98l768 1462h-930v82h1024v-86z" />
    <glyph glyph-name="eight" unicode="8" horiz-adv-x="1331" 
d="M436 811q-85 37 -135 109q-65 98 -65 262q0 204 135 309q115 88 303 88q111 0 193.5 -31.5t144.5 -105.5q41 -49 62.5 -118.5t21.5 -141.5q0 -145 -88 -267q-49 -68 -125 -143q116 -40 170 -100q98 -101 98 -279q0 -191 -119 -307q-68 -65 -155.5 -93t-210.5 -28
q-236 0 -361 101q-64 51 -94.5 126.5t-30.5 196.5q0 168 111 293q52 60 145 129zM528 778q-128 -90 -178 -151q-84 -105 -84 -238q0 -92 19.5 -153t70.5 -103q57 -46 130 -66t180 -20q182 0 280 76q119 91 119 268q0 208 -150 279q-46 22 -113.5 42.5t-116 31.5t-157.5 34z
M795 799q96 96 143 162q72 102 72 221q0 139 -74 219q-86 96 -262 96q-173 0 -273 -92q-79 -76 -79 -223q0 -111 27 -179t85 -102q86 -49 361 -102z" />
    <glyph glyph-name="nine" unicode="9" horiz-adv-x="1331" 
d="M242 4v84q197 -41 325 -41q147 0 258 80q56 41 98 117.5t60 161.5q29 129 29 268q-213 -31 -361 -31q-152 0 -242.5 35.5t-140.5 112.5q-38 60 -50.5 124.5t-12.5 161.5q0 212 63 320q107 182 373 182q247 0 356 -184q101 -170 101 -631q0 -134 -6 -210t-25 -161
q-44 -195 -147 -295q-69 -67 -153 -100t-204 -33q-122 0 -321 39zM1012 756q0 206 -15 348.5t-65 234.5q-81 158 -293 158q-200 0 -281 -119q-40 -59 -53.5 -127t-13.5 -174q0 -87 10.5 -144.5t40.5 -101.5q73 -106 295 -106q122 0 375 31z" />
    <glyph glyph-name="colon" unicode=":" horiz-adv-x="489" 
d="M305 0h-121v258h121v-258zM305 823h-121v258h121v-258z" />
    <glyph glyph-name="semicolon" unicode=";" horiz-adv-x="489" 
d="M225 -346h-80q27 124 37.5 215.5t10.5 257.5v131h112v-207q0 -182 -80 -397zM305 823h-121v258h121v-258z" />
    <glyph glyph-name="less" unicode="&#x3c;" horiz-adv-x="1433" 
d="M1251 219l-1069 510v86l1069 510v-94l-966 -459l966 -459v-94z" />
    <glyph glyph-name="equal" unicode="=" horiz-adv-x="1433" 
d="M1251 516h-1069v82h1069v-82zM1251 946h-1069v82h1069v-82z" />
    <glyph glyph-name="greater" unicode="&#x3e;" horiz-adv-x="1433" 
d="M182 219v94l967 459l-967 459v94l1069 -510v-86z" />
    <glyph glyph-name="question" unicode="?" horiz-adv-x="1013" 
d="M430 492h-94q31 78 64.5 131.5t115.5 142.5q73 78 109.5 120.5t68.5 90.5q47 70 67.5 128t20.5 134q0 131 -71 197q-67 61 -209 61q-102 0 -346 -65v84q222 63 340 63q177 0 272 -82q100 -87 100 -258q0 -164 -96 -299q-62 -88 -180 -217q-80 -87 -114 -138t-48 -93z
M440 0h-118v258h118v-258z" />
    <glyph glyph-name="at" unicode="@" horiz-adv-x="1888" 
d="M793 -424q-182 39 -291 98q-77 42 -134.5 108.5t-91 140.5t-54 168.5t-27.5 180.5t-7 189q0 463 185 665q87 96 223 142.5t360 46.5q250 0 707 -166v-635q0 -79 -2 -121.5t-16.5 -105t-42.5 -109.5q-44 -72 -127.5 -120t-184.5 -70q-46 -11 -76 -11v187q-41 -36 -110 -90
q-130 -101 -244 -101q-101 0 -157 36.5t-89 103.5q-53 108 -53 348q0 254 74 362q50 72 125 100.5t184 28.5q48 0 113.5 -13.5t112 -27t126.5 -39.5v-800q172 53 234 151q24 39 35.5 85.5t13.5 81.5t2 110v592q-416 141 -625 141q-186 0 -304 -33.5t-197 -109.5
q-183 -175 -183 -629q0 -297 65 -467.5t212 -249.5q79 -42 244 -82v-86zM1214 264v549q-175 59 -274 59q-86 0 -140 -20.5t-91 -75.5q-33 -47 -48.5 -135t-15.5 -180q0 -213 41 -303q26 -57 65.5 -81t108.5 -24q86 0 199 88q91 71 155 123z" />
    <glyph glyph-name="A" unicode="A" horiz-adv-x="1378" 
d="M133 0h-90l590 1544h108l594 -1544h-92l-170 440h-772zM332 522h710l-356 932z" />
    <glyph glyph-name="B" unicode="B" horiz-adv-x="1470" 
d="M225 0v1544h572q123 0 200.5 -10t137.5 -41q149 -78 149 -281q0 -44 -14.5 -93.5t-30 -80.5t-47.5 -92q-28 -49 -80 -137q87 -59 133 -121q76 -104 76 -262q0 -209 -127 -320q-118 -106 -375 -106h-594zM309 82h508q195 0 301 72q117 83 117 272q0 90 -28.5 156
t-92.5 118q-40 32 -83 44t-111 12h-611v-674zM309 838h723q14 25 82 147q31 57 45 85.5t26.5 69.5t12.5 79q0 142 -108 200q-81 43 -287 43h-494v-624z" />
    <glyph glyph-name="C" unicode="C" horiz-adv-x="1300" 
d="M1178 25q-141 -31 -240 -45.5t-207 -14.5q-200 0 -317 71.5t-178 225.5q-33 83 -50.5 221t-17.5 285q0 405 104 588q47 81 104.5 128.5t144 71t214.5 23.5q107 0 256 -29q68 -13 187 -45v-84q-106 30 -220 52q-120 24 -223 24q-159 0 -250.5 -45.5t-148.5 -161.5
q-41 -81 -61.5 -223.5t-20.5 -300.5q0 -315 61 -471q48 -127 147.5 -187.5t268.5 -60.5q108 0 204.5 15.5t242.5 48.5v-86z" />
    <glyph glyph-name="D" unicode="D" horiz-adv-x="1513" 
d="M225 0v1544h514q160 0 251 -26.5t167 -96.5q95 -86 142 -260.5t47 -382.5q0 -204 -44 -370.5t-135 -260.5q-78 -80 -182.5 -113.5t-261.5 -33.5h-498zM309 82h412q146 0 234.5 31.5t154.5 99.5q70 73 110 222.5t40 342.5q0 184 -38 336t-110 232q-62 68 -149 92t-224 24
h-430v-1380z" />
    <glyph glyph-name="E" unicode="E" horiz-adv-x="1333" 
d="M1249 0h-1024v1544h992v-82h-908v-631h862v-81h-862v-668h940v-82z" />
    <glyph glyph-name="F" unicode="F" horiz-adv-x="1294" 
d="M309 0h-84v1544h1000v-82h-916v-655h852v-82h-852v-725z" />
    <glyph glyph-name="G" unicode="G" horiz-adv-x="1488" 
d="M1270 16q-347 -51 -535 -51q-140 0 -239 37.5t-155.5 98.5t-98.5 155q-74 168 -74 512q0 410 104 588q69 119 173 171t290 52q107 0 260 -29q101 -20 222 -53v-84q-110 28 -254 57q-139 27 -228 27q-158 0 -250 -46t-151 -161q-39 -81 -59.5 -224.5t-20.5 -299.5
q0 -322 65 -473q58 -140 166.5 -193t280.5 -53q130 0 420 41v733h84v-805z" />
    <glyph glyph-name="H" unicode="H" horiz-adv-x="1574" 
d="M309 0h-84v1544h84v-682h957v682h84v-1544h-84v780h-957v-780z" />
    <glyph glyph-name="I" unicode="I" horiz-adv-x="534" 
d="M309 0h-84v1544h84v-1544z" />
    <glyph glyph-name="J" unicode="J" horiz-adv-x="745" 
d="M-12 -172v86q216 69 319 127q48 27 75 53t40 62q20 59 20 274v1114h84v-1104q0 -95 -0.5 -132t-5.5 -88.5t-16 -86.5q-24 -78 -105 -133q-121 -80 -411 -172z" />
    <glyph glyph-name="K" unicode="K" horiz-adv-x="1273" 
d="M309 0h-84v1544h84v-747l778 747h125l-800 -766l864 -778h-129l-838 756v-756z" />
    <glyph glyph-name="L" unicode="L" horiz-adv-x="1259" 
d="M1180 0h-955v1544h84v-1462h871v-82z" />
    <glyph glyph-name="M" unicode="M" horiz-adv-x="1781" 
d="M309 0h-84v1544h135l531 -1149l530 1149h135v-1544h-83v1454l-531 -1147h-104l-529 1143v-1450z" />
    <glyph glyph-name="N" unicode="N" horiz-adv-x="1548" 
d="M309 0h-84v1544h127l887 -1452v1452h84v-1544h-127l-887 1452v-1452z" />
    <glyph glyph-name="O" unicode="O" horiz-adv-x="1587" 
d="M793 1579q179 0 299 -50.5t196 -158.5q67 -95 99 -261t32 -335q0 -150 -27.5 -313.5t-93.5 -265.5q-81 -124 -206 -177t-299 -53q-200 0 -328.5 55t-194.5 168q-102 171 -102 586q0 383 84 537q145 268 541 268zM793 1497q-349 0 -465 -227q-74 -147 -74 -496
q0 -152 19 -301t65 -229q34 -59 82.5 -99.5t109.5 -61t122.5 -28.5t140.5 -8q139 0 237 35.5t172 124.5q68 84 99.5 239.5t31.5 327.5q0 154 -25.5 299t-78.5 232q-65 103 -173 147.5t-263 44.5z" />
    <glyph glyph-name="P" unicode="P" horiz-adv-x="1345" 
d="M309 0h-84v1544h553q129 0 209 -28t137 -89q49 -52 77 -139t28 -178q0 -108 -17.5 -191t-66.5 -151q-46 -64 -116.5 -96t-174.5 -43q-124 -11 -545 -11v-618zM309 700q417 0 539 13q87 8 146 37t96 90q53 90 53 270q0 84 -26 158t-73 118q-76 76 -270 76h-465v-762z" />
    <glyph glyph-name="Q" unicode="Q" horiz-adv-x="1587" 
d="M1415 -219l-743 182q-170 41 -258.5 86.5t-143.5 138.5q-102 171 -102 586q0 383 84 537q145 268 541 268q179 0 299 -50.5t196 -158.5q67 -95 99 -261t32 -335q0 -201 -34.5 -362t-127.5 -271q-112 -131 -309 -164l467 -112v-84zM793 1497q-349 0 -465 -227
q-74 -147 -74 -496q0 -152 19 -301t65 -229q114 -199 455 -199q138 0 236 36t173 126q68 84 99.5 239.5t31.5 327.5q0 154 -25.5 299t-78.5 232q-65 103 -173 147.5t-263 44.5z" />
    <glyph glyph-name="R" unicode="R" horiz-adv-x="1396" 
d="M309 0h-84v1544h492q161 0 250 -17t153 -61q133 -91 133 -292q0 -160 -141 -316q-61 -70 -180 -184l403 -674h-102l-399 668h-525v-668zM309 750h578q112 108 160 163q56 66 88 127t32 131q0 175 -125 244q-49 28 -121 37.5t-206 9.5h-406v-712z" />
    <glyph glyph-name="S" unicode="S" horiz-adv-x="1306" 
d="M152 45v86q349 -84 503 -84q109 0 182 18.5t130 63.5q54 42 84 110.5t30 145.5q0 119 -51 180q-28 36 -79.5 63.5t-143.5 59.5l-352 121q-99 34 -154.5 61.5t-91.5 69.5q-70 81 -70 242q0 183 97 280q64 64 154 90.5t233 26.5q80 0 168.5 -13.5t147 -28t173.5 -46.5v-84
q-330 90 -489 90q-110 0 -185 -18t-125 -62q-88 -76 -88 -235q0 -137 56 -193q45 -48 215 -106l350 -119q111 -38 170 -74.5t96 -89.5q55 -76 55 -219q0 -83 -29.5 -159.5t-82.5 -129.5q-67 -68 -161.5 -97.5t-231.5 -29.5q-176 0 -510 80z" />
    <glyph glyph-name="T" unicode="T" horiz-adv-x="1353" 
d="M719 0h-84v1462h-578v82h1239v-82h-577v-1462z" />
    <glyph glyph-name="U" unicode="U" horiz-adv-x="1513" 
d="M217 1544h84v-969q0 -181 23 -279.5t94 -160.5q57 -50 138.5 -69t203.5 -19t201.5 19t138.5 69q70 60 91 157.5t21 282.5v969h84v-971q0 -210 -28 -322t-119 -185q-67 -54 -160.5 -77.5t-228.5 -23.5q-136 0 -229.5 23.5t-163.5 79.5q-87 67 -118.5 184t-31.5 321v971z
" />
    <glyph glyph-name="V" unicode="V" horiz-adv-x="1316" 
d="M707 0h-97l-604 1544h92l561 -1438l562 1438h90z" />
    <glyph glyph-name="W" unicode="W" horiz-adv-x="1810" 
d="M539 0h-136l-325 1544h86l309 -1470l371 1237h123l370 -1237l310 1470h86l-326 -1544h-135l-367 1227z" />
    <glyph glyph-name="X" unicode="X" horiz-adv-x="1224" 
d="M113 0h-105l533 784l-496 760h102l465 -710l461 710h103l-492 -758l533 -786h-105l-500 737z" />
    <glyph glyph-name="Y" unicode="Y" horiz-adv-x="1212" 
d="M649 0h-86v594l-575 950h100l518 -854l518 854h101l-576 -950v-594z" />
    <glyph glyph-name="Z" unicode="Z" horiz-adv-x="1296" 
d="M1188 0h-1079v92l966 1370h-936v82h1035v-92l-967 -1370h981v-82z" />
    <glyph glyph-name="bracketleft" unicode="[" horiz-adv-x="636" 
d="M553 -393h-328v1937h328v-82h-244v-1773h244v-82z" />
    <glyph glyph-name="backslash" unicode="\" horiz-adv-x="729" 
d="M698 0h-92l-575 1544h92z" />
    <glyph glyph-name="bracketright" unicode="]" horiz-adv-x="636" 
d="M412 -393h-328v82h244v1773h-244v82h328v-1937z" />
    <glyph glyph-name="asciicircum" unicode="^" horiz-adv-x="1613" 
d="M236 686h-109l631 858h98l631 -858h-109l-571 776z" />
    <glyph glyph-name="underscore" unicode="_" horiz-adv-x="1024" 
d="M1024 -197h-1024v82h1024v-82z" />
    <glyph glyph-name="grave" unicode="`" horiz-adv-x="768" 
d="M537 1274h-113l-227 270h114z" />
    <glyph glyph-name="a" unicode="a" horiz-adv-x="1167" 
d="M987 0h-82v199q-59 -53 -133 -113q-77 -62 -141.5 -91.5t-143.5 -29.5t-136.5 23.5t-89.5 58.5t-60 90q-31 62 -47.5 174.5t-16.5 239.5q0 268 84 397q63 96 150.5 132t212.5 36q56 0 129 -17.5t124.5 -35.5t149.5 -55v-1008zM905 305v647q-77 29 -115 42.5t-99.5 27.5
t-112.5 14q-107 0 -177.5 -33t-113.5 -108q-32 -56 -49 -149.5t-17 -194.5q0 -258 49 -365q35 -74 84.5 -107.5t132.5 -33.5q100 0 218 92q123 97 200 168z" />
    <glyph glyph-name="b" unicode="b" horiz-adv-x="1181" 
d="M180 43v1501h82v-577q136 70 174 88q128 61 236 61q114 0 186.5 -44t118.5 -138q67 -134 67 -389q0 -256 -88 -395q-59 -93 -141 -139t-213 -46q-98 0 -219 27q-54 12 -203 51zM262 104q61 -17 146 -36q108 -23 194 -23q191 0 281 143q78 125 78 359q0 212 -56 344
q-63 145 -217 145q-57 0 -102 -11t-105 -38q-91 -42 -219 -110v-773z" />
    <glyph glyph-name="c" unicode="c" horiz-adv-x="983" 
d="M887 16q-219 -51 -314 -51q-144 0 -225.5 38.5t-132.5 131.5q-78 144 -78 400q0 236 43 356q43 118 131.5 171.5t261.5 53.5q117 0 314 -63v-82q-209 65 -314 65q-132 0 -203 -35t-108 -129q-41 -101 -41 -337q0 -106 18 -205.5t50 -155.5q42 -74 110 -101.5t174 -27.5
q107 0 314 53v-82z" />
    <glyph glyph-name="d" unicode="d" horiz-adv-x="1181" 
d="M1001 0h-81v158q-76 -60 -162 -111q-138 -82 -262 -82q-122 0 -185.5 42.5t-105.5 131.5q-68 142 -68 406q0 262 76 405q49 91 131.5 128.5t204.5 37.5q135 0 371 -76v504h81v-1544zM920 260v696q-245 80 -371 80q-201 0 -268 -137q-60 -120 -60 -354q0 -232 53 -357
q31 -75 83 -110t139 -35q90 0 209 68q104 61 215 149z" />
    <glyph glyph-name="e" unicode="e" horiz-adv-x="1134" 
d="M948 6q-200 -41 -338 -41q-167 0 -259 44.5t-144 137.5q-38 68 -54 159t-16 233q0 120 13.5 211t52.5 170q95 196 385 196q270 0 370 -192q46 -90 46 -217q0 -85 -21 -205h-764q0 -200 53 -299q43 -84 122 -121t216 -37q112 0 338 43v-82zM219 582h690q11 64 11 125
q0 121 -39 188q-80 141 -293 141q-240 0 -318 -164q-26 -53 -38.5 -134.5t-12.5 -155.5z" />
    <glyph glyph-name="f" unicode="f" horiz-adv-x="583" 
d="M262 0h-82v1077q0 152 10 215q15 104 86 166q40 34 96 61t90.5 38t104.5 30v-84q-58 -17 -94 -28.5t-82 -36.5t-72 -54q-46 -53 -53 -143q-4 -53 -4 -160h311v-80h-311v-1001z" />
    <glyph glyph-name="g" unicode="g" horiz-adv-x="1175" 
d="M176 -399v84q209 -33 336 -33q232 0 326 110q75 88 75 306v59q-80 -38 -161 -72q-137 -55 -256 -55q-125 0 -189 40.5t-104 119.5q-64 125 -64 393q0 256 72 389q54 98 139 136t213 38q129 0 432 -100v-955q0 -135 -26.5 -222.5t-81.5 -145.5q-115 -121 -375 -121
q-109 0 -336 29zM913 219v737q-244 80 -354 80t-174.5 -31.5t-103.5 -107.5q-58 -113 -58 -344q0 -239 53 -354q30 -64 82 -91.5t138 -27.5q90 0 213 47q86 33 204 92z" />
    <glyph glyph-name="h" unicode="h" horiz-adv-x="1171" 
d="M262 0h-82v1544h82v-543q128 57 223.5 86t184.5 29q96 0 158 -21t104 -75q37 -47 50 -120.5t13 -180.5v-719h-82v721q0 182 -49 246q-31 39 -77 54t-117 15q-49 0 -99.5 -9.5t-110.5 -31.5t-95 -36.5t-103 -45.5v-913z" />
    <glyph glyph-name="i" unicode="i" horiz-adv-x="442" 
d="M262 0h-82v1081h82v-1081zM266 1286h-90v258h90v-258z" />
    <glyph glyph-name="j" unicode="j" horiz-adv-x="464" 
d="M-76 -432v90q143 66 197 113q47 42 65 98q17 52 17 184v1028h82v-1015q0 -162 -15 -218q-14 -50 -40.5 -86t-77.5 -73q-56 -42 -228 -121zM289 1286h-90v258h90v-258z" />
    <glyph glyph-name="k" unicode="k" horiz-adv-x="972" 
d="M262 0h-82v1544h82v-936l520 473h123l-545 -495l596 -586h-118l-576 567v-567z" />
    <glyph glyph-name="l" unicode="l" horiz-adv-x="442" 
d="M262 0h-82v1544h82v-1544z" />
    <glyph glyph-name="m" unicode="m" horiz-adv-x="1822" 
d="M262 0h-82v1081h82v-92q90 44 140 66t121.5 41.5t135.5 19.5q80 0 132 -15t90 -50q33 -31 53 -78q71 39 123.5 65t134.5 52t147 26q88 0 148.5 -21.5t99.5 -74.5q37 -49 48.5 -120.5t11.5 -184.5v-715h-82v715q0 95 -7.5 151.5t-33.5 96.5q-48 73 -185 73
q-60 0 -138 -26.5t-126 -51.5t-121 -67v-891h-82v788q0 50 -1 72t-7.5 54t-21.5 53q-46 69 -183 69q-58 0 -135 -24t-126.5 -47t-135.5 -66v-899z" />
    <glyph glyph-name="n" unicode="n" horiz-adv-x="1177" 
d="M262 0h-82v1081h82v-88q97 44 150 65t126 39.5t138 18.5q96 0 159.5 -22t104.5 -76q39 -50 50 -121t11 -178v-719h-81v723q0 178 -48 242q-53 71 -196 71q-60 0 -141 -23.5t-131.5 -45t-141.5 -62.5v-905z" />
    <glyph glyph-name="o" unicode="o" horiz-adv-x="1167" 
d="M584 1116q125 0 207 -32.5t139 -108.5q100 -136 100 -430q0 -118 -18 -220.5t-49 -162.5q-96 -197 -379 -197q-138 0 -222.5 37.5t-138.5 122.5q-41 65 -63.5 177t-22.5 233q0 224 45 337q46 120 139.5 182t262.5 62zM584 1036q-123 0 -197 -40.5t-117 -129.5
q-49 -106 -49 -329q0 -106 17.5 -203t48.5 -152q45 -78 114 -107.5t183 -29.5q215 0 293 133q69 120 69 369q0 222 -57 334q-44 87 -116.5 121t-188.5 34z" />
    <glyph glyph-name="p" unicode="p" horiz-adv-x="1181" 
d="M262 -393h-82v1474h82v-139q74 58 150 105q114 69 243 69q116 0 192.5 -43t127.5 -139q33 -62 51 -168t18 -227q0 -260 -79 -398q-52 -90 -130.5 -133t-203.5 -43q-84 0 -171 26.5t-198 78.5v-463zM262 160q78 -38 123.5 -58t115 -38.5t130.5 -18.5q97 0 158.5 33
t103.5 106q68 118 68 357q0 225 -56 346q-36 78 -97.5 113.5t-152.5 35.5q-109 0 -215 -65q-81 -52 -178 -129v-682z" />
    <glyph glyph-name="q" unicode="q" horiz-adv-x="1181" 
d="M1001 -393h-81v506q-107 -64 -205 -105q-101 -43 -213 -43q-120 0 -189 40.5t-110 127.5q-66 138 -66 404q0 273 84 413q55 94 140 130t208 36q146 0 432 -98v-1411zM920 211v750q-77 24 -124.5 37.5t-111.5 25.5t-115 12q-105 0 -172 -30t-108 -105
q-33 -60 -50.5 -158.5t-17.5 -205.5q0 -231 49 -351q30 -74 83 -107.5t149 -33.5q102 0 219 55q62 30 199 111z" />
    <glyph glyph-name="r" unicode="r" horiz-adv-x="675" 
d="M262 0h-82v1081h82v-137q74 53 148 88q91 45 237 74v-84q-112 -22 -196 -61q-79 -35 -189 -115v-846z" />
    <glyph glyph-name="s" unicode="s" horiz-adv-x="1030" 
d="M139 16v82q226 -53 348 -53q157 0 236 49q96 59 96 170q0 84 -43 127q-25 27 -61 43.5t-111 42.5l-190 64q-92 31 -133.5 47.5t-73.5 40.5q-80 59 -80 202q0 149 98 222q51 37 114.5 50t162.5 13q127 0 360 -63v-82q-260 65 -360 65q-85 0 -136 -11t-87 -38
q-68 -53 -68 -156q0 -96 45 -133q18 -14 45.5 -27t45.5 -19.5t77 -26.5l207 -68q79 -26 123.5 -47.5t76.5 -52.5q72 -69 72 -187q0 -72 -31 -135.5t-90 -101.5q-108 -68 -295 -68q-135 0 -348 51z" />
    <glyph glyph-name="t" unicode="t" horiz-adv-x="612" 
d="M541 -14q-166 12 -230 32q-89 27 -114 103q-13 40 -16 94t-3 180v957h82v-271h326v-80h-326v-608q0 -141 6 -194q9 -81 72 -103q47 -16 203 -28v-82z" />
    <glyph glyph-name="u" unicode="u" horiz-adv-x="1153" 
d="M973 49q-112 -32 -166 -46t-132 -26t-153 -12q-109 0 -175.5 22t-108.5 79q-37 50 -49.5 131t-12.5 202v682h82v-684q0 -70 2 -111.5t12.5 -89t30.5 -75.5q30 -42 78 -59t135 -17q73 0 148 11.5t116 22.5t111 32v970h82v-1032z" />
    <glyph glyph-name="v" unicode="v" horiz-adv-x="989" 
d="M561 0h-135l-395 1081h90l373 -1024l374 1024h90z" />
    <glyph glyph-name="w" unicode="w" horiz-adv-x="1540" 
d="M467 0h-117l-309 1081h86l283 -991l299 991h122l299 -991l283 991h86l-309 -1081h-117l-303 1006z" />
    <glyph glyph-name="x" unicode="x" horiz-adv-x="966" 
d="M121 0h-101l398 553l-375 528h102l338 -477l342 477h101l-377 -528l397 -553h-102l-361 502z" />
    <glyph glyph-name="y" unicode="y" horiz-adv-x="997" 
d="M375 -393h-90l168 413l-424 1061h90l379 -948l383 948h88z" />
    <glyph glyph-name="z" unicode="z" horiz-adv-x="1056" 
d="M973 0h-881v72l750 929h-717v80h831v-71l-749 -930h766v-80z" />
    <glyph glyph-name="braceleft" unicode="{" horiz-adv-x="653" 
d="M571 -393h-43q-151 0 -206 35q-66 44 -66 178v534q0 64 -17 91.5t-63 50.5q-63 27 -100 41v75q17 7 92 39q45 21 66.5 51t21.5 89v540q0 134 66 178q55 35 206 35h43v-82h-67q-105 0 -135 -32q-19 -20 -24 -53t-5 -103v-473q0 -116 -66 -176q-31 -29 -86 -50
q76 -30 107 -65q45 -53 45 -164v-469q0 -70 5 -103t24 -53q30 -32 135 -32h67v-82z" />
    <glyph glyph-name="bar" unicode="|" horiz-adv-x="512" 
d="M297 -393h-82v1937h82v-1937z" />
    <glyph glyph-name="braceright" unicode="}" horiz-adv-x="653" 
d="M578 537q-44 -17 -101 -41q-46 -23 -63 -50.5t-17 -91.5v-534q0 -135 -65 -178q-55 -35 -207 -35h-43v82h68q105 0 135 32q19 20 23.5 52.5t4.5 103.5v469q0 111 45 164q31 35 107 65q-55 21 -86 50q-66 60 -66 176v473q0 71 -4.5 103.5t-23.5 52.5q-30 32 -135 32h-68
v82h43q152 0 207 -35q65 -43 65 -178v-540q0 -59 21.5 -89t66.5 -51q66 -29 93 -39v-75z" />
    <glyph glyph-name="asciitilde" unicode="~" horiz-adv-x="1613" 
d="M197 406h-86q29 272 110 397q39 62 103.5 93.5t142.5 31.5q94 0 168.5 -40.5t146.5 -135.5l86 -113q28 -37 53 -63t60.5 -54.5t79 -43.5t92.5 -15q77 0 126.5 44.5t84.5 137.5q30 79 55 256h86q-32 -257 -102 -375q-47 -79 -108.5 -112t-143.5 -33q-198 0 -350 203
l-68 90q-30 40 -50 62.5t-54.5 52t-75.5 43.5t-90 14q-146 0 -209 -170q-37 -97 -57 -270z" />
    <glyph glyph-name="uni00A0" unicode="&#xa0;" horiz-adv-x="530" 
 />
    <glyph glyph-name="exclamdown" unicode="&#xa1;" horiz-adv-x="538" 
d="M207 659h82q2 -61 2 -806v-246h-86v246q0 745 2 806zM188 1151h119v-258h-119v258z" />
    <glyph glyph-name="cent" unicode="&#xa2;" horiz-adv-x="1331" 
d="M756 -231h-82v229q-229 9 -322 154q-84 126 -84 383q0 211 33 311q36 113 124.5 176.5t248.5 69.5v215h82v-217q96 -6 307 -60v-84q-228 66 -344 66q-59 0 -102 -5.5t-90 -21t-82 -50.5t-56 -89q-37 -91 -37 -311q0 -221 62 -326q45 -77 123.5 -104t181.5 -27
q128 0 344 53v-82q-208 -45 -307 -51v-229z" />
    <glyph glyph-name="sterling" unicode="&#xa3;" horiz-adv-x="1331" 
d="M1212 0h-946v1171q0 104 13.5 178.5t54.5 123.5q53 62 123.5 84t187.5 22q160 0 471 -63v-84q-325 65 -471 65q-94 0 -150.5 -17.5t-93.5 -58.5q-23 -27 -35 -69.5t-14 -78.5t-2 -97v-234h602v-82h-602v-778h862v-82z" />
    <glyph glyph-name="currency" unicode="&#xa4;" horiz-adv-x="1480" 
d="M311 211h-110l227 266q-76 94 -76 293q0 198 78 291l-229 272h110l178 -211q45 28 114.5 46t141.5 18q65 0 134 -18.5t110 -47.5l180 213h111l-231 -272q88 -101 88 -285q0 -193 -84 -297l227 -268h-111l-180 213q-89 -64 -244 -64q-162 0 -256 60zM741 1104
q-65 0 -123.5 -16.5t-91.5 -43.5q-90 -75 -90 -272q0 -103 19 -166.5t63 -101.5q72 -62 225 -62q157 0 234 80q76 79 76 256q0 170 -88 254q-75 72 -224 72z" />
    <glyph glyph-name="yen" unicode="&#xa5;" horiz-adv-x="1331" 
d="M707 0h-84v594l-160 266h-344v82h297l-359 602h101l506 -852l510 852h100l-361 -602h297v-82h-346l-157 -264v-596z" />
    <glyph glyph-name="brokenbar" unicode="&#xa6;" horiz-adv-x="512" 
d="M297 688h-82v856h82v-856zM297 -393h-82v856h82v-856z" />
    <glyph glyph-name="section" unicode="&#xa7;" horiz-adv-x="1304" 
d="M231 -166v84q259 -51 385 -51q98 0 160 13t109 44q41 27 63.5 69.5t22.5 88.5q0 86 -31 127q-13 17 -39 35.5t-48 31.5t-73 41l-282 152q-171 92 -226 141q-69 63 -69 172q0 92 61 176q46 63 98 119q-50 40 -71 80q-31 55 -31 154q0 58 25 113t75 87q62 39 134 53.5
t172 14.5q92 0 397 -53v-86q-285 57 -397 57q-175 0 -248 -49q-72 -49 -72 -137q0 -91 43 -137q24 -27 61.5 -50.5t114.5 -64.5l256 -135q158 -84 207 -127q74 -65 74 -174q0 -97 -60 -172q-46 -61 -106 -121q63 -44 88 -92q33 -59 33 -156q0 -58 -30.5 -119.5t-82.5 -99.5
q-108 -78 -326 -78q-114 0 -387 49zM860 371q63 63 98 106q58 73 58 144q0 77 -55 120q-44 36 -156 97l-371 196q-54 -54 -102 -123q-43 -63 -43 -129q0 -80 55 -123q51 -40 168 -102z" />
    <glyph glyph-name="dieresis" unicode="&#xa8;" horiz-adv-x="768" 
d="M262 1286h-88v258h88v-258zM594 1286h-88v258h88v-258z" />
    <glyph glyph-name="copyright" unicode="&#xa9;" horiz-adv-x="1931" 
d="M967 1579q235 0 415 -101.5t277.5 -284.5t97.5 -421t-97.5 -421t-277.5 -284.5t-415 -101.5q-236 0 -416.5 101.5t-278.5 285t-98 420.5t98 420.5t278.5 285t416.5 101.5zM967 1497q-215 0 -377 -92.5t-247 -256t-85 -376.5t85 -376.5t247 -256t377 -92.5t376 92.5
t245.5 256t84.5 376.5t-84.5 376.5t-245.5 256t-376 92.5zM1278 350q-206 -35 -309 -35q-137 0 -214 44t-124 133q-51 96 -51 282q0 224 73 328q50 70 121 103.5t195 33.5q70 0 164 -16q74 -13 145 -33v-84q-107 27 -168 37q-86 14 -141 14q-96 0 -154.5 -26.5t-97.5 -90.5
q-53 -86 -53 -266q0 -148 41 -237q32 -70 93.5 -105t170.5 -35q107 0 309 37v-84z" />
    <glyph glyph-name="ordfeminine" unicode="&#xaa;" horiz-adv-x="942" 
d="M791 750h-80v149l-97 -78q-116 -94 -225 -94q-90 0 -138 31t-79 92q-49 98 -49 313q0 97 13 167t50 124q47 69 118 97t171 28q107 0 316 -76v-753zM711 1004v442q-157 53 -240 53q-87 0 -136.5 -21t-82.5 -75q-45 -70 -45 -240q0 -185 35 -264q22 -50 54.5 -71t92.5 -21
q75 0 178 78q78 61 144 119z" />
    <glyph glyph-name="guillemotleft" unicode="&#xab;" horiz-adv-x="995" 
d="M598 119h-113l-344 422l344 422h113l-344 -422zM946 119h-112l-342 422l342 422h112l-342 -422z" />
    <glyph glyph-name="logicalnot" unicode="&#xac;" horiz-adv-x="1433" 
d="M1251 481h-84v518h-985v82h1069v-600z" />
    <glyph glyph-name="registered" unicode="&#xae;" horiz-adv-x="1931" 
d="M967 1579q235 0 415 -101.5t277.5 -284.5t97.5 -421t-97.5 -421t-277.5 -284.5t-415 -101.5q-236 0 -416.5 101.5t-278.5 285t-98 420.5t98 420.5t278.5 285t416.5 101.5zM967 1497q-215 0 -377 -92.5t-247 -256t-85 -376.5t85 -376.5t247 -256t377 -92.5t376 92.5
t245.5 256t84.5 376.5t-84.5 376.5t-245.5 256t-376 92.5zM750 336h-84v883h338q83 0 134 -9t91 -36q84 -59 84 -170q0 -97 -70 -187q-39 -49 -100 -110l211 -371h-99l-202 356h-303v-356zM750 774h346q24 26 67 78q64 73 64 149q0 38 -16 68t-44 45q-19 11 -46 16t-48 6
t-63 1h-260v-363z" />
    <glyph glyph-name="macron" unicode="&#xaf;" horiz-adv-x="768" 
d="M657 1331h-546v82h546v-82z" />
    <glyph glyph-name="degree" unicode="&#xb0;" horiz-adv-x="940" 
d="M469 1579q156 0 247 -89t91 -245t-91 -247t-247 -91q-154 0 -245 91t-91 247t90.5 245t245.5 89zM469 1497q-121 0 -186.5 -65.5t-65.5 -186.5t65.5 -188.5t186.5 -67.5q120 0 187 68t67 188q0 121 -66.5 186.5t-187.5 65.5z" />
    <glyph glyph-name="plusminus" unicode="&#xb1;" horiz-adv-x="1433" 
d="M758 229h-84v502h-492v82h492v502h84v-502h493v-82h-493v-502zM1251 0h-1069v82h1069v-82z" />
    <glyph glyph-name="twosuperior" unicode="&#xb2;" horiz-adv-x="776" 
d="M680 686h-598v96q262 254 395 402q76 84 76 166q0 63 -31 94q-40 43 -123 43q-112 0 -288 -45v82q176 43 280 43q128 0 193 -68q51 -54 51 -151q0 -65 -23 -116t-80 -112q-174 -190 -354 -352h502v-82z" />
    <glyph glyph-name="threesuperior" unicode="&#xb3;" horiz-adv-x="839" 
d="M117 694v82q187 -33 260 -33q98 0 155 37q29 19 46.5 54.5t17.5 78.5q0 50 -18 84t-60 58q-40 22 -129 22h-188v80h293l36 49q58 79 58 142q0 70 -41 100q-49 39 -148 39q-100 0 -276 -43v82q181 41 276 41q136 0 207 -62q66 -55 66 -155q0 -70 -51 -144q-12 -18 -60 -82
q55 -33 72 -57q47 -57 47 -147q0 -111 -70 -181q-75 -75 -233 -75q-89 0 -260 30z" />
    <glyph glyph-name="acute" unicode="&#xb4;" horiz-adv-x="768" 
d="M336 1274h-115l234 270h116z" />
    <glyph glyph-name="uni00B5" unicode="&#xb5;" horiz-adv-x="1146" 
d="M262 -393h-82v1474h82v-389q0 -239 14 -368q13 -119 80.5 -199t190.5 -80q138 0 338 66v970h82v-1032q-107 -33 -156 -47t-120 -25.5t-144 -11.5q-99 0 -174 40t-111 118v-516z" />
    <glyph glyph-name="paragraph" unicode="&#xb6;" horiz-adv-x="1314" 
d="M791 -393h-84v956q-198 0 -297 25t-164 90q-121 121 -121 377q0 253 108 372q60 67 144.5 92t220.5 25h483v-1937h-84v1855h-206v-1855z" />
    <glyph glyph-name="uni2027" unicode="&#xb7;" horiz-adv-x="489" 
d="M305 412h-121v258h121v-258z" />
    <glyph glyph-name="uni2027" unicode="&#x2027;" horiz-adv-x="489" 
d="M305 412h-121v258h121v-258z" />
    <glyph glyph-name="cedilla" unicode="&#xb8;" horiz-adv-x="768" 
d="M352 -393h-106l164 270h108z" />
    <glyph glyph-name="onesuperior" unicode="&#xb9;" horiz-adv-x="552" 
d="M381 686h-82v772l-240 -76v86l322 103v-885z" />
    <glyph glyph-name="ordmasculine" unicode="&#xba;" horiz-adv-x="929" 
d="M467 1579q95 0 156 -25t104 -81q82 -106 82 -320q0 -186 -64 -289q-86 -137 -278 -137q-105 0 -173 30t-108 93q-31 49 -48 131t-17 164q0 170 35 252q35 88 108 135t203 47zM467 1499q-87 0 -141 -26t-84 -87q-37 -75 -37 -239q0 -168 47 -246q29 -52 82 -73t133 -21
q141 0 203 94q55 85 55 252q0 156 -43 240q-29 57 -80 81.5t-135 24.5z" />
    <glyph glyph-name="guillemotright" unicode="&#xbb;" horiz-adv-x="995" 
d="M397 119l344 422l-344 422h113l344 -422l-344 -422h-113zM49 119l342 422l-342 422h113l342 -422l-342 -422h-113z" />
    <glyph glyph-name="onequarter" unicode="&#xbc;" horiz-adv-x="1628" 
d="M1460 0h-82v201h-481v86l424 571h104l-426 -575h379v198h82v-481zM383 0h-90l729 1544h90zM381 686h-82v772l-240 -76v86l322 103v-885z" />
    <glyph glyph-name="onehalf" unicode="&#xbd;" horiz-adv-x="1609" 
d="M1513 0h-598v96q270 262 396 402q75 83 75 166q0 64 -30 94q-40 43 -123 43q-113 0 -289 -45v82q176 43 281 43q127 0 192 -68q51 -54 51 -151q0 -65 -22.5 -116t-79.5 -112q-174 -190 -354 -352h501v-82zM383 0h-90l729 1544h90zM381 686h-82v772l-240 -76v86l322 103
v-885z" />
    <glyph glyph-name="threequarters" unicode="&#xbe;" horiz-adv-x="1912" 
d="M1747 0h-82v201h-481v86l424 571h104l-426 -575h379v198h82v-481zM670 0h-90l729 1544h90zM117 694v82q187 -33 260 -33q98 0 155 37q29 19 46.5 54.5t17.5 78.5q0 50 -18 84t-60 58q-40 22 -129 22h-188v80h293l36 49q58 79 58 142q0 70 -41 100q-49 39 -148 39
q-100 0 -276 -43v82q181 41 276 41q136 0 207 -62q66 -55 66 -155q0 -70 -51 -144q-12 -18 -60 -82q55 -33 72 -57q47 -57 47 -147q0 -111 -70 -181q-75 -75 -233 -75q-89 0 -260 30z" />
    <glyph glyph-name="questiondown" unicode="&#xbf;" horiz-adv-x="1013" 
d="M584 659h94q-31 -78 -64.5 -131.5t-115.5 -142.5q-134 -143 -179 -211q-47 -70 -67.5 -128t-20.5 -134q0 -130 72 -197q67 -61 209 -61q102 0 346 65v-84q-222 -63 -340 -63q-177 0 -272 82q-101 88 -101 258q0 163 97 299q62 88 180 217q80 87 114 138t48 93zM573 1151
h119v-258h-119v258z" />
    <glyph glyph-name="Agrave" unicode="&#xc0;" horiz-adv-x="1378" 
d="M133 0h-90l590 1544h108l594 -1544h-92l-170 440h-772zM332 522h710l-356 932zM743 1675h-112l-228 271h115z" />
    <glyph glyph-name="Aacute" unicode="&#xc1;" horiz-adv-x="1378" 
d="M133 0h-90l590 1544h108l594 -1544h-92l-170 440h-772zM332 522h710l-356 932zM741 1675h-114l233 271h117z" />
    <glyph glyph-name="Acircumflex" unicode="&#xc2;" horiz-adv-x="1378" 
d="M133 0h-90l590 1544h108l594 -1544h-92l-170 440h-772zM332 522h710l-356 932zM508 1675h-115l248 271h94l246 -271h-115l-178 193z" />
    <glyph glyph-name="Atilde" unicode="&#xc3;" horiz-adv-x="1378" 
d="M133 0h-90l590 1544h108l594 -1544h-92l-170 440h-772zM332 522h710l-356 932zM430 1700h-88q47 124 92 169.5t117 45.5q40 0 74 -15t84 -57q47 -40 73.5 -55.5t57.5 -15.5q49 0 72 29t51 100h90q-17 -39 -25.5 -58t-24.5 -49t-29.5 -44t-34 -30t-45.5 -22t-56 -6
q-42 0 -74.5 12.5t-69.5 44.5q-52 47 -82.5 66.5t-60.5 19.5q-24 0 -43 -10t-34 -33.5t-22.5 -40t-21.5 -51.5z" />
    <glyph glyph-name="Adieresis" unicode="&#xc4;" horiz-adv-x="1378" 
d="M133 0h-90l590 1544h108l594 -1544h-92l-170 440h-772zM332 522h710l-356 932zM561 1688h-90v258h90v-258zM907 1688h-90v258h90v-258z" />
    <glyph glyph-name="Aring" unicode="&#xc5;" horiz-adv-x="1378" 
d="M133 0h-90l563 1475q-52 16 -90 61q-45 53 -45 133q0 94 51 148q61 65 166 65t166 -65q51 -54 51 -148q0 -80 -45 -133q-38 -44 -92 -61l567 -1475h-92l-170 440h-772zM332 522h710l-356 932zM688 1806q-73 0 -110 -43q-29 -36 -29 -94q0 -51 29 -88q34 -43 110 -43
q77 0 111 43q28 36 28 88q0 59 -28 94q-37 43 -111 43z" />
    <glyph glyph-name="AE" unicode="&#xc6;" horiz-adv-x="2187" 
d="M104 0h-100l1030 1544h1037v-82h-908v-631h862v-81h-862v-668h940v-82h-1024v440h-680zM455 522h624v942z" />
    <glyph glyph-name="Ccedilla" unicode="&#xc7;" horiz-adv-x="1300" 
d="M1178 25q-141 -31 -240 -45.5t-207 -14.5q-200 0 -317 71.5t-178 225.5q-33 83 -50.5 221t-17.5 285q0 405 104 588q47 81 104.5 128.5t144 71t214.5 23.5q107 0 256 -29q68 -13 187 -45v-84q-106 30 -220 52q-120 24 -223 24q-159 0 -250.5 -45.5t-148.5 -161.5
q-41 -81 -61.5 -223.5t-20.5 -300.5q0 -315 61 -471q48 -127 147.5 -187.5t268.5 -60.5q108 0 204.5 15.5t242.5 48.5v-86zM639 -393h-107l164 270h109z" />
    <glyph glyph-name="Egrave" unicode="&#xc8;" horiz-adv-x="1333" 
d="M1249 0h-1024v1544h992v-82h-908v-631h862v-81h-862v-668h940v-82zM825 1675h-112l-228 271h115z" />
    <glyph glyph-name="Eacute" unicode="&#xc9;" horiz-adv-x="1333" 
d="M1249 0h-1024v1544h992v-82h-908v-631h862v-81h-862v-668h940v-82zM709 1675h-115l233 271h117z" />
    <glyph glyph-name="Ecircumflex" unicode="&#xca;" horiz-adv-x="1333" 
d="M1249 0h-1024v1544h992v-82h-908v-631h862v-81h-862v-668h940v-82zM545 1675h-115l248 271h94l246 -271h-115l-178 193z" />
    <glyph glyph-name="Edieresis" unicode="&#xcb;" horiz-adv-x="1333" 
d="M1249 0h-1024v1544h992v-82h-908v-631h862v-81h-862v-668h940v-82zM578 1688h-91v258h91v-258zM958 1688h-90v258h90v-258z" />
    <glyph glyph-name="Igrave" unicode="&#xcc;" horiz-adv-x="534" 
d="M309 0h-84v1544h84v-1544zM338 1675h-113l-227 271h115z" />
    <glyph glyph-name="Iacute" unicode="&#xcd;" horiz-adv-x="534" 
d="M309 0h-84v1544h84v-1544zM303 1675h-115l234 271h117z" />
    <glyph glyph-name="Icircumflex" unicode="&#xce;" horiz-adv-x="534" 
d="M309 0h-84v1544h84v-1544zM84 1675h-115l248 271h94l246 -271h-115l-178 193z" />
    <glyph glyph-name="Idieresis" unicode="&#xcf;" horiz-adv-x="534" 
d="M309 0h-84v1544h84v-1544zM203 1688h-90v258h90v-258zM422 1688h-90v258h90v-258z" />
    <glyph glyph-name="Eth" unicode="&#xd0;" horiz-adv-x="1527" 
d="M240 0v760h-146v82h146v702h514q159 0 250 -26.5t167 -96.5q95 -86 142 -260.5t47 -382.5q0 -204 -43.5 -370.5t-134.5 -260.5q-78 -80 -182.5 -113.5t-262.5 -33.5h-497zM324 82h411q146 0 234.5 31.5t154.5 99.5q70 73 110 222.5t40 342.5q0 184 -38 336t-110 232
q-62 68 -148.5 92t-223.5 24h-430v-620h469v-82h-469v-678z" />
    <glyph glyph-name="Ntilde" unicode="&#xd1;" horiz-adv-x="1548" 
d="M309 0h-84v1544h127l887 -1452v1452h84v-1544h-127l-887 1452v-1452zM520 1700h-88q47 124 92 169.5t117 45.5q40 0 74 -15t84 -57q47 -40 73.5 -55.5t57.5 -15.5q49 0 72 29t51 100h90q-17 -39 -25.5 -58t-24.5 -49t-29.5 -44t-34 -30t-45.5 -22t-56 -6
q-42 0 -74.5 12.5t-69.5 44.5q-52 47 -82.5 66.5t-60.5 19.5q-24 0 -43 -10t-34 -33.5t-22.5 -40t-21.5 -51.5z" />
    <glyph glyph-name="Ograve" unicode="&#xd2;" horiz-adv-x="1587" 
d="M793 1579q179 0 299 -50.5t196 -158.5q67 -95 99 -261t32 -335q0 -150 -27.5 -313.5t-93.5 -265.5q-81 -124 -206 -177t-299 -53q-200 0 -328.5 55t-194.5 168q-102 171 -102 586q0 383 84 537q145 268 541 268zM793 1497q-349 0 -465 -227q-74 -147 -74 -496
q0 -152 19 -301t65 -229q34 -59 82.5 -99.5t109.5 -61t122.5 -28.5t140.5 -8q139 0 237 35.5t172 124.5q68 84 99.5 239.5t31.5 327.5q0 154 -25.5 299t-78.5 232q-65 103 -173 147.5t-263 44.5zM872 1675h-112l-228 271h115z" />
    <glyph glyph-name="Oacute" unicode="&#xd3;" horiz-adv-x="1587" 
d="M793 1579q179 0 299 -50.5t196 -158.5q67 -95 99 -261t32 -335q0 -150 -27.5 -313.5t-93.5 -265.5q-81 -124 -206 -177t-299 -53q-200 0 -328.5 55t-194.5 168q-102 171 -102 586q0 383 84 537q145 268 541 268zM793 1497q-349 0 -465 -227q-74 -147 -74 -496
q0 -152 19 -301t65 -229q34 -59 82.5 -99.5t109.5 -61t122.5 -28.5t140.5 -8q139 0 237 35.5t172 124.5q68 84 99.5 239.5t31.5 327.5q0 154 -25.5 299t-78.5 232q-65 103 -173 147.5t-263 44.5zM793 1675h-115l233 271h117z" />
    <glyph glyph-name="Ocircumflex" unicode="&#xd4;" horiz-adv-x="1587" 
d="M793 1579q179 0 299 -50.5t196 -158.5q67 -95 99 -261t32 -335q0 -150 -27.5 -313.5t-93.5 -265.5q-81 -124 -206 -177t-299 -53q-200 0 -328.5 55t-194.5 168q-102 171 -102 586q0 383 84 537q145 268 541 268zM793 1497q-349 0 -465 -227q-74 -147 -74 -496
q0 -152 19 -301t65 -229q34 -59 82.5 -99.5t109.5 -61t122.5 -28.5t140.5 -8q139 0 237 35.5t172 124.5q68 84 99.5 239.5t31.5 327.5q0 154 -25.5 299t-78.5 232q-65 103 -173 147.5t-263 44.5zM614 1675h-114l248 271h94l245 -271h-114l-178 193z" />
    <glyph glyph-name="Otilde" unicode="&#xd5;" horiz-adv-x="1587" 
d="M793 1579q179 0 299 -50.5t196 -158.5q67 -95 99 -261t32 -335q0 -150 -27.5 -313.5t-93.5 -265.5q-81 -124 -206 -177t-299 -53q-200 0 -328.5 55t-194.5 168q-102 171 -102 586q0 383 84 537q145 268 541 268zM793 1497q-349 0 -465 -227q-74 -147 -74 -496
q0 -152 19 -301t65 -229q34 -59 82.5 -99.5t109.5 -61t122.5 -28.5t140.5 -8q139 0 237 35.5t172 124.5q68 84 99.5 239.5t31.5 327.5q0 154 -25.5 299t-78.5 232q-65 103 -173 147.5t-263 44.5zM528 1700h-88q47 124 92 169.5t117 45.5q40 0 74 -15t84 -57
q47 -40 73.5 -55.5t57.5 -15.5q49 0 72 29t51 100h90q-17 -39 -25.5 -58t-24.5 -49t-29.5 -44t-34 -30t-45.5 -22t-56 -6q-42 0 -74 12t-69 45q-52 47 -83 66.5t-61 19.5q-24 0 -43 -10t-34 -33.5t-22.5 -40t-21.5 -51.5z" />
    <glyph glyph-name="Odieresis" unicode="&#xd6;" horiz-adv-x="1587" 
d="M793 1579q179 0 299 -50.5t196 -158.5q67 -95 99 -261t32 -335q0 -150 -27.5 -313.5t-93.5 -265.5q-81 -124 -206 -177t-299 -53q-200 0 -328.5 55t-194.5 168q-102 171 -102 586q0 383 84 537q145 268 541 268zM793 1497q-349 0 -465 -227q-74 -147 -74 -496
q0 -152 19 -301t65 -229q34 -59 82.5 -99.5t109.5 -61t122.5 -28.5t140.5 -8q139 0 237 35.5t172 124.5q68 84 99.5 239.5t31.5 327.5q0 154 -25.5 299t-78.5 232q-65 103 -173 147.5t-263 44.5zM639 1688h-90v258h90v-258zM1036 1688h-90v258h90v-258z" />
    <glyph glyph-name="multiply" unicode="&#xd7;" horiz-adv-x="1433" 
d="M369 287h-109l406 487l-406 483h109l348 -417l348 417h109l-404 -481l404 -489h-109l-346 424z" />
    <glyph glyph-name="Oslash" unicode="&#xd8;" horiz-adv-x="1587" 
d="M793 1579q179 0 299 -50.5t196 -158.5q67 -95 99 -261t32 -335q0 -150 -27.5 -313.5t-93.5 -265.5q-81 -124 -206 -177t-299 -53q-200 0 -328.5 55t-194.5 168q-102 171 -102 586q0 383 84 537q145 268 541 268zM375 190l760 1217q-116 90 -342 90q-349 0 -465 -227
q-74 -147 -74 -496q0 -443 121 -584zM436 133q115 -86 357 -86q139 0 237 35.5t172 124.5q68 84 99.5 239.5t31.5 327.5q0 101 -9 196.5t-42 206.5t-86 173z" />
    <glyph glyph-name="Ugrave" unicode="&#xd9;" horiz-adv-x="1513" 
d="M217 1544h84v-969q0 -181 23 -279.5t94 -160.5q57 -50 138.5 -69t203.5 -19t201.5 19t138.5 69q70 60 91 157.5t21 282.5v969h84v-971q0 -210 -28 -322t-119 -185q-67 -54 -160.5 -77.5t-228.5 -23.5q-136 0 -229.5 23.5t-163.5 79.5q-87 67 -118.5 184t-31.5 321v971z
M868 1675h-112l-228 271h115z" />
    <glyph glyph-name="Uacute" unicode="&#xda;" horiz-adv-x="1513" 
d="M217 1544h84v-969q0 -181 23 -279.5t94 -160.5q57 -50 138.5 -69t203.5 -19t201.5 19t138.5 69q70 60 91 157.5t21 282.5v969h84v-971q0 -210 -28 -322t-119 -185q-67 -54 -160.5 -77.5t-228.5 -23.5q-136 0 -229.5 23.5t-163.5 79.5q-87 67 -118.5 184t-31.5 321v971z
M741 1675h-114l233 271h117z" />
    <glyph glyph-name="Ucircumflex" unicode="&#xdb;" horiz-adv-x="1513" 
d="M217 1544h84v-969q0 -181 23 -279.5t94 -160.5q57 -50 138.5 -69t203.5 -19t201.5 19t138.5 69q70 60 91 157.5t21 282.5v969h84v-971q0 -210 -28 -322t-119 -185q-67 -54 -160.5 -77.5t-228.5 -23.5q-136 0 -229.5 23.5t-163.5 79.5q-87 67 -118.5 184t-31.5 321v971z
M578 1675h-115l248 271h94l246 -271h-115l-178 193z" />
    <glyph glyph-name="Udieresis" unicode="&#xdc;" horiz-adv-x="1513" 
d="M217 1544h84v-969q0 -181 23 -279.5t94 -160.5q57 -50 138.5 -69t203.5 -19t201.5 19t138.5 69q70 60 91 157.5t21 282.5v969h84v-971q0 -210 -28 -322t-119 -185q-67 -54 -160.5 -77.5t-228.5 -23.5q-136 0 -229.5 23.5t-163.5 79.5q-87 67 -118.5 184t-31.5 321v971z
M618 1688h-90v258h90v-258zM985 1688h-90v258h90v-258z" />
    <glyph glyph-name="Yacute" unicode="&#xdd;" horiz-adv-x="1212" 
d="M649 0h-86v594l-575 950h100l518 -854l518 854h101l-576 -950v-594zM592 1675h-115l234 271h116z" />
    <glyph glyph-name="Thorn" unicode="&#xde;" horiz-adv-x="1337" 
d="M309 0h-84v1544h84v-293h455q139 0 219 -27t135 -89q44 -51 68 -130t24 -165q0 -199 -82 -320q-46 -65 -112.5 -99t-169.5 -44q-90 -10 -537 -10v-367zM309 449q416 0 529 12q87 8 140.5 35t88.5 88q57 97 57 256q0 75 -21 143.5t-63 110.5q-44 44 -108 59.5t-166 15.5
h-457v-720z" />
    <glyph glyph-name="germandbls" unicode="&#xdf;" horiz-adv-x="1167" 
d="M262 0h-82v1047q0 138 13 229q19 107 73 166q52 57 132 90t153 33q151 0 233 -64q101 -79 101 -235q0 -132 -111 -260q-82 -95 -145 -158l237 -209q94 -86 135 -150q58 -89 58 -194q0 -149 -123 -238q-104 -75 -285 -75q-91 0 -217 18v82q140 -21 225 -21q144 0 228 62
q88 66 88 172q0 72 -27 125q-37 71 -129 151l-309 273q122 122 188 200q60 70 81.5 118t21.5 102q0 109 -64 168q-58 53 -186 53q-67 0 -136.5 -32.5t-103.5 -86.5q-16 -24 -25.5 -51t-12 -44t-5.5 -48q-6 -70 -6 -174v-1049z" />
    <glyph glyph-name="agrave" unicode="&#xe0;" horiz-adv-x="1167" 
d="M987 0h-82v199q-59 -53 -133 -113q-77 -62 -141.5 -91.5t-143.5 -29.5t-136.5 23.5t-89.5 58.5t-60 90q-31 62 -47.5 174.5t-16.5 239.5q0 268 84 397q63 96 150.5 132t212.5 36q56 0 129 -17.5t124.5 -35.5t149.5 -55v-1008zM905 305v647q-77 29 -115 42.5t-99.5 27.5
t-112.5 14q-107 0 -177.5 -33t-113.5 -108q-32 -56 -49 -149.5t-17 -194.5q0 -258 49 -365q35 -74 84.5 -107.5t132.5 -33.5q100 0 218 92q123 97 200 168zM707 1274h-113l-227 270h114z" />
    <glyph glyph-name="aacute" unicode="&#xe1;" horiz-adv-x="1167" 
d="M987 0h-82v199q-59 -53 -133 -113q-77 -62 -141.5 -91.5t-143.5 -29.5t-136.5 23.5t-89.5 58.5t-60 90q-31 62 -47.5 174.5t-16.5 239.5q0 268 84 397q63 96 150.5 132t212.5 36q56 0 129 -17.5t124.5 -35.5t149.5 -55v-1008zM905 305v647q-77 29 -115 42.5t-99.5 27.5
t-112.5 14q-107 0 -177.5 -33t-113.5 -108q-32 -56 -49 -149.5t-17 -194.5q0 -258 49 -365q35 -74 84.5 -107.5t132.5 -33.5q100 0 218 92q123 97 200 168zM590 1274h-115l234 270h116z" />
    <glyph glyph-name="acircumflex" unicode="&#xe2;" horiz-adv-x="1167" 
d="M987 0h-82v199q-59 -53 -133 -113q-77 -62 -141.5 -91.5t-143.5 -29.5t-136.5 23.5t-89.5 58.5t-60 90q-31 62 -47.5 174.5t-16.5 239.5q0 268 84 397q63 96 150.5 132t212.5 36q56 0 129 -17.5t124.5 -35.5t149.5 -55v-1008zM905 305v647q-77 29 -115 42.5t-99.5 27.5
t-112.5 14q-107 0 -177.5 -33t-113.5 -108q-32 -56 -49 -149.5t-17 -194.5q0 -258 49 -365q35 -74 84.5 -107.5t132.5 -33.5q100 0 218 92q123 97 200 168zM420 1274h-115l248 270h94l246 -270h-115l-178 192z" />
    <glyph glyph-name="atilde" unicode="&#xe3;" horiz-adv-x="1167" 
d="M987 0h-82v199q-59 -53 -133 -113q-77 -62 -141.5 -91.5t-143.5 -29.5t-136.5 23.5t-89.5 58.5t-60 90q-31 62 -47.5 174.5t-16.5 239.5q0 268 84 397q63 96 150.5 132t212.5 36q56 0 129 -17.5t124.5 -35.5t149.5 -55v-1008zM905 305v647q-77 29 -115 42.5t-99.5 27.5
t-112.5 14q-107 0 -177.5 -33t-113.5 -108q-32 -56 -49 -149.5t-17 -194.5q0 -258 49 -365q35 -74 84.5 -107.5t132.5 -33.5q100 0 218 92q123 97 200 168zM336 1298h-88q47 124 92 169.5t117 45.5q40 0 74 -15t83 -56q48 -41 74 -56.5t57 -15.5q49 0 72 29t51 100h90
q-17 -39 -25.5 -58t-24.5 -49t-29.5 -44t-34 -30t-45.5 -22t-56 -6q-41 0 -73.5 12.5t-69.5 45.5q-52 47 -82.5 66.5t-60.5 19.5q-20 0 -36.5 -8.5t-27.5 -19t-23 -32.5t-17.5 -35t-16.5 -41z" />
    <glyph glyph-name="adieresis" unicode="&#xe4;" horiz-adv-x="1167" 
d="M987 0h-82v199q-59 -53 -133 -113q-77 -62 -141.5 -91.5t-143.5 -29.5t-136.5 23.5t-89.5 58.5t-60 90q-31 62 -47.5 174.5t-16.5 239.5q0 268 84 397q63 96 150.5 132t212.5 36q56 0 129 -17.5t124.5 -35.5t149.5 -55v-1008zM905 305v647q-77 29 -115 42.5t-99.5 27.5
t-112.5 14q-107 0 -177.5 -33t-113.5 -108q-32 -56 -49 -149.5t-17 -194.5q0 -258 49 -365q35 -74 84.5 -107.5t132.5 -33.5q100 0 218 92q123 97 200 168zM449 1286h-89v258h89v-258zM809 1286h-88v258h88v-258z" />
    <glyph glyph-name="aring" unicode="&#xe5;" horiz-adv-x="1167" 
d="M987 0h-82v199q-59 -53 -133 -113q-77 -62 -141.5 -91.5t-143.5 -29.5t-136.5 23.5t-89.5 58.5t-60 90q-31 62 -47.5 174.5t-16.5 239.5q0 268 84 397q63 96 150.5 132t212.5 36q56 0 129 -17.5t124.5 -35.5t149.5 -55v-1008zM905 305v647q-77 29 -115 42.5t-99.5 27.5
t-112.5 14q-107 0 -177.5 -33t-113.5 -108q-32 -56 -49 -149.5t-17 -194.5q0 -258 49 -365q35 -74 84.5 -107.5t132.5 -33.5q100 0 218 92q123 97 200 168zM590 1642q105 0 166 -65q51 -54 51 -147q0 -81 -45 -134q-62 -73 -172 -73t-172 73q-45 53 -45 134q0 93 51 147
q61 65 166 65zM590 1567q-74 0 -111 -43q-28 -35 -28 -94q0 -53 28 -89q34 -43 111 -43q76 0 110 43q29 37 29 89q0 58 -29 94q-37 43 -110 43z" />
    <glyph glyph-name="ae" unicode="&#xe6;" horiz-adv-x="1880" 
d="M1694 6q-200 -41 -338 -41q-347 0 -434 234q-100 -77 -168 -123q-166 -111 -295 -111q-87 0 -142 15t-98 55q-86 78 -86 237q0 83 32 153t91 103q61 33 139.5 43.5t225.5 10.5h268v159q0 57 -1 85t-7 63t-19 57q-27 49 -89.5 69.5t-172.5 20.5q-77 0 -205.5 -22.5
t-218.5 -44.5v82q283 65 420 65q154 0 238.5 -38.5t121.5 -139.5q91 178 377 178q271 0 371 -192q45 -88 45 -217q0 -91 -20 -205h-760q0 -72 1.5 -111.5t11.5 -96t30 -93.5q44 -83 125 -119.5t219 -36.5q119 0 338 45v-84zM969 582h686q10 58 10 123q0 123 -39 190
q-80 141 -293 141q-239 0 -317 -164q-47 -97 -47 -290zM889 270v232h-283q-119 0 -189 -8.5t-120 -40.5q-80 -51 -80 -181q0 -67 15 -109t51 -71q53 -45 166 -45q103 0 276 109q103 68 164 114z" />
    <glyph glyph-name="ccedilla" unicode="&#xe7;" horiz-adv-x="983" 
d="M887 16q-219 -51 -314 -51q-144 0 -225.5 38.5t-132.5 131.5q-78 144 -78 400q0 236 43 356q43 118 131.5 171.5t261.5 53.5q117 0 314 -63v-82q-209 65 -314 65q-132 0 -203 -35t-108 -129q-41 -101 -41 -337q0 -106 18 -205.5t50 -155.5q42 -74 110 -101.5t174 -27.5
q107 0 314 53v-82zM459 -393h-107l164 270h109z" />
    <glyph glyph-name="egrave" unicode="&#xe8;" horiz-adv-x="1134" 
d="M948 6q-200 -41 -338 -41q-167 0 -259 44.5t-144 137.5q-38 68 -54 159t-16 233q0 120 13.5 211t52.5 170q95 196 385 196q270 0 370 -192q46 -90 46 -217q0 -85 -21 -205h-764q0 -200 53 -299q43 -84 122 -121t216 -37q112 0 338 43v-82zM219 582h690q11 64 11 125
q0 121 -39 188q-80 141 -293 141q-240 0 -318 -164q-26 -53 -38.5 -134.5t-12.5 -155.5zM700 1274h-112l-228 270h115z" />
    <glyph glyph-name="eacute" unicode="&#xe9;" horiz-adv-x="1134" 
d="M948 6q-200 -41 -338 -41q-167 0 -259 44.5t-144 137.5q-38 68 -54 159t-16 233q0 120 13.5 211t52.5 170q95 196 385 196q270 0 370 -192q46 -90 46 -217q0 -85 -21 -205h-764q0 -200 53 -299q43 -84 122 -121t216 -37q112 0 338 43v-82zM219 582h690q11 64 11 125
q0 121 -39 188q-80 141 -293 141q-240 0 -318 -164q-26 -53 -38.5 -134.5t-12.5 -155.5zM584 1274h-115l233 270h117z" />
    <glyph glyph-name="ecircumflex" unicode="&#xea;" horiz-adv-x="1134" 
d="M948 6q-200 -41 -338 -41q-167 0 -259 44.5t-144 137.5q-38 68 -54 159t-16 233q0 120 13.5 211t52.5 170q95 196 385 196q270 0 370 -192q46 -90 46 -217q0 -85 -21 -205h-764q0 -200 53 -299q43 -84 122 -121t216 -37q112 0 338 43v-82zM219 582h690q11 64 11 125
q0 121 -39 188q-80 141 -293 141q-240 0 -318 -164q-26 -53 -38.5 -134.5t-12.5 -155.5zM406 1274h-115l248 270h94l246 -270h-115l-178 192z" />
    <glyph glyph-name="edieresis" unicode="&#xeb;" horiz-adv-x="1134" 
d="M948 6q-200 -41 -338 -41q-167 0 -259 44.5t-144 137.5q-38 68 -54 159t-16 233q0 120 13.5 211t52.5 170q95 196 385 196q270 0 370 -192q46 -90 46 -217q0 -85 -21 -205h-764q0 -200 53 -299q43 -84 122 -121t216 -37q112 0 338 43v-82zM219 582h690q11 64 11 125
q0 121 -39 188q-80 141 -293 141q-240 0 -318 -164q-26 -53 -38.5 -134.5t-12.5 -155.5zM463 1286h-88v258h88v-258zM788 1286h-88v258h88v-258z" />
    <glyph glyph-name="igrave" unicode="&#xec;" horiz-adv-x="442" 
d="M262 0h-82v1081h82v-1081zM299 1274h-113l-227 270h115z" />
    <glyph glyph-name="iacute" unicode="&#xed;" horiz-adv-x="442" 
d="M262 0h-82v1081h82v-1081zM252 1274h-115l234 270h116z" />
    <glyph glyph-name="icircumflex" unicode="&#xee;" horiz-adv-x="442" 
d="M262 0h-82v1081h82v-1081zM39 1274h-115l248 270h94l246 -270h-115l-178 192z" />
    <glyph glyph-name="idieresis" unicode="&#xef;" horiz-adv-x="442" 
d="M262 0h-82v1081h82v-1081zM160 1286h-88v258h88v-258zM371 1286h-86v258h86v-258z" />
    <glyph glyph-name="eth" unicode="&#xf0;" horiz-adv-x="1181" 
d="M420 1499v88q225 -73 336 -168l231 121v-90l-174 -90q74 -92 122.5 -241.5t67.5 -302t19 -316.5q0 -219 -66 -336q-54 -97 -144 -148t-232 -51q-136 0 -219.5 38t-139.5 122q-84 125 -84 369q0 103 8.5 171t34.5 130q33 78 76 125t122 75.5t197 28.5q53 0 117.5 -14.5
t103.5 -28t101 -37.5q-15 88 -52.5 191t-105.5 186l-319 -164v88l258 133q-109 84 -258 121zM911 852q-218 88 -348 88q-117 0 -184.5 -35t-106.5 -114q-29 -59 -40 -125.5t-11 -167.5q0 -205 66 -316q44 -78 112.5 -107.5t180.5 -29.5q212 0 290 135q68 119 68 328t-27 344
z" />
    <glyph glyph-name="ntilde" unicode="&#xf1;" horiz-adv-x="1177" 
d="M262 0h-82v1081h82v-88q97 44 150 65t126 39.5t138 18.5q96 0 159.5 -22t104.5 -76q39 -50 50 -121t11 -178v-719h-81v723q0 178 -48 242q-53 71 -196 71q-60 0 -141 -23.5t-131.5 -45t-141.5 -62.5v-905zM332 1298h-88q47 124 92 169.5t117 45.5q40 0 74 -15t83 -56
q48 -41 74 -56.5t57 -15.5q49 0 72 29t51 100h90q-17 -39 -25.5 -58t-24.5 -49t-29.5 -44t-34 -30t-45.5 -22t-56 -6q-41 0 -73.5 12.5t-69.5 45.5q-52 47 -82.5 66.5t-60.5 19.5q-20 0 -36.5 -8.5t-27.5 -19t-23 -32.5t-17.5 -35t-16.5 -41z" />
    <glyph glyph-name="ograve" unicode="&#xf2;" horiz-adv-x="1167" 
d="M584 1116q125 0 207 -32.5t139 -108.5q100 -136 100 -430q0 -118 -18 -220.5t-49 -162.5q-96 -197 -379 -197q-138 0 -222.5 37.5t-138.5 122.5q-41 65 -63.5 177t-22.5 233q0 224 45 337q46 120 139.5 182t262.5 62zM584 1036q-123 0 -197 -40.5t-117 -129.5
q-49 -106 -49 -329q0 -106 17.5 -203t48.5 -152q45 -78 114 -107.5t183 -29.5q215 0 293 133q69 120 69 369q0 222 -57 334q-44 87 -116.5 121t-188.5 34zM692 1274h-112l-228 270h115z" />
    <glyph glyph-name="oacute" unicode="&#xf3;" horiz-adv-x="1167" 
d="M584 1116q125 0 207 -32.5t139 -108.5q100 -136 100 -430q0 -118 -18 -220.5t-49 -162.5q-96 -197 -379 -197q-138 0 -222.5 37.5t-138.5 122.5q-41 65 -63.5 177t-22.5 233q0 224 45 337q46 120 139.5 182t262.5 62zM584 1036q-123 0 -197 -40.5t-117 -129.5
q-49 -106 -49 -329q0 -106 17.5 -203t48.5 -152q45 -78 114 -107.5t183 -29.5q215 0 293 133q69 120 69 369q0 222 -57 334q-44 87 -116.5 121t-188.5 34zM559 1274h-115l234 270h117z" />
    <glyph glyph-name="ocircumflex" unicode="&#xf4;" horiz-adv-x="1167" 
d="M584 1116q125 0 207 -32.5t139 -108.5q100 -136 100 -430q0 -118 -18 -220.5t-49 -162.5q-96 -197 -379 -197q-138 0 -222.5 37.5t-138.5 122.5q-41 65 -63.5 177t-22.5 233q0 224 45 337q46 120 139.5 182t262.5 62zM584 1036q-123 0 -197 -40.5t-117 -129.5
q-49 -106 -49 -329q0 -106 17.5 -203t48.5 -152q45 -78 114 -107.5t183 -29.5q215 0 293 133q69 120 69 369q0 222 -57 334q-44 87 -116.5 121t-188.5 34zM406 1274h-115l248 270h94l246 -270h-115l-178 192z" />
    <glyph glyph-name="otilde" unicode="&#xf5;" horiz-adv-x="1167" 
d="M584 1116q125 0 207 -32.5t139 -108.5q100 -136 100 -430q0 -118 -18 -220.5t-49 -162.5q-96 -197 -379 -197q-138 0 -222.5 37.5t-138.5 122.5q-41 65 -63.5 177t-22.5 233q0 224 45 337q46 120 139.5 182t262.5 62zM584 1036q-123 0 -197 -40.5t-117 -129.5
q-49 -106 -49 -329q0 -106 17.5 -203t48.5 -152q45 -78 114 -107.5t183 -29.5q215 0 293 133q69 120 69 369q0 222 -57 334q-44 87 -116.5 121t-188.5 34zM324 1298h-88q47 124 91.5 169.5t116.5 45.5q40 0 74.5 -15t83.5 -56q48 -41 74 -56.5t57 -15.5q49 0 72 29t51 100
h90q-17 -39 -25.5 -58t-24.5 -49t-29.5 -44t-34 -30t-45.5 -22t-56 -6q-41 0 -73.5 12.5t-69.5 45.5q-52 47 -83 66.5t-61 19.5q-24 0 -42.5 -10t-33.5 -34.5t-22.5 -40t-21.5 -51.5z" />
    <glyph glyph-name="odieresis" unicode="&#xf6;" horiz-adv-x="1167" 
d="M584 1116q125 0 207 -32.5t139 -108.5q100 -136 100 -430q0 -118 -18 -220.5t-49 -162.5q-96 -197 -379 -197q-138 0 -222.5 37.5t-138.5 122.5q-41 65 -63.5 177t-22.5 233q0 224 45 337q46 120 139.5 182t262.5 62zM584 1036q-123 0 -197 -40.5t-117 -129.5
q-49 -106 -49 -329q0 -106 17.5 -203t48.5 -152q45 -78 114 -107.5t183 -29.5q215 0 293 133q69 120 69 369q0 222 -57 334q-44 87 -116.5 121t-188.5 34zM459 1286h-88v258h88v-258zM797 1286h-88v258h88v-258z" />
    <glyph glyph-name="divide" unicode="&#xf7;" horiz-adv-x="1433" 
d="M776 272h-121v217h121v-217zM776 1055h-121v217h121v-217zM1251 731h-1069v82h1069v-82z" />
    <glyph glyph-name="oslash" unicode="&#xf8;" horiz-adv-x="1167" 
d="M584 1116q125 0 207 -32.5t139 -108.5q100 -136 100 -430q0 -118 -18 -220.5t-49 -162.5q-96 -197 -379 -197q-138 0 -222.5 37.5t-138.5 122.5q-41 65 -63.5 177t-22.5 233q0 224 45 337q46 120 139.5 182t262.5 62zM299 160l510 821q-76 55 -225 55q-123 0 -197 -40.5
t-117 -129.5q-49 -106 -49 -329q0 -261 78 -377zM356 100q76 -55 228 -55q215 0 293 133q69 120 69 369q0 280 -80 375z" />
    <glyph glyph-name="ugrave" unicode="&#xf9;" horiz-adv-x="1153" 
d="M973 49q-112 -32 -166 -46t-132 -26t-153 -12q-109 0 -175.5 22t-108.5 79q-37 50 -49.5 131t-12.5 202v682h82v-684q0 -70 2 -111.5t12.5 -89t30.5 -75.5q30 -42 78 -59t135 -17q73 0 148 11.5t116 22.5t111 32v970h82v-1032zM694 1274h-112l-228 270h115z" />
    <glyph glyph-name="uacute" unicode="&#xfa;" horiz-adv-x="1153" 
d="M973 49q-112 -32 -166 -46t-132 -26t-153 -12q-109 0 -175.5 22t-108.5 79q-37 50 -49.5 131t-12.5 202v682h82v-684q0 -70 2 -111.5t12.5 -89t30.5 -75.5q30 -42 78 -59t135 -17q73 0 148 11.5t116 22.5t111 32v970h82v-1032zM569 1274h-114l233 270h117z" />
    <glyph glyph-name="ucircumflex" unicode="&#xfb;" horiz-adv-x="1153" 
d="M973 49q-112 -32 -166 -46t-132 -26t-153 -12q-109 0 -175.5 22t-108.5 79q-37 50 -49.5 131t-12.5 202v682h82v-684q0 -70 2 -111.5t12.5 -89t30.5 -75.5q30 -42 78 -59t135 -17q73 0 148 11.5t116 22.5t111 32v970h82v-1032zM397 1274h-114l247 270h95l245 -270h-114
l-178 192z" />
    <glyph glyph-name="udieresis" unicode="&#xfc;" horiz-adv-x="1153" 
d="M973 49q-112 -32 -166 -46t-132 -26t-153 -12q-109 0 -175.5 22t-108.5 79q-37 50 -49.5 131t-12.5 202v682h82v-684q0 -70 2 -111.5t12.5 -89t30.5 -75.5q30 -42 78 -59t135 -17q73 0 148 11.5t116 22.5t111 32v970h82v-1032zM438 1286h-88v258h88v-258zM801 1286h-88
v258h88v-258z" />
    <glyph glyph-name="yacute" unicode="&#xfd;" horiz-adv-x="997" 
d="M375 -393h-90l168 413l-424 1061h90l379 -948l383 948h88zM489 1274h-114l233 270h117z" />
    <glyph glyph-name="thorn" unicode="&#xfe;" horiz-adv-x="1181" 
d="M262 -393h-82v1937h82v-602q74 58 150 105q114 69 243 69q116 0 192.5 -43t127.5 -139q33 -62 51 -168t18 -227q0 -260 -79 -398q-52 -90 -130.5 -133t-203.5 -43q-84 0 -171 26.5t-198 78.5v-463zM262 160q78 -38 123.5 -58t115 -38.5t130.5 -18.5q97 0 158.5 33
t103.5 106q68 118 68 357q0 225 -56 346q-36 78 -97.5 113.5t-152.5 35.5q-109 0 -215 -65q-81 -52 -178 -129v-682z" />
    <glyph glyph-name="ydieresis" unicode="&#xff;" horiz-adv-x="997" 
d="M375 -393h-90l168 413l-424 1061h90l379 -948l383 948h88zM377 1286h-88v258h88v-258zM711 1286h-88v258h88v-258z" />
    <glyph glyph-name="Amacron" unicode="&#x100;" horiz-adv-x="1378" 
d="M133 0h-90l590 1544h108l594 -1544h-92l-170 440h-772zM332 522h710l-356 932zM963 1733h-547v82h547v-82z" />
    <glyph glyph-name="amacron" unicode="&#x101;" horiz-adv-x="1167" 
d="M987 0h-82v199q-59 -53 -133 -113q-77 -62 -141.5 -91.5t-143.5 -29.5t-136.5 23.5t-89.5 58.5t-60 90q-31 62 -47.5 174.5t-16.5 239.5q0 268 84 397q63 96 150.5 132t212.5 36q56 0 129 -17.5t124.5 -35.5t149.5 -55v-1008zM905 305v647q-77 29 -115 42.5t-99.5 27.5
t-112.5 14q-107 0 -177.5 -33t-113.5 -108q-32 -56 -49 -149.5t-17 -194.5q0 -258 49 -365q35 -74 84.5 -107.5t132.5 -33.5q100 0 218 92q123 97 200 168zM872 1331h-546v82h546v-82z" />
    <glyph glyph-name="Abreve" unicode="&#x102;" horiz-adv-x="1378" 
d="M133 0h-90l590 1544h108l594 -1544h-92l-170 440h-772zM332 522h710l-356 932zM399 1946h88q34 -112 72 -150q47 -47 129 -47t125 49q47 52 74 148h88q-41 -159 -121 -226q-64 -53 -166 -53q-111 0 -176 57q-37 31 -66.5 93t-46.5 129z" />
    <glyph glyph-name="abreve" unicode="&#x103;" horiz-adv-x="1167" 
d="M987 0h-82v199q-59 -53 -133 -113q-77 -62 -141.5 -91.5t-143.5 -29.5t-136.5 23.5t-89.5 58.5t-60 90q-31 62 -47.5 174.5t-16.5 239.5q0 268 84 397q63 96 150.5 132t212.5 36q56 0 129 -17.5t124.5 -35.5t149.5 -55v-1008zM905 305v647q-77 29 -115 42.5t-99.5 27.5
t-112.5 14q-107 0 -177.5 -33t-113.5 -108q-32 -56 -49 -149.5t-17 -194.5q0 -258 49 -365q35 -74 84.5 -107.5t132.5 -33.5q100 0 218 92q123 97 200 168zM293 1544h88q33 -110 72 -149q47 -47 129 -47t125 49q46 51 73 147h88q-41 -159 -120 -225q-64 -53 -166 -53
q-111 0 -176 57q-37 31 -66.5 93t-46.5 128z" />
    <glyph glyph-name="Aogonek" unicode="&#x104;" horiz-adv-x="1378" 
d="M133 0h-90l590 1544h108l594 -1544q-106 -80 -164 -143q-53 -58 -53 -109q0 -61 64 -61q46 0 151 43v-88q-79 -37 -147 -37q-79 0 -119 43q-35 38 -35 106q0 65 60 135q50 59 143 134l-162 417h-772zM686 1454l-354 -932h710z" />
    <glyph glyph-name="aogonek" unicode="&#x105;" horiz-adv-x="1167" 
d="M987 -358q-79 -37 -147 -37q-79 0 -119 43q-35 38 -35 106q0 66 59 135q54 62 160 144v166q-59 -53 -133 -113q-77 -62 -141.5 -91.5t-143.5 -29.5t-136.5 23.5t-89.5 58.5t-60 90q-31 62 -47.5 174.5t-16.5 239.5q0 268 84 397q63 96 150.5 132t212.5 36q56 0 129 -17.5
t124.5 -35.5t149.5 -55v-1008q-110 -87 -162 -143q-53 -58 -53 -109q0 -61 64 -61q46 0 151 43v-88zM905 305v647q-77 29 -115 42.5t-99.5 27.5t-112.5 14q-107 0 -177.5 -33t-113.5 -108q-32 -56 -49 -149.5t-17 -194.5q0 -258 49 -365q35 -74 84.5 -107.5t132.5 -33.5
q100 0 218 92q123 97 200 168z" />
    <glyph glyph-name="Cacute" unicode="&#x106;" horiz-adv-x="1300" 
d="M1178 25q-141 -31 -240 -45.5t-207 -14.5q-200 0 -317 71.5t-178 225.5q-33 83 -50.5 221t-17.5 285q0 405 104 588q47 81 104.5 128.5t144 71t214.5 23.5q107 0 256 -29q68 -13 187 -45v-84q-106 30 -220 52q-120 24 -223 24q-159 0 -250.5 -45.5t-148.5 -161.5
q-41 -81 -61.5 -223.5t-20.5 -300.5q0 -315 61 -471q48 -127 147.5 -187.5t268.5 -60.5q108 0 204.5 15.5t242.5 48.5v-86zM727 1675h-115l234 271h117z" />
    <glyph glyph-name="cacute" unicode="&#x107;" horiz-adv-x="983" 
d="M887 16q-219 -51 -314 -51q-144 0 -225.5 38.5t-132.5 131.5q-78 144 -78 400q0 236 43 356q43 118 131.5 171.5t261.5 53.5q117 0 314 -63v-82q-209 65 -314 65q-132 0 -203 -35t-108 -129q-41 -101 -41 -337q0 -106 18 -205.5t50 -155.5q42 -74 110 -101.5t174 -27.5
q107 0 314 53v-82zM537 1274h-115l233 270h117z" />
    <glyph glyph-name="Ccircumflex" unicode="&#x108;" horiz-adv-x="1300" 
d="M1178 25q-141 -31 -240 -45.5t-207 -14.5q-200 0 -317 71.5t-178 225.5q-33 83 -50.5 221t-17.5 285q0 405 104 588q47 81 104.5 128.5t144 71t214.5 23.5q107 0 256 -29q68 -13 187 -45v-84q-106 30 -220 52q-120 24 -223 24q-159 0 -250.5 -45.5t-148.5 -161.5
q-41 -81 -61.5 -223.5t-20.5 -300.5q0 -315 61 -471q48 -127 147.5 -187.5t268.5 -60.5q108 0 204.5 15.5t242.5 48.5v-86zM561 1675h-115l248 271h94l246 -271h-114l-179 193z" />
    <glyph glyph-name="ccircumflex" unicode="&#x109;" horiz-adv-x="983" 
d="M887 16q-219 -51 -314 -51q-144 0 -225.5 38.5t-132.5 131.5q-78 144 -78 400q0 236 43 356q43 118 131.5 171.5t261.5 53.5q117 0 314 -63v-82q-209 65 -314 65q-132 0 -203 -35t-108 -129q-41 -101 -41 -337q0 -106 18 -205.5t50 -155.5q42 -74 110 -101.5t174 -27.5
q107 0 314 53v-82zM369 1274h-115l248 270h94l246 -270h-115l-178 192z" />
    <glyph glyph-name="Cdotaccent" unicode="&#x10a;" horiz-adv-x="1300" 
d="M1178 25q-141 -31 -240 -45.5t-207 -14.5q-200 0 -317 71.5t-178 225.5q-33 83 -50.5 221t-17.5 285q0 405 104 588q47 81 104.5 128.5t144 71t214.5 23.5q107 0 256 -29q68 -13 187 -45v-84q-106 30 -220 52q-120 24 -223 24q-159 0 -250.5 -45.5t-148.5 -161.5
q-41 -81 -61.5 -223.5t-20.5 -300.5q0 -315 61 -471q48 -127 147.5 -187.5t268.5 -60.5q108 0 204.5 15.5t242.5 48.5v-86zM758 1688h-90v258h90v-258z" />
    <glyph glyph-name="cdotaccent" unicode="&#x10b;" horiz-adv-x="983" 
d="M887 16q-219 -51 -314 -51q-144 0 -225.5 38.5t-132.5 131.5q-78 144 -78 400q0 236 43 356q43 118 131.5 171.5t261.5 53.5q117 0 314 -63v-82q-209 65 -314 65q-132 0 -203 -35t-108 -129q-41 -101 -41 -337q0 -106 18 -205.5t50 -155.5q42 -74 110 -101.5t174 -27.5
q107 0 314 53v-82zM582 1286h-90v258h90v-258z" />
    <glyph glyph-name="Ccaron" unicode="&#x10c;" horiz-adv-x="1300" 
d="M1178 25q-141 -31 -240 -45.5t-207 -14.5q-200 0 -317 71.5t-178 225.5q-33 83 -50.5 221t-17.5 285q0 405 104 588q47 81 104.5 128.5t144 71t214.5 23.5q107 0 256 -29q68 -13 187 -45v-84q-106 30 -220 52q-120 24 -223 24q-159 0 -250.5 -45.5t-148.5 -161.5
q-41 -81 -61.5 -223.5t-20.5 -300.5q0 -315 61 -471q48 -127 147.5 -187.5t268.5 -60.5q108 0 204.5 15.5t242.5 48.5v-86zM545 1946l180 -193l178 193h115l-246 -271h-94l-248 271h115z" />
    <glyph glyph-name="ccaron" unicode="&#x10d;" horiz-adv-x="983" 
d="M887 16q-219 -51 -314 -51q-144 0 -225.5 38.5t-132.5 131.5q-78 144 -78 400q0 236 43 356q43 118 131.5 171.5t261.5 53.5q117 0 314 -63v-82q-209 65 -314 65q-132 0 -203 -35t-108 -129q-41 -101 -41 -337q0 -106 18 -205.5t50 -155.5q42 -74 110 -101.5t174 -27.5
q107 0 314 53v-82zM360 1544l181 -192l178 192h115l-246 -270h-94l-248 270h114z" />
    <glyph glyph-name="Dcaron" unicode="&#x10e;" horiz-adv-x="1513" 
d="M225 0v1544h514q160 0 251 -26.5t167 -96.5q95 -86 142 -260.5t47 -382.5q0 -204 -44 -370.5t-135 -260.5q-78 -80 -182.5 -113.5t-261.5 -33.5h-498zM309 82h412q146 0 234.5 31.5t154.5 99.5q70 73 110 222.5t40 342.5q0 184 -38 336t-110 232q-62 68 -149 92t-224 24
h-430v-1380zM502 1946l180 -193l178 193h115l-246 -271h-94l-248 271h115z" />
    <glyph glyph-name="dcaron" unicode="&#x10f;" horiz-adv-x="1198" 
d="M1001 0h-81v158q-76 -60 -162 -111q-138 -82 -262 -82q-122 0 -185.5 42.5t-105.5 131.5q-68 142 -68 406q0 262 76 405q49 91 131.5 128.5t204.5 37.5q135 0 371 -76v504h81v-1544zM920 260v696q-245 80 -371 80q-201 0 -268 -137q-60 -120 -60 -354q0 -232 53 -357
q31 -75 83 -110t139 -35q90 0 209 68q104 61 215 149zM1200 1161h-74v383h88v-137q0 -121 -14 -246z" />
    <glyph glyph-name="Dcroat" unicode="&#x110;" horiz-adv-x="1527" 
d="M240 0v760h-146v82h146v702h514q159 0 250 -26.5t167 -96.5q95 -86 142 -260.5t47 -382.5q0 -204 -43.5 -370.5t-134.5 -260.5q-78 -80 -182.5 -113.5t-262.5 -33.5h-497zM324 82h411q146 0 234.5 31.5t154.5 99.5q70 73 110 222.5t40 342.5q0 184 -38 336t-110 232
q-62 68 -148.5 92t-223.5 24h-430v-620h469v-82h-469v-678z" />
    <glyph glyph-name="dcroat" unicode="&#x111;" horiz-adv-x="1181" 
d="M1001 0h-81v158q-76 -60 -162 -111q-138 -82 -262 -82q-122 0 -185.5 42.5t-105.5 131.5q-68 142 -68 406q0 262 76 405q49 91 131.5 128.5t204.5 37.5q135 0 371 -76v209h-265v80h265v215h81v-215h179v-80h-179v-1249zM920 260v696q-245 80 -371 80q-201 0 -268 -137
q-60 -120 -60 -354q0 -232 53 -357q31 -75 83 -110t139 -35q90 0 209 68q104 61 215 149z" />
    <glyph glyph-name="Emacron" unicode="&#x112;" horiz-adv-x="1333" 
d="M1249 0h-1024v1544h992v-82h-908v-631h862v-81h-862v-668h940v-82zM995 1733h-546v82h546v-82z" />
    <glyph glyph-name="emacron" unicode="&#x113;" horiz-adv-x="1134" 
d="M948 6q-200 -41 -338 -41q-167 0 -259 44.5t-144 137.5q-38 68 -54 159t-16 233q0 120 13.5 211t52.5 170q95 196 385 196q270 0 370 -192q46 -90 46 -217q0 -85 -21 -205h-764q0 -200 53 -299q43 -84 122 -121t216 -37q112 0 338 43v-82zM219 582h690q11 64 11 125
q0 121 -39 188q-80 141 -293 141q-240 0 -318 -164q-26 -53 -38.5 -134.5t-12.5 -155.5zM862 1331h-547v82h547v-82z" />
    <glyph glyph-name="Ebreve" unicode="&#x114;" horiz-adv-x="1333" 
d="M1249 0h-1024v1544h992v-82h-908v-631h862v-81h-862v-668h940v-82zM420 1946h88q34 -112 72 -150q47 -47 129 -47t125 49q46 51 73 148h88q-41 -159 -121 -226q-64 -53 -165 -53q-112 0 -177 57q-70 60 -112 222z" />
    <glyph glyph-name="ebreve" unicode="&#x115;" horiz-adv-x="1134" 
d="M948 6q-200 -41 -338 -41q-167 0 -259 44.5t-144 137.5q-38 68 -54 159t-16 233q0 120 13.5 211t52.5 170q95 196 385 196q270 0 370 -192q46 -90 46 -217q0 -85 -21 -205h-764q0 -200 53 -299q43 -84 122 -121t216 -37q112 0 338 43v-82zM219 582h690q11 64 11 125
q0 121 -39 188q-80 141 -293 141q-240 0 -318 -164q-26 -53 -38.5 -134.5t-12.5 -155.5zM293 1544h88q33 -110 72 -149q47 -47 129 -47t125 49q46 51 73 147h88q-41 -159 -120 -225q-64 -53 -166 -53q-111 0 -176 57q-37 31 -66.5 93t-46.5 128z" />
    <glyph glyph-name="Edotaccent" unicode="&#x116;" horiz-adv-x="1333" 
d="M1249 0h-1024v1544h992v-82h-908v-631h862v-81h-862v-668h940v-82zM756 1688h-90v258h90v-258z" />
    <glyph glyph-name="edotaccent" unicode="&#x117;" horiz-adv-x="1134" 
d="M948 6q-200 -41 -338 -41q-167 0 -259 44.5t-144 137.5q-38 68 -54 159t-16 233q0 120 13.5 211t52.5 170q95 196 385 196q270 0 370 -192q46 -90 46 -217q0 -85 -21 -205h-764q0 -200 53 -299q43 -84 122 -121t216 -37q112 0 338 43v-82zM219 582h690q11 64 11 125
q0 121 -39 188q-80 141 -293 141q-240 0 -318 -164q-26 -53 -38.5 -134.5t-12.5 -155.5zM621 1286h-91v258h91v-258z" />
    <glyph glyph-name="Eogonek" unicode="&#x118;" horiz-adv-x="1333" 
d="M1247 -358q-79 -37 -147 -37q-79 0 -119 43q-35 38 -35 106q0 65 60 135q50 59 114 111h-895v1544h992v-82h-908v-631h862v-81h-862v-668h940v-82q-106 -80 -164 -143q-53 -58 -53 -109q0 -61 64 -61q46 0 151 43v-88z" />
    <glyph glyph-name="eogonek" unicode="&#x119;" horiz-adv-x="1134" 
d="M946 -358q-79 -37 -147 -37q-79 0 -119 43q-35 38 -35 106q0 65 60 135q31 36 92 93q-112 -17 -187 -17q-167 0 -259 44.5t-144 137.5q-38 68 -54 159t-16 233q0 120 13.5 211t52.5 170q95 196 385 196q270 0 370 -192q46 -90 46 -217q0 -85 -21 -205h-764
q0 -200 53 -299q43 -84 122 -121t216 -37q113 0 338 45v-84q-88 -66 -164 -149q-53 -58 -53 -109q0 -61 64 -61q46 0 151 43v-88zM219 582h692q11 64 11 123q0 120 -37 190q-37 68 -114 104.5t-183 36.5q-240 0 -318 -164q-25 -52 -38 -138t-13 -152z" />
    <glyph glyph-name="Ecaron" unicode="&#x11a;" horiz-adv-x="1333" 
d="M1249 0h-1024v1544h992v-82h-908v-631h862v-81h-862v-668h940v-82zM545 1946l180 -193l178 193h115l-246 -271h-94l-248 271h115z" />
    <glyph glyph-name="ecaron" unicode="&#x11b;" horiz-adv-x="1134" 
d="M948 6q-200 -41 -338 -41q-167 0 -259 44.5t-144 137.5q-38 68 -54 159t-16 233q0 120 13.5 211t52.5 170q95 196 385 196q270 0 370 -192q46 -90 46 -217q0 -85 -21 -205h-764q0 -200 53 -299q43 -84 122 -121t216 -37q112 0 338 43v-82zM219 582h690q11 64 11 125
q0 121 -39 188q-80 141 -293 141q-240 0 -318 -164q-26 -53 -38.5 -134.5t-12.5 -155.5zM387 1544l180 -192l178 192h115l-246 -270h-94l-248 270h115z" />
    <glyph glyph-name="Gcircumflex" unicode="&#x11c;" horiz-adv-x="1488" 
d="M1270 16q-347 -51 -535 -51q-140 0 -239 37.5t-155.5 98.5t-98.5 155q-74 168 -74 512q0 410 104 588q69 119 173 171t290 52q107 0 260 -29q101 -20 222 -53v-84q-110 28 -254 57q-139 27 -228 27q-158 0 -250 -46t-151 -161q-39 -81 -59.5 -224.5t-20.5 -299.5
q0 -322 65 -473q58 -140 166.5 -193t280.5 -53q130 0 420 41v733h84v-805zM567 1675h-114l247 271h95l245 -271h-114l-178 193z" />
    <glyph glyph-name="gcircumflex" unicode="&#x11d;" horiz-adv-x="1175" 
d="M176 -399v84q209 -33 336 -33q232 0 326 110q75 88 75 306v59q-80 -38 -161 -72q-137 -55 -256 -55q-125 0 -189 40.5t-104 119.5q-64 125 -64 393q0 256 72 389q54 98 139 136t213 38q129 0 432 -100v-955q0 -135 -26.5 -222.5t-81.5 -145.5q-115 -121 -375 -121
q-109 0 -336 29zM913 219v737q-244 80 -354 80t-174.5 -31.5t-103.5 -107.5q-58 -113 -58 -344q0 -239 53 -354q30 -64 82 -91.5t138 -27.5q90 0 213 47q86 33 204 92zM410 1274h-115l248 270h94l246 -270h-115l-178 192z" />
    <glyph glyph-name="Gbreve" unicode="&#x11e;" horiz-adv-x="1488" 
d="M1270 16q-347 -51 -535 -51q-140 0 -239 37.5t-155.5 98.5t-98.5 155q-74 168 -74 512q0 410 104 588q69 119 173 171t290 52q107 0 260 -29q101 -20 222 -53v-84q-110 28 -254 57q-139 27 -228 27q-158 0 -250 -46t-151 -161q-39 -81 -59.5 -224.5t-20.5 -299.5
q0 -322 65 -473q58 -140 166.5 -193t280.5 -53q130 0 420 41v733h84v-805zM461 1946h88q34 -112 72 -150q47 -47 129 -47q81 0 124 49q47 52 74 148h88q-41 -159 -121 -226q-64 -53 -165 -53q-112 0 -177 57q-70 60 -112 222z" />
    <glyph glyph-name="gbreve" unicode="&#x11f;" horiz-adv-x="1175" 
d="M176 -399v84q209 -33 336 -33q232 0 326 110q75 88 75 306v59q-80 -38 -161 -72q-137 -55 -256 -55q-125 0 -189 40.5t-104 119.5q-64 125 -64 393q0 256 72 389q54 98 139 136t213 38q129 0 432 -100v-955q0 -135 -26.5 -222.5t-81.5 -145.5q-115 -121 -375 -121
q-109 0 -336 29zM913 219v737q-244 80 -354 80t-174.5 -31.5t-103.5 -107.5q-58 -113 -58 -344q0 -239 53 -354q30 -64 82 -91.5t138 -27.5q90 0 213 47q86 33 204 92zM289 1544h88q33 -110 72 -149q47 -47 129 -47q81 0 124 49q48 53 74 147h88q-40 -158 -121 -225
q-64 -53 -165 -53q-112 0 -177 57q-71 60 -112 221z" />
    <glyph glyph-name="Gdotaccent" unicode="&#x120;" horiz-adv-x="1488" 
d="M1270 16q-347 -51 -535 -51q-140 0 -239 37.5t-155.5 98.5t-98.5 155q-74 168 -74 512q0 410 104 588q69 119 173 171t290 52q107 0 260 -29q101 -20 222 -53v-84q-110 28 -254 57q-139 27 -228 27q-158 0 -250 -46t-151 -161q-39 -81 -59.5 -224.5t-20.5 -299.5
q0 -322 65 -473q58 -140 166.5 -193t280.5 -53q130 0 420 41v733h84v-805zM786 1688h-90v258h90v-258z" />
    <glyph glyph-name="gdotaccent" unicode="&#x121;" horiz-adv-x="1175" 
d="M176 -399v84q209 -33 336 -33q232 0 326 110q75 88 75 306v59q-80 -38 -161 -72q-137 -55 -256 -55q-125 0 -189 40.5t-104 119.5q-64 125 -64 393q0 256 72 389q54 98 139 136t213 38q129 0 432 -100v-955q0 -135 -26.5 -222.5t-81.5 -145.5q-115 -121 -375 -121
q-109 0 -336 29zM913 219v737q-244 80 -354 80t-174.5 -31.5t-103.5 -107.5q-58 -113 -58 -344q0 -239 53 -354q30 -64 82 -91.5t138 -27.5q90 0 213 47q86 33 204 92zM623 1286h-91v258h91v-258z" />
    <glyph glyph-name="uni0122" unicode="&#x122;" horiz-adv-x="1488" 
d="M1270 16q-347 -51 -535 -51q-140 0 -239 37.5t-155.5 98.5t-98.5 155q-74 168 -74 512q0 410 104 588q69 119 173 171t290 52q107 0 260 -29q101 -20 222 -53v-84q-110 28 -254 57q-139 27 -228 27q-158 0 -250 -46t-151 -161q-39 -81 -59.5 -224.5t-20.5 -299.5
q0 -322 65 -473q58 -140 166.5 -193t280.5 -53q130 0 420 41v733h84v-805zM760 -573h-76q16 70 23.5 131.5t8.5 101.5t1 121v90h88v-131q0 -71 -1.5 -107t-12 -92t-31.5 -114z" />
    <glyph glyph-name="uni0123" unicode="&#x123;" horiz-adv-x="1175" 
d="M176 -399v84q209 -33 336 -33q232 0 326 110q75 88 75 306v59q-80 -38 -161 -72q-137 -55 -256 -55q-125 0 -189 40.5t-104 119.5q-64 125 -64 393q0 256 72 389q54 98 139 136t213 38q129 0 432 -100v-955q0 -135 -26.5 -222.5t-81.5 -145.5q-115 -121 -375 -121
q-109 0 -336 29zM913 219v737q-244 80 -354 80t-174.5 -31.5t-103.5 -107.5q-58 -113 -58 -344q0 -239 53 -354q30 -64 82 -91.5t138 -27.5q90 0 213 47q86 33 204 92zM612 1239h-88v131q0 71 1.5 107t12 92t31.5 114h76q-16 -70 -23.5 -131.5t-8.5 -101.5t-1 -121v-90z" />
    <glyph glyph-name="Hcircumflex" unicode="&#x124;" horiz-adv-x="1574" 
d="M309 0h-84v1544h84v-682h957v682h84v-1544h-84v780h-957v-780zM608 1675h-114l247 271h95l245 -271h-114l-179 193z" />
    <glyph glyph-name="hcircumflex" unicode="&#x125;" horiz-adv-x="1171" 
d="M262 0h-82v1544h82v-543q128 57 223.5 86t184.5 29q96 0 158 -21t104 -75q37 -47 50 -120.5t13 -180.5v-719h-82v721q0 182 -49 246q-31 39 -77 54t-117 15q-49 0 -99.5 -9.5t-110.5 -31.5t-95 -36.5t-103 -45.5v-913zM43 1675h-115l248 271h94l246 -271h-115l-178 193z
" />
    <glyph glyph-name="Hbar" unicode="&#x126;" horiz-adv-x="1574" 
d="M309 0h-84v1544h84v-352h957v352h84v-1544h-84v766h-957v-766zM309 848h957v262h-957v-262z" />
    <glyph glyph-name="hbar" unicode="&#x127;" horiz-adv-x="1171" 
d="M262 0h-82v1249h-178v80h178v215h82v-215h270v-80h-270v-248q128 57 223.5 86t184.5 29q96 0 158 -21t104 -75q37 -47 50 -120.5t13 -180.5v-719h-82v721q0 182 -49 246q-31 39 -77 54t-117 15q-49 0 -99.5 -9.5t-110.5 -31.5t-95 -36.5t-103 -45.5v-913z" />
    <glyph glyph-name="Itilde" unicode="&#x128;" horiz-adv-x="534" 
d="M309 0h-84v1544h84v-1544zM-2 1700h-88q47 124 92 169.5t117 45.5q39 0 73 -15t84 -57q46 -39 73.5 -55t58.5 -16q21 0 37.5 7t27 15t22 29t17 34t18.5 44h91q-17 -39 -25.5 -58t-24.5 -49t-29.5 -44t-34 -30t-45.5 -22t-56 -6q-42 0 -74.5 12.5t-69.5 44.5
q-52 47 -82.5 66.5t-60.5 19.5q-24 0 -43 -10t-34 -33.5t-22.5 -40t-21.5 -51.5z" />
    <glyph glyph-name="itilde" unicode="&#x129;" horiz-adv-x="442" 
d="M262 0h-82v1081h82v-1081zM-43 1298h-88q47 124 92 169.5t117 45.5q40 0 74.5 -15t83.5 -56q48 -41 74 -56.5t57 -15.5q21 0 37.5 7t27 15t22 29t17 34t18.5 44h91q-17 -39 -25.5 -58t-24.5 -49t-29.5 -44t-34 -30t-45.5 -22t-56 -6q-78 0 -144 58q-52 47 -82.5 66.5
t-60.5 19.5q-20 0 -36.5 -8.5t-27.5 -19t-23 -32.5t-17.5 -35t-16.5 -41z" />
    <glyph glyph-name="Imacron" unicode="&#x12a;" horiz-adv-x="534" 
d="M309 0h-84v1544h84v-1544zM541 1733h-547v82h547v-82z" />
    <glyph glyph-name="imacron" unicode="&#x12b;" horiz-adv-x="442" 
d="M262 0h-82v1081h82v-1081zM496 1331h-547v82h547v-82z" />
    <glyph glyph-name="Ibreve" unicode="&#x12c;" horiz-adv-x="534" 
d="M309 0h-84v1544h84v-1544zM-20 1946h88q34 -113 71 -150q47 -47 129 -47t125 49q47 52 74 148h88q-41 -159 -121 -226q-64 -53 -166 -53q-111 0 -176 57q-70 60 -112 222z" />
    <glyph glyph-name="ibreve" unicode="&#x12d;" horiz-adv-x="442" 
d="M262 0h-82v1081h82v-1081zM-70 1544h88q33 -110 72 -149q47 -47 129 -47t125 49q48 53 74 147h88q-40 -158 -121 -225q-64 -53 -166 -53q-111 0 -176 57q-37 31 -66.5 93t-46.5 128z" />
    <glyph glyph-name="Iogonek" unicode="&#x12e;" horiz-adv-x="534" 
d="M408 -358q-79 -37 -150 -37q-81 0 -119 41q-33 39 -33 112q0 71 46 142q30 48 73 100v1544h84v-1544q-74 -99 -90 -133q-26 -56 -26 -115q0 -29 16 -47t47 -18q51 0 152 43v-88z" />
    <glyph glyph-name="iogonek" unicode="&#x12f;" horiz-adv-x="442" 
d="M365 -358q-79 -37 -148 -37q-83 0 -123 43q-31 34 -31 108q0 67 46 144q28 46 71 100v1081h82v-1081q-63 -80 -88 -133q-24 -52 -24 -119q0 -61 63 -61q51 0 152 43v-88zM268 1272h-94v272h94v-272z" />
    <glyph glyph-name="Idotaccent" unicode="&#x130;" horiz-adv-x="534" 
d="M309 0h-84v1544h84v-1544zM309 1688h-90v258h90v-258z" />
    <glyph glyph-name="dotlessi" unicode="&#x131;" horiz-adv-x="442" 
d="M262 0h-82v1081h82v-1081z" />
    <glyph glyph-name="IJ" unicode="&#x132;" horiz-adv-x="1218" 
d="M309 0h-84v1544h84v-1544zM461 -172v86q216 69 319 127q48 27 75 53t40 62q20 59 20 274v1114h84v-1104q0 -95 -0.5 -132t-5.5 -88.5t-16 -86.5q-24 -78 -105 -133q-121 -80 -411 -172z" />
    <glyph glyph-name="ij" unicode="&#x133;" horiz-adv-x="882" 
d="M262 0h-82v1081h82v-1081zM266 1286h-90v258h90v-258zM342 -432v90q143 66 197 113q47 42 65 98q17 52 17 184v1028h81v-1015q0 -166 -14 -218q-13 -49 -40.5 -85.5t-78.5 -73.5q-58 -44 -227 -121zM707 1286h-91v258h91v-258z" />
    <glyph glyph-name="Jcircumflex" unicode="&#x134;" horiz-adv-x="745" 
d="M-12 -172v86q216 69 319 127q48 27 75 53t40 62q20 59 20 274v1114h84v-1104q0 -95 -0.5 -132t-5.5 -88.5t-16 -86.5q-24 -78 -105 -133q-121 -80 -411 -172zM293 1675h-115l248 271h94l246 -271h-115l-178 193z" />
    <glyph glyph-name="jcircumflex" unicode="&#x135;" horiz-adv-x="464" 
d="M-76 -432v90q143 66 197 113q47 42 65 98q17 52 17 184v1028h82v-1015q0 -162 -15 -218q-14 -50 -40.5 -86t-77.5 -73q-56 -42 -228 -121zM45 1274h-115l248 270h94l246 -270h-115l-178 192z" />
    <glyph glyph-name="uni0136" unicode="&#x136;" horiz-adv-x="1273" 
d="M309 0h-84v1544h84v-747l778 747h125l-800 -766l864 -778h-129l-838 756v-756zM616 -573h-75q16 70 23 132.5t8 99.5t1 122v90h89v-131q0 -69 -2 -106.5t-12.5 -92.5t-31.5 -114z" />
    <glyph glyph-name="uni0137" unicode="&#x137;" horiz-adv-x="972" 
d="M262 0h-82v1544h82v-936l520 473h123l-545 -495l596 -586h-118l-576 567v-567zM473 -573h-76q16 70 23.5 131.5t8.5 101.5t1 121v90h88v-131q0 -71 -1.5 -107t-12 -92t-31.5 -114z" />
    <glyph glyph-name="kgreenlandic" unicode="&#x138;" horiz-adv-x="995" 
d="M262 0h-82v1081h82v-499q106 28 221 84t187 125q46 44 83.5 121t57.5 169h84q-30 -136 -78.5 -229t-126.5 -156q-98 -82 -301 -157l567 -539h-118l-576 545v-545z" />
    <glyph glyph-name="Lacute" unicode="&#x139;" horiz-adv-x="1259" 
d="M1180 0h-955v1544h84v-1462h871v-82zM326 1675h-115l233 271h117z" />
    <glyph glyph-name="lacute" unicode="&#x13a;" horiz-adv-x="442" 
d="M262 0h-82v1544h82v-1544zM270 1675h-114l233 271h117z" />
    <glyph glyph-name="uni013B" unicode="&#x13b;" horiz-adv-x="1259" 
d="M1180 0h-955v1544h84v-1462h871v-82zM700 -573h-75q16 70 23 132.5t8 99.5t1 122v90h88v-131q0 -71 -1.5 -107t-12 -92t-31.5 -114z" />
    <glyph glyph-name="uni013C" unicode="&#x13c;" horiz-adv-x="442" 
d="M262 0h-82v1544h82v-1544zM221 -573h-76q16 70 23.5 131.5t8.5 101.5t1 121v90h88v-131q0 -71 -1.5 -107t-12 -92t-31.5 -114z" />
    <glyph glyph-name="Lcaron" unicode="&#x13d;" horiz-adv-x="1259" 
d="M1180 0h-955v1544h84v-1462h871v-82zM721 1161h-74v383h88v-137q0 -121 -14 -246z" />
    <glyph glyph-name="lcaron" unicode="&#x13e;" horiz-adv-x="458" 
d="M262 0h-82v1544h82v-1544zM461 1161h-74v383h88v-137q0 -121 -14 -246z" />
    <glyph glyph-name="Ldot" unicode="&#x13f;" horiz-adv-x="1259" 
d="M1180 0h-955v1544h84v-1462h871v-82zM930 670h-90v258h90v-258z" />
    <glyph glyph-name="ldot" unicode="&#x140;" horiz-adv-x="532" 
d="M262 0h-82v1544h82v-1544zM530 670h-90v258h90v-258z" />
    <glyph glyph-name="Lslash" unicode="&#x141;" horiz-adv-x="1259" 
d="M1180 0h-955v707l-174 -115v98l174 115v739h84v-684l338 221v-98l-338 -221v-680h871v-82z" />
    <glyph glyph-name="lslash" unicode="&#x142;" horiz-adv-x="483" 
d="M283 0h-82v762l-168 -107v95l168 106v688h82v-635l168 107v-94l-168 -107v-815z" />
    <glyph glyph-name="Nacute" unicode="&#x143;" horiz-adv-x="1548" 
d="M309 0h-84v1544h127l887 -1452v1452h84v-1544h-127l-887 1452v-1452zM758 1675h-115l234 271h116z" />
    <glyph glyph-name="nacute" unicode="&#x144;" horiz-adv-x="1177" 
d="M262 0h-82v1081h82v-88q97 44 150 65t126 39.5t138 18.5q96 0 159.5 -22t104.5 -76q39 -50 50 -121t11 -178v-719h-81v723q0 178 -48 242q-53 71 -196 71q-60 0 -141 -23.5t-131.5 -45t-141.5 -62.5v-905zM553 1274h-115l234 270h116z" />
    <glyph glyph-name="uni0145" unicode="&#x145;" horiz-adv-x="1548" 
d="M309 0h-84v1544h127l887 -1452v1452h84v-1544h-127l-887 1452v-1452zM758 -573h-76q16 70 23.5 131.5t8.5 101.5t1 121v90h88v-131q0 -71 -1.5 -107t-12 -92t-31.5 -114z" />
    <glyph glyph-name="uni0146" unicode="&#x146;" horiz-adv-x="1177" 
d="M262 0h-82v1081h82v-88q97 44 150 65t126 39.5t138 18.5q96 0 159.5 -22t104.5 -76q39 -50 50 -121t11 -178v-719h-81v723q0 178 -48 242q-53 71 -196 71q-60 0 -141 -23.5t-131.5 -45t-141.5 -62.5v-905zM571 -573h-75q16 70 23 132.5t8 99.5t1 122v90h88v-131
q0 -71 -1.5 -107t-12 -92t-31.5 -114z" />
    <glyph glyph-name="Ncaron" unicode="&#x147;" horiz-adv-x="1548" 
d="M309 0h-84v1544h127l887 -1452v1452h84v-1544h-127l-887 1452v-1452zM586 1946l180 -193l178 193h115l-246 -271h-94l-248 271h115z" />
    <glyph glyph-name="ncaron" unicode="&#x148;" horiz-adv-x="1177" 
d="M262 0h-82v1081h82v-88q97 44 150 65t126 39.5t138 18.5q96 0 159.5 -22t104.5 -76q39 -50 50 -121t11 -178v-719h-81v723q0 178 -48 242q-53 71 -196 71q-60 0 -141 -23.5t-131.5 -45t-141.5 -62.5v-905zM408 1544l180 -192l178 192h115l-246 -270h-94l-248 270h115z
" />
    <glyph glyph-name="napostrophe" unicode="&#x149;" horiz-adv-x="1257" 
d="M342 0h-82v1081h82v-88q97 44 150 65t126 39.5t138 18.5q96 0 159.5 -22t104.5 -76q39 -50 50 -121t11 -178v-719h-82v723q0 88 -9.5 146t-37.5 96q-53 71 -196 71q-60 0 -141 -23.5t-131.5 -45t-141.5 -62.5v-905zM119 1100h-76q16 70 23.5 131.5t8.5 101.5t1 121v90h88
v-131q0 -71 -1.5 -107t-12 -92t-31.5 -114z" />
    <glyph glyph-name="Eng" unicode="&#x14a;" horiz-adv-x="1548" 
d="M309 0h-84v1544h127l887 -1452v1452h84v-1372q0 -89 -1 -130.5t-6 -91.5t-16 -85q-24 -79 -104 -133q-120 -79 -412 -172v86q218 70 320 127q62 35 91.5 72.5t35.5 99.5l-922 1507v-1452z" />
    <glyph glyph-name="eng" unicode="&#x14b;" horiz-adv-x="1177" 
d="M262 0h-82v1081h82v-88q97 44 150 65t126 39.5t138 18.5q96 0 159.5 -22t104.5 -76q39 -50 50 -121t11 -178v-653q0 -166 -14 -218q-13 -49 -40.5 -85.5t-78.5 -73.5q-58 -44 -227 -121v90q143 66 197 113q47 42 65 98q17 52 17 184v670q0 178 -48 242q-53 71 -196 71
q-60 0 -141 -23.5t-131.5 -45t-141.5 -62.5v-905z" />
    <glyph glyph-name="Omacron" unicode="&#x14c;" horiz-adv-x="1587" 
d="M793 1579q179 0 299 -50.5t196 -158.5q67 -95 99 -261t32 -335q0 -150 -27.5 -313.5t-93.5 -265.5q-81 -124 -206 -177t-299 -53q-200 0 -328.5 55t-194.5 168q-102 171 -102 586q0 383 84 537q145 268 541 268zM793 1497q-349 0 -465 -227q-74 -147 -74 -496
q0 -152 19 -301t65 -229q34 -59 82.5 -99.5t109.5 -61t122.5 -28.5t140.5 -8q139 0 237 35.5t172 124.5q68 84 99.5 239.5t31.5 327.5q0 154 -25.5 299t-78.5 232q-65 103 -173 147.5t-263 44.5zM1067 1733h-547v82h547v-82z" />
    <glyph glyph-name="omacron" unicode="&#x14d;" horiz-adv-x="1167" 
d="M584 1116q125 0 207 -32.5t139 -108.5q100 -136 100 -430q0 -118 -18 -220.5t-49 -162.5q-96 -197 -379 -197q-138 0 -222.5 37.5t-138.5 122.5q-41 65 -63.5 177t-22.5 233q0 224 45 337q46 120 139.5 182t262.5 62zM584 1036q-123 0 -197 -40.5t-117 -129.5
q-49 -106 -49 -329q0 -106 17.5 -203t48.5 -152q45 -78 114 -107.5t183 -29.5q215 0 293 133q69 120 69 369q0 222 -57 334q-44 87 -116.5 121t-188.5 34zM858 1331h-547v82h547v-82z" />
    <glyph glyph-name="Obreve" unicode="&#x14e;" horiz-adv-x="1587" 
d="M793 1579q179 0 299 -50.5t196 -158.5q67 -95 99 -261t32 -335q0 -150 -27.5 -313.5t-93.5 -265.5q-81 -124 -206 -177t-299 -53q-200 0 -328.5 55t-194.5 168q-102 171 -102 586q0 383 84 537q145 268 541 268zM793 1497q-349 0 -465 -227q-74 -147 -74 -496
q0 -152 19 -301t65 -229q34 -59 82.5 -99.5t109.5 -61t122.5 -28.5t140.5 -8q139 0 237 35.5t172 124.5q68 84 99.5 239.5t31.5 327.5q0 154 -25.5 299t-78.5 232q-65 103 -173 147.5t-263 44.5zM506 1946h88q34 -112 72 -150q47 -47 129 -47t125 49q46 51 73 148h88
q-41 -160 -120 -226q-64 -53 -166 -53q-112 0 -177 57q-70 60 -112 222z" />
    <glyph glyph-name="obreve" unicode="&#x14f;" horiz-adv-x="1167" 
d="M584 1116q125 0 207 -32.5t139 -108.5q100 -136 100 -430q0 -118 -18 -220.5t-49 -162.5q-96 -197 -379 -197q-138 0 -222.5 37.5t-138.5 122.5q-41 65 -63.5 177t-22.5 233q0 224 45 337q46 120 139.5 182t262.5 62zM584 1036q-123 0 -197 -40.5t-117 -129.5
q-49 -106 -49 -329q0 -106 17.5 -203t48.5 -152q45 -78 114 -107.5t183 -29.5q215 0 293 133q69 120 69 369q0 222 -57 334q-44 87 -116.5 121t-188.5 34zM297 1544h88q33 -110 72 -149q47 -47 129 -47t125 49q46 51 73 147h88q-41 -159 -120 -225q-64 -53 -166 -53
q-111 0 -176 57q-37 31 -66.5 93t-46.5 128z" />
    <glyph glyph-name="Ohungarumlaut" unicode="&#x150;" horiz-adv-x="1587" 
d="M793 1579q179 0 299 -50.5t196 -158.5q67 -95 99 -261t32 -335q0 -150 -27.5 -313.5t-93.5 -265.5q-81 -124 -206 -177t-299 -53q-200 0 -328.5 55t-194.5 168q-102 171 -102 586q0 383 84 537q145 268 541 268zM793 1497q-349 0 -465 -227q-74 -147 -74 -496
q0 -152 19 -301t65 -229q34 -59 82.5 -99.5t109.5 -61t122.5 -28.5t140.5 -8q139 0 237 35.5t172 124.5q68 84 99.5 239.5t31.5 327.5q0 154 -25.5 299t-78.5 232q-65 103 -173 147.5t-263 44.5zM682 1675h-94l176 271h98zM924 1675h-95l175 271h98z" />
    <glyph glyph-name="ohungarumlaut" unicode="&#x151;" horiz-adv-x="1167" 
d="M584 1116q125 0 207 -32.5t139 -108.5q100 -136 100 -430q0 -118 -18 -220.5t-49 -162.5q-96 -197 -379 -197q-138 0 -222.5 37.5t-138.5 122.5q-41 65 -63.5 177t-22.5 233q0 224 45 337q46 120 139.5 182t262.5 62zM584 1036q-123 0 -197 -40.5t-117 -129.5
q-49 -106 -49 -329q0 -106 17.5 -203t48.5 -152q45 -78 114 -107.5t183 -29.5q215 0 293 133q69 120 69 369q0 222 -57 334q-44 87 -116.5 121t-188.5 34zM479 1274h-94l176 270h98zM721 1274h-94l174 270h98z" />
    <glyph glyph-name="OE" unicode="&#x152;" horiz-adv-x="2361" 
d="M2277 0h-1169q-119 -35 -315 -35q-200 0 -328.5 55t-194.5 168q-102 171 -102 586q0 383 84 537q145 268 541 268q86 0 150.5 -6t90.5 -11.5t74 -17.5h1137v-82h-1008q38 -38 57 -71q60 -96 80.5 -231t20.5 -329h805v-81h-805q0 -93 -2 -152t-10.5 -150t-30 -164.5
t-56.5 -127.5q-29 -44 -59 -74h1040v-82zM793 1497q-349 0 -465 -227q-74 -147 -74 -496q0 -152 19 -301t65 -229q34 -59 82.5 -99.5t109.5 -61t122.5 -28.5t140.5 -8q85 0 140 4.5t114 19.5t102 47t76 83q52 82 68 212.5t16 360.5q0 197 -12.5 325.5t-53.5 211.5
q-57 111 -152.5 148.5t-297.5 37.5z" />
    <glyph glyph-name="oe" unicode="&#x153;" horiz-adv-x="1933" 
d="M1747 6q-200 -41 -338 -41q-76 0 -139 11t-122.5 37t-103 76.5t-65.5 123.5q-42 -126 -137.5 -187t-257.5 -61q-138 0 -222.5 37.5t-138.5 122.5q-41 65 -63.5 177t-22.5 233q0 224 45 337q46 120 139.5 182t262.5 62q150 0 246 -53t151 -182q88 235 405 235
q271 0 371 -192q45 -88 45 -217q0 -91 -20 -205h-762q0 -204 51 -299q43 -84 122 -121t216 -37q119 0 338 45v-84zM584 1036q-123 0 -197 -40.5t-117 -129.5q-49 -106 -49 -329q0 -106 17.5 -203t48.5 -152q45 -78 114 -107.5t183 -29.5q215 0 290 133q68 119 68 369
q0 228 -53 334q-44 87 -116.5 121t-188.5 34zM1020 582h690q8 47 8 125q0 121 -39 188q-80 141 -293 141q-239 0 -317 -164q-25 -51 -37 -136.5t-12 -153.5z" />
    <glyph glyph-name="Racute" unicode="&#x154;" horiz-adv-x="1396" 
d="M309 0h-84v1544h492q161 0 250 -17t153 -61q133 -91 133 -292q0 -160 -141 -316q-61 -70 -180 -184l403 -674h-102l-399 668h-525v-668zM309 750h578q112 108 160 163q56 66 88 127t32 131q0 175 -125 244q-49 28 -121 37.5t-206 9.5h-406v-712zM688 1675h-115l234 271
h117z" />
    <glyph glyph-name="racute" unicode="&#x155;" horiz-adv-x="675" 
d="M262 0h-82v1081h82v-137q74 53 148 88q91 45 237 74v-84q-112 -22 -196 -61q-79 -35 -189 -115v-846zM315 1274h-114l233 270h117z" />
    <glyph glyph-name="uni0156" unicode="&#x156;" horiz-adv-x="1396" 
d="M309 0h-84v1544h492q161 0 250 -17t153 -61q133 -91 133 -292q0 -160 -141 -316q-61 -70 -180 -184l403 -674h-102l-399 668h-525v-668zM309 750h578q112 108 160 163q56 66 88 127t32 131q0 175 -125 244q-49 28 -121 37.5t-206 9.5h-406v-712zM686 -573h-76
q16 70 23.5 131.5t8.5 101.5t1 121v90h88v-131q0 -71 -1.5 -107t-12 -92t-31.5 -114z" />
    <glyph glyph-name="uni0157" unicode="&#x157;" horiz-adv-x="675" 
d="M262 0h-82v1081h82v-137q74 53 148 88q91 45 237 74v-84q-112 -22 -196 -61q-79 -35 -189 -115v-846zM219 -573h-76q16 70 23.5 131.5t8.5 101.5t1 121v90h88v-131q0 -71 -1.5 -107t-12 -92t-31.5 -114z" />
    <glyph glyph-name="Rcaron" unicode="&#x158;" horiz-adv-x="1396" 
d="M309 0h-84v1544h492q161 0 250 -17t153 -61q133 -91 133 -292q0 -160 -141 -316q-61 -70 -180 -184l403 -674h-102l-399 668h-525v-668zM309 750h578q112 108 160 163q56 66 88 127t32 131q0 175 -125 244q-49 28 -121 37.5t-206 9.5h-406v-712zM481 1946l181 -193
l178 193h114l-245 -271h-95l-247 271h114z" />
    <glyph glyph-name="rcaron" unicode="&#x159;" horiz-adv-x="675" 
d="M262 0h-82v1081h82v-137q74 53 148 88q91 45 237 74v-84q-112 -22 -196 -61q-79 -35 -189 -115v-846zM164 1544l180 -192l178 192h115l-246 -270h-94l-248 270h115z" />
    <glyph glyph-name="Sacute" unicode="&#x15a;" horiz-adv-x="1306" 
d="M152 45v86q349 -84 503 -84q109 0 182 18.5t130 63.5q54 42 84 110.5t30 145.5q0 119 -51 180q-28 36 -79.5 63.5t-143.5 59.5l-352 121q-99 34 -154.5 61.5t-91.5 69.5q-70 81 -70 242q0 183 97 280q64 64 154 90.5t233 26.5q80 0 168.5 -13.5t147 -28t173.5 -46.5v-84
q-330 90 -489 90q-110 0 -185 -18t-125 -62q-88 -76 -88 -235q0 -137 56 -193q45 -48 215 -106l350 -119q111 -38 170 -74.5t96 -89.5q55 -76 55 -219q0 -83 -29.5 -159.5t-82.5 -129.5q-67 -68 -161.5 -97.5t-231.5 -29.5q-176 0 -510 80zM635 1675h-115l234 271h116z" />
    <glyph glyph-name="sacute" unicode="&#x15b;" horiz-adv-x="1030" 
d="M139 16v82q226 -53 348 -53q157 0 236 49q96 59 96 170q0 84 -43 127q-25 27 -61 43.5t-111 42.5l-190 64q-92 31 -133.5 47.5t-73.5 40.5q-80 59 -80 202q0 149 98 222q51 37 114.5 50t162.5 13q127 0 360 -63v-82q-260 65 -360 65q-85 0 -136 -11t-87 -38
q-68 -53 -68 -156q0 -96 45 -133q18 -14 45.5 -27t45.5 -19.5t77 -26.5l207 -68q79 -26 123.5 -47.5t76.5 -52.5q72 -69 72 -187q0 -72 -31 -135.5t-90 -101.5q-108 -68 -295 -68q-135 0 -348 51zM502 1274h-115l234 270h116z" />
    <glyph glyph-name="Scircumflex" unicode="&#x15c;" horiz-adv-x="1306" 
d="M152 45v86q349 -84 503 -84q109 0 182 18.5t130 63.5q54 42 84 110.5t30 145.5q0 119 -51 180q-28 36 -79.5 63.5t-143.5 59.5l-352 121q-99 34 -154.5 61.5t-91.5 69.5q-70 81 -70 242q0 183 97 280q64 64 154 90.5t233 26.5q80 0 168.5 -13.5t147 -28t173.5 -46.5v-84
q-330 90 -489 90q-110 0 -185 -18t-125 -62q-88 -76 -88 -235q0 -137 56 -193q45 -48 215 -106l350 -119q111 -38 170 -74.5t96 -89.5q55 -76 55 -219q0 -83 -29.5 -159.5t-82.5 -129.5q-67 -68 -161.5 -97.5t-231.5 -29.5q-176 0 -510 80zM469 1675h-115l248 271h94
l246 -271h-115l-178 193z" />
    <glyph glyph-name="scircumflex" unicode="&#x15d;" horiz-adv-x="1030" 
d="M139 16v82q226 -53 348 -53q157 0 236 49q96 59 96 170q0 84 -43 127q-25 27 -61 43.5t-111 42.5l-190 64q-92 31 -133.5 47.5t-73.5 40.5q-80 59 -80 202q0 149 98 222q51 37 114.5 50t162.5 13q127 0 360 -63v-82q-260 65 -360 65q-85 0 -136 -11t-87 -38
q-68 -53 -68 -156q0 -96 45 -133q18 -14 45.5 -27t45.5 -19.5t77 -26.5l207 -68q79 -26 123.5 -47.5t76.5 -52.5q72 -69 72 -187q0 -72 -31 -135.5t-90 -101.5q-108 -68 -295 -68q-135 0 -348 51zM332 1274h-115l248 270h94l246 -270h-115l-178 192z" />
    <glyph glyph-name="Scedilla" unicode="&#x15e;" horiz-adv-x="1306" 
d="M152 45v86q349 -84 503 -84q109 0 182 18.5t130 63.5q54 42 84 110.5t30 145.5q0 119 -51 180q-28 36 -79.5 63.5t-143.5 59.5l-352 121q-99 34 -154.5 61.5t-91.5 69.5q-70 81 -70 242q0 183 97 280q64 64 154 90.5t233 26.5q80 0 168.5 -13.5t147 -28t173.5 -46.5v-84
q-330 90 -489 90q-110 0 -185 -18t-125 -62q-88 -76 -88 -235q0 -137 56 -193q45 -48 215 -106l350 -119q111 -38 170 -74.5t96 -89.5q55 -76 55 -219q0 -83 -29.5 -159.5t-82.5 -129.5q-67 -68 -161.5 -97.5t-231.5 -29.5q-176 0 -510 80zM569 -393h-106l164 270h108z" />
    <glyph glyph-name="scedilla" unicode="&#x15f;" horiz-adv-x="1030" 
d="M139 16v82q226 -53 348 -53q157 0 236 49q96 59 96 170q0 84 -43 127q-25 27 -61 43.5t-111 42.5l-190 64q-92 31 -133.5 47.5t-73.5 40.5q-80 59 -80 202q0 149 98 222q51 37 114.5 50t162.5 13q127 0 360 -63v-82q-260 65 -360 65q-85 0 -136 -11t-87 -38
q-68 -53 -68 -156q0 -96 45 -133q18 -14 45.5 -27t45.5 -19.5t77 -26.5l207 -68q79 -26 123.5 -47.5t76.5 -52.5q72 -69 72 -187q0 -72 -31 -135.5t-90 -101.5q-108 -68 -295 -68q-135 0 -348 51zM438 -393h-106l164 270h108z" />
    <glyph glyph-name="Scaron" unicode="&#x160;" horiz-adv-x="1306" 
d="M152 45v86q349 -84 503 -84q109 0 182 18.5t130 63.5q54 42 84 110.5t30 145.5q0 119 -51 180q-28 36 -79.5 63.5t-143.5 59.5l-352 121q-99 34 -154.5 61.5t-91.5 69.5q-70 81 -70 242q0 183 97 280q64 64 154 90.5t233 26.5q80 0 168.5 -13.5t147 -28t173.5 -46.5v-84
q-330 90 -489 90q-110 0 -185 -18t-125 -62q-88 -76 -88 -235q0 -137 56 -193q45 -48 215 -106l350 -119q111 -38 170 -74.5t96 -89.5q55 -76 55 -219q0 -83 -29.5 -159.5t-82.5 -129.5q-67 -68 -161.5 -97.5t-231.5 -29.5q-176 0 -510 80zM477 1946l180 -193l179 193h114
l-245 -271h-95l-248 271h115z" />
    <glyph glyph-name="scaron" unicode="&#x161;" horiz-adv-x="1030" 
d="M139 16v82q226 -53 348 -53q157 0 236 49q96 59 96 170q0 84 -43 127q-25 27 -61 43.5t-111 42.5l-190 64q-92 31 -133.5 47.5t-73.5 40.5q-80 59 -80 202q0 149 98 222q51 37 114.5 50t162.5 13q127 0 360 -63v-82q-260 65 -360 65q-85 0 -136 -11t-87 -38
q-68 -53 -68 -156q0 -96 45 -133q18 -14 45.5 -27t45.5 -19.5t77 -26.5l207 -68q79 -26 123.5 -47.5t76.5 -52.5q72 -69 72 -187q0 -72 -31 -135.5t-90 -101.5q-108 -68 -295 -68q-135 0 -348 51zM319 1544l181 -192l178 192h115l-246 -270h-94l-248 270h114z" />
    <glyph glyph-name="uni0162" unicode="&#x162;" horiz-adv-x="1353" 
d="M719 0h-84v1462h-578v82h1239v-82h-577v-1462zM600 -393h-106l163 270h109z" />
    <glyph glyph-name="uni0163" unicode="&#x163;" horiz-adv-x="612" 
d="M541 -14q-166 12 -230 32q-89 27 -114 103q-13 40 -16 94t-3 180v957h82v-271h326v-80h-326v-608q0 -141 6 -194q9 -81 72 -103q47 -16 203 -28v-82zM270 -393h-106l164 270h108z" />
    <glyph glyph-name="Tcaron" unicode="&#x164;" horiz-adv-x="1353" 
d="M719 0h-84v1462h-578v82h1239v-82h-577v-1462zM498 1946l180 -193l178 193h115l-246 -271h-94l-248 271h115z" />
    <glyph glyph-name="tcaron" unicode="&#x165;" horiz-adv-x="612" 
d="M541 -14q-166 12 -230 32q-89 27 -114 103q-13 40 -16 94t-3 180v957h82v-271h326v-80h-326v-608q0 -141 6 -194q9 -81 72 -103q47 -16 203 -28v-82zM451 1178h-74v366h88v-127q0 -114 -14 -239z" />
    <glyph glyph-name="Tbar" unicode="&#x166;" horiz-adv-x="1353" 
d="M719 0h-84v766h-307v82h307v614h-578v82h1239v-82h-577v-614h307v-82h-307v-766z" />
    <glyph glyph-name="tbar" unicode="&#x167;" horiz-adv-x="616" 
d="M541 -14q-166 12 -230 32q-89 27 -114 103q-13 40 -16 94t-3 180v957h82v-271h326v-80h-326v-241h326v-80h-326v-287q0 -141 6 -194q9 -81 72 -103q47 -16 203 -28v-82z" />
    <glyph glyph-name="Utilde" unicode="&#x168;" horiz-adv-x="1513" 
d="M217 1544h84v-969q0 -181 23 -279.5t94 -160.5q57 -50 138.5 -69t203.5 -19t201.5 19t138.5 69q70 60 91 157.5t21 282.5v969h84v-971q0 -210 -28 -322t-119 -185q-67 -54 -160.5 -77.5t-228.5 -23.5q-136 0 -229.5 23.5t-163.5 79.5q-87 67 -118.5 184t-31.5 321v971z
M494 1700h-88q47 124 91.5 169.5t116.5 45.5q40 0 74 -15t84 -57q47 -40 73.5 -55.5t57.5 -15.5q49 0 72 29t51 100h90q-17 -39 -25.5 -58t-24.5 -49t-29.5 -44t-34 -30t-45.5 -22t-56 -6q-42 0 -74 12t-69 45q-52 47 -83 66.5t-61 19.5q-24 0 -42.5 -10t-33.5 -34
t-22.5 -39.5t-21.5 -51.5z" />
    <glyph glyph-name="utilde" unicode="&#x169;" horiz-adv-x="1153" 
d="M973 49q-112 -32 -166 -46t-132 -26t-153 -12q-109 0 -175.5 22t-108.5 79q-37 50 -49.5 131t-12.5 202v682h82v-684q0 -70 2 -111.5t12.5 -89t30.5 -75.5q30 -42 78 -59t135 -17q73 0 148 11.5t116 22.5t111 32v970h82v-1032zM315 1298h-88q47 124 92 169.5t117 45.5
q40 0 74.5 -15t83.5 -56q48 -41 74 -56.5t57 -15.5q49 0 72 29t51 100h90q-17 -39 -25.5 -58t-24.5 -49t-29.5 -44t-34 -30t-45.5 -22t-56 -6q-41 0 -73.5 12.5t-69.5 45.5q-52 47 -83 66.5t-61 19.5q-20 0 -36.5 -8.5t-27.5 -19t-23 -32.5t-17.5 -35t-16.5 -41z" />
    <glyph glyph-name="Umacron" unicode="&#x16a;" horiz-adv-x="1513" 
d="M217 1544h84v-969q0 -181 23 -279.5t94 -160.5q57 -50 138.5 -69t203.5 -19t201.5 19t138.5 69q70 60 91 157.5t21 282.5v969h84v-971q0 -210 -28 -322t-119 -185q-67 -54 -160.5 -77.5t-228.5 -23.5q-136 0 -229.5 23.5t-163.5 79.5q-87 67 -118.5 184t-31.5 321v971z
M1030 1733h-547v82h547v-82z" />
    <glyph glyph-name="umacron" unicode="&#x16b;" horiz-adv-x="1153" 
d="M973 49q-112 -32 -166 -46t-132 -26t-153 -12q-109 0 -175.5 22t-108.5 79q-37 50 -49.5 131t-12.5 202v682h82v-684q0 -70 2 -111.5t12.5 -89t30.5 -75.5q30 -42 78 -59t135 -17q73 0 148 11.5t116 22.5t111 32v970h82v-1032zM850 1331h-547v82h547v-82z" />
    <glyph glyph-name="Ubreve" unicode="&#x16c;" horiz-adv-x="1513" 
d="M217 1544h84v-969q0 -181 23 -279.5t94 -160.5q57 -50 138.5 -69t203.5 -19t201.5 19t138.5 69q70 60 91 157.5t21 282.5v969h84v-971q0 -210 -28 -322t-119 -185q-67 -54 -160.5 -77.5t-228.5 -23.5q-136 0 -229.5 23.5t-163.5 79.5q-87 67 -118.5 184t-31.5 321v971z
M469 1946h88q34 -112 72 -150q47 -47 129 -47t125 49q46 51 73 148h88q-41 -160 -120 -226q-64 -53 -166 -53q-111 0 -176 57q-37 31 -66.5 93t-46.5 129z" />
    <glyph glyph-name="ubreve" unicode="&#x16d;" horiz-adv-x="1153" 
d="M973 49q-112 -32 -166 -46t-132 -26t-153 -12q-109 0 -175.5 22t-108.5 79q-37 50 -49.5 131t-12.5 202v682h82v-684q0 -70 2 -111.5t12.5 -89t30.5 -75.5q30 -42 78 -59t135 -17q73 0 148 11.5t116 22.5t111 32v970h82v-1032zM289 1544h88q33 -110 72 -149
q47 -47 129 -47q81 0 124 49q48 53 74 147h88q-40 -158 -121 -225q-64 -53 -165 -53q-112 0 -177 57q-71 60 -112 221z" />
    <glyph glyph-name="Uring" unicode="&#x16e;" horiz-adv-x="1513" 
d="M217 1544h84v-969q0 -181 23 -279.5t94 -160.5q57 -50 138.5 -69t203.5 -19t201.5 19t138.5 69q70 60 91 157.5t21 282.5v969h84v-971q0 -210 -28 -322t-119 -185q-67 -54 -160.5 -77.5t-228.5 -23.5q-136 0 -229.5 23.5t-163.5 79.5q-87 67 -118.5 184t-31.5 321v971z
M758 2046q104 0 166 -66q51 -54 51 -147q0 -80 -45 -133q-63 -74 -172 -74t-172 74q-45 53 -45 133q0 93 51 147q62 66 166 66zM758 1970q-74 0 -111 -43q-29 -36 -29 -94q0 -51 29 -88q34 -43 111 -43q76 0 110 43q29 37 29 88q0 58 -29 94q-37 43 -110 43z" />
    <glyph glyph-name="uring" unicode="&#x16f;" horiz-adv-x="1153" 
d="M973 49q-112 -32 -166 -46t-132 -26t-153 -12q-109 0 -175.5 22t-108.5 79q-37 50 -49.5 131t-12.5 202v682h82v-684q0 -70 2 -111.5t12.5 -89t30.5 -75.5q30 -42 78 -59t135 -17q73 0 148 11.5t116 22.5t111 32v970h82v-1032zM575 1642q105 0 166 -65q52 -55 52 -147
q0 -81 -45 -134q-62 -73 -173 -73q-110 0 -172 73q-45 53 -45 134q0 92 52 147q61 65 165 65zM575 1567q-73 0 -110 -43q-29 -36 -29 -94q0 -52 29 -89q34 -43 110 -43q77 0 111 43q29 37 29 89q0 58 -29 94q-37 43 -111 43z" />
    <glyph glyph-name="Uhungarumlaut" unicode="&#x170;" horiz-adv-x="1513" 
d="M217 1544h84v-969q0 -181 23 -279.5t94 -160.5q57 -50 138.5 -69t203.5 -19t201.5 19t138.5 69q70 60 91 157.5t21 282.5v969h84v-971q0 -210 -28 -322t-119 -185q-67 -54 -160.5 -77.5t-228.5 -23.5q-136 0 -229.5 23.5t-163.5 79.5q-87 67 -118.5 184t-31.5 321v971z
M639 1675h-94l176 271h98zM881 1675h-95l175 271h98z" />
    <glyph glyph-name="uhungarumlaut" unicode="&#x171;" horiz-adv-x="1153" 
d="M973 49q-112 -32 -166 -46t-132 -26t-153 -12q-109 0 -175.5 22t-108.5 79q-37 50 -49.5 131t-12.5 202v682h82v-684q0 -70 2 -111.5t12.5 -89t30.5 -75.5q30 -42 78 -59t135 -17q73 0 148 11.5t116 22.5t111 32v970h82v-1032zM461 1274h-94l176 270h98zM702 1274h-94
l174 270h99z" />
    <glyph glyph-name="Uogonek" unicode="&#x172;" horiz-adv-x="1513" 
d="M1022 -358q-79 -37 -148 -37q-78 0 -118 43q-35 38 -35 106q0 66 59 135q24 30 86 80q-54 -4 -106 -4q-136 0 -229.5 23.5t-163.5 79.5q-87 67 -118.5 184t-31.5 321v971h84v-969q0 -181 23 -279.5t94 -160.5q57 -50 138.5 -69t203.5 -19t201.5 19t138.5 69
q70 60 91 157.5t21 282.5v969h84v-971q0 -70 -1 -110t-6.5 -100t-16.5 -99.5t-32 -83.5t-52 -78q-45 -50 -152 -100q-33 -15 -84 -55.5t-92 -89.5q-29 -36 -41 -59t-12 -50q0 -61 63 -61q47 0 152 43v-88z" />
    <glyph glyph-name="uogonek" unicode="&#x173;" horiz-adv-x="1153" 
d="M973 -358q-79 -37 -148 -37q-78 0 -118 43q-35 38 -35 106q0 66 59 135q53 64 117 125q-177 -49 -326 -49q-109 0 -176.5 22t-109.5 79q-36 49 -48 130t-12 203v682h82v-684q0 -70 2 -111.5t12.5 -89t30.5 -75.5q30 -42 78 -59t135 -17q73 0 148 11.5t116 22.5t111 32
v970h82v-1032q-117 -135 -162 -188q-53 -62 -53 -113q0 -61 63 -61q47 0 152 43v-88z" />
    <glyph glyph-name="Wcircumflex" unicode="&#x174;" horiz-adv-x="1810" 
d="M539 0h-136l-325 1544h86l309 -1470l371 1237h123l370 -1237l310 1470h86l-326 -1544h-135l-367 1227zM725 1675h-115l248 271h94l246 -271h-115l-178 193z" />
    <glyph glyph-name="wcircumflex" unicode="&#x175;" horiz-adv-x="1540" 
d="M467 0h-117l-309 1081h86l283 -991l299 991h122l299 -991l283 991h86l-309 -1081h-117l-303 1006zM590 1274h-115l248 270h94l246 -270h-115l-178 192z" />
    <glyph glyph-name="Ycircumflex" unicode="&#x176;" horiz-adv-x="1212" 
d="M649 0h-86v594l-575 950h100l518 -854l518 854h101l-576 -950v-594zM428 1675h-115l248 271h94l246 -271h-115l-178 193z" />
    <glyph glyph-name="ycircumflex" unicode="&#x177;" horiz-adv-x="997" 
d="M375 -393h-90l168 413l-424 1061h90l379 -948l383 948h88zM317 1274h-114l248 270h94l246 -270h-115l-178 192z" />
    <glyph glyph-name="Ydieresis" unicode="&#x178;" horiz-adv-x="1212" 
d="M649 0h-86v594l-575 950h100l518 -854l518 854h101l-576 -950v-594zM465 1688h-90v258h90v-258zM836 1688h-91v258h91v-258z" />
    <glyph glyph-name="Zacute" unicode="&#x179;" horiz-adv-x="1296" 
d="M1188 0h-1079v92l966 1370h-936v82h1035v-92l-967 -1370h981v-82zM641 1675h-115l234 271h117z" />
    <glyph glyph-name="zacute" unicode="&#x17a;" horiz-adv-x="1056" 
d="M973 0h-881v72l750 929h-717v80h831v-71l-749 -930h766v-80zM532 1274h-114l233 270h117z" />
    <glyph glyph-name="Zdotaccent" unicode="&#x17b;" horiz-adv-x="1296" 
d="M1188 0h-1079v92l966 1370h-936v82h1035v-92l-967 -1370h981v-82zM686 1688h-90v258h90v-258z" />
    <glyph glyph-name="zdotaccent" unicode="&#x17c;" horiz-adv-x="1056" 
d="M973 0h-881v72l750 929h-717v80h831v-71l-749 -930h766v-80zM575 1286h-90v258h90v-258z" />
    <glyph glyph-name="Zcaron" unicode="&#x17d;" horiz-adv-x="1296" 
d="M1188 0h-1079v92l966 1370h-936v82h1035v-92l-967 -1370h981v-82zM471 1946l180 -193l178 193h115l-246 -271h-94l-248 271h115z" />
    <glyph glyph-name="zcaron" unicode="&#x17e;" horiz-adv-x="1056" 
d="M973 0h-881v72l750 929h-717v80h831v-71l-749 -930h766v-80zM358 1544l181 -192l178 192h114l-245 -270h-94l-248 270h114z" />
    <glyph glyph-name="uni018F" unicode="&#x18f;" horiz-adv-x="1437" 
d="M182 782h1002q0 347 -82 504q-62 117 -153.5 164t-248.5 47q-74 0 -166 -13t-151.5 -25.5t-165.5 -37.5v84q307 74 473 74q128 0 219.5 -27t149 -74.5t104.5 -123.5q107 -177 107 -609q0 -309 -80 -487q-66 -149 -184.5 -221t-300.5 -72q-156 0 -260.5 37.5t-176.5 124.5
q-104 128 -104 387q0 142 18 268zM260 700q-10 -78 -10 -174q0 -223 74 -329q58 -82 149 -116t229 -34q309 0 416 260q29 69 47.5 175t18.5 218h-924z" />
    <glyph glyph-name="florin" unicode="&#x192;" horiz-adv-x="704" 
d="M-23 -432v88q142 66 197 115q48 43 68 98q14 41 14 180v1028q0 152 8 215q14 107 88 170q39 34 95.5 60.5t90.5 36.5t105 28v-84q-66 -17 -98.5 -27t-78.5 -34.5t-73 -57.5q-43 -50 -51 -143q-4 -47 -4 -160h309v-80h-309v-952q0 -147 -16 -201q-17 -51 -42.5 -84
t-74.5 -71q-54 -42 -228 -125z" />
    <glyph glyph-name="uni019D" unicode="&#x19d;" horiz-adv-x="1548" 
d="M-160 -440v86q159 51 250 102q48 27 75 53t40 62q20 59 20 274v1407h127l887 -1452v1452h84v-1544h-127l-887 1452v-1305q0 -95 -0.5 -132t-5.5 -88.5t-16 -86.5q-24 -78 -105 -133q-112 -74 -342 -147z" />
    <glyph glyph-name="Gcaron" unicode="&#x1e6;" horiz-adv-x="1488" 
d="M1270 16q-347 -51 -535 -51q-140 0 -239 37.5t-155.5 98.5t-98.5 155q-74 168 -74 512q0 410 104 588q69 119 173 171t290 52q107 0 260 -29q101 -20 222 -53v-84q-110 28 -254 57q-139 27 -228 27q-158 0 -250 -46t-151 -161q-39 -81 -59.5 -224.5t-20.5 -299.5
q0 -322 65 -473q58 -140 166.5 -193t280.5 -53q130 0 420 41v733h84v-805zM567 1946l181 -193l178 193h114l-245 -271h-95l-247 271h114z" />
    <glyph glyph-name="gcaron" unicode="&#x1e7;" horiz-adv-x="1175" 
d="M176 -399v84q209 -33 336 -33q232 0 326 110q75 88 75 306v59q-80 -38 -161 -72q-137 -55 -256 -55q-125 0 -189 40.5t-104 119.5q-64 125 -64 393q0 256 72 389q54 98 139 136t213 38q129 0 432 -100v-955q0 -135 -26.5 -222.5t-81.5 -145.5q-115 -121 -375 -121
q-109 0 -336 29zM913 219v737q-244 80 -354 80t-174.5 -31.5t-103.5 -107.5q-58 -113 -58 -344q0 -239 53 -354q30 -64 82 -91.5t138 -27.5q90 0 213 47q86 33 204 92zM399 1544l181 -192l178 192h114l-245 -270h-95l-247 270h114z" />
    <glyph glyph-name="uni01EA" unicode="&#x1ea;" horiz-adv-x="1587" 
d="M1024 -358q-79 -37 -147 -37q-79 0 -119 43q-35 38 -35 106q0 66 59 135q32 38 82 78q-20 -2 -69 -2q-86 0 -156 9t-141.5 32t-129.5 69t-98 113q-102 171 -102 586q0 383 84 537q145 268 541 268q179 0 299 -50.5t196 -158.5q67 -95 99 -261t32 -335
q0 -150 -27.5 -313.5t-93.5 -265.5q-29 -45 -61.5 -79t-71 -57.5t-63 -35t-68.5 -29.5q-34 -13 -81.5 -49.5t-90.5 -87.5q-29 -36 -41 -59t-12 -50q0 -61 63 -61q47 0 152 43v-88zM793 1497q-349 0 -465 -227q-74 -147 -74 -496q0 -152 19 -301t65 -229q34 -59 82.5 -99.5
t109.5 -61t122.5 -28.5t140.5 -8q139 0 237 35.5t172 124.5q68 84 99.5 239.5t31.5 327.5q0 156 -25 300t-79 231q-63 103 -171.5 147.5t-264.5 44.5z" />
    <glyph glyph-name="uni01EB" unicode="&#x1eb;" horiz-adv-x="1167" 
d="M764 -358q-79 -37 -148 -37q-78 0 -118 43q-35 38 -35 106q0 65 59 133q34 37 84 78q-141 0 -231 31t-152 129q-41 65 -63.5 177t-22.5 233q0 224 45 337q46 120 139.5 182t262.5 62q125 0 207 -32.5t139 -108.5q100 -136 100 -430q0 -118 -18 -220.5t-49 -162.5
q-54 -112 -193 -170q-69 -27 -168 -135q-53 -58 -53 -109q0 -61 63 -61q47 0 152 43v-88zM584 1036q-123 0 -197 -40.5t-117 -129.5q-49 -106 -49 -329q0 -106 17.5 -203t48.5 -152q45 -78 114 -107.5t183 -29.5q215 0 293 133q69 120 69 369q0 112 -11 191t-44 143
q-44 87 -117 121t-190 34z" />
    <glyph glyph-name="Aringacute" unicode="&#x1fa;" horiz-adv-x="1378" 
d="M133 0h-90l563 1475q-52 16 -90 61q-45 53 -45 133q0 94 51 148q61 65 166 65t166 -65q51 -54 51 -148q0 -80 -45 -133q-38 -44 -92 -61l567 -1475h-92l-170 440h-772zM332 522h710l-356 932zM688 1806q-73 0 -110 -43q-29 -36 -29 -94q0 -51 29 -88q34 -43 110 -43
q77 0 111 43q28 36 28 88q0 59 -28 94q-37 43 -111 43zM719 1956h-117l180 205h121z" />
    <glyph glyph-name="aringacute" unicode="&#x1fb;" horiz-adv-x="1167" 
d="M987 0h-82v199q-59 -53 -133 -113q-77 -62 -141.5 -91.5t-143.5 -29.5t-136.5 23.5t-89.5 58.5t-60 90q-31 62 -47.5 174.5t-16.5 239.5q0 268 84 397q63 96 150.5 132t212.5 36q56 0 129 -17.5t124.5 -35.5t149.5 -55v-1008zM905 305v647q-77 29 -115 42.5t-99.5 27.5
t-112.5 14q-107 0 -177.5 -33t-113.5 -108q-32 -56 -49 -149.5t-17 -194.5q0 -258 49 -365q35 -74 84.5 -107.5t132.5 -33.5q100 0 218 92q123 97 200 168zM590 1642q105 0 166 -65q51 -54 51 -147q0 -81 -45 -134q-62 -73 -172 -73t-172 73q-45 53 -45 134q0 93 51 147
q61 65 166 65zM590 1567q-74 0 -111 -43q-28 -35 -28 -94q0 -53 28 -89q34 -43 111 -43q76 0 110 43q29 37 29 89q0 58 -29 94q-37 43 -110 43zM633 1683h-115l225 263h117z" />
    <glyph glyph-name="AEacute" unicode="&#x1fc;" horiz-adv-x="2187" 
d="M104 0h-100l1030 1544h1037v-82h-908v-631h862v-81h-862v-668h940v-82h-1024v440h-680zM455 522h624v942zM1161 1675h-114l233 271h117z" />
    <glyph glyph-name="aeacute" unicode="&#x1fd;" horiz-adv-x="1880" 
d="M1694 6q-200 -41 -338 -41q-347 0 -434 234q-100 -77 -168 -123q-166 -111 -295 -111q-87 0 -142 15t-98 55q-86 78 -86 237q0 83 32 153t91 103q61 33 139.5 43.5t225.5 10.5h268v159q0 57 -1 85t-7 63t-19 57q-27 49 -89.5 69.5t-172.5 20.5q-77 0 -205.5 -22.5
t-218.5 -44.5v82q283 65 420 65q154 0 238.5 -38.5t121.5 -139.5q91 178 377 178q271 0 371 -192q45 -88 45 -217q0 -91 -20 -205h-760q0 -72 1.5 -111.5t11.5 -96t30 -93.5q44 -83 125 -119.5t219 -36.5q119 0 338 45v-84zM969 582h686q10 58 10 123q0 123 -39 190
q-80 141 -293 141q-239 0 -317 -164q-47 -97 -47 -290zM889 270v232h-283q-119 0 -189 -8.5t-120 -40.5q-80 -51 -80 -181q0 -67 15 -109t51 -71q53 -45 166 -45q103 0 276 109q103 68 164 114zM950 1274h-114l233 270h117z" />
    <glyph glyph-name="Oslashacute" unicode="&#x1fe;" horiz-adv-x="1587" 
d="M793 1579q179 0 299 -50.5t196 -158.5q67 -95 99 -261t32 -335q0 -150 -27.5 -313.5t-93.5 -265.5q-81 -124 -206 -177t-299 -53q-200 0 -328.5 55t-194.5 168q-102 171 -102 586q0 383 84 537q145 268 541 268zM375 190l760 1217q-116 90 -342 90q-349 0 -465 -227
q-74 -147 -74 -496q0 -443 121 -584zM436 133q115 -86 357 -86q139 0 237 35.5t172 124.5q68 84 99.5 239.5t31.5 327.5q0 101 -9 196.5t-42 206.5t-86 173zM793 1675h-115l233 271h117z" />
    <glyph glyph-name="oslashacute" unicode="&#x1ff;" horiz-adv-x="1167" 
d="M584 1116q125 0 207 -32.5t139 -108.5q100 -136 100 -430q0 -118 -18 -220.5t-49 -162.5q-96 -197 -379 -197q-138 0 -222.5 37.5t-138.5 122.5q-41 65 -63.5 177t-22.5 233q0 224 45 337q46 120 139.5 182t262.5 62zM299 160l510 821q-76 55 -225 55q-123 0 -197 -40.5
t-117 -129.5q-49 -106 -49 -329q0 -261 78 -377zM356 100q76 -55 228 -55q215 0 293 133q69 120 69 369q0 280 -80 375zM559 1274h-115l234 270h117z" />
    <glyph glyph-name="uni0218" unicode="&#x218;" horiz-adv-x="1306" 
d="M152 45v86q349 -84 503 -84q109 0 182 18.5t130 63.5q54 42 84 110.5t30 145.5q0 119 -51 180q-28 36 -79.5 63.5t-143.5 59.5l-352 121q-99 34 -154.5 61.5t-91.5 69.5q-70 81 -70 242q0 183 97 280q64 64 154 90.5t233 26.5q80 0 168.5 -13.5t147 -28t173.5 -46.5v-84
q-330 90 -489 90q-110 0 -185 -18t-125 -62q-88 -76 -88 -235q0 -137 56 -193q45 -48 215 -106l350 -119q111 -38 170 -74.5t96 -89.5q55 -76 55 -219q0 -83 -29.5 -159.5t-82.5 -129.5q-67 -68 -161.5 -97.5t-231.5 -29.5q-176 0 -510 80zM655 -573h-75q16 70 23 132.5
t8 99.5t1 122v90h88v-131q0 -71 -1.5 -107t-12 -92t-31.5 -114z" />
    <glyph glyph-name="uni0219" unicode="&#x219;" horiz-adv-x="1030" 
d="M139 16v82q226 -53 348 -53q157 0 236 49q96 59 96 170q0 84 -43 127q-25 27 -61 43.5t-111 42.5l-190 64q-92 31 -133.5 47.5t-73.5 40.5q-80 59 -80 202q0 149 98 222q51 37 114.5 50t162.5 13q127 0 360 -63v-82q-260 65 -360 65q-85 0 -136 -11t-87 -38
q-68 -53 -68 -156q0 -96 45 -133q18 -14 45.5 -27t45.5 -19.5t77 -26.5l207 -68q79 -26 123.5 -47.5t76.5 -52.5q72 -69 72 -187q0 -72 -31 -135.5t-90 -101.5q-108 -68 -295 -68q-135 0 -348 51zM516 -573h-76q16 70 23.5 131.5t8.5 101.5t1 121v90h88v-131
q0 -71 -1.5 -107t-12 -92t-31.5 -114z" />
    <glyph glyph-name="uni021A" unicode="&#x21a;" horiz-adv-x="1353" 
d="M719 0h-84v1462h-578v82h1239v-82h-577v-1462zM678 -573h-76q16 70 23.5 131.5t8.5 101.5t1 121v90h88v-131q0 -71 -1.5 -107t-12 -92t-31.5 -114z" />
    <glyph glyph-name="uni021B" unicode="&#x21b;" horiz-adv-x="612" 
d="M541 -14q-166 12 -230 32q-89 27 -114 103q-13 40 -16 94t-3 180v957h82v-271h326v-80h-326v-608q0 -141 6 -194q9 -81 72 -103q47 -16 203 -28v-82zM328 -573h-76q16 70 23.5 131.5t8.5 101.5t1 121v90h88v-131q0 -71 -1.5 -107t-12 -92t-31.5 -114z" />
    <glyph glyph-name="uni0232" unicode="&#x232;" horiz-adv-x="1212" 
d="M649 0h-86v594l-575 950h100l518 -854l518 854h101l-576 -950v-594zM881 1733h-547v82h547v-82z" />
    <glyph glyph-name="uni0233" unicode="&#x233;" horiz-adv-x="997" 
d="M375 -393h-90l168 413l-424 1061h90l379 -948l383 948h88zM770 1331h-547v82h547v-82z" />
    <glyph glyph-name="uni0237" unicode="&#x237;" horiz-adv-x="464" 
d="M-76 -432v90q143 66 197 113q47 42 65 98q17 52 17 184v1028h82v-1015q0 -162 -15 -218q-14 -50 -40.5 -86t-77.5 -73q-56 -42 -228 -121z" />
    <glyph glyph-name="uni0259" unicode="&#x259;" horiz-adv-x="1134" 
d="M186 1075q200 41 338 41q167 0 259.5 -44.5t144.5 -137.5q38 -68 53.5 -158t15.5 -233q0 -121 -13 -211.5t-52 -169.5q-96 -197 -385 -197q-271 0 -371 193q-45 88 -45 217q0 85 21 205h763q0 200 -53 299q-43 83 -121.5 120t-216.5 37q-112 0 -338 -43v82zM915 500h-690
q-10 -58 -10 -125q0 -122 39 -189q80 -141 293 -141q239 0 317 164q51 105 51 291z" />
    <glyph glyph-name="uni0272" unicode="&#x272;" horiz-adv-x="1177" 
d="M-98 -432v90q141 65 196 113q48 43 66 98q16 49 16 184v1028h82v-88q97 44 150 65t126 39.5t138 18.5q96 0 159.5 -22t104.5 -76q39 -50 50 -121t11 -178v-719h-81v723q0 178 -48 242q-53 71 -196 71q-60 0 -141 -23.5t-131.5 -45t-141.5 -62.5v-839q0 -166 -14 -218
q-13 -49 -40.5 -85.5t-78.5 -73.5q-58 -44 -227 -121z" />
    <glyph glyph-name="circumflex" unicode="&#x2c6;" horiz-adv-x="768" 
d="M205 1274h-115l248 270h94l246 -270h-115l-178 192z" />
    <glyph glyph-name="caron" unicode="&#x2c7;" horiz-adv-x="768" 
d="M205 1544l180 -192l178 192h115l-246 -270h-94l-248 270h115z" />
    <glyph glyph-name="breve" unicode="&#x2d8;" horiz-adv-x="768" 
d="M96 1544h88q33 -110 72 -149q47 -47 129 -47t125 49q48 53 74 147h88q-40 -158 -121 -225q-64 -53 -166 -53q-111 0 -176 57q-37 31 -66.5 93t-46.5 128z" />
    <glyph glyph-name="dotaccent" unicode="&#x2d9;" horiz-adv-x="768" 
d="M428 1286h-90v258h90v-258z" />
    <glyph glyph-name="ring" unicode="&#x2da;" horiz-adv-x="768" 
d="M385 1642q105 0 166 -65q51 -54 51 -147q0 -81 -45 -134q-62 -73 -172 -73t-172 73q-45 53 -45 134q0 93 51 147q61 65 166 65zM385 1567q-74 0 -111 -43q-28 -35 -28 -94q0 -53 28 -89q34 -43 111 -43t111 43q28 36 28 89q0 59 -28 94q-37 43 -111 43z" />
    <glyph glyph-name="ogonek" unicode="&#x2db;" horiz-adv-x="768" 
d="M768 -358q-79 -37 -147 -37q-79 0 -119 43q-35 38 -35 106q0 66 59 135q47 56 115 111h127q-99 -75 -162 -143q-53 -58 -53 -109q0 -61 63 -61q47 0 152 43v-88z" />
    <glyph glyph-name="tilde" unicode="&#x2dc;" horiz-adv-x="768" 
d="M117 1298h-88q47 124 92 169.5t117 45.5q40 0 74 -15t83 -56q48 -41 74 -56.5t57 -15.5q49 0 72 29t51 100h90q-17 -39 -25.5 -58t-24.5 -49t-29.5 -44t-34 -30t-45.5 -22t-56 -6q-41 0 -73.5 12.5t-69.5 45.5q-52 47 -82.5 66.5t-60.5 19.5q-20 0 -36.5 -8.5t-27.5 -19
t-23 -32.5t-17.5 -35t-16.5 -41z" />
    <glyph glyph-name="hungarumlaut" unicode="&#x2dd;" horiz-adv-x="768" 
d="M240 1274h-95l177 270h98zM481 1274h-94l174 270h98z" />
    <glyph glyph-name="dotbelowcomb" unicode="&#x323;" horiz-adv-x="768" 
d="M430 -393h-90v258h90v-258z" />
    <glyph glyph-name="uni0326" unicode="&#x326;" horiz-adv-x="768" 
d="M397 -573h-75q16 70 23 132.5t8 99.5t1 122v90h88v-131q0 -71 -1.5 -107t-12 -92t-31.5 -114z" />
    <glyph glyph-name="uni037E" unicode="&#x37e;" horiz-adv-x="489" 
d="M225 -346h-80q27 124 37.5 215.5t10.5 257.5v131h112v-207q0 -182 -80 -397zM305 823h-121v258h121v-258z" />
    <glyph glyph-name="tonos" unicode="&#x384;" horiz-adv-x="768" 
d="M377 1231h-88l110 313h93z" />
    <glyph glyph-name="dieresistonos" unicode="&#x385;" horiz-adv-x="768" 
d="M229 1286h-88v258h88v-258zM627 1286h-88v258h88v-258zM399 1409h-88l111 313h92z" />
    <glyph glyph-name="Alphatonos" unicode="&#x386;" horiz-adv-x="1378" 
d="M133 0h-90l590 1544h108l594 -1544h-92l-170 440h-772zM332 522h710l-356 932zM291 1231h-88l110 313h93z" />
    <glyph glyph-name="anoteleia" unicode="&#x387;" horiz-adv-x="489" 
d="M305 825h-121v258h121v-258z" />
    <glyph glyph-name="Epsilontonos" unicode="&#x388;" horiz-adv-x="1333" 
d="M1249 0h-1024v1544h992v-82h-908v-631h862v-81h-862v-668h940v-82zM0 1231h-88l111 313h92z" />
    <glyph glyph-name="Etatonos" unicode="&#x389;" horiz-adv-x="1574" 
d="M309 0h-84v1544h84v-682h957v682h84v-1544h-84v780h-957v-780zM0 1231h-88l111 313h92z" />
    <glyph glyph-name="Iotatonos" unicode="&#x38a;" horiz-adv-x="534" 
d="M309 0h-84v1544h84v-1544zM0 1231h-88l111 313h92z" />
    <glyph glyph-name="Omicrontonos" unicode="&#x38c;" horiz-adv-x="1587" 
d="M793 1579q179 0 299 -50.5t196 -158.5q67 -95 99 -261t32 -335q0 -150 -27.5 -313.5t-93.5 -265.5q-81 -124 -206 -177t-299 -53q-200 0 -328.5 55t-194.5 168q-102 171 -102 586q0 383 84 537q145 268 541 268zM793 1497q-349 0 -465 -227q-74 -147 -74 -496
q0 -152 19 -301t65 -229q34 -59 82.5 -99.5t109.5 -61t122.5 -28.5t140.5 -8q139 0 237 35.5t172 124.5q68 84 99.5 239.5t31.5 327.5q0 154 -25.5 299t-78.5 232q-65 103 -173 147.5t-263 44.5zM29 1231h-88l110 313h92z" />
    <glyph glyph-name="Upsilontonos" unicode="&#x38e;" horiz-adv-x="1212" 
d="M649 0h-86v594l-575 950h100l518 -854l518 854h101l-576 -950v-594zM-154 1231h-88l111 313h92z" />
    <glyph glyph-name="Omegatonos" unicode="&#x38f;" horiz-adv-x="1587" 
d="M1458 0h-547v78q78 42 139.5 89t123.5 126q93 118 126 244.5t33 336.5q0 257 -104 424q-125 199 -436 199q-343 0 -463 -229q-76 -143 -76 -394q0 -201 32 -332t101 -225q45 -64 102 -114t92 -71.5t95 -53.5v-78h-547v82h381q-108 72 -191 182q-80 106 -115.5 255
t-35.5 355q0 110 19.5 231t64.5 206q65 123 205.5 195.5t335.5 72.5q178 0 297.5 -53t197.5 -162q67 -94 99 -229.5t32 -260.5q0 -216 -38 -361t-134 -265q-77 -97 -170 -166h381v-82zM29 1231h-88l110 313h92z" />
    <glyph glyph-name="iotadieresistonos" unicode="&#x390;" horiz-adv-x="503" 
d="M459 -14q-98 10 -150 24q-86 23 -112 103q-13 43 -16 99t-3 181v688h82v-688q0 -152 6 -205q5 -41 22 -64.5t54 -35.5q39 -11 117 -20v-82zM113 1286h-88v258h88v-258zM510 1286h-88v258h88v-258zM283 1409h-88l110 313h92z" />
    <glyph glyph-name="Alpha" unicode="&#x391;" horiz-adv-x="1378" 
d="M133 0h-90l590 1544h108l594 -1544h-92l-170 440h-772zM332 522h710l-356 932z" />
    <glyph glyph-name="Beta" unicode="&#x392;" horiz-adv-x="1470" 
d="M225 0v1544h572q123 0 200.5 -10t137.5 -41q149 -78 149 -281q0 -44 -14.5 -93.5t-30 -80.5t-47.5 -92q-28 -49 -80 -137q87 -59 133 -121q76 -104 76 -262q0 -209 -127 -320q-118 -106 -375 -106h-594zM309 82h508q195 0 301 72q117 83 117 272q0 90 -28.5 156
t-92.5 118q-40 32 -83 44t-111 12h-611v-674zM309 838h723q14 25 82 147q31 57 45 85.5t26.5 69.5t12.5 79q0 142 -108 200q-81 43 -287 43h-494v-624z" />
    <glyph glyph-name="Gamma" unicode="&#x393;" horiz-adv-x="1245" 
d="M309 0h-84v1544h983v-82h-899v-1462z" />
    <glyph glyph-name="uni0394" unicode="&#x394;" horiz-adv-x="1425" 
d="M1382 0h-1339l612 1544h117zM1257 82l-544 1380l-547 -1380h1091z" />
    <glyph glyph-name="Epsilon" unicode="&#x395;" horiz-adv-x="1333" 
d="M1249 0h-1024v1544h992v-82h-908v-631h862v-81h-862v-668h940v-82z" />
    <glyph glyph-name="Zeta" unicode="&#x396;" horiz-adv-x="1296" 
d="M1188 0h-1079v92l966 1370h-936v82h1035v-92l-967 -1370h981v-82z" />
    <glyph glyph-name="Eta" unicode="&#x397;" horiz-adv-x="1574" 
d="M309 0h-84v1544h84v-682h957v682h84v-1544h-84v780h-957v-780z" />
    <glyph glyph-name="Theta" unicode="&#x398;" horiz-adv-x="1587" 
d="M1196 739h-805v82h805v-82zM793 1579q179 0 299 -50.5t196 -158.5q67 -95 99 -261t32 -335q0 -150 -27.5 -313.5t-93.5 -265.5q-81 -124 -206 -177t-299 -53q-200 0 -328.5 55t-194.5 168q-102 171 -102 586q0 383 84 537q145 268 541 268zM793 1497q-349 0 -465 -227
q-74 -147 -74 -496q0 -152 19 -301t65 -229q34 -59 82.5 -99.5t109.5 -61t122.5 -28.5t140.5 -8q139 0 237 35.5t172 124.5q68 84 99.5 239.5t31.5 327.5q0 154 -25.5 299t-78.5 232q-65 103 -173 147.5t-263 44.5z" />
    <glyph glyph-name="Iota" unicode="&#x399;" horiz-adv-x="534" 
d="M309 0h-84v1544h84v-1544z" />
    <glyph glyph-name="Kappa" unicode="&#x39a;" horiz-adv-x="1273" 
d="M309 0h-84v1544h84v-747l778 747h125l-800 -766l864 -778h-129l-838 756v-756z" />
    <glyph glyph-name="Lambda" unicode="&#x39b;" horiz-adv-x="1353" 
d="M31 0l602 1544h94l596 -1544h-90l-553 1438l-561 -1438h-88z" />
    <glyph glyph-name="Mu" unicode="&#x39c;" horiz-adv-x="1781" 
d="M309 0h-84v1544h135l531 -1149l530 1149h135v-1544h-83v1454l-531 -1147h-104l-529 1143v-1450z" />
    <glyph glyph-name="Nu" unicode="&#x39d;" horiz-adv-x="1548" 
d="M309 0h-84v1544h127l887 -1452v1452h84v-1544h-127l-887 1452v-1452z" />
    <glyph glyph-name="Xi" unicode="&#x39e;" horiz-adv-x="1251" 
d="M1163 1462h-1075v82h1075v-82zM985 739h-719v82h719v-82zM1163 0h-1075v82h1075v-82z" />
    <glyph glyph-name="Omicron" unicode="&#x39f;" horiz-adv-x="1587" 
d="M793 1579q179 0 299 -50.5t196 -158.5q67 -95 99 -261t32 -335q0 -150 -27.5 -313.5t-93.5 -265.5q-81 -124 -206 -177t-299 -53q-200 0 -328.5 55t-194.5 168q-102 171 -102 586q0 383 84 537q145 268 541 268zM793 1497q-349 0 -465 -227q-74 -147 -74 -496
q0 -152 19 -301t65 -229q34 -59 82.5 -99.5t109.5 -61t122.5 -28.5t140.5 -8q139 0 237 35.5t172 124.5q68 84 99.5 239.5t31.5 327.5q0 154 -25.5 299t-78.5 232q-65 103 -173 147.5t-263 44.5z" />
    <glyph glyph-name="Pi" unicode="&#x3a0;" horiz-adv-x="1495" 
d="M225 0v1544h1045v-1544h-84v1462h-877v-1462h-84z" />
    <glyph glyph-name="Rho" unicode="&#x3a1;" horiz-adv-x="1345" 
d="M309 0h-84v1544h553q129 0 209 -28t137 -89q49 -52 77 -139t28 -178q0 -108 -17.5 -191t-66.5 -151q-46 -64 -116.5 -96t-174.5 -43q-124 -11 -545 -11v-618zM309 700q417 0 539 13q87 8 146 37t96 90q53 90 53 270q0 84 -26 158t-73 118q-76 76 -270 76h-465v-762z" />
    <glyph glyph-name="Sigma" unicode="&#x3a3;" horiz-adv-x="1265" 
d="M1180 0h-1074v96l650 692l-641 664v92h1050v-82h-942l651 -674l-663 -706h969v-82z" />
    <glyph glyph-name="Tau" unicode="&#x3a4;" horiz-adv-x="1353" 
d="M719 0h-84v1462h-578v82h1239v-82h-577v-1462z" />
    <glyph glyph-name="Upsilon" unicode="&#x3a5;" horiz-adv-x="1212" 
d="M649 0h-86v594l-575 950h100l518 -854l518 854h101l-576 -950v-594z" />
    <glyph glyph-name="Phi" unicode="&#x3a6;" horiz-adv-x="1771" 
d="M928 -92h-84v176q-131 0 -250 35q-202 58 -305 186q-129 161 -129 494q0 303 121 452q110 133 301 183q128 34 262 34v170h84v-170q134 0 262 -34q194 -51 301 -183q121 -146 121 -452q0 -167 -33 -294t-94 -200q-103 -128 -307 -186q-119 -35 -250 -35v-176zM928 166
q112 0 235 35q93 27 155 67t109 105q99 138 99 426q0 271 -101 399q-85 114 -260 158q-123 30 -237 30v-1220zM844 166v1220q-115 0 -238 -30q-175 -44 -260 -158q-100 -126 -100 -399q0 -285 98 -426q46 -65 109 -105t155 -67q123 -35 236 -35z" />
    <glyph glyph-name="Chi" unicode="&#x3a7;" horiz-adv-x="1224" 
d="M113 0h-105l533 784l-496 760h102l465 -710l461 710h103l-492 -758l533 -786h-105l-500 737z" />
    <glyph glyph-name="Psi" unicode="&#x3a8;" horiz-adv-x="1521" 
d="M803 0h-82v623q-364 17 -485 219q-56 93 -79.5 254t-23.5 317v131h82v-131q0 -365 90 -518q102 -179 416 -193v842h82v-842q255 17 375 158q129 150 129 553v131h82v-131q0 -185 -22 -325t-89 -238q-142 -208 -475 -227v-623z" />
    <glyph glyph-name="uni03A9" unicode="&#x3a9;" horiz-adv-x="1587" 
d="M1458 0h-547v78q78 42 139.5 89t123.5 126q93 118 126 244.5t33 336.5q0 257 -104 424q-125 199 -436 199q-343 0 -463 -229q-76 -143 -76 -394q0 -201 32 -332t101 -225q45 -64 102 -114t92 -71.5t95 -53.5v-78h-547v82h381q-108 72 -191 182q-80 106 -115.5 255
t-35.5 355q0 110 19.5 231t64.5 206q65 123 205.5 195.5t335.5 72.5q178 0 297.5 -53t197.5 -162q67 -94 99 -229.5t32 -260.5q0 -216 -38 -361t-134 -265q-77 -97 -170 -166h381v-82z" />
    <glyph glyph-name="Iotadieresis" unicode="&#x3aa;" horiz-adv-x="534" 
d="M309 0h-84v1544h84v-1544zM203 1688h-90v258h90v-258zM422 1688h-90v258h90v-258z" />
    <glyph glyph-name="Upsilondieresis" unicode="&#x3ab;" horiz-adv-x="1212" 
d="M649 0h-86v594l-575 950h100l518 -854l518 854h101l-576 -950v-594zM465 1688h-90v258h90v-258zM836 1688h-91v258h91v-258z" />
    <glyph glyph-name="alphatonos" unicode="&#x3ac;" horiz-adv-x="1198" 
d="M1151 -14q-81 3 -121 22q-29 14 -63 60q-42 61 -93 206q-31 -87 -62.5 -137.5t-74.5 -89.5q-92 -82 -229 -82q-124 0 -190.5 41.5t-108.5 124.5q-34 65 -52 179.5t-18 240.5q0 266 76 399q54 94 130.5 130t176.5 36q160 0 269 -90q75 -64 157 -160l49 215h84
q-97 -430 -166 -692q18 -58 54 -140.5t53 -111.5q22 -42 51 -55q24 -11 78 -14v-82zM926 768q-46 54 -71.5 82.5t-61.5 63t-68 57.5q-53 38 -94.5 51.5t-108.5 13.5q-88 0 -144.5 -31t-96.5 -106q-58 -105 -58 -348q0 -248 53 -373q30 -70 85.5 -101.5t142.5 -31.5
q88 0 153 45q71 50 117 150q32 68 63 176.5t89 351.5zM596 1231h-88l110 313h93z" />
    <glyph glyph-name="epsilontonos" unicode="&#x3ad;" horiz-adv-x="989" 
d="M899 18q-217 -53 -326 -53q-145 0 -229 28.5t-137 90.5q-60 72 -60 201q0 112 58 194q35 48 90 80q-43 43 -78 96q-51 74 -51 166q0 58 8.5 96.5t36.5 77.5q42 60 118 90.5t222 30.5q143 0 350 -65v-84q-222 69 -350 69q-194 0 -260 -75q-26 -31 -33.5 -62t-7.5 -80
q0 -72 51 -137q34 -47 72 -88h340v-80h-260q-49 0 -81 -10t-65 -35q-76 -61 -76 -184q0 -55 10.5 -92.5t43.5 -69.5q81 -78 284 -78q110 0 330 55v-82zM557 1231h-88l111 313h92z" />
    <glyph glyph-name="etatonos" unicode="&#x3ae;" horiz-adv-x="1153" 
d="M262 0h-82v1081h82v-96q255 131 395 131q94 0 152.5 -20.5t105.5 -79.5q39 -50 50.5 -120.5t11.5 -176.5v-1112h-82v1116q0 88 -9 144.5t-36 93.5q-53 75 -193 75q-53 0 -134.5 -28t-132 -52.5t-128.5 -64.5v-891zM573 1231h-88l111 313h92z" />
    <glyph glyph-name="iotatonos" unicode="&#x3af;" horiz-adv-x="503" 
d="M459 -14q-98 10 -150 24q-86 23 -112 103q-13 43 -16 99t-3 181v688h82v-688q0 -152 6 -205q5 -41 22 -64.5t54 -35.5q39 -11 117 -20v-82zM264 1231h-88l111 313h92z" />
    <glyph glyph-name="upsilondieresistonos" unicode="&#x3b0;" horiz-adv-x="1134" 
d="M178 1081h82v-645q0 -108 10 -173t37 -113t91.5 -76.5t152.5 -28.5q191 0 276 133q76 120 76 377q0 280 -100 526h88q96 -252 96 -526q0 -296 -96 -432q-61 -85 -143.5 -121.5t-196.5 -36.5q-110 0 -192.5 36t-120.5 101q-33 56 -46.5 134.5t-13.5 201.5v643zM410 1286
h-88v258h88v-258zM807 1286h-88v258h88v-258zM580 1409h-88l110 313h92z" />
    <glyph glyph-name="alpha" unicode="&#x3b1;" horiz-adv-x="1198" 
d="M1151 -14q-81 3 -121 22q-29 14 -63 60q-42 61 -93 206q-31 -87 -62.5 -137.5t-74.5 -89.5q-92 -82 -229 -82q-124 0 -190.5 41.5t-108.5 124.5q-34 65 -52 179.5t-18 240.5q0 266 76 399q54 94 130.5 130t176.5 36q160 0 269 -90q75 -64 157 -160l49 215h84
q-97 -430 -166 -692q18 -58 54 -140.5t53 -111.5q22 -42 51 -55q24 -11 78 -14v-82zM926 768q-46 54 -71.5 82.5t-61.5 63t-68 57.5q-53 38 -94.5 51.5t-108.5 13.5q-88 0 -144.5 -31t-96.5 -106q-58 -105 -58 -348q0 -248 53 -373q30 -70 85.5 -101.5t142.5 -31.5
q88 0 153 45q71 50 117 150q32 68 63 176.5t89 351.5z" />
    <glyph glyph-name="beta" unicode="&#x3b2;" horiz-adv-x="1110" 
d="M262 -393h-82v1437q0 139 13 228q18 107 69 170q48 57 124.5 90t150.5 33q157 0 245 -68q121 -92 121 -250q0 -84 -26.5 -145.5t-79.5 -126.5q-82 -102 -158 -178q118 -62 172 -99q91 -64 129 -118q61 -82 61 -220q0 -76 -25 -149.5t-77 -124.5q-114 -111 -303 -111
q-61 0 -130.5 18.5t-109 36t-94.5 44.5v-467zM262 166q211 -111 334 -111q160 0 250 97q72 80 72 208q0 98 -35 156q-43 69 -148 135q-106 63 -225 121q119 127 219 250q90 112 90 223q0 118 -86 187q-67 53 -196 53q-68 0 -131.5 -33t-96.5 -88t-41 -145q-6 -70 -6 -172
v-881z" />
    <glyph glyph-name="gamma" unicode="&#x3b3;" horiz-adv-x="1026" 
d="M559 -393h-82q0 362 -28 532q-36 218 -142 465q-97 221 -215 336q-65 65 -121 78v74q48 -3 91 -27.5t96 -75.5q125 -119 235 -373q101 -241 131 -428q141 225 232 443q99 238 153 450h86q-38 -150 -72 -251t-94 -240q-108 -251 -286 -527q16 -182 16 -456z" />
    <glyph glyph-name="delta" unicode="&#x3b4;" horiz-adv-x="1159" 
d="M858 1448q-200 51 -346 51q-117 0 -162 -35q-26 -23 -26 -63q0 -48 16 -72q15 -25 31.5 -41t70.5 -59q123 -98 326 -254q47 -35 95.5 -87t82.5 -110q76 -130 76 -309q0 -186 -68 -313q-51 -95 -140.5 -143t-233.5 -48q-136 0 -219.5 38t-139.5 116q-84 118 -84 350
q0 99 14 169.5t60 143.5q71 118 192 191q79 48 144 74q-120 86 -217 170q-54 48 -72 91t-18 93q0 87 67 133q63 45 205 45q139 0 346 -49v-82zM618 989q-90 -36 -165 -82q-57 -36 -98 -75t-74 -93q-60 -97 -60 -270q0 -192 64 -295q43 -69 115.5 -99t179.5 -30
q215 0 290 133q36 65 52 130t16 161q0 174 -88 307q-51 78 -232 213z" />
    <glyph glyph-name="epsilon" unicode="&#x3b5;" horiz-adv-x="989" 
d="M899 18q-217 -53 -326 -53q-145 0 -229 28.5t-137 90.5q-60 72 -60 201q0 112 58 194q35 48 90 80q-43 43 -78 96q-51 74 -51 166q0 58 8.5 96.5t36.5 77.5q42 60 118 90.5t222 30.5q143 0 350 -65v-84q-222 69 -350 69q-194 0 -260 -75q-26 -31 -33.5 -62t-7.5 -80
q0 -72 51 -137q34 -47 72 -88h340v-80h-260q-49 0 -81 -10t-65 -35q-76 -61 -76 -184q0 -55 10.5 -92.5t43.5 -69.5q81 -78 284 -78q110 0 330 55v-82z" />
    <glyph glyph-name="zeta" unicode="&#x3b6;" horiz-adv-x="882" 
d="M809 -328h-92q37 72 55 115q23 52 23 82q0 40 -19 59q-18 18 -59 32t-168 46q-146 36 -223 68.5t-117 77.5q-46 53 -67 123.5t-21 189.5q0 270 205 520q262 321 450 479h-561v80h672v-88q-287 -245 -518 -553q-164 -218 -164 -438q0 -128 21.5 -186.5t68.5 -94.5
q39 -29 88 -47t174 -51q138 -35 189 -52t83 -42q50 -42 50 -105q0 -53 -23 -110q-22 -57 -47 -105z" />
    <glyph glyph-name="eta" unicode="&#x3b7;" horiz-adv-x="1153" 
d="M262 0h-82v1081h82v-96q255 131 395 131q94 0 152.5 -20.5t105.5 -79.5q39 -50 50.5 -120.5t11.5 -176.5v-1112h-82v1116q0 88 -9 144.5t-36 93.5q-53 75 -193 75q-53 0 -134.5 -28t-132 -52.5t-128.5 -64.5v-891z" />
    <glyph glyph-name="theta" unicode="&#x3b8;" horiz-adv-x="1200" 
d="M598 -35q-121 0 -200 37.5t-132 116.5q-60 91 -85 254.5t-25 410.5q0 221 21.5 369.5t78.5 245.5q105 180 342 180q124 0 205 -46t137 -144q104 -183 104 -605q0 -442 -94 -618q-54 -102 -134.5 -151.5t-217.5 -49.5zM240 745q3 -443 96 -583q44 -63 105.5 -90t156.5 -27
q99 0 169.5 37t113.5 127q74 152 80 536h-721zM240 825h721q-3 184 -29 324t-72 215q-83 135 -262 135q-175 0 -256 -119q-99 -146 -102 -555z" />
    <glyph glyph-name="iota" unicode="&#x3b9;" horiz-adv-x="503" 
d="M459 -14q-98 10 -150 24q-86 23 -112 103q-13 43 -16 99t-3 181v688h82v-688q0 -152 6 -205q5 -41 22 -64.5t54 -35.5q39 -11 117 -20v-82z" />
    <glyph glyph-name="kappa" unicode="&#x3ba;" horiz-adv-x="974" 
d="M262 0h-82v1081h82v-520q143 146 311 311q102 98 156 141t98 56q37 12 111 12v-82q-53 0 -84 -8q-34 -9 -78 -44.5t-143 -131.5q-210 -205 -273 -270l605 -545h-123l-580 522v-522z" />
    <glyph glyph-name="lambda" unicode="&#x3bb;" horiz-adv-x="950" 
d="M113 0h-90l407 1108q-97 273 -135 313q-25 25 -58.5 37.5t-109.5 26.5v80q123 -15 184 -49q65 -38 113 -154q35 -86 84 -223l420 -1139h-90l-363 987z" />
    <glyph glyph-name="uni03BC" unicode="&#x3bc;" horiz-adv-x="1146" 
d="M262 -393h-82v1474h82v-389q0 -239 14 -368q13 -119 80.5 -199t190.5 -80q138 0 338 66v970h82v-1032q-107 -33 -156 -47t-120 -25.5t-144 -11.5q-99 0 -174 40t-111 118v-516z" />
    <glyph glyph-name="nu" unicode="&#x3bd;" horiz-adv-x="1005" 
d="M555 0h-129l-395 1081h90l373 -1024q120 205 213 404q95 204 124 368q16 92 23 252h82q-6 -162 -27 -282q-29 -159 -129 -375q-78 -170 -225 -424z" />
    <glyph glyph-name="xi" unicode="&#x3be;" horiz-adv-x="909" 
d="M829 -328h-92q43 84 56 115q22 50 22 82q0 41 -18 59q-17 17 -59 31.5t-169 46.5q-146 36 -223 68.5t-117 77.5q-46 50 -66 121t-20 192q0 202 78 346q54 95 150 168q-70 91 -111 166q-37 68 -37 170q0 69 22 117.5t77 85.5q54 36 117 48.5t161 12.5q95 0 289 -35v-80
q-179 35 -289 35q-159 0 -229 -47q-64 -44 -64 -137q0 -91 37 -152q62 -102 113 -162h358v-79h-285q-59 0 -90.5 -7t-58.5 -32q-60 -53 -100 -135q-32 -66 -43 -131t-11 -152q0 -129 20 -187t68 -94q39 -29 88.5 -47t174.5 -51q138 -35 189 -52t83 -42q49 -41 49 -105
q0 -55 -22 -110q-19 -49 -48 -105z" />
    <glyph glyph-name="omicron" unicode="&#x3bf;" horiz-adv-x="1144" 
d="M571 1116q122 0 201.5 -32t136.5 -109q58 -81 78.5 -189.5t20.5 -244.5q0 -113 -19 -216t-49 -165q-49 -97 -138 -146t-231 -49q-133 0 -214 38t-136 122q-41 63 -62.5 174.5t-21.5 230.5q0 227 45 340q46 120 136 183t253 63zM571 1036q-118 0 -188 -40t-113 -130
q-49 -106 -49 -329q0 -108 16.5 -205t47.5 -150q45 -78 111.5 -107.5t174.5 -29.5q208 0 283 133q70 122 70 369q0 220 -56 334q-44 87 -114 121t-183 34z" />
    <glyph glyph-name="pi" unicode="&#x3c0;" horiz-adv-x="1198" 
d="M342 0h-82v1001h-227v80h1124v-80h-227v-608q0 -156 6 -209q5 -42 19 -63t49 -33q39 -13 110 -20v-82q-81 9 -135 24q-87 24 -113 99q-12 42 -15 97.5t-3 186.5v608h-506v-1001z" />
    <glyph glyph-name="rho" unicode="&#x3c1;" horiz-adv-x="1146" 
d="M262 -393h-82v925q0 275 31 363q38 111 129 166t256 55q230 0 336 -186q35 -62 56.5 -167.5t21.5 -223.5q0 -254 -84 -398q-102 -176 -330 -176q-85 0 -159.5 25t-174.5 76v-459zM262 160q72 -40 110 -59t101 -37.5t123 -18.5q180 0 260 139q33 58 51.5 153.5t18.5 203.5
q0 219 -64 344q-77 151 -266 151q-129 0 -202.5 -38t-104.5 -130q-27 -80 -27 -336v-372z" />
    <glyph glyph-name="uni03C2" unicode="&#x3c2;" horiz-adv-x="909" 
d="M817 -328h-92q37 72 55 115q23 52 23 82q0 40 -19 59q-18 18 -59 32t-168 46q-145 36 -210.5 66t-106.5 82q-103 125 -103 381q0 236 43 356q43 118 131.5 171.5t261.5 53.5q113 0 297 -59v-82q-202 61 -297 61q-132 0 -203 -35t-108 -129q-41 -101 -41 -337
q0 -233 88 -334q39 -43 91.5 -64.5t164.5 -50.5q139 -36 190 -52.5t83 -41.5q49 -41 49 -105q0 -53 -23 -110q-22 -57 -47 -105z" />
    <glyph glyph-name="sigma" unicode="&#x3c3;" horiz-adv-x="1153" 
d="M1108 1001h-289q76 -93 130.5 -236t54.5 -276q0 -113 -15 -187t-49 -140q-50 -97 -137 -147t-232 -50q-133 0 -214 38t-136 122q-41 63 -62.5 174t-21.5 233q0 216 60 342q62 126 172 173q38 16 98 24t101 9t132 1h408v-80zM719 1001q-104 0 -143 -0.5t-85 -6.5t-79 -19
q-92 -37 -138 -133q-53 -109 -53 -310q0 -106 16.5 -201.5t47.5 -148.5q45 -78 111.5 -107.5t174.5 -29.5q208 0 283 133q36 62 51 131t15 174q0 103 -34 209.5t-69 163.5q-53 90 -98 145z" />
    <glyph glyph-name="tau" unicode="&#x3c4;" horiz-adv-x="819" 
d="M713 -14q-165 10 -240 34q-89 30 -111 103q-13 42 -16.5 97.5t-3.5 176.5v604h-317v80h763v-80h-364v-608q0 -137 6 -190q9 -82 78 -105q56 -19 205 -30v-82z" />
    <glyph glyph-name="upsilon" unicode="&#x3c5;" horiz-adv-x="1134" 
d="M178 1081h82v-645q0 -108 10 -173t37 -113t91.5 -76.5t152.5 -28.5q191 0 276 133q76 120 76 377q0 280 -100 526h88q96 -252 96 -526q0 -296 -96 -432q-61 -85 -143.5 -121.5t-196.5 -36.5q-110 0 -192.5 36t-120.5 101q-33 56 -46.5 134.5t-13.5 201.5v643z" />
    <glyph glyph-name="phi" unicode="&#x3c6;" horiz-adv-x="1341" 
d="M254 1081h90q-108 -234 -108 -516q0 -145 18.5 -237.5t62.5 -147.5q46 -57 115.5 -81t183.5 -29v462q0 290 19 383q23 108 78.5 154.5t154.5 46.5q96 0 162.5 -41.5t110.5 -136.5q59 -126 59 -373q0 -253 -88 -387q-117 -178 -414 -188v-383h-82v383q-126 5 -212.5 32
t-149.5 103q-57 67 -79.5 174t-22.5 266q0 273 102 516zM698 70q131 4 211 41t129 110q78 112 78 344q0 212 -45 320q-33 82 -81 116.5t-122 34.5q-73 0 -107.5 -35t-49.5 -124q-13 -87 -13 -306v-501z" />
    <glyph glyph-name="chi" unicode="&#x3c7;" horiz-adv-x="892" 
d="M117 -393h-92l370 751l-250 514q-43 90 -73 117q-21 18 -66 23v80q37 -3 56 -7.5t42 -17.5q28 -18 51 -44.5t52 -86.5l246 -506l317 651h90l-354 -725l366 -749h-94l-329 680z" />
    <glyph glyph-name="psi" unicode="&#x3c8;" horiz-adv-x="1302" 
d="M692 -393h-82v383q-288 12 -372 125q-39 51 -50.5 123t-11.5 217v626h82v-626q0 -116 7.5 -181t35.5 -104q70 -92 309 -100v1394h82v-1394q211 8 285 88q42 43 54.5 102t12.5 195v626h82v-626q0 -153 -19 -231.5t-77 -131.5q-99 -93 -338 -102v-383z" />
    <glyph glyph-name="omega" unicode="&#x3c9;" horiz-adv-x="1593" 
d="M270 1081h90q-116 -227 -116 -528q0 -268 55 -387q29 -61 74.5 -91t122.5 -30q64 0 105.5 19t76.5 61q46 58 78 129v557h82v-557q36 -73 80 -129q68 -80 178 -80q143 0 198 121q56 125 56 387q0 299 -117 528h90q60 -125 85.5 -248t25.5 -280q0 -158 -16.5 -259
t-57.5 -179q-41 -80 -106 -115t-158 -35q-158 0 -244 111q-33 43 -55 84q-18 -35 -54 -84q-83 -111 -247 -111q-95 0 -159.5 34.5t-105.5 117.5q-38 78 -54.5 178t-16.5 258q0 157 25 280t85 248z" />
    <glyph glyph-name="iotadieresis" unicode="&#x3ca;" horiz-adv-x="503" 
d="M459 -14q-98 10 -150 24q-86 23 -112 103q-13 43 -16 99t-3 181v688h82v-688q0 -152 6 -205q5 -41 22 -64.5t54 -35.5q39 -11 117 -20v-82zM160 1286h-88v258h88v-258zM371 1286h-86v258h86v-258z" />
    <glyph glyph-name="upsilondieresis" unicode="&#x3cb;" horiz-adv-x="1134" 
d="M178 1081h82v-645q0 -108 10 -173t37 -113t91.5 -76.5t152.5 -28.5q191 0 276 133q76 120 76 377q0 280 -100 526h88q96 -252 96 -526q0 -296 -96 -432q-61 -85 -143.5 -121.5t-196.5 -36.5q-110 0 -192.5 36t-120.5 101q-33 56 -46.5 134.5t-13.5 201.5v643zM416 1286
h-88v258h88v-258zM770 1286h-88v258h88v-258z" />
    <glyph glyph-name="omicrontonos" unicode="&#x3cc;" horiz-adv-x="1144" 
d="M571 1116q122 0 201.5 -32t136.5 -109q58 -81 78.5 -189.5t20.5 -244.5q0 -113 -19 -216t-49 -165q-49 -97 -138 -146t-231 -49q-133 0 -214 38t-136 122q-41 63 -62.5 174.5t-21.5 230.5q0 227 45 340q46 120 136 183t253 63zM571 1036q-118 0 -188 -40t-113 -130
q-49 -106 -49 -329q0 -108 16.5 -205t47.5 -150q45 -78 111.5 -107.5t174.5 -29.5q208 0 283 133q70 122 70 369q0 220 -56 334q-44 87 -114 121t-183 34zM590 1231h-88l110 313h93z" />
    <glyph glyph-name="upsilontonos" unicode="&#x3cd;" horiz-adv-x="1134" 
d="M178 1081h82v-645q0 -108 10 -173t37 -113t91.5 -76.5t152.5 -28.5q191 0 276 133q76 120 76 377q0 280 -100 526h88q96 -252 96 -526q0 -296 -96 -432q-61 -85 -143.5 -121.5t-196.5 -36.5q-110 0 -192.5 36t-120.5 101q-33 56 -46.5 134.5t-13.5 201.5v643zM575 1231
h-88l111 313h92z" />
    <glyph glyph-name="omegatonos" unicode="&#x3ce;" horiz-adv-x="1593" 
d="M270 1081h90q-116 -227 -116 -528q0 -268 55 -387q29 -61 74.5 -91t122.5 -30q64 0 105.5 19t76.5 61q46 58 78 129v557h82v-557q36 -73 80 -129q68 -80 178 -80q143 0 198 121q56 125 56 387q0 299 -117 528h90q60 -125 85.5 -248t25.5 -280q0 -158 -16.5 -259
t-57.5 -179q-41 -80 -106 -115t-158 -35q-158 0 -244 111q-33 43 -55 84q-18 -35 -54 -84q-83 -111 -247 -111q-95 0 -159.5 34.5t-105.5 117.5q-38 78 -54.5 178t-16.5 258q0 157 25 280t85 248zM821 1231h-88l111 313h92z" />
    <glyph glyph-name="uni03D1" unicode="&#x3d1;" horiz-adv-x="1148" 
d="M176 672h82v-238q0 -107 10 -173t35 -114q26 -48 90.5 -75t153.5 -27q99 0 168 37t116 127q76 138 76 502q-303 63 -429.5 111t-198.5 114q-66 59 -88.5 128.5t-22.5 184.5q0 171 121 256q85 60 239 60q206 0 320 -166q69 -101 106 -266.5t37 -362.5q0 -233 -17 -367.5
t-69 -232.5q-55 -103 -138.5 -154t-219.5 -51q-109 0 -191.5 35.5t-122.5 101.5q-31 56 -44 134t-13 202v234zM907 793q0 169 -38 330.5t-97 240.5q-93 121 -244 121q-68 0 -112 -9.5t-82 -37.5q-82 -59 -82 -189q0 -46 1.5 -70.5t9 -61.5t26 -67t49.5 -57q72 -65 202 -108
t367 -92z" />
    <glyph glyph-name="uni03D5" unicode="&#x3d5;" horiz-adv-x="1335" 
d="M627 -393v383q-134 5 -242.5 45t-157.5 110q-49 68 -69.5 164t-20.5 236q0 116 14 200.5t54 151.5q53 89 166.5 139.5t255.5 55.5v372h82v-372q136 -4 238.5 -47t154.5 -113q57 -79 76.5 -169.5t19.5 -217.5q0 -129 -19.5 -220.5t-68.5 -164.5q-52 -77 -157.5 -121
t-243.5 -49v-383h-82zM627 70v942q-121 -5 -216.5 -45.5t-136.5 -112.5q-53 -94 -53 -309q0 -240 70 -346q82 -118 336 -129zM709 70q248 10 331 133q74 110 74 340q0 111 -15 192.5t-59 143.5q-41 59 -127.5 94t-203.5 39v-942z" />
    <glyph glyph-name="uni03D6" unicode="&#x3d6;" horiz-adv-x="1589" 
d="M59 1001v80h1471v-80h-205q107 -263 107 -487q0 -139 -15 -230t-57 -169q-46 -82 -108 -116t-154 -34q-85 0 -142 29.5t-102 83.5q-40 49 -59 82q-17 -30 -60 -82q-91 -113 -246 -113q-95 0 -154.5 34t-105.5 120q-42 74 -56.5 164.5t-14.5 230.5q0 218 106 487h-205z
M352 1001q-110 -274 -110 -487q0 -132 11 -212t42 -134q37 -66 76.5 -94.5t113.5 -28.5q115 0 191 90q43 51 78 119v448h82v-448q29 -59 77 -119q70 -90 189 -90q71 0 113.5 29.5t76.5 93.5q31 57 43.5 137.5t12.5 208.5q0 210 -111 487h-885z" />
    <glyph glyph-name="uni0400" unicode="&#x400;" horiz-adv-x="1333" 
d="M1249 0h-1024v1544h992v-82h-908v-631h862v-81h-862v-668h940v-82zM825 1675h-112l-228 271h115z" />
    <glyph glyph-name="uni0401" unicode="&#x401;" horiz-adv-x="1333" 
d="M1249 0h-1024v1544h992v-82h-908v-631h862v-81h-862v-668h940v-82zM578 1688h-91v258h91v-258zM958 1688h-90v258h90v-258z" />
    <glyph glyph-name="uni0402" unicode="&#x402;" horiz-adv-x="1724" 
d="M573 0v1462h-516v82h1117v-82h-517v-512q262 62 439 62q146 0 227 -24t133 -85q27 -32 45.5 -74.5t28 -79.5t14.5 -95.5t5.5 -93.5t0.5 -103q0 -99 -0.5 -141.5t-5.5 -105.5t-16 -99q-9 -38 -37 -76.5t-68 -63.5q-110 -68 -336 -145v86q145 51 244 100q94 46 115 121
q14 50 17 112.5t3 213.5q0 177 -15.5 257.5t-59.5 131.5q-38 43 -103 62.5t-182 19.5q-214 0 -449 -66v-864h-84z" />
    <glyph glyph-name="uni0403" unicode="&#x403;" horiz-adv-x="1196" 
d="M309 0h-84v1544h922v-82h-838v-1462zM666 1675h-115l233 271h117z" />
    <glyph glyph-name="uni0404" unicode="&#x404;" horiz-adv-x="1331" 
d="M1198 29q-293 -64 -467 -64q-200 0 -316 70.5t-179 226.5q-32 81 -50 224t-18 282q0 412 104 588q70 120 174.5 171.5t288.5 51.5q111 0 258 -31q104 -20 205 -53v-84q-117 35 -244 62q-117 24 -219 24q-158 0 -250 -46t-151 -161q-36 -71 -58 -206.5t-22 -254.5h770v-81
h-772q0 -137 17 -258.5t46 -194.5q50 -128 149.5 -188t266.5 -60q75 0 160 10.5t143 22t164 35.5v-86z" />
    <glyph glyph-name="uni0405" unicode="&#x405;" horiz-adv-x="1306" 
d="M152 45v86q349 -84 503 -84q109 0 182 18.5t130 63.5q54 42 84 110.5t30 145.5q0 119 -51 180q-28 36 -79.5 63.5t-143.5 59.5l-352 121q-99 34 -154.5 61.5t-91.5 69.5q-70 81 -70 242q0 183 97 280q64 64 154 90.5t233 26.5q80 0 168.5 -13.5t147 -28t173.5 -46.5v-84
q-330 90 -489 90q-110 0 -185 -18t-125 -62q-88 -76 -88 -235q0 -137 56 -193q45 -48 215 -106l350 -119q111 -38 170 -74.5t96 -89.5q55 -76 55 -219q0 -83 -29.5 -159.5t-82.5 -129.5q-67 -68 -161.5 -97.5t-231.5 -29.5q-176 0 -510 80z" />
    <glyph glyph-name="uni0406" unicode="&#x406;" horiz-adv-x="534" 
d="M309 0h-84v1544h84v-1544z" />
    <glyph glyph-name="uni0407" unicode="&#x407;" horiz-adv-x="534" 
d="M309 0h-84v1544h84v-1544zM203 1688h-90v258h90v-258zM422 1688h-90v258h90v-258z" />
    <glyph glyph-name="uni0408" unicode="&#x408;" horiz-adv-x="745" 
d="M-12 -172v86q216 69 319 127q48 27 75 53t40 62q20 59 20 274v1114h84v-1104q0 -95 -0.5 -132t-5.5 -88.5t-16 -86.5q-24 -78 -105 -133q-121 -80 -411 -172z" />
    <glyph glyph-name="uni0409" unicode="&#x409;" horiz-adv-x="2185" 
d="M35 -39v84q77 15 117 43q33 23 51 57t30 93q32 141 93 1306h831v-647h455q139 0 219 -27t135 -90q45 -51 68.5 -131t23.5 -170q0 -204 -82 -325q-44 -65 -111 -99t-171 -45q-90 -10 -537 -10h-84v1462h-667q-56 -1092 -93 -1253q-29 -129 -106 -184q-59 -42 -172 -64z
M1157 82q416 0 529 12q88 10 141 36.5t88 86.5q57 97 57 262q0 176 -84 260q-44 44 -108.5 60t-165.5 16h-457v-733z" />
    <glyph glyph-name="uni040A" unicode="&#x40a;" horiz-adv-x="2377" 
d="M309 0h-84v1544h84v-682h957v682h84v-682h454q139 0 219.5 -27t135.5 -90q92 -106 92 -282q0 -98 -18.5 -170.5t-63.5 -138.5q-44 -65 -111.5 -99t-171.5 -45q-90 -10 -536 -10h-84v780h-957v-780zM1350 82q415 0 528 12q88 10 141 36.5t88 86.5q58 99 58 246
q0 158 -84 242q-44 44 -108.5 59.5t-166.5 15.5h-456v-698z" />
    <glyph glyph-name="uni040B" unicode="&#x40b;" horiz-adv-x="1724" 
d="M573 0v1462h-516v82h1117v-82h-517v-512q246 62 439 62q145 0 225.5 -24.5t134.5 -84.5q50 -57 71 -139t21 -209v-555h-84v559q0 106 -15.5 173.5t-57.5 115.5q-37 44 -102 63t-183 19q-214 0 -449 -66v-864h-84z" />
    <glyph glyph-name="uni040C" unicode="&#x40c;" horiz-adv-x="1273" 
d="M309 0h-84v1544h84v-747l778 747h125l-800 -766l864 -778h-129l-838 756v-756zM604 1675h-115l234 271h117z" />
    <glyph glyph-name="uni040D" unicode="&#x40d;" horiz-adv-x="1589" 
d="M225 0v1544h84v-1452l930 1452h125v-1544h-84v1452l-930 -1452h-125zM903 1675h-112l-228 271h115z" />
    <glyph glyph-name="uni040E" unicode="&#x40e;" horiz-adv-x="1175" 
d="M403 0h-96l246 492l-545 1052h96l496 -960l475 960h96zM307 1946h88q34 -112 72 -150q47 -47 129 -47t125 49q47 52 74 148h88q-41 -159 -121 -226q-64 -53 -166 -53q-111 0 -176 57q-37 31 -66.5 93t-46.5 129z" />
    <glyph glyph-name="uni040F" unicode="&#x40f;" horiz-adv-x="1480" 
d="M225 0v1544h84v-1462h862v1462h84v-1544h-473v-307h-84v307h-473z" />
    <glyph glyph-name="uni0410" unicode="&#x410;" horiz-adv-x="1378" 
d="M133 0h-90l590 1544h108l594 -1544h-92l-170 440h-772zM332 522h710l-356 932z" />
    <glyph glyph-name="uni0411" unicode="&#x411;" horiz-adv-x="1337" 
d="M225 0v1544h922v-82h-838v-577h455q139 0 219 -27t135 -90q44 -51 68 -130t24 -165q0 -198 -82 -319q-44 -65 -111 -99t-171 -45q-90 -10 -537 -10h-84zM309 82q416 0 529 12q88 10 141 36.5t88 86.5q57 97 57 256q0 75 -21 143.5t-63 110.5q-44 44 -108.5 60t-165.5 16
h-457v-721z" />
    <glyph glyph-name="uni0412" unicode="&#x412;" horiz-adv-x="1470" 
d="M225 0v1544h572q123 0 200.5 -10t137.5 -41q149 -78 149 -281q0 -44 -14.5 -93.5t-30 -80.5t-47.5 -92q-28 -49 -80 -137q87 -59 133 -121q76 -104 76 -262q0 -209 -127 -320q-118 -106 -375 -106h-594zM309 82h508q195 0 301 72q117 83 117 272q0 90 -28.5 156
t-92.5 118q-40 32 -83 44t-111 12h-611v-674zM309 838h723q14 25 82 147q31 57 45 85.5t26.5 69.5t12.5 79q0 142 -108 200q-81 43 -287 43h-494v-624z" />
    <glyph glyph-name="uni0413" unicode="&#x413;" horiz-adv-x="1196" 
d="M309 0h-84v1544h922v-82h-838v-1462z" />
    <glyph glyph-name="uni0414" unicode="&#x414;" horiz-adv-x="1452" 
d="M121 -307h-84v379q29 4 61 18q156 76 215 297q44 164 65.5 403.5t47.5 753.5h791v-1462h176v-389h-84v307h-1188v-307zM233 82h900v1380h-627q-26 -495 -48.5 -726.5t-68.5 -389.5q-51 -178 -156 -264z" />
    <glyph glyph-name="uni0415" unicode="&#x415;" horiz-adv-x="1333" 
d="M1249 0h-1024v1544h992v-82h-908v-631h862v-81h-862v-668h940v-82z" />
    <glyph glyph-name="uni0416" unicode="&#x416;" horiz-adv-x="1689" 
d="M10 0l697 778l-678 766h114l660 -747v747h84v-747l659 747h115l-678 -766l696 -778h-114l-678 756v-756h-84v756l-678 -756h-115z" />
    <glyph glyph-name="uni0417" unicode="&#x417;" horiz-adv-x="1275" 
d="M98 14v84q260 -51 432 -51q123 0 199 15.5t129 52.5q65 46 100 122t35 164q0 224 -164 322q-37 23 -82.5 29t-136.5 6h-366v82h538l103 139q98 134 98 254q0 117 -76 182q-49 41 -125 61.5t-204 20.5q-177 0 -467 -67v83q270 66 467 66q152 0 243.5 -24.5t153.5 -84.5
q45 -43 69.5 -108t24.5 -131q0 -131 -102 -281q-47 -68 -109 -149q65 -35 123 -99q98 -113 98 -296q0 -94 -34 -180.5t-97 -145.5q-69 -65 -163.5 -90t-256.5 -25q-161 0 -430 49z" />
    <glyph glyph-name="uni0418" unicode="&#x418;" horiz-adv-x="1589" 
d="M225 0v1544h84v-1452l930 1452h125v-1544h-84v1452l-930 -1452h-125z" />
    <glyph glyph-name="uni0419" unicode="&#x419;" horiz-adv-x="1589" 
d="M225 0v1544h84v-1452l930 1452h125v-1544h-84v1452l-930 -1452h-125zM502 1946h88q34 -112 72 -150q47 -47 129 -47q81 0 124 49q47 52 74 148h88q-41 -159 -121 -226q-64 -53 -165 -53q-112 0 -177 57q-70 60 -112 222z" />
    <glyph glyph-name="uni041A" unicode="&#x41a;" horiz-adv-x="1273" 
d="M309 0h-84v1544h84v-747l778 747h125l-800 -766l864 -778h-129l-838 756v-756z" />
    <glyph glyph-name="uni041B" unicode="&#x41b;" horiz-adv-x="1382" 
d="M35 -39v84q77 15 117 43q33 23 51 57t30 93q32 141 93 1306h831v-1544h-84v1462h-667q-56 -1092 -93 -1253q-29 -129 -106 -184q-59 -42 -172 -64z" />
    <glyph glyph-name="uni041C" unicode="&#x41c;" horiz-adv-x="1781" 
d="M309 0h-84v1544h135l531 -1149l530 1149h135v-1544h-83v1454l-531 -1147h-104l-529 1143v-1450z" />
    <glyph glyph-name="uni041D" unicode="&#x41d;" horiz-adv-x="1574" 
d="M309 0h-84v1544h84v-682h957v682h84v-1544h-84v780h-957v-780z" />
    <glyph glyph-name="uni041E" unicode="&#x41e;" horiz-adv-x="1587" 
d="M793 1579q179 0 299 -50.5t196 -158.5q67 -95 99 -261t32 -335q0 -150 -27.5 -313.5t-93.5 -265.5q-81 -124 -206 -177t-299 -53q-200 0 -328.5 55t-194.5 168q-102 171 -102 586q0 383 84 537q145 268 541 268zM793 1497q-349 0 -465 -227q-74 -147 -74 -496
q0 -152 19 -301t65 -229q34 -59 82.5 -99.5t109.5 -61t122.5 -28.5t140.5 -8q139 0 237 35.5t172 124.5q68 84 99.5 239.5t31.5 327.5q0 154 -25.5 299t-78.5 232q-65 103 -173 147.5t-263 44.5z" />
    <glyph glyph-name="uni041F" unicode="&#x41f;" horiz-adv-x="1495" 
d="M225 0v1544h1045v-1544h-84v1462h-877v-1462h-84z" />
    <glyph glyph-name="uni0420" unicode="&#x420;" horiz-adv-x="1345" 
d="M309 0h-84v1544h553q129 0 209 -28t137 -89q49 -52 77 -139t28 -178q0 -108 -17.5 -191t-66.5 -151q-46 -64 -116.5 -96t-174.5 -43q-124 -11 -545 -11v-618zM309 700q417 0 539 13q87 8 146 37t96 90q53 90 53 270q0 84 -26 158t-73 118q-76 76 -270 76h-465v-762z" />
    <glyph glyph-name="uni0421" unicode="&#x421;" horiz-adv-x="1300" 
d="M1178 25q-141 -31 -240 -45.5t-207 -14.5q-200 0 -317 71.5t-178 225.5q-33 83 -50.5 221t-17.5 285q0 405 104 588q47 81 104.5 128.5t144 71t214.5 23.5q107 0 256 -29q68 -13 187 -45v-84q-106 30 -220 52q-120 24 -223 24q-159 0 -250.5 -45.5t-148.5 -161.5
q-41 -81 -61.5 -223.5t-20.5 -300.5q0 -315 61 -471q48 -127 147.5 -187.5t268.5 -60.5q108 0 204.5 15.5t242.5 48.5v-86z" />
    <glyph glyph-name="uni0422" unicode="&#x422;" horiz-adv-x="1353" 
d="M719 0h-84v1462h-578v82h1239v-82h-577v-1462z" />
    <glyph glyph-name="uni0423" unicode="&#x423;" horiz-adv-x="1175" 
d="M403 0h-96l246 492l-545 1052h96l496 -960l475 960h96z" />
    <glyph glyph-name="uni0424" unicode="&#x424;" horiz-adv-x="1771" 
d="M928 -92h-84v176q-131 0 -250 35q-202 58 -305 186q-129 161 -129 494q0 303 121 452q110 133 301 183q128 34 262 34v170h84v-170q134 0 262 -34q194 -51 301 -183q121 -146 121 -452q0 -167 -33 -294t-94 -200q-103 -128 -307 -186q-119 -35 -250 -35v-176zM928 166
q112 0 235 35q93 27 155 67t109 105q99 138 99 426q0 271 -101 399q-85 114 -260 158q-123 30 -237 30v-1220zM844 166v1220q-115 0 -238 -30q-175 -44 -260 -158q-100 -126 -100 -399q0 -285 98 -426q46 -65 109 -105t155 -67q123 -35 236 -35z" />
    <glyph glyph-name="uni0425" unicode="&#x425;" horiz-adv-x="1224" 
d="M113 0h-105l533 784l-496 760h102l465 -710l461 710h103l-492 -758l533 -786h-105l-500 737z" />
    <glyph glyph-name="uni0426" unicode="&#x426;" horiz-adv-x="1488" 
d="M225 0v1544h84v-1462h860v1462h84v-1462h177v-389h-84v307h-1121z" />
    <glyph glyph-name="uni0427" unicode="&#x427;" horiz-adv-x="1345" 
d="M141 1544h84v-553q0 -196 80 -291q37 -41 100 -60t181 -19q200 0 450 65v858h84v-1544h-84v600q-262 -61 -440 -61q-147 0 -225 22.5t-131 83.5q-99 111 -99 350v549z" />
    <glyph glyph-name="uni0428" unicode="&#x428;" horiz-adv-x="1951" 
d="M225 0v1544h84v-1462h625v1462h84v-1462h624v1462h84v-1544h-1501z" />
    <glyph glyph-name="uni0429" unicode="&#x429;" horiz-adv-x="1961" 
d="M225 0v1544h84v-1462h625v1462h84v-1462h624v1462h84v-1462h177v-389h-84v307h-1594z" />
    <glyph glyph-name="uni042A" unicode="&#x42a;" horiz-adv-x="1501" 
d="M389 0v1462h-342v82h426v-647h455q139 0 219 -27t135 -90q45 -51 68.5 -131t23.5 -170q0 -204 -82 -325q-44 -65 -111 -99t-171 -45q-90 -10 -537 -10h-84zM473 82q415 0 528 12q88 10 141.5 36.5t88.5 86.5q57 97 57 262q0 176 -84 260q-44 44 -108.5 60t-165.5 16h-457
v-733z" />
    <glyph glyph-name="uni042B" unicode="&#x42b;" horiz-adv-x="1789" 
d="M225 0v1544h84v-647h455q139 0 219 -27t135 -90q45 -51 68.5 -131t23.5 -170q0 -204 -82 -325q-44 -65 -111 -99t-171 -45q-90 -10 -537 -10h-84zM309 82q416 0 529 12q88 10 141 36.5t88 86.5q57 97 57 262q0 176 -84 260q-44 44 -108.5 60t-165.5 16h-457v-733zM1565 0
h-84v1544h84v-1544z" />
    <glyph glyph-name="uni042C" unicode="&#x42c;" horiz-adv-x="1337" 
d="M225 0v1544h84v-647h455q139 0 219 -27t135 -90q45 -51 68.5 -131t23.5 -170q0 -204 -82 -325q-44 -65 -111 -99t-171 -45q-90 -10 -537 -10h-84zM309 82q416 0 529 12q88 10 141 36.5t88 86.5q57 97 57 262q0 176 -84 260q-44 44 -108.5 60t-165.5 16h-457v-733z" />
    <glyph glyph-name="uni042D" unicode="&#x42d;" horiz-adv-x="1333" 
d="M135 29v86q146 -35 248 -51.5t211 -16.5q166 0 267.5 62t152.5 186q30 74 48.5 199t18.5 254h-772v81h770q0 121 -23.5 254t-60.5 207q-56 113 -150.5 160t-246.5 47q-104 0 -221 -24q-87 -17 -242 -62v84q120 37 205 53q159 31 258 31q183 0 289 -53.5t172 -169.5
q106 -183 106 -582q0 -342 -71 -512q-63 -151 -181.5 -224t-318.5 -73q-193 0 -459 64z" />
    <glyph glyph-name="uni042E" unicode="&#x42e;" horiz-adv-x="1947" 
d="M225 0v1544h84v-727h258q0 124 20.5 270t61.5 224q145 268 522 268q171 0 285 -50.5t193 -158.5q69 -96 100 -259.5t31 -336.5q0 -150 -27.5 -313.5t-93.5 -265.5q-82 -124 -201 -177t-287 -53q-193 0 -314.5 54.5t-188.5 168.5q-52 88 -76.5 251t-24.5 296h-258v-735
h-84zM1171 1497q-330 0 -446 -227q-74 -147 -74 -496q0 -152 19 -301t65 -229q34 -60 80.5 -100t105 -60.5t117 -28.5t133.5 -8q132 0 224.5 35t167.5 125q69 82 100 237t31 330q0 155 -25.5 299.5t-79.5 231.5q-63 103 -166.5 147.5t-251.5 44.5z" />
    <glyph glyph-name="uni042F" unicode="&#x42f;" horiz-adv-x="1396" 
d="M63 0l396 674q-95 95 -174 186q-142 157 -142 320q0 197 136 290q65 44 149.5 59t251.5 15h491v-1544h-84v668h-532l-391 -668h-101zM1087 750v712h-405q-138 0 -209 -8.5t-119 -36.5q-125 -72 -125 -239q0 -121 121 -263q79 -90 154 -165h583z" />
    <glyph glyph-name="uni0430" unicode="&#x430;" horiz-adv-x="1167" 
d="M987 0h-82v199q-59 -53 -133 -113q-77 -62 -141.5 -91.5t-143.5 -29.5t-136.5 23.5t-89.5 58.5t-60 90q-31 62 -47.5 174.5t-16.5 239.5q0 268 84 397q63 96 150.5 132t212.5 36q56 0 129 -17.5t124.5 -35.5t149.5 -55v-1008zM905 305v647q-77 29 -115 42.5t-99.5 27.5
t-112.5 14q-107 0 -177.5 -33t-113.5 -108q-32 -56 -49 -149.5t-17 -194.5q0 -258 49 -365q35 -74 84.5 -107.5t132.5 -33.5q100 0 218 92q123 97 200 168z" />
    <glyph glyph-name="uni0431" unicode="&#x431;" horiz-adv-x="1185" 
d="M600 -35q-142 0 -228.5 43.5t-135.5 130.5q-76 134 -76 428q0 236 8 383q8 143 40 251.5t114 166.5q56 40 143 71.5t240 67.5q79 18 288 72v-84q-88 -21 -282 -72q-84 -21 -126 -33t-103.5 -34.5t-98.5 -46.5q-41 -26 -67.5 -67t-39.5 -99.5t-17.5 -98t-8.5 -108.5
q229 125 399 125q144 0 222.5 -51.5t127.5 -163.5q50 -117 50 -336q0 -250 -88 -381q-55 -81 -141 -122.5t-220 -41.5zM246 844q-4 -94 -4 -275q0 -274 71 -395q40 -69 110 -99t177 -30q105 0 175.5 32t117.5 103q72 110 72 330q0 212 -52 321q-39 79 -100 114.5t-164 35.5
q-149 0 -403 -137z" />
    <glyph glyph-name="uni0432" unicode="&#x432;" horiz-adv-x="1169" 
d="M180 0v1081h449q132 0 200 -15t115 -56q68 -61 68 -187q0 -92 -51 -168q-18 -26 -74 -96q47 -27 92 -80q59 -68 59 -182q0 -126 -69 -203q-51 -57 -127 -75.5t-213 -18.5h-449zM262 80h371q101 0 160 12t94 41q67 56 67 164q0 111 -80 170q-22 18 -49.5 26t-49.5 9.5
t-68 1.5h-445v-424zM262 584h543q45 56 74 96q49 67 49 143q0 96 -56 138q-33 25 -84.5 32.5t-156.5 7.5h-369v-417z" />
    <glyph glyph-name="uni0433" unicode="&#x433;" horiz-adv-x="913" 
d="M260 0h-82v1081h674v-80h-592v-1001z" />
    <glyph glyph-name="uni0434" unicode="&#x434;" horiz-adv-x="1181" 
d="M117 -307h-82v379q22 5 37 12q127 53 166 197q26 92 40 254t35 546h662v-1001h149v-387h-82v307h-925v-307zM207 80h686v921h-502q-17 -322 -31.5 -485t-40.5 -256q-33 -118 -112 -180z" />
    <glyph glyph-name="uni0435" unicode="&#x435;" horiz-adv-x="1134" 
d="M948 6q-200 -41 -338 -41q-167 0 -259 44.5t-144 137.5q-38 68 -54 159t-16 233q0 120 13.5 211t52.5 170q95 196 385 196q270 0 370 -192q46 -90 46 -217q0 -85 -21 -205h-764q0 -200 53 -299q43 -84 122 -121t216 -37q112 0 338 43v-82zM219 582h690q11 64 11 125
q0 121 -39 188q-80 141 -293 141q-240 0 -318 -164q-26 -53 -38.5 -134.5t-12.5 -155.5z" />
    <glyph glyph-name="uni0436" unicode="&#x436;" horiz-adv-x="1359" 
d="M119 0h-115l535 575l-482 506h119l463 -491v491h82v-491l463 491h116l-479 -503l535 -578h-115l-520 561v-561h-82v561z" />
    <glyph glyph-name="uni0437" unicode="&#x437;" horiz-adv-x="1007" 
d="M106 18v84q72 -23 172.5 -40t174.5 -17q112 0 170.5 20t95.5 60q57 65 57 162q0 127 -78 190q-29 23 -60 29t-93 6h-264v80h350q41 47 74 92q53 71 53 139q0 46 -9 79.5t-38 64.5q-35 35 -91.5 52t-152.5 17q-137 0 -365 -69v82q213 67 365 67q130 0 201.5 -27.5
t117.5 -80.5q56 -68 56 -185q0 -87 -58 -166q-48 -66 -71 -92q58 -35 92 -82q55 -78 55 -194q0 -130 -74 -215q-53 -60 -127 -84.5t-206 -24.5q-144 0 -347 53z" />
    <glyph glyph-name="uni0438" unicode="&#x438;" horiz-adv-x="1255" 
d="M993 0v999l-686 -999h-127v1081h82v-999l686 999h127v-1081h-82z" />
    <glyph glyph-name="uni0439" unicode="&#x439;" horiz-adv-x="1255" 
d="M993 0v999l-686 -999h-127v1081h82v-999l686 999h127v-1081h-82zM334 1544h88q33 -110 72 -149q47 -47 129 -47t125 49q46 51 73 147h88q-40 -158 -121 -225q-64 -53 -165 -53q-112 0 -177 57q-71 60 -112 221z" />
    <glyph glyph-name="uni043A" unicode="&#x43a;" horiz-adv-x="970" 
d="M262 0h-82v1081h82v-508l543 508h123l-566 -528l619 -553h-127l-592 530v-530z" />
    <glyph glyph-name="uni043B" unicode="&#x43b;" horiz-adv-x="1105" 
d="M41 -37v80q60 10 96 31q42 26 60 106q29 123 71 901h658v-1081h-82v1001h-498q-16 -266 -24.5 -397t-22 -272t-27.5 -195q-21 -85 -84 -129q-50 -33 -147 -45z" />
    <glyph glyph-name="uni043C" unicode="&#x43c;" horiz-adv-x="1409" 
d="M262 0h-82v1081h133l392 -782l391 782h133v-1081h-82v1001l-393 -784h-101l-391 780v-997z" />
    <glyph glyph-name="uni043D" unicode="&#x43d;" horiz-adv-x="1224" 
d="M262 0h-82v1081h82v-479h701v479h81v-1081h-81v522h-701v-522z" />
    <glyph glyph-name="uni043E" unicode="&#x43e;" horiz-adv-x="1167" 
d="M584 1116q125 0 207 -32.5t139 -108.5q100 -136 100 -430q0 -118 -18 -220.5t-49 -162.5q-96 -197 -379 -197q-138 0 -222.5 37.5t-138.5 122.5q-41 65 -63.5 177t-22.5 233q0 224 45 337q46 120 139.5 182t262.5 62zM584 1036q-123 0 -197 -40.5t-117 -129.5
q-49 -106 -49 -329q0 -106 17.5 -203t48.5 -152q45 -78 114 -107.5t183 -29.5q215 0 293 133q69 120 69 369q0 222 -57 334q-44 87 -116.5 121t-188.5 34z" />
    <glyph glyph-name="uni043F" unicode="&#x43f;" horiz-adv-x="1185" 
d="M180 0v1081h826v-1081h-82v1001h-662v-1001h-82z" />
    <glyph glyph-name="uni0440" unicode="&#x440;" horiz-adv-x="1181" 
d="M262 -393h-82v1474h82v-139q74 58 150 105q114 69 243 69q116 0 192.5 -43t127.5 -139q33 -62 51 -168t18 -227q0 -260 -79 -398q-52 -90 -130.5 -133t-203.5 -43q-84 0 -171 26.5t-198 78.5v-463zM262 160q78 -38 123.5 -58t115 -38.5t130.5 -18.5q97 0 158.5 33
t103.5 106q68 118 68 357q0 225 -56 346q-36 78 -97.5 113.5t-152.5 35.5q-109 0 -215 -65q-81 -52 -178 -129v-682z" />
    <glyph glyph-name="uni0441" unicode="&#x441;" horiz-adv-x="983" 
d="M887 16q-219 -51 -314 -51q-144 0 -225.5 38.5t-132.5 131.5q-78 144 -78 400q0 236 43 356q43 118 131.5 171.5t261.5 53.5q117 0 314 -63v-82q-209 65 -314 65q-132 0 -203 -35t-108 -129q-41 -101 -41 -337q0 -106 18 -205.5t50 -155.5q42 -74 110 -101.5t174 -27.5
q107 0 314 53v-82z" />
    <glyph glyph-name="uni0442" unicode="&#x442;" horiz-adv-x="995" 
d="M539 0h-82v1001h-455v80h991v-80h-454v-1001z" />
    <glyph glyph-name="uni0443" unicode="&#x443;" horiz-adv-x="997" 
d="M375 -393h-90l168 413l-424 1061h90l379 -948l383 948h88z" />
    <glyph glyph-name="uni0444" unicode="&#x444;" horiz-adv-x="1335" 
d="M627 -393v383q-134 5 -242.5 45t-157.5 110q-49 68 -69.5 164t-20.5 236q0 116 14 200.5t54 151.5q53 89 166.5 139.5t255.5 55.5v372h82v-372q136 -4 238.5 -47t154.5 -113q57 -79 76.5 -169.5t19.5 -217.5q0 -129 -19.5 -220.5t-68.5 -164.5q-52 -77 -157.5 -121
t-243.5 -49v-383h-82zM627 70v942q-121 -5 -216.5 -45.5t-136.5 -112.5q-53 -94 -53 -309q0 -240 70 -346q82 -118 336 -129zM709 70q248 10 331 133q74 110 74 340q0 111 -15 192.5t-59 143.5q-41 59 -127.5 94t-203.5 39v-942z" />
    <glyph glyph-name="uni0445" unicode="&#x445;" horiz-adv-x="966" 
d="M121 0h-101l398 553l-375 528h102l338 -477l342 477h101l-377 -528l397 -553h-102l-361 502z" />
    <glyph glyph-name="uni0446" unicode="&#x446;" horiz-adv-x="1181" 
d="M180 0v1081h82v-1001h631v1001h82v-1001h149v-387h-82v307h-862z" />
    <glyph glyph-name="uni0447" unicode="&#x447;" horiz-adv-x="1099" 
d="M838 0v414q-187 -43 -351 -43q-109 0 -175 15.5t-109 55.5t-60.5 100t-17.5 173v366h82v-368q0 -82 9 -128t42 -79q29 -29 82.5 -42t146.5 -13q154 0 351 45v585h82v-1081h-82z" />
    <glyph glyph-name="uni0448" unicode="&#x448;" horiz-adv-x="1671" 
d="M180 0v1081h82v-1001h533v1001h82v-1001h532v1001h82v-1081h-1311z" />
    <glyph glyph-name="uni0449" unicode="&#x449;" horiz-adv-x="1722" 
d="M180 0v1081h82v-1001h533v1001h82v-1001h532v1001h82v-1001h174v-387h-82v307h-1403z" />
    <glyph glyph-name="uni044A" unicode="&#x44a;" horiz-adv-x="1169" 
d="M279 0v1006h-250v75h331v-438h353q192 0 276 -90q35 -38 54.5 -95.5t19.5 -121.5q0 -142 -66 -227q-71 -89 -227 -103q-70 -6 -401 -6h-90zM360 80q289 0 379 4q139 6 195 80q45 57 45 172q0 112 -61 170q-62 57 -222 57h-336v-483z" />
    <glyph glyph-name="uni044B" unicode="&#x44b;" horiz-adv-x="1447" 
d="M180 0v1081h82v-438h352q193 0 277 -90q35 -38 54.5 -95.5t19.5 -121.5q0 -142 -66 -227q-71 -89 -227 -103q-70 -6 -402 -6h-90zM262 80q287 0 379 4q139 6 195 80q45 57 45 172q0 111 -62 170q-62 57 -221 57h-336v-483zM1268 0h-82v1081h82v-1081z" />
    <glyph glyph-name="uni044C" unicode="&#x44c;" horiz-adv-x="1071" 
d="M180 0v1081h82v-438h352q193 0 277 -90q35 -38 54.5 -95.5t19.5 -121.5q0 -142 -66 -227q-71 -89 -227 -103q-70 -6 -402 -6h-90zM262 80q287 0 379 4q139 6 195 80q45 57 45 172q0 111 -62 170q-62 57 -221 57h-336v-483z" />
    <glyph glyph-name="uni044D" unicode="&#x44d;" horiz-adv-x="993" 
d="M106 16v82q207 -53 314 -53t175 27.5t110 101.5q30 53 48.5 145.5t18.5 186.5h-528v80h528q0 186 -41 286q-39 94 -109 129t-202 35q-105 0 -314 -65v82q197 63 314 63q173 0 261.5 -53.5t131.5 -171.5q43 -120 43 -356q0 -256 -78 -400q-51 -93 -132.5 -131.5
t-225.5 -38.5q-95 0 -314 51z" />
    <glyph glyph-name="uni044E" unicode="&#x44e;" horiz-adv-x="1505" 
d="M180 0v1081h82v-495h238q0 58 11 146.5t32 139.5q48 119 137 181.5t252 62.5q122 0 201.5 -32t136.5 -109q58 -81 78 -189t20 -245q0 -113 -19 -216t-49 -165q-47 -98 -136 -146.5t-232 -48.5q-249 0 -352 162q-40 64 -60 171t-20 208h-238v-506h-82zM932 1036
q-118 0 -188 -40t-113 -130q-49 -101 -49 -329q0 -109 16 -205.5t47 -149.5q45 -78 111.5 -107.5t175.5 -29.5q207 0 282 133q70 122 70 369q0 222 -55 334q-42 87 -113 121t-184 34z" />
    <glyph glyph-name="uni044F" unicode="&#x44f;" horiz-adv-x="1120" 
d="M51 0l275 467q-64 64 -121 137q-44 52 -68 103.5t-24 115.5q0 78 25.5 129.5t82.5 83.5q51 28 120 36.5t202 8.5h397v-1081h-82v442h-450l-261 -442h-96zM387 522h471v479h-332q-104 0 -160.5 -6.5t-95.5 -25.5q-43 -22 -58 -57.5t-15 -90.5q0 -78 88 -184
q45 -54 102 -115z" />
    <glyph glyph-name="uni0450" unicode="&#x450;" horiz-adv-x="1134" 
d="M948 6q-200 -41 -338 -41q-167 0 -259 44.5t-144 137.5q-38 68 -54 159t-16 233q0 120 13.5 211t52.5 170q95 196 385 196q270 0 370 -192q46 -90 46 -217q0 -85 -21 -205h-764q0 -200 53 -299q43 -84 122 -121t216 -37q112 0 338 43v-82zM219 582h690q11 64 11 125
q0 121 -39 188q-80 141 -293 141q-240 0 -318 -164q-26 -53 -38.5 -134.5t-12.5 -155.5zM700 1274h-112l-228 270h115z" />
    <glyph glyph-name="uni0451" unicode="&#x451;" horiz-adv-x="1134" 
d="M948 6q-200 -41 -338 -41q-167 0 -259 44.5t-144 137.5q-38 68 -54 159t-16 233q0 120 13.5 211t52.5 170q95 196 385 196q270 0 370 -192q46 -90 46 -217q0 -85 -21 -205h-764q0 -200 53 -299q43 -84 122 -121t216 -37q112 0 338 43v-82zM219 582h690q11 64 11 125
q0 121 -39 188q-80 141 -293 141q-240 0 -318 -164q-26 -53 -38.5 -134.5t-12.5 -155.5zM463 1286h-88v258h88v-258zM788 1286h-88v258h88v-258z" />
    <glyph glyph-name="uni0452" unicode="&#x452;" horiz-adv-x="1177" 
d="M262 0h-82v1249h-178v80h178v215h82v-215h270v-80h-270v-256q97 44 150 65t126 39.5t138 18.5q96 0 159.5 -22t104.5 -76q39 -50 50 -121t11 -178v-653q0 -166 -14 -218q-13 -49 -40.5 -85.5t-78.5 -73.5q-58 -44 -227 -121v90q143 66 197 113q47 42 65 98q17 52 17 184
v670q0 178 -48 242q-53 71 -196 71q-60 0 -141 -23.5t-131.5 -45t-141.5 -62.5v-905z" />
    <glyph glyph-name="uni0453" unicode="&#x453;" horiz-adv-x="923" 
d="M260 0h-82v1081h674v-80h-592v-1001zM465 1274h-115l234 270h116z" />
    <glyph glyph-name="uni0454" unicode="&#x454;" horiz-adv-x="993" 
d="M887 16q-219 -51 -314 -51q-144 0 -225.5 38.5t-132.5 131.5q-78 144 -78 400q0 236 43 356q43 118 131.5 171.5t261.5 53.5q117 0 314 -63v-82q-209 65 -314 65q-132 0 -202 -35t-109 -129q-41 -100 -41 -286h529v-80h-529q0 -93 19 -186t49 -146q42 -74 110 -101.5
t174 -27.5q107 0 314 53v-82z" />
    <glyph glyph-name="uni0455" unicode="&#x455;" horiz-adv-x="1030" 
d="M139 16v82q226 -53 348 -53q157 0 236 49q96 59 96 170q0 84 -43 127q-25 27 -61 43.5t-111 42.5l-190 64q-92 31 -133.5 47.5t-73.5 40.5q-80 59 -80 202q0 149 98 222q51 37 114.5 50t162.5 13q127 0 360 -63v-82q-260 65 -360 65q-85 0 -136 -11t-87 -38
q-68 -53 -68 -156q0 -96 45 -133q18 -14 45.5 -27t45.5 -19.5t77 -26.5l207 -68q79 -26 123.5 -47.5t76.5 -52.5q72 -69 72 -187q0 -72 -31 -135.5t-90 -101.5q-108 -68 -295 -68q-135 0 -348 51z" />
    <glyph glyph-name="uni0456" unicode="&#x456;" horiz-adv-x="442" 
d="M262 0h-82v1081h82v-1081zM266 1286h-90v258h90v-258z" />
    <glyph glyph-name="uni0457" unicode="&#x457;" horiz-adv-x="442" 
d="M262 0h-82v1081h82v-1081zM160 1286h-88v258h88v-258zM371 1286h-86v258h86v-258z" />
    <glyph glyph-name="uni0458" unicode="&#x458;" horiz-adv-x="464" 
d="M-76 -432v90q143 66 197 113q47 42 65 98q17 52 17 184v1028h82v-1015q0 -162 -15 -218q-14 -50 -40.5 -86t-77.5 -73q-56 -42 -228 -121zM289 1286h-90v258h90v-258z" />
    <glyph glyph-name="uni0459" unicode="&#x459;" horiz-adv-x="1734" 
d="M41 -37v80q60 10 96 31q42 26 60 106q29 123 71 901h658v-438h352q192 0 276 -90q35 -38 54.5 -95.5t19.5 -121.5q0 -143 -65 -227q-71 -89 -228 -103q-70 -6 -401 -6h-90v1001h-498q-16 -266 -24.5 -397t-22 -272t-27.5 -195q-21 -85 -84 -129q-50 -33 -147 -45zM926 80
q287 0 379 4q138 6 194 80q45 57 45 172q0 112 -61 170q-62 57 -221 57h-336v-483z" />
    <glyph glyph-name="uni045A" unicode="&#x45a;" horiz-adv-x="1853" 
d="M180 0v1081h82v-479h701v479h81v-438h353q195 0 276 -90q74 -83 74 -217q0 -142 -66 -227q-71 -89 -227 -103q-70 -6 -401 -6h-90v522h-701v-522h-82zM1044 80q287 0 379 4q139 6 195 80q45 57 45 172q0 114 -61 170q-65 57 -222 57h-336v-483z" />
    <glyph glyph-name="uni045B" unicode="&#x45b;" horiz-adv-x="1171" 
d="M262 0h-82v1249h-178v80h178v215h82v-215h270v-80h-270v-248q128 57 223.5 86t184.5 29q96 0 158 -21t104 -75q37 -47 50 -120.5t13 -180.5v-719h-82v721q0 182 -49 246q-31 39 -77 54t-117 15q-49 0 -99.5 -9.5t-110.5 -31.5t-95 -36.5t-103 -45.5v-913z" />
    <glyph glyph-name="uni045C" unicode="&#x45c;" horiz-adv-x="970" 
d="M262 0h-82v1081h82v-508l543 508h123l-566 -528l619 -553h-127l-592 530v-530zM481 1274h-114l233 270h117z" />
    <glyph glyph-name="uni045D" unicode="&#x45d;" horiz-adv-x="1255" 
d="M993 0v999l-686 -999h-127v1081h82v-999l686 999h127v-1081h-82zM741 1274h-112l-228 270h115z" />
    <glyph glyph-name="uni045E" unicode="&#x45e;" horiz-adv-x="997" 
d="M375 -393h-90l168 413l-424 1061h90l379 -948l383 948h88zM211 1544h88q33 -110 72 -149q47 -47 129 -47t125 49q46 51 73 147h88q-41 -159 -120 -225q-64 -53 -166 -53q-111 0 -176 57q-37 31 -66.5 93t-46.5 128z" />
    <glyph glyph-name="uni045F" unicode="&#x45f;" horiz-adv-x="1155" 
d="M180 0v1081h82v-1001h631v1001h82v-1081h-357v-307h-81v307h-357z" />
    <glyph glyph-name="uni0490" unicode="&#x490;" horiz-adv-x="1206" 
d="M309 0h-84v1544h838v299h84v-381h-838v-1462z" />
    <glyph glyph-name="uni0491" unicode="&#x491;" horiz-adv-x="923" 
d="M260 0h-82v1081h592v299h82v-379h-592v-1001z" />
    <glyph glyph-name="uni0492" unicode="&#x492;" horiz-adv-x="1196" 
d="M309 0h-84v766h-268v82h268v696h922v-82h-838v-614h348v-82h-348v-766z" />
    <glyph glyph-name="uni0493" unicode="&#x493;" horiz-adv-x="913" 
d="M260 0h-82v502h-164v80h164v499h674v-80h-592v-419h279v-80h-279v-502z" />
    <glyph glyph-name="uni0496" unicode="&#x496;" horiz-adv-x="1689" 
d="M10 0l697 778l-678 766h114l660 -747v747h84v-747l659 747h115l-678 -766l696 -778v-307h-84v307h-30l-678 756v-756h-84v756l-678 -756h-115z" />
    <glyph glyph-name="uni0497" unicode="&#x497;" horiz-adv-x="1359" 
d="M119 0h-115l535 575l-482 506h119l463 -491v491h82v-491l463 491h116l-479 -503l535 -578v-307h-82v307h-33l-520 561v-561h-82v561z" />
    <glyph glyph-name="uni049A" unicode="&#x49a;" horiz-adv-x="1273" 
d="M309 0h-84v1544h84v-747l778 747h125l-800 -766l864 -778v-307h-84v307h-45l-838 756v-756z" />
    <glyph glyph-name="uni049B" unicode="&#x49b;" horiz-adv-x="970" 
d="M262 0h-82v1081h82v-508l543 508h123l-566 -528l619 -553v-307h-82v307h-45l-592 530v-530z" />
    <glyph glyph-name="uni049C" unicode="&#x49c;" horiz-adv-x="1396" 
d="M309 0h-84v1544h84v-727h82v400h78v-383l741 710h125l-800 -766l864 -778h-129l-801 723v-379h-78v391h-82v-735z" />
    <glyph glyph-name="uni049D" unicode="&#x49d;" horiz-adv-x="1085" 
d="M262 0h-82v1081h82v-489h80v326h76v-308l502 471h122l-565 -528l619 -553h-127l-551 494v-299h-76v317h-80v-512z" />
    <glyph glyph-name="uni04A2" unicode="&#x4a2;" horiz-adv-x="1574" 
d="M309 0h-84v1544h84v-682h957v682h84v-1462h104v-389h-84v307h-104v780h-957v-780z" />
    <glyph glyph-name="uni04A3" unicode="&#x4a3;" horiz-adv-x="1224" 
d="M262 0h-82v1081h82v-479h701v479h81v-1001h103v-387h-82v307h-102v522h-701v-522z" />
    <glyph glyph-name="uni04AE" unicode="&#x4ae;" horiz-adv-x="1212" 
d="M649 0h-86v594l-575 950h100l518 -854l518 854h101l-576 -950v-594z" />
    <glyph glyph-name="uni04AF" unicode="&#x4af;" horiz-adv-x="997" 
d="M541 -393h-84v473l-432 1001h92l383 -891l383 891h90l-432 -1001v-473z" />
    <glyph glyph-name="uni04B0" unicode="&#x4b0;" horiz-adv-x="1212" 
d="M649 0h-86v442h-319v82h319v70l-575 950h100l518 -854l518 854h101l-576 -950v-70h320v-82h-320v-442z" />
    <glyph glyph-name="uni04B1" unicode="&#x4b1;" horiz-adv-x="997" 
d="M541 -393h-84v393h-283v80h283l-432 1001h92l383 -891l383 891h90l-432 -1001h282v-80h-282v-393z" />
    <glyph glyph-name="uni04B2" unicode="&#x4b2;" horiz-adv-x="1224" 
d="M113 0h-105l533 784l-496 760h102l465 -710l461 710h103l-492 -758l533 -786v-307h-84v307h-21l-500 737z" />
    <glyph glyph-name="uni04B3" unicode="&#x4b3;" horiz-adv-x="966" 
d="M121 0h-101l398 553l-375 528h102l338 -477l342 477h101l-377 -528l397 -553v-307h-82v307h-20l-361 502z" />
    <glyph glyph-name="uni04B6" unicode="&#x4b6;" horiz-adv-x="1345" 
d="M141 1544h84v-553q0 -196 80 -291q37 -41 100 -60t181 -19q200 0 450 65v858h84v-1462h105v-389h-84v307h-105v600q-262 -61 -440 -61q-147 0 -225 22.5t-131 83.5q-99 111 -99 350v549z" />
    <glyph glyph-name="uni04B7" unicode="&#x4b7;" horiz-adv-x="1099" 
d="M838 0v414q-187 -43 -351 -43q-109 0 -175 15.5t-109 55.5t-60.5 100t-17.5 173v366h82v-368q0 -82 9 -128t42 -79q29 -29 82.5 -42t146.5 -13q154 0 351 45v585h82v-1001h102v-387h-82v307h-102z" />
    <glyph glyph-name="uni04B8" unicode="&#x4b8;" horiz-adv-x="1345" 
d="M141 1544h84v-553q0 -196 80 -291q24 -28 57.5 -45t77.5 -24t73 -8.5t77 -1.5v460h82v-458q151 10 364 63v858h84v-1544h-84v600q-207 -49 -364 -59v-275h-82v273q-143 0 -220 22.5t-130 83.5q-99 111 -99 350v549z" />
    <glyph glyph-name="uni04B9" unicode="&#x4b9;" horiz-adv-x="1099" 
d="M838 0v414q-148 -33 -275 -41v-226h-82v224q-106 0 -170.5 15.5t-107.5 55.5t-60.5 100t-17.5 173v366h82v-368q0 -82 9 -128t42 -79q55 -55 223 -55v426h82v-424q139 10 275 43v585h82v-1081h-82z" />
    <glyph glyph-name="uni04BA" unicode="&#x4ba;" horiz-adv-x="1380" 
d="M225 0v1544h84v-594q246 62 439 62q145 0 225.5 -24.5t134.5 -84.5q50 -57 71 -139t21 -209v-555h-84v559q0 105 -16 172.5t-58 116.5q-38 44 -102 63t-182 19q-214 0 -449 -66v-864h-84z" />
    <glyph glyph-name="uni04BB" unicode="&#x4bb;" horiz-adv-x="1171" 
d="M262 0h-82v1544h82v-543q128 57 223.5 86t184.5 29q96 0 158 -21t104 -75q37 -47 50 -120.5t13 -180.5v-719h-82v721q0 182 -49 246q-31 39 -77 54t-117 15q-49 0 -99.5 -9.5t-110.5 -31.5t-95 -36.5t-103 -45.5v-913z" />
    <glyph glyph-name="uni04C0" unicode="&#x4c0;" horiz-adv-x="534" 
d="M309 0h-84v1544h84v-1544z" />
    <glyph glyph-name="uni04D8" unicode="&#x4d8;" horiz-adv-x="1437" 
d="M182 782h1002q0 347 -82 504q-62 117 -153.5 164t-248.5 47q-74 0 -166 -13t-151.5 -25.5t-165.5 -37.5v84q307 74 473 74q128 0 219.5 -27t149 -74.5t104.5 -123.5q107 -177 107 -609q0 -309 -80 -487q-66 -149 -184.5 -221t-300.5 -72q-156 0 -260.5 37.5t-176.5 124.5
q-104 128 -104 387q0 142 18 268zM260 700q-10 -78 -10 -174q0 -223 74 -329q58 -82 149 -116t229 -34q309 0 416 260q29 69 47.5 175t18.5 218h-924z" />
    <glyph glyph-name="uni04D9" unicode="&#x4d9;" horiz-adv-x="1134" 
d="M186 1075q200 41 338 41q167 0 259.5 -44.5t144.5 -137.5q38 -68 53.5 -158t15.5 -233q0 -121 -13 -211.5t-52 -169.5q-96 -197 -385 -197q-271 0 -371 193q-45 88 -45 217q0 85 21 205h763q0 200 -53 299q-43 83 -121.5 120t-216.5 37q-112 0 -338 -43v82zM915 500h-690
q-10 -58 -10 -125q0 -122 39 -189q80 -141 293 -141q239 0 317 164q51 105 51 291z" />
    <glyph glyph-name="uni04E2" unicode="&#x4e2;" horiz-adv-x="1589" 
d="M225 0v1544h84v-1452l930 1452h125v-1544h-84v1452l-930 -1452h-125zM1069 1733h-547v82h547v-82z" />
    <glyph glyph-name="uni04E3" unicode="&#x4e3;" horiz-adv-x="1255" 
d="M993 0v999l-686 -999h-127v1081h82v-999l686 999h127v-1081h-82zM901 1331h-547v82h547v-82z" />
    <glyph glyph-name="uni04E8" unicode="&#x4e8;" horiz-adv-x="1587" 
d="M793 1579q179 0 299 -50.5t196 -158.5q67 -95 99 -261t32 -335q0 -150 -27.5 -313.5t-93.5 -265.5q-81 -124 -206 -177t-299 -53q-200 0 -328.5 55t-194.5 168q-102 171 -102 586q0 383 84 537q145 268 541 268zM254 821h1079q0 135 -27 268.5t-77 215.5
q-65 103 -173 147.5t-263 44.5q-349 0 -465 -227q-36 -72 -55 -197t-19 -252zM1333 739h-1079q0 -139 20.5 -279t63.5 -216q34 -59 82.5 -99.5t109.5 -61t122.5 -28.5t140.5 -8q139 0 237.5 35.5t171.5 124.5q66 81 98.5 228t32.5 304z" />
    <glyph glyph-name="uni04E9" unicode="&#x4e9;" horiz-adv-x="1167" 
d="M584 1116q125 0 207 -32.5t139 -108.5q100 -136 100 -430q0 -118 -18 -220.5t-49 -162.5q-96 -197 -379 -197q-138 0 -222.5 37.5t-138.5 122.5q-41 65 -63.5 177t-22.5 233q0 224 45 337q46 120 139.5 182t262.5 62zM584 1036q-123 0 -197 -40.5t-117 -129.5
q-45 -95 -49 -280h725q-3 193 -57 295q-44 87 -116.5 121t-188.5 34zM946 506h-725q7 -218 66 -324q45 -78 114 -107.5t183 -29.5q215 0 293 133q62 107 69 328z" />
    <glyph glyph-name="uni04EE" unicode="&#x4ee;" horiz-adv-x="1175" 
d="M403 0h-96l246 492l-545 1052h96l496 -960l475 960h96zM862 1733h-547v82h547v-82z" />
    <glyph glyph-name="uni04EF" unicode="&#x4ef;" horiz-adv-x="997" 
d="M375 -393h-90l168 413l-424 1061h90l379 -948l383 948h88zM772 1331h-547v82h547v-82z" />
    <glyph glyph-name="Wgrave" unicode="&#x1e80;" horiz-adv-x="1810" 
d="M539 0h-136l-325 1544h86l309 -1470l371 1237h123l370 -1237l310 1470h86l-326 -1544h-135l-367 1227zM987 1675h-113l-227 271h115z" />
    <glyph glyph-name="wgrave" unicode="&#x1e81;" horiz-adv-x="1540" 
d="M467 0h-117l-309 1081h86l283 -991l299 991h122l299 -991l283 991h86l-309 -1081h-117l-303 1006zM881 1274h-113l-227 270h114z" />
    <glyph glyph-name="Wacute" unicode="&#x1e82;" horiz-adv-x="1810" 
d="M539 0h-136l-325 1544h86l309 -1470l371 1237h123l370 -1237l310 1470h86l-326 -1544h-135l-367 1227zM893 1675h-115l234 271h116z" />
    <glyph glyph-name="wacute" unicode="&#x1e83;" horiz-adv-x="1540" 
d="M467 0h-117l-309 1081h86l283 -991l299 991h122l299 -991l283 991h86l-309 -1081h-117l-303 1006zM776 1274h-114l233 270h117z" />
    <glyph glyph-name="Wdieresis" unicode="&#x1e84;" horiz-adv-x="1810" 
d="M539 0h-136l-325 1544h86l309 -1470l371 1237h123l370 -1237l310 1470h86l-326 -1544h-135l-367 1227zM784 1688h-88v258h88v-258zM1116 1688h-88v258h88v-258z" />
    <glyph glyph-name="wdieresis" unicode="&#x1e85;" horiz-adv-x="1540" 
d="M467 0h-117l-309 1081h86l283 -991l299 991h122l299 -991l283 991h86l-309 -1081h-117l-303 1006zM649 1286h-88v258h88v-258zM981 1286h-88v258h88v-258z" />
    <glyph glyph-name="Germandbls" unicode="&#x1e9e;" horiz-adv-x="1523" 
d="M301 0h-84v768q0 126 1.5 188t7.5 149t21.5 146.5t41.5 108.5q62 118 178.5 168.5t327.5 50.5q215 0 508 -84v-86l-322 -571l119 -60q104 -53 158 -91t92 -91q59 -82 59 -223q0 -177 -113 -287q-67 -65 -166.5 -93t-242.5 -28q-114 0 -330 37v84q198 -39 330 -39
q117 0 190.5 17t134.5 61q56 42 83.5 109t27.5 143q0 114 -49 178q-53 68 -209 145l-199 99l355 633q-236 65 -426 65q-85 0 -147 -7t-121.5 -27t-102 -59t-70.5 -99q-34 -75 -43.5 -192t-9.5 -320v-793z" />
    <glyph glyph-name="uni1EA0" unicode="&#x1ea0;" horiz-adv-x="1378" 
d="M133 0h-90l590 1544h108l594 -1544h-92l-170 440h-772zM332 522h710l-356 932zM735 -393h-90v258h90v-258z" />
    <glyph glyph-name="uni1EA1" unicode="&#x1ea1;" horiz-adv-x="1167" 
d="M987 0h-82v199q-59 -53 -133 -113q-77 -62 -141.5 -91.5t-143.5 -29.5t-136.5 23.5t-89.5 58.5t-60 90q-31 62 -47.5 174.5t-16.5 239.5q0 268 84 397q63 96 150.5 132t212.5 36q56 0 129 -17.5t124.5 -35.5t149.5 -55v-1008zM905 305v647q-77 29 -115 42.5t-99.5 27.5
t-112.5 14q-107 0 -177.5 -33t-113.5 -108q-32 -56 -49 -149.5t-17 -194.5q0 -258 49 -365q35 -74 84.5 -107.5t132.5 -33.5q100 0 218 92q123 97 200 168zM602 -393h-90v258h90v-258z" />
    <glyph glyph-name="uni1EB8" unicode="&#x1eb8;" horiz-adv-x="1333" 
d="M1249 0h-1024v1544h992v-82h-908v-631h862v-81h-862v-668h940v-82zM766 -393h-90v258h90v-258z" />
    <glyph glyph-name="uni1EB9" unicode="&#x1eb9;" horiz-adv-x="1134" 
d="M948 6q-200 -41 -338 -41q-167 0 -259 44.5t-144 137.5q-38 68 -54 159t-16 233q0 120 13.5 211t52.5 170q95 196 385 196q270 0 370 -192q46 -90 46 -217q0 -85 -21 -205h-764q0 -200 53 -299q43 -84 122 -121t216 -37q112 0 338 43v-82zM219 582h690q11 64 11 125
q0 121 -39 188q-80 141 -293 141q-240 0 -318 -164q-26 -53 -38.5 -134.5t-12.5 -155.5zM608 -393h-90v258h90v-258z" />
    <glyph glyph-name="uni1EBC" unicode="&#x1ebc;" horiz-adv-x="1333" 
d="M1249 0h-1024v1544h992v-82h-908v-631h862v-81h-862v-668h940v-82zM469 1700h-88q47 124 92 169.5t117 45.5q40 0 74 -15t84 -57q47 -40 73.5 -55.5t57.5 -15.5q21 0 37.5 7t27 15t22 29t17 34t18.5 44h91q-17 -39 -25.5 -58t-24.5 -49t-29.5 -44t-34 -30t-45.5 -22
t-56 -6q-42 0 -74.5 12.5t-69.5 44.5q-52 47 -82.5 66.5t-60.5 19.5q-24 0 -43 -10t-34 -33.5t-22.5 -40t-21.5 -51.5z" />
    <glyph glyph-name="uni1EBD" unicode="&#x1ebd;" horiz-adv-x="1134" 
d="M948 6q-200 -41 -338 -41q-167 0 -259 44.5t-144 137.5q-38 68 -54 159t-16 233q0 120 13.5 211t52.5 170q95 196 385 196q270 0 370 -192q46 -90 46 -217q0 -85 -21 -205h-764q0 -200 53 -299q43 -84 122 -121t216 -37q112 0 338 43v-82zM219 582h690q11 64 11 125
q0 121 -39 188q-80 141 -293 141q-240 0 -318 -164q-26 -53 -38.5 -134.5t-12.5 -155.5zM317 1298h-88q47 124 92 169.5t117 45.5q40 0 74.5 -15t83.5 -56q48 -41 74 -56.5t57 -15.5q49 0 72 29t51 100h90q-17 -39 -25.5 -58t-24.5 -49t-29.5 -44t-34 -30t-45.5 -22t-56 -6
q-41 0 -73.5 12.5t-69.5 45.5q-52 47 -83 66.5t-61 19.5q-20 0 -36.5 -8.5t-27.5 -19t-23 -32.5t-17.5 -35t-16.5 -41z" />
    <glyph glyph-name="uni1ECA" unicode="&#x1eca;" horiz-adv-x="534" 
d="M309 0h-84v1544h84v-1544zM313 -393h-90v258h90v-258z" />
    <glyph glyph-name="uni1ECB" unicode="&#x1ecb;" horiz-adv-x="442" 
d="M262 0h-82v1081h82v-1081zM266 1286h-90v258h90v-258zM268 -393h-90v258h90v-258z" />
    <glyph glyph-name="uni1ECC" unicode="&#x1ecc;" horiz-adv-x="1587" 
d="M793 1579q179 0 299 -50.5t196 -158.5q67 -95 99 -261t32 -335q0 -150 -27.5 -313.5t-93.5 -265.5q-81 -124 -206 -177t-299 -53q-200 0 -328.5 55t-194.5 168q-102 171 -102 586q0 383 84 537q145 268 541 268zM793 1497q-349 0 -465 -227q-74 -147 -74 -496
q0 -152 19 -301t65 -229q34 -59 82.5 -99.5t109.5 -61t122.5 -28.5t140.5 -8q139 0 237 35.5t172 124.5q68 84 99.5 239.5t31.5 327.5q0 154 -25.5 299t-78.5 232q-65 103 -173 147.5t-263 44.5zM840 -393h-90v258h90v-258z" />
    <glyph glyph-name="uni1ECD" unicode="&#x1ecd;" horiz-adv-x="1167" 
d="M584 1116q125 0 207 -32.5t139 -108.5q100 -136 100 -430q0 -118 -18 -220.5t-49 -162.5q-96 -197 -379 -197q-138 0 -222.5 37.5t-138.5 122.5q-41 65 -63.5 177t-22.5 233q0 224 45 337q46 120 139.5 182t262.5 62zM584 1036q-123 0 -197 -40.5t-117 -129.5
q-49 -106 -49 -329q0 -106 17.5 -203t48.5 -152q45 -78 114 -107.5t183 -29.5q215 0 293 133q69 120 69 369q0 222 -57 334q-44 87 -116.5 121t-188.5 34zM631 -393h-90v258h90v-258z" />
    <glyph glyph-name="uni1EE4" unicode="&#x1ee4;" horiz-adv-x="1513" 
d="M217 1544h84v-969q0 -181 23 -279.5t94 -160.5q57 -50 138.5 -69t203.5 -19t201.5 19t138.5 69q70 60 91 157.5t21 282.5v969h84v-971q0 -210 -28 -322t-119 -185q-67 -54 -160.5 -77.5t-228.5 -23.5q-136 0 -229.5 23.5t-163.5 79.5q-87 67 -118.5 184t-31.5 321v971z
M805 -393h-90v258h90v-258z" />
    <glyph glyph-name="uni1EE5" unicode="&#x1ee5;" horiz-adv-x="1153" 
d="M973 49q-112 -32 -166 -46t-132 -26t-153 -12q-109 0 -175.5 22t-108.5 79q-37 50 -49.5 131t-12.5 202v682h82v-684q0 -70 2 -111.5t12.5 -89t30.5 -75.5q30 -42 78 -59t135 -17q73 0 148 11.5t116 22.5t111 32v970h82v-1032zM621 -393h-91v258h91v-258z" />
    <glyph glyph-name="Ygrave" unicode="&#x1ef2;" horiz-adv-x="1212" 
d="M649 0h-86v594l-575 950h100l518 -854l518 854h101l-576 -950v-594zM717 1675h-113l-227 271h115z" />
    <glyph glyph-name="ygrave" unicode="&#x1ef3;" horiz-adv-x="997" 
d="M375 -393h-90l168 413l-424 1061h90l379 -948l383 948h88zM608 1274h-112l-228 270h115z" />
    <glyph glyph-name="uni1EF8" unicode="&#x1ef8;" horiz-adv-x="1212" 
d="M649 0h-86v594l-575 950h100l518 -854l518 854h101l-576 -950v-594zM350 1700h-88q47 124 92 169.5t117 45.5q40 0 74 -15t84 -57q47 -40 73.5 -55.5t57.5 -15.5q49 0 72 29t51 100h90q-17 -39 -25.5 -58t-24.5 -49t-29.5 -44t-34 -30t-45.5 -22t-56 -6q-42 0 -74.5 12.5
t-69.5 44.5q-52 47 -82.5 66.5t-60.5 19.5q-24 0 -43 -10t-34 -33.5t-22.5 -40t-21.5 -51.5z" />
    <glyph glyph-name="uni1EF9" unicode="&#x1ef9;" horiz-adv-x="997" 
d="M375 -393h-90l168 413l-424 1061h90l379 -948l383 948h88zM252 1298h-88q47 124 92 169.5t117 45.5q40 0 74 -15t83 -56q47 -40 74 -56t58 -16q21 0 37.5 7t27 15t22 29t17 34t18.5 44h90q-17 -39 -25.5 -58t-24.5 -49t-29.5 -44t-34 -30t-45.5 -22t-56 -6
q-41 0 -73.5 12.5t-69.5 45.5q-52 47 -82.5 66.5t-60.5 19.5q-20 0 -36.5 -8.5t-27.5 -19t-23 -32.5t-17.5 -35t-16.5 -41z" />
    <glyph glyph-name="uni200A" unicode="&#x200a;" horiz-adv-x="284" 
 />
    <glyph glyph-name="figuredash" unicode="&#x2012;" horiz-adv-x="1331" 
d="M1137 731h-942v82h942v-82z" />
    <glyph glyph-name="endash" unicode="&#x2013;" horiz-adv-x="1228" 
d="M1126 500h-1024v82h1024v-82z" />
    <glyph glyph-name="emdash" unicode="&#x2014;" horiz-adv-x="2048" 
d="M2048 500h-2048v82h2048v-82z" />
    <glyph glyph-name="emdash" unicode="&#x2015;" horiz-adv-x="2048" 
d="M2048 500h-2048v82h2048v-82z" />
    <glyph glyph-name="quoteleft" unicode="&#x2018;" horiz-adv-x="509" 
d="M291 948h-98v203q0 200 75 393h80q-30 -118 -43.5 -214.5t-13.5 -258.5v-123z" />
    <glyph glyph-name="quoteright" unicode="&#x2019;" horiz-adv-x="509" 
d="M242 948h-80q21 84 30.5 133.5t18 138.5t8.5 201v123h98v-203q0 -200 -75 -393z" />
    <glyph glyph-name="quotesinglbase" unicode="&#x201a;" horiz-adv-x="509" 
d="M242 -346h-80q30 118 43.5 214.5t13.5 258.5v123h98v-203q0 -200 -75 -393z" />
    <glyph glyph-name="quotedblleft" unicode="&#x201c;" horiz-adv-x="776" 
d="M557 948h-98v203q0 197 76 393h79q-21 -84 -30.5 -133.5t-18 -138.5t-8.5 -201v-123zM291 948h-98v203q0 200 75 393h80q-30 -118 -43.5 -214.5t-13.5 -258.5v-123z" />
    <glyph glyph-name="quotedblright" unicode="&#x201d;" horiz-adv-x="776" 
d="M242 948h-80q21 84 30.5 133.5t18 138.5t8.5 201v123h98v-203q0 -200 -75 -393zM508 948h-80q30 118 43.5 214.5t13.5 258.5v123h99v-203q0 -197 -76 -393z" />
    <glyph glyph-name="quotedblbase" unicode="&#x201e;" horiz-adv-x="776" 
d="M242 -346h-80q21 84 30.5 133.5t18 138.5t8.5 201v123h98v-203q0 -200 -75 -393zM508 -346h-80q30 118 43.5 214.5t13.5 258.5v123h99v-203q0 -197 -76 -393z" />
    <glyph glyph-name="dagger" unicode="&#x2020;" horiz-adv-x="1157" 
d="M621 -197h-84v1196h-394v82h394v463h84v-463h393v-82h-393v-1196z" />
    <glyph glyph-name="daggerdbl" unicode="&#x2021;" horiz-adv-x="1157" 
d="M621 -197h-84v467h-394v82h394v647h-394v82h394v463h84v-463h393v-82h-393v-647h393v-82h-393v-467z" />
    <glyph glyph-name="bullet" unicode="&#x2022;" horiz-adv-x="919" 
d="M461 530q-129 0 -190.5 60.5t-61.5 181.5t61.5 181.5t190.5 60.5q250 0 250 -240q0 -123 -61 -183.5t-189 -60.5z" />
    <glyph glyph-name="ellipsis" unicode="&#x2026;" horiz-adv-x="1640" 
d="M305 0h-121v258h121v-258zM881 0h-121v258h121v-258zM1456 0h-121v258h121v-258z" />
    <glyph glyph-name="perthousand" unicode="&#x2030;" horiz-adv-x="2869" 
d="M2404 881q167 0 242 -115q38 -57 48.5 -135t10.5 -211q0 -119 -13 -197.5t-48 -130.5q-75 -115 -240 -115q-156 0 -227 86q-39 48 -55.5 128t-16.5 229q0 150 10.5 226.5t47.5 129.5q75 105 241 105zM2400 801q-112 0 -164 -64q-34 -42 -41.5 -105.5t-7.5 -211.5
q0 -113 9 -183t36 -112q26 -38 65.5 -53t106.5 -15q128 0 179 93q25 45 32.5 107t7.5 163q0 124 -9 191.5t-38 111.5q-54 78 -176 78zM1599 881q167 0 242 -115q38 -58 49 -136t11 -210q0 -118 -13.5 -196.5t-48.5 -131.5q-75 -115 -240 -115q-156 0 -227 86
q-39 48 -55.5 128t-16.5 229q0 150 10.5 226.5t47.5 129.5q75 105 241 105zM1595 801q-111 0 -163 -64q-34 -42 -42 -106.5t-8 -210.5q0 -113 9 -183t36 -112q26 -38 65.5 -53t106.5 -15q128 0 179 93q25 45 33 108t8 162q0 124 -9 191.5t-38 111.5q-54 78 -177 78zM725 0
h-90l729 1544h90zM463 1567q167 0 242 -115q38 -57 48.5 -135t10.5 -211q0 -118 -13.5 -196.5t-48.5 -131.5q-74 -114 -239 -114q-156 0 -227 86q-39 48 -55.5 128t-16.5 228q0 151 10 227t47 129q75 105 242 105zM459 1487q-112 0 -164 -64q-34 -42 -41.5 -105.5
t-7.5 -211.5q0 -113 9 -183t36 -112q26 -38 65.5 -53t106.5 -15q127 0 178 93q25 45 33 108t8 162q0 124 -9 191.5t-38 111.5q-54 78 -176 78z" />
    <glyph glyph-name="guilsinglleft" unicode="&#x2039;" horiz-adv-x="647" 
d="M485 119l-344 422l344 422h113l-344 -422l344 -422h-113z" />
    <glyph glyph-name="guilsinglright" unicode="&#x203a;" horiz-adv-x="647" 
d="M49 119l344 422l-344 422h113l344 -422l-344 -422h-113z" />
    <glyph glyph-name="fraction" unicode="&#x2044;" horiz-adv-x="280" 
d="M-170 0h-90l729 1544h90z" />
    <glyph glyph-name="uni2070" unicode="&#x2070;" horiz-adv-x="878" 
d="M438 1567q167 0 242 -115q38 -57 48.5 -135t10.5 -211q0 -119 -13 -197.5t-48 -130.5q-74 -114 -240 -114q-156 0 -227 86q-39 48 -55.5 128t-16.5 228q0 150 10.5 226.5t47.5 129.5q75 105 241 105zM434 1487q-112 0 -164 -64q-34 -42 -41.5 -105.5t-7.5 -211.5
q0 -113 9 -183t36 -112q26 -38 65.5 -53t106.5 -15q127 0 178 93q25 45 33 108t8 162q0 124 -9 191.5t-38 111.5q-54 78 -176 78z" />
    <glyph glyph-name="uni2071" unicode="&#x2071;" horiz-adv-x="436" 
d="M260 686h-84v641h84v-641zM264 1475h-92v213h92v-213z" />
    <glyph glyph-name="uni2074" unicode="&#x2074;" horiz-adv-x="794" 
d="M627 686h-82v201h-482v86l424 571h105l-426 -575h379v198h82v-481z" />
    <glyph glyph-name="uni2075" unicode="&#x2075;" horiz-adv-x="831" 
d="M154 688v82q157 -27 237 -27q74 0 119 14.5t72 49.5q32 41 32 127q0 81 -51 117q-35 25 -96 35t-178 10h-121v448h491v-82h-409v-286h98q160 0 234 -41q55 -29 84.5 -81.5t29.5 -119.5q0 -121 -59 -189q-39 -45 -98.5 -63t-147.5 -18q-95 0 -237 24z" />
    <glyph glyph-name="uni2076" unicode="&#x2076;" horiz-adv-x="864" 
d="M674 1485q-99 -19 -187 -53t-141 -74q-88 -66 -108 -178q123 6 221 6q152 0 219 -76q57 -62 57 -176q0 -100 -57 -172q-79 -98 -242 -98q-153 0 -233 96q-64 78 -64 211q0 171 30 273t120 173q70 56 161.5 90.5t223.5 61.5v-84zM225 1100q-4 -35 -4 -123q0 -113 49 -170
q54 -64 166 -64q114 0 170 62q47 47 47 129q0 73 -28 113q-43 59 -166 59q-129 0 -234 -6z" />
    <glyph glyph-name="uni2077" unicode="&#x2077;" horiz-adv-x="688" 
d="M219 686h-96l424 776h-527v82h619v-88z" />
    <glyph glyph-name="uni2078" unicode="&#x2078;" horiz-adv-x="968" 
d="M305 1122q-47 23 -72 60q-36 53 -36 157q0 114 79 172q74 56 211 56q129 0 209 -58q76 -56 76 -170q0 -78 -49 -145q-17 -23 -74 -80q62 -20 99 -57q59 -59 59 -152q0 -102 -70 -166q-39 -36 -106.5 -55.5t-145.5 -19.5q-160 0 -243 59q-80 58 -80 182q0 51 16 87t51 69
q42 40 76 61zM383 1094q-43 -31 -92 -80q-47 -47 -47 -109q0 -91 59 -125q64 -37 182 -37q119 0 181 43q59 39 59 119q0 50 -24.5 81t-84.5 54q-69 26 -233 54zM565 1139q32 28 80 88q45 55 45 112q0 72 -45 107q-50 41 -158 41q-107 0 -157 -37q-23 -15 -37 -45.5
t-14 -65.5q0 -64 15 -96t54 -51q49 -23 217 -53z" />
    <glyph glyph-name="uni2079" unicode="&#x2079;" horiz-adv-x="864" 
d="M162 690v82q141 -29 244 -29q95 0 157 56q47 41 66 119q14 63 14 118q-148 -20 -240 -20q-83 0 -133 15.5t-86 53.5q-55 58 -55 193q0 112 43 178q34 49 96 80t148 31q78 0 139.5 -27.5t97.5 -75.5q72 -95 72 -340q0 -156 -14 -217q-22 -99 -80 -157q-86 -86 -234 -86
q-98 0 -235 26zM643 1118q0 224 -55 297q-53 72 -172 72q-105 0 -162 -60q-43 -45 -43 -151q0 -98 33 -133q41 -47 147 -47q129 0 252 22z" />
    <glyph glyph-name="uni207A" unicode="&#x207a;" horiz-adv-x="1150" 
d="M616 686h-81v389h-373v80h373v389h81v-389h373v-80h-373v-389z" />
    <glyph glyph-name="uni207B" unicode="&#x207b;" horiz-adv-x="1150" 
d="M989 1075h-827v80h827v-80z" />
    <glyph glyph-name="uni207C" unicode="&#x207c;" horiz-adv-x="1150" 
d="M989 895h-827v80h827v-80zM989 1255h-827v80h827v-80z" />
    <glyph glyph-name="uni207D" unicode="&#x207d;" horiz-adv-x="532" 
d="M477 449q-157 42 -241 169q-32 48 -48 110.5t-19 107.5t-3 118v322q0 73 3 118t19 107.5t48 110.5q85 128 241 170v-84q-65 -27 -102.5 -55.5t-69.5 -77.5q-57 -88 -57 -308v-284q0 -219 57 -307q31 -48 69.5 -78t102.5 -56v-83z" />
    <glyph glyph-name="uni207E" unicode="&#x207e;" horiz-adv-x="532" 
d="M55 449v83q64 26 102.5 56t69.5 78q58 90 58 307v284q0 218 -58 308q-32 49 -69.5 77.5t-102.5 55.5v84q158 -42 242 -170q32 -48 48 -110.5t19 -107.5t3 -118v-322q0 -73 -3 -118t-19 -107.5t-48 -110.5q-84 -126 -242 -169z" />
    <glyph glyph-name="uni207F" unicode="&#x207f;" horiz-adv-x="897" 
d="M256 686h-84v641h84v-57q167 73 260 73q112 0 166 -63q45 -52 45 -174v-420h-84v395q0 105 -27 140q-33 41 -100 41q-101 0 -260 -78v-498z" />
    <glyph glyph-name="uni2080" unicode="&#x2080;" horiz-adv-x="878" 
d="M438 614q167 0 242 -114q38 -57 48.5 -135t10.5 -211q0 -119 -13 -197.5t-48 -130.5q-75 -115 -240 -115q-156 0 -227 86q-39 48 -55.5 128t-16.5 229q0 150 10.5 226.5t47.5 129.5q74 104 241 104zM434 535q-112 0 -164 -64q-34 -42 -41.5 -105.5t-7.5 -211.5
q0 -113 9 -183t36 -112q26 -38 65.5 -53t106.5 -15q128 0 178 92q25 45 33 108t8 163q0 124 -9 191.5t-38 111.5q-54 78 -176 78z" />
    <glyph glyph-name="uni2081" unicode="&#x2081;" horiz-adv-x="552" 
d="M381 -266h-82v772l-240 -76v86l322 102v-884z" />
    <glyph glyph-name="uni2082" unicode="&#x2082;" horiz-adv-x="776" 
d="M680 -266h-598v96q269 262 395 401q76 84 76 166q0 64 -31 95q-40 43 -123 43q-108 0 -288 -46v82q176 43 280 43q129 0 193 -67q51 -54 51 -152q0 -64 -23 -114.5t-80 -112.5q-174 -190 -354 -352h502v-82z" />
    <glyph glyph-name="uni2083" unicode="&#x2083;" horiz-adv-x="839" 
d="M117 -258v82q187 -33 260 -33q98 0 155 37q29 19 46.5 54.5t17.5 78.5q0 50 -18 83.5t-60 57.5q-42 23 -129 23h-188v80h293l36 49q58 79 58 141q0 71 -41 101q-49 39 -148 39q-100 0 -276 -43v81q181 41 276 41q137 0 207 -61q29 -24 47.5 -65.5t18.5 -90.5
q0 -69 -51 -143q-12 -18 -60 -82q55 -33 72 -57q47 -57 47 -148q0 -110 -70 -180q-76 -76 -233 -76q-83 0 -260 31z" />
    <glyph glyph-name="uni2084" unicode="&#x2084;" horiz-adv-x="794" 
d="M627 -266h-82v200h-482v86l424 572h105l-426 -576h379v199h82v-481z" />
    <glyph glyph-name="uni2085" unicode="&#x2085;" horiz-adv-x="831" 
d="M154 -264v82q158 -27 237 -27q74 0 119 14.5t72 49.5q32 41 32 127q0 80 -51 116q-35 25 -96 35t-178 10h-121v449h491v-82h-409v-287h98q160 0 234 -41q55 -29 84.5 -81t29.5 -119q0 -121 -59 -189q-40 -45 -99 -63.5t-147 -18.5q-89 0 -237 25z" />
    <glyph glyph-name="uni2086" unicode="&#x2086;" horiz-adv-x="864" 
d="M674 532q-100 -19 -188 -52.5t-140 -73.5q-88 -65 -108 -179q123 6 221 6q152 0 219 -75q57 -62 57 -176q0 -100 -57 -172q-80 -99 -242 -99q-153 0 -233 96q-64 78 -64 211q0 171 30 273.5t120 173.5q70 56 161 90t224 61v-84zM225 147q-4 -35 -4 -122q0 -113 49 -170
q54 -64 166 -64q114 0 170 62q47 47 47 129q0 72 -28 112q-44 60 -166 60q-112 0 -234 -7z" />
    <glyph glyph-name="uni2087" unicode="&#x2087;" horiz-adv-x="688" 
d="M219 -266h-96l424 776h-527v82h619v-88z" />
    <glyph glyph-name="uni2088" unicode="&#x2088;" horiz-adv-x="968" 
d="M305 170q-48 23 -72 59q-36 53 -36 158q0 114 79 172q73 55 211 55q131 0 209 -57q76 -56 76 -170q0 -78 -49 -145q-17 -23 -74 -80q61 -20 99 -58q59 -59 59 -151q0 -102 -70 -166q-39 -36 -106.5 -56t-145.5 -20q-158 0 -243 60q-80 58 -80 182q0 51 16 87t51 69
q42 40 76 61zM383 141q-43 -31 -92 -80q-47 -47 -47 -108q0 -91 59 -125q64 -37 182 -37q119 0 181 43q59 39 59 119q0 50 -24.5 81t-84.5 54q-64 24 -233 53zM565 186q32 28 80 88q45 55 45 113q0 72 -45 107q-50 41 -158 41q-107 0 -157 -37q-23 -15 -37 -45.5t-14 -65.5
q0 -64 15 -96t54 -51q53 -25 217 -54z" />
    <glyph glyph-name="uni2089" unicode="&#x2089;" horiz-adv-x="864" 
d="M162 -262v82q141 -29 244 -29q96 0 157 55q47 41 66 119q14 63 14 119q-155 -21 -240 -21q-82 0 -132 16t-87 54q-55 58 -55 193q0 112 43 178q34 49 95.5 79.5t148.5 30.5q78 0 139.5 -27t97.5 -75q72 -95 72 -340q0 -156 -14 -217q-22 -100 -80 -158q-86 -86 -234 -86
q-92 0 -235 27zM643 166q0 224 -55 297q-53 72 -172 72q-105 0 -162 -60q-43 -45 -43 -151q0 -99 33 -134q41 -47 147 -47q124 0 252 23z" />
    <glyph glyph-name="uni208A" unicode="&#x208a;" horiz-adv-x="1150" 
d="M616 -266h-81v389h-373v80h373v389h81v-389h373v-80h-373v-389z" />
    <glyph glyph-name="uni208B" unicode="&#x208b;" horiz-adv-x="1150" 
d="M989 123h-827v80h827v-80z" />
    <glyph glyph-name="uni208C" unicode="&#x208c;" horiz-adv-x="1150" 
d="M989 -57h-827v80h827v-80zM989 303h-827v80h827v-80z" />
    <glyph glyph-name="uni208D" unicode="&#x208d;" horiz-adv-x="532" 
d="M477 -504q-156 42 -241 170q-32 48 -48 110.5t-19 107.5t-3 118v322q0 73 3 117.5t19 107t48 110.5q85 128 241 170v-84q-65 -27 -102.5 -55.5t-69.5 -77.5q-57 -88 -57 -307v-285q0 -219 57 -307q31 -47 69.5 -77t102.5 -56v-84z" />
    <glyph glyph-name="uni208E" unicode="&#x208e;" horiz-adv-x="532" 
d="M55 -504v84q64 26 102.5 56t69.5 77q58 90 58 307v285q0 217 -58 307q-32 49 -69.5 77.5t-102.5 55.5v84q158 -42 242 -170q32 -48 48 -110.5t19 -107t3 -117.5v-322q0 -73 -3 -118t-19 -107.5t-48 -110.5q-84 -128 -242 -170z" />
    <glyph glyph-name="uni2093" unicode="&#x2093;" horiz-adv-x="731" 
d="M164 -266h-98l249 329l-241 312h102l186 -244l187 244h98l-235 -305l256 -336h-101l-202 264z" />
    <glyph glyph-name="Euro" unicode="&#x20ac;" horiz-adv-x="1331" 
d="M1198 6q-285 -41 -453 -41q-210 0 -320 72.5t-171 230.5q-64 167 -64 516q0 201 23.5 335.5t77.5 228.5q66 116 178 171.5t293 55.5q183 0 436 -57v-84q-260 59 -436 59q-157 0 -255 -48.5t-155 -162.5q-29 -58 -49.5 -158t-23.5 -182h710v-82h-713q-2 -27 -2 -76
q0 -44 2 -77h713v-82h-708q3 -88 19 -183.5t36 -146.5q32 -83 77.5 -135.5t125 -82.5t194.5 -30q198 0 465 43v-84z" />
    <glyph glyph-name="uni20BA" unicode="&#x20ba;" horiz-adv-x="1331" 
d="M256 -33v1577h82v-516l690 217v-86l-690 -217v-162l690 217v-86l-690 -217v-647q221 0 346.5 31t204.5 106q50 47 84 130.5t45 148t14 119.5h84q-4 -111 -36 -229t-107 -203q-43 -48 -87.5 -79t-116.5 -56.5t-178 -37.5t-255 -12q-45 0 -80 2z" />
    <glyph glyph-name="uni20BD" unicode="&#x20bd;" horiz-adv-x="1331" 
d="M338 0h-84v1544h500q129 0 208 -28t136 -89q49 -52 77.5 -140.5t28.5 -180.5q0 -229 -84 -344q-46 -64 -118 -97t-177 -44q-124 -11 -487 -11v-153h635v-82h-635v-375zM338 692q368 0 479 10q90 10 149.5 39.5t96.5 89.5q55 87 55 275q0 85 -26 160.5t-72 119.5
q-45 42 -110.5 59t-161.5 17h-410v-770z" />
    <glyph glyph-name="uni2103" unicode="&#x2103;" horiz-adv-x="2193" 
d="M469 1579q156 0 247 -89t91 -245t-91 -247t-247 -91q-154 0 -245 91t-91 247t90.5 245t245.5 89zM469 1497q-121 0 -186.5 -65.5t-65.5 -186.5t65.5 -188.5t186.5 -67.5q120 0 187 68t67 188q0 121 -66.5 186.5t-187.5 65.5zM2050 25q-141 -31 -239.5 -45.5t-206.5 -14.5
q-200 0 -317.5 71.5t-178.5 225.5q-33 83 -50.5 221t-17.5 285q0 404 105 588q47 81 104.5 128.5t144 71t214.5 23.5q107 0 256 -29q65 -12 186 -45v-84q-109 30 -219 52q-120 24 -223 24q-159 0 -251 -45.5t-149 -161.5q-41 -81 -61.5 -223.5t-20.5 -300.5q0 -312 62 -471
q48 -127 147.5 -187.5t268.5 -60.5q108 0 203.5 15.5t242.5 48.5v-86z" />
    <glyph glyph-name="uni2109" unicode="&#x2109;" horiz-adv-x="2172" 
d="M469 1579q156 0 247 -89t91 -245t-91 -247t-247 -91q-154 0 -245 91t-91 247t90.5 245t245.5 89zM469 1497q-121 0 -186.5 -65.5t-65.5 -186.5t65.5 -188.5t186.5 -67.5q120 0 187 68t67 188q0 121 -66.5 186.5t-187.5 65.5zM1188 0h-84v1544h999v-82h-915v-655h852v-82
h-852v-725z" />
    <glyph glyph-name="uni2113" unicode="&#x2113;" horiz-adv-x="806" 
d="M688 18q-148 -53 -254 -53q-73 0 -126.5 14.5t-82.5 59.5q-31 49 -38 125.5t-7 251.5v659q0 179 10.5 268t45.5 144q33 52 78 72t108 20q107 0 164 -70q35 -42 50 -101t15 -159q0 -142 -84 -324t-305 -479v-75q0 -160 6.5 -209.5t34.5 -79.5q31 -35 131 -35q97 0 254 59
v-88zM262 582q47 67 71.5 103.5t67 104t66.5 116t50 110t38 119t12 112.5q0 142 -26 185q-38 67 -117 67q-88 0 -123 -63q-39 -67 -39 -297v-557z" />
    <glyph glyph-name="uni2116" unicode="&#x2116;" horiz-adv-x="2332" 
d="M309 0h-84v1544h127l887 -1452v1452h84v-1544h-127l-887 1452v-1452zM1901 1579q95 0 156 -25t104 -81q82 -106 82 -320q0 -186 -64 -289q-86 -137 -278 -137q-105 0 -173 30t-108 93q-31 49 -48.5 131t-17.5 164q0 170 35 252q35 88 108.5 135t203.5 47zM1901 1499
q-88 0 -142 -26t-84 -87q-37 -75 -37 -239q0 -166 48 -246q29 -52 82 -73t133 -21q140 0 202 94q56 86 56 252q0 156 -43 240q-29 57 -80 81.5t-135 24.5z" />
    <glyph glyph-name="uni2117" unicode="&#x2117;" horiz-adv-x="1931" 
d="M967 1579q235 0 415 -101.5t277.5 -284.5t97.5 -421t-97.5 -421t-277.5 -284.5t-415 -101.5q-236 0 -416.5 101.5t-278.5 285t-98 420.5t98 420.5t278.5 285t416.5 101.5zM967 1497q-215 0 -377 -92.5t-247 -256t-85 -376.5t85 -376.5t247 -256t377 -92.5t376 92.5
t245.5 256t84.5 376.5t-84.5 376.5t-245.5 256t-376 92.5zM791 336h-84v883h337q147 0 209 -70q64 -70 64 -201q0 -125 -62 -196q-59 -65 -172 -74q-83 -6 -292 -6v-336zM791 754q182 0 272 4q88 4 129 51q39 45 39 139q0 105 -47 152q-37 37 -142 37h-251v-383z" />
    <glyph glyph-name="trademark" unicode="&#x2122;" horiz-adv-x="2097" 
d="M522 666h-78v802h-335v76h749v-76h-336v-802zM1100 666h-78v878h121l303 -610l307 610h119v-878h-78v790l-311 -616h-76l-307 616v-790z" />
    <glyph glyph-name="uni2126" unicode="&#x2126;" horiz-adv-x="1587" 
d="M1458 0h-547v78q78 42 139.5 89t123.5 126q93 118 126 244.5t33 336.5q0 257 -104 424q-125 199 -436 199q-343 0 -463 -229q-76 -143 -76 -394q0 -201 32 -332t101 -225q45 -64 102 -114t92 -71.5t95 -53.5v-78h-547v82h381q-108 72 -191 182q-80 106 -115.5 255
t-35.5 355q0 110 19.5 231t64.5 206q65 123 205.5 195.5t335.5 72.5q178 0 297.5 -53t197.5 -162q67 -94 99 -229.5t32 -260.5q0 -216 -38 -361t-134 -265q-77 -97 -170 -166h381v-82z" />
    <glyph glyph-name="estimated" unicode="&#x212e;" horiz-adv-x="1576" 
d="M788 1223q151 0 264 -37t212 -117q98 -78 151.5 -205t59.5 -286h-1092q-9 0 -14 -1t-10 -9t-5 -23v-305q0 -25 32 -61.5t86.5 -73t139 -62t176.5 -25.5q125 0 241 55.5t194 143.5h129q-122 -139 -258 -194q-75 -30 -139 -42t-167 -12q-164 0 -283 41.5t-214 132.5
q-189 180 -189 453q0 269 193 453q95 90 212 132t281 42zM788 1180q-86 0 -170.5 -26.5t-140 -62.5t-89.5 -72t-34 -58v-328q0 -17 31 -17h805q19 0 25 6.5t6 24.5v299q0 49 -66.5 104t-169 92.5t-197.5 37.5z" />
    <glyph glyph-name="onethird" unicode="&#x2153;" horiz-adv-x="1673" 
d="M950 8v82q187 -33 260 -33q99 0 156 37q29 19 46.5 54.5t17.5 78.5q0 50 -18 84t-60 58q-40 22 -129 22h-189v80h293l37 49q57 78 57 142q0 70 -41 100q-49 39 -147 39q-101 0 -277 -43v82q181 41 277 41q136 0 207 -62q65 -54 65 -155q0 -70 -51 -144q-20 -30 -59 -82
q53 -32 71 -57q47 -57 47 -148q0 -111 -69 -180q-76 -76 -234 -76q-83 0 -260 31zM383 0h-90l729 1544h90zM381 686h-82v772l-240 -76v86l322 103v-885z" />
    <glyph glyph-name="twothirds" unicode="&#x2154;" horiz-adv-x="1896" 
d="M1174 8v82q187 -33 260 -33q98 0 155 37q29 19 46.5 54.5t17.5 78.5q0 50 -18 84t-60 58q-40 22 -129 22h-189v80h293l37 49q58 79 58 142q0 70 -41 100q-49 39 -148 39q-100 0 -276 -43v82q181 41 276 41q136 0 207 -62q66 -55 66 -155q0 -69 -52 -144q-20 -30 -59 -82
q55 -33 72 -57q47 -57 47 -148q0 -110 -70 -180q-76 -76 -233 -76q-83 0 -260 31zM606 0h-90l729 1544h90zM680 686h-598v96q262 254 395 402q76 84 76 166q0 63 -31 94q-40 43 -123 43q-112 0 -288 -45v82q176 43 280 43q128 0 193 -68q51 -54 51 -151q0 -65 -23 -116
t-80 -112q-174 -190 -354 -352h502v-82z" />
    <glyph glyph-name="oneeighth" unicode="&#x215b;" horiz-adv-x="1802" 
d="M1139 436q-47 23 -72 60q-37 55 -37 157q0 113 80 172q74 56 211 56q129 0 209 -58q76 -56 76 -170q0 -77 -50 -145q-20 -27 -73 -80q61 -20 98 -57q59 -59 59 -152q0 -103 -69 -166q-39 -36 -106.5 -56t-145.5 -20q-159 0 -244 60q-80 58 -80 182q0 51 16.5 86.5
t51.5 69.5q42 40 76 61zM1217 408q-46 -33 -93 -80t-47 -109q0 -90 60 -125q64 -37 182 -37t180 43q60 39 60 119q0 50 -24.5 81t-84.5 54q-69 26 -233 54zM1399 453q32 28 80 88q45 55 45 112q0 72 -45 107q-50 41 -158 41t-158 -37q-23 -15 -37 -45.5t-14 -65.5
q0 -63 15.5 -95.5t54.5 -51.5q49 -23 217 -53zM383 0h-90l729 1544h90zM381 686h-82v772l-240 -76v86l322 103v-885z" />
    <glyph glyph-name="threeeighths" unicode="&#x215c;" horiz-adv-x="2086" 
d="M1425 436q-46 22 -71 60q-37 55 -37 157q0 113 80 172q74 56 211 56q129 0 209 -58q75 -55 75 -170q0 -78 -49 -145q-17 -23 -74 -80q62 -20 99 -57q59 -59 59 -152q0 -103 -69 -166q-39 -36 -106.5 -56t-145.5 -20q-159 0 -244 60q-80 58 -80 182q0 51 16.5 86.5
t51.5 69.5q45 42 75 61zM1503 408q-43 -31 -92 -80q-47 -47 -47 -109q0 -91 59 -125q64 -37 183 -37q118 0 180 43q59 39 59 119q0 51 -24 81.5t-84 53.5q-68 26 -234 54zM1686 453q28 25 79 88q45 55 45 112q0 72 -45 107q-50 41 -157 41q-108 0 -158 -37
q-23 -15 -37 -45.5t-14 -65.5q0 -64 15 -96t54 -51q49 -23 218 -53zM670 0h-90l729 1544h90zM117 694v82q187 -33 260 -33q98 0 155 37q29 19 46.5 54.5t17.5 78.5q0 50 -18 84t-60 58q-40 22 -129 22h-188v80h293l36 49q58 79 58 142q0 70 -41 100q-49 39 -148 39
q-100 0 -276 -43v82q181 41 276 41q136 0 207 -62q66 -55 66 -155q0 -70 -51 -144q-12 -18 -60 -82q55 -33 72 -57q47 -57 47 -147q0 -111 -70 -181q-75 -75 -233 -75q-89 0 -260 30z" />
    <glyph glyph-name="fiveeighths" unicode="&#x215d;" horiz-adv-x="2078" 
d="M1417 436q-46 22 -71 60q-37 55 -37 157q0 113 80 172q74 56 210 56q129 0 209 -58q76 -56 76 -170q0 -78 -49 -145q-17 -23 -74 -80q62 -20 99 -57q59 -59 59 -152q0 -102 -70 -166q-39 -36 -106.5 -56t-145.5 -20q-158 0 -243 60q-80 58 -80 182q0 51 16 87t51 69
q42 40 76 61zM1495 408q-43 -31 -92 -80q-47 -47 -47 -109q0 -91 59 -125q64 -37 182 -37q119 0 181 43q59 39 59 119q0 51 -24 81.5t-84 53.5q-68 26 -234 54zM1677 453q32 28 80 88q45 55 45 112q0 72 -45 107q-50 41 -158 41q-107 0 -157 -37q-23 -15 -37 -45.5
t-14 -65.5q0 -64 15 -96t54 -51q49 -23 217 -53zM662 0h-91l729 1544h91zM154 688v82q157 -27 237 -27q74 0 119 14.5t72 49.5q32 41 32 127q0 81 -51 117q-35 25 -96 35t-178 10h-121v448h491v-82h-409v-286h98q160 0 234 -41q55 -29 84.5 -81.5t29.5 -119.5
q0 -121 -59 -189q-39 -45 -98.5 -63t-147.5 -18q-95 0 -237 24z" />
    </font>
</defs>
</svg>
