<?xml version="1.0" standalone="no"?>
<!DOCTYPE svg PUBLIC "-//W3C//DTD SVG 1.1//EN" "http://www.w3.org/Graphics/SVG/1.1/DTD/svg11.dtd" >
<svg xmlns="http://www.w3.org/2000/svg" xmlns:xlink="http://www.w3.org/1999/xlink" version="1.1">
<metadata>
Created by FontForge 20170731 at Sat Jun 20 18:26:45 2015
 By Aleksey,,,
Copyright (c) 2015 by CAT-Fonts Peter Wiegel. All rights reserved.
</metadata>
<defs>
<font id="LucienSchoenschriftvCAT" horiz-adv-x="329" >
  <font-face 
    font-family="Lucien Schoenschriftv CAT"
    font-weight="400"
    font-stretch="normal"
    units-per-em="1000"
    panose-1="0 0 0 0 0 0 0 0 0 0"
    ascent="750"
    descent="-250"
    x-height="234"
    cap-height="788"
    bbox="-130 -254 1333 1038"
    underline-thickness="50"
    underline-position="-200"
    unicode-range="U+0020-FB05"
  />
<missing-glyph horiz-adv-x="175" 
 />
    <glyph glyph-name="IJ" unicode="IJ" horiz-adv-x="892" 
d="M870 895q27 0 50.5 -5t45.5 -13t44 -17t47 -16q-18 -16 -38 -32.5t-38.5 -34.5t-34 -38.5t-25.5 -43.5q-12 -32 -17 -65.5t-10 -66.5q-12 -83 -25 -170t-40 -167.5t-75 -149t-129 -114.5q-26 -15 -63 -23.5t-67 -8.5q-45 0 -75 15.5t-49 41.5q-38 -14 -79.5 -21t-83.5 -7
q-39 0 -76 9t-65.5 28.5t-45.5 50.5t-17 75q0 46 22 82t56 62.5t75.5 42.5t81.5 23q0 82 25 163t73 145.5t117.5 105.5t159.5 42q51 49 115.5 78t140.5 29zM808 743q-15 -27 -36 -43.5t-42.5 -37t-40 -51.5t-29.5 -87q-5 -22 -8 -43.5t-6 -43.5q1 0 2 0.5t3 0.5l5 -16
l-13 -2q-5 -42 -11.5 -83.5t-14.5 -82.5q-20 -95 -80 -159.5t-142 -98.5q17 -20 40.5 -32t55.5 -12q56 0 97.5 20t71 54t49.5 79.5t34 97t23.5 106t18.5 106t19 98t24 81.5q23 58 56 103.5t76 90.5q-32 24 -73.5 33t-80.5 9q-45 0 -82.5 -12t-69.5 -34q24 -4 46 -11.5
t42 -14.5t36.5 -12t29.5 -3zM284 316q-6 0 -13 -1t-13 -2q6 -38 18 -76t32 -71l-19 -21q-23 37 -35.5 79t-14.5 86q-35 -6 -72.5 -20.5t-69 -37.5t-51.5 -55.5t-20 -72.5q0 -27 12 -52t32 -44t45.5 -30.5t52.5 -11.5q57 0 103 6.5t84 23.5q-9 21 -13 46.5t-4 53.5
q0 55 17.5 96t46.5 76q-29 10 -58 19t-60 9zM254 337q43 0 84.5 -6.5t82.5 -20.5q15 17 31.5 33.5l33.5 33.5q-5 23 -5.5 46t-0.5 49q0 67 21 131.5t59 119.5q-77 -3 -133 -38.5t-93 -90t-56.5 -122t-23.5 -135.5zM503 448q0 -16 1 -30.5t3 -29.5l22 12t22 11q22 78 62 144
t97 125q-29 16 -58.5 28.5t-61.5 14.5q-45 -56 -66 -129t-21 -146zM511 208q11 29 16 63q-11 19 -19.5 38.5t-16.5 39.5q-22 -20 -44 -53t-39.5 -70.5t-28.5 -75.5t-11 -68t9 -55q44 25 76 68.5t58 112.5zM545 385l-17 -8.5t-17 -9.5q8 -33 22 -60q2 20 4.5 39t7.5 39z" />
    <glyph glyph-name="ij" unicode="ij" horiz-adv-x="313" 
d="M127 253q23 0 34 -18.5t11 -37.5q0 -20 -8.5 -41t-18 -42.5t-18 -42.5t-8.5 -40q0 -4 1 -10.5t7 -6.5q10 0 25 6.5t29 17t24 22.5t12 24q11 27 21 50t16.5 40t8.5 26.5t-3 9.5q-9 1 -15 -0.5t-12.5 -6.5t-15.5 -13.5t-23 -22.5l-12 14q7 9 19.5 21.5t27.5 24t29.5 19
t26.5 7.5q23 0 34 -18.5t11 -37.5q0 -27 -7 -53.5t-17.5 -52.5t-22.5 -51.5t-22 -51.5q-8 -29 -20 -53.5t-29.5 -42.5t-41.5 -28t-57 -10q-10 0 -20.5 3.5t-19.5 9.5t-14.5 14t-5.5 17q0 17 13 31.5t30 14.5q23 0 32.5 -17t2.5 -36q-1 -12 7 -14.5t18 3t18.5 17.5t10.5 30
q2 25 6 49t10 46q-20 -16 -45.5 -25t-47.5 -9q-21 0 -41 12t-20 34q0 17 12 46.5t25 58t20 50t-2 21.5t-15 -1.5t-12.5 -6t-15.5 -13t-23 -22.5l-12 14q7 9 19.5 21.5t27.5 24t29.5 19t26.5 7.5zM162 348q-21 0 -32.5 13t-11.5 33q0 21 13 37t35 16q20 0 34 -12.5t14 -32.5
q0 -22 -14.5 -38t-37.5 -16zM323 348q-21 0 -32.5 13t-11.5 33q0 21 13 37t35 16q20 0 34 -12.5t14 -32.5q0 -22 -14.5 -38t-37.5 -16z" />
    <glyph glyph-name="t_z" unicode="tz" horiz-adv-x="455" 
d="M163 36l-1 -1q-17 -21 -41 -35.5t-54 -10.5q-26 3 -29 22.5t5 54.5l24 128h-62l6 26h60l45 211l71 13l-47 -224h65q15 14 38 22t46 6q18 -2 33.5 -9.5t32.5 -12.5q15 11 36.5 19.5t41.5 -0.5q21 -11 21 -32t-13 -39q-9 -11 -21.5 -15.5t-26 -4.5t-26.5 2.5t-23 5.5
q-8 -18 -17.5 -35t-18.5 -35q36 -21 52.5 -47t16.5 -53t-14.5 -52.5t-39.5 -45t-59 -31t-73 -9.5q-10 0 -20.5 3.5t-19.5 9.5t-14.5 14t-5.5 17q0 17 13 31.5t30 14.5q23 0 32.5 -17t2.5 -36q-1 -12 5 -15.5t15.5 -0.5t21.5 11.5t24 22.5q16 18 24 38t8 38t-9 33t-26 24
q-11 -12 -29.5 -24.5t-35.5 -10.5q-15 0 -23.5 8.5t-11 20t0.5 24t10 20.5q9 13 22 20t28 8.5t30.5 -1t28.5 -6.5q9 17 17.5 34.5t13.5 34.5q-14 7 -30.5 17.5t-32.5 17.5t-30 6t-23 -17q14 0 29.5 -2.5t20.5 -17.5q4 -10 0.5 -20t-11.5 -17t-19 -9.5t-21 3.5
q-15 10 -18 27.5t2 35.5h-55l-25 -127q-3 -24 -0.5 -33.5t8.5 -7.5t15.5 12.5t20.5 25.5zM203 26q20 -3 34 8t23 20q-7 11 -24.5 12t-31.5 -4.5t-17.5 -15.5t16.5 -20zM375 214q54 -26 54 0q-3 8 -9.5 11.5t-14.5 2.5t-16 -4.5t-14 -9.5z" />
    <glyph glyph-name="T_h" unicode="Th" horiz-adv-x="1026" 
d="M808 126q9 16 23 35.5t32 36.5t39 29t43 12q19 0 27 -10.5t8.5 -28t-4.5 -38.5t-11 -42.5t-11 -40.5t-5 -31q0 -1 1 -7t10 -6q19 0 28.5 11t17.5 22l8 -12q-13 -25 -38.5 -40.5t-57.5 -15.5q-20 0 -28 11.5t-9 29.5t4 40t11 43t11 39.5t5 28.5q0 2 -0.5 7t-5.5 5
q-13 0 -26 -12t-26 -31t-25.5 -42.5t-22.5 -46t-17.5 -42t-11.5 -29.5h-63l112 514q8 36 21 71t28 64.5t30 50.5t27 29q-5 -3 -16 -10.5t-27 -14t-36 -10.5t-44 0q-19 -10 -35.5 -24t-27.5 -43q-8 -24 -12 -49.5t-5.5 -51.5t-3 -51.5t-5.5 -50.5q-14 -101 -48.5 -184.5
t-91.5 -143.5t-139.5 -93.5t-192.5 -33.5q-39 0 -82 7.5t-78 26.5t-58 51.5t-23 81.5q0 55 34.5 87t84 48.5t103.5 20t93 0.5q-27 36 -46.5 78t-19.5 89q0 77 35 140t91 108t126 69.5t141 24.5q28 0 60 -6.5t65.5 -14.5t65.5 -15t60.5 -7t50.5 8.5t35 32.5l17 -8
q0 -7 -10 -16.5t-23 -24.5t-26 -37t-19 -54zM416 218q-14 13 -26.5 24t-29 19t-38 12t-52.5 4q-34 0 -72.5 -10t-71.5 -30t-55 -50t-22 -69q0 -32 16 -56t40.5 -39.5t54 -23t56.5 -7.5q98 0 163 21t107 57t66 85t39.5 104.5t28 115t30.5 117.5t48 112t80 98q-50 8 -99.5 18
t-101.5 10q-60 0 -114.5 -17.5t-95.5 -51.5t-65 -84t-24 -115q0 -53 17.5 -88t41 -59t47.5 -40t38 -29z" />
    <glyph glyph-name="longs_i" unicode="&#x17f;i" horiz-adv-x="304" 
d="M229 755q6 6 14 14.5t18 15.5t20 12t19 5q21 0 36 -12t15 -34q0 -19 -13 -32.5t-33 -13.5q-19 0 -35 16t-12 36q-37 -57 -56.5 -120t-31.5 -131.5t-20.5 -141.5t-22.5 -149q-6 -32 -12.5 -64.5t-15.5 -65.5t-22.5 -65.5t-32.5 -64.5q-9 -15 -21.5 -31.5t-27.5 -30.5
t-33 -23t-37 -9q-20 0 -35 10.5t-15 32.5q0 16 14 30t31 14q22 0 35.5 -11t8.5 -34q34 24 53 82.5t31 135.5t22 166t28 175t48.5 161.5t82.5 126.5zM263 348q-21 0 -32.5 13t-11.5 33q0 21 13 37t35 16q20 0 34 -12.5t14 -32.5q0 -22 -14.5 -38t-37.5 -16zM228 253
q23 0 34 -18.5t11 -37.5q0 -20 -8.5 -41t-18 -42.5t-18 -42.5t-8.5 -40q0 -4 1 -10.5t7 -6.5q8 0 15.5 5.5t13.5 13t11 16t8 13.5l19 -9q-16 -26 -35 -45.5t-51 -19.5q-21 0 -41 12t-20 34q0 17 12 46.5t25 58t20 50t-2 21.5t-15 -1.5t-12.5 -6t-15.5 -13t-23 -22.5l-12 14
q7 9 19.5 21.5t27.5 24t29.5 19t26.5 7.5z" />
    <glyph glyph-name="longs_l" unicode="&#x17f;l" horiz-adv-x="324" 
d="M229 755q6 6 14 14.5t18 15.5t20 12t19 5q21 0 36 -12t15 -34q0 -19 -13 -32.5t-33 -13.5q-19 0 -35 16t-12 36q-37 -57 -56.5 -120t-31.5 -131.5t-20.5 -141.5t-22.5 -149q-6 -32 -12.5 -64.5t-15.5 -65.5t-22.5 -65.5t-32.5 -64.5q-9 -15 -21.5 -31.5t-27.5 -30.5
t-33 -23t-37 -9q-20 0 -35 10.5t-15 32.5q0 16 14 30t31 14q22 0 35.5 -11t8.5 -34q34 24 53 82.5t31 135.5t22 166t28 175t48.5 161.5t82.5 126.5zM245 121q-5 -21 -9 -40t-5 -33t2 -20.5t11 -1.5q14 4 27 23.5t21 35.5h19q-8 -20 -22 -41.5t-31.5 -36.5t-36.5 -19t-37 11
q-14 14 -18.5 31.5t-2.5 40t8.5 50.5t14.5 63l109 474h67z" />
    <glyph glyph-name="longs_longs" unicode="&#x17f;&#x17f;" horiz-adv-x="296" 
d="M229 755q6 6 14 14.5t18 15.5t20 12t19 5q21 0 36 -12t15 -34q0 -19 -13 -32.5t-33 -13.5q-19 0 -35 16t-12 36q-37 -57 -56.5 -120t-31.5 -131.5t-20.5 -141.5t-22.5 -149q-6 -32 -12.5 -64.5t-15.5 -65.5t-22.5 -65.5t-32.5 -64.5q-9 -15 -21.5 -31.5t-27.5 -30.5
t-33 -23t-37 -9q-20 0 -35 10.5t-15 32.5q0 16 14 30t31 14q22 0 35.5 -11t8.5 -34q34 24 53 82.5t31 135.5t22 166t28 175t48.5 161.5t82.5 126.5zM350 716q6 6 14 14.5t18 15.5t20 12t19 5q21 0 36 -12t15 -34q0 -19 -13 -32.5t-33 -13.5q-19 0 -35 16t-12 36
q-37 -57 -52.5 -114t-22.5 -118t-11 -128t-18 -143q-6 -32 -12.5 -64.5t-15.5 -65.5t-22.5 -65.5t-32.5 -64.5q-9 -15 -21.5 -31.5t-27.5 -30.5t-33 -23t-37 -9q-20 0 -35 10.5t-15 32.5q0 16 14 30t31 14q22 0 35.5 -11t8.5 -34q34 24 51 79.5t26 128.5t15.5 156.5
t21.5 165.5t43.5 154.5t80.5 123.5z" />
    <glyph glyph-name="longs_longs_i" unicode="&#x17f;&#x17f;i" horiz-adv-x="466" 
d="M229 755q6 6 14 14.5t18 15.5t20 12t19 5q21 0 36 -12t15 -34q0 -19 -13 -32.5t-33 -13.5q-19 0 -35 16t-12 36q-37 -57 -56.5 -120t-31.5 -131.5t-20.5 -141.5t-22.5 -149q-6 -32 -12.5 -64.5t-15.5 -65.5t-22.5 -65.5t-32.5 -64.5q-9 -15 -21.5 -31.5t-27.5 -30.5
t-33 -23t-37 -9q-20 0 -35 10.5t-15 32.5q0 16 14 30t31 14q22 0 35.5 -11t8.5 -34q34 24 53 82.5t31 135.5t22 166t28 175t48.5 161.5t82.5 126.5zM346 712q6 6 14 14.5t18 15.5t20 12t19 5q21 0 36 -12t15 -34q0 -19 -13 -32.5t-33 -13.5q-19 0 -35 16t-12 36
q-37 -57 -52 -113.5t-21 -116.5t-9.5 -126.5t-17.5 -142.5q-6 -32 -12.5 -64.5t-15.5 -65.5t-22.5 -65.5t-32.5 -64.5q-9 -15 -21.5 -31.5t-27.5 -30.5t-33 -23t-37 -9q-20 0 -35 10.5t-15 32.5q0 16 14 30t31 14q22 0 35.5 -11t8.5 -34q26 18 41 54t24 84.5t14.5 105.5
t11 118.5t14 124t24 120t41 108.5t64.5 89zM418 345q-21 0 -32.5 13t-11.5 33q0 21 13 37t35 16q20 0 34 -12.5t14 -32.5q0 -22 -14.5 -38t-37.5 -16zM383 250q23 0 34 -18.5t11 -37.5q0 -20 -8.5 -41t-18 -42.5t-18 -42.5t-8.5 -40q0 -4 1 -10.5t7 -6.5q8 0 15.5 5.5
t13.5 13t11 16t8 13.5l19 -9q-16 -26 -35 -45.5t-51 -19.5q-21 0 -41 12t-20 34q0 17 12 46.5t25 58t20 50t-2 21.5t-15 -1.5t-12.5 -6t-15.5 -13t-23 -22.5l-12 14q7 9 19.5 21.5t27.5 24t29.5 19t26.5 7.5z" />
    <glyph glyph-name="longs_longs_l" unicode="&#x17f;&#x17f;l" horiz-adv-x="472" 
d="M229 755q6 6 14 14.5t18 15.5t20 12t19 5q21 0 36 -12t15 -34q0 -19 -13 -32.5t-33 -13.5q-19 0 -35 16t-12 36q-37 -57 -56.5 -120t-31.5 -131.5t-20.5 -141.5t-22.5 -149q-6 -32 -12.5 -64.5t-15.5 -65.5t-22.5 -65.5t-32.5 -64.5q-9 -15 -21.5 -31.5t-27.5 -30.5
t-33 -23t-37 -9q-20 0 -35 10.5t-15 32.5q0 16 14 30t31 14q22 0 35.5 -11t8.5 -34q34 24 53 82.5t31 135.5t22 166t28 175t48.5 161.5t82.5 126.5zM349 710q6 6 14 14.5t18 15.5t20 12t19 5q21 0 36 -12t15 -34q0 -19 -13 -32.5t-33 -13.5q-19 0 -35 16t-12 36
q-28 -47 -42.5 -102t-23.5 -117.5t-16 -132t-21 -145.5q-6 -32 -12.5 -64.5t-15.5 -65.5t-22.5 -65.5t-32.5 -64.5q-9 -15 -21.5 -31.5t-27.5 -30.5t-33 -23t-37 -9q-20 0 -35 10.5t-15 32.5q0 16 14 30t31 14q22 0 35.5 -11t8.5 -34q37 25 56.5 80.5t31 128t19 155.5
t21.5 164t39 152.5t70 121.5zM393 121q-5 -21 -9 -40t-5 -33t2 -20.5t11 -1.5q14 4 27 23.5t21 35.5h19q-8 -20 -22 -41.5t-31.5 -36.5t-36.5 -19t-37 11q-14 14 -18.5 31.5t-2.5 40t8.5 50.5t14.5 63l106 463h67z" />
    <glyph glyph-name="c_k" unicode="ck" horiz-adv-x="601" 
d="M575 637q0 -23 -15.5 -36t-36.5 -13q-14 0 -25 9t-11 23q0 8 3.5 15.5t8.5 13.5q-19 -10 -31 -28.5t-20 -41t-13 -46t-9 -41.5q-20 -84 -39 -167t-42 -166l16 1q11 0 22.5 -1.5t22.5 -6.5q7 15 16.5 30.5t21.5 29t26.5 22t33.5 8.5q23 0 37.5 -14t14.5 -37
q0 -20 -11.5 -34t-32.5 -14q-18 0 -31.5 12t-13.5 30q0 16 10 33q-15 -17 -30 -37t-22 -43q13 -9 22 -28t16.5 -38.5t15 -34t18.5 -14.5q7 0 13.5 7t12 17t10 19.5t7.5 14.5h19q-7 -18 -15.5 -34.5t-20 -29t-27 -20t-37.5 -7.5q-15 0 -25.5 12t-18.5 28.5t-14 34.5t-11 29
q-15 -8 -31 -12t-33 -2l-19 -80h-62q1 1 0.5 1.5t-1.5 -0.5l15 69q-11 -14 -24.5 -27.5t-30 -24.5t-35 -18t-37.5 -7q-51 0 -72 27.5t-21 75.5q0 25 12 50.5t32 46t44.5 33.5t50.5 13q12 0 24.5 -4t23 -12t17 -19t6.5 -24q0 -15 -10 -29.5t-27 -14.5q-20 0 -31 10t-11 30
q0 13 11 24.5t21 17.5q-3 2 -6.5 2h-6.5q-26 0 -42 -16.5t-25 -39t-12.5 -47t-3.5 -39.5q0 -23 15.5 -42.5t39.5 -19.5q16 0 32 10t30 23.5t24.5 27t16.5 19.5q16 69 32 138.5t31 138.5q4 16 8.5 37t10 42.5t11.5 42t14 36.5q10 23 25.5 49t35.5 48.5t44 37t52 14.5
q20 0 33.5 -11t13.5 -32zM382 115q-7 12 -16.5 20t-23.5 10l-12 -47q14 0 27.5 3t24.5 14z" />
    <glyph glyph-name="f_t" unicode="ft" horiz-adv-x="371" 
d="M151 220h75l42 211l71 13l-44 -224h65l-6 -26h-64l-28 -127q-3 -32 2 -38.5t15.5 3t25 30t31.5 42.5l16 -13q-3 -9 -13.5 -24.5t-24.5 -31.5q-17 -21 -41 -35.5t-54 -10.5q-26 3 -29 22.5t5 54.5l27 128h-77q-6 -32 -13 -61t-15 -56t-19 -54.5t-26 -56.5
q-8 -15 -19 -32.5t-24.5 -32.5t-30.5 -25t-36 -10q-20 0 -35 10.5t-15 32.5q0 16 14 30t31 14q22 0 35.5 -11t8.5 -34q18 11 28 36t17 61.5t13 84.5t15 105l-62 -1l6 24l60 2q11 69 27.5 144.5t39 147.5t52.5 135t69 108q6 6 14 14.5t18 15.5t20 12t19 5q21 0 36 -12t15 -34
q0 -19 -13 -32.5t-33 -13.5q-19 0 -35 16t-12 36q-37 -57 -59.5 -122.5t-37 -135.5t-25 -142.5t-22.5 -141.5z" />
    <glyph glyph-name="f_f_t" unicode="fft" horiz-adv-x="532" 
d="M157 220h73q11 69 27.5 144.5t39 147.5t52.5 135t69 108q6 6 14 14.5t18 15.5t20 12t19 5q21 0 36 -12t15 -34q0 -19 -13 -32.5t-33 -13.5q-19 0 -35 16t-12 36q-37 -57 -59 -122.5t-36.5 -135.5t-25 -142.5t-22.5 -141.5h69l45 211l71 13l-47 -224h65l-6 -26h-64
l-25 -127q-3 -32 2 -38.5t15.5 3t25 30t31.5 42.5l16 -13q-3 -9 -13.5 -24.5t-24.5 -31.5q-17 -21 -41 -35.5t-54 -10.5q-26 3 -29 22.5t5 54.5l24 128h-70q-6 -32 -13 -61t-16 -56t-20 -54.5t-26 -56.5q-8 -15 -19 -32.5t-24.5 -32.5t-30.5 -25t-36 -10q-20 0 -35 10.5
t-15 32.5q0 16 14 30t31 14q22 0 35.5 -11t8.5 -34q18 11 28 36t17 61.5t13 84t15 104.5h-74q-6 -32 -13 -61t-16 -56t-20 -54.5t-26 -56.5q-8 -15 -19 -32.5t-24.5 -32.5t-30.5 -25t-36 -10q-20 0 -35 10.5t-15 32.5q0 16 14 30t31 14q22 0 35.5 -11t8.5 -34q18 11 28 36
t17 61.5t13 84t15 104.5h-64l5 26h63q11 69 27.5 144.5t39 147.5t52.5 135t69 108q6 6 14 14.5t18 15.5t20 12t19 5q21 0 36 -12t15 -34q0 -19 -13 -32.5t-33 -13.5q-19 0 -35 16t-12 36q-37 -57 -59 -122.5t-36.5 -135.5t-25 -142.5t-22.5 -141.5z" />
    <glyph glyph-name="t_t" unicode="tt" horiz-adv-x="384" 
d="M140 220h99l45 211l71 13l-47 -224h65l-6 -26h-64l-25 -127q-3 -32 2 -38.5t15.5 3t25 30t31.5 42.5l16 -13q-3 -9 -13.5 -24.5t-24.5 -31.5q-17 -21 -41 -35.5t-54 -10.5q-26 3 -29 22.5t5 54.5l24 128h-100l-25 -127q-3 -32 2 -38.5t15.5 3t25 30t31.5 42.5l16 -13
q-3 -9 -13.5 -24.5t-24.5 -31.5q-17 -21 -41 -35.5t-54 -10.5q-26 3 -29 22.5t5 54.5l24 128h-62l6 26h60l45 211l71 13z" />
    <glyph glyph-name="c_h" unicode="ch" horiz-adv-x="550" 
d="M319 689q15 3 31.5 2.5t31.5 -5t25.5 -14.5t13.5 -26q-1 -50 -9.5 -93t-17.5 -86q-18 -85 -38 -170l-40 -170q13 18 28.5 37.5t34 36t40.5 27t49 9.5q14 -6 18.5 -21.5t4.5 -29.5q-3 -19 -8 -37.5t-10.5 -37.5t-9.5 -38.5t-4 -39.5q1 -8 6 -7t13 6.5t17.5 14t18.5 15.5
l10 -10q-19 -17 -36 -30t-35 -23q-8 -3 -17 -5t-17.5 -0.5t-15 6t-9.5 15.5q-5 22 -2.5 43.5t8 44t10.5 45t7 45.5q3 11 -7.5 8t-24.5 -18q-41 -35 -63.5 -83.5t-35.5 -99.5h-67q5 46 17 90t21 88q23 106 48 208.5t46 208.5q2 12 3.5 25.5t-7.5 25.5q-14 18 -35 17t-39 -12
q-26 -21 -51 -47t-43 -55q-19 -35 -33 -73.5t-20 -78.5t-3 -80.5t18 -79.5q30 6 52.5 -7t29 -29.5t-6 -27.5t-51.5 -1q-20 8 -24.5 15t-11.5 22q-24 -29 -37 -65.5t-10 -78.5q4 -24 21 -32.5t37.5 -6t39 13.5t27.5 25q0 -2 3.5 -7.5t3.5 -8.5q-10 -18 -34 -33t-52.5 -20
t-58 4.5t-50.5 41.5q-10 16 -12.5 34t0.5 37t11.5 37t20.5 33q18 20 38.5 31t43.5 18q-16 48 -17 100t10.5 103t35 98.5t57.5 85.5q23 24 51.5 44.5t60.5 25.5z" />
    <glyph glyph-name="S_t" unicode="St" horiz-adv-x="910" 
d="M875 772q14 0 28.5 -3t26 -10.5t18.5 -19.5t7 -29q0 -30 -18 -46t-48 -16q-15 0 -28.5 14t-13.5 29q0 14 5.5 27.5t10.5 27.5l-12 2q-37 0 -58.5 -22.5t-34.5 -61.5t-20 -91t-13.5 -110t-16 -120t-27.5 -120t-47.5 -110t-76.5 -91t-114.5 -61.5t-160.5 -22.5q-40 0 -88 9
t-89 29.5t-69 54.5t-28 84q0 49 26 90.5t66 71.5t88.5 46.5t93.5 16.5q27 0 61 -8t64.5 -23.5t51.5 -39.5t21 -57q0 -28 -13 -47t-33 -31t-44 -18.5t-47 -8.5l-3 19q19 5 40.5 9.5t39 13.5t29 25t11.5 43q0 24 -13.5 40.5t-33.5 26t-43 14t-42 4.5q-40 0 -91.5 -12
t-97.5 -36t-77.5 -60.5t-31.5 -85.5q0 -48 30.5 -76.5t74 -44t91 -20.5t82.5 -5q80 0 132.5 26.5t85.5 71.5t51.5 104.5t31 125t23.5 132.5t29 128.5t47.5 112.5t79.5 83q40 26 87 26zM720 220h51l80 378l71 13l-82 -391h65l-6 -26h-64l-25 -127q-3 -32 2 -38.5t15.5 3
t25 30t31.5 42.5l16 -13q-3 -9 -13.5 -24.5t-24.5 -31.5q-17 -21 -41 -35.5t-54 -10.5q-26 3 -29 22.5t5 54.5l24 128h-53z" />
    <glyph glyph-name="l_l" unicode="ll" horiz-adv-x="312" 
d="M243 122q-5 -21 -9 -40t-5 -33t2 -20.5t11 -1.5q14 4 27 23.5t21 35.5h19q-8 -20 -22 -41.5t-31.5 -36.5t-36.5 -19t-37 11q-14 14 -18.5 32.5t-2.5 41.5q-14 -19 -29 -36.5t-31.5 -29t-34 -15t-35.5 5.5q-14 14 -18.5 31.5t-2.5 40t8.5 50.5t14.5 63l116 506h67
l-124 -569q-5 -21 -9 -40t-5 -33t2 -20.5t11 -1.5q10 0 23.5 15.5t26 35t22 39t11.5 27.5l10 42l116 506h67z" />
    <glyph glyph-name="longs_c_h" unicode="&#x17f;ch" horiz-adv-x="669" 
d="M450 688q15 3 31.5 2.5t31.5 -5t25.5 -14.5t13.5 -26q-1 -50 -9 -92.5t-17 -85.5q-18 -85 -38 -170l-40 -170q13 18 28.5 37.5t34 36t40.5 27t49 9.5q14 -6 18.5 -21.5t4.5 -29.5q-3 -19 -8 -37.5t-10.5 -37.5t-9.5 -38.5t-4 -39.5q1 -8 6 -7t13 6.5t17.5 14t18.5 15.5
l10 -10q-19 -17 -36 -30t-35 -23q-8 -3 -17 -5t-17.5 -0.5t-15 6t-9.5 15.5q-5 22 -2.5 43.5t8 44t10.5 45t7 45.5q3 11 -7.5 8t-24.5 -18q-41 -35 -63.5 -83.5t-35.5 -99.5h-67q5 46 17 90t21 88q23 106 47.5 208t45.5 208q2 12 3.5 25.5t-7.5 25.5q-14 18 -35 17t-39 -12
q-26 -21 -50.5 -46.5t-42.5 -54.5q-19 -35 -33 -73.5t-20 -78.5t-3 -80.5t18 -79.5q30 6 52.5 -7t29 -29.5t-6 -27.5t-51.5 -1q-20 8 -24.5 15t-11.5 22q-24 -29 -37 -65.5t-10 -78.5q4 -24 21 -32.5t37.5 -6t39 13.5t27.5 25q0 -2 3.5 -7.5t3.5 -8.5q-10 -18 -34 -33
t-52.5 -20t-58 4.5t-50.5 41.5q-10 16 -12.5 34t0.5 37t11.5 37t20.5 33q18 20 38.5 31t43.5 18q-16 48 -17 100t10.5 103t35 98.5t57.5 85.5q23 24 51 44t60 25zM230 767q11 13 31.5 24t38.5 11q21 0 36 -12t15 -34q0 -19 -13 -32.5t-33 -13.5q-19 0 -35 16t-12 36
q-37 -57 -56.5 -120t-31.5 -131.5t-20.5 -141.5t-22.5 -149q-6 -32 -12.5 -64.5t-15.5 -65.5t-22.5 -65.5t-32.5 -64.5q-9 -15 -21.5 -31.5t-27.5 -30.5t-33 -23t-37 -9q-20 0 -35 10.5t-15 32.5q0 16 14 30t31 14q22 0 35.5 -11t8.5 -34q34 24 53 83.5t31 138t22.5 169
t28.5 177.5t48.5 163.5t82.5 127.5z" />
    <glyph glyph-name="longs_j" unicode="&#x17f;j" horiz-adv-x="316" 
d="M229 755q6 6 14 14.5t18 15.5t20 12t19 5q21 0 36 -12t15 -34q0 -19 -13 -32.5t-33 -13.5q-19 0 -35 16t-12 36q-37 -57 -56.5 -120t-31.5 -131.5t-20.5 -141.5t-22.5 -149q-6 -32 -12.5 -64.5t-15.5 -65.5t-22.5 -65.5t-32.5 -64.5q-9 -15 -21.5 -31.5t-27.5 -30.5
t-33 -23t-37 -9q-20 0 -35 10.5t-15 32.5q0 16 14 30t31 14q22 0 35.5 -11t8.5 -34q34 24 53 82.5t31 135.5t22 166t28 175t48.5 161.5t82.5 126.5zM377 449q0 -26 -14 -39t-31.5 -13.5t-31.5 11.5t-14 37q0 23 14 35t31.5 12.5t31.5 -10t14 -33.5zM237 -12
q-8 -29 -20 -53.5t-29.5 -42.5t-41.5 -28t-57 -10q-10 0 -20.5 3.5t-19.5 9.5t-14.5 14t-5.5 17q0 17 13 31.5t30 14.5q23 0 32.5 -17t2.5 -36q-1 -12 7 -14.5t18 3t18.5 17.5t10.5 30q4 56 19.5 107t30.5 90t24 62t1 24q-9 1 -15 -0.5t-12.5 -6.5t-15.5 -13.5t-23 -22.5
l-12 14q7 9 19.5 21.5t27.5 24t29.5 19t26.5 7.5q23 0 34 -18.5t11 -37.5q0 -27 -7 -53.5t-17.5 -52.5t-22.5 -51.5t-22 -51.5z" />
    <glyph glyph-name="longs_k" unicode="&#x17f;k" horiz-adv-x="485" 
d="M229 755q6 6 14 14.5t18 15.5t20 12t19 5q21 0 36 -12t15 -34q0 -19 -13 -32.5t-33 -13.5q-19 0 -35 16t-12 36q-37 -57 -56.5 -120t-31.5 -131.5t-20.5 -141.5t-22.5 -149q-6 -32 -12.5 -64.5t-15.5 -65.5t-22.5 -65.5t-32.5 -64.5q-9 -15 -21.5 -31.5t-27.5 -30.5
t-33 -23t-37 -9q-20 0 -35 10.5t-15 32.5q0 16 14 30t31 14q22 0 35.5 -11t8.5 -34q34 24 53 82.5t31 135.5t22 166t28 175t48.5 161.5t82.5 126.5zM363 656q20 21 48 31t57 1q11 -5 16.5 -15.5t7.5 -22.5q4 -26 -11 -38.5t-33 -12.5q-17 0 -29 9.5t-8 29.5q2 13 0.5 19.5
t-12.5 -1.5q-20 -21 -34 -53t-23.5 -67t-16 -68.5t-11.5 -55.5l-52 -255q18 5 37 2t27 -9q6 9 12.5 24t17 30t26.5 25.5t40 9.5q24 -2 34.5 -14t10.5 -33q2 -21 -11.5 -32.5t-30.5 -13.5q-18 -2 -32.5 11t-11.5 30q2 14 7.5 20.5t-5.5 4.5q-6 -1 -10.5 -10t-9.5 -21
t-10.5 -25t-11.5 -22q9 -10 16 -27.5l14 -35t15.5 -31t20.5 -15.5q10 -1 19 6.5t16 18.5t12 22.5t8 18.5l15 -3q-8 -23 -21 -45t-30 -36t-37.5 -17t-44.5 11q-22 17 -31 42.5t-16 51.5q-12 -8 -26 -10.5t-28 -1.5l-19 -83h-64q22 112 44.5 223.5t45.5 220.5q12 58 40.5 113
t72.5 99zM248 101q25 -2 45 9q-2 14 -10 23t-25 10z" />
    <glyph glyph-name="longs_s" unicode="&#x17f;s" horiz-adv-x="349" 
d="M229 755q6 6 14 14.5t18 15.5t20 12t19 5q21 0 36 -12t15 -34q0 -19 -13 -32.5t-33 -13.5q-19 0 -35 16t-12 36q-37 -57 -56.5 -120t-31.5 -131.5t-20.5 -141.5t-22.5 -149q-6 -32 -12.5 -64.5t-15.5 -65.5t-22.5 -65.5t-32.5 -64.5q-9 -15 -21.5 -31.5t-27.5 -30.5
t-33 -23t-37 -9q-20 0 -35 10.5t-15 32.5q0 16 14 30t31 14q22 0 35.5 -11t8.5 -34q34 24 53 82.5t31 135.5t22 166t28 175t48.5 161.5t82.5 126.5zM247 236q12 0 25.5 -2.5t25 -9t19.5 -16.5t8 -25q0 -14 -11 -20.5t-28 -8.5q-19 -1 -31 11.5t-10 24.5q3 11 7.5 17t18.5 11
l-22 1q-8 0 -18 -2.5t-19 -7t-15 -11.5t-6 -17q0 -11 8.5 -18t21 -12.5t27.5 -11t27.5 -14.5t21 -22t8.5 -34q0 -22 -11.5 -38.5t-28.5 -28t-37.5 -17t-39.5 -5.5q-16 0 -32 1.5t-29 7.5t-21 17.5t-8 30.5q0 18 15 29.5t32 11.5t28 -8t11 -27q0 -17 -12 -23.5t-23 -9.5
q1 -2 5.5 -3.5t11.5 -2.5t14 -1h13q20 0 38.5 12.5t18.5 35.5q0 3 -1 6t-2 5q-14 12 -32 18t-34 14t-27.5 20.5t-11.5 36.5q0 22 9 38t24 26.5t34 15.5t38 5z" />
    <glyph glyph-name="longs_longs_k" unicode="&#x17f;&#x17f;k" horiz-adv-x="616" 
d="M362 715q6 6 14 14.5t18 15.5t20 12t19 5q21 0 36 -12t15 -34q0 -19 -13 -32.5t-33 -13.5q-19 0 -35 16t-12 36q-37 -57 -54.5 -114t-26.5 -117.5t-15 -127.5t-20 -143q-6 -32 -12.5 -64.5t-15.5 -65.5t-22.5 -65.5t-32.5 -64.5q-9 -15 -21.5 -31.5t-27.5 -30.5t-33 -23
t-37 -9q-20 0 -35 10.5t-15 32.5q0 16 14 30t31 14q22 0 35.5 -11t8.5 -34q34 24 51.5 79.5t28 128t19 156.5t24.5 165.5t45.5 154t81.5 123.5zM229 755q6 6 14 14.5t18 15.5t20 12t19 5q21 0 36 -12t15 -34q0 -19 -13 -32.5t-33 -13.5q-19 0 -35 16t-12 36
q-37 -57 -56.5 -120t-31.5 -131.5t-20.5 -141.5t-22.5 -149q-6 -32 -12.5 -64.5t-15.5 -65.5t-22.5 -65.5t-32.5 -64.5q-9 -15 -21.5 -31.5t-27.5 -30.5t-33 -23t-37 -9q-20 0 -35 10.5t-15 32.5q0 16 14 30t31 14q22 0 35.5 -11t8.5 -34q34 24 53 82.5t31 135.5t22 166
t28 175t48.5 161.5t82.5 126.5zM494 656q20 21 48 31t57 1q11 -5 16.5 -15.5t7.5 -22.5q4 -26 -11 -38.5t-33 -12.5q-17 0 -29 9.5t-8 29.5q2 13 0.5 19.5t-12.5 -1.5q-20 -21 -34 -53t-23.5 -67t-16 -68.5t-11.5 -55.5l-52 -255q18 5 37 2t27 -9q6 9 12.5 24t17 30
t26.5 25.5t40 9.5q24 -2 34.5 -14t10.5 -33q2 -21 -11.5 -32.5t-30.5 -13.5q-18 -2 -32.5 11t-11.5 30q2 14 7.5 20.5t-5.5 4.5q-6 -1 -10.5 -10t-9.5 -21t-10.5 -25t-11.5 -22q9 -10 16 -27.5l14 -35t15.5 -31t20.5 -15.5q10 -1 19 6.5t16 18.5t12 22.5t8 18.5l15 -3
q-8 -23 -21 -45t-30 -36t-37.5 -17t-44.5 11q-22 17 -31 42.5t-16 51.5q-12 -8 -26 -10.5t-28 -1.5l-19 -83h-64q22 112 44.5 223.5t45.5 220.5q12 58 40.5 113t72.5 99zM379 101q25 -2 45 9q-2 14 -10 23t-25 10z" />
    <glyph glyph-name="longs_longs_t" unicode="&#x17f;&#x17f;t" horiz-adv-x="478" 
d="M229 755q6 6 14 14.5t18 15.5t20 12t19 5q21 0 36 -12t15 -34q0 -19 -13 -32.5t-33 -13.5q-19 0 -35 16t-12 36q-37 -57 -56.5 -120t-31.5 -131.5t-20.5 -141.5t-22.5 -149q-6 -32 -12.5 -64.5t-15.5 -65.5t-22.5 -65.5t-32.5 -64.5q-9 -15 -21.5 -31.5t-27.5 -30.5
t-33 -23t-37 -9q-20 0 -35 10.5t-15 32.5q0 16 14 30t31 14q22 0 35.5 -11t8.5 -34q34 24 53 82.5t31 135.5t22 166t28 175t48.5 161.5t82.5 126.5zM354 714q6 6 14 14.5t18 15.5t20 12t19 5q21 0 36 -12t15 -34q0 -19 -13 -32.5t-33 -13.5q-19 0 -35 16t-12 36
q-37 -57 -53 -113.5t-23.5 -117.5t-12.5 -127.5t-19 -142.5q-6 -32 -12.5 -64.5t-15.5 -65.5t-22.5 -65.5t-32.5 -64.5q-9 -15 -21.5 -31.5t-27.5 -30.5t-33 -23t-37 -9q-20 0 -35 10.5t-15 32.5q0 16 14 30t31 14q22 0 35.5 -11t8.5 -34q34 24 51 79.5t26.5 128t17 156
t22.5 165t44 154t81 123.5zM313 220h22l45 211l71 13l-47 -224h65l-6 -26h-64l-25 -127q-3 -32 2 -38.5t15.5 3t25 30t31.5 42.5l16 -13q-3 -9 -13.5 -24.5t-24.5 -31.5q-17 -21 -41 -35.5t-54 -10.5q-26 3 -29 22.5t5 54.5l24 128h-24z" />
    <glyph glyph-name="ff" unicode="ff" horiz-adv-x="357" 
d="M341 805q21 9 43.5 14.5t43.5 -5.5q11 -3 16 -13t10 -19q9 7 20 16t23 15t25 7t26 -6q15 -9 18 -24.5t-3 -30t-19 -23.5t-31 -4q-14 3 -23.5 16.5t-14.5 25.5q-21 -23 -35.5 -51.5t-23.5 -57.5q-15 -51 -28.5 -107t-25.5 -113.5t-23.5 -114.5t-21.5 -110h57l-3 -26h-58
q-6 -30 -11.5 -56t-12.5 -50t-16.5 -48.5t-24.5 -52.5q-14 -30 -35 -56.5t-50 -40.5q-33 -19 -68 -9q-7 6 -11.5 15t-5.5 18.5t2 18t12 14.5q13 12 26 14.5t23 -3.5t16.5 -18t8.5 -28q16 30 28.5 65.5t21.5 73t15.5 74.5t11.5 69h-91q-6 -29 -11.5 -53t-12.5 -46.5
t-15 -45.5t-18 -50q-17 -35 -41 -65.5t-59 -48.5q-12 -5 -28.5 -7t-30.5 3q-11 10 -13.5 24.5t2 27.5t15.5 21t27 5q18 0 26 -15.5t17 -27.5q16 30 27 65t18.5 71.5t13.5 72.5t13 69h-55l8 26h51q9 43 19.5 92t22.5 98.5t25.5 98t28.5 90.5q13 30 28.5 60.5t35 57.5t43 49.5
t52.5 38.5zM267 685q-22 -53 -37.5 -111t-27.5 -118.5t-22.5 -120.5t-20.5 -115h88q2 13 5.5 32t7 38.5t7.5 38.5t8 32q12 47 25.5 96t30.5 97t38.5 94t48.5 87q-19 -2 -30.5 2.5t-17.5 12.5t-7.5 19t-1.5 21q-35 -12 -57 -42.5t-37 -62.5z" />
    <glyph glyph-name="fi" unicode="fi" horiz-adv-x="351" 
d="M17 220h61q11 69 27.5 144.5t39 147.5t52.5 135t69 108q6 6 14 14.5t18 15.5t20 12t19 5q21 0 36 -12t15 -34q0 -19 -13 -32.5t-33 -13.5q-19 0 -35 16t-12 36q-37 -57 -59.5 -123.5t-37 -138t-25 -145t-22.5 -142.5q23 0 42 6t33.5 13.5t24.5 14t15 6.5q15 0 23.5 -1
t13.5 -6.5t6.5 -16.5t1.5 -32q0 -20 -8.5 -41t-18 -42.5t-18 -42.5t-8.5 -40q0 -4 1 -10.5t7 -6.5q8 0 15.5 5.5t13.5 13t11 16t8 13.5l19 -9q-16 -26 -35 -45.5t-51 -19.5q-21 0 -41 12t-20 34q0 17 11 44t22.5 54t19.5 49t2 29q-2 2 -7 0.5t-15.5 -5t-28 -6.5t-43.5 -4
q-6 -32 -13 -61t-16 -56.5t-20 -55t-26 -56.5q-8 -15 -19 -32.5t-24.5 -32.5t-30.5 -25t-36 -10q-20 0 -35 10.5t-15 32.5q0 16 14 30t31 14q22 0 35.5 -11t8.5 -34q18 11 28.5 36t18 61.5t13.5 84t15 104.5h-65zM301 394q-21 0 -32.5 13t-11.5 33q0 21 13 37t35 16
q20 0 34 -12.5t14 -32.5q0 -22 -14.5 -38t-37.5 -16z" />
    <glyph glyph-name="fl" unicode="fl" horiz-adv-x="373" 
d="M15 220h63q11 69 27.5 144.5t39 147.5t52.5 135t69 108q6 6 14 14.5t18 15.5t20 12t19 5q21 0 36 -12t15 -34q0 -19 -13 -32.5t-33 -13.5q-19 0 -35 16t-12 36q-37 -57 -59 -122.5t-36.5 -135.5t-25 -142.5t-22.5 -141.5h61l-6 -26h-60q-6 -32 -13 -61t-16 -56t-20 -54.5
t-26 -56.5q-8 -15 -19 -32.5t-24.5 -32.5t-30.5 -25t-36 -10q-20 0 -35 10.5t-15 32.5q0 16 14 30t31 14q22 0 35.5 -11t8.5 -34q18 11 28 36t17 61.5t13 84t15 104.5h-64zM294 121q-5 -21 -9 -40t-5 -33t2 -20.5t11 -1.5q14 4 27 23.5t21 35.5h19q-8 -20 -22 -41.5
t-31.5 -36.5t-36.5 -19t-37 11q-14 14 -18.5 31.5t-2.5 40t8.5 50.5t14.5 63l116 506h67z" />
    <glyph glyph-name="ffi" unicode="ffi" horiz-adv-x="527" 
d="M439 253q23 0 34 -18.5t11 -37.5q0 -20 -8.5 -41t-18 -42.5t-18 -42.5t-8.5 -40q0 -4 1 -10.5t7 -6.5q8 0 15.5 5.5t13.5 13t11 16t8 13.5l19 -9q-16 -26 -35 -45.5t-51 -19.5q-21 0 -41 12t-20 34q0 17 12 47.5t24.5 60t20 50.5t-1.5 18q-25 -8 -39 -11t-23 -4t-17 -1
h-22q-6 -30 -11.5 -56t-12.5 -50t-16.5 -48.5t-24.5 -52.5q-14 -30 -35 -56.5t-50 -40.5q-33 -19 -68 -9q-7 6 -11.5 15t-5.5 18.5t2 18t12 14.5q11 10 27.5 13.5t30 0t19.5 -15.5t-3 -33q16 30 28.5 65.5t21.5 73t15.5 74.5t11.5 69h-91q-6 -29 -11.5 -53t-12.5 -46.5
t-15 -45.5t-18 -50q-17 -35 -41 -65.5t-59 -48.5q-12 -5 -28.5 -7t-30.5 3q-11 10 -13.5 24.5t2 27.5t15.5 21t27 5q18 0 26 -15.5t17 -27.5q16 30 27 65t18.5 71.5t13.5 72.5t13 69h-55l8 26h51q9 43 19.5 92t22.5 98.5t25.5 98t28.5 90.5q13 30 28.5 60.5t35 57.5t43 49.5
t52.5 38.5q21 9 43.5 14.5t43.5 -5.5q11 -3 16 -13t10 -19q9 7 20 16t23 15t25 7t26 -6q15 -9 18 -24.5t-3 -30t-19 -23.5t-31 -4q-14 3 -23.5 16.5t-14.5 25.5q-21 -23 -35.5 -51.5t-23.5 -57.5q-15 -51 -28.5 -107t-25.5 -113.5t-23.5 -114.5t-21.5 -110q24 0 43 5
t34 11.5t26 11.5t19 5zM267 685q-22 -53 -37.5 -111t-27.5 -118.5t-22.5 -120.5t-20.5 -115h88q2 13 5.5 32t7 38.5t7.5 38.5t8 32l24 94t27 93t34.5 90.5t46.5 85.5q-23 9 -34.5 27.5t-11.5 38.5q-35 -12 -57 -42.5t-37 -62.5zM474 348q-21 0 -32.5 13t-11.5 33q0 21 13 37
t35 16q20 0 34 -12.5t14 -32.5q0 -22 -14.5 -38t-37.5 -16z" />
    <glyph glyph-name="ffl" unicode="ffl" horiz-adv-x="476" 
d="M387 121q-5 -21 -9 -40t-5 -33t2 -20.5t11 -1.5q14 4 27 23.5t21 35.5h19q-8 -20 -22 -41.5t-31.5 -36.5t-36.5 -19t-37 11q-14 14 -18.5 31.5t-2.5 40t8.5 50.5t14.5 63l2 11h-50q-6 -32 -13 -61t-16 -56t-20 -54.5t-26 -56.5q-8 -15 -19 -32.5t-24.5 -32.5t-30.5 -25
t-36 -10q-20 0 -35 10.5t-15 32.5q0 16 14 30t31 14q22 0 35.5 -11t8.5 -34q18 11 28 35.5t17 61t13 84t15 104.5h-60q-6 -32 -13 -61t-16 -56t-20 -54.5t-26 -56.5q-8 -15 -19 -32.5t-24.5 -32.5t-30.5 -25t-36 -10q-20 0 -35 10.5t-15 32.5q0 16 14 30t31 14
q22 0 35.5 -11t8.5 -34q18 11 28 36t17 61.5t13 84t15 104.5h-64l5 26h63q11 69 27.5 144.5t39 147.5t52.5 135t69 108q6 6 14 14.5t18 15.5t20 12t19 5q21 0 36 -12t15 -34q0 -11 -4 -18l15 18q6 6 14 14.5t18 15.5t20 12t19 5q21 0 36 -12t15 -34q0 -19 -13 -32.5
t-33 -13.5q-19 0 -35 16t-12 36q-37 -57 -59 -122.5t-36.5 -135.5t-25 -142.5t-22.5 -141.5h51l108 469h67zM342 710q-19 0 -35 16t-12 36q-37 -57 -59 -122.5t-36.5 -135.5t-25 -142t-22.5 -141h59q10 63 24.5 131.5t34 134.5t45 126.5t57.5 107.5q-13 -11 -30 -11z" />
    <glyph glyph-name="longs_t" unicode="&#x17f;t" horiz-adv-x="322" 
d="M229 755q6 6 14 14.5t18 15.5t20 12t19 5q21 0 36 -12t15 -34q0 -19 -13 -32.5t-33 -13.5q-19 0 -35 16t-12 36q-37 -57 -56.5 -120t-31.5 -131.5t-20.5 -141.5t-22.5 -149q-6 -32 -12.5 -64.5t-15.5 -65.5t-22.5 -65.5t-32.5 -64.5q-9 -15 -21.5 -31.5t-27.5 -30.5
t-33 -23t-37 -9q-20 0 -35 10.5t-15 32.5q0 16 14 30t31 14q22 0 35.5 -11t8.5 -34q34 24 53 82.5t31 135.5t22 166t28 175t48.5 161.5t82.5 126.5zM151 220h25l45 211l71 13l-47 -224h65l-6 -26h-64l-25 -127q-3 -32 2 -38.5t15.5 3t25 30t31.5 42.5l16 -13
q-3 -9 -13.5 -24.5t-24.5 -31.5q-17 -21 -41 -35.5t-54 -10.5q-26 3 -29 22.5t5 54.5l24 128h-27z" />
    <glyph glyph-name="f_f_j" unicode="ffj" horiz-adv-x="501" 
d="M417 -12q-8 -29 -20 -53.5t-29.5 -42.5t-41.5 -28t-57 -10q-10 0 -20.5 3.5t-19.5 9.5t-14.5 14t-5.5 17q0 17 13 31.5t30 14.5q23 0 32.5 -17t2.5 -36q-1 -12 7 -14.5t18 3t18.5 17.5t10.5 30q4 56 19.5 108t30.5 92t24 62.5t1 20.5q-27 -8 -41 -11t-23 -4t-17 -0.5
t-22 -0.5q-12 -61 -29 -110.5t-46 -105.5q-14 -30 -35 -56.5t-50 -40.5q-33 -19 -68 -9q-7 6 -11.5 15t-5.5 18.5t2 18t12 14.5q11 10 26.5 13.5t28 -0.5t19 -16t0.5 -32q16 30 28.5 65.5t21.5 73t15.5 74.5t11.5 69l-81 9q-6 -29 -11.5 -53t-12.5 -46.5t-15 -45.5t-18 -50
q-17 -35 -41 -65.5t-59 -48.5q-12 -5 -28.5 -7t-30.5 3q-19 9 -19.5 24.5t7.5 30.5q6 12 17.5 19t25.5 4q18 0 26 -15.5t17 -27.5q16 30 27 65t18.5 71.5t13.5 72.5t13 69h-55l8 26h51q9 43 19.5 92t22.5 98.5t25.5 98t28.5 90.5q13 30 28.5 60.5t35 57.5t43 49.5t52.5 38.5
q21 9 43.5 14.5t43.5 -5.5q11 -3 16 -13t10 -19q9 7 20 16t23 15t25 7t26 -6q15 -9 18 -24.5t-3 -30t-19 -23.5t-31 -4q-14 3 -23.5 16.5t-14.5 25.5q-21 -23 -35.5 -51.5t-23.5 -57.5q-15 -51 -28.5 -107t-25.5 -113.5t-23.5 -114.5t-21.5 -110q31 0 51.5 5.5t34.5 11.5
t22.5 11t15.5 5q23 0 34 -18.5t11 -37.5q0 -27 -7 -53.5t-17.5 -52.5t-22.5 -51.5t-22 -51.5zM267 685q-22 -53 -37.5 -111t-27.5 -118.5t-22.5 -120.5t-20.5 -115h88q2 13 5.5 32t7 38.5t7.5 38.5t8 32l24 94t27 93t34.5 90.5t46.5 85.5q-23 9 -34.5 27.5t-11.5 38.5
q-35 -12 -57 -42.5t-37 -62.5zM557 449q0 -26 -14 -39t-31.5 -13.5t-31.5 11.5t-14 37q0 23 14 35t31.5 12.5t31.5 -10t14 -33.5z" />
    <glyph glyph-name="S_h" unicode="Sh" horiz-adv-x="1018" 
d="M875 772q14 0 28.5 -3t26 -10.5t18.5 -19.5t7 -29q0 -30 -18 -46t-48 -16q-15 0 -28.5 14t-13.5 29q0 14 5.5 27.5t10.5 27.5l-12 2q-46 0 -69.5 -34.5t-37 -91.5t-21.5 -129.5t-22 -148.5t-39.5 -148.5t-74 -129.5t-125.5 -91.5t-194 -34.5q-40 0 -85.5 8.5t-84.5 29
t-64.5 54t-25.5 83.5q0 49 26 90.5t66 71.5t88.5 46.5t93.5 16.5q27 0 61 -8t64.5 -23.5t51.5 -39.5t21 -57q0 -28 -13 -47t-33 -31t-44 -18.5t-47 -8.5l-3 19q19 5 40.5 9.5t39 13.5t29 25t11.5 43q0 24 -13.5 40.5t-33.5 26t-43 14t-42 4.5q-40 0 -91.5 -12t-97.5 -36
t-77.5 -60.5t-31.5 -85.5q0 -48 29.5 -75.5t72 -41.5t89 -17.5t81.5 -3.5q83 0 136.5 26t87.5 70t52 102t29.5 122.5t22 131t28.5 127.5t48 112t82 85q40 26 87 26zM800 126q9 16 23 35.5t32 36.5t39 29t43 12q19 0 27 -10.5t8.5 -28t-4.5 -38.5t-11 -42.5t-11 -40.5t-5 -31
q0 -1 1 -7t10 -6q19 0 28.5 11t17.5 22l8 -12q-13 -25 -38.5 -40.5t-57.5 -15.5q-20 0 -28 11.5t-9 29.5t4 40t11 43t11 39.5t5 28.5q0 2 -0.5 7t-5.5 5q-13 0 -26 -12t-26 -31t-25.5 -42.5t-22.5 -46t-17.5 -42t-11.5 -29.5h-63q16 87 34 162t36.5 147.5t37 147.5t36.5 161
h69z" />
    <glyph glyph-name="S_k" unicode="Sk" horiz-adv-x="1011" 
d="M878 603q20 21 48 31t57 1q11 -5 16.5 -15.5t7.5 -22.5q4 -26 -11 -38.5t-33 -12.5q-17 0 -29 9.5t-8 29.5q2 13 0.5 19.5t-12.5 -1.5q-20 -21 -34 -53t-23.5 -67t-16 -68.5t-11.5 -55.5l-41 -202q18 5 37 2t27 -9q6 9 12.5 24t17 30t26.5 25.5t40 9.5q24 -2 34.5 -14
t10.5 -33q2 -21 -11.5 -32.5t-30.5 -13.5q-18 -2 -32.5 11t-11.5 30q2 14 7.5 20.5t-5.5 4.5q-6 -1 -10.5 -10t-9.5 -21t-10.5 -25t-11.5 -22q9 -10 16 -27.5l14 -35t15.5 -31t20.5 -15.5q10 -1 19 6.5t16 18.5t12 22.5t8 18.5l15 -3q-8 -23 -21 -45t-30 -36t-37.5 -17
t-44.5 11q-22 17 -31 42.5t-16 51.5q-12 -8 -26 -10.5t-28 -1.5l-19 -83h-64q11 55 20.5 103t18.5 94t19 93t21 101q12 58 40.5 113t72.5 99zM774 101q25 -2 45 9q-2 14 -10 23t-25 10zM875 772q14 0 28.5 -3t26 -10.5t18.5 -19.5t7 -29q0 -30 -18 -46t-48 -16
q-15 0 -28.5 14t-13.5 29q0 14 5.5 27.5t10.5 27.5l-12 2q-46 0 -69.5 -34.5t-37 -91.5t-21.5 -129.5t-22 -148.5t-39.5 -148.5t-74 -129.5t-125.5 -91.5t-194 -34.5q-40 0 -85.5 8.5t-84.5 29t-64.5 54t-25.5 83.5q0 49 26 90.5t66 71.5t88.5 46.5t93.5 16.5q27 0 61 -8
t64.5 -23.5t51.5 -39.5t21 -57q0 -28 -13 -47t-33 -31t-44 -18.5t-47 -8.5l-3 19q19 5 40.5 9.5t39 13.5t29 25t11.5 43q0 24 -13.5 40.5t-33.5 26t-43 14t-42 4.5q-40 0 -91.5 -12t-97.5 -36t-77.5 -60.5t-31.5 -85.5q0 -48 30.5 -76.5t74 -44t91 -20.5t82.5 -5
q76 0 126 26.5t82.5 71.5t51.5 104.5t32.5 125t26 132.5t31.5 128.5t49.5 112.5t80.5 83q40 26 87 26z" />
    <glyph glyph-name="S_c_h" unicode="Sch" horiz-adv-x="1228" 
d="M681 91q0 35 12.5 63.5t34 48.5t51 30t63.5 7q-50 24 -51 57t56 78q22 17 44 29t42.5 25t40.5 30.5t38 46.5t34 73.5t29 110.5h69l-134 -564q9 16 23 35.5t32 36.5t39 29t43 12q19 0 27 -10.5t8.5 -28t-4.5 -38.5t-11 -42.5t-11 -40.5t-5 -31q0 -1 1 -7t10 -6
q19 0 28.5 11t17.5 22l8 -12q-13 -25 -38.5 -40.5t-57.5 -15.5q-20 0 -28 11.5t-9 29.5t4 40t11 43t11 39.5t5 28.5q0 2 -0.5 7t-5.5 5q-13 0 -26 -12t-26 -31t-25.5 -42.5t-22.5 -46t-17.5 -42t-11.5 -29.5h-63q13 69 30 139.5t35.5 141t37 140.5t34.5 138
q-23 -52 -45.5 -82t-44.5 -48.5t-41.5 -30.5t-35.5 -27q-32 -30 -43 -50.5t-9.5 -35.5t12.5 -26t23.5 -22t22.5 -23.5t10 -29.5q0 -18 -10.5 -35.5t-31.5 -17.5q-15 0 -28.5 12t-13.5 28q0 14 7.5 28t12.5 26q-20 -4 -35 -16t-25.5 -29t-16 -37t-5.5 -38q0 -12 2.5 -26
t8.5 -26t16 -20t25 -8q24 0 41.5 15.5t35.5 29.5q1 1 5.5 -4.5t6.5 -6.5q-23 -28 -55 -47.5t-70 -19.5q-44 0 -67.5 27.5t-23.5 70.5zM875 772q14 0 28.5 -3t26 -10.5t18.5 -19.5t7 -29q0 -30 -18 -46t-48 -16q-15 0 -28.5 14t-13.5 29q0 14 5.5 27.5t10.5 27.5l-12 2
q-37 0 -58.5 -22.5t-34.5 -61.5t-20 -91t-13.5 -110t-16 -120t-27.5 -120t-47.5 -110t-76.5 -91t-114.5 -61.5t-160.5 -22.5q-40 0 -88 9t-89 29.5t-69 54.5t-28 84q0 49 26 90.5t66 71.5t88.5 46.5t93.5 16.5q27 0 61 -8t64.5 -23.5t51.5 -39.5t21 -57q0 -28 -13 -47
t-33 -31t-44 -18.5t-47 -8.5l-3 19q19 5 40.5 9.5t39 13.5t29 25t11.5 43q0 24 -13.5 40.5t-33.5 26t-43 14t-42 4.5q-40 0 -91.5 -12t-97.5 -36t-77.5 -60.5t-31.5 -85.5q0 -48 30.5 -76.5t74 -44t91 -20.5t82.5 -5q80 0 132.5 26.5t85.5 71.5t51.5 104.5t31 125
t23.5 132.5t29 128.5t47.5 112.5t79.5 83q40 26 87 26z" />
    <glyph glyph-name=".notdef" horiz-adv-x="175" 
 />
    <glyph glyph-name=".null" horiz-adv-x="0" 
 />
    <glyph glyph-name="nonmarkingreturn" horiz-adv-x="333" 
 />
    <glyph glyph-name="space" unicode=" " horiz-adv-x="175" 
 />
    <glyph glyph-name="exclam" unicode="!" horiz-adv-x="222" 
d="M108 536q27 7 51.5 21t50.5 23q-12 -51 -28.5 -101t-34 -100t-34 -100t-28.5 -101h-15q8 62 14 122.5t12 123.5q3 28 5 56.5t7 55.5zM58 92q17 0 29.5 -12.5t12.5 -29.5q0 -20 -15 -35t-35 -15q-18 0 -30 14t-12 32q0 20 15 33t35 13z" />
    <glyph glyph-name="quotedbl" unicode="&#x22;" horiz-adv-x="254" 
d="M209 454q-4 0 -4 7l-1 17q-1 8 -1 46q0 30 2 40q0 11 4 16q4 3 14 7l14 5q7 2 9 3q3 1 4 1.5t2 0.5q7 3 11 3q8 0 8 -7q0 -9 -10 -42l-7 -25q-17 -59 -23 -65q-7 -7 -22 -7zM130 454q-5 0 -5 7v17q-1 8 -1 46q0 30 1 40q1 11 5 16q4 3 14 7l14 5q7 2 9 3q3 1 4 1.5t2 0.5
q7 3 11 3q7 0 7 -7q0 -9 -9 -42l-7 -25q-17 -59 -23 -65q-7 -7 -22 -7z" />
    <glyph glyph-name="numbersign" unicode="#" horiz-adv-x="441" 
d="M441 367h-85l-39 -132h78l-11 -53h-82l-50 -168h-37l48 168h-105l-49 -168h-38l49 168h-90l12 53h94l40 132h-89l12 53h92l44 149h38l-45 -149h104l44 149h38l-43 -149h81zM214 367l-39 -132h103l39 132h-103z" />
    <glyph glyph-name="dollar" unicode="$" horiz-adv-x="466" 
d="M170 33l4 18l13 71l14 75l13 72q8 45 12 64l3 19l-11 7q-9 7 -28 20q-16 13 -23 19t-19 18q-9 9 -11 12q-26 32 -26 65t20 69t52 59q41 30 97 39l3 19l5 28q4 23 12 32q9 11 35 23q15 7 18 9l2 1l2 1q15 7 20 7q6 0 6 -6q0 -2 -4 -6q-11 -9 -16 -25q-6 -19 -15 -66
l-3 -13q46 -3 77 -21t31 -41q0 -11 -21 -43l-15 -21q-6 -12 -12 -12q-8 0 -8 7q0 1 1 4q5 13 5 23q0 21 -18 39q-18 17 -48 26l-3 -19l-12 -61l-13 -70l-14 -73l-3 -14l20 -13q71 -49 100 -83q27 -34 27 -77q0 -53 -29 -102q-30 -50 -79 -83q-50 -33 -109 -42l-2 -14
q-9 -51 -12 -65q-3 -15 -11 -24q-14 -15 -45 -31q-18 -8 -24 -8t-6 5q0 1 3 7q11 15 16 32q6 21 14 64l5 23l2 10q-68 6 -111 41q-44 34 -44 81q0 37 36 78q20 21 27 21q5 0 5 -5q0 -3 -3 -7q-16 -20 -16 -49q0 -40 30 -70t84 -44zM230 38l-2 -13h4q44 0 80 19q36 18 57 51
q20 32 20 72q0 41 -21 70q-22 30 -84 75l-5 4l-3 -12l-9 -54l-13 -68l-12 -71q-6 -37 -12 -73zM273 622l2 8q-32 -3 -59 -16q-25 -13 -39 -33t-14 -45q0 -32 17 -56q16 -24 62 -57l3 19l10 60q2 13 3 20t2 11q2 12 4 28z" />
    <glyph glyph-name="percent" unicode="%" horiz-adv-x="707" 
d="M166 -23l-27 24l447 605l29 -23zM352 459q0 -35 -11.5 -72.5t-33.5 -69t-52.5 -52t-67.5 -20.5q-26 0 -45 10.5t-31.5 28t-18.5 41t-6 49.5q0 34 11.5 71.5t33 69t52.5 52t69 20.5q26 0 45 -10.5t31 -28t18 -40.5t6 -48v-1zM292 485q0 13 -1.5 26.5t-6.5 23.5t-14 16.5
t-24 6.5q-27 0 -46 -23.5t-31 -55.5t-17.5 -65.5t-5.5 -54.5q0 -14 1.5 -28.5t6 -26.5t14 -20t24.5 -8q28 0 47 25t31 59t17 69t5 55v1zM666 202q0 -34 -11.5 -71.5t-33.5 -69t-52.5 -52t-68.5 -20.5q-26 0 -44.5 10.5t-30.5 28t-18 40.5t-6 49q0 34 11.5 72t32.5 69
t51.5 51.5t68.5 20.5q27 0 46 -10.5t31 -28t18 -40.5t6 -48v-1zM607 228q0 27 -9.5 50t-37.5 23q-27 0 -46 -23.5t-31 -55.5t-17.5 -65.5t-5.5 -54.5q0 -14 1.5 -28.5t6 -27t13.5 -20.5t25 -8q28 0 47.5 25t31.5 59t17 69.5t5 55.5v1z" />
    <glyph glyph-name="ampersand" unicode="&#x26;" horiz-adv-x="912" 
d="M474 778q95 0 172 -32.5t131 -89.5t83.5 -136t29.5 -172q0 -76 -20.5 -144.5t-61.5 -120.5t-102 -82.5t-142 -30.5q-37 0 -70.5 17t-59.5 42q-46 -27 -96.5 -42t-104.5 -15q-45 0 -86.5 8t-73 28t-50.5 54.5t-19 88.5q0 48 25 91.5t63 70.5q-25 61 -25 124q0 85 35 149
t92 107t130 64t150 21zM91 444q0 -31 5 -60.5t14 -58.5q45 17 90 35.5t93 27.5q5 37 18 84t36 89t57 71t82 29q40 0 56 -21t16 -59q0 -40 -18.5 -70t-47 -52.5t-62.5 -39.5t-65 -31q9 -47 19 -85t24 -73t33.5 -69t48.5 -73q22 16 42.5 36.5t37 44.5t27.5 50.5t13 55.5
q-9 -11 -23 -16t-28 -5q-29 0 -44.5 17t-15.5 46q0 32 22.5 53t53.5 21q18 0 31.5 -7t22.5 -19t14 -27t5 -31q0 -32 -13 -65t-33.5 -64.5t-45 -59t-47.5 -46.5q32 -24 68 -43t78 -19q52 0 91 33t64.5 81t38.5 102.5t13 96.5q0 90 -25 168.5t-74.5 137t-122 92.5t-167.5 34
q-71 0 -139.5 -19t-122.5 -58t-87 -97.5t-33 -136.5zM212 193q-26 12 -49.5 30.5t-40.5 42.5q-11 -26 -21 -53t-10 -56q0 -32 13.5 -61t36 -51.5t51.5 -36t60 -13.5q45 0 85.5 16.5t81.5 32.5q-27 33 -49.5 71.5t-39.5 79.5t-26.5 84.5t-9.5 86.5q-44 -12 -84.5 -30
t-75.5 -49q14 -27 39.5 -43t48.5 -34zM365 454v-42q27 9 56 24t53 35.5t39.5 47.5t15.5 61q0 10 -2 20.5t-6.5 19.5t-12.5 14.5t-20 5.5q-35 0 -58.5 -19t-38 -47t-20.5 -60.5t-6 -59.5z" />
    <glyph glyph-name="quotesingle" unicode="'" horiz-adv-x="116" 
d="M56 716q27 0 37.5 -13.5t10.5 -38.5q0 -42 -27 -76.5t-65 -48.5v19q27 12 45 35.5t29 49.5q-9 -2 -17 -4t-17 -2q-15 0 -26.5 11.5t-11.5 25.5q0 18 12 30t30 12z" />
    <glyph glyph-name="parenleft" unicode="(" horiz-adv-x="348" 
d="M294 731q13 0 26.5 -5.5t13.5 -21.5q0 -9 -6.5 -17t-14.5 -11q-12 -2 -21 -1t-15 4.5t-10.5 8l-8.5 8.5q-3 2 -5.5 3t-6.5 1q-9 0 -18 -5.5t-17 -10.5q-17 -21 -34.5 -62.5t-34 -94t-31 -111.5t-25 -114t-16.5 -102t-6 -75q0 -26 6 -51.5t21 -48.5q13 0 25.5 3t25.5 3
q11 0 20.5 -5.5t9.5 -18.5q0 -9 -5 -17t-13 -12q-45 0 -72.5 28t-43.5 68.5t-21.5 85t-5.5 78.5q0 38 7.5 89t23 106t39 108.5t55 95.5t71 68t87.5 26z" />
    <glyph glyph-name="parenright" unicode=")" horiz-adv-x="348" 
d="M50 -22q-12 0 -25.5 5.5t-13.5 21.5q0 9 6 17t14 12q13 2 21.5 0.5t15 -5t10.5 -8t8 -8.5q6 -3 12 -3q9 0 18 5t17 10q17 21 35 62.5t34.5 94t31 111.5t25 114t16.5 101.5t6 75.5q0 26 -6 51.5t-22 48.5q-13 0 -25 -3t-25 -3q-12 0 -21 5.5t-9 18.5q0 9 5 17t13 12
q45 0 72.5 -28t43.5 -68t21.5 -84.5t5.5 -78.5q0 -38 -7.5 -89.5t-23.5 -106.5t-39 -108t-55 -95.5t-71.5 -68.5t-87.5 -26z" />
    <glyph glyph-name="asterisk" unicode="*" horiz-adv-x="293" 
d="M308 575l-24 -31l-55 3l47 -52l-18 -30l-45 60l-13 -70l-30 -18l18 91l-77 -66l1 37l63 45l-89 -2l21 26l68 2l-41 51l19 24l44 -57l11 68l33 18l-21 -86l66 58v-35l-53 -42z" />
    <glyph glyph-name="plus" unicode="+" horiz-adv-x="560" 
d="M320 218v-218h-53v218h-199v47h199v197h53v-197h200v-47h-200z" />
    <glyph glyph-name="comma" unicode="," horiz-adv-x="143" 
d="M24 58q0 18 14.5 33t33.5 15q27 0 40 -12.5t13 -41.5q0 -27 -11 -50t-29 -41.5t-40.5 -33t-44.5 -24.5l-4 19q13 9 26.5 18.5t26 20t22 23t15.5 28.5q-11 0 -22 2t-20 7t-14.5 14t-5.5 23z" />
    <glyph glyph-name="hyphen" unicode="-" horiz-adv-x="196" 
d="M35 186h149l-21 -48l-149 -1z" />
    <glyph glyph-name="period" unicode="." horiz-adv-x="125" 
d="M56 102q22 0 35 -13.5t13 -35.5t-14.5 -38t-37.5 -16q-22 0 -35 13t-13 35q0 23 14.5 39t37.5 16z" />
    <glyph glyph-name="slash" unicode="/" horiz-adv-x="340" 
d="M397 792q-57 -144 -114 -287t-100 -294q-20 -73 -43.5 -148t-54.5 -144q-9 -20 -30.5 -32.5t-41.5 -18.5l-3 4q23 40 38.5 86t31.5 89q44 119 84.5 237.5t81.5 238.5q22 63 41.5 128t48.5 125q24 15 53 23z" />
    <glyph glyph-name="zero" unicode="0" horiz-adv-x="337" 
d="M203 343q31 0 54 -11t38 -30t22 -44.5t7 -53.5q0 -38 -11.5 -76t-33.5 -68t-54.5 -48.5t-74.5 -18.5q-35 0 -61 12t-43 33t-26 49t-9 61q0 43 14 78.5t39 61.5t60.5 40.5t78.5 14.5zM200 326q-23 0 -43.5 -17t-36 -42t-25 -52t-9.5 -47t2.5 -46.5t11 -50.5t25 -40.5
t44.5 -16.5q33 0 56.5 20t39 49t22.5 62t7 60q0 22 -5 43.5t-16 39t-29 28t-44 10.5z" />
    <glyph glyph-name="one" unicode="1" horiz-adv-x="206" 
d="M195 346q-15 -83 -32.5 -161.5t-34.5 -160.5l53 -1q0 -5 -3 -9.5t-5 -11.5q-42 3 -90.5 2.5t-89.5 -3.5l7 24l47 1q11 57 26.5 124t24.5 126q-18 -8 -36.5 -19.5t-37.5 -14.5l2 22q13 4 29.5 15t34.5 23.5t37 25t37 20.5z" />
    <glyph glyph-name="two" unicode="2" 
d="M182 347q44 0 71.5 -23t27.5 -70q0 -35 -16 -61t-40 -47.5t-51.5 -39t-51.5 -35.5q11 -1 20.5 -1h19.5l85 1q13 0 19 8.5t10.5 18.5t10 18.5t17.5 8.5h6q-9 -32 -24 -62.5t-23 -62.5h-258q0 11 14.5 23.5t36.5 28t47.5 34.5t47.5 41.5t36.5 49.5t14.5 59q0 26 -16.5 45.5
t-45.5 19.5q-22 0 -39 -9.5t-29 -25t-18 -35.5t-6 -40q0 -23 6.5 -44.5t9.5 -44.5h-16q-10 20 -15 42.5t-5 45.5q0 32 11.5 60.5t32.5 50t49 34t61 12.5z" />
    <glyph glyph-name="three" unicode="3" horiz-adv-x="310" 
d="M80 223q-2 36 9 61t30.5 40.5t45.5 22.5t55 7q33 0 56 -24t23 -56q0 -41 -19.5 -71t-53.5 -48q23 -27 34.5 -49.5t11.5 -58.5t-15.5 -64.5t-40.5 -48.5t-56.5 -30.5t-64.5 -10.5q-16 0 -32 4t-29 12.5t-21.5 22t-8.5 31.5q0 27 14.5 39t40.5 12q16 0 26.5 -15.5
t10.5 -29.5q0 -12 -10 -26.5t-18 -22.5q13 -6 28 -6q22 0 40 12t30.5 30t19 39.5t6.5 41.5q0 45 -23 82q-23 -15 -61 -15q-7 0 -19.5 1t-24.5 5t-21 10.5t-9 17.5q0 13 9 21.5t22 14t27 8t24 2.5q22 0 43 -4t41 -11q11 16 19.5 31.5t8.5 34.5q0 30 -12 52.5t-47 22.5
q-17 0 -30 -8t-23 -20.5t-15 -28t-5 -30.5h-16zM65 150q-2 -3 -6 -5t0 -7q5 -6 16 -8.5t16 -2.5q14 0 32 2.5t31 7.5q-12 10 -28.5 14t-31.5 4q-8 0 -15 -1.5t-14 -3.5z" />
    <glyph glyph-name="four" unicode="4" horiz-adv-x="355" 
d="M266 325q12 12 23 21.5t28 9.5q-8 -17 -17.5 -49t-19.5 -70.5t-18.5 -80.5t-14.5 -78q6 1 13 1t13 1.5t11.5 5.5t9.5 14q8 14 12.5 28.5t6.5 28.5q5 0 11 -2t8 -5q-5 -32 -13 -65t-6 -68q0 -5 -8 -11t-17 -8q1 9 1.5 13t1 7t0.5 7.5t-1 15.5q-6 17 -18.5 17.5t-29.5 -2.5
q-5 -32 -12.5 -62t-9.5 -62q14 -3 26.5 -6.5t27.5 -5.5q0 -8 -8 -16q-47 0 -93 1.5t-94 -1.5v16q7 3 15.5 3.5t16 2t13.5 5.5t9 13q9 26 17 54.5t13 57.5l-162 -3q5 26 21 43t33 35q51 50 106 97t105 97zM166 77l38 163q-45 -39 -88 -79.5t-84 -84.5z" />
    <glyph glyph-name="five" unicode="5" horiz-adv-x="346" 
d="M97 367q54 -14 112.5 -15t114.5 19q0 -15 -6.5 -26.5t-17 -20.5t-23 -15.5t-24.5 -10.5q-38 -12 -75 -12.5t-78 7.5q-2 -16 -6.5 -32.5t-11.5 -30.5q40 16 77 12t67 -21.5t50 -46t26 -61.5t-5 -67.5t-44 -64.5q-32 -35 -78 -50t-93 -13q-15 0 -31.5 4.5t-27.5 16.5
q-14 14 -18.5 38.5t7.5 42.5q8 12 25.5 15.5t32.5 0.5q15 -6 22.5 -23.5t4.5 -35.5q-5 -11 -13 -20.5t-14 -17.5q21 -3 42.5 0t41 12.5t34.5 25t22 35.5q4 15 7.5 32t2.5 34t-7 32t-19 27q-20 15 -47 20.5t-53 3.5q-17 -1 -30.5 -7.5t-25.5 -13.5q17 54 31.5 111.5
t27.5 115.5z" />
    <glyph glyph-name="six" unicode="6" horiz-adv-x="322" 
d="M289 448l7 -20q-49 -8 -79 -16.5t-49.5 -25.5t-32.5 -45.5t-29 -75.5q20 17 45 27t51 10q54 0 75 -31.5t21 -82.5q0 -35 -13.5 -71t-37.5 -65t-57 -47t-71 -18q-29 0 -51 16t-37 40t-22.5 52t-7.5 53q0 61 22.5 113.5t61.5 92t91.5 64t112.5 30.5zM66 73
q0 -25 14.5 -45.5t41.5 -20.5q28 0 46.5 21t29.5 50.5t15 61.5t4 54q0 13 -2 27.5t-7.5 26.5t-16 19.5t-27.5 7.5q-29 0 -48 -23.5t-30 -56t-15.5 -66.5t-4.5 -56z" />
    <glyph glyph-name="seven" unicode="7" horiz-adv-x="305" 
d="M44 336q48 -5 96 -8t96 -3q20 0 39 2.5t39 4.5q-25 -40 -58 -82.5t-64.5 -86.5t-57.5 -89.5t-38 -90.5q18 10 32 10q23 0 34 -17t11 -37q0 -19 -14.5 -34t-33.5 -15q-14 0 -24 6.5t-17 16.5t-10 22t-3 24q0 37 17 76t41 76.5t51 72t48 63.5q-44 0 -86.5 3.5t-85.5 3.5
q-10 0 -19 -3q-5 -8 -6.5 -15.5t-5.5 -15.5l-19 3l20 56t18 57z" />
    <glyph glyph-name="eight" unicode="8" horiz-adv-x="323" 
d="M205 439q19 0 37 -6t32 -17t22.5 -28.5t8.5 -39.5q0 -35 -22 -61t-54 -37q15 -13 27.5 -24.5t22 -24t14.5 -28t5 -36.5q0 -38 -13.5 -66t-37 -46t-55 -27t-67.5 -9q-51 0 -84.5 30t-33.5 82q0 56 31.5 89.5t81.5 50.5q-17 21 -26.5 40.5t-9.5 47.5q0 25 10 45t27 34.5
t38.5 22.5t45.5 8zM31 104q0 -44 30 -68t72 -24t71 26t29 69q0 21 -10.5 37.5t-26 30.5t-33 26.5t-30.5 25.5q-21 -11 -39.5 -20.5t-32.5 -23t-22 -32.5t-8 -47zM212 266q41 10 58 35.5t14 52.5t-24.5 47.5t-55.5 20.5q-24 0 -44 -17.5t-20 -43.5q0 -9 7.5 -22.5t18.5 -27.5
t23.5 -26.5t22.5 -18.5z" />
    <glyph glyph-name="nine" unicode="9" horiz-adv-x="331" 
d="M185 359q30 0 54.5 -14t41.5 -36.5t26 -50t9 -55.5q0 -61 -25.5 -115.5t-68.5 -96.5t-98 -68.5t-113 -30.5l-4 19q49 10 80.5 21.5t52.5 30.5t35.5 49.5t29.5 78.5q-11 -9 -20.5 -17.5t-20 -15t-23 -10.5t-28.5 -4q-26 0 -45 11.5t-32 30t-19 41t-6 45.5q0 38 12.5 72
t35 59.5t55 40.5t71.5 15zM88 154q0 -11 1 -25.5t5 -27t12.5 -21.5t24.5 -9q30 0 51 21.5t33.5 52.5t18 64t5.5 56q0 32 -11.5 54.5t-48.5 22.5q-26 0 -43.5 -22t-28 -52t-15 -62t-4.5 -52z" />
    <glyph glyph-name="colon" unicode=":" horiz-adv-x="145" 
d="M73 250q19 0 33 -14.5t14 -33.5q0 -18 -15.5 -34.5t-32.5 -16.5q-20 0 -33.5 12.5t-13.5 32.5q0 18 14 36t34 18zM55 100q18 0 32 -13.5t14 -32.5q0 -20 -14.5 -37.5t-36.5 -17.5q-20 0 -31.5 14.5t-11.5 33.5q0 22 12.5 37.5t35.5 15.5z" />
    <glyph glyph-name="semicolon" unicode=";" horiz-adv-x="174" 
d="M106 221q19 0 31.5 -13.5t12.5 -32.5q0 -20 -12.5 -36.5t-34.5 -16.5q-20 0 -31.5 14.5t-11.5 33.5q0 20 12.5 35.5t33.5 15.5zM29 49q0 19 14.5 33.5t33.5 14.5t33 -14.5t14 -30.5q0 -58 -34 -96.5t-85 -61.5l-4 20q26 11 52.5 33.5t37.5 56.5q-11 0 -22 2t-20 7
t-14.5 13.5t-5.5 22.5z" />
    <glyph glyph-name="less" unicode="&#x3c;" horiz-adv-x="557" 
d="M59 220v41l427 220v-51l-371 -189v-1l371 -189v-51z" />
    <glyph glyph-name="equal" unicode="=" horiz-adv-x="328" 
d="M34 110l-4 3q18 24 35.5 33.5t38.5 12t46.5 0.5t58.5 -2q24 0 43 2t42 8l6 -4q-5 -10 -18.5 -22.5t-25.5 -20.5q-16 -3 -36 -4t-41 -1t-41.5 1t-37.5 1q-19 0 -34.5 -3t-31.5 -4zM44 210l-4 3q18 24 35.5 33.5t38.5 12t46.5 0.5t58.5 -2q24 0 43 2t42 8l6 -4
q-5 -10 -18.5 -22.5t-25.5 -20.5q-16 -3 -36 -4t-41 -1t-41.5 1t-37.5 1q-19 0 -34.5 -3t-31.5 -4z" />
    <glyph glyph-name="greater" unicode="&#x3e;" horiz-adv-x="557" 
d="M91 0v51l371 189v1l-371 189v51l425 -220v-41z" />
    <glyph glyph-name="question" unicode="?" horiz-adv-x="310" 
d="M181 586q22 0 42.5 -7.5t36.5 -21t26 -32t10 -41.5q0 -45 -12.5 -74.5t-33 -52t-45 -41t-49 -40t-45.5 -49.5t-33 -69h-19q5 32 18.5 57t31.5 47.5t38 43t36.5 43.5t27 50t10.5 61q0 36 -26.5 60.5t-62.5 24.5q-25 0 -44 -15.5t-31.5 -38.5t-19 -49t-6.5 -47
q0 -38 12 -72l-20 -5q-4 23 -7 46.5t-3 47.5q0 35 12.5 66.5t35 55.5t53.5 38t67 14zM47 98q18 0 32.5 -11.5t14.5 -31.5q0 -22 -13.5 -35t-36.5 -13q-18 0 -29 14t-11 31q0 7 3.5 15t9.5 15t14 11.5t16 4.5z" />
    <glyph glyph-name="at" unicode="@" horiz-adv-x="687" 
d="M518 -42q-44 -24 -89.5 -36.5t-99.5 -12.5t-104 18t-88.5 53t-61.5 87t-23 120q0 82 30.5 147t80.5 110t114 68.5t131 23.5q62 0 109.5 -19t80 -51.5t49 -76t16.5 -92.5q0 -47 -17.5 -89t-47.5 -73.5t-70.5 -49.5t-86.5 -18q-24 0 -33 10t-9 27q0 14 5 32l11 48l-2 1
q-11 -16 -31.5 -36.5t-43.5 -38.5t-45 -30.5t-37 -12.5q-16 0 -29.5 19.5t-14.5 55.5q0 19 4.5 42.5t13.5 47.5t24 47t36 43q29 27 66 46t81 20q10 0 24.5 -3t22.5 -5q7 -2 13.5 -3t14.5 -1q-11 -47 -24 -100.5t-25 -115.5q-4 -16 -4 -29q0 -26 21 -24q21 0 45 12t45 35.5
t34.5 59.5t13.5 84q0 49 -17.5 86.5t-47 63t-69.5 38.5t-85 13q-64 0 -117 -23t-90.5 -63.5t-58.5 -96t-21 -121.5q0 -43 13 -86.5t42 -78t77 -56t117 -21.5q47 0 85.5 10.5t62.5 22.5zM398 351q-35 0 -61 -29q-10 -11 -20.5 -29t-19.5 -39.5t-14.5 -46t-5.5 -47.5
q0 -20 6 -27.5t14 -7.5q6 0 18 5.5t29 19t37.5 36t43.5 56.5q7 20 13 47.5t11 50.5q-8 5 -22 8t-28 3h-1z" />
    <glyph glyph-name="A" unicode="A" horiz-adv-x="997" 
d="M811 785q20 5 49.5 9.5t55.5 4.5q12 0 24 -3t22 -11l-12 -16q-14 3 -27.5 4t-27.5 1t-27 -1t-27 -4q77 -60 107.5 -134t30.5 -171q0 -52 -9.5 -107t-23.5 -110.5t-30.5 -110t-31.5 -104.5q20 0 38 -0.5t37 -3.5l-12 -23q-59 6 -122.5 1.5t-121.5 -4.5q-4 0 -5 2.5t-0.5 6
l1 7t-1.5 6.5q23 6 47 5.5t47 2.5q20 54 37 109.5t29 112.5q-107 1 -173 1.5t-106 0t-60 -1t-36 -0.5q-26 -52 -60.5 -99.5t-78.5 -83.5t-96.5 -57.5t-113.5 -21.5q-21 0 -42 6.5t-38.5 19t-28 31t-10.5 41.5q0 28 17 49t47 21q13 0 25 -6t21 -16t14.5 -22.5t5.5 -25.5
q0 -26 -18 -44t-41 -26q17 -3 33.5 -5t32.5 -2q61 0 108 31.5t85 82t69 114.5t59.5 129.5t57 126t62.5 104.5q38 51 87 93t103 74q-32 20 -68 26t-73 6q-58 0 -116 -10.5t-109 -39.5q-45 -27 -84 -74.5t-67 -103.5t-44 -115.5t-16 -110.5q0 -29 2.5 -49t7.5 -36.5
t11.5 -32.5t14.5 -36l-15 -4q-26 45 -33.5 93.5t-7.5 98.5q0 97 34.5 177.5t94.5 139t141 91t174 32.5q25 0 51 -3.5t50.5 -9t45 -11.5t35.5 -11zM803 754q-63 -32 -108 -87.5t-79.5 -121.5t-62 -135t-55.5 -128h365q10 39 21.5 82.5t11.5 84.5q0 45 -1.5 85.5t-10.5 78
t-28 72t-53 69.5z" />
    <glyph glyph-name="B" unicode="B" horiz-adv-x="1081" 
d="M1069 809q-47 0 -86 -11q16 -11 29.5 -24t23 -29.5t15 -37.5t5.5 -49q0 -39 -20 -71t-43.5 -56.5t-43.5 -41.5t-20 -26q0 -13 20 -25.5t44.5 -34t44.5 -57.5t20 -96q0 -33 -18.5 -73t-48 -75t-65 -60.5t-68.5 -31.5q-23 -5 -48 -8t-49 -3q-21 0 -42 5t-37.5 16.5t-27 29
t-10.5 41.5q0 27 17.5 45.5t44.5 18.5q24 0 41 -15.5t17 -39.5q0 -26 -20.5 -45t-45.5 -21q20 -7 39 -9.5t39 -2.5q98 0 153 55t55 152q0 45 -20 71.5t-44 44t-44 31t-20 34.5t18.5 38t41 39t41.5 54t19 84q0 43 -23 82t-60 60q-59 -33 -93 -77.5t-54.5 -96.5t-32 -109.5
t-26.5 -116t-38 -116t-65 -108.5q-32 -39 -71.5 -69t-84.5 -50.5t-94 -31t-98 -10.5q-34 0 -73.5 6.5t-73 23t-55.5 44.5t-22 72q0 60 27 99t69 61.5t93 32.5t99 13q7 106 55 195.5t123 154.5t170.5 101.5t199.5 36.5q21 0 43 -3.5t46 -7.5q13 3 31 6t36 5t34.5 3.5
t25.5 0.5zM324 334q51 -3 97 -32.5t78 -77.5l-8 -15q-17 16 -35.5 32.5t-39.5 29t-43.5 20.5t-47.5 8q3 -32 15 -64t26 -61l-23 -5q-18 30 -28.5 63t-14.5 68l-13 -1q-33 -3 -77 -13.5t-83.5 -30t-67.5 -48.5t-28 -69q0 -32 17.5 -57.5t43.5 -43t57.5 -26.5t60.5 -9
q102 0 166.5 22t104.5 61t62 91t38 112t33 125t47 129t80 124.5t133 111.5q-44 15 -90 15q-89 0 -170.5 -39.5t-144.5 -104t-102 -147t-43 -168.5z" />
    <glyph glyph-name="C" unicode="C" horiz-adv-x="581" 
d="M553 130q-26 -33 -59.5 -60.5t-72.5 -47t-80.5 -30.5t-83.5 -11q-62 0 -108 24.5t-77 65.5t-46 94t-15 109q0 63 16 128.5t45.5 126t71.5 113.5t94 92.5t113.5 62.5t130.5 23q89 0 143 -49t54 -140q0 -53 -18.5 -115t-53 -115.5t-83.5 -89.5t-110 -36q-55 0 -84 34
t-29 87q0 38 18 80t48 77t68 58t77 23q7 0 22 -1.5t19 -6.5l-8 -21q-9 2 -18 3.5t-19 1.5q-37 0 -68.5 -24.5t-55 -60t-37 -75.5t-13.5 -72q0 -36 18.5 -59.5t56.5 -23.5q54 0 100 31.5t79.5 79.5t52.5 103.5t19 103.5q0 88 -44.5 137t-135.5 49q-61 0 -113 -24.5t-93.5 -66
t-73.5 -95.5t-53 -113t-32 -118t-11 -111q0 -50 10.5 -96t35 -81.5t64 -56.5t96.5 -21q34 0 66 10.5t61 28t54.5 40.5t46.5 48z" />
    <glyph glyph-name="D" unicode="D" horiz-adv-x="773" 
d="M761 782q-22 -1 -56 -6.5t-61 -20.5q83 -53 120.5 -125t37.5 -168q0 -53 -12.5 -109.5t-36 -111.5t-58 -104t-77.5 -86t-95 -59t-111 -22q-33 0 -66 14.5t-63 26.5q-29 -14 -73.5 -27.5t-89.5 -13.5q-20 0 -41 5t-38 15.5t-28 27.5t-11 41q0 21 14 35t34.5 22t42.5 11.5
t37 3.5q54 0 104.5 -20.5t99.5 -42.5q29 21 48 54.5t31.5 74t20 86t13 91t10.5 87.5t13 75q17 66 56 117t85 97q-34 8 -68 13t-69 5q-89 0 -165.5 -40.5t-132.5 -105.5t-88 -148.5t-32 -168.5q0 -29 7.5 -57t16.5 -55h-12q-18 35 -27 74t-9 77q0 97 35 178.5t95.5 140.5
t143 92t178.5 33q43 0 75 -6.5t67 -17.5q26 14 59.5 23t65.5 10zM356 60q35 -13 70.5 -24.5t72.5 -11.5q45 0 82 22.5t66 59.5t50.5 83.5t36 95.5t21.5 95t7 82t-7.5 78t-23.5 81t-41 71.5t-60 49.5q-41 -53 -57 -111t-23 -117.5t-11.5 -120t-21 -119t-53.5 -112.5
t-108 -102zM20 49q0 -18 12.5 -29t30 -18t36.5 -9.5t32 -2.5t30 2.5t34 7t33 10.5t28 12l-42.5 17.5t-53 20t-53.5 16t-43 6.5t-30.5 -7t-13.5 -26z" />
    <glyph glyph-name="E" unicode="E" horiz-adv-x="662" 
d="M414 790q27 0 60.5 -4t63 -16t49.5 -34.5t20 -59.5q0 -26 -19 -45.5t-46 -19.5q-23 0 -37 18.5t-14 38.5q0 13 6.5 23.5t16 18t21.5 12.5t23 9q-30 23 -61 31t-69 8q-29 0 -57 -10.5t-51 -29t-37 -44.5t-14 -57q0 -17 8 -33.5t20.5 -31t27 -27t27.5 -21.5v-43
q0 -1 -19.5 -3t-49 -9.5t-63.5 -23t-63.5 -43t-49 -70t-19.5 -104.5q0 -53 24 -94.5t62.5 -70.5t86 -44.5t95.5 -15.5q42 0 85 12.5t77.5 37.5t56 61.5t21.5 83.5q0 37 -13 63.5t-35 43.5t-51.5 25.5t-63.5 8.5q-25 0 -53 -7.5t-53 -22t-44 -35t-25 -46.5h-20q0 32 22 57
t53.5 42t66 26t60.5 9q38 0 75 -8.5t66.5 -27.5t47.5 -50t18 -75q0 -46 -19 -80t-50 -59t-71 -41t-82.5 -25.5t-84 -13.5t-75.5 -4q-53 0 -101.5 16.5t-85 48t-58.5 76t-22 100.5t21 99t56.5 75t81 53.5t93.5 34.5q-13 17 -25 33t-21 33t-14 36t-5 42q0 43 21.5 75.5
t55 54.5t74 32.5t78.5 10.5z" />
    <glyph glyph-name="F" unicode="F" horiz-adv-x="686" 
d="M636 802q36 0 72 -5.5t72 -12.5t71.5 -12.5t71.5 -5.5q13 0 24 3q10 14 15 31h20q-2 -30 -22 -50.5t-48 -32.5t-59.5 -17t-55.5 -4q-33 -22 -50.5 -65t-26.5 -92.5t-13 -99.5t-10 -87h117v-20h-119q-20 -85 -60.5 -151.5t-99 -112.5t-133.5 -70t-162 -24q-38 0 -80 8
t-77 27t-58.5 50t-23.5 77q0 36 16 63t42 45.5t59 29.5t68 16.5t68 5.5t60 -3q-15 22 -27 40t-21 37t-13.5 40t-4.5 50q0 78 33.5 141t88 107.5t124 69t142.5 24.5zM265 472q0 -48 12 -81t33.5 -58t50.5 -46t63 -45l-4 -15q-24 7 -39 15.5t-29 16t-32 12t-49 4.5
q-37 0 -78 -7.5t-75 -26t-56 -49t-22 -76.5q0 -36 21 -60t51.5 -37.5t65.5 -19t63 -5.5q82 0 144 24.5t106.5 69t72.5 107t42 137.5h-136l8 20h132q10 58 20 103.5t26.5 85.5t42.5 78.5t68 83.5q-50 11 -99.5 22t-101.5 11q-57 0 -111.5 -18t-96.5 -52t-67.5 -83t-25.5 -111
z" />
    <glyph glyph-name="G" unicode="G" horiz-adv-x="648" 
d="M505 762q27 0 59 -6t59.5 -19.5t46 -36t18.5 -56.5q0 -29 -18 -49t-48 -20q-26 0 -42 17t-16 43q0 38 23.5 51.5t55.5 11.5q-29 21 -65 31.5t-72 10.5q-72 0 -130 -33t-98.5 -85.5t-62.5 -118t-22 -131.5q0 -33 10.5 -63t30 -53.5t47 -37t62.5 -13.5q42 0 86 26t81 64.5
t63 84t32 84.5q22 -2 42.5 -1.5t42.5 -1.5q-17 -76 -33.5 -155.5t-40.5 -154t-58 -140t-85.5 -114.5t-123 -77.5t-170.5 -28.5q-30 0 -65 8.5t-65 26t-49.5 44.5t-19.5 65q0 45 23 76.5t57.5 51.5t75.5 29t78 9q44 0 86.5 -11t81.5 -31l-11 -23q-31 17 -65.5 25.5t-70.5 8.5
q-30 0 -69.5 -9.5t-75.5 -28t-61 -46.5t-25 -64q0 -29 21.5 -47.5t51.5 -29.5t62 -15.5t53 -4.5q66 0 118.5 24.5t93 66t70.5 95.5t51.5 113t35.5 119t23 112q-28 -32 -59 -66t-66 -62t-75.5 -45.5t-87.5 -17.5q-50 0 -85.5 16.5t-58 45t-33.5 67.5t-11 85q0 21 3.5 46.5
t10 52t15 51t19.5 42.5q56 97 148 144.5t201 47.5z" />
    <glyph glyph-name="H" unicode="H" horiz-adv-x="948" 
d="M750 802q-29 -44 -46.5 -87t-30 -87t-21.5 -90t-20 -95q38 5 76 10.5t76 13.5q9 24 24 56.5t34 67t42.5 67.5t49.5 59t54.5 42t59.5 16q19 0 34 -9.5t15 -28.5q0 -45 -19 -90.5t-50.5 -83.5t-72.5 -65.5t-86 -37.5q-26 -74 -41.5 -157.5t-15.5 -164.5q0 -23 5 -45.5
t22 -39.5q36 24 59 66q5 -8 8.5 -10t3.5 -12q0 -13 -14 -30.5t-33 -33t-39 -26.5t-31 -11q-26 0 -40.5 16.5t-22 40t-9.5 49.5t-2 44q0 40 5 77t13.5 73.5t18.5 72.5t20 74l-151 -24q-21 -83 -51 -161t-77 -139t-116 -98t-167 -37q-62 0 -99 39t-37 101q0 29 9 58.5t27 52.5
q-51 36 -76.5 86.5t-25.5 112.5q0 52 12.5 93t36.5 74t57.5 59t75.5 50q66 37 135 51t139 18.5t140.5 6.5t141.5 16zM46 424q0 -30 3.5 -54t12.5 -44t24.5 -38.5t39.5 -36.5q15 13 28.5 27.5t29.5 27.5q24 20 70.5 40t99 36.5t103 28.5t82.5 16q11 54 23 107t27 107
q9 32 21.5 62.5t21.5 62.5q-58 0 -123.5 -4t-131 -16t-125.5 -35t-105.5 -61t-73 -93.5t-27.5 -132.5zM876 485q31 9 66.5 31.5t66 53.5t51 68t20.5 76q0 42 -37 42t-65 -31.5t-48 -75t-33.5 -89.5t-20.5 -75zM145 244q18 -6 36 -11.5t37 -5.5q25 0 48 6.5t47 6.5
q-6 -13 -12.5 -19.5t-14.5 -9.5t-18 -3h-23q-30 0 -58.5 5.5t-56.5 14.5q-16 -22 -24.5 -47.5t-8.5 -52.5q0 -55 32.5 -87.5t88.5 -32.5q85 0 139 35.5t87.5 92t53 126t34.5 138.5q-44 -6 -98.5 -18.5t-108.5 -31.5t-102 -45.5t-78 -60.5z" />
    <glyph glyph-name="I" unicode="I" horiz-adv-x="646" 
d="M619 788q28 0 55.5 -7.5t52.5 -16.5t45.5 -16t35.5 -5q-15 -27 -36 -43.5t-42.5 -37t-40 -51.5t-29.5 -87q-13 -66 -21 -134.5t-22 -135.5q-15 -72 -55 -127.5t-95.5 -92.5t-122 -56t-136.5 -19q-39 0 -76 9t-65.5 28.5t-45.5 50.5t-17 75q0 46 22 82t56 62.5t75.5 42.5
t81.5 23q0 82 25.5 164t74 146.5t119 105t161.5 40.5zM254 337q44 0 85.5 -6.5t82.5 -20.5l-12 -24q-30 10 -61.5 20t-64.5 10q-6 0 -13 -1t-13 -2q6 -38 18 -76t32 -71l-19 -21q-23 37 -35.5 79t-14.5 86q-35 -6 -72.5 -20.5t-69 -37.5t-51.5 -55.5t-20 -72.5q0 -27 12 -52
t32 -44t45.5 -30.5t52.5 -11.5q68 0 121 10t94 35t72.5 68t55.5 109q17 46 21 92.5t15 94.5q21 84 62 153.5t101 131.5q-32 18 -65.5 31t-69.5 13q-81 0 -139.5 -34t-97.5 -89t-59.5 -124.5t-24.5 -139.5z" />
    <glyph glyph-name="J" unicode="J" horiz-adv-x="545" 
d="M545 895q27 0 50.5 -5t45.5 -13t44 -17t47 -16q-18 -16 -38 -32.5t-38.5 -34.5t-34 -38.5t-25.5 -43.5q-12 -32 -17 -65.5t-10 -66.5q-12 -83 -25 -170t-40 -167.5t-75 -149t-129 -114.5q-26 -15 -63 -23.5t-67 -8.5q-44 0 -73.5 14.5t-48.5 39.5t-27 59t-8 73
q0 45 12.5 80.5t33 66t47 58t55.5 56.5q-5 23 -5.5 46t-0.5 49q0 80 29.5 156t81.5 135.5t123.5 95.5t155.5 36zM178 448q0 -16 1 -30.5t3 -29.5q33 20 69.5 33.5t74.5 16.5l5 -16q-26 -5 -65 -17t-80 -38q9 -38 29 -72.5t42 -67.5l-19 -7q-24 29 -41 62t-31 67
q-22 -20 -44 -53t-39.5 -70.5t-28.5 -75.5t-11 -68q0 -57 33 -93.5t90 -36.5q56 0 97.5 20t71 54t49.5 79.5t34 97t23.5 106t18.5 106t19 98t24 81.5q23 58 56 103.5t76 90.5q-32 24 -73.5 33t-80.5 9q-77 0 -134 -34t-94.5 -89t-56 -123t-18.5 -136z" />
    <glyph glyph-name="K" unicode="K" horiz-adv-x="920" 
d="M407 775q54 0 94.5 -16t66.5 -46t39 -72.5t13 -94.5q0 -53 -10.5 -103t-25.5 -100q8 0 20 -2t25.5 -6t26.5 -9t23 -12q13 13 22 47.5t19 78t23.5 90.5t35.5 86t55 64.5t82 25.5q15 0 29.5 -3t26.5 -10.5t19 -19.5t7 -30q0 -22 -11.5 -38t-34.5 -17q-17 0 -30 3.5
t-21.5 13t-10 25t4.5 38.5q2 7 -3 8.5t-9 1.5q-29 0 -43 -20.5t-22.5 -53.5t-14 -75t-16 -84.5t-30.5 -83t-57 -69.5q18 -20 29.5 -48.5t19.5 -59.5t15 -61t15.5 -54.5t21 -39.5t33.5 -15q15 0 24 11.5t13.5 27.5t5 32.5t0.5 27.5h16l1 -18q0 -21 -7.5 -45t-22 -44t-34 -33
t-43.5 -13t-41.5 17.5t-30.5 45.5t-22.5 62.5t-17 68.5t-14 63.5t-13.5 47.5q-10 -5 -21.5 -6t-22.5 -1q-14 0 -23.5 3t-21.5 8q-24 -67 -70.5 -125.5t-107 -102t-131 -68.5t-141.5 -25q-23 0 -46 6.5t-41.5 19.5t-30 32.5t-11.5 45.5q0 28 15.5 45.5t44.5 17.5
q23 0 38.5 -18t15.5 -39v-20q-7 -14 -18.5 -24.5t-25.5 -18.5q14 -11 29.5 -18.5t33.5 -7.5q51 0 102 12.5t93 44.5q50 38 91.5 97.5t71 128t45.5 139.5t16 132q0 44 -10 83t-32 68.5t-56 47t-82 17.5q-74 0 -129.5 -39t-93 -99t-56.5 -131t-19 -135q0 -33 7 -60t19.5 -50.5
t30.5 -45t41 -43.5l-12 -16q-61 42 -83 100.5t-22 129.5q0 81 26 157.5t74 136t117 95.5t155 36zM581 326q-3 -10 -7.5 -22t-8.5 -20l9 -4.5t12.5 -3t19.5 1t30 6.5q-9 15 -24 27.5t-31 14.5z" />
    <glyph glyph-name="L" unicode="L" horiz-adv-x="833" 
d="M763 770q40 0 67.5 -15t43.5 -39.5t23 -56.5t7 -66q0 -60 -24 -118.5t-64 -107.5t-92.5 -84t-109.5 -47v16q60 11 103 48.5t70.5 89.5t40.5 111t13 113q0 22 -4 46.5t-14 44.5t-28 33t-45 13q-40 0 -69 -23.5t-49 -60.5t-33.5 -84t-22.5 -93t-15.5 -87.5t-12.5 -68.5
q-7 -28 -13 -55.5t-15 -53.5t-23.5 -51t-36.5 -48q18 -12 52 -33.5t71.5 -43t72 -37.5t53.5 -16q31 0 52 22t29 50l24 -3q-11 -34 -29.5 -56t-43.5 -34.5t-54.5 -17.5t-60.5 -5q-23 0 -51 12.5t-57.5 29.5t-57 34.5t-48.5 27.5q-45 -51 -109 -78t-133 -27q-26 0 -56.5 5
t-56.5 18t-43.5 35t-17.5 55q0 41 26 66.5t63.5 39.5t78.5 18.5t72 4.5q54 0 104.5 -16.5t98.5 -37.5q18 32 27 80.5t16 105t16.5 117.5t28.5 117.5t52.5 104.5t88.5 79q23 13 46.5 20t48.5 7zM20 68q0 -28 15 -46.5t37 -29.5t48 -15.5t48 -4.5q63 0 122.5 24.5t105.5 68.5
q-20 16 -52 31t-67.5 26.5t-70.5 18.5t-61 7q-18 0 -39.5 -4t-40.5 -13.5t-32 -25t-13 -37.5z" />
    <glyph glyph-name="M" unicode="M" horiz-adv-x="1082" 
d="M121 140q-35 15 -60 55.5t-41 89.5t-23.5 98.5t-7.5 82.5q0 56 17.5 115t51 107.5t82.5 79.5t113 31q51 0 85.5 -18.5t55.5 -49t29.5 -71t8.5 -85.5q0 -47 -7 -93t-17.5 -91.5t-21.5 -90.5t-19 -91q14 31 32.5 82.5t41.5 110.5t50 120t58.5 110t67 80t75.5 31
q22 0 35 -10t19.5 -26t8 -34.5t1.5 -34.5q0 -56 -10 -112.5t-23 -112.5t-26.5 -112t-20.5 -111q15 31 34 78t41.5 99.5t49 105t57.5 94.5t67.5 68.5t78.5 26.5q32 0 48 -22.5t16 -50.5q0 -63 -18 -125t-40 -123.5t-40 -123.5t-18 -125q0 -6 3.5 -13.5t8.5 -14t12 -11.5
t13 -5q9 0 18 7.5t17 18t14.5 21.5t11.5 17l16 -12q-9 -18 -21 -36t-27 -32.5t-33.5 -24t-40.5 -9.5q-46 0 -63 25.5t-17 70.5q0 55 18 115t39.5 122.5t39.5 125.5t18 125q0 14 -9.5 25t-21.5 11q-27 0 -58 -39t-63 -100t-63.5 -134.5t-57.5 -142.5t-45.5 -124t-28.5 -79
h-81q11 32 24.5 81t27.5 106.5t27 120t23.5 121t16.5 109.5t6 85q0 9 -1.5 21t-5 23t-10.5 18.5t-19 7.5q-22 0 -46 -26t-49 -70t-50 -100.5t-48.5 -117.5t-44.5 -121.5t-37.5 -112t-29 -90t-18.5 -54.5h-83q9 26 21.5 67t26 92.5t27 109.5t24 118.5t17 119.5t6.5 112
q0 64 -33.5 106t-101.5 42q-39 0 -69.5 -15.5t-53.5 -41.5t-39 -59.5t-26.5 -70t-15 -72.5t-4.5 -66q0 -72 13.5 -122.5t32.5 -84.5t39 -53.5t32 -29.5z" />
    <glyph glyph-name="N" unicode="N" horiz-adv-x="821" 
d="M805 108q-6 -20 -19.5 -40t-30.5 -35.5t-36 -25t-35 -9.5q-23 0 -37.5 9t-23.5 24t-12.5 33.5t-3.5 37.5q0 54 17.5 113.5t38.5 120.5t38.5 121.5t17.5 117.5q0 20 -10 34t-32 14q-20 0 -44 -22.5t-50 -60.5t-52.5 -87.5t-51.5 -103t-47.5 -107.5t-40.5 -101.5
t-30.5 -84.5t-16.5 -56h-86q18 76 38.5 154.5t38.5 158t29.5 159.5t11.5 159q0 69 -36.5 102t-104.5 33q-53 0 -91.5 -32.5t-64 -80.5t-38 -101.5t-12.5 -95.5q0 -94 27.5 -168t95.5 -137l-13 -8q-49 43 -75.5 88.5t-38.5 87t-13.5 75.5t-1.5 54q0 64 14.5 127.5t47 114
t84 81.5t126.5 31q47 0 80 -18t54 -48t30.5 -69t9.5 -80q0 -50 -7.5 -98t-18 -96t-21.5 -95.5t-18 -95.5q13 29 33.5 75t45.5 98t55 104.5t63 95t69 69t74 26.5q37 0 55.5 -17t18.5 -55q0 -62 -17 -124t-37 -123.5t-37 -122.5t-17 -120q0 -20 8.5 -36.5t28.5 -16.5
q11 0 20 7t15.5 17t11 21.5t7.5 19.5z" />
    <glyph glyph-name="O" unicode="O" horiz-adv-x="716" 
d="M440 613q43 -26 56.5 -62.5t13.5 -84.5q0 -34 -11.5 -71.5t-32.5 -69.5t-52 -53t-70 -21q-35 0 -60 17t-41.5 43t-24.5 58t-8 61q0 75 27 142.5t74.5 117.5t112.5 79.5t142 29.5q57 0 99 -25t69.5 -64.5t40.5 -89.5t13 -100q0 -62 -17 -127.5t-48.5 -127t-75 -116
t-97 -95.5t-115 -64.5t-128.5 -23.5q-66 0 -120.5 22t-93.5 62t-60 95t-21 121q0 35 6 77t18.5 85.5t33 84t49 73t66 52.5t85.5 22l-11 -24q-33 -3 -57.5 -22t-42.5 -48.5t-29.5 -66t-18.5 -75t-10 -75t-3 -65.5q0 -57 15.5 -109t46.5 -92.5t77.5 -64.5t109.5 -24
q59 0 108 23.5t88.5 63.5t69 91.5t49.5 107.5t30 112.5t10 105.5q0 43 -10 90t-32.5 86t-59 64.5t-90.5 25.5q-62 0 -114 -30t-89.5 -78t-58 -107t-20.5 -117q0 -26 6.5 -54.5t21 -52t36.5 -38.5t54 -15t57 23t42.5 56t27 69.5t9.5 63.5q0 35 -10 65.5t-42 49.5z" />
    <glyph glyph-name="P" unicode="P" horiz-adv-x="824" 
d="M770 792q46 0 85 -12.5t68 -37.5t45.5 -61.5t16.5 -84.5q0 -55 -24 -106.5t-63.5 -92.5t-89.5 -68t-102 -33q-7 -25 -14 -51t-19 -51q-30 -63 -76.5 -107t-103 -71.5t-120.5 -39.5t-131 -12q-41 0 -84 7t-78 26t-57.5 51t-22.5 83q0 39 15 67.5t40.5 49t58.5 34t68 21
t70 10.5t64 3q0 91 35.5 177t97 152.5t144 106.5t177.5 40zM510 217q-33 30 -74.5 48.5t-98.5 18.5q0 -38 12.5 -74t30.5 -70l-15 -8q-23 35 -35 73t-14 79q-22 1 -52 -3t-63 -12.5t-65.5 -21.5t-58.5 -30.5t-42 -39.5t-16 -49q0 -45 24 -73t60 -43t77 -20.5t76 -5.5
q63 0 119 12.5t101 40t78.5 71.5t52.5 108q10 33 15 67t9.5 68t10 68t16.5 66q23 67 57.5 128.5t78.5 117.5q-24 10 -55 12t-62 -5q-80 -17 -143.5 -54.5t-107.5 -93t-67.5 -125.5t-23.5 -151q25 -1 52.5 -6t53 -15.5t47 -26.5t35.5 -38zM814 725q-33 -42 -51.5 -91.5
t-29 -102.5t-15.5 -107t-10 -105q23 3 48 9t46 22q22 17 41 43t33 55t22.5 60t8.5 58q0 33 -7.5 58t-20 43.5t-29.5 32.5t-36 25z" />
    <glyph glyph-name="Q" unicode="Q" horiz-adv-x="714" 
d="M1086 -36q-44 -50 -94.5 -76t-104.5 -37t-109 -12t-108 0t-107.5 13.5t-106.5 27.5t-99.5 27.5t-86.5 15.5q-10 -9 -28.5 -22.5t-44 -26t-56 -22t-64.5 -9.5q-22 0 -43.5 11t-21.5 37q0 20 14.5 33.5t37 21.5t50 11.5t54.5 4.5t50 0t36 -2q9 6 15.5 14t14.5 14
q-16 4 -29 7t-25 7t-24 9.5t-25 14.5q-67 45 -97.5 113.5t-30.5 146.5q0 35 9 77.5t25.5 86t40.5 85t54.5 73.5t66.5 52.5t76 21.5q50 62 117 101t148 39q60 0 107 -20.5t80 -56.5t50 -85.5t17 -107.5q0 -48 -12.5 -100.5t-35 -106t-53.5 -104.5t-68.5 -95t-79.5 -79
t-86 -56q-46 -22 -96.5 -27.5t-99.5 -0.5l-21 -24q69 -6 142 -15.5t146.5 -18.5t147 -16t142.5 -7q46 0 78 6.5t54.5 18t38.5 25.5t31 29zM462 164q-33 -33 -64.5 -73t-62.5 -81q10 -2 22.5 -2h22.5q60 0 111.5 22.5t93.5 60.5t74 88.5t53.5 106t32.5 113t11 109.5
q0 45 -9 94.5t-31 90t-59 67t-93 26.5q-65 0 -118.5 -29t-91.5 -75.5t-59 -106t-21 -120.5q0 -26 5 -56.5t17 -56t33.5 -42.5t54.5 -17q36 0 63.5 26t46 63t27.5 78t9 70q0 33 -7.5 54t-17.5 33.5t-19.5 19t-12.5 9.5l11 20q18 -11 32.5 -29t24.5 -40.5t15.5 -48t5.5 -50.5
q0 -35 -13 -75t-36 -74t-56 -56.5t-73 -22.5q-38 0 -63 17.5t-40.5 45t-22 60.5t-6.5 63q0 58 18 111.5t44 104.5q-48 -17 -81.5 -58t-54.5 -93.5t-30.5 -108t-9.5 -100.5q0 -61 16.5 -113.5t57.5 -99.5q6 -7 17.5 -18t25 -21.5t27.5 -19.5t26 -12q4 4 20.5 25.5t37 47.5
t40.5 50t32 33zM79 -132q18 0 37.5 5t38 13t36 18t32.5 20q-36 7 -73 9q-30 1 -59 -8.5t-45 -21t-11 -22.5t44 -13z" />
    <glyph glyph-name="R" unicode="R" horiz-adv-x="980" 
d="M838 775q27 8 49 12.5t42 2.5l2 -23q-11 -1 -28 -0.5t-37 -6.5q30 -29 52 -64.5t22 -78.5q0 -46 -15 -86.5t-40.5 -74.5t-59.5 -61.5t-73 -48.5q29 -31 45 -68t29 -75.5t26.5 -77t36.5 -72.5q4 -4 10 3t12.5 18.5t13 25t11.5 24.5l24 -9q-5 -20 -15.5 -42.5t-26 -41.5
t-34 -31.5t-39.5 -12.5q-17 0 -32 23.5t-29.5 59t-28 76.5t-28 76.5t-30.5 59t-35 23.5q-10 0 -19 -1.5t-19 -1.5q-9 -35 -16 -69.5t-27 -65.5q-66 -100 -156 -143.5t-208 -43.5q-40 0 -78.5 7t-68.5 25t-48 49t-18 78q0 48 22 84t56.5 61.5t76.5 41.5t83 23q5 97 38 180.5
t90.5 145t138 96.5t182.5 35q41 0 77.5 -8.5t69.5 -22.5zM265 349q24 0 49 -2t48.5 -8t44.5 -17.5t38 -29.5l-13 -22q-16 13 -28 23.5t-29 18t-42.5 11t-67.5 3.5q3 -36 15.5 -70t35.5 -63l-20 -15q-25 32 -35 71t-15 77q-36 -7 -75 -21t-70.5 -36.5t-52 -55t-20.5 -75.5
q0 -36 14 -62t37 -43t52.5 -25t61.5 -8q51 0 103 14.5t94 43.5q52 36 81.5 74t45 77t22.5 80t13 84t16 87.5t33 91.5q29 59 66 105.5t94 78.5q-28 10 -52.5 17.5t-55.5 7.5q-92 0 -164 -31t-122 -86t-76 -130.5t-26 -164.5zM780 720q-56 -36 -82 -84t-38 -101t-16.5 -107
t-15.5 -102q48 4 89 24t71 52t47 74.5t17 91.5q0 43 -17 84.5t-55 67.5z" />
    <glyph glyph-name="S" unicode="S" horiz-adv-x="674" 
d="M875 772q14 0 28.5 -3t26 -10.5t18.5 -19.5t7 -29q0 -30 -18 -46t-48 -16q-15 0 -28.5 14t-13.5 29q0 14 5.5 27.5t10.5 27.5l-12 2q-37 0 -58.5 -22.5t-34.5 -61.5t-20 -91t-13.5 -110t-16 -120t-27.5 -120t-47.5 -110t-76.5 -91t-114.5 -61.5t-160.5 -22.5q-40 0 -88 9
t-89 29.5t-69 54.5t-28 84q0 49 26 90.5t66 71.5t88.5 46.5t93.5 16.5q27 0 61 -8t64.5 -23.5t51.5 -39.5t21 -57q0 -28 -13 -47t-33 -31t-44 -18.5t-47 -8.5l-3 19q19 5 40.5 9.5t39 13.5t29 25t11.5 43q0 24 -13.5 40.5t-33.5 26t-43 14t-42 4.5q-40 0 -91.5 -12
t-97.5 -36t-77.5 -60.5t-31.5 -85.5q0 -48 30.5 -76.5t74 -44t91 -20.5t82.5 -5q80 0 132.5 26.5t85.5 71.5t51.5 104.5t31 125t23.5 132.5t29 128.5t47.5 112.5t79.5 83q40 26 87 26z" />
    <glyph glyph-name="T" unicode="T" horiz-adv-x="707" 
d="M1003 792q-2 -6 -7.5 -18.5t-16.5 -26.5t-27 -26.5t-39 -19.5q-24 -8 -50 -7t-54 1q-19 -10 -35.5 -24t-27.5 -43q-8 -24 -12 -49.5t-5.5 -51.5t-3 -51.5t-5.5 -50.5q-14 -101 -48.5 -184.5t-91.5 -143.5t-139.5 -93.5t-192.5 -33.5q-39 0 -82 7.5t-78 26.5t-58 51.5
t-23 81.5q0 55 34.5 87t84 48.5t103.5 20t93 0.5q-27 36 -46.5 78t-19.5 89q0 77 35 140t91 108t126 69.5t141 24.5q28 0 60 -6.5t65.5 -14.5t65.5 -15t60.5 -7t50.5 8.5t35 32.5zM416 218q-14 13 -26.5 24t-29 19t-38 12t-52.5 4q-34 0 -72.5 -10t-71.5 -30t-55 -50
t-22 -69q0 -32 16 -56t40.5 -39.5t54 -23t56.5 -7.5q98 0 163 21t107 57t66 85t39.5 104.5t28 115t30.5 117.5t48 112t80 98q-50 8 -99.5 18t-101.5 10q-60 0 -114.5 -17.5t-95.5 -51.5t-65 -84t-24 -115q0 -53 17.5 -88t41 -59t47.5 -40t38 -29z" />
    <glyph glyph-name="U" unicode="U" horiz-adv-x="929" 
d="M907 86q-6 -15 -17 -31t-27 -29.5t-37 -22t-46 -8.5q-23 0 -37.5 10.5t-23.5 26.5t-12.5 35.5t-3.5 38.5q0 53 13 113.5t35 122.5t50.5 124t60 120t63 109.5t59.5 92.5q-42 -10 -79 -50t-71.5 -98t-67 -128.5t-65.5 -143t-67.5 -141t-72.5 -121.5t-80 -85t-90 -32
q-34 0 -56 14t-34.5 37t-17.5 51.5t-5 57.5q0 49 14.5 96.5t36.5 93t47 89t47 85t36.5 81t14.5 77.5q0 29 -12.5 49.5t-32 33.5t-44.5 19t-50 6q-47 0 -88.5 -19.5t-75.5 -51.5t-61 -74.5t-45.5 -88.5t-28.5 -92.5t-10 -87.5q0 -60 18 -116t54 -104l-15 -12q-42 48 -60 109
t-18 124q0 81 26.5 159.5t76 141t119.5 100.5t157 38q35 0 66.5 -11t55 -31.5t37.5 -50t14 -65.5q0 -40 -17.5 -85.5t-44 -93.5t-57 -97.5t-57 -97.5t-44 -92.5t-17.5 -83.5q0 -40 17 -60.5t58 -20.5q44 0 84 34t77 89.5t72 126.5t69 145t68 145t69.5 126.5t72.5 89.5t78 34
q7 0 13.5 -0.5t13.5 -1.5q-3 -17 -11 -33t-17 -31t-18.5 -30t-16.5 -31q-27 -65 -55 -138t-50.5 -149.5t-37 -153t-14.5 -147.5v-15.5t2 -21t6.5 -18.5t13.5 -8q12 0 25 8.5t23.5 21t17.5 26.5t7 25z" />
    <glyph glyph-name="V" unicode="V" horiz-adv-x="625" 
d="M744 462q-14 -8 -29.5 -10t-30.5 0q-30 -75 -78 -151t-111 -140.5t-138.5 -111t-158.5 -63.5q5 10 16 44.5t23 75.5t22 79.5t13 58.5q7 39 16 80.5t16.5 83.5t12.5 84t5 83q0 31 -2.5 68.5t-14 70.5t-35.5 55t-67 22q-39 0 -67.5 -18t-49.5 -48t-35 -68t-22 -77
t-11.5 -76t-3.5 -66q0 -42 10 -84t27 -82.5t39 -78.5t46 -71l-24 -12q-54 80 -86 171.5t-32 188.5q0 60 10.5 123t36.5 114.5t71.5 85t116.5 33.5q50 0 84 -31t55 -76t30 -95t9 -88q0 -63 -10.5 -125.5t-26 -124t-33 -123t-30.5 -122.5q120 72 212 179.5t143 237.5
q-60 24 -90.5 73t-30.5 113q0 22 4.5 43.5t15 39t27.5 28.5t43 11q28 0 44.5 -16t24.5 -39.5t10.5 -50t2.5 -46.5q0 -34 -6.5 -70.5t-15.5 -69.5q10 -4 27.5 0t31.5 11zM592 608q0 -47 15.5 -80t62.5 -50q12 33 18.5 68.5t6.5 70.5q0 12 -0.5 28t-4 30.5t-12.5 24.5t-25 10
t-27.5 -11t-19 -27t-11 -33.5t-3.5 -30.5z" />
    <glyph glyph-name="W" unicode="W" horiz-adv-x="978" 
d="M1116 562q-11 -9 -23.5 -15t-24.5 -10t-22 -5t-16 0q-9 -44 -24.5 -100.5t-38.5 -115.5t-53.5 -115.5t-69.5 -101t-87 -71.5t-105 -27q-41 0 -66 21.5t-38 54t-17 69.5t-4 68q0 131 34.5 256t109.5 233q-68 -60 -122 -145.5t-98 -181t-81 -193t-70 -182.5h-74
q16 72 34.5 146.5t35 150t27.5 151t11 150.5q0 32 -6 63t-20.5 55.5t-39.5 39.5t-64 15q-55 0 -94.5 -33t-65 -81t-37.5 -103t-12 -100q0 -85 31.5 -163t94.5 -135l-27 -12q-35 46 -57.5 84t-36 76.5t-19 82t-5.5 100.5q0 53 19.5 109t54 102t82.5 75.5t106 29.5
q51 0 84.5 -20.5t54 -54t28.5 -75.5t8 -85q0 -48 -6.5 -96t-16 -96t-20.5 -95t-20 -94q34 76 69.5 161.5t80 165.5t100.5 149t133 114q8 4 17 4l18 -1q-17 -25 -38 -47.5t-36 -49.5q-25 -43 -40.5 -103t-24.5 -124.5t-12 -127.5t-3 -112q0 -26 4 -52t15 -47t30.5 -34
t51.5 -13q43 0 80 25t67.5 65.5t54.5 91.5t42 102.5t29.5 98.5t17.5 81q-33 5 -61 24.5t-49 47.5t-33 60.5t-12 64.5q0 39 17.5 68.5t61.5 29.5q29 0 49 -14.5t32.5 -38.5t18 -53.5t7.5 -59.5t1.5 -58t-2.5 -47q7 0 17 2.5t19.5 6.5t18.5 8t15 7zM901 698q0 -24 8 -47
t22.5 -41.5t34 -32t43.5 -17.5q2 20 3 39t1 38q0 14 -2 39.5t-8 51t-17.5 44.5t-31.5 19q-17 0 -27.5 -10t-16 -24t-7.5 -30.5t-2 -28.5z" />
    <glyph glyph-name="X" unicode="X" horiz-adv-x="760" 
d="M346 408h134q8 36 11 69.5t3 62.5q0 43 -10 85t-31.5 74.5t-56.5 52.5t-85 20q-60 0 -112 -36t-90 -89.5t-59.5 -116t-21.5 -116.5q0 -31 5.5 -61t16.5 -58l-19 -7q-17 35 -20 72.5t-3 75.5q0 59 24.5 123t67 117.5t100 87t123.5 32.5q60 -2 99.5 -15.5t67 -39t47 -63
t40.5 -86.5q28 33 53.5 63t54.5 52.5t64.5 36t84.5 13.5q21 0 34.5 -6.5t29.5 -22.5q4 -9 4 -24q0 -21 -11.5 -39t-34.5 -18q-20 0 -36.5 14t-16.5 35q0 11 3 20t5 20q-39 -3 -72 -23.5t-59.5 -50.5t-46 -66t-32.5 -70q-10 -25 -17 -55.5t-12 -62.5h123l-9 -24h-117
q-4 -29 -5 -55t-1 -49q0 -20 5.5 -57.5t18 -74t32 -63.5t47.5 -27q11 0 19 6t14 15t10.5 19t8.5 18l15 -4q-1 -18 -13 -39.5t-29.5 -39.5t-38 -30.5t-38.5 -12.5q-27 0 -49 24.5t-38.5 58.5t-27.5 69t-15 56q-31 -45 -65.5 -84t-75.5 -67t-89 -44t-105 -16q-23 0 -47.5 5.5
t-45.5 17t-34.5 30.5t-13.5 46q0 26 18.5 47t45.5 21q23 0 39.5 -15t16.5 -38q0 -21 -6 -32t-15.5 -17.5t-23 -10t-28.5 -7.5q23 -13 49 -18t52 -5q67 0 120 33.5t92.5 87t66 120t40.5 132.5h-138z" />
    <glyph glyph-name="Y" unicode="Y" horiz-adv-x="780" 
d="M56 302q-8 15 -12 36.5t-6 43.5t-2.5 41.5t-0.5 28.5q0 68 23 133.5t66 116.5t102.5 82t133.5 31q55 0 97.5 -17.5t71.5 -49t43.5 -75.5t14.5 -98q0 -72 -20.5 -137t-54 -125t-76.5 -114.5t-89 -104.5q32 -12 64.5 -22t67.5 -10q53 0 89 29.5t60.5 76.5t41 106.5
t31.5 118.5t31 113t40 90q9 15 20 32t24 32.5t28 28t32 18.5l12 -19q-22 -7 -35 -20t-20.5 -28t-11 -29.5t-6.5 -23.5q-22 -71 -32.5 -140t-20.5 -136t-25.5 -132t-46.5 -129q-18 -35 -53 -70t-78.5 -62.5t-90 -44.5t-85.5 -17q-15 0 -35.5 2.5t-38.5 9.5t-30.5 20t-12.5 34
q0 22 18.5 36t39.5 14q20 0 38 -11.5t18 -34.5q0 -12 -5 -22.5t-9 -21.5q8 -1 15 -1.5t15 -0.5q53 0 96 22.5t74.5 59.5t51 83.5t25.5 94.5q-25 -30 -46.5 -54.5t-46 -42t-55 -27t-73.5 -9.5q-38 0 -74.5 9t-73.5 19q-35 -14 -71.5 -24.5t-74.5 -10.5q-17 0 -37.5 3.5
t-39.5 11.5t-31.5 22.5t-12.5 35.5q0 23 15 39.5t36.5 27.5t45.5 16.5t42 5.5q24 0 46.5 -6t44 -15t43 -19t43.5 -18q43 42 76 94t54.5 109.5t32.5 118.5t11 120q0 49 -10.5 90t-33 70t-59 45.5t-88.5 16.5q-57 0 -104 -31.5t-81 -79.5t-52.5 -104t-18.5 -105q0 -43 8 -80
t20 -63zM28 74q0 -15 10 -25.5t24.5 -16.5t30.5 -9t28 -3q32 0 62 8t58 22q-19 8 -38 17t-38.5 17t-40 13.5t-41.5 5.5q-7 0 -16.5 -0.5t-18 -3.5t-14.5 -9t-6 -16z" />
    <glyph glyph-name="Z" unicode="Z" horiz-adv-x="914" 
d="M558 320h109l10 34q9 31 20 53.5t24.5 42t31 37.5t40.5 39q-47 18 -85 42t-73 49.5t-69 49.5t-72 43t-82 30.5t-100 11.5q-45 0 -96 -15.5t-94.5 -44t-72.5 -69t-29 -91.5q0 -42 17.5 -70t46 -45.5t64 -25t70.5 -7.5q38 0 79 8t76.5 24t62 41t37.5 58l23 -4
q-14 -41 -46.5 -69.5t-74 -46.5t-87 -26t-83.5 -8q-39 0 -75.5 10t-65 31t-46 52.5t-17.5 74.5q0 46 18 84t48 67.5t69.5 51t82 35.5t86 20.5t81.5 6.5q67 0 114.5 -11.5t82.5 -30.5t62 -43t55 -49t60 -48.5t78 -41.5q20 20 51.5 30t60.5 10q8 0 20 -2t23.5 -6.5t19.5 -12
t8 -18.5q1 -33 -20.5 -49.5t-53 -21.5t-66 -0.5t-58.5 12.5q-15 -18 -27 -41t-21 -48.5t-17 -51.5t-16 -51h94l-13 -25h-90q-18 -53 -50.5 -91.5t-74.5 -76.5q18 -16 43 -36t52.5 -37.5t55.5 -29.5t53 -12q13 0 26 9t24 20.5t17.5 23t6.5 17.5l15 -4q-19 -47 -58 -76.5
t-91 -29.5q-38 0 -68 7t-54.5 19.5t-45.5 29.5t-42 36q-27 -22 -49.5 -39t-50 -29.5t-64.5 -19t-92 -7.5q-36 0 -78.5 5.5t-79.5 21.5t-61.5 45.5t-24.5 77.5q0 46 26 73.5t64.5 42.5t82.5 19.5t79 4.5q42 0 81.5 -9.5t77 -25.5t72.5 -37t69 -44q36 42 48.5 79t19.5 73h-117
zM64 119q0 -38 20.5 -62.5t51 -38.5t66 -20t64.5 -6q42 0 76.5 4.5t65.5 14.5t60 26.5t59 40.5q-28 28 -66 52.5t-80 43.5t-85.5 30t-83.5 11q-24 0 -50 -3.5t-47.5 -14t-36 -29.5t-14.5 -49zM857 558q9 -3 31 -9.5t44.5 -8.5t39.5 4t17 28q0 12 -10.5 14.5t-18.5 2.5
q-26 0 -54.5 -7t-48.5 -24z" />
    <glyph glyph-name="bracketleft" unicode="[" horiz-adv-x="342" 
d="M159 2l-2 -12h52q57 0 76 6l9 2q5 0 5 -4q0 -3 -4 -9l-6 -10l-8 -12q-12 -20 -18 -25t-16 -6h-85q-39 0 -52 -1h-13q-10 0 -14 2q-3 0 -3 5q0 3 3 14q6 30 8 38q1 7 4.5 25t6 31.5t8.5 45.5l20 103l21 111l22 117l20 107l18 94q1 8 10 49q4 21 6 35t4 20q0 4 2 5q1 1 4 1
h9q40 -3 117 -3q48 0 61 3l9 1q7 0 7 -6q0 -5 -19 -37q-8 -15 -13 -19q-4 -3 -16 -3h-74l-30 -1h-7l-4 -16q-20 -99 -36 -188q-12 -59 -31 -168l-24 -141q-2 -11 -3 -16l-2 -10q-1 -5 -2 -9q-1 -7 -3.5 -23t-6.5 -34q-6 -37 -6 -39q-1 -3 -4 -23z" />
    <glyph glyph-name="backslash" unicode="\" horiz-adv-x="340" 
d="M242 -85q0 -13 -3 -19q-4 -7 -13 -12l-15 -9q-12 -7 -15 -7q-5 0 -5 8v14q0 17 -7 100q-1 17 -9 93q-5 48 -8 73l-13 120q-1 12 -3 29q-1 9 -5 44q-17 148 -18 164l-14 119q-10 82 -14 121l-1 11v7q0 13 14 21q21 13 32 13q5 0 8 -4q2 -5 2 -21q3 -57 11 -161
q2 -26 4 -52.5t3.5 -38.5t3.5 -37q4 -50 10 -110q2 -21 5 -50t5 -47q9 -82 20 -169q3 -22 6 -44.5t7 -53t5 -43.5q7 -40 7 -59z" />
    <glyph glyph-name="bracketright" unicode="]" horiz-adv-x="342" 
d="M233 664l2 12h-52q-59 0 -76 -6q-9 -2 -10 -2q-5 0 -5 4q0 3 4 9l7 10l8 12q13 20 19 26q6 5 15 5h85q39 0 52 1h12q11 0 15 -1q3 -2 3 -6q0 -2 -3 -14l-4 -17q-13 -56 -26 -123q-9 -51 -21.5 -119t-17.5 -95q-5 -30 -7 -44q-2 -9 -3 -14.5t-2 -11.5q-6 -36 -9 -47
l-20 -107l-18 -94l-16 -84q-3 -14 -5 -23q-1 -3 -6 -3h-8q-40 3 -117 3q-48 0 -62 -3q-9 -1 -8 -1q-7 0 -7 6q0 7 18 37q9 14 14 19q3 3 16 3h74l30 1h7l4 16q16 76 37 188q14 75 30 168l24 141z" />
    <glyph glyph-name="asciicircum" unicode="^" horiz-adv-x="531" 
d="M422 185l-146 329l-147 -329h-50l180 391h38l179 -391h-54z" />
    <glyph glyph-name="underscore" unicode="_" horiz-adv-x="500" 
d="M0 -193v60h500v-60h-500z" />
    <glyph glyph-name="grave" unicode="`" horiz-adv-x="500" 
d="M292 588q49 -14 87 -60.5t47 -107.5q-57 95 -149 125z" />
    <glyph glyph-name="a" unicode="a" 
d="M319 49q-9 -9 -20 -19.5t-23.5 -19.5t-26 -15t-26.5 -6q-12 0 -18.5 3.5t-10 10t-5.5 15t-4 18.5q-8 -12 -15.5 -21t-17 -15t-23 -9t-34.5 -3q-44 0 -63.5 28t-19.5 70q0 27 9.5 54t26 49t40 35.5t52.5 13.5t46.5 -9t29.5 -33l8 34q18 0 35.5 -0.5t35.5 0.5
q-11 -49 -19 -82t-13.5 -55t-7.5 -35.5t-2 -22.5q0 -10 9 -12q7 1 19.5 15t26.5 28q3 -4 6 -8.5t5 -8.5zM86 72q0 -9 1 -19.5t4.5 -19.5t10.5 -15t19 -6q19 0 33 16.5t23.5 39t14 46.5t4.5 40q0 9 -0.5 19.5t-3.5 18.5t-9.5 13.5t-18.5 5.5q-21 0 -36 -15.5t-24 -37
t-13.5 -45.5t-4.5 -41z" />
    <glyph glyph-name="b" unicode="b" horiz-adv-x="287" 
d="M101 197q20 16 41 26.5t49 10.5q42 0 63 -23.5t21 -64.5q0 -34 -12.5 -63t-34.5 -50t-51.5 -32.5t-62.5 -11.5q-51 0 -76 32t-25 80q0 12 8 54t20 99.5t27 124t29.5 127.5t27 110.5t19.5 73.5h73q-29 -118 -59 -246.5t-57 -246.5zM72 58q0 -20 7 -33t30 -13q24 0 41 16.5
t27.5 40t15 49t4.5 44.5q0 17 -10.5 31.5t-29.5 14.5t-34.5 -18t-27 -42.5t-17.5 -49.5t-6 -40z" />
    <glyph glyph-name="c" unicode="c" horiz-adv-x="235" 
d="M7 91q0 28 11.5 54.5t31.5 46t45.5 31.5t54.5 12q13 0 26.5 -2t25 -7.5t19 -15t7.5 -25.5q0 -18 -10.5 -35.5t-31.5 -17.5q-15 0 -28.5 12t-13.5 28q0 14 6 25t11 23q-20 -4 -35 -15.5t-24.5 -27t-14.5 -34.5t-5 -37q0 -12 2.5 -26t8.5 -26t16 -20t25 -8q24 0 41.5 15.5
t35.5 29.5q1 1 5.5 -4.5t6.5 -6.5q-23 -28 -55 -47.5t-70 -19.5q-44 0 -67.5 27.5t-23.5 70.5z" />
    <glyph glyph-name="d" unicode="d" horiz-adv-x="331" 
d="M266 70q-3 -15 -2.5 -22t3 -9.5t5 -2t4.5 1.5q13 11 21.5 23t15.5 27l12 -16q-8 -14 -16 -27.5t-18.5 -24t-25.5 -17.5t-37 -7q-27 3 -34 17t-10 28q-17 -20 -40.5 -33.5t-49.5 -13.5q-20 0 -35.5 8.5t-26 22t-15.5 31t-5 35.5q0 32 10 59.5t29 47.5t47 31t63 11
q22 0 38 -8t21 -32q26 125 57.5 245.5t57.5 244.5h67q-9 -42 -22 -95t-27 -110.5t-28.5 -117t-26.5 -114.5t-20.5 -102.5t-11.5 -80.5zM161 216q-18 0 -32 -16.5t-24.5 -39t-16 -46t-5.5 -37.5q0 -9 1 -19.5t4 -19t8.5 -14t15.5 -5.5q21 0 38 16t29.5 38.5t19.5 47t7 41.5
q0 23 -10.5 38.5t-34.5 15.5z" />
    <glyph glyph-name="e" unicode="e" horiz-adv-x="245" 
d="M238 175q0 -29 -15.5 -46.5t-38.5 -28t-49 -15t-47 -7.5q-1 -9 -0.5 -20.5t5 -21.5t12.5 -15.5t22 -3.5q26 5 50 24t40 38l15 -7q-26 -41 -57.5 -60.5t-77.5 -19.5q-21 0 -37 8.5t-27 22.5t-16.5 32t-5.5 37q0 29 12.5 55.5t32.5 46.5t46.5 32t55.5 12q15 0 29 -3.5
t25.5 -11t18.5 -19.5t7 -29zM108 103q35 5 54 25.5t19 57.5q0 11 -1.5 22.5t-15.5 11.5q-20 0 -34.5 -12.5t-24 -31t-14 -39t-5.5 -36.5z" />
    <glyph glyph-name="f" unicode="f" horiz-adv-x="202" 
d="M20 220h63q11 69 27.5 144.5t39 147.5t52.5 135t69 108q6 6 14 14.5t18 15.5t20 12t19 5q21 0 36 -12t15 -34q0 -19 -13 -32.5t-33 -13.5q-19 0 -35 16t-12 36q-37 -57 -59 -122.5t-36.5 -135.5t-25 -142.5t-22.5 -141.5h61l-6 -26h-60q-6 -32 -13 -61t-16 -56t-20 -54.5
t-26 -56.5q-8 -15 -19 -32.5t-24.5 -32.5t-30.5 -25t-36 -10q-20 0 -35 10.5t-15 32.5q0 16 14 30t31 14q22 0 35.5 -11t8.5 -34q18 11 28 36t17 61.5t13 84t15 104.5h-64z" />
    <glyph glyph-name="g" unicode="g" horiz-adv-x="304" 
d="M151 242q20 0 39 -6t33 -20l5 24l74 -1l-38 -186q-7 -41 -17 -77t-28.5 -62.5t-49 -42t-78.5 -15.5q-12 0 -29 4t-32 12t-25.5 20t-10.5 28q0 20 13.5 35t33.5 15q19 0 33 -12t14 -32q0 -13 -7.5 -24.5t-16.5 -20.5l21 -5q36 0 52.5 12.5t24 34t11 51t12.5 63.5
q-17 -14 -37 -25.5t-44 -11.5q-46 0 -66.5 24.5t-20.5 69.5q0 27 10 53.5t28 47.5t42.5 34t53.5 13zM88 78q0 -19 5 -36t28 -17q20 0 37.5 14.5t30 35t19.5 43.5t7 40q0 9 -2 19.5t-6 19.5t-11.5 15t-17.5 6q-22 0 -39 -15t-28 -37t-17 -46t-6 -42z" />
    <glyph glyph-name="h" unicode="h" horiz-adv-x="319" 
d="M101 126q9 16 23 35.5t32 36.5t39 29t43 12q19 0 27 -10.5t8.5 -28t-4.5 -38.5t-11 -42.5t-11 -40.5t-5 -31q0 -1 1 -7t10 -6q19 0 28.5 11t17.5 22l8 -12q-13 -25 -38.5 -40.5t-57.5 -15.5q-20 0 -28 11.5t-9 29.5t4 40t11 43t11 39.5t5 28.5q0 2 -0.5 7t-5.5 5
q-13 0 -26 -12t-26 -31t-25.5 -42.5t-22.5 -46t-17.5 -42t-11.5 -29.5h-63q16 87 36 173t41.5 172t42.5 172t39 172h69z" />
    <glyph glyph-name="i" unicode="i" horiz-adv-x="214" 
d="M162 348q-21 0 -32.5 13t-11.5 33q0 21 13 37t35 16q20 0 34 -12.5t14 -32.5q0 -22 -14.5 -38t-37.5 -16zM127 253q23 0 34 -18.5t11 -37.5q0 -20 -8.5 -41t-18 -42.5t-18 -42.5t-8.5 -40q0 -4 1 -10.5t7 -6.5q8 0 15.5 5.5t13.5 13t11 16t8 13.5l19 -9
q-16 -26 -35 -45.5t-51 -19.5q-21 0 -41 12t-20 34q0 17 12 46.5t25 58t20 50t-2 21.5t-15 -1.5t-12.5 -6t-15.5 -13t-23 -22.5l-12 14q7 9 19.5 21.5t27.5 24t29.5 19t26.5 7.5z" />
    <glyph glyph-name="j" unicode="j" horiz-adv-x="168" 
d="M229 449q0 -26 -14 -39t-31.5 -13.5t-31.5 11.5t-14 37q0 23 14 35t31.5 12.5t31.5 -10t14 -33.5zM89 -12q-8 -29 -20 -53.5t-29.5 -42.5t-41.5 -28t-57 -10q-10 0 -20.5 3.5t-19.5 9.5t-14.5 14t-5.5 17q0 17 13 31.5t30 14.5q23 0 32.5 -17t2.5 -36q-1 -12 7 -14.5
t18 3t18.5 17.5t10.5 30q4 56 19.5 107t30.5 90t24 62t1 24q-9 1 -15 -0.5t-12.5 -6.5t-15.5 -13.5t-23 -22.5l-12 14q7 9 19.5 21.5t27.5 24t29.5 19t26.5 7.5q23 0 34 -18.5t11 -37.5q0 -27 -7 -53.5t-17.5 -52.5t-22.5 -51.5t-22 -51.5z" />
    <glyph glyph-name="k" unicode="k" horiz-adv-x="337" 
d="M215 656q20 21 48 31t57 1q11 -5 16.5 -15.5t7.5 -22.5q4 -26 -11 -38.5t-33 -12.5q-17 0 -29 9.5t-8 29.5q2 13 0.5 19.5t-12.5 -1.5q-20 -21 -34 -53t-23.5 -67t-16 -68.5t-11.5 -55.5l-52 -255q18 5 37 2t27 -9q6 9 12.5 24t17 30t26.5 25.5t40 9.5q24 -2 34.5 -14
t10.5 -33q2 -21 -11.5 -32.5t-30.5 -13.5q-18 -2 -32.5 11t-11.5 30q2 14 7.5 20.5t-5.5 4.5q-6 -1 -10.5 -10t-9.5 -21t-10.5 -25t-11.5 -22q9 -10 16 -27.5l14 -35t15.5 -31t20.5 -15.5q10 -1 19 6.5t16 18.5t12 22.5t8 18.5l15 -3q-8 -23 -21 -45t-30 -36t-37.5 -17
t-44.5 11q-22 17 -31 42.5t-16 51.5q-12 -8 -26 -10.5t-28 -1.5l-19 -83h-64q22 112 44.5 223.5t45.5 220.5q12 58 40.5 113t72.5 99zM100 101q25 -2 45 9q-2 14 -10 23t-25 10z" />
    <glyph glyph-name="l" unicode="l" horiz-adv-x="176" 
d="M97 121q-5 -21 -9 -40t-5 -33t2 -20.5t11 -1.5q14 4 27 23.5t21 35.5h19q-8 -20 -22 -41.5t-31.5 -36.5t-36.5 -19t-37 11q-14 14 -18.5 31.5t-2.5 40t8.5 50.5t14.5 63l116 506h67z" />
    <glyph glyph-name="m" unicode="m" horiz-adv-x="510" 
d="M504 68l-18 -26t-20 -23.5t-24 -17t-30 -6.5q-10 0 -20 0.5t-17.5 4t-12 10.5t-3.5 20q1 15 6.5 35.5t12 42t12 42.5t6.5 37q0 4 -0.5 7.5t-5.5 3.5q-6 0 -20.5 -12.5t-30 -28t-29 -30.5t-17.5 -20q-7 -9 -11.5 -23t-7.5 -29t-5 -29.5t-4 -25.5h-80q4 22 11 45.5t14 47.5
t11.5 48t4.5 46q0 3 -1.5 6.5t-6.5 3.5q-18 0 -38.5 -25t-38.5 -58.5t-32 -66t-18 -47.5h-66q2 9 8.5 37.5t14 60t13 57.5t5.5 31q0 8 -2 8q-4 0 -10.5 -6.5t-14 -15t-13.5 -16.5l-9 -12l-13 13q9 12 20.5 26.5t24.5 27t28 20.5t32 8t22 -9.5t5 -23.5q0 -18 -3.5 -35
t-6.5 -34q12 16 25.5 33t29.5 31t34.5 23t41.5 9q20 0 32.5 -10t12.5 -32q0 -13 -3 -25.5t-5 -25.5l26 26t34.5 31t37.5 25.5t34 10.5q7 0 15.5 -0.5t16 -3.5t12.5 -8.5t5 -15.5q0 -14 -6 -36t-13 -46t-14 -46t-8 -37q0 -10 9 -10q13 0 26.5 16.5t22.5 30.5z" />
    <glyph glyph-name="n" unicode="n" horiz-adv-x="338" 
d="M227 234q18 9 40 4.5t31 -27.5q4 -26 -2.5 -59.5t-12.5 -62t-7.5 -45t12.5 -7.5q12 9 18 17t11 17q2 0 6 -3t9 -6q-17 -26 -45.5 -47t-63.5 -19q-13 2 -17 11t-6 17q-2 20 1.5 40t8 39.5t9.5 39.5t8 41q0 9 -10.5 11t-16.5 -4q-22 -18 -38.5 -40t-29 -46.5t-21.5 -51
t-16 -53.5h-66q4 17 9.5 39.5t11 46.5t10.5 46.5t6.5 38t-1 22t-10.5 -1.5q-8 -12 -17 -23.5t-18 -23.5l-13 10q13 19 21.5 30t14.5 18t10.5 11t10.5 9q7 6 18 10t22 4.5t20 -4t12 -16.5q3 -18 -0.5 -38t-5.5 -38q18 30 41.5 55t55.5 39z" />
    <glyph glyph-name="o" unicode="o" horiz-adv-x="286" 
d="M149 247q30 1 54 -5.5t40 -21.5t23 -39.5t3 -60.5q-5 -38 -18 -62.5t-33 -38.5t-46.5 -19.5t-56.5 -5.5q-50 0 -79.5 29t-29.5 80q0 36 11.5 62.5t31.5 44.5t45.5 27t54.5 10zM80 84q0 -13 1.5 -25.5t6 -22.5t13.5 -16t25 -6q20 -2 33.5 14t22 39t12 48t3.5 42
q0 31 -10 50t-35 17q-21 -1 -34.5 -16.5t-22 -37.5t-12 -46t-3.5 -40z" />
    <glyph glyph-name="p" unicode="p" horiz-adv-x="305" 
d="M194 388q-24 -29 -35.5 -48.5t-17.5 -38t-8.5 -41t-8.5 -55.5q16 17 39 27t46 10q22 0 38 -9t26.5 -24t15 -34t4.5 -38q0 -29 -10 -55t-27.5 -46t-42.5 -31.5t-55 -11.5q-17 0 -27 3.5t-17.5 10t-13.5 16t-14 21.5l-40 -188h-70q14 70 27.5 145t35 147t55 137.5
t88.5 116.5zM143 23q21 0 34.5 15t22 36t12 43.5t3.5 37.5q0 20 -8.5 38.5t-32.5 18.5q-18 0 -31.5 -14t-23 -33.5t-14 -41t-4.5 -35.5q0 -10 2 -21.5t6.5 -21t12.5 -16t21 -6.5z" />
    <glyph glyph-name="q" unicode="q" horiz-adv-x="269" 
d="M362 382q-16 -20 -30 -38t-20 -44q-12 -42 -22 -84t-21 -84q-6 -31 -13.5 -65.5t-16 -69.5l-17 -70t-16.5 -66h-74l40 165q-21 -14 -40 -24t-42 -10q-14 -2 -26.5 3t-23 13.5t-18 20.5t-10.5 25q-8 28 -2.5 56.5t20 53t37 42t49.5 23.5q27 9 55 0t44 -35q9 29 23 58.5
t31 56t37 48t41 33.5zM152 210q-27 -5 -43 -27t-24 -45q-9 -23 -10.5 -51.5t7.5 -51.5q2 -12 15 -17t24 1q19 7 33.5 22t24 34.5t15.5 41.5t9 43q1 10 -3 19.5t-11.5 17t-17 11t-19.5 2.5z" />
    <glyph glyph-name="r" unicode="r" horiz-adv-x="271" 
d="M4 171q4 7 13.5 16.5t20.5 19.5t22.5 18.5t21.5 14.5q14 6 31 6t23 -18q6 -32 -2.5 -64t-17.5 -61q26 35 48.5 73t57.5 64q7 4 16.5 5.5t18.5 0t16.5 -7t10.5 -14.5q4 -12 2 -23.5t-10 -21t-20 -15.5t-27 -6q-25 0 -31 31q-29 -42 -59 -92t-47 -97h-66q6 27 15.5 63
t16 67t6 50t-13.5 12q-14 -8 -19.5 -15t-13.5 -15z" />
    <glyph glyph-name="s" unicode="s" horiz-adv-x="242" 
d="M154 246q12 0 25.5 -2.5t25 -9t19.5 -16.5t8 -25q0 -14 -11 -20.5t-28 -8.5q-19 -1 -31 11.5t-10 24.5q3 11 7.5 17t18.5 11l-22 1q-8 0 -18 -2.5t-19 -7t-15 -11.5t-6 -17q0 -11 8.5 -18t21 -12.5t27.5 -11t27.5 -14.5t21 -22t8.5 -34q0 -22 -11.5 -38.5t-28.5 -28
t-37.5 -17t-39.5 -5.5q-16 0 -32 1.5t-29 7.5t-21 17.5t-8 30.5q0 18 15 29.5t32 11.5t28 -8t11 -27q0 -17 -12 -23.5t-23 -9.5q1 -2 5.5 -3.5t11.5 -2.5t14 -1h13q20 0 38.5 12.5t18.5 35.5q0 3 -1 6t-2 5q-14 12 -32 18t-34 14t-27.5 20.5t-11.5 36.5q0 22 9 38t24 26.5
t34 15.5t38 5z" />
    <glyph glyph-name="t" unicode="t" horiz-adv-x="212" 
d="M11 220h60l45 211l71 13l-47 -224h65l-6 -26h-64l-25 -127q-3 -32 2 -38.5t15.5 3t25 30t31.5 42.5l16 -13q-3 -9 -13.5 -24.5t-24.5 -31.5q-17 -21 -41 -35.5t-54 -10.5q-26 3 -29 22.5t5 54.5l24 128h-62z" />
    <glyph glyph-name="u" unicode="u" horiz-adv-x="332" 
d="M97 -4q-18 -9 -40 -4.5t-31 27.5q-4 26 2.5 59.5t12.5 62t7.5 45t-12.5 7.5q-12 -9 -18 -16.5t-11 -16.5q-2 0 -6 2.5t-9 5.5q17 26 45.5 47.5t63.5 18.5q13 -2 17 -11t6 -17q1 -20 -2 -40t-7.5 -39.5t-9.5 -39t-8 -40.5q0 -9 10.5 -11.5t16.5 4.5q44 35 67.5 86
t37.5 104h66q-4 -17 -9.5 -39.5t-11 -46.5t-10.5 -46t-6.5 -37.5t1 -22t10.5 1.5l35 46l13 -9q-14 -19 -22 -30.5t-14 -18t-10.5 -11t-10.5 -9.5q-7 -6 -18 -10t-22 -4.5t-20 4t-12 16.5q-3 18 0.5 38t5.5 38q-18 -30 -41.5 -54.5t-55.5 -39.5z" />
    <glyph glyph-name="v" unicode="v" horiz-adv-x="280" 
d="M206 246q15 9 34 3.5t25 -22.5q9 -18 5 -37.5t-13 -37.5q-20 -44 -53 -78.5t-72 -57.5q-20 -12 -43 -19t-46 -4q-8 3 -11 9t-4 13.5t-0.5 16t0.5 15.5q4 22 10.5 50.5t10.5 51t3.5 33.5t-10.5 0q-14 -11 -20 -17.5t-15 -15.5v30q29 32 75 51q11 7 27.5 3t18.5 -18
q4 -24 1.5 -47.5t-8.5 -46.5t-12 -46.5t-8 -46.5q42 18 76 48.5t49 72.5q-6 4 -12.5 7.5l-13 7t-11.5 9.5t-8 17q-2 17 4 33.5t21 22.5z" />
    <glyph glyph-name="w" unicode="w" horiz-adv-x="360" 
d="M264 209q3 15 14 23t24.5 8.5t26 -6t17.5 -20.5q9 -32 1.5 -67.5t-24.5 -64.5q-16 -26 -39 -52t-55 -35q-11 -2 -26.5 -2.5t-24.5 11.5q-12 14 -16 33t-4 36q-20 -20 -35.5 -39t-38.5 -33l-70 -1l35 182q-11 -8 -21 -19t-22 -23q-3 6 -5 9.5t-2 10.5q17 20 38 40.5
t47 28.5q7 3 15.5 1.5t14.5 -6.5t9.5 -13t0.5 -17q0 -20 -4 -40t-8.5 -39.5t-9.5 -38.5t-6 -38q38 33 63.5 77t45.5 91q7 0 12.5 -1.5t11.5 -1.5q0 -26 -3.5 -57.5t-4 -59t4 -45t19.5 -15.5q18 9 32.5 24t25 33.5t17 39t8.5 41.5q-6 -4 -14 -6t-17 -1.5t-17 5t-14 13.5
q-5 9 -3.5 17.5t1.5 16.5z" />
    <glyph glyph-name="x" unicode="x" horiz-adv-x="302" 
d="M220 228q10 6 21 6t21 -5.5t16.5 -16t7.5 -26.5q0 -13 -6 -23t-15 -15.5t-20.5 -6.5t-21.5 5q-14 12 -17.5 24.5t-5.5 22.5q-9 -11 -18.5 -26t-0.5 -33q12 -20 26.5 -41.5t31.5 -39.5q4 -7 8.5 -4.5t9 9t9 15.5t9.5 15l19 -4q-13 -26 -25.5 -46.5t-33.5 -35.5
q-11 -11 -31 -9t-31 17q-9 11 -17 26t-14 29q-12 -14 -22.5 -30t-24.5 -25q-14 -15 -37 -16.5t-41 12.5q-7 9 -10.5 20.5t-2.5 23t7 20.5t18 14q13 5 26 3.5t22 -9t13.5 -20t0.5 -28.5q9 12 19.5 24t15.5 26q3 9 -2.5 17t-9.5 15q-6 10 -15 23.5t-18 24t-18 13.5t-15 -7
q-3 -9 -4 -10t-3 -10h-21q9 61 71 87q15 3 25.5 -3t18.5 -16t14 -22t12 -22q11 15 24.5 32.5t34.5 25.5z" />
    <glyph glyph-name="y" unicode="y" horiz-adv-x="264" 
d="M206 246q15 9 34 3.5t25 -22.5q9 -18 5 -37.5t-13 -37.5q-16 -32 -29.5 -62.5t-30.5 -59.5q-25 -42 -54 -80t-67 -65q-21 -12 -45.5 -15t-44.5 11q-11 7 -16 19t-4 25t7.5 23.5t19.5 14.5q11 9 26.5 5.5t24.5 -12.5q12 -12 11.5 -28t-3.5 -31q43 26 74.5 65t61.5 96
q-26 -23 -56 -42q-20 -12 -43 -19t-46 -4q-8 3 -11 9t-4 13.5t-0.5 16t0.5 15.5q4 22 10.5 50.5t10.5 51t3.5 33.5t-10.5 0q-14 -11 -20 -17.5t-15 -15.5v30q29 32 75 51q11 7 27.5 3t18.5 -18q4 -24 1.5 -47.5t-8.5 -46.5t-12 -46.5t-8 -46.5q42 18 76 48.5t49 72.5
q-6 4 -12.5 7.5l-13 7t-11.5 9.5t-8 17q-2 17 4 33.5t21 22.5z" />
    <glyph glyph-name="z" unicode="z" horiz-adv-x="304" 
d="M30 205q14 21 41 33.5t53 9.5q18 -2 33.5 -9.5t32.5 -12.5q15 11 36.5 19.5t41.5 -0.5q21 -11 21 -32t-13 -39q-9 -11 -21.5 -15.5t-26 -4.5t-26.5 2.5t-23 5.5q-8 -18 -17.5 -35t-18.5 -35q20 -14 34.5 -33t32.5 -36q12 -17 24.5 -17.5t13.5 8.5q-7 3 -15 7.5
t-14.5 10.5t-10.5 14t-2 18q1 17 11.5 26.5t22.5 11.5t23.5 -3.5t14.5 -18.5q8 -15 4 -39t-20 -42q-12 -17 -33 -19.5t-39 0.5q-15 1 -26 7.5t-21 15.5t-18.5 19.5t-17.5 19.5q-11 -12 -29.5 -24.5t-35.5 -10.5q-15 0 -23.5 8.5t-11 20t0.5 24t10 20.5q9 13 22 20t28 8.5
t30.5 -1t28.5 -6.5q9 17 17.5 34.5t13.5 34.5q-14 7 -30.5 17.5t-32.5 17.5t-30 6t-23 -17q14 0 29.5 -2.5t20.5 -17.5q4 -10 0.5 -20t-11.5 -17t-19 -9.5t-21 3.5q-17 11 -18.5 32.5t7.5 41.5zM210 214q54 -26 54 0q-3 8 -9.5 11.5t-14.5 2.5t-16 -4.5t-14 -9.5zM38 26
q20 -3 34 8t23 20q-7 11 -24.5 12t-31.5 -4.5t-17.5 -15.5t16.5 -20z" />
    <glyph glyph-name="braceleft" unicode="{" horiz-adv-x="314" 
d="M352 630q-26 -3 -42.5 -10.5t-26.5 -18.5t-15 -24t-8 -28q-4 -20 -5.5 -44.5t-3.5 -44.5q-1 -10 -1.5 -23t-1.5 -27t-2.5 -27.5t-3.5 -22.5q-8 -41 -30 -69.5t-62 -37.5l-1 -4q26 -7 40.5 -26t15.5 -51q0 -31 -12 -63.5t-22 -66.5q-5 -23 -15 -54.5t-10 -57.5
q0 -29 19.5 -42t43.5 -17l-6 -26q-20 0 -40 3.5t-36.5 13.5t-26.5 26.5t-10 43.5q0 13 2.5 30.5t7 36t10 38t10.5 36.5q3 10 7.5 24t8 29t6.5 29.5t3 24.5q0 28 -19 40.5t-48 14.5l5 30q30 2 47.5 10.5t27.5 20t14 24.5t7 25q2 14 4 33.5t6 49.5q3 43 6.5 68t7.5 45
q7 39 24.5 62t39.5 35t45 15.5t42 3.5z" />
    <glyph glyph-name="bar" unicode="|" horiz-adv-x="220" 
d="M92 -231v925h58v-925h-58z" />
    <glyph glyph-name="braceright" unicode="}" horiz-adv-x="314" 
d="M265 236q-30 -2 -47 -10.5t-27 -19.5t-13.5 -24.5t-6.5 -25.5q-3 -14 -4.5 -33t-4.5 -50q-5 -42 -8 -67.5t-8 -45.5q-7 -39 -24.5 -61.5t-39.5 -34.5t-45.5 -15.5t-42.5 -3.5l4 27q50 7 68 28.5t24 51.5q3 20 5 45t4 45q0 10 1 23t2.5 27t2.5 27.5t3 22.5q7 39 28.5 68.5
t61.5 38.5l1 4q-58 14 -55 86q1 26 12.5 58t20.5 63q6 22 14 50.5t9 50.5q2 32 -14 48t-47 21l6 27q18 0 39 -3.5t38 -14t27.5 -29t8.5 -49.5q-1 -27 -10.5 -62.5t-19.5 -70.5q-7 -22 -15.5 -51.5t-9.5 -48.5q-1 -27 16.5 -43.5t51.5 -19.5z" />
    <glyph glyph-name="asciitilde" unicode="~" horiz-adv-x="538" 
d="M511 255q-17 -49 -47 -78t-75 -29q-34 0 -63.5 14t-57.5 30q-25 15 -43 22.5t-39 7.5q-29 0 -50 -19t-37 -61l-33 24q15 34 31 54.5t32.5 31t32 13.5t29.5 3q28 0 51.5 -8t56.5 -28q29 -17 51.5 -27t45.5 -10q28 0 46.5 18.5t34.5 60.5z" />
    <glyph glyph-name="exclamdown" unicode="&#xa1;" horiz-adv-x="222" 
d="M70 -159q-27 -7 -51.5 -21t-50.5 -23q12 51 28.5 101t34 100t34 100t28.5 101h15q-8 -62 -14 -122.5t-12 -123.5q-3 -28 -5 -56.5t-7 -55.5zM120 285q-17 0 -29.5 12.5t-12.5 29.5q0 20 15 35t35 15q18 0 30 -14t12 -32q0 -20 -15 -33t-35 -13z" />
    <glyph glyph-name="cent" unicode="&#xa2;" horiz-adv-x="235" 
d="M68 -17l5 13q-32 7 -49 32.5t-17 62.5q0 28 11.5 54.5t31.5 46t45.5 31.5t54.5 12q10 0 15 -1l8 21l20 -7l-7 -17q17 -5 29.5 -15.5t12.5 -30.5q0 -18 -10.5 -35.5t-31.5 -17.5q-19 0 -32 15l-43 -114q8 -7 23 -7q24 0 41.5 15.5t35.5 29.5q1 1 5.5 -4.5t6.5 -6.5
q-23 -28 -55 -47.5t-70 -19.5h-2l-7 -18zM145 182q1 6 3.5 11.5t4.5 10.5l1 2l5 13q-20 -4 -34 -15.5t-24 -27t-14.5 -34t-4.5 -36.5q0 -14 2.5 -28.5t9.5 -26.5l50 129q0 1 0.5 1t0.5 1z" />
    <glyph glyph-name="sterling" unicode="&#xa3;" horiz-adv-x="833" 
d="M357 253l115 -2q6 40 11 85.5t12.5 92t19.5 92.5t31.5 87t49 76t72.5 59q23 13 46.5 20t48.5 7q40 0 67.5 -15t43.5 -39.5t23 -56.5t7 -66q0 -60 -24 -118.5t-64 -107.5t-92.5 -84t-109.5 -47v16q60 11 103 48.5t70.5 89.5t40.5 111t13 113q0 22 -4 46.5t-14 44.5t-28 33
t-45 13q-40 0 -69 -23.5t-49 -60.5t-33.5 -84t-22.5 -93t-15.5 -87.5t-12.5 -68.5l-20 -83l65 -1l-21 -48h-61q-9 -20 -21.5 -39t-29.5 -37q18 -12 52 -33.5t71.5 -43t72 -37.5t53.5 -16q31 0 52 22t29 50l24 -3q-11 -34 -29.5 -56t-43.5 -34.5t-54.5 -17.5t-60.5 -5
q-23 0 -51 12.5t-57.5 29.5t-57 34.5t-48.5 27.5q-45 -51 -109 -78t-133 -27q-26 0 -56.5 5t-56.5 18t-43.5 35t-17.5 55q0 41 26 66.5t63.5 39.5t78.5 18.5t72 4.5q54 0 104.5 -16.5t98.5 -37.5q8 13 13 29t10 35l-126 1zM20 68q0 -28 15 -46.5t37 -29.5t48 -15.5t48 -4.5
q63 0 122.5 24.5t105.5 68.5q-20 16 -52 31t-67.5 26.5t-70.5 18.5t-61 7q-18 0 -39.5 -4t-40.5 -13.5t-32 -25t-13 -37.5z" />
    <glyph glyph-name="currency" unicode="&#xa4;" horiz-adv-x="606" 
d="M304 581q-61 0 -105 -44q-43 -43 -43 -104q0 -62 43 -105q44 -44 105 -44q60 0 104 44t44 105q0 60 -44 104t-104 44zM79 695l100 -100q55 42 124 42t125 -42l100 100l40 -39l-100 -101q40 -53 40 -123q0 -71 -40 -123l100 -100l-40 -40l-100 100q-59 -42 -124 -42
q-70 0 -125 42l-100 -100l-40 40l101 100q-41 50 -41 123q0 68 41 123l-101 101z" />
    <glyph glyph-name="dieresis" unicode="&#xa8;" horiz-adv-x="436" 
d="M184 504q15 0 21.5 -11t6.5 -25q0 -22 -13 -41.5t-37 -19.5q-14 0 -21 13.5t-7 25.5q0 21 13 39.5t37 18.5zM370 506q14 0 25.5 -12.5t11.5 -26.5q0 -21 -15.5 -40.5t-37.5 -19.5q-17 8 -22.5 19t-5.5 23q0 9 3 19t8.5 18.5t13.5 14t19 5.5z" />
    <glyph glyph-name="copyright" unicode="&#xa9;" horiz-adv-x="643" 
d="M344 576q59 0 109.5 -21.5t87.5 -59t58 -89t21 -110.5q0 -58 -21 -109t-58 -88.5t-87.5 -59t-110.5 -21.5t-110.5 21.5t-87.5 59t-58 88.5t-21 109q0 59 21 110.5t58 89t87.5 59t110.5 21.5h1zM342 544q-50 0 -92 -19t-73 -52t-48.5 -78t-17.5 -98q0 -52 17.5 -97
t48.5 -78t73.5 -52t92.5 -19t92.5 19t73.5 52t48.5 78t17.5 97q0 53 -17.5 98t-48.5 78t-73.5 52t-92.5 19h-1zM484 240q-5 -20 -11.5 -46.5t-11.5 -39.5q-14 -5 -40 -11t-57 -6q-45 0 -78 13.5t-54.5 36t-32 50.5t-10.5 57q0 39 14.5 69t39 51t57 32t68.5 11
q34 0 58.5 -5.5t36.5 -10.5q3 -19 5.5 -36.5t5.5 -47.5l-22 -4q-14 37 -35 55.5t-57 18.5q-51 0 -79 -34.5t-28 -91.5q0 -62 31.5 -98t78.5 -36q38 0 60 20.5t39 56.5z" />
    <glyph glyph-name="ordfeminine" unicode="&#xaa;" 
d="M296 389q-14 -15 -34.5 -31.5t-42.5 -16.5q-19 0 -22.5 11t-7.5 27q-6 -10 -12 -17t-14 -12t-19 -7.5t-27 -2.5q-35 0 -50.5 23t-15.5 56q0 21 7.5 43t21 39t32 28t41.5 11t37 -7t24 -26l6 27q14 0 28.5 -0.5t28.5 0.5q-9 -39 -15 -65.5t-10.5 -44.5t-6.5 -28.5t-2 -17.5
q0 -8 8 -10q5 1 15 12.5t21 22.5q3 -3 5 -7t4 -7zM110 408q0 -8 0.5 -16t3.5 -15.5t8.5 -12t15.5 -4.5q15 0 26.5 13t19 31t11 37.5t3.5 31.5q0 15 -3.5 30.5t-22.5 15.5q-17 0 -28.5 -12.5t-19 -29.5t-11 -36.5t-3.5 -32.5zM278 234h-215l-17 -52h215z" />
    <glyph glyph-name="guillemotleft" unicode="&#xab;" horiz-adv-x="294" 
d="M98 260q10 8 18.5 18t17 18t16 12.5t16.5 2.5q-4 -18 -16 -36.5t-24 -29.5q-14 -17 -29.5 -29.5t-30.5 -29.5q15 -21 31 -45l30 -45q12 -17 8.5 -23t-8.5 -8q-24 17 -43.5 40.5t-47.5 52.5q-5 9 -15 16.5t-8 18.5q21 18 43 32.5t42 34.5zM223 271q9 10 16 19.5t14 15.5
t14 7t15 -6q-17 -35 -44 -65t-53 -56q14 -23 34 -49.5t32 -52.5q1 -2 -0.5 -4t-6 -1.5t-11.5 5t-18 16.5q-17 23 -44 44.5t-45 45.5q23 20 50 39t47 42z" />
    <glyph glyph-name="logicalnot" unicode="&#xac;" horiz-adv-x="560" 
d="M455 92v210h-400v46h453v-256h-53z" />
    <glyph glyph-name="uni00AD" unicode="&#xad;" horiz-adv-x="310" 
d="M261 182h-215l17 52h215z" />
    <glyph glyph-name="registered" unicode="&#xae;" horiz-adv-x="318" 
d="M200 614q28 0 51.5 -10.5t41 -28.5t27.5 -41.5t10 -50.5q0 -26 -10 -49.5t-27.5 -41.5t-41.5 -29t-52 -11t-52 10t-42 27.5t-28 41.5t-10 52q0 27 10 50.5t28 41.5t42 28.5t52 10.5h1zM198 590q-22 0 -40.5 -8.5t-32 -22.5t-21 -34t-7.5 -42q0 -46 29.5 -76t72.5 -30
q44 0 73 30t29 76q0 22 -8 42t-21.5 34t-32 22.5t-40.5 8.5h-1zM270 413q-31 0 -49 22q-7 9 -11.5 16.5t-8.5 12.5q-5 8 -12 8h-4v-22q0 -14 3 -16t16 -3v-17h-70v17q14 1 17 3t3 16v68q0 14 -3 16t-15 3v17h69q17 0 33.5 -7t16.5 -30q0 -13 -7.5 -21t-19.5 -13
q11 -18 21 -31t26 -26zM185 490h8q9 0 16 5q13 6 13 19q0 15 -9.5 19t-14.5 4q-7 0 -10 -2.5t-3 -10.5v-34z" />
    <glyph glyph-name="macron" unicode="&#xaf;" horiz-adv-x="152" 
d="M12 383h86q39 0 65 13l2 1l-2 -3l-3 -8q-20 -45 -83 -45h-48q-17 0 -23 -3.5t-13 -14.5l-3 -5h-9z" />
    <glyph glyph-name="degree" unicode="&#xb0;" horiz-adv-x="174" 
d="M100 496q30 0 44 -18t14 -43q0 -17 -5.5 -33.5t-16 -29.5t-26.5 -21t-36 -8q-33 0 -50 19.5t-17 48.5q0 38 25.5 61.5t67.5 23.5zM98 482q-9 0 -17 -6.5t-14.5 -15.5t-10 -19t-3.5 -17t1 -16.5t4.5 -18.5t10 -15t17.5 -6q13 0 22.5 7.5t15.5 18t8.5 22.5t2.5 22
q0 16 -8 30t-29 14z" />
    <glyph glyph-name="plusminus" unicode="&#xb1;" horiz-adv-x="560" 
d="M68 4v47h452v-47h-452zM320 307v-218h-53v218h-199v47h199v197h53v-197h200v-47h-200z" />
    <glyph glyph-name="twosuperior" unicode="&#xb2;" 
d="M259 700q35 0 57 -18.5t22 -56.5q0 -27 -13 -48t-32 -38.5t-41 -31.5t-41 -28q8 -1 16 -1h16l68 1q10 0 15 6.5t8.5 15t8 15t13.5 6.5h5q-8 -26 -19.5 -50t-18.5 -50h-206q0 13 24.5 29.5t54.5 39t54.5 52t24.5 68.5q0 21 -13.5 36.5t-36.5 15.5q-17 0 -31 -7.5
t-23.5 -20t-14.5 -28.5t-5 -32q0 -18 5.5 -35.5t7.5 -35.5h-13q-16 32 -16 70q0 26 9.5 49t26 40t39 27t49.5 10z" />
    <glyph glyph-name="threesuperior" unicode="&#xb3;" horiz-adv-x="310" 
d="M151 600q-1 29 7.5 49t24.5 32.5t36.5 18t43.5 5.5q26 0 44.5 -19t18.5 -45q0 -32 -15.5 -56.5t-42.5 -38.5q18 -22 27.5 -39.5t9.5 -46.5t-12.5 -51.5t-32.5 -39t-45.5 -25t-51.5 -8.5q-13 0 -26 3.5t-23.5 10t-17 17t-6.5 25.5q0 41 44 41q13 0 21.5 -12.5t8.5 -23.5
q0 -10 -8 -21.5t-15 -17.5q13 -5 23 -5q18 0 32.5 9.5t24 24t15 32t5.5 33.5q0 35 -19 65q-8 -5 -21 -8.5t-28 -3.5q-6 0 -15.5 1t-19.5 4t-17 8t-7 14q0 10 7.5 17.5t18 11.5t21.5 6t19 2q17 0 33.5 -3.5t33.5 -8.5q9 13 15.5 25.5t6.5 27.5q0 24 -9.5 42t-37.5 18
q-13 0 -24 -6.5t-18.5 -16.5t-11.5 -22.5t-4 -24.5h-13zM139 542q-2 -2 -5 -3.5t0 -6.5q4 -5 12.5 -6.5t13.5 -1.5q11 0 25.5 2t24.5 6q-10 8 -23 11t-25 3q-6 0 -12 -1t-11 -3z" />
    <glyph glyph-name="acute" unicode="&#xb4;" horiz-adv-x="500" 
d="M463 588l18 -43q-86 -30 -141 -125q23 139 123 168z" />
    <glyph glyph-name="mu" unicode="&#xb5;" horiz-adv-x="479" 
d="M449 82q-16 -20 -34 -36.5t-36 -29.5t-34 -20t-27 -7q-8 0 -15 6.5t-7 29.5q0 12 2 28t7 38q3 12 5 21t3.5 16.5t3.5 15.5t4 19h-2q-30 -42 -60.5 -78t-65.5 -65q-37 -31 -68 -31q-13 0 -22.5 8.5t-14.5 31.5h-2l-7 -28t-7 -33.5t-4.5 -35.5t-0.5 -34q1 -37 9.5 -65
t18.5 -36l1 -6q-5 -8 -19 -18t-34 -10q-15 0 -26 16t-10 50q1 15 4 36.5t8 46t10.5 51t11.5 52.5l85 384l60 18l6 -5q-17 -74 -34 -146.5t-32 -139.5q-3 -17 -3 -31q0 -21 6.5 -34.5t19.5 -13.5q19 0 45.5 21t53.5 52t51 65.5t38 61.5q7 29 15 65t17 82l58 23h10
q-19 -76 -37 -155t-36 -171q-3 -17 -3 -24q0 -12 7 -12q3 0 10.5 4.5t17 11.5t20 16t19.5 19z" />
    <glyph glyph-name="paragraph" unicode="&#xb6;" horiz-adv-x="461" 
d="M462 472l-78 -10l-85 -440q-11 -57 -32.5 -100t-62.5 -78q-11 -10 -24 -17.5t-25 -13t-22 -8t-14 -2.5q-20 0 -35.5 7t-23.5 15q-12 15 -5 28q2 7 8.5 13.5t11.5 10.5q9 9 20 2q11 -8 25.5 -14.5t31.5 -6.5q15 0 28 5t24.5 21.5t22.5 46.5t21 81l25 126l-59 -24
q-6 -3 -17 -3q-23 0 -45 12.5t-39.5 35t-28 52.5t-10.5 66q0 53 20.5 96t54.5 73.5t77.5 47t89.5 16.5h177l3 -13z" />
    <glyph glyph-name="periodcentered" unicode="&#xb7;" horiz-adv-x="145" 
d="M73 250q19 0 33 -14.5t14 -33.5q0 -18 -15.5 -34.5t-32.5 -16.5q-20 0 -33.5 12.5t-13.5 32.5q0 18 14 36t34 18z" />
    <glyph glyph-name="cedilla" unicode="&#xb8;" horiz-adv-x="500" 
d="M134 0l-17 -40q17 6 31 6q40 0 40 -32q0 -37 -34.5 -70.5t-71.5 -33.5q-30 0 -30 30q0 32 34 44q-8 -18 -8 -28q0 -26 20 -26q22 0 41 22t19 47q0 27 -32 27q-21 0 -40 -16l31 70h17z" />
    <glyph glyph-name="onesuperior" unicode="&#xb9;" horiz-adv-x="206" 
d="M234 696q-12 -66 -26 -129t-28 -129l43 -1q0 -4 -2.5 -7.5t-4.5 -8.5q-33 2 -72 1.5t-72 -2.5l6 19l38 1q9 45 21 98.5t19 101.5q-14 -7 -29 -16t-30 -11l2 17q10 4 23.5 12.5t28 18.5t29.5 20t29 16z" />
    <glyph glyph-name="ordmasculine" unicode="&#xba;" horiz-adv-x="286" 
d="M195 578q24 1 43 -4.5t32 -17.5t18.5 -32t2.5 -48q-3 -30 -13.5 -50t-27 -31t-37.5 -15.5t-45 -4.5q-40 0 -63.5 23.5t-23.5 63.5q0 28 9 49.5t25 36t36.5 22t43.5 8.5zM140 447q0 -10 1 -20t4.5 -18t11 -13t20.5 -5q16 -1 27 11.5t17.5 31t9.5 38.5t3 34q0 24 -8 39.5
t-28 13.5q-17 0 -28 -13t-17.5 -30.5t-9.5 -36.5t-3 -32zM278 234h-215l-17 -52h215z" />
    <glyph glyph-name="guillemotright" unicode="&#xbb;" horiz-adv-x="296" 
d="M151 295q7 0 10.5 2t8.5 2q21 -35 53 -61.5t61 -55.5q-27 -18 -52 -35.5t-46 -38.5q-14 -12 -25.5 -25t-28.5 -22q-18 3 -12.5 15.5t22.5 30.5t39.5 38.5t40.5 40.5q-18 26 -35.5 53t-35.5 56zM37 293q3 2 10.5 2h10.5q23 -29 50 -57.5t59 -51.5q-17 -18 -38.5 -31.5
t-39.5 -30.5q-21 -15 -39 -33.5t-36 -32.5q-20 3 -6 24q20 23 48 52.5t48 55.5q-17 23 -35 49.5t-32 53.5z" />
    <glyph glyph-name="onequarter" unicode="&#xbc;" horiz-adv-x="618" 
d="M226 696q-15 -83 -32.5 -161.5t-34.5 -160.5l53 -1q0 -5 -3 -9.5t-5 -11.5q-42 3 -90.5 2.5t-89.5 -3.5l7 24l47 1q11 57 26.5 124t24.5 126q-18 -8 -36.5 -19.5t-37.5 -14.5l2 22q13 4 29.5 15t34.5 23.5t37 25t37 20.5zM511 325q12 12 23 21.5t28 9.5q-8 -17 -17.5 -49
t-19.5 -70.5t-18.5 -80.5t-14.5 -78q6 1 13 1t13 1.5t11.5 5.5t9.5 14q8 14 12.5 28.5t6.5 28.5q5 0 11 -2t8 -5q-5 -32 -13 -65t-6 -68q0 -3 -3.5 -3.5t-8 -1.5t-8.5 -4t-5 -10q1 9 1.5 13t1 7t0.5 7.5t-1 15.5q-6 17 -18.5 17.5t-29.5 -2.5q-5 -32 -12.5 -62t-9.5 -62
q14 -3 26.5 -6.5t27.5 -5.5q0 -8 -8 -16q-47 0 -93 1.5t-94 -1.5v16q7 3 15.5 3.5t16 2t13.5 5.5t9 13q9 26 17 54.5t13 57.5l-162 -3q5 26 21 43t33 35q51 50 106 97t105 97zM411 77l38 163q-45 -39 -88 -79.5t-84 -84.5zM453 792q-57 -144 -114 -287t-100 -294
q-20 -73 -43.5 -148t-54.5 -144q-9 -20 -30.5 -32.5t-41.5 -18.5l-3 4q23 40 38.5 86t31.5 89q44 119 84.5 237.5t81.5 238.5q22 63 41.5 128t48.5 125q24 15 53 23z" />
    <glyph glyph-name="onehalf" unicode="&#xbd;" horiz-adv-x="507" 
d="M226 696q-15 -83 -32.5 -161.5t-34.5 -160.5l53 -1q0 -5 -3 -9.5t-5 -11.5q-42 3 -90.5 2.5t-89.5 -3.5l7 24l47 1q11 57 26.5 124t24.5 126q-18 -8 -36.5 -19.5t-37.5 -14.5l2 22q13 4 29.5 15t34.5 23.5t37 25t37 20.5zM453 792q-57 -144 -114 -287t-100 -294
q-20 -73 -43.5 -148t-54.5 -144q-9 -20 -30.5 -32.5t-41.5 -18.5l-3 4q23 40 38.5 86t31.5 89q44 119 84.5 237.5t81.5 238.5q22 63 41.5 128t48.5 125q24 15 53 23zM387 278q35 0 57 -18.5t22 -56.5q0 -27 -13 -48t-32 -38.5t-41 -31.5t-41 -28q8 -1 16 -1h16l68 1
q10 0 15 6.5t8.5 15t8 15t13.5 6.5h5q-4 -13 -8 -30t-9 -32.5t-10 -26.5t-11 -11h-206q0 13 24.5 29.5t54.5 39t54.5 52t24.5 68.5q0 21 -13.5 36.5t-36.5 15.5q-17 0 -31 -7.5t-23.5 -20t-14.5 -28.5t-5 -32q0 -18 5.5 -35.5t7.5 -35.5h-13q-16 32 -16 70q0 26 9.5 49
t26 40t39 27t49.5 10z" />
    <glyph glyph-name="threequarters" unicode="&#xbe;" horiz-adv-x="618" 
d="M511 325q12 12 23 21.5t28 9.5q-8 -17 -17.5 -49t-19.5 -70.5t-18.5 -80.5t-14.5 -78q6 1 13 1t13 1.5t11.5 5.5t9.5 14q8 14 12.5 28.5t6.5 28.5q5 0 11 -2t8 -5q-5 -32 -13 -65t-6 -68q0 -3 -3.5 -3.5t-8 -1.5t-8.5 -4t-5 -10q1 9 1.5 13t1 7t0.5 7.5t-1 15.5
q-6 17 -18.5 17.5t-29.5 -2.5q-5 -32 -12.5 -62t-9.5 -62q14 -3 26.5 -6.5t27.5 -5.5q0 -8 -8 -16q-47 0 -93 1.5t-94 -1.5v16q7 3 15.5 3.5t16 2t13.5 5.5t9 13q9 26 17 54.5t13 57.5l-162 -3q5 26 21 43t33 35q51 50 106 97t105 97zM411 77l38 163q-45 -39 -88 -79.5
t-84 -84.5zM453 792q-57 -144 -114 -287t-100 -294q-20 -73 -43.5 -148t-54.5 -144q-9 -20 -30.5 -32.5t-41.5 -18.5l-3 4q23 40 38.5 86t31.5 89q44 119 84.5 237.5t81.5 238.5q22 63 41.5 128t48.5 125q24 15 53 23zM74 600q-1 29 7.5 49t24.5 32.5t36.5 18t43.5 5.5
q26 0 44.5 -19t18.5 -45q0 -32 -15.5 -56.5t-42.5 -38.5q18 -22 27.5 -39.5t9.5 -46.5t-12.5 -51.5t-32.5 -39t-45.5 -25t-51.5 -8.5q-13 0 -26 3.5t-23.5 10t-17 17t-6.5 25.5q0 41 44 41q13 0 21.5 -12.5t8.5 -23.5q0 -10 -8 -21.5t-15 -17.5q13 -5 23 -5q18 0 32.5 9.5
t24 24t15 32t5.5 33.5q0 35 -19 65q-8 -5 -21 -8.5t-28 -3.5q-6 0 -15.5 1t-19.5 4t-17 8t-7 14q0 10 7.5 17.5t18 11.5t21.5 6t19 2q17 0 33.5 -3.5t33.5 -8.5q9 13 15.5 25.5t6.5 27.5q0 24 -9.5 42t-37.5 18q-13 0 -24 -6.5t-18.5 -16.5t-11.5 -22.5t-4 -24.5h-13z
M62 542q-2 -2 -5 -3.5t0 -6.5q4 -5 12.5 -6.5t13.5 -1.5q11 0 25.5 2t24.5 6q-10 8 -23 11t-25 3q-6 0 -12 -1t-11 -3z" />
    <glyph glyph-name="questiondown" unicode="&#xbf;" horiz-adv-x="310" 
d="M68 -181q-22 0 -42.5 7.5t-36.5 21t-26 32t-10 41.5q0 44 12.5 74t33 52.5t45 41t49 40t45.5 49.5t33 69h19q-5 -32 -18.5 -57t-31.5 -47.5t-38 -43t-36.5 -43.5t-27 -50t-10.5 -61q0 -36 26.5 -60.5t62.5 -24.5q25 0 43.5 15.5t31.5 38.5t19.5 49t6.5 47q0 37 -12 72
l20 5q4 -23 7 -46.5t3 -47.5q0 -35 -13 -66.5t-35.5 -55.5t-53 -38t-66.5 -14zM202 307q-18 0 -32.5 11.5t-14.5 31.5q0 22 13.5 35t36.5 13q18 0 29 -14t11 -31q0 -7 -3.5 -15t-9.5 -15t-14 -11.5t-16 -4.5z" />
    <glyph glyph-name="Agrave" unicode="&#xc0;" horiz-adv-x="968" 
d="M811 785q20 5 49.5 9.5t55.5 4.5q12 0 24 -3t22 -11l-12 -16q-14 3 -27.5 4t-27.5 1t-27 -1t-27 -4q77 -60 107.5 -134t30.5 -171q0 -52 -9.5 -107t-23.5 -110.5t-30.5 -110t-31.5 -104.5q20 0 38 -0.5t37 -3.5l-12 -23q-59 6 -122.5 1.5t-121.5 -4.5q-4 0 -5 2.5t-0.5 6
l1 7t-1.5 6.5q23 6 47 5.5t47 2.5q20 54 37 109.5t29 112.5q-107 1 -173 1.5t-106 0t-60 -1t-36 -0.5q-26 -52 -60.5 -99.5t-78.5 -83.5t-96.5 -57.5t-113.5 -21.5q-21 0 -42 6.5t-38.5 19t-28 31t-10.5 41.5q0 28 17 49t47 21q13 0 25 -6t21 -16t14.5 -22.5t5.5 -25.5
q0 -26 -18 -44t-41 -26q17 -3 33.5 -5t32.5 -2q61 0 108 31.5t85 82t69 114.5t59.5 129.5t57 126t62.5 104.5q38 51 87 93t103 74q-32 20 -68 26t-73 6q-58 0 -116 -10.5t-109 -39.5q-45 -27 -84 -74.5t-67 -103.5t-44 -115.5t-16 -110.5q0 -29 2.5 -49t7.5 -36.5
t11.5 -32.5t14.5 -36l-15 -4q-26 45 -33.5 93.5t-7.5 98.5q0 97 34.5 177.5t94.5 139t141 91t174 32.5q25 0 51 -3.5t50.5 -9t45 -11.5t35.5 -11zM803 754q-63 -32 -108 -87.5t-79.5 -121.5t-62 -135t-55.5 -128h365q10 39 21.5 82.5t11.5 84.5q0 45 -1.5 85.5t-10.5 78
t-28 72t-53 69.5zM689 976q49 -14 87 -60.5t47 -107.5q-57 95 -149 125z" />
    <glyph glyph-name="Aacute" unicode="&#xc1;" horiz-adv-x="968" 
d="M811 785q20 5 49.5 9.5t55.5 4.5q12 0 24 -3t22 -11l-12 -16q-14 3 -27.5 4t-27.5 1t-27 -1t-27 -4q77 -60 107.5 -134t30.5 -171q0 -52 -9.5 -107t-23.5 -110.5t-30.5 -110t-31.5 -104.5q20 0 38 -0.5t37 -3.5l-12 -23q-59 6 -122.5 1.5t-121.5 -4.5q-4 0 -5 2.5t-0.5 6
l1 7t-1.5 6.5q23 6 47 5.5t47 2.5q20 54 37 109.5t29 112.5q-107 1 -173 1.5t-106 0t-60 -1t-36 -0.5q-26 -52 -60.5 -99.5t-78.5 -83.5t-96.5 -57.5t-113.5 -21.5q-21 0 -42 6.5t-38.5 19t-28 31t-10.5 41.5q0 28 17 49t47 21q13 0 25 -6t21 -16t14.5 -22.5t5.5 -25.5
q0 -26 -18 -44t-41 -26q17 -3 33.5 -5t32.5 -2q61 0 108 31.5t85 82t69 114.5t59.5 129.5t57 126t62.5 104.5q38 51 87 93t103 74q-32 20 -68 26t-73 6q-58 0 -116 -10.5t-109 -39.5q-45 -27 -84 -74.5t-67 -103.5t-44 -115.5t-16 -110.5q0 -29 2.5 -49t7.5 -36.5
t11.5 -32.5t14.5 -36l-15 -4q-26 45 -33.5 93.5t-7.5 98.5q0 97 34.5 177.5t94.5 139t141 91t174 32.5q25 0 51 -3.5t50.5 -9t45 -11.5t35.5 -11zM803 754q-63 -32 -108 -87.5t-79.5 -121.5t-62 -135t-55.5 -128h365q10 39 21.5 82.5t11.5 84.5q0 45 -1.5 85.5t-10.5 78
t-28 72t-53 69.5zM937 975l18 -43q-86 -30 -141 -125q23 139 123 168z" />
    <glyph glyph-name="Acircumflex" unicode="&#xc2;" horiz-adv-x="968" 
d="M811 785q20 5 49.5 9.5t55.5 4.5q12 0 24 -3t22 -11l-12 -16q-14 3 -27.5 4t-27.5 1t-27 -1t-27 -4q77 -60 107.5 -134t30.5 -171q0 -52 -9.5 -107t-23.5 -110.5t-30.5 -110t-31.5 -104.5q20 0 38 -0.5t37 -3.5l-12 -23q-59 6 -122.5 1.5t-121.5 -4.5q-4 0 -5 2.5t-0.5 6
l1 7t-1.5 6.5q23 6 47 5.5t47 2.5q20 54 37 109.5t29 112.5q-107 1 -173 1.5t-106 0t-60 -1t-36 -0.5q-26 -52 -60.5 -99.5t-78.5 -83.5t-96.5 -57.5t-113.5 -21.5q-21 0 -42 6.5t-38.5 19t-28 31t-10.5 41.5q0 28 17 49t47 21q13 0 25 -6t21 -16t14.5 -22.5t5.5 -25.5
q0 -26 -18 -44t-41 -26q17 -3 33.5 -5t32.5 -2q61 0 108 31.5t85 82t69 114.5t59.5 129.5t57 126t62.5 104.5q38 51 87 93t103 74q-32 20 -68 26t-73 6q-58 0 -116 -10.5t-109 -39.5q-45 -27 -84 -74.5t-67 -103.5t-44 -115.5t-16 -110.5q0 -29 2.5 -49t7.5 -36.5
t11.5 -32.5t14.5 -36l-15 -4q-26 45 -33.5 93.5t-7.5 98.5q0 97 34.5 177.5t94.5 139t141 91t174 32.5q25 0 51 -3.5t50.5 -9t45 -11.5t35.5 -11zM803 754q-63 -32 -108 -87.5t-79.5 -121.5t-62 -135t-55.5 -128h365q10 39 21.5 82.5t11.5 84.5q0 45 -1.5 85.5t-10.5 78
t-28 72t-53 69.5zM895 839q-17 16 -31.5 33t-25.5 31q-19 -15 -40.5 -31.5t-47.5 -32.5l-17 12q30 27 56.5 53.5t48.5 52.5h19q21 -52 59 -106z" />
    <glyph glyph-name="Atilde" unicode="&#xc3;" horiz-adv-x="968" 
d="M811 785q20 5 49.5 9.5t55.5 4.5q12 0 24 -3t22 -11l-12 -16q-14 3 -27.5 4t-27.5 1t-27 -1t-27 -4q77 -60 107.5 -134t30.5 -171q0 -52 -9.5 -107t-23.5 -110.5t-30.5 -110t-31.5 -104.5q20 0 38 -0.5t37 -3.5l-12 -23q-59 6 -122.5 1.5t-121.5 -4.5q-4 0 -5 2.5t-0.5 6
l1 7t-1.5 6.5q23 6 47 5.5t47 2.5q20 54 37 109.5t29 112.5q-107 1 -173 1.5t-106 0t-60 -1t-36 -0.5q-26 -52 -60.5 -99.5t-78.5 -83.5t-96.5 -57.5t-113.5 -21.5q-21 0 -42 6.5t-38.5 19t-28 31t-10.5 41.5q0 28 17 49t47 21q13 0 25 -6t21 -16t14.5 -22.5t5.5 -25.5
q0 -26 -18 -44t-41 -26q17 -3 33.5 -5t32.5 -2q61 0 108 31.5t85 82t69 114.5t59.5 129.5t57 126t62.5 104.5q38 51 87 93t103 74q-32 20 -68 26t-73 6q-58 0 -116 -10.5t-109 -39.5q-45 -27 -84 -74.5t-67 -103.5t-44 -115.5t-16 -110.5q0 -29 2.5 -49t7.5 -36.5
t11.5 -32.5t14.5 -36l-15 -4q-26 45 -33.5 93.5t-7.5 98.5q0 97 34.5 177.5t94.5 139t141 91t174 32.5q25 0 51 -3.5t50.5 -9t45 -11.5t35.5 -11zM803 754q-63 -32 -108 -87.5t-79.5 -121.5t-62 -135t-55.5 -128h365q10 39 21.5 82.5t11.5 84.5q0 45 -1.5 85.5t-10.5 78
t-28 72t-53 69.5zM748 821q14 45 27.5 60t38.5 15q14 0 48 -9q28 -6 41 -6q24 0 36 25l9 -2q-12 -41 -26.5 -56.5t-39.5 -15.5q-10 0 -19 2l-29 7q-29 7 -43 7q-21 0 -32 -24q-1 -1 -3 -5z" />
    <glyph glyph-name="Adieresis" unicode="&#xc4;" horiz-adv-x="968" 
d="M811 785q20 5 49.5 9.5t55.5 4.5q12 0 24 -3t22 -11l-12 -16q-14 3 -27.5 4t-27.5 1t-27 -1t-27 -4q77 -60 107.5 -134t30.5 -171q0 -52 -9.5 -107t-23.5 -110.5t-30.5 -110t-31.5 -104.5q20 0 38 -0.5t37 -3.5l-12 -23q-59 6 -122.5 1.5t-121.5 -4.5q-4 0 -5 2.5t-0.5 6
l1 7t-1.5 6.5q23 6 47 5.5t47 2.5q20 54 37 109.5t29 112.5q-107 1 -173 1.5t-106 0t-60 -1t-36 -0.5q-26 -52 -60.5 -99.5t-78.5 -83.5t-96.5 -57.5t-113.5 -21.5q-21 0 -42 6.5t-38.5 19t-28 31t-10.5 41.5q0 28 17 49t47 21q13 0 25 -6t21 -16t14.5 -22.5t5.5 -25.5
q0 -26 -18 -44t-41 -26q17 -3 33.5 -5t32.5 -2q61 0 108 31.5t85 82t69 114.5t59.5 129.5t57 126t62.5 104.5q38 51 87 93t103 74q-32 20 -68 26t-73 6q-58 0 -116 -10.5t-109 -39.5q-45 -27 -84 -74.5t-67 -103.5t-44 -115.5t-16 -110.5q0 -29 2.5 -49t7.5 -36.5
t11.5 -32.5t14.5 -36l-15 -4q-26 45 -33.5 93.5t-7.5 98.5q0 97 34.5 177.5t94.5 139t141 91t174 32.5q25 0 51 -3.5t50.5 -9t45 -11.5t35.5 -11zM803 754q-63 -32 -108 -87.5t-79.5 -121.5t-62 -135t-55.5 -128h365q10 39 21.5 82.5t11.5 84.5q0 45 -1.5 85.5t-10.5 78
t-28 72t-53 69.5zM749 928q15 0 21.5 -11t6.5 -25q0 -22 -13 -41.5t-37 -19.5q-14 0 -21 13.5t-7 25.5q0 21 13 39.5t37 18.5zM935 930q14 0 25.5 -12.5t11.5 -26.5q0 -21 -15.5 -40.5t-37.5 -19.5q-17 8 -22.5 19t-5.5 23q0 9 3 19t8.5 18.5t13.5 14t19 5.5z" />
    <glyph glyph-name="Aring" unicode="&#xc5;" horiz-adv-x="968" 
d="M811 785q20 5 49.5 9.5t55.5 4.5q12 0 24 -3t22 -11l-12 -16q-14 3 -27.5 4t-27.5 1t-27 -1t-27 -4q77 -60 107.5 -134t30.5 -171q0 -52 -9.5 -107t-23.5 -110.5t-30.5 -110t-31.5 -104.5q20 0 38 -0.5t37 -3.5l-12 -23q-59 6 -122.5 1.5t-121.5 -4.5q-4 0 -5 2.5t-0.5 6
l1 7t-1.5 6.5q23 6 47 5.5t47 2.5q20 54 37 109.5t29 112.5q-107 1 -173 1.5t-106 0t-60 -1t-36 -0.5q-26 -52 -60.5 -99.5t-78.5 -83.5t-96.5 -57.5t-113.5 -21.5q-21 0 -42 6.5t-38.5 19t-28 31t-10.5 41.5q0 28 17 49t47 21q13 0 25 -6t21 -16t14.5 -22.5t5.5 -25.5
q0 -26 -18 -44t-41 -26q17 -3 33.5 -5t32.5 -2q61 0 108 31.5t85 82t69 114.5t59.5 129.5t57 126t62.5 104.5q38 51 87 93t103 74q-32 20 -68 26t-73 6q-58 0 -116 -10.5t-109 -39.5q-45 -27 -84 -74.5t-67 -103.5t-44 -115.5t-16 -110.5q0 -29 2.5 -49t7.5 -36.5
t11.5 -32.5t14.5 -36l-15 -4q-26 45 -33.5 93.5t-7.5 98.5q0 97 34.5 177.5t94.5 139t141 91t174 32.5q25 0 51 -3.5t50.5 -9t45 -11.5t35.5 -11zM803 754q-63 -32 -108 -87.5t-79.5 -121.5t-62 -135t-55.5 -128h365q10 39 21.5 82.5t11.5 84.5q0 45 -1.5 85.5t-10.5 78
t-28 72t-53 69.5zM882 937q14 0 22.5 -9.5t7.5 -23.5q-1 -30 -31 -58t-61 -28t-31 33q0 29 31 57.5t62 28.5zM868 918q-15 1 -33.5 -20t-18.5 -41q0 -18 18 -18q17 0 33.5 18.5t16.5 38.5t-16 22z" />
    <glyph glyph-name="AE" unicode="&#xc6;" horiz-adv-x="1356" 
d="M1100 790q27 0 60.5 -4t63 -16t49.5 -34.5t20 -59.5q0 -26 -19 -45.5t-46 -19.5q-23 0 -37 18.5t-14 38.5q0 13 6.5 23.5t16 18t21.5 12.5t23 9q-30 23 -61 31t-69 8q-29 0 -57 -10.5t-51 -29t-37 -44.5t-14 -57q0 -17 8 -33.5t20.5 -31t27 -27t27.5 -21.5v-43
q0 -1 -19.5 -3t-49 -9.5t-63.5 -23t-63.5 -43t-49 -70t-19.5 -104.5q0 -53 24 -94.5t62.5 -70.5t86 -44.5t95.5 -15.5q42 0 85 12.5t77.5 37.5t56 61.5t21.5 83.5q0 37 -13 63.5t-35 43.5t-51.5 25.5t-63.5 8.5q-25 0 -53 -7.5t-53 -22t-44 -35t-25 -46.5h-20q0 32 22 57
t53.5 42t66 26t60.5 9q38 0 75 -8.5t66.5 -27.5t47.5 -50t18 -75q0 -46 -19 -80t-50 -59t-71 -41t-82.5 -25.5t-84 -13.5t-75.5 -4q-53 0 -101.5 16.5t-85 48t-58.5 76t-22 100.5q0 25 4 44h-86h-56.5t-37 -0.5t-26.5 -0.5q-26 -52 -60.5 -99.5t-78.5 -83.5t-96.5 -57.5
t-113.5 -21.5q-21 0 -42 6.5t-38.5 19t-28 31t-10.5 41.5q0 28 17 49t47 21q13 0 25 -6t21 -16t14.5 -22.5t5.5 -25.5q0 -26 -18 -44t-41 -26q17 -3 33.5 -5t32.5 -2q61 0 108 31.5t85 82t69 114.5t59.5 129.5t57 126t62.5 104.5q38 51 87 93t103 74q-32 20 -68 26t-73 6
q-58 0 -116 -10.5t-109 -39.5q-45 -27 -84 -74.5t-67 -103.5t-44 -115.5t-16 -110.5q0 -29 2.5 -49t7.5 -36.5t11.5 -32.5t14.5 -36l-15 -4q-26 45 -33.5 93.5t-7.5 98.5q0 97 34.5 177.5t94.5 139t141 91t174 32.5q25 0 51 -3.5t50.5 -9t45 -11.5t35.5 -11q20 5 49.5 9.5
t55.5 4.5q12 0 24 -3t22 -11l-12 -16q-14 3 -27.5 4t-27.5 1t-27 -1t-27 -4q36 -29 63 -60q16 20 39 35.5t49 25.5t54 15t54 5zM936 473q-21 27 -38 53t-24 58q-3 15 -3 33q0 14 3 29q-11 28 -28 54.5t-43 53.5q-63 -32 -108 -87.5t-79.5 -121.5t-62 -135t-55.5 -128h196
q12 39 36.5 69.5t56.5 54t70.5 40t78.5 27.5z" />
    <glyph glyph-name="Ccedilla" unicode="&#xc7;" horiz-adv-x="581" 
d="M553 130q-45 -58 -112 -96.5t-140 -48.5l-15 -35q22 7 39 7q50 0 50 -40q0 -46 -43 -87.5t-89 -41.5q-38 0 -38 37q0 40 42 55q-9 -23 -9 -35q0 -32 25 -32q27 0 50.5 27.5t23.5 58.5q0 34 -40 34q-26 0 -50 -21l31 70q-5 0 -10.5 -0.5t-10.5 -0.5q-62 0 -108 24.5
t-77 65.5t-46 94t-15 109q0 63 16 128.5t45.5 126t71.5 113.5t94 92.5t113.5 62.5t130.5 23q89 0 143 -49t54 -140q0 -53 -18.5 -115t-53 -115.5t-83.5 -89.5t-110 -36q-55 0 -84 34t-29 87q0 38 18 80t48 77t68 58t77 23q7 0 22 -1.5t19 -6.5l-8 -21q-9 2 -18 3.5t-19 1.5
q-37 0 -68.5 -24.5t-55 -60t-37 -75.5t-13.5 -72q0 -36 18.5 -59.5t56.5 -23.5q54 0 100 31.5t79.5 79.5t52.5 103.5t19 103.5q0 88 -44.5 137t-135.5 49q-61 0 -113 -24.5t-93.5 -66t-73.5 -95.5t-53 -113t-32 -118t-11 -111q0 -50 10.5 -96t35 -81.5t64 -56.5t96.5 -21
q34 0 66 10.5t61 28t54.5 40.5t46.5 48z" />
    <glyph glyph-name="Egrave" unicode="&#xc8;" horiz-adv-x="662" 
d="M321 950q49 -14 87 -61q36 -44 46 -101q26 -2 53 -8.5t49.5 -19.5t36.5 -33.5t14 -50.5q0 -26 -19 -45.5t-46 -19.5q-23 0 -37 18.5t-14 38.5q0 13 6.5 23.5t16 18t21.5 12.5t23 9q-30 23 -61 31t-69 8q-29 0 -57 -10.5t-51 -29t-37 -44.5t-14 -57q0 -17 8 -33.5
t20.5 -31t27 -27t27.5 -21.5v-43q0 -1 -19.5 -3t-49 -9.5t-63.5 -23t-63.5 -43t-49 -70t-19.5 -104.5q0 -53 24 -94.5t62.5 -70.5t86 -44.5t95.5 -15.5q42 0 85 12.5t77.5 37.5t56 61.5t21.5 83.5q0 37 -13 63.5t-35 43.5t-51.5 25.5t-63.5 8.5q-25 0 -53 -7.5t-53 -22
t-44 -35t-25 -46.5h-20q0 32 22 57t53.5 42t66 26t60.5 9q38 0 75 -8.5t66.5 -27.5t47.5 -50t18 -75q0 -46 -19 -80t-50 -59t-71 -41t-82.5 -25.5t-84 -13.5t-75.5 -4q-53 0 -101.5 16.5t-85 48t-58.5 76t-22 100.5t21 99t56.5 75t81 53.5t93.5 34.5q-13 17 -25 33t-21 33
t-14 36t-5 42q0 43 21.5 75.5t55 54.5t74 32.5t78.5 10.5q8 0 17.5 -0.5t19.5 -1.5q-56 90 -145 119z" />
    <glyph glyph-name="Eacute" unicode="&#xc9;" horiz-adv-x="662" 
d="M414 790q27 0 60.5 -4t63 -16t49.5 -34.5t20 -59.5q0 -26 -19 -45.5t-46 -19.5q-23 0 -37 18.5t-14 38.5q0 13 6.5 23.5t16 18t21.5 12.5t23 9q-30 23 -61 31t-69 8q-29 0 -57 -10.5t-51 -29t-37 -44.5t-14 -57q0 -17 8 -33.5t20.5 -31t27 -27t27.5 -21.5v-43
q0 -1 -19.5 -3t-49 -9.5t-63.5 -23t-63.5 -43t-49 -70t-19.5 -104.5q0 -53 24 -94.5t62.5 -70.5t86 -44.5t95.5 -15.5q42 0 85 12.5t77.5 37.5t56 61.5t21.5 83.5q0 37 -13 63.5t-35 43.5t-51.5 25.5t-63.5 8.5q-25 0 -53 -7.5t-53 -22t-44 -35t-25 -46.5h-20q0 32 22 57
t53.5 42t66 26t60.5 9q38 0 75 -8.5t66.5 -27.5t47.5 -50t18 -75q0 -46 -19 -80t-50 -59t-71 -41t-82.5 -25.5t-84 -13.5t-75.5 -4q-53 0 -101.5 16.5t-85 48t-58.5 76t-22 100.5t21 99t56.5 75t81 53.5t93.5 34.5q-13 17 -25 33t-21 33t-14 36t-5 42q0 43 21.5 75.5
t55 54.5t74 32.5t78.5 10.5zM583 965l18 -43q-86 -30 -141 -125q23 139 123 168z" />
    <glyph glyph-name="Ecircumflex" unicode="&#xca;" horiz-adv-x="662" 
d="M414 790q27 0 60.5 -4t63 -16t49.5 -34.5t20 -59.5q0 -26 -19 -45.5t-46 -19.5q-23 0 -37 18.5t-14 38.5q0 13 6.5 23.5t16 18t21.5 12.5t23 9q-30 23 -61 31t-69 8q-29 0 -57 -10.5t-51 -29t-37 -44.5t-14 -57q0 -17 8 -33.5t20.5 -31t27 -27t27.5 -21.5v-43
q0 -1 -19.5 -3t-49 -9.5t-63.5 -23t-63.5 -43t-49 -70t-19.5 -104.5q0 -53 24 -94.5t62.5 -70.5t86 -44.5t95.5 -15.5q42 0 85 12.5t77.5 37.5t56 61.5t21.5 83.5q0 37 -13 63.5t-35 43.5t-51.5 25.5t-63.5 8.5q-25 0 -53 -7.5t-53 -22t-44 -35t-25 -46.5h-20q0 32 22 57
t53.5 42t66 26t60.5 9q38 0 75 -8.5t66.5 -27.5t47.5 -50t18 -75q0 -46 -19 -80t-50 -59t-71 -41t-82.5 -25.5t-84 -13.5t-75.5 -4q-53 0 -101.5 16.5t-85 48t-58.5 76t-22 100.5t21 99t56.5 75t81 53.5t93.5 34.5q-13 17 -25 33t-21 33t-14 36t-5 42q0 43 21.5 75.5
t55 54.5t74 32.5t78.5 10.5zM511 845q-17 16 -31.5 33t-25.5 31q-19 -15 -40.5 -31.5t-47.5 -32.5l-17 12q30 27 56.5 53.5t48.5 52.5h19q21 -52 59 -106z" />
    <glyph glyph-name="Edieresis" unicode="&#xcb;" horiz-adv-x="662" 
d="M414 790q27 0 60.5 -4t63 -16t49.5 -34.5t20 -59.5q0 -26 -19 -45.5t-46 -19.5q-23 0 -37 18.5t-14 38.5q0 13 6.5 23.5t16 18t21.5 12.5t23 9q-30 23 -61 31t-69 8q-29 0 -57 -10.5t-51 -29t-37 -44.5t-14 -57q0 -17 8 -33.5t20.5 -31t27 -27t27.5 -21.5v-43
q0 -1 -19.5 -3t-49 -9.5t-63.5 -23t-63.5 -43t-49 -70t-19.5 -104.5q0 -53 24 -94.5t62.5 -70.5t86 -44.5t95.5 -15.5q42 0 85 12.5t77.5 37.5t56 61.5t21.5 83.5q0 37 -13 63.5t-35 43.5t-51.5 25.5t-63.5 8.5q-25 0 -53 -7.5t-53 -22t-44 -35t-25 -46.5h-20q0 32 22 57
t53.5 42t66 26t60.5 9q38 0 75 -8.5t66.5 -27.5t47.5 -50t18 -75q0 -46 -19 -80t-50 -59t-71 -41t-82.5 -25.5t-84 -13.5t-75.5 -4q-53 0 -101.5 16.5t-85 48t-58.5 76t-22 100.5t21 99t56.5 75t81 53.5t93.5 34.5q-13 17 -25 33t-21 33t-14 36t-5 42q0 43 21.5 75.5
t55 54.5t74 32.5t78.5 10.5zM337 908q15 0 21.5 -11t6.5 -25q0 -22 -13 -41.5t-37 -19.5q-14 0 -21 13.5t-7 25.5q0 21 13 39.5t37 18.5zM523 910q14 0 25.5 -12.5t11.5 -26.5q0 -21 -15.5 -40.5t-37.5 -19.5q-17 8 -22.5 19t-5.5 23q0 9 3 19t8.5 18.5t13.5 14t19 5.5z" />
    <glyph glyph-name="Igrave" unicode="&#xcc;" horiz-adv-x="646" 
d="M619 788q28 0 55.5 -7.5t52.5 -16.5t45.5 -16t35.5 -5q-15 -27 -36 -43.5t-42.5 -37t-40 -51.5t-29.5 -87q-13 -66 -21 -134.5t-22 -135.5q-15 -72 -55 -127.5t-95.5 -92.5t-122 -56t-136.5 -19q-39 0 -76 9t-65.5 28.5t-45.5 50.5t-17 75q0 46 22 82t56 62.5t75.5 42.5
t81.5 23q0 82 25.5 164t74 146.5t119 105t161.5 40.5zM254 337q44 0 85.5 -6.5t82.5 -20.5l-12 -24q-30 10 -61.5 20t-64.5 10q-6 0 -13 -1t-13 -2q6 -38 18 -76t32 -71l-19 -21q-23 37 -35.5 79t-14.5 86q-35 -6 -72.5 -20.5t-69 -37.5t-51.5 -55.5t-20 -72.5q0 -27 12 -52
t32 -44t45.5 -30.5t52.5 -11.5q68 0 121 10t94 35t72.5 68t55.5 109q17 46 21 92.5t15 94.5q21 84 62 153.5t101 131.5q-32 18 -65.5 31t-69.5 13q-81 0 -139.5 -34t-97.5 -89t-59.5 -124.5t-24.5 -139.5zM631 948q49 -14 87 -60.5t47 -107.5q-57 95 -149 125z" />
    <glyph glyph-name="Iacute" unicode="&#xcd;" horiz-adv-x="646" 
d="M839 914l18 -43q-78 -27 -130 -107q24 -9 45 -16t36 -5q-15 -27 -36 -43.5t-42.5 -37t-40 -51.5t-29.5 -87q-13 -66 -21 -134.5t-22 -135.5q-15 -72 -55 -127.5t-95.5 -92.5t-122 -56t-136.5 -19q-39 0 -76 9t-65.5 28.5t-45.5 50.5t-17 75q0 46 22 82t56 62.5t75.5 42.5
t81.5 23q0 82 25.5 164t74 146.5t119 105t161.5 40.5q26 0 52 -7t49 -15q26 121 119 148zM254 337q44 0 85.5 -6.5t82.5 -20.5l-12 -24q-30 10 -61.5 20t-64.5 10q-6 0 -13 -1t-13 -2q6 -38 18 -76t32 -71l-19 -21q-23 37 -35.5 79t-14.5 86q-35 -6 -72.5 -20.5t-69 -37.5
t-51.5 -55.5t-20 -72.5q0 -27 12 -52t32 -44t45.5 -30.5t52.5 -11.5q68 0 121 10t94 35t72.5 68t55.5 109q17 46 21 92.5t15 94.5q21 84 62 153.5t101 131.5q-32 18 -65.5 31t-69.5 13q-81 0 -139.5 -34t-97.5 -89t-59.5 -124.5t-24.5 -139.5z" />
    <glyph glyph-name="Icircumflex" unicode="&#xce;" horiz-adv-x="646" 
d="M619 788q28 0 55.5 -7.5t52.5 -16.5t45.5 -16t35.5 -5q-15 -27 -36 -43.5t-42.5 -37t-40 -51.5t-29.5 -87q-13 -66 -21 -134.5t-22 -135.5q-15 -72 -55 -127.5t-95.5 -92.5t-122 -56t-136.5 -19q-39 0 -76 9t-65.5 28.5t-45.5 50.5t-17 75q0 46 22 82t56 62.5t75.5 42.5
t81.5 23q0 82 25.5 164t74 146.5t119 105t161.5 40.5zM254 337q44 0 85.5 -6.5t82.5 -20.5l-12 -24q-30 10 -61.5 20t-64.5 10q-6 0 -13 -1t-13 -2q6 -38 18 -76t32 -71l-19 -21q-23 37 -35.5 79t-14.5 86q-35 -6 -72.5 -20.5t-69 -37.5t-51.5 -55.5t-20 -72.5q0 -27 12 -52
t32 -44t45.5 -30.5t52.5 -11.5q68 0 121 10t94 35t72.5 68t55.5 109q17 46 21 92.5t15 94.5q21 84 62 153.5t101 131.5q-32 18 -65.5 31t-69.5 13q-81 0 -139.5 -34t-97.5 -89t-59.5 -124.5t-24.5 -139.5zM701 822q-17 16 -31.5 33t-25.5 31q-19 -15 -40.5 -31.5
t-47.5 -32.5l-17 12q30 27 56.5 53.5t48.5 52.5h19q21 -52 59 -106z" />
    <glyph glyph-name="Idieresis" unicode="&#xcf;" horiz-adv-x="646" 
d="M619 788q28 0 55.5 -7.5t52.5 -16.5t45.5 -16t35.5 -5q-15 -27 -36 -43.5t-42.5 -37t-40 -51.5t-29.5 -87q-13 -66 -21 -134.5t-22 -135.5q-15 -72 -55 -127.5t-95.5 -92.5t-122 -56t-136.5 -19q-39 0 -76 9t-65.5 28.5t-45.5 50.5t-17 75q0 46 22 82t56 62.5t75.5 42.5
t81.5 23q0 82 25.5 164t74 146.5t119 105t161.5 40.5zM254 337q44 0 85.5 -6.5t82.5 -20.5l-12 -24q-30 10 -61.5 20t-64.5 10q-6 0 -13 -1t-13 -2q6 -38 18 -76t32 -71l-19 -21q-23 37 -35.5 79t-14.5 86q-35 -6 -72.5 -20.5t-69 -37.5t-51.5 -55.5t-20 -72.5q0 -27 12 -52
t32 -44t45.5 -30.5t52.5 -11.5q68 0 121 10t94 35t72.5 68t55.5 109q17 46 21 92.5t15 94.5q21 84 62 153.5t101 131.5q-32 18 -65.5 31t-69.5 13q-81 0 -139.5 -34t-97.5 -89t-59.5 -124.5t-24.5 -139.5zM549 926q15 0 21.5 -11t6.5 -25q0 -22 -13 -41.5t-37 -19.5
q-14 0 -21 13.5t-7 25.5q0 21 13 39.5t37 18.5zM735 928q14 0 25.5 -12.5t11.5 -26.5q0 -21 -15.5 -40.5t-37.5 -19.5q-17 8 -22.5 19t-5.5 23q0 9 3 19t8.5 18.5t13.5 14t19 5.5z" />
    <glyph glyph-name="Eth" unicode="&#xd0;" horiz-adv-x="773" 
d="M302 272l129 -1q6 35 10.5 71t9 70.5t9 66t10.5 57.5q17 66 56 117t85 97q-34 8 -68 13t-69 5q-89 0 -165.5 -40.5t-132.5 -105.5t-88 -148.5t-32 -168.5q0 -29 7.5 -57t16.5 -55h-12q-18 35 -27 74t-9 77q0 97 35 178.5t95.5 140.5t143 92t178.5 33q43 0 75 -6.5
t67 -17.5q26 14 59.5 23t65.5 10l10 -15q-22 -1 -56 -6.5t-61 -20.5q83 -53 120.5 -125t37.5 -168q0 -53 -12.5 -109.5t-36 -111.5t-58 -104t-77.5 -86t-95 -59t-111 -22q-33 0 -66 14.5t-63 26.5q-29 -14 -73.5 -27.5t-89.5 -13.5q-20 0 -41 5t-38 15.5t-28 27.5t-11 41
q0 21 14 35t34.5 22t42.5 11.5t37 3.5q54 0 104.5 -20.5t99.5 -42.5q33 24 53.5 64.5t32.5 89.5h-136zM356 60q35 -13 70.5 -24.5t72.5 -11.5q45 0 82 22.5t66 59.5t50.5 83.5t36 95.5t21.5 95t7 82t-7.5 78t-23.5 81t-41 71.5t-60 49.5q-28 -36 -43.5 -74t-24.5 -77
t-12.5 -79.5t-7.5 -81t-9 -80.5t-17 -79h91l-21 -48l-88 -1q-20 -44 -53.5 -84.5t-88.5 -77.5zM20 49q0 -18 12.5 -29t30 -18t36.5 -9.5t32 -2.5t30 2.5t34 7t33 10.5t28 12l-42.5 17.5t-53 20t-53.5 16t-43 6.5t-30.5 -7t-13.5 -26z" />
    <glyph glyph-name="Ntilde" unicode="&#xd1;" horiz-adv-x="821" 
d="M805 108q-6 -20 -19.5 -40t-30.5 -35.5t-36 -25t-35 -9.5q-23 0 -37.5 9t-23.5 24t-12.5 33.5t-3.5 37.5q0 54 17.5 113.5t38.5 120.5t38.5 121.5t17.5 117.5q0 20 -10 34t-32 14q-20 0 -44 -22.5t-50 -60.5t-52.5 -87.5t-51.5 -103t-47.5 -107.5t-40.5 -101.5
t-30.5 -84.5t-16.5 -56h-86q18 76 38.5 154.5t38.5 158t29.5 159.5t11.5 159q0 69 -36.5 102t-104.5 33q-53 0 -91.5 -32.5t-64 -80.5t-38 -101.5t-12.5 -95.5q0 -94 27.5 -168t95.5 -137l-13 -8q-49 43 -75.5 88.5t-38.5 87t-13.5 75.5t-1.5 54q0 64 14.5 127.5t47 114
t84 81.5t126.5 31q47 0 80 -18t54 -48t30.5 -69t9.5 -80q0 -50 -7.5 -98t-18 -96t-21.5 -95.5t-18 -95.5q13 29 33.5 75t45.5 98t55 104.5t63 95t69 69t74 26.5q37 0 55.5 -17t18.5 -55q0 -62 -17 -124t-37 -123.5t-37 -122.5t-17 -120q0 -20 8.5 -36.5t28.5 -16.5
q11 0 20 7t15.5 17t11 21.5t7.5 19.5zM487 691q14 45 27.5 60t38.5 15q14 0 48 -9q28 -6 41 -6q24 0 36 25l9 -2q-12 -41 -26.5 -56.5t-39.5 -15.5q-10 0 -19 2l-29 7q-29 7 -43 7q-21 0 -32 -24q-1 -1 -3 -5z" />
    <glyph glyph-name="Ograve" unicode="&#xd2;" horiz-adv-x="716" 
d="M440 613q43 -26 56.5 -62.5t13.5 -84.5q0 -34 -11.5 -71.5t-32.5 -69.5t-52 -53t-70 -21q-35 0 -60 17t-41.5 43t-24.5 58t-8 61q0 75 27 142.5t74.5 117.5t112.5 79.5t142 29.5q57 0 99 -25t69.5 -64.5t40.5 -89.5t13 -100q0 -62 -17 -127.5t-48.5 -127t-75 -116
t-97 -95.5t-115 -64.5t-128.5 -23.5q-66 0 -120.5 22t-93.5 62t-60 95t-21 121q0 35 6 77t18.5 85.5t33 84t49 73t66 52.5t85.5 22l-11 -24q-33 -3 -57.5 -22t-42.5 -48.5t-29.5 -66t-18.5 -75t-10 -75t-3 -65.5q0 -57 15.5 -109t46.5 -92.5t77.5 -64.5t109.5 -24
q59 0 108 23.5t88.5 63.5t69 91.5t49.5 107.5t30 112.5t10 105.5q0 43 -10 90t-32.5 86t-59 64.5t-90.5 25.5q-62 0 -114 -30t-89.5 -78t-58 -107t-20.5 -117q0 -26 6.5 -54.5t21 -52t36.5 -38.5t54 -15t57 23t42.5 56t27 69.5t9.5 63.5q0 35 -10 65.5t-42 49.5zM178 874
q49 -14 87 -60.5t47 -107.5q-57 95 -149 125z" />
    <glyph glyph-name="Oacute" unicode="&#xd3;" horiz-adv-x="716" 
d="M440 613q43 -26 56.5 -62.5t13.5 -84.5q0 -34 -11.5 -71.5t-32.5 -69.5t-52 -53t-70 -21q-35 0 -60 17t-41.5 43t-24.5 58t-8 61q0 75 27 142.5t74.5 117.5t112.5 79.5t142 29.5q57 0 99 -25t69.5 -64.5t40.5 -89.5t13 -100q0 -62 -17 -127.5t-48.5 -127t-75 -116
t-97 -95.5t-115 -64.5t-128.5 -23.5q-66 0 -120.5 22t-93.5 62t-60 95t-21 121q0 35 6 77t18.5 85.5t33 84t49 73t66 52.5t85.5 22l-11 -24q-33 -3 -57.5 -22t-42.5 -48.5t-29.5 -66t-18.5 -75t-10 -75t-3 -65.5q0 -57 15.5 -109t46.5 -92.5t77.5 -64.5t109.5 -24
q59 0 108 23.5t88.5 63.5t69 91.5t49.5 107.5t30 112.5t10 105.5q0 43 -10 90t-32.5 86t-59 64.5t-90.5 25.5q-62 0 -114 -30t-89.5 -78t-58 -107t-20.5 -117q0 -26 6.5 -54.5t21 -52t36.5 -38.5t54 -15t57 23t42.5 56t27 69.5t9.5 63.5q0 35 -10 65.5t-42 49.5zM452 902
l18 -43q-86 -30 -141 -125q23 139 123 168z" />
    <glyph glyph-name="Ocircumflex" unicode="&#xd4;" horiz-adv-x="716" 
d="M440 613q43 -26 56.5 -62.5t13.5 -84.5q0 -34 -11.5 -71.5t-32.5 -69.5t-52 -53t-70 -21q-35 0 -60 17t-41.5 43t-24.5 58t-8 61q0 75 27 142.5t74.5 117.5t112.5 79.5t142 29.5q57 0 99 -25t69.5 -64.5t40.5 -89.5t13 -100q0 -62 -17 -127.5t-48.5 -127t-75 -116
t-97 -95.5t-115 -64.5t-128.5 -23.5q-66 0 -120.5 22t-93.5 62t-60 95t-21 121q0 35 6 77t18.5 85.5t33 84t49 73t66 52.5t85.5 22l-11 -24q-33 -3 -57.5 -22t-42.5 -48.5t-29.5 -66t-18.5 -75t-10 -75t-3 -65.5q0 -57 15.5 -109t46.5 -92.5t77.5 -64.5t109.5 -24
q59 0 108 23.5t88.5 63.5t69 91.5t49.5 107.5t30 112.5t10 105.5q0 43 -10 90t-32.5 86t-59 64.5t-90.5 25.5q-62 0 -114 -30t-89.5 -78t-58 -107t-20.5 -117q0 -26 6.5 -54.5t21 -52t36.5 -38.5t54 -15t57 23t42.5 56t27 69.5t9.5 63.5q0 35 -10 65.5t-42 49.5zM617 829
q-17 16 -31.5 33t-25.5 31q-19 -15 -40.5 -31.5t-47.5 -32.5l-17 12q30 27 56.5 53.5t48.5 52.5h19q21 -52 59 -106z" />
    <glyph glyph-name="Otilde" unicode="&#xd5;" horiz-adv-x="716" 
d="M440 613q43 -26 56.5 -62.5t13.5 -84.5q0 -34 -11.5 -71.5t-32.5 -69.5t-52 -53t-70 -21q-35 0 -60 17t-41.5 43t-24.5 58t-8 61q0 75 27 142.5t74.5 117.5t112.5 79.5t142 29.5q57 0 99 -25t69.5 -64.5t40.5 -89.5t13 -100q0 -62 -17 -127.5t-48.5 -127t-75 -116
t-97 -95.5t-115 -64.5t-128.5 -23.5q-66 0 -120.5 22t-93.5 62t-60 95t-21 121q0 35 6 77t18.5 85.5t33 84t49 73t66 52.5t85.5 22l-11 -24q-33 -3 -57.5 -22t-42.5 -48.5t-29.5 -66t-18.5 -75t-10 -75t-3 -65.5q0 -57 15.5 -109t46.5 -92.5t77.5 -64.5t109.5 -24
q59 0 108 23.5t88.5 63.5t69 91.5t49.5 107.5t30 112.5t10 105.5q0 43 -10 90t-32.5 86t-59 64.5t-90.5 25.5q-62 0 -114 -30t-89.5 -78t-58 -107t-20.5 -117q0 -26 6.5 -54.5t21 -52t36.5 -38.5t54 -15t57 23t42.5 56t27 69.5t9.5 63.5q0 35 -10 65.5t-42 49.5zM197 745
q14 45 27.5 60t38.5 15q14 0 48 -9q28 -6 41 -6q24 0 36 25l9 -2q-12 -41 -26.5 -56.5t-39.5 -15.5q-10 0 -19 2l-29 7q-29 7 -43 7q-21 0 -32 -24q-1 -1 -3 -5z" />
    <glyph glyph-name="Odieresis" unicode="&#xd6;" horiz-adv-x="716" 
d="M440 613q43 -26 56.5 -62.5t13.5 -84.5q0 -34 -11.5 -71.5t-32.5 -69.5t-52 -53t-70 -21q-35 0 -60 17t-41.5 43t-24.5 58t-8 61q0 75 27 142.5t74.5 117.5t112.5 79.5t142 29.5q57 0 99 -25t69.5 -64.5t40.5 -89.5t13 -100q0 -62 -17 -127.5t-48.5 -127t-75 -116
t-97 -95.5t-115 -64.5t-128.5 -23.5q-66 0 -120.5 22t-93.5 62t-60 95t-21 121q0 35 6 77t18.5 85.5t33 84t49 73t66 52.5t85.5 22l-11 -24q-33 -3 -57.5 -22t-42.5 -48.5t-29.5 -66t-18.5 -75t-10 -75t-3 -65.5q0 -57 15.5 -109t46.5 -92.5t77.5 -64.5t109.5 -24
q59 0 108 23.5t88.5 63.5t69 91.5t49.5 107.5t30 112.5t10 105.5q0 43 -10 90t-32.5 86t-59 64.5t-90.5 25.5q-62 0 -114 -30t-89.5 -78t-58 -107t-20.5 -117q0 -26 6.5 -54.5t21 -52t36.5 -38.5t54 -15t57 23t42.5 56t27 69.5t9.5 63.5q0 35 -10 65.5t-42 49.5zM552 961
q14 0 25.5 -12.5t11.5 -26.5q0 -21 -15.5 -40.5t-37.5 -19.5q-17 8 -22.5 19t-5.5 23q0 9 3 19t8.5 18.5t13.5 14t19 5.5zM366 959q15 0 21.5 -11t6.5 -25q0 -22 -13 -41.5t-37 -19.5q-14 0 -21 13.5t-7 25.5q0 21 13 39.5t37 18.5z" />
    <glyph glyph-name="multiply" unicode="&#xd7;" horiz-adv-x="560" 
d="M322 240l154 -154l-38 -37l-154 154l-141 -141l-33 33l141 141l-139 139l37 38l139 -140l142 142l33 -33z" />
    <glyph glyph-name="Oslash" unicode="&#xd8;" horiz-adv-x="716" 
d="M505 825q0 -6 -5 -24q-1 -4 -3 -9q31 7 69 7q57 0 99 -25t69.5 -64.5t40.5 -89.5t13 -100q0 -62 -17 -127t-48 -126t-74 -115.5t-96 -95.5t-114 -65t-127 -25q-3 -12 -4 -18q-4 -15 -10 -23q-4 -6 -18 -17l-8 -6q-8 -6 -10 -6t-2 4q0 1 3 7q6 16 16 60q-60 4 -109.5 28
t-84.5 63.5t-54 92t-19 115.5q0 35 6 77t18.5 85.5t33 84t49 73t66 52.5t85.5 22l-11 -24q-33 -3 -57.5 -22t-42.5 -48.5t-29.5 -66t-18.5 -75t-10 -75t-3 -65.5q0 -50 11.5 -96t35 -84t59 -65t83.5 -38q2 8 4 18l14 57q12 53 27 122l11 53q-34 0 -59 17t-41.5 43t-24.5 58
t-8 61q0 61 18 117.5t50.5 102.5t78 80t101.5 52q6 24 9 27q4 5 17 15q14 8 16 8q5 0 5 -7zM510 466q0 -31 -9.5 -65t-27 -64t-43 -53t-58.5 -30q-1 -7 -2 -13q-17 -75 -26 -121l-24 -116l-2 -8q7 -1 14 -1.5t15 -0.5q59 0 108 23.5t88.5 63.5t69 91.5t49.5 107.5t30 112.5
t10 105.5q0 43 -10 90t-32.5 86t-59 64.5t-90.5 25.5q-5 0 -10 -0.5t-10 -0.5q-15 -59 -38 -159q35 -26 46.5 -60t11.5 -78zM228 432q0 -26 6.5 -54.5t21 -52t36.5 -38.5t54 -15h2l10 47l26 120l26 116l23 110l16 74q2 9 3 17q-50 -13 -91.5 -46.5t-71 -78t-45.5 -96.5
t-16 -103zM482 484q0 29 -7 55.5t-27 45.5l-25 -103q-15 -64 -26 -116q-7 -29 -19 -87q24 11 43.5 35.5t33 54.5t20.5 61t7 54z" />
    <glyph glyph-name="Ugrave" unicode="&#xd9;" horiz-adv-x="929" 
d="M907 86q-6 -15 -17 -31t-27 -29.5t-37 -22t-46 -8.5q-23 0 -37.5 10.5t-23.5 26.5t-12.5 35.5t-3.5 38.5q0 53 13 113.5t35 122.5t50.5 124t60 120t63 109.5t59.5 92.5q-42 -10 -79 -50t-71.5 -98t-67 -128.5t-65.5 -143t-67.5 -141t-72.5 -121.5t-80 -85t-90 -32
q-34 0 -56 14t-34.5 37t-17.5 51.5t-5 57.5q0 49 14.5 96.5t36.5 93t47 89t47 85t36.5 81t14.5 77.5q0 29 -12.5 49.5t-32 33.5t-44.5 19t-50 6q-47 0 -88.5 -19.5t-75.5 -51.5t-61 -74.5t-45.5 -88.5t-28.5 -92.5t-10 -87.5q0 -60 18 -116t54 -104l-15 -12q-42 48 -60 109
t-18 124q0 81 26.5 159.5t76 141t119.5 100.5t157 38q35 0 66.5 -11t55 -31.5t37.5 -50t14 -65.5q0 -40 -17.5 -85.5t-44 -93.5t-57 -97.5t-57 -97.5t-44 -92.5t-17.5 -83.5q0 -40 17 -60.5t58 -20.5q44 0 84 34t77 89.5t72 126.5t69 145t68 145t69.5 126.5t72.5 89.5t78 34
q7 0 13.5 -0.5t13.5 -1.5q-3 -17 -11 -33t-17 -31t-18.5 -30t-16.5 -31q-27 -65 -55 -138t-50.5 -149.5t-37 -153t-14.5 -147.5v-15.5t2 -21t6.5 -18.5t13.5 -8q12 0 25 8.5t23.5 21t17.5 26.5t7 25zM628 877q49 -14 87 -60.5t47 -107.5q-57 95 -149 125z" />
    <glyph glyph-name="Uacute" unicode="&#xda;" horiz-adv-x="929" 
d="M907 86q-6 -15 -17 -31t-27 -29.5t-37 -22t-46 -8.5q-23 0 -37.5 10.5t-23.5 26.5t-12.5 35.5t-3.5 38.5q0 53 13 113.5t35 122.5t50.5 124t60 120t63 109.5t59.5 92.5q-42 -10 -79 -50t-71.5 -98t-67 -128.5t-65.5 -143t-67.5 -141t-72.5 -121.5t-80 -85t-90 -32
q-34 0 -56 14t-34.5 37t-17.5 51.5t-5 57.5q0 49 14.5 96.5t36.5 93t47 89t47 85t36.5 81t14.5 77.5q0 29 -12.5 49.5t-32 33.5t-44.5 19t-50 6q-47 0 -88.5 -19.5t-75.5 -51.5t-61 -74.5t-45.5 -88.5t-28.5 -92.5t-10 -87.5q0 -60 18 -116t54 -104l-15 -12q-42 48 -60 109
t-18 124q0 81 26.5 159.5t76 141t119.5 100.5t157 38q35 0 66.5 -11t55 -31.5t37.5 -50t14 -65.5q0 -40 -17.5 -85.5t-44 -93.5t-57 -97.5t-57 -97.5t-44 -92.5t-17.5 -83.5q0 -40 17 -60.5t58 -20.5q44 0 84 34t77 89.5t72 126.5t69 145t68 145t69.5 126.5t72.5 89.5t78 34
q7 0 13.5 -0.5t13.5 -1.5q-3 -17 -11 -33t-17 -31t-18.5 -30t-16.5 -31q-27 -65 -55 -138t-50.5 -149.5t-37 -153t-14.5 -147.5v-15.5t2 -21t6.5 -18.5t13.5 -8q12 0 25 8.5t23.5 21t17.5 26.5t7 25zM780 864l18 -43q-86 -30 -141 -125q23 139 123 168z" />
    <glyph glyph-name="Ucircumflex" unicode="&#xdb;" horiz-adv-x="929" 
d="M907 86q-6 -15 -17 -31t-27 -29.5t-37 -22t-46 -8.5q-23 0 -37.5 10.5t-23.5 26.5t-12.5 35.5t-3.5 38.5q0 53 13 113.5t35 122.5t50.5 124t60 120t63 109.5t59.5 92.5q-42 -10 -79 -50t-71.5 -98t-67 -128.5t-65.5 -143t-67.5 -141t-72.5 -121.5t-80 -85t-90 -32
q-34 0 -56 14t-34.5 37t-17.5 51.5t-5 57.5q0 49 14.5 96.5t36.5 93t47 89t47 85t36.5 81t14.5 77.5q0 29 -12.5 49.5t-32 33.5t-44.5 19t-50 6q-47 0 -88.5 -19.5t-75.5 -51.5t-61 -74.5t-45.5 -88.5t-28.5 -92.5t-10 -87.5q0 -60 18 -116t54 -104l-15 -12q-42 48 -60 109
t-18 124q0 81 26.5 159.5t76 141t119.5 100.5t157 38q35 0 66.5 -11t55 -31.5t37.5 -50t14 -65.5q0 -40 -17.5 -85.5t-44 -93.5t-57 -97.5t-57 -97.5t-44 -92.5t-17.5 -83.5q0 -40 17 -60.5t58 -20.5q44 0 84 34t77 89.5t72 126.5t69 145t68 145t69.5 126.5t72.5 89.5t78 34
q7 0 13.5 -0.5t13.5 -1.5q-3 -17 -11 -33t-17 -31t-18.5 -30t-16.5 -31q-27 -65 -55 -138t-50.5 -149.5t-37 -153t-14.5 -147.5v-15.5t2 -21t6.5 -18.5t13.5 -8q12 0 25 8.5t23.5 21t17.5 26.5t7 25zM779 720q-17 16 -31.5 33t-25.5 31q-19 -15 -40.5 -31.5t-47.5 -32.5
l-17 12q30 27 56.5 53.5t48.5 52.5h19q21 -52 59 -106z" />
    <glyph glyph-name="Udieresis" unicode="&#xdc;" horiz-adv-x="929" 
d="M907 86q-6 -15 -17 -31t-27 -29.5t-37 -22t-46 -8.5q-23 0 -37.5 10.5t-23.5 26.5t-12.5 35.5t-3.5 38.5q0 53 13 113.5t35 122.5t50.5 124t60 120t63 109.5t59.5 92.5q-42 -10 -79 -50t-71.5 -98t-67 -128.5t-65.5 -143t-67.5 -141t-72.5 -121.5t-80 -85t-90 -32
q-34 0 -56 14t-34.5 37t-17.5 51.5t-5 57.5q0 49 14.5 96.5t36.5 93t47 89t47 85t36.5 81t14.5 77.5q0 29 -12.5 49.5t-32 33.5t-44.5 19t-50 6q-47 0 -88.5 -19.5t-75.5 -51.5t-61 -74.5t-45.5 -88.5t-28.5 -92.5t-10 -87.5q0 -60 18 -116t54 -104l-15 -12q-42 48 -60 109
t-18 124q0 81 26.5 159.5t76 141t119.5 100.5t157 38q35 0 66.5 -11t55 -31.5t37.5 -50t14 -65.5q0 -40 -17.5 -85.5t-44 -93.5t-57 -97.5t-57 -97.5t-44 -92.5t-17.5 -83.5q0 -40 17 -60.5t58 -20.5q44 0 84 34t77 89.5t72 126.5t69 145t68 145t69.5 126.5t72.5 89.5t78 34
q7 0 13.5 -0.5t13.5 -1.5q-3 -17 -11 -33t-17 -31t-18.5 -30t-16.5 -31q-27 -65 -55 -138t-50.5 -149.5t-37 -153t-14.5 -147.5v-15.5t2 -21t6.5 -18.5t13.5 -8q12 0 25 8.5t23.5 21t17.5 26.5t7 25zM644 861q15 0 21.5 -11t6.5 -25q0 -22 -13 -41.5t-37 -19.5
q-14 0 -21 13.5t-7 25.5q0 21 13 39.5t37 18.5zM830 863q14 0 25.5 -12.5t11.5 -26.5q0 -21 -15.5 -40.5t-37.5 -19.5q-17 8 -22.5 19t-5.5 23q0 9 3 19t8.5 18.5t13.5 14t19 5.5z" />
    <glyph glyph-name="Yacute" unicode="&#xdd;" horiz-adv-x="780" 
d="M56 302q-8 15 -12 36.5t-6 43.5t-2.5 41.5t-0.5 28.5q0 68 23 133.5t66 116.5t102.5 82t133.5 31q55 0 97.5 -17.5t71.5 -49t43.5 -75.5t14.5 -98q0 -72 -20.5 -137t-54 -125t-76.5 -114.5t-89 -104.5q32 -12 64.5 -22t67.5 -10q53 0 89 29.5t60.5 76.5t41 106.5
t31.5 118.5t31 113t40 90q9 15 20 32t24 32.5t28 28t32 18.5l12 -19q-22 -7 -35 -20t-20.5 -28t-11 -29.5t-6.5 -23.5q-22 -71 -32.5 -140t-20.5 -136t-25.5 -132t-46.5 -129q-18 -35 -53 -70t-78.5 -62.5t-90 -44.5t-85.5 -17q-15 0 -35.5 2.5t-38.5 9.5t-30.5 20t-12.5 34
q0 22 18.5 36t39.5 14q20 0 38 -11.5t18 -34.5q0 -12 -5 -22.5t-9 -21.5q8 -1 15 -1.5t15 -0.5q53 0 96 22.5t74.5 59.5t51 83.5t25.5 94.5q-25 -30 -46.5 -54.5t-46 -42t-55 -27t-73.5 -9.5q-38 0 -74.5 9t-73.5 19q-35 -14 -71.5 -24.5t-74.5 -10.5q-17 0 -37.5 3.5
t-39.5 11.5t-31.5 22.5t-12.5 35.5q0 23 15 39.5t36.5 27.5t45.5 16.5t42 5.5q24 0 46.5 -6t44 -15t43 -19t43.5 -18q43 42 76 94t54.5 109.5t32.5 118.5t11 120q0 49 -10.5 90t-33 70t-59 45.5t-88.5 16.5q-57 0 -104 -31.5t-81 -79.5t-52.5 -104t-18.5 -105q0 -43 8 -80
t20 -63zM28 74q0 -15 10 -25.5t24.5 -16.5t30.5 -9t28 -3q32 0 62 8t58 22q-19 8 -38 17t-38.5 17t-40 13.5t-41.5 5.5q-7 0 -16.5 -0.5t-18 -3.5t-14.5 -9t-6 -16zM806 834l18 -43q-86 -30 -141 -125q23 139 123 168z" />
    <glyph glyph-name="Thorn" unicode="&#xde;" horiz-adv-x="928" 
d="M875 772q14 0 28.5 -3t26 -10.5t18.5 -19.5t7 -29q0 -30 -18 -46t-48 -16q-15 0 -28.5 14t-13.5 29q0 14 5.5 27.5t10.5 27.5l-12 2q-27 0 -46.5 -13t-32.5 -36t-22 -55t-15 -70q5 0 10 0.5t10 0.5q46 0 85 -12.5t68 -37.5t45.5 -61.5t16.5 -84.5q0 -68 -30 -126t-80 -98
t-115.5 -57t-136.5 -4q-24 -34 -55.5 -62.5t-73 -48.5t-94 -31.5t-117.5 -11.5q-40 0 -85.5 8.5t-84.5 29t-64.5 54t-25.5 83.5q0 49 26 90.5t66 71.5t88.5 46.5t93.5 16.5q17 0 37 -3t41 -10q24 43 56.5 81t71.5 68.5t82.5 52.5t90.5 34q17 55 46 102t81 81q40 26 87 26z
M309 190q5 29 15 56.5t23 54.5q-5 0 -9.5 0.5t-9.5 0.5q-40 0 -91.5 -12t-97.5 -36t-77.5 -60.5t-31.5 -85.5q0 -48 30.5 -76.5t74 -44t91 -20.5t82.5 -5q40 0 81 14t75 34q42 25 69 60t44 76t26.5 87.5t16.5 94.5t13 97t17 95q-91 -21 -159.5 -74t-110.5 -125
q40 -15 70 -42t30 -67q0 -28 -13 -47t-33 -31t-44 -18.5t-47 -8.5l-3 19q19 5 40.5 9.5t39 13.5t29 25t11.5 43q0 18 -8 32t-21.5 24t-30 16t-33.5 9q-26 -52 -38 -108h-20zM892 349q0 33 -7.5 58t-22 44.5t-35.5 35t-48 29.5q-14 4 -27 6t-24 4q-7 -49 -14 -102.5
t-18.5 -107.5t-29 -105.5t-45.5 -96.5q58 -12 108 1.5t86 46.5t56.5 81.5t20.5 105.5z" />
    <glyph glyph-name="germandbls" unicode="&#xdf;" horiz-adv-x="344" 
d="M319 801q64 15 96.5 -2t41 -54.5t-3 -88.5t-35.5 -103.5t-56.5 -100t-65.5 -78.5q-18 -20 -23.5 -48.5t8.5 -53.5q7 -12 16 -23.5t17.5 -23t14.5 -24.5t6 -29q3 -32 -6.5 -62t-28.5 -53t-46 -37.5t-60 -15.5q-17 0 -37 1.5t-34 15.5q-8 8 -12 19.5t-2.5 22.5t7.5 20.5
t18 14.5q14 5 31 3t26 -19q10 -16 5 -33t-17 -30q23 3 40 16t27.5 32t15 41.5t3.5 42.5q0 18 -6 31.5t-14.5 26t-16 24t-10.5 24.5q0 20 7 40.5t16 37.5q16 23 35 45t38 43.5t36.5 45t30.5 49.5q12 21 23 52.5t17 65.5t5.5 66t-12 54t-35.5 30t-64 -5q-35 -15 -57 -47.5
t-36 -67.5q-27 -66 -44 -134t-30.5 -137.5t-26.5 -139.5t-32 -139q-12 -59 -34 -116t-67 -102q-18 -17 -43 -30.5t-51 -4.5q-10 6 -15 17.5t-5 23.5t5 23.5t15 17.5q13 4 26 3t21 -10q9 -9 13 -17.5t6 -14.5q15 7 24 24t15 41t9.5 53t7.5 58q17 97 35.5 192.5t42.5 193.5
q17 59 39 116t54 110q26 35 58 65t74 42z" />
    <glyph glyph-name="agrave" unicode="&#xe0;" 
d="M319 49q-9 -9 -20 -19.5t-23.5 -19.5t-26 -15t-26.5 -6q-12 0 -18.5 3.5t-10 10t-5.5 15t-4 18.5q-8 -12 -15.5 -21t-17 -15t-23 -9t-34.5 -3q-44 0 -63.5 28t-19.5 70q0 27 9.5 54t26 49t40 35.5t52.5 13.5t46.5 -9t29.5 -33l8 34q18 0 35.5 -0.5t35.5 0.5
q-11 -49 -19 -82t-13.5 -55t-7.5 -35.5t-2 -22.5q0 -10 9 -12q7 1 19.5 15t26.5 28q3 -4 6 -8.5t5 -8.5zM86 72q0 -9 1 -19.5t4.5 -19.5t10.5 -15t19 -6q19 0 33 16.5t23.5 39t14 46.5t4.5 40q0 9 -0.5 19.5t-3.5 18.5t-9.5 13.5t-18.5 5.5q-21 0 -36 -15.5t-24 -37
t-13.5 -45.5t-4.5 -41zM109 436q49 -14 87 -60.5t47 -107.5q-57 95 -149 125z" />
    <glyph glyph-name="aacute" unicode="&#xe1;" 
d="M319 49q-9 -9 -20 -19.5t-23.5 -19.5t-26 -15t-26.5 -6q-12 0 -18.5 3.5t-10 10t-5.5 15t-4 18.5q-8 -12 -15.5 -21t-17 -15t-23 -9t-34.5 -3q-44 0 -63.5 28t-19.5 70q0 27 9.5 54t26 49t40 35.5t52.5 13.5t46.5 -9t29.5 -33l8 34q18 0 35.5 -0.5t35.5 0.5
q-11 -49 -19 -82t-13.5 -55t-7.5 -35.5t-2 -22.5q0 -10 9 -12q7 1 19.5 15t26.5 28q3 -4 6 -8.5t5 -8.5zM86 72q0 -9 1 -19.5t4.5 -19.5t10.5 -15t19 -6q19 0 33 16.5t23.5 39t14 46.5t4.5 40q0 9 -0.5 19.5t-3.5 18.5t-9.5 13.5t-18.5 5.5q-21 0 -36 -15.5t-24 -37
t-13.5 -45.5t-4.5 -41zM296 448l18 -43q-86 -30 -141 -125q23 139 123 168z" />
    <glyph glyph-name="acircumflex" unicode="&#xe2;" 
d="M319 49q-9 -9 -20 -19.5t-23.5 -19.5t-26 -15t-26.5 -6q-12 0 -18.5 3.5t-10 10t-5.5 15t-4 18.5q-8 -12 -15.5 -21t-17 -15t-23 -9t-34.5 -3q-44 0 -63.5 28t-19.5 70q0 27 9.5 54t26 49t40 35.5t52.5 13.5t46.5 -9t29.5 -33l8 34q18 0 35.5 -0.5t35.5 0.5
q-11 -49 -19 -82t-13.5 -55t-7.5 -35.5t-2 -22.5q0 -10 9 -12q7 1 19.5 15t26.5 28q3 -4 6 -8.5t5 -8.5zM86 72q0 -9 1 -19.5t4.5 -19.5t10.5 -15t19 -6q19 0 33 16.5t23.5 39t14 46.5t4.5 40q0 9 -0.5 19.5t-3.5 18.5t-9.5 13.5t-18.5 5.5q-21 0 -36 -15.5t-24 -37
t-13.5 -45.5t-4.5 -41zM265 289q-17 16 -31.5 33t-25.5 31q-19 -15 -40.5 -31.5t-47.5 -32.5l-17 12q30 27 56.5 53.5t48.5 52.5h19q21 -52 59 -106z" />
    <glyph glyph-name="atilde" unicode="&#xe3;" 
d="M319 49q-9 -9 -20 -19.5t-23.5 -19.5t-26 -15t-26.5 -6q-12 0 -18.5 3.5t-10 10t-5.5 15t-4 18.5q-8 -12 -15.5 -21t-17 -15t-23 -9t-34.5 -3q-44 0 -63.5 28t-19.5 70q0 27 9.5 54t26 49t40 35.5t52.5 13.5t46.5 -9t29.5 -33l8 34q18 0 35.5 -0.5t35.5 0.5
q-11 -49 -19 -82t-13.5 -55t-7.5 -35.5t-2 -22.5q0 -10 9 -12q7 1 19.5 15t26.5 28q3 -4 6 -8.5t5 -8.5zM86 72q0 -9 1 -19.5t4.5 -19.5t10.5 -15t19 -6q19 0 33 16.5t23.5 39t14 46.5t4.5 40q0 9 -0.5 19.5t-3.5 18.5t-9.5 13.5t-18.5 5.5q-21 0 -36 -15.5t-24 -37
t-13.5 -45.5t-4.5 -41zM79 296q14 45 27.5 60t38.5 15q14 0 48 -9q28 -6 41 -6q24 0 36 25l9 -2q-12 -41 -26.5 -56.5t-39.5 -15.5q-10 0 -19 2l-29 7q-29 7 -43 7q-21 0 -32 -24q-1 -1 -3 -5z" />
    <glyph glyph-name="adieresis" unicode="&#xe4;" 
d="M319 49q-9 -9 -20 -19.5t-23.5 -19.5t-26 -15t-26.5 -6q-12 0 -18.5 3.5t-10 10t-5.5 15t-4 18.5q-8 -12 -15.5 -21t-17 -15t-23 -9t-34.5 -3q-44 0 -63.5 28t-19.5 70q0 27 9.5 54t26 49t40 35.5t52.5 13.5t46.5 -9t29.5 -33l8 34q18 0 35.5 -0.5t35.5 0.5
q-11 -49 -19 -82t-13.5 -55t-7.5 -35.5t-2 -22.5q0 -10 9 -12q7 1 19.5 15t26.5 28q3 -4 6 -8.5t5 -8.5zM86 72q0 -9 1 -19.5t4.5 -19.5t10.5 -15t19 -6q19 0 33 16.5t23.5 39t14 46.5t4.5 40q0 9 -0.5 19.5t-3.5 18.5t-9.5 13.5t-18.5 5.5q-21 0 -36 -15.5t-24 -37
t-13.5 -45.5t-4.5 -41zM125 395q14 6 28 -2t14 -26q2 -12 -1.5 -24.5t-11 -22.5t-19 -16t-26.5 -3q-14 7 -18 21.5t-1 30t12 27.5t23 15zM234 398q10 3 19 0t15.5 -10t10 -16t2.5 -16q-2 -12 -7 -23t-13 -19t-19 -12t-24 -1q-12 9 -16 23t-1.5 28.5t11 27t22.5 18.5z" />
    <glyph glyph-name="aring" unicode="&#xe5;" 
d="M319 49q-9 -9 -20 -19.5t-23.5 -19.5t-26 -15t-26.5 -6q-12 0 -18.5 3.5t-10 10t-5.5 15t-4 18.5q-8 -12 -15.5 -21t-17 -15t-23 -9t-34.5 -3q-44 0 -63.5 28t-19.5 70q0 27 9.5 54t26 49t40 35.5t52.5 13.5t46.5 -9t29.5 -33l8 34q18 0 35.5 -0.5t35.5 0.5
q-11 -49 -19 -82t-13.5 -55t-7.5 -35.5t-2 -22.5q0 -10 9 -12q7 1 19.5 15t26.5 28q3 -4 6 -8.5t5 -8.5zM86 72q0 -9 1 -19.5t4.5 -19.5t10.5 -15t19 -6q19 0 33 16.5t23.5 39t14 46.5t4.5 40q0 9 -0.5 19.5t-3.5 18.5t-9.5 13.5t-18.5 5.5q-21 0 -36 -15.5t-24 -37
t-13.5 -45.5t-4.5 -41zM216 410q14 0 22.5 -9.5t7.5 -23.5q-1 -30 -31 -58t-61 -28t-31 33q0 29 31 57.5t62 28.5zM202 391q-15 1 -33.5 -20t-18.5 -41q0 -18 18 -18q17 0 33.5 18.5t16.5 38.5t-16 22z" />
    <glyph glyph-name="ae" unicode="&#xe6;" horiz-adv-x="398" 
d="M385 175q0 -29 -15.5 -42.5t-38 -19t-48 -5.5t-46.5 -3q-1 -9 -0.5 -24.5t4 -30.5t11.5 -25t22 -8q26 5 50 24t40 38l15 -7q-26 -41 -57.5 -60.5t-77.5 -19.5q-23 0 -39.5 9.5t-27.5 25.5q-20 -17 -43.5 -26t-48.5 -9q-15 0 -29 3.5t-25.5 11t-18.5 19.5t-7 29
q0 29 16 43t39 20t49.5 6.5t47.5 3.5q1 9 0 24t-5.5 29.5t-13 24t-22.5 7.5q-26 -5 -50 -24t-40 -38l-15 7q26 41 57.5 60.5t77.5 19.5q22 0 39 -9.5t28 -25.5q20 16 43 25.5t49 9.5q15 0 29 -3.5t25.5 -11t18.5 -19.5t7 -29zM134 103q-17 -3 -30.5 -5.5t-22.5 -8.5
t-14 -16.5t-5 -28.5q0 -11 1.5 -22.5t15.5 -11.5q20 0 34.5 9t23.5 22.5t13.5 30.5t5.5 33zM260 131q17 3 30 5t21.5 7t12.5 15t4 28q0 11 -1.5 22.5t-15.5 11.5q-20 0 -34 -8t-22 -21t-12 -29.5t-5 -32.5z" />
    <glyph glyph-name="ccedilla" unicode="&#xe7;" horiz-adv-x="235" 
d="M7 91q0 28 11.5 54.5t31.5 46t45.5 31.5t54.5 12q13 0 26.5 -2t25 -7.5t19 -15t7.5 -25.5q0 -18 -10.5 -35.5t-31.5 -17.5q-15 0 -28.5 12t-13.5 28q0 14 6 25t11 23q-20 -4 -35 -15.5t-24.5 -27t-14.5 -34.5t-5 -37q0 -12 2.5 -26t8.5 -26t16 -20t25 -8q24 0 41.5 15.5
t35.5 29.5q1 1 5.5 -4.5t6.5 -6.5q-21 -25 -48 -43t-60 -22l-13 -31q22 7 39 7q50 0 50 -40q0 -46 -43 -87.5t-89 -41.5q-38 0 -38 37q0 40 42 55q-9 -23 -9 -35q0 -32 25 -32q27 0 50.5 27.5t23.5 58.5q0 34 -40 34q-26 0 -50 -21l29 67q-41 2 -63 29t-22 69z" />
    <glyph glyph-name="egrave" unicode="&#xe8;" horiz-adv-x="245" 
d="M238 175q0 -29 -15.5 -46.5t-38.5 -28t-49 -15t-47 -7.5q-1 -9 -0.5 -20.5t5 -21.5t12.5 -15.5t22 -3.5q26 5 50 24t40 38l15 -7q-26 -41 -57.5 -60.5t-77.5 -19.5q-21 0 -37 8.5t-27 22.5t-16.5 32t-5.5 37q0 29 12.5 55.5t32.5 46.5t46.5 32t55.5 12q15 0 29 -3.5
t25.5 -11t18.5 -19.5t7 -29zM108 103q35 5 54 25.5t19 57.5q0 11 -1.5 22.5t-15.5 11.5q-20 0 -34.5 -12.5t-24 -31t-14 -39t-5.5 -36.5zM82 435q49 -14 87 -60.5t47 -107.5q-57 95 -149 125z" />
    <glyph glyph-name="eacute" unicode="&#xe9;" horiz-adv-x="245" 
d="M238 175q0 -29 -15.5 -46.5t-38.5 -28t-49 -15t-47 -7.5q-1 -9 -0.5 -20.5t5 -21.5t12.5 -15.5t22 -3.5q26 5 50 24t40 38l15 -7q-26 -41 -57.5 -60.5t-77.5 -19.5q-21 0 -37 8.5t-27 22.5t-16.5 32t-5.5 37q0 29 12.5 55.5t32.5 46.5t46.5 32t55.5 12q15 0 29 -3.5
t25.5 -11t18.5 -19.5t7 -29zM108 103q35 5 54 25.5t19 57.5q0 11 -1.5 22.5t-15.5 11.5q-20 0 -34.5 -12.5t-24 -31t-14 -39t-5.5 -36.5zM205 441l18 -43q-86 -30 -141 -125q23 139 123 168z" />
    <glyph glyph-name="ecircumflex" unicode="&#xea;" horiz-adv-x="245" 
d="M238 175q0 -29 -15.5 -46.5t-38.5 -28t-49 -15t-47 -7.5q-1 -9 -0.5 -20.5t5 -21.5t12.5 -15.5t22 -3.5q26 5 50 24t40 38l15 -7q-26 -41 -57.5 -60.5t-77.5 -19.5q-21 0 -37 8.5t-27 22.5t-16.5 32t-5.5 37q0 29 12.5 55.5t32.5 46.5t46.5 32t55.5 12q15 0 29 -3.5
t25.5 -11t18.5 -19.5t7 -29zM108 103q35 5 54 25.5t19 57.5q0 11 -1.5 22.5t-15.5 11.5q-20 0 -34.5 -12.5t-24 -31t-14 -39t-5.5 -36.5zM233 265q-17 16 -31.5 33t-25.5 31q-19 -15 -40.5 -31.5t-47.5 -32.5l-17 12q30 27 56.5 53.5t48.5 52.5h19q21 -52 59 -106z" />
    <glyph glyph-name="edieresis" unicode="&#xeb;" horiz-adv-x="245" 
d="M238 175q0 -29 -15.5 -46.5t-38.5 -28t-49 -15t-47 -7.5q-1 -9 -0.5 -20.5t5 -21.5t12.5 -15.5t22 -3.5q26 5 50 24t40 38l15 -7q-26 -41 -57.5 -60.5t-77.5 -19.5q-21 0 -37 8.5t-27 22.5t-16.5 32t-5.5 37q0 29 12.5 55.5t32.5 46.5t46.5 32t55.5 12q15 0 29 -3.5
t25.5 -11t18.5 -19.5t7 -29zM108 103q35 5 54 25.5t19 57.5q0 11 -1.5 22.5t-15.5 11.5q-20 0 -34.5 -12.5t-24 -31t-14 -39t-5.5 -36.5zM97 391q14 7 28 -1t14 -26q2 -12 -1.5 -25t-11 -23t-19 -15.5t-25.5 -2.5q-14 7 -18 21.5t-1.5 29.5t11.5 27t23 15zM206 395
q10 3 19 -0.5t16 -10.5t10 -15.5t2 -15.5q-2 -12 -7 -23t-13 -19t-18.5 -12t-23.5 -1q-12 9 -16 23t-1.5 28.5t10.5 27t22 18.5z" />
    <glyph glyph-name="igrave" unicode="&#xec;" horiz-adv-x="214" 
d="M127 253q23 0 34 -18.5t11 -37.5q0 -20 -8.5 -41t-18 -42.5t-18 -42.5t-8.5 -40q0 -4 1 -10.5t7 -6.5q8 0 15.5 5.5t13.5 13t11 16t8 13.5l19 -9q-16 -26 -35 -45.5t-51 -19.5q-21 0 -41 12t-20 34q0 17 12 46.5t25 58t20 50t-2 21.5t-15 -1.5t-12.5 -6t-15.5 -13
t-23 -22.5l-12 14q7 9 19.5 21.5t27.5 24t29.5 19t26.5 7.5zM53 467q49 -14 87 -60.5t47 -107.5q-57 95 -149 125z" />
    <glyph glyph-name="iacute" unicode="&#xed;" horiz-adv-x="214" 
d="M127 253q23 0 34 -18.5t11 -37.5q0 -20 -8.5 -41t-18 -42.5t-18 -42.5t-8.5 -40q0 -4 1 -10.5t7 -6.5q8 0 15.5 5.5t13.5 13t11 16t8 13.5l19 -9q-16 -26 -35 -45.5t-51 -19.5q-21 0 -41 12t-20 34q0 17 12 46.5t25 58t20 50t-2 21.5t-15 -1.5t-12.5 -6t-15.5 -13
t-23 -22.5l-12 14q7 9 19.5 21.5t27.5 24t29.5 19t26.5 7.5zM221 477l18 -43q-86 -30 -141 -125q23 139 123 168z" />
    <glyph glyph-name="icircumflex" unicode="&#xee;" horiz-adv-x="214" 
d="M127 253q23 0 34 -18.5t11 -37.5q0 -20 -8.5 -41t-18 -42.5t-18 -42.5t-8.5 -40q0 -4 1 -10.5t7 -6.5q8 0 15.5 5.5t13.5 13t11 16t8 13.5l19 -9q-16 -26 -35 -45.5t-51 -19.5q-21 0 -41 12t-20 34q0 17 12 46.5t25 58t20 50t-2 21.5t-15 -1.5t-12.5 -6t-15.5 -13
t-23 -22.5l-12 14q7 9 19.5 21.5t27.5 24t29.5 19t26.5 7.5zM205 291q-17 16 -31.5 33t-25.5 31q-19 -15 -40.5 -31.5t-47.5 -32.5l-17 12q30 27 56.5 53.5t48.5 52.5h19q21 -52 59 -106z" />
    <glyph glyph-name="idieresis" unicode="&#xef;" horiz-adv-x="214" 
d="M97 426q16 0 22.5 -11t6.5 -25q0 -22 -13 -41.5t-37 -19.5q-15 0 -21.5 13.5t-6.5 25.5q0 21 13 39.5t36 18.5zM192 428q14 0 25.5 -12.5t11.5 -26.5q0 -21 -15.5 -40.5t-37.5 -19.5q-16 8 -21.5 19t-5.5 23q0 9 3 19t8 18.5t13 14t19 5.5zM127 253q23 0 34 -18.5
t11 -37.5q0 -20 -8.5 -41t-18 -42.5t-18 -42.5t-8.5 -40q0 -4 1 -10.5t7 -6.5q8 0 15.5 5.5t13.5 13t11 16t8 13.5l19 -9q-16 -26 -35 -45.5t-51 -19.5q-21 0 -41 12t-20 34q0 17 12 46.5t25 58t20 50t-2 21.5t-15 -1.5t-12.5 -6t-15.5 -13t-23 -22.5l-12 14q7 9 19.5 21.5
t27.5 24t29.5 19t26.5 7.5z" />
    <glyph glyph-name="eth" unicode="&#xf0;" horiz-adv-x="286" 
d="M205 441l18 -43q-21 -7 -40 -18q12 -15 23 -33q41 -68 61 -156q6 -24 5 -39t-3 -32q-5 -38 -18.5 -62.5t-33.5 -38.5t-46 -19.5t-56 -5.5q-50 0 -79.5 29t-29.5 80q0 36 11.5 62.5t31.5 44.5t45.5 27t54.5 10q52 2 83 -19q-43 73 -98 114q-29 -29 -52 -69q8 51 27 87
q-15 10 -31 17l18 74q30 -12 57 -37q23 18 52 27zM80 84q0 -13 1.5 -25.5t6 -22.5t13.5 -16t25 -6q20 -2 33.5 14t22 39t12 48t3.5 42q0 31 -10 50t-35 17q-21 -1 -34.5 -16.5t-22 -37.5t-12 -46t-3.5 -40z" />
    <glyph glyph-name="ntilde" unicode="&#xf1;" horiz-adv-x="338" 
d="M227 234q18 9 40 4.5t31 -27.5q4 -26 -2.5 -59.5t-12.5 -62t-7.5 -45t12.5 -7.5q12 9 18 17t11 17q2 0 6 -3t9 -6q-17 -26 -45.5 -47t-63.5 -19q-13 2 -17 11t-6 17q-2 20 1.5 40t8 39.5t9.5 39.5t8 41q0 9 -10.5 11t-16.5 -4q-22 -18 -38.5 -40t-29 -46.5t-21.5 -51
t-16 -53.5h-66q4 17 9.5 39.5t11 46.5t10.5 46.5t6.5 38t-1 22t-10.5 -1.5q-8 -12 -17 -23.5t-18 -23.5l-13 10q13 19 21.5 30t14.5 18t10.5 11t10.5 9q7 6 18 10t22 4.5t20 -4t12 -16.5q3 -18 -0.5 -38t-5.5 -38q18 30 41.5 55t55.5 39zM100 306q14 45 27.5 60t38.5 15
q14 0 48 -9q28 -6 41 -6q24 0 36 25l9 -2q-12 -41 -26.5 -56.5t-39.5 -15.5q-10 0 -19 2l-29 7q-29 7 -43 7q-21 0 -32 -24q-1 -1 -3 -5z" />
    <glyph glyph-name="ograve" unicode="&#xf2;" horiz-adv-x="286" 
d="M149 247q30 1 54 -5.5t40 -21.5t23 -39.5t3 -60.5q-5 -38 -18 -62.5t-33 -38.5t-46.5 -19.5t-56.5 -5.5q-50 0 -79.5 29t-29.5 80q0 36 11.5 62.5t31.5 44.5t45.5 27t54.5 10zM80 84q0 -13 1.5 -25.5t6 -22.5t13.5 -16t25 -6q20 -2 33.5 14t22 39t12 48t3.5 42
q0 31 -10 50t-35 17q-21 -1 -34.5 -16.5t-22 -37.5t-12 -46t-3.5 -40zM93 450q49 -14 87 -60.5t47 -107.5q-57 95 -149 125z" />
    <glyph glyph-name="oacute" unicode="&#xf3;" horiz-adv-x="286" 
d="M149 247q30 1 54 -5.5t40 -21.5t23 -39.5t3 -60.5q-5 -38 -18 -62.5t-33 -38.5t-46.5 -19.5t-56.5 -5.5q-50 0 -79.5 29t-29.5 80q0 36 11.5 62.5t31.5 44.5t45.5 27t54.5 10zM80 84q0 -13 1.5 -25.5t6 -22.5t13.5 -16t25 -6q20 -2 33.5 14t22 39t12 48t3.5 42
q0 31 -10 50t-35 17q-21 -1 -34.5 -16.5t-22 -37.5t-12 -46t-3.5 -40zM234 462l18 -43q-86 -30 -141 -125q23 139 123 168z" />
    <glyph glyph-name="ocircumflex" unicode="&#xf4;" horiz-adv-x="286" 
d="M149 247q30 1 54 -5.5t40 -21.5t23 -39.5t3 -60.5q-5 -38 -18 -62.5t-33 -38.5t-46.5 -19.5t-56.5 -5.5q-50 0 -79.5 29t-29.5 80q0 36 11.5 62.5t31.5 44.5t45.5 27t54.5 10zM80 84q0 -13 1.5 -25.5t6 -22.5t13.5 -16t25 -6q20 -2 33.5 14t22 39t12 48t3.5 42
q0 31 -10 50t-35 17q-21 -1 -34.5 -16.5t-22 -37.5t-12 -46t-3.5 -40zM237 286q-17 16 -31.5 33t-25.5 31q-19 -15 -40.5 -31.5t-47.5 -32.5l-17 12q30 27 56.5 53.5t48.5 52.5h19q21 -52 59 -106z" />
    <glyph glyph-name="otilde" unicode="&#xf5;" horiz-adv-x="286" 
d="M149 247q30 1 54 -5.5t40 -21.5t23 -39.5t3 -60.5q-5 -38 -18 -62.5t-33 -38.5t-46.5 -19.5t-56.5 -5.5q-50 0 -79.5 29t-29.5 80q0 36 11.5 62.5t31.5 44.5t45.5 27t54.5 10zM80 84q0 -13 1.5 -25.5t6 -22.5t13.5 -16t25 -6q20 -2 33.5 14t22 39t12 48t3.5 42
q0 31 -10 50t-35 17q-21 -1 -34.5 -16.5t-22 -37.5t-12 -46t-3.5 -40zM64 325q14 45 27.5 60t38.5 15q14 0 48 -9q28 -6 41 -6q24 0 36 25l9 -2q-12 -41 -26.5 -56.5t-39.5 -15.5q-10 0 -19 2l-29 7q-29 7 -43 7q-21 0 -32 -24q-1 -1 -3 -5z" />
    <glyph glyph-name="odieresis" unicode="&#xf6;" horiz-adv-x="286" 
d="M149 247q30 1 54 -5.5t40 -21.5t23 -39.5t3 -60.5q-5 -38 -18 -62.5t-33 -38.5t-46.5 -19.5t-56.5 -5.5q-50 0 -79.5 29t-29.5 80q0 36 11.5 62.5t31.5 44.5t45.5 27t54.5 10zM80 84q0 -13 1.5 -25.5t6 -22.5t13.5 -16t25 -6q20 -2 33.5 14t22 39t12 48t3.5 42
q0 31 -10 50t-35 17q-21 -1 -34.5 -16.5t-22 -37.5t-12 -46t-3.5 -40zM117 395q14 7 28 -1t14 -26q1 -12 -2.5 -25t-11 -23t-19 -15.5t-25.5 -2.5q-14 7 -18 21.5t-1 29.5t12 27t23 15zM226 399q10 3 19 -0.5t15.5 -10.5t10 -15.5t2.5 -15.5q-2 -12 -7 -23t-13 -19t-19 -12
t-24 -1q-12 9 -16 23t-1.5 28.5t11 27t22.5 18.5z" />
    <glyph glyph-name="divide" unicode="&#xf7;" horiz-adv-x="560" 
d="M520 218v47h-452v-47h452zM306 440q19 0 33 -14.5t14 -33.5q0 -18 -15.5 -34.5t-32.5 -16.5q-20 0 -33.5 12.5t-13.5 32.5q0 18 14 36t34 18zM273 137q18 0 32 -13.5t14 -32.5q0 -20 -14.5 -37.5t-36.5 -17.5q-20 0 -31.5 14.5t-11.5 33.5q0 22 12.5 37.5t35.5 15.5z" />
    <glyph glyph-name="oslash" unicode="&#xf8;" horiz-adv-x="286" 
d="M239 263q0 -2 -4 -8l-15 -20q27 -13 40.5 -40.5t8.5 -74.5q-5 -38 -18 -62.5t-33 -38.5t-46.5 -19.5t-56.5 -5.5q-23 0 -42 6l-1 -3q-4 -4 -8 -6t-16 -5l-7 -2q-6 -2 -8 -2t-2 1l3 2q6 7 18 25q-22 14 -34 37.5t-12 55.5q0 36 11.5 62.5t31.5 44.5t45.5 27t54.5 10
q27 0 46 -4q8 13 12 15q3 1 14 4q12 3 14 3q4 0 4 -2zM126 14q20 -2 33.5 14t22 39t12 48t3.5 42q0 19 -5 36l-22 -34q-13 -19 -23 -35q-7 -12 -23 -38q-14 -23 -22 -36l-11 -20q5 -8 13 -12t22 -4zM80 84v-14.5t1 -13.5q5 8 11 17l23 37l22 36l21 35l20 33l1 2q-9 8 -27 8
q-21 -1 -34.5 -16.5t-22 -37.5t-12 -46t-3.5 -40z" />
    <glyph glyph-name="ugrave" unicode="&#xf9;" horiz-adv-x="332" 
d="M97 -4q-18 -9 -40 -4.5t-31 27.5q-4 26 2.5 59.5t12.5 62t7.5 45t-12.5 7.5q-12 -9 -18 -16.5t-11 -16.5q-2 0 -6 2.5t-9 5.5q17 26 45.5 47.5t63.5 18.5q13 -2 17 -11t6 -17q1 -20 -2 -40t-7.5 -39.5t-9.5 -39t-8 -40.5q0 -9 10.5 -11.5t16.5 4.5q44 35 67.5 86
t37.5 104h66q-4 -17 -9.5 -39.5t-11 -46.5t-10.5 -46t-6.5 -37.5t1 -22t10.5 1.5l35 46l13 -9q-14 -19 -22 -30.5t-14 -18t-10.5 -11t-10.5 -9.5q-7 -6 -18 -10t-22 -4.5t-20 4t-12 16.5q-3 18 0.5 38t5.5 38q-18 -30 -41.5 -54.5t-55.5 -39.5zM120 431q49 -14 87 -60.5
t47 -107.5q-57 95 -149 125z" />
    <glyph glyph-name="uacute" unicode="&#xfa;" horiz-adv-x="332" 
d="M97 -4q-18 -9 -40 -4.5t-31 27.5q-4 26 2.5 59.5t12.5 62t7.5 45t-12.5 7.5q-12 -9 -18 -16.5t-11 -16.5q-2 0 -6 2.5t-9 5.5q17 26 45.5 47.5t63.5 18.5q13 -2 17 -11t6 -17q1 -20 -2 -40t-7.5 -39.5t-9.5 -39t-8 -40.5q0 -9 10.5 -11.5t16.5 4.5q44 35 67.5 86
t37.5 104h66q-4 -17 -9.5 -39.5t-11 -46.5t-10.5 -46t-6.5 -37.5t1 -22t10.5 1.5l35 46l13 -9q-14 -19 -22 -30.5t-14 -18t-10.5 -11t-10.5 -9.5q-7 -6 -18 -10t-22 -4.5t-20 4t-12 16.5q-3 18 0.5 38t5.5 38q-18 -30 -41.5 -54.5t-55.5 -39.5zM250 431l18 -43
q-86 -30 -141 -125q23 139 123 168z" />
    <glyph glyph-name="ucircumflex" unicode="&#xfb;" horiz-adv-x="332" 
d="M97 -4q-18 -9 -40 -4.5t-31 27.5q-4 26 2.5 59.5t12.5 62t7.5 45t-12.5 7.5q-12 -9 -18 -16.5t-11 -16.5q-2 0 -6 2.5t-9 5.5q17 26 45.5 47.5t63.5 18.5q13 -2 17 -11t6 -17q1 -20 -2 -40t-7.5 -39.5t-9.5 -39t-8 -40.5q0 -9 10.5 -11.5t16.5 4.5q44 35 67.5 86
t37.5 104h66q-4 -17 -9.5 -39.5t-11 -46.5t-10.5 -46t-6.5 -37.5t1 -22t10.5 1.5l35 46l13 -9q-14 -19 -22 -30.5t-14 -18t-10.5 -11t-10.5 -9.5q-7 -6 -18 -10t-22 -4.5t-20 4t-12 16.5q-3 18 0.5 38t5.5 38q-18 -30 -41.5 -54.5t-55.5 -39.5zM247 268q-17 16 -31.5 33
t-25.5 31q-19 -15 -40.5 -31.5t-47.5 -32.5l-17 12q30 27 56.5 53.5t48.5 52.5h19q21 -52 59 -106z" />
    <glyph glyph-name="udieresis" unicode="&#xfc;" horiz-adv-x="332" 
d="M97 -4q-18 -9 -40 -4.5t-31 27.5q-4 26 2.5 59.5t12.5 62t7.5 45t-12.5 7.5q-12 -9 -18 -16.5t-11 -16.5q-2 0 -6 2.5t-9 5.5q17 26 45.5 47.5t63.5 18.5q13 -2 17 -11t6 -17q1 -20 -2 -40t-7.5 -39.5t-9.5 -39t-8 -40.5q0 -9 10.5 -11.5t16.5 4.5q44 35 67.5 86
t37.5 104h66q-4 -17 -9.5 -39.5t-11 -46.5t-10.5 -46t-6.5 -37.5t1 -22t10.5 1.5l35 46l13 -9q-14 -19 -22 -30.5t-14 -18t-10.5 -11t-10.5 -9.5q-7 -6 -18 -10t-22 -4.5t-20 4t-12 16.5q-3 18 0.5 38t5.5 38q-18 -30 -41.5 -54.5t-55.5 -39.5zM232 406q10 3 19 -0.5
t15.5 -10.5t9.5 -15.5t2 -15.5q-3 -24 -19.5 -42.5t-42.5 -13.5q-12 9 -16 23t-1.5 29t11 27.5t22.5 18.5zM122 402q15 6 28.5 -2t13.5 -26q2 -12 -1.5 -24.5t-11 -22.5t-19 -16t-25.5 -3q-14 7 -18 22t-1.5 30t11.5 27t23 15z" />
    <glyph glyph-name="yacute" unicode="&#xfd;" horiz-adv-x="264" 
d="M206 246q15 9 34 3.5t25 -22.5q9 -18 5 -37.5t-13 -37.5q-16 -32 -29.5 -62.5t-30.5 -59.5q-25 -42 -54 -80t-67 -65q-21 -12 -45.5 -15t-44.5 11q-11 7 -16 19t-4 25t7.5 23.5t19.5 14.5q11 9 26.5 5.5t24.5 -12.5q12 -12 11.5 -28t-3.5 -31q43 26 74.5 65t61.5 96
q-26 -23 -56 -42q-20 -12 -43 -19t-46 -4q-8 3 -11 9t-4 13.5t-0.5 16t0.5 15.5q4 22 10.5 50.5t10.5 51t3.5 33.5t-10.5 0q-14 -11 -20 -17.5t-15 -15.5v30q29 32 75 51q11 7 27.5 3t18.5 -18q4 -24 1.5 -47.5t-8.5 -46.5t-12 -46.5t-8 -46.5q42 18 76 48.5t49 72.5
q-6 4 -12.5 7.5l-13 7t-11.5 9.5t-8 17q-2 17 4 33.5t21 22.5zM253 463l18 -43q-86 -30 -141 -125q23 139 123 168z" />
    <glyph glyph-name="thorn" unicode="&#xfe;" horiz-adv-x="305" 
d="M-24 -144q3 19 11.5 61.5t21 100t27.5 125t31 137t32 136.5t29.5 123t23.5 96.5t15 56.5h73q-29 -117 -58.5 -242.5t-56.5 -242.5q16 17 38.5 26t45.5 9q22 0 38 -9t26.5 -24t15 -34t4.5 -38q0 -29 -10 -55t-27.5 -46t-42.5 -31.5t-55 -11.5q-17 0 -27 3.5t-17.5 10
t-13.5 16t-14 21.5l-40 -188h-70zM143 23q21 0 34.5 15t22 36t12 43.5t3.5 37.5q0 20 -8.5 38.5t-32.5 18.5q-18 0 -31.5 -14t-23 -33.5t-14 -41t-4.5 -35.5q0 -10 2 -21.5t6.5 -21t12.5 -16t21 -6.5z" />
    <glyph glyph-name="ydieresis" unicode="&#xff;" horiz-adv-x="264" 
d="M206 246q15 9 34 3.5t25 -22.5q9 -18 5 -37.5t-13 -37.5q-16 -32 -29.5 -62.5t-30.5 -59.5q-25 -42 -54 -80t-67 -65q-21 -12 -45.5 -15t-44.5 11q-11 7 -16 19t-4 25t7.5 23.5t19.5 14.5q11 9 26.5 5.5t24.5 -12.5q12 -12 11.5 -28t-3.5 -31q43 26 74.5 65t61.5 96
q-26 -23 -56 -42q-20 -12 -43 -19t-46 -4q-8 3 -11 9t-4 13.5t-0.5 16t0.5 15.5q4 22 10.5 50.5t10.5 51t3.5 33.5t-10.5 0q-14 -11 -20 -17.5t-15 -15.5v30q29 32 75 51q11 7 27.5 3t18.5 -18q4 -24 1.5 -47.5t-8.5 -46.5t-12 -46.5t-8 -46.5q42 18 76 48.5t49 72.5
q-6 4 -12.5 7.5l-13 7t-11.5 9.5t-8 17q-2 17 4 33.5t21 22.5zM108 400q14 6 28 -2t14 -26q2 -12 -1.5 -24.5t-11 -22.5t-19 -16t-26.5 -3q-14 7 -18 21.5t-1 29.5t12 27.5t23 15.5zM217 403q10 3 19 -0.5t16 -10t10 -15.5t2 -16q-2 -12 -7 -23t-13 -19t-18.5 -12t-23.5 -1
q-12 9 -16 23t-2 28.5t10.5 27t22.5 18.5z" />
    <glyph glyph-name="Amacron" unicode="&#x100;" horiz-adv-x="968" 
d="M811 785q20 5 49.5 9.5t55.5 4.5q12 0 24 -3t22 -11l-12 -16q-14 3 -27.5 4t-27.5 1t-27 -1t-27 -4q77 -60 107.5 -134t30.5 -171q0 -52 -9.5 -107t-23.5 -110.5t-30.5 -110t-31.5 -104.5q20 0 38 -0.5t37 -3.5l-12 -23q-59 6 -122.5 1.5t-121.5 -4.5q-4 0 -5 2.5t-0.5 6
l1 7t-1.5 6.5q23 6 47 5.5t47 2.5q20 54 37 109.5t29 112.5q-107 1 -173 1.5t-106 0t-60 -1t-36 -0.5q-26 -52 -60.5 -99.5t-78.5 -83.5t-96.5 -57.5t-113.5 -21.5q-21 0 -42 6.5t-38.5 19t-28 31t-10.5 41.5q0 28 17 49t47 21q13 0 25 -6t21 -16t14.5 -22.5t5.5 -25.5
q0 -26 -18 -44t-41 -26q17 -3 33.5 -5t32.5 -2q61 0 108 31.5t85 82t69 114.5t59.5 129.5t57 126t62.5 104.5q38 51 87 93t103 74q-32 20 -68 26t-73 6q-58 0 -116 -10.5t-109 -39.5q-45 -27 -84 -74.5t-67 -103.5t-44 -115.5t-16 -110.5q0 -29 2.5 -49t7.5 -36.5
t11.5 -32.5t14.5 -36l-15 -4q-26 45 -33.5 93.5t-7.5 98.5q0 97 34.5 177.5t94.5 139t141 91t174 32.5q25 0 51 -3.5t50.5 -9t45 -11.5t35.5 -11zM803 754q-63 -32 -108 -87.5t-79.5 -121.5t-62 -135t-55.5 -128h365q10 39 21.5 82.5t11.5 84.5q0 45 -1.5 85.5t-10.5 78
t-28 72t-53 69.5zM790 885h86q39 0 65 13l2 1l-2 -3l-3 -8q-20 -45 -83 -45h-48q-17 0 -23 -3.5t-13 -14.5l-3 -5h-9z" />
    <glyph glyph-name="amacron" unicode="&#x101;" 
d="M319 49q-9 -9 -20 -19.5t-23.5 -19.5t-26 -15t-26.5 -6q-12 0 -18.5 3.5t-10 10t-5.5 15t-4 18.5q-8 -12 -15.5 -21t-17 -15t-23 -9t-34.5 -3q-44 0 -63.5 28t-19.5 70q0 27 9.5 54t26 49t40 35.5t52.5 13.5t46.5 -9t29.5 -33l8 34q18 0 35.5 -0.5t35.5 0.5
q-11 -49 -19 -82t-13.5 -55t-7.5 -35.5t-2 -22.5q0 -10 9 -12q7 1 19.5 15t26.5 28q3 -4 6 -8.5t5 -8.5zM86 72q0 -9 1 -19.5t4.5 -19.5t10.5 -15t19 -6q19 0 33 16.5t23.5 39t14 46.5t4.5 40q0 9 -0.5 19.5t-3.5 18.5t-9.5 13.5t-18.5 5.5q-21 0 -36 -15.5t-24 -37
t-13.5 -45.5t-4.5 -41zM134 341h86q39 0 65 13l2 1l-2 -3l-3 -8q-20 -45 -83 -45h-48q-17 0 -23 -3.5t-13 -14.5l-3 -5h-9z" />
    <glyph glyph-name="Abreve" unicode="&#x102;" horiz-adv-x="968" 
d="M811 785q20 5 49.5 9.5t55.5 4.5q12 0 24 -3t22 -11l-12 -16q-14 3 -27.5 4t-27.5 1t-27 -1t-27 -4q77 -60 107.5 -134t30.5 -171q0 -52 -9.5 -107t-23.5 -110.5t-30.5 -110t-31.5 -104.5q20 0 38 -0.5t37 -3.5l-12 -23q-59 6 -122.5 1.5t-121.5 -4.5q-4 0 -5 2.5t-0.5 6
l1 7t-1.5 6.5q23 6 47 5.5t47 2.5q20 54 37 109.5t29 112.5q-107 1 -173 1.5t-106 0t-60 -1t-36 -0.5q-26 -52 -60.5 -99.5t-78.5 -83.5t-96.5 -57.5t-113.5 -21.5q-21 0 -42 6.5t-38.5 19t-28 31t-10.5 41.5q0 28 17 49t47 21q13 0 25 -6t21 -16t14.5 -22.5t5.5 -25.5
q0 -26 -18 -44t-41 -26q17 -3 33.5 -5t32.5 -2q61 0 108 31.5t85 82t69 114.5t59.5 129.5t57 126t62.5 104.5q38 51 87 93t103 74q-32 20 -68 26t-73 6q-58 0 -116 -10.5t-109 -39.5q-45 -27 -84 -74.5t-67 -103.5t-44 -115.5t-16 -110.5q0 -29 2.5 -49t7.5 -36.5
t11.5 -32.5t14.5 -36l-15 -4q-26 45 -33.5 93.5t-7.5 98.5q0 97 34.5 177.5t94.5 139t141 91t174 32.5q25 0 51 -3.5t50.5 -9t45 -11.5t35.5 -11zM803 754q-63 -32 -108 -87.5t-79.5 -121.5t-62 -135t-55.5 -128h365q10 39 21.5 82.5t11.5 84.5q0 45 -1.5 85.5t-10.5 78
t-28 72t-53 69.5zM922 885q-46 -66 -96 -66q-63 0 -97 63l25 35q26 -58 80 -58q23 0 48 11.5t33 24.5z" />
    <glyph glyph-name="abreve" unicode="&#x103;" 
d="M319 49q-9 -9 -20 -19.5t-23.5 -19.5t-26 -15t-26.5 -6q-12 0 -18.5 3.5t-10 10t-5.5 15t-4 18.5q-8 -12 -15.5 -21t-17 -15t-23 -9t-34.5 -3q-44 0 -63.5 28t-19.5 70q0 27 9.5 54t26 49t40 35.5t52.5 13.5t46.5 -9t29.5 -33l8 34q18 0 35.5 -0.5t35.5 0.5
q-11 -49 -19 -82t-13.5 -55t-7.5 -35.5t-2 -22.5q0 -10 9 -12q7 1 19.5 15t26.5 28q3 -4 6 -8.5t5 -8.5zM86 72q0 -9 1 -19.5t4.5 -19.5t10.5 -15t19 -6q19 0 33 16.5t23.5 39t14 46.5t4.5 40q0 9 -0.5 19.5t-3.5 18.5t-9.5 13.5t-18.5 5.5q-21 0 -36 -15.5t-24 -37
t-13.5 -45.5t-4.5 -41zM296 358q-46 -66 -96 -66q-63 0 -97 63l25 35q26 -58 80 -58q23 0 48 11.5t33 24.5z" />
    <glyph glyph-name="Aogonek" unicode="&#x104;" horiz-adv-x="968" 
d="M811 785q20 5 49.5 9.5t55.5 4.5q12 0 24 -3t22 -11l-12 -16q-14 3 -27.5 4t-27.5 1t-27 -1t-27 -4q77 -60 107.5 -134t30.5 -171q0 -52 -9.5 -107t-23.5 -110.5t-30.5 -110t-31.5 -104.5q20 0 38 -0.5t37 -3.5l-12 -23l-23 2q-29 -31 -29 -75q0 -53 51 -71l-23 -65
q-60 22 -60 100q0 60 40 112q-50 1 -101 -2.5t-99 -3.5q-4 0 -5 2.5t-0.5 6l1 7t-1.5 6.5q23 6 47 5.5t47 2.5q20 54 37 109.5t29 112.5q-107 1 -173 1.5t-106 0t-60 -1t-36 -0.5q-26 -52 -60.5 -99.5t-78.5 -83.5t-96.5 -57.5t-113.5 -21.5q-21 0 -42 6.5t-38.5 19t-28 31
t-10.5 41.5q0 28 17 49t47 21q13 0 25 -6t21 -16t14.5 -22.5t5.5 -25.5q0 -26 -18 -44t-41 -26q17 -3 33.5 -5t32.5 -2q61 0 108 31.5t85 82t69 114.5t59.5 129.5t57 126t62.5 104.5q38 51 87 93t103 74q-32 20 -68 26t-73 6q-58 0 -116 -10.5t-109 -39.5q-45 -27 -84 -74.5
t-67 -103.5t-44 -115.5t-16 -110.5q0 -29 2.5 -49t7.5 -36.5t11.5 -32.5t14.5 -36l-15 -4q-26 45 -33.5 93.5t-7.5 98.5q0 97 34.5 177.5t94.5 139t141 91t174 32.5q25 0 51 -3.5t50.5 -9t45 -11.5t35.5 -11zM803 754q-63 -32 -108 -87.5t-79.5 -121.5t-62 -135t-55.5 -128
h365q10 39 21.5 82.5t11.5 84.5q0 45 -1.5 85.5t-10.5 78t-28 72t-53 69.5z" />
    <glyph glyph-name="aogonek" unicode="&#x105;" 
d="M320 47q-53 -37 -56 -96q0 -53 51 -71l-23 -65q-60 22 -60 100q0 42 20 81q-16 -7 -29 -7q-12 0 -18.5 3.5t-10 10t-5.5 15t-4 18.5q-8 -12 -15.5 -21t-17 -15t-23 -9t-34.5 -3q-44 0 -63.5 28t-19.5 70q0 27 9.5 54t26 49t40 35.5t52.5 13.5t46.5 -9t29.5 -33l8 34
q18 0 35.5 -0.5t35.5 0.5q-11 -49 -19 -82t-13.5 -55t-7.5 -35.5t-2 -22.5q0 -10 9 -12q7 1 19.5 15t26.5 28zM86 72q0 -9 1 -19.5t4.5 -19.5t10.5 -15t19 -6q19 0 33 16.5t23.5 39t14 46.5t4.5 40q0 9 -0.5 19.5t-3.5 18.5t-9.5 13.5t-18.5 5.5q-21 0 -36 -15.5t-24 -37
t-13.5 -45.5t-4.5 -41z" />
    <glyph glyph-name="Cacute" unicode="&#x106;" horiz-adv-x="581" 
d="M553 130q-26 -33 -59.5 -60.5t-72.5 -47t-80.5 -30.5t-83.5 -11q-62 0 -108 24.5t-77 65.5t-46 94t-15 109q0 63 16 128.5t45.5 126t71.5 113.5t94 92.5t113.5 62.5t130.5 23q89 0 143 -49t54 -140q0 -53 -18.5 -115t-53 -115.5t-83.5 -89.5t-110 -36q-55 0 -84 34
t-29 87q0 38 18 80t48 77t68 58t77 23q7 0 22 -1.5t19 -6.5l-8 -21q-9 2 -18 3.5t-19 1.5q-37 0 -68.5 -24.5t-55 -60t-37 -75.5t-13.5 -72q0 -36 18.5 -59.5t56.5 -23.5q54 0 100 31.5t79.5 79.5t52.5 103.5t19 103.5q0 88 -44.5 137t-135.5 49q-61 0 -113 -24.5t-93.5 -66
t-73.5 -95.5t-53 -113t-32 -118t-11 -111q0 -50 10.5 -96t35 -81.5t64 -56.5t96.5 -21q34 0 66 10.5t61 28t54.5 40.5t46.5 48zM701 993l18 -43q-86 -30 -141 -125q23 139 123 168z" />
    <glyph glyph-name="cacute" unicode="&#x107;" horiz-adv-x="235" 
d="M7 91q0 28 11.5 54.5t31.5 46t45.5 31.5t54.5 12q13 0 26.5 -2t25 -7.5t19 -15t7.5 -25.5q0 -18 -10.5 -35.5t-31.5 -17.5q-15 0 -28.5 12t-13.5 28q0 14 6 25t11 23q-20 -4 -35 -15.5t-24.5 -27t-14.5 -34.5t-5 -37q0 -12 2.5 -26t8.5 -26t16 -20t25 -8q24 0 41.5 15.5
t35.5 29.5q1 1 5.5 -4.5t6.5 -6.5q-23 -28 -55 -47.5t-70 -19.5q-44 0 -67.5 27.5t-23.5 70.5zM251 448l18 -43q-86 -30 -141 -125q23 139 123 168z" />
    <glyph glyph-name="Ccircumflex" unicode="&#x108;" horiz-adv-x="581" 
d="M553 130q-26 -33 -59.5 -60.5t-72.5 -47t-80.5 -30.5t-83.5 -11q-62 0 -108 24.5t-77 65.5t-46 94t-15 109q0 63 16 128.5t45.5 126t71.5 113.5t94 92.5t113.5 62.5t130.5 23q89 0 143 -49t54 -140q0 -53 -18.5 -115t-53 -115.5t-83.5 -89.5t-110 -36q-55 0 -84 34
t-29 87q0 38 18 80t48 77t68 58t77 23q7 0 22 -1.5t19 -6.5l-8 -21q-9 2 -18 3.5t-19 1.5q-37 0 -68.5 -24.5t-55 -60t-37 -75.5t-13.5 -72q0 -36 18.5 -59.5t56.5 -23.5q54 0 100 31.5t79.5 79.5t52.5 103.5t19 103.5q0 88 -44.5 137t-135.5 49q-61 0 -113 -24.5t-93.5 -66
t-73.5 -95.5t-53 -113t-32 -118t-11 -111q0 -50 10.5 -96t35 -81.5t64 -56.5t96.5 -21q34 0 66 10.5t61 28t54.5 40.5t46.5 48zM478 849q-17 16 -31.5 33t-25.5 31q-19 -15 -40.5 -31.5t-47.5 -32.5l-17 12q30 27 56.5 53.5t48.5 52.5h19q21 -52 59 -106z" />
    <glyph glyph-name="ccircumflex" unicode="&#x109;" horiz-adv-x="235" 
d="M7 91q0 28 11.5 54.5t31.5 46t45.5 31.5t54.5 12q13 0 26.5 -2t25 -7.5t19 -15t7.5 -25.5q0 -18 -10.5 -35.5t-31.5 -17.5q-15 0 -28.5 12t-13.5 28q0 14 6 25t11 23q-20 -4 -35 -15.5t-24.5 -27t-14.5 -34.5t-5 -37q0 -12 2.5 -26t8.5 -26t16 -20t25 -8q24 0 41.5 15.5
t35.5 29.5q1 1 5.5 -4.5t6.5 -6.5q-23 -28 -55 -47.5t-70 -19.5q-44 0 -67.5 27.5t-23.5 70.5zM224 289q-17 16 -31.5 33t-25.5 31q-19 -15 -40.5 -31.5t-47.5 -32.5l-17 12q30 27 56.5 53.5t48.5 52.5h19q21 -52 59 -106z" />
    <glyph glyph-name="Cdotaccent" unicode="&#x10a;" horiz-adv-x="581" 
d="M553 130q-26 -33 -59.5 -60.5t-72.5 -47t-80.5 -30.5t-83.5 -11q-62 0 -108 24.5t-77 65.5t-46 94t-15 109q0 63 16 128.5t45.5 126t71.5 113.5t94 92.5t113.5 62.5t130.5 23q89 0 143 -49t54 -140q0 -53 -18.5 -115t-53 -115.5t-83.5 -89.5t-110 -36q-55 0 -84 34
t-29 87q0 38 18 80t48 77t68 58t77 23q7 0 22 -1.5t19 -6.5l-8 -21q-9 2 -18 3.5t-19 1.5q-37 0 -68.5 -24.5t-55 -60t-37 -75.5t-13.5 -72q0 -36 18.5 -59.5t56.5 -23.5q54 0 100 31.5t79.5 79.5t52.5 103.5t19 103.5q0 88 -44.5 137t-135.5 49q-61 0 -113 -24.5t-93.5 -66
t-73.5 -95.5t-53 -113t-32 -118t-11 -111q0 -50 10.5 -96t35 -81.5t64 -56.5t96.5 -21q34 0 66 10.5t61 28t54.5 40.5t46.5 48zM496 902q22 0 22 -23q0 -12 -10 -22.5t-22 -10.5q-23 0 -23 23q0 13 10 23t23 10z" />
    <glyph glyph-name="cdotaccent" unicode="&#x10b;" horiz-adv-x="235" 
d="M7 91q0 28 11.5 54.5t31.5 46t45.5 31.5t54.5 12q13 0 26.5 -2t25 -7.5t19 -15t7.5 -25.5q0 -18 -10.5 -35.5t-31.5 -17.5q-15 0 -28.5 12t-13.5 28q0 14 6 25t11 23q-20 -4 -35 -15.5t-24.5 -27t-14.5 -34.5t-5 -37q0 -12 2.5 -26t8.5 -26t16 -20t25 -8q24 0 41.5 15.5
t35.5 29.5q1 1 5.5 -4.5t6.5 -6.5q-23 -28 -55 -47.5t-70 -19.5q-44 0 -67.5 27.5t-23.5 70.5zM159 341q22 0 22 -23q0 -12 -10 -22.5t-22 -10.5q-23 0 -23 23q0 13 10 23t23 10z" />
    <glyph glyph-name="Ccaron" unicode="&#x10c;" horiz-adv-x="581" 
d="M553 130q-26 -33 -59.5 -60.5t-72.5 -47t-80.5 -30.5t-83.5 -11q-62 0 -108 24.5t-77 65.5t-46 94t-15 109q0 63 16 128.5t45.5 126t71.5 113.5t94 92.5t113.5 62.5t130.5 23q89 0 143 -49t54 -140q0 -53 -18.5 -115t-53 -115.5t-83.5 -89.5t-110 -36q-55 0 -84 34
t-29 87q0 38 18 80t48 77t68 58t77 23q7 0 22 -1.5t19 -6.5l-8 -21q-9 2 -18 3.5t-19 1.5q-37 0 -68.5 -24.5t-55 -60t-37 -75.5t-13.5 -72q0 -36 18.5 -59.5t56.5 -23.5q54 0 100 31.5t79.5 79.5t52.5 103.5t19 103.5q0 88 -44.5 137t-135.5 49q-61 0 -113 -24.5t-93.5 -66
t-73.5 -95.5t-53 -113t-32 -118t-11 -111q0 -50 10.5 -96t35 -81.5t64 -56.5t96.5 -21q34 0 66 10.5t61 28t54.5 40.5t46.5 48zM557 955q-29 -26 -55.5 -51.5t-48.5 -49.5h-20q-10 24 -24 49.5t-34 51.5l22 11q17 -15 30.5 -30.5t24.5 -29.5q18 14 39.5 29.5t45.5 30.5z" />
    <glyph glyph-name="ccaron" unicode="&#x10d;" horiz-adv-x="235" 
d="M7 91q0 28 11.5 54.5t31.5 46t45.5 31.5t54.5 12q13 0 26.5 -2t25 -7.5t19 -15t7.5 -25.5q0 -18 -10.5 -35.5t-31.5 -17.5q-15 0 -28.5 12t-13.5 28q0 14 6 25t11 23q-20 -4 -35 -15.5t-24.5 -27t-14.5 -34.5t-5 -37q0 -12 2.5 -26t8.5 -26t16 -20t25 -8q24 0 41.5 15.5
t35.5 29.5q1 1 5.5 -4.5t6.5 -6.5q-23 -28 -55 -47.5t-70 -19.5q-44 0 -67.5 27.5t-23.5 70.5zM260 372q-29 -26 -55.5 -51.5t-48.5 -49.5h-20q-10 24 -24 49.5t-34 51.5l22 11q17 -15 30.5 -30.5t24.5 -29.5q18 14 39.5 29.5t45.5 30.5z" />
    <glyph glyph-name="Dcaron" unicode="&#x10e;" horiz-adv-x="773" 
d="M761 782q-22 -1 -56 -6.5t-61 -20.5q83 -53 120.5 -125t37.5 -168q0 -53 -12.5 -109.5t-36 -111.5t-58 -104t-77.5 -86t-95 -59t-111 -22q-33 0 -66 14.5t-63 26.5q-29 -14 -73.5 -27.5t-89.5 -13.5q-20 0 -41 5t-38 15.5t-28 27.5t-11 41q0 21 14 35t34.5 22t42.5 11.5
t37 3.5q54 0 104.5 -20.5t99.5 -42.5q29 21 48 54.5t31.5 74t20 86t13 91t10.5 87.5t13 75q17 66 56 117t85 97q-34 8 -68 13t-69 5q-89 0 -165.5 -40.5t-132.5 -105.5t-88 -148.5t-32 -168.5q0 -29 7.5 -57t16.5 -55h-12q-18 35 -27 74t-9 77q0 97 35 178.5t95.5 140.5
t143 92t178.5 33q43 0 75 -6.5t67 -17.5q26 14 59.5 23t65.5 10zM356 60q35 -13 70.5 -24.5t72.5 -11.5q45 0 82 22.5t66 59.5t50.5 83.5t36 95.5t21.5 95t7 82t-7.5 78t-23.5 81t-41 71.5t-60 49.5q-41 -53 -57 -111t-23 -117.5t-11.5 -120t-21 -119t-53.5 -112.5
t-108 -102zM20 49q0 -18 12.5 -29t30 -18t36.5 -9.5t32 -2.5t30 2.5t34 7t33 10.5t28 12l-42.5 17.5t-53 20t-53.5 16t-43 6.5t-30.5 -7t-13.5 -26zM622 921q-29 -26 -55.5 -51.5t-48.5 -49.5h-20q-10 24 -24 49.5t-34 51.5l22 11q17 -15 30.5 -30.5t24.5 -29.5
q18 14 39.5 29.5t45.5 30.5z" />
    <glyph glyph-name="dcaron" unicode="&#x10f;" horiz-adv-x="506" 
d="M266 70q-3 -15 -2.5 -22t3 -9.5t5 -2t4.5 1.5q13 11 21.5 23t15.5 27l12 -16q-8 -14 -16 -27.5t-18.5 -24t-25.5 -17.5t-37 -7q-27 3 -34 17t-10 28q-17 -20 -40.5 -33.5t-49.5 -13.5q-20 0 -35.5 8.5t-26 22t-15.5 31t-5 35.5q0 32 10 59.5t29 47.5t47 31t63 11
q22 0 38 -8t21 -32q26 125 57.5 245.5t57.5 244.5h67q-9 -42 -22 -95t-27 -110.5t-28.5 -117t-26.5 -114.5t-20.5 -102.5t-11.5 -80.5zM161 216q-18 0 -32 -16.5t-24.5 -39t-16 -46t-5.5 -37.5q0 -9 1 -19.5t4 -19t8.5 -14t15.5 -5.5q21 0 38 16t29.5 38.5t19.5 47t7 41.5
q0 23 -10.5 38.5t-34.5 15.5zM435 521q-7 0 -7 5q0 2 2 3q19 9 28 27t14 60q3 19 5 26q1 6 6 9q8 3 24 8q6 2 9 4q5 1 6 1q7 3 12 3q6 0 6 -6q0 -11 -9 -46q-6 -24 -13 -35t-29 -29q-12 -9 -31 -20q-17 -10 -23 -10z" />
    <glyph glyph-name="Dcroat" unicode="&#x110;" horiz-adv-x="773" 
d="M377 340h65q7 54 12.5 105t15.5 91q17 66 56 117t85 97q-34 8 -68 13t-69 5q-89 0 -165.5 -40.5t-132.5 -105.5t-88 -148.5t-32 -168.5q0 -29 7.5 -57t16.5 -55h-12q-18 35 -27 74t-9 77q0 97 35 178.5t95.5 140.5t143 92t178.5 33q43 0 75 -6.5t67 -17.5q26 14 59.5 23
t65.5 10l10 -15q-22 -1 -56 -6.5t-61 -20.5q83 -53 120.5 -125t37.5 -168q0 -53 -12.5 -109.5t-36 -111.5t-58 -104t-77.5 -86t-95 -59t-111 -22q-33 0 -66 14.5t-63 26.5q-29 -14 -73.5 -27.5t-89.5 -13.5q-20 0 -41 5t-38 15.5t-28 27.5t-11 41q0 21 14 35t34.5 22
t42.5 11.5t37 3.5q54 0 104.5 -20.5t99.5 -42.5q23 16 39.5 41t28.5 55.5t20 65.5t14 71h-31q-28 0 -37.5 -3t-20.5 -14l-5 -4h-15zM356 60q35 -13 70.5 -24.5t72.5 -11.5q45 0 82 22.5t66 59.5t50.5 83.5t36 95.5t21.5 95t7 82t-7.5 78t-23.5 81t-41 71.5t-60 49.5
q-35 -46 -52 -95.5t-24.5 -100.5t-10.5 -103t-11 -103q54 1 91 12l3 1l-3 -3l-5 -7q-26 -33 -94 -40q-8 -33 -20 -65t-31.5 -63t-48 -59.5t-68.5 -55.5zM20 49q0 -18 12.5 -29t30 -18t36.5 -9.5t32 -2.5t30 2.5t34 7t33 10.5t28 12l-42.5 17.5t-53 20t-53.5 16t-43 6.5
t-30.5 -7t-13.5 -26z" />
    <glyph glyph-name="dcroat" unicode="&#x111;" horiz-adv-x="331" 
d="M277 614h41l17 76h67q-4 -17 -8.5 -36.5t-9.5 -39.5h42l-21 -48h-32q-16 -64 -33.5 -135t-32.5 -138t-26.5 -125.5t-14.5 -97.5q-3 -15 -2.5 -22t3 -9.5t5 -2t4.5 1.5q13 11 21.5 23t15.5 27l12 -16q-8 -14 -16 -27.5t-18.5 -24t-25.5 -17.5t-37 -7q-27 3 -34 17t-10 28
q-17 -20 -40.5 -33.5t-49.5 -13.5q-20 0 -35.5 8.5t-26 22t-15.5 31t-5 35.5q0 32 10 59.5t29 47.5t47 31t63 11q22 0 38 -8t21 -32q19 93 41.5 183.5t44.5 181.5h-50zM161 216q-18 0 -32 -16.5t-24.5 -39t-16 -46t-5.5 -37.5q0 -9 1 -19.5t4 -19t8.5 -14t15.5 -5.5
q21 0 38 16t29.5 38.5t19.5 47t7 41.5q0 23 -10.5 38.5t-34.5 15.5z" />
    <glyph glyph-name="Emacron" unicode="&#x112;" horiz-adv-x="662" 
d="M414 790q27 0 60.5 -4t63 -16t49.5 -34.5t20 -59.5q0 -26 -19 -45.5t-46 -19.5q-23 0 -37 18.5t-14 38.5q0 13 6.5 23.5t16 18t21.5 12.5t23 9q-30 23 -61 31t-69 8q-29 0 -57 -10.5t-51 -29t-37 -44.5t-14 -57q0 -17 8 -33.5t20.5 -31t27 -27t27.5 -21.5v-43
q0 -1 -19.5 -3t-49 -9.5t-63.5 -23t-63.5 -43t-49 -70t-19.5 -104.5q0 -53 24 -94.5t62.5 -70.5t86 -44.5t95.5 -15.5q42 0 85 12.5t77.5 37.5t56 61.5t21.5 83.5q0 37 -13 63.5t-35 43.5t-51.5 25.5t-63.5 8.5q-25 0 -53 -7.5t-53 -22t-44 -35t-25 -46.5h-20q0 32 22 57
t53.5 42t66 26t60.5 9q38 0 75 -8.5t66.5 -27.5t47.5 -50t18 -75q0 -46 -19 -80t-50 -59t-71 -41t-82.5 -25.5t-84 -13.5t-75.5 -4q-53 0 -101.5 16.5t-85 48t-58.5 76t-22 100.5t21 99t56.5 75t81 53.5t93.5 34.5q-13 17 -25 33t-21 33t-14 36t-5 42q0 43 21.5 75.5
t55 54.5t74 32.5t78.5 10.5zM360 881h86q39 0 65 13l2 1l-2 -3l-3 -8q-20 -45 -83 -45h-48q-17 0 -23 -3.5t-13 -14.5l-3 -5h-9z" />
    <glyph glyph-name="emacron" unicode="&#x113;" horiz-adv-x="245" 
d="M238 175q0 -29 -15.5 -46.5t-38.5 -28t-49 -15t-47 -7.5q-1 -9 -0.5 -20.5t5 -21.5t12.5 -15.5t22 -3.5q26 5 50 24t40 38l15 -7q-26 -41 -57.5 -60.5t-77.5 -19.5q-21 0 -37 8.5t-27 22.5t-16.5 32t-5.5 37q0 29 12.5 55.5t32.5 46.5t46.5 32t55.5 12q15 0 29 -3.5
t25.5 -11t18.5 -19.5t7 -29zM108 103q35 5 54 25.5t19 57.5q0 11 -1.5 22.5t-15.5 11.5q-20 0 -34.5 -12.5t-24 -31t-14 -39t-5.5 -36.5zM96 326h86q39 0 65 13l2 1l-2 -3l-3 -8q-20 -45 -83 -45h-48q-17 0 -23 -3.5t-13 -14.5l-3 -5h-9z" />
    <glyph glyph-name="Ebreve" unicode="&#x114;" horiz-adv-x="662" 
d="M414 790q27 0 60.5 -4t63 -16t49.5 -34.5t20 -59.5q0 -26 -19 -45.5t-46 -19.5q-23 0 -37 18.5t-14 38.5q0 13 6.5 23.5t16 18t21.5 12.5t23 9q-30 23 -61 31t-69 8q-29 0 -57 -10.5t-51 -29t-37 -44.5t-14 -57q0 -17 8 -33.5t20.5 -31t27 -27t27.5 -21.5v-43
q0 -1 -19.5 -3t-49 -9.5t-63.5 -23t-63.5 -43t-49 -70t-19.5 -104.5q0 -53 24 -94.5t62.5 -70.5t86 -44.5t95.5 -15.5q42 0 85 12.5t77.5 37.5t56 61.5t21.5 83.5q0 37 -13 63.5t-35 43.5t-51.5 25.5t-63.5 8.5q-25 0 -53 -7.5t-53 -22t-44 -35t-25 -46.5h-20q0 32 22 57
t53.5 42t66 26t60.5 9q38 0 75 -8.5t66.5 -27.5t47.5 -50t18 -75q0 -46 -19 -80t-50 -59t-71 -41t-82.5 -25.5t-84 -13.5t-75.5 -4q-53 0 -101.5 16.5t-85 48t-58.5 76t-22 100.5t21 99t56.5 75t81 53.5t93.5 34.5q-13 17 -25 33t-21 33t-14 36t-5 42q0 43 21.5 75.5
t55 54.5t74 32.5t78.5 10.5zM538 890q-46 -66 -96 -66q-63 0 -97 63l25 35q26 -58 80 -58q23 0 48 11.5t33 24.5z" />
    <glyph glyph-name="ebreve" unicode="&#x115;" horiz-adv-x="245" 
d="M238 175q0 -29 -15.5 -46.5t-38.5 -28t-49 -15t-47 -7.5q-1 -9 -0.5 -20.5t5 -21.5t12.5 -15.5t22 -3.5q26 5 50 24t40 38l15 -7q-26 -41 -57.5 -60.5t-77.5 -19.5q-21 0 -37 8.5t-27 22.5t-16.5 32t-5.5 37q0 29 12.5 55.5t32.5 46.5t46.5 32t55.5 12q15 0 29 -3.5
t25.5 -11t18.5 -19.5t7 -29zM108 103q35 5 54 25.5t19 57.5q0 11 -1.5 22.5t-15.5 11.5q-20 0 -34.5 -12.5t-24 -31t-14 -39t-5.5 -36.5zM273 353q-46 -66 -96 -66q-63 0 -97 63l25 35q26 -58 80 -58q23 0 48 11.5t33 24.5z" />
    <glyph glyph-name="Edotaccent" unicode="&#x116;" horiz-adv-x="662" 
d="M414 790q27 0 60.5 -4t63 -16t49.5 -34.5t20 -59.5q0 -26 -19 -45.5t-46 -19.5q-23 0 -37 18.5t-14 38.5q0 13 6.5 23.5t16 18t21.5 12.5t23 9q-30 23 -61 31t-69 8q-29 0 -57 -10.5t-51 -29t-37 -44.5t-14 -57q0 -17 8 -33.5t20.5 -31t27 -27t27.5 -21.5v-43
q0 -1 -19.5 -3t-49 -9.5t-63.5 -23t-63.5 -43t-49 -70t-19.5 -104.5q0 -53 24 -94.5t62.5 -70.5t86 -44.5t95.5 -15.5q42 0 85 12.5t77.5 37.5t56 61.5t21.5 83.5q0 37 -13 63.5t-35 43.5t-51.5 25.5t-63.5 8.5q-25 0 -53 -7.5t-53 -22t-44 -35t-25 -46.5h-20q0 32 22 57
t53.5 42t66 26t60.5 9q38 0 75 -8.5t66.5 -27.5t47.5 -50t18 -75q0 -46 -19 -80t-50 -59t-71 -41t-82.5 -25.5t-84 -13.5t-75.5 -4q-53 0 -101.5 16.5t-85 48t-58.5 76t-22 100.5t21 99t56.5 75t81 53.5t93.5 34.5q-13 17 -25 33t-21 33t-14 36t-5 42q0 43 21.5 75.5
t55 54.5t74 32.5t78.5 10.5zM438 869q22 0 22 -23q0 -12 -10 -22.5t-22 -10.5q-23 0 -23 23q0 13 10 23t23 10z" />
    <glyph glyph-name="edotaccent" unicode="&#x117;" horiz-adv-x="245" 
d="M238 175q0 -29 -15.5 -46.5t-38.5 -28t-49 -15t-47 -7.5q-1 -9 -0.5 -20.5t5 -21.5t12.5 -15.5t22 -3.5q26 5 50 24t40 38l15 -7q-26 -41 -57.5 -60.5t-77.5 -19.5q-21 0 -37 8.5t-27 22.5t-16.5 32t-5.5 37q0 29 12.5 55.5t32.5 46.5t46.5 32t55.5 12q15 0 29 -3.5
t25.5 -11t18.5 -19.5t7 -29zM108 103q35 5 54 25.5t19 57.5q0 11 -1.5 22.5t-15.5 11.5q-20 0 -34.5 -12.5t-24 -31t-14 -39t-5.5 -36.5zM165 348q22 0 22 -23q0 -12 -10 -22.5t-22 -10.5q-23 0 -23 23q0 13 10 23t23 10z" />
    <glyph glyph-name="Eogonek" unicode="&#x118;" horiz-adv-x="662" 
d="M414 790q27 0 60.5 -4t63 -16t49.5 -34.5t20 -59.5q0 -26 -19 -45.5t-46 -19.5q-23 0 -37 18.5t-14 38.5q0 13 6.5 23.5t16 18t21.5 12.5t23 9q-30 23 -61 31t-69 8q-29 0 -57 -10.5t-51 -29t-37 -44.5t-14 -57q0 -17 8 -33.5t20.5 -31t27 -27t27.5 -21.5v-43
q0 -1 -19.5 -3t-49 -9.5t-63.5 -23t-63.5 -43t-49 -70t-19.5 -104.5q0 -53 24 -94.5t62.5 -70.5t86 -44.5t95.5 -15.5q42 0 85 12.5t77.5 37.5t56 61.5t21.5 83.5q0 37 -13 63.5t-35 43.5t-51.5 25.5t-63.5 8.5q-25 0 -53 -7.5t-53 -22t-44 -35t-25 -46.5h-20q0 32 22 57
t53.5 42t66 26t60.5 9q38 0 75 -8.5t66.5 -27.5t47.5 -50t18 -75q0 -48 -20.5 -82.5t-52.5 -59.5q-17 -27 -17 -60q0 -53 51 -71l-23 -65q-60 22 -60 100q0 39 17 75q-31 -17 -67 -28.5t-73 -18.5t-72 -10t-65 -3q-53 0 -101.5 16.5t-85 48t-58.5 76t-22 100.5t21 99
t56.5 75t81 53.5t93.5 34.5q-13 17 -25 33t-21 33t-14 36t-5 42q0 43 21.5 75.5t55 54.5t74 32.5t78.5 10.5z" />
    <glyph glyph-name="eogonek" unicode="&#x119;" horiz-adv-x="245" 
d="M207 36q-40 -34 -40 -85q0 -53 51 -71l-23 -65q-60 22 -60 100q0 47 24 89q-27 -12 -62 -12q-21 0 -37 8.5t-27 22.5t-16.5 32t-5.5 37q0 29 12.5 55.5t32.5 46.5t46.5 32t55.5 12q15 0 29 -3.5t25.5 -11t18.5 -19.5t7 -29q0 -29 -15.5 -46.5t-38.5 -28t-49 -15t-47 -7.5
q-1 -9 -0.5 -20.5t5 -21.5t12.5 -15.5t22 -3.5q26 5 50 24t40 38l15 -7q-14 -22 -28 -36h3zM108 103q35 5 54 25.5t19 57.5q0 11 -1.5 22.5t-15.5 11.5q-20 0 -34.5 -12.5t-24 -31t-14 -39t-5.5 -36.5z" />
    <glyph glyph-name="Ecaron" unicode="&#x11a;" horiz-adv-x="662" 
d="M414 790q27 0 60.5 -4t63 -16t49.5 -34.5t20 -59.5q0 -26 -19 -45.5t-46 -19.5q-23 0 -37 18.5t-14 38.5q0 13 6.5 23.5t16 18t21.5 12.5t23 9q-30 23 -61 31t-69 8q-29 0 -57 -10.5t-51 -29t-37 -44.5t-14 -57q0 -17 8 -33.5t20.5 -31t27 -27t27.5 -21.5v-43
q0 -1 -19.5 -3t-49 -9.5t-63.5 -23t-63.5 -43t-49 -70t-19.5 -104.5q0 -53 24 -94.5t62.5 -70.5t86 -44.5t95.5 -15.5q42 0 85 12.5t77.5 37.5t56 61.5t21.5 83.5q0 37 -13 63.5t-35 43.5t-51.5 25.5t-63.5 8.5q-25 0 -53 -7.5t-53 -22t-44 -35t-25 -46.5h-20q0 32 22 57
t53.5 42t66 26t60.5 9q38 0 75 -8.5t66.5 -27.5t47.5 -50t18 -75q0 -46 -19 -80t-50 -59t-71 -41t-82.5 -25.5t-84 -13.5t-75.5 -4q-53 0 -101.5 16.5t-85 48t-58.5 76t-22 100.5t21 99t56.5 75t81 53.5t93.5 34.5q-13 17 -25 33t-21 33t-14 36t-5 42q0 43 21.5 75.5
t55 54.5t74 32.5t78.5 10.5zM558 931q-29 -26 -55.5 -51.5t-48.5 -49.5h-20q-10 24 -24 49.5t-34 51.5l22 11q17 -15 30.5 -30.5t24.5 -29.5q18 14 39.5 29.5t45.5 30.5z" />
    <glyph glyph-name="ecaron" unicode="&#x11b;" horiz-adv-x="245" 
d="M238 175q0 -29 -15.5 -46.5t-38.5 -28t-49 -15t-47 -7.5q-1 -9 -0.5 -20.5t5 -21.5t12.5 -15.5t22 -3.5q26 5 50 24t40 38l15 -7q-26 -41 -57.5 -60.5t-77.5 -19.5q-21 0 -37 8.5t-27 22.5t-16.5 32t-5.5 37q0 29 12.5 55.5t32.5 46.5t46.5 32t55.5 12q15 0 29 -3.5
t25.5 -11t18.5 -19.5t7 -29zM108 103q35 5 54 25.5t19 57.5q0 11 -1.5 22.5t-15.5 11.5q-20 0 -34.5 -12.5t-24 -31t-14 -39t-5.5 -36.5zM267 377q-29 -26 -55.5 -51.5t-48.5 -49.5h-20q-10 24 -24 49.5t-34 51.5l22 11q17 -15 30.5 -30.5t24.5 -29.5q18 14 39.5 29.5
t45.5 30.5z" />
    <glyph glyph-name="Gcircumflex" unicode="&#x11c;" horiz-adv-x="648" 
d="M505 762q27 0 59 -6t59.5 -19.5t46 -36t18.5 -56.5q0 -29 -18 -49t-48 -20q-26 0 -42 17t-16 43q0 38 23.5 51.5t55.5 11.5q-29 21 -65 31.5t-72 10.5q-72 0 -130 -33t-98.5 -85.5t-62.5 -118t-22 -131.5q0 -33 10.5 -63t30 -53.5t47 -37t62.5 -13.5q42 0 86 26t81 64.5
t63 84t32 84.5q22 -2 42.5 -1.5t42.5 -1.5q-17 -76 -33.5 -155.5t-40.5 -154t-58 -140t-85.5 -114.5t-123 -77.5t-170.5 -28.5q-30 0 -65 8.5t-65 26t-49.5 44.5t-19.5 65q0 45 23 76.5t57.5 51.5t75.5 29t78 9q44 0 86.5 -11t81.5 -31l-11 -23q-31 17 -65.5 25.5t-70.5 8.5
q-30 0 -69.5 -9.5t-75.5 -28t-61 -46.5t-25 -64q0 -29 21.5 -47.5t51.5 -29.5t62 -15.5t53 -4.5q66 0 118.5 24.5t93 66t70.5 95.5t51.5 113t35.5 119t23 112q-28 -32 -59 -66t-66 -62t-75.5 -45.5t-87.5 -17.5q-50 0 -85.5 16.5t-58 45t-33.5 67.5t-11 85q0 21 3.5 46.5
t10 52t15 51t19.5 42.5q56 97 148 144.5t201 47.5zM549 804q-17 16 -31.5 33t-25.5 31q-19 -15 -40.5 -31.5t-47.5 -32.5l-17 12q30 27 56.5 53.5t48.5 52.5h19q21 -52 59 -106z" />
    <glyph glyph-name="gcircumflex" unicode="&#x11d;" horiz-adv-x="325" 
d="M163 242q20 0 39 -6t33 -20l5 24l74 -1l-38 -186q-7 -41 -17 -77t-28.5 -62.5t-49 -42t-78.5 -15.5q-12 0 -29 4t-32 12t-25.5 20t-10.5 28q0 20 13.5 35t33.5 15q19 0 33 -12t14 -32q0 -13 -7.5 -24.5t-16.5 -20.5l21 -5q36 0 52.5 12.5t24 34t11 51t12.5 63.5
q-17 -14 -37 -25.5t-44 -11.5q-46 0 -66.5 24.5t-20.5 69.5q0 27 10 53.5t28 47.5t42.5 34t53.5 13zM100 78q0 -19 5 -36t28 -17q20 0 37.5 14.5t30 35t19.5 43.5t7 40q0 9 -2 19.5t-6 19.5t-11.5 15t-17.5 6q-22 0 -39 -15t-28 -37t-17 -46t-6 -42zM263 287
q-17 16 -31.5 33t-25.5 31q-19 -15 -40.5 -31.5t-47.5 -32.5l-17 12q30 27 56.5 53.5t48.5 52.5h19q21 -52 59 -106z" />
    <glyph glyph-name="Gbreve" unicode="&#x11e;" horiz-adv-x="648" 
d="M505 762q27 0 59 -6t59.5 -19.5t46 -36t18.5 -56.5q0 -29 -18 -49t-48 -20q-26 0 -42 17t-16 43q0 38 23.5 51.5t55.5 11.5q-29 21 -65 31.5t-72 10.5q-72 0 -130 -33t-98.5 -85.5t-62.5 -118t-22 -131.5q0 -33 10.5 -63t30 -53.5t47 -37t62.5 -13.5q42 0 86 26t81 64.5
t63 84t32 84.5q22 -2 42.5 -1.5t42.5 -1.5q-17 -76 -33.5 -155.5t-40.5 -154t-58 -140t-85.5 -114.5t-123 -77.5t-170.5 -28.5q-30 0 -65 8.5t-65 26t-49.5 44.5t-19.5 65q0 45 23 76.5t57.5 51.5t75.5 29t78 9q44 0 86.5 -11t81.5 -31l-11 -23q-31 17 -65.5 25.5t-70.5 8.5
q-30 0 -69.5 -9.5t-75.5 -28t-61 -46.5t-25 -64q0 -29 21.5 -47.5t51.5 -29.5t62 -15.5t53 -4.5q66 0 118.5 24.5t93 66t70.5 95.5t51.5 113t35.5 119t23 112q-28 -32 -59 -66t-66 -62t-75.5 -45.5t-87.5 -17.5q-50 0 -85.5 16.5t-58 45t-33.5 67.5t-11 85q0 21 3.5 46.5
t10 52t15 51t19.5 42.5q56 97 148 144.5t201 47.5zM608 868q-46 -66 -96 -66q-63 0 -97 63l25 35q26 -58 80 -58q23 0 48 11.5t33 24.5z" />
    <glyph glyph-name="gbreve" unicode="&#x11f;" horiz-adv-x="325" 
d="M163 242q20 0 39 -6t33 -20l5 24l74 -1l-38 -186q-7 -41 -17 -77t-28.5 -62.5t-49 -42t-78.5 -15.5q-12 0 -29 4t-32 12t-25.5 20t-10.5 28q0 20 13.5 35t33.5 15q19 0 33 -12t14 -32q0 -13 -7.5 -24.5t-16.5 -20.5l21 -5q36 0 52.5 12.5t24 34t11 51t12.5 63.5
q-17 -14 -37 -25.5t-44 -11.5q-46 0 -66.5 24.5t-20.5 69.5q0 27 10 53.5t28 47.5t42.5 34t53.5 13zM100 78q0 -19 5 -36t28 -17q20 0 37.5 14.5t30 35t19.5 43.5t7 40q0 9 -2 19.5t-6 19.5t-11.5 15t-17.5 6q-22 0 -39 -15t-28 -37t-17 -46t-6 -42zM318 359
q-46 -66 -96 -66q-63 0 -97 63l25 35q26 -58 80 -58q23 0 48 11.5t33 24.5z" />
    <glyph glyph-name="Gdotaccent" unicode="&#x120;" horiz-adv-x="648" 
d="M505 762q27 0 59 -6t59.5 -19.5t46 -36t18.5 -56.5q0 -29 -18 -49t-48 -20q-26 0 -42 17t-16 43q0 38 23.5 51.5t55.5 11.5q-29 21 -65 31.5t-72 10.5q-72 0 -130 -33t-98.5 -85.5t-62.5 -118t-22 -131.5q0 -33 10.5 -63t30 -53.5t47 -37t62.5 -13.5q42 0 86 26t81 64.5
t63 84t32 84.5q22 -2 42.5 -1.5t42.5 -1.5q-17 -76 -33.5 -155.5t-40.5 -154t-58 -140t-85.5 -114.5t-123 -77.5t-170.5 -28.5q-30 0 -65 8.5t-65 26t-49.5 44.5t-19.5 65q0 45 23 76.5t57.5 51.5t75.5 29t78 9q44 0 86.5 -11t81.5 -31l-11 -23q-31 17 -65.5 25.5t-70.5 8.5
q-30 0 -69.5 -9.5t-75.5 -28t-61 -46.5t-25 -64q0 -29 21.5 -47.5t51.5 -29.5t62 -15.5t53 -4.5q66 0 118.5 24.5t93 66t70.5 95.5t51.5 113t35.5 119t23 112q-28 -32 -59 -66t-66 -62t-75.5 -45.5t-87.5 -17.5q-50 0 -85.5 16.5t-58 45t-33.5 67.5t-11 85q0 21 3.5 46.5
t10 52t15 51t19.5 42.5q56 97 148 144.5t201 47.5zM528 863q35 0 35 -33q0 -17 -16 -32.5t-35 -15.5q-37 0 -37 33q0 19 16 33.5t37 14.5z" />
    <glyph glyph-name="gdotaccent" unicode="&#x121;" horiz-adv-x="325" 
d="M163 242q20 0 39 -6t33 -20l5 24l74 -1l-38 -186q-7 -41 -17 -77t-28.5 -62.5t-49 -42t-78.5 -15.5q-12 0 -29 4t-32 12t-25.5 20t-10.5 28q0 20 13.5 35t33.5 15q19 0 33 -12t14 -32q0 -13 -7.5 -24.5t-16.5 -20.5l21 -5q36 0 52.5 12.5t24 34t11 51t12.5 63.5
q-17 -14 -37 -25.5t-44 -11.5q-46 0 -66.5 24.5t-20.5 69.5q0 27 10 53.5t28 47.5t42.5 34t53.5 13zM100 78q0 -19 5 -36t28 -17q20 0 37.5 14.5t30 35t19.5 43.5t7 40q0 9 -2 19.5t-6 19.5t-11.5 15t-17.5 6q-22 0 -39 -15t-28 -37t-17 -46t-6 -42zM210 333q22 0 22 -23
q0 -12 -10 -22.5t-22 -10.5q-23 0 -23 23q0 13 10 23t23 10z" />
    <glyph glyph-name="Gcommaaccent" unicode="&#x122;" horiz-adv-x="648" 
d="M505 762q27 0 59 -6t59.5 -19.5t46 -36t18.5 -56.5q0 -29 -18 -49t-48 -20q-26 0 -42 17t-16 43q0 38 23.5 51.5t55.5 11.5q-29 21 -65 31.5t-72 10.5q-72 0 -130 -33t-98.5 -85.5t-62.5 -118t-22 -131.5q0 -33 10.5 -63t30 -53.5t47 -37t62.5 -13.5q42 0 86 26t81 64.5
t63 84t32 84.5q22 -2 42.5 -1.5t42.5 -1.5q-17 -76 -33.5 -155.5t-40.5 -154t-58 -140t-85.5 -114.5t-123 -77.5t-170.5 -28.5q-30 0 -65 8.5t-65 26t-49.5 44.5t-19.5 65q0 45 23 76.5t57.5 51.5t75.5 29t78 9q44 0 86.5 -11t81.5 -31l-11 -23q-31 17 -65.5 25.5t-70.5 8.5
q-30 0 -69.5 -9.5t-75.5 -28t-61 -46.5t-25 -64q0 -29 21.5 -47.5t51.5 -29.5t62 -15.5t53 -4.5q66 0 118.5 24.5t93 66t70.5 95.5t51.5 113t35.5 119t23 112q-28 -32 -59 -66t-66 -62t-75.5 -45.5t-87.5 -17.5q-50 0 -85.5 16.5t-58 45t-33.5 67.5t-11 85q0 21 3.5 46.5
t10 52t15 51t19.5 42.5q56 97 148 144.5t201 47.5z" />
    <glyph glyph-name="gcommaaccent" unicode="&#x123;" horiz-adv-x="325" 
d="M163 242q20 0 39 -6t33 -20l5 24l74 -1l-38 -186q-7 -41 -17 -77t-28.5 -62.5t-49 -42t-78.5 -15.5q-12 0 -29 4t-32 12t-25.5 20t-10.5 28q0 20 13.5 35t33.5 15q19 0 33 -12t14 -32q0 -13 -7.5 -24.5t-16.5 -20.5l21 -5q36 0 52.5 12.5t24 34t11 51t12.5 63.5
q-17 -14 -37 -25.5t-44 -11.5q-46 0 -66.5 24.5t-20.5 69.5q0 27 10 53.5t28 47.5t42.5 34t53.5 13zM100 78q0 -19 5 -36t28 -17q20 0 37.5 14.5t30 35t19.5 43.5t7 40q0 9 -2 19.5t-6 19.5t-11.5 15t-17.5 6q-22 0 -39 -15t-28 -37t-17 -46t-6 -42zM228 402q2 0 4 -1v-3
q0 -1 -1 -2q-13 -7 -19 -20t-10 -46q-2 -15 -3 -20q-2 -6 -5 -7q-3 -3 -17 -7q-4 -2 -6 -2t-4 -2q-5 -2 -8 -2q-5 0 -5 5q0 8 6 35q4 17 10 27t19 22q11 8 23 16q11 7 16 7z" />
    <glyph glyph-name="Hcircumflex" unicode="&#x124;" horiz-adv-x="948" 
d="M750 802q-29 -44 -46.5 -87t-30 -87t-21.5 -90t-20 -95q38 5 76 10.5t76 13.5q9 24 24 56.5t34 67t42.5 67.5t49.5 59t54.5 42t59.5 16q19 0 34 -9.5t15 -28.5q0 -45 -19 -90.5t-50.5 -83.5t-72.5 -65.5t-86 -37.5q-26 -74 -41.5 -157.5t-15.5 -164.5q0 -23 5 -45.5
t22 -39.5q36 24 59 66q5 -8 8.5 -10t3.5 -12q0 -13 -14 -30.5t-33 -33t-39 -26.5t-31 -11q-26 0 -40.5 16.5t-22 40t-9.5 49.5t-2 44q0 40 5 77t13.5 73.5t18.5 72.5t20 74l-151 -24q-21 -83 -51 -161t-77 -139t-116 -98t-167 -37q-62 0 -99 39t-37 101q0 29 9 58.5t27 52.5
q-51 36 -76.5 86.5t-25.5 112.5q0 52 12.5 93t36.5 74t57.5 59t75.5 50q66 37 135 51t139 18.5t140.5 6.5t141.5 16zM46 424q0 -30 3.5 -54t12.5 -44t24.5 -38.5t39.5 -36.5q15 13 28.5 27.5t29.5 27.5q24 20 70.5 40t99 36.5t103 28.5t82.5 16q11 54 23 107t27 107
q9 32 21.5 62.5t21.5 62.5q-58 0 -123.5 -4t-131 -16t-125.5 -35t-105.5 -61t-73 -93.5t-27.5 -132.5zM876 485q31 9 66.5 31.5t66 53.5t51 68t20.5 76q0 42 -37 42t-65 -31.5t-48 -75t-33.5 -89.5t-20.5 -75zM145 244q18 -6 36 -11.5t37 -5.5q25 0 48 6.5t47 6.5
q-6 -13 -12.5 -19.5t-14.5 -9.5t-18 -3h-23q-30 0 -58.5 5.5t-56.5 14.5q-16 -22 -24.5 -47.5t-8.5 -52.5q0 -55 32.5 -87.5t88.5 -32.5q85 0 139 35.5t87.5 92t53 126t34.5 138.5q-44 -6 -98.5 -18.5t-108.5 -31.5t-102 -45.5t-78 -60.5zM931 782q-17 16 -31.5 33t-25.5 31
q-19 -15 -40.5 -31.5t-47.5 -32.5l-17 12q30 27 56.5 53.5t48.5 52.5h19q21 -52 59 -106z" />
    <glyph glyph-name="hcircumflex" unicode="&#x125;" horiz-adv-x="319" 
d="M101 126q9 16 23 35.5t32 36.5t39 29t43 12q19 0 27 -10.5t8.5 -28t-4.5 -38.5t-11 -42.5t-11 -40.5t-5 -31q0 -1 1 -7t10 -6q19 0 28.5 11t17.5 22l8 -12q-13 -25 -38.5 -40.5t-57.5 -15.5q-20 0 -28 11.5t-9 29.5t4 40t11 43t11 39.5t5 28.5q0 2 -0.5 7t-5.5 5
q-13 0 -26 -12t-26 -31t-25.5 -42.5t-22.5 -46t-17.5 -42t-11.5 -29.5h-63q16 87 36 173t41.5 172t42.5 172t39 172h69zM263 690q-17 16 -31.5 33t-25.5 31q-19 -15 -40.5 -31.5t-47.5 -32.5l-17 12q30 27 56.5 53.5t48.5 52.5h19q21 -52 59 -106z" />
    <glyph glyph-name="Hbar" unicode="&#x126;" horiz-adv-x="948" 
d="M750 802q-35 -53 -54 -104.5t-32 -105.5h106q38 0 73 1q19 34 42 67t49 58.5t55 41t59 15.5q19 0 34 -9.5t15 -28.5q0 -45 -19 -90.5t-50.5 -83.5t-72.5 -65.5t-86 -37.5q-26 -74 -41.5 -157.5t-15.5 -164.5q0 -23 5 -45.5t22 -39.5q36 24 59 66q5 -8 8.5 -10t3.5 -12
q0 -13 -14 -30.5t-33 -33t-39 -26.5t-31 -11q-26 0 -40.5 16.5t-22 40t-9.5 49.5t-2 44q0 40 5 77t13.5 73.5t18.5 72.5t20 74l-151 -24q-21 -83 -51 -161t-77 -139t-116 -98t-167 -37q-62 0 -99 39t-37 101q0 29 9 58.5t27 52.5q-51 36 -76.5 86.5t-25.5 112.5
q0 52 12.5 93t36.5 74t57.5 59t75.5 50q66 37 135 51t139 18.5t140.5 6.5t141.5 16zM485 592h90q3 12 6.5 24t7.5 25q9 32 21.5 62.5t21.5 62.5q-58 0 -123.5 -4t-131 -16t-125.5 -35t-105.5 -61t-73 -93.5t-27.5 -132.5q0 -30 3.5 -54t12.5 -44t24.5 -38.5t39.5 -36.5
q15 13 28.5 27.5t29.5 27.5q24 20 70.5 40t99 36.5t103 28.5t82.5 16q6 29 12 58.5t13 58.5h-23q-56 0 -76 -3.5t-43 -16.5l-10 -6h-30zM145 244q18 -6 36 -11.5t37 -5.5q25 0 48 6.5t47 6.5q-6 -13 -12.5 -19.5t-14.5 -9.5t-18 -3h-23q-30 0 -58.5 5.5t-56.5 14.5
q-16 -22 -24.5 -47.5t-8.5 -52.5q0 -55 32.5 -87.5t88.5 -32.5q85 0 139 35.5t87.5 92t53 126t34.5 138.5q-44 -6 -98.5 -18.5t-108.5 -31.5t-102 -45.5t-78 -60.5zM876 485q31 9 66.5 31.5t66 53.5t51 68t20.5 76q0 42 -37 42q-24 0 -44 -14t-36.5 -36.5t-30 -51
t-23.5 -57.5q41 4 76 10l7 1l-7 -3l-10 -9q-27 -22 -78 -34q-7 -23 -12 -43t-9 -34zM632 443q38 5 76 10.5t76 13.5q7 17 16 38t20 44q-52 -5 -120 -5h-47z" />
    <glyph glyph-name="hbar" unicode="&#x127;" horiz-adv-x="319" 
d="M94 508h30q11 45 21.5 90.5t20.5 91.5h69l-44 -182q32 2 54 13l2 1l-2 -3l-3 -8q-16 -36 -60 -43l-81 -342q9 16 23 35.5t32 36.5t39 29t43 12q19 0 27 -10.5t8.5 -28t-4.5 -38.5t-11 -42.5t-11 -40.5t-5 -31q0 -1 1 -7t10 -6q19 0 28.5 11t17.5 22l8 -12
q-13 -25 -38.5 -40.5t-57.5 -15.5q-20 0 -28 11.5t-9 29.5t4 40t11 43t11 39.5t5 28.5q0 2 -0.5 7t-5.5 5q-13 0 -26 -12t-26 -31t-25.5 -42.5t-22.5 -46t-17.5 -42t-11.5 -29.5h-63q22 118 50 233t57 232h-3q-17 0 -23 -3.5t-13 -14.5l-3 -5h-9z" />
    <glyph glyph-name="Itilde" unicode="&#x128;" horiz-adv-x="646" 
d="M619 788q28 0 55.5 -7.5t52.5 -16.5t45.5 -16t35.5 -5q-15 -27 -36 -43.5t-42.5 -37t-40 -51.5t-29.5 -87q-13 -66 -21 -134.5t-22 -135.5q-15 -72 -55 -127.5t-95.5 -92.5t-122 -56t-136.5 -19q-39 0 -76 9t-65.5 28.5t-45.5 50.5t-17 75q0 46 22 82t56 62.5t75.5 42.5
t81.5 23q0 82 25.5 164t74 146.5t119 105t161.5 40.5zM254 337q44 0 85.5 -6.5t82.5 -20.5l-12 -24q-30 10 -61.5 20t-64.5 10q-6 0 -13 -1t-13 -2q6 -38 18 -76t32 -71l-19 -21q-23 37 -35.5 79t-14.5 86q-35 -6 -72.5 -20.5t-69 -37.5t-51.5 -55.5t-20 -72.5q0 -27 12 -52
t32 -44t45.5 -30.5t52.5 -11.5q68 0 121 10t94 35t72.5 68t55.5 109q17 46 21 92.5t15 94.5q21 84 62 153.5t101 131.5q-32 18 -65.5 31t-69.5 13q-81 0 -139.5 -34t-97.5 -89t-59.5 -124.5t-24.5 -139.5zM531 803q14 45 27.5 60t38.5 15q14 0 48 -9q28 -6 41 -6q24 0 36 25
l9 -2q-12 -41 -26.5 -56.5t-39.5 -15.5q-10 0 -19 2l-29 7q-29 7 -43 7q-21 0 -32 -24q-1 -1 -3 -5z" />
    <glyph glyph-name="itilde" unicode="&#x129;" horiz-adv-x="214" 
d="M127 253q23 0 34 -18.5t11 -37.5q0 -20 -8.5 -41t-18 -42.5t-18 -42.5t-8.5 -40q0 -4 1 -10.5t7 -6.5q8 0 15.5 5.5t13.5 13t11 16t8 13.5l19 -9q-16 -26 -35 -45.5t-51 -19.5q-21 0 -41 12t-20 34q0 17 12 46.5t25 58t20 50t-2 21.5t-15 -1.5t-12.5 -6t-15.5 -13
t-23 -22.5l-12 14q7 9 19.5 21.5t27.5 24t29.5 19t26.5 7.5zM32 298q14 45 27.5 60t38.5 15q14 0 48 -9q28 -6 41 -6q24 0 36 25l9 -2q-12 -41 -26.5 -56.5t-39.5 -15.5q-10 0 -19 2l-29 7q-29 7 -43 7q-21 0 -32 -24q-1 -1 -3 -5z" />
    <glyph glyph-name="Imacron" unicode="&#x12a;" horiz-adv-x="646" 
d="M619 788q28 0 55.5 -7.5t52.5 -16.5t45.5 -16t35.5 -5q-15 -27 -36 -43.5t-42.5 -37t-40 -51.5t-29.5 -87q-13 -66 -21 -134.5t-22 -135.5q-15 -72 -55 -127.5t-95.5 -92.5t-122 -56t-136.5 -19q-39 0 -76 9t-65.5 28.5t-45.5 50.5t-17 75q0 46 22 82t56 62.5t75.5 42.5
t81.5 23q0 82 25.5 164t74 146.5t119 105t161.5 40.5zM254 337q44 0 85.5 -6.5t82.5 -20.5l-12 -24q-30 10 -61.5 20t-64.5 10q-6 0 -13 -1t-13 -2q6 -38 18 -76t32 -71l-19 -21q-23 37 -35.5 79t-14.5 86q-35 -6 -72.5 -20.5t-69 -37.5t-51.5 -55.5t-20 -72.5q0 -27 12 -52
t32 -44t45.5 -30.5t52.5 -11.5q68 0 121 10t94 35t72.5 68t55.5 109q17 46 21 92.5t15 94.5q21 84 62 153.5t101 131.5q-32 18 -65.5 31t-69.5 13q-81 0 -139.5 -34t-97.5 -89t-59.5 -124.5t-24.5 -139.5zM564 862h86q39 0 65 13l2 1l-2 -3l-3 -8q-20 -45 -83 -45h-48
q-17 0 -23 -3.5t-13 -14.5l-3 -5h-9z" />
    <glyph glyph-name="imacron" unicode="&#x12b;" horiz-adv-x="214" 
d="M127 253q23 0 34 -18.5t11 -37.5q0 -20 -8.5 -41t-18 -42.5t-18 -42.5t-8.5 -40q0 -4 1 -10.5t7 -6.5q8 0 15.5 5.5t13.5 13t11 16t8 13.5l19 -9q-16 -26 -35 -45.5t-51 -19.5q-21 0 -41 12t-20 34q0 17 12 46.5t25 58t20 50t-2 21.5t-15 -1.5t-12.5 -6t-15.5 -13
t-23 -22.5l-12 14q7 9 19.5 21.5t27.5 24t29.5 19t26.5 7.5zM82 352h86q39 0 65 13l2 1l-2 -3l-3 -8q-20 -45 -83 -45h-48q-17 0 -23 -3.5t-13 -14.5l-3 -5h-9z" />
    <glyph glyph-name="Ibreve" unicode="&#x12c;" horiz-adv-x="646" 
d="M619 788q28 0 55.5 -7.5t52.5 -16.5t45.5 -16t35.5 -5q-15 -27 -36 -43.5t-42.5 -37t-40 -51.5t-29.5 -87q-13 -66 -21 -134.5t-22 -135.5q-15 -72 -55 -127.5t-95.5 -92.5t-122 -56t-136.5 -19q-39 0 -76 9t-65.5 28.5t-45.5 50.5t-17 75q0 46 22 82t56 62.5t75.5 42.5
t81.5 23q0 82 25.5 164t74 146.5t119 105t161.5 40.5zM254 337q44 0 85.5 -6.5t82.5 -20.5l-12 -24q-30 10 -61.5 20t-64.5 10q-6 0 -13 -1t-13 -2q6 -38 18 -76t32 -71l-19 -21q-23 37 -35.5 79t-14.5 86q-35 -6 -72.5 -20.5t-69 -37.5t-51.5 -55.5t-20 -72.5q0 -27 12 -52
t32 -44t45.5 -30.5t52.5 -11.5q68 0 121 10t94 35t72.5 68t55.5 109q17 46 21 92.5t15 94.5q21 84 62 153.5t101 131.5q-32 18 -65.5 31t-69.5 13q-81 0 -139.5 -34t-97.5 -89t-59.5 -124.5t-24.5 -139.5zM783 883q-46 -66 -96 -66q-63 0 -97 63l25 35q26 -58 80 -58
q23 0 48 11.5t33 24.5z" />
    <glyph glyph-name="ibreve" unicode="&#x12d;" horiz-adv-x="214" 
d="M127 253q23 0 34 -18.5t11 -37.5q0 -20 -8.5 -41t-18 -42.5t-18 -42.5t-8.5 -40q0 -4 1 -10.5t7 -6.5q8 0 15.5 5.5t13.5 13t11 16t8 13.5l19 -9q-16 -26 -35 -45.5t-51 -19.5q-21 0 -41 12t-20 34q0 17 12 46.5t25 58t20 50t-2 21.5t-15 -1.5t-12.5 -6t-15.5 -13
t-23 -22.5l-12 14q7 9 19.5 21.5t27.5 24t29.5 19t26.5 7.5zM245 370q-46 -66 -96 -66q-63 0 -97 63l25 35q26 -58 80 -58q23 0 48 11.5t33 24.5z" />
    <glyph glyph-name="Iogonek" unicode="&#x12e;" horiz-adv-x="646" 
d="M619 788q28 0 55.5 -7.5t52.5 -16.5t45.5 -16t35.5 -5q-15 -27 -36 -43.5t-42.5 -37t-40 -51.5t-29.5 -87q-13 -66 -21 -134.5t-22 -135.5q-16 -75 -57 -130.5t-98 -92.5q-25 -30 -25 -70q0 -53 51 -71l-23 -65q-60 22 -60 100q0 46 23 86q-50 -26 -106 -39t-114 -13
q-39 0 -76 9t-65.5 28.5t-45.5 50.5t-17 75q0 46 22 82t56 62.5t75.5 42.5t81.5 23q0 82 25.5 164t74 146.5t119 105t161.5 40.5zM254 337q44 0 85.5 -6.5t82.5 -20.5l-12 -24q-30 10 -61.5 20t-64.5 10q-6 0 -13 -1t-13 -2q6 -38 18 -76t32 -71l-19 -21q-23 37 -35.5 79
t-14.5 86q-35 -6 -72.5 -20.5t-69 -37.5t-51.5 -55.5t-20 -72.5q0 -27 12 -52t32 -44t45.5 -30.5t52.5 -11.5q68 0 121 10t94 35t72.5 68t55.5 109q17 46 21 92.5t15 94.5q21 84 62 153.5t101 131.5q-32 18 -65.5 31t-69.5 13q-81 0 -139.5 -34t-97.5 -89t-59.5 -124.5
t-24.5 -139.5z" />
    <glyph glyph-name="iogonek" unicode="&#x12f;" horiz-adv-x="214" 
d="M127 253q23 0 34 -18.5t11 -37.5q0 -20 -8.5 -41t-18 -42.5t-18 -42.5t-8.5 -40q0 -4 1 -10.5t7 -6.5q8 0 15.5 5.5t13.5 13t11 16t8 13.5l19 -9q-9 -14 -18.5 -27.5t-21.5 -22.5q-25 -29 -25 -70q0 -53 51 -71l-23 -65q-60 22 -60 100q0 49 27 93q-10 -2 -16 -2
q-21 0 -41 12t-20 34q0 17 12 46.5t25 58t20 50t-2 21.5t-15 -1.5t-12.5 -6t-15.5 -13t-23 -22.5l-12 14q7 9 19.5 21.5t27.5 24t29.5 19t26.5 7.5zM162 348q-21 0 -32.5 13t-11.5 33q0 21 13 37t35 16q20 0 34 -12.5t14 -32.5q0 -22 -14.5 -38t-37.5 -16z" />
    <glyph glyph-name="Idotaccent" unicode="&#x130;" horiz-adv-x="646" 
d="M619 788q28 0 55.5 -7.5t52.5 -16.5t45.5 -16t35.5 -5q-15 -27 -36 -43.5t-42.5 -37t-40 -51.5t-29.5 -87q-13 -66 -21 -134.5t-22 -135.5q-15 -72 -55 -127.5t-95.5 -92.5t-122 -56t-136.5 -19q-39 0 -76 9t-65.5 28.5t-45.5 50.5t-17 75q0 46 22 82t56 62.5t75.5 42.5
t81.5 23q0 82 25.5 164t74 146.5t119 105t161.5 40.5zM254 337q44 0 85.5 -6.5t82.5 -20.5l-12 -24q-30 10 -61.5 20t-64.5 10q-6 0 -13 -1t-13 -2q6 -38 18 -76t32 -71l-19 -21q-23 37 -35.5 79t-14.5 86q-35 -6 -72.5 -20.5t-69 -37.5t-51.5 -55.5t-20 -72.5q0 -27 12 -52
t32 -44t45.5 -30.5t52.5 -11.5q68 0 121 10t94 35t72.5 68t55.5 109q17 46 21 92.5t15 94.5q21 84 62 153.5t101 131.5q-32 18 -65.5 31t-69.5 13q-81 0 -139.5 -34t-97.5 -89t-59.5 -124.5t-24.5 -139.5zM677 886q27 0 27 -33q0 -17 -12 -32t-27 -15q-29 0 -29 33
q0 18 12.5 32.5t28.5 14.5z" />
    <glyph glyph-name="dotlessi" unicode="&#x131;" horiz-adv-x="214" 
d="M127 253q23 0 34 -18.5t11 -37.5q0 -20 -8.5 -41t-18 -42.5t-18 -42.5t-8.5 -40q0 -4 1 -10.5t7 -6.5q8 0 15.5 5.5t13.5 13t11 16t8 13.5l19 -9q-16 -26 -35 -45.5t-51 -19.5q-21 0 -41 12t-20 34q0 17 12 46.5t25 58t20 50t-2 21.5t-15 -1.5t-12.5 -6t-15.5 -13
t-23 -22.5l-12 14q7 9 19.5 21.5t27.5 24t29.5 19t26.5 7.5z" />
    <glyph glyph-name="Jcircumflex" unicode="&#x134;" horiz-adv-x="545" 
d="M545 895q27 0 50.5 -5t45.5 -13t44 -17t47 -16q-18 -16 -38 -32.5t-38.5 -34.5t-34 -38.5t-25.5 -43.5q-12 -32 -17 -65.5t-10 -66.5q-12 -83 -25 -170t-40 -167.5t-75 -149t-129 -114.5q-26 -15 -63 -23.5t-67 -8.5q-44 0 -73.5 14.5t-48.5 39.5t-27 59t-8 73
q0 45 12.5 80.5t33 66t47 58t55.5 56.5q-5 23 -5.5 46t-0.5 49q0 80 29.5 156t81.5 135.5t123.5 95.5t155.5 36zM178 448q0 -16 1 -30.5t3 -29.5q33 20 69.5 33.5t74.5 16.5l5 -16q-26 -5 -65 -17t-80 -38q9 -38 29 -72.5t42 -67.5l-19 -7q-24 29 -41 62t-31 67
q-22 -20 -44 -53t-39.5 -70.5t-28.5 -75.5t-11 -68q0 -57 33 -93.5t90 -36.5q56 0 97.5 20t71 54t49.5 79.5t34 97t23.5 106t18.5 106t19 98t24 81.5q23 58 56 103.5t76 90.5q-32 24 -73.5 33t-80.5 9q-77 0 -134 -34t-94.5 -89t-56 -123t-18.5 -136zM636 920
q-17 16 -31.5 33t-25.5 31q-19 -15 -40.5 -31.5t-47.5 -32.5l-17 12q30 27 56.5 53.5t48.5 52.5h19q21 -52 59 -106z" />
    <glyph glyph-name="jcircumflex" unicode="&#x135;" horiz-adv-x="150" 
d="M78 -12q-8 -29 -20 -53.5t-29.5 -42.5t-41.5 -28t-57 -10q-10 0 -20.5 3.5t-19.5 9.5t-14.5 14t-5.5 17q0 17 13 31.5t30 14.5q23 0 32.5 -17t2.5 -36q-1 -12 7 -14.5t18 3t18.5 17.5t10.5 30q4 56 19.5 107t30.5 90t24 62t1 24q-9 1 -15 -0.5t-12.5 -6.5t-15.5 -13.5
t-23 -22.5l-12 14q7 9 19.5 21.5t27.5 24t29.5 19t26.5 7.5q23 0 34 -18.5t11 -37.5q0 -27 -7 -53.5t-17.5 -52.5t-22.5 -51.5t-22 -51.5zM181 308q-17 16 -31.5 33t-25.5 31q-19 -15 -40.5 -31.5t-47.5 -32.5l-17 12q30 27 56.5 53.5t48.5 52.5h19q21 -52 59 -106z" />
    <glyph glyph-name="Kcommaaccent" unicode="&#x136;" horiz-adv-x="920" 
d="M407 775q54 0 94.5 -16t66.5 -46t39 -72.5t13 -94.5q0 -53 -10.5 -103t-25.5 -100q8 0 20 -2t25.5 -6t26.5 -9t23 -12q13 13 22 47.5t19 78t23.5 90.5t35.5 86t55 64.5t82 25.5q15 0 29.5 -3t26.5 -10.5t19 -19.5t7 -30q0 -22 -11.5 -38t-34.5 -17q-17 0 -30 3.5
t-21.5 13t-10 25t4.5 38.5q2 7 -3 8.5t-9 1.5q-29 0 -43 -20.5t-22.5 -53.5t-14 -75t-16 -84.5t-30.5 -83t-57 -69.5q18 -20 29.5 -48.5t19.5 -59.5t15 -61t15.5 -54.5t21 -39.5t33.5 -15q15 0 24 11.5t13.5 27.5t5 32.5t0.5 27.5h16l1 -18q0 -21 -7.5 -45t-22 -44t-34 -33
t-43.5 -13t-41.5 17.5t-30.5 45.5t-22.5 62.5t-17 68.5t-14 63.5t-13.5 47.5q-10 -5 -21.5 -6t-22.5 -1q-14 0 -23.5 3t-21.5 8q-24 -67 -70.5 -125.5t-107 -102t-131 -68.5t-141.5 -25q-23 0 -46 6.5t-41.5 19.5t-30 32.5t-11.5 45.5q0 28 15.5 45.5t44.5 17.5
q23 0 38.5 -18t15.5 -39v-20q-7 -14 -18.5 -24.5t-25.5 -18.5q14 -11 29.5 -18.5t33.5 -7.5q51 0 102 12.5t93 44.5q50 38 91.5 97.5t71 128t45.5 139.5t16 132q0 44 -10 83t-32 68.5t-56 47t-82 17.5q-74 0 -129.5 -39t-93 -99t-56.5 -131t-19 -135q0 -33 7 -60t19.5 -50.5
t30.5 -45t41 -43.5l-12 -16q-61 42 -83 100.5t-22 129.5q0 81 26 157.5t74 136t117 95.5t155 36zM581 326q-3 -10 -7.5 -22t-8.5 -20l9 -4.5t12.5 -3t19.5 1t30 6.5q-9 15 -24 27.5t-31 14.5zM437 -93q0 12 9 22.5t21 10.5q17 0 24.5 -8.5t7.5 -28.5q0 -37 -24.5 -63
t-52.5 -40l-2 13q16 13 32 26.5t23 35.5q-14 0 -26 6t-12 26z" />
    <glyph glyph-name="kcommaaccent" unicode="&#x137;" horiz-adv-x="337" 
d="M215 656q20 21 48 31t57 1q11 -5 16.5 -15.5t7.5 -22.5q4 -26 -11 -38.5t-33 -12.5q-17 0 -29 9.5t-8 29.5q2 13 0.5 19.5t-12.5 -1.5q-20 -21 -34 -53t-23.5 -67t-16 -68.5t-11.5 -55.5l-52 -255q18 5 37 2t27 -9q6 9 12.5 24t17 30t26.5 25.5t40 9.5q24 -2 34.5 -14
t10.5 -33q2 -21 -11.5 -32.5t-30.5 -13.5q-18 -2 -32.5 11t-11.5 30q2 14 7.5 20.5t-5.5 4.5q-6 -1 -10.5 -10t-9.5 -21t-10.5 -25t-11.5 -22q9 -10 16 -27.5l14 -35t15.5 -31t20.5 -15.5q10 -1 19 6.5t16 18.5t12 22.5t8 18.5l15 -3q-8 -23 -21 -45t-30 -36t-37.5 -17
t-44.5 11q-22 17 -31 42.5t-16 51.5q-12 -8 -26 -10.5t-28 -1.5l-19 -83h-64q22 112 44.5 223.5t45.5 220.5q12 58 40.5 113t72.5 99zM100 101q25 -2 45 9q-2 14 -10 23t-25 10zM116 -60q0 12 9 22.5t21 10.5q17 0 24.5 -8.5t7.5 -28.5q0 -37 -24.5 -63t-52.5 -40l-2 13
q16 13 32 26.5t23 35.5q-14 0 -26 6t-12 26z" />
    <glyph glyph-name="kgreenlandic" unicode="&#x138;" horiz-adv-x="337" 
d="M131 234l-17 -77q18 5 37 2t27 -9q6 9 12.5 24t17 30t26.5 25.5t40 9.5q24 -2 34.5 -14t10.5 -33q2 -21 -11.5 -32.5t-30.5 -13.5q-18 -2 -32.5 11t-11.5 30q2 14 7.5 20.5t-5.5 4.5q-6 -1 -10.5 -10t-9.5 -21t-10.5 -25t-11.5 -22q9 -10 16 -27.5l14 -35t15.5 -31
t20.5 -15.5q10 -1 19 6.5t16 18.5t12 22.5t8 18.5l15 -3q-8 -23 -21 -45t-30 -36t-37.5 -17t-44.5 11q-22 17 -31 42.5t-16 51.5q-12 -8 -26 -10.5t-28 -1.5l-19 -83h-64q12 63 23.5 117t24.5 117h71zM100 101q25 -2 45 9q-2 14 -10 23t-25 10z" />
    </font>
</defs>
</svg>
