<?xml version="1.0" standalone="no"?>
<!DOCTYPE svg PUBLIC "-//W3C//DTD SVG 20010904//EN"
 "http://www.w3.org/TR/2001/REC-SVG-20010904/DTD/svg10.dtd">
<svg version="1.0" xmlns="http://www.w3.org/2000/svg"
 width="500.000000pt" height="500.000000pt" viewBox="0 0 500.000000 500.000000"
 preserveAspectRatio="xMidYMid meet">

<g transform="translate(0.000000,500.000000) scale(0.100000,-0.100000)"
fill="#000000" stroke="none">
<path d="M2497 4283 c-11 -11 -8 -193 3 -193 6 0 10 40 10 100 0 100 -1 106
-13 93z"/>
<path d="M2220 4168 c0 -18 27 -44 37 -34 4 4 -3 16 -15 29 -18 17 -22 18 -22
5z"/>
<path d="M2776 4161 c-11 -12 -16 -24 -12 -28 9 -9 39 22 34 37 -2 7 -10 4
-22 -9z"/>
<path d="M2290 4089 c1 -14 44 -69 55 -69 15 0 2 30 -25 55 -19 18 -30 24 -30
14z"/>
<path d="M2697 4072 c-26 -27 -35 -52 -19 -52 12 0 54 59 50 71 -2 5 -16 -3
-31 -19z"/>
<path d="M2384 3890 c-18 -27 -24 -44 -17 -52 57 -75 129 -158 137 -157 6 0
42 38 79 85 l68 84 -28 40 -28 40 -92 0 -93 0 -26 -40z m219 -15 l18 -25 -58
-71 -58 -71 -43 49 c-73 81 -77 89 -58 118 15 23 22 25 99 25 76 -1 83 -3 100
-25z"/>
<path d="M2070 3891 c0 -9 127 -31 177 -31 49 0 10 18 -64 29 -87 13 -113 14
-113 2z"/>
<path d="M2823 3888 c-59 -9 -88 -28 -43 -28 44 0 170 23 170 31 0 11 -44 10
-127 -3z"/>
<path d="M2135 3688 c-174 -23 -326 -176 -354 -355 -28 -180 71 -368 232 -443
127 -59 254 -58 380 4 64 31 68 32 63 12 -3 -12 -6 -25 -6 -29 0 -5 -4 -5 -10
-2 -22 14 -31 -8 -12 -29 11 -11 27 -36 36 -53 10 -20 24 -33 36 -33 12 0 26
13 36 33 9 17 25 42 36 53 14 15 16 24 8 29 -6 4 -14 4 -18 0 -4 -3 -11 9 -18
27 -6 18 -20 38 -31 43 -20 10 -19 12 11 47 77 88 117 233 97 344 -12 63 -49
151 -81 191 l-20 26 22 24 c42 45 142 85 229 90 282 20 494 -248 409 -518 -70
-224 -334 -342 -548 -245 -82 38 -81 40 32 93 33 16 61 34 64 41 6 19 -39 14
-77 -9 -35 -21 -101 -86 -101 -99 0 -17 95 -62 160 -76 89 -18 188 -5 275 36
76 36 166 127 203 207 24 53 27 69 27 173 0 109 -2 118 -32 181 -108 220 -358
304 -580 194 -225 -111 -297 -393 -158 -611 l34 -52 -21 -19 c-20 -18 -21 -17
-47 13 -33 39 -89 74 -119 74 -39 0 -20 -22 44 -53 82 -39 87 -41 87 -52 0 -6
-26 -23 -58 -40 -54 -28 -66 -30 -165 -30 -99 0 -110 2 -171 32 -80 40 -159
120 -197 200 -24 52 -27 69 -26 163 0 91 3 112 26 162 96 208 349 298 550 195
78 -40 97 -26 21 16 -79 42 -173 58 -268 45z m406 -205 c60 -96 78 -231 39
-295 -11 -18 -30 -64 -41 -101 -24 -82 -35 -82 -20 -1 16 82 14 157 -4 180
-15 19 -15 19 -31 -1 -13 -16 -15 -36 -10 -105 3 -47 9 -98 12 -115 11 -51
-12 -15 -25 40 -7 28 -24 71 -38 97 -22 40 -25 56 -21 120 5 93 64 228 100
228 5 0 22 -21 39 -47z"/>
<path d="M2324 3103 c8 -16 38 -50 66 -78 l52 -50 -17 40 c-17 44 -81 115
-102 115 -11 0 -11 -5 1 -27z"/>
<path d="M2645 3112 c-35 -31 -54 -57 -71 -97 l-16 -40 52 50 c57 55 89 105
68 105 -7 -1 -22 -9 -33 -18z"/>
<path d="M2262 2958 c5 -14 79 -30 118 -26 25 3 25 3 -7 21 -38 20 -117 24
-111 5z"/>
<path d="M2625 2952 l-30 -17 25 -3 c39 -4 113 12 118 26 6 18 -77 14 -113 -6z"/>
<path d="M1740 2798 c0 -16 -6 -28 -12 -28 -7 0 1 -8 17 -18 30 -19 30 -19 37
2 10 33 9 48 -3 41 -6 -4 -17 1 -24 11 -13 18 -14 17 -15 -8z"/>
<path d="M2081 2785 c-113 -38 -183 -44 -219 -19 -20 14 -22 14 -22 -3 0 -10
7 -29 16 -42 15 -21 23 -23 63 -18 25 3 55 9 66 12 18 6 18 5 -3 -13 -12 -11
-28 -22 -34 -24 -25 -9 5 -28 42 -28 34 0 48 8 103 60 70 65 100 80 155 79 33
-1 35 -1 11 -8 -43 -14 -72 -32 -120 -77 -33 -30 -43 -44 -33 -48 8 -3 21 -3
29 0 12 5 15 -3 16 -32 l1 -39 7 36 c11 54 43 102 83 123 32 18 40 19 78 7 54
-16 100 -60 100 -96 0 -79 -80 -125 -130 -75 -11 11 -20 16 -20 10 0 -5 9 -19
20 -30 31 -31 85 -27 121 9 25 25 29 37 29 84 0 100 -68 159 -190 165 -53 2
-84 -4 -169 -33z"/>
<path d="M2667 2806 c-51 -19 -76 -43 -99 -94 -43 -95 18 -190 106 -168 40 10
57 34 54 74 -2 27 -10 40 -30 52 -26 14 -29 13 -49 -7 -23 -23 -20 -49 6 -60
26 -9 39 12 19 32 -14 14 -15 18 -4 25 25 15 50 -8 50 -45 0 -39 -20 -55 -69
-55 -38 0 -71 40 -71 87 0 69 103 131 170 103 42 -18 84 -82 85 -130 0 -21 3
-36 8 -33 4 2 7 20 7 39 0 21 4 33 10 29 6 -3 20 -3 31 0 21 7 20 8 -10 27
-17 11 -31 24 -31 28 0 13 -58 52 -99 66 l-36 13 38 1 c50 0 90 -21 159 -86
49 -47 62 -54 97 -54 38 0 68 19 43 28 -6 2 -22 13 -34 24 -21 18 -21 19 -3
13 11 -4 38 -9 60 -12 47 -5 71 10 81 51 7 29 7 29 -17 13 -37 -27 -115 -22
-211 14 -99 37 -204 47 -261 25z"/>
<path d="M3237 2799 c-11 -15 -16 -17 -20 -7 -3 7 -6 -4 -6 -25 l-1 -38 30 18
c17 10 27 19 22 21 -5 1 -7 14 -4 27 5 30 -2 32 -21 4z"/>
<path d="M1642 2718 c-28 -36 -21 -86 17 -115 14 -11 14 -12 -4 -13 -22 0 -55
19 -95 56 -14 13 -41 30 -61 38 -36 15 -37 15 -32 -4 4 -15 0 -20 -14 -20 -24
0 -60 -25 -74 -51 -10 -20 -9 -20 20 -5 43 23 97 20 179 -9 39 -14 86 -25 104
-25 l31 0 -22 24 c-16 17 -22 33 -19 57 3 30 6 34 31 32 30 -2 31 0 17 28 -12
22 -62 26 -78 7z"/>
<path d="M3282 2718 c-7 -7 -12 -20 -12 -30 0 -16 3 -16 20 -6 43 27 55 -47
15 -87 l-24 -25 33 0 c18 0 66 11 106 25 85 29 138 32 181 9 29 -15 30 -15 20
5 -15 28 -51 51 -78 51 -25 0 -29 10 -11 28 26 26 -57 -9 -86 -36 -44 -41 -78
-62 -100 -62 -19 0 -19 1 2 23 26 27 29 79 6 101 -18 19 -55 21 -72 4z"/>
<path d="M2293 2670 c-13 -5 -23 -15 -23 -22 0 -9 3 -9 8 -2 11 17 39 23 50
12 8 -8 7 -15 -5 -23 -18 -13 -10 -35 12 -35 8 0 19 9 25 20 8 15 6 24 -10 40
-22 22 -25 23 -57 10z"/>
<path d="M1774 2619 c-11 -18 20 -40 64 -46 41 -5 157 12 181 26 7 5 -9 6 -36
4 -27 -3 -75 2 -109 11 -73 19 -90 20 -100 5z"/>
<path d="M3125 2614 c-27 -8 -75 -13 -105 -11 l-55 4 35 -15 c46 -19 191 -22
213 -4 21 17 11 42 -17 41 -11 0 -43 -7 -71 -15z"/>
<path d="M2460 2538 c-22 -25 -48 -43 -70 -47 l-35 -8 28 -12 c35 -14 60 -2
81 37 14 24 15 25 16 6 0 -12 -9 -33 -21 -48 l-20 -26 20 0 c16 0 21 -6 21
-25 0 -18 5 -25 20 -25 15 0 20 7 20 25 0 19 5 25 21 25 l20 0 -20 26 c-12 15
-21 36 -21 48 1 19 2 18 16 -6 21 -39 46 -51 81 -37 l28 12 -37 9 c-23 6 -51
25 -73 49 -19 21 -36 39 -37 38 -2 -1 -19 -19 -38 -41z"/>
<path d="M2040 2392 c-39 -13 -42 -16 -22 -23 20 -8 22 -15 22 -95 l0 -87 -21
19 c-30 27 -127 27 -165 -2 -47 -35 -67 -70 -72 -127 -5 -68 10 -115 48 -152
38 -37 134 -48 176 -20 23 15 27 15 37 1 9 -12 22 -14 52 -9 30 5 35 8 20 13
-19 7 -20 20 -25 252 l-5 245 -45 -15z m-22 -208 c20 -23 22 -35 22 -134 0
-104 -1 -110 -24 -125 -90 -59 -186 7 -186 129 0 72 34 135 85 157 31 13 78 1
103 -27z"/>
<path d="M4430 2392 c-39 -13 -42 -16 -22 -23 20 -8 22 -15 22 -95 l0 -87 -21
19 c-30 27 -127 27 -165 -2 -47 -35 -67 -70 -72 -127 -5 -68 10 -115 48 -152
38 -37 134 -48 176 -20 23 15 27 15 37 1 9 -12 22 -14 52 -9 30 5 35 8 20 13
-19 7 -20 20 -25 252 l-5 245 -45 -15z m-22 -208 c20 -23 22 -35 22 -134 0
-104 -1 -110 -24 -125 -90 -59 -186 7 -186 129 0 72 34 135 85 157 31 13 78 1
103 -27z"/>
<path d="M500 2341 l25 -7 3 -207 2 -207 -22 -10 c-18 -7 -8 -9 41 -9 54 -1
62 1 48 12 -16 11 -17 33 -15 217 l3 204 25 7 c15 4 -8 7 -55 7 -47 0 -70 -3
-55 -7z"/>
<path d="M809 2339 c29 -12 23 -42 -20 -106 -38 -54 -98 -95 -152 -103 -40 -6
-41 -7 -17 -17 27 -12 65 -51 124 -128 68 -88 107 -109 161 -89 47 18 63 154
19 154 -23 0 -28 -29 -9 -50 20 -22 17 -59 -7 -73 -26 -17 -64 6 -101 60 -17
27 -51 68 -75 92 -23 24 -41 45 -40 45 2 1 14 7 28 13 58 25 107 72 139 132
18 34 43 66 54 71 15 6 -1 9 -53 9 -57 0 -69 -3 -51 -10z"/>
<path d="M3327 2344 c-11 -12 -8 -39 7 -59 12 -17 16 -17 30 -5 24 19 17 64
-9 68 -12 2 -24 0 -28 -4z"/>
<path d="M4023 2334 c-8 -20 13 -64 31 -64 16 0 26 21 26 56 0 19 -5 24 -25
24 -14 0 -28 -7 -32 -16z"/>
<path d="M3181 2265 c-11 -19 -26 -35 -33 -35 -127 -4 -138 -6 -165 -26 -61
-45 -68 -149 -13 -200 l29 -28 -22 -11 c-12 -6 -23 -18 -25 -28 -6 -33 17 -47
77 -47 116 0 164 -32 163 -109 -1 -72 -45 -111 -125 -111 -89 0 -141 65 -118
148 14 53 7 66 -20 34 -44 -56 -32 -127 30 -169 27 -18 48 -23 103 -23 105 0
168 36 182 106 18 85 -53 143 -174 144 -72 0 -96 10 -87 34 5 12 20 16 54 16
66 0 115 15 142 44 44 47 44 135 1 181 l-22 23 31 16 c38 20 55 48 39 64 -18
18 -24 15 -47 -23z m-77 -55 c59 -22 77 -143 30 -199 -35 -42 -92 -44 -123 -5
-44 55 -36 153 16 193 29 24 41 25 77 11z"/>
<path d="M1090 2219 c-64 -26 -103 -89 -102 -166 0 -63 23 -108 73 -141 29
-20 43 -23 103 -20 65 4 70 6 106 45 81 86 58 229 -44 277 -38 18 -98 20 -136
5z m105 -11 c83 -37 98 -207 25 -280 -21 -21 -38 -28 -67 -28 -73 0 -115 58
-114 160 0 117 73 186 156 148z"/>
<path d="M1395 2210 c-31 -15 -35 -19 -17 -19 22 -1 22 -3 22 -140 l0 -139
-27 -10 c-23 -9 -14 -11 52 -11 71 -1 77 1 55 12 -24 12 -25 17 -28 121 -3
123 6 148 64 172 37 16 79 10 107 -14 14 -13 17 -34 17 -143 l0 -127 -27 -10
c-23 -9 -14 -11 52 -11 71 -1 77 1 55 12 -24 12 -25 16 -30 137 -3 71 -10 134
-17 146 -14 24 -61 44 -105 44 -33 0 -87 -25 -105 -49 -11 -14 -12 -11 -13 17
0 37 -1 37 -55 12z"/>
<path d="M2253 2215 c-58 -25 -87 -110 -38 -110 17 0 20 6 17 42 -4 49 13 63
78 63 56 0 90 -34 90 -88 0 -44 -12 -51 -85 -52 -49 -1 -120 -31 -134 -58 -34
-64 7 -122 86 -122 52 0 80 12 110 48 l23 27 0 -25 c0 -33 17 -50 50 -50 19 0
22 2 10 10 -12 7 -16 39 -20 147 l-5 137 -34 23 c-39 26 -99 30 -148 8z m147
-181 c0 -37 -25 -89 -51 -108 -30 -21 -87 -21 -111 1 -42 38 -1 117 66 128 93
15 96 14 96 -21z"/>
<path d="M2575 2220 c-11 -5 -29 -11 -40 -15 -19 -7 -19 -7 3 -16 22 -8 23
-11 20 -141 -3 -130 -3 -133 -28 -145 -22 -11 -16 -13 55 -12 66 0 75 2 53 11
l-28 10 0 117 c0 113 1 119 25 143 33 33 77 42 120 24 43 -18 47 -33 43 -171
-3 -105 -4 -110 -28 -122 -22 -11 -16 -13 55 -12 64 0 75 3 53 10 l-26 10 -4
129 c-3 126 -4 130 -31 157 -24 24 -35 28 -85 28 -44 0 -65 -5 -89 -23 l-33
-23 0 25 c0 28 -4 29 -35 16z"/>
<path d="M3345 2220 c-11 -5 -29 -11 -40 -15 -19 -7 -19 -7 3 -16 21 -8 22
-13 22 -143 l0 -134 -27 -10 c-23 -9 -13 -10 52 -10 65 0 75 1 53 10 l-28 10
0 159 c0 87 -3 159 -7 158 -5 0 -17 -4 -28 -9z"/>
<path d="M3510 2211 c-33 -11 -40 -16 -25 -19 11 -2 23 -9 27 -16 4 -6 8 -63
8 -127 0 -116 -6 -140 -40 -152 -8 -3 19 -6 60 -6 67 -1 72 1 50 12 -24 12
-25 17 -28 121 -3 123 6 148 63 172 41 17 87 9 112 -18 14 -16 19 -41 21 -120
5 -117 -1 -146 -31 -158 -16 -6 -1 -9 53 -9 67 -1 72 1 50 12 -24 12 -25 16
-30 143 -6 146 -10 157 -70 175 -49 15 -102 5 -139 -27 l-30 -25 -3 29 -3 29
-45 -16z"/>
<path d="M4025 2210 c-31 -15 -35 -19 -17 -19 22 -1 22 -3 22 -140 l0 -139
-27 -10 c-23 -9 -14 -11 52 -11 71 -1 77 1 55 12 -25 13 -25 13 -28 170 -1 86
-6 157 -10 156 -4 0 -25 -9 -47 -19z"/>
<path d="M3894 1935 c-9 -23 3 -45 25 -45 23 0 35 28 20 46 -15 18 -38 18 -45
-1z"/>
<path d="M1318 1490 c11 -36 19 -47 26 -39 8 8 7 13 -1 16 -7 2 -15 20 -19 39
-3 19 -10 34 -14 34 -5 0 -1 -23 8 -50z"/>
<path d="M1367 1533 c-4 -3 -7 -11 -7 -17 0 -6 5 -5 12 2 6 6 9 14 7 17 -3 3
-9 2 -12 -2z"/>
<path d="M1420 1506 c-6 -20 -16 -34 -21 -31 -11 8 -11 -6 0 -24 6 -9 13 1 25
35 9 26 14 49 12 51 -2 3 -9 -12 -16 -31z"/>
<path d="M1510 1490 l0 -50 33 1 c30 2 30 2 5 6 -35 5 -39 40 -5 46 l22 4 -22
2 c-33 2 -29 29 5 34 25 4 25 4 -5 6 l-33 1 0 -50z"/>
<path d="M1640 1490 c0 -48 1 -50 28 -50 31 0 62 26 62 53 0 25 -29 47 -61 47
-28 0 -29 -1 -29 -50z m70 25 c20 -24 -3 -65 -35 -65 -23 0 -25 4 -25 40 0 35
3 40 24 40 13 0 29 -7 36 -15z"/>
<path d="M1800 1490 c0 -48 1 -50 28 -50 31 0 62 26 62 53 0 25 -29 47 -61 47
-28 0 -29 -1 -29 -50z m70 25 c20 -24 -3 -65 -35 -65 -23 0 -25 4 -25 40 0 35
3 40 24 40 13 0 29 -7 36 -15z"/>
<path d="M1963 1490 c0 -30 2 -43 4 -27 2 15 2 39 0 55 -2 15 -4 2 -4 -28z"/>
<path d="M2052 1490 l1 -55 7 45 c4 25 8 41 9 35 1 -5 15 -26 31 -45 l29 -35
-1 55 c-1 51 -1 52 -7 15 l-6 -39 -32 39 -32 40 1 -55z"/>
<path d="M2224 1532 c-39 -26 -13 -96 34 -90 32 4 47 49 15 47 -10 0 -13 -3
-5 -6 22 -9 13 -33 -13 -33 -55 0 -53 74 2 83 27 4 27 4 3 5 -14 1 -30 -2 -36
-6z"/>
<path d="M2453 1490 c0 -30 2 -43 4 -27 2 15 2 39 0 55 -2 15 -4 2 -4 -28z"/>
<path d="M2542 1490 l1 -55 6 44 6 45 29 -42 c16 -23 30 -42 32 -42 2 0 3 24
2 53 -1 44 -2 46 -5 14 l-4 -39 -34 39 -34 38 1 -55z"/>
<path d="M2690 1536 c0 -11 41 -98 45 -95 10 10 44 99 36 94 -5 -3 -15 -21
-21 -40 -13 -40 -26 -38 -35 5 -5 24 -25 53 -25 36z"/>
<path d="M2853 1490 c0 -30 2 -43 4 -27 2 15 2 39 0 55 -2 15 -4 2 -4 -28z"/>
<path d="M2942 1533 c12 -3 18 -18 21 -51 l3 -47 2 47 c2 35 6 48 20 51 9 3
-1 5 -23 5 -22 0 -32 -2 -23 -5z"/>
<path d="M3090 1515 c-29 -73 -31 -81 -16 -62 7 9 23 17 34 17 12 0 26 -8 31
-17 17 -29 12 -8 -9 41 -10 25 -22 46 -25 46 -3 0 -10 -11 -15 -25z m30 -21
c0 -8 -7 -14 -15 -14 -17 0 -18 2 -9 24 7 18 24 12 24 -10z"/>
<path d="M3222 1533 c12 -3 18 -18 21 -51 l3 -47 2 47 c2 35 6 48 20 51 9 3
-1 5 -23 5 -22 0 -32 -2 -23 -5z"/>
<path d="M3452 1528 c-19 -19 -15 -66 7 -78 31 -16 49 -12 67 15 15 23 15 27
0 50 -18 27 -54 33 -74 13z m66 -15 c13 -25 -3 -63 -26 -63 -28 0 -45 25 -38
55 8 30 50 35 64 8z"/>
<path d="M3612 1490 l1 -55 7 45 c4 25 8 41 9 35 1 -5 15 -26 31 -45 l29 -35
-1 55 c-1 51 -1 52 -7 15 l-6 -39 -32 39 -32 40 1 -55z"/>
<path d="M2497 1243 c-11 -10 -8 -51 3 -58 6 -4 10 8 10 29 0 37 -2 41 -13 29z"/>
<path d="M2108 1183 c6 -2 18 -2 25 0 6 3 1 5 -13 5 -14 0 -19 -2 -12 -5z"/>
<path d="M2878 1183 c7 -3 16 -2 19 1 4 3 -2 6 -13 5 -11 0 -14 -3 -6 -6z"/>
<path d="M2220 1170 c0 -5 -6 -10 -13 -10 -25 0 -46 -33 -36 -57 12 -32 17
-29 15 10 -1 28 2 32 27 35 18 2 38 -5 58 -22 17 -14 35 -26 41 -26 6 0 9 -3
5 -6 -3 -4 -23 4 -44 16 l-38 22 28 -26 29 -26 -24 -20 c-31 -26 -14 -25 22 1
18 14 38 20 53 17 23 -4 23 -3 -9 29 -19 19 -34 38 -34 44 0 6 -4 7 -10 4 -5
-3 -20 1 -32 9 -26 18 -38 20 -38 6z"/>
<path d="M2734 1158 c-15 -13 -25 -17 -20 -10 15 24 -1 11 -35 -30 l-36 -43
31 0 c21 0 41 10 61 29 l30 29 -32 -22 c-17 -11 -37 -21 -45 -21 -7 0 -4 5 7
12 11 6 30 19 41 30 14 12 33 18 50 16 25 -3 29 -7 29 -35 0 -34 9 -36 18 -3
6 22 -16 50 -39 50 -8 0 -12 5 -9 10 11 18 -22 10 -51 -12z"/>
<path d="M2380 1160 c0 -5 5 -10 10 -10 6 0 10 5 10 10 0 6 -4 10 -10 10 -5 0
-10 -4 -10 -10z"/>
<path d="M2605 1160 c3 -5 8 -10 11 -10 2 0 4 5 4 10 0 6 -5 10 -11 10 -5 0
-7 -4 -4 -10z"/>
<path d="M1820 1145 c7 -8 18 -15 25 -15 8 0 15 -5 17 -11 2 -7 16 -1 33 15
l30 26 -30 -6 c-16 -4 -32 -8 -34 -10 -1 -1 -15 2 -29 7 -22 8 -23 8 -12 -6z"/>
<path d="M1950 1145 c-6 -8 -10 -22 -8 -32 4 -20 39 -25 46 -5 2 8 -2 10 -14
5 -14 -5 -16 -2 -12 20 6 31 5 32 -12 12z"/>
<path d="M2045 1150 c-3 -6 1 -7 9 -4 18 7 21 14 7 14 -6 0 -13 -4 -16 -10z"/>
<path d="M2652 1140 c0 -14 2 -19 5 -12 2 6 2 18 0 25 -3 6 -5 1 -5 -13z"/>
<path d="M2911 1131 c18 -18 29 -40 29 -57 0 -33 12 -25 15 11 3 19 -5 32 -29
50 -44 34 -51 32 -15 -4z"/>
<path d="M2940 1150 c8 -5 20 -10 25 -10 6 0 3 5 -5 10 -8 5 -19 10 -25 10 -5
0 -3 -5 5 -10z"/>
<path d="M3105 1137 c17 -14 32 -21 33 -16 2 5 12 9 22 9 10 0 22 4 25 10 3 5
-8 9 -27 8 -18 0 -44 3 -58 7 -23 7 -23 6 5 -18z"/>
<path d="M2070 1130 c-18 -14 -24 -26 -22 -47 6 -45 22 -52 22 -8 0 22 7 46
17 57 21 23 15 23 -17 -2z"/>
<path d="M3043 1134 c1 -12 -4 -19 -15 -18 -22 2 -24 -15 -2 -23 8 -3 23 2 32
11 15 15 15 17 0 32 -15 15 -16 15 -15 -2z"/>
<path d="M2205 1130 c-3 -6 1 -7 9 -4 18 7 21 14 7 14 -6 0 -13 -4 -16 -10z"/>
<path d="M2783 1129 c12 -7 16 -18 12 -37 -5 -25 -5 -25 4 -4 13 27 4 52 -18
52 -14 -1 -14 -2 2 -11z"/>
<path d="M2200 1086 c0 -9 5 -16 10 -16 6 0 10 4 10 9 0 6 -4 13 -10 16 -5 3
-10 -1 -10 -9z"/>
<path d="M2489 1088 c-1 -7 -1 -19 0 -26 1 -8 -3 -20 -10 -28 -7 -8 -7 -14 -1
-14 5 0 13 -10 17 -22 l8 -23 4 23 c2 12 9 22 14 22 6 0 6 7 -1 19 -16 31 -12
37 10 13 23 -24 35 -27 45 -12 3 6 0 10 -8 10 -7 0 -24 11 -37 25 -26 28 -39
32 -41 13z"/>
<path d="M2445 1054 c-26 -11 -27 -13 -12 -20 12 -4 25 -1 35 9 22 22 13 27
-23 11z"/>
<path d="M2730 1055 c7 -9 15 -13 17 -11 7 7 -7 26 -19 26 -6 0 -6 -6 2 -15z"/>
<path d="M2300 1050 c-9 -6 -10 -10 -3 -10 6 0 15 5 18 10 8 12 4 12 -15 0z"/>
<path d="M2260 1010 c0 -6 7 -10 15 -10 8 0 15 2 15 4 0 2 -7 6 -15 10 -8 3
-15 1 -15 -4z"/>
<path d="M2718 1003 c7 -3 16 -2 19 1 4 3 -2 6 -13 5 -11 0 -14 -3 -6 -6z"/>
</g>
</svg>
