<?xml version="1.0" standalone="no"?>
<!DOCTYPE svg PUBLIC "-//W3C//DTD SVG 1.1//EN" "http://www.w3.org/Graphics/SVG/1.1/DTD/svg11.dtd" >
<svg xmlns="http://www.w3.org/2000/svg" xmlns:xlink="http://www.w3.org/1999/xlink" version="1.1">
<metadata>
Created by FontForge 20170731 at Wed Dec 29 07:46:29 2021
 By Aleksey,,,
(c) 2021 Handpik, All rights reserved.
</metadata>
<defs>
<font id="BrillionStage-Regular" horiz-adv-x="540" >
  <font-face 
    font-family="Brillion Stage"
    font-weight="400"
    font-stretch="normal"
    units-per-em="1000"
    panose-1="0 0 0 0 0 0 0 0 0 0"
    ascent="800"
    descent="-200"
    x-height="500"
    cap-height="700"
    bbox="-865 -535 1857 1144"
    underline-thickness="50"
    underline-position="-175"
    unicode-range="U+000D-FB02"
  />
<missing-glyph horiz-adv-x="250" 
 />
    <glyph glyph-name="fi" unicode="fi" horiz-adv-x="534" 
d="M40 0q17 5 28.5 17.5t11.5 42.5v430h-35v10h35q0 138 49 199t146 61q34 0 66 -8.5t57 -24t40.5 -38.5t15.5 -53q0 -29 -18 -47t-47 -18t-46 18t-19 47q-2 24 -4 45t-7 36t-13.5 24t-24.5 9q-26 0 -41 -23.5t-22.5 -60.5t-9.5 -81t-2 -85h74v-10h-74v-430
q0 -30 11.5 -42.5t28.5 -17.5h-200zM294 0q17 5 28.5 17.5t11.5 42.5v350q0 38 -10.5 51.5t-19.5 18.5l150 30v-450q0 -30 11.5 -42.5t28.5 -17.5h-200z" />
    <glyph glyph-name="fl" unicode="fl" horiz-adv-x="570" 
d="M40 0q17 5 28.5 17.5t11.5 42.5v430h-35v10h35q0 25 -1 54t3 58t14.5 55.5t33 47t60.5 33t95 12.5q58 0 95.5 -12.5t60 -33t33 -47t14.5 -55.5t3 -58t-1 -54v-440q0 -30 11.5 -42.5t28.5 -17.5h-200q17 5 28.5 17.5t11.5 42.5v440q0 41 1 85t-6 81t-24.5 60.5t-55.5 23.5
q-37 0 -55 -23.5t-25 -60.5t-6 -81t1 -85h74v-10h-74v-430q0 -30 11.5 -42.5t28.5 -17.5h-200z" />
    <glyph glyph-name=".notdef" horiz-adv-x="250" 
 />
    <glyph glyph-name="uni0000" horiz-adv-x="0" 
 />
    <glyph glyph-name="uni0000" horiz-adv-x="0" 
 />
    <glyph glyph-name="uni000D" unicode="&#xd;" horiz-adv-x="333" 
 />
    <glyph glyph-name="space" unicode=" " horiz-adv-x="260" 
 />
    <glyph glyph-name="exclam" unicode="!" horiz-adv-x="192" 
d="M96 710q34 0 52 -23t13 -58l-54 -418q-2 -20 -11 -20q-8 0 -11 20l-54 418q-5 35 13 58t52 23zM30 55q0 29 18 47t47 18t47 -18t18 -47t-18 -47t-47 -18t-47 18t-18 47z" />
    <glyph glyph-name="quotedbl" unicode="&#x22;" horiz-adv-x="232" 
d="M131 700h71l-19 -160h-33zM101 700l-19 -160h-33l-19 160h71z" />
    <glyph glyph-name="numbersign" unicode="#" horiz-adv-x="629" 
d="M30 215v40h130l41 205h-131v40h139l37 188h41l-37 -188h176l37 188h41l-37 -188h132v-40h-140l-41 -205h141v-40h-149l-40 -203h-41l40 203h-176l-40 -203h-41l40 203h-122zM201 255h176l41 205h-176z" />
    <glyph glyph-name="dollar" unicode="$" horiz-adv-x="522" 
d="M170 274q-19 -16 -30.5 -42t-15.5 -56t1.5 -61t20.5 -56t41.5 -41.5t64.5 -17.5v286q-35 23 -71 47t-65 52t-47 62.5t-18 79.5q0 47 17 81.5t44.5 56.5t64 33t75.5 12v60h10v-60q57 -1 98.5 -18.5t65 -43.5t30 -56t-6 -55t-45 -41.5t-84.5 -15.5q39 32 51.5 70t3 71
t-39 55.5t-73.5 23.5v-265q38 -26 78.5 -51.5t74 -56t55.5 -68.5t22 -88q0 -46 -19 -80t-51 -56.5t-73.5 -33.5t-86.5 -11v-60h-10v60q-65 1 -111.5 22.5t-73.5 53.5t-34 68.5t6 68t45.5 52t85.5 19.5zM262 0q55 2 91 31t36 78q0 29 -10.5 52.5t-27.5 44t-40 38.5t-49 35
v-279zM252 442v258q-16 -1 -34 -7t-33 -18.5t-24.5 -33t-9.5 -50.5q0 -48 29 -83t72 -66z" />
    <glyph glyph-name="percent" unicode="%" horiz-adv-x="795" 
d="M30 497q0 103 42.5 159.5t110.5 56.5q69 0 112 -56.5t43 -159.5t-43 -159.5t-112 -56.5q-68 0 -110.5 56.5t-42.5 159.5zM457 206q0 103 42.5 159.5t110.5 56.5q69 0 112 -56.5t43 -159.5t-43 -159.5t-112 -56.5q-68 0 -110.5 56.5t-42.5 159.5zM183 288q15 0 29 11.5
t24.5 37t16.5 65t6 95.5q0 111 -22.5 160.5t-53.5 49.5q-15 0 -28.5 -12t-24 -37.5t-17 -65t-6.5 -95.5t6.5 -95.5t17 -65t24 -37t28.5 -11.5zM610 -3q15 0 29 11.5t24.5 37t16.5 65t6 95.5q0 111 -22.5 160.5t-53.5 49.5q-15 0 -28.5 -12t-24 -37.5t-17 -65t-6.5 -95.5
t6.5 -95.5t17 -65t24 -37t28.5 -11.5zM242 0l258 700h43l-258 -700h-43z" />
    <glyph glyph-name="ampersand" unicode="&#x26;" horiz-adv-x="591" 
d="M30 187q0 39 12.5 70t34 55t50 41.5t59.5 28.5q-22 9 -43.5 23.5t-37.5 35t-26 46t-10 56.5q0 33 13 63t40.5 53.5t69.5 37t99 13.5q56 0 95 -17.5t60.5 -43t25.5 -56t-10.5 -56t-47.5 -42t-86 -15.5q39 32 51 70.5t4 71.5t-33 55.5t-59 22.5q-31 0 -49 -16t-27.5 -40
t-12.5 -52t-3 -52q0 -66 29.5 -107t91.5 -52q-46 -7 -76.5 -25.5t-49 -44.5t-26.5 -58.5t-8 -68.5q0 -31 5.5 -63.5t21.5 -59.5t44.5 -44t74.5 -17q47 0 77.5 15.5t48.5 39.5t25 52.5t7 55.5q0 12 -2 26.5t-6.5 29t-11 28t-16.5 23.5q-24 -31 -51 -46.5t-68 -15.5
q-19 0 -37 5q25 8 37 21t28 35q11 16 22.5 35t24 38t26 36.5t29.5 29.5q18 14 39 21t44 7q17 0 39 -5q-24 -7 -35.5 -19.5t-26.5 -33.5q-6 -8 -12 -17.5t-12 -19.5q17 -10 32 -28t26 -40t17.5 -47t6.5 -49q0 -34 -13 -68t-43 -60t-77.5 -42.5t-116.5 -16.5q-72 0 -124.5 17
t-86.5 45t-50 63t-16 72z" />
    <glyph glyph-name="quotesingle" unicode="'" horiz-adv-x="131" 
d="M82 540h-33l-19 160h71z" />
    <glyph glyph-name="parenleft" unicode="(" horiz-adv-x="176" 
d="M156 769h30q-22 -33 -42.5 -76t-37 -96t-26.5 -117t-10 -139t10 -139t26.5 -117t37 -96t42.5 -76h-30q-23 38 -45.5 81.5t-40.5 95.5t-29 114t-11 137t11 137t29 114t40.5 95.5t45.5 81.5z" />
    <glyph glyph-name="parenright" unicode=")" horiz-adv-x="176" 
d="M20 769q23 -38 45.5 -81.5t40.5 -95.5t29 -114t11 -137t-11 -137t-29 -114t-40.5 -95.5t-45.5 -81.5h-30q22 33 42.5 76t37 96t26.5 117t10 139t-10 139t-26.5 117t-37 96t-42.5 76h30z" />
    <glyph glyph-name="asterisk" unicode="*" horiz-adv-x="328" 
d="M66 686q21 0 41 -20q19 -21 25 -25q8 -7 26 -14q0 10 -1 17t-2.5 13t-4.5 13t-9 18q-11 22 -11 33q0 16 11 27.5t23 11.5q15 0 26 -10.5t11 -28.5q0 -7 -3.5 -16t-7.5 -18t-8 -17t-6 -13q-2 -8 -4 -30q9 4 15.5 7t11.5 6.5t10.5 8.5t13.5 14q23 23 41 23q15 0 24.5 -10
t9.5 -23q0 -15 -12 -26t-32 -11h-9t-15 1q-4 1 -8 1h-9q-7 0 -16.5 -0.5t-22.5 -1.5q8 -9 13.5 -14t10.5 -9t11.5 -7.5t16.5 -8.5q14 -8 24.5 -17.5t10.5 -26.5q0 -14 -10.5 -23.5t-23.5 -9.5q-14 0 -26 11.5t-16 42.5q-1 10 -2.5 16.5t-4 12.5t-5.5 12t-8 15
q-11 -19 -14.5 -28.5t-6.5 -27.5q-4 -31 -15.5 -42t-26.5 -11q-13 0 -23 9t-10 22t7.5 24t28.5 23q10 6 16.5 9.5t11.5 7t10 8.5l12 12l-36 2q-13 0 -18 -1q-10 -1 -16.5 -1h-10.5q-20 0 -32 10.5t-12 25.5q0 13 10 23.5t26 10.5z" />
    <glyph glyph-name="plus" unicode="+" horiz-adv-x="503" 
d="M30 330v40h201v202h40v-202h202v-40h-202v-201h-40v201h-201z" />
    <glyph glyph-name="comma" unicode="," horiz-adv-x="190" 
d="M30 55q0 29 18 47t47 18t47 -18t18 -47q0 -19 -6.5 -37.5t-17.5 -34.5t-26.5 -28t-33.5 -18q17 13 23 26t8 28q-4 -1 -12 -1q-29 0 -47 18t-18 47z" />
    <glyph glyph-name="hyphen" unicode="-" horiz-adv-x="295" 
d="M30 304h235v-40h-235v40z" />
    <glyph glyph-name="period" unicode="." horiz-adv-x="190" 
d="M30 55q0 29 18 47t47 18t47 -18t18 -47t-18 -47t-47 -18t-47 18t-18 47z" />
    <glyph glyph-name="slash" unicode="/" horiz-adv-x="361" 
d="M331 700l-258 -700h-43l258 700h43z" />
    <glyph glyph-name="zero" unicode="0" horiz-adv-x="574" 
d="M30 350q0 86 19 152.5t52.5 113t81 70.5t104.5 24t104.5 -24t81 -70.5t52.5 -113t19 -152.5t-19 -153t-52.5 -113.5t-81 -70.5t-104.5 -24t-104.5 24t-81 70.5t-52.5 113.5t-19 153zM287 0q25 0 48 20t40.5 62t28 108.5t10.5 159.5t-10.5 159.5t-28 108.5t-40.5 62
t-48 20t-48 -20t-40.5 -62t-28 -108.5t-10.5 -159.5t10.5 -159.5t28 -108.5t40.5 -62t48 -20z" />
    <glyph glyph-name="one" unicode="1" horiz-adv-x="290" 
d="M40 0q17 5 28.5 17.5t11.5 42.5v520q0 38 -10.5 51.5t-19.5 18.5l160 60v-650q0 -30 11.5 -42.5t28.5 -17.5h-210z" />
    <glyph glyph-name="two" unicode="2" horiz-adv-x="531" 
d="M264 710q57 0 98.5 -14t67.5 -38t38.5 -56t12.5 -69q0 -47 -23 -90.5t-64 -91.5q-42 -48 -98 -101.5t-123 -119.5h208q20 0 36.5 4t31 16t27.5 34.5t25 59.5l-40 -244h-431q107 119 182 213.5t110 182.5q14 35 21.5 70.5t7.5 73.5q0 31 -3.5 60t-14 51t-29.5 35.5
t-50 13.5q-34 0 -58 -22.5t-31.5 -55.5t5.5 -71.5t52 -70.5q-53 -1 -86 15.5t-46.5 42t-9 56t26.5 56t61.5 43t95.5 17.5z" />
    <glyph glyph-name="three" unicode="3" horiz-adv-x="507" 
d="M221 710q57 0 98.5 -13.5t67.5 -37t38.5 -53.5t12.5 -63q0 -31 -10 -56.5t-26 -46t-37 -35t-44 -23.5q32 -11 60 -28.5t49.5 -41.5t34 -55t12.5 -70q0 -37 -14 -72t-43.5 -63t-74 -45t-105.5 -17q-54 0 -93.5 13t-65.5 33.5t-38.5 47t-12.5 53.5q0 21 8 42t24 37
t39.5 24.5t54.5 5.5q-17 -20 -25 -47t-8 -56q0 -27 6.5 -52.5t20.5 -45.5t36.5 -32.5t54.5 -12.5q35 0 55.5 17t32 44t15 59.5t3.5 63.5q0 36 -8 68.5t-26.5 58.5t-49 44.5t-76.5 25.5q62 11 91.5 52t29.5 107q0 24 -2 52t-10.5 52t-26 40t-48.5 16q-34 0 -59.5 -22.5
t-35 -55.5t2 -71.5t50.5 -70.5q-53 -1 -86 15.5t-46.5 42t-9 56t26.5 56t61.5 43t95.5 17.5z" />
    <glyph glyph-name="four" unicode="4" horiz-adv-x="546" 
d="M20 149v10l411 551h10v-541h90v-20h-90v-89q0 -30 11.5 -42.5t28.5 -17.5h-210q17 5 28.5 17.5t11.5 42.5v89h-291zM311 169v363l-271 -363h271z" />
    <glyph glyph-name="five" unicode="5" horiz-adv-x="520" 
d="M31 137q0 21 8 42t23 37t37.5 24.5t52.5 5.5q-17 -20 -24 -47t-7 -56q0 -27 6 -52.5t19.5 -45.5t35 -32.5t51.5 -12.5q39 0 62 25.5t35 60.5t15 71.5t3 58.5q0 50 -8.5 90.5t-26 70t-44 45.5t-62.5 16q-22 0 -43.5 -6.5t-41 -17t-35 -24t-26.5 -28.5h-10l50 338h202
q34 0 57 3t39.5 11t28 23t21.5 40l-33 -207h-324l-28 -189q41 43 88 58t95 15q50 0 92.5 -17t73.5 -48.5t48 -75.5t17 -97q0 -37 -11.5 -77t-39 -73t-75 -54.5t-119.5 -21.5q-52 0 -90 13t-63 33.5t-37 47t-12 53.5z" />
    <glyph glyph-name="six" unicode="6" horiz-adv-x="527" 
d="M30 360q0 65 12.5 128t42.5 112.5t79 79.5t122 30q49 0 83.5 -15t55 -37.5t25 -49t-6.5 -48.5t-39 -36.5t-73 -13.5q30 32 37 66t-2 61.5t-30.5 45t-49.5 17.5q-33 0 -54 -20t-33 -55t-17 -81.5t-7 -99.5q23 21 49 29.5t52 8.5q30 0 68 -10.5t72 -37.5t57.5 -75
t23.5 -123t-23.5 -123t-59 -75t-76 -37.5t-74.5 -10.5q-57 0 -96.5 18t-65.5 48.5t-40.5 69t-21.5 80t-8.5 81.5t-1.5 73zM161 236q0 -46 6 -88.5t18.5 -75.5t32 -52.5t46.5 -19.5t46.5 19.5t32 52.5t18.5 75.5t6 88.5t-6 88.5t-18.5 75t-32 52t-46.5 19.5t-46.5 -19.5
t-32 -52t-18.5 -75t-6 -88.5z" />
    <glyph glyph-name="seven" unicode="7" horiz-adv-x="461" 
d="M55 700h391l-176 -700h-142l265 570h-258q-20 0 -36.5 -3.5t-31 -15.5t-27.5 -34.5t-25 -60.5z" />
    <glyph glyph-name="eight" unicode="8" horiz-adv-x="537" 
d="M143 362q-29 14 -48.5 33t-31.5 40t-17 43t-5 42q0 39 15.5 74t45 60.5t71.5 40.5t96 15q53 0 95.5 -15t71.5 -40.5t44.5 -60.5t15.5 -74q0 -20 -5 -42t-16.5 -43t-31 -40t-48.5 -33q32 -16 53.5 -38.5t34.5 -47t18.5 -49t5.5 -45.5q0 -30 -10 -63.5t-36 -62t-72.5 -47.5
t-119.5 -19t-120 19t-73 47.5t-36 62t-10 63.5q0 21 5.5 45.5t18.5 49t34.5 47t54.5 38.5zM269 0q50 0 79 51.5t29 136.5q0 35 -7.5 65.5t-21.5 53.5t-34 36.5t-45 13.5t-45 -13.5t-34.5 -36.5t-22 -53.5t-7.5 -65.5q0 -85 29 -136.5t80 -51.5zM171 530q0 -34 6 -64t18 -52
t30.5 -34.5t43.5 -12.5t43 12.5t30 34.5t18 52t6 64t-6 65t-18 54t-30 37t-43 14t-43.5 -14t-30.5 -37t-18 -54t-6 -65z" />
    <glyph glyph-name="nine" unicode="9" horiz-adv-x="527" 
d="M196 190q-30 -32 -37 -66t2 -61.5t30.5 -45t49.5 -17.5q33 0 54 20t33 55t17 81.5t7 99.5q-23 -21 -49 -29.5t-52 -8.5q-30 0 -68 10.5t-72 37.5t-57.5 75t-23.5 123t24 123t59 75t75.5 37.5t74.5 10.5q57 0 96.5 -18t65.5 -48.5t40.5 -69t21.5 -80t8.5 -81.5t1.5 -73
q0 -65 -12.5 -128t-42.5 -112.5t-79 -79.5t-122 -30q-49 0 -83.5 15t-55 37.5t-25 49t6.5 48.5t39 36.5t73 13.5zM160 464q0 -46 6 -88.5t18.5 -75t32 -52t46.5 -19.5t46.5 19.5t32 52t18.5 75t6 88.5t-6 88.5t-18.5 75.5t-32 52.5t-46.5 19.5t-46.5 -19.5t-32 -52.5
t-18.5 -75.5t-6 -88.5z" />
    <glyph glyph-name="colon" unicode=":" horiz-adv-x="190" 
d="M30 446q0 29 18 47t47 18t47 -18t18 -47t-18 -47t-47 -18t-47 18t-18 47zM30 55q0 29 18 47t47 18t47 -18t18 -47t-18 -47t-47 -18t-47 18t-18 47z" />
    <glyph glyph-name="semicolon" unicode=";" horiz-adv-x="190" 
d="M95 120q29 0 47 -18t18 -47q0 -19 -6.5 -37.5t-17.5 -34.5t-26.5 -28t-33.5 -18q17 13 23 26t8 28q-4 -1 -12 -1q-29 0 -47 18t-18 47t18 47t47 18zM30 446q0 29 18 47t47 18t47 -18t18 -47t-18 -47t-47 -18t-47 18t-18 47z" />
    <glyph glyph-name="less" unicode="&#x3c;" horiz-adv-x="478" 
d="M448 580v-45l-384 -187l384 -187v-45l-418 204v56z" />
    <glyph glyph-name="equal" unicode="=" horiz-adv-x="483" 
d="M30 471h423v-40h-423v40zM453 272v-40h-423v40h423z" />
    <glyph glyph-name="greater" unicode="&#x3e;" horiz-adv-x="478" 
d="M448 376v-56l-418 -204v45l384 187l-384 187v45z" />
    <glyph glyph-name="question" unicode="?" horiz-adv-x="485" 
d="M230 710q44 0 84.5 -13t71.5 -37t50 -58t19 -77q0 -44 -16.5 -74t-41 -52t-54 -40.5t-55 -40t-43 -49t-19.5 -68.5q0 -5 -3.5 -7.5t-8.5 -2.5q-13 0 -13 10q2 45 14.5 77.5t30.5 58.5t39 47.5t39 44.5t29.5 50.5t11.5 65.5q0 77 -36.5 116t-98.5 39q-45 0 -75.5 -22.5
t-40.5 -55.5t2.5 -71.5t51.5 -70.5q-53 -1 -85 15.5t-44.5 42t-6 56t31 56t66.5 43t100 17.5zM220 120q29 0 47 -18t18 -47t-18 -47t-47 -18t-47 18t-18 47t18 47t47 18z" />
    <glyph glyph-name="at" unicode="@" horiz-adv-x="856" 
d="M428 708q90 0 163 -30t125.5 -84t81 -129t28.5 -165q0 -63 -13 -107t-35.5 -71t-52.5 -39.5t-64 -12.5q-57 0 -101.5 22.5t-76.5 60.5q-20 -17 -43 -26t-44 -9q-8 0 -32 1.5t-50 12t-46 32.5t-20 63q0 35 15 59t42 41t64.5 28t82.5 20l31 6q0 37 -2.5 62t-8.5 40
t-17.5 21t-30.5 6q-25 0 -39.5 -14.5t-17 -35t7 -43.5t31.5 -40q-38 -3 -63 6t-36.5 24.5t-10 35t16.5 36t42.5 28t68.5 11.5q42 0 70 -9.5t46 -25.5t26.5 -36.5t12.5 -42.5t4 -44.5v-41.5v-50q0 -42 4 -73.5t14.5 -53t29.5 -32.5t50 -11q27 0 51.5 10.5t43 34.5t29.5 62.5
t11 94.5q0 87 -27.5 160t-78.5 126t-122.5 82.5t-159.5 29.5t-159.5 -29.5t-122.5 -82.5t-78.5 -126t-27.5 -160t27.5 -160t78.5 -126t122.5 -82.5t159.5 -29.5v-10q-90 0 -163 30t-125.5 84t-81 129t-28.5 165t28.5 165t81 129t125.5 84t163 30zM404 127q59 0 79 70v176
l-19 -4q-33 -7 -55 -23t-35.5 -36.5t-19 -44.5t-5.5 -47q0 -13 2 -28.5t8 -29.5t17 -23.5t28 -9.5z" />
    <glyph glyph-name="A" unicode="A" horiz-adv-x="780" 
d="M10 0q12 3 24 5t24 9t24.5 22.5t25.5 45.5l274 628h10l282 -628q12 -25 24 -40t24 -23.5t24 -12t24 -6.5h-250q10 3 17 6.5t9.5 12t-1 23.5t-14.5 40l-61 137h-291l-60 -137q-13 -30 -13.5 -45.5t6.5 -22.5t18 -9t21 -5h-141zM465 229l-143 319l-139 -319h282z" />
    <glyph glyph-name="B" unicode="B" horiz-adv-x="684" 
d="M40 0q32 8 41 25t9 45v560q0 28 -9 45t-41 25h180q75 0 141.5 -10t116 -33t78 -59.5t28.5 -89.5q0 -95 -105 -149q39 -8 71.5 -24.5t55.5 -39t35.5 -49t12.5 -54.5q0 -60 -35.5 -97.5t-95 -58.5t-138 -28.5t-165.5 -7.5h-180zM220 290v-280q63 0 118.5 3.5t97 21t65 54
t23.5 103.5q0 27 -5.5 52.5t-16 45.5t-26 34.5t-34.5 18.5q-48 -19 -104 -32t-118 -21zM220 300q50 6 92.5 19.5t74 38t49.5 61.5t18 89q0 61 -19.5 97t-52 55t-74.5 24.5t-88 5.5v-390z" />
    <glyph glyph-name="C" unicode="C" horiz-adv-x="568" 
d="M30 350q0 86 23.5 153t63.5 113t93 70t112 24q58 0 100 -17.5t66.5 -43t31 -56t-6 -56t-44.5 -42t-85 -15.5q32 32 40.5 70.5t-1.5 71.5t-36.5 55.5t-64.5 22.5q-34 0 -64 -22.5t-51.5 -67t-34 -109.5t-12.5 -151q0 -82 15.5 -143.5t42.5 -103t62.5 -62.5t75.5 -21
q66 0 111 35t71 94q-1 -7 -12 -33t-34 -54t-59.5 -50t-90.5 -22q-61 0 -117 24t-99.5 70t-69.5 113t-26 153z" />
    <glyph glyph-name="D" unicode="D" horiz-adv-x="654" 
d="M40 700h180q87 0 161 -18.5t128 -60t84.5 -108t30.5 -163.5t-30.5 -163.5t-84.5 -108t-128 -60t-161 -18.5h-180q32 8 41 25t9 45v560q0 28 -9 45t-41 25zM220 690v-680q38 0 73 3t65.5 14.5t55.5 34t43 60t27.5 93.5t9.5 135q0 119 -21.5 186.5t-58.5 102t-87 43
t-107 8.5z" />
    <glyph glyph-name="E" unicode="E" horiz-adv-x="520" 
d="M457 700l20 -94q-20 17 -45 32.5t-50.5 27t-49 18t-40.5 6.5h-72v-305h85q25 0 40.5 1.5t26 7t18 16t15.5 29.5v-118q-8 19 -15.5 29.5t-18 16t-26 7t-40.5 1.5h-85v-365h100q17 0 40.5 6.5t49 18t50.5 27t45 32.5l-20 -94h-445q32 8 41 25t9 45v560q0 28 -9 45t-41 25
h417z" />
    <glyph glyph-name="F" unicode="F" horiz-adv-x="492" 
d="M90 70v560q0 28 -9 45t-41 25h417l20 -94q-20 17 -45 32.5t-50.5 27t-49 18t-40.5 6.5h-72v-305h85q25 0 40.5 1.5t26 7t18 16t15.5 29.5v-118q-8 19 -15.5 29.5t-18 16t-26 7t-40.5 1.5h-85v-305q0 -28 9 -45t41 -25h-230q32 8 41 25t9 45z" />
    <glyph glyph-name="G" unicode="G" horiz-adv-x="618" 
d="M30 350q0 86 23.5 153t63.5 113t93 70t112 24q58 0 100 -17.5t66.5 -43t31 -56t-6 -56t-44.5 -42t-85 -15.5q32 32 40.5 70.5t-1.5 71.5t-36.5 55.5t-64.5 22.5q-34 0 -64 -22.5t-51.5 -67t-34 -109.5t-12.5 -151q0 -82 15.5 -143.5t42.5 -103t62.5 -62.5t75.5 -21
q17 0 32.5 2.5t29.5 7.5v213q0 28 -9 45t-41 25h220q-32 -8 -41 -25t-9 -45v-253q-9 17 -23 23t-31 6q-15 0 -30 -3t-29 -8q-17 -8 -38 -13t-45 -5q-61 0 -117 24t-99.5 70t-69.5 113t-26 153z" />
    <glyph glyph-name="H" unicode="H" horiz-adv-x="725" 
d="M90 70v560q0 28 -9 45t-41 25h230q-32 -8 -41 -25t-9 -45v-245h285v245q0 28 -9 45t-41 25h230q-32 -8 -41 -25t-9 -45v-560q0 -28 9 -45t41 -25h-230q32 8 41 25t9 45v305h-285v-305q0 -28 9 -45t41 -25h-230q32 8 41 25t9 45z" />
    <glyph glyph-name="I" unicode="I" horiz-adv-x="290" 
d="M30 0q32 8 41 25t9 45v560q0 28 -9 45t-41 25h230q-32 -8 -41 -25t-9 -45v-560q0 -28 9 -45t41 -25h-230z" />
    <glyph glyph-name="J" unicode="J" horiz-adv-x="525" 
d="M166 250q-32 -32 -45 -75t-7.5 -82t29 -66t65.5 -27q39 0 59.5 22.5t28.5 66.5t8.5 109.5t0.5 151.5v280q0 28 -9 45t-41 25h230q-32 -8 -41 -25t-9 -45v-294q0 -73 -7 -136.5t-30.5 -110t-68.5 -73t-121 -26.5q-58 0 -99 19.5t-64.5 48t-28 62.5t10.5 62.5t49.5 48
t89.5 19.5z" />
    <glyph glyph-name="K" unicode="K" horiz-adv-x="654" 
d="M90 70v560q0 28 -9 45t-41 25h230q-32 -8 -41 -25t-9 -45v-309l228 309q22 30 28.5 46t-17.5 24h113q-39 -8 -64 -24t-47 -46l-128 -174l219 -386q16 -28 33.5 -45t53.5 -25h-238q27 8 28 25.5t-15 44.5l-160 280l-34 -47v-233q0 -28 9 -45t41 -25h-230q32 8 41 25t9 45z
" />
    <glyph glyph-name="L" unicode="L" horiz-adv-x="510" 
d="M40 0q32 8 41 25t9 45v560q0 28 -9 45t-41 25h230q-32 -8 -41 -25t-9 -45v-620h100q17 0 40.5 6.5t49 18t50.5 27t45 32.5l-20 -94h-445z" />
    <glyph glyph-name="M" unicode="M" horiz-adv-x="826" 
d="M90 70v560q0 28 -9 45t-41 25h183l200 -516l193 516h170q-32 -8 -41 -25t-9 -45v-560q0 -28 9 -45t41 -25h-230q32 8 41 25t9 45v574l-241 -644h-10l-255 657v-587q0 -28 9 -45t41 -25h-110q32 8 41 25t9 45z" />
    <glyph glyph-name="N" unicode="N" horiz-adv-x="625" 
d="M40 0q32 8 41 25t9 45v560q0 28 -8 43l-3 5q-10 14 -39 22h180l305 -463v393q0 28 -9 45t-41 25h110q-32 -8 -41 -25t-9 -45v-630h-10l-425 645v-575q0 -28 9 -45t41 -25h-110z" />
    <glyph glyph-name="O" unicode="O" horiz-adv-x="674" 
d="M30 350q0 78 22.5 144t63 114t97 75t124.5 27t124.5 -27t97 -75t63 -114t22.5 -144t-22.5 -144.5t-63 -114.5t-97 -75t-124.5 -27t-124.5 27t-97 75t-63 114.5t-22.5 144.5zM337 0q36 0 68.5 22.5t56.5 67t38 110t14 150.5q0 86 -14 151t-38 109.5t-56.5 67t-68.5 22.5
t-68.5 -22.5t-56.5 -67t-38 -109.5t-14 -151q0 -85 14 -150.5t38 -110t56.5 -67t68.5 -22.5z" />
    <glyph glyph-name="P" unicode="P" horiz-adv-x="634" 
d="M40 0q32 8 41 25t9 45v560q0 28 -9 45t-41 25h180q87 0 157.5 -12.5t121 -40.5t78 -72.5t27.5 -109.5q0 -57 -27.5 -101.5t-78 -77t-121 -54t-157.5 -32.5v-130q0 -28 9 -45t41 -25h-230zM220 210q129 15 191.5 74.5t62.5 180.5q0 72 -18.5 116.5t-51.5 68.5t-80 32
t-104 8v-480z" />
    <glyph glyph-name="Q" unicode="Q" horiz-adv-x="674" 
d="M337 710q68 0 124.5 -27t97 -75t63 -114t22.5 -144q0 -61 -13.5 -114.5t-38.5 -97.5t-61 -76.5t-80 -50.5q12 -16 22.5 -31.5t21.5 -28.5t23.5 -22.5t28.5 -13.5q13 -3 27.5 -2t29.5 13q-8 -41 -36 -64.5t-70 -14.5q-22 5 -38 19.5t-28.5 34.5t-23 44t-22.5 48
q-12 -2 -24 -3t-25 -1q-68 0 -124.5 27t-97 75t-63 114.5t-22.5 144.5t22.5 144t63 114t97 75t124.5 27zM160 350q0 -85 14 -150.5t38 -110t56.5 -67t68.5 -22.5q21 0 42 8q-18 35 -44.5 64t-70.5 39q62 -4 99.5 -24.5t62.5 -46.5q39 40 63.5 117.5t24.5 192.5q0 86 -14 151
t-38 109.5t-56.5 67t-68.5 22.5t-68.5 -22.5t-56.5 -67t-38 -109.5t-14 -151z" />
    <glyph glyph-name="R" unicode="R" horiz-adv-x="694" 
d="M40 700h180q87 0 157.5 -11t121 -36.5t78 -65.5t27.5 -99q0 -65 -36.5 -110.5t-115.5 -76.5l123 -231q15 -28 34 -45t55 -25h-236q27 8 26.5 25t-15.5 45l-105 197q-27 -6 -55.5 -10.5t-58.5 -8.5v-178q0 -28 9 -45t41 -25h-230q32 8 41 25t9 45v560q0 28 -9 45t-41 25z
M220 258q129 14 191.5 67.5t62.5 162.5q0 65 -18.5 104.5t-51.5 61t-80 29t-104 7.5v-432z" />
    <glyph glyph-name="S" unicode="S" horiz-adv-x="522" 
d="M146 268q-22 -38 -29.5 -84.5t4 -87.5t44.5 -68.5t93 -27.5q57 0 94 29.5t37 79.5q0 46 -25 80.5t-62.5 64t-81.5 57.5t-81.5 60.5t-62.5 72.5t-25 93q0 44 17.5 76.5t46.5 54t66 32t77 10.5q58 0 100 -17.5t66.5 -43t31 -56t-6 -56t-44.5 -42t-85 -15.5q39 32 51.5 70.5
t2.5 71.5t-40.5 55.5t-75.5 22.5q-16 0 -35 -5t-35 -17t-26.5 -31t-10.5 -46q0 -45 25.5 -79t63 -63.5t82 -58t82 -61t63 -73.5t25.5 -95q0 -47 -19.5 -81t-52 -56.5t-74.5 -33t-88 -10.5q-64 0 -110.5 17t-74.5 43.5t-37.5 59t-0.5 63.5t37 56.5t74 38.5z" />
    <glyph glyph-name="T" unicode="T" horiz-adv-x="606" 
d="M30 700h546l20 -114q-20 21 -43.5 40t-48 33t-48.5 22.5t-45 8.5h-43v-620q0 -28 9 -45t41 -25h-230q32 8 41 25t9 45v620h-43q-21 0 -45 -8.5t-48.5 -22.5t-48 -33t-43.5 -40z" />
    <glyph glyph-name="U" unicode="U" horiz-adv-x="664" 
d="M270 700q-32 -8 -41 -25t-9 -45v-320q0 -67 4 -119t20 -88t47.5 -54.5t85.5 -18.5q62 0 99 16t56.5 49.5t25.5 86.5t6 128v320q0 28 -9 45t-41 25h110q-32 -8 -41 -25t-9 -45v-320v-71.5t-4.5 -73t-16 -67.5t-34.5 -56.5t-60 -38.5t-92 -14q-76 0 -128.5 13.5t-85.5 49.5
t-48 98.5t-15 159.5v320q0 28 -9 45t-41 25h230z" />
    <glyph glyph-name="V" unicode="V" horiz-adv-x="740" 
d="M10 700h248q-10 -3 -17 -6.5t-9.5 -12t1 -23t14.5 -40.5l190 -455l184 455q12 30 12.5 45.5t-6.5 22.5t-17.5 9t-20.5 5h141q-12 -3 -24 -5t-24.5 -9t-25 -22.5t-24.5 -45.5l-254 -628h-10l-262 628q-11 26 -23 41t-24.5 23t-24.5 11.5t-24 6.5z" />
    <glyph glyph-name="W" unicode="W" horiz-adv-x="988" 
d="M247 700q-9 -3 -15.5 -6.5t-8.5 -12t1 -23t13 -40.5l175 -447l77 203l-95 244q-10 26 -21 41t-22 23t-22.5 11.5t-22.5 6.5h238q-9 -3 -15 -6.5t-8.5 -12t0.5 -23t13 -40.5l174 -447l171 447q12 30 12 45.5t-6 22.5t-16 9t-19 5h128q-11 -3 -21.5 -5t-21.5 -9t-22 -22.5
t-23 -45.5l-240 -628h-10l-145 371l-142 -371h-9l-247 628q-10 26 -21 41t-22 23t-22 11.5t-22 6.5h237z" />
    <glyph glyph-name="X" unicode="X" horiz-adv-x="731" 
d="M144 84l166 239l-173 293q-15 26 -30 41t-29.5 23.5t-28.5 12.5t-27 7h277q-10 -3 -19 -7t-12 -12.5t1 -23.5t19 -41l112 -191l133 191q21 30 25.5 46t-0.5 23.5t-16 9.5t-21 5h153q-13 -3 -27 -5t-30 -9.5t-33.5 -23.5t-38.5 -46l-139 -200l195 -332q15 -26 30 -41
t29.5 -23.5t28.5 -12.5t27 -7h-277q10 3 18.5 7t12 12.5t-0.5 23.5t-19 41l-135 229l-159 -229q-21 -30 -25.5 -45.5t0.5 -23t16 -10t21 -5.5h-153q14 3 27.5 5.5t29.5 10t33.5 23t38.5 45.5z" />
    <glyph glyph-name="Y" unicode="Y" horiz-adv-x="747" 
d="M10 700h252q-9 -3 -14.5 -6.5t-5.5 -11.5t7 -23t24 -41l174 -266l169 266q20 30 24 45.5t-0.5 22.5t-14 9t-17.5 5h129q-12 -3 -23 -5t-23.5 -9t-27.5 -22.5t-35 -45.5l-177 -278v-270q0 -28 9 -45t41 -25h-230q32 8 41 25t9 45v237l-204 311q-18 26 -32 41t-26.5 23
t-24.5 11.5t-24 6.5z" />
    <glyph glyph-name="Z" unicode="Z" 
d="M15 0l330 690h-115q-21 0 -45 -8.5t-48.5 -22.5t-48 -33t-43.5 -40l20 114h429l-330 -690h176q21 0 45 8.5t48.5 22.5t48 33t43.5 40l-20 -114h-490z" />
    <glyph glyph-name="bracketleft" unicode="[" horiz-adv-x="151" 
d="M30 -66v823q0 12 12 12h119v-30h-91v-787h91v-30h-119q-12 0 -12 12z" />
    <glyph glyph-name="backslash" unicode="\" horiz-adv-x="361" 
d="M331 0h-43l-258 700h43z" />
    <glyph glyph-name="bracketright" unicode="]" horiz-adv-x="151" 
d="M-10 739v30h119q12 0 12 -12v-823q0 -12 -12 -12h-119v30h91v787h-91z" />
    <glyph glyph-name="asciicircum" unicode="^" horiz-adv-x="486" 
d="M216 700h54l186 -410h-44l-169 373l-169 -373h-44z" />
    <glyph glyph-name="underscore" unicode="_" horiz-adv-x="444" 
 />
    <glyph glyph-name="grave" unicode="`" horiz-adv-x="190" 
d="M103 750l57 -130h-42l-88 130h73z" />
    <glyph glyph-name="a" unicode="a" horiz-adv-x="510" 
d="M30 131q0 46 18 77.5t50.5 53.5t77 36.5t97.5 25.5l37 8q0 48 -3 80.5t-10.5 52t-21 27.5t-35.5 8q-30 0 -47 -19t-20 -46t8.5 -56.5t37.5 -51.5q-45 -4 -75 8t-43.5 32t-12 45t19 47t51 36.5t81.5 14.5q75 0 114 -26.5t56 -66t18.5 -84.5t1.5 -83v-190q0 -30 11.5 -42.5
t28.5 -17.5h-160v35q-23 -23 -50.5 -34t-53.5 -11q-6 0 -21.5 0.5t-35 4.5t-40.5 12.5t-38.5 24t-29 40t-11.5 59.5zM216 2q72 0 94 90v230l-23 -6q-39 -10 -65.5 -31t-42 -47.5t-22.5 -57t-7 -60.5q0 -17 2.5 -37.5t10 -38.5t20.5 -30t33 -12z" />
    <glyph glyph-name="b" unicode="b" horiz-adv-x="541" 
d="M40 0q17 5 28.5 17.5t11.5 42.5v600q0 38 -10.5 51.5t-19.5 18.5l150 30v-294q24 24 50.5 34t49.5 10q41 0 79.5 -10.5t67.5 -36t46.5 -68t17.5 -105.5t-18.5 -118t-53 -95.5t-82 -63.5t-106.5 -23q-34 0 -61 10h-150zM200 409v-349q0 -26 12 -43t39 -17q29 0 51 16.5
t37.5 42.5t25.5 57.5t16 63t8 58.5t2 43q0 31 -3 69t-13 71.5t-28 56t-47 22.5q-32 0 -58 -20.5t-42 -70.5z" />
    <glyph glyph-name="c" unicode="c" horiz-adv-x="452" 
d="M30 250q0 56 16.5 104t47.5 82.5t75.5 54t100.5 19.5q49 0 82 -15.5t50.5 -38.5t19 -49t-12 -47.5t-43 -34t-75.5 -8.5q26 22 37.5 53t8.5 60t-20 49.5t-47 20.5q-53 0 -86.5 -63t-33.5 -187q0 -116 35 -178t95 -62q50 0 85.5 30.5t53.5 88.5q0 -14 -7 -37.5t-24.5 -46
t-46 -39t-71.5 -16.5q-56 0 -100.5 19.5t-75.5 54t-47.5 82.5t-16.5 104z" />
    <glyph glyph-name="d" unicode="d" horiz-adv-x="541" 
d="M290 510q13 0 26 -1.5t25 -5.5v157q0 38 -10.5 51.5t-19.5 18.5l150 30v-700q0 -30 11.5 -42.5t28.5 -17.5h-160v34q-24 -24 -50.5 -34t-49.5 -10q-41 0 -79 10.5t-67.5 36t-47 68t-17.5 105.5t18.5 118t53 95.5t82.5 63.5t106 23zM241 0q32 0 58 20.5t42 70.5v386
q-20 23 -51 23q-29 0 -51 -16.5t-37.5 -42.5t-25.5 -57.5t-16 -63t-8 -58.5t-2 -43q0 -31 3.5 -69t13 -71.5t27.5 -56t47 -22.5z" />
    <glyph glyph-name="e" unicode="e" horiz-adv-x="450" 
d="M260 510q35 0 64 -12t50.5 -32.5t33.5 -47.5t12 -58q0 -38 -15.5 -65.5t-40.5 -46.5t-55 -30.5t-60 -18t-55.5 -8.5t-40.5 -2q9 -88 42 -133.5t85 -45.5q50 0 85.5 30.5t53.5 88.5q0 -14 -7 -37.5t-24.5 -46t-46 -39t-71.5 -16.5q-56 0 -100.5 19.5t-75.5 54t-47.5 82.5
t-16.5 104t16.5 104t46.5 82.5t72.5 54t94.5 19.5zM150 250q0 -14 0.5 -26.5t1.5 -24.5q29 0 61 8.5t60 27.5t46 50.5t18 79.5q0 62 -21 98.5t-56 36.5q-45 0 -77.5 -63t-32.5 -187z" />
    <glyph glyph-name="f" unicode="f" horiz-adv-x="426" 
d="M41 0q17 5 28.5 17.5t11.5 42.5v430h-35v10h35q0 38 1 83t16.5 84.5t54 66t113.5 26.5q33 0 58.5 -8t44 -21.5t29 -31t12.5 -35.5t-4.5 -35.5t-22.5 -30t-41 -18.5t-60 -3q23 19 33.5 43.5t10.5 48.5q0 32 -15 56.5t-45 24.5q-26 0 -39.5 -23.5t-19 -60.5t-6 -81
t-0.5 -85h74v-10h-74v-430q0 -30 11.5 -42.5t28.5 -17.5h-200z" />
    <glyph glyph-name="g" unicode="g" horiz-adv-x="513" 
d="M99 107l21 25q-45 26 -67.5 72t-22.5 104q0 45 13.5 82.5t40.5 65t68 43t95 15.5q10 0 19 -0.5t18 -1.5q35 45 71 65t71 20q26 0 39.5 -12t16 -30t-7.5 -40t-32 -42q5 42 -9.5 65t-46.5 23q-18 0 -32 -5.5t-25.5 -13t-19.5 -16.5t-14 -16q85 -13 127 -68t42 -134
q0 -45 -13.5 -83t-40.5 -65.5t-68 -43t-95 -15.5q-35 0 -64.5 7t-53.5 19q-14 -20 -4.5 -34t32 -24t53 -17t57.5 -13q30 -7 66 -17t67.5 -28t53 -46.5t21.5 -70.5q0 -41 -18.5 -72t-48.5 -52t-68 -31.5t-78 -10.5q-38 0 -77.5 7.5t-71 24t-51.5 42.5t-20 62q0 15 6.5 33
t22 32t40.5 21.5t62 2.5q-23 -11 -34.5 -37.5t-11.5 -52.5q0 -63 36 -94t99 -31q29 0 53.5 7.5t42.5 21t28 32t10 41.5q0 30 -15.5 50t-38.5 33t-50 20.5t-50 12.5q-40 9 -81 20t-67 29.5t-28.5 47t33.5 71.5zM247 109q42 0 69.5 50t27.5 149q0 98 -27.5 147.5t-69.5 49.5
t-69.5 -49.5t-27.5 -147.5q0 -99 27.5 -149t69.5 -50z" />
    <glyph glyph-name="h" unicode="h" horiz-adv-x="590" 
d="M80 60v600q0 38 -10.5 51.5t-19.5 18.5l150 30v-317q26 35 60 51t70 16q91 0 135.5 -48.5t44.5 -131.5v-270q0 -30 11.5 -42.5t28.5 -17.5h-200q17 5 28.5 17.5t11.5 42.5v240q0 43 -1 79.5t-7.5 63t-21 41.5t-40.5 15q-60 0 -90 -59t-30 -190v-190q0 -30 11.5 -42.5
t28.5 -17.5h-200q17 5 28.5 17.5t11.5 42.5z" />
    <glyph glyph-name="i" unicode="i" horiz-adv-x="280" 
d="M40 0q17 5 28.5 17.5t11.5 42.5v350q0 38 -10.5 51.5t-19.5 18.5l150 30v-450q0 -30 11.5 -42.5t28.5 -17.5h-200zM70 636q0 29 18 47t47 18t47 -18t18 -47t-18 -47t-47 -18t-47 18t-18 47z" />
    <glyph glyph-name="j" unicode="j" horiz-adv-x="386" 
d="M144 -67q-23 -19 -33.5 -48.5t-10.5 -53.5q0 -32 15 -56.5t45 -24.5q26 0 39.5 23.5t19 60.5t6 81t0.5 85v410q0 38 -10.5 51.5t-19.5 18.5l150 30v-369q0 -87 -2 -160.5t-19 -127t-55 -83.5t-109 -30q-33 0 -58.5 8t-44 21.5t-29 31t-12.5 35.5t4.5 37t22.5 33.5t41 22
t60 4.5zM280 701q29 0 47 -18t18 -47t-18 -47t-47 -18t-47 18t-18 47t18 47t47 18z" />
    <glyph glyph-name="k" unicode="k" horiz-adv-x="567" 
d="M40 0q17 5 28.5 17.5t11.5 42.5v600q0 38 -10.5 51.5t-19.5 18.5l150 30v-499l161 159q22 22 30.5 36.5t8.5 23.5t-5.5 13.5t-11.5 6.5h113q-21 -5 -49.5 -21.5t-72.5 -60.5l-61 -61l170 -295q31 -54 69 -62h-207q14 4 19.5 20.5t-8.5 41.5l-123 215l-33 -32v-185
q0 -30 11.5 -42.5t28.5 -17.5h-200z" />
    <glyph glyph-name="l" unicode="l" horiz-adv-x="280" 
d="M40 0q17 5 28.5 17.5t11.5 42.5v600q0 38 -10.5 51.5t-19.5 18.5l150 30v-700q0 -30 11.5 -42.5t28.5 -17.5h-200z" />
    <glyph glyph-name="m" unicode="m" horiz-adv-x="856" 
d="M40 0q15 5 25.5 17.5t10.5 42.5v350q0 38 -9 51.5t-17 18.5l146 30v-67q23 35 54 51t64 16q64 0 103.5 -24.5t56.5 -69.5q23 51 58.5 72.5t73.5 21.5q90 0 132 -48.5t42 -131.5v-270q0 -30 10.5 -42.5t25.5 -17.5h-192q15 5 25.5 17.5t10.5 42.5v240q0 43 -1 79.5t-7 63
t-18.5 41.5t-36.5 15q-55 0 -82 -59t-27 -190v-190q0 -30 10.5 -42.5t25.5 -17.5h-192q15 5 25.5 17.5t10.5 42.5v240q0 43 -1 79.5t-7 63t-19 41.5t-37 15q-54 0 -81 -59t-27 -190v-190q0 -30 10.5 -42.5t25.5 -17.5h-192z" />
    <glyph glyph-name="n" unicode="n" horiz-adv-x="590" 
d="M80 60v350q0 38 -10.5 51.5t-19.5 18.5l150 30v-67q26 35 60 51t70 16q91 0 135.5 -48.5t44.5 -131.5v-270q0 -30 11.5 -42.5t28.5 -17.5h-200q17 5 28.5 17.5t11.5 42.5v240q0 43 -1 79.5t-7.5 63t-21 41.5t-40.5 15q-60 0 -90 -59t-30 -190v-190q0 -30 11.5 -42.5
t28.5 -17.5h-200q17 5 28.5 17.5t11.5 42.5z" />
    <glyph glyph-name="o" unicode="o" 
d="M270 510q57 0 101.5 -19.5t75 -54.5t47 -82.5t16.5 -103.5t-16.5 -104t-47.5 -82.5t-75.5 -54t-100.5 -19.5t-100.5 19.5t-75.5 54t-47.5 82.5t-16.5 104t16.5 104t47.5 82.5t75.5 54t100.5 19.5zM150 250q0 -124 33.5 -187t86.5 -63t86.5 63t33.5 187q0 18 -1.5 43.5
t-6 53.5t-12.5 55.5t-21.5 49t-32.5 35t-46 13.5q-53 0 -86.5 -63t-33.5 -187z" />
    <glyph glyph-name="p" unicode="p" horiz-adv-x="531" 
d="M70 -180v590q0 38 -10.5 51.5t-19.5 18.5l150 30v-44q24 24 50.5 34t49.5 10q41 0 79.5 -10.5t67.5 -36t46.5 -68t17.5 -105.5t-18.5 -118t-53 -95.5t-82 -63.5t-106.5 -23q-13 0 -26 1.5t-25 5.5v-177q0 -38 10.5 -51.5t19.5 -18.5h-180q9 5 19.5 18.5t10.5 51.5z
M190 409v-386q20 -23 51 -23q29 0 51 16.5t37.5 42.5t25.5 57.5t16 63t8 58.5t2 43q0 31 -3 69t-13 71.5t-28 56t-47 22.5q-32 0 -58 -20.5t-42 -70.5z" />
    <glyph glyph-name="q" unicode="q" horiz-adv-x="551" 
d="M300 510q34 0 61 -10h150q-17 -5 -28.5 -17.5t-11.5 -42.5v-620q0 -38 10.5 -51.5t19.5 -18.5h-180q9 5 19.5 18.5t10.5 51.5v214q-24 -24 -50.5 -34t-49.5 -10q-41 0 -79 10.5t-67.5 36t-47 68t-17.5 105.5t18.5 118t53 95.5t82.5 63.5t106 23zM251 0q32 0 58 20.5
t42 70.5v349q0 26 -12 43t-39 17q-29 0 -51 -16.5t-37.5 -42.5t-25.5 -57.5t-16 -63t-8 -58.5t-2 -43q0 -31 3.5 -69t13 -71.5t27.5 -56t47 -22.5z" />
    <glyph glyph-name="r" unicode="r" horiz-adv-x="452" 
d="M40 0q17 5 28.5 17.5t11.5 42.5v350q0 38 -10.5 51.5t-19.5 18.5l150 30v-55q23 29 53 42t67 13q42 0 70.5 -15t44 -37t17 -47t-12 -45.5t-43 -32t-75.5 -7.5q26 22 39 51.5t12 56.5t-16.5 46t-45.5 19q-60 0 -85 -59t-25 -190v-190q0 -30 11.5 -42.5t28.5 -17.5h-200z
" />
    <glyph glyph-name="s" unicode="s" horiz-adv-x="446" 
d="M108 189q-18 -17 -22 -48.5t8.5 -63t42 -54.5t79.5 -23q29 0 56 11.5t39 42.5q10 27 -1.5 52t-35.5 43q-19 15 -44 28.5t-51 28t-51 30.5t-44 36t-31 44t-12 55q0 35 14 61t38 43t55.5 26t67.5 9q46 0 79.5 -13.5t53.5 -33t25 -41.5t-6 -40t-38.5 -28.5t-72.5 -6.5
q26 22 34.5 48.5t1.5 50t-27 39t-50 15.5q-27 0 -48 -19t-21 -57q0 -28 12.5 -48.5t33 -36.5t46 -29.5t52 -27.5t51.5 -31t43 -40q27 -34 30 -75.5t-25 -76.5q-27 -32 -74 -50.5t-100 -18.5t-90.5 12.5t-60 32.5t-30.5 43.5t-2.5 45.5t24.5 40t51 25z" />
    <glyph glyph-name="t" unicode="t" horiz-adv-x="324" 
d="M20 490v10q31 5 56.5 21.5t44 39t31 48.5t18.5 51h5v-160h84v-10h-84v-240q0 -56 1.5 -95.5t8.5 -65t20 -37.5t35 -12q27 0 43.5 19.5t25.5 49.5q0 -14 -4 -34.5t-16.5 -39t-36 -32t-62.5 -13.5q-56 0 -84 28t-39.5 75t-11.5 108.5v129.5v159h-35z" />
    <glyph glyph-name="u" unicode="u" horiz-adv-x="580" 
d="M50 480l150 30v-310q0 -43 2.5 -79.5t11 -63t24.5 -41.5t42 -15q35 0 60.5 20t39.5 64v325q0 38 -10.5 51.5t-19.5 18.5l150 30v-440q0 -38 10.5 -51.5t19.5 -18.5h-150v34q-24 -23 -52.5 -33.5t-57.5 -10.5q-91 0 -140.5 48.5t-49.5 131.5v240q0 38 -10.5 51.5
t-19.5 18.5z" />
    <glyph glyph-name="v" unicode="v" horiz-adv-x="555" 
d="M10 500h223q-7 -2 -14 -5t-10.5 -9.5t-2.5 -17t9 -28.5l135 -286l112 286q8 21 7.5 32.5t-6 16.5t-13.5 7l-16 4h111q-9 -2 -18.5 -4t-18.5 -7t-18 -16.5t-17 -32.5l-173 -440h-10l-208 440q-16 35 -35 45.5t-37 14.5z" />
    <glyph glyph-name="w" unicode="w" horiz-adv-x="778" 
d="M231 500q-7 -2 -14 -5t-10.5 -9.5t-2.5 -17t9 -28.5l137 -295l45 114l-83 181q-8 18 -17 29t-18 17t-18 9t-18 5h221q-7 -2 -13.5 -5t-10.5 -9.5t-3 -17t9 -28.5l133 -291l109 291q8 21 7.5 32.5t-5.5 16.5t-13 7l-16 4h109q-9 -2 -18.5 -4t-18.5 -7t-17.5 -16.5
t-16.5 -32.5l-169 -450h-10l-117 256l-101 -256h-10l-209 450q-16 35 -34.5 45.5t-36.5 14.5h221z" />
    <glyph glyph-name="x" unicode="x" horiz-adv-x="568" 
d="M15 0l20 4t21 7t23.5 16.5t27.5 32.5l122 175l-121 205q-11 18 -21.5 29t-21 17t-20.5 9t-19 5h229q-7 -2 -13.5 -5t-8.5 -9t0.5 -17t13.5 -29l79 -134l93 134q15 21 18.5 32.5t-0.5 16.5t-11.5 7t-14.5 4h112l-20 -4t-21 -7t-23.5 -16.5t-27.5 -32.5l-100 -143l140 -237
q11 -18 21.5 -29t21 -17t20.5 -9t19 -5h-229q7 2 13.5 5t8.5 9t-0.5 17t-13.5 29l-98 166l-115 -166q-15 -21 -18.5 -32.5t0.5 -16.5t11.5 -7t14.5 -4h-112z" />
    <glyph glyph-name="y" unicode="y" horiz-adv-x="565" 
d="M128 -63q-23 -11 -34.5 -38t-10 -54.5t16.5 -49t44 -21.5q17 0 32 7.5t31 28t34 56.5t41 93l17 41h-41l-186 440q-13 30 -28.5 42.5t-33.5 17.5h210q-15 -5 -23 -17t5 -43l140 -331l130 331q8 21 7.5 32.5t-6 16.5t-13.5 7l-16 4h111q-9 -2 -18.5 -4t-18.5 -7t-18 -16.5
t-17 -32.5l-173 -440l-21 -51q-23 -56 -42 -96.5t-37.5 -67t-39 -39t-46.5 -12.5q-42 0 -69.5 16t-41.5 40t-14 51.5t14.5 50t43 36t71.5 9.5z" />
    <glyph glyph-name="z" unicode="z" horiz-adv-x="423" 
d="M15 0l226 490h-19q-17 0 -40.5 -6.5t-49 -18t-50.5 -27t-45 -32.5l20 94h320l-225 -490h71q17 0 40.5 6.5t49 18t50.5 27t45 32.5l-20 -94h-373z" />
    <glyph glyph-name="braceleft" unicode="{" horiz-adv-x="183" 
d="M30 350q7 7 17.5 15t21 20.5t18 30.5t7.5 44v173q0 15 2.5 37.5t12 44t29.5 37.5t55 17v-20q-19 -1 -30.5 -11t-18 -26.5t-9 -37t-2.5 -42.5q1 -47 1 -101v-101q0 -24 -8.5 -39.5t-20 -25.5t-23 -15t-17.5 -10q6 -4 17.5 -9.5t23 -15.5t20 -25.5t8.5 -39.5v-101t-1 -101
q0 -22 2.5 -42.5t9 -37t18 -26.5t30.5 -11v-20q-35 1 -55 17t-29.5 37.5t-12 44t-2.5 37.5v173q0 26 -7.5 44t-18 30.5t-21 20.5t-17.5 15v20z" />
    <glyph glyph-name="bar" unicode="|" horiz-adv-x="100" 
d="M30 750h40v-1000h-40v1000z" />
    <glyph glyph-name="braceright" unicode="}" horiz-adv-x="183" 
d="M-10 749v20q35 -1 55 -17t30 -37.5t12 -44t2 -37.5v-173q0 -26 7.5 -44t18 -30.5t21 -20.5t17.5 -15v-20q-7 -7 -17.5 -15t-21 -20.5t-18 -30.5t-7.5 -44v-173q0 -15 -2 -37.5t-12 -44t-30 -37.5t-55 -17v20q19 1 30.5 11t18 26.5t9 37t2.5 42.5q-1 47 -1 101v101
q0 24 8.5 39.5t20 25.5t23 15.5t17.5 9.5q-6 5 -17.5 10t-23 15t-20 25.5t-8.5 39.5v101t1 101q0 22 -2.5 42.5t-9 37t-18 26.5t-30.5 11z" />
    <glyph glyph-name="asciitilde" unicode="~" horiz-adv-x="572" 
 />
    <glyph glyph-name="exclamdown" unicode="&#xa1;" horiz-adv-x="269" 
 />
    <glyph glyph-name="currency" unicode="&#xa4;" horiz-adv-x="572" 
 />
    <glyph glyph-name="brokenbar" unicode="&#xa6;" horiz-adv-x="551" 
 />
    <glyph glyph-name="section" unicode="&#xa7;" horiz-adv-x="513" 
 />
    <glyph glyph-name="dieresis" unicode="&#xa8;" horiz-adv-x="240" 
d="M170 699q20 0 30 -12t10 -28t-10 -28t-30 -12t-30 12t-10 28t10 28t30 12zM30 659q0 16 10 28t30 12t30 -12t10 -28t-10 -28t-30 -12t-30 12t-10 28z" />
    <glyph glyph-name="copyright" unicode="&#xa9;" horiz-adv-x="832" 
 />
    <glyph glyph-name="ordfeminine" unicode="&#xaa;" horiz-adv-x="357" 
 />
    <glyph glyph-name="guillemotleft" unicode="&#xab;" horiz-adv-x="509" 
 />
    <glyph glyph-name="logicalnot" unicode="&#xac;" horiz-adv-x="572" 
 />
    <glyph glyph-name="registered" unicode="&#xae;" horiz-adv-x="832" 
 />
    <glyph glyph-name="macron" unicode="&#xaf;" horiz-adv-x="260" 
 />
    <glyph glyph-name="degree" unicode="&#xb0;" horiz-adv-x="428" 
 />
    <glyph glyph-name="plusminus" unicode="&#xb1;" horiz-adv-x="572" 
 />
    <glyph glyph-name="twosuperior" unicode="&#xb2;" horiz-adv-x="350" 
 />
    <glyph glyph-name="threesuperior" unicode="&#xb3;" horiz-adv-x="350" 
 />
    <glyph glyph-name="acute" unicode="&#xb4;" horiz-adv-x="190" 
d="M72 620h-42l57 130h73z" />
    <glyph glyph-name="paragraph" unicode="&#xb6;" horiz-adv-x="655" 
 />
    <glyph glyph-name="periodcentered" unicode="&#xb7;" horiz-adv-x="268" 
 />
    <glyph glyph-name="cedilla" unicode="&#xb8;" horiz-adv-x="224" 
d="M50 -187q37 2 57 18.5t20 44.5q0 17 -23 28q-22 12 -28 12l57 96h17l-26 -42q34 -5 52 -27t18 -55q0 -30 -18 -54.5t-45 -33.5q-45 -14 -101 -14z" />
    <glyph glyph-name="onesuperior" unicode="&#xb9;" horiz-adv-x="350" 
 />
    <glyph glyph-name="ordmasculine" unicode="&#xba;" horiz-adv-x="376" 
 />
    <glyph glyph-name="guillemotright" unicode="&#xbb;" horiz-adv-x="509" 
 />
    <glyph glyph-name="onequarter" unicode="&#xbc;" horiz-adv-x="1197" 
d="M671 159l411 551h10v-541h90v-20h-90v-89q0 -30 11.5 -42.5t28.5 -17.5h-210q17 5 28.5 17.5t11.5 42.5v89h-291v10zM40 0q17 5 28.5 17.5t11.5 42.5v520q0 38 -10.5 51.5t-19.5 18.5l160 60v-650q0 -30 11.5 -42.5t28.5 -17.5h-210zM962 169v363l-271 -363h271zM320 0
l258 700h43l-258 -700h-43z" />
    <glyph glyph-name="onehalf" unicode="&#xbd;" horiz-adv-x="1182" 
d="M915 710q57 0 98.5 -14t67.5 -38t38.5 -56t12.5 -69q0 -47 -23 -90.5t-64 -91.5q-42 -48 -98 -101.5t-123 -119.5h208q20 0 36.5 4t31 16t27.5 34.5t25 59.5l-40 -244h-431q107 119 182 213.5t110 182.5q14 35 21.5 70.5t7.5 73.5q0 31 -3.5 60t-14 51t-29.5 35.5
t-50 13.5q-34 0 -58 -22.5t-31.5 -55.5t5.5 -71.5t52 -70.5q-53 -1 -86 15.5t-46.5 42t-9 56t26.5 56t61.5 43t95.5 17.5zM40 0q17 5 28.5 17.5t11.5 42.5v520q0 38 -10.5 51.5t-19.5 18.5l160 60v-650q0 -30 11.5 -42.5t28.5 -17.5h-210zM578 700h43l-258 -700h-43z" />
    <glyph glyph-name="threequarters" unicode="&#xbe;" horiz-adv-x="1414" 
d="M888 159l411 551h10v-541h90v-20h-90v-89q0 -30 11.5 -42.5t28.5 -17.5h-210q17 5 28.5 17.5t11.5 42.5v89h-291v10zM221 710q57 0 98.5 -13.5t67.5 -37t38.5 -53.5t12.5 -63q0 -31 -10 -56.5t-26 -46t-37 -35t-44 -23.5q32 -11 60 -28.5t49.5 -41.5t34 -55t12.5 -70
q0 -37 -14 -72t-43.5 -63t-74 -45t-105.5 -17q-54 0 -93.5 13t-65.5 33.5t-38.5 47t-12.5 53.5q0 21 8 42t24 37t39.5 24.5t54.5 5.5q-17 -20 -25 -47t-8 -56q0 -27 6.5 -52.5t20.5 -45.5t36.5 -32.5t54.5 -12.5q35 0 55.5 17t32 44t15 59.5t3.5 63.5q0 36 -8 68.5
t-26.5 58.5t-49 44.5t-76.5 25.5q62 11 91.5 52t29.5 107q0 24 -2 52t-10.5 52t-26 40t-48.5 16q-34 0 -59.5 -22.5t-35 -55.5t2 -71.5t50.5 -70.5q-53 -1 -86 15.5t-46.5 42t-9 56t26.5 56t61.5 43t95.5 17.5zM1179 169v363l-271 -363h271zM537 0l258 700h43l-258 -700h-43
z" />
    <glyph glyph-name="questiondown" unicode="&#xbf;" horiz-adv-x="434" 
 />
    <glyph glyph-name="Agrave" unicode="&#xc0;" horiz-adv-x="780" 
d="M10 0q12 3 24 5t24 9t24.5 22.5t25.5 45.5l274 628h10l282 -628q12 -25 24 -40t24 -23.5t24 -12t24 -6.5h-250q10 3 17 6.5t9.5 12t-1 23.5t-14.5 40l-61 137h-291l-60 -137q-13 -30 -13.5 -45.5t6.5 -22.5t18 -9t21 -5h-141zM465 229l-143 319l-139 -319h282zM325 881
h73l57 -130h-42z" />
    <glyph glyph-name="Aacute" unicode="&#xc1;" horiz-adv-x="780" 
d="M10 0q12 3 24 5t24 9t24.5 22.5t25.5 45.5l274 628h10l282 -628q12 -25 24 -40t24 -23.5t24 -12t24 -6.5h-250q10 3 17 6.5t9.5 12t-1 23.5t-14.5 40l-61 137h-291l-60 -137q-13 -30 -13.5 -45.5t6.5 -22.5t18 -9t21 -5h-141zM465 229l-143 319l-139 -319h282zM325 751
l57 130h73l-88 -130h-42z" />
    <glyph glyph-name="Acircumflex" unicode="&#xc2;" horiz-adv-x="780" 
d="M10 0q12 3 24 5t24 9t24.5 22.5t25.5 45.5l274 628h10l282 -628q12 -25 24 -40t24 -23.5t24 -12t24 -6.5h-250q10 3 17 6.5t9.5 12t-1 23.5t-14.5 40l-61 137h-291l-60 -137q-13 -30 -13.5 -45.5t6.5 -22.5t18 -9t21 -5h-141zM465 229l-143 319l-139 -319h282zM364 901
h52l100 -150h-42l-84 92l-84 -92h-42z" />
    <glyph glyph-name="Atilde" unicode="&#xc3;" horiz-adv-x="780" 
d="M10 0q12 3 24 5t24 9t24.5 22.5t25.5 45.5l274 628h10l282 -628q12 -25 24 -40t24 -23.5t24 -12t24 -6.5h-250q10 3 17 6.5t9.5 12t-1 23.5t-14.5 40l-61 137h-291l-60 -137q-13 -30 -13.5 -45.5t6.5 -22.5t18 -9t21 -5h-141zM183 229h282l-143 319zM305 847q0 6 1.5 16
t6.5 20t14.5 17.5t25.5 7.5q10 0 21 -4.5t22 -10t22 -10t20 -4.5q11 0 15.5 3.5t7 8t5 8t9.5 4.5q0 -6 -1.5 -16t-6.5 -20.5t-14.5 -18t-25.5 -7.5q-10 0 -21 4.5t-22 10t-22 10t-20 4.5q-11 0 -15.5 -3.5t-7 -7.5t-5 -7.5t-9.5 -4.5z" />
    <glyph glyph-name="Adieresis" unicode="&#xc4;" horiz-adv-x="780" 
d="M10 0q12 3 24 5t24 9t24.5 22.5t25.5 45.5l274 628h10l282 -628q12 -25 24 -40t24 -23.5t24 -12t24 -6.5h-250q10 3 17 6.5t9.5 12t-1 23.5t-14.5 40l-61 137h-291l-60 -137q-13 -30 -13.5 -45.5t6.5 -22.5t18 -9t21 -5h-141zM465 229l-143 319l-139 -319h282zM440 831
q20 0 30 -12t10 -28t-10 -28t-30 -12t-30 12t-10 28t10 28t30 12zM340 831q20 0 30 -12t10 -28t-10 -28t-30 -12t-30 12t-10 28t10 28t30 12z" />
    <glyph glyph-name="Aring" unicode="&#xc5;" horiz-adv-x="780" 
d="M10 0q12 3 24 5t24 9t24.5 22.5t25.5 45.5l274 628h10l282 -628q12 -25 24 -40t24 -23.5t24 -12t24 -6.5h-250q10 3 17 6.5t9.5 12t-1 23.5t-14.5 40l-61 137h-291l-60 -137q-13 -30 -13.5 -45.5t6.5 -22.5t18 -9t21 -5h-141zM465 229l-143 319l-139 -319h282zM390 887
q30 0 49 -19t19 -49t-19 -49t-49 -19t-49 19t-19 49t19 49t49 19zM390 772q20 0 33.5 13.5t13.5 33.5t-13.5 33.5t-33.5 13.5t-33.5 -13.5t-13.5 -33.5t13.5 -33.5t33.5 -13.5z" />
    <glyph glyph-name="AE" unicode="&#xc6;" horiz-adv-x="808" 
d="M10 0q12 3 24 5t24 9t24.5 22.5t25.5 45.5l270 618h367l20 -94q-17 38 -41 61t-59 23h-157v-305h85q25 0 40.5 1.5t26 7t18 16t15.5 29.5v-118q-8 19 -15.5 29.5t-18 16t-26 7t-40.5 1.5h-85v-365h165q20 0 36.5 4t31 16t27.5 34.5t25 59.5l-20 -124h-445q32 8 41 25
t9 45v149h-199l-60 -137q-13 -30 -13.5 -45.5t6.5 -22.5t18 -9t21 -5h-141zM378 229v448l-195 -448h195z" />
    <glyph glyph-name="Ccedilla" unicode="&#xc7;" horiz-adv-x="568" 
d="M30 350q0 86 23.5 153t63.5 113t93 70t112 24q58 0 100 -17.5t66.5 -43t31 -56t-6 -56t-44.5 -42t-85 -15.5q32 32 40.5 70.5t-1.5 71.5t-36.5 55.5t-64.5 22.5q-34 0 -64 -22.5t-51.5 -67t-34 -109.5t-12.5 -151q0 -82 15.5 -143.5t42.5 -103t62.5 -62.5t75.5 -21
q66 0 111 35t71 94q-1 -7 -12 -33t-34 -54t-59.5 -50t-90.5 -22q-8 0 -16.5 0.5t-16.5 1.5l-13 -22q34 -5 52 -27t18 -55q0 -30 -18 -54.5t-45 -33.5q-45 -14 -101 -14l20 27q37 2 57 18.5t20 44.5q0 17 -23 28q-22 12 -28 12l46 78q-54 9 -102 36.5t-84 73t-57 107.5
t-21 139z" />
    <glyph glyph-name="Egrave" unicode="&#xc8;" horiz-adv-x="520" 
d="M40 0q32 8 41 25t9 45v560q0 28 -9 45t-41 25h417l20 -94q-20 17 -45 32.5t-50.5 27t-49 18t-40.5 6.5h-72v-305h85q25 0 40.5 1.5t26 7t18 16t15.5 29.5v-118q-8 19 -15.5 29.5t-18 16t-26 7t-40.5 1.5h-85v-365h100q17 0 40.5 6.5t49 18t50.5 27t45 32.5l-20 -94h-445z
M281 881l57 -130h-42l-88 130h73z" />
    <glyph glyph-name="Eacute" unicode="&#xc9;" horiz-adv-x="520" 
d="M40 0q32 8 41 25t9 45v560q0 28 -9 45t-41 25h417l20 -94q-20 17 -45 32.5t-50.5 27t-49 18t-40.5 6.5h-72v-305h85q25 0 40.5 1.5t26 7t18 16t15.5 29.5v-118q-8 19 -15.5 29.5t-18 16t-26 7t-40.5 1.5h-85v-365h100q17 0 40.5 6.5t49 18t50.5 27t45 32.5l-20 -94h-445z
M265 881h73l-88 -130h-42z" />
    <glyph glyph-name="Ecircumflex" unicode="&#xca;" horiz-adv-x="520" 
d="M457 700l20 -94q-20 17 -45 32.5t-50.5 27t-49 18t-40.5 6.5h-72v-305h85q25 0 40.5 1.5t26 7t18 16t15.5 29.5v-118q-8 19 -15.5 29.5t-18 16t-26 7t-40.5 1.5h-85v-365h100q17 0 40.5 6.5t49 18t50.5 27t45 32.5l-20 -94h-445q32 8 41 25t9 45v560q0 28 -9 45t-41 25
h417zM247 901h52l100 -150h-42l-84 92l-84 -92h-42z" />
    <glyph glyph-name="Edieresis" unicode="&#xcb;" horiz-adv-x="520" 
d="M40 700h417l20 -94q-20 17 -45 32.5t-50.5 27t-49 18t-40.5 6.5h-72v-305h85q25 0 40.5 1.5t26 7t18 16t15.5 29.5v-118q-8 19 -15.5 29.5t-18 16t-26 7t-40.5 1.5h-85v-365h100q17 0 40.5 6.5t49 18t50.5 27t45 32.5l-20 -94h-445q32 8 41 25t9 45v560q0 28 -9 45
t-41 25zM283 791q0 16 10 28t30 12t30 -12t10 -28t-10 -28t-30 -12t-30 12t-10 28zM223 831q20 0 30 -12t10 -28t-10 -28t-30 -12t-30 12t-10 28t10 28t30 12z" />
    <glyph glyph-name="Igrave" unicode="&#xcc;" horiz-adv-x="290" 
d="M260 700q-32 -8 -41 -25t-9 -45v-560q0 -28 9 -45t41 -25h-230q32 8 41 25t9 45v560q0 28 -9 45t-41 25h230zM153 880l57 -130h-42l-88 130h73z" />
    <glyph glyph-name="Iacute" unicode="&#xcd;" horiz-adv-x="290" 
d="M80 70v560q0 28 -9 45t-41 25h230q-32 -8 -41 -25t-9 -45v-560q0 -28 9 -45t41 -25h-230q32 8 41 25t9 45zM137 880h73l-88 -130h-42z" />
    <glyph glyph-name="Icircumflex" unicode="&#xce;" horiz-adv-x="290" 
d="M30 700h230q-32 -8 -41 -25t-9 -45v-560q0 -28 9 -45t41 -25h-230q32 8 41 25t9 45v560q0 28 -9 45t-41 25zM119 900h52l100 -150h-42l-84 92l-84 -92h-42z" />
    <glyph glyph-name="Idieresis" unicode="&#xcf;" horiz-adv-x="290" 
d="M80 70v560q0 28 -9 45t-41 25h230q-32 -8 -41 -25t-9 -45v-560q0 -28 9 -45t41 -25h-230q32 8 41 25t9 45zM155 790q0 16 10 28t30 12t30 -12t10 -28t-10 -28t-30 -12t-30 12t-10 28zM95 830q20 0 30 -12t10 -28t-10 -28t-30 -12t-30 12t-10 28t10 28t30 12z" />
    <glyph glyph-name="Eth" unicode="&#xd0;" horiz-adv-x="654" 
d="M40 314v40h50v276q0 28 -9 45t-41 25h180q87 0 161 -18.5t128 -60t84.5 -108t30.5 -163.5t-30.5 -163.5t-84.5 -108t-128 -60t-161 -18.5h-180q32 8 41 25t9 45v244h-50zM220 354h55v-40h-55v-304q38 0 73 3t65.5 14.5t55.5 34t43 60t27.5 93.5t9.5 135
q0 119 -21.5 186.5t-58.5 102t-87 43t-107 8.5v-336z" />
    <glyph glyph-name="Ntilde" unicode="&#xd1;" horiz-adv-x="625" 
d="M40 700h180l305 -463v393q0 28 -9 45t-41 25h110q-32 -8 -41 -25t-9 -45v-630h-10l-425 645v-575q0 -28 9 -45t41 -25h-110q32 8 41 25t9 45v560q0 28 -8 43l-3 5q-10 14 -39 22zM228 847q0 6 1.5 16t6.5 20t14.5 17.5t25.5 7.5q10 0 21 -4.5t22 -10t22 -10t20 -4.5
q11 0 15.5 3.5t7 8t5 8t9.5 4.5q0 -6 -1.5 -16t-6.5 -20.5t-14.5 -18t-25.5 -7.5q-10 0 -21 4.5t-22 10t-22 10t-20 4.5q-11 0 -15.5 -3.5t-7 -7.5t-5 -7.5t-9.5 -4.5z" />
    <glyph glyph-name="Ograve" unicode="&#xd2;" horiz-adv-x="674" 
d="M30 350q0 78 22.5 144t63 114t97 75t124.5 27t124.5 -27t97 -75t63 -114t22.5 -144t-22.5 -144.5t-63 -114.5t-97 -75t-124.5 -27t-124.5 27t-97 75t-63 114.5t-22.5 144.5zM160 350q0 -85 14 -150.5t38 -110t56.5 -67t68.5 -22.5t68.5 22.5t56.5 67t38 110t14 150.5
q0 86 -14 151t-38 109.5t-56.5 67t-68.5 22.5t-68.5 -22.5t-56.5 -67t-38 -109.5t-14 -151zM272 880h73l57 -130h-42z" />
    <glyph glyph-name="Oacute" unicode="&#xd3;" horiz-adv-x="674" 
d="M337 710q68 0 124.5 -27t97 -75t63 -114t22.5 -144t-22.5 -144.5t-63 -114.5t-97 -75t-124.5 -27t-124.5 27t-97 75t-63 114.5t-22.5 144.5t22.5 144t63 114t97 75t124.5 27zM337 0q36 0 68.5 22.5t56.5 67t38 110t14 150.5q0 86 -14 151t-38 109.5t-56.5 67t-68.5 22.5
t-68.5 -22.5t-56.5 -67t-38 -109.5t-14 -151q0 -85 14 -150.5t38 -110t56.5 -67t68.5 -22.5zM272 750l57 130h73l-88 -130h-42z" />
    <glyph glyph-name="Ocircumflex" unicode="&#xd4;" horiz-adv-x="674" 
d="M337 710q68 0 124.5 -27t97 -75t63 -114t22.5 -144t-22.5 -144.5t-63 -114.5t-97 -75t-124.5 -27t-124.5 27t-97 75t-63 114.5t-22.5 144.5t22.5 144t63 114t97 75t124.5 27zM160 350q0 -85 14 -150.5t38 -110t56.5 -67t68.5 -22.5t68.5 22.5t56.5 67t38 110t14 150.5
q0 86 -14 151t-38 109.5t-56.5 67t-68.5 22.5t-68.5 -22.5t-56.5 -67t-38 -109.5t-14 -151zM211 750l100 150h52l100 -150h-42l-84 92l-84 -92h-42z" />
    <glyph glyph-name="Otilde" unicode="&#xd5;" horiz-adv-x="674" 
d="M337 710q68 0 124.5 -27t97 -75t63 -114t22.5 -144t-22.5 -144.5t-63 -114.5t-97 -75t-124.5 -27t-124.5 27t-97 75t-63 114.5t-22.5 144.5t22.5 144t63 114t97 75t124.5 27zM337 0q36 0 68.5 22.5t56.5 67t38 110t14 150.5q0 86 -14 151t-38 109.5t-56.5 67t-68.5 22.5
t-68.5 -22.5t-56.5 -67t-38 -109.5t-14 -151q0 -85 14 -150.5t38 -110t56.5 -67t68.5 -22.5zM252 766q0 6 1.5 16t6.5 20t14.5 17.5t25.5 7.5q10 0 21 -4.5t22 -10t22 -10t20 -4.5q11 0 15.5 3.5t7 8t5 8t9.5 4.5q0 -6 -1.5 -16t-6.5 -20.5t-14.5 -18t-25.5 -7.5
q-10 0 -21 4.5t-22 10t-22 10t-20 4.5q-11 0 -15.5 -3.5t-7 -7.5t-5 -7.5t-9.5 -4.5z" />
    <glyph glyph-name="Odieresis" unicode="&#xd6;" horiz-adv-x="674" 
d="M337 710q68 0 124.5 -27t97 -75t63 -114t22.5 -144t-22.5 -144.5t-63 -114.5t-97 -75t-124.5 -27t-124.5 27t-97 75t-63 114.5t-22.5 144.5t22.5 144t63 114t97 75t124.5 27zM337 0q36 0 68.5 22.5t56.5 67t38 110t14 150.5q0 86 -14 151t-38 109.5t-56.5 67t-68.5 22.5
t-68.5 -22.5t-56.5 -67t-38 -109.5t-14 -151q0 -85 14 -150.5t38 -110t56.5 -67t68.5 -22.5zM387 830q20 0 30 -12t10 -28t-10 -28t-30 -12t-30 12t-10 28t10 28t30 12zM287 830q20 0 30 -12t10 -28t-10 -28t-30 -12t-30 12t-10 28t10 28t30 12z" />
    <glyph glyph-name="multiply" unicode="&#xd7;" horiz-adv-x="572" 
 />
    <glyph glyph-name="Oslash" unicode="&#xd8;" horiz-adv-x="674" 
d="M30 350q0 78 22.5 144t63 114t97 75t124.5 27q29 0 55 -5t50 -14l3 9h43l-9 -26q77 -43 121 -127.5t44 -196.5q0 -78 -22.5 -144.5t-63 -114.5t-97 -75t-124.5 -27q-56 0 -104 18l-3 -7h-43l9 24q-77 43 -121.5 128.5t-44.5 197.5zM217 81l212 576q-40 43 -92 43
q-36 0 -68.5 -22.5t-56.5 -67t-38 -109.5t-14 -151q0 -91 15.5 -157.5t41.5 -111.5zM246 42q41 -42 91 -42q36 0 68.5 22.5t56.5 67t38 110t14 150.5q0 90 -15 156.5t-41 111.5z" />
    <glyph glyph-name="Ugrave" unicode="&#xd9;" horiz-adv-x="664" 
d="M270 700q-32 -8 -41 -25t-9 -45v-320q0 -67 4 -119t20 -88t47.5 -54.5t85.5 -18.5q62 0 99 16t56.5 49.5t25.5 86.5t6 128v320q0 28 -9 45t-41 25h110q-32 -8 -41 -25t-9 -45v-320v-71.5t-4.5 -73t-16 -67.5t-34.5 -56.5t-60 -38.5t-92 -14q-76 0 -128.5 13.5t-85.5 49.5
t-48 98.5t-15 159.5v320q0 28 -9 45t-41 25h230zM340 880l57 -130h-42l-88 130h73z" />
    <glyph glyph-name="Uacute" unicode="&#xda;" horiz-adv-x="664" 
d="M270 700q-32 -8 -41 -25t-9 -45v-320q0 -67 4 -119t20 -88t47.5 -54.5t85.5 -18.5q62 0 99 16t56.5 49.5t25.5 86.5t6 128v320q0 28 -9 45t-41 25h110q-32 -8 -41 -25t-9 -45v-320v-71.5t-4.5 -73t-16 -67.5t-34.5 -56.5t-60 -38.5t-92 -14q-76 0 -128.5 13.5t-85.5 49.5
t-48 98.5t-15 159.5v320q0 28 -9 45t-41 25h230zM267 750l57 130h73l-88 -130h-42z" />
    <glyph glyph-name="Ucircumflex" unicode="&#xdb;" horiz-adv-x="664" 
d="M270 700q-32 -8 -41 -25t-9 -45v-320q0 -67 4 -119t20 -88t47.5 -54.5t85.5 -18.5q62 0 99 16t56.5 49.5t25.5 86.5t6 128v320q0 28 -9 45t-41 25h110q-32 -8 -41 -25t-9 -45v-320v-71.5t-4.5 -73t-16 -67.5t-34.5 -56.5t-60 -38.5t-92 -14q-76 0 -128.5 13.5t-85.5 49.5
t-48 98.5t-15 159.5v320q0 28 -9 45t-41 25h230zM206 750l100 150h52l100 -150h-42l-84 92l-84 -92h-42z" />
    <glyph glyph-name="Udieresis" unicode="&#xdc;" horiz-adv-x="664" 
d="M270 700q-32 -8 -41 -25t-9 -45v-320q0 -67 4 -119t20 -88t47.5 -54.5t85.5 -18.5q62 0 99 16t56.5 49.5t25.5 86.5t6 128v320q0 28 -9 45t-41 25h110q-32 -8 -41 -25t-9 -45v-320v-71.5t-4.5 -73t-16 -67.5t-34.5 -56.5t-60 -38.5t-92 -14q-76 0 -128.5 13.5t-85.5 49.5
t-48 98.5t-15 159.5v320q0 28 -9 45t-41 25h230zM382 830q20 0 30 -12t10 -28t-10 -28t-30 -12t-30 12t-10 28t10 28t30 12zM282 830q20 0 30 -12t10 -28t-10 -28t-30 -12t-30 12t-10 28t10 28t30 12z" />
    <glyph glyph-name="Yacute" unicode="&#xdd;" horiz-adv-x="747" 
d="M10 700h252q-9 -3 -14.5 -6.5t-5.5 -11.5t7 -23t24 -41l174 -266l169 266q20 30 24 45.5t-0.5 22.5t-14 9t-17.5 5h129q-12 -3 -23 -5t-23.5 -9t-27.5 -22.5t-35 -45.5l-177 -278v-270q0 -28 9 -45t41 -25h-230q32 8 41 25t9 45v237l-204 311q-18 26 -32 41t-26.5 23
t-24.5 11.5t-24 6.5zM309 750l57 130h73l-88 -130h-42z" />
    <glyph glyph-name="agrave" unicode="&#xe0;" horiz-adv-x="510" 
d="M273 324l37 8q0 48 -3 80.5t-10.5 52t-21 27.5t-35.5 8q-30 0 -47 -19t-20 -46t8.5 -56.5t37.5 -51.5q-45 -4 -75 8t-43.5 32t-12 45t19 47t51 36.5t81.5 14.5q75 0 114 -26.5t56 -66t18.5 -84.5t1.5 -83v-190q0 -30 11.5 -42.5t28.5 -17.5h-160v35q-23 -23 -50.5 -34
t-53.5 -11q-6 0 -21.5 0.5t-35 4.5t-40.5 12.5t-38.5 24t-29 40t-11.5 59.5q0 46 18 77.5t50.5 53.5t77 36.5t97.5 25.5zM216 2q72 0 94 90v230l-23 -6q-39 -10 -65.5 -31t-42 -47.5t-22.5 -57t-7 -60.5q0 -17 2.5 -37.5t10 -38.5t20.5 -30t33 -12zM175 692h73l57 -130h-42z
" />
    <glyph glyph-name="aacute" unicode="&#xe1;" horiz-adv-x="510" 
d="M273 324l37 8q0 48 -3 80.5t-10.5 52t-21 27.5t-35.5 8q-30 0 -47 -19t-20 -46t8.5 -56.5t37.5 -51.5q-45 -4 -75 8t-43.5 32t-12 45t19 47t51 36.5t81.5 14.5q75 0 114 -26.5t56 -66t18.5 -84.5t1.5 -83v-190q0 -30 11.5 -42.5t28.5 -17.5h-160v35q-23 -23 -50.5 -34
t-53.5 -11q-6 0 -21.5 0.5t-35 4.5t-40.5 12.5t-38.5 24t-29 40t-11.5 59.5q0 46 18 77.5t50.5 53.5t77 36.5t97.5 25.5zM216 2q72 0 94 90v230l-23 -6q-39 -10 -65.5 -31t-42 -47.5t-22.5 -57t-7 -60.5q0 -17 2.5 -37.5t10 -38.5t20.5 -30t33 -12zM175 562l57 130h73
l-88 -130h-42z" />
    <glyph glyph-name="acircumflex" unicode="&#xe2;" horiz-adv-x="510" 
d="M30 131q0 46 18 77.5t50.5 53.5t77 36.5t97.5 25.5l37 8q0 48 -3 80.5t-10.5 52t-21 27.5t-35.5 8q-30 0 -47 -19t-20 -46t8.5 -56.5t37.5 -51.5q-45 -4 -75 8t-43.5 32t-12 45t19 47t51 36.5t81.5 14.5q75 0 114 -26.5t56 -66t18.5 -84.5t1.5 -83v-190q0 -30 11.5 -42.5
t28.5 -17.5h-160v35q-23 -23 -50.5 -34t-53.5 -11q-6 0 -21.5 0.5t-35 4.5t-40.5 12.5t-38.5 24t-29 40t-11.5 59.5zM150 120q0 -17 2.5 -37.5t10 -38.5t20.5 -30t33 -12q72 0 94 90v230l-23 -6q-39 -10 -65.5 -31t-42 -47.5t-22.5 -57t-7 -60.5zM214 712h52l100 -150h-42
l-84 92l-84 -92h-42z" />
    <glyph glyph-name="atilde" unicode="&#xe3;" horiz-adv-x="510" 
d="M273 324l37 8q0 48 -3 80.5t-10.5 52t-21 27.5t-35.5 8q-30 0 -47 -19t-20 -46t8.5 -56.5t37.5 -51.5q-45 -4 -75 8t-43.5 32t-12 45t19 47t51 36.5t81.5 14.5q75 0 114 -26.5t56 -66t18.5 -84.5t1.5 -83v-190q0 -30 11.5 -42.5t28.5 -17.5h-160v35q-23 -23 -50.5 -34
t-53.5 -11q-6 0 -21.5 0.5t-35 4.5t-40.5 12.5t-38.5 24t-29 40t-11.5 59.5q0 46 18 77.5t50.5 53.5t77 36.5t97.5 25.5zM150 120q0 -17 2.5 -37.5t10 -38.5t20.5 -30t33 -12q72 0 94 90v230l-23 -6q-39 -10 -65.5 -31t-42 -47.5t-22.5 -57t-7 -60.5zM218 639q10 0 21 -4.5
t22 -10t22 -10t20 -4.5q11 0 15.5 3.5t7 8t5 8t9.5 4.5q0 -6 -1.5 -16t-6.5 -20.5t-14.5 -18t-25.5 -7.5q-10 0 -21 4.5t-22 10t-22 10t-20 4.5q-11 0 -15.5 -3.5t-7 -7.5t-5 -7.5t-9.5 -4.5q0 6 1.5 16t6.5 20t14.5 17.5t25.5 7.5z" />
    <glyph glyph-name="adieresis" unicode="&#xe4;" horiz-adv-x="510" 
d="M273 324l37 8q0 48 -3 80.5t-10.5 52t-21 27.5t-35.5 8q-30 0 -47 -19t-20 -46t8.5 -56.5t37.5 -51.5q-45 -4 -75 8t-43.5 32t-12 45t19 47t51 36.5t81.5 14.5q75 0 114 -26.5t56 -66t18.5 -84.5t1.5 -83v-190q0 -30 11.5 -42.5t28.5 -17.5h-160v35q-23 -23 -50.5 -34
t-53.5 -11q-6 0 -21.5 0.5t-35 4.5t-40.5 12.5t-38.5 24t-29 40t-11.5 59.5q0 46 18 77.5t50.5 53.5t77 36.5t97.5 25.5zM150 120q0 -17 2.5 -37.5t10 -38.5t20.5 -30t33 -12q72 0 94 90v230l-23 -6q-39 -10 -65.5 -31t-42 -47.5t-22.5 -57t-7 -60.5zM250 602q0 16 10 28
t30 12t30 -12t10 -28t-10 -28t-30 -12t-30 12t-10 28zM190 642q20 0 30 -12t10 -28t-10 -28t-30 -12t-30 12t-10 28t10 28t30 12z" />
    <glyph glyph-name="aring" unicode="&#xe5;" horiz-adv-x="510" 
d="M30 131q0 46 18 77.5t50.5 53.5t77 36.5t97.5 25.5l37 8q0 48 -3 80.5t-10.5 52t-21 27.5t-35.5 8q-30 0 -47 -19t-20 -46t8.5 -56.5t37.5 -51.5q-45 -4 -75 8t-43.5 32t-12 45t19 47t51 36.5t81.5 14.5q75 0 114 -26.5t56 -66t18.5 -84.5t1.5 -83v-190q0 -30 11.5 -42.5
t28.5 -17.5h-160v35q-23 -23 -50.5 -34t-53.5 -11q-6 0 -21.5 0.5t-35 4.5t-40.5 12.5t-38.5 24t-29 40t-11.5 59.5zM216 2q72 0 94 90v230l-23 -6q-39 -10 -65.5 -31t-42 -47.5t-22.5 -57t-7 -60.5q0 -17 2.5 -37.5t10 -38.5t20.5 -30t33 -12zM172 630q0 30 19 49t49 19
t49 -19t19 -49t-19 -49t-49 -19t-49 19t-19 49zM240 583q20 0 33.5 13.5t13.5 33.5t-13.5 33.5t-33.5 13.5t-33.5 -13.5t-13.5 -33.5t13.5 -33.5t33.5 -13.5z" />
    <glyph glyph-name="ae" unicode="&#xe6;" horiz-adv-x="730" 
d="M30 131q0 46 18 77.5t50.5 53.5t77 36.5t97.5 25.5l37 8q0 48 -3 80.5t-10.5 52t-21 27.5t-35.5 8q-30 0 -47 -19t-20 -46t8.5 -56.5t37.5 -51.5q-45 -4 -75 8t-43.5 32t-12 45t19 47t51 36.5t81.5 14.5q57 0 93 -15.5t56 -41.5q29 27 67 42t84 15q35 0 64 -12
t50.5 -32.5t33.5 -47.5t12 -58q0 -38 -15.5 -65.5t-40.5 -46.5t-55 -30.5t-60 -18t-55.5 -8.5t-40.5 -2q9 -88 42 -133.5t85 -45.5q50 0 85.5 30.5t53.5 88.5q0 -14 -7 -37.5t-24.5 -46t-46 -39t-71.5 -16.5q-41 0 -74 10h-166v35q-23 -23 -50.5 -34t-53.5 -11
q-6 0 -21.5 0.5t-35 4.5t-40.5 12.5t-38.5 24t-29 40t-11.5 59.5zM432 199q29 0 61 8.5t60 27.5t46 50.5t18 79.5q0 62 -21 98.5t-56 36.5q-45 0 -77.5 -63t-32.5 -187q0 -14 0.5 -26.5t1.5 -24.5zM150 120q0 -17 2.5 -37.5t10 -38.5t20.5 -30t33 -12q72 0 94 90v230l-23 -6
q-39 -10 -65.5 -31t-42 -47.5t-22.5 -57t-7 -60.5z" />
    <glyph glyph-name="ccedilla" unicode="&#xe7;" horiz-adv-x="452" 
d="M30 250q0 56 16.5 104t47.5 82.5t75.5 54t100.5 19.5q49 0 82 -15.5t50.5 -38.5t19 -49t-12 -47.5t-43 -34t-75.5 -8.5q26 22 37.5 53t8.5 60t-20 49.5t-47 20.5q-53 0 -86.5 -63t-33.5 -187q0 -106 29.5 -166.5t80.5 -71.5h4v-1q5 -1 16 -1q50 0 85.5 30.5t53.5 88.5
q0 -14 -7 -37.5t-24.5 -46t-46 -39t-71.5 -16.5h-9.5t-9.5 1l-13 -21q34 -5 52 -27t18 -55q0 -30 -18 -54.5t-45 -33.5q-45 -14 -101 -14l20 27q37 2 57 18.5t20 44.5q0 17 -23 28q-22 12 -28 12l45 76q-48 6 -86.5 27.5t-64.5 55.5t-40 78.5t-14 96.5z" />
    <glyph glyph-name="egrave" unicode="&#xe8;" horiz-adv-x="450" 
d="M30 250q0 56 16.5 104t46.5 82.5t72.5 54t94.5 19.5q35 0 64 -12t50.5 -32.5t33.5 -47.5t12 -58q0 -38 -15.5 -65.5t-40.5 -46.5t-55 -30.5t-60 -18t-55.5 -8.5t-40.5 -2q9 -88 42 -133.5t85 -45.5q50 0 85.5 30.5t53.5 88.5q0 -14 -7 -37.5t-24.5 -46t-46 -39
t-71.5 -16.5q-56 0 -100.5 19.5t-75.5 54t-47.5 82.5t-16.5 104zM150 250q0 -14 0.5 -26.5t1.5 -24.5q29 0 61 8.5t60 27.5t46 50.5t18 79.5q0 62 -21 98.5t-56 36.5q-45 0 -77.5 -63t-32.5 -187zM233 693l57 -130h-42l-88 130h73z" />
    <glyph glyph-name="eacute" unicode="&#xe9;" horiz-adv-x="450" 
d="M30 250q0 56 16.5 104t46.5 82.5t72.5 54t94.5 19.5q35 0 64 -12t50.5 -32.5t33.5 -47.5t12 -58q0 -38 -15.5 -65.5t-40.5 -46.5t-55 -30.5t-60 -18t-55.5 -8.5t-40.5 -2q9 -88 42 -133.5t85 -45.5q50 0 85.5 30.5t53.5 88.5q0 -14 -7 -37.5t-24.5 -46t-46 -39
t-71.5 -16.5q-56 0 -100.5 19.5t-75.5 54t-47.5 82.5t-16.5 104zM150 250q0 -14 0.5 -26.5t1.5 -24.5q29 0 61 8.5t60 27.5t46 50.5t18 79.5q0 62 -21 98.5t-56 36.5q-45 0 -77.5 -63t-32.5 -187zM160 563l57 130h73l-88 -130h-42z" />
    <glyph glyph-name="ecircumflex" unicode="&#xea;" horiz-adv-x="450" 
d="M30 250q0 56 16.5 104t46.5 82.5t72.5 54t94.5 19.5q35 0 64 -12t50.5 -32.5t33.5 -47.5t12 -58q0 -38 -15.5 -65.5t-40.5 -46.5t-55 -30.5t-60 -18t-55.5 -8.5t-40.5 -2q9 -88 42 -133.5t85 -45.5q50 0 85.5 30.5t53.5 88.5q0 -14 -7 -37.5t-24.5 -46t-46 -39
t-71.5 -16.5q-56 0 -100.5 19.5t-75.5 54t-47.5 82.5t-16.5 104zM150 250q0 -14 0.5 -26.5t1.5 -24.5q29 0 61 8.5t60 27.5t46 50.5t18 79.5q0 62 -21 98.5t-56 36.5q-45 0 -77.5 -63t-32.5 -187zM99 563l100 150h52l100 -150h-42l-84 92l-84 -92h-42z" />
    <glyph glyph-name="edieresis" unicode="&#xeb;" horiz-adv-x="450" 
d="M30 250q0 56 16.5 104t46.5 82.5t72.5 54t94.5 19.5q35 0 64 -12t50.5 -32.5t33.5 -47.5t12 -58q0 -38 -15.5 -65.5t-40.5 -46.5t-55 -30.5t-60 -18t-55.5 -8.5t-40.5 -2q9 -88 42 -133.5t85 -45.5q50 0 85.5 30.5t53.5 88.5q0 -14 -7 -37.5t-24.5 -46t-46 -39
t-71.5 -16.5q-56 0 -100.5 19.5t-75.5 54t-47.5 82.5t-16.5 104zM150 250q0 -14 0.5 -26.5t1.5 -24.5q29 0 61 8.5t60 27.5t46 50.5t18 79.5q0 62 -21 98.5t-56 36.5q-45 0 -77.5 -63t-32.5 -187zM275 643q20 0 30 -12t10 -28t-10 -28t-30 -12t-30 12t-10 28t10 28t30 12z
M135 603q0 16 10 28t30 12t30 -12t10 -28t-10 -28t-30 -12t-30 12t-10 28z" />
    <glyph glyph-name="igrave" unicode="&#xec;" horiz-adv-x="280" 
d="M40 0q17 5 28.5 17.5t11.5 42.5v350q0 38 -10.5 51.5t-19.5 18.5l150 30v-450q0 -30 11.5 -42.5t28.5 -17.5h-200zM148 750l57 -130h-42l-88 130h73z" />
    <glyph glyph-name="iacute" unicode="&#xed;" horiz-adv-x="280" 
d="M40 0q17 5 28.5 17.5t11.5 42.5v350q0 38 -10.5 51.5t-19.5 18.5l150 30v-450q0 -30 11.5 -42.5t28.5 -17.5h-200zM75 620l57 130h73l-88 -130h-42z" />
    <glyph glyph-name="icircumflex" unicode="&#xee;" horiz-adv-x="280" 
d="M40 0q17 5 28.5 17.5t11.5 42.5v350q0 38 -10.5 51.5t-19.5 18.5l150 30v-450q0 -30 11.5 -42.5t28.5 -17.5h-200zM114 769h52l100 -150h-42l-84 92l-84 -92h-42z" />
    <glyph glyph-name="idieresis" unicode="&#xef;" horiz-adv-x="280" 
d="M80 60v350q0 38 -10.5 51.5t-19.5 18.5l150 30v-450q0 -30 11.5 -42.5t28.5 -17.5h-200q17 5 28.5 17.5t11.5 42.5zM150 659q0 16 10 28t30 12t30 -12t10 -28t-10 -28t-30 -12t-30 12t-10 28zM90 699q20 0 30 -12t10 -28t-10 -28t-30 -12t-30 12t-10 28t10 28t30 12z" />
    <glyph glyph-name="ntilde" unicode="&#xf1;" horiz-adv-x="590" 
d="M80 60v350q0 38 -10.5 51.5t-19.5 18.5l150 30v-67q26 35 60 51t70 16q91 0 135.5 -48.5t44.5 -131.5v-270q0 -30 11.5 -42.5t28.5 -17.5h-200q17 5 28.5 17.5t11.5 42.5v240q0 43 -1 79.5t-7.5 63t-21 41.5t-40.5 15q-60 0 -90 -59t-30 -190v-190q0 -30 11.5 -42.5
t28.5 -17.5h-200q17 5 28.5 17.5t11.5 42.5zM258 642q10 0 21 -4.5t22 -10t22 -10t20 -4.5q11 0 15.5 3.5t7 8t5 8t9.5 4.5q0 -6 -1.5 -16t-6.5 -20.5t-14.5 -18t-25.5 -7.5q-10 0 -21 4.5t-22 10t-22 10t-20 4.5q-11 0 -15.5 -3.5t-7 -7.5t-5 -7.5t-9.5 -4.5q0 6 1.5 16
t6.5 20t14.5 17.5t25.5 7.5z" />
    <glyph glyph-name="ograve" unicode="&#xf2;" 
d="M270 510q57 0 101.5 -19.5t75 -54.5t47 -82.5t16.5 -103.5t-16.5 -104t-47.5 -82.5t-75.5 -54t-100.5 -19.5t-100.5 19.5t-75.5 54t-47.5 82.5t-16.5 104t16.5 104t47.5 82.5t75.5 54t100.5 19.5zM150 250q0 -124 33.5 -187t86.5 -63t86.5 63t33.5 187q0 18 -1.5 43.5
t-6 53.5t-12.5 55.5t-21.5 49t-32.5 35t-46 13.5q-53 0 -86.5 -63t-33.5 -187zM205 692h73l57 -130h-42z" />
    <glyph glyph-name="oacute" unicode="&#xf3;" 
d="M30 250q0 56 16.5 104t47.5 82.5t75.5 54t100.5 19.5q57 0 101.5 -19.5t75 -54.5t47 -82.5t16.5 -103.5t-16.5 -104t-47.5 -82.5t-75.5 -54t-100.5 -19.5t-100.5 19.5t-75.5 54t-47.5 82.5t-16.5 104zM270 0q53 0 86.5 63t33.5 187q0 18 -1.5 43.5t-6 53.5t-12.5 55.5
t-21.5 49t-32.5 35t-46 13.5q-53 0 -86.5 -63t-33.5 -187t33.5 -187t86.5 -63zM205 562l57 130h73l-88 -130h-42z" />
    <glyph glyph-name="ocircumflex" unicode="&#xf4;" 
d="M30 250q0 56 16.5 104t47.5 82.5t75.5 54t100.5 19.5q57 0 101.5 -19.5t75 -54.5t47 -82.5t16.5 -103.5t-16.5 -104t-47.5 -82.5t-75.5 -54t-100.5 -19.5t-100.5 19.5t-75.5 54t-47.5 82.5t-16.5 104zM150 250q0 -124 33.5 -187t86.5 -63t86.5 63t33.5 187
q0 18 -1.5 43.5t-6 53.5t-12.5 55.5t-21.5 49t-32.5 35t-46 13.5q-53 0 -86.5 -63t-33.5 -187zM144 562l100 150h52l100 -150h-42l-84 92l-84 -92h-42z" />
    <glyph glyph-name="otilde" unicode="&#xf5;" 
d="M30 250q0 56 16.5 104t47.5 82.5t75.5 54t100.5 19.5q57 0 101.5 -19.5t75 -54.5t47 -82.5t16.5 -103.5t-16.5 -104t-47.5 -82.5t-75.5 -54t-100.5 -19.5t-100.5 19.5t-75.5 54t-47.5 82.5t-16.5 104zM150 250q0 -124 33.5 -187t86.5 -63t86.5 63t33.5 187
q0 18 -1.5 43.5t-6 53.5t-12.5 55.5t-21.5 49t-32.5 35t-46 13.5q-53 0 -86.5 -63t-33.5 -187zM185 573q0 6 1.5 16t6.5 20t14.5 17.5t25.5 7.5q10 0 21 -4.5t22 -10t22 -10t20 -4.5q11 0 15.5 3.5t7 8t5 8t9.5 4.5q0 -6 -1.5 -16t-6.5 -20.5t-14.5 -18t-25.5 -7.5
q-10 0 -21 4.5t-22 10t-22 10t-20 4.5q-11 0 -15.5 -3.5t-7 -7.5t-5 -7.5t-9.5 -4.5z" />
    <glyph glyph-name="odieresis" unicode="&#xf6;" 
d="M270 510q57 0 101.5 -19.5t75 -54.5t47 -82.5t16.5 -103.5t-16.5 -104t-47.5 -82.5t-75.5 -54t-100.5 -19.5t-100.5 19.5t-75.5 54t-47.5 82.5t-16.5 104t16.5 104t47.5 82.5t75.5 54t100.5 19.5zM270 0q53 0 86.5 63t33.5 187q0 18 -1.5 43.5t-6 53.5t-12.5 55.5
t-21.5 49t-32.5 35t-46 13.5q-53 0 -86.5 -63t-33.5 -187t33.5 -187t86.5 -63zM320 642q20 0 30 -12t10 -28t-10 -28t-30 -12t-30 12t-10 28t10 28t30 12zM180 602q0 16 10 28t30 12t30 -12t10 -28t-10 -28t-30 -12t-30 12t-10 28z" />
    <glyph glyph-name="divide" unicode="&#xf7;" horiz-adv-x="572" 
 />
    <glyph glyph-name="oslash" unicode="&#xf8;" 
d="M30 250q0 56 16.5 104t47.5 82.5t75.5 54t100.5 19.5t102 -20l5 10h43l-15 -28q51 -34 78 -92t27 -130q0 -56 -16.5 -104t-47.5 -82.5t-75.5 -54t-100.5 -19.5t-102 20l-5 -10h-43l15 28q-51 34 -78 91.5t-27 130.5zM170 97l180 351q-14 23 -33 37.5t-47 14.5
q-53 0 -86.5 -63t-33.5 -187q0 -93 20 -153zM190 52q31 -52 80 -52q53 0 86.5 63t33.5 187q0 27 -3.5 69.5t-16.5 82.5z" />
    <glyph glyph-name="ugrave" unicode="&#xf9;" horiz-adv-x="580" 
d="M50 480l150 30v-310q0 -43 2.5 -79.5t11 -63t24.5 -41.5t42 -15q35 0 60.5 20t39.5 64v325q0 38 -10.5 51.5t-19.5 18.5l150 30v-440q0 -38 10.5 -51.5t19.5 -18.5h-150v34q-24 -23 -52.5 -33.5t-57.5 -10.5q-91 0 -140.5 48.5t-49.5 131.5v240q0 38 -10.5 51.5
t-19.5 18.5zM298 692l57 -130h-42l-88 130h73z" />
    <glyph glyph-name="uacute" unicode="&#xfa;" horiz-adv-x="580" 
d="M50 480l150 30v-310q0 -43 2.5 -79.5t11 -63t24.5 -41.5t42 -15q35 0 60.5 20t39.5 64v325q0 38 -10.5 51.5t-19.5 18.5l150 30v-440q0 -38 10.5 -51.5t19.5 -18.5h-150v34q-24 -23 -52.5 -33.5t-57.5 -10.5q-91 0 -140.5 48.5t-49.5 131.5v240q0 38 -10.5 51.5
t-19.5 18.5zM225 562l57 130h73l-88 -130h-42z" />
    <glyph glyph-name="ucircumflex" unicode="&#xfb;" horiz-adv-x="580" 
d="M200 510v-310q0 -43 2.5 -79.5t11 -63t24.5 -41.5t42 -15q35 0 60.5 20t39.5 64v325q0 38 -10.5 51.5t-19.5 18.5l150 30v-440q0 -38 10.5 -51.5t19.5 -18.5h-150v34q-24 -23 -52.5 -33.5t-57.5 -10.5q-91 0 -140.5 48.5t-49.5 131.5v240q0 38 -10.5 51.5t-19.5 18.5z
M164 562l100 150h52l100 -150h-42l-84 92l-84 -92h-42z" />
    <glyph glyph-name="udieresis" unicode="&#xfc;" horiz-adv-x="580" 
d="M50 480l150 30v-310q0 -43 2.5 -79.5t11 -63t24.5 -41.5t42 -15q35 0 60.5 20t39.5 64v325q0 38 -10.5 51.5t-19.5 18.5l150 30v-440q0 -38 10.5 -51.5t19.5 -18.5h-150v34q-24 -23 -52.5 -33.5t-57.5 -10.5q-91 0 -140.5 48.5t-49.5 131.5v240q0 38 -10.5 51.5
t-19.5 18.5zM300 602q0 16 10 28t30 12t30 -12t10 -28t-10 -28t-30 -12t-30 12t-10 28zM240 642q20 0 30 -12t10 -28t-10 -28t-30 -12t-30 12t-10 28t10 28t30 12z" />
    <glyph glyph-name="yacute" unicode="&#xfd;" horiz-adv-x="565" 
d="M128 -63q-23 -11 -34.5 -38t-10 -54.5t16.5 -49t44 -21.5q17 0 32 7.5t31 28t34 56.5t41 93l17 41h-41l-186 440q-13 30 -28.5 42.5t-33.5 17.5h210q-15 -5 -23 -17t5 -43l140 -331l130 331q8 21 7.5 32.5t-6 16.5t-13.5 7l-16 4h111q-9 -2 -18.5 -4t-18.5 -7t-18 -16.5
t-17 -32.5l-173 -440l-21 -51q-23 -56 -42 -96.5t-37.5 -67t-39 -39t-46.5 -12.5q-42 0 -69.5 16t-41.5 40t-14 51.5t14.5 50t43 36t71.5 9.5zM218 562l57 130h73l-88 -130h-42z" />
    <glyph glyph-name="ydieresis" unicode="&#xff;" horiz-adv-x="565" 
d="M128 -63q-23 -11 -34.5 -38t-10 -54.5t16.5 -49t44 -21.5q17 0 32 7.5t31 28t34 56.5t41 93l17 41h-41l-186 440q-13 30 -28.5 42.5t-33.5 17.5h210q-15 -5 -23 -17t5 -43l140 -331l130 331q8 21 7.5 32.5t-6 16.5t-13.5 7l-16 4h111q-9 -2 -18.5 -4t-18.5 -7t-18 -16.5
t-17 -32.5l-173 -440l-21 -51q-23 -56 -42 -96.5t-37.5 -67t-39 -39t-46.5 -12.5q-42 0 -69.5 16t-41.5 40t-14 51.5t14.5 50t43 36t71.5 9.5zM293 602q0 16 10 28t30 12t30 -12t10 -28t-10 -28t-30 -12t-30 12t-10 28zM233 642q20 0 30 -12t10 -28t-10 -28t-30 -12t-30 12
t-10 28t10 28t30 12z" />
    <glyph glyph-name="Dcroat" unicode="&#x110;" horiz-adv-x="654" 
d="M40 314v40h50v276q0 28 -9 45t-41 25h180q87 0 161 -18.5t128 -60t84.5 -108t30.5 -163.5t-30.5 -163.5t-84.5 -108t-128 -60t-161 -18.5h-180q32 8 41 25t9 45v244h-50zM220 354h55v-40h-55v-304q38 0 73 3t65.5 14.5t55.5 34t43 60t27.5 93.5t9.5 135
q0 119 -21.5 186.5t-58.5 102t-87 43t-107 8.5v-336z" />
    <glyph glyph-name="dcroat" unicode="&#x111;" horiz-adv-x="541" 
d="M290 510q13 0 26 -1.5t25 -5.5v71h-99v40h99v46q0 38 -10.5 51.5t-19.5 18.5l150 30v-146h16v-40h-16v-514q0 -30 11.5 -42.5t28.5 -17.5h-160v34q-24 -24 -50.5 -34t-49.5 -10q-41 0 -79 10.5t-67.5 36t-47 68t-17.5 105.5t18.5 118t53 95.5t82.5 63.5t106 23zM241 0
q32 0 58 20.5t42 70.5v386q-20 23 -51 23q-29 0 -51 -16.5t-37.5 -42.5t-25.5 -57.5t-16 -63t-8 -58.5t-2 -43q0 -31 3.5 -69t13 -71.5t27.5 -56t47 -22.5z" />
    <glyph glyph-name="dotlessi" unicode="&#x131;" horiz-adv-x="280" 
d="M40 0q17 5 28.5 17.5t11.5 42.5v350q0 38 -10.5 51.5t-19.5 18.5l150 30v-450q0 -30 11.5 -42.5t28.5 -17.5h-200z" />
    <glyph glyph-name="Lslash" unicode="&#x141;" horiz-adv-x="500" 
d="M30 0q32 8 41 25t9 45v165l-24 -8l-13 38l37 13v352q0 28 -9 45t-41 25h230q-32 -8 -41 -25t-9 -45v-308l55 19l13 -38l-68 -23v-270h155q20 0 36.5 4t31 16t27.5 34.5t25 59.5l-20 -124h-435z" />
    <glyph glyph-name="lslash" unicode="&#x142;" horiz-adv-x="280" 
d="M22 267l58 19v374q0 38 -10.5 51.5t-19.5 18.5l150 30v-436l45 15l12 -38l-57 -18v-223q0 -30 11.5 -42.5t28.5 -17.5h-200q17 5 28.5 17.5t11.5 42.5v184l-46 -15z" />
    <glyph glyph-name="OE" unicode="&#x152;" horiz-adv-x="891" 
d="M337 710q20 0 40 -2.5t38 -7.5h413l20 -94q-17 38 -41 61t-59 23h-157v-305h85q25 0 40.5 1.5t26 7t18 16t15.5 29.5v-118q-8 19 -15.5 29.5t-18 16t-26 7t-40.5 1.5h-85v-365h165q20 0 36.5 4t31 16t27.5 34.5t25 59.5l-20 -124h-437q-41 -11 -82 -11q-68 0 -124.5 27
t-97 75t-63 114.5t-22.5 144.5t22.5 144t63 114t97 75t124.5 27zM337 0q36 0 68 22t56 66v524q-24 44 -56 66t-68 22t-68.5 -22.5t-56.5 -67t-38 -109.5t-14 -151q0 -85 14 -150.5t38 -110t56.5 -67t68.5 -22.5z" />
    <glyph glyph-name="oe" unicode="&#x153;" horiz-adv-x="810" 
d="M30 250q0 56 16.5 104t47.5 82.5t75.5 54t100.5 19.5q58 0 103 -20.5t76 -56.5q30 36 73.5 56.5t97.5 20.5q35 0 64 -12t50.5 -32.5t33.5 -47.5t12 -58q0 -38 -15.5 -65.5t-40.5 -46.5t-55 -30.5t-60 -18t-55.5 -8.5t-40.5 -2q9 -88 42 -133.5t85 -45.5q50 0 85.5 30.5
t53.5 88.5q0 -14 -7 -37.5t-24.5 -46t-46 -39t-71.5 -16.5q-58 0 -103.5 20.5t-76.5 57.5q-31 -37 -76.5 -57.5t-103.5 -20.5q-56 0 -100.5 19.5t-75.5 54t-47.5 82.5t-16.5 104zM270 0q53 0 86.5 63t33.5 187q0 18 -1.5 43.5t-6 53.5t-12.5 55.5t-21.5 49t-32.5 35
t-46 13.5q-53 0 -86.5 -63t-33.5 -187t33.5 -187t86.5 -63zM510 250q0 -14 0.5 -26.5t1.5 -24.5q29 0 61 8.5t60 27.5t46 50.5t18 79.5q0 62 -21 98.5t-56 36.5q-45 0 -77.5 -63t-32.5 -187z" />
    <glyph glyph-name="Scaron" unicode="&#x160;" horiz-adv-x="522" 
d="M146 268q-22 -38 -29.5 -84.5t4 -87.5t44.5 -68.5t93 -27.5q57 0 94 29.5t37 79.5q0 46 -25 80.5t-62.5 64t-81.5 57.5t-81.5 60.5t-62.5 72.5t-25 93q0 44 17.5 76.5t46.5 54t66 32t77 10.5q58 0 100 -17.5t66.5 -43t31 -56t-6 -56t-44.5 -42t-85 -15.5q39 32 51.5 70.5
t2.5 71.5t-40.5 55.5t-75.5 22.5q-16 0 -35 -5t-35 -17t-26.5 -31t-10.5 -46q0 -45 25.5 -79t63 -63.5t82 -58t82 -61t63 -73.5t25.5 -95q0 -47 -19.5 -81t-52 -56.5t-74.5 -33t-88 -10.5q-64 0 -110.5 17t-74.5 43.5t-37.5 59t-0.5 63.5t37 56.5t74 38.5zM135 900h42
l84 -92l84 92h42l-100 -150h-52z" />
    <glyph glyph-name="scaron" unicode="&#x161;" horiz-adv-x="446" 
d="M108 189q-18 -17 -22 -48.5t8.5 -63t42 -54.5t79.5 -23q29 0 56 11.5t39 42.5q10 27 -1.5 52t-35.5 43q-19 15 -44 28.5t-51 28t-51 30.5t-44 36t-31 44t-12 55q0 35 14 61t38 43t55.5 26t67.5 9q46 0 79.5 -13.5t53.5 -33t25 -41.5t-6 -40t-38.5 -28.5t-72.5 -6.5
q26 22 34.5 48.5t1.5 50t-27 39t-50 15.5q-27 0 -48 -19t-21 -57q0 -28 12.5 -48.5t33 -36.5t46 -29.5t52 -27.5t51.5 -31t43 -40q27 -34 30 -75.5t-25 -76.5q-27 -32 -74 -50.5t-100 -18.5t-90.5 12.5t-60 32.5t-30.5 43.5t-2.5 45.5t24.5 40t51 25zM97 712h42l84 -92
l84 92h42l-100 -150h-52z" />
    <glyph glyph-name="Ydieresis" unicode="&#x178;" horiz-adv-x="747" 
d="M262 700q-9 -3 -14.5 -6.5t-5.5 -11.5t7 -23t24 -41l174 -266l169 266q20 30 24 45.5t-0.5 22.5t-14 9t-17.5 5h129q-12 -3 -23 -5t-23.5 -9t-27.5 -22.5t-35 -45.5l-177 -278v-270q0 -28 9 -45t41 -25h-230q32 8 41 25t9 45v237l-204 311q-18 26 -32 41t-26.5 23
t-24.5 11.5t-24 6.5h252zM384 790q0 16 10 28t30 12t30 -12t10 -28t-10 -28t-30 -12t-30 12t-10 28zM324 830q20 0 30 -12t10 -28t-10 -28t-30 -12t-30 12t-10 28t10 28t30 12z" />
    <glyph glyph-name="Zcaron" unicode="&#x17d;" 
d="M15 0l330 690h-115q-21 0 -45 -8.5t-48.5 -22.5t-48 -33t-43.5 -40l20 114h429l-330 -690h176q21 0 45 8.5t48.5 22.5t48 33t43.5 40l-20 -114h-490zM144 900h42l84 -92l84 92h42l-100 -150h-52z" />
    <glyph glyph-name="zcaron" unicode="&#x17e;" horiz-adv-x="423" 
d="M15 0l226 490h-19q-17 0 -40.5 -6.5t-49 -18t-50.5 -27t-45 -32.5l20 94h320l-225 -490h71q17 0 40.5 6.5t49 18t50.5 27t45 32.5l-20 -94h-373zM86 712h42l84 -92l84 92h42l-100 -150h-52z" />
    <glyph glyph-name="circumflex" unicode="&#x2c6;" horiz-adv-x="312" 
d="M130 769h52l100 -150h-42l-84 92l-84 -92h-42z" />
    <glyph glyph-name="caron" unicode="&#x2c7;" horiz-adv-x="312" 
d="M72 769l84 -92l84 92h42l-100 -150h-52l-100 150h42z" />
    <glyph glyph-name="breve" unicode="&#x2d8;" horiz-adv-x="313" 
d="M30 717h27q11 -26 33 -42t64 -16q46 0 68.5 15.5t33.5 42.5h27q-2 -22 -14 -40.5t-30 -31t-39.5 -19.5t-42.5 -7t-42 7t-39 20t-30.5 31t-15.5 40z" />
    <glyph glyph-name="dotaccent" unicode="&#x2d9;" horiz-adv-x="196" 
d="M30 687q0 30 19 49t49 19t49 -19t19 -49t-19 -49t-49 -19t-49 19t-19 49z" />
    <glyph glyph-name="ring" unicode="&#x2da;" horiz-adv-x="196" 
d="M98 755q30 0 49 -19t19 -49t-19 -49t-49 -19t-49 19t-19 49t19 49t49 19zM51 687q0 -20 13.5 -33.5t33.5 -13.5t33.5 13.5t13.5 33.5t-13.5 33.5t-33.5 13.5t-33.5 -13.5t-13.5 -33.5z" />
    <glyph glyph-name="ogonek" unicode="&#x2db;" horiz-adv-x="256" 
d="M30 -155q0 40 32 76t74 65q11 7 24.5 13.5t18.5 10.5q10 5 23 5h2q11 0 2 -6q-7 -5 -13.5 -10t-13.5 -10q-27 -24 -45.5 -55t-18.5 -64q0 -29 20 -43.5t43 -14.5q25 0 43 15q5 5 5 -3q0 -3 -0.5 -7t-2.5 -6q-16 -20 -43 -35.5t-53 -15.5q-45 0 -71 24.5t-26 60.5z" />
    <glyph glyph-name="tilde" unicode="&#x2dc;" horiz-adv-x="230" 
d="M30 647q0 6 1.5 16t6.5 20t14.5 17.5t25.5 7.5q10 0 21 -4.5t22 -10t22 -10t20 -4.5q11 0 15.5 3.5t7 8t5 8t9.5 4.5q0 -6 -1.5 -16t-6.5 -20.5t-14.5 -18t-25.5 -7.5q-10 0 -21 4.5t-22 10t-22 10t-20 4.5q-11 0 -15.5 -3.5t-7 -7.5t-5 -7.5t-9.5 -4.5z" />
    <glyph glyph-name="hungarumlaut" unicode="&#x2dd;" horiz-adv-x="286" 
d="M183 750h73l-88 -130h-42zM87 750h73l-88 -130h-42z" />
    <glyph glyph-name="uni03BC" unicode="&#x3bc;" horiz-adv-x="623" 
 />
    <glyph glyph-name="endash" unicode="&#x2013;" horiz-adv-x="500" 
 />
    <glyph glyph-name="emdash" unicode="&#x2014;" horiz-adv-x="1000" 
 />
    <glyph glyph-name="quoteleft" unicode="&#x2018;" horiz-adv-x="190" 
d="M114 763q-17 -13 -23 -26t-8 -28q4 1 12 1q29 0 47 -18t18 -47t-18 -47t-47 -18t-47 18t-18 47q0 19 6.5 37.5t17.5 34.5t26.5 28t33.5 18z" />
    <glyph glyph-name="quoteright" unicode="&#x2019;" horiz-adv-x="190" 
d="M30 645q0 29 18 47t47 18t47 -18t18 -47q0 -19 -6.5 -37.5t-17.5 -34t-26.5 -28t-33.5 -18.5q17 13 23 26t8 28q-4 -1 -12 -1q-29 0 -47 18t-18 47z" />
    <glyph glyph-name="quotesinglbase" unicode="&#x201a;" horiz-adv-x="250" 
 />
    <glyph glyph-name="quotedblleft" unicode="&#x201c;" horiz-adv-x="350" 
d="M274 763q-17 -13 -23 -26t-8 -28q4 1 12 1q29 0 47 -18t18 -47t-18 -47t-47 -18t-47 18t-18 47q0 19 6.5 37.5t17.5 34.5t26.5 28t33.5 18zM114 763q-17 -13 -23 -26t-8 -28q4 1 12 1q29 0 47 -18t18 -47t-18 -47t-47 -18t-47 18t-18 47q0 19 6.5 37.5t17.5 34.5t26.5 28
t33.5 18z" />
    <glyph glyph-name="quotedblright" unicode="&#x201d;" horiz-adv-x="350" 
d="M255 710q29 0 47 -18t18 -47q0 -19 -6.5 -37.5t-17.5 -34t-26.5 -28t-33.5 -18.5q17 13 23 26t8 28q-4 -1 -12 -1q-29 0 -47 18t-18 47t18 47t47 18zM95 710q29 0 47 -18t18 -47q0 -19 -6.5 -37.5t-17.5 -34t-26.5 -28t-33.5 -18.5q17 13 23 26t8 28q-4 -1 -12 -1
q-29 0 -47 18t-18 47t18 47t47 18z" />
    <glyph glyph-name="quotedblbase" unicode="&#x201e;" horiz-adv-x="416" 
 />
    <glyph glyph-name="dagger" unicode="&#x2020;" horiz-adv-x="260" 
d="M110 304v446h40v-446h97v-40h-97v-514h-40v514h-98v40h98z" />
    <glyph glyph-name="daggerdbl" unicode="&#x2021;" horiz-adv-x="260" 
d="M110 471v279h40v-279h191v-40h-191v-159h191v-40h-191v-482h-40v482h-192v40h192v159h-192v40h192z" />
    <glyph glyph-name="bullet" unicode="&#x2022;" horiz-adv-x="376" 
 />
    <glyph glyph-name="ellipsis" unicode="&#x2026;" horiz-adv-x="570" 
d="M410 55q0 29 18 47t47 18t47 -18t18 -47t-18 -47t-47 -18t-47 18t-18 47zM285 120q29 0 47 -18t18 -47t-18 -47t-47 -18t-47 18t-18 47t18 47t47 18zM30 55q0 29 18 47t47 18t47 -18t18 -47t-18 -47t-47 -18t-47 18t-18 47z" />
    <glyph glyph-name="perthousand" unicode="&#x2030;" horiz-adv-x="1177" 
 />
    <glyph glyph-name="guilsinglleft" unicode="&#x2039;" horiz-adv-x="310" 
 />
    <glyph glyph-name="guilsinglright" unicode="&#x203a;" horiz-adv-x="310" 
 />
    <glyph glyph-name="fraction" unicode="&#x2044;" horiz-adv-x="361" 
d="M288 700h43l-258 -700h-43z" />
    <glyph glyph-name="Euro" unicode="&#x20ac;" horiz-adv-x="547" 
d="M30 431h54q8 83 32 137t57.5 85.5t74.5 44t84 12.5q56 0 95.5 -17.5t61.5 -43t26.5 -56t-9 -56t-46.5 -42t-86 -15.5q32 32 43.5 70.5t5 71.5t-29.5 55.5t-61 22.5q-21 0 -41 -11t-36.5 -41t-27.5 -82.5t-15 -134.5h161v-40h-163v-79h163v-40h-162q2 -63 8.5 -110
t21 -78.5t37.5 -47.5t58 -16q33 0 56 9t40 26t30 41t26 53q-1 -7 -7.5 -33t-23.5 -54t-49 -50t-86 -22q-108 0 -167 73t-72 209h-53v40h51q-1 9 -1 18.5v19.5v21t1 20h-51v40z" />
    <glyph glyph-name="minus" unicode="&#x2212;" horiz-adv-x="572" 
 />
    <glyph glyph-name="uniE001" unicode="&#xe001;" horiz-adv-x="780" 
d="M121 406q60 0 120 -20l141 324h10l282 -628q12 -25 24 -40t24 -23.5t24 -12t24 -6.5h-250q10 3 17 6.5t9.5 12t-1 23.5t-14.5 40l-42 94q-40 64 -102.5 117.5t-140.5 80.5l-127 -292q-13 -30 -13.5 -45.5t6.5 -22.5t18 -9t21 -5h-141q12 3 24 5t24 9t24.5 22.5t25.5 45.5
l129 295q-28 9 -57.5 14t-59.5 5q-67 0 -126.5 -22.5t-104.5 -64.5t-71 -101t-26 -133q0 -82 31.5 -146.5t89 -109t138.5 -66.5t179 -19q91 3 177.5 21t170.5 42.5t166 52.5t163.5 52t163 39.5t165.5 15.5q77 0 164.5 -20t172 -59.5t159 -97.5t125.5 -134q-43 24 -103 55.5
t-140 59.5t-183.5 47.5t-235.5 19.5q-97 0 -178.5 -10t-156 -25.5t-146 -33t-148 -33t-161 -25.5t-186.5 -10t-186 26t-144 74t-93 115.5t-33 150.5q0 76 26.5 140t74 110.5t113 72.5t144.5 26zM466 227l-144 321l-72 -165q60 -22 114.5 -61.5t101.5 -94.5z" />
    <glyph glyph-name="uniE002" unicode="&#xe002;" horiz-adv-x="696" 
d="M-144 544q0 39 19 68.5t52 49t77 29t94 9.5h134q75 0 141.5 -10t116 -33t78 -59.5t28.5 -89.5q0 -95 -105 -149q39 -8 71.5 -24.5t55.5 -39t35.5 -49t12.5 -54.5q0 -60 -35.5 -97.5t-95 -58.5t-138 -28.5t-165.5 -7.5h-180q32 8 41 25t9 45v620h-14q-11 0 -28.5 -5
t-34 -19t-28.5 -39t-12 -65q0 -24 8 -47.5t22 -40.5t32 -25.5t39 -2.5q-11 -20 -34.5 -30.5t-52.5 -10.5q-25 0 -50.5 8t-46 25.5t-33.5 43.5t-13 62zM232 280v-270q63 0 118.5 3.5t97 21t65 54t23.5 103.5q0 27 -5.5 52.5t-16 45.5t-26 34.5t-34.5 18.5q-48 -19 -104 -34
t-118 -29zM232 290q50 10 92.5 25.5t74 41t49.5 62.5t18 89q0 61 -19.5 97t-52 55t-74.5 24.5t-88 5.5v-400z" />
    <glyph glyph-name="uniE003" unicode="&#xe003;" horiz-adv-x="654" 
d="M86 700h134q87 0 161 -18.5t128 -60t84.5 -108t30.5 -163.5t-30.5 -163.5t-84.5 -108t-128 -60t-161 -18.5h-180q32 8 41 25t9 45v620h-14q-11 0 -28.5 -5t-34 -19t-28.5 -39t-12 -65q0 -24 8 -47.5t22 -40.5t32 -25.5t39 -2.5q-11 -20 -34.5 -30.5t-52.5 -10.5
q-25 0 -50.5 8t-46 25.5t-33.5 43.5t-13 62q0 39 19 68.5t52 49t77 29t94 9.5zM220 690v-680q38 0 73 3t65.5 14.5t55.5 34t43 60t27.5 93.5t9.5 135q0 119 -21.5 186.5t-58.5 102t-87 43t-107 8.5z" />
    <glyph glyph-name="uniE004" unicode="&#xe004;" horiz-adv-x="520" 
d="M-156 544q0 39 19 68.5t52 49t77 29t94 9.5h371l20 -94q-20 17 -45 32.5t-50.5 27t-49 18t-40.5 6.5h-72v-305h85q25 0 40.5 1.5t26 7t18 16t15.5 29.5v-118q-8 19 -15.5 29.5t-18 16t-26 7t-40.5 1.5h-85v-365q75 0 140 -10.5t124.5 -26t115 -34t111 -34t112 -26
t118.5 -10.5q45 0 81.5 3t69.5 11t64.5 21.5t67.5 34.5q-12 -52 -37.5 -90t-61.5 -62.5t-80.5 -36t-94.5 -11.5q-69 0 -129 18.5t-116 46.5t-111 61t-113 62t-122 49.5t-139 23.5h-180q32 8 41 25t9 45v620h-14q-11 0 -28.5 -5t-34 -19t-28.5 -39t-12 -65q0 -24 8 -47.5
t22 -40.5t32 -25.5t39 -2.5q-11 -20 -34.5 -30.5t-52.5 -10.5q-25 0 -50.5 8t-46 25.5t-33.5 43.5t-13 62z" />
    <glyph glyph-name="uniE005" unicode="&#xe005;" horiz-adv-x="492" 
d="M86 700h371l20 -94q-20 17 -45 32.5t-50.5 27t-49 18t-40.5 6.5h-72v-305h85q25 0 40.5 1.5t26 7t18 16t15.5 29.5v-118q-8 19 -15.5 29.5t-18 16t-26 7t-40.5 1.5h-85v-305q0 -28 9 -45t41 -25h-230q32 8 41 25t9 45v620h-14q-11 0 -28.5 -5t-34 -19t-28.5 -39t-12 -65
q0 -24 8 -47.5t22 -40.5t32 -25.5t39 -2.5q-11 -20 -34.5 -30.5t-52.5 -10.5q-25 0 -50.5 8t-46 25.5t-33.5 43.5t-13 62q0 39 19 68.5t52 49t77 29t94 9.5z" />
    <glyph glyph-name="uniE006" unicode="&#xe006;" horiz-adv-x="725" 
d="M-280 -77q50 0 98 -23t80 -72q-29 19 -56 27t-51 8q-50 0 -81 -30t-31 -80q0 -26 11.5 -51t33.5 -44t53 -30.5t69 -11.5q75 0 158 22t170.5 55.5t178 73.5t180.5 77q-14 42 -21 90.5t-7 105.5v335h-285v-305q0 -28 9 -45t41 -25h-230q32 8 41 25t9 45v620h-14
q-11 0 -28.5 -5t-34 -19t-28.5 -39t-12 -65q0 -24 8 -47.5t22 -40.5t32 -25.5t39 -2.5q-11 -20 -34.5 -30.5t-52.5 -10.5q-25 0 -50.5 8t-46 25.5t-33.5 43.5t-13 62q0 39 19 68.5t52 49t77 29t94 9.5h184q-32 -8 -41 -25t-9 -45v-245h285v245q0 28 -9 45t-41 25h230
q-32 -8 -41 -25t-9 -45v-560q0 -48 2.5 -94t8.5 -89q81 29 159 46.5t153 17.5q54 0 105 -12.5t90.5 -35.5t63 -57.5t23.5 -77.5q0 -45 -27 -80.5t-72 -60t-103.5 -37.5t-122.5 -13q-55 0 -111.5 13t-107.5 43.5t-93 79.5t-67 121q-96 -39 -192 -83t-189 -81.5t-181.5 -62.5
t-168.5 -25q-53 0 -99.5 13t-81 37t-54.5 59.5t-20 80.5q0 36 14 64.5t37.5 47.5t54.5 29t64 10zM915 -413q49 0 85.5 16t61 42t36.5 59t12 66q0 35 -13 64.5t-37 50.5t-57.5 33t-74.5 12q-67 0 -137 -15t-143 -40q10 -63 29 -116t51 -91t78 -59.5t109 -21.5z" />
    <glyph glyph-name="uniE007" unicode="&#xe007;" horiz-adv-x="290" 
d="M76 700h184q-32 -8 -41 -25t-9 -45v-560q0 -28 9 -45t41 -25h-230q32 8 41 25t9 45v620h-14q-11 0 -28.5 -5t-34 -19t-28.5 -39t-12 -65q0 -24 8 -47.5t22 -40.5t32 -25.5t39 -2.5q-11 -20 -34.5 -30.5t-52.5 -10.5q-25 0 -50.5 8t-46 25.5t-33.5 43.5t-13 62
q0 39 19 68.5t52 49t77 29t94 9.5z" />
    <glyph glyph-name="uniE008" unicode="&#xe008;" horiz-adv-x="525" 
d="M166 250q-32 -32 -45 -75t-7.5 -82t29 -66t65.5 -27q39 0 59.5 22.5t28.5 66.5t8.5 109.5t0.5 151.5v340h-14q-11 0 -28.5 -5t-34 -19t-28.5 -39t-12 -65q0 -24 8 -47.5t22 -40.5t32 -25.5t39 -2.5q-11 -20 -34.5 -30.5t-52.5 -10.5q-25 0 -50.5 8t-46 25.5t-33.5 43.5
t-13 62q0 39 19 68.5t52 49t77 29t94 9.5h184q-32 -8 -41 -25t-9 -45v-294q0 -73 -7 -136.5t-30.5 -110t-68.5 -73t-121 -26.5q-58 0 -99 19.5t-64.5 48t-28 62.5t10.5 62.5t49.5 48t89.5 19.5z" />
    <glyph glyph-name="uniE009" unicode="&#xe009;" horiz-adv-x="654" 
d="M-123 -67q50 0 98 -23t80 -72q-29 19 -56 27t-51 8q-50 0 -81 -30t-31 -80q0 -26 11.5 -51t33.5 -44t53 -30.5t69 -11.5q65 0 135.5 16.5t144.5 42.5t151 59.5t155 66.5q-47 54 -89.5 118.5t-85.5 140.5l-160 280l-34 -47v-233q0 -28 9 -45t41 -25h-230q32 8 41 25t9 45
v620h-14q-11 0 -28.5 -5t-34 -19t-28.5 -39t-12 -65q0 -24 8 -47.5t22 -40.5t32 -25.5t39 -2.5q-11 -20 -34.5 -30.5t-52.5 -10.5q-25 0 -50.5 8t-46 25.5t-33.5 43.5t-13 62q0 39 19 68.5t52 49t77 29t94 9.5h184q-32 -8 -41 -25t-9 -45v-309l228 309q22 30 28.5 46
t-17.5 24h113q-39 -8 -64 -24t-47 -46l-128 -174l219 -386q33 -58 64 -114t63 -107q113 47 223 79.5t213 32.5q54 0 105 -12.5t90.5 -35.5t63 -57.5t23.5 -77.5q0 -45 -27 -80.5t-72 -60t-103.5 -37.5t-122.5 -13q-78 0 -144.5 14t-124.5 41.5t-108.5 67.5t-97.5 93
q-84 -36 -167.5 -73.5t-164 -68t-157 -50t-146.5 -19.5q-53 0 -99.5 13t-81 37t-54.5 59.5t-20 80.5q0 36 14 64.5t37.5 47.5t54.5 29t64 10zM1072 -403q49 0 85.5 16t61 42t36.5 59t12 66q0 35 -13 64.5t-37 50.5t-57.5 33t-74.5 12q-95 0 -195.5 -29t-204.5 -71
q35 -53 73 -97.5t84.5 -77t103 -50.5t126.5 -18z" />
    <glyph glyph-name="uniE00A" unicode="&#xe00a;" horiz-adv-x="500" 
d="M76 700h184q-32 -8 -41 -25t-9 -45v-620q75 0 140 -10.5t124.5 -26t115 -34t111 -34t112 -26t118.5 -10.5q45 0 81.5 3t69.5 11t64.5 21.5t67.5 34.5q-12 -52 -37.5 -90t-61.5 -62.5t-80.5 -36t-94.5 -11.5q-69 0 -129 18.5t-116 46.5t-111 61t-113 62t-122 49.5
t-139 23.5h-180q32 8 41 25t9 45v620h-14q-11 0 -28.5 -5t-34 -19t-28.5 -39t-12 -65q0 -24 8 -47.5t22 -40.5t32 -25.5t39 -2.5q-11 -20 -34.5 -30.5t-52.5 -10.5q-25 0 -50.5 8t-46 25.5t-33.5 43.5t-13 62q0 39 19 68.5t52 49t77 29t94 9.5z" />
    <glyph glyph-name="uniE00B" unicode="&#xe00b;" horiz-adv-x="826" 
d="M-179 -77q50 0 98 -23t80 -72q-29 19 -56 27t-51 8q-50 0 -81 -30t-31 -80q0 -26 11.5 -51t33.5 -44t53 -30.5t69 -11.5q75 0 158 22t170.5 55.5t178 73.5t180.5 77q-14 42 -21 90.5t-7 105.5v604l-241 -644h-10l-255 657v-587q0 -28 9 -45t41 -25h-110q32 8 41 25t9 45
v620h-14q-11 0 -28.5 -5t-34 -19t-28.5 -39t-12 -65q0 -24 8 -47.5t22 -40.5t32 -25.5t39 -2.5q-11 -20 -34.5 -30.5t-52.5 -10.5q-25 0 -50.5 8t-46 25.5t-33.5 43.5t-13 62q0 39 19 68.5t52 49t77 29t94 9.5h137l200 -516l193 516h170q-32 -8 -41 -25t-9 -45v-560
q0 -48 2.5 -94t8.5 -89q81 29 159 46.5t153 17.5q54 0 105 -12.5t90.5 -35.5t63 -57.5t23.5 -77.5q0 -45 -27 -80.5t-72 -60t-103.5 -37.5t-122.5 -13q-55 0 -111.5 13t-107.5 43.5t-93 79.5t-67 121q-96 -39 -192 -83t-189 -81.5t-181.5 -62.5t-168.5 -25q-53 0 -99.5 13
t-81 37t-54.5 59.5t-20 80.5q0 36 14 64.5t37.5 47.5t54.5 29t64 10zM1016 -413q49 0 85.5 16t61 42t36.5 59t12 66q0 35 -13 64.5t-37 50.5t-57.5 33t-74.5 12q-67 0 -137 -15t-143 -40q10 -63 29 -116t51 -91t78 -59.5t109 -21.5z" />
    <glyph glyph-name="uniE00C" unicode="&#xe00c;" horiz-adv-x="625" 
d="M-156 544q0 39 19 68.5t52 49t77 29t94 9.5h134l305 -463v393q0 28 -9 45t-41 25h110q-32 -8 -41 -25t-9 -45v-630h-10l-425 645v-575q0 -28 9 -45t41 -25h-110q32 8 41 25t9 45v620h-14q-11 0 -28.5 -5t-34 -19t-28.5 -39t-12 -65q0 -24 8 -47.5t22 -40.5t32 -25.5
t39 -2.5q-11 -20 -34.5 -30.5t-52.5 -10.5q-25 0 -50.5 8t-46 25.5t-33.5 43.5t-13 62z" />
    <glyph glyph-name="uniE00D" unicode="&#xe00d;" horiz-adv-x="634" 
d="M-156 544q0 39 19 68.5t52 49t77 29t94 9.5h134q87 0 157.5 -12.5t121 -40.5t78 -72.5t27.5 -109.5q0 -57 -27.5 -101.5t-78 -77t-121 -54t-157.5 -32.5v-130q0 -28 9 -45t41 -25h-230q32 8 41 25t9 45v620h-14q-11 0 -28.5 -5t-34 -19t-28.5 -39t-12 -65q0 -24 8 -47.5
t22 -40.5t32 -25.5t39 -2.5q-11 -20 -34.5 -30.5t-52.5 -10.5q-25 0 -50.5 8t-46 25.5t-33.5 43.5t-13 62zM220 210q129 15 191.5 74.5t62.5 180.5q0 72 -18.5 116.5t-51.5 68.5t-80 32t-104 8v-480z" />
    <glyph glyph-name="uniE00E" unicode="&#xe00e;" horiz-adv-x="674" 
d="M337 710q68 0 124.5 -27t97 -75t63 -114t22.5 -144q0 -68 -17 -127t-48 -105t-74.5 -77t-96.5 -44q64 -5 121.5 -17t110.5 -27.5t104 -32t101.5 -30t103 -22.5t109.5 -9q45 0 81.5 3t69.5 11t64.5 21.5t67.5 34.5q-12 -52 -37.5 -90t-61.5 -62.5t-80.5 -36t-94.5 -11.5
q-69 0 -129 19.5t-116 48.5t-111 62.5t-113 62.5t-122 48.5t-139 19.5q-59 0 -106.5 -14t-100.5 -40q29 21 68 36.5t80 22.5q-56 11 -101.5 42t-78 77.5t-50.5 106.5t-18 129q0 78 22.5 144t63 114t97 75t124.5 27zM160 350q0 -85 14 -150.5t38 -110t56.5 -67t68.5 -22.5
t68.5 22.5t56.5 67t38 110t14 150.5q0 86 -14 151t-38 109.5t-56.5 67t-68.5 22.5t-68.5 -22.5t-56.5 -67t-38 -109.5t-14 -151z" />
    <glyph glyph-name="uniE00F" unicode="&#xe00f;" horiz-adv-x="694" 
d="M-100 -67q50 0 98 -23t80 -72q-29 19 -56 27t-51 8q-50 0 -81 -30t-31 -80q0 -26 11.5 -51t33.5 -44t53 -30.5t69 -11.5q65 0 135 16t144 42.5t150.5 59.5t154.5 66q-47 54 -88.5 119t-82.5 141l-105 197q-27 -6 -55.5 -10.5t-58.5 -8.5v-178q0 -28 9 -45t41 -25h-230
q32 8 41 25t9 45v620h-14q-11 0 -28.5 -5t-34 -19t-28.5 -39t-12 -65q0 -24 8 -47.5t22 -40.5t32 -25.5t39 -2.5q-11 -20 -34.5 -30.5t-52.5 -10.5q-25 0 -50.5 8t-46 25.5t-33.5 43.5t-13 62q0 39 19 68.5t52 49t77 29t94 9.5h134q87 0 157.5 -11t121 -36.5t78 -65.5
t27.5 -99q0 -65 -36.5 -110.5t-115.5 -76.5l123 -231q32 -59 62.5 -115t62.5 -107q57 23 113 43.5t111 36t109 24.5t105 9q54 0 105 -12.5t90.5 -35.5t63 -57.5t23.5 -77.5q0 -45 -27 -80.5t-72 -60t-103.5 -37.5t-122.5 -13q-155 0 -270.5 55.5t-207.5 159.5
q-84 -36 -167 -73.5t-163 -68t-156 -49.5t-146 -19q-53 0 -99.5 13t-81 37t-54.5 59.5t-20 80.5q0 36 14 64.5t37.5 47.5t54.5 29t64 10zM706 -160q35 -53 73.5 -97.5t85 -77t103.5 -50.5t127 -18q49 0 85.5 16t61 42t36.5 59t12 66q0 35 -13 64.5t-37 50.5t-57.5 33
t-74.5 12q-95 0 -196 -28.5t-206 -71.5zM474 488q0 65 -18.5 104.5t-51.5 61t-80 29t-104 7.5v-432q129 14 191.5 67.5t62.5 162.5z" />
    <glyph glyph-name="uniE010" unicode="&#xe010;" horiz-adv-x="536" 
d="M187 259q35 0 66 -14t51 -43q-20 11 -38 16t-35 5q-26 0 -47 -11t-36 -30.5t-23 -44.5t-8 -54q0 -33 9.5 -63t27.5 -52t45 -35t61 -13q43 0 71 14t44 35.5t22 48t6 51.5q0 56 -25 96.5t-62.5 74t-81.5 62.5t-81.5 61.5t-62.5 71.5t-25 92q0 48 17.5 84t46.5 60.5t66 36.5
t77 12q58 0 100 -18t66.5 -45t31 -58.5t-6 -58t-44.5 -44t-85 -16.5q39 32 51.5 72t2.5 75t-40.5 59t-75.5 24q-16 0 -35 -7t-35 -21.5t-26.5 -37t-10.5 -53.5q0 -45 25.5 -79.5t63 -64.5t82 -59.5t82 -65.5t63 -82t25.5 -109q0 -47 -19.5 -87.5t-52.5 -70t-75.5 -46.5
t-88.5 -17q-52 0 -96.5 14t-76 38.5t-49.5 59t-18 75.5t13.5 71t36 50.5t50.5 30.5t57 10z" />
    <glyph glyph-name="uniE011" unicode="&#xe011;" horiz-adv-x="564" 
d="M58 891q77 0 145.5 -14.5t137.5 -32t142 -32t159 -14.5q68 0 102.5 21.5t41.5 47t-11 47t-54 21.5q-16 0 -34.5 -5t-40.5 -17q43 40 84 56.5t76 16.5q37 0 64 -14.5t38.5 -36.5t5 -48t-36.5 -48t-87 -36.5t-147 -14.5q-81 0 -154 12.5t-142 28.5v-759q0 -28 9 -45t41 -25
h-230q32 8 41 25t9 45v788q-21 5 -39.5 8.5t-35.5 6t-35.5 4t-39.5 1.5q-75 0 -122 -34t-70.5 -85.5t-25 -111t13.5 -111t44.5 -85.5t69.5 -34q29 0 48.5 15t30 38.5t12 52t-7 54.5t-26.5 46t-45 27q35 13 67 13q40 0 66.5 -19t38.5 -47.5t8 -61.5t-26 -61.5t-63.5 -47.5
t-103.5 -19q-88 0 -146.5 36t-86 89.5t-23.5 116.5t42.5 116.5t112 89.5t183.5 36z" />
    <glyph glyph-name="uniE012" unicode="&#xe012;" horiz-adv-x="740" 
d="M-375 1111q156 0 270 -58t199 -165q80 36 158.5 73t155 67t150.5 49t143 19q53 0 99.5 -13t81 -37t54.5 -59.5t20 -80.5q0 -36 -14 -64.5t-37.5 -47.5t-54.5 -29t-64 -10q-50 0 -98 23t-80 72q29 -19 56 -27t51 -8q50 0 81 30t31 80q0 26 -11.5 51t-33.5 44t-53 30.5
t-69 11.5q-64 0 -132 -16t-138.5 -42t-143 -58.5t-146.5 -65.5q43 -55 79 -120.5t68 -141.5l190 -455l184 455q12 30 12.5 45.5t-6.5 22.5t-17.5 9t-20.5 5h141q-12 -3 -24 -5t-24.5 -9t-25 -22.5t-24.5 -45.5l-254 -628h-10l-262 628q-23 57 -47.5 113.5t-52.5 107.5
q-109 -46 -215 -79t-209 -33q-47 0 -97 11t-91 34.5t-67.5 60t-26.5 87.5q0 53 29.5 89.5t76.5 59t105 32.5t114 10zM-388 748q94 0 191.5 28.5t197.5 70.5q-30 54 -66.5 100.5t-82 80.5t-101.5 53.5t-126 19.5q-42 0 -77.5 -13.5t-61.5 -37.5t-41 -57.5t-15 -74.5
q0 -43 16 -75t41.5 -53t58.5 -31.5t66 -10.5z" />
    <glyph glyph-name="uniE013" unicode="&#xe013;" horiz-adv-x="988" 
d="M-88 1111q156 0 270 -58t199 -165q80 36 158.5 73t155 67t150.5 49t143 19q53 0 99.5 -13t81 -37t54.5 -59.5t20 -80.5q0 -36 -14 -64.5t-37.5 -47.5t-54.5 -29t-64 -10q-50 0 -98 23t-80 72q29 -19 56 -27t51 -8q50 0 81 30t31 80q0 26 -11.5 51t-33.5 44t-53 30.5
t-69 11.5q-64 0 -132 -16t-138.5 -42t-143 -58.5t-146.5 -65.5q43 -55 79 -120.5t68 -141.5l174 -447l171 447q12 30 12 45.5t-6 22.5t-16 9t-19 5h128q-11 -3 -21.5 -5t-21.5 -9t-22 -22.5t-23 -45.5l-240 -628h-10l-145 371l-142 -371h-9l-247 628q-10 26 -21 41t-22 23
t-22 11.5t-22 6.5h237q-9 -3 -15.5 -6.5t-8.5 -12t1 -23t13 -40.5l175 -447l77 203l-95 244h-1q-23 57 -47.5 113.5t-52.5 107.5q-109 -46 -215 -79t-209 -33q-47 0 -97 11t-91 34.5t-67.5 60t-26.5 87.5q0 53 29.5 89.5t76.5 59t105 32.5t114 10zM-101 748q94 0 191.5 28.5
t197.5 70.5q-30 54 -66.5 100.5t-82 80.5t-101.5 53.5t-126 19.5q-42 0 -77.5 -13.5t-61.5 -37.5t-41 -57.5t-15 -74.5q0 -43 16 -75t41.5 -53t58.5 -31.5t66 -10.5z" />
    <glyph glyph-name="uniE014" unicode="&#xe014;" horiz-adv-x="709" 
d="M-99 -55q50 0 98 -23t80 -72q-29 19 -56 27t-51 8q-50 0 -81 -30t-31 -80q0 -26 11.5 -51t33.5 -44t53 -30.5t69 -11.5q65 0 135.5 16t145.5 42.5t153 59.5t157 66q-47 55 -90.5 120t-87.5 140l-145 249l-141 -219q-21 -32 -29.5 -52.5t-9.5 -32.5t5.5 -18t15.5 -9h-121
q14 3 27 8t27.5 16.5t32.5 32t40 55.5l148 229l-162 277q-15 26 -29 41t-27 23t-25 11.5t-23 6.5h248q-8 -3 -13.5 -6.5t-6 -12t5.5 -23t21 -40.5l112 -193l2 8l95 155q20 33 29 53.5t10 32.5t-5 17.5t-15 8.5h121q-28 -6 -62.5 -33.5t-65.5 -78.5l-104 -171l194 -335
q33 -57 64.5 -112.5t63.5 -106.5q115 46 225 78t212 32q47 0 97 -11t91 -34.5t67.5 -60t26.5 -87.5q0 -53 -29.5 -91t-76.5 -62.5t-105 -36t-114 -11.5q-78 0 -146 16t-128 46t-112.5 73.5t-100.5 98.5q-85 -36 -169.5 -73.5t-165.5 -67.5t-157.5 -49t-146.5 -19
q-53 0 -99.5 13t-81 37t-54.5 59.5t-20 80.5q0 36 14 64.5t37.5 47.5t54.5 29t64 10zM1112 -411q42 0 77.5 15t61.5 41t41 61t15 76q0 43 -16 75t-41.5 53t-58.5 31.5t-66 10.5q-94 0 -194.5 -28t-206.5 -70q36 -57 76 -105.5t86.5 -84t102 -55.5t123.5 -20z" />
    <glyph glyph-name="uniE015" unicode="&#xe015;" horiz-adv-x="747" 
d="M-740 920q0 53 29.5 89.5t76.5 59t105 32.5t114 10q78 0 146 -15t127.5 -43.5t113 -70.5t103.5 -96q87 36 173.5 73.5t169.5 68t161 49.5t148 19q53 0 99.5 -13t81 -37t54.5 -59.5t20 -80.5q0 -36 -14 -64.5t-37.5 -47.5t-54.5 -29t-64 -10q-50 0 -98 23t-80 72
q29 -19 56 -27t51 -8q50 0 81 30t31 80q0 26 -11.5 51t-33.5 44t-53 30.5t-69 11.5q-65 0 -137 -16.5t-148.5 -42.5t-156.5 -59.5t-161 -66.5q49 -54 95.5 -119t94.5 -140l174 -266l169 266q20 30 24 45.5t-0.5 22.5t-14 9t-17.5 5h129q-12 -3 -23 -5t-23.5 -9t-27.5 -22.5
t-35 -45.5l-177 -278v-270q0 -28 9 -45t41 -25h-230q32 8 41 25t9 45v237l-204 311q-38 57 -72 111t-69 105q-57 -22 -113 -41.5t-111 -34t-107.5 -23t-102.5 -8.5q-47 0 -97 11t-91 34.5t-67.5 60t-26.5 87.5zM-610 918q0 -43 16 -75t41.5 -53t58.5 -31.5t66 -10.5
q92 0 192.5 27t205.5 68q-38 55 -78 102.5t-86 82t-100.5 54t-120.5 19.5q-42 0 -77.5 -13.5t-61.5 -37.5t-41 -57.5t-15 -74.5z" />
    <glyph glyph-name="uniE016" unicode="&#xe016;" horiz-adv-x="543" 
d="M348 690h-115q-21 0 -45 -8.5t-48.5 -22.5t-48 -33t-43.5 -40l20 114h429l-330 -690h2q75 0 140 -10.5t124.5 -26t115 -34t111 -34t112 -26t118.5 -10.5q45 0 81.5 3t69.5 11t64.5 21.5t67.5 34.5q-12 -52 -37.5 -90t-61.5 -62.5t-80.5 -36t-94.5 -11.5q-69 0 -129 18.5
t-116 46.5t-111 61t-113 62t-122 49.5t-139 23.5h-151z" />
    <glyph glyph-name="uniE017" unicode="&#xe017;" horiz-adv-x="510" 
d="M-635 -228q0 36 13.5 64.5t36 47.5t52 29t61.5 10q48 0 95.5 -23t79.5 -72q-29 19 -56 27t-51 8q-50 0 -81 -30t-31 -80q0 -26 11.5 -51t33.5 -44t53 -30.5t69 -11.5q75 0 158 21.5t170 55t177.5 73.5t180.5 77q-13 41 -20 88.5t-7 103.5q-23 -23 -50.5 -34t-53.5 -11
q-6 0 -21.5 0.5t-35 4.5t-40.5 12.5t-38.5 24t-29 40t-11.5 59.5q0 46 18 77.5t50.5 53.5t77 36.5t97.5 25.5l37 8q0 48 -3 80.5t-10.5 52t-21 27.5t-35.5 8q-30 0 -47 -19t-20 -46t8.5 -56.5t37.5 -51.5q-45 -4 -75 8t-43.5 32t-12 45t19 47t51 36.5t81.5 14.5
q75 0 114 -26.5t56 -66t18.5 -84.5t1.5 -83v-180q0 -50 2.5 -96.5t9.5 -90.5q84 30 164 49t157 19q56 0 108 -12.5t92 -35.5t63.5 -57.5t23.5 -77.5q0 -45 -27 -80.5t-72.5 -60t-105 -37.5t-125.5 -13q-55 0 -112 13t-108 43t-92.5 79t-66.5 121q-96 -39 -192 -83
t-189 -81.5t-181.5 -62t-168.5 -24.5q-49 0 -93.5 13t-78 37t-53.5 59.5t-20 80.5zM444 -128q10 -62 30 -114.5t52.5 -90.5t80 -59t113.5 -21q55 0 94.5 16t65 42t38 59t12.5 66q0 71 -51.5 115.5t-145.5 44.5q-69 0 -141.5 -16t-147.5 -42zM150 120q0 -17 2.5 -37.5
t10 -38.5t20.5 -30t33 -12q72 0 94 90v230l-23 -6q-39 -10 -65.5 -31t-42 -47.5t-22.5 -57t-7 -60.5z" />
    <glyph glyph-name="uniE018" unicode="&#xe018;" horiz-adv-x="541" 
d="M-210 1144q55 0 112 -13t108 -43t92.5 -79t66.5 -121q96 39 192 83t189 81.5t181.5 62t168.5 24.5q49 0 93.5 -13t78 -37t53.5 -59.5t20 -80.5q0 -36 -13.5 -64.5t-36 -47.5t-52 -29t-61.5 -10q-48 0 -95.5 23t-79.5 72q29 -19 56 -27t51 -8q50 0 81 30t31 80
q0 26 -11.5 51t-33.5 44t-53 30.5t-69 11.5q-75 0 -158 -21.5t-170 -55t-177.5 -73.5t-180.5 -77q13 -41 20 -88.5t7 -103.5v-220q24 24 50.5 34t49.5 10q41 0 79.5 -10.5t67.5 -36t46.5 -68t17.5 -105.5t-18.5 -118t-53 -95.5t-82 -63.5t-106.5 -23q-34 0 -61 10h-150
q17 5 28.5 17.5t11.5 42.5v591q0 50 -2.5 96.5t-9.5 90.5q-84 -30 -164 -49t-157 -19q-56 0 -108 12.5t-92 35.5t-63.5 57.5t-23.5 77.5q0 45 27 80.5t72.5 60t105 37.5t125.5 13zM-420 951q0 -71 51.5 -115.5t145.5 -44.5q69 0 141.5 16t147.5 42q-10 62 -30 114.5
t-52.5 90.5t-80 59t-113.5 21q-55 0 -94.5 -16t-65 -42t-38 -59t-12.5 -66zM200 60q0 -26 12 -43t39 -17q29 0 51 16.5t37.5 42.5t25.5 57.5t16 63t8 58.5t2 43q0 31 -3 69t-13 71.5t-28 56t-47 22.5q-32 0 -58 -20.5t-42 -70.5v-349z" />
    <glyph glyph-name="uniE019" unicode="&#xe019;" horiz-adv-x="541" 
d="M-359 1139q80 0 168.5 -24.5t181.5 -62t189 -81.5t192 -83q25 72 66.5 121t92.5 79t108 43t112 13q66 0 125.5 -13t105 -37.5t72.5 -60t27 -80.5q0 -43 -23.5 -77.5t-63.5 -57.5t-92 -35.5t-108 -12.5q-77 0 -157 19t-164 49q-7 -44 -9.5 -90.5t-2.5 -96.5v-591
q0 -30 11.5 -42.5t28.5 -17.5h-160v34q-24 -24 -50.5 -34t-49.5 -10q-41 0 -79 10.5t-67.5 36t-47 68t-17.5 105.5t18.5 118t53 95.5t82.5 63.5t106 23q13 0 26 -1.5t25 -5.5v183q0 56 7 103.5t20 88.5q-90 37 -180.5 77t-177.5 73.5t-170 55t-158 21.5q-38 0 -69 -11.5
t-53 -30.5t-33.5 -44t-11.5 -51q0 -50 31 -80t81 -30q24 0 51 8t56 27q-32 -49 -79.5 -72t-95.5 -23q-32 0 -61.5 10t-52 29t-36 47.5t-13.5 64.5q0 45 20 80.5t53.5 59.5t78 37t93.5 13zM764 791q94 0 145.5 44.5t51.5 115.5q0 33 -12.5 66t-38 59t-65 42t-94.5 16
q-66 0 -113.5 -21t-80 -59t-52.5 -90.5t-30 -114.5q75 -26 147.5 -42t141.5 -16zM150 219q0 -31 3.5 -69t13 -71.5t27.5 -56t47 -22.5q32 0 58 20.5t42 70.5v386q-20 23 -51 23q-29 0 -51 -16.5t-37.5 -42.5t-25.5 -57.5t-16 -63t-8 -58.5t-2 -43z" />
    <glyph glyph-name="uniE01A" unicode="&#xe01a;" horiz-adv-x="450" 
d="M30 250q0 56 16.5 104t46.5 82.5t72.5 54t94.5 19.5q35 0 64 -12t50.5 -32.5t33.5 -47.5t12 -58q0 -38 -15.5 -65.5t-40.5 -46.5t-55 -30.5t-60 -18t-55.5 -8.5t-40.5 -2q9 -95 44.5 -142t102.5 -47q47 0 82 19t58.5 51t36.5 73.5t15.5 86t-4.5 89t-24 81.5
q56 0 91 -30.5t47.5 -76t1 -98.5t-48 -98.5t-100 -76t-155.5 -30.5q-64 0 -114 19.5t-84.5 54t-53 82.5t-18.5 104zM150 250q0 -14 0.5 -26.5t1.5 -24.5q29 0 61 8.5t60 27.5t46 50.5t18 79.5q0 62 -21 98.5t-56 36.5q-45 0 -77.5 -63t-32.5 -187z" />
    <glyph glyph-name="uniE01B" unicode="&#xe01b;" horiz-adv-x="426" 
d="M-864 -228q0 36 13.5 64.5t36 47.5t52 29t61.5 10q48 0 95.5 -23t79.5 -72q-29 19 -56 27t-51 8q-50 0 -81 -30t-31 -80q0 -26 11.5 -51t33.5 -44t53 -30.5t69 -11.5q75 0 158 21.5t170 55t177.5 73.5t180.5 77q-13 41 -20 88.5t-7 103.5v455h-35v10h35q0 38 1 83
t16.5 84.5t54 66t113.5 26.5q33 0 58.5 -8t44 -21.5t29 -31t12.5 -35.5t-4.5 -35.5t-22.5 -30t-41 -18.5t-60 -3q23 19 33.5 43.5t10.5 48.5q0 32 -15 56.5t-45 24.5q-26 0 -39.5 -23.5t-19 -60.5t-6 -81t-0.5 -85h74v-10h-74v-420q0 -50 2.5 -96.5t9.5 -90.5q84 30 164 49
t157 19q56 0 108 -12.5t92 -35.5t63.5 -57.5t23.5 -77.5q0 -45 -27 -80.5t-72.5 -60t-105 -37.5t-125.5 -13q-55 0 -112 13t-108 43t-92.5 79t-66.5 121q-96 -39 -192 -83t-189 -81.5t-181.5 -62t-168.5 -24.5q-49 0 -93.5 13t-78 37t-53.5 59.5t-20 80.5zM215 -128
q10 -62 30 -114.5t52.5 -90.5t80 -59t113.5 -21q55 0 94.5 16t65 42t38 59t12.5 66q0 71 -51.5 115.5t-145.5 44.5q-69 0 -141.5 -16t-147.5 -42z" />
    <glyph glyph-name="uniE01C" unicode="&#xe01c;" horiz-adv-x="513" 
d="M99 107l21 25q-45 26 -67.5 72t-22.5 104q0 45 13.5 82.5t40.5 65t68 43t95 15.5q10 0 19 -0.5t18 -1.5q33 36 74 75.5t89 72t102 53.5t114 21q59 0 96.5 -20.5t51 -50.5t3.5 -63.5t-45 -59.5q0 30 -13.5 54.5t-37 41t-54 25.5t-65.5 9q-53 0 -98.5 -15.5t-83.5 -39.5
t-68.5 -52t-53.5 -53q85 -13 127 -68t42 -134q0 -45 -13.5 -83t-40.5 -65.5t-68 -43t-95 -15.5q-35 0 -64.5 7t-53.5 19q-14 -20 -4.5 -34t32 -24t53 -17t57.5 -13q30 -7 66 -17t67.5 -28t53 -46.5t21.5 -70.5q0 -41 -23 -69.5t-58.5 -46.5t-78.5 -26.5t-83 -8.5
q29 0 58 8.5t52.5 23.5t38.5 36.5t15 48.5q0 22 -15.5 38t-38.5 27.5t-50 18.5t-50 12q-40 9 -81 20t-67 29.5t-28.5 47t33.5 71.5zM247 109q42 0 69.5 50t27.5 149q0 98 -27.5 147.5t-69.5 49.5t-69.5 -49.5t-27.5 -147.5q0 -99 27.5 -149t69.5 -50z" />
    <glyph glyph-name="uniE01D" unicode="&#xe01d;" horiz-adv-x="590" 
d="M-807 726q37 101 102 159.5t165 66.5q55 4 106.5 -9t103 -34.5t105.5 -48.5t115 -51t130 -40.5t151 -18.5h29v-307q26 35 60 51t70 16q91 0 135.5 -48.5t44.5 -131.5v-270q0 -30 11.5 -42.5t28.5 -17.5h-200q17 5 28.5 17.5t11.5 42.5v240q0 43 -1 79.5t-7.5 63t-21 41.5
t-40.5 15q-60 0 -90 -59t-30 -190v-190q0 -30 11.5 -42.5t28.5 -17.5h-200q17 5 28.5 17.5t11.5 42.5v683q-75 8 -144 25.5t-140.5 34t-151 26.5t-176.5 3q-30 -2 -65 -7.5t-71 -17t-72 -31t-67 -50.5z" />
    <glyph glyph-name="uniE01E" unicode="&#xe01e;" horiz-adv-x="386" 
d="M169 21q28 0 56 -6v395q0 38 -10.5 51.5t-19.5 18.5l150 30v-369q0 -45 0.5 -86t-1.5 -79q57 -25 126 -52t145 -49.5t156.5 -37.5t159.5 -15q96 0 186.5 26.5t165.5 88.5q-16 -63 -46.5 -107.5t-73 -73t-95.5 -41.5t-115 -13q-56 0 -114 14.5t-114.5 38t-110 52.5
t-102.5 58t-92 54.5t-77 42.5q-3 -52 -12.5 -95t-32 -73.5t-60.5 -47t-98 -16.5q-50 0 -84.5 21.5t-51.5 54t-16.5 70t20.5 70t60 54t101 21.5zM130 -230q38 0 57.5 20.5t27.5 53.5t9 74t1 82v5q-28 6 -56 6q-48 0 -80.5 -18t-49.5 -44.5t-19.5 -58t9.5 -58t37.5 -44.5
t63.5 -18zM215 636q0 29 18 47t47 18t47 -18t18 -47t-18 -47t-47 -18t-47 18t-18 47z" />
    <glyph glyph-name="uniE01F" unicode="&#xe01f;" horiz-adv-x="567" 
d="M-540 952q55 4 106.5 -9t103 -34.5t105.5 -48.5t115 -51t130 -40.5t151 -18.5h29v-489l161 159q22 22 30.5 36.5t8.5 23.5t-5.5 13.5t-11.5 6.5h113q-21 -5 -49.5 -21.5t-72.5 -60.5l-61 -61l170 -295q31 -54 69 -62h-207q14 4 19.5 20.5t-8.5 41.5l-123 215l-33 -32
v-185q0 -30 11.5 -42.5t28.5 -17.5h-200q17 5 28.5 17.5t11.5 42.5v683q-75 8 -144 25.5t-140.5 34t-151 26.5t-176.5 3q-30 -2 -65 -7.5t-71 -17t-72 -31t-67 -50.5q37 101 102 159.5t165 66.5z" />
    <glyph glyph-name="uniE020" unicode="&#xe020;" horiz-adv-x="280" 
d="M-540 952q55 4 106.5 -9t103 -34.5t105.5 -48.5t115 -51t130 -40.5t151 -18.5h29v-690q0 -30 11.5 -42.5t28.5 -17.5h-200q17 5 28.5 17.5t11.5 42.5v683q-75 8 -144 25.5t-140.5 34t-151 26.5t-176.5 3q-30 -2 -65 -7.5t-71 -17t-72 -31t-67 -50.5q37 101 102 159.5
t165 66.5z" />
    <glyph glyph-name="uniE021" unicode="&#xe021;" horiz-adv-x="856" 
d="M-122 -77q48 0 95.5 -23t79.5 -72q-29 19 -56 27t-51 8q-50 0 -81 -30t-31 -80q0 -26 11.5 -51t33.5 -44t53 -30.5t69 -11.5q75 0 158 21.5t170 55t177.5 73.5t180.5 77q-13 41 -20 88.5t-7 103.5v265q0 43 -1 79.5t-7 63t-18.5 41.5t-36.5 15q-55 0 -82 -59t-27 -190
v-190q0 -30 10.5 -42.5t25.5 -17.5h-192q15 5 25.5 17.5t10.5 42.5v240q0 43 -1 79.5t-7 63t-19 41.5t-37 15q-54 0 -81 -59t-27 -190v-190q0 -30 10.5 -42.5t25.5 -17.5h-192q15 5 25.5 17.5t10.5 42.5v350q0 38 -9 51.5t-17 18.5l146 30v-67q23 35 54 51t64 16
q64 0 103.5 -24.5t56.5 -69.5q23 51 58.5 72.5t73.5 21.5q90 0 132 -48.5t42 -131.5v-260q0 -50 2.5 -96.5t9.5 -90.5q84 30 164 49t157 19q56 0 108 -12.5t92 -35.5t63.5 -57.5t23.5 -77.5q0 -45 -27 -80.5t-72.5 -60t-105 -37.5t-125.5 -13q-55 0 -112 13t-108 43
t-92.5 79t-66.5 121q-96 -39 -192 -83t-189 -81.5t-181.5 -62t-168.5 -24.5q-49 0 -93.5 13t-78 37t-53.5 59.5t-20 80.5q0 36 13.5 64.5t36 47.5t52 29t61.5 10zM1070 -413q55 0 94.5 16t65 42t38 59t12.5 66q0 71 -51.5 115.5t-145.5 44.5q-69 0 -141.5 -16t-147.5 -42
q10 -62 30 -114.5t52.5 -90.5t80 -59t113.5 -21z" />
    <glyph glyph-name="uniE022" unicode="&#xe022;" horiz-adv-x="590" 
d="M-392 -77q48 0 95.5 -23t79.5 -72q-29 19 -56 27t-51 8q-50 0 -81 -30t-31 -80q0 -26 11.5 -51t33.5 -44t53 -30.5t69 -11.5q75 0 158 21.5t170 55t177.5 73.5t180.5 77q-13 41 -20 88.5t-7 103.5v265q0 43 -1 79.5t-7.5 63t-21 41.5t-40.5 15q-60 0 -90 -59t-30 -190
v-190q0 -30 11.5 -42.5t28.5 -17.5h-200q17 5 28.5 17.5t11.5 42.5v350q0 38 -10.5 51.5t-19.5 18.5l150 30v-67q26 35 60 51t70 16q91 0 135.5 -48.5t44.5 -131.5v-260q0 -50 2.5 -96.5t9.5 -90.5q84 30 164 49t157 19q56 0 108 -12.5t92 -35.5t63.5 -57.5t23.5 -77.5
q0 -45 -27 -80.5t-72.5 -60t-105 -37.5t-125.5 -13q-55 0 -112 13t-108 43t-92.5 79t-66.5 121q-96 -39 -192 -83t-189 -81.5t-181.5 -62t-168.5 -24.5q-49 0 -93.5 13t-78 37t-53.5 59.5t-20 80.5q0 36 13.5 64.5t36 47.5t52 29t61.5 10zM800 -413q55 0 94.5 16t65 42
t38 59t12.5 66q0 71 -51.5 115.5t-145.5 44.5q-69 0 -141.5 -16t-147.5 -42q10 -62 30 -114.5t52.5 -90.5t80 -59t113.5 -21z" />
    <glyph glyph-name="uniE023" unicode="&#xe023;" horiz-adv-x="531" 
d="M-263 -161q77 0 157 -19t164 -49q7 44 9.5 90.5t2.5 96.5v452q0 38 -10.5 51.5t-19.5 18.5l150 30v-44q24 24 50.5 34t49.5 10q41 0 79.5 -10.5t67.5 -36t46.5 -68t17.5 -105.5t-18.5 -118t-53 -95.5t-82 -63.5t-106.5 -23q-13 0 -26 1.5t-25 5.5v-74q0 -56 -7 -103.5
t-20 -88.5q90 -37 180.5 -77t177.5 -73.5t170 -55t158 -21.5q38 0 69 11.5t53 30.5t33.5 44t11.5 51q0 50 -31 80t-81 30q-24 0 -51 -8t-56 -27q32 49 79.5 72t95.5 23q32 0 61.5 -10t52 -29t36 -47.5t13.5 -64.5q0 -45 -20 -80.5t-53.5 -59.5t-78 -37t-93.5 -13
q-80 0 -168.5 24.5t-181.5 62t-189 81.5t-192 83q-25 -72 -66.5 -121t-92.5 -79t-108 -43t-112 -13q-66 0 -125.5 13t-105 37.5t-72.5 60t-27 80.5q0 43 23.5 77.5t63.5 57.5t92 35.5t108 12.5zM-220 -525q66 0 113.5 21t80 59t52.5 90.5t30 114.5q-75 26 -147.5 42
t-141.5 16q-94 0 -145.5 -44.5t-51.5 -115.5q0 -33 12.5 -66t38 -59t65 -42t94.5 -16zM190 409v-386q20 -23 51 -23q29 0 51 16.5t37.5 42.5t25.5 57.5t16 63t8 58.5t2 43q0 31 -3 69t-13 71.5t-28 56t-47 22.5q-32 0 -58 -20.5t-42 -70.5z" />
    <glyph glyph-name="uniE024" unicode="&#xe024;" horiz-adv-x="551" 
d="M-594 -340q0 36 13.5 64.5t36 47.5t52 29t61.5 10q48 0 95.5 -23t79.5 -72q-29 19 -56 27t-51 8q-50 0 -81 -30t-31 -80q0 -26 11.5 -51t33.5 -44t53 -30.5t69 -11.5q75 0 158 21.5t170 55t177.5 73.5t180.5 77q-13 41 -20 88.5t-7 103.5v111q-24 -24 -50.5 -34
t-49.5 -10q-41 0 -79 10.5t-67.5 36t-47 68t-17.5 105.5t18.5 118t53 95.5t82.5 63.5t106 23q34 0 61 -10h150q-17 -5 -28.5 -17.5t-11.5 -42.5v-482q0 -50 2.5 -96.5t9.5 -90.5q84 30 164 49t157 19q56 0 108 -12.5t92 -35.5t63.5 -57.5t23.5 -77.5q0 -45 -27 -80.5
t-72.5 -60t-105 -37.5t-125.5 -13q-55 0 -112 13t-108 43t-92.5 79t-66.5 121q-96 -39 -192 -83t-189 -81.5t-181.5 -62t-168.5 -24.5q-49 0 -93.5 13t-78 37t-53.5 59.5t-20 80.5zM485 -240q10 -62 30 -114.5t52.5 -90.5t80 -59t113.5 -21q55 0 94.5 16t65 42t38 59
t12.5 66q0 71 -51.5 115.5t-145.5 44.5q-69 0 -141.5 -16t-147.5 -42zM160 219q0 -31 3.5 -69t13 -71.5t27.5 -56t47 -22.5q32 0 58 20.5t42 70.5v349q0 26 -12 43t-39 17q-29 0 -51 -16.5t-37.5 -42.5t-25.5 -57.5t-16 -63t-8 -58.5t-2 -43z" />
    <glyph glyph-name="uniE025" unicode="&#xe025;" horiz-adv-x="467" 
d="M-702 -77q48 0 95.5 -23t79.5 -72q-29 19 -56 27t-51 8q-50 0 -81 -30t-31 -80q0 -26 11.5 -51t33.5 -44t53 -30.5t69 -11.5q75 0 158 21.5t170 55t177.5 73.5t180.5 77q-13 41 -20 88.5t-7 103.5v375q0 38 -10.5 51.5t-19.5 18.5l150 30v-55q23 29 53 42t67 13
q42 0 70.5 -15t44 -37t17 -47t-12 -45.5t-43 -32t-75.5 -7.5q26 22 39 51.5t12 56.5t-16.5 46t-45.5 19q-60 0 -85 -59t-25 -190v-180q0 -50 2.5 -96.5t9.5 -90.5q84 30 164 49t157 19q56 0 108 -12.5t92 -35.5t63.5 -57.5t23.5 -77.5q0 -45 -27 -80.5t-72.5 -60t-105 -37.5
t-125.5 -13q-55 0 -112 13t-108 43t-92.5 79t-66.5 121q-96 -39 -192 -83t-189 -81.5t-181.5 -62t-168.5 -24.5q-49 0 -93.5 13t-78 37t-53.5 59.5t-20 80.5q0 36 13.5 64.5t36 47.5t52 29t61.5 10zM490 -413q55 0 94.5 16t65 42t38 59t12.5 66q0 71 -51.5 115.5
t-145.5 44.5q-69 0 -141.5 -16t-147.5 -42q10 -62 30 -114.5t52.5 -90.5t80 -59t113.5 -21z" />
    <glyph glyph-name="uniE026" unicode="&#xe026;" horiz-adv-x="324" 
d="M20 500q31 5 56.5 21.5t44 39t31 48.5t18.5 51h5v-160q49 0 93.5 13.5t87 34t83 44.5t81 44.5t82 34t86.5 13.5q34 0 70 -12.5t66 -35t50.5 -53.5t23.5 -69q-21 17 -44.5 32t-51 26t-59.5 17.5t-70 6.5q-89 0 -156.5 -16.5t-124 -36.5t-108.5 -36.5t-109 -16.5v-240
q0 -56 1.5 -95.5t8.5 -65t20 -37.5t35 -12q27 0 43.5 19.5t25.5 49.5q0 -14 -4 -34.5t-16.5 -39t-36 -32t-62.5 -13.5q-56 0 -84 28t-39.5 75t-11.5 108.5v129.5v159h-35v10z" />
    <glyph glyph-name="uniE027" unicode="&#xe027;" horiz-adv-x="580" 
d="M-402 -77q48 0 95.5 -23t79.5 -72q-29 19 -56 27t-51 8q-50 0 -81 -30t-31 -80q0 -26 11.5 -51t33.5 -44t53 -30.5t69 -11.5q75 0 158 21.5t170 55t177.5 73.5t180.5 77q-13 41 -20 88t-7 103q-24 -23 -52.5 -33.5t-57.5 -10.5q-91 0 -140.5 48.5t-49.5 131.5v240
q0 38 -10.5 51.5t-19.5 18.5l150 30v-310q0 -43 2.5 -79.5t11 -63t24.5 -41.5t42 -15q35 0 60.5 20t39.5 64v325q0 38 -10.5 51.5t-19.5 18.5l150 30v-440q0 -50 2.5 -96.5t9.5 -90.5q84 30 164 49t157 19q56 0 108 -12.5t92 -35.5t63.5 -57.5t23.5 -77.5q0 -45 -27 -80.5
t-72.5 -60t-105 -37.5t-125.5 -13q-55 0 -112 13t-108 43t-92.5 79t-66.5 121q-96 -39 -192 -83t-189 -81.5t-181.5 -62t-168.5 -24.5q-49 0 -93.5 13t-78 37t-53.5 59.5t-20 80.5q0 36 13.5 64.5t36 47.5t52 29t61.5 10zM790 -413q55 0 94.5 16t65 42t38 59t12.5 66
q0 71 -51.5 115.5t-145.5 44.5q-69 0 -141.5 -16t-147.5 -42q10 -62 30 -114.5t52.5 -90.5t80 -59t113.5 -21z" />
    <glyph glyph-name="uniE028" unicode="&#xe028;" horiz-adv-x="555" 
d="M233 500q-7 -2 -14 -5t-10.5 -9.5t-2.5 -17t9 -28.5l135 -286l37 95q31 77 61.5 157.5t63 155.5t68.5 141t79 115t93.5 76t111.5 25q73 -3 115 -49.5t54 -127.5q-6 7 -17.5 16t-30 18t-46 15.5t-66.5 7.5q-68 2 -124 -24t-102.5 -70.5t-84 -103.5t-68.5 -123t-56.5 -129
t-48.5 -122l-89 -227h-10l-208 440q-16 35 -35 45.5t-37 14.5h223z" />
    <glyph glyph-name="uniE029" unicode="&#xe029;" horiz-adv-x="778" 
d="M231 500q-7 -2 -14 -5t-10.5 -9.5t-2.5 -17t9 -28.5l137 -295l45 114l-83 181q-8 18 -17 29t-18 17t-18 9t-18 5h221q-7 -2 -13.5 -5t-10.5 -9.5t-3 -17t9 -28.5l133 -291l38 101q29 78 59 158.5t62.5 155.5t69 140.5t80 114t94.5 75.5t112 25q73 -3 115 -49.5t54 -127.5
q-6 7 -17.5 16t-30 18t-46 15.5t-66.5 7.5q-68 2 -124.5 -24t-103 -70.5t-84.5 -103t-69 -123t-56 -129.5t-47 -122l-89 -237h-10l-117 256l-101 -256h-10l-209 450q-16 35 -34.5 45.5t-36.5 14.5h221z" />
    <glyph glyph-name="uniE02A" unicode="&#xe02a;" horiz-adv-x="568" 
d="M15 0l20 4t21 7t23.5 16.5t27.5 32.5l122 175l-121 205q-11 18 -21.5 29t-21 17t-20.5 9t-19 5h229q-7 -2 -13.5 -5t-8.5 -9t0.5 -17t13.5 -29l79 -134l82 134q13 21 15 32.5t-2.5 16.5t-12.5 7t-15 4h112q-9 -2 -19 -4t-20.5 -7t-21.5 -16.5t-24 -32.5l-88 -144
l139 -236q25 -42 49.5 -82.5t51.5 -73t58.5 -52t70.5 -19.5q44 0 73 16.5t56 54.5q-3 -16 -13.5 -35t-31 -35.5t-50.5 -27.5t-71 -11q-51 0 -92.5 13t-79.5 43.5t-76.5 81.5t-83.5 127l-98 166l-115 -166q-15 -21 -18.5 -32.5t0.5 -16.5t11.5 -7t14.5 -4h-112z" />
    <glyph glyph-name="uniE02B" unicode="&#xe02b;" horiz-adv-x="565" 
d="M128 -63q-23 -11 -34.5 -38t-10 -54.5t16.5 -49t44 -21.5q17 0 32 7.5t31 28t34 56.5t41 93l17 41h-41l-186 440q-13 30 -28.5 42.5t-33.5 17.5h210q-15 -5 -23 -17t5 -43l140 -331l55 140q31 77 61.5 157.5t63 155.5t68.5 141t79 115t93.5 76t111.5 25q73 -3 115 -49.5
t54 -127.5q-6 7 -17.5 16t-30 18t-46 15.5t-66.5 7.5q-68 2 -124 -24t-102.5 -70.5t-84 -103.5t-68.5 -123t-57 -129t-48 -122l-89 -227l-21 -51q-23 -56 -42 -96.5t-37.5 -67t-39 -39t-46.5 -12.5q-42 0 -69.5 16t-41.5 40t-14 51.5t14.5 50t43 36t71.5 9.5z" />
    <glyph glyph-name="uniE02C" unicode="&#xe02c;" horiz-adv-x="423" 
d="M241 490h-19q-17 0 -40.5 -6.5t-49 -18t-50.5 -27t-45 -32.5l20 94h320l-225 -490h2q80 0 154 -17.5t148.5 -38.5t154 -38.5t171.5 -17.5q30 0 66.5 3t74.5 12.5t75.5 28t68.5 49.5q-15 -102 -81 -157.5t-196 -55.5q-67 0 -122.5 16.5t-105 41t-96 53.5t-95.5 53.5
t-102.5 41t-118.5 16.5h-135z" />
    <glyph glyph-name="uniE02D" unicode="&#xe02d;" horiz-adv-x="560" 
d="M80 60v350q0 38 -10.5 51.5t-19.5 18.5l150 30v-54q13 29 35.5 67.5t50.5 73.5t60.5 59.5t65.5 24.5q29 0 47 -18t18 -47t-18 -47t-47 -18q-32 0 -48 19q-20 24 -41 24q-20 0 -36.5 -17t-29.5 -37q-38 -64 -47.5 -134.5t-9.5 -155.5v-190q0 -30 11.5 -42.5t28.5 -17.5
h-200q17 5 28.5 17.5t11.5 42.5zM360 60v350q0 38 -10.5 51.5t-19.5 18.5l150 30v-450q0 -30 11.5 -42.5t28.5 -17.5h-200q17 5 28.5 17.5t11.5 42.5z" />
    <glyph glyph-name="uniE02E" unicode="&#xe02e;" horiz-adv-x="560" 
d="M200 870q129 0 204.5 -86t75.5 -254v-470q0 -30 11.5 -42.5t28.5 -17.5h-200q17 5 28.5 17.5t11.5 42.5v476q0 50 -2 106.5t-17 104.5t-48.5 80t-96.5 32q-50 0 -90.5 -15.5t-69.5 -42.5t-45 -63t-16 -78q0 -68 31.5 -108.5t73.5 -56.5v225l120 -24q42 -11 61 -35.5
t20 -67.5q1 -42 -22.5 -69.5t-58.5 -40.5v-423q0 -30 11.5 -42.5t28.5 -17.5h-200q17 5 28.5 17.5t11.5 42.5v424q-23 9 -44 24t-36.5 36.5t-25 50.5t-9.5 65q0 46 17.5 84.5t49 66.5t74.5 43.5t94 15.5zM200 494q32 11 51.5 35.5t19.5 62.5q0 24 -7 40t-17.5 26t-23 13.5
t-23.5 2.5v-180z" />
    <glyph glyph-name="uniE02F" unicode="&#xe02f;" horiz-adv-x="560" 
d="M50 730l150 30v-211q23 26 41.5 57.5t39.5 59t47.5 46t63.5 18.5q41 0 64.5 -28t23.5 -66q0 -29 -18 -47t-47 -18t-47 18t-18 47t18 47t47 18q19 0 36 -10q-8 13 -22 21t-37 8q-38 0 -63.5 -19.5t-45.5 -48t-39 -61t-44 -58.5v-473q0 -30 11.5 -42.5t28.5 -17.5h-200
q17 5 28.5 17.5t11.5 42.5v425q-28 2 -51.5 13t-41 29.5t-27 43.5t-9.5 55q0 38 25 66.5t74 37.5zM360 60v350q0 38 -10.5 51.5t-19.5 18.5l150 30v-450q0 -30 11.5 -42.5t28.5 -17.5h-200q17 5 28.5 17.5t11.5 42.5zM80 495v139q0 32 -13 46.5t-30 14.5q-12 0 -23.5 -6
t-21 -17t-15.5 -26.5t-6 -35.5q0 -49 29 -80.5t80 -34.5z" />
    <glyph glyph-name="uniE030" unicode="&#xe030;" horiz-adv-x="870" 
d="M70 636q0 29 18 47t47 18t47 -18t18 -47q0 -26 -14.5 -43.5t-39.5 -20.5q38 -14 80 -18t77 -4q14 0 28.5 1t28.5 3v26q0 54 4.5 104.5t21.5 89t51.5 62t95.5 23.5q41 0 63 -25.5t22 -67.5q0 -67 -39.5 -114.5t-98.5 -74.5v-134q26 35 60 51t70 16q91 0 135.5 -48.5
t44.5 -131.5v-270q0 -30 11.5 -42.5t28.5 -17.5h-200q17 5 28.5 17.5t11.5 42.5v240q0 43 -1 79.5t-7.5 63t-21 41.5t-40.5 15q-60 0 -90 -59t-30 -190v-190q0 -30 11.5 -42.5t28.5 -17.5h-200q17 5 28.5 17.5t11.5 42.5v484q-14 -2 -28.5 -3t-28.5 -1q-19 0 -44.5 1.5
t-53.5 5.5t-54.5 11.5t-47.5 19.5q-15 8 -24 23t-9 35zM80 60v350q0 38 -10.5 51.5t-19.5 18.5l150 30v-450q0 -30 11.5 -42.5t28.5 -17.5h-200q17 5 28.5 17.5t11.5 42.5zM480 588q56 26 92 70t36 107q0 36 -19.5 60t-54.5 24q-20 0 -31 -17.5t-16 -48.5t-6 -74t-1 -93v-28
z" />
    <glyph glyph-name="uniE031" unicode="&#xe031;" horiz-adv-x="821" 
d="M30 210q0 63 18.5 118t53 95.5t82.5 63.5t106 23q13 0 26 -1.5t25 -5.5v74q-59 27 -98.5 74.5t-39.5 114.5q0 42 22 67.5t63 25.5q61 0 95.5 -23.5t52 -62t21.5 -89t4 -104.5v-26q14 -2 28.5 -3t28.5 -1q32 0 71 5t75 17q-24 4 -38.5 21t-14.5 43q0 29 18 47t47 18
t47 -18t18 -47q0 -23 -11 -38.5t-30 -22.5q-21 -9 -45.5 -16t-49.5 -11t-47.5 -6t-39.5 -2q-14 0 -28.5 1t-28.5 3v-484q0 -30 11.5 -42.5t28.5 -17.5h-160v34q-24 -24 -50.5 -34t-49.5 -10q-41 0 -79 10.5t-67.5 36t-47 68t-17.5 105.5zM150 219q0 -31 3.5 -69t13 -71.5
t27.5 -56t47 -22.5q32 0 58 20.5t42 70.5v386q-20 23 -51 23q-29 0 -51 -16.5t-37.5 -42.5t-25.5 -57.5t-16 -63t-8 -58.5t-2 -43zM581 0q17 5 28.5 17.5t11.5 42.5v350q0 38 -10.5 51.5t-19.5 18.5l150 30v-450q0 -30 11.5 -42.5t28.5 -17.5h-200zM213 765q0 -63 36 -107
t92 -70v28q0 50 -1 93t-6 74t-16 48.5t-31 17.5q-35 0 -54.5 -24t-19.5 -60z" />
    <glyph glyph-name="uniE032" unicode="&#xe032;" horiz-adv-x="821" 
d="M70 636q0 29 18 47t47 18t47 -18t18 -47q0 -26 -14.5 -43.5t-39.5 -20.5q38 -14 80 -18t77 -4q14 0 28.5 1t28.5 3v26q0 54 4.5 104.5t21.5 89t51.5 62t95.5 23.5q41 0 63 -25.5t22 -67.5q0 -67 -39.5 -114.5t-98.5 -74.5v-111q24 24 50.5 34t49.5 10q41 0 79.5 -10.5
t67.5 -36t46.5 -68t17.5 -105.5t-18.5 -118t-53 -95.5t-82 -63.5t-106.5 -23q-34 0 -61 10h-150q17 5 28.5 17.5t11.5 42.5v484q-14 -2 -28.5 -3t-28.5 -1q-19 0 -44.5 1.5t-53.5 5.5t-54.5 11.5t-47.5 19.5q-15 8 -24 23t-9 35zM480 60q0 -26 12 -43t39 -17q29 0 51 16.5
t37.5 42.5t25.5 57.5t16 63t8 58.5t2 43q0 31 -3 69t-13 71.5t-28 56t-47 22.5q-32 0 -58 -20.5t-42 -70.5v-349zM80 60v350q0 38 -10.5 51.5t-19.5 18.5l150 30v-450q0 -30 11.5 -42.5t28.5 -17.5h-200q17 5 28.5 17.5t11.5 42.5zM480 588q56 26 92 70t36 107
q0 36 -19.5 60t-54.5 24q-20 0 -31 -17.5t-16 -48.5t-6 -74t-1 -93v-28z" />
    <glyph glyph-name="uniE033" unicode="&#xe033;" horiz-adv-x="847" 
d="M70 636q0 29 18 47t47 18t47 -18t18 -47q0 -26 -14.5 -43.5t-39.5 -20.5q38 -14 80 -18t77 -4q14 0 28.5 1t28.5 3v26q0 54 4.5 104.5t21.5 89t51.5 62t95.5 23.5q41 0 63 -25.5t22 -67.5q0 -67 -39.5 -114.5t-98.5 -74.5v-316l161 159q22 22 30.5 36.5t8.5 23.5
t-5.5 13.5t-11.5 6.5h113q-21 -5 -49.5 -21.5t-72.5 -60.5l-61 -61l170 -295q31 -54 69 -62h-207q14 4 19.5 20.5t-8.5 41.5l-123 215l-33 -32v-185q0 -30 11.5 -42.5t28.5 -17.5h-200q17 5 28.5 17.5t11.5 42.5v484q-14 -2 -28.5 -3t-28.5 -1q-19 0 -44.5 1.5t-53.5 5.5
t-54.5 11.5t-47.5 19.5q-15 8 -24 23t-9 35zM40 0q17 5 28.5 17.5t11.5 42.5v350q0 38 -10.5 51.5t-19.5 18.5l150 30v-450q0 -30 11.5 -42.5t28.5 -17.5h-200zM480 588q56 26 92 70t36 107q0 36 -19.5 60t-54.5 24q-20 0 -31 -17.5t-16 -48.5t-6 -74t-1 -93v-28z" />
    <glyph glyph-name="uniE034" unicode="&#xe034;" horiz-adv-x="604" 
d="M20 490v10q31 5 56.5 21.5t44 39t31 48.5t18.5 51h5v-153q25 35 57.5 69.5t69.5 62.5t77 45t80 17q29 0 47 -18t18 -47t-18 -47t-47 -18q-36 0 -55 29q-11 17 -24.5 24.5t-28.5 7.5q-25 0 -51.5 -16.5t-50.5 -39t-43.5 -46.5t-30.5 -40v-240q0 -56 1.5 -95.5t8.5 -65
t20 -37.5t35 -12q27 0 43.5 19.5t25.5 49.5q0 -14 -4 -34.5t-16.5 -39t-36 -32t-62.5 -13.5q-56 0 -84 28t-39.5 75t-11.5 108.5v129.5v159h-35zM364 0q17 5 28.5 17.5t11.5 42.5v350q0 38 -10.5 51.5t-19.5 18.5l150 30v-450q0 -30 11.5 -42.5t28.5 -17.5h-200z" />
    <glyph glyph-name="uniE035" unicode="&#xe035;" horiz-adv-x="835" 
d="M10 500h223q-7 -2 -14 -5t-10.5 -9.5t-2.5 -17t9 -28.5l135 -286l105 268q9 24 21.5 54t28.5 61t35.5 60.5t42.5 52.5t50 37t57 14q29 0 47 -18t18 -47t-18 -47t-47 -18q-27 0 -45 16q-23 16 -45 16q-25 0 -45 -19t-36.5 -46.5t-29 -58.5t-22.5 -55l-167 -424h-10
l-208 440q-16 35 -35 45.5t-37 14.5zM635 60v350q0 38 -10.5 51.5t-19.5 18.5l150 30v-450q0 -30 11.5 -42.5t28.5 -17.5h-200q17 5 28.5 17.5t11.5 42.5z" />
    <glyph glyph-name="uniE036" unicode="&#xe036;" horiz-adv-x="1058" 
d="M231 500q-7 -2 -14 -5t-10.5 -9.5t-2.5 -17t9 -28.5l137 -295l45 114l-83 181q-8 18 -17 29t-18 17t-18 9t-18 5h221q-7 -2 -13.5 -5t-10.5 -9.5t-3 -17t9 -28.5l133 -291l102 273q9 24 21.5 53.5t28.5 60t35 60t41.5 52.5t48.5 37.5t56 15.5q30 0 49.5 -16.5t19.5 -48.5
q0 -29 -18 -47t-47 -18q-27 0 -45 16q-23 16 -45 16q-25 0 -45 -19t-36.5 -46.5t-29 -58.5t-22.5 -55l-163 -434h-10l-117 256l-101 -256h-10l-209 450q-16 35 -34.5 45.5t-36.5 14.5h221zM818 0q17 5 28.5 17.5t11.5 42.5v350q0 38 -10.5 51.5t-19.5 18.5l150 30v-450
q0 -30 11.5 -42.5t28.5 -17.5h-200z" />
    <glyph glyph-name="uniE037" unicode="&#xe037;" horiz-adv-x="845" 
d="M128 -63q-23 -11 -34.5 -38t-10 -54.5t16.5 -49t44 -21.5q17 0 32 7.5t31 28t34 56.5t41 93l17 41h-41l-186 440q-13 30 -28.5 42.5t-33.5 17.5h210q-15 -5 -23 -17t5 -43l140 -331l123 313q9 24 21.5 53.5t28.5 60t35 60t41.5 52.5t48.5 37.5t56 15.5q30 0 49.5 -16.5
t19.5 -48.5q0 -29 -18 -47t-47 -18q-27 0 -45 16q-23 16 -45 16q-25 0 -45 -19t-36.5 -46.5t-29 -58.5t-22.5 -55l-167 -424l-21 -51q-23 -56 -42 -96.5t-37.5 -67t-39 -39t-46.5 -12.5q-42 0 -69.5 16t-41.5 40t-14 51.5t14.5 50t43 36t71.5 9.5zM645 60v350
q0 38 -10.5 51.5t-19.5 18.5l150 30v-450q0 -30 11.5 -42.5t28.5 -17.5h-200q17 5 28.5 17.5t11.5 42.5z" />
    <glyph glyph-name="uniE038" unicode="&#xe038;" horiz-adv-x="795" 
d="M40 0q17 5 28.5 17.5t11.5 42.5v350q0 38 -10.5 51.5t-19.5 18.5l150 30v-55q23 29 53 42t67 13q35 0 61.5 -11.5t43.5 -28.5q16 16 41.5 28t58.5 12q75 0 114 -26.5t56 -66t18.5 -84.5t1.5 -83v-190q0 -30 11.5 -42.5t28.5 -17.5h-160v35q-23 -23 -50.5 -34t-53.5 -11
q-6 0 -21.5 0.5t-35 4.5t-40.5 12.5t-38.5 24t-29 40t-11.5 59.5q0 46 18 77.5t50.5 53.5t77 36.5t97.5 25.5l37 8q0 48 -3 80.5t-10.5 52t-21 27.5t-35.5 8q-23 0 -50 -9t-43 -29q17 -22 19.5 -48t-10.5 -47t-43 -33t-77 -8q26 22 39 51.5t12 56.5t-16.5 46t-45.5 19
q-60 0 -85 -59t-25 -190v-190q0 -30 11.5 -42.5t28.5 -17.5h-200zM435 120q0 -17 2.5 -37.5t10 -38.5t20.5 -30t33 -12q72 0 94 90v230l-23 -6q-39 -10 -65.5 -31t-42 -47.5t-22.5 -57t-7 -60.5z" />
    <glyph glyph-name="uniE039" unicode="&#xe039;" horiz-adv-x="1308" 
d="M30 250q0 56 16.5 104t47.5 82.5t75.5 54t100.5 19.5q49 0 82 -15.5t50.5 -38.5t19 -49t-12 -47.5t-43 -34t-75.5 -8.5q26 22 37.5 53t8.5 60t-20 49.5t-47 20.5q-53 0 -86.5 -63t-33.5 -187q0 -119 35 -181.5t95 -62.5q47 0 84.5 26t67.5 64.5t53.5 83t42.5 82.5v148
q0 38 -9 51.5t-17 18.5l146 30v-67q23 35 54 51t64 16q64 0 103.5 -24.5t56.5 -69.5q23 51 58.5 72.5t73.5 21.5q90 0 132 -48.5t42 -131.5v-270q0 -30 10.5 -42.5t25.5 -17.5h-192q15 5 25.5 17.5t10.5 42.5v240q0 43 -1 79.5t-7 63t-18.5 41.5t-36.5 15q-55 0 -82 -59
t-27 -190v-190q0 -30 10.5 -42.5t25.5 -17.5h-192q15 5 25.5 17.5t10.5 42.5v240q0 43 -1 79.5t-7 63t-19 41.5t-37 15q-54 0 -81 -59t-27 -190v-190q0 -30 10.5 -42.5t25.5 -17.5h-192q15 5 25.5 17.5t10.5 42.5v169q-21 -41 -45.5 -83.5t-55 -77t-69 -56.5t-88.5 -22
q-56 0 -100.5 19.5t-75.5 54t-47.5 82.5t-16.5 104z" />
    <glyph glyph-name="uniE03A" unicode="&#xe03a;" horiz-adv-x="1042" 
d="M30 250q0 56 16.5 104t47.5 82.5t75.5 54t100.5 19.5q49 0 82 -15.5t50.5 -38.5t19 -49t-12 -47.5t-43 -34t-75.5 -8.5q26 22 37.5 53t8.5 60t-20 49.5t-47 20.5q-53 0 -86.5 -63t-33.5 -187q0 -119 35 -181.5t95 -62.5q48 0 86 27t69 67t54.5 86t42.5 84v390
q0 38 -10.5 51.5t-19.5 18.5l150 30v-317q26 35 60 51t70 16q91 0 135.5 -48.5t44.5 -131.5v-270q0 -30 11.5 -42.5t28.5 -17.5h-200q17 5 28.5 17.5t11.5 42.5v240q0 43 -1 79.5t-7.5 63t-21 41.5t-40.5 15q-60 0 -90 -59t-30 -190v-190q0 -30 11.5 -42.5t28.5 -17.5h-200
q17 5 28.5 17.5t11.5 42.5v177q-21 -42 -46 -85.5t-56 -79.5t-70 -59t-90 -23q-56 0 -100.5 19.5t-75.5 54t-47.5 82.5t-16.5 104z" />
    <glyph glyph-name="uniE03B" unicode="&#xe03b;" horiz-adv-x="1042" 
d="M30 250q0 56 16.5 104t47.5 82.5t75.5 54t100.5 19.5q49 0 82 -15.5t50.5 -38.5t19 -49t-12 -47.5t-43 -34t-75.5 -8.5q26 22 37.5 53t8.5 60t-20 49.5t-47 20.5q-53 0 -86.5 -63t-33.5 -187q0 -119 35 -181.5t95 -62.5q48 0 86 27t69 67t54.5 86t42.5 84v140
q0 38 -10.5 51.5t-19.5 18.5l150 30v-67q26 35 60 51t70 16q91 0 135.5 -48.5t44.5 -131.5v-270q0 -30 11.5 -42.5t28.5 -17.5h-200q17 5 28.5 17.5t11.5 42.5v240q0 43 -1 79.5t-7.5 63t-21 41.5t-40.5 15q-60 0 -90 -59t-30 -190v-190q0 -30 11.5 -42.5t28.5 -17.5h-200
q17 5 28.5 17.5t11.5 42.5v177q-21 -42 -46 -85.5t-56 -79.5t-70 -59t-90 -23q-56 0 -100.5 19.5t-75.5 54t-47.5 82.5t-16.5 104z" />
    <glyph glyph-name="uniE03C" unicode="&#xe03c;" horiz-adv-x="983" 
d="M30 250q0 56 16.5 104t47.5 82.5t75.5 54t100.5 19.5q49 0 82 -15.5t50.5 -38.5t19 -49t-12 -47.5t-43 -34t-75.5 -8.5q26 22 37.5 53t8.5 60t-20 49.5t-47 20.5q-53 0 -86.5 -63t-33.5 -187q0 -119 35 -181.5t95 -62.5q45 0 81 24t65.5 60t53 79t42.5 81v160
q0 38 -10.5 51.5t-19.5 18.5l150 30v-44q24 24 50.5 34t49.5 10q41 0 79.5 -10.5t67.5 -36t46.5 -68t17.5 -105.5t-18.5 -118t-53 -95.5t-82 -63.5t-106.5 -23q-13 0 -26 1.5t-25 5.5v-177q0 -38 10.5 -51.5t19.5 -18.5h-180q9 5 19.5 18.5t10.5 51.5v398q-21 -40 -45 -80.5
t-54 -73.5t-67.5 -53.5t-85.5 -20.5q-56 0 -100.5 19.5t-75.5 54t-47.5 82.5t-16.5 104zM642 409v-386q20 -23 51 -23q29 0 51 16.5t37.5 42.5t25.5 57.5t16 63t8 58.5t2 43q0 31 -3 69t-13 71.5t-28 56t-47 22.5q-32 0 -58 -20.5t-42 -70.5z" />
    <glyph glyph-name="uniE03D" unicode="&#xe03d;" horiz-adv-x="993" 
d="M30 250q0 56 16.5 104t47.5 82.5t75.5 54t100.5 19.5q49 0 82 -15.5t50.5 -38.5t19 -49t-12 -47.5t-43 -34t-75.5 -8.5q26 22 37.5 53t8.5 60t-20 49.5t-47 20.5q-53 0 -86.5 -63t-33.5 -187q0 -119 35 -181.5t95 -62.5q48 0 86 27t69 67t54.5 86t42.5 84v390
q0 38 -10.5 51.5t-19.5 18.5l150 30v-294q24 24 50.5 34t49.5 10q41 0 79.5 -10.5t67.5 -36t46.5 -68t17.5 -105.5t-18.5 -118t-53 -95.5t-82 -63.5t-106.5 -23q-34 0 -61 10h-150q17 5 28.5 17.5t11.5 42.5v177q-21 -42 -46 -85.5t-56 -79.5t-70 -59t-90 -23
q-56 0 -100.5 19.5t-75.5 54t-47.5 82.5t-16.5 104zM652 409v-349q0 -26 12 -43t39 -17q29 0 51 16.5t37.5 42.5t25.5 57.5t16 63t8 58.5t2 43q0 31 -3 69t-13 71.5t-28 56t-47 22.5q-32 0 -58 -20.5t-42 -70.5z" />
    <glyph glyph-name="uniE03E" unicode="&#xe03e;" horiz-adv-x="904" 
d="M30 250q0 56 16.5 104t47.5 82.5t75.5 54t100.5 19.5q49 0 82 -15.5t50.5 -38.5t19 -49t-12 -47.5t-43 -34t-75.5 -8.5q26 22 37.5 53t8.5 60t-20 49.5t-47 20.5q-53 0 -86.5 -63t-33.5 -187q0 -116 35 -180t95 -64q48 0 86 27t69 67.5t54.5 86.5t42.5 83v140
q0 38 -10.5 51.5t-19.5 18.5l150 30v-55q23 29 53 42t67 13q42 0 70.5 -15t44 -37t17 -47t-12 -45.5t-43 -32t-75.5 -7.5q26 22 39 51.5t12 56.5t-16.5 46t-45.5 19q-60 0 -85 -59t-25 -190v-190q0 -30 11.5 -42.5t28.5 -17.5h-200q17 5 28.5 17.5t11.5 42.5v178
q-21 -42 -45.5 -86t-55.5 -80t-70.5 -59t-90.5 -23q-56 0 -100.5 19.5t-75.5 54t-47.5 82.5t-16.5 104z" />
    <glyph glyph-name="uniE03F" unicode="&#xe03f;" horiz-adv-x="1040" 
d="M260 510q35 0 64 -12t50.5 -32.5t33.5 -47.5t12 -58q0 -38 -15.5 -65.5t-40.5 -46.5t-55 -30.5t-60 -18t-55.5 -8.5t-40.5 -2q9 -91 42 -137t85 -46q47 0 85 26.5t68.5 65.5t54 84.5t42.5 83.5v144q0 38 -10.5 51.5t-19.5 18.5l150 30v-67q26 35 60 51t70 16
q91 0 135.5 -48.5t44.5 -131.5v-270q0 -30 11.5 -42.5t28.5 -17.5h-200q17 5 28.5 17.5t11.5 42.5v240q0 43 -1 79.5t-7.5 63t-21 41.5t-40.5 15q-60 0 -90 -59t-30 -190v-190q0 -30 11.5 -42.5t28.5 -17.5h-200q17 5 28.5 17.5t11.5 42.5v173q-21 -42 -45.5 -85t-55.5 -78
t-70 -57.5t-89 -22.5q-56 0 -100.5 19.5t-75.5 54t-47.5 82.5t-16.5 104t16.5 104t46.5 82.5t72.5 54t94.5 19.5zM152 199q29 0 61 8.5t60 27.5t46 50.5t18 79.5q0 62 -21 98.5t-56 36.5q-45 0 -77.5 -63t-32.5 -187q0 -14 0.5 -26.5t1.5 -24.5z" />
    <glyph glyph-name="uniE040" unicode="&#xe040;" horiz-adv-x="1040" 
d="M260 510q35 0 64 -12t50.5 -32.5t33.5 -47.5t12 -58q0 -38 -15.5 -65.5t-40.5 -46.5t-55 -30.5t-60 -18t-55.5 -8.5t-40.5 -2q9 -91 42 -137t85 -46q47 0 85 26.5t68.5 65.5t54 84.5t42.5 83.5v394q0 38 -10.5 51.5t-19.5 18.5l150 30v-317q26 35 60 51t70 16
q91 0 135.5 -48.5t44.5 -131.5v-270q0 -30 11.5 -42.5t28.5 -17.5h-200q17 5 28.5 17.5t11.5 42.5v240q0 43 -1 79.5t-7.5 63t-21 41.5t-40.5 15q-60 0 -90 -59t-30 -190v-190q0 -30 11.5 -42.5t28.5 -17.5h-200q17 5 28.5 17.5t11.5 42.5v173q-21 -42 -45.5 -85t-55.5 -78
t-70 -57.5t-89 -22.5q-56 0 -100.5 19.5t-75.5 54t-47.5 82.5t-16.5 104t16.5 104t46.5 82.5t72.5 54t94.5 19.5zM152 199q29 0 61 8.5t60 27.5t46 50.5t18 79.5q0 62 -21 98.5t-56 36.5q-45 0 -77.5 -63t-32.5 -187q0 -14 0.5 -26.5t1.5 -24.5z" />
    <glyph glyph-name="uniE041" unicode="&#xe041;" horiz-adv-x="981" 
d="M260 510q35 0 64 -12t50.5 -32.5t33.5 -47.5t12 -58q0 -38 -15.5 -65.5t-40.5 -46.5t-55 -30.5t-60 -18t-55.5 -8.5t-40.5 -2q9 -91 42 -137t85 -46q44 0 80 23.5t65 59t52.5 78t42.5 79.5v164q0 38 -10.5 51.5t-19.5 18.5l150 30v-44q24 24 50.5 34t49.5 10
q41 0 79.5 -10.5t67.5 -36t46.5 -68t17.5 -105.5t-18.5 -118t-53 -95.5t-82 -63.5t-106.5 -23q-13 0 -26 1.5t-25 5.5v-177q0 -38 10.5 -51.5t19.5 -18.5h-180q9 5 19.5 18.5t10.5 51.5v394q-21 -40 -44.5 -80t-53.5 -72t-67.5 -52t-84.5 -20q-56 0 -100.5 19.5t-75.5 54
t-47.5 82.5t-16.5 104t16.5 104t46.5 82.5t72.5 54t94.5 19.5zM640 23q20 -23 51 -23q29 0 51 16.5t37.5 42.5t25.5 57.5t16 63t8 58.5t2 43q0 31 -3 69t-13 71.5t-28 56t-47 22.5q-32 0 -58 -20.5t-42 -70.5v-386zM152 199q29 0 61 8.5t60 27.5t46 50.5t18 79.5
q0 62 -21 98.5t-56 36.5q-45 0 -77.5 -63t-32.5 -187q0 -14 0.5 -26.5t1.5 -24.5z" />
    <glyph glyph-name="uniE042" unicode="&#xe042;" horiz-adv-x="991" 
d="M30 250q0 56 16.5 104t46.5 82.5t72.5 54t94.5 19.5q35 0 64 -12t50.5 -32.5t33.5 -47.5t12 -58q0 -38 -15.5 -65.5t-40.5 -46.5t-55 -30.5t-60 -18t-55.5 -8.5t-40.5 -2q9 -91 42 -137t85 -46q47 0 85 26.5t68.5 65.5t54 84.5t42.5 83.5v394q0 38 -10.5 51.5t-19.5 18.5
l150 30v-294q24 24 50.5 34t49.5 10q41 0 79.5 -10.5t67.5 -36t46.5 -68t17.5 -105.5t-18.5 -118t-53 -95.5t-82 -63.5t-106.5 -23q-34 0 -61 10h-150q17 5 28.5 17.5t11.5 42.5v173q-21 -42 -45.5 -85t-55.5 -78t-70 -57.5t-89 -22.5q-56 0 -100.5 19.5t-75.5 54
t-47.5 82.5t-16.5 104zM650 409v-349q0 -26 12 -43t39 -17q29 0 51 16.5t37.5 42.5t25.5 57.5t16 63t8 58.5t2 43q0 31 -3 69t-13 71.5t-28 56t-47 22.5q-32 0 -58 -20.5t-42 -70.5zM152 199q29 0 61 8.5t60 27.5t46 50.5t18 79.5q0 62 -21 98.5t-56 36.5q-45 0 -77.5 -63
t-32.5 -187q0 -14 0.5 -26.5t1.5 -24.5z" />
    <glyph glyph-name="uniE043" unicode="&#xe043;" horiz-adv-x="917" 
d="M30 250q0 56 16.5 104t46.5 82.5t72.5 54t94.5 19.5q35 0 64 -12t50.5 -32.5t33.5 -47.5t12 -58q0 -38 -15.5 -65.5t-40.5 -46.5t-55 -30.5t-60 -18t-55.5 -8.5t-40.5 -2q9 -91 42 -137t85 -46q47 0 85 26.5t68.5 65.5t54 84.5t42.5 83.5v144q0 38 -10.5 51.5t-19.5 18.5
l150 30v-55q23 29 53 42t67 13q42 0 70.5 -15t44 -37t17 -47t-12 -45.5t-43 -32t-75.5 -7.5q26 22 39 51.5t12 56.5t-16.5 46t-45.5 19q-60 0 -85 -59t-25 -190v-190q0 -30 11.5 -42.5t28.5 -17.5h-200q17 5 28.5 17.5t11.5 42.5v173q-21 -42 -45.5 -85t-55.5 -78t-70 -57.5
t-89 -22.5q-56 0 -100.5 19.5t-75.5 54t-47.5 82.5t-16.5 104zM152 199q29 0 61 8.5t60 27.5t46 50.5t18 79.5q0 62 -21 98.5t-56 36.5q-45 0 -77.5 -63t-32.5 -187q0 -14 0.5 -26.5t1.5 -24.5z" />
    <glyph glyph-name="uniE044" unicode="&#xe044;" horiz-adv-x="1306" 
d="M30 250q0 56 16.5 104t46.5 82.5t72.5 54t94.5 19.5q35 0 64 -12t50.5 -32.5t33.5 -47.5t12 -58q0 -38 -15.5 -65.5t-40.5 -46.5t-55 -30.5t-60 -18t-55.5 -8.5t-40.5 -2q9 -91 42 -137t85 -46q46 0 83 25t67 63t53.5 82t42.5 82v152q0 38 -9 51.5t-17 18.5l146 30v-67
q23 35 54 51t64 16q64 0 103.5 -24.5t56.5 -69.5q23 51 58.5 72.5t73.5 21.5q90 0 132 -48.5t42 -131.5v-270q0 -30 10.5 -42.5t25.5 -17.5h-192q15 5 25.5 17.5t10.5 42.5v240q0 43 -1 79.5t-7 63t-18.5 41.5t-36.5 15q-55 0 -82 -59t-27 -190v-190q0 -30 10.5 -42.5
t25.5 -17.5h-192q15 5 25.5 17.5t10.5 42.5v240q0 43 -1 79.5t-7 63t-19 41.5t-37 15q-54 0 -81 -59t-27 -190v-190q0 -30 10.5 -42.5t25.5 -17.5h-192q15 5 25.5 17.5t10.5 42.5v165q-21 -41 -45.5 -83t-55 -75.5t-68.5 -55t-87 -21.5q-56 0 -100.5 19.5t-75.5 54
t-47.5 82.5t-16.5 104zM150 250q0 -14 0.5 -26.5t1.5 -24.5q29 0 61 8.5t60 27.5t46 50.5t18 79.5q0 62 -21 98.5t-56 36.5q-45 0 -77.5 -63t-32.5 -187z" />
    <glyph glyph-name="uniE045" unicode="&#xe045;" horiz-adv-x="590" 
d="M80 60v600q0 38 -10.5 51.5t-19.5 18.5l150 30v-317q26 35 60 51t70 16q91 0 135.5 -48.5t44.5 -131.5q0 -148 1.5 -239.5t6 -145.5t13.5 -79.5t25 -40.5q6 -5 13.5 -9t17.5 -4q12 0 28.5 7t36.5 24q-13 -37 -40.5 -54t-59.5 -17q-28 0 -56 13q-43 21 -65 63t-31 106.5
t-9.5 151t-0.5 194.5q0 43 -1 79.5t-7.5 63t-21 41.5t-40.5 15q-60 0 -90 -59t-30 -190v-190q0 -30 11.5 -42.5t28.5 -17.5h-200q17 5 28.5 17.5t11.5 42.5z" />
    <glyph glyph-name="uniE046" unicode="&#xe046;" horiz-adv-x="856" 
d="M76 60v350q0 38 -9 51.5t-17 18.5l146 30v-67q23 35 54 51t64 16q64 0 103.5 -24.5t56.5 -69.5q23 51 58.5 72.5t73.5 21.5q90 0 132 -48.5t42 -131.5q0 -148 1.5 -239.5t6 -145.5t13.5 -79.5t25 -40.5q6 -5 13.5 -9t17.5 -4q12 0 28.5 7t36.5 24q-13 -37 -40.5 -54
t-59.5 -17q-28 0 -56 13q-43 21 -65 63t-31 106.5t-9.5 151t-0.5 194.5q0 43 -1 79.5t-7 63t-18.5 41.5t-36.5 15q-55 0 -82 -59t-27 -190v-190q0 -30 10.5 -42.5t25.5 -17.5h-192q15 5 25.5 17.5t10.5 42.5v240q0 43 -1 79.5t-7 63t-19 41.5t-37 15q-54 0 -81 -59t-27 -190
v-190q0 -30 10.5 -42.5t25.5 -17.5h-192q15 5 25.5 17.5t10.5 42.5z" />
    <glyph glyph-name="uniE047" unicode="&#xe047;" horiz-adv-x="590" 
d="M80 60v350q0 38 -10.5 51.5t-19.5 18.5l150 30v-67q26 35 60 51t70 16q91 0 135.5 -48.5t44.5 -131.5q0 -148 1.5 -239.5t6 -145.5t13.5 -79.5t25 -40.5q6 -5 13.5 -9t17.5 -4q12 0 28.5 7t36.5 24q-13 -37 -40.5 -54t-59.5 -17q-28 0 -56 13q-43 21 -65 63t-31 106.5
t-9.5 151t-0.5 194.5q0 43 -1 79.5t-7.5 63t-21 41.5t-40.5 15q-60 0 -90 -59t-30 -190v-190q0 -30 11.5 -42.5t28.5 -17.5h-200q17 5 28.5 17.5t11.5 42.5z" />
    </font>
</defs>
</svg>
