<?xml version="1.0" standalone="no"?>
<!DOCTYPE svg PUBLIC "-//W3C//DTD SVG 1.1//EN" "http://www.w3.org/Graphics/SVG/1.1/DTD/svg11.dtd" >
<svg xmlns="http://www.w3.org/2000/svg" xmlns:xlink="http://www.w3.org/1999/xlink" version="1.1">
<metadata>
Created by FontForge 20170731 at Fri Apr 16 11:51:25 2021
 By Aleksey,,,
Copyright (c) 2021 by Attract Studio. All rights reserved.
</metadata>
<defs>
<font id="LovelyNathalieScript" horiz-adv-x="571" >
  <font-face 
    font-family="Lovely Nathalie Script"
    font-weight="400"
    font-stretch="normal"
    units-per-em="1000"
    panose-1="2 0 5 7 0 0 0 2 0 2"
    ascent="800"
    descent="-200"
    x-height="445"
    cap-height="963"
    bbox="-329.059 -441.087 1345.29 1248.65"
    underline-thickness="50"
    underline-position="-150"
    unicode-range="U+000D-FB02"
  />
<missing-glyph horiz-adv-x="250" 
 />
    <glyph glyph-name=".notdef" horiz-adv-x="250" 
 />
    <glyph glyph-name=".null" horiz-adv-x="0" 
 />
    <glyph glyph-name="nonmarkingreturn" unicode="&#xd;" horiz-adv-x="250" 
 />
    <glyph glyph-name="NULL" horiz-adv-x="0" 
 />
    <glyph glyph-name="NULL" horiz-adv-x="0" 
 />
    <glyph glyph-name="space" unicode=" " horiz-adv-x="250" 
 />
    <glyph glyph-name="exclam" unicode="!" horiz-adv-x="456" 
d="M303 881q11 0 21 -3.5t17 -12.5t9 -23.5t-2 -35.5q-6 -27 -13.5 -69t-16.5 -91.5t-18.5 -103t-17.5 -103t-14.5 -92t-9.5 -70.5q-3 -26 -16.5 -40t-28 -15.5t-25.5 11.5t-8 43q2 24 6 65.5t9.5 92.5t11 107t10.5 107.5t9.5 94.5t7.5 68q4 35 24 52.5t45 17.5zM201 167
q23 0 39 -16t16 -39t-16 -39t-39 -16t-39 16t-16 39t16 39t39 16z" />
    <glyph glyph-name="quotedbl" unicode="&#x22;" horiz-adv-x="135" 
d="M86 957q11 -6 13.5 -18t-4.5 -23l-67 -102q-9 -12 -20 -6q-12 6 -7 20l47 113q5 12 16 17t22 -1zM194 957q11 -6 13.5 -18t-4.5 -23l-67 -102q-9 -12 -20 -6q-12 6 -7 20l47 113q5 12 16 17t22 -1z" />
    <glyph glyph-name="numbersign" unicode="#" horiz-adv-x="819" 
d="M732 572q6 0 9 -4.5t3 -10t-3.5 -10t-10.5 -4.5l-145 -1q-7 -46 -13.5 -93.5t-12.5 -93.5l149 1q6 0 9 -4.5t3 -10t-3.5 -10t-10.5 -4.5l-151 -1q-11 -74 -18.5 -133t-11.5 -87t-19.5 -42t-32.5 -13q-16 0 -21 13t-2 43q3 24 10 83t15 136l-195 -1l-25 -219
q-3 -28 -18 -42.5t-33 -14.5q-16 0 -21.5 13t-2.5 43q3 24 8 83.5t12 135.5h-138q-8 0 -12 4t-4 9.5t4 10t13 4.5l140 1q4 46 8 93.5t9 93.5l-134 -1q-8 0 -12 4.5t-4 10t4 10t13 4.5l135 1l23 243q9 66 58 66q21 0 36 -15.5t6 -55.5q-6 -29 -15 -93.5t-19 -144.5l190 2
q4 41 8.5 78.5t8 69t6.5 55.5t5 38q9 67 58 65q21 0 36 -16t5 -56q-6 -29 -16.5 -92t-21.5 -142zM498 542l-191 -1l-23 -188l194 2z" />
    <glyph glyph-name="dollar" unicode="$" horiz-adv-x="755" 
d="M681 757q5 -21 1 -41t-20 -36q-4 -4 -10.5 4t-1.5 13q8 8 13 19t1 23q-9 32 -33 51.5t-54.5 29.5t-64 13t-60.5 3h-1q-5 -27 -11.5 -66.5t-14 -87t-16 -101t-16.5 -108.5q36 -16 69 -35.5t57 -45.5t37.5 -60t11.5 -79q-2 -38 -21 -71.5t-51 -59.5t-74 -45t-90 -29
q-1 -4 -1 -10q-4 -30 -20 -45.5t-34 -15.5q-17 0 -28 14t-8 46v1h-2q-34 0 -64.5 6t-53 20t-36 36t-13.5 53q0 26 11 49t30 40.5t43 27.5t49 10q39 0 61 -25l21 173q-44 18 -86.5 37.5t-76.5 44.5t-54.5 57.5t-19.5 76.5t27.5 78.5t68 60.5t92 43t100.5 27l3 23
q4 36 24.5 53.5t45.5 17.5q23 0 39 -16.5t8 -60.5q-1 0 -1 -2h14q31 0 64 -4t62.5 -16t52 -33.5t31.5 -57.5zM335 824q-39 -8 -77 -21.5t-69 -34.5t-49.5 -49.5t-18.5 -65.5q0 -27 14.5 -47.5t38.5 -37t56 -30.5t67 -27zM493 256q2 46 -30 76.5t-83 55.5q-14 -95 -26 -178
t-19 -134q31 10 59 26.5t49.5 39t34.5 51t15 63.5zM243 60l20 172q-4 -1 -7 3q-6 11 -15.5 18t-21.5 7q-22 0 -43.5 -11t-38.5 -28t-28 -38.5t-11 -43.5q0 -20 10.5 -35t29.5 -25t43.5 -14.5t53.5 -4.5h8z" />
    <glyph glyph-name="percent" unicode="%" horiz-adv-x="586" 
d="M434 941q22 -5 34 -23.5t-4 -58.5q-11 -26 -33 -85.5t-50.5 -137t-59 -163.5t-58 -164t-48.5 -138.5t-29 -87.5q-9 -28 -27.5 -39.5t-35.5 -8.5t-21.5 18t5.5 46q5 17 17.5 55.5t29 91.5t37 115.5t41.5 127.5t41.5 128.5t37.5 116.5t30 93t19 58q11 34 30.5 47.5
t43.5 8.5zM433 235q35 -5 55.5 -33t14.5 -63q-3 -17 -11.5 -31.5t-21.5 -24t-29.5 -14t-33.5 -1.5t-31.5 12t-24 22t-13.5 29.5t-1 33.5q5 35 33 55t63 15zM462 144q3 26 -7 46t-27 24q-17 3 -31.5 -12.5t-18.5 -41.5q-3 -26 7 -46.5t27 -23.5q17 -4 31.5 12t18.5 42z
M190 821q-3 -17 -12 -31t-22 -23.5t-29.5 -14t-33.5 -1.5q-35 5 -55 33t-15 63q3 17 11.5 31.5t21.5 24t29.5 14t33.5 1.5q18 -3 32 -12t23.5 -22t14 -29.5t1.5 -33.5zM98 772q17 -3 32 12.5t18 41.5q4 26 -6 46.5t-27 23.5q-17 4 -32 -12t-18 -42q-4 -26 6 -46t27 -24z" />
    <glyph glyph-name="ampersand" unicode="&#x26;" horiz-adv-x="755" 
d="M843 -47q10 5 15.5 3.5t8.5 -5t3 -8t-1 -5.5q-54 -33 -104 -48.5t-95 -15.5q-69 0 -126 31t-102 88q-45 -18 -83.5 -26t-71.5 -8q-48 0 -84.5 14.5t-61 39.5t-37.5 58t-13 69q-1 40 14 82.5t41.5 85.5t63.5 85t81 82q-1 91 19.5 159t51.5 113t66.5 67.5t65.5 22.5
q27 0 46 -19t19 -57q0 -39 -22 -78.5t-53.5 -76t-65.5 -69t-58 -56.5q4 -39 10.5 -78.5t15.5 -81.5q18 -72 45.5 -138.5t63.5 -122.5q31 21 54 48t37 56t21 58.5t7 57.5q0 31 -7.5 57.5t-21.5 45t-34 27.5t-45 5q-8 -2 -6.5 -8t-2.5 -11q-3 -3 -10 -5.5t-14 -1.5t-12.5 5.5
t-4.5 13.5q2 18 12 27t25 11q40 5 72 -6.5t54.5 -35.5t35 -57.5t12.5 -71.5q0 -32 -8.5 -64.5t-27 -64.5t-47 -62t-67.5 -55q41 -53 91 -83t109 -30q61 0 126 37zM489 809q-19 0 -42.5 -18t-43.5 -53t-33 -87t-12 -119q33 31 63 60t53 57t36.5 54t13.5 51q1 28 -9.5 41.5
t-25.5 13.5zM177 184q1 -32 14 -63t35.5 -55t54 -39t70.5 -15q31 0 70 12q-35 51 -61 112.5t-43 128.5q-8 35 -14 72t-8 74q-19 -21 -40 -47t-38.5 -55t-29 -60.5t-10.5 -64.5z" />
    <glyph glyph-name="quotesingle" unicode="'" horiz-adv-x="130" 
d="M136 957q11 -6 13.5 -18t-4.5 -23l-67 -102q-9 -12 -20 -6q-12 6 -7 20l47 113q5 12 16 17t22 -1z" />
    <glyph glyph-name="parenleft" unicode="(" horiz-adv-x="346" 
d="M404 1006q6 -1 8 -6t1 -10.5t-4.5 -9.5t-8.5 -4q-15 0 -28 -15.5t-23.5 -36.5t-18 -42t-10.5 -31q-5 -14 -12.5 -43t-17 -68t-19.5 -87.5t-20 -101.5q-10 -54 -19.5 -111t-16 -113.5t-10.5 -110t-4 -100.5q0 -74 12.5 -126.5t43.5 -66.5q7 -3 9.5 -9.5t1.5 -12t-6 -9.5
t-12 -2q-42 7 -70.5 32.5t-46.5 66t-26 92.5t-9 112q0 20 1.5 55.5t6 80.5t11.5 98t17 109q5 27 15 75t26 103.5t37.5 111t50 98.5t63.5 67t78 15z" />
    <glyph glyph-name="parenright" unicode=")" horiz-adv-x="354" 
d="M306 705q0 -20 -2 -55.5t-6.5 -80.5t-11 -98t-16.5 -109q-5 -27 -15 -75t-26 -103.5t-37.5 -111t-50 -98.5t-63.5 -67t-78 -15q-6 1 -8.5 6t-1.5 10t5 9.5t9 4.5q15 -1 28 14.5t23.5 36.5t18 42t10.5 31q5 15 12.5 43.5t17 68t19.5 88t20 101.5q10 54 19 111t16 113
t11 110t4 101q0 75 -13 127t-43 66q-14 7 -11.5 21t18.5 12q42 -7 70.5 -33t46.5 -66t26 -92.5t9 -111.5z" />
    <glyph glyph-name="asterisk" unicode="*" horiz-adv-x="251" 
d="M244 946q6 -9 4.5 -18t-9.5 -13l-58 -28l54 -33q7 -5 7.5 -14t-7.5 -17q-7 -9 -16.5 -10t-14.5 6l-32 38l2 -51q1 -8 -6.5 -14t-18.5 -5t-17 8t-4 15l12 45l-35 -32q-6 -6 -15 -4.5t-15 10.5q-7 9 -5 18t10 14l57 28l-53 32q-8 5 -8.5 14t7.5 18q8 8 17 9t14 -5l33 -38
l-3 50q0 9 7 15t18 5t17 -8t4 -15l-11 -46l34 33q7 6 16 4t15 -11z" />
    <glyph glyph-name="plus" unicode="+" horiz-adv-x="460" 
d="M332 338q11 -1 16.5 -7.5t5.5 -14.5t-5.5 -15t-15.5 -7l-106 -6l-9 -111q-1 -11 -8.5 -16t-16 -5t-16 6t-7.5 17l-3 106l-84 -5q-17 -1 -30 8t-13 26q0 16 13 25t30 8l83 -3l-2 87q-1 17 9.5 30t27.5 13q18 0 28 -13.5t9 -30.5l-7 -88l101 -4v0z" />
    <glyph glyph-name="comma" unicode="," horiz-adv-x="241" 
d="M121 135q23 -3 36 -20.5t9 -39.5q-5 -31 -27.5 -55t-54.5 -27q-6 -1 -8 3.5t-2 9.5t2 10t6 6q12 1 23 8q-22 3 -35 20.5t-9 40.5q3 22 20.5 35t39.5 9z" />
    <glyph glyph-name="hyphen" unicode="-" horiz-adv-x="460" 
d="M332 338q11 -1 16.5 -7.5t5.5 -14.5t-5.5 -15t-15.5 -7l-250 -14q-17 -1 -30 8t-13 26q0 16 13 25t30 8l249 -9v0z" />
    <glyph glyph-name="period" unicode="." horiz-adv-x="251" 
d="M129 120q23 -2 38 -19t13 -40t-19 -38.5t-40 -13.5t-38 19t-13 40t19 38.5t40 13.5z" />
    <glyph glyph-name="slash" unicode="/" horiz-adv-x="281" 
d="M247 961q23 0 38.5 -16t7.5 -59q-4 -20 -11.5 -61.5t-16 -96t-19 -118.5t-20.5 -130t-19.5 -130.5t-17.5 -119.5t-13.5 -96.5t-7.5 -62.5q-3 -29 -18.5 -44t-33.5 -15q-17 0 -28 13.5t-7 45.5l6.5 58.5t11 95.5t14.5 120.5t16 133t16 133.5t14.5 121.5t11.5 97t7 60.5
q5 35 25 52.5t44 17.5z" />
    <glyph glyph-name="zero" unicode="0" horiz-adv-x="596" 
d="M314 882q65 -5 109 -46t68.5 -105.5t30.5 -144.5t-4 -162.5t-36 -160.5t-65.5 -138t-92 -94.5t-115.5 -29.5q-65 5 -108.5 46t-68 105.5t-30.5 144.5t4.5 162.5t36.5 160.5t65 138t91 94t115 30zM211 39q37 -3 69 30t58 89t44.5 129t28 149t9.5 149.5t-11.5 131t-34.5 93
t-60 35.5q-39 0 -72.5 -34t-60 -89.5t-45.5 -127t-28.5 -146t-9 -147t13 -129.5t37 -93.5t62.5 -39.5z" />
    <glyph glyph-name="one" unicode="1" horiz-adv-x="365" 
d="M248 896q22 0 37.5 -16t7.5 -59q-5 -27 -15.5 -85.5t-23.5 -132.5t-26.5 -155.5t-25.5 -156t-20.5 -133.5t-11.5 -87q-4 -29 -19.5 -44t-33.5 -15q-17 0 -27.5 13.5t-7.5 45.5q2 20 8 67.5t14 110.5t17.5 135.5t19 143.5t17.5 134t14 107q-15 -26 -32.5 -52.5t-36.5 -50
t-39 -42.5t-40 -29q-6 -3 -11.5 0t-9 8.5t-3.5 11.5t7 9q24 13 49.5 40.5t49.5 60.5t44 66.5t34 59.5q9 23 26.5 34t37.5 11z" />
    <glyph glyph-name="two" unicode="2" horiz-adv-x="578" 
d="M418 103q12 1 17.5 -11t4.5 -28t-7.5 -30t-18.5 -15q-29 -3 -78 -4t-104.5 -0.5t-110.5 1.5t-96 1q-14 0 -19.5 7t-5.5 17.5t3.5 22t8.5 19.5q31 59 70.5 102.5t81 81t81.5 75t71.5 84t51 108t21.5 147.5q0 33 -6 64.5t-19.5 56.5t-35.5 39.5t-53 14.5q-36 0 -72.5 -17
t-67.5 -46t-51 -69.5t-23 -88.5q-1 -14 -0.5 -28.5t5 -26t14 -19t27.5 -8.5q2 0 3.5 -5t2 -11.5t-1 -11.5t-5.5 -5q-23 1 -38 12t-24 27t-12.5 36t-2.5 39q2 57 27.5 105t64.5 82t86 53t94 19q46 0 80.5 -18t57.5 -47.5t34.5 -68.5t11.5 -81q0 -68 -20.5 -123.5t-55 -104
t-78 -91.5t-90 -85t-91.5 -84.5t-81 -90.5q40 0 91 -0.5t100 -0.5t91.5 1t66.5 4z" />
    <glyph glyph-name="three" unicode="3" horiz-adv-x="595" 
d="M323 442q40 -4 69.5 -19.5t49 -39t29 -53.5t9.5 -63q0 -46 -18.5 -92.5t-55 -83.5t-90.5 -60.5t-125 -22.5q-48 0 -85.5 19t-62.5 51t-36 74t-5 90q1 8 9.5 11t19 2.5t19 -5.5t8.5 -12q-1 -61 8.5 -99t26 -59.5t39 -30t49.5 -10.5q50 5 91 30.5t70 61.5t44.5 78.5
t14.5 80.5q0 49 -29 82t-91 32q-6 0 -10.5 5t-7 12t-2 14t4.5 10q28 25 60 60.5t58.5 76t44 83.5t17.5 83q0 25 -8.5 47t-24 38.5t-36.5 26t-46 9.5q-45 0 -86.5 -20.5t-74 -53.5t-53 -75t-23.5 -85q-1 -14 -0.5 -28.5t5 -26t14.5 -19t27 -8.5q3 0 4.5 -5t1.5 -11.5
t-1.5 -11.5t-5.5 -5q-22 1 -37 12t-24 27t-13 36t-3 39q3 54 29 103t67 86.5t92.5 60t105.5 22.5q37 0 68.5 -12.5t54.5 -35t35.5 -54t12.5 -69.5q0 -50 -18 -91t-47.5 -76.5t-66 -66t-72.5 -59.5z" />
    <glyph glyph-name="four" unicode="4" horiz-adv-x="543" 
d="M431 896q17 0 28 -13.5t7 -45.5q-2 -23 -8.5 -78t-16 -127t-20 -153.5t-20.5 -156.5h26q13 0 18.5 -7.5t3.5 -15.5t-9.5 -15t-19.5 -7q-6 1 -12 1h-13q-9 -69 -16 -121t-9 -75q-4 -35 -24 -52.5t-45 -17.5q-23 0 -38.5 16.5t-6.5 58.5l34 193q-38 1 -76.5 1.5t-74 1.5
t-65 1t-48.5 -1h-4q-11 -1 -19 6t0 16q25 30 55 77.5t61.5 104t63 118.5t60 121.5t51.5 113t39 93.5q3 8 11 6.5t15 -8.5t11.5 -16.5t0.5 -16.5q-18 -33 -40.5 -78.5t-48.5 -97.5t-54 -107t-56 -108t-55.5 -100t-52.5 -83q44 1 107 1t127 -1q12 73 25.5 152t24.5 150
t19.5 127.5t11.5 83.5q3 29 18.5 44t33.5 15z" />
    <glyph glyph-name="five" unicode="5" horiz-adv-x="582" 
d="M158 570q89 9 152.5 -9t103.5 -53t59 -83.5t20 -101.5q0 -55 -18 -111.5t-51.5 -103t-81.5 -76.5t-108 -32q-43 -2 -81.5 14t-68.5 43.5t-50 64t-28.5 77t-3.5 81.5t27 78q9 16 22.5 30t30 23t34.5 10t38 -9q3 -2 2 -6.5t-4.5 -9.5t-7.5 -8.5t-6 -2.5q-15 8 -27.5 7
t-22 -8t-17.5 -18.5t-15 -23.5q-24 -42 -24 -93.5t19.5 -96.5t57 -75.5t88.5 -30.5q48 1 84.5 27.5t61 67t37 87.5t14.5 89q1 44 -10 85t-39.5 72.5t-77.5 49t-124 15.5q-9 -2 -21 -0.5t-23 6t-18 11t-7 15.5q1 57 6 126.5t16 148.5q2 16 7 23.5t16 9t30.5 0.5t50.5 -1
q38 0 78 0.5t77.5 0t69.5 -1.5t55 -4q12 -2 17.5 -16t4.5 -29.5t-7.5 -28t-18.5 -10.5q-23 3 -57.5 4t-75 1.5t-83.5 0.5h-82q-9 -66 -14 -122.5t-6 -102.5z" />
    <glyph glyph-name="six" unicode="6" horiz-adv-x="592" 
d="M318 879q48 0 86 -19t63 -51t36 -74.5t5 -90.5q-1 -8 -9.5 -11t-19 -2t-19 5t-8.5 12q1 61 -8.5 99.5t-26 60t-39 30t-49.5 10.5q-39 -4 -69.5 -26.5t-53 -56.5t-38 -75.5t-26.5 -85t-17.5 -84.5t-9.5 -73q48 48 99 70t99 20q47 -2 82.5 -22t58.5 -51.5t35 -72t12 -84.5
q0 -55 -17.5 -110t-51.5 -99.5t-84.5 -72t-117.5 -27.5q-57 0 -97 18.5t-66.5 50t-41 72.5t-20.5 86.5t-5 92t6 89.5q6 54 18.5 110t31 108.5t44.5 98.5t58.5 80.5t72.5 54.5t87 20zM282 501q-41 0 -85.5 -25t-88.5 -79q-5 -26 -9 -64t-3 -80q1 -56 12.5 -96t30 -65.5
t42 -37t47.5 -10.5q40 1 72 26.5t54.5 65t34.5 88t12 95.5q0 36 -7 69t-21.5 58t-37 40t-53.5 15z" />
    <glyph glyph-name="seven" unicode="7" horiz-adv-x="465" 
d="M431 876q15 0 21.5 -7t6.5 -17.5t-4.5 -22t-9.5 -19.5q-28 -45 -61 -96.5t-66.5 -106t-66 -111.5t-58.5 -113.5t-43.5 -111t-22.5 -105.5q-2 -23 -3.5 -47t-3.5 -47q-2 -18 -16.5 -32.5t-32 -22t-33 -5t-18.5 19.5q-3 13 2 70q9 89 48.5 179.5t93.5 179t114.5 172.5
t111.5 161q-44 0 -95.5 0.5t-101 1t-92.5 0t-70 -3.5q-13 -2 -17.5 10.5t-2 28.5t11.5 29.5t22 15.5q31 3 78.5 3.5t101 0t107.5 -2t99 -1.5z" />
    <glyph glyph-name="eight" unicode="8" horiz-adv-x="576" 
d="M336 457q42 -17 71 -42.5t47 -56t25.5 -64.5t4.5 -68q-5 -57 -29 -99.5t-59.5 -70.5t-79.5 -41.5t-89 -13.5q-44 0 -85.5 14t-73 42t-50.5 69t-18 95q1 34 12 67.5t33 63.5t55 55.5t78 42.5q-59 31 -86 86.5t-25 118.5q3 57 23.5 99.5t52 71t70.5 42.5t79 14q39 0 76 -14
t64 -41.5t41.5 -68.5t10.5 -96q-7 -78 -48 -127t-100 -78zM143 683q0 -35 14.5 -66t37.5 -58t52.5 -48.5t58.5 -35.5q51 27 77.5 74t32.5 111q4 49 -4 83.5t-24.5 57t-39.5 33t-48 10.5q-28 0 -55.5 -11t-50 -32t-36.5 -51t-15 -67zM395 197q1 30 -8.5 61t-32 61.5t-59 59
t-88.5 51.5q-31 -14 -55 -36.5t-41 -50t-26.5 -58.5t-11.5 -62q-3 -48 9.5 -82.5t34.5 -57.5t51 -34.5t59 -11.5t59.5 10.5t53 31t38.5 50t17 68.5z" />
    <glyph glyph-name="nine" unicode="9" horiz-adv-x="578" 
d="M272 882q49 0 94.5 -19.5t78.5 -68t48 -130t2 -205.5q-9 -85 -34 -168.5t-66 -149.5t-97.5 -105t-127.5 -35q-45 2 -78 20t-54 47.5t-30.5 68t-7.5 81.5q1 8 10 11.5t20 3.5t19.5 -4.5t8.5 -11.5q-2 -27 3.5 -57.5t18.5 -56.5t34.5 -44t53.5 -20q43 -3 76 17t57 54t41 77
t28 88t17 86t10 71q-48 -48 -99.5 -69.5t-99.5 -19.5q-49 3 -84.5 23.5t-58 53t-33 74.5t-9.5 87q1 54 19 108t51 97t80.5 69.5t108.5 26.5zM404 482q19 91 13.5 159.5t-26.5 114t-54 68t-69 22.5q-39 0 -70.5 -22t-53.5 -58t-35 -81.5t-15 -91.5q-2 -41 5 -79.5t23.5 -68
t43 -48t64.5 -18.5q41 -1 85.5 24t88.5 79z" />
    <glyph glyph-name="colon" unicode=":" horiz-adv-x="410" 
d="M189 306q23 -2 38 -19t13 -40t-19 -38t-40 -13t-38 18.5t-13 39.5t19 38.5t40 13.5zM231 614q23 -2 38.5 -19t13.5 -40t-19 -38t-40 -13t-38 19t-13 40t18.5 38t39.5 13z" />
    <glyph glyph-name="semicolon" unicode=";" horiz-adv-x="405" 
d="M207 465q23 -2 38.5 -18.5t13.5 -39.5t-19 -38.5t-40 -13.5t-38.5 19t-13.5 40t19 38t40 13zM171 164q23 -3 36 -21t9 -40q-5 -31 -27.5 -54.5t-54.5 -27.5q-6 0 -8 4t-2 9.5t2 10.5t6 5q12 1 23 8q-22 4 -35 21.5t-9 39.5q3 22 20.5 35t39.5 10z" />
    <glyph glyph-name="less" unicode="&#x3c;" horiz-adv-x="441" 
d="M379 623q11 -14 7 -30.5t-19 -28.5l-243 -194l194 -168q14 -11 13.5 -29t-14.5 -30t-30 -8.5t-28 17.5l-183 206q-10 11 -5 19t13 16l236 228q13 13 30.5 14.5t28.5 -12.5z" />
    <glyph glyph-name="equal" unicode="=" horiz-adv-x="465" 
d="M67 382q-11 1 -16 7.5t-5 14.5t5 15t16 7l250 14q17 1 30 -8t13 -26q0 -16 -13 -25t-30 -8zM332 257q11 -1 16.5 -7.5t5.5 -14.5t-5.5 -15t-15.5 -7l-250 -14q-17 -1 -30 8t-13 26q0 16 13 25t30 8z" />
    <glyph glyph-name="greater" unicode="&#x3e;" horiz-adv-x="451" 
d="M372 411q9 -11 4 -19t-13 -16l-236 -227q-13 -14 -30.5 -15.5t-28.5 12.5t-6.5 30.5t18.5 28.5l243 194l-194 168q-14 11 -13.5 29t14.5 30t30 8.5t28 -17.5l184 -206v0z" />
    <glyph glyph-name="question" unicode="?" horiz-adv-x="617" 
d="M300 140q23 -2 38.5 -19t13.5 -40t-19 -38t-40 -13t-38.5 19t-13.5 40t19 38t40 13zM434 916q34 -10 57 -29.5t36.5 -45.5t18.5 -56.5t3 -61.5q-4 -63 -28.5 -116t-56 -103t-62 -99t-46.5 -103l-7.5 -27.5t-6.5 -33.5q-2 -14 -12.5 -20t-23 -5t-23 8.5t-12.5 20.5
q-4 24 -1 50.5t11 52.5q15 54 45 108t60 109t54 111.5t28 115.5q1 16 0 31t-6.5 27.5t-15 22t-25.5 14.5q-30 9 -66.5 0t-69.5 -30.5t-59.5 -52.5t-37.5 -66q-8 -23 -7.5 -47.5t11.5 -47.5q7 -15 20.5 -22t29.5 -9q4 -1 6 -5.5t2 -9.5t-2.5 -8.5t-5.5 -3.5q-29 4 -49 20.5
t-32 42.5q-13 29 -14 59t8 58q12 39 41 71.5t68 54.5t83.5 29.5t86.5 -4.5z" />
    <glyph glyph-name="at" unicode="@" horiz-adv-x="833" 
d="M781 333q0 -59 -15.5 -115t-41 -100t-59 -71.5t-70.5 -27.5q-33 0 -55 14t-35.5 36.5t-19.5 51t-6 57.5q-1 5 -0.5 11t0.5 13q-13 -25 -28.5 -47.5t-32.5 -39.5t-35 -26.5t-36 -9.5q-45 0 -72 27t-37.5 67.5t-4.5 87.5t27.5 87t59 66.5t90.5 26.5q27 0 49 -11.5t36 -34.5
q1 -3 -1.5 -6t-6.5 -5.5t-8.5 -2.5t-6.5 4q-8 14 -19.5 22.5t-26.5 8.5q-25 0 -45.5 -23t-34 -57.5t-20.5 -74.5t-5.5 -74t11 -56.5t28.5 -21.5q20 1 40.5 22t38 51.5t31.5 65.5t20 64q2 14 4 27.5t4 24.5q5 32 22.5 48.5t40.5 15.5q21 0 35.5 -15t6.5 -53q-5 -24 -11 -52.5
t-11.5 -58.5t-9.5 -58.5t-4 -52.5q0 -16 2 -31.5t7.5 -27.5t14.5 -19.5t21 -7.5q23 0 47.5 24t45 63.5t33.5 90t13 103.5q0 59 -18 108t-51 85t-80 57.5t-105 27.5q-74 7 -142 -15.5t-122.5 -67t-90 -107t-42.5 -135.5q-8 -78 18 -145.5t74.5 -116t116 -74t143.5 -20.5
q20 1 45 8q7 2 12.5 -2t6.5 -9.5t-2 -11t-12 -7.5q-12 -2 -24 -3.5t-24 -3.5q-83 -6 -156 22t-126 81t-80.5 126.5t-19.5 158.5q8 79 46 146.5t96.5 115.5t132 72.5t153.5 16.5q63 -6 115 -31t88.5 -65t57 -93.5t20.5 -117.5z" />
    <glyph glyph-name="A" unicode="A" horiz-adv-x="894" 
d="M894 283q1 2 6 3.5t11 1.5t11 -1t4 -2q-7 -25 -17 -61.5t-23 -76.5t-30 -79t-40 -70t-52.5 -49.5t-66.5 -17.5q-38 1 -68 35t-41 103q-10 66 -4 140.5t15 140.5q-65 -5 -128.5 -11.5t-127.5 -9.5q-10 -41 -21 -86.5t-22 -91.5t-20.5 -91.5t-16.5 -86.5
q-5 -31 -18.5 -41.5t-29.5 -6.5q-17 5 -29 22.5t-7 46.5q13 83 26.5 166.5t27.5 168.5q-17 1 -39.5 3t-42 8t-31.5 15.5t-8 25.5q3 9 14.5 9t16.5 -13q1 -5 11.5 -8t25 -5.5t30.5 -3.5t28 -2q18 114 32 226.5t20 223.5q1 19 -0.5 44.5t-9 49t-22 40t-40.5 17.5
q-32 1 -63 -16t-56.5 -45.5t-42 -64t-18.5 -71.5q-2 -24 4.5 -47t22.5 -43q10 -12 24.5 -16t30.5 -2q4 1 7 -3t4 -8.5t-0.5 -9t-4.5 -4.5q-56 -6 -92 41q-20 25 -28 53t-6 57q3 40 21.5 78t49 67.5t69.5 47t83 16.5q45 -1 78 -22t54 -54t30.5 -73t7.5 -79
q-3 -52 -8.5 -103.5t-13.5 -103.5q23 78 50 148.5t57.5 124t65.5 84.5t74 31q36 0 60 -21.5t38.5 -58t20 -85t5.5 -100.5q0 -39 -2.5 -79.5t-6 -78.5t-8 -72.5t-8.5 -62.5q22 1 50 0t47 -12q5 -2 5.5 -7t-2 -9.5t-8 -7t-13.5 0.5q-17 6 -41 6.5t-43 0.5q-11 -72 -21.5 -147
t-8.5 -147q2 -48 14.5 -65t29.5 -18q24 -1 44 16.5t37 45.5t30.5 63t24.5 69t19 63.5t13 46.5zM649 739q2 36 1.5 68t-3.5 56t-10 37.5t-19 13.5q-29 0 -55.5 -23t-51 -62.5t-47 -93t-42.5 -115t-38 -128.5t-34 -134q63 3 126 9.5t127 11.5q13 90 27 179t19 181z" />
    <glyph glyph-name="B" unicode="B" horiz-adv-x="1010" 
d="M1010 283q1 2 6.5 2.5t11.5 0.5t10.5 -1t4.5 -2q-29 -80 -72.5 -126t-98.5 -73q-8 -55 -34.5 -107.5t-68 -93t-97 -65t-122.5 -23.5q-24 0 -48.5 5.5t-45 17t-34.5 30.5t-15 46q-2 24 7.5 43.5t25 35t36 26.5t40.5 18q60 21 121.5 31.5t123.5 26.5q8 39 9 76q1 46 -9 81
t-29 59.5t-45.5 39t-58.5 19.5q-45 -26 -94.5 -40.5t-103.5 -14.5q-11 0 -18 7t-1 18q10 16 32.5 27t49 18.5t53 11t43.5 3.5q37 29 65.5 68.5t48 85t30.5 93.5t12 94q0 21 -2 50t-11 55.5t-25.5 45t-44.5 19.5q-48 1 -87 -32t-70 -90.5t-55.5 -133.5t-43.5 -160t-32 -171
t-22.5 -166t-15.5 -145t-9 -109q-3 -32 -15.5 -43t-29.5 -8t-30 20t-11 46q7 100 16 207t16.5 215.5t11.5 215.5t1 207q0 19 -3.5 44.5t-12.5 48.5t-25 39t-42 15q-32 -1 -61.5 -20t-52.5 -49t-37 -66.5t-13 -72.5q1 -25 9 -47.5t25 -41.5q11 -11 26 -14t30 0q4 1 7.5 -2.5
t4.5 -8t0 -9t-4 -4.5q-27 -6 -51 3.5t-44 30.5q-21 23 -31 51t-11 57q-1 40 15 79t44 70.5t65.5 51.5t81.5 22q45 2 79.5 -17t58 -50t36 -70.5t13.5 -78.5q1 -30 1 -60.5t-2 -61.5q18 70 42.5 134t57.5 113t76.5 77.5t98.5 27.5q43 -1 76.5 -20t56 -49t34 -68.5t10.5 -78.5
q-2 -51 -15 -100t-36.5 -93.5t-56 -83t-72.5 -68.5q50 -9 90 -30.5t67.5 -54.5t41.5 -76t12 -95q44 24 78 63t57 102zM463 326q37 4 72 21q-18 -4 -36.5 -9t-35.5 -12zM527 -169q42 0 77.5 17t64.5 46.5t50 68.5t34 81q-58 -14 -113 -23.5t-115 -30.5q-15 -5 -31 -13.5
t-29.5 -20.5t-22 -27.5t-7.5 -33.5q1 -17 10 -29.5t22 -20t29 -11t31 -3.5z" />
    <glyph glyph-name="C" unicode="C" horiz-adv-x="615" 
d="M615 283q0 2 5 2.5t10.5 0.5t10 -1t3.5 -2q-13 -42 -34 -89.5t-49.5 -94.5t-63.5 -90.5t-75.5 -76.5t-87 -53t-96.5 -20q-62 0 -106.5 29t-73.5 79t-43.5 117t-15 143t12 155.5t36.5 155.5t59 143.5t79 118t97.5 80.5t114.5 31q37 0 68 -13t51 -38.5t28 -62.5t-2 -85
q-7 -33 -22.5 -64t-38.5 -55t-53.5 -38t-67.5 -14q-29 0 -52 11.5t-37 36.5q-2 3 0.5 6.5t7 5.5t9.5 2t7 -4q8 -14 20 -23t28 -9q31 0 57 13t46.5 35t34 49.5t20.5 57.5q16 70 -6 110.5t-68 41.5q-58 1 -107 -40.5t-87.5 -110t-66 -157t-42 -180.5t-15.5 -180.5t13.5 -158
t45 -112t79.5 -43.5q44 -1 85 18t78 50.5t69 72.5t58 84.5t45.5 86.5t31.5 79z" />
    <glyph glyph-name="D" unicode="D" horiz-adv-x="1055" 
d="M1055 283q1 2 6 2.5t11 0.5t11 -1t4 -2q-16 -45 -35 -78.5t-42.5 -58.5t-51 -43t-60.5 -31q-16 -6 -33 -11l-34 -10q-19 -44 -45 -89.5t-60.5 -82.5t-77.5 -60t-97 -23q-36 0 -63 8.5t-45 22.5t-27 32t-9 38q-1 35 26 68t83 52q47 17 106.5 26t119.5 20q32 96 48 209.5
t14 223.5q-1 61 -7 118t-17 105t-28 85t-39 60q-22 22 -47 25t-49 -6.5t-45.5 -28t-36.5 -37.5q-35 -47 -62.5 -116.5t-49 -152t-37.5 -173t-27.5 -178.5t-19 -169t-12.5 -144q-3 -32 -15.5 -43t-29.5 -8t-30 20t-11 46q7 100 16 207t16.5 215.5t11.5 215.5t1 207
q0 19 -3.5 44.5t-12.5 48.5t-25 39t-42 15q-32 -1 -61.5 -20t-52.5 -49t-37 -66.5t-13 -72.5q1 -25 9 -47.5t25 -41.5q11 -11 26 -14t30 0q4 1 7.5 -2.5t4.5 -8t0 -9t-4 -4.5q-27 -6 -51 3.5t-44 30.5q-21 23 -31 51t-11 57q-1 40 15 79t44 70.5t65.5 51.5t81.5 22
q45 2 79.5 -17t58 -50t36 -70.5t13.5 -78.5q1 -30 1 -60.5t-2 -61.5q10 38 24 82t33 87t45 80.5t59 63t74.5 35t92.5 -4.5t87.5 -53t60.5 -96t36 -128.5t12 -149.5q1 -105 -18 -212.5t-54 -201.5q11 3 22 6.5t22 7.5q58 23 98 65t69 119zM528 -168q41 0 73 18.5t56.5 47.5
t42.5 64.5t31 69.5q-54 -9 -106.5 -17t-99.5 -25q-45 -15 -66.5 -41.5t-21.5 -52.5q-1 -26 21.5 -45.5t69.5 -18.5z" />
    <glyph glyph-name="E" unicode="E" horiz-adv-x="832" 
d="M832 283q1 2 6 2.5t10.5 0.5t10 -1t3.5 -2q-13 -42 -33.5 -88t-47.5 -90.5t-61 -85t-73.5 -71t-84.5 -48t-95 -16.5q-49 1 -91.5 21.5t-73 55.5t-48 82t-16.5 100q1 57 20.5 107t54 89.5t81 67.5t102.5 42q-37 16 -66.5 43t-50 63t-29 79.5t-3.5 91.5q-29 -2 -57.5 -6
t-56.5 -12q-60 -17 -105 -51.5t-81 -103.5q-3 -6 -9 -7t-11 2t-8 8.5t0 10.5q41 75 90.5 113t115.5 55q30 8 62 12.5t64 6.5q13 65 47.5 109.5t79 69.5t92.5 32t88 -2t65.5 -34t24.5 -64q0 -25 -12 -44.5t-30 -33.5t-40 -23.5t-43 -13.5q-43 -10 -86.5 -13t-88.5 -5
q-5 -42 -0.5 -86t20 -80.5t42 -61.5t65.5 -29q7 -1 10 -8t3 -15.5t-3.5 -15t-10.5 -6.5q-56 -3 -98 -29t-71 -66.5t-44.5 -90.5t-18.5 -101q-2 -38 5 -75.5t24 -67.5t46.5 -49t73.5 -20q42 -1 80.5 15t72.5 44t63.5 64.5t53 76t41.5 79t30 73.5zM718 864q0 20 -16 35.5
t-41 22.5t-56 3t-60.5 -22.5t-54 -53t-36.5 -89.5q42 2 83 5.5t80 12.5q15 3 32.5 10.5t32.5 18.5t25 25t11 32z" />
    <glyph glyph-name="F" unicode="F" horiz-adv-x="665" 
d="M613 433q7 -3 8 -8.5t-1.5 -10.5t-7.5 -8t-11 -1q-24 8 -55 8.5t-66 -3.5q-12 -100 -21.5 -199.5t-17.5 -194.5q-3 -35 -23 -53t-44 -18q-11 0 -21 3t-17 11.5t-10 23t0 35.5q14 91 26.5 186.5t24.5 193.5q-29 -3 -56 -3.5t-50 4.5q-9 2 -12 8t-1 11.5t8 9t14 1.5
q22 -5 47.5 -4t53.5 3q11 88 21.5 173t20.5 167q2 18 9 30.5t16.5 20t20.5 10.5t21 0q7 -2 16 -5t16 -11t10.5 -21.5t-0.5 -34.5q-14 -75 -26 -155t-23 -161q37 4 70.5 3.5t59.5 -11.5zM1007 1029q15 -23 15 -49t-13 -51q-14 -27 -34 -45t-44 -29.5t-51 -17t-55 -7.5
q-64 -5 -130 2.5t-133.5 19t-134.5 23t-133 14.5q-39 1 -83.5 -1.5t-82.5 -16.5t-63.5 -43t-28.5 -79q0 -6 -6 -9.5t-12.5 -3.5t-12 3t-5.5 8q1 57 29.5 94.5t71.5 59t95 29.5t100 6q67 -2 133 -11t132 -18.5t133 -18t137 -8.5q25 0 48.5 2.5t45 11t39 23t30.5 38.5
q8 14 4.5 29.5t-11.5 28.5q-3 4 -0.5 8t6 7t8 3.5t6.5 -2.5z" />
    <glyph glyph-name="G" unicode="G" horiz-adv-x="861" 
d="M861 283q1 2 6.5 2.5t11.5 0.5t10.5 -1t4.5 -2q-15 -42 -37.5 -76.5t-50 -63t-60 -52t-67.5 -44.5q-7 -37 -19 -87t-30 -104t-42 -106.5t-56 -94t-72 -67t-90 -25.5q-32 0 -55 11.5t-38.5 30.5t-23.5 44.5t-9 54.5q-2 59 17.5 106t54.5 85q21 22 49.5 41.5t61.5 36.5
t68 31t68 26q14 72 26 146t22 146q-17 -34 -36 -65t-39 -57q-52 -69 -113.5 -103.5t-118.5 -34.5q-37 0 -70 15t-58 46t-40.5 78t-17.5 111q-3 86 23 184q-31 14 -57 34t-45 46.5t-29.5 59.5t-9.5 72q1 30 11.5 59t33.5 53q20 21 44 30t51 3q3 -1 4 -5.5t-0.5 -9t-4.5 -8
t-7 -2.5q-15 4 -30.5 1.5t-26.5 -14.5q-18 -20 -26.5 -43.5t-8.5 -49.5q-2 -67 29 -115t82 -77q22 69 61 140t93 129t122.5 93.5t149.5 34.5q66 -1 105.5 -37.5t39.5 -104.5q1 -56 -21.5 -103t-60 -85t-87 -65.5t-103.5 -44.5t-109 -22t-103 2q-14 -54 -21 -104t-5 -89
q1 -48 10 -82.5t24 -56t35 -31t43 -9.5q45 0 95 33t94 91q25 32 41.5 60t28.5 55.5t22 56.5t22 65q5 44 24 59t39 8.5t34.5 -30t11.5 -56.5q-8 -81 -20 -170t-29 -180q58 38 104.5 84.5t69.5 111.5zM588 898q-46 1 -86.5 -18.5t-75 -52t-63 -75t-51 -87t-39.5 -89t-27 -80.5
q43 -7 92.5 -2.5t99 19.5t95.5 40.5t81.5 59.5t57 76t22.5 92q1 51 -27 83.5t-79 33.5zM353 -406q31 -1 57 22.5t47 61.5t37.5 84.5t28.5 91.5t20 83t13 60q-29 -11 -60 -24t-59.5 -28t-53.5 -32t-43 -37q-31 -34 -49 -76t-16 -95q0 -18 4.5 -37.5t13.5 -35.5t23.5 -27
t36.5 -11z" />
    <glyph glyph-name="H" unicode="H" horiz-adv-x="921" 
d="M921 283q1 2 6.5 2.5t11.5 0.5t10.5 -1t4.5 -2l-18.5 -55.5t-26.5 -74t-33.5 -80t-41 -73t-49 -53.5t-55.5 -21q-50 0 -77.5 28t-38.5 71q-5 20 -7 54.5t-0.5 79t5.5 96.5t10 108q-64 -4 -128.5 -14.5t-126.5 -31.5q-6 -45 -14.5 -104t-23.5 -119t-36.5 -114t-52.5 -90
q-23 -26 -46.5 -39.5t-44.5 -15.5q-36 -2 -58.5 33.5t-15.5 107.5q10 102 54.5 186.5t134.5 139.5q15 124 20.5 248t1.5 236q0 19 -3.5 44.5t-12.5 48.5t-25 39t-42 15q-32 -1 -61.5 -20t-52.5 -49t-37 -66.5t-13 -72.5q1 -25 9 -47.5t25 -41.5q11 -11 26 -14t30 0
q4 1 7.5 -2.5t5 -8t0.5 -9t-5 -4.5q-27 -6 -51 3.5t-44 30.5q-21 23 -31 51t-11 57q-1 40 15 79t44 70.5t65.5 51.5t81.5 22q45 2 79.5 -17t58 -50t36 -70.5t13.5 -78.5q1 -36 0 -81.5t-3.5 -97.5t-7.5 -107.5t-11 -111.5q62 20 126 29.5t129 13.5q7 65 17.5 130.5t22 123
t24 104t25.5 74.5q10 23 24 46t32.5 41.5t41.5 29.5t51 11q34 0 54 -21.5t31 -56.5q2 -7 -1.5 -11t-8.5 -5.5t-10.5 0.5t-7.5 7q-3 8 -7.5 18t-10.5 18.5t-13.5 14t-16.5 5.5q-15 0 -27 -16t-22 -37.5t-16.5 -43t-9.5 -31.5q-20 -70 -35.5 -162t-27.5 -189.5t-19.5 -190.5
t-10.5 -165q-1 -25 0 -47.5t6 -39.5t14 -27t23 -10q18 0 37 20t36.5 51t33.5 68.5t29 73.5t22.5 65t14.5 43zM181 -71q15 35 27 78t21.5 87.5t17 88t12.5 81.5q-75 -53 -111.5 -129t-44.5 -165q-5 -46 4 -71.5t24 -25.5q11 0 23.5 12t26.5 44z" />
    <glyph glyph-name="I" unicode="I" horiz-adv-x="454" 
d="M388 747q1 -40 0 -92t-4.5 -110.5t-9.5 -121t-14 -123.5q-4 -30 -10.5 -75.5t-17.5 -97t-27.5 -103t-40 -93t-56 -67t-74.5 -25.5q-27 0 -48.5 17.5t-36 43t-21.5 54t-4 52.5q3 28 16.5 50t39.5 34q3 1 6.5 -2t5 -7.5t1 -9t-4.5 -6.5q-14 -6 -24.5 -17t-12.5 -28t4 -40.5
t17.5 -44.5t27 -36.5t33.5 -15.5q19 -1 36 31.5t31.5 82.5t26 109.5t20 114.5t13.5 97t7 56q11 107 14 212t1 200q-1 19 -4.5 44.5t-12.5 48.5t-25 39t-42 15q-31 -1 -60 -20t-51.5 -49t-35.5 -66.5t-12 -72.5q1 -25 9 -47.5t25 -41.5q11 -11 26 -14t30 0q4 1 7.5 -2.5t5 -8
t0.5 -9t-5 -4.5q-27 -6 -51 3.5t-44 30.5q-21 23 -31 51t-11 57q-1 40 14 79t42 70.5t64 51.5t81 22q45 2 79.5 -17t58 -50t36 -70.5t13.5 -78.5z" />
    <glyph glyph-name="J" unicode="J" horiz-adv-x="750" 
d="M750 283q1 2 6.5 2.5t11.5 0t10.5 -2t4.5 -2.5q-17 -40 -40 -69.5t-51.5 -52t-61 -39t-67.5 -29.5q-23 -91 -55 -175t-72.5 -148t-90 -101t-106.5 -34q-27 2 -48.5 15.5t-36 33.5t-22 44.5t-8.5 48.5q-2 72 31.5 131t93.5 97q44 26 94.5 44t104.5 35q18 82 31.5 163.5
t22 152t12 124t1.5 78.5t-8.5 47.5t-20.5 39.5t-35.5 27.5t-53.5 12.5q-37 2 -78.5 -11t-82.5 -37t-78 -56.5t-65.5 -69.5t-46 -76t-17.5 -75q0 -23 9.5 -42t35.5 -27q4 -2 5 -6.5t0 -9t-4 -8t-6 -2.5q-41 14 -56 43.5t-13 65.5q4 74 46 140t105.5 115t139 74.5t147.5 18.5
q40 -4 69 -15.5t49.5 -29.5t33.5 -41t20 -49q9 -33 10.5 -86.5t-3.5 -120.5t-16.5 -143.5t-29.5 -153.5q59 25 106 61t73 97zM234 -338q33 -1 62.5 30.5t55.5 85.5t48.5 124.5t40.5 148.5q-47 -14 -91 -31t-83 -43q-54 -35 -84 -85.5t-28 -116.5q0 -15 5.5 -34.5t16 -36.5
t25 -29.5t32.5 -12.5z" />
    <glyph glyph-name="K" unicode="K" horiz-adv-x="780" 
d="M878 -46q4 3 9.5 2t9 -4.5t4 -8.5t-3.5 -9q-32 -28 -60.5 -40.5t-54.5 -12.5q-49 0 -88 30.5t-71 77.5t-59 103.5t-52.5 108t-52.5 91t-59 53.5q-14 -42 -26.5 -81.5t-22.5 -75.5q-7 -57 -13 -112.5t-11 -110.5q-3 -32 -15.5 -43t-29.5 -8q-18 3 -30.5 20.5t-10.5 46.5
q7 94 15.5 194t16.5 202q-18 1 -33 -3q-8 -2 -13 1.5t-6.5 8.5t1 10.5t9.5 7.5q19 4 45 6q8 110 12 218t2 210q0 19 -3.5 45t-12.5 49t-25 39t-43 16q-32 -1 -62 -20.5t-53.5 -49.5t-37.5 -67t-13 -73q0 -25 8 -48t25 -42q11 -12 26.5 -15t30.5 1q4 1 7.5 -3t5 -8.5t0.5 -9
t-5 -4.5q-28 -5 -52 4.5t-44 30.5q-22 24 -32 52t-10 57q0 40 16 80t44.5 71.5t66.5 51.5t82 22q46 1 81 -18t58.5 -50.5t36 -71.5t13.5 -79q2 -97 -5 -196.5t-18 -201.5l11 -3q32 91 73.5 184.5t94 173t116 137.5t139.5 78q13 3 21 -4t10 -17.5t-3 -21t-17 -13.5
q-72 -19 -133 -71.5t-111 -124.5t-90 -157.5t-71 -169.5q48 -14 87 -52.5t72.5 -87.5t64 -102t62 -98t65.5 -74.5t76 -31.5q21 0 36 11zM370 350l2 6h-2v-6z" />
    <glyph glyph-name="L" unicode="L" horiz-adv-x="490" 
d="M599 -10q5 3 10 1.5t8 -5t3.5 -9t-3.5 -9.5q-28 -34 -55.5 -54t-53.5 -27q-35 -9 -85 -4t-103.5 14.5t-105 19.5t-88.5 11q-29 0 -54 -6t-51 -21q-5 -3 -10 -1.5t-8 5.5t-3.5 8.5t3.5 9.5q32 38 62 55q22 51 35 112.5t21.5 126t15 128.5t14.5 120q-29 7 -61.5 20
t-53.5 34q-5 5 -4 10.5t4.5 9t9.5 4t12 -4.5q17 -17 45.5 -28t51.5 -17q8 50 19 104t26.5 106.5t37 99.5t49 82.5t62.5 56.5t79 21q31 0 53.5 -14.5t36.5 -37t21.5 -50t8.5 -54.5q1 -59 -20 -122t-60 -115.5t-93 -86t-119 -33.5q-7 -46 -14 -104t-17 -118.5t-24.5 -118.5
t-36.5 -104q38 0 82 -7t88.5 -15.5t86 -16t74.5 -7.5q29 0 53.5 8.5t50.5 22.5zM433 933q-28 0 -50.5 -28t-40.5 -71.5t-31.5 -96t-23.5 -102.5t-16.5 -91t-9.5 -61q57 1 104 32t80.5 78t52 103.5t17.5 107.5q0 18 -5 40t-14.5 41.5t-25 33.5t-37.5 14z" />
    <glyph glyph-name="M" unicode="M" horiz-adv-x="1230" 
d="M1230 283q1 2 7 2.5t13.5 0.5t13 -1t5.5 -2q-7 -21 -17.5 -54t-24 -70.5t-31 -75.5t-38 -69t-44.5 -50.5t-52 -19.5q-47 0 -71.5 28t-34.5 69.5t-8.5 87.5t5.5 82q8 69 22.5 137.5t21.5 140.5q1 16 3 45.5t-1 59t-12.5 51t-30.5 21.5q-23 0 -44.5 -24t-42.5 -65.5
t-41.5 -97.5t-40 -119.5t-38 -132t-36.5 -134.5q-3 -28 -21.5 -43.5t-38 -16t-33 15.5t-7.5 51q5 29 11 74t12 99t12 113t10 115t6.5 105t1.5 84q-1 40 -9.5 67.5t-29.5 27.5q-20 0 -41 -25t-40 -63t-36.5 -82.5t-30.5 -84.5t-21 -68t-9 -33q-27 -103 -48 -221t-41 -246
q-1 -11 -2.5 -22t-6.5 -19.5t-13.5 -13.5t-22.5 -3q-17 3 -30.5 18.5t-11.5 41.5q1 19 5.5 62.5t9 101.5t8.5 126t4.5 135.5t-3.5 130t-15 110.5t-30.5 76t-49.5 27q-32 -2 -62 -19.5t-52.5 -45.5t-36 -61.5t-11.5 -66.5q1 -23 9.5 -43t26.5 -37q11 -11 26.5 -13t30.5 1
q4 1 7.5 -2t5 -7t0.5 -8t-4 -5q-28 -5 -52.5 3t-44.5 26q-23 22 -33 47t-12 51q-2 36 13.5 72t43 65.5t65.5 48.5t82 22q66 3 106 -31.5t61 -93.5t26 -135.5t2 -157.5q5 24 11 47.5t12 46.5q6 22 16 59t24.5 79.5t33.5 86t41.5 79t49 58t56.5 22.5q31 0 52 -15t33 -40
t17.5 -58t5.5 -68q1 -36 -0.5 -80t-4.5 -92t-7.5 -97.5t-8.5 -97.5q30 106 56 185.5t54 133.5t60 81.5t73 28.5q49 1 75 -27.5t37 -71t10.5 -90.5t-4.5 -85q-8 -75 -24.5 -146.5t-24.5 -143.5q-2 -15 -4 -40t0.5 -49t11.5 -41.5t29 -17.5q17 0 33.5 17.5t32 45.5t29 62.5
t24.5 67t19 59.5t13 41z" />
    <glyph glyph-name="N" unicode="N" horiz-adv-x="977" 
d="M977 283q1 2 6 2.5t11 0.5t10.5 -1t4.5 -2l-17 -51t-23 -63t-29.5 -65.5t-37 -58.5t-45.5 -42.5t-54 -16.5q-42 0 -67 20t-37.5 52.5t-15.5 73.5t0 82.5t9.5 79.5t11.5 65q3 14 10.5 46t15 71.5t13 82.5t4.5 78.5t-10.5 58.5t-32.5 23q-35 0 -70 -42t-69 -111.5t-66 -160
t-60 -186.5t-52 -191.5t-42 -174.5q-5 -23 -16.5 -31t-25.5 -6q-17 3 -30.5 20.5t-11.5 46.5q5 101 12 209.5t12 218.5t7 218.5t-3 209.5q-1 19 -5 45t-13.5 49t-26 38t-42.5 14q-32 -2 -62 -21.5t-52.5 -50.5t-36 -68.5t-11.5 -73.5q1 -25 9.5 -47.5t26.5 -40.5
q11 -12 26.5 -14.5t30.5 0.5q4 1 7.5 -2.5t5 -8t0.5 -8.5t-4 -5q-28 -6 -52.5 3t-44.5 29q-23 24 -33 52t-12 57q-2 40 13.5 80t43 72.5t65.5 53.5t82 24q46 3 81 -15.5t59.5 -50t38 -71t15.5 -78.5q3 -77 0.5 -157.5t-8 -162t-13.5 -164.5t-15 -164q20 83 43.5 167t50 162
t56.5 146t63 118.5t70 79.5t77 29q44 0 70 -22.5t38 -59t13 -82.5t-4 -91.5t-12.5 -87t-13.5 -69.5q-3 -13 -9.5 -42t-12.5 -64.5t-10.5 -73.5t-2.5 -69.5t11.5 -51.5t31.5 -20q18 0 35 15.5t33 39.5t29.5 54.5t25 59.5t20 53.5t13.5 38.5z" />
    <glyph glyph-name="O" unicode="O" horiz-adv-x="815" 
d="M752 531q0 -61 -11 -131.5t-33.5 -141.5t-58 -137t-83 -117t-108 -81.5t-133.5 -30.5q-51 0 -91.5 18.5t-70.5 50t-49.5 73.5t-28.5 90q-25 22 -42 52t-27 65t-13.5 73t-1.5 76q2 58 17 123t41.5 128t64 121t85.5 102t105.5 70.5t124.5 26.5q57 0 102.5 -18t80.5 -49.5
t59.5 -74t40 -90t23 -98.5t7.5 -100zM674 542q0 38 -4 81.5t-14 87t-27.5 83t-44 70.5t-63 49t-84.5 19q-62 0 -115.5 -25.5t-98 -68t-79.5 -98.5t-59.5 -116.5t-39 -121t-16.5 -113.5q-2 -58 8.5 -116t41.5 -100q-5 59 5 130.5t29 143.5t45 139.5t53 117.5q6 11 18.5 15.5
t25.5 4.5q12 0 23.5 -6t18.5 -15.5t9 -21t-5 -23.5q-30 -54 -55 -122t-42 -141t-24 -146t-2 -136q27 -6 62 -1q8 1 12.5 -3.5t5 -9.5t-3 -10t-10.5 -6q-34 -3 -62 0q4 -32 14 -61t26.5 -51.5t41 -36t59.5 -13.5q52 0 98 26.5t84.5 72t69.5 106t52.5 129.5t33.5 142.5
t13 144.5z" />
    <glyph glyph-name="P" unicode="P" horiz-adv-x="770" 
d="M672 963q43 0 77.5 -18t58 -48t35.5 -68.5t12 -79.5q0 -84 -32 -162t-86.5 -138.5t-129 -98t-160.5 -39.5q-6 0 -9.5 4.5t-3.5 9.5t3 10t10 5q75 3 132 42t96 98.5t59.5 130.5t20.5 138q0 21 -3 50t-12.5 56t-27 45.5t-45.5 18.5q-42 0 -76 -25.5t-62 -69t-49.5 -101.5
t-38.5 -121.5t-29 -128.5t-20 -124t-13 -107.5t-8 -78.5q-6 -60 -12 -119.5t-10 -119.5q-2 -32 -14.5 -43.5t-29.5 -9.5q-17 3 -30.5 20.5t-11.5 46.5q5 101 11.5 204.5t11.5 208t6.5 208t-3.5 204.5q-1 19 -5 45t-13.5 49t-26 38t-42.5 14q-32 -2 -62 -21.5t-52.5 -50.5
t-36 -68.5t-11.5 -73.5q1 -25 9.5 -47.5t26.5 -40.5q11 -12 26.5 -14.5t30.5 0.5q4 1 7.5 -2.5t5 -8t0.5 -8.5t-4 -5q-28 -6 -52.5 3t-44.5 29q-23 24 -33 52t-12 57q-2 40 13.5 80t43 72.5t65.5 53.5t82 24q46 3 81 -15.5t59.5 -50t38 -71t15.5 -78.5q2 -32 2 -64.5v-64.5
q16 72 39.5 138.5t56 117.5t76 81t100.5 30z" />
    <glyph glyph-name="Q" unicode="Q" horiz-adv-x="811" 
d="M620 72q19 -19 33.5 -42.5t21 -49.5t3.5 -53t-18 -52q-12 -20 -30 -32t-41 -12q-3 0 -4.5 3.5t-1.5 7.5t2 7.5t6 3.5q13 0 25 5t19 16q12 21 13.5 43.5t-4 44.5t-17.5 42.5t-28 38.5q-25 -32 -55.5 -59.5t-65 -48t-73 -32t-80.5 -11.5q-52 0 -92.5 18.5t-70.5 50
t-49 73.5t-28 90q-25 22 -42 52t-27 65t-13.5 73t-1.5 76q2 57 17 121.5t41.5 128t64 121.5t85 102.5t105 71t123.5 26.5q77 0 133 -28.5t93 -76.5t57.5 -112t26 -135.5t-1.5 -147t-24.5 -147t-43 -134t-57.5 -108.5zM325 -79q68 0 124 44.5t101 115.5q-23 12 -55 19t-67 7
q-30 0 -61 -5l-62 -10t-62 -8.5t-61 -0.5q4 -32 14 -61t27 -51.5t42 -36t60 -13.5zM566 109q40 73 66.5 162.5t36 181t1.5 178t-36 153.5t-77.5 107.5t-122.5 40.5q-62 0 -115 -26t-97.5 -68.5t-79 -98.5t-59 -116t-38.5 -121t-16 -113q-2 -58 8.5 -116t41.5 -100
q-3 42 0 85q4 50 15.5 108t28.5 117t39.5 116t48.5 105q6 11 18.5 15.5t25.5 4.5q12 0 23.5 -6t18.5 -15.5t9 -21t-5 -23.5q-24 -43 -44.5 -95t-36.5 -106.5t-26 -108t-14 -98.5q-3 -30 -4 -65.5t2 -70.5q29 -5 60.5 -2t64 8t64 10.5t59.5 5.5q39 0 75.5 -6.5t64.5 -20.5z
" />
    <glyph glyph-name="R" unicode="R" horiz-adv-x="800" 
d="M914 -66q5 4 10.5 2.5t9.5 -5t4.5 -9t-3.5 -9.5q-33 -31 -63 -44.5t-58 -14.5q-47 -1 -89 29.5t-77 75t-63 95t-47 88.5q-15 30 -32 62.5t-36.5 60.5t-40.5 48.5t-44 28.5q-12 -99 -22 -199.5t-16 -199.5q-2 -32 -14.5 -43.5t-29.5 -8.5q-17 2 -30.5 19.5t-11.5 46.5
q5 102 12 209.5t12 217.5q-41 20 -65 43q-5 5 -4 11t4.5 9.5t9.5 4t12 -5.5q18 -17 45 -27q5 102 6 201t-4 193q-1 19 -5 45t-13.5 49t-26 38t-42.5 14q-32 -2 -62 -21.5t-52.5 -50.5t-36 -68.5t-11.5 -73.5q1 -25 9.5 -47.5t26.5 -40.5q11 -12 26.5 -14.5t30.5 0.5
q4 1 7.5 -2.5t5 -8t0.5 -8.5t-4 -5q-28 -6 -52.5 3t-44.5 30q-23 23 -33 51t-12 57q-2 40 13.5 80t43 72.5t65.5 53.5t82 24q46 3 81 -15.5t59.5 -50t38 -71t15.5 -78.5q2 -32 2 -64t-1 -65q16 72 39.5 138.5t56.5 117.5t76.5 81.5t100.5 30.5q43 0 77.5 -18.5t58 -48.5
t35.5 -68.5t12 -79.5q0 -81 -30 -157.5t-82.5 -136.5t-123.5 -98.5t-154 -44.5q47 -32 86 -81t71 -99q20 -30 48.5 -74.5t62 -85.5t70 -70.5t73.5 -29.5q22 0 38 12zM391 393q58 -7 107.5 6t90 41t71.5 68.5t52 88t32 99.5t11 103q0 21 -3 50t-12.5 56t-27 45.5t-45.5 18.5
q-42 0 -76.5 -26t-62.5 -70.5t-50 -103t-38.5 -122.5t-28.5 -129.5t-20 -124.5z" />
    <glyph glyph-name="S" unicode="S" horiz-adv-x="755" 
d="M802 832q8 -27 2.5 -52.5t-25.5 -45.5q-3 -2 -7 -0.5t-7 5.5t-4 8.5t2 7.5q11 11 17 25t1 29q-11 41 -41.5 65.5t-69.5 37.5t-81.5 17t-77.5 4q-33 0 -77.5 -5t-91 -15.5t-92 -28.5t-81.5 -43.5t-57.5 -60.5t-21.5 -80q0 -41 25.5 -70.5t66.5 -52.5t93 -42.5t106 -40.5
t105.5 -46.5t90.5 -61t62 -83t20 -112.5q-3 -60 -39 -110t-93.5 -86t-132 -56.5t-154.5 -21.5q-44 0 -82 8t-67 25.5t-46 45.5t-17 67q0 33 14 62.5t38 52t55 35t63 12.5q28 0 51 -11.5t37 -35.5q2 -3 -0.5 -6.5t-7 -6t-9.5 -2.5t-7 4q-8 14 -19.5 23.5t-28.5 9.5
q-28 0 -55 -14t-48.5 -35.5t-35 -49t-13.5 -55.5q-1 -26 12.5 -45t37.5 -31.5t56 -18.5t68 -6q55 0 112.5 16t104 47t77 78t33.5 109q2 43 -21 75.5t-62.5 58.5t-90.5 48t-104.5 44t-105 46.5t-91.5 55.5t-64.5 71.5t-23.5 93.5q1 52 30 93.5t75.5 73t105 54t117.5 37
t113.5 21t93.5 6.5t81 -5t79.5 -20.5t66 -43t40.5 -72.5z" />
    <glyph glyph-name="T" unicode="T" horiz-adv-x="627" 
d="M541 829q7 -2 15.5 -5t15.5 -11t10.5 -21.5t-0.5 -34.5q-17 -87 -30 -180.5t-24.5 -188t-20.5 -188.5t-16 -184q-3 -35 -22.5 -53t-44.5 -18q-11 0 -21 3t-17 11.5t-10 23t0 35.5q13 89 26 183.5t25 190t23.5 191t22.5 185.5q5 35 26 50.5t42 10.5zM1010 973q2 6 8 7.5
t12.5 0t11 -6t3.5 -9.5q-11 -36 -31 -60.5t-46 -40.5t-57.5 -24t-64.5 -10q-64 -5 -130.5 2.5t-134 19t-134.5 23t-132 14.5q-48 2 -93 -2t-81.5 -19.5t-62 -47t-34.5 -85.5q-7 -38 -0.5 -77t35.5 -68q11 -11 26.5 -13.5t30.5 2.5q4 1 7 -2.5t4.5 -8t1 -9t-3.5 -5.5
q-27 -7 -51.5 1t-44.5 28q-26 26 -37.5 56.5t-11.5 62.5q0 67 28 115q21 38 54 62t72 37t81 17t82 3q67 -2 133 -10.5t131.5 -18.5t132.5 -18t138 -9q26 0 50 2.5t44.5 12t36.5 28t27 50.5z" />
    <glyph glyph-name="U" unicode="U" horiz-adv-x="910" 
d="M910 283q1 2 6 2.5t11 0.5t11 -1t4 -2q-7 -21 -18.5 -54t-26 -70.5t-33.5 -75.5t-41 -68.5t-48 -50t-55 -19.5q-50 0 -78 28t-39 71q-10 38 -9.5 100t6.5 138q-17 -50 -38.5 -96.5t-49.5 -82.5t-63.5 -57.5t-80.5 -21.5q-39 0 -64.5 14t-40.5 38t-21.5 54.5t-6.5 62.5
q-1 40 8 99.5t19.5 124.5t19.5 130t9 117q0 19 -2.5 45t-11 49.5t-24 40t-41.5 16.5q-32 0 -63 -19t-55 -48t-39.5 -66t-15.5 -73q0 -25 7 -47.5t24 -42.5q11 -12 26 -15.5t31 -0.5q4 1 7.5 -3t4.5 -8.5t0 -9t-5 -4.5q-28 -5 -52 5.5t-43 31.5q-21 25 -30.5 53.5t-8.5 57.5
q0 40 17.5 79t46.5 70t68 50.5t83 19.5q46 0 79 -20t54 -52.5t31 -72.5t10 -79q0 -53 -9 -113.5t-19 -121t-18.5 -115.5t-8.5 -97q0 -14 1 -34t6 -38.5t15.5 -31.5t30.5 -14q18 0 38.5 10.5t37.5 24.5q33 27 58 74t44.5 102t33 111t23.5 103q6 51 13 101t13.5 95.5t12 85.5
t9.5 72q4 35 24 52t45 17q22 0 37.5 -16t7.5 -59q-18 -86 -32.5 -178t-25.5 -184.5t-19 -184t-12 -177.5q-1 -25 0 -47.5t6 -39.5t14 -27t23 -10q18 0 36.5 18.5t36 47.5t33.5 64t29 68.5t22.5 61.5t14.5 42z" />
    <glyph glyph-name="V" unicode="V" horiz-adv-x="771" 
d="M961 989q15 9 24 3t11.5 -18.5t-1.5 -26.5t-14 -20q-36 -21 -70.5 -68.5t-67 -112t-62.5 -141.5t-58 -157q-21 -59 -40.5 -117.5t-38.5 -112t-36 -100.5t-32 -84q-7 -18 -16.5 -36t-22.5 -32t-29.5 -23t-38.5 -9q-38 0 -63 21.5t-40.5 55.5t-24 75t-12.5 80
q-8 70 -11.5 143.5l-7 147t-9.5 146t-19 140.5q-4 18 -11.5 43t-20 46.5t-31 34.5t-44.5 8q-31 -6 -58 -30t-45 -57.5t-26 -72t-2 -74.5q3 -14 9.5 -30.5t16.5 -30.5t23.5 -23t30.5 -9q12 0 27 5q4 1 7.5 -1.5t6 -7t2 -9t-3.5 -5.5q-17 -6 -34 -6q-25 0 -46 11t-37.5 29
t-27.5 40.5t-15 44.5q-7 40 2.5 82t32.5 78t57.5 62t77.5 35q45 9 81 -4.5t63 -41.5t44 -65t25 -76q12 -64 18 -132t9.5 -137t6.5 -137.5t9 -134.5q3 -33 8 -67.5t13 -62.5t19.5 -46t26.5 -18q28 0 48 51q14 32 29.5 77.5t33 99.5t37 115t40.5 124q29 87 61 172.5
t66.5 158.5t72 127.5t77.5 79.5z" />
    <glyph glyph-name="W" unicode="W" horiz-adv-x="1138" 
d="M1308 974q15 10 24 4t12 -18.5t-1 -26.5t-14 -20q-30 -17 -58 -53.5t-54.5 -86.5t-51.5 -110.5t-48.5 -126t-45.5 -133t-43 -131.5q-8 -23 -17 -56t-21 -68.5t-28 -70t-36 -62.5t-45.5 -45.5t-57.5 -17.5q-24 0 -43 7.5t-33 20.5q-15 15 -28.5 47t-25 75t-20.5 93.5
t-15 101.5q-8 -54 -20 -110t-27 -104q-9 -27 -20 -55.5t-28 -51.5t-40.5 -38t-57.5 -16q-33 0 -56.5 12.5t-40 33t-27 47.5t-15.5 55q-5 26 -8.5 76t-6 112t-5.5 130.5t-6 133t-7 119.5t-10 89q-3 19 -10 44t-19 46.5t-30.5 35t-44.5 9.5q-31 -5 -58.5 -28.5t-46.5 -56.5
t-28 -71.5t-3 -74.5q5 -25 16 -46t31 -38q12 -11 27.5 -11.5t30.5 4.5q4 2 7.5 -1t5.5 -7.5t1.5 -9t-3.5 -5.5q-26 -9 -51.5 -3t-47.5 24q-26 21 -39.5 47.5t-18.5 55.5q-6 40 4.5 81.5t34 77t58.5 60.5t79 33q45 8 80.5 -6.5t62 -42.5t43 -66t22.5 -77q6 -35 10 -88
t7 -114.5t5.5 -127t5 -124.5t5.5 -107.5t8 -75.5q2 -12 6 -30.5t11 -35.5t17.5 -29.5t27.5 -13.5q19 0 34.5 15.5t27.5 37t20 44t13 36.5q13 42 23.5 90t18 95.5t12.5 91.5t7 79q-2 38 -1.5 69.5t3.5 53.5q5 35 24 52.5t44 17.5q22 0 38 -16t9 -59q-2 -13 -3 -45t0 -75
t4 -93.5t8 -101t11.5 -98t15.5 -84t19.5 -58.5t23.5 -22q20 0 38 17.5t33.5 44.5t28 60.5t22.5 66t17.5 60t12.5 43.5q20 66 42 138t46.5 142.5t50.5 136t54.5 120.5t59 96t62.5 61z" />
    <glyph glyph-name="X" unicode="X" horiz-adv-x="811" 
d="M920 948q12 5 21 1t12 -12.5t-1 -18.5t-17 -16q-77 -33 -144.5 -94t-126 -134.5t-108.5 -151.5t-92 -147q20 -80 42.5 -158.5t45 -141.5t45 -101.5t43.5 -38.5t42.5 25t44.5 70q15 29 27.5 62t23.5 66.5t19 65.5t14 59q1 2 6 2.5t10.5 0.5t9.5 -1t4 -2
q-6 -28 -14.5 -61.5t-20 -69t-25 -70t-28.5 -65.5q-12 -24 -27 -47t-34 -41t-42 -28.5t-53 -10.5q-35 0 -64.5 30t-55.5 79.5t-48.5 114.5t-41.5 136q-36 -57 -80.5 -121t-91.5 -119.5t-94 -94.5t-88 -45q-10 -2 -14.5 4t-4.5 14t4 15t11 8q27 3 57.5 22t61.5 49t62 67.5
t61 78.5t56.5 82t49.5 77q-17 65 -31.5 130t-27.5 122.5t-25 103.5t-22 75q-7 18 -18.5 41.5t-27.5 42.5t-36.5 28.5t-45.5 0.5q-30 -11 -52 -39.5t-34.5 -64.5t-13.5 -75.5t11 -73.5q8 -23 23 -42t38 -31q14 -8 29.5 -6t29.5 10q4 2 8 0t7 -6t3.5 -8.5t-2.5 -6.5
q-25 -14 -51 -13t-52 15q-28 16 -46.5 39t-28.5 51q-14 38 -11.5 80.5t19 82t46 71t70.5 47.5q43 16 81 9t69 -30t54 -57t37 -71q6 -15 14 -44.5t17.5 -69t21 -86.5t24.5 -98q43 71 92.5 151t107 154t123.5 135t143 94z" />
    <glyph glyph-name="Y" unicode="Y" horiz-adv-x="857" 
d="M857 283q1 2 6 2.5t11 0.5t10.5 -1t4.5 -2q-26 -75 -75 -126.5t-109 -90.5q-6 -36 -15 -87.5t-24 -108t-36.5 -112t-51.5 -100t-69 -72t-89 -27.5q-31 0 -53.5 10.5t-38.5 28.5t-24.5 43t-10.5 53q-5 67 20 121.5t68.5 97.5t98.5 75t110 53q12 82 20.5 166t14.5 164
q-15 -58 -37 -115t-52.5 -103t-71 -74.5t-93.5 -28.5q-39 0 -64.5 14.5t-40.5 38.5t-21.5 54.5t-7.5 62.5q0 40 8 95t18.5 115t19 121t8.5 113q0 19 -2.5 45t-11 49.5t-24 40t-41.5 16.5q-32 0 -63 -19t-55 -48t-39.5 -66t-15.5 -73q0 -25 7 -47.5t24 -42.5q11 -12 26 -15.5
t31 -0.5q4 1 7.5 -3t4.5 -8.5t0 -9t-5 -4.5q-28 -5 -52 5.5t-43 31.5q-21 25 -30.5 53.5t-8.5 57.5q0 40 17.5 79t46.5 70t68 50.5t83 19.5q46 0 79 -20t54 -52.5t31 -72.5t10 -79q0 -53 -8.5 -109.5t-18 -112t-17.5 -106.5t-8 -92q0 -14 0.5 -34t5.5 -38.5t15.5 -32
t30.5 -13.5q19 -1 39.5 10t37.5 25q37 32 64.5 85t47.5 113t33 118.5t22 100.5q5 19 15 37t33 17q17 0 29.5 -7t20 -19t11 -27t2.5 -31q-3 -88 -11 -191t-22 -208q49 35 87 77.5t59 99.5zM409 -411q30 0 54 25.5t42.5 65.5t32 88.5t23 95t15.5 85.5t9 60q-48 -20 -96 -50
t-86.5 -69t-61 -87.5t-17.5 -106.5q1 -18 6.5 -37.5t15.5 -35t25.5 -25t37.5 -9.5z" />
    <glyph glyph-name="Z" unicode="Z" horiz-adv-x="700" 
d="M674 611q-3 -62 -26.5 -118.5t-61.5 -106.5t-85.5 -93t-98.5 -77q46 -9 82.5 -33t61 -58.5t37.5 -76.5t12 -87q-1 -48 -17 -92t-43.5 -82t-64.5 -69t-79.5 -53t-88.5 -34t-92 -11q-45 0 -83 11.5t-66.5 34.5t-44.5 57t-16 80q0 39 13 78.5t37.5 70.5t59 50.5t77.5 19.5
q29 0 52 -12t37 -36q1 -3 -1.5 -6.5t-7 -5.5t-9 -2t-6.5 4q-8 13 -20 22.5t-28 9.5q-38 0 -68 -19t-51 -48.5t-33 -66t-12 -71.5q-2 -130 128 -130q71 1 131.5 30t104 78t67.5 112.5t24 133.5q0 33 -6.5 61.5t-24 49.5t-49 32t-81.5 10q-9 0 -18 5.5t-13.5 14.5t-3 19
t12.5 18q47 33 93.5 81t84 104t61 117t25.5 121q1 39 -10 71t-32.5 55t-52.5 36t-69 13q-37 0 -78 -15t-80.5 -41t-75 -60.5t-62 -73t-41.5 -78.5t-13 -76q1 -23 11.5 -41.5t36.5 -24.5q4 -1 5.5 -5.5t0.5 -9.5t-4 -8.5t-6 -2.5q-42 11 -58 40t-16 64q0 49 18 96.5
t48.5 89.5t71.5 77t87.5 60t96 37.5t97.5 10.5q55 -2 98 -23.5t71.5 -56t42 -79t11.5 -92.5z" />
    <glyph glyph-name="bracketleft" unicode="[" horiz-adv-x="328" 
d="M393 1003q7 0 11 -4.5t4 -10t-3.5 -10t-10.5 -4.5l-116 -1q-5 -31 -13 -82t-17.5 -115.5t-20.5 -138.5t-21.5 -150t-21 -150.5t-19.5 -139.5t-15.5 -117t-10.5 -83l134 1q7 0 11 -4.5t4 -9.5t-3.5 -10t-10.5 -5l-206 -2q-8 0 -9.5 2.5t-0.5 9.5q2 23 7.5 71.5t13 113
t16.5 140.5t18 155.5t18.5 158t18 147.5t15 123.5t10.5 86.5q2 18 7.5 22t20.5 4l190 2v0z" />
    <glyph glyph-name="backslash" unicode="\" horiz-adv-x="370" 
d="M247 12q-24 0 -44 17.5t-25 52.5q-2 19 -7 60.5t-11.5 97t-14.5 121.5t-16 133.5t-16 133t-14.5 120.5t-11 95.5l-6.5 58.5q-4 32 7 45.5t28 13.5q18 0 33.5 -15t18.5 -44q2 -21 7.5 -62.5t13.5 -96.5t17.5 -119.5t19.5 -130.5t20.5 -130t19 -118.5t16 -96t11.5 -61.5
q8 -43 -7.5 -59t-38.5 -16z" />
    <glyph glyph-name="bracketright" unicode="]" horiz-adv-x="332" 
d="M290 1003q8 0 9 -2.5t0 -9.5q-2 -23 -7.5 -71.5t-13 -113t-16.5 -140.5t-18 -155.5t-18.5 -158t-17.5 -147.5t-14.5 -123.5t-10.5 -86.5q-2 -18 -7.5 -21.5t-20.5 -4.5l-190 -2q-8 0 -11.5 4.5t-3.5 10t3.5 10t10.5 4.5l115 1q5 31 13 82t17.5 115.5t20.5 138.5t21.5 150
t21 150.5t19.5 139.5t16 116.5t11 83.5l-134 -1q-8 0 -11.5 4.5t-3.5 9.5t3.5 10t10.5 5l206 2v0z" />
    <glyph glyph-name="asciicircum" unicode="^" horiz-adv-x="224" 
d="M194 860q3 -5 2.5 -11t-5.5 -10t-10.5 -3t-10.5 6l-68 73l-76 -65q-11 -10 -22 -1q-5 5 -4.5 11t4.5 11l76 95q11 14 25.5 12.5t23.5 -15.5l65 -103v0z" />
    <glyph glyph-name="underscore" unicode="_" horiz-adv-x="416" 
d="M342 58q17 -1 24.5 -6.5t7.5 -12.5q0 -18 -29 -24q-35 -8 -76.5 -11.5t-85 -5t-86 -2t-79.5 -1.5q-18 -1 -32.5 7t-15.5 26q-1 17 13 28t32 10l327 -8v0z" />
    <glyph glyph-name="grave" unicode="`" 
d="M216 668q-8 9 -8.5 21t9.5 20q11 8 22.5 5t18.5 -14l65 -103q9 -12 -2 -21q-12 -8 -21 3z" />
    <glyph glyph-name="a" unicode="a" 
d="M571 283q1 2 6 2.5t11 0.5t11 -1t4 -2q-7 -21 -17 -50t-22.5 -60t-28.5 -62t-36.5 -55.5t-45 -40t-53.5 -15.5q-36 0 -59 15t-37 40t-19.5 56t-6.5 62v18q-15 -28 -32.5 -53t-36.5 -44t-39.5 -30t-41.5 -11q-51 1 -82.5 32t-43.5 77.5t-5.5 101t31.5 100.5t68 76.5
t104 30.5q32 0 57.5 -13t41.5 -40q2 -3 -1 -7t-8 -6.5t-10 -2.5t-8 5q-8 15 -21.5 25.5t-31.5 10.5q-29 0 -52.5 -26.5t-39 -66.5t-23.5 -86t-6.5 -85.5t12.5 -65.5t33 -25t44 22.5t41.5 54t35.5 70.5t25 71l10 69q6 35 25.5 52.5t44.5 17.5q22 0 37.5 -16t7.5 -59
q-5 -25 -12 -56t-13 -63.5t-10 -64t-5 -56.5q0 -18 1.5 -34.5t6.5 -30t13.5 -21.5t22.5 -8q17 0 36.5 16t35.5 41q14 21 26.5 49t23 55.5t18.5 50.5t13 35z" />
    <glyph glyph-name="b" unicode="b" horiz-adv-x="557" 
d="M557 283q4 4 16.5 4t15.5 -4q-18 -32 -37.5 -55t-43 -38.5t-52.5 -23.5t-65 -10q-12 -26 -30 -51t-41 -45.5t-50.5 -33t-57.5 -12.5q-14 0 -28 5t-25.5 14t-18 21.5t-6.5 26.5q1 28 17 47.5t40 31.5t51 17.5t50 6.5q14 42 21.5 87t8 81.5t-7.5 60.5t-26 24
q-26 0 -56.5 -31t-58 -75t-48 -91t-26.5 -80q-1 -14 -1.5 -25t-0.5 -19q-1 -38 -14.5 -51.5t-31.5 -13.5q-17 0 -29.5 7t-20.5 19t-11.5 27t-2.5 31q2 32 7 85t13 118t20.5 136.5t30 141t41 133t53.5 111.5t67 76t83 27q30 -1 51 -14.5t33.5 -35t18.5 -48t6 -52.5
q0 -55 -21 -113t-58 -106t-87.5 -79t-110.5 -31q-8 -54 -14 -105t-11 -96q18 36 41.5 70.5t49.5 61.5t52.5 43t51.5 15q44 -2 71.5 -29.5t39.5 -69t8.5 -91.5t-20.5 -98q52 4 88 27t66 71zM308 930q-27 0 -49 -25.5t-39.5 -65.5t-31.5 -89t-24 -95t-16.5 -84t-9.5 -56
q52 1 96.5 30t77 72t51 94.5t18.5 99.5q0 17 -3.5 37.5t-11.5 38.5t-22.5 30.5t-35.5 12.5zM200 51q15 1 28 13t23.5 28.5t18 34t12.5 29.5q-15 -1 -35.5 -6t-38.5 -14t-30.5 -23t-12.5 -33q0 -11 12 -20.5t23 -8.5z" />
    <glyph glyph-name="c" unicode="c" horiz-adv-x="386" 
d="M386 283q1 2 6 2.5t11 0.5t11 -1t4 -2q-16 -45 -39.5 -92t-56.5 -85.5t-77 -62.5t-101 -24q-40 0 -69 15.5t-48.5 42t-28.5 60.5t-8 72q1 45 15.5 92.5t41 86.5t64.5 63.5t86 24.5q30 -1 55 -14t41 -39q2 -4 -1 -9t-8.5 -9t-11 -5t-8.5 4q-8 15 -21 25.5t-31 10.5
q-24 0 -45.5 -24t-38 -60t-26 -79t-9.5 -82q0 -27 5 -50.5t16.5 -41t29 -28t42.5 -10.5q36 0 68 22.5t57.5 56t44.5 71.5t30 68z" />
    <glyph glyph-name="d" unicode="d" horiz-adv-x="593" 
d="M593 283q1 2 6 2.5t11 0.5t11 -1t4 -2q-7 -21 -17.5 -50.5t-24.5 -61.5t-31.5 -64t-38.5 -57.5t-46.5 -41.5t-54.5 -16q-38 0 -62 17.5t-37.5 46.5t-18 66t-3.5 76q-15 -30 -33.5 -57.5t-39 -48.5t-42.5 -33t-44 -12q-40 0 -68 19t-44.5 49.5t-22.5 69t-0.5 79t21 79
t42 68.5t63 48t83.5 18q32 0 58.5 -13.5t42.5 -40.5q2 -3 -1 -7t-8 -6.5t-10 -3t-8 4.5q-9 15 -22.5 26t-32.5 11q-30 0 -54 -27.5t-40 -68t-24 -88t-6.5 -88t12.5 -67t34 -25.5q24 1 48.5 25.5t45.5 61t37 78t24 76.5q4 15 6.5 32.5t5.5 33.5q7 41 19 99.5t29.5 122t41 126
t53.5 112.5t67.5 81t82.5 31q38 0 62.5 -20.5t36 -55t11 -78t-13 -89t-36 -89.5t-57.5 -78.5t-77.5 -55.5t-95.5 -22q-8 -39 -17 -85.5t-16.5 -93.5t-12.5 -92.5t-4 -83.5q1 -39 10 -65.5t33 -26.5q18 0 36 15t34.5 38.5t31 52.5t26.5 57.5t21 53t14 38.5zM614 931
q-24 -1 -45 -27.5t-38.5 -67.5t-32 -91t-26 -97t-19 -85.5t-10.5 -56.5q61 3 107 35.5t76.5 80.5t45 102.5t13 100.5t-19 76.5t-51.5 29.5z" />
    <glyph glyph-name="e" unicode="e" horiz-adv-x="386" 
d="M386 283q1 2 6 2.5t11 0.5t11 -1t4 -2q-16 -45 -39.5 -92t-56.5 -85.5t-77 -62.5t-101 -24q-40 0 -69 15.5t-48.5 42t-28.5 60.5t-8 72q1 42 14.5 89t39.5 86.5t63.5 65t85.5 25.5q29 0 52 -10.5t35.5 -28t12.5 -41t-16 -49.5q-13 -21 -33.5 -38t-44.5 -28.5t-50 -16.5
t-50 -1q-3 -17 -5 -34t-1 -33q0 -27 5 -50.5t16.5 -41t29 -28t42.5 -10.5q36 0 68 22.5t57.5 56t44.5 71.5t30 68zM218 440q-24 1 -42.5 -15.5t-32.5 -40.5t-23.5 -50t-13.5 -44q19 -3 40 1.5t40.5 13.5t36 22.5t27.5 29.5q9 13 12 27.5t-0.5 26.5t-14.5 20t-29 9z" />
    <glyph glyph-name="f" unicode="f" horiz-adv-x="298" 
d="M331 283q-12 -28 -32.5 -53.5t-47.5 -46.5t-58 -37t-63 -25q45 -25 77 -68.5t49 -95.5t19 -106.5t-11 -101.5q-6 -21 -16 -41.5t-25 -37t-34 -27.5t-43 -11q-53 -1 -87 30.5t-53 84.5t-25.5 123t-5 146t10 153t19 145t21 121.5t16.5 82.5q7 30 29 51t56 12q17 -5 26 -22
t0 -53q-6 -21 -14 -58.5t-17 -86t-18.5 -105t-16.5 -116.5q31 4 63 17t60.5 32.5t51 43.5t36.5 50q5 4 18 3.5t15 -3.5zM235 -240q13 46 9.5 100t-23 104t-54.5 89t-84 55q-2 -16 -6.5 -56t-7.5 -89.5t-2.5 -103t8 -97.5t24.5 -72t48 -27q18 0 32.5 9.5t25.5 23.5t18.5 31
t11.5 33z" />
    <glyph glyph-name="g" unicode="g" horiz-adv-x="531" 
d="M531 283q1 2 6 2.5t11 0.5t11 -1t4 -2q-26 -74 -74.5 -125.5t-107.5 -90.5q-5 -37 -14 -89.5t-24 -109t-36.5 -112t-51.5 -99.5t-69.5 -71t-90.5 -27q-34 0 -58.5 12.5t-40 34t-22.5 49.5t-7 58q0 72 33 127.5t87 100.5q43 35 89.5 60t91.5 42q7 45 11.5 87.5t8.5 79.5
q-15 -31 -33 -59.5t-39 -50t-43.5 -34.5t-44.5 -13q-51 1 -82.5 32t-43.5 77.5t-5.5 101t32 100.5t68.5 76.5t104 30.5q31 0 56.5 -13t41.5 -40q2 -3 -1 -7t-8 -6.5t-10 -2.5t-8 5q-8 15 -21.5 25.5t-31.5 10.5q-29 0 -52.5 -26.5t-39 -66.5t-23.5 -86t-6.5 -85.5
t12.5 -65.5t33 -25q25 1 50.5 29t47 68t37 83.5t20.5 75.5q2 17 13.5 29.5t29.5 12.5q35 -1 50.5 -27t13.5 -58q-2 -35 -6.5 -85t-12.5 -109q48 35 86.5 77t58.5 99zM79 -411q31 -1 56 24.5t44.5 65t33.5 88t24.5 95.5t16.5 86.5t10 61.5q-40 -17 -79.5 -39t-77.5 -55
q-48 -41 -77.5 -87.5t-31.5 -111.5q0 -19 3.5 -41.5t13 -41.5t25 -32t39.5 -13z" />
    <glyph glyph-name="h" unicode="h" horiz-adv-x="556" 
d="M556 283q1 2 6 2.5t11 0.5t10.5 -1t4.5 -2q-8 -23 -18.5 -52t-23.5 -59t-29 -58t-36.5 -50t-45.5 -35t-55 -13q-42 -1 -73.5 31t-33.5 98q0 26 3 53t7 53t7.5 49t3.5 40q2 32 -6.5 54.5t-29.5 22.5q-16 0 -32.5 -16t-31.5 -42.5t-29.5 -60.5t-27.5 -70.5t-23.5 -71.5
t-18.5 -64q-5 -23 -17 -32t-27 -9q-17 0 -29.5 7t-20.5 19t-11.5 27t-2.5 31q2 33 7 85.5t13 117t20 135.5t29.5 140.5t40.5 133t53 111.5t67 76.5t82 28.5q31 0 52 -13.5t34.5 -35.5t19.5 -48.5t6 -52.5q0 -55 -21 -113t-58 -106t-87.5 -79t-110.5 -31q-11 -67 -17.5 -130
t-11.5 -115q14 40 31.5 79t38.5 69t45.5 48.5t52.5 18.5q36 0 59.5 -11.5t37 -30.5t18.5 -44.5t5 -53.5q-1 -49 -9.5 -98.5t-9.5 -83.5q-2 -45 7 -63t26 -17q18 0 34.5 13.5t31 34.5t27.5 47t23.5 51.5t19 48t13.5 36.5zM308 930q-27 0 -49 -25.5t-40 -65.5t-31.5 -88.5
t-23.5 -95t-16.5 -84.5t-9.5 -56q52 1 96.5 30t77 72t51 94.5t18.5 99.5q0 16 -3.5 37t-11.5 39t-22.5 30.5t-35.5 12.5z" />
    <glyph glyph-name="i" unicode="i" horiz-adv-x="285" 
d="M85 473q-24 7 -35 29.5t-3 48.5t30 38.5t46 5.5q23 -8 34.5 -30t3.5 -48t-30.5 -38.5t-45.5 -5.5zM285 283q1 2 6.5 2.5t11.5 0.5t10.5 -1t4.5 -2q-7 -21 -17 -49.5t-22.5 -59.5t-28.5 -61t-36.5 -54t-45 -39t-53.5 -15q-36 0 -59 15t-37 40t-20 56t-6 62q-1 44 6 97.5
t15 97.5q6 35 25 51.5t44 15.5q11 0 21 -3.5t17 -11.5t9 -22t-2 -35q-5 -26 -11.5 -56t-12.5 -60.5t-10.5 -61t-4.5 -55.5q0 -18 1.5 -34.5t6.5 -30t13.5 -21.5t22.5 -8q16 -1 36 15t36 41q14 22 26.5 49t23 53.5t18.5 49t12 34.5z" />
    <glyph glyph-name="j" unicode="j" horiz-adv-x="235" 
d="M59 472q-24 6 -36.5 28.5t-4.5 48.5q7 26 28.5 39.5t45.5 7.5q24 -7 36 -29t5 -48t-28.5 -39.5t-45.5 -7.5zM235 283q1 2 6 2.5t11 0.5t11 -1t4 -2q-26 -75 -75 -126.5t-109 -90.5q-6 -36 -15.5 -87.5t-24.5 -107.5t-36.5 -111.5t-51.5 -100t-68.5 -72t-87.5 -28.5
q-31 -1 -54 9.5t-38.5 29t-24 43.5t-10.5 53q-6 71 22 128t78 102q47 43 98 71t101 47q8 53 14.5 103.5t10.5 94t6.5 78t2.5 54.5q2 38 15 51.5t31 13.5q35 -1 50.5 -27t13.5 -57q-3 -41 -9 -105.5t-17 -141.5q49 35 87.5 77.5t58.5 99.5zM-215 -412q30 1 54 26.5t43 65.5
t33 88.5t24.5 95t16.5 86t10 60.5q-44 -19 -87 -44t-86 -65q-45 -42 -70 -91.5t-20 -113.5q1 -18 6 -37t14.5 -35t25 -26t36.5 -10z" />
    <glyph glyph-name="k" unicode="k" horiz-adv-x="492" 
d="M492 283q1 2 6 2.5t11 0.5t11 -1t4 -2q-13 -36 -29.5 -82t-40.5 -87t-57.5 -69.5t-79.5 -28.5q-45 -1 -76.5 19.5t-48.5 62.5q-14 35 -25 69t-28 51q-12 -31 -24.5 -67.5t-20.5 -62.5q-5 -21 -17 -29t-26 -8q-17 0 -29.5 7t-20.5 19t-11.5 27t-2.5 31q2 33 7 86t13 117
t20 135.5t29.5 141t40.5 133t53 111.5t67 76t83 28q30 0 51.5 -14t34.5 -35.5t19 -48t6 -52.5q0 -55 -21 -113t-58 -106t-87.5 -79t-110.5 -31q-12 -76 -19.5 -146.5t-12.5 -125.5q18 44 40.5 87.5t50 77.5t60 55t68.5 21q30 0 47.5 -13.5t22.5 -35t-2 -47.5t-27 -51
t-52 -46t-76 -32q17 -14 33 -37.5t24 -48.5q3 -8 7.5 -22.5t11.5 -29t16 -24.5t20 -10q26 0 49.5 28t42.5 66t33 75.5t21 57.5zM308 930q-27 0 -49 -25.5t-40 -65.5t-31.5 -88.5t-23.5 -95t-16.5 -84.5t-9.5 -56q52 1 96.5 30t77 72t51 94.5t18.5 99.5q0 16 -3.5 37
t-12 39.5t-22.5 30.5t-35 12zM156 255q29 4 56 17t48.5 29.5t36.5 34.5t21 33.5t1.5 26.5t-21.5 12q-21 1 -40.5 -11t-37 -33t-33.5 -49.5t-31 -59.5z" />
    <glyph glyph-name="l" unicode="l" horiz-adv-x="296" 
d="M296 283q1 2 6 2.5t11 0.5t11 -1t4 -2q-7 -21 -17.5 -50t-24.5 -60t-31 -62t-38.5 -55.5t-46.5 -40t-54 -15.5q-41 0 -66 19.5t-38 51t-16 71.5t-1 80.5t7.5 77.5t9.5 63q5 35 16 93t28.5 125t41 134.5t55 122.5t70 90t86.5 35q30 0 51.5 -14t35 -36.5t19.5 -49.5t6 -53
q0 -56 -21.5 -115t-59 -107.5t-89 -80t-111.5 -32.5q-8 -42 -14 -74.5t-9 -50.5q-2 -10 -7 -37.5t-10 -62.5t-8 -72.5t-0.5 -69t12 -52t30.5 -20.5q18 0 36 14t34 37t30.5 51t26.5 55.5t21 51.5t14 38zM317 931q-24 0 -45 -26.5t-38.5 -67.5t-32 -91.5t-26 -97.5t-19 -85.5
t-10.5 -56.5q52 3 97 32t77.5 73t51 96.5t18.5 100.5q0 16 -3.5 37t-12 40t-22.5 32.5t-35 13.5z" />
    <glyph glyph-name="m" unicode="m" horiz-adv-x="803" 
d="M803 283q1 2 6 2.5t11 0.5t11 -1t4 -2q-11 -32 -28.5 -78t-42.5 -88q-30 -49 -67 -75t-75 -26q-42 -1 -73.5 31t-32.5 98q-1 26 3 52.5t8.5 51t9 47t4.5 39.5q2 32 -6.5 54.5t-29.5 22.5q-16 0 -31 -15t-29 -40.5t-26.5 -58t-24 -68t-21.5 -70t-18 -63.5
q-5 -28 -19.5 -50t-46.5 -22q-23 0 -38.5 16t-7.5 59q2 12 7 39t9.5 61.5t7 71t1 66.5t-9 50t-23.5 20q-19 1 -36.5 -15.5t-32.5 -44t-28 -62t-24 -71t-19.5 -72t-14.5 -62.5q-3 -27 -19.5 -43t-34.5 -17t-31.5 13.5t-10.5 47.5q8 71 12.5 146.5t12.5 151.5q4 35 24 52.5
t45 17.5q11 0 21 -3.5t17 -12.5t9 -23.5t-2 -35.5l-12 -64q12 28 26.5 53t31.5 43t37.5 28t43.5 10q42 -2 66 -19t38 -45q8 -20 12 -47t4 -57q12 35 26.5 66.5t32.5 55t40.5 37t50.5 13.5q36 0 59.5 -11.5t37 -30.5t18.5 -44.5t5 -53.5q0 -24 -3.5 -48.5t-8 -47.5
t-8.5 -43.5t-4 -37.5q-2 -45 7.5 -63t25.5 -17q20 0 45 23.5t44 56.5q12 21 22 43t18.5 42.5t14.5 37.5t10 28z" />
    <glyph glyph-name="n" unicode="n" horiz-adv-x="529" 
d="M529 283q1 2 6.5 2.5t11.5 0.5t10.5 -1t4.5 -2q-13 -36 -29.5 -82t-40.5 -87t-58 -69.5t-81 -28.5q-42 -1 -73 31t-33 98q0 26 3.5 52.5t8.5 51t9 47t5 39.5q1 32 -7 54.5t-29 22.5q-16 1 -32 -15.5t-30.5 -43.5t-28 -61.5t-25.5 -71.5t-22.5 -72.5t-18.5 -64.5
q-3 -29 -19.5 -45t-34.5 -17t-31.5 13.5t-10.5 47.5q8 71 12.5 146.5t12.5 151.5q4 35 24 52.5t45 17.5q11 0 21 -3.5t17 -12.5t9 -23.5t-2 -35.5q-4 -20 -7.5 -39.5t-6.5 -37.5q12 32 26.5 59.5t32 48t38 32t45.5 11.5q36 0 59.5 -11.5t37 -30.5t19 -44.5t5.5 -53.5
q-1 -49 -12.5 -96t-12.5 -81q-1 -45 8 -63t26 -17q28 1 51.5 29t42.5 65.5t32.5 76t21.5 60.5z" />
    <glyph glyph-name="o" unicode="o" horiz-adv-x="470" 
d="M470 283q4 4 16 4t16 -4q-32 -56 -73.5 -89.5t-106.5 -36.5q-11 -29 -27 -54.5t-38 -44t-49 -29.5t-59 -11q-63 0 -101 31.5t-52.5 79t-7 103t33.5 103t69.5 79t102.5 31.5q37 0 64.5 -16t45.5 -42.5t26.5 -60t8.5 -69.5q0 -37 -9 -71q50 6 82 30.5t58 66.5zM153 50
q42 0 71.5 32t46.5 78q-21 2 -47.5 0t-50.5 -10.5t-40.5 -25t-16.5 -43.5q0 -15 11.5 -23t25.5 -8zM290 263q1 20 -2 45.5t-12 48.5t-25 39t-41 17q-29 1 -54 -29.5t-42 -75.5t-24 -96.5t1 -91.5q12 22 34 36.5t48.5 22t54.5 9.5t51 -1q11 39 11 76z" />
    <glyph glyph-name="p" unicode="p" horiz-adv-x="550" 
d="M550 283q5 4 17 4t16 -4q-18 -32 -38 -55t-43.5 -38.5t-52 -23.5t-64.5 -10q-12 -26 -30 -51t-41.5 -45.5t-51 -33t-57.5 -12.5q-14 0 -28 5t-25.5 14t-18 21.5t-6.5 26.5q1 28 17.5 47.5t40.5 31.5t51 17.5t50 6.5q14 42 21.5 87t7.5 81.5t-8 60.5t-26 24
q-19 0 -39.5 -16t-41 -41.5t-39.5 -57.5t-34 -64t-24.5 -60.5t-11.5 -47.5q-2 -21 -5.5 -42.5t-5.5 -42.5q-8 -62 -14.5 -123t-12.5 -114t-10.5 -94t-7.5 -63q-3 -29 -18.5 -44t-33.5 -15q-17 0 -28 13t-7 45l7 80.5t11 131t13 156t13 157t11.5 133t8.5 83.5q4 35 24 52.5
t45 17.5q22 -1 37.5 -17t7.5 -58q-8 -34 -17 -111q18 35 41 67.5t47.5 57t50 39.5t49.5 14q45 -2 72.5 -29.5t39 -69t8 -91.5t-20.5 -98q53 4 89 27t65 71zM193 51q15 1 28 13t23.5 28.5t18.5 34t13 29.5q-16 -1 -36 -6t-38 -14t-31 -23t-13 -33q0 -11 12.5 -20.5t22.5 -8.5
z" />
    <glyph glyph-name="q" unicode="q" horiz-adv-x="551" 
d="M393 53q45 -22 76.5 -66.5t48.5 -97.5t20 -109t-10 -101q-6 -21 -16.5 -42.5t-25.5 -38t-35 -26.5t-45 -10q-58 1 -93.5 35t-54.5 86.5t-24 118t-2 129.5t10.5 120t13.5 91q-29 -45 -62.5 -74.5t-68.5 -28.5q-51 0 -82.5 31.5t-43.5 78t-5.5 100.5t31.5 100.5t68 77
t104 30.5q32 0 57.5 -13.5t41.5 -39.5q2 -3 -1 -7t-8 -6.5t-10 -2.5t-8 4q-8 15 -21.5 25.5t-31.5 10.5q-29 0 -52.5 -26.5t-39 -66t-23.5 -86t-6.5 -85.5t12.5 -65t33 -25q21 1 42.5 21.5t41 51t35 67.5t25.5 70q4 17 10 34t16.5 30t25.5 18.5t37 -0.5q17 -5 26 -22t0 -53
q-8 -32 -21 -90.5t-25 -129.5q31 7 61 31t55.5 55t46.5 65t35 61q5 4 18.5 3.5t14.5 -3.5q-11 -27 -31.5 -63t-46 -70t-55 -61t-58.5 -36zM499 -310q12 46 8.5 100t-23 103.5t-53.5 89t-83 55.5q-3 -18 -8.5 -57.5t-9.5 -89t-4.5 -102.5t7.5 -96.5t26 -71.5t51 -28
q18 0 33 9t26 23.5t18.5 31.5t11.5 33z" />
    <glyph glyph-name="r" unicode="r" horiz-adv-x="391" 
d="M391 283q1 2 6.5 2.5t11.5 0.5t10.5 -1t4.5 -2q-7 -21 -17.5 -51.5t-24 -64t-30.5 -67t-38 -60.5t-46 -44t-54 -17q-36 0 -59.5 15t-37 40t-19.5 56t-6 62q0 21 3.5 53t8.5 66.5t10.5 67.5t9.5 56q-17 3 -32.5 7t-31.5 10q-2 -14 -4.5 -31t-6.5 -34.5t-8 -34t-9 -29.5
q-1 -2 -6.5 -3t-11.5 -1t-10.5 1t-3.5 3q5 15 10 32.5t8.5 36.5t7 37t5.5 34q-20 9 -31.5 29.5t-11.5 40.5q0 22 12.5 35t29.5 16.5t34.5 -3t27.5 -23.5q2 -3 1.5 -7t-5.5 -6q-11 -4 -17.5 -13t-6.5 -21q0 -14 8.5 -22t20.5 -13t25.5 -8t24.5 -5q17 -3 36 -5.5t36 -3.5
q17 -2 21 -8t1 -23q-6 -27 -14.5 -64.5t-16 -76t-13 -74t-5.5 -59.5q0 -18 1.5 -34.5t6.5 -30t13.5 -21.5t22.5 -8q16 -1 35.5 15t36.5 41q13 22 27 53t26 62.5t21 58t13 38.5z" />
    <glyph glyph-name="s" unicode="s" horiz-adv-x="309" 
d="M309 283q1 2 7 3t12 1t10.5 -1.5t3.5 -2.5q-24 -40 -58 -63.5t-70 -40.5q13 -23 18 -46t-2 -49q-7 -27 -25 -48t-42 -35.5t-52 -22.5t-55 -8q-45 -1 -72 19.5t-27 51.5q0 26 15.5 46t38 35t48.5 25.5t46 17.5q-19 24 -41.5 45.5t-42.5 45t-34 50.5t-16 62q-2 25 7.5 47.5
t26 39t39 26t47.5 9.5q42 0 69 -29q4 -5 3 -9.5t-5 -7.5t-9.5 -4t-9.5 2q-18 13 -38 13q-25 0 -42.5 -16t-17.5 -40q0 -23 17 -46t41 -47t51.5 -49.5t48.5 -53.5q29 13 58 31.5t52 48.5zM128 59q8 24 5.5 44t-12.5 37q-15 -5 -37.5 -14t-43.5 -21t-36.5 -28t-15.5 -35
q0 -17 15 -29t41 -12q26 1 50.5 15t33.5 43z" />
    <glyph glyph-name="t" unicode="t" horiz-adv-x="296" 
d="M372 613q3 4 8.5 4t11 -2t8.5 -6.5t0 -8.5q-8 -14 -23.5 -22.5t-33.5 -13t-36 -6.5t-33 -2q-30 -1 -60 2.5t-60 8.5q-13 -65 -26.5 -138.5t-23.5 -142t-13 -125t5 -86.5q5 -18 14 -28.5t24 -10.5q18 0 36 14t34 37t30.5 51t26.5 55.5t21 51.5t14 38q1 2 6 2.5t11 0.5
t11 -1t4 -2q-7 -21 -17.5 -50t-24.5 -60t-31 -62t-38.5 -55.5t-46.5 -40t-54 -15.5q-41 0 -65.5 18.5t-37.5 50.5q-16 37 -17.5 98t5.5 132.5t20 147t25 141.5q-37 7 -73 11.5t-73 2.5q-9 -1 -20.5 -2.5t-22.5 -4.5t-20.5 -8.5t-14.5 -14.5q-2 -3 -7.5 -4t-11.5 1t-9.5 5.5
t-0.5 9.5q7 14 19 23.5t26.5 14.5t30.5 7.5t30 3.5q39 2 77 -2.5t76 -12.5q5 21 11.5 49.5t13.5 54.5q8 30 23 51.5t41 21.5q24 0 39 -16t6 -59q-5 -22 -11.5 -53.5t-14.5 -69.5q29 -5 57 -8t57 -2q9 0 23 1t28.5 4t27 8t19.5 13z" />
    <glyph glyph-name="u" unicode="u" horiz-adv-x="557" 
d="M557 283q1 2 6.5 2.5t11.5 0.5t10.5 -1t4.5 -2q-8 -21 -17 -50t-21 -60t-27.5 -62t-35 -55.5t-43.5 -40t-53 -15.5q-40 0 -64.5 18.5t-37.5 47.5t-17 63.5t-3 65.5q-12 -29 -27 -56.5t-33.5 -49t-41.5 -35t-50 -13.5q-36 0 -59 15.5t-37 40t-20 55.5t-6 62q0 22 2 48
t5 53.5t7 53.5t7 48q5 35 24.5 52.5t44.5 17.5q23 -1 38.5 -17t6.5 -58q-5 -26 -11.5 -57t-12.5 -63t-10.5 -63.5t-4.5 -57.5q0 -17 1.5 -34t6.5 -30.5t13.5 -21.5t22.5 -8q28 0 51.5 31t42.5 72.5t32.5 82t20.5 60.5l8 52q5 35 24.5 52.5t44.5 17.5q11 0 21 -3.5t17 -12.5
t9 -23.5t-2 -35.5q-5 -25 -11.5 -56t-12.5 -63.5t-10.5 -64t-4.5 -56.5q0 -17 1.5 -34t6.5 -30.5t13.5 -21.5t22.5 -8q18 0 35 14.5t31.5 37.5t27.5 52t23 56.5t17 50.5t12 36z" />
    <glyph glyph-name="v" unicode="v" horiz-adv-x="421" 
d="M312 423q1 17 13 26.5t25.5 9.5t23 -9.5t5.5 -29.5q-5 -29 -18 -70t-32 -85.5t-43.5 -88t-52.5 -78.5t-59 -57t-63 -22q-35 0 -57 20t-34 51.5t-16.5 71.5t-4 79.5t4 75t7.5 58.5q5 35 24.5 52.5t44.5 17.5q11 0 21 -3.5t17 -12.5t9 -23t-2 -35q-2 -11 -7 -38t-9.5 -61
t-7.5 -71t-0.5 -67.5t11.5 -50t28 -19.5q11 0 21 6t20 16q28 28 51.5 70t40 88.5t26.5 93.5t13 85z" />
    <glyph glyph-name="w" unicode="w" horiz-adv-x="704" 
d="M594 423q1 17 13 26.5t25.5 9.5t23 -9.5t5.5 -29.5q-5 -29 -18 -70t-32 -85.5t-43.5 -88t-53 -78.5t-59.5 -57t-63 -22t-53 17.5t-33.5 46t-18 64.5t-5.5 74q-17 -39 -36.5 -75t-41.5 -64t-46 -44.5t-50 -16.5q-35 0 -57 19t-34.5 50t-16.5 70t-3 78.5t5 75.5t8 61
q5 35 24.5 52.5t43.5 17.5q23 0 38.5 -16t7.5 -58q-2 -12 -7.5 -38.5t-10.5 -59.5t-8.5 -68.5t-2.5 -64.5t8 -48t24 -19q15 0 31 15t32 39t31 55t28.5 63t24 63t17.5 55q2 15 6.5 29.5t12.5 26.5t20.5 19t30.5 7q23 0 38.5 -16t7.5 -58q-2 -11 -7 -38t-9.5 -61t-7.5 -71
t-0.5 -67.5t11.5 -50t28 -19.5q10 0 20 6t21 16q28 28 51 70t40 88.5t27 93.5t13 85z" />
    <glyph glyph-name="x" unicode="x" horiz-adv-x="388" 
d="M388 283q1 2 6.5 2.5t11.5 0.5t10.5 -1t4.5 -2l-12 -36t-19 -52.5t-25.5 -59.5t-31.5 -57t-37.5 -44t-43.5 -21q-26 -3 -49.5 7t-44.5 28.5t-39.5 43.5t-36.5 51q-29 -33 -54 -69t-44 -77q-6 -12 -18.5 -15t-24.5 0t-20 10.5t-4 16.5q23 48 61 88.5t81 79.5
q-28 44 -52 91.5t-44 94.5q-15 33 -10 57t26 38q18 12 40 7t38 -45q17 -44 36.5 -87.5t40.5 -85.5q51 51 97.5 108t77.5 126q5 9 18 14t26 3t20.5 -10.5t2.5 -18.5q-17 -36 -44 -69.5t-57.5 -65t-63 -61t-61.5 -57.5q15 -31 30 -61t29.5 -53t28.5 -36.5t27 -11.5
q12 2 25.5 17.5t26.5 38.5t24.5 50.5t21 52.5t16 44t9.5 26z" />
    <glyph glyph-name="y" unicode="y" horiz-adv-x="525" 
d="M525 283q1 2 6 2.5t11 0.5t11 -1t4 -2q-26 -75 -75 -126.5t-109 -90.5q-6 -36 -15.5 -87.5t-24.5 -107.5t-37 -112t-51.5 -100.5t-68.5 -72t-88 -27.5q-31 0 -53.5 10.5t-38 29t-24 43t-10.5 52.5q-5 65 18.5 119t67.5 98q49 49 104 80t109 51q9 60 15.5 115.5
t11.5 101.5q-19 -42 -41 -82t-45.5 -71.5t-46.5 -50.5t-45 -19q-35 0 -57 19t-34.5 50t-16.5 70t-3.5 78.5t4.5 75.5t8 61q5 35 24.5 53t44.5 18q22 0 38 -16t8 -59q-3 -12 -8 -38.5t-10.5 -59.5t-8.5 -68t-2 -64.5t8 -48t24 -18.5q13 0 29.5 17t32 42t28.5 51t21 44
q17 37 32.5 75t24.5 73q5 26 17 36t27 10q35 -1 50.5 -27t13.5 -57q-3 -41 -9 -105.5t-17 -141.5q49 35 87.5 77.5t58.5 99.5zM79 -411q29 1 52.5 27t42 65.5t32.5 88t24 95t16.5 85.5t9.5 60q-47 -20 -93.5 -48t-92.5 -74q-40 -39 -61 -87t-16 -105q1 -19 6.5 -38.5
t15.5 -35t25.5 -25t38.5 -8.5z" />
    <glyph glyph-name="z" unicode="z" horiz-adv-x="464" 
d="M464 283q1 2 6 2.5t11 0.5t10.5 -1t4.5 -2q-16 -44 -39 -73t-52.5 -50t-63.5 -37.5t-71 -36.5q21 -24 31.5 -53t12.5 -60t-3.5 -62t-15.5 -60q-16 -47 -43.5 -91.5t-64 -79t-80 -55.5t-91.5 -22q-31 0 -53.5 12t-37.5 32t-22 45.5t-7 53.5q0 61 29 114t74 96.5t99.5 76
t105.5 52.5l-6 10t-8 10q-7 -2 -23.5 -5t-33.5 -3q-23 0 -34 8.5t-12 18t8.5 18t28.5 8.5q21 0 39 -5q19 11 33.5 30t24 42t15 49.5t5.5 52.5q0 27 -5 52.5t-15.5 44.5t-27 30.5t-38.5 11.5q-26 0 -50 -24q-15 -14 -26 -33.5t-19.5 -40.5t-15 -41.5t-11.5 -35.5
q0 -2 -5.5 -2.5t-11.5 -0.5t-11 1t-5 2q8 23 16 47.5t17.5 47.5t22.5 44t30 37q21 20 45 29t49 9q40 0 69 -13.5t47.5 -37t27.5 -53.5t10 -63q0 -32 -6.5 -63.5t-20 -60t-32 -51.5t-42.5 -36l16 -12q36 20 68.5 35.5t60.5 34.5t50 43.5t36 62.5zM194 -143q6 21 11.5 46.5
t9 52.5t3.5 53.5t-5 49.5q-46 -20 -96.5 -50.5t-93 -71t-69.5 -89.5t-27 -105q0 -18 5.5 -37t16 -35t26.5 -26t37 -10q34 0 62 19t51 50.5t40 71.5t29 81z" />
    <glyph glyph-name="braceleft" unicode="{" horiz-adv-x="290" 
d="M332 980q7 -2 9 -6.5t1 -9.5t-4.5 -9t-7.5 -4q-22 0 -36 -25t-22 -57t-12 -64t-5 -46q-3 -35 -7 -75t-16 -76t-34.5 -63.5t-61.5 -38.5q33 -21 46 -53.5t14.5 -69.5t-5 -75.5t-12.5 -72.5q-3 -14 -7.5 -45.5t-5 -65t6.5 -61t28 -33.5q4 -1 6 -5.5t2 -10t-3 -9.5t-10 -3
q-52 4 -76.5 29.5t-32 61.5t-2.5 77.5t12 79.5q4 24 8.5 50.5t7.5 53.5t2.5 54t-6.5 52q-5 22 -8 33.5t-3.5 17t1.5 8t6.5 7t11 14t16.5 28.5q22 45 28.5 98t10.5 100q3 39 9 80.5t22.5 74.5t47 50.5t81.5 8.5z" />
    <glyph glyph-name="bar" unicode="|" horiz-adv-x="328" 
d="M126 876q4 36 24.5 53.5t46.5 17.5q11 0 21.5 -4t17.5 -13t9 -23.5t-2 -36.5q-6 -28 -12 -92t-12.5 -147.5t-12.5 -175.5t-11 -175.5t-9.5 -148.5t-7.5 -93q-4 -30 -19.5 -45.5t-34.5 -15.5q-17 0 -28 14t-8 46q2 18 4 59.5t4 97.5t4.5 123t5 136.5t5.5 137t5.5 124.5
t5 99t4.5 62z" />
    <glyph glyph-name="braceright" unicode="}" horiz-adv-x="296" 
d="M147 983q52 -5 76.5 -30t32 -61t2.5 -78t-12 -80q-5 -24 -9.5 -50.5t-7 -53.5t-2 -53.5t6.5 -51.5q8 -33 10.5 -43.5t-0.5 -15.5t-11.5 -13t-22.5 -37q-22 -45 -28.5 -97.5t-10.5 -99.5q-3 -39 -9.5 -80.5t-23 -74.5t-47 -50.5t-81.5 -8.5q-7 1 -9 5.5t-0.5 10t5 9.5
t6.5 4q22 0 36 24.5t22.5 57t12 64t5.5 46.5q3 35 7 74.5t15.5 75.5t34 63.5t61.5 38.5q-32 21 -45 53.5t-14.5 69.5t5 75.5t12.5 72.5q3 14 7.5 45.5t5 65t-7 61t-28.5 33.5q-3 1 -5.5 6t-2 10t3.5 9t10 4z" />
    <glyph glyph-name="asciitilde" unicode="~" horiz-adv-x="511" 
d="M363 307q6 7 12.5 6.5t11 -5.5t5.5 -13t-3 -17q-13 -26 -33.5 -34.5t-44.5 -7.5t-50 8t-50.5 13t-45 7.5t-33.5 -9.5q-6 -5 -13.5 -4t-12 6t-5.5 13t7 17q20 24 43.5 31t48.5 5.5t49 -9t46 -13.5t39.5 -6t28.5 12z" />
    <glyph glyph-name="exclamdown" unicode="&#xa1;" horiz-adv-x="456" 
d="M203 57q-11 0 -21 3.5t-17 12.5t-9.5 23.5t2.5 35.5q5 27 13 69t17 91.5t18.5 103t17.5 103t14.5 92t9.5 70.5q3 25 16.5 39.5t28 16t25.5 -11.5t8 -43q-2 -23 -6 -65t-9.5 -93t-11 -107t-10.5 -107.5t-9.5 -94.5t-7.5 -68q-4 -35 -24 -52.5t-45 -17.5zM305 771
q-23 0 -39 16t-16 39t16 39t39 16t39 -16t16 -39t-16 -39t-39 -16z" />
    <glyph glyph-name="cent" unicode="&#xa2;" horiz-adv-x="532" 
d="M442 422q1 2 6.5 2.5t11.5 -0.5t11 -2.5t4 -2.5q-17 -36 -39 -73.5t-50 -69.5t-62 -56t-76 -34q-7 -51 -12 -89.5t-7 -58.5q-4 -30 -19.5 -45.5t-34.5 -15.5q-17 0 -28 14t-8 46q2 17 6 55.5t11 92.5q-34 7 -57.5 26.5t-37 46.5t-18.5 59.5t-1 66.5q4 37 17.5 75.5
t35 71.5t50.5 58t64 36l30 251q4 36 24.5 53.5t46.5 17.5q11 0 21.5 -4t17.5 -13t9 -23.5t-2 -36.5q-6 -29 -17 -96t-25 -154q33 -16 48 -50q2 -4 -1.5 -9t-9 -8t-11.5 -3.5t-8 4.5q-4 9 -10 17.5t-14 13.5l-54 -360q31 6 60 28t53.5 51t43.5 60.5t31 57.5zM142 361
q-2 -32 3 -59t19 -47l33 270q-22 -35 -36.5 -79t-18.5 -85z" />
    <glyph glyph-name="sterling" unicode="&#xa3;" horiz-adv-x="624" 
d="M324 283q11 -1 16.5 -7.5t5.5 -14.5t-5.5 -15t-15.5 -7l-99 -6q-11 -62 -25 -121t-37 -107q38 0 82 -7t88.5 -15.5t86 -16t74.5 -7.5q29 0 53.5 8.5t50.5 22.5q5 3 10 1.5t8 -5t3.5 -9t-3.5 -9.5q-28 -34 -55.5 -54t-53.5 -27q-35 -9 -85 -4t-103.5 14.5t-105 19.5
t-88.5 11q-29 0 -54 -6t-51 -21q-5 -3 -10 -1.5t-8 5.5t-3.5 8.5t3.5 9.5q32 38 62 55q23 54 36 117.5t22 131.5l-48 -2q-17 -1 -30 8t-13 26q0 16 13 25t30 8l55 -2q2 17 3.5 32.5t3.5 31.5l-40 -2q-17 -1 -30 8t-13 26q0 16 13 25t30 8l48 -2q2 13 3 24.5t3 23.5
q-29 7 -61.5 20t-53.5 34q-5 5 -4 10.5t4.5 9t9.5 4t12 -4.5q17 -17 45.5 -28t51.5 -17q8 50 19 104t26.5 106.5t37 99.5t49 82.5t62.5 56.5t79 21q31 0 53.5 -14.5t36.5 -37t21.5 -50t8.5 -54.5q1 -59 -20 -122t-60 -115.5t-93 -86t-119 -33.5l-6 -37l96 -3
q11 -1 16.5 -7.5t5.5 -14.5t-5.5 -15t-15.5 -7l-103 -6q-2 -18 -5 -36t-5 -38zM433 933q-28 0 -50.5 -28t-40.5 -71.5t-31.5 -96t-23.5 -102.5t-16.5 -91t-9.5 -61q57 1 104 32t80.5 78t52 103.5t17.5 107.5q0 18 -5 40t-14.5 41.5t-25 33.5t-37.5 14z" />
    <glyph glyph-name="yen" unicode="&#xa5;" horiz-adv-x="857" 
d="M538 282q-10 0 -15 6.5t-5 13.5t5 13.5t15 6.5l63 4q7 57 12 113.5t10 111.5q-14 -53 -34 -106t-48.5 -95t-66 -68.5t-86.5 -26.5q-36 0 -59.5 13t-37.5 35.5t-20 50.5t-7 58q0 37 7.5 88t17 106.5t17.5 111.5t8 104q0 18 -2.5 42t-10 45.5t-22 37t-38.5 15.5
q-29 0 -57.5 -17.5t-51 -44.5t-37 -61t-14.5 -68q0 -23 7 -44t22 -39q11 -11 24.5 -14t28.5 -1q4 1 7 -2.5t3.5 -8t-0.5 -8.5t-4 -4q-26 -4 -48.5 5.5t-39.5 28.5q-20 23 -28.5 49.5t-7.5 53.5q0 37 16 73t43 64.5t63 46.5t77 18q43 0 73.5 -18.5t50 -48.5t28.5 -67t9 -73
q0 -48 -7.5 -100.5t-16.5 -103.5t-16.5 -98.5t-7.5 -85.5q0 -13 0.5 -31.5t5 -35.5t14.5 -29.5t28 -12.5q17 -1 36 9t35 24q34 29 59.5 78.5t43.5 104.5t30.5 109t20.5 93q2 9 5.5 18t8.5 16t12.5 11.5t18.5 4.5q16 0 27 -6.5t18.5 -17.5t10.5 -25t2 -29q-3 -76 -9.5 -164
t-18.5 -179l64 3q16 1 28 -7.5t12 -23.5t-12.5 -23.5t-27.5 -7.5l-71 3l-1 -6q-4 -20 -8 -45.5t-10 -54.5l104 -4q10 -1 15 -7t5 -13.5t-5 -14t-14 -6.5l-116 -6q-13 -55 -32.5 -111.5t-48 -102.5t-66.5 -75t-88 -29q-28 0 -49 9.5t-35.5 26.5t-22.5 40t-10 49
q-5 61 18.5 111.5t63.5 90.5t91 69.5t101 49.5q2 8 3 16.5t2 16.5zM423 -171q30 1 54 28.5t41.5 69.5t30 91.5t20.5 94.5h-16q-17 -1 -28.5 7.5t-11.5 23.5q0 14 12 22.5t28 7.5h26l7 43q-44 -19 -89 -46.5t-80 -63.5t-55.5 -80.5t-16.5 -98.5q1 -17 6 -35t14 -32t23.5 -23
t34.5 -9z" />
    <glyph glyph-name="section" unicode="&#xa7;" horiz-adv-x="692" 
d="M683 744q5 -21 1 -41t-20 -37q-4 -3 -11 4.5t-2 12.5q9 8 14 19.5t1 23.5q-9 33 -33 52.5t-55.5 30t-65 13.5t-61.5 3q-26 0 -61.5 -4t-72.5 -12.5t-73.5 -22.5t-65 -34.5t-45.5 -48.5t-17 -64q0 -33 20 -56t52.5 -41.5t74 -34t84.5 -32.5t84 -37t72.5 -48t49.5 -66
t16 -90q-2 -15 -4.5 -29t-8.5 -27q7 -18 10.5 -38t2.5 -43q-3 -48 -31.5 -87.5t-74 -68t-105 -45t-123.5 -17.5q-35 0 -65.5 6.5t-53.5 20.5t-36.5 36t-13.5 53q0 26 11.5 49.5t30.5 41.5t43.5 28t50.5 10q22 0 40.5 -9t29.5 -28q1 -2 -1 -5t-5.5 -5t-7.5 -2t-5 3
q-6 11 -15.5 18.5t-23.5 7.5q-22 0 -43.5 -11t-38.5 -28t-28 -39t-11 -44q0 -20 10.5 -35.5t29.5 -25.5t44.5 -15t54.5 -5q44 0 89.5 13t83 37.5t61.5 61.5t26 87q2 34 -16.5 60t-50 46.5t-72 38t-83 35.5t-83.5 37.5t-73 44t-51.5 56.5t-18.5 75q0 17 5 33.5t13 30.5
q-9 16 -14 34t-4 39q1 41 24 74t60.5 58t83.5 43t93.5 29.5t90.5 17t74 5.5t64.5 -4t63.5 -16.5t53 -34.5t32 -58zM116 496q2 -30 21.5 -52t50.5 -39.5t69.5 -32.5t79.5 -30.5t80.5 -34t71.5 -43.5q-10 42 -52.5 71t-99 53.5t-116.5 49t-105 58.5z" />
    <glyph glyph-name="dieresis" unicode="&#xa8;" 
d="M224 593q-23 0 -39.5 16t-16.5 39t16.5 39t39.5 16t39 -16t16 -39t-16 -39t-39 -16zM401 572q-23 0 -39 16t-16 39t16 39t39 16t39 -16t16 -39t-16 -39t-39 -16z" />
    <glyph glyph-name="copyright" unicode="&#xa9;" horiz-adv-x="443" 
d="M298 757q0 1 4.5 1t2.5 -1q-5 -17 -16 -37.5t-26 -38t-33.5 -29.5t-40.5 -12q-30 0 -46 21t-20.5 53.5t1.5 70t21 69.5t38 54t53 22q21 0 33.5 -14.5t7.5 -40.5q-4 -19 -17.5 -33t-34.5 -14q-18 0 -26 14q-2 1 2 2.5t5 -0.5q4 -9 14 -9q18 0 29.5 13t16.5 29q4 20 -3 31
t-19 11q-22 0 -39.5 -19.5t-29.5 -49.5t-18 -65t-4.5 -65t10.5 -50t28 -20t36 11t31 27.5t24.5 35t15.5 33.5zM25 786q0 39 14.5 73t40 59.5t60 40.5t73.5 15t73 -15t59.5 -40.5t40.5 -59.5t15 -73t-15 -73t-40.5 -59.5t-59.5 -40.5t-73 -15t-73.5 15t-60 40.5t-40 59.5
t-14.5 73zM43 786q0 -36 13.5 -67t36.5 -54t54 -36.5t67 -13.5t67 13.5t54 36.5t36.5 54t13.5 67t-13.5 67t-36.5 54t-54 36.5t-67 13.5t-67 -13.5t-54 -36.5t-36.5 -54t-13.5 -67z" />
    <glyph glyph-name="guillemotleft" unicode="&#xab;" horiz-adv-x="665" 
d="M604 623q11 -14 7 -30.5t-19 -28.5l-243 -194l194 -168q14 -11 13.5 -29t-14.5 -30t-30 -8.5t-28 17.5l-183 206q-10 11 -5 19t13 16l236 228q13 13 30.5 14.5t28.5 -12.5zM379 623q11 -14 7 -30.5t-19 -28.5l-243 -194l194 -168q14 -11 13.5 -29t-14.5 -30t-30 -8.5
t-28 17.5l-183 206q-10 11 -5 19t13 16l236 228q13 13 30.5 14.5t28.5 -12.5z" />
    <glyph glyph-name="registered" unicode="&#xae;" horiz-adv-x="435" 
d="M25 786q0 39 14.5 73t40 59.5t60 40.5t73.5 15t73 -15t59.5 -40.5t40.5 -59.5t15 -73t-15 -73t-40.5 -59.5t-59.5 -40.5t-73 -15t-73.5 15t-60 40.5t-40 59.5t-14.5 73zM43 786q0 -36 13.5 -67t36.5 -54t54 -36.5t67 -13.5t67 13.5t54 36.5t36.5 54t13.5 67t-13.5 67
t-36.5 54t-54 36.5t-67 13.5t-67 -13.5t-54 -36.5t-36.5 -54t-13.5 -67zM307 671q2 2 4.5 -0.5t0.5 -4.5q-15 -13 -28 -14q-11 0 -20.5 7t-17.5 17t-14.5 21.5t-10.5 20.5q-7 14 -15.5 28t-19.5 18q-2 -23 -4.5 -46t-4.5 -45q0 -14 -10 -12q-4 0 -7 4t-2 11q1 23 2 47.5
t3 49.5q-5 2 -8.5 5t-6.5 5q-2 2 0.5 4.5t5.5 0.5q2 -2 4 -3.5t6 -2.5q2 47 0 89q-1 9 -4.5 21.5t-15.5 11.5q-14 0 -26 -15.5t-11 -32.5q0 -12 8 -20q5 -5 13 -3q2 0 3 -2.5t-1 -3.5q-14 -2 -22 8q-10 10 -10 24q-1 19 13 35t34 18q21 2 32 -14.5t12 -34.5v-30
q8 33 22.5 59t40.5 26q20 0 30.5 -15.5t10.5 -33.5q0 -19 -6.5 -36.5t-18.5 -31.5t-28.5 -23t-35.5 -10q11 -7 20 -18t16 -23q5 -7 11.5 -17t14 -19.5t16 -16t16.5 -6.5q4 0 9 3zM187 776q20 -3 35.5 5t26 21.5t16.5 31t6 35.5q0 9 -3.5 23.5t-16.5 14.5q-15 0 -25.5 -13
t-18 -32.5t-12.5 -42.5t-8 -43z" />
    <glyph glyph-name="degree" unicode="&#xb0;" horiz-adv-x="466" 
d="M253 748q56 0 89 -31.5t46 -79t6 -103t-30.5 -103t-63 -79t-92.5 -31.5q-63 0 -101 31.5t-52.5 79t-7 103t33.5 103t69.5 79t102.5 31.5zM269 716q-27 1 -50.5 -25.5t-40 -67t-25.5 -87.5t-6 -88t18 -68t47 -27q36 0 64 26.5t46.5 66.5t26 86.5t1.5 87t-25.5 67.5
t-55.5 29z" />
    <glyph glyph-name="plusminus" unicode="&#xb1;" horiz-adv-x="459" 
d="M358 211q11 -1 16 -7.5t5 -14.5t-5.5 -15t-15.5 -7l-250 -10q-17 0 -30 9t-12 26q0 16 13 25t30 7zM238 264q-1 -11 -8 -16t-15 -5t-14.5 5t-6.5 16l-4 99l-79 -3q-17 0 -29.5 9t-12.5 26q0 16 13.5 25t29.5 7l77 -4l-2 91q-1 17 8.5 30t26.5 13q16 -1 24.5 -14t7.5 -30
l-7 -93l114 -6q11 -1 16.5 -7.5t5.5 -14.5t-5.5 -15t-15.5 -7l-117 -5z" />
    <glyph glyph-name="twosuperior" unicode="&#xb2;" horiz-adv-x="405" 
d="M299 436q7 1 10 -6.5t2.5 -16.5t-4 -17t-10.5 -9q-17 -2 -45.5 -2.5t-60.5 0l-64 1t-56 0.5q-8 0 -11 4t-3 10t2 12.5t5 11.5q18 34 41 59t47 47t47 43.5t41 48.5t29.5 62.5t12.5 85.5q0 19 -3 37.5t-11 32.5t-21 22.5t-31 8.5q-21 0 -42 -9.5t-39 -26.5t-30 -40.5
t-13 -51.5q-1 -17 3 -31.5t24 -15.5q2 0 3 -9.5t-4 -9.5q-26 2 -35.5 22.5t-8.5 43.5q1 33 15.5 60.5t37 47.5t50 31t54.5 11t47 -10.5t33.5 -27.5t20 -39.5t6.5 -47.5q0 -39 -12 -71.5t-32 -60t-45 -52.5t-52 -49.5t-53 -49t-47 -52.5h53h57.5t53 0.5t38.5 2.5z" />
    <glyph glyph-name="threesuperior" unicode="&#xb3;" horiz-adv-x="395" 
d="M226 652q45 -5 66 -33t21 -63q0 -25 -10 -50.5t-30.5 -46.5t-50 -33.5t-68.5 -12.5q-53 1 -81.5 38.5t-22.5 90.5q0 4 5 6t11 1.5t10.5 -3t4.5 -6.5q0 -34 4.5 -55t13.5 -33t21.5 -16.5t27.5 -5.5q28 3 50.5 17t38 34t24 43t8.5 44q0 27 -15.5 45.5t-50.5 17.5
q-6 -1 -9.5 8.5t1.5 13.5q16 13 33.5 32.5t32 42t24 46.5t9.5 46q0 27 -18 46.5t-45 19.5q-25 0 -48 -11.5t-41 -29.5t-29 -40.5t-12 -46.5q-1 -16 2.5 -30t22.5 -15q3 0 3.5 -9.5t-4.5 -9.5q-24 2 -33.5 22t-8.5 41q1 30 15.5 57t37 47.5t51 32.5t57.5 12q42 0 68 -26
t26 -68q0 -27 -10 -49.5t-26 -42t-36 -36t-40 -32.5z" />
    <glyph glyph-name="acute" unicode="&#xb4;" 
d="M212 576q-5 4 -5.5 10t2.5 11l66 103q7 11 18.5 14t21.5 -5q11 -8 10.5 -20t-8.5 -21l-84 -89q-5 -5 -10.5 -6t-10.5 3z" />
    <glyph glyph-name="cedilla" unicode="&#xb8;" horiz-adv-x="432" 
d="M187 29q-2 -15 -3 -28.5t-2 -24.5q47 4 67.5 -16.5t21.5 -48.5q0 -15 -5 -30t-14 -27t-21.5 -20t-28.5 -8q-17 -1 -31 8t-22 23.5t-9 31t8 31.5q5 8 13.5 14t19.5 0q2 -1 -0.5 -4.5t-3.5 -2.5q-8 5 -13 0t-9 -11q-6 -11 -6 -24.5t5 -25.5t15 -20t24 -8q13 0 22.5 7
t15.5 17.5t9.5 23t4.5 23.5q0 12 -3 23t-10.5 19t-20.5 13t-33 4q-5 -2 -11.5 0.5t-6.5 7.5q0 23 3 52z" />
    <glyph glyph-name="onesuperior" unicode="&#xb9;" horiz-adv-x="316" 
d="M219 896q14 0 23.5 -10t4.5 -36q-4 -17 -10.5 -53.5t-14.5 -83t-16.5 -97.5t-15.5 -97.5t-12.5 -83.5t-7.5 -54q-2 -18 -12 -27.5t-21 -9.5t-17.5 8.5t-4.5 28.5q1 13 5 42.5t9 69t11 85t12 89.5t11 83t9 67q-20 -32 -43.5 -64t-49.5 -44q-3 -2 -7 0t-6 5t-2 7t4 6
q15 8 31 25t31 37.5t27.5 41.5t21.5 37q12 28 40 28z" />
    <glyph glyph-name="ordmasculine" unicode="&#xba;" horiz-adv-x="470" 
d="M253 748q56 0 89 -31.5t46 -79t6 -103t-30.5 -103t-63 -79t-92.5 -31.5q-63 0 -101 31.5t-52.5 79t-7 103t33.5 103t69.5 79t102.5 31.5zM269 716q-27 1 -50.5 -25.5t-40 -67t-25.5 -87.5t-6 -88t18 -68t47 -27q36 0 64 26.5t46.5 66.5t26 86.5t1.5 87t-25.5 67.5
t-55.5 29z" />
    <glyph glyph-name="guillemotright" unicode="&#xbb;" horiz-adv-x="654" 
d="M579 411q9 -11 4 -19t-13 -16l-236 -227q-13 -14 -30.5 -15.5t-28.5 12.5t-6.5 30.5t18.5 28.5l243 194l-194 168q-14 11 -13.5 29t14.5 30t30 8.5t28 -17.5zM372 411q9 -11 4 -19t-13 -16l-236 -227q-13 -14 -30.5 -15.5t-28.5 12.5t-6.5 30.5t18.5 28.5l243 194
l-194 168q-14 11 -13.5 29t14.5 30t30 8.5t28 -17.5z" />
    <glyph glyph-name="onequarter" unicode="&#xbc;" horiz-adv-x="889" 
d="M216 896q11 0 20 -8.5t4 -31.5q-3 -14 -8.5 -45.5t-12.5 -72t-14.5 -84.5t-13.5 -84.5t-11 -72.5t-6 -47q-2 -16 -10.5 -24t-18.5 -8q-9 0 -15 7.5t-4 24.5q1 11 4.5 37t7.5 60t9.5 73.5t10.5 77.5t9.5 72t7.5 58q-17 -28 -37.5 -55.5t-42.5 -38.5q-3 -2 -6 0t-5 4.5
t-2 5.5t4 5q13 7 26.5 22t26.5 33t23.5 36t18.5 32q10 24 35 24zM469 961q23 0 38.5 -16t7.5 -59q-4 -20 -11.5 -61.5t-16 -96t-19 -118.5t-20.5 -130t-19.5 -130.5t-17.5 -119.5t-13.5 -96.5t-7.5 -62.5q-3 -29 -18.5 -44t-33.5 -15q-17 0 -28 13.5t-7 45.5l6.5 58.5
t11 95.5t14.5 120.5t16 133t16 133.5t14.5 121.5t11.5 97t7 60.5q5 35 25 52.5t44 17.5zM743 503q10 0 16 -7.5t4 -25.5q-1 -13 -5 -44t-9 -72t-11 -87t-11 -88h14q8 0 11 -4t2 -8.5t-5.5 -8.5t-11.5 -4h-14q-5 -38 -8.5 -67.5t-5.5 -43.5q-2 -20 -13.5 -29.5t-25.5 -9.5
q-13 0 -21.5 9.5t-3.5 32.5l19 109q-43 1 -85 2t-64 0h-3q-6 -1 -10.5 3t0.5 9q21 26 48 72t53 97.5t49 101.5t36 84q2 5 6.5 4t8.5 -4.5t6.5 -9t0.5 -9.5q-15 -28 -36.5 -71t-44.5 -89.5t-47.5 -90.5t-45.5 -74q25 1 60.5 1t71.5 -1q7 41 14.5 86t14 85t11 72t6.5 47
q2 17 10.5 25t18.5 8z" />
    <glyph glyph-name="onehalf" unicode="&#xbd;" horiz-adv-x="943" 
d="M216 896q11 0 20 -8.5t4 -31.5q-3 -14 -8.5 -45.5t-12.5 -72t-14.5 -84.5t-13.5 -84.5t-11 -72.5t-6 -47q-2 -16 -10.5 -24t-18.5 -8q-9 0 -15 7.5t-4 24.5q1 11 4.5 37t7.5 60t9.5 73.5t10.5 77.5t9.5 72t7.5 58q-17 -28 -37.5 -55.5t-42.5 -38.5q-3 -2 -6 0t-5 4.5
t-2 5.5t4 5q13 7 26.5 22t26.5 33t23.5 36t18.5 32q10 24 35 24zM469 961q23 0 38.5 -16t7.5 -59q-4 -20 -11.5 -61.5t-16 -96t-19 -118.5t-20.5 -130t-19.5 -130.5t-17.5 -119.5t-13.5 -96.5t-7.5 -62.5q-3 -29 -18.5 -44t-33.5 -15q-17 0 -28 13.5t-7 45.5l6.5 58.5
t11 95.5t14.5 120.5t16 133t16 133.5t14.5 121.5t11.5 97t7 60.5q5 35 25 52.5t44 17.5zM782 76q6 1 9 -6t2.5 -15.5t-4 -16.5t-10.5 -9q-16 -2 -42.5 -2.5t-57 0l-61 1t-52.5 0.5q-8 0 -11 4t-3 10t2 12t5 11q17 32 38.5 56t44.5 45t44.5 41t39 45.5t28.5 59.5t12 81
q0 18 -3.5 35.5t-11 31t-19.5 21.5t-29 8q-20 0 -40 -9t-37 -25t-28 -38.5t-12 -48.5q-2 -16 1.5 -30t23.5 -15q2 0 3 -9t-4 -9q-25 1 -34 21t-8 41q1 31 15 57.5t35 45t47 29t52 10.5q25 0 44 -9.5t31.5 -26t19 -38t6.5 -44.5q0 -56 -24.5 -97.5t-59.5 -77.5t-74.5 -70
t-69.5 -73h50h55t50 0.5t37 2.5z" />
    <glyph glyph-name="threequarters" unicode="&#xbe;" horiz-adv-x="927" 
d="M504 961q23 0 38.5 -16t7.5 -59q-4 -20 -11.5 -61.5t-16 -96t-19 -118.5t-20.5 -130t-19.5 -130.5t-17.5 -119.5t-13.5 -96.5t-7.5 -62.5q-3 -29 -18.5 -44t-33.5 -15q-17 0 -28 13.5t-7 45.5l6.5 58.5t11 95.5t14.5 120.5t16 133t16 133.5t14.5 121.5t11.5 97t7 60.5
q5 35 25 52.5t44 17.5zM778 503q10 0 16 -7.5t4 -25.5q-1 -13 -5 -44t-9 -72t-11 -87t-11 -88h14q8 0 11 -4t2 -8.5t-5.5 -8.5t-11.5 -4h-14q-5 -38 -8.5 -67.5t-5.5 -43.5q-2 -20 -13.5 -29.5t-25.5 -9.5q-13 0 -21.5 9.5t-3.5 32.5l19 109q-43 1 -85 2t-64 0h-3
q-6 -1 -10.5 3t0.5 9q21 26 48 72t53 97.5t49 101.5t36 84q2 5 6.5 4t8.5 -4.5t6.5 -9t0.5 -9.5q-15 -28 -36.5 -71t-44.5 -89.5t-47.5 -90.5t-45.5 -74q25 1 60.5 1t71.5 -1q7 41 14.5 86t14 85t11 72t6.5 47q2 17 10.5 25t18.5 8zM202 658q42 -4 62.5 -31t20.5 -62
q0 -25 -9.5 -50t-29 -45t-48.5 -32t-67 -12q-26 0 -46 10t-33 27t-19 39.5t-3 48.5q0 4 5 6t10.5 1.5t10 -3t4.5 -6.5q0 -33 4.5 -53t13.5 -31.5t21.5 -16t26.5 -5.5q27 3 48.5 16.5t37 32.5t23.5 41.5t8 43.5q0 26 -15.5 44t-48.5 17q-6 -1 -9.5 8.5t1.5 13.5q15 13 32 32
t31.5 40.5t23.5 45t9 44.5q0 27 -17.5 45.5t-43.5 18.5q-24 0 -46.5 -11t-39.5 -28.5t-28.5 -40t-12.5 -45.5q-1 -15 2.5 -28.5t22.5 -14.5q3 0 3.5 -9t-4.5 -9q-23 2 -32.5 21.5t-8.5 39.5q1 29 15.5 55t36 46t49 32t56.5 12q41 0 66.5 -25t25.5 -66q0 -27 -10 -49
t-25.5 -41t-35 -35.5t-38.5 -31.5z" />
    <glyph glyph-name="questiondown" unicode="&#xbf;" horiz-adv-x="617" 
d="M377 836q-23 2 -38.5 19t-13.5 40t19 38t40 13t38.5 -19t13.5 -40t-19 -38t-40 -13zM243 60q-34 10 -57 29.5t-36.5 45.5t-18.5 56t-3 62q4 63 28.5 116t56 103t62 99t46.5 103l7.5 27.5t6.5 33.5q1 14 12 20t23.5 5t23 -8.5t12.5 -20.5q4 -24 1 -50.5t-11 -52.5
q-15 -54 -45 -108t-60 -109t-54 -111.5t-28 -115.5q-1 -16 0 -31t6.5 -28t15 -22.5t25.5 -13.5q30 -9 66.5 0t69.5 30.5t59.5 52.5t37.5 66q8 23 7.5 47.5t-11.5 47.5q-7 15 -20.5 22t-29.5 9q-5 1 -6.5 5.5t-1.5 9.5t2.5 8.5t5.5 3.5q29 -4 49 -20.5t32 -42.5
q13 -29 14 -59t-8 -58q-12 -39 -41 -71.5t-68 -54.5t-83.5 -29.5t-86.5 4.5z" />
    <glyph glyph-name="Agrave" unicode="&#xc0;" horiz-adv-x="894" 
d="M894 283q1 2 6 3.5t11 1.5t11 -1t4 -2q-7 -25 -17 -61.5t-23 -76.5t-30 -79t-40 -70t-52.5 -49.5t-66.5 -17.5q-38 1 -68 35t-41 103q-10 66 -4 140.5t15 140.5q-65 -5 -128.5 -11.5t-127.5 -9.5q-10 -41 -21 -86.5t-22 -91.5t-20.5 -91.5t-16.5 -86.5
q-5 -31 -18.5 -41.5t-29.5 -6.5q-17 5 -29 22.5t-7 46.5q13 83 26.5 166.5t27.5 168.5q-17 1 -39.5 3t-42 8t-31.5 15.5t-8 25.5q3 9 14.5 9t16.5 -13q1 -5 11.5 -8t25 -5.5t30.5 -3.5t28 -2q18 114 32 226.5t20 223.5q1 19 -0.5 44.5t-9 49t-22 40t-40.5 17.5
q-32 1 -63 -16t-56.5 -45.5t-42 -64t-18.5 -71.5q-2 -24 4.5 -47t22.5 -43q10 -12 24.5 -16t30.5 -2q4 1 7 -3t4 -8.5t-0.5 -9t-4.5 -4.5q-56 -6 -92 41q-20 25 -28 53t-6 57q3 40 21.5 78t49 67.5t69.5 47t83 16.5q45 -1 78 -22t54 -54t30.5 -73t7.5 -79
q-3 -52 -8.5 -103.5t-13.5 -103.5q23 78 50 148.5t57.5 124t65.5 84.5t74 31q36 0 60 -21.5t38.5 -58t20 -85t5.5 -100.5q0 -39 -2.5 -79.5t-6 -78.5t-8 -72.5t-8.5 -62.5q22 1 50 0t47 -12q5 -2 5.5 -7t-2 -9.5t-8 -7t-13.5 0.5q-17 6 -41 6.5t-43 0.5q-11 -72 -21.5 -147
t-8.5 -147q2 -48 14.5 -65t29.5 -18q24 -1 44 16.5t37 45.5t30.5 63t24.5 69t19 63.5t13 46.5zM649 739q2 36 1.5 68t-3.5 56t-10 37.5t-19 13.5q-29 0 -55.5 -23t-51 -62.5t-47 -93t-42.5 -115t-38 -128.5t-34 -134q63 3 126 9.5t127 11.5q13 90 27 179t19 181zM494 1195
q-8 9 -8.5 21t9.5 20q11 8 22.5 5t18.5 -14l65 -103q9 -12 -2 -21q-12 -8 -21 3z" />
    <glyph glyph-name="Aacute" unicode="&#xc1;" horiz-adv-x="894" 
d="M894 283q1 2 6 3.5t11 1.5t11 -1t4 -2q-7 -25 -17 -61.5t-23 -76.5t-30 -79t-40 -70t-52.5 -49.5t-66.5 -17.5q-38 1 -68 35t-41 103q-10 66 -4 140.5t15 140.5q-65 -5 -128.5 -11.5t-127.5 -9.5q-10 -41 -21 -86.5t-22 -91.5t-20.5 -91.5t-16.5 -86.5
q-5 -31 -18.5 -41.5t-29.5 -6.5q-17 5 -29 22.5t-7 46.5q13 83 26.5 166.5t27.5 168.5q-17 1 -39.5 3t-42 8t-31.5 15.5t-8 25.5q3 9 14.5 9t16.5 -13q1 -5 11.5 -8t25 -5.5t30.5 -3.5t28 -2q18 114 32 226.5t20 223.5q1 19 -0.5 44.5t-9 49t-22 40t-40.5 17.5
q-32 1 -63 -16t-56.5 -45.5t-42 -64t-18.5 -71.5q-2 -24 4.5 -47t22.5 -43q10 -12 24.5 -16t30.5 -2q4 1 7 -3t4 -8.5t-0.5 -9t-4.5 -4.5q-56 -6 -92 41q-20 25 -28 53t-6 57q3 40 21.5 78t49 67.5t69.5 47t83 16.5q45 -1 78 -22t54 -54t30.5 -73t7.5 -79
q-3 -52 -8.5 -103.5t-13.5 -103.5q23 78 50 148.5t57.5 124t65.5 84.5t74 31q36 0 60 -21.5t38.5 -58t20 -85t5.5 -100.5q0 -39 -2.5 -79.5t-6 -78.5t-8 -72.5t-8.5 -62.5q22 1 50 0t47 -12q5 -2 5.5 -7t-2 -9.5t-8 -7t-13.5 0.5q-17 6 -41 6.5t-43 0.5q-11 -72 -21.5 -147
t-8.5 -147q2 -48 14.5 -65t29.5 -18q24 -1 44 16.5t37 45.5t30.5 63t24.5 69t19 63.5t13 46.5zM649 739q2 36 1.5 68t-3.5 56t-10 37.5t-19 13.5q-29 0 -55.5 -23t-51 -62.5t-47 -93t-42.5 -115t-38 -128.5t-34 -134q63 3 126 9.5t127 11.5q13 90 27 179t19 181zM500 1109
q-5 4 -5.5 10t2.5 11l66 103q7 11 18.5 14t21.5 -5q11 -8 10.5 -20t-8.5 -21l-84 -89q-5 -5 -10.5 -6t-10.5 3z" />
    <glyph glyph-name="Acircumflex" unicode="&#xc2;" horiz-adv-x="894" 
d="M466 1115q-10 -10 -21 -1q-10 10 -1 22l77 95q10 14 25 12.5t23 -15.5l65 -103q9 -12 -2 -21q-12 -8 -21 3l-69 73zM894 283q1 2 6 3.5t11 1.5t11 -1t4 -2q-7 -25 -17 -61.5t-23 -76.5t-30 -79t-40 -70t-52.5 -49.5t-66.5 -17.5q-38 1 -68 35t-41 103q-10 66 -4 140.5
t15 140.5q-65 -5 -128.5 -11.5t-127.5 -9.5q-10 -41 -21 -86.5t-22 -91.5t-20.5 -91.5t-16.5 -86.5q-5 -31 -18.5 -41.5t-29.5 -6.5q-17 5 -29 22.5t-7 46.5q13 83 26.5 166.5t27.5 168.5q-17 1 -39.5 3t-42 8t-31.5 15.5t-8 25.5q3 9 14.5 9t16.5 -13q1 -5 11.5 -8t25 -5.5
t30.5 -3.5t28 -2q18 114 32 226.5t20 223.5q1 19 -0.5 44.5t-9 49t-22 40t-40.5 17.5q-32 1 -63 -16t-56.5 -45.5t-42 -64t-18.5 -71.5q-2 -24 4.5 -47t22.5 -43q10 -12 24.5 -16t30.5 -2q4 1 7 -3t4 -8.5t-0.5 -9t-4.5 -4.5q-56 -6 -92 41q-20 25 -28 53t-6 57
q3 40 21.5 78t49 67.5t69.5 47t83 16.5q45 -1 78 -22t54 -54t30.5 -73t7.5 -79q-3 -52 -8.5 -103.5t-13.5 -103.5q23 78 50 148.5t57.5 124t65.5 84.5t74 31q36 0 60 -21.5t38.5 -58t20 -85t5.5 -100.5q0 -39 -2.5 -79.5t-6 -78.5t-8 -72.5t-8.5 -62.5q22 1 50 0t47 -12
q5 -2 5.5 -7t-2 -9.5t-8 -7t-13.5 0.5q-17 6 -41 6.5t-43 0.5q-11 -72 -21.5 -147t-8.5 -147q2 -48 14.5 -65t29.5 -18q24 -1 44 16.5t37 45.5t30.5 63t24.5 69t19 63.5t13 46.5zM649 739q2 36 1.5 68t-3.5 56t-10 37.5t-19 13.5q-29 0 -55.5 -23t-51 -62.5t-47 -93
t-42.5 -115t-38 -128.5t-34 -134q63 3 126 9.5t127 11.5q13 90 27 179t19 181z" />
    <glyph glyph-name="Atilde" unicode="&#xc3;" horiz-adv-x="894" 
d="M894 283q1 2 6 3.5t11 1.5t11 -1t4 -2q-7 -25 -17 -61.5t-23 -76.5t-30 -79t-40 -70t-52.5 -49.5t-66.5 -17.5q-38 1 -68 35t-41 103q-10 66 -4 140.5t15 140.5q-65 -5 -128.5 -11.5t-127.5 -9.5q-10 -41 -21 -86.5t-22 -91.5t-20.5 -91.5t-16.5 -86.5
q-5 -31 -18.5 -41.5t-29.5 -6.5q-17 5 -29 22.5t-7 46.5q13 83 26.5 166.5t27.5 168.5q-17 1 -39.5 3t-42 8t-31.5 15.5t-8 25.5q3 9 14.5 9t16.5 -13q1 -5 11.5 -8t25 -5.5t30.5 -3.5t28 -2q18 114 32 226.5t20 223.5q1 19 -0.5 44.5t-9 49t-22 40t-40.5 17.5
q-32 1 -63 -16t-56.5 -45.5t-42 -64t-18.5 -71.5q-2 -24 4.5 -47t22.5 -43q10 -12 24.5 -16t30.5 -2q4 1 7 -3t4 -8.5t-0.5 -9t-4.5 -4.5q-56 -6 -92 41q-20 25 -28 53t-6 57q3 40 21.5 78t49 67.5t69.5 47t83 16.5q45 -1 78 -22t54 -54t30.5 -73t7.5 -79
q-3 -52 -8.5 -103.5t-13.5 -103.5q23 78 50 148.5t57.5 124t65.5 84.5t74 31q36 0 60 -21.5t38.5 -58t20 -85t5.5 -100.5q0 -39 -2.5 -79.5t-6 -78.5t-8 -72.5t-8.5 -62.5q22 1 50 0t47 -12q5 -2 5.5 -7t-2 -9.5t-8 -7t-13.5 0.5q-17 6 -41 6.5t-43 0.5q-11 -72 -21.5 -147
t-8.5 -147q2 -48 14.5 -65t29.5 -18q24 -1 44 16.5t37 45.5t30.5 63t24.5 69t19 63.5t13 46.5zM649 739q2 36 1.5 68t-3.5 56t-10 37.5t-19 13.5q-29 0 -55.5 -23t-51 -62.5t-47 -93t-42.5 -115t-38 -128.5t-34 -134q63 3 126 9.5t127 11.5q13 90 27 179t19 181zM453 1146
q-6 -4 -12.5 -2.5t-11 6t-4.5 11.5t7 14q20 18 42 23t44.5 2t45 -10.5t42 -13.5t36 -7.5t27.5 8.5q6 6 12 5t10 -5.5t4 -11.5t-4 -14q-13 -21 -32.5 -27t-41.5 -4t-46 9.5t-46 14t-41 8.5t-31 -6z" />
    <glyph glyph-name="Adieresis" unicode="&#xc4;" horiz-adv-x="894" 
d="M894 283q1 2 6 3.5t11 1.5t11 -1t4 -2q-7 -25 -17 -61.5t-23 -76.5t-30 -79t-40 -70t-52.5 -49.5t-66.5 -17.5q-38 1 -68 35t-41 103q-10 66 -4 140.5t15 140.5q-65 -5 -128.5 -11.5t-127.5 -9.5q-10 -41 -21 -86.5t-22 -91.5t-20.5 -91.5t-16.5 -86.5
q-5 -31 -18.5 -41.5t-29.5 -6.5q-17 5 -29 22.5t-7 46.5q13 83 26.5 166.5t27.5 168.5q-17 1 -39.5 3t-42 8t-31.5 15.5t-8 25.5q3 9 14.5 9t16.5 -13q1 -5 11.5 -8t25 -5.5t30.5 -3.5t28 -2q18 114 32 226.5t20 223.5q1 19 -0.5 44.5t-9 49t-22 40t-40.5 17.5
q-32 1 -63 -16t-56.5 -45.5t-42 -64t-18.5 -71.5q-2 -24 4.5 -47t22.5 -43q10 -12 24.5 -16t30.5 -2q4 1 7 -3t4 -8.5t-0.5 -9t-4.5 -4.5q-56 -6 -92 41q-20 25 -28 53t-6 57q3 40 21.5 78t49 67.5t69.5 47t83 16.5q45 -1 78 -22t54 -54t30.5 -73t7.5 -79
q-3 -52 -8.5 -103.5t-13.5 -103.5q23 78 50 148.5t57.5 124t65.5 84.5t74 31q36 0 60 -21.5t38.5 -58t20 -85t5.5 -100.5q0 -39 -2.5 -79.5t-6 -78.5t-8 -72.5t-8.5 -62.5q22 1 50 0t47 -12q5 -2 5.5 -7t-2 -9.5t-8 -7t-13.5 0.5q-17 6 -41 6.5t-43 0.5q-11 -72 -21.5 -147
t-8.5 -147q2 -48 14.5 -65t29.5 -18q24 -1 44 16.5t37 45.5t30.5 63t24.5 69t19 63.5t13 46.5zM649 739q2 36 1.5 68t-3.5 56t-10 37.5t-19 13.5q-29 0 -55.5 -23t-51 -62.5t-47 -93t-42.5 -115t-38 -128.5t-34 -134q63 3 126 9.5t127 11.5q13 90 27 179t19 181zM469 1126
q-23 0 -39.5 16t-16.5 39t16.5 39t39.5 16t39 -16t16 -39t-16 -39t-39 -16zM646 1105q-23 0 -39 16t-16 39t16 39t39 16t39 -16t16 -39t-16 -39t-39 -16z" />
    <glyph glyph-name="Aring" unicode="&#xc5;" horiz-adv-x="894" 
d="M894 283q1 2 6 3.5t11 1.5t11 -1t4 -2q-7 -25 -17 -61.5t-23 -76.5t-30 -79t-40 -70t-52.5 -49.5t-66.5 -17.5q-38 1 -68 35t-41 103q-10 66 -4 140.5t15 140.5q-65 -5 -128.5 -11.5t-127.5 -9.5q-10 -41 -21 -86.5t-22 -91.5t-20.5 -91.5t-16.5 -86.5
q-5 -31 -18.5 -41.5t-29.5 -6.5q-17 5 -29 22.5t-7 46.5q13 83 26.5 166.5t27.5 168.5q-17 1 -39.5 3t-42 8t-31.5 15.5t-8 25.5q3 9 14.5 9t16.5 -13q1 -5 11.5 -8t25 -5.5t30.5 -3.5t28 -2q18 114 32 226.5t20 223.5q1 19 -0.5 44.5t-9 49t-22 40t-40.5 17.5
q-32 1 -63 -16t-56.5 -45.5t-42 -64t-18.5 -71.5q-2 -24 4.5 -47t22.5 -43q10 -12 24.5 -16t30.5 -2q4 1 7 -3t4 -8.5t-0.5 -9t-4.5 -4.5q-56 -6 -92 41q-20 25 -28 53t-6 57q3 40 21.5 78t49 67.5t69.5 47t83 16.5q45 -1 78 -22t54 -54t30.5 -73t7.5 -79
q-3 -52 -8.5 -103.5t-13.5 -103.5q23 78 50 148.5t57.5 124t65.5 84.5t74 31q36 0 60 -21.5t38.5 -58t20 -85t5.5 -100.5q0 -39 -2.5 -79.5t-6 -78.5t-8 -72.5t-8.5 -62.5q22 1 50 0t47 -12q5 -2 5.5 -7t-2 -9.5t-8 -7t-13.5 0.5q-17 6 -41 6.5t-43 0.5q-11 -72 -21.5 -147
t-8.5 -147q2 -48 14.5 -65t29.5 -18q24 -1 44 16.5t37 45.5t30.5 63t24.5 69t19 63.5t13 46.5zM649 739q2 36 1.5 68t-3.5 56t-10 37.5t-19 13.5q-29 0 -55.5 -23t-51 -62.5t-47 -93t-42.5 -115t-38 -128.5t-34 -134q63 3 126 9.5t127 11.5q13 90 27 179t19 181zM531 1086
q-32 0 -53 23.5t-19 56.5q1 16 8 31t18.5 25.5t25.5 17t30 6.5q32 0 53.5 -23.5t19.5 -56.5t-26.5 -56.5t-56.5 -23.5zM484 1166q-2 -23 12.5 -38.5t36.5 -15.5t38 15.5t18 38.5t-12.5 38.5t-36.5 15.5t-38 -15.5t-18 -38.5z" />
    <glyph glyph-name="AE" unicode="&#xc6;" horiz-adv-x="1184" 
d="M819 -116q-59 1 -103.5 24.5t-74.5 62.5t-45 90t-16 108q0 48 5.5 95.5t13.5 85.5q-65 -5 -128.5 -11.5t-127.5 -9.5q-10 -41 -21 -86.5t-22 -91.5t-20.5 -91.5t-16.5 -86.5q-5 -31 -18.5 -41.5t-29.5 -6.5q-17 5 -29 22.5t-7 46.5q13 83 26.5 166.5t27.5 168.5
q-17 1 -39.5 3t-42 8t-31.5 15.5t-8 25.5q3 9 14.5 9t16.5 -13q1 -5 11.5 -8t25 -5.5t30.5 -3.5t28 -2q18 114 32 226.5t20 223.5q1 19 -0.5 44.5t-9 49t-22 40t-40.5 17.5q-32 1 -63 -16t-56.5 -45.5t-42 -64t-18.5 -71.5q-2 -24 4.5 -47t22.5 -43q10 -12 24.5 -16t30.5 -2
q4 1 7 -3t4 -8.5t-0.5 -9t-4.5 -4.5q-56 -6 -92 41q-20 25 -28 53t-6 57q3 40 21.5 78t49 67.5t69.5 47t83 16.5q45 -1 78 -22t54 -54t30.5 -73t7.5 -79q-3 -52 -8.5 -103.5t-13.5 -103.5q23 78 50 148.5t57.5 124t65.5 84.5t74 31q45 0 70.5 -32t38.5 -84q24 47 61 77.5
t78.5 46.5t83.5 17.5t75.5 -9.5t54.5 -34.5t20 -58.5q0 -25 -12 -44.5t-30 -33.5t-40 -23.5t-43 -13.5q-43 -10 -86.5 -13t-88.5 -5q-5 -42 -0.5 -86t20 -80.5t42 -61.5t65.5 -29q7 -1 10 -8t3 -15.5t-3.5 -15t-10.5 -6.5q-56 -3 -98 -29t-71 -66.5t-44.5 -90.5t-18.5 -101
q-2 -38 5 -75.5t24 -67.5t46.5 -49t73.5 -20q42 -1 80.5 15t72.5 44t63.5 64.5t53 76t41.5 79t30 73.5q1 2 6 2.5t10.5 0.5t10 -1t3.5 -2q-13 -42 -33.5 -88t-47.5 -90.5t-61 -85t-73.5 -71t-84.5 -48t-95 -16.5zM649 739q2 36 1.5 68t-3.5 56t-10 37.5t-19 13.5
q-29 0 -55.5 -23t-51 -62.5t-47 -93t-42.5 -115t-38 -128.5t-34 -134q63 3 126 9.5t127 11.5q13 90 27 179t19 181zM1070 864q0 20 -16 35.5t-41 22.5t-56 3t-60.5 -22.5t-54 -53t-36.5 -89.5q42 2 83 5.5t80 12.5q15 3 32.5 10.5t32.5 18.5t25 25t11 32zM848 449
q-35 15 -63.5 40t-48.5 58q-4 -45 -8.5 -85.5t-9.5 -72.5q28 20 60.5 35.5t69.5 24.5z" />
    <glyph glyph-name="Ccedilla" unicode="&#xc7;" horiz-adv-x="615" 
d="M615 283q0 2 5 2.5t10.5 0.5t10 -1t3.5 -2q-13 -41 -33.5 -87.5t-48 -92.5t-61.5 -89t-73.5 -76.5t-84.5 -54.5t-94 -23q-1 -11 -1.5 -19.5t-0.5 -16.5q47 4 67.5 -16.5t21.5 -48.5q0 -15 -5 -30t-14 -27t-21.5 -20t-28.5 -8q-17 -1 -31 8t-22 23.5t-9 31t8 31.5
q5 8 13.5 14t19.5 0q2 -1 -0.5 -4.5t-3.5 -2.5q-8 5 -13 0t-9 -11q-6 -11 -6 -24.5t5 -25.5t15 -20t24 -8q13 0 22.5 7t15.5 17.5t9.5 23t4.5 23.5q0 12 -3 23t-10.5 19t-20.5 13t-33 4q-5 -2 -11.5 0.5t-6.5 7.5v17t1 19q-74 3 -122.5 50t-74 121t-29 168t12.5 191.5
t50 190.5t83 166t113 118t139 46q37 0 68 -13t51 -38.5t28 -62.5t-2 -85q-7 -33 -22.5 -64t-38.5 -55t-53.5 -38t-67.5 -14q-29 0 -52 11.5t-37 36.5q-2 3 0.5 6.5t7 5.5t9.5 2t7 -4q8 -14 20 -23t28 -9q31 0 57 13t46.5 35t34 49.5t20.5 57.5q16 70 -6 110.5t-68 41.5
q-58 1 -107 -40.5t-87.5 -110t-66 -157t-42 -180.5t-15.5 -180.5t13.5 -158t45 -112t79.5 -43.5q44 -1 85 18t78 50.5t69 72.5t58 84.5t45.5 86.5t31.5 79z" />
    <glyph glyph-name="Egrave" unicode="&#xc8;" horiz-adv-x="832" 
d="M832 283q1 2 6 2.5t10.5 0.5t10 -1t3.5 -2q-13 -42 -33.5 -88t-47.5 -90.5t-61 -85t-73.5 -71t-84.5 -48t-95 -16.5q-49 1 -91.5 21.5t-73 55.5t-48 82t-16.5 100q1 57 20.5 107t54 89.5t81 67.5t102.5 42q-37 16 -66.5 43t-50 63t-29 79.5t-3.5 91.5q-29 -2 -57.5 -6
t-56.5 -12q-60 -17 -105 -51.5t-81 -103.5q-3 -6 -9 -7t-11 2t-8 8.5t0 10.5q41 75 90.5 113t115.5 55q30 8 62 12.5t64 6.5q13 65 47.5 109.5t79 69.5t92.5 32t88 -2t65.5 -34t24.5 -64q0 -25 -12 -44.5t-30 -33.5t-40 -23.5t-43 -13.5q-43 -10 -86.5 -13t-88.5 -5
q-5 -42 -0.5 -86t20 -80.5t42 -61.5t65.5 -29q7 -1 10 -8t3 -15.5t-3.5 -15t-10.5 -6.5q-56 -3 -98 -29t-71 -66.5t-44.5 -90.5t-18.5 -101q-2 -38 5 -75.5t24 -67.5t46.5 -49t73.5 -20q42 -1 80.5 15t72.5 44t63.5 64.5t53 76t41.5 79t30 73.5zM718 864q0 20 -16 35.5
t-41 22.5t-56 3t-60.5 -22.5t-54 -53t-36.5 -89.5q42 2 83 5.5t80 12.5q15 3 32.5 10.5t32.5 18.5t25 25t11 32zM498 1201q-8 9 -8.5 21t9.5 20q11 8 22.5 5t18.5 -14l65 -103q9 -12 -2 -21q-12 -8 -21 3z" />
    <glyph glyph-name="Eacute" unicode="&#xc9;" horiz-adv-x="832" 
d="M832 283q1 2 6 2.5t10.5 0.5t10 -1t3.5 -2q-13 -42 -33.5 -88t-47.5 -90.5t-61 -85t-73.5 -71t-84.5 -48t-95 -16.5q-49 1 -91.5 21.5t-73 55.5t-48 82t-16.5 100q1 57 20.5 107t54 89.5t81 67.5t102.5 42q-37 16 -66.5 43t-50 63t-29 79.5t-3.5 91.5q-29 -2 -57.5 -6
t-56.5 -12q-60 -17 -105 -51.5t-81 -103.5q-3 -6 -9 -7t-11 2t-8 8.5t0 10.5q41 75 90.5 113t115.5 55q30 8 62 12.5t64 6.5q13 65 47.5 109.5t79 69.5t92.5 32t88 -2t65.5 -34t24.5 -64q0 -25 -12 -44.5t-30 -33.5t-40 -23.5t-43 -13.5q-43 -10 -86.5 -13t-88.5 -5
q-5 -42 -0.5 -86t20 -80.5t42 -61.5t65.5 -29q7 -1 10 -8t3 -15.5t-3.5 -15t-10.5 -6.5q-56 -3 -98 -29t-71 -66.5t-44.5 -90.5t-18.5 -101q-2 -38 5 -75.5t24 -67.5t46.5 -49t73.5 -20q42 -1 80.5 15t72.5 44t63.5 64.5t53 76t41.5 79t30 73.5zM718 864q0 20 -16 35.5
t-41 22.5t-56 3t-60.5 -22.5t-54 -53t-36.5 -89.5q42 2 83 5.5t80 12.5q15 3 32.5 10.5t32.5 18.5t25 25t11 32zM523 1109q-5 4 -5.5 10t2.5 11l66 103q7 11 18.5 14t21.5 -5q11 -8 10.5 -20t-8.5 -21l-84 -89q-5 -5 -10.5 -6t-10.5 3z" />
    <glyph glyph-name="Ecircumflex" unicode="&#xca;" horiz-adv-x="832" 
d="M832 283q1 2 6 2.5t10.5 0.5t10 -1t3.5 -2q-13 -42 -33.5 -88t-47.5 -90.5t-61 -85t-73.5 -71t-84.5 -48t-95 -16.5q-49 1 -91.5 21.5t-73 55.5t-48 82t-16.5 100q1 57 20.5 107t54 89.5t81 67.5t102.5 42q-37 16 -66.5 43t-50 63t-29 79.5t-3.5 91.5q-29 -2 -57.5 -6
t-56.5 -12q-60 -17 -105 -51.5t-81 -103.5q-3 -6 -9 -7t-11 2t-8 8.5t0 10.5q41 75 90.5 113t115.5 55q30 8 62 12.5t64 6.5q13 65 47.5 109.5t79 69.5t92.5 32t88 -2t65.5 -34t24.5 -64q0 -25 -12 -44.5t-30 -33.5t-40 -23.5t-43 -13.5q-43 -10 -86.5 -13t-88.5 -5
q-5 -42 -0.5 -86t20 -80.5t42 -61.5t65.5 -29q7 -1 10 -8t3 -15.5t-3.5 -15t-10.5 -6.5q-56 -3 -98 -29t-71 -66.5t-44.5 -90.5t-18.5 -101q-2 -38 5 -75.5t24 -67.5t46.5 -49t73.5 -20q42 -1 80.5 15t72.5 44t63.5 64.5t53 76t41.5 79t30 73.5zM718 864q0 20 -16 35.5
t-41 22.5t-56 3t-60.5 -22.5t-54 -53t-36.5 -89.5q42 2 83 5.5t80 12.5q15 3 32.5 10.5t32.5 18.5t25 25t11 32zM483 1120q-10 -10 -21 -1q-10 10 -1 22l77 95q10 14 25 12.5t23 -15.5l65 -103q9 -12 -2 -21q-12 -8 -21 3l-69 73z" />
    <glyph glyph-name="Edieresis" unicode="&#xcb;" horiz-adv-x="832" 
d="M832 283q1 2 6 2.5t10.5 0.5t10 -1t3.5 -2q-13 -42 -33.5 -88t-47.5 -90.5t-61 -85t-73.5 -71t-84.5 -48t-95 -16.5q-49 1 -91.5 21.5t-73 55.5t-48 82t-16.5 100q1 57 20.5 107t54 89.5t81 67.5t102.5 42q-37 16 -66.5 43t-50 63t-29 79.5t-3.5 91.5q-29 -2 -57.5 -6
t-56.5 -12q-60 -17 -105 -51.5t-81 -103.5q-3 -6 -9 -7t-11 2t-8 8.5t0 10.5q41 75 90.5 113t115.5 55q30 8 62 12.5t64 6.5q13 65 47.5 109.5t79 69.5t92.5 32t88 -2t65.5 -34t24.5 -64q0 -25 -12 -44.5t-30 -33.5t-40 -23.5t-43 -13.5q-43 -10 -86.5 -13t-88.5 -5
q-5 -42 -0.5 -86t20 -80.5t42 -61.5t65.5 -29q7 -1 10 -8t3 -15.5t-3.5 -15t-10.5 -6.5q-56 -3 -98 -29t-71 -66.5t-44.5 -90.5t-18.5 -101q-2 -38 5 -75.5t24 -67.5t46.5 -49t73.5 -20q42 -1 80.5 15t72.5 44t63.5 64.5t53 76t41.5 79t30 73.5zM718 864q0 20 -16 35.5
t-41 22.5t-56 3t-60.5 -22.5t-54 -53t-36.5 -89.5q42 2 83 5.5t80 12.5q15 3 32.5 10.5t32.5 18.5t25 25t11 32zM484 1126q-23 0 -39.5 16t-16.5 39t16.5 39t39.5 16t39 -16t16 -39t-16 -39t-39 -16zM661 1105q-23 0 -39 16t-16 39t16 39t39 16t39 -16t16 -39t-16 -39
t-39 -16z" />
    <glyph glyph-name="Igrave" unicode="&#xcc;" horiz-adv-x="454" 
d="M388 747q1 -40 0 -92t-4.5 -110.5t-9.5 -121t-14 -123.5q-4 -30 -10.5 -75.5t-17.5 -97t-27.5 -103t-40 -93t-56 -67t-74.5 -25.5q-27 0 -48.5 17.5t-36 43t-21.5 54t-4 52.5q3 28 16.5 50t39.5 34q3 1 6.5 -2t5 -7.5t1 -9t-4.5 -6.5q-14 -6 -24.5 -17t-12.5 -28t4 -40.5
t17.5 -44.5t27 -36.5t33.5 -15.5q19 -1 36 31.5t31.5 82.5t26 109.5t20 114.5t13.5 97t7 56q11 107 14 212t1 200q-1 19 -4.5 44.5t-12.5 48.5t-25 39t-42 15q-31 -1 -60 -20t-51.5 -49t-35.5 -66.5t-12 -72.5q1 -25 9 -47.5t25 -41.5q11 -11 26 -14t30 0q4 1 7.5 -2.5t5 -8
t0.5 -9t-5 -4.5q-27 -6 -51 3.5t-44 30.5q-21 23 -31 51t-11 57q-1 40 14 79t42 70.5t64 51.5t81 22q45 2 79.5 -17t58 -50t36 -70.5t13.5 -78.5zM177 1201q-8 9 -8.5 21t9.5 20q11 8 22.5 5t18.5 -14l65 -103q9 -12 -2 -21q-12 -8 -21 3z" />
    <glyph glyph-name="Iacute" unicode="&#xcd;" horiz-adv-x="454" 
d="M388 747q1 -40 0 -92t-4.5 -110.5t-9.5 -121t-14 -123.5q-4 -30 -10.5 -75.5t-17.5 -97t-27.5 -103t-40 -93t-56 -67t-74.5 -25.5q-27 0 -48.5 17.5t-36 43t-21.5 54t-4 52.5q3 28 16.5 50t39.5 34q3 1 6.5 -2t5 -7.5t1 -9t-4.5 -6.5q-14 -6 -24.5 -17t-12.5 -28t4 -40.5
t17.5 -44.5t27 -36.5t33.5 -15.5q19 -1 36 31.5t31.5 82.5t26 109.5t20 114.5t13.5 97t7 56q11 107 14 212t1 200q-1 19 -4.5 44.5t-12.5 48.5t-25 39t-42 15q-31 -1 -60 -20t-51.5 -49t-35.5 -66.5t-12 -72.5q1 -25 9 -47.5t25 -41.5q11 -11 26 -14t30 0q4 1 7.5 -2.5t5 -8
t0.5 -9t-5 -4.5q-27 -6 -51 3.5t-44 30.5q-21 23 -31 51t-11 57q-1 40 14 79t42 70.5t64 51.5t81 22q45 2 79.5 -17t58 -50t36 -70.5t13.5 -78.5zM172 1109q-5 4 -5.5 10t2.5 11l66 103q7 11 18.5 14t21.5 -5q11 -8 10.5 -20t-8.5 -21l-84 -89q-5 -5 -10.5 -6t-10.5 3z" />
    <glyph glyph-name="Icircumflex" unicode="&#xce;" horiz-adv-x="454" 
d="M388 747q1 -40 0 -92t-4.5 -110.5t-9.5 -121t-14 -123.5q-4 -30 -10.5 -75.5t-17.5 -97t-27.5 -103t-40 -93t-56 -67t-74.5 -25.5q-27 0 -48.5 17.5t-36 43t-21.5 54t-4 52.5q3 28 16.5 50t39.5 34q3 1 6.5 -2t5 -7.5t1 -9t-4.5 -6.5q-14 -6 -24.5 -17t-12.5 -28t4 -40.5
t17.5 -44.5t27 -36.5t33.5 -15.5q19 -1 36 31.5t31.5 82.5t26 109.5t20 114.5t13.5 97t7 56q11 107 14 212t1 200q-1 19 -4.5 44.5t-12.5 48.5t-25 39t-42 15q-31 -1 -60 -20t-51.5 -49t-35.5 -66.5t-12 -72.5q1 -25 9 -47.5t25 -41.5q11 -11 26 -14t30 0q4 1 7.5 -2.5t5 -8
t0.5 -9t-5 -4.5q-27 -6 -51 3.5t-44 30.5q-21 23 -31 51t-11 57q-1 40 14 79t42 70.5t64 51.5t81 22q45 2 79.5 -17t58 -50t36 -70.5t13.5 -78.5zM154 1120q-10 -10 -21 -1q-10 10 -1 22l77 95q10 14 25 12.5t23 -15.5l65 -103q9 -12 -2 -21q-12 -8 -21 3l-69 73z" />
    <glyph glyph-name="Idieresis" unicode="&#xcf;" horiz-adv-x="454" 
d="M388 747q1 -40 0 -92t-4.5 -110.5t-9.5 -121t-14 -123.5q-4 -30 -10.5 -75.5t-17.5 -97t-27.5 -103t-40 -93t-56 -67t-74.5 -25.5q-27 0 -48.5 17.5t-36 43t-21.5 54t-4 52.5q3 28 16.5 50t39.5 34q3 1 6.5 -2t5 -7.5t1 -9t-4.5 -6.5q-14 -6 -24.5 -17t-12.5 -28t4 -40.5
t17.5 -44.5t27 -36.5t33.5 -15.5q19 -1 36 31.5t31.5 82.5t26 109.5t20 114.5t13.5 97t7 56q11 107 14 212t1 200q-1 19 -4.5 44.5t-12.5 48.5t-25 39t-42 15q-31 -1 -60 -20t-51.5 -49t-35.5 -66.5t-12 -72.5q1 -25 9 -47.5t25 -41.5q11 -11 26 -14t30 0q4 1 7.5 -2.5t5 -8
t0.5 -9t-5 -4.5q-27 -6 -51 3.5t-44 30.5q-21 23 -31 51t-11 57q-1 40 14 79t42 70.5t64 51.5t81 22q45 2 79.5 -17t58 -50t36 -70.5t13.5 -78.5zM139 1126q-23 0 -39.5 16t-16.5 39t16.5 39t39.5 16t39 -16t16 -39t-16 -39t-39 -16zM316 1105q-23 0 -39 16t-16 39t16 39
t39 16t39 -16t16 -39t-16 -39t-39 -16z" />
    <glyph glyph-name="Eth" unicode="&#xd0;" horiz-adv-x="1055" 
d="M456 355q11 -1 16.5 -7.5t5.5 -14.5t-5.5 -15t-15.5 -7l-83 -5q-18 -118 -29.5 -228t-17.5 -194q-3 -32 -15.5 -43t-29.5 -8t-30 20t-11 46q7 96 15 197t16 204l-65 -3q-17 -1 -30 8t-13 26q0 16 13 25t30 8l69 -3q7 99 9.5 195.5t0.5 187.5q0 19 -3.5 44.5t-12.5 48.5
t-25 39t-42 15q-32 -1 -61.5 -20t-52.5 -49t-37 -66.5t-13 -72.5q1 -25 9 -47.5t25 -41.5q11 -11 26 -14t30 0q4 1 7.5 -2.5t4.5 -8t0 -9t-4 -4.5q-27 -6 -51 3.5t-44 30.5q-21 23 -31 51t-11 57q-1 40 15 79t44 70.5t65.5 51.5t81.5 22q45 2 79.5 -17t58 -50t36 -70.5
t13.5 -78.5q1 -30 1 -60.5t-2 -61.5q10 38 24 82t33 87t45 80.5t59 63t74.5 35t92.5 -4.5t87.5 -53t60.5 -96t36 -128.5t12 -149.5q1 -105 -18 -212.5t-54 -201.5q11 3 22 6.5t22 7.5q58 23 98 65t69 119q1 2 6 2.5t11 0.5t11 -1t4 -2q-16 -45 -35 -78.5t-42.5 -58.5
t-51 -43t-60.5 -31q-16 -6 -33 -11l-34 -10q-19 -44 -45 -89.5t-60.5 -82.5t-77.5 -60t-97 -23q-36 0 -63 8.5t-45 22.5t-27 32t-9 38q-1 35 26 68t83 52q47 17 106.5 26t119.5 20q32 96 48 209.5t14 223.5q-1 61 -7 118t-17 105t-28 85t-39 60q-22 22 -47 25t-49 -6.5
t-45.5 -28t-36.5 -37.5q-27 -36 -50 -86.5t-41.5 -110.5t-33.5 -127t-27 -136zM528 -168q41 0 73 18.5t56.5 47.5t42.5 64.5t31 69.5q-54 -9 -106.5 -17t-99.5 -25q-45 -15 -66.5 -41.5t-21.5 -52.5q-1 -26 21.5 -45.5t69.5 -18.5z" />
    <glyph glyph-name="Ntilde" unicode="&#xd1;" horiz-adv-x="977" 
d="M977 283q1 2 6 2.5t11 0.5t10.5 -1t4.5 -2l-17 -51t-23 -63t-29.5 -65.5t-37 -58.5t-45.5 -42.5t-54 -16.5q-42 0 -67 20t-37.5 52.5t-15.5 73.5t0 82.5t9.5 79.5t11.5 65q3 14 10.5 46t15 71.5t13 82.5t4.5 78.5t-10.5 58.5t-32.5 23q-35 0 -70 -42t-69 -111.5t-66 -160
t-60 -186.5t-52 -191.5t-42 -174.5q-5 -23 -16.5 -31t-25.5 -6q-17 3 -30.5 20.5t-11.5 46.5q5 101 12 209.5t12 218.5t7 218.5t-3 209.5q-1 19 -5 45t-13.5 49t-26 38t-42.5 14q-32 -2 -62 -21.5t-52.5 -50.5t-36 -68.5t-11.5 -73.5q1 -25 9.5 -47.5t26.5 -40.5
q11 -12 26.5 -14.5t30.5 0.5q4 1 7.5 -2.5t5 -8t0.5 -8.5t-4 -5q-28 -6 -52.5 3t-44.5 29q-23 24 -33 52t-12 57q-2 40 13.5 80t43 72.5t65.5 53.5t82 24q46 3 81 -15.5t59.5 -50t38 -71t15.5 -78.5q3 -77 0.5 -157.5t-8 -162t-13.5 -164.5t-15 -164q20 83 43.5 167t50 162
t56.5 146t63 118.5t70 79.5t77 29q44 0 70 -22.5t38 -59t13 -82.5t-4 -91.5t-12.5 -87t-13.5 -69.5q-3 -13 -9.5 -42t-12.5 -64.5t-10.5 -73.5t-2.5 -69.5t11.5 -51.5t31.5 -20q18 0 35 15.5t33 39.5t29.5 54.5t25 59.5t20 53.5t13.5 38.5zM518 1075q-6 -4 -12.5 -2.5t-11 6
t-4.5 11.5t7 14q20 18 42 23t44.5 2t45 -10.5t42 -13.5t36 -7.5t27.5 8.5q6 6 12 5t10 -5.5t4 -11.5t-4 -14q-13 -21 -32.5 -27t-41.5 -4t-46 9.5t-46 14t-41 8.5t-31 -6z" />
    <glyph glyph-name="Ograve" unicode="&#xd2;" horiz-adv-x="815" 
d="M752 531q0 -61 -11 -131.5t-33.5 -141.5t-58 -137t-83 -117t-108 -81.5t-133.5 -30.5q-51 0 -91.5 18.5t-70.5 50t-49.5 73.5t-28.5 90q-25 22 -42 52t-27 65t-13.5 73t-1.5 76q2 58 17 123t41.5 128t64 121t85.5 102t105.5 70.5t124.5 26.5q57 0 102.5 -18t80.5 -49.5
t59.5 -74t40 -90t23 -98.5t7.5 -100zM674 542q0 38 -4 81.5t-14 87t-27.5 83t-44 70.5t-63 49t-84.5 19q-62 0 -115.5 -25.5t-98 -68t-79.5 -98.5t-59.5 -116.5t-39 -121t-16.5 -113.5q-2 -58 8.5 -116t41.5 -100q-5 59 5 130.5t29 143.5t45 139.5t53 117.5q6 11 18.5 15.5
t25.5 4.5q12 0 23.5 -6t18.5 -15.5t9 -21t-5 -23.5q-30 -54 -55 -122t-42 -141t-24 -146t-2 -136q27 -6 62 -1q8 1 12.5 -3.5t5 -9.5t-3 -10t-10.5 -6q-34 -3 -62 0q4 -32 14 -61t26.5 -51.5t41 -36t59.5 -13.5q52 0 98 26.5t84.5 72t69.5 106t52.5 129.5t33.5 142.5
t13 144.5zM357 1201q-8 9 -8.5 21t9.5 20q11 8 22.5 5t18.5 -14l65 -103q9 -12 -2 -21q-12 -8 -21 3z" />
    <glyph glyph-name="Oacute" unicode="&#xd3;" horiz-adv-x="815" 
d="M752 531q0 -61 -11 -131.5t-33.5 -141.5t-58 -137t-83 -117t-108 -81.5t-133.5 -30.5q-51 0 -91.5 18.5t-70.5 50t-49.5 73.5t-28.5 90q-25 22 -42 52t-27 65t-13.5 73t-1.5 76q2 58 17 123t41.5 128t64 121t85.5 102t105.5 70.5t124.5 26.5q57 0 102.5 -18t80.5 -49.5
t59.5 -74t40 -90t23 -98.5t7.5 -100zM674 542q0 38 -4 81.5t-14 87t-27.5 83t-44 70.5t-63 49t-84.5 19q-62 0 -115.5 -25.5t-98 -68t-79.5 -98.5t-59.5 -116.5t-39 -121t-16.5 -113.5q-2 -58 8.5 -116t41.5 -100q-5 59 5 130.5t29 143.5t45 139.5t53 117.5q6 11 18.5 15.5
t25.5 4.5q12 0 23.5 -6t18.5 -15.5t9 -21t-5 -23.5q-30 -54 -55 -122t-42 -141t-24 -146t-2 -136q27 -6 62 -1q8 1 12.5 -3.5t5 -9.5t-3 -10t-10.5 -6q-34 -3 -62 0q4 -32 14 -61t26.5 -51.5t41 -36t59.5 -13.5q52 0 98 26.5t84.5 72t69.5 106t52.5 129.5t33.5 142.5
t13 144.5zM352 1109q-5 4 -5.5 10t2.5 11l66 103q7 11 18.5 14t21.5 -5q11 -8 10.5 -20t-8.5 -21l-84 -89q-5 -5 -10.5 -6t-10.5 3z" />
    <glyph glyph-name="Ocircumflex" unicode="&#xd4;" horiz-adv-x="815" 
d="M752 531q0 -61 -11 -131.5t-33.5 -141.5t-58 -137t-83 -117t-108 -81.5t-133.5 -30.5q-51 0 -91.5 18.5t-70.5 50t-49.5 73.5t-28.5 90q-25 22 -42 52t-27 65t-13.5 73t-1.5 76q2 58 17 123t41.5 128t64 121t85.5 102t105.5 70.5t124.5 26.5q57 0 102.5 -18t80.5 -49.5
t59.5 -74t40 -90t23 -98.5t7.5 -100zM674 542q0 38 -4 81.5t-14 87t-27.5 83t-44 70.5t-63 49t-84.5 19q-62 0 -115.5 -25.5t-98 -68t-79.5 -98.5t-59.5 -116.5t-39 -121t-16.5 -113.5q-2 -58 8.5 -116t41.5 -100q-5 59 5 130.5t29 143.5t45 139.5t53 117.5q6 11 18.5 15.5
t25.5 4.5q12 0 23.5 -6t18.5 -15.5t9 -21t-5 -23.5q-30 -54 -55 -122t-42 -141t-24 -146t-2 -136q27 -6 62 -1q8 1 12.5 -3.5t5 -9.5t-3 -10t-10.5 -6q-34 -3 -62 0q4 -32 14 -61t26.5 -51.5t41 -36t59.5 -13.5q52 0 98 26.5t84.5 72t69.5 106t52.5 129.5t33.5 142.5
t13 144.5zM364 1120q-10 -10 -21 -1q-10 10 -1 22l77 95q10 14 25 12.5t23 -15.5l65 -103q9 -12 -2 -21q-12 -8 -21 3l-69 73z" />
    <glyph glyph-name="Otilde" unicode="&#xd5;" horiz-adv-x="815" 
d="M752 531q0 -61 -11 -131.5t-33.5 -141.5t-58 -137t-83 -117t-108 -81.5t-133.5 -30.5q-51 0 -91.5 18.5t-70.5 50t-49.5 73.5t-28.5 90q-25 22 -42 52t-27 65t-13.5 73t-1.5 76q2 58 17 123t41.5 128t64 121t85.5 102t105.5 70.5t124.5 26.5q57 0 102.5 -18t80.5 -49.5
t59.5 -74t40 -90t23 -98.5t7.5 -100zM674 542q0 38 -4 81.5t-14 87t-27.5 83t-44 70.5t-63 49t-84.5 19q-62 0 -115.5 -25.5t-98 -68t-79.5 -98.5t-59.5 -116.5t-39 -121t-16.5 -113.5q-2 -58 8.5 -116t41.5 -100q-5 59 5 130.5t29 143.5t45 139.5t53 117.5q6 11 18.5 15.5
t25.5 4.5q12 0 23.5 -6t18.5 -15.5t9 -21t-5 -23.5q-30 -54 -55 -122t-42 -141t-24 -146t-2 -136q27 -6 62 -1q8 1 12.5 -3.5t5 -9.5t-3 -10t-10.5 -6q-34 -3 -62 0q4 -32 14 -61t26.5 -51.5t41 -36t59.5 -13.5q52 0 98 26.5t84.5 72t69.5 106t52.5 129.5t33.5 142.5
t13 144.5zM334 1146q-6 -4 -12.5 -2.5t-11 6t-4.5 11.5t7 14q20 18 42 23t44.5 2t45 -10.5t42 -13.5t36 -7.5t27.5 8.5q6 6 12 5t10 -5.5t4 -11.5t-4 -14q-13 -21 -32.5 -27t-41.5 -4t-46 9.5t-46 14t-41 8.5t-31 -6z" />
    <glyph glyph-name="Odieresis" unicode="&#xd6;" horiz-adv-x="815" 
d="M752 531q0 -61 -11 -131.5t-33.5 -141.5t-58 -137t-83 -117t-108 -81.5t-133.5 -30.5q-51 0 -91.5 18.5t-70.5 50t-49.5 73.5t-28.5 90q-25 22 -42 52t-27 65t-13.5 73t-1.5 76q2 58 17 123t41.5 128t64 121t85.5 102t105.5 70.5t124.5 26.5q57 0 102.5 -18t80.5 -49.5
t59.5 -74t40 -90t23 -98.5t7.5 -100zM674 542q0 38 -4 81.5t-14 87t-27.5 83t-44 70.5t-63 49t-84.5 19q-62 0 -115.5 -25.5t-98 -68t-79.5 -98.5t-59.5 -116.5t-39 -121t-16.5 -113.5q-2 -58 8.5 -116t41.5 -100q-5 59 5 130.5t29 143.5t45 139.5t53 117.5q6 11 18.5 15.5
t25.5 4.5q12 0 23.5 -6t18.5 -15.5t9 -21t-5 -23.5q-30 -54 -55 -122t-42 -141t-24 -146t-2 -136q27 -6 62 -1q8 1 12.5 -3.5t5 -9.5t-3 -10t-10.5 -6q-34 -3 -62 0q4 -32 14 -61t26.5 -51.5t41 -36t59.5 -13.5q52 0 98 26.5t84.5 72t69.5 106t52.5 129.5t33.5 142.5
t13 144.5zM333 1126q-23 0 -39.5 16t-16.5 39t16.5 39t39.5 16t39 -16t16 -39t-16 -39t-39 -16zM510 1105q-23 0 -39 16t-16 39t16 39t39 16t39 -16t16 -39t-16 -39t-39 -16z" />
    <glyph glyph-name="Oslash" unicode="&#xd8;" horiz-adv-x="815" 
d="M752 531q0 -59 -10.5 -128t-32 -138.5t-55 -134.5t-79 -116t-102.5 -84t-127 -37q-1 -5 -1.5 -10t-0.5 -8q-3 -29 -18.5 -44t-33.5 -15q-17 0 -28 13.5t-7 45.5q0 11 3 26q-36 10 -65.5 31.5t-51 50.5t-36.5 65t-22 76q-25 22 -42 52t-27 65t-13.5 73t-1.5 76
q2 56 16 119t39 124.5t60.5 118t80.5 101t100 73.5t118 34l2 16q5 35 25 52.5t44 17.5q23 0 38.5 -16t7.5 -59l-5 -24q61 -20 103.5 -63.5t69.5 -101t39.5 -123t12.5 -128.5zM674 542q0 48 -6.5 104t-23.5 108t-47.5 94.5t-76.5 64.5q-7 -38 -17 -92.5t-21.5 -120
t-24 -138.5t-25.5 -147.5t-25.5 -147.5t-23.5 -137.5t-19.5 -117.5t-13.5 -89q48 7 90.5 37t78.5 76t64 105.5t48 126t31 136.5t12 138zM264 -66q7 50 19 131t26 176t29.5 197.5t29.5 196t25 171.5t18 124q-58 -5 -108 -33t-92 -71.5t-74.5 -98t-56 -113t-36.5 -116.5
t-15 -109q-2 -58 8.5 -116t41.5 -100q-5 59 5 130.5t29 143.5t45 139.5t53 117.5q6 11 18.5 15.5t25.5 4.5q12 0 23.5 -6t18.5 -15.5t9 -21t-5 -23.5q-30 -54 -55 -122t-42 -141t-24 -146t-2 -136q27 -6 62 -1q8 1 12.5 -3.5t5 -9.5t-3 -10t-10.5 -6q-34 -3 -62 0
q7 -48 25.5 -88.5t56.5 -60.5z" />
    <glyph glyph-name="Ugrave" unicode="&#xd9;" horiz-adv-x="910" 
d="M910 283q1 2 6 2.5t11 0.5t11 -1t4 -2q-7 -21 -18.5 -54t-26 -70.5t-33.5 -75.5t-41 -68.5t-48 -50t-55 -19.5q-50 0 -78 28t-39 71q-10 38 -9.5 100t6.5 138q-17 -50 -38.5 -96.5t-49.5 -82.5t-63.5 -57.5t-80.5 -21.5q-39 0 -64.5 14t-40.5 38t-21.5 54.5t-6.5 62.5
q-1 40 8 99.5t19.5 124.5t19.5 130t9 117q0 19 -2.5 45t-11 49.5t-24 40t-41.5 16.5q-32 0 -63 -19t-55 -48t-39.5 -66t-15.5 -73q0 -25 7 -47.5t24 -42.5q11 -12 26 -15.5t31 -0.5q4 1 7.5 -3t4.5 -8.5t0 -9t-5 -4.5q-28 -5 -52 5.5t-43 31.5q-21 25 -30.5 53.5t-8.5 57.5
q0 40 17.5 79t46.5 70t68 50.5t83 19.5q46 0 79 -20t54 -52.5t31 -72.5t10 -79q0 -53 -9 -113.5t-19 -121t-18.5 -115.5t-8.5 -97q0 -14 1 -34t6 -38.5t15.5 -31.5t30.5 -14q18 0 38.5 10.5t37.5 24.5q33 27 58 74t44.5 102t33 111t23.5 103q6 51 13 101t13.5 95.5t12 85.5
t9.5 72q4 35 24 52t45 17q22 0 37.5 -16t7.5 -59q-18 -86 -32.5 -178t-25.5 -184.5t-19 -184t-12 -177.5q-1 -25 0 -47.5t6 -39.5t14 -27t23 -10q18 0 36.5 18.5t36 47.5t33.5 64t29 68.5t22.5 61.5t14.5 42zM456 1123q-8 9 -8.5 21t9.5 20q11 8 22.5 5t18.5 -14l65 -103
q9 -12 -2 -21q-12 -8 -21 3z" />
    <glyph glyph-name="Uacute" unicode="&#xda;" horiz-adv-x="910" 
d="M910 283q1 2 6 2.5t11 0.5t11 -1t4 -2q-7 -21 -18.5 -54t-26 -70.5t-33.5 -75.5t-41 -68.5t-48 -50t-55 -19.5q-50 0 -78 28t-39 71q-10 38 -9.5 100t6.5 138q-17 -50 -38.5 -96.5t-49.5 -82.5t-63.5 -57.5t-80.5 -21.5q-39 0 -64.5 14t-40.5 38t-21.5 54.5t-6.5 62.5
q-1 40 8 99.5t19.5 124.5t19.5 130t9 117q0 19 -2.5 45t-11 49.5t-24 40t-41.5 16.5q-32 0 -63 -19t-55 -48t-39.5 -66t-15.5 -73q0 -25 7 -47.5t24 -42.5q11 -12 26 -15.5t31 -0.5q4 1 7.5 -3t4.5 -8.5t0 -9t-5 -4.5q-28 -5 -52 5.5t-43 31.5q-21 25 -30.5 53.5t-8.5 57.5
q0 40 17.5 79t46.5 70t68 50.5t83 19.5q46 0 79 -20t54 -52.5t31 -72.5t10 -79q0 -53 -9 -113.5t-19 -121t-18.5 -115.5t-8.5 -97q0 -14 1 -34t6 -38.5t15.5 -31.5t30.5 -14q18 0 38.5 10.5t37.5 24.5q33 27 58 74t44.5 102t33 111t23.5 103q6 51 13 101t13.5 95.5t12 85.5
t9.5 72q4 35 24 52t45 17q22 0 37.5 -16t7.5 -59q-18 -86 -32.5 -178t-25.5 -184.5t-19 -184t-12 -177.5q-1 -25 0 -47.5t6 -39.5t14 -27t23 -10q18 0 36.5 18.5t36 47.5t33.5 64t29 68.5t22.5 61.5t14.5 42zM467 1047q-5 4 -5.5 10t2.5 11l66 103q7 11 18.5 14t21.5 -5
q11 -8 10.5 -20t-8.5 -21l-84 -89q-5 -5 -10.5 -6t-10.5 3z" />
    <glyph glyph-name="Ucircumflex" unicode="&#xdb;" horiz-adv-x="910" 
d="M910 283q1 2 6 2.5t11 0.5t11 -1t4 -2q-7 -21 -18.5 -54t-26 -70.5t-33.5 -75.5t-41 -68.5t-48 -50t-55 -19.5q-50 0 -78 28t-39 71q-10 38 -9.5 100t6.5 138q-17 -50 -38.5 -96.5t-49.5 -82.5t-63.5 -57.5t-80.5 -21.5q-39 0 -64.5 14t-40.5 38t-21.5 54.5t-6.5 62.5
q-1 40 8 99.5t19.5 124.5t19.5 130t9 117q0 19 -2.5 45t-11 49.5t-24 40t-41.5 16.5q-32 0 -63 -19t-55 -48t-39.5 -66t-15.5 -73q0 -25 7 -47.5t24 -42.5q11 -12 26 -15.5t31 -0.5q4 1 7.5 -3t4.5 -8.5t0 -9t-5 -4.5q-28 -5 -52 5.5t-43 31.5q-21 25 -30.5 53.5t-8.5 57.5
q0 40 17.5 79t46.5 70t68 50.5t83 19.5q46 0 79 -20t54 -52.5t31 -72.5t10 -79q0 -53 -9 -113.5t-19 -121t-18.5 -115.5t-8.5 -97q0 -14 1 -34t6 -38.5t15.5 -31.5t30.5 -14q18 0 38.5 10.5t37.5 24.5q33 27 58 74t44.5 102t33 111t23.5 103q6 51 13 101t13.5 95.5t12 85.5
t9.5 72q4 35 24 52t45 17q22 0 37.5 -16t7.5 -59q-18 -86 -32.5 -178t-25.5 -184.5t-19 -184t-12 -177.5q-1 -25 0 -47.5t6 -39.5t14 -27t23 -10q18 0 36.5 18.5t36 47.5t33.5 64t29 68.5t22.5 61.5t14.5 42zM439 1047q-10 -10 -21 -1q-10 10 -1 22l77 95q10 14 25 12.5
t23 -15.5l65 -103q9 -12 -2 -21q-12 -8 -21 3l-69 73z" />
    <glyph glyph-name="Udieresis" unicode="&#xdc;" horiz-adv-x="910" 
d="M910 283q1 2 6 2.5t11 0.5t11 -1t4 -2q-7 -21 -18.5 -54t-26 -70.5t-33.5 -75.5t-41 -68.5t-48 -50t-55 -19.5q-50 0 -78 28t-39 71q-10 38 -9.5 100t6.5 138q-17 -50 -38.5 -96.5t-49.5 -82.5t-63.5 -57.5t-80.5 -21.5q-39 0 -64.5 14t-40.5 38t-21.5 54.5t-6.5 62.5
q-1 40 8 99.5t19.5 124.5t19.5 130t9 117q0 19 -2.5 45t-11 49.5t-24 40t-41.5 16.5q-32 0 -63 -19t-55 -48t-39.5 -66t-15.5 -73q0 -25 7 -47.5t24 -42.5q11 -12 26 -15.5t31 -0.5q4 1 7.5 -3t4.5 -8.5t0 -9t-5 -4.5q-28 -5 -52 5.5t-43 31.5q-21 25 -30.5 53.5t-8.5 57.5
q0 40 17.5 79t46.5 70t68 50.5t83 19.5q46 0 79 -20t54 -52.5t31 -72.5t10 -79q0 -53 -9 -113.5t-19 -121t-18.5 -115.5t-8.5 -97q0 -14 1 -34t6 -38.5t15.5 -31.5t30.5 -14q18 0 38.5 10.5t37.5 24.5q33 27 58 74t44.5 102t33 111t23.5 103q6 51 13 101t13.5 95.5t12 85.5
t9.5 72q4 35 24 52t45 17q22 0 37.5 -16t7.5 -59q-18 -86 -32.5 -178t-25.5 -184.5t-19 -184t-12 -177.5q-1 -25 0 -47.5t6 -39.5t14 -27t23 -10q18 0 36.5 18.5t36 47.5t33.5 64t29 68.5t22.5 61.5t14.5 42zM413 1061q-23 0 -39.5 16t-16.5 39t16.5 39t39.5 16t39 -16
t16 -39t-16 -39t-39 -16zM590 1040q-23 0 -39 16t-16 39t16 39t39 16t39 -16t16 -39t-16 -39t-39 -16z" />
    <glyph glyph-name="Yacute" unicode="&#xdd;" horiz-adv-x="857" 
d="M857 283q1 2 6 2.5t11 0.5t10.5 -1t4.5 -2q-26 -75 -75 -126.5t-109 -90.5q-6 -36 -15 -87.5t-24 -108t-36.5 -112t-51.5 -100t-69 -72t-89 -27.5q-31 0 -53.5 10.5t-38.5 28.5t-24.5 43t-10.5 53q-5 67 20 121.5t68.5 97.5t98.5 75t110 53q12 82 20.5 166t14.5 164
q-15 -58 -37 -115t-52.5 -103t-71 -74.5t-93.5 -28.5q-39 0 -64.5 14.5t-40.5 38.5t-21.5 54.5t-7.5 62.5q0 40 8 95t18.5 115t19 121t8.5 113q0 19 -2.5 45t-11 49.5t-24 40t-41.5 16.5q-32 0 -63 -19t-55 -48t-39.5 -66t-15.5 -73q0 -25 7 -47.5t24 -42.5q11 -12 26 -15.5
t31 -0.5q4 1 7.5 -3t4.5 -8.5t0 -9t-5 -4.5q-28 -5 -52 5.5t-43 31.5q-21 25 -30.5 53.5t-8.5 57.5q0 40 17.5 79t46.5 70t68 50.5t83 19.5q46 0 79 -20t54 -52.5t31 -72.5t10 -79q0 -53 -8.5 -109.5t-18 -112t-17.5 -106.5t-8 -92q0 -14 0.5 -34t5.5 -38.5t15.5 -32
t30.5 -13.5q19 -1 39.5 10t37.5 25q37 32 64.5 85t47.5 113t33 118.5t22 100.5q5 19 15 37t33 17q17 0 29.5 -7t20 -19t11 -27t2.5 -31q-3 -88 -11 -191t-22 -208q49 35 87 77.5t59 99.5zM409 -411q30 0 54 25.5t42.5 65.5t32 88.5t23 95t15.5 85.5t9 60q-48 -20 -96 -50
t-86.5 -69t-61 -87.5t-17.5 -106.5q1 -18 6.5 -37.5t15.5 -35t25.5 -25t37.5 -9.5zM513 957q-5 4 -5.5 10t2.5 11l66 103q7 11 18.5 14t21.5 -5q11 -8 10.5 -20t-8.5 -21l-84 -89q-5 -5 -10.5 -6t-10.5 3z" />
    <glyph glyph-name="germandbls" unicode="&#xdf;" horiz-adv-x="846" 
d="M472 -12q47 0 85 26t65 66t41.5 88t14.5 91q1 39 -6 73.5t-21 60.5t-35 43t-48 21q-5 -3 -13 -1.5t-14.5 5.5t-9 10t3.5 12q31 24 55.5 58t41 72t25.5 79t10 80q0 18 -2 42t-9 46.5t-21 38.5t-38 17q-41 1 -74 -25.5t-59.5 -72t-47 -106.5t-36.5 -129t-27 -138
t-19 -134.5t-12.5 -119t-7.5 -90.5q-3 -27 -13.5 -36.5t-24.5 -6.5q-15 2 -26 17t-9 39q6 85 13.5 169.5t13.5 169t9.5 169t0.5 169.5q0 16 -3 38t-10.5 41.5t-21 33t-35.5 12.5q-27 -1 -52.5 -17.5t-45 -41.5t-31 -56t-10.5 -61q0 -21 7 -40.5t21 -35.5q9 -10 22 -12t26 0
q8 2 10 -8.5t-3 -11.5q-23 -5 -43.5 3t-37.5 26q-18 20 -26.5 43t-8.5 48q-1 34 12.5 67t37 60t55.5 44t69 18q39 2 68 -14t49 -42.5t30.5 -60t11.5 -66.5q1 -26 1 -51.5t-2 -51.5q15 59 35.5 113.5t49 96t65 65.5t83.5 23q37 -1 65.5 -16.5t47.5 -41t28.5 -58.5t8.5 -67
q-2 -87 -43.5 -164t-108.5 -128q42 -8 74.5 -31t54 -56t32 -74t8.5 -85q-8 -57 -31 -107.5t-58.5 -88t-82.5 -58.5t-104 -20q-18 0 -37.5 3.5t-36 11.5t-29 21t-16.5 32q-2 6 1 9.5t7.5 4.5t9 -2t6.5 -9q8 -22 30 -31.5t45 -9.5z" />
    <glyph glyph-name="agrave" unicode="&#xe0;" 
d="M571 283q1 2 6 2.5t11 0.5t11 -1t4 -2q-7 -21 -17 -50t-22.5 -60t-28.5 -62t-36.5 -55.5t-45 -40t-53.5 -15.5q-36 0 -59 15t-37 40t-19.5 56t-6.5 62v18q-15 -28 -32.5 -53t-36.5 -44t-39.5 -30t-41.5 -11q-51 1 -82.5 32t-43.5 77.5t-5.5 101t31.5 100.5t68 76.5
t104 30.5q32 0 57.5 -13t41.5 -40q2 -3 -1 -7t-8 -6.5t-10 -2.5t-8 5q-8 15 -21.5 25.5t-31.5 10.5q-29 0 -52.5 -26.5t-39 -66.5t-23.5 -86t-6.5 -85.5t12.5 -65.5t33 -25t44 22.5t41.5 54t35.5 70.5t25 71l10 69q6 35 25.5 52.5t44.5 17.5q22 0 37.5 -16t7.5 -59
q-5 -25 -12 -56t-13 -63.5t-10 -64t-5 -56.5q0 -18 1.5 -34.5t6.5 -30t13.5 -21.5t22.5 -8q17 0 36.5 16t35.5 41q14 21 26.5 49t23 55.5t18.5 50.5t13 35zM235 668q-8 9 -8.5 21t9.5 20q11 8 22.5 5t18.5 -14l65 -103q9 -12 -2 -21q-12 -8 -21 3z" />
    <glyph glyph-name="aacute" unicode="&#xe1;" 
d="M571 283q1 2 6 2.5t11 0.5t11 -1t4 -2q-7 -21 -17 -50t-22.5 -60t-28.5 -62t-36.5 -55.5t-45 -40t-53.5 -15.5q-36 0 -59 15t-37 40t-19.5 56t-6.5 62v18q-15 -28 -32.5 -53t-36.5 -44t-39.5 -30t-41.5 -11q-51 1 -82.5 32t-43.5 77.5t-5.5 101t31.5 100.5t68 76.5
t104 30.5q32 0 57.5 -13t41.5 -40q2 -3 -1 -7t-8 -6.5t-10 -2.5t-8 5q-8 15 -21.5 25.5t-31.5 10.5q-29 0 -52.5 -26.5t-39 -66.5t-23.5 -86t-6.5 -85.5t12.5 -65.5t33 -25t44 22.5t41.5 54t35.5 70.5t25 71l10 69q6 35 25.5 52.5t44.5 17.5q22 0 37.5 -16t7.5 -59
q-5 -25 -12 -56t-13 -63.5t-10 -64t-5 -56.5q0 -18 1.5 -34.5t6.5 -30t13.5 -21.5t22.5 -8q17 0 36.5 16t35.5 41q14 21 26.5 49t23 55.5t18.5 50.5t13 35zM230 576q-5 4 -5.5 10t2.5 11l66 103q7 11 18.5 14t21.5 -5q11 -8 10.5 -20t-8.5 -21l-84 -89q-5 -5 -10.5 -6
t-10.5 3z" />
    <glyph glyph-name="acircumflex" unicode="&#xe2;" 
d="M571 283q1 2 6 2.5t11 0.5t11 -1t4 -2q-7 -21 -17 -50t-22.5 -60t-28.5 -62t-36.5 -55.5t-45 -40t-53.5 -15.5q-36 0 -59 15t-37 40t-19.5 56t-6.5 62v18q-15 -28 -32.5 -53t-36.5 -44t-39.5 -30t-41.5 -11q-51 1 -82.5 32t-43.5 77.5t-5.5 101t31.5 100.5t68 76.5
t104 30.5q32 0 57.5 -13t41.5 -40q2 -3 -1 -7t-8 -6.5t-10 -2.5t-8 5q-8 15 -21.5 25.5t-31.5 10.5q-29 0 -52.5 -26.5t-39 -66.5t-23.5 -86t-6.5 -85.5t12.5 -65.5t33 -25t44 22.5t41.5 54t35.5 70.5t25 71l10 69q6 35 25.5 52.5t44.5 17.5q22 0 37.5 -16t7.5 -59
q-5 -25 -12 -56t-13 -63.5t-10 -64t-5 -56.5q0 -18 1.5 -34.5t6.5 -30t13.5 -21.5t22.5 -8q17 0 36.5 16t35.5 41q14 21 26.5 49t23 55.5t18.5 50.5t13 35zM212 587q-10 -10 -21 -1q-10 10 -1 22l77 95q10 14 25 12.5t23 -15.5l65 -103q9 -12 -2 -21q-12 -8 -21 3l-69 73z
" />
    <glyph glyph-name="atilde" unicode="&#xe3;" 
d="M571 283q1 2 6 2.5t11 0.5t11 -1t4 -2q-7 -21 -17 -50t-22.5 -60t-28.5 -62t-36.5 -55.5t-45 -40t-53.5 -15.5q-36 0 -59 15t-37 40t-19.5 56t-6.5 62v18q-15 -28 -32.5 -53t-36.5 -44t-39.5 -30t-41.5 -11q-51 1 -82.5 32t-43.5 77.5t-5.5 101t31.5 100.5t68 76.5
t104 30.5q32 0 57.5 -13t41.5 -40q2 -3 -1 -7t-8 -6.5t-10 -2.5t-8 5q-8 15 -21.5 25.5t-31.5 10.5q-29 0 -52.5 -26.5t-39 -66.5t-23.5 -86t-6.5 -85.5t12.5 -65.5t33 -25t44 22.5t41.5 54t35.5 70.5t25 71l10 69q6 35 25.5 52.5t44.5 17.5q22 0 37.5 -16t7.5 -59
q-5 -25 -12 -56t-13 -63.5t-10 -64t-5 -56.5q0 -18 1.5 -34.5t6.5 -30t13.5 -21.5t22.5 -8q17 0 36.5 16t35.5 41q14 21 26.5 49t23 55.5t18.5 50.5t13 35zM180 613q-6 -4 -12.5 -2.5t-11 6t-4.5 11.5t7 14q20 18 42 23t44.5 2t45 -10.5t42 -13.5t36 -7.5t27.5 8.5q6 6 12 5
t10 -5.5t4 -11.5t-4 -14q-13 -21 -32.5 -27t-41.5 -4t-46 9.5t-46 14t-41 8.5t-31 -6z" />
    <glyph glyph-name="adieresis" unicode="&#xe4;" 
d="M571 283q1 2 6 2.5t11 0.5t11 -1t4 -2q-7 -21 -17 -50t-22.5 -60t-28.5 -62t-36.5 -55.5t-45 -40t-53.5 -15.5q-36 0 -59 15t-37 40t-19.5 56t-6.5 62v18q-15 -28 -32.5 -53t-36.5 -44t-39.5 -30t-41.5 -11q-51 1 -82.5 32t-43.5 77.5t-5.5 101t31.5 100.5t68 76.5
t104 30.5q32 0 57.5 -13t41.5 -40q2 -3 -1 -7t-8 -6.5t-10 -2.5t-8 5q-8 15 -21.5 25.5t-31.5 10.5q-29 0 -52.5 -26.5t-39 -66.5t-23.5 -86t-6.5 -85.5t12.5 -65.5t33 -25t44 22.5t41.5 54t35.5 70.5t25 71l10 69q6 35 25.5 52.5t44.5 17.5q22 0 37.5 -16t7.5 -59
q-5 -25 -12 -56t-13 -63.5t-10 -64t-5 -56.5q0 -18 1.5 -34.5t6.5 -30t13.5 -21.5t22.5 -8q17 0 36.5 16t35.5 41q14 21 26.5 49t23 55.5t18.5 50.5t13 35zM198 593q-23 0 -39.5 16t-16.5 39t16.5 39t39.5 16t39 -16t16 -39t-16 -39t-39 -16zM375 572q-23 0 -39 16t-16 39
t16 39t39 16t39 -16t16 -39t-16 -39t-39 -16z" />
    <glyph glyph-name="aring" unicode="&#xe5;" 
d="M571 283q1 2 6 2.5t11 0.5t11 -1t4 -2q-7 -21 -17 -50t-22.5 -60t-28.5 -62t-36.5 -55.5t-45 -40t-53.5 -15.5q-36 0 -59 15t-37 40t-19.5 56t-6.5 62v18q-15 -28 -32.5 -53t-36.5 -44t-39.5 -30t-41.5 -11q-51 1 -82.5 32t-43.5 77.5t-5.5 101t31.5 100.5t68 76.5
t104 30.5q32 0 57.5 -13t41.5 -40q2 -3 -1 -7t-8 -6.5t-10 -2.5t-8 5q-8 15 -21.5 25.5t-31.5 10.5q-29 0 -52.5 -26.5t-39 -66.5t-23.5 -86t-6.5 -85.5t12.5 -65.5t33 -25t44 22.5t41.5 54t35.5 70.5t25 71l10 69q6 35 25.5 52.5t44.5 17.5q22 0 37.5 -16t7.5 -59
q-5 -25 -12 -56t-13 -63.5t-10 -64t-5 -56.5q0 -18 1.5 -34.5t6.5 -30t13.5 -21.5t22.5 -8q17 0 36.5 16t35.5 41q14 21 26.5 49t23 55.5t18.5 50.5t13 35zM280 553q-32 0 -53 23.5t-19 56.5q1 16 8 31t18.5 25.5t25.5 17t30 6.5q32 0 53.5 -23.5t19.5 -56.5t-26.5 -56.5
t-56.5 -23.5zM233 633q-2 -23 12.5 -38.5t36.5 -15.5t38 15.5t18 38.5t-12.5 38.5t-36.5 15.5t-38 -15.5t-18 -38.5z" />
    <glyph glyph-name="ae" unicode="&#xe6;" horiz-adv-x="681" 
d="M681 283q1 2 6 2.5t11 0.5t11 -1t4 -2q-15 -43 -37 -87.5t-52.5 -82t-70.5 -63t-92 -30.5q-38 -4 -71 4.5t-57.5 28t-39 50t-15.5 70.5v18q-15 -28 -32.5 -53t-36.5 -44t-39.5 -30t-41.5 -11q-51 1 -82.5 32t-43.5 77.5t-5.5 101t31.5 100.5t68 76.5t104 30.5
q32 0 57.5 -13t41.5 -40q2 -3 -1 -7t-8 -6.5t-10 -2.5t-8 5q-8 15 -21.5 25.5t-31.5 10.5q-29 0 -52.5 -26.5t-39 -66.5t-23.5 -86t-6.5 -85.5t12.5 -65.5t33 -25t44 22.5t41.5 54t35.5 70.5t25 71l10 69q3 15 10.5 30t19.5 25.5t27.5 14t33.5 -3.5q21 16 45 25t53 9
t52 -10.5t35.5 -28t12.5 -41t-16 -49.5q-13 -21 -33.5 -38t-44.5 -28.5t-50 -16.5t-50 -1q-3 -17 -5 -34t-1 -33q0 -27 5 -50.5t16.5 -41t29 -28t42.5 -10.5q36 0 68 22.5t57.5 56t44.5 71.5t30 68zM513 440q-24 1 -42.5 -15.5t-32.5 -40.5t-23.5 -50t-13.5 -44
q19 -3 40 1.5t40.5 13.5t36 22.5t27.5 29.5q9 13 12 27.5t-0.5 26.5t-14.5 20t-29 9z" />
    <glyph glyph-name="ccedilla" unicode="&#xe7;" horiz-adv-x="386" 
d="M386 283q1 2 6 2.5t11 0.5t11 -1t4 -2q-16 -44 -38.5 -90t-54 -83.5t-73.5 -62.5t-97 -28q-2 -12 -2 -23t-1 -20q47 4 67.5 -16.5t21.5 -48.5q0 -15 -5 -30t-14 -27t-21.5 -20t-28.5 -8q-17 -1 -31 8t-22 23.5t-9 31t8 31.5q5 8 13.5 14t19.5 0q2 -1 -0.5 -4.5t-3.5 -2.5
q-8 5 -13 0t-9 -11q-6 -11 -6 -24.5t5 -25.5t15 -20t24 -8q13 0 22.5 7t15.5 17.5t9.5 23t4.5 23.5q0 12 -3 23t-10.5 19t-20.5 13t-33 4q-5 -2 -11.5 0.5t-6.5 7.5v20.5t2 22.5q-37 3 -64 19.5t-44.5 42.5t-26 59t-7.5 69q1 45 15.5 92.5t41 86.5t64.5 63.5t86 24.5
q30 -1 55 -14t41 -39q2 -4 -1 -9t-8.5 -9t-11 -5t-8.5 4q-8 15 -21 25.5t-31 10.5q-24 0 -45.5 -24t-38 -60t-26 -79t-9.5 -82q0 -27 5 -50.5t16.5 -41t29 -28t42.5 -10.5q36 0 68 22.5t57.5 56t44.5 71.5t30 68z" />
    <glyph glyph-name="egrave" unicode="&#xe8;" horiz-adv-x="386" 
d="M386 283q1 2 6 2.5t11 0.5t11 -1t4 -2q-16 -45 -39.5 -92t-56.5 -85.5t-77 -62.5t-101 -24q-40 0 -69 15.5t-48.5 42t-28.5 60.5t-8 72q1 42 14.5 89t39.5 86.5t63.5 65t85.5 25.5q29 0 52 -10.5t35.5 -28t12.5 -41t-16 -49.5q-13 -21 -33.5 -38t-44.5 -28.5t-50 -16.5
t-50 -1q-3 -17 -5 -34t-1 -33q0 -27 5 -50.5t16.5 -41t29 -28t42.5 -10.5q36 0 68 22.5t57.5 56t44.5 71.5t30 68zM218 440q-24 1 -42.5 -15.5t-32.5 -40.5t-23.5 -50t-13.5 -44q19 -3 40 1.5t40.5 13.5t36 22.5t27.5 29.5q9 13 12 27.5t-0.5 26.5t-14.5 20t-29 9zM143 668
q-8 9 -8.5 21t9.5 20q11 8 22.5 5t18.5 -14l65 -103q9 -12 -2 -21q-12 -8 -21 3z" />
    <glyph glyph-name="eacute" unicode="&#xe9;" horiz-adv-x="386" 
d="M386 283q1 2 6 2.5t11 0.5t11 -1t4 -2q-16 -45 -39.5 -92t-56.5 -85.5t-77 -62.5t-101 -24q-40 0 -69 15.5t-48.5 42t-28.5 60.5t-8 72q1 42 14.5 89t39.5 86.5t63.5 65t85.5 25.5q29 0 52 -10.5t35.5 -28t12.5 -41t-16 -49.5q-13 -21 -33.5 -38t-44.5 -28.5t-50 -16.5
t-50 -1q-3 -17 -5 -34t-1 -33q0 -27 5 -50.5t16.5 -41t29 -28t42.5 -10.5q36 0 68 22.5t57.5 56t44.5 71.5t30 68zM218 440q-24 1 -42.5 -15.5t-32.5 -40.5t-23.5 -50t-13.5 -44q19 -3 40 1.5t40.5 13.5t36 22.5t27.5 29.5q9 13 12 27.5t-0.5 26.5t-14.5 20t-29 9zM138 576
q-5 4 -5.5 10t2.5 11l66 103q7 11 18.5 14t21.5 -5q11 -8 10.5 -20t-8.5 -21l-84 -89q-5 -5 -10.5 -6t-10.5 3z" />
    <glyph glyph-name="ecircumflex" unicode="&#xea;" horiz-adv-x="386" 
d="M386 283q1 2 6 2.5t11 0.5t11 -1t4 -2q-16 -45 -39.5 -92t-56.5 -85.5t-77 -62.5t-101 -24q-40 0 -69 15.5t-48.5 42t-28.5 60.5t-8 72q1 42 14.5 89t39.5 86.5t63.5 65t85.5 25.5q29 0 52 -10.5t35.5 -28t12.5 -41t-16 -49.5q-13 -21 -33.5 -38t-44.5 -28.5t-50 -16.5
t-50 -1q-3 -17 -5 -34t-1 -33q0 -27 5 -50.5t16.5 -41t29 -28t42.5 -10.5q36 0 68 22.5t57.5 56t44.5 71.5t30 68zM218 440q-24 1 -42.5 -15.5t-32.5 -40.5t-23.5 -50t-13.5 -44q19 -3 40 1.5t40.5 13.5t36 22.5t27.5 29.5q9 13 12 27.5t-0.5 26.5t-14.5 20t-29 9zM120 587
q-10 -10 -21 -1q-10 10 -1 22l77 95q10 14 25 12.5t23 -15.5l65 -103q9 -12 -2 -21q-12 -8 -21 3l-69 73z" />
    <glyph glyph-name="edieresis" unicode="&#xeb;" horiz-adv-x="386" 
d="M386 283q1 2 6 2.5t11 0.5t11 -1t4 -2q-16 -45 -39.5 -92t-56.5 -85.5t-77 -62.5t-101 -24q-40 0 -69 15.5t-48.5 42t-28.5 60.5t-8 72q1 42 14.5 89t39.5 86.5t63.5 65t85.5 25.5q29 0 52 -10.5t35.5 -28t12.5 -41t-16 -49.5q-13 -21 -33.5 -38t-44.5 -28.5t-50 -16.5
t-50 -1q-3 -17 -5 -34t-1 -33q0 -27 5 -50.5t16.5 -41t29 -28t42.5 -10.5q36 0 68 22.5t57.5 56t44.5 71.5t30 68zM218 440q-24 1 -42.5 -15.5t-32.5 -40.5t-23.5 -50t-13.5 -44q19 -3 40 1.5t40.5 13.5t36 22.5t27.5 29.5q9 13 12 27.5t-0.5 26.5t-14.5 20t-29 9zM105 593
q-23 0 -39.5 16t-16.5 39t16.5 39t39.5 16t39 -16t16 -39t-16 -39t-39 -16zM282 572q-23 0 -39 16t-16 39t16 39t39 16t39 -16t16 -39t-16 -39t-39 -16z" />
    <glyph glyph-name="igrave" unicode="&#xec;" horiz-adv-x="285" 
d="M285 283q1 2 6.5 2.5t11.5 0.5t10.5 -1t4.5 -2q-7 -21 -17 -49.5t-22.5 -59.5t-28.5 -61t-36.5 -54t-45 -39t-53.5 -15q-36 0 -59 15t-37 40t-20 56t-6 62q-1 44 6 97.5t15 97.5q6 35 25 51.5t44 15.5q11 0 21 -3.5t17 -11.5t9 -22t-2 -35q-5 -26 -11.5 -56t-12.5 -60.5
t-10.5 -61t-4.5 -55.5q0 -18 1.5 -34.5t6.5 -30t13.5 -21.5t22.5 -8q16 -1 36 15t36 41q14 22 26.5 49t23 53.5t18.5 49t12 34.5zM56 611q-8 9 -8.5 21t9.5 20q11 8 22.5 5t18.5 -14l65 -103q9 -12 -2 -21q-12 -8 -21 3z" />
    <glyph glyph-name="iacute" unicode="&#xed;" horiz-adv-x="285" 
d="M285 283q1 2 6.5 2.5t11.5 0.5t10.5 -1t4.5 -2q-7 -21 -17 -49.5t-22.5 -59.5t-28.5 -61t-36.5 -54t-45 -39t-53.5 -15q-36 0 -59 15t-37 40t-20 56t-6 62q-1 44 6 97.5t15 97.5q6 35 25 51.5t44 15.5q11 0 21 -3.5t17 -11.5t9 -22t-2 -35q-5 -26 -11.5 -56t-12.5 -60.5
t-10.5 -61t-4.5 -55.5q0 -18 1.5 -34.5t6.5 -30t13.5 -21.5t22.5 -8q16 -1 36 15t36 41q14 22 26.5 49t23 53.5t18.5 49t12 34.5zM68 533q-5 4 -5.5 10t2.5 11l66 103q7 11 18.5 14t21.5 -5q11 -8 10.5 -20t-8.5 -21l-84 -89q-5 -5 -10.5 -6t-10.5 3z" />
    <glyph glyph-name="icircumflex" unicode="&#xee;" horiz-adv-x="285" 
d="M285 283q1 2 6.5 2.5t11.5 0.5t10.5 -1t4.5 -2q-7 -21 -17 -49.5t-22.5 -59.5t-28.5 -61t-36.5 -54t-45 -39t-53.5 -15q-36 0 -59 15t-37 40t-20 56t-6 62q-1 44 6 97.5t15 97.5q6 35 25 51.5t44 15.5q11 0 21 -3.5t17 -11.5t9 -22t-2 -35q-5 -26 -11.5 -56t-12.5 -60.5
t-10.5 -61t-4.5 -55.5q0 -18 1.5 -34.5t6.5 -30t13.5 -21.5t22.5 -8q16 -1 36 15t36 41q14 22 26.5 49t23 53.5t18.5 49t12 34.5zM34 536q-10 -10 -21 -1q-10 10 -1 22l77 95q10 14 25 12.5t23 -15.5l65 -103q9 -12 -2 -21q-12 -8 -21 3l-69 73z" />
    <glyph glyph-name="idieresis" unicode="&#xef;" horiz-adv-x="285" 
d="M285 283q1 2 6.5 2.5t11.5 0.5t10.5 -1t4.5 -2q-7 -21 -17 -49.5t-22.5 -59.5t-28.5 -61t-36.5 -54t-45 -39t-53.5 -15q-36 0 -59 15t-37 40t-20 56t-6 62q-1 44 6 97.5t15 97.5q6 35 25 51.5t44 15.5q11 0 21 -3.5t17 -11.5t9 -22t-2 -35q-5 -26 -11.5 -56t-12.5 -60.5
t-10.5 -61t-4.5 -55.5q0 -18 1.5 -34.5t6.5 -30t13.5 -21.5t22.5 -8q16 -1 36 15t36 41q14 22 26.5 49t23 53.5t18.5 49t12 34.5zM37 537q-23 0 -39.5 16t-16.5 39t16.5 39t39.5 16t39 -16t16 -39t-16 -39t-39 -16zM214 516q-23 0 -39 16t-16 39t16 39t39 16t39 -16t16 -39
t-16 -39t-39 -16z" />
    <glyph glyph-name="ntilde" unicode="&#xf1;" horiz-adv-x="529" 
d="M149 589q-6 -4 -12.5 -2.5t-11 6t-4.5 11.5t7 14q20 18 42 23t44.5 2t45 -10.5t42 -13.5t36 -7.5t27.5 8.5q6 6 12 5t10 -5.5t4 -11.5t-4 -14q-13 -21 -32.5 -27t-41.5 -4t-46 9.5t-46 14t-41 8.5t-31 -6zM529 283q1 2 6.5 2.5t11.5 0.5t10.5 -1t4.5 -2
q-13 -36 -29.5 -82t-40.5 -87t-58 -69.5t-81 -28.5q-42 -1 -73 31t-33 98q0 26 3.5 52.5t8.5 51t9 47t5 39.5q1 32 -7 54.5t-29 22.5q-16 1 -32 -15.5t-30.5 -43.5t-28 -61.5t-25.5 -71.5t-22.5 -72.5t-18.5 -64.5q-3 -29 -19.5 -45t-34.5 -17t-31.5 13.5t-10.5 47.5
q8 71 12.5 146.5t12.5 151.5q4 35 24 52.5t45 17.5q11 0 21 -3.5t17 -12.5t9 -23.5t-2 -35.5q-4 -20 -7.5 -39.5t-6.5 -37.5q12 32 26.5 59.5t32 48t38 32t45.5 11.5q36 0 59.5 -11.5t37 -30.5t19 -44.5t5.5 -53.5q-1 -49 -12.5 -96t-12.5 -81q-1 -45 8 -63t26 -17
q28 1 51.5 29t42.5 65.5t32.5 76t21.5 60.5z" />
    <glyph glyph-name="ograve" unicode="&#xf2;" horiz-adv-x="470" 
d="M470 283q4 4 16 4t16 -4q-32 -56 -73.5 -89.5t-106.5 -36.5q-11 -29 -27 -54.5t-38 -44t-49 -29.5t-59 -11q-63 0 -101 31.5t-52.5 79t-7 103t33.5 103t69.5 79t102.5 31.5q37 0 64.5 -16t45.5 -42.5t26.5 -60t8.5 -69.5q0 -37 -9 -71q50 6 82 30.5t58 66.5zM153 50
q42 0 71.5 32t46.5 78q-21 2 -47.5 0t-50.5 -10.5t-40.5 -25t-16.5 -43.5q0 -15 11.5 -23t25.5 -8zM290 263q1 20 -2 45.5t-12 48.5t-25 39t-41 17q-29 1 -54 -29.5t-42 -75.5t-24 -96.5t1 -91.5q12 22 34 36.5t48.5 22t54.5 9.5t51 -1q11 39 11 76zM181 633q-8 9 -8.5 21
t9.5 20q11 8 22.5 5t18.5 -14l65 -103q9 -12 -2 -21q-12 -8 -21 3z" />
    <glyph glyph-name="oacute" unicode="&#xf3;" horiz-adv-x="470" 
d="M470 283q4 4 16 4t16 -4q-32 -56 -73.5 -89.5t-106.5 -36.5q-11 -29 -27 -54.5t-38 -44t-49 -29.5t-59 -11q-63 0 -101 31.5t-52.5 79t-7 103t33.5 103t69.5 79t102.5 31.5q37 0 64.5 -16t45.5 -42.5t26.5 -60t8.5 -69.5q0 -37 -9 -71q50 6 82 30.5t58 66.5zM153 50
q42 0 71.5 32t46.5 78q-21 2 -47.5 0t-50.5 -10.5t-40.5 -25t-16.5 -43.5q0 -15 11.5 -23t25.5 -8zM290 263q1 20 -2 45.5t-12 48.5t-25 39t-41 17q-29 1 -54 -29.5t-42 -75.5t-24 -96.5t1 -91.5q12 22 34 36.5t48.5 22t54.5 9.5t51 -1q11 39 11 76zM180 561q-5 4 -5.5 10
t2.5 11l66 103q7 11 18.5 14t21.5 -5q11 -8 10.5 -20t-8.5 -21l-84 -89q-5 -5 -10.5 -6t-10.5 3z" />
    <glyph glyph-name="ocircumflex" unicode="&#xf4;" horiz-adv-x="470" 
d="M470 283q4 4 16 4t16 -4q-32 -56 -73.5 -89.5t-106.5 -36.5q-11 -29 -27 -54.5t-38 -44t-49 -29.5t-59 -11q-63 0 -101 31.5t-52.5 79t-7 103t33.5 103t69.5 79t102.5 31.5q37 0 64.5 -16t45.5 -42.5t26.5 -60t8.5 -69.5q0 -37 -9 -71q50 6 82 30.5t58 66.5zM153 50
q42 0 71.5 32t46.5 78q-21 2 -47.5 0t-50.5 -10.5t-40.5 -25t-16.5 -43.5q0 -15 11.5 -23t25.5 -8zM290 263q1 20 -2 45.5t-12 48.5t-25 39t-41 17q-29 1 -54 -29.5t-42 -75.5t-24 -96.5t1 -91.5q12 22 34 36.5t48.5 22t54.5 9.5t51 -1q11 39 11 76zM148 556q-10 -10 -21 -1
q-10 10 -1 22l77 95q10 14 25 12.5t23 -15.5l65 -103q9 -12 -2 -21q-12 -8 -21 3l-69 73z" />
    <glyph glyph-name="otilde" unicode="&#xf5;" horiz-adv-x="470" 
d="M470 283q4 4 16 4t16 -4q-32 -56 -73.5 -89.5t-106.5 -36.5q-11 -29 -27 -54.5t-38 -44t-49 -29.5t-59 -11q-63 0 -101 31.5t-52.5 79t-7 103t33.5 103t69.5 79t102.5 31.5q37 0 64.5 -16t45.5 -42.5t26.5 -60t8.5 -69.5q0 -37 -9 -71q50 6 82 30.5t58 66.5zM153 50
q42 0 71.5 32t46.5 78q-21 2 -47.5 0t-50.5 -10.5t-40.5 -25t-16.5 -43.5q0 -15 11.5 -23t25.5 -8zM290 263q1 20 -2 45.5t-12 48.5t-25 39t-41 17q-29 1 -54 -29.5t-42 -75.5t-24 -96.5t1 -91.5q12 22 34 36.5t48.5 22t54.5 9.5t51 -1q11 39 11 76zM122 587
q-6 -4 -12.5 -2.5t-11 6t-4.5 11.5t7 14q20 18 42 23t44.5 2t45 -10.5t42 -13.5t36 -7.5t27.5 8.5q6 6 12 5t10 -5.5t4 -11.5t-4 -14q-13 -21 -32.5 -27t-41.5 -4t-46 9.5t-46 14t-41 8.5t-31 -6z" />
    <glyph glyph-name="odieresis" unicode="&#xf6;" horiz-adv-x="470" 
d="M470 283q4 4 16 4t16 -4q-32 -56 -73.5 -89.5t-106.5 -36.5q-11 -29 -27 -54.5t-38 -44t-49 -29.5t-59 -11q-63 0 -101 31.5t-52.5 79t-7 103t33.5 103t69.5 79t102.5 31.5q37 0 64.5 -16t45.5 -42.5t26.5 -60t8.5 -69.5q0 -37 -9 -71q50 6 82 30.5t58 66.5zM153 50
q42 0 71.5 32t46.5 78q-21 2 -47.5 0t-50.5 -10.5t-40.5 -25t-16.5 -43.5q0 -15 11.5 -23t25.5 -8zM290 263q1 20 -2 45.5t-12 48.5t-25 39t-41 17q-29 1 -54 -29.5t-42 -75.5t-24 -96.5t1 -91.5q12 22 34 36.5t48.5 22t54.5 9.5t51 -1q11 39 11 76zM143 567q-23 0 -39.5 16
t-16.5 39t16.5 39t39.5 16t39 -16t16 -39t-16 -39t-39 -16zM320 546q-23 0 -39 16t-16 39t16 39t39 16t39 -16t16 -39t-16 -39t-39 -16z" />
    <glyph glyph-name="divide" unicode="&#xf7;" horiz-adv-x="410" 
d="M332 338q11 -1 16.5 -7.5t5.5 -14.5t-5.5 -15t-15.5 -7l-250 -14q-17 -1 -30 8t-13 26q0 16 13 25t30 8zM176 214q23 -2 38 -19t13 -40t-19 -38t-40 -13t-38 18.5t-13 39.5t19 38.5t40 13.5zM218 522q23 -2 38.5 -19t13.5 -40t-19 -38t-40 -13t-38 19t-13 40t18.5 38
t39.5 13z" />
    <glyph glyph-name="oslash" unicode="&#xf8;" horiz-adv-x="470" 
d="M470 283q4 4 16 4t16 -4q-32 -56 -73.5 -89.5t-106.5 -36.5q-18 -48 -51 -85t-81 -49q-5 -32 -7.5 -56.5t-4.5 -39.5q-3 -29 -18.5 -44t-33.5 -15q-17 0 -28 13.5t-7 45.5q1 13 3.5 38t6.5 58q-46 12 -72.5 44.5t-36.5 75t-3.5 90t27.5 90t55 74.5t80 43l37 307
q5 35 25 52.5t44 17.5q23 0 38.5 -16t7.5 -59q-4 -17 -9.5 -47.5t-12 -71.5t-14.5 -90t-16 -101q22 -11 39 -29t28 -41.5t16 -50t5 -54.5q0 -37 -9 -71q50 6 82 30.5t58 66.5zM290 263q0 16 -1.5 35.5t-6.5 38.5t-13.5 35.5t-22.5 27.5l-32 -214q33 4 65 1q11 39 11 76z
M142 366q-15 -24 -27 -55t-19 -64.5t-8.5 -66.5t3.5 -60q5 9 11 16.5t14 14.5zM209 158q-4 -27 -7 -51t-7 -47q26 14 45 40.5t31 59.5q-14 1 -29.5 0.5t-32.5 -2.5z" />
    <glyph glyph-name="ugrave" unicode="&#xf9;" horiz-adv-x="557" 
d="M557 283q1 2 6.5 2.5t11.5 0.5t10.5 -1t4.5 -2q-8 -21 -17 -50t-21 -60t-27.5 -62t-35 -55.5t-43.5 -40t-53 -15.5q-40 0 -64.5 18.5t-37.5 47.5t-17 63.5t-3 65.5q-12 -29 -27 -56.5t-33.5 -49t-41.5 -35t-50 -13.5q-36 0 -59 15.5t-37 40t-20 55.5t-6 62q0 22 2 48
t5 53.5t7 53.5t7 48q5 35 24.5 52.5t44.5 17.5q23 -1 38.5 -17t6.5 -58q-5 -26 -11.5 -57t-12.5 -63t-10.5 -63.5t-4.5 -57.5q0 -17 1.5 -34t6.5 -30.5t13.5 -21.5t22.5 -8q28 0 51.5 31t42.5 72.5t32.5 82t20.5 60.5l8 52q5 35 24.5 52.5t44.5 17.5q11 0 21 -3.5t17 -12.5
t9 -23.5t-2 -35.5q-5 -25 -11.5 -56t-12.5 -63.5t-10.5 -64t-4.5 -56.5q0 -17 1.5 -34t6.5 -30.5t13.5 -21.5t22.5 -8q18 0 35 14.5t31.5 37.5t27.5 52t23 56.5t17 50.5t12 36zM228 668q-8 9 -8.5 21t9.5 20q11 8 22.5 5t18.5 -14l65 -103q9 -12 -2 -21q-12 -8 -21 3z" />
    <glyph glyph-name="uacute" unicode="&#xfa;" horiz-adv-x="557" 
d="M557 283q1 2 6.5 2.5t11.5 0.5t10.5 -1t4.5 -2q-8 -21 -17 -50t-21 -60t-27.5 -62t-35 -55.5t-43.5 -40t-53 -15.5q-40 0 -64.5 18.5t-37.5 47.5t-17 63.5t-3 65.5q-12 -29 -27 -56.5t-33.5 -49t-41.5 -35t-50 -13.5q-36 0 -59 15.5t-37 40t-20 55.5t-6 62q0 22 2 48
t5 53.5t7 53.5t7 48q5 35 24.5 52.5t44.5 17.5q23 -1 38.5 -17t6.5 -58q-5 -26 -11.5 -57t-12.5 -63t-10.5 -63.5t-4.5 -57.5q0 -17 1.5 -34t6.5 -30.5t13.5 -21.5t22.5 -8q28 0 51.5 31t42.5 72.5t32.5 82t20.5 60.5l8 52q5 35 24.5 52.5t44.5 17.5q11 0 21 -3.5t17 -12.5
t9 -23.5t-2 -35.5q-5 -25 -11.5 -56t-12.5 -63.5t-10.5 -64t-4.5 -56.5q0 -17 1.5 -34t6.5 -30.5t13.5 -21.5t22.5 -8q18 0 35 14.5t31.5 37.5t27.5 52t23 56.5t17 50.5t12 36zM223 576q-5 4 -5.5 10t2.5 11l66 103q7 11 18.5 14t21.5 -5q11 -8 10.5 -20t-8.5 -21l-84 -89
q-5 -5 -10.5 -6t-10.5 3z" />
    <glyph glyph-name="ucircumflex" unicode="&#xfb;" horiz-adv-x="557" 
d="M557 283q1 2 6.5 2.5t11.5 0.5t10.5 -1t4.5 -2q-8 -21 -17 -50t-21 -60t-27.5 -62t-35 -55.5t-43.5 -40t-53 -15.5q-40 0 -64.5 18.5t-37.5 47.5t-17 63.5t-3 65.5q-12 -29 -27 -56.5t-33.5 -49t-41.5 -35t-50 -13.5q-36 0 -59 15.5t-37 40t-20 55.5t-6 62q0 22 2 48
t5 53.5t7 53.5t7 48q5 35 24.5 52.5t44.5 17.5q23 -1 38.5 -17t6.5 -58q-5 -26 -11.5 -57t-12.5 -63t-10.5 -63.5t-4.5 -57.5q0 -17 1.5 -34t6.5 -30.5t13.5 -21.5t22.5 -8q28 0 51.5 31t42.5 72.5t32.5 82t20.5 60.5l8 52q5 35 24.5 52.5t44.5 17.5q11 0 21 -3.5t17 -12.5
t9 -23.5t-2 -35.5q-5 -25 -11.5 -56t-12.5 -63.5t-10.5 -64t-4.5 -56.5q0 -17 1.5 -34t6.5 -30.5t13.5 -21.5t22.5 -8q18 0 35 14.5t31.5 37.5t27.5 52t23 56.5t17 50.5t12 36zM205 587q-10 -10 -21 -1q-10 10 -1 22l77 95q10 14 25 12.5t23 -15.5l65 -103q9 -12 -2 -21
q-12 -8 -21 3l-69 73z" />
    <glyph glyph-name="udieresis" unicode="&#xfc;" horiz-adv-x="557" 
d="M557 283q1 2 6.5 2.5t11.5 0.5t10.5 -1t4.5 -2q-8 -21 -17 -50t-21 -60t-27.5 -62t-35 -55.5t-43.5 -40t-53 -15.5q-40 0 -64.5 18.5t-37.5 47.5t-17 63.5t-3 65.5q-12 -29 -27 -56.5t-33.5 -49t-41.5 -35t-50 -13.5q-36 0 -59 15.5t-37 40t-20 55.5t-6 62q0 22 2 48
t5 53.5t7 53.5t7 48q5 35 24.5 52.5t44.5 17.5q23 -1 38.5 -17t6.5 -58q-5 -26 -11.5 -57t-12.5 -63t-10.5 -63.5t-4.5 -57.5q0 -17 1.5 -34t6.5 -30.5t13.5 -21.5t22.5 -8q28 0 51.5 31t42.5 72.5t32.5 82t20.5 60.5l8 52q5 35 24.5 52.5t44.5 17.5q11 0 21 -3.5t17 -12.5
t9 -23.5t-2 -35.5q-5 -25 -11.5 -56t-12.5 -63.5t-10.5 -64t-4.5 -56.5q0 -17 1.5 -34t6.5 -30.5t13.5 -21.5t22.5 -8q18 0 35 14.5t31.5 37.5t27.5 52t23 56.5t17 50.5t12 36zM191 593q-23 0 -39.5 16t-16.5 39t16.5 39t39.5 16t39 -16t16 -39t-16 -39t-39 -16zM368 572
q-23 0 -39 16t-16 39t16 39t39 16t39 -16t16 -39t-16 -39t-39 -16z" />
    <glyph glyph-name="yacute" unicode="&#xfd;" horiz-adv-x="525" 
d="M525 283q1 2 6 2.5t11 0.5t11 -1t4 -2q-26 -75 -75 -126.5t-109 -90.5q-6 -36 -15.5 -87.5t-24.5 -107.5t-37 -112t-51.5 -100.5t-68.5 -72t-88 -27.5q-31 0 -53.5 10.5t-38 29t-24 43t-10.5 52.5q-5 65 18.5 119t67.5 98q49 49 104 80t109 51q9 60 15.5 115.5
t11.5 101.5q-19 -42 -41 -82t-45.5 -71.5t-46.5 -50.5t-45 -19q-35 0 -57 19t-34.5 50t-16.5 70t-3.5 78.5t4.5 75.5t8 61q5 35 24.5 53t44.5 18q22 0 38 -16t8 -59q-3 -12 -8 -38.5t-10.5 -59.5t-8.5 -68t-2 -64.5t8 -48t24 -18.5q13 0 29.5 17t32 42t28.5 51t21 44
q17 37 32.5 75t24.5 73q5 26 17 36t27 10q35 -1 50.5 -27t13.5 -57q-3 -41 -9 -105.5t-17 -141.5q49 35 87.5 77.5t58.5 99.5zM79 -411q29 1 52.5 27t42 65.5t32.5 88t24 95t16.5 85.5t9.5 60q-47 -20 -93.5 -48t-92.5 -74q-40 -39 -61 -87t-16 -105q1 -19 6.5 -38.5
t15.5 -35t25.5 -25t38.5 -8.5zM208 576q-5 4 -5.5 10t2.5 11l66 103q7 11 18.5 14t21.5 -5q11 -8 10.5 -20t-8.5 -21l-84 -89q-5 -5 -10.5 -6t-10.5 3z" />
    <glyph glyph-name="ydieresis" unicode="&#xff;" horiz-adv-x="525" 
d="M525 283q1 2 6 2.5t11 0.5t11 -1t4 -2q-26 -75 -75 -126.5t-109 -90.5q-6 -36 -15.5 -87.5t-24.5 -107.5t-37 -112t-51.5 -100.5t-68.5 -72t-88 -27.5q-31 0 -53.5 10.5t-38 29t-24 43t-10.5 52.5q-5 65 18.5 119t67.5 98q49 49 104 80t109 51q9 60 15.5 115.5
t11.5 101.5q-19 -42 -41 -82t-45.5 -71.5t-46.5 -50.5t-45 -19q-35 0 -57 19t-34.5 50t-16.5 70t-3.5 78.5t4.5 75.5t8 61q5 35 24.5 53t44.5 18q22 0 38 -16t8 -59q-3 -12 -8 -38.5t-10.5 -59.5t-8.5 -68t-2 -64.5t8 -48t24 -18.5q13 0 29.5 17t32 42t28.5 51t21 44
q17 37 32.5 75t24.5 73q5 26 17 36t27 10q35 -1 50.5 -27t13.5 -57q-3 -41 -9 -105.5t-17 -141.5q49 35 87.5 77.5t58.5 99.5zM79 -411q29 1 52.5 27t42 65.5t32.5 88t24 95t16.5 85.5t9.5 60q-47 -20 -93.5 -48t-92.5 -74q-40 -39 -61 -87t-16 -105q1 -19 6.5 -38.5
t15.5 -35t25.5 -25t38.5 -8.5zM175 593q-23 0 -39.5 16t-16.5 39t16.5 39t39.5 16t39 -16t16 -39t-16 -39t-39 -16zM352 572q-23 0 -39 16t-16 39t16 39t39 16t39 -16t16 -39t-16 -39t-39 -16z" />
    <glyph glyph-name="Lslash" unicode="&#x141;" horiz-adv-x="490" 
d="M363 338q11 -1 16.5 -7.5t5.5 -14.5t-5.5 -15t-15.5 -7l-130 -6q-11 -75 -26.5 -150t-43.5 -133q38 0 82 -7t88.5 -15.5t86 -16t74.5 -7.5q29 0 53.5 8.5t50.5 22.5q5 3 10 1.5t8 -5t3.5 -9t-3.5 -9.5q-28 -34 -55.5 -54t-53.5 -27q-35 -9 -85 -4t-103.5 14.5t-105 19.5
t-88.5 11q-29 0 -54 -6t-51 -21q-5 -3 -10 -1.5t-8 5.5t-3.5 8.5t3.5 9.5q32 38 62 55q27 64 41 144t23 161l-64 -3q-17 -1 -30 8t-13 26q0 16 13 25t30 8l71 -2q4 32 7 62t8 58q-29 7 -61.5 20t-53.5 34q-5 5 -4 10.5t4.5 9t9.5 4t12 -4.5q17 -17 45.5 -28t51.5 -17
q8 50 19 104t26.5 106.5t37 99.5t49 82.5t62.5 56.5t79 21q31 0 53.5 -14.5t36.5 -37t21.5 -50t8.5 -54.5q1 -59 -20 -122t-60 -115.5t-93 -86t-119 -33.5q-4 -24 -7.5 -51.5t-7.5 -56.5zM433 933q-28 0 -50.5 -28t-40.5 -71.5t-31.5 -96t-23.5 -102.5t-16.5 -91t-9.5 -61
q57 1 104 32t80.5 78t52 103.5t17.5 107.5q0 18 -5 40t-14.5 41.5t-25 33.5t-37.5 14z" />
    <glyph glyph-name="lslash" unicode="&#x142;" horiz-adv-x="296" 
d="M261 432q11 -1 16.5 -7.5t5.5 -14.5t-5.5 -15t-15.5 -7l-140 -7l-5 -31q-2 -10 -7 -37.5t-10 -62.5t-8 -72.5t-0.5 -69t12 -52t30.5 -20.5q18 0 36 14t34 37t30.5 51t26.5 55.5t21 51.5t14 38q1 2 6 2.5t11 0.5t11 -1t4 -2q-7 -21 -17.5 -50t-24.5 -60t-31 -62
t-38.5 -55.5t-46.5 -40t-54 -15.5q-41 0 -66 19.5t-38 51t-16 71.5t-1 80.5t7.5 77.5t9.5 63q0 5 2 13l-51 -2q-17 -1 -30 8t-13 26q0 16 13 25t30 8l62 -2q8 46 21 102.5t31 115t41 113.5t52 97.5t63.5 69t75.5 26.5q30 0 51.5 -14t35 -36.5t19.5 -49.5t6 -53
q0 -56 -21.5 -115t-59 -107.5t-89 -80t-111.5 -32.5q-2 -11 -4 -20.5t-4 -18.5zM317 931q-24 0 -45 -26.5t-38.5 -67.5t-32 -91.5t-26 -97.5t-19 -85.5t-10.5 -56.5q52 3 97 32t77.5 73t51 96.5t18.5 100.5q0 16 -3.5 37t-12 40t-22.5 32.5t-35 13.5z" />
    <glyph glyph-name="OE" unicode="&#x152;" horiz-adv-x="1204" 
d="M839 -116q-41 1 -76.5 15t-64.5 38.5t-49.5 58t-30.5 73.5q-26 -39 -57 -71.5t-67.5 -56t-78.5 -36.5t-90 -13q-51 0 -91.5 18.5t-70.5 50t-49.5 73.5t-28.5 90q-25 22 -42 52t-27 65t-13.5 73t-1.5 76q2 58 17 123t41.5 128t64 121t85.5 102t105.5 70.5t124.5 26.5
q54 0 97 -16t76.5 -44.5t58.5 -66.5t42 -81l10 1q13 65 47.5 109.5t79 69.5t92.5 32t88 -2t65.5 -34t24.5 -64q0 -25 -12 -44.5t-30 -33.5t-40 -23.5t-43 -13.5q-43 -10 -86.5 -13t-88.5 -5q-5 -42 -0.5 -86t20 -80.5t42 -61.5t65.5 -29q7 -1 10 -8t3 -15.5t-3.5 -15
t-10.5 -6.5q-56 -3 -98 -29t-71 -66.5t-44.5 -90.5t-18.5 -101q-2 -38 5 -75.5t24 -67.5t46.5 -49t73.5 -20q42 -1 80.5 15t72.5 44t63.5 64.5t53 76t41.5 79t30 73.5q1 2 6 2.5t10.5 0.5t10 -1t3.5 -2q-13 -42 -33.5 -88t-47.5 -90.5t-61 -85t-73.5 -71t-84.5 -48
t-95 -16.5zM674 542q0 38 -4 81.5t-14 87t-27.5 83t-44 70.5t-63 49t-84.5 19q-62 0 -115.5 -25.5t-98 -68t-79.5 -98.5t-59.5 -116.5t-39 -121t-16.5 -113.5q-2 -58 8.5 -116t41.5 -100q-5 59 5 130.5t29 143.5t45 139.5t53 117.5q6 11 18.5 15.5t25.5 4.5q12 0 23.5 -6
t18.5 -15.5t9 -21t-5 -23.5q-30 -54 -55 -122t-42 -141t-24 -146t-2 -136q27 -6 62 -1q8 1 12.5 -3.5t5 -9.5t-3 -10t-10.5 -6q-34 -3 -62 0q4 -32 14 -61t26.5 -51.5t41 -36t59.5 -13.5q52 0 98 26.5t84.5 72t69.5 106t52.5 129.5t33.5 142.5t13 144.5zM1090 864
q0 20 -16 35.5t-41 22.5t-56 3t-60.5 -22.5t-54 -53t-36.5 -89.5q42 2 83 5.5t80 12.5q15 3 32.5 10.5t32.5 18.5t25 25t11 32zM752 531q0 -66 -12 -141q56 41 128 59q-76 32 -117 106q1 -6 1 -12v-12z" />
    <glyph glyph-name="oe" unicode="&#x153;" horiz-adv-x="686" 
d="M686 283q1 2 6 2.5t11 0.5t11 -1t4 -2q-16 -45 -39.5 -92t-56.5 -85.5t-77 -62.5t-101 -24q-54 0 -88.5 27.5t-51.5 71.5q-24 -44 -62.5 -72t-92.5 -28q-63 0 -101 31.5t-52.5 79t-7 103t33.5 103t69.5 79t102.5 31.5q50 0 81.5 -27.5t47.5 -69.5q13 26 30 49t38 40.5
t46.5 27.5t55.5 10q29 0 52 -10.5t35.5 -28t12.5 -41t-16 -49.5q-13 -21 -33.5 -38t-44.5 -28.5t-50 -16.5t-50 -1q-3 -17 -5 -34t-1 -33q0 -27 5 -50.5t16.5 -41t29 -28t42.5 -10.5q36 0 68 22.5t57.5 56t44.5 71.5t30 68zM290 263q1 20 -2 45.5t-12 48.5t-25 39t-41 17
q-29 1 -54 -29.5t-42 -75.5t-24 -96.5t1 -91.5q12 22 34 36.5t48.5 22t54.5 9.5t51 -1q11 39 11 76zM518 440q-24 1 -42.5 -15.5t-32.5 -40.5t-23.5 -50t-13.5 -44q19 -3 40 1.5t40.5 13.5t36 22.5t27.5 29.5q9 13 12 27.5t-0.5 26.5t-14.5 20t-29 9zM153 50q42 0 71.5 32
t46.5 78q-21 2 -47.5 0t-50.5 -10.5t-40.5 -25t-16.5 -43.5q0 -15 11.5 -23t25.5 -8z" />
    <glyph glyph-name="Scaron" unicode="&#x160;" horiz-adv-x="755" 
d="M802 832q8 -27 2.5 -52.5t-25.5 -45.5q-3 -2 -7 -0.5t-7 5.5t-4 8.5t2 7.5q11 11 17 25t1 29q-11 41 -41.5 65.5t-69.5 37.5t-81.5 17t-77.5 4q-33 0 -77.5 -5t-91 -15.5t-92 -28.5t-81.5 -43.5t-57.5 -60.5t-21.5 -80q0 -41 25.5 -70.5t66.5 -52.5t93 -42.5t106 -40.5
t105.5 -46.5t90.5 -61t62 -83t20 -112.5q-3 -60 -39 -110t-93.5 -86t-132 -56.5t-154.5 -21.5q-44 0 -82 8t-67 25.5t-46 45.5t-17 67q0 33 14 62.5t38 52t55 35t63 12.5q28 0 51 -11.5t37 -35.5q2 -3 -0.5 -6.5t-7 -6t-9.5 -2.5t-7 4q-8 14 -19.5 23.5t-28.5 9.5
q-28 0 -55 -14t-48.5 -35.5t-35 -49t-13.5 -55.5q-1 -26 12.5 -45t37.5 -31.5t56 -18.5t68 -6q55 0 112.5 16t104 47t77 78t33.5 109q2 43 -21 75.5t-62.5 58.5t-90.5 48t-104.5 44t-105 46.5t-91.5 55.5t-64.5 71.5t-23.5 93.5q1 52 30 93.5t75.5 73t105 54t117.5 37
t113.5 21t93.5 6.5t81 -5t79.5 -20.5t66 -43t40.5 -72.5zM450 1176q10 10 21 1q10 -10 1 -22l-77 -95q-10 -14 -25 -12.5t-23 15.5l-65 103q-9 12 2 21q12 8 21 -3l69 -73z" />
    <glyph glyph-name="scaron" unicode="&#x161;" horiz-adv-x="309" 
d="M309 283q1 2 7 3t12 1t10.5 -1.5t3.5 -2.5q-24 -40 -58 -63.5t-70 -40.5q13 -23 18 -46t-2 -49q-7 -27 -25 -48t-42 -35.5t-52 -22.5t-55 -8q-45 -1 -72 19.5t-27 51.5q0 26 15.5 46t38 35t48.5 25.5t46 17.5q-19 24 -41.5 45.5t-42.5 45t-34 50.5t-16 62q-2 25 7.5 47.5
t26 39t39 26t47.5 9.5q42 0 69 -29q4 -5 3 -9.5t-5 -7.5t-9.5 -4t-9.5 2q-18 13 -38 13q-25 0 -42.5 -16t-17.5 -40q0 -23 17 -46t41 -47t51.5 -49.5t48.5 -53.5q29 13 58 31.5t52 48.5zM128 59q8 24 5.5 44t-12.5 37q-15 -5 -37.5 -14t-43.5 -21t-36.5 -28t-15.5 -35
q0 -17 15 -29t41 -12q26 1 50.5 15t33.5 43zM215 686q10 10 21 1q10 -10 1 -22l-77 -95q-10 -14 -25 -12.5t-23 15.5l-65 103q-9 12 2 21q12 8 21 -3l69 -73z" />
    <glyph glyph-name="Ydieresis" unicode="&#x178;" horiz-adv-x="857" 
d="M857 283q1 2 6 2.5t11 0.5t10.5 -1t4.5 -2q-26 -75 -75 -126.5t-109 -90.5q-6 -36 -15 -87.5t-24 -108t-36.5 -112t-51.5 -100t-69 -72t-89 -27.5q-31 0 -53.5 10.5t-38.5 28.5t-24.5 43t-10.5 53q-5 67 20 121.5t68.5 97.5t98.5 75t110 53q12 82 20.5 166t14.5 164
q-15 -58 -37 -115t-52.5 -103t-71 -74.5t-93.5 -28.5q-39 0 -64.5 14.5t-40.5 38.5t-21.5 54.5t-7.5 62.5q0 40 8 95t18.5 115t19 121t8.5 113q0 19 -2.5 45t-11 49.5t-24 40t-41.5 16.5q-32 0 -63 -19t-55 -48t-39.5 -66t-15.5 -73q0 -25 7 -47.5t24 -42.5q11 -12 26 -15.5
t31 -0.5q4 1 7.5 -3t4.5 -8.5t0 -9t-5 -4.5q-28 -5 -52 5.5t-43 31.5q-21 25 -30.5 53.5t-8.5 57.5q0 40 17.5 79t46.5 70t68 50.5t83 19.5q46 0 79 -20t54 -52.5t31 -72.5t10 -79q0 -53 -8.5 -109.5t-18 -112t-17.5 -106.5t-8 -92q0 -14 0.5 -34t5.5 -38.5t15.5 -32
t30.5 -13.5q19 -1 39.5 10t37.5 25q37 32 64.5 85t47.5 113t33 118.5t22 100.5q5 19 15 37t33 17q17 0 29.5 -7t20 -19t11 -27t2.5 -31q-3 -88 -11 -191t-22 -208q49 35 87 77.5t59 99.5zM409 -411q30 0 54 25.5t42.5 65.5t32 88.5t23 95t15.5 85.5t9 60q-48 -20 -96 -50
t-86.5 -69t-61 -87.5t-17.5 -106.5q1 -18 6.5 -37.5t15.5 -35t25.5 -25t37.5 -9.5zM480 872q-23 0 -39.5 16t-16.5 39t16.5 39t39.5 16t39 -16t16 -39t-16 -39t-39 -16zM657 851q-23 0 -39 16t-16 39t16 39t39 16t39 -16t16 -39t-16 -39t-39 -16z" />
    <glyph glyph-name="Zcaron" unicode="&#x17d;" horiz-adv-x="700" 
d="M674 611q-3 -62 -26.5 -118.5t-61.5 -106.5t-85.5 -93t-98.5 -77q46 -9 82.5 -33t61 -58.5t37.5 -76.5t12 -87q-1 -48 -17 -92t-43.5 -82t-64.5 -69t-79.5 -53t-88.5 -34t-92 -11q-45 0 -83 11.5t-66.5 34.5t-44.5 57t-16 80q0 39 13 78.5t37.5 70.5t59 50.5t77.5 19.5
q29 0 52 -12t37 -36q1 -3 -1.5 -6.5t-7 -5.5t-9 -2t-6.5 4q-8 13 -20 22.5t-28 9.5q-38 0 -68 -19t-51 -48.5t-33 -66t-12 -71.5q-2 -130 128 -130q71 1 131.5 30t104 78t67.5 112.5t24 133.5q0 33 -6.5 61.5t-24 49.5t-49 32t-81.5 10q-9 0 -18 5.5t-13.5 14.5t-3 19
t12.5 18q47 33 93.5 81t84 104t61 117t25.5 121q1 39 -10 71t-32.5 55t-52.5 36t-69 13q-37 0 -78 -15t-80.5 -41t-75 -60.5t-62 -73t-41.5 -78.5t-13 -76q1 -23 11.5 -41.5t36.5 -24.5q4 -1 5.5 -5.5t0.5 -9.5t-4 -8.5t-6 -2.5q-42 11 -58 40t-16 64q0 49 18 96.5
t48.5 89.5t71.5 77t87.5 60t96 37.5t97.5 10.5q55 -2 98 -23.5t71.5 -56t42 -79t11.5 -92.5zM515 1076q10 10 21 1q10 -10 1 -22l-77 -95q-10 -14 -25 -12.5t-23 15.5l-65 103q-9 12 2 21q12 8 21 -3l69 -73z" />
    <glyph glyph-name="zcaron" unicode="&#x17e;" horiz-adv-x="464" 
d="M464 283q1 2 6 2.5t11 0.5t10.5 -1t4.5 -2q-16 -44 -39 -73t-52.5 -50t-63.5 -37.5t-71 -36.5q21 -24 31.5 -53t12.5 -60t-3.5 -62t-15.5 -60q-16 -47 -43.5 -91.5t-64 -79t-80 -55.5t-91.5 -22q-31 0 -53.5 12t-37.5 32t-22 45.5t-7 53.5q0 61 29 114t74 96.5t99.5 76
t105.5 52.5l-6 10t-8 10q-7 -2 -23.5 -5t-33.5 -3q-23 0 -34 8.5t-12 18t8.5 18t28.5 8.5q21 0 39 -5q19 11 33.5 30t24 42t15 49.5t5.5 52.5q0 27 -5 52.5t-15.5 44.5t-27 30.5t-38.5 11.5q-26 0 -50 -24q-15 -14 -26 -33.5t-19.5 -40.5t-15 -41.5t-11.5 -35.5
q0 -2 -5.5 -2.5t-11.5 -0.5t-11 1t-5 2q8 23 16 47.5t17.5 47.5t22.5 44t30 37q21 20 45 29t49 9q40 0 69 -13.5t47.5 -37t27.5 -53.5t10 -63q0 -32 -6.5 -63.5t-20 -60t-32 -51.5t-42.5 -36l16 -12q36 20 68.5 35.5t60.5 34.5t50 43.5t36 62.5zM194 -143q6 21 11.5 46.5
t9 52.5t3.5 53.5t-5 49.5q-46 -20 -96.5 -50.5t-93 -71t-69.5 -89.5t-27 -105q0 -18 5.5 -37t16 -35t26.5 -26t37 -10q34 0 62 19t51 50.5t40 71.5t29 81zM305 705q10 10 21 1q10 -10 1 -22l-77 -95q-10 -14 -25 -12.5t-23 15.5l-65 103q-9 12 2 21q12 8 21 -3l69 -73z" />
    <glyph glyph-name="florin" unicode="&#x192;" horiz-adv-x="298" 
d="M331 283q-12 -28 -32.5 -53.5t-47.5 -46.5t-58 -37t-63 -25q45 -25 77 -68.5t49 -95.5t19 -106.5t-11 -101.5q-6 -21 -16 -41.5t-25 -37t-34 -27.5t-43 -11q-53 -1 -87 30.5t-53 84.5t-25.5 123t-5 146t10 153t19 145t21 121.5t16.5 82.5q7 30 29 51t56 12q17 -5 26 -22
t0 -53q-6 -21 -14 -58.5t-17 -86t-18.5 -105t-16.5 -116.5q31 4 63 17t60.5 32.5t51 43.5t36.5 50q5 4 18 3.5t15 -3.5zM235 -240q13 46 9.5 100t-23 104t-54.5 89t-84 55q-2 -16 -6.5 -56t-7.5 -89.5t-2.5 -103t8 -97.5t24.5 -72t48 -27q18 0 32.5 9.5t25.5 23.5t18.5 31
t11.5 33z" />
    <glyph glyph-name="circumflex" unicode="&#x2c6;" 
d="M194 587q-10 -10 -21 -1q-10 10 -1 22l77 95q10 14 25 12.5t23 -15.5l65 -103q9 -12 -2 -21q-12 -8 -21 3l-69 73l-76 -65v0z" />
    <glyph glyph-name="caron" unicode="&#x2c7;" horiz-adv-x="570" 
d="M358 705q10 10 21 1q10 -10 1 -22l-77 -95q-10 -14 -25 -12.5t-23 15.5l-65 103q-9 12 2 21q12 8 21 -3l69 -73l76 65v0z" />
    <glyph glyph-name="ring" unicode="&#x2da;" 
d="M255 553q-32 0 -53 23.5t-19 56.5q1 16 8 31t18.5 25.5t25.5 17t30 6.5q32 0 53.5 -23.5t19.5 -56.5t-26.5 -56.5t-56.5 -23.5zM208 633q-2 -23 12.5 -38.5t36.5 -15.5t38 15.5t18 38.5t-12.5 38.5t-36.5 15.5t-38 -15.5t-18 -38.5z" />
    <glyph glyph-name="tilde" unicode="&#x2dc;" 
d="M174 613q-6 -4 -12.5 -2.5t-11 6t-4.5 11.5t7 14q20 18 42 23t44.5 2t45 -10.5t42 -13.5t36 -7.5t27.5 8.5q6 6 12 5t10 -5.5t4 -11.5t-4 -14q-13 -21 -32.5 -27t-41.5 -4t-46 9.5t-46 14t-41 8.5t-31 -6z" />
    <glyph glyph-name="hungarumlaut" unicode="&#x2dd;" horiz-adv-x="162" 
d="M136 957q11 -6 13.5 -18t-4.5 -23l-67 -102q-9 -12 -20 -6q-12 6 -7 20l47 113q5 12 16 17t22 -1zM244 957q11 -6 13.5 -18t-4.5 -23l-67 -102q-9 -12 -20 -6q-12 6 -7 20l47 113q5 12 16 17t22 -1z" />
    <glyph glyph-name="endash" unicode="&#x2013;" horiz-adv-x="473" 
d="M381 338q11 -1 16.5 -7.5t5.5 -14.5t-5.5 -15t-15.5 -7l-299 -14q-17 -1 -30 8t-13 26q0 16 13 25t30 8l298 -9v0z" />
    <glyph glyph-name="emdash" unicode="&#x2014;" horiz-adv-x="586" 
d="M478 332q11 -1 16.5 -7.5t5.5 -14.5t-5.5 -15t-15.5 -7l-396 -8q-17 -1 -30 8t-13 26q0 16 13 25t30 8l395 -15v0z" />
    <glyph glyph-name="quoteleft" unicode="&#x2018;" horiz-adv-x="78" 
d="M16 957q11 6 22 1t16 -17l47 -113q5 -14 -7 -20q-11 -6 -20 6l-67 102q-7 11 -4.5 23t13.5 18z" />
    <glyph glyph-name="quoteright" unicode="&#x2019;" horiz-adv-x="30" 
d="M86 957q11 -6 13.5 -18t-4.5 -23l-67 -102q-9 -12 -20 -6q-12 6 -7 20l47 113q5 12 16 17t22 -1z" />
    <glyph glyph-name="quotesinglbase" unicode="&#x201a;" horiz-adv-x="219" 
d="M111 135q23 -3 36 -20.5t9 -39.5q-5 -31 -27.5 -55t-54.5 -27q-6 -1 -8 3.5t-2 9.5t2 10t6 6q12 1 23 8q-22 3 -35 20.5t-9 40.5q3 22 20.5 35t39.5 9z" />
    <glyph glyph-name="quotedblleft" unicode="&#x201c;" horiz-adv-x="176" 
d="M124 957q11 6 22 1t16 -17l47 -113q5 -14 -7 -20q-11 -6 -20 6l-67 102q-7 11 -4.5 23t13.5 18zM16 957q11 6 22 1t16 -17l47 -113q5 -14 -7 -20q-11 -6 -20 6l-67 102q-7 11 -4.5 23t13.5 18z" />
    <glyph glyph-name="quotedblright" unicode="&#x201d;" horiz-adv-x="132" 
d="M86 957q11 -6 13.5 -18t-4.5 -23l-67 -102q-9 -12 -20 -6q-12 6 -7 20l47 113q5 12 16 17t22 -1zM194 957q11 -6 13.5 -18t-4.5 -23l-67 -102q-9 -12 -20 -6q-12 6 -7 20l47 113q5 12 16 17t22 -1z" />
    <glyph glyph-name="quotedblbase" unicode="&#x201e;" horiz-adv-x="384" 
d="M111 135q23 -3 36 -20.5t9 -39.5q-5 -31 -27.5 -55t-54.5 -27q-6 -1 -8 3.5t-2 9.5t2 10t6 6q12 1 23 8q-22 3 -35 20.5t-9 40.5q3 22 20.5 35t39.5 9zM262 135q23 -3 36 -20.5t9 -39.5q-5 -31 -27.5 -55t-54.5 -27q-6 -1 -8 3.5t-2 9.5t2 10t6 6q12 1 23 8
q-22 3 -35 20.5t-9 40.5q3 22 20.5 35t39.5 9z" />
    <glyph glyph-name="dagger" unicode="&#x2020;" horiz-adv-x="338" 
d="M303 573q11 -1 16.5 -7.5t5.5 -14.5t-5.5 -15t-15.5 -7l-80 -5q-5 -75 -10 -151.5t-9 -143t-7.5 -117t-6.5 -74.5q-4 -30 -19.5 -45.5t-34.5 -15.5q-17 0 -28 14t-8 46q2 20 4 69t4.5 115t5.5 143.5t6 154.5l-67 -4q-17 -1 -30 8t-13 26q0 16 13 25t30 8l69 -3
q2 51 4 98.5t4 86.5t4 68t4 44q4 36 24.5 53.5t46.5 17.5q11 0 21.5 -4t17.5 -13t9 -23.5t-2 -36.5q-3 -16 -6.5 -45t-7.5 -68t-7.5 -85t-7.5 -97l76 -2v0z" />
    <glyph glyph-name="daggerdbl" unicode="&#x2021;" horiz-adv-x="340" 
d="M40 515q-11 1 -16 7.5t-5 14.5t5 15t16 7l85 5q2 54 4 103.5t4 90.5t4 71.5t4 46.5q4 36 24.5 53.5t46.5 17.5q11 0 21.5 -4t17.5 -13t9 -23.5t-2 -36.5q-3 -16 -7 -46t-7.5 -69.5t-7.5 -87t-7 -98.5l61 4q17 1 30 -8t13 -26q0 -16 -13 -25t-30 -8l-65 2q-2 -29 -4 -57.5
t-4 -57.5l88 -3q11 -1 16.5 -7.5t5.5 -14.5t-5.5 -15t-15.5 -7l-92 -5q-3 -51 -6.5 -99t-6 -87.5t-5 -70t-3.5 -46.5q-4 -30 -19.5 -45.5t-34.5 -15.5q-17 0 -28 14t-8 46q1 14 2.5 42.5t3 68t3.5 87.5t4 100l-60 -3q-17 -1 -30 8t-13 26q0 16 13 25t30 8l63 -3q1 29 1.5 58
t2.5 58l-83 3v0z" />
    <glyph glyph-name="bullet" unicode="&#x2022;" horiz-adv-x="368" 
d="M162 221q-29 0 -50.5 20.5t-21.5 50.5q0 14 6 27t15.5 22.5t22.5 15.5t28 6q30 0 50.5 -21t20.5 -50q0 -30 -20.5 -50.5t-50.5 -20.5z" />
    <glyph glyph-name="ellipsis" unicode="&#x2026;" horiz-adv-x="753" 
d="M129 120q23 -2 38 -19t13 -40t-19 -38.5t-40 -13.5t-38 19t-13 40t19 38.5t40 13.5zM380 120q23 -2 38 -19t13 -40t-19 -38.5t-40 -13.5t-38 19t-13 40t19 38.5t40 13.5zM631 120q23 -2 38 -19t13 -40t-19 -38.5t-40 -13.5t-38 19t-13 40t19 38.5t40 13.5z" />
    <glyph glyph-name="perthousand" unicode="&#x2030;" horiz-adv-x="754" 
d="M412 941q22 -5 34 -23.5t-4 -58.5q-11 -26 -33 -85.5t-50.5 -137t-59 -163.5t-58 -164t-48.5 -138.5t-29 -87.5q-9 -28 -27.5 -39.5t-35.5 -8.5t-21.5 18t5.5 46q5 17 17.5 55.5t29 91.5t37 115.5t41.5 127.5t41.5 128.5t37.5 116.5t30 93t19 58q11 34 30.5 47.5
t43.5 8.5zM411 235q35 -5 55.5 -33t14.5 -63q-3 -17 -11.5 -31.5t-21.5 -24t-29.5 -14t-33.5 -1.5t-31.5 12t-24 22t-13.5 29.5t-1 33.5q5 35 33 55t63 15zM440 144q3 26 -7 46t-27 24q-17 3 -31.5 -12.5t-18.5 -41.5q-3 -26 7 -46.5t27 -23.5q17 -4 31.5 12t18.5 42z
M168 821q-3 -17 -12 -31t-22 -23.5t-29.5 -14t-33.5 -1.5q-35 5 -55 33t-15 63q3 17 11.5 31.5t21.5 24t29.5 14t33.5 1.5q18 -3 32 -12t23.5 -22t14 -29.5t1.5 -33.5zM76 772q17 -3 32 12.5t18 41.5q4 26 -6 46.5t-27 23.5q-17 4 -32 -12t-18 -42q-4 -26 6 -46t27 -24z
M609 235q35 -5 55.5 -33t14.5 -63q-3 -17 -11.5 -31.5t-21.5 -24t-29.5 -14t-33.5 -1.5t-31.5 12t-24 22t-13.5 29.5t-1 33.5q5 35 33 55t63 15zM638 144q3 26 -7 46t-27 24q-17 3 -31.5 -12.5t-18.5 -41.5q-3 -26 7 -46.5t27 -23.5q17 -4 31.5 12t18.5 42z" />
    <glyph glyph-name="guilsinglleft" unicode="&#x2039;" horiz-adv-x="441" 
d="M379 623q11 -14 7 -30.5t-19 -28.5l-243 -194l194 -168q14 -11 13.5 -29t-14.5 -30t-30 -8.5t-28 17.5l-183 206q-10 11 -5 19t13 16l236 228q13 13 30.5 14.5t28.5 -12.5z" />
    <glyph glyph-name="guilsinglright" unicode="&#x203a;" horiz-adv-x="446" 
d="M372 411q9 -11 4 -19t-13 -16l-236 -227q-13 -14 -30.5 -15.5t-28.5 12.5t-6.5 30.5t18.5 28.5l243 194l-194 168q-14 11 -13.5 29t14.5 30t30 8.5t28 -17.5l184 -206v0z" />
    <glyph glyph-name="fraction" unicode="&#x2044;" horiz-adv-x="281" 
d="M247 961q23 0 38.5 -16t7.5 -59q-4 -20 -11.5 -61.5t-16 -96t-19 -118.5t-20.5 -130t-19.5 -130.5t-17.5 -119.5t-13.5 -96.5t-7.5 -62.5q-3 -29 -18.5 -44t-33.5 -15q-17 0 -28 13.5t-7 45.5l6.5 58.5t11 95.5t14.5 120.5t16 133t16 133.5t14.5 121.5t11.5 97t7 60.5
q5 35 25 52.5t44 17.5z" />
    <glyph glyph-name="Euro" unicode="&#x20ac;" horiz-adv-x="735" 
d="M101 436q-9 1 -14 7t-5 13.5t5 13.5t14 6l69 4q16 84 47 163.5t74.5 141t98 99.5t119.5 39q33 0 60.5 -12t45.5 -35t25 -56.5t-2 -76.5q-6 -30 -20 -58.5t-34.5 -50t-47.5 -34t-60 -12.5q-26 0 -46.5 10.5t-32.5 32.5q-2 3 0.5 6t6.5 5t8 2t6 -4q7 -12 18 -20t25 -8
q28 0 51 11.5t41 31t30.5 45t18.5 52.5q14 63 -5.5 99.5t-60.5 37.5q-49 1 -90.5 -32.5t-75 -90t-58 -129.5t-39.5 -151l51 3q16 1 27.5 -7.5t11.5 -23.5q0 -14 -12 -22.5t-27 -7.5l-61 2q-4 -26 -6 -52l-4 -52l85 -3q9 -1 14 -7t5 -13.5t-4.5 -13.5t-13.5 -6l-88 -5
q0 -57 7.5 -107.5t22.5 -88t38.5 -59t55.5 -22.5q39 -1 72.5 16.5t62 46t52 65.5t42 76.5t33 78.5t24.5 71q0 1 4 2t9 1t9 -1t3 -2q-17 -57 -44 -123.5t-66 -124.5t-91 -96.5t-119 -38.5q-52 0 -90 23t-64 64t-40 96t-17 118l-39 -2q-16 -1 -27.5 7.5t-11.5 22.5t12 22.5
t27 7.5l38 -1q1 26 2.5 51.5t6.5 51.5l-62 3v0z" />
    <glyph glyph-name="minus" unicode="&#x2212;" horiz-adv-x="457" 
d="M332 338q11 -1 16.5 -7.5t5.5 -14.5t-5.5 -15t-15.5 -7l-250 -14q-17 -1 -30 8t-13 26q0 16 13 25t30 8l249 -9v0z" />
    <glyph glyph-name="fi" unicode="&#xfb01;" horiz-adv-x="583" 
d="M583 283q1 2 6.5 2.5t11.5 0.5t10.5 -1t4.5 -2q-7 -21 -17 -49.5t-22.5 -59.5t-28.5 -61t-36.5 -54t-45 -39t-53.5 -15q-36 0 -59 15t-37 40t-20 56t-6 62q-1 23 1 49.5t6 54.5q-17 -26 -37 -52.5t-42 -48.5t-44.5 -38t-44.5 -22q45 -25 77 -68.5t49 -95.5t19 -106.5
t-11 -101.5q-6 -21 -16 -41.5t-25 -37t-34 -27.5t-43 -11q-53 -1 -87 30.5t-53 84.5t-25.5 123t-5 146t10 153t19 145t21 121.5t16.5 82.5q7 30 29 51t56 12q17 -5 26 -22t0 -53q-6 -21 -14 -58.5t-17 -86t-18.5 -105t-16.5 -116.5q31 4 65.5 31.5t65 63.5t55.5 74t39 64
q6 35 25 51.5t44 15.5q11 0 21 -3.5t17 -11.5t9 -22t-2 -35q-5 -26 -11.5 -56t-12.5 -60.5t-10.5 -61t-4.5 -55.5q0 -18 1.5 -34.5t6.5 -30t13.5 -21.5t22.5 -8q16 -1 36 15t36 41q14 22 26.5 49t23 53.5t18.5 49t12 34.5zM235 -240q13 46 9.5 100t-23 104t-54.5 89t-84 55
q-2 -16 -6.5 -56t-7.5 -89.5t-2.5 -103t8 -97.5t24.5 -72t48 -27q18 0 32.5 9.5t25.5 23.5t18.5 31t11.5 33zM383 473q-24 7 -35 29.5t-3 48.5t30 38.5t46 5.5q23 -8 34.5 -30t3.5 -48t-30.5 -38.5t-45.5 -5.5z" />
    <glyph glyph-name="fl" unicode="&#xfb02;" horiz-adv-x="594" 
d="M594 283q1 2 6 2.5t11 0.5t11 -1t4 -2q-7 -21 -17.5 -50t-24.5 -60t-31 -62t-38.5 -55.5t-46.5 -40t-54 -15.5q-49 0 -75 26.5t-37.5 68t-10.5 90.5t6 94q-16 -24 -35 -48t-40.5 -45t-44.5 -38t-47 -27q45 -25 77 -68.5t49 -95.5t19 -106.5t-11 -101.5q-6 -21 -16 -41.5
t-25 -37t-34 -27.5t-43 -11q-53 -1 -87 30.5t-53 84.5t-25.5 123t-5 146t10 153t19 145t21 121.5t16.5 82.5q7 30 29 51t56 12q17 -5 26 -22t0 -53q-6 -21 -14 -58.5t-17 -86t-18.5 -105t-16.5 -116.5q31 4 65 30.5t64.5 61.5t55 72t38.5 63q6 36 17 94.5t28 124.5t41 133
t55 121.5t70 88.5t86 34q30 0 51.5 -14t35 -36.5t19.5 -49.5t6 -53q0 -56 -21.5 -115t-59 -107.5t-89 -80t-111.5 -32.5q-8 -42 -14 -74.5t-9 -50.5q-2 -10 -7 -37.5t-10 -62.5t-8 -72.5t-0.5 -69t12 -52t30.5 -20.5q18 0 36 14t34 37t30.5 51t26.5 55.5t21 51.5t14 38z
M615 931q-24 0 -45 -26.5t-38.5 -67.5t-32 -91.5t-26 -97.5t-19 -85.5t-10.5 -56.5q52 3 97 32t77.5 73t51 96.5t18.5 100.5q0 16 -3.5 37t-12 40t-22.5 32.5t-35 13.5zM235 -240q13 46 9.5 100t-23 104t-54.5 89t-84 55q-2 -16 -6.5 -56t-7.5 -89.5t-2.5 -103t8 -97.5
t24.5 -72t48 -27q18 0 32.5 9.5t25.5 23.5t18.5 31t11.5 33z" />
    </font>
</defs>
</svg>
