<?xml version="1.0" standalone="no"?>
<!DOCTYPE svg PUBLIC "-//W3C//DTD SVG 1.1//EN" "http://www.w3.org/Graphics/SVG/1.1/DTD/svg11.dtd" >
<svg xmlns="http://www.w3.org/2000/svg" xmlns:xlink="http://www.w3.org/1999/xlink" version="1.1">
<metadata>
Created by FontForge 20170731 at Wed Jan  4 12:13:46 2023
 By Aleksey,,,
Copyright (c) 2015 by Seniors Studio. All rights reserved.
</metadata>
<defs>
<font id="BlingtasticScript" horiz-adv-x="1806" >
  <font-face 
    font-family="Blingtastic Script"
    font-weight="400"
    font-stretch="normal"
    units-per-em="2048"
    panose-1="2 0 5 3 0 0 0 2 0 2"
    ascent="1638"
    descent="-410"
    x-height="705"
    cap-height="1348"
    bbox="-1085.02 -856.054 2685 1784"
    underline-thickness="102"
    underline-position="-307"
    unicode-range="U+0020-E03D"
  />
<missing-glyph horiz-adv-x="368" 
 />
    <glyph glyph-name="r_r" unicode="rr" horiz-adv-x="1251" 
d="M1311 604l32 -22q-359 -699 -491 -697q-66 0 -102 35.5t-42 88.5t2 121.5t24 127t30.5 112t15.5 70.5q1 40 -16 67.5t-51 57.5q-3 -7 -30.5 -63t-46 -92t-53 -104t-62 -116.5t-63.5 -111t-66.5 -105.5t-62.5 -82.5t-59.5 -59t-48.5 -19.5q-66 0 -101.5 41t-40.5 102
t4 139t26 144.5t32.5 126t16.5 75.5q2 38 -17 69t-46 51t-53 49t-37 62.5t1 92.5q7 34 32.5 71.5t51.5 38.5q10 1 20 -4.5t20.5 -18t19.5 -23.5t22.5 -30.5t22.5 -31.5q-55 -23 -70 -82q-10 -44 3 -74.5t38.5 -50t52 -40t45 -56t15.5 -84.5q-1 -14 -15 -75.5t-29 -133
t-27 -143t-8.5 -118.5t25.5 -46q101 0 457 729q-36 33 -51.5 72.5t-1.5 99.5q9 35 34 72t50 38q10 1 20 -4.5t20.5 -17.5t19 -24t22 -31t22.5 -31q-54 -23 -69 -82q-9 -36 -1 -65t26 -44.5t41 -34.5t43.5 -37t33 -50t10.5 -74q-1 -14 -14 -68t-26.5 -114.5t-24 -121
t-6.5 -100t26 -38.5q37 0 108 88.5t144.5 213.5t125.5 219.5t77 145.5z" />
    <glyph glyph-name="t_t" unicode="tt" horiz-adv-x="1460" 
d="M1522 602l30 -20q-26 -56 -52 -109.5t-67.5 -131.5t-82 -145t-91 -137.5t-97.5 -120.5t-99 -84t-98 -38q-261 10 -213 659q-41 -79 -83.5 -153t-100 -157.5t-112.5 -145t-118 -104t-119 -46.5q-354 13 -125 1270q-124 5 -196.5 -22.5t-85.5 -98.5q-34 15 -17 63
q41 123 307 103q5 20 15 71q4 22 9 50t6.5 39t6 26.5t6 19.5t9 9.5t12 3.5t18.5 -3.5t24.5 -6.5t33.5 -12t43 -13q-2 -10 -15.5 -78t-23.5 -125q96 -15 294.5 -56t288.5 -56q12 59 21 108l9 49.5t6.5 38.5t6 26.5t6 19t9 9t12.5 3.5t18.5 -3.5t24.5 -6.5t33.5 -12t42.5 -13
q-1 -7 -17 -89t-28 -151q176 -21 289.5 3.5t150.5 111.5q20 -11 17 -34.5t-25 -51.5q-34 -42 -100 -62t-150.5 -19t-187.5 13q-15 -88 -28 -171t-27 -185.5t-23 -192t-15 -181.5t-4 -163.5t11 -128t29 -86t51 -26.5q43 3 92.5 37t94 82.5t93.5 119t87 134t79.5 141.5t65 126
t49.5 103zM760 580q21 207 63 436q-78 13 -281 53.5t-302 54.5q-13 -71 -24 -139t-24 -152.5t-23 -162.5t-20 -162t-14.5 -157t-6.5 -142.5t3 -123.5t14.5 -95t28 -61.5t43.5 -18.5q48 4 102.5 40.5t106 95.5t101 127t94.5 145t78.5 140t60.5 122z" />
    <glyph glyph-name="s_s" unicode="ss" horiz-adv-x="1110" 
d="M1202 573q-100 -131 -176.5 -205t-183.5 -128q15 -111 -4.5 -200.5t-60.5 -139t-91.5 -71.5t-99.5 -11q-51 11 -79 48t-20 99q9 73 69 140.5t149 111.5q-11 62 -48.5 174.5t-44.5 138.5q-76 -93 -150.5 -154.5t-178.5 -115.5q11 -107 0 -181.5t-43 -122t-69.5 -69
t-78.5 -22.5q-107 -3 -129 76q-20 72 37 164q54 89 143 133q-9 49 -27 108t-34 102.5t-31.5 102t-18.5 104.5t5 111q14 79 64 111q41 26 68 -3q24 -26 19 -83q-7 -68 -51 -146q62 -136 137 -342q101 52 176 116t150 161q-21 105 -6 186q14 79 63 111q41 26 68 -2
q24 -25 18 -84q-3 -65 -49 -146q20 -45 39 -91t29 -73.5t34.5 -96t37.5 -103.5q100 53 174.5 126.5t165.5 194.5zM158 801q7 47 -13 49q-17 2 -31 -30q-22 -52 5 -128q33 67 39 109zM82 -94q26 2 44.5 29t28.5 90.5t-5 169.5q-88 -44 -129 -132q-35 -77 -9 -125
q19 -37 70 -32zM715 801q7 47 -13 49q-17 2 -31 -30q-22 -52 5 -128q33 67 39 109zM602 -139q28 -2 50 10.5t41.5 47t23 96.5t-5.5 159q-72 -36 -128 -99t-59 -122q-2 -36 21.5 -63.5t56.5 -28.5z" />
    <glyph glyph-name="e_e" unicode="ee" horiz-adv-x="1138" 
d="M1200 600l31 -20q-23 -61 -73 -145.5t-113 -169t-136 -143.5t-131 -59q-82 -4 -134 48t-68.5 132t-6.5 175q-87 -123 -183 -210.5t-171 -88.5q-136 -5 -189 120q-47 112 -11 269q34 151 122 235q67 64 146 62q59 -2 74 -54q16 -54 -23 -109q-50 -72 -149 -70q-8 0 -17 1
q-10 -37 -18.5 -100.5t-11.5 -136.5t15.5 -124t59.5 -50q54 1 128.5 61.5t137 138t111.5 158.5q33 123 102.5 205.5t157.5 79.5q59 -2 74 -54q16 -54 -23 -109q-50 -72 -149 -70l-17 1q-8 -27 -16 -80.5t-12 -120.5t-1.5 -127t21 -100t51.5 -39q53 0 121.5 57.5t127.5 139
t106 162t67 135.5zM864 766q-24 0 -59.5 -45.5t-56.5 -104.5q82 -8 124 54q29 42 17 76q-7 19 -25 20zM299 766q-25 0 -61 -45.5t-58 -104.5q84 -8 126 55q28 43 16 76q-7 18 -23 19z" />
    <glyph glyph-name="c_c" unicode="cc" horiz-adv-x="1177" 
d="M1237 600l33 -20q-27 -58 -61 -121t-85 -141t-101.5 -138t-110 -101.5t-111.5 -41.5q-61 4 -106.5 38t-67.5 87.5t-31.5 120.5t0.5 137q-44 -84 -88.5 -155.5t-98.5 -142.5t-109.5 -112t-104.5 -41q-70 4 -118.5 51.5t-66.5 120.5t-19.5 160.5t21 174.5t55.5 159
t84 117.5t107 46.5q37 3 66.5 -27.5t36.5 -92t-35 -153.5q-5 4 -12 10t-9 7.5t-5 5t-2.5 4.5t0.5 5.5t2 7.5t4.5 10.5t4.5 15.5q16 54 11 90t-22 54.5t-38 15.5q-58 -9 -100 -194t-35 -366.5t68 -179.5q54 0 120 61t129 160t106.5 178.5t82.5 161.5q34 99 92 162t129 64
q37 3 66.5 -27.5t37 -92t-33.5 -153.5q-6 5 -13 10.5t-9.5 7t-5.5 5t-2.5 4.5t0.5 5.5t2 7.5t4.5 10.5t4.5 15.5q16 54 11 90t-22 54.5t-38 15.5q-58 -9 -96.5 -177t-28 -332.5t71.5 -162.5q57 0 125.5 58.5t129 147t106 168t75.5 146.5z" />
    <glyph glyph-name="o_o" unicode="oo" horiz-adv-x="1132" 
d="M1194 604l31 -24q-27 -45 -61 -88t-77.5 -86t-93 -64t-92.5 -10q-22 -70 -51 -127.5t-70.5 -98t-83.5 -38.5q-61 1 -97.5 40t-45.5 101.5t-4.5 128t20.5 135.5q-139 -166 -250 -141q-77 -218 -196 -215q-74 1 -111 54.5t-37.5 132.5t14.5 156t40 138q11 26 18 40.5
t15.5 23t14 10t17.5 -4t20.5 -12t28.5 -21.5t37 -26q-28 -44 -58 -177q-45 -197 -7 -251q12 -16 32 -16q37 0 79 61t59 121q-50 34 -74.5 124t-10.5 165t62 72q32 -2 51.5 -42.5t23.5 -97t2.5 -107t-7.5 -83.5q64 -13 139.5 55.5t132.5 155.5q1 1 2 4.5t2 5.5
q10 26 17.5 40.5t16 22.5t14 10t17.5 -3.5t21 -12t29 -21.5t37 -26q-25 -39 -58 -182q-51 -224 -15 -290q12 -21 34 -21q27 0 59.5 44t54.5 96t31 91q-50 34 -74 124t-10 165t62 72q42 -3 61 -71.5t17.5 -140.5t-11.5 -118q47 -11 107 30.5t102.5 93t73.5 103.5zM297 391
q5 32 7 91.5t-8 119.5t-34 62q-23 -1 -26.5 -59t14 -125t47.5 -89zM877 391q6 30 7.5 91.5t-8.5 120.5t-34 61q-22 -1 -25.5 -59t13.5 -125t47 -89z" />
    <glyph glyph-name="l_l" unicode="ll" horiz-adv-x="1433" 
d="M1497 625l29 -27q-14 -24 -67 -116t-94 -160.5t-106.5 -164.5t-120.5 -159t-119.5 -109.5t-119.5 -48.5q-68 1 -110.5 59.5t-57 156.5t-11 213t22.5 245q-350 -583 -565 -592q-78 1 -123 69.5t-54.5 182.5t2 246t42.5 278q30 144 73 272.5t96.5 233.5t119 160.5
t131.5 42.5q102 -19 40 -212q-51 -161 -177 -346q-89 -132 -144 -167q-29 -132 -47 -256t-23 -228.5t10 -168t52 -64.5q42 2 90 28.5t90.5 64t93.5 98.5t86.5 110t82.5 121.5t69.5 110t58.5 98.5q4 7 7 12l6 10q7 28 10 52q24 114 53.5 213.5t67.5 187t80 147t92.5 89
t103.5 18.5q103 -19 47 -198q-46 -149 -166 -320q-84 -119 -139 -154q-28 -133 -46.5 -265t-25 -246.5t8 -186t51.5 -72.5q51 2 112 47t113.5 107t114.5 154.5t102.5 161t91 157t66.5 115.5zM1163 1284q-22 3 -44.5 -16.5t-43.5 -61t-39.5 -90.5t-39 -120.5t-36.5 -133
t-36 -145.5q73 59 163 218q103 179 111 280q5 63 -35 69zM461 1364q-33 4 -69 -48.5t-71 -148t-64 -197.5t-58 -225q71 60 168 232q110 197 125 309q10 72 -31 78z" />
    <glyph glyph-name=".notdef" horiz-adv-x="368" 
 />
    <glyph glyph-name=".null" horiz-adv-x="0" 
 />
    <glyph glyph-name="nonmarkingreturn" horiz-adv-x="682" 
 />
    <glyph glyph-name="space" unicode=" " horiz-adv-x="368" 
 />
    <glyph glyph-name="exclam" unicode="!" horiz-adv-x="352" 
d="M223 279q-1 -10 -1.5 -27t-1 -22t-3 -14.5t-6.5 -12t-11.5 -5t-19.5 -3.5l-10 1073q7 67 10 75q8 21 46 24q18 2 85 3zM219 104q32 0 50 -27t12 -65q-8 -38 -35.5 -65t-59.5 -27t-50 27t-11 65q6 38 34 65t60 27z" />
    <glyph glyph-name="quotedbl" unicode="&#x22;" horiz-adv-x="638" 
d="M317 1239q27 1 44.5 -16t16.5 -56.5t-30 -93.5q-25 -47 -66 -76t-87 -32q-35 -1 -40.5 10.5t1.5 34.5q44 -9 82 6.5t63 52.5q-51 -14 -69 32q-17 43 8 89q25 47 77 49zM520 1239q27 1 45 -15.5t17 -56.5t-31 -94q-24 -47 -64.5 -76t-89.5 -32q-35 -1 -40.5 10.5t1.5 34.5
q94 -18 146 59q-50 -14 -68 32q-17 44 9 90q25 46 75 48z" />
    <glyph glyph-name="numbersign" unicode="#" horiz-adv-x="915" 
d="M836 823l-177 4l-14 -102l129 2q29 -4 41.5 -11.5t14 -15t1.5 -28.5l-192 4l-27 -199q-1 -5 -1.5 -16t-1 -13.5t-2.5 -8.5t-5.5 -7.5t-9 -3t-14.5 -2.5l4 250l-174 4l-27 -203q-1 -5 -1.5 -12.5t-1 -10.5t-1.5 -8.5t-2 -7.5t-3.5 -5t-6 -4t-8 -2t-11.5 -1l4 254l-153 4
q-6 1 -16 1.5t-13.5 1t-9 2.5t-7 5t-3 8.5t-1.5 14.5l203 4l2 113l-153 2q-6 1 -15.5 1.5t-12.5 1t-8 2t-6.5 5t-3 9.5t-1.5 15l200 2l2 181q7 41 11 46q9 12 63 13h39l-33 -238l150 3l2 176q6 41 10 46q9 12 65 13h37l-32 -235l112 2q22 -3 34 -6.5t17 -12t6 -14.5t1 -23z
M582 723v106l-154 2l-14 -110z" />
    <glyph glyph-name="dollar" unicode="$" horiz-adv-x="899" 
d="M494 758q134 -124 181 -180q115 -134 111 -246q-3 -115 -100 -201t-221 -104v-23q-1 -10 -1.5 -24t-1 -21.5t-1.5 -17t-2.5 -14l-3.5 -10.5t-5 -8.5t-7 -5.5t-9.5 -4t-13.5 -1l2 127h-8q-79 0 -141.5 25.5t-100 70t-56.5 101t-13.5 121.5t32.5 128q24 54 41.5 63
t44.5 -16q-52 -76 -66.5 -157.5t7.5 -147.5t87.5 -109.5t164.5 -44.5h8l6 566q-69 68 -112.5 119t-77 119t-31.5 130q3 116 67.5 183.5t159.5 80.5q-1 82 14.5 105.5t69.5 26.5l-4 -129q52 -6 96.5 -29t76 -61.5t41.5 -91.5t-7 -120q-15 -57 -29.5 -68.5t-52.5 1.5
q37 71 40.5 131.5t-20 100.5t-61.5 65t-86 33zM430 819l4 404q-62 -9 -103.5 -49t-47.5 -105q-4 -56 34.5 -117t112.5 -133zM467 66q87 15 155 69.5t68 130.5q0 34 -15 70.5t-48.5 78.5t-61 71.5t-78.5 80.5z" />
    <glyph glyph-name="percent" unicode="%" horiz-adv-x="772" 
d="M565 455q60 -6 90.5 -61.5t26 -121t-42.5 -122t-100 -62.5q-94 -11 -129 72q-30 73 0 166q30 91 96 120q28 12 59 9zM539 102q18 13 35 94.5t16 159.5t-27 82q-24 7 -45 -45q-31 -77 -31 -181q1 -107 43 -111q4 0 9 1zM246 834q-95 -11 -130 72q-30 73 1 166
q30 90 94 119q28 12 59 9q49 -5 79.5 -42t35.5 -88t-6.5 -102.5t-47 -89.5t-85.5 -44zM268 1186q-22 6 -42 -42q-32 -75 -32 -181q0 -110 41 -115q5 -1 11 0q18 13 34.5 95t15 160.5t-27.5 82.5zM555 1151q26 68 49 87t78 22l-500 -1143q-5 -10 -12.5 -25.5t-10 -21
t-8.5 -15t-9.5 -12.5t-9.5 -7t-13 -5.5t-17 -1.5z" />
    <glyph glyph-name="ampersand" unicode="&#x26;" horiz-adv-x="1191" 
d="M1083 895q-65 -51 -104.5 -118t-52 -120.5t-29 -133.5t-33.5 -128q103 -57 113 -162q17 -158 -105 -265q-106 -93 -263 -106q-168 -14 -289 72q-136 96 -152 285q-7 79 14.5 156.5t69 147.5t131 124.5t192.5 79.5q-69 29 -115.5 80.5t-65 110t-11 121t40 114.5t95.5 89
t147 46q57 6 105.5 -12t79 -52t47 -76.5t15 -88t-21.5 -84.5q-11 -22 -20.5 -30t-13.5 -8.5t-19 6t-23 9.5q26 31 32 85t-8.5 104.5t-58 84.5t-106.5 27q-59 -7 -94.5 -57t-42 -118.5t3 -139t38 -126.5t64.5 -73l-2 -34q-91 -20 -160.5 -71.5t-107.5 -120t-53.5 -144.5
t-6.5 -152q26 -218 166 -286q107 -52 237 -2q114 44 176 139q53 81 42 168q-9 73 -84 124q-24 -40 -77.5 -65.5t-101 -17t-55.5 54.5q-6 33 16 55.5t57 29.5t72.5 6t65.5 -11q15 47 30.5 122t27 125.5t43 115.5t82.5 118q21 22 36.5 25t22 -3t14.5 -20zM657 338
q4 -27 35.5 -27t67.5 20t51 46q-22 8 -58.5 9.5t-68 -10.5t-27.5 -38z" />
    <glyph glyph-name="quotesingle" unicode="'" horiz-adv-x="491" 
d="M352 1239q27 1 45 -15.5t17 -56.5t-31 -94q-24 -47 -64.5 -76t-89.5 -32q-35 -1 -40.5 10.5t1.5 34.5q94 -18 146 59q-50 -14 -68 32q-17 44 9 90q25 46 75 48z" />
    <glyph glyph-name="parenleft" unicode="(" horiz-adv-x="552" 
d="M426 1489q-92 -228 -142.5 -440t-61.5 -426.5t31 -425.5t138 -412q-9 -9 -17 -10.5t-17.5 5.5t-18 18t-23.5 32q-494 762 33 1608q15 22 23.5 33.5t18 19t18 6.5t18.5 -8z" />
    <glyph glyph-name="parenright" unicode=")" horiz-adv-x="614" 
d="M160 1489q10 7 18.5 8t18 -6.5t18 -19t23.5 -33.5q527 -845 32 -1608q-15 -22 -23.5 -32.5t-17.5 -17.5t-17 -5.5t-17 10.5q96 201 138 412t31 425.5t-61.5 426.5t-142.5 440z" />
    <glyph glyph-name="asterisk" unicode="*" horiz-adv-x="722" 
d="M467 1067l178 2q0 -7 -0.5 -10.5t-4 -6t-6 -3t-11 -1t-13.5 -1.5l-164 -21l107 -108q21 -26 19 -34.5t-40 -47.5l-114 145l-19 -160q-1 -5 -1.5 -11.5t-1 -9.5t-1.5 -6.5t-3 -4.5t-5.5 -2t-9.5 -1l2 197l-119 -115q-3 -2 -8 -7l-6.5 -6.5t-5.5 -3.5t-6 -1.5t-5.5 2
t-7.5 4.5l133 160l-196 -25q2 57 7 64q5 6 36 10h151l-102 131q-2 3 -7 8.5t-6 7t-3 5t-1 6t3 5.5t6 7l139 -141v137q4 32 10 36q7 7 64 7l-21 -162l72 86q24 23 33 22t51 -34z" />
    <glyph glyph-name="plus" unicode="+" horiz-adv-x="743" 
d="M641 582l-225 -2l-10 -218q-5 -34 -93 -34l6 252l-186 -2q-24 3 -32 9.5t-9 30.5l227 7l7 202q0 10 2 17.5t7.5 12t11 7.5t16.5 4t18.5 1t22.5 0.5t24 0.5l-10 -241l174 4q37 3 42.5 -2t6.5 -49z" />
    <glyph glyph-name="comma" unicode="," horiz-adv-x="364" 
d="M231 96q27 1 44.5 -16t16.5 -56.5t-30 -93.5q-25 -47 -66 -76t-87 -32q-35 -1 -40.5 10.5t1.5 34.5q44 -9 82 6.5t63 52.5q-51 -14 -69 32q-17 43 8 89q25 47 77 49z" />
    <glyph glyph-name="hyphen" unicode="-" horiz-adv-x="890" 
d="M698 633q37 3 43 -2.5t7 -48.5l-508 -4q-24 3 -32 9.5t-9 30.5z" />
    <glyph glyph-name="period" unicode="." horiz-adv-x="350" 
d="M197 96q29 0 45 -25.5t10 -60.5t-31.5 -60.5t-56.5 -25.5q-29 0 -45 25.5t-10 60.5t31.5 60.5t56.5 25.5z" />
    <glyph glyph-name="slash" unicode="/" horiz-adv-x="720" 
d="M641 1227q29 77 56 99t89 24l-573 -1311q-6 -11 -14 -29t-11.5 -24.5t-9.5 -17.5t-10.5 -14.5t-11.5 -8.5t-15.5 -6.5t-19.5 -1.5z" />
    <glyph glyph-name="zero" unicode="0" horiz-adv-x="813" 
d="M397 1315q101 -9 173 -108.5t102.5 -243.5t26.5 -311.5t-40.5 -312t-113 -245.5t-178.5 -112q-184 -19 -283 171q-91 172 -84 448q7 265 97 468q88 198 220 238q39 12 80 8zM362 16q89 9 156 104.5t99.5 232.5t36.5 296.5t-21.5 296t-87.5 231.5t-150 103
q-90 11 -160 -159q-76 -185 -93 -471q-18 -302 45 -482q60 -169 175 -152z" />
    <glyph glyph-name="one" unicode="1" horiz-adv-x="575" 
d="M406 1309h69l-45 -1211q-2 -11 -3.5 -28.5t-3 -25t-6.5 -19.5t-13.5 -16.5t-23.5 -10t-38.5 -7t-56.5 -1.5l49 1251q-124 -145 -235 -144q-63 1 -90 46q-24 41 5 76l4 4q28 24 42 18.5t16 -24.5q-33 -16 -23 -43q10 -28 53 -30q82 -3 181 105q14 16 30 37q14 19 22 21.5
t50 1.5h17z" />
    <glyph glyph-name="two" unicode="2" horiz-adv-x="792" 
d="M709 145q15 -68 -44.5 -120t-144.5 -52q-47 -3 -92.5 15t-82 38t-81 33t-107.5 -1t-143 -62q-2 2 -8 8.5t-5.5 8.5t0 8t6 13.5t15 19.5t25.5 32q112 134 232 318.5t215.5 387.5t103.5 328q5 73 -28.5 125.5t-96.5 48.5q-72 -7 -137.5 -48.5t-110.5 -101t-73.5 -129.5
t-34.5 -138q-37 11 -43 18q-9 13 4 63q38 139 145.5 247.5t245.5 121.5q125 11 184.5 -67t51.5 -201q-7 -101 -41.5 -208.5t-83.5 -201.5t-118.5 -193.5t-135.5 -179.5t-146 -165q50 8 83.5 2t68 -23t60 -34.5t60 -32.5t68.5 -17q80 2 121.5 58.5t-4.5 125.5q22 9 42.5 1.5
t29.5 -46.5z" />
    <glyph glyph-name="three" unicode="3" horiz-adv-x="763" 
d="M373 784q183 1 266 -130q70 -113 42 -271q-28 -159 -139 -269q-140 -140 -343 -124h-4q-64 6 -110.5 36.5t-65.5 74t-18.5 91.5t28 94t75.5 76q43 24 58.5 20t23.5 -32q-57 -18 -94.5 -55.5t-46.5 -80.5t1.5 -84.5t51 -71t101.5 -35.5q141 -14 243 119q86 114 103 274
q18 161 -47 255q-78 114 -242 64q-10 20 -9 25.5t25 21.5q83 56 146 191q64 137 53 232q-11 86 -86 85q-94 -6 -148 -83.5t-38 -168.5q-28 -7 -38 -1t-9 46q5 92 70.5 164t160.5 78q150 8 202 -93t-9 -235t-203 -213z" />
    <glyph glyph-name="four" unicode="4" horiz-adv-x="819" 
d="M578 1049q2 24 2 62q1 47 7.5 63t36 23.5t103.5 4.5l-68 -1104q-1 -10 -3 -28.5t-3 -25.5t-6 -19t-13.5 -16.5t-24 -10t-39 -7t-56.5 -1.5l27 497q-180 82 -502 35q-4 9 -12 24q-27 53 -27 66.5t26 41.5q30 31 52 59q90 115 165 302.5t83 293.5q53 -3 64 -12
q22 -16 15 -95q-1 -7 -2 -16q-11 -92 -48 -211t-101 -237t-133 -169q81 15 206.5 6t215.5 -40z" />
    <glyph glyph-name="five" unicode="5" horiz-adv-x="819" 
d="M297 879q244 38 365 -102q96 -109 86 -285q-10 -173 -113 -314q-117 -160 -298 -193q-51 -10 -104 -8q-79 2 -133.5 35t-77 81.5t-23 107t21 111t62 94t93.5 55.5q44 10 58 1.5t14 -38.5q-89 10 -152 -72q-57 -75 -54 -168q4 -103 86 -147q44 -25 108 -25q145 -1 252 135
q95 121 114 285q21 175 -59 286q-82 115 -248 116q-20 0 -38.5 -1t-30 -3.5t-22 -2.5t-15.5 -1.5t-9 3t-5 7t-0.5 15t2 23t3.5 34.5t4 46q3 39 9.5 117t9.5 117q2 13 6.5 25t16 27t29.5 18t46 -3q68 -20 141 -20q70 0 122.5 20.5t68.5 63.5l43 43q2 -55 -34.5 -93.5
t-89.5 -54.5t-118 -18q-58 -3 -125 12q-9 -236 -12 -329z" />
    <glyph glyph-name="six" unicode="6" horiz-adv-x="700" 
d="M451 717q104 -1 155 -117q50 -115 23 -271q-28 -166 -125 -258q-89 -85 -213 -73q-77 6 -142.5 62t-103.5 159q-26 71 -37 178.5t-6.5 228t31 242t70.5 219t118 159t168 61.5q109 0 169 -73.5t34 -178.5q-10 -42 -26.5 -48.5t-45.5 11.5q38 55 33 109t-44.5 93t-88.5 37
q-82 -3 -141.5 -93t-86.5 -220.5t-38 -276.5t-5.5 -266.5t19.5 -185.5q38 -169 154 -176q145 -12 223.5 149.5t50.5 328t-141 167.5q-65 0 -103.5 -42.5t-46.5 -105.5t1 -129.5t32 -119.5q-18 -6 -25.5 -7.5t-19.5 0.5t-19.5 15.5t-13.5 38.5q-19 60 -15 127.5t23 124.5
t67 94.5t116 36.5z" />
    <glyph glyph-name="seven" unicode="7" horiz-adv-x="860" 
d="M659 874q11 1 24 1.5t23.5 -7t10.5 -22.5q0 -55 -42 -83.5t-104 -33.5q-42 -3 -94 4q-129 -214 -230 -424t-124 -317q-7 1 -28 3.5t-26.5 4t-21.5 5t-20 7t-13.5 10.5t-10 15.5t-3 21.5t1.5 29t10.5 37t16.5 47q95 241 307 588q-108 18 -182 -6q-18 29 -15.5 36t31.5 13
q72 16 186 -10q183 293 310 436q-36 -15 -92.5 -30.5t-129.5 -29.5t-143.5 -13.5t-129 14t-91 56t-25.5 109.5q4 28 14.5 31.5t28.5 -4.5q-39 -149 151 -164q149 -11 369 54q74 21 107 38q9 -10 25 -27q44 -47 46.5 -60t-26.5 -44q-32 -35 -55 -65q-87 -113 -215 -324
q43 0 63 2q54 7 82 30t14 72z" />
    <glyph glyph-name="eight" unicode="8" horiz-adv-x="731" 
d="M559 1339q53 -36 78.5 -80.5t29 -85.5t-16.5 -92t-44 -90t-68.5 -91t-75 -82.5t-77.5 -76.5q61 -61 101.5 -109.5t80 -110.5t57.5 -129.5t15 -141.5q-6 -123 -107.5 -192.5t-236.5 -69.5q-93 0 -157.5 21.5t-94.5 59t-40 87t3 105.5t37 114t59.5 114t73.5 104t76 85
q-46 55 -82 113t-59.5 127t-21.5 129t43.5 114.5t123.5 87.5q46 19 65.5 18t28.5 -24q-68 -17 -110 -43.5t-61.5 -52t-13 -67t15 -68t44 -76.5t52.5 -71t60 -72q14 -17 21 -25q45 44 72.5 71.5t70.5 77.5t64 86t38 84.5t10 87t-38 79t-90 73.5q26 26 39 27.5t35 -15.5z
M481 250q0 156 -205 397q-32 -32 -66 -77t-66 -100.5t-55.5 -112t-29.5 -112t7.5 -99.5t59.5 -75.5t122 -39.5q89 -9 160.5 53.5t72.5 165.5z" />
    <glyph glyph-name="nine" unicode="9" horiz-adv-x="731" 
d="M600 1081q23 -70 30 -177t-2.5 -227.5t-41 -241.5t-79.5 -218.5t-124.5 -159t-169.5 -61.5q-110 0 -167 73t-28 179q11 41 29 47.5t47 -10.5q-40 -55 -37 -109t40.5 -93.5t86.5 -37.5q69 3 125 67t89 163t55 218t29 235t6 210t-11 147q-14 88 -53 132t-92 47
q-128 10 -214 -125q-73 -114 -81 -267q-7 -147 52 -215q34 -39 83 -39q65 0 105.5 43t50.5 106t4 129.5t-27 119.5q14 5 20.5 6.5t17 1.5t16.5 -5.5t12 -17.5t10 -32q8 -49 10 -101.5t-13 -103t-38.5 -90.5t-66.5 -64.5t-97 -23.5q-104 1 -150 115q-45 115 -14 271
q35 167 135 260q92 85 215 73q78 -8 141 -64t97 -160z" />
    <glyph glyph-name="colon" unicode=":" horiz-adv-x="421" 
d="M268 743q29 0 46.5 -25.5t11.5 -60.5q-7 -35 -33 -59.5t-55 -24.5q-31 0 -47.5 24.5t-10.5 59.5t32.5 60.5t55.5 25.5zM248 442q29 0 45 -25.5t10 -60.5t-31.5 -60.5t-56.5 -25.5q-29 0 -45 25.5t-10 60.5t31.5 60.5t56.5 25.5z" />
    <glyph glyph-name="semicolon" unicode=";" horiz-adv-x="438" 
d="M268 743q29 0 46.5 -25.5t11.5 -60.5q-7 -35 -33 -59.5t-55 -24.5q-31 0 -47.5 24.5t-10.5 59.5t32.5 60.5t55.5 25.5zM248 469q27 1 44.5 -16t16.5 -56.5t-30 -93.5q-25 -46 -66 -75.5t-88 -32.5q-35 -1 -40.5 10.5t1.5 34.5q44 -9 82 6.5t63 52.5q-51 -14 -69 32
q-16 43 9 89q25 47 77 49z" />
    <glyph glyph-name="less" unicode="&#x3c;" horiz-adv-x="579" 
d="M426 414q9 -9 21.5 -20t15 -12t3 -11t-3 -16.5t-13.5 -28.5l-273 268l-24 22l24 23l158 174q20 22 28 30.5t19 15.5t14 6t12.5 -8t14.5 -16.5t19 -29t28 -37.5l-193 -215z" />
    <glyph glyph-name="equal" unicode="=" horiz-adv-x="765" 
d="M629 596q31 3 35.5 -3t7.5 -50l-459 -2q-21 2 -28.5 9t-8.5 32zM225 700q-22 2 -29 8t-8 31l453 17q32 3 36.5 -3t6.5 -51z" />
    <glyph glyph-name="greater" unicode="&#x3e;" horiz-adv-x="569" 
d="M203 414l149 145l-192 215q14 18 28 37.5t19 29t14.5 16.5t12.5 8t14 -6t19 -15.5t28 -30.5l158 -174l24 -23l-24 -22l-273 -268q-10 22 -13.5 28.5t-3 16.5t3 11t15 12t21.5 20z" />
    <glyph glyph-name="question" unicode="?" horiz-adv-x="856" 
d="M532 1335q88 -7 152 -45t93 -94.5t32 -122t-28 -134t-91 -124.5q-22 -21 -57.5 -50.5t-62 -51t-59 -54.5t-54 -63t-42 -73.5t-29 -90t-8 -108t14.5 -131.5q-24 -8 -36.5 2.5t-18.5 50.5q-9 62 -8 117.5t6.5 97.5t21.5 84.5t29.5 69.5t40 62t42 52.5t46.5 50.5t43 47
q34 38 63.5 94t45 119t12 118.5t-41 94.5t-108.5 45q-60 3 -113.5 -18.5t-89.5 -59t-60.5 -86t-32 -96.5t2 -93t37.5 -75q-13 -16 -23 -21t-22.5 5t-25.5 41q-18 42 -18 93.5t15 101.5t45.5 97t72 81.5t97.5 53t117 13.5zM385 104q32 0 50 -27t11 -65q-6 -38 -34 -65
t-60 -27t-49.5 26.5t-11.5 65.5q8 38 35 65t59 27z" />
    <glyph glyph-name="at" unicode="@" horiz-adv-x="1347" 
d="M172 436q6 254 172 417q134 131 323.5 158.5t339.5 -62.5q170 -103 213 -317q14 -68 13 -145q-1 -120 -35.5 -230.5t-93.5 -181.5t-127 -75q-58 5 -99 35t-60.5 71.5t-27.5 98t-6.5 107.5t9.5 108q-98 -196 -187 -203q-72 -6 -104 81q-34 93 -4 216q34 139 128 201
q61 40 138 37q57 -2 103 -30.5t65 -88.5q-14 -5 -19.5 -6t-11 5t-7.5 12.5t-9 17.5t-17 20q-33 26 -67 29q-72 5 -127 -110t-60.5 -216t7.5 -117q34 -1 79.5 68.5t73.5 134.5t45 115q31 -6 75 -12q28 -4 38 -6t16.5 -13.5t4.5 -28t-8 -54.5q-3 -20 -5 -32q-6 -50 -10 -85
t-8.5 -87.5t-3 -88t6 -70t17.5 -51t33 -15.5q76 5 146 146t73 307q4 235 -134 368q-111 108 -268 111q-162 3 -290 -106q-160 -138 -187 -393q-3 -28 -4 -56q-11 -237 94 -341.5t320 -29.5q10 -16 2.5 -28.5t-43.5 -20.5q-114 -31 -209 -8.5t-163 81.5t-105 154t-35 209z
" />
    <glyph glyph-name="A" unicode="A" 
d="M1864 612l34 -16q-97 -266 -143 -371q-188 -438 -330 -448q-73 -2 -123.5 39.5t-76 111t-35 169.5t-5 204.5t20.5 226.5q-95 4 -239 78q-68 -103 -130.5 -187t-137 -165t-145 -135.5t-149 -86.5t-153.5 -30q-69 1 -122.5 26t-82.5 63t-40.5 85t-2.5 93t38 87t75 66
q30 15 39 10.5t22 -35.5q-45 -18 -76 -51.5t-44 -72.5t-7.5 -80t28 -74.5t69.5 -55.5t110 -24q69 -1 141.5 30.5t137.5 84t135.5 131t130 160t125.5 182.5q-60 32 -96 49t-94.5 33t-114.5 16t-92 -27.5t-35 -79.5q-33 2 -39 9q-8 9 0 37q12 46 54 72t99 26q62 0 129 -19
t100 -34.5t107 -53.5q68 106 211.5 351.5t206.5 334.5q4 6 11.5 16.5t9.5 13.5t7.5 9t8.5 6t9 0.5t11.5 -2.5t14.5 -8q2 -38 -11 -152t-36 -305.5t-37 -326.5q66 21 135 70q6 -7 8.5 -10t6 -7.5t4 -6.5t2 -4.5t0 -4t-1.5 -3t-4 -3.5t-6 -3.5t-7.5 -4.5t-9.5 -5
q-70 -43 -131 -61q-9 -101 -14.5 -187t-8 -172.5t1.5 -153t14 -118.5t29.5 -78.5t46.5 -25.5q158 8 439 777q6 15 8 21zM1210 567q30 218 84 434.5t86 294.5q-46 -70 -179 -300.5t-216 -360.5q128 -66 225 -68z" />
    <glyph glyph-name="B" unicode="B" horiz-adv-x="1533" 
d="M1589 616l37 -8q-29 -129 -114 -251t-191 -202.5t-207 -105.5q-36 -59 -85 -103t-103 -69t-104 -38.5t-103 -18.5q-86 -7 -135 18t-52 66q-2 35 31.5 62t90 43t111.5 27t114.5 20.5t81.5 15.5q30 53 51 118t28 132.5t-3.5 127.5t-43 103t-91.5 58.5t-148 -5.5q-2 7 -5 13
l-4.5 9t-2 6t1.5 5t6 3.5l12 4.5q157 51 248.5 227.5t83 333.5t-98.5 166q-61 0 -125 -54t-121.5 -145.5t-104 -187t-87.5 -203.5q7 -183 -17.5 -385.5t-60.5 -367.5q-6 -27 -10 -41.5t-11 -26.5t-12 -15.5t-19.5 -6.5t-26 -2.5t-38.5 0t-51 -1.5q8 41 16 87t22 133t24 169
t21.5 187t14 196.5t1.5 186.5t-15 169t-36.5 131.5t-62.5 86t-93 22.5q-82 -10 -124.5 -77t-35 -155.5t58.5 -161.5q-27 -17 -37.5 -13t-29.5 46q-30 62 -34 129.5t15 124t65.5 95.5t111.5 44q86 7 152 -25t107.5 -97.5t65 -148.5t33.5 -189q42 103 89 191.5t103.5 168.5
t120 126t125.5 46q146 -1 210 -121q60 -111 25 -267q-37 -167 -158 -280q-68 -63 -151 -96q85 -18 146.5 -79t88.5 -140t25 -167.5t-36 -162.5q58 18 127.5 67t134.5 117t117 157.5t71 178.5zM643 -147q63 -5 140 38t147 136q-14 -3 -64.5 -10.5t-96.5 -16t-94.5 -22
t-77 -33.5t-26.5 -45q7 -42 72 -47z" />
    <glyph glyph-name="C" unicode="C" horiz-adv-x="999" 
d="M1059 621l33 -17q-42 -102 -108.5 -219.5t-169.5 -249.5t-204 -203q-135 -94 -250 -102q-192 -13 -288 178q-89 179 -69 469q20 287 135 525q119 245 290 325q70 33 145 33q89 1 146 -39.5t72 -97t-0.5 -117.5t-59.5 -100q-7 -6 -12.5 -10.5t-10.5 -6.5t-8.5 -3.5t-8 0
t-6.5 1.5t-6.5 4.5l-6 6t-6.5 8t-7 8.5q39 18 65.5 57t30.5 83t-9.5 84t-59 64t-113.5 19q-139 -11 -254 -227q-112 -211 -155 -517q-43 -304 10 -503q51 -187 174 -195q10 -1 21 0q93 3 221 92q141 103 272.5 298t196.5 352z" />
    <glyph glyph-name="D" unicode="D" horiz-adv-x="1513" 
d="M1569 614l37 -14q-37 -70 -60.5 -112.5t-60.5 -101.5t-67.5 -96t-73.5 -79.5t-86 -68.5t-98 -48t-116 -31q-66 -112 -153 -168.5t-221 -60.5q-63 -3 -99.5 19.5t-38.5 56.5q-3 39 24 68.5t77.5 48t96.5 30t104.5 22t78.5 15.5q23 30 55.5 131.5t63.5 239t47 290t13 282.5
t-46 218.5t-124 96.5q-57 0 -113 -46t-103.5 -126.5t-85 -167t-71.5 -187.5q7 -193 -22.5 -411t-71.5 -387q-5 -22 -8.5 -34t-8.5 -24t-9 -16.5t-10.5 -10t-14 -5t-19 -1.5t-25.5 0.5t-33 0.5t-42 0q11 45 25.5 116.5t34.5 183t34 228t24 242t4.5 233t-24 193.5t-63 133
t-111.5 41q-83 -8 -127.5 -74t-39 -154.5t55.5 -163.5q-27 -16 -37.5 -11.5t-29.5 46.5q-28 62 -30 130t18.5 124t67.5 94.5t112 42.5q156 8 238 -105t104 -314q35 94 73 171.5t85.5 146t103 107.5t112.5 39q87 -1 151.5 -40t99.5 -105.5t54 -154t18 -186t-11 -199.5
t-30.5 -196.5t-43.5 -176t-47 -138.5t-43 -84q81 11 151.5 52.5t133 114t112 150.5t109.5 191zM627 -129q80 3 157 57t109 123q-13 -3 -65 -11t-89.5 -16.5t-81 -23t-66.5 -39t-20 -55.5q2 -14 18.5 -25t37.5 -10z" />
    <glyph glyph-name="E" unicode="E" horiz-adv-x="995" 
d="M1053 618l34 -14q-36 -105 -86.5 -208.5t-126 -212t-160.5 -190.5t-195.5 -136.5t-227.5 -57.5q-163 -4 -229.5 71.5t-61.5 205.5q7 155 120.5 313t258.5 252q-129 -16 -199 91q-64 97 -48 238q16 155 117 256q104 104 265 109q77 2 135 -20t87.5 -57.5t41.5 -80.5
t4 -87.5t-32.5 -78.5t-61.5 -55q-29 -15 -38 -10.5t-15 37.5q47 14 78 52t33.5 82.5t-16 86.5t-74.5 69t-138 25q-111 -6 -181 -131q-63 -112 -60 -249q3 -135 71 -190q71 -57 187 3q15 -27 12 -33q-3 -5 -31 -26q-158 -115 -262.5 -277t-108.5 -342q-2 -95 34 -152.5
t118 -56.5q107 1 212 54t187 134.5t154.5 187t121.5 205t81 193.5z" />
    <glyph glyph-name="F" unicode="F" horiz-adv-x="1077" 
d="M1202 1425q64 -10 87 -65q26 -58 -15 -115q-61 -84 -221 -87q-62 -1 -135 11q-43 6 -179 43q-11 -58 -20 -157t-19.5 -243.5t-19.5 -240.5q44 -6 90 0q122 16 94 105q15 6 37.5 0t22.5 -29q0 -57 -42.5 -86.5t-103.5 -34.5q-42 -5 -102 6q-13 -121 -29.5 -217.5
t-43.5 -195t-61 -165t-84.5 -108.5t-111.5 -43q-62 -1 -104 34.5t-56 92.5q-3 10 -4 17t-0.5 12t1 8t5.5 5.5t7.5 3t11.5 3t14 3.5q3 -60 32.5 -101.5t84.5 -40.5q28 0 51.5 27t42.5 81.5t33.5 114t28 151t22.5 164.5t21 181q-106 18 -179 -6q-16 29 -13 36t32 13
q65 14 164 -4q3 28 11 108.5t11.5 113t11 98.5t13 101t13 82t15.5 80.5t17 59.5q-83 22 -141 36t-130 27.5t-121 13t-95 -9.5t-71.5 -36.5t-31.5 -71.5q-10 -76 57 -117t138 -8q15 -26 11 -39.5t-44 -17.5q-82 -9 -148.5 49.5t-54.5 140.5q8 63 50.5 98.5t110 42.5
t145.5 0.5t168 -27t166.5 -41l153 -41t115.5 -26.5q220 -36 311 38q50 40 39 89q-9 39 -49 49q-4 0 -8 1q-61 8 -121 -23q-12 34 25 50t94 7z" />
    <glyph glyph-name="G" unicode="G" horiz-adv-x="1093" 
d="M1155 616l31 -18q-55 -86 -109.5 -154.5t-93 -108.5t-91.5 -79.5t-77.5 -54.5t-79.5 -46q-19 -11 -28 -16q-17 -50 -32.5 -90.5t-40.5 -94.5t-50.5 -95.5t-61.5 -84.5t-74.5 -72t-88.5 -49t-105 -22q-182 -11 -182 111q0 53 37 108.5t93.5 100.5t125 84.5t132 65.5
t113.5 38q73 253 111 707q-28 -83 -63 -159.5t-82 -151t-99.5 -130t-117.5 -91t-132 -38.5q-142 -6 -179 140q-36 145 38 371q73 225 208 386q148 177 300 179q75 0 123 -37q60 -44 -10 -74q-33 71 -115 68q-100 -1 -217 -201q-110 -188 -175 -432q-61 -231 -27 -319
q15 -40 50 -38q80 3 156 55t132 129.5t104 176t77.5 190.5t46.5 177v14q6 67 25.5 77t121.5 3h7q-4 -44 -17.5 -187t-21 -205t-22 -174t-33 -204t-43.5 -185q250 125 436 430zM215 -332q54 2 104.5 35t87 79t69 107.5t51.5 111t34 99.5q-53 -10 -128.5 -46.5t-147.5 -85.5
t-123 -112t-51 -118q0 -73 104 -70z" />
    <glyph glyph-name="H" unicode="H" horiz-adv-x="1304" 
d="M1360 614l37 -14q-11 -31 -37 -104t-44.5 -124.5t-48.5 -128t-55 -130t-58.5 -113.5t-64.5 -97.5t-67.5 -62.5t-71.5 -26q-78 -1 -125.5 82t-59.5 219t-1 297.5t43 326.5q-32 -18 -78.5 -43t-90 -49.5t-99.5 -58.5q-37 -322 -134 -487.5t-264 -188.5q-64 -7 -90.5 24.5
t-23.5 88.5q9 248 370 530q5 44 8.5 83.5t6.5 100.5t3.5 113.5t-3.5 115t-12.5 113t-25 99.5t-39.5 82.5t-58 54t-78 20.5q-69 -1 -109.5 -47t-47 -109t14.5 -131.5t66 -113.5q-18 -18 -26 -22t-19 4t-29 36q-36 59 -45.5 132t7 136.5t66 107t122.5 44.5q70 -1 126.5 -31
t93.5 -78t63.5 -113t40 -132t20 -139.5t6 -131.5t-5.5 -112q67 35 276 158q26 119 59.5 220t72 177.5t83 116t88.5 30.5q86 -19 18 -154q-50 -102 -143 -197q-11 -11 -22 -21q-13 -52 -35 -225t-38.5 -373.5t-6 -358t56.5 -160.5q27 -1 57 20.5t60 64.5t58.5 93t57.5 117
t52.5 124.5t49 129t40.5 116.5zM1114 1303q-8 0 -16.5 -6.5t-17 -21t-16 -30t-16 -38.5t-14.5 -40t-13.5 -42.5t-11.5 -38.5t-9.5 -34t-6.5 -24q35 32 90 118q88 136 44 155q-5 2 -13 2zM137 -49q56 6 103.5 72t77.5 164t47 175t26 144q-56 -45 -108 -96t-103.5 -114.5
t-84 -134t-34.5 -134.5q-2 -39 16 -59.5t60 -16.5z" />
    <glyph glyph-name="I" unicode="I" horiz-adv-x="944" 
d="M649 1348h19q89 -1 105 -10q17 -9 16 -47q0 -7 -1 -25q-2 -30 -2 -49q0 -17 -1 -52q-4 -399 -36 -622q-100 -705 -507 -711q-69 -1 -120 17t-78 50t-37.5 73.5t-4.5 87.5t27 92q20 48 30.5 50t46.5 -16q-32 -45 -46.5 -98.5t-7.5 -102.5t51 -80.5t122 -29.5
q65 1 119.5 33.5t94 83.5t72 130t53 156.5t36 182t23.5 188t13.5 191.5t7 176.5t3 159.5t2.5 124q-38 -26 -105 -64.5t-113 -67t-94.5 -66t-76 -80t-31.5 -90.5q-8 -86 43 -113t119 -4q0 -4 2 -14t2 -13.5t-0.5 -10t-4 -9t-9 -6t-15.5 -4t-24 -0.5q-68 2 -113.5 48
t-38.5 130q5 58 37 107.5t85 90t106 72t121 71.5t110 71z" />
    <glyph glyph-name="J" unicode="J" horiz-adv-x="999" 
d="M1061 614l31 -20q-54 -86 -105.5 -153.5t-91.5 -109t-86.5 -77.5t-77 -55t-77.5 -45l-27 -15q-23 -72 -45.5 -129.5t-62.5 -130.5t-84.5 -122.5t-110 -86t-140.5 -39.5q-181 -11 -184 111q-1 53 35 108.5t92 100.5t124 84.5t130.5 65.5t112.5 38q91 481 98 1161
q-68 -69 -165.5 -161.5t-147.5 -141.5t-91.5 -102t-46.5 -88q-9 -68 19 -107.5t86 -42.5q62 -3 131 29q0 -5 2 -15t1.5 -15.5t-4.5 -12.5t-16.5 -12t-33.5 -10q-40 -9 -72 -9q-81 1 -123.5 50.5t-36.5 123.5q5 44 25.5 84.5t68.5 92.5t95 96.5t140 131t169 161.5h48.5
t34.5 -2.5t26.5 -3t15.5 -7.5t10.5 -10.5t3.5 -17t2 -22.5t-2 -32v-40q0 -290 -21 -526.5t-71 -504.5q244 125 422 428zM143 -332q54 2 104 35t86 79t67.5 107.5t50 111t32.5 99.5q-53 -10 -127.5 -46.5t-146 -85.5t-121.5 -112t-49 -118q0 -34 27 -52.5t77 -17.5z" />
    <glyph glyph-name="K" unicode="K" horiz-adv-x="1374" 
d="M1432 614l34 -14q-11 -30 -36.5 -117t-51.5 -174t-63.5 -190t-74 -179.5t-81 -126.5t-86.5 -46q-68 8 -103.5 56t-41.5 118.5t-1.5 155.5t7 170t-7 157.5t-51 123t-117.5 62.5q-89 -773 -516 -778q-69 -1 -120 17t-78 50t-37.5 73.5t-4.5 87.5t27 92q20 48 30.5 50
t46.5 -16q-32 -45 -46.5 -98.5t-7.5 -102.5t51 -80.5t122 -29.5q65 1 119.5 33.5t94 83.5t72 130t53 156.5t36 182t23.5 188t13.5 191.5t7 176.5t3 159.5t2.5 124q-38 -26 -105 -64.5t-113 -67t-94.5 -66t-76 -80t-31.5 -90.5q-8 -86 43 -113t119 -4q0 -4 2 -14t2 -13.5
t-0.5 -10t-4 -9t-9 -6t-15.5 -4t-24 -0.5q-68 2 -113.5 48t-38.5 130q5 58 37 107.5t85 90t106 72t121 71.5t110 71h19q89 -1 105 -10q17 -9 16 -47q0 -7 -1 -25q-2 -30 -2 -49q-5 -368 -20 -531l354 563q26 45 33 49q10 6 39 -13q1 0 8 -5l-418 -637q91 -3 153 -40t90 -95
t41 -131t8.5 -149t-10 -149.5t-12.5 -131t-1.5 -94t26.5 -39.5q36 -2 80 65.5t86 176.5t77.5 213t68.5 211t43 134z" />
    <glyph glyph-name="L" unicode="L" horiz-adv-x="974" 
d="M1151 -119q6 -13 9.5 -19.5t4.5 -13.5t1.5 -9.5t-5 -7t-8.5 -5.5t-15.5 -7t-19.5 -9q-52 -25 -104 -37t-94.5 -14.5t-95.5 10.5t-87.5 24.5t-91.5 41.5t-87 47.5t-93 56.5q-42 -37 -115.5 -53.5t-132 2t-55.5 73.5q2 42 38.5 60t86.5 12.5t96.5 -18.5t77.5 -29
q27 28 50 86t38 121t28.5 154t20 156t16 158t13.5 132q-169 -128 -310 -170q-42 -13 -85 -17.5t-85.5 1.5t-75 24t-52.5 54.5t-19 88.5q0 94 74 150q43 28 62.5 18.5t21.5 -41.5q-51 0 -82 -38t-31 -89q-1 -55 24 -88t66.5 -42t85.5 -6t90 17q152 48 322 189q9 160 49.5 280
t114.5 187.5t174 60.5q34 -3 50.5 -25t16.5 -55q0 -84 -90.5 -208t-179.5 -197q1 -117 -11 -240t-40 -259.5t-85 -250t-136 -172.5q62 -40 105.5 -65t100 -50.5t104.5 -34t104.5 -8.5t116 19t124.5 55zM969 1333q-26 2 -49 -6.5t-40.5 -28t-31.5 -40.5t-24 -53.5
t-17.5 -57.5t-13.5 -62t-8.5 -56.5t-6 -52t-4.5 -38.5q71 62 148.5 173t78.5 177q0 43 -32 45zM203 -39q-6 -38 45 -46q62 -9 138 21q26 11 42 23q-29 15 -76.5 28.5t-95.5 10.5t-53 -37z" />
    <glyph glyph-name="M" unicode="M" horiz-adv-x="1875" 
d="M1933 614l35 -20q-17 -31 -91.5 -185.5t-136.5 -277t-139 -234.5t-124 -120q-76 -13 -105 105q-37 148 -1 577q4 57 15 171q32 357 26 464q-5 106 -40 112q-26 4 -69.5 -90.5t-89.5 -240t-89 -292.5t-80 -275t-51 -161v-4q-95 0 -111 5q-25 9 -27 46q-1 19 5 87
q13 152 22.5 287t15 272t-1 216.5t-26.5 76.5q-22 -3 -54.5 -65.5t-70.5 -171.5t-69 -206.5t-69 -223t-52 -167.5q-10 -92 -37 -252q-5 -28 -8 -42.5t-9.5 -27t-11.5 -16.5t-19 -8t-26 -4t-38.5 -2.5t-51.5 -5.5q8 45 18 117.5t23.5 186t20.5 230t9.5 242.5t-9.5 233
t-35.5 190.5t-70.5 126t-113 29.5q-82 -16 -122.5 -85.5t-29.5 -157t66 -156.5q-27 -19 -38 -15.5t-32 42.5q-32 60 -39 127.5t10 125.5t62 100t110 52q73 12 133 -7t101 -62.5t72.5 -107.5t47.5 -142t26.5 -165.5t9 -179t-4.5 -182.5q21 72 33 114t35 116.5t40 122
t40 109.5t43.5 100.5t43 74.5t44.5 51.5t43 12.5q197 -32 123 -822q117 406 162 539q122 355 198 356q61 0 98 -61t48.5 -162t11 -229.5t-12.5 -263t-24.5 -263.5t-23 -230t-9 -162.5t18.5 -61.5q27 0 77 69t107.5 178t108.5 213.5t98.5 205t60.5 124.5z" />
    <glyph glyph-name="N" unicode="N" horiz-adv-x="1435" 
d="M1495 612l33 -20q-17 -31 -70.5 -139.5t-106 -210t-114.5 -210.5t-118.5 -179t-94.5 -76q-76 -13 -105 105q-37 148 -1 579q5 58 16 173q33 357 27 463q-5 103 -39 109q-18 2 -45 -40.5t-57 -118.5t-62 -167t-64.5 -196.5t-60 -195.5t-53.5 -176t-39 -126
q-6 -53 -23 -139q-5 -28 -8 -42.5t-9.5 -27t-11.5 -16.5t-19 -8t-26 -4t-38.5 -2.5t-51.5 -5.5q8 46 18 118t23.5 185.5t20.5 230t10 242.5t-9 233t-35.5 190.5t-71 126t-113.5 29.5q-82 -16 -122.5 -85.5t-29.5 -157t66 -156.5q-27 -19 -38 -15.5t-32 42.5
q-32 60 -39 127.5t10 125.5t62 100t110 52q77 12 139.5 -9.5t104.5 -69t72 -119.5t46 -153.5t22.5 -179.5t5.5 -190.5t-9 -191.5q31 107 53.5 180t58 183t64.5 184t62 146.5t63.5 110t55.5 37.5q61 0 98 -61t48.5 -162t11 -229.5t-13 -263t-25 -263.5t-23 -230t-9 -162.5
t18.5 -61.5q27 0 78 69t111 177.5t113 212.5t102.5 205t62.5 124z" />
    <glyph glyph-name="O" unicode="O" horiz-adv-x="1075" 
d="M1133 614l34 -14q-44 -94 -105 -190.5t-118 -153.5t-115.5 -86.5t-142.5 -24.5q-72 -145 -170 -226.5t-221 -80.5q-144 2 -225 182q-82 183 -69 467q13 298 122 527q114 242 294 304q55 19 115 19v-34q-122 -1 -215 -147t-130.5 -354.5t-44 -417t37.5 -354.5t121 -147
q106 -7 195.5 67.5t154.5 207.5q-60 32 -99.5 129t-52.5 220t-6.5 261t31 254t68 197t96.5 92q42 8 73 -24.5t46.5 -81t25 -114t11.5 -107t2 -77.5q0 -203 -43 -409q-42 -190 -96 -305q55 -10 111 17t100 71q56 56 114 148.5t101 184.5zM674 205q56 126 92 301
q43 200 43 401q0 19 -1.5 47.5t-5 75.5t-12 89.5t-20.5 81t-31.5 59.5t-44.5 16q-36 -6 -61 -158.5t-30.5 -339t12.5 -359t59 -214.5z" />
    <glyph glyph-name="P" unicode="P" horiz-adv-x="1189" 
d="M1001 1409q122 -1 170 -117q49 -121 0 -300q-55 -204 -207 -358q-153 -156 -362 -208q-2 6 -5 15.5t-4 13t0 8.5t6 8t15 6q154 46 287 256q113 177 157 375q40 177 -6 241q-16 22 -42 25q-52 0 -107.5 -41t-103 -104.5t-95 -150t-83.5 -168.5t-68 -169q11 -205 -9 -430.5
t-52 -390.5q-5 -28 -8.5 -42t-10.5 -26t-11.5 -15.5t-18.5 -6.5t-26 -2.5t-39 0t-52 -1.5q6 38 14 90t20.5 141.5t21.5 181.5t18 202.5t10.5 212.5t-1 203.5t-17.5 183t-38.5 144.5t-63.5 94.5t-93 25.5q-82 -10 -122.5 -77t-30 -155.5t64.5 -161.5q-25 -17 -36 -13t-32 46
q-32 62 -39 129.5t10 124t62 95.5t110 44q86 7 151.5 -28.5t107.5 -107.5t67 -162t37 -205q33 85 69.5 162t83 154t93.5 133t101.5 91t106.5 35z" />
    <glyph glyph-name="Q" unicode="Q" horiz-adv-x="954" 
d="M846 -242q7 -5 16.5 -10.5t12.5 -7.5t7 -6.5t4 -10t-1.5 -14t-5.5 -22.5q-39 -110 -127 -121q-42 -6 -75.5 6.5t-54 34t-39 60.5t-28 70.5t-23.5 82t-24 78.5q-89 -63 -197 -60q-145 2 -231 184q-86 184 -80 468q5 297 108 526q108 242 286 302q55 19 114 19v-34
q-122 -1 -211 -147t-121 -354.5t-32.5 -417t47.5 -354.5t126 -147q102 -6 177 51q-30 71 -76 105t-125 20q-10 28 -6.5 38.5t37.5 11.5q80 4 128 -35.5t78 -110.5q63 58 112.5 157.5t78.5 205t47 221t24 204t5 156.5q-1 21 -3 48t-7 75t-14.5 89.5t-22.5 80.5t-33 60t-45 16
q-28 -5 -65.5 -76t-49.5 -166q-5 -32 -17 -36.5t-36 1.5q23 132 63.5 216.5t96.5 95.5q42 8 73.5 -25t48.5 -81t27.5 -114t13.5 -106.5t4 -77.5q3 -99 -9.5 -224t-41.5 -271t-90 -278.5t-145 -207.5q10 -28 22 -71.5l20 -72.5t22 -62.5t29.5 -52.5t40 -30.5t56.5 -7.5
q47 6 75 42.5t36 86.5z" />
    <glyph glyph-name="R" unicode="R" horiz-adv-x="1333" 
d="M1391 612l34 -12q-7 -20 -32.5 -95.5t-49.5 -143t-58.5 -159.5t-70 -165t-74 -138.5t-78.5 -100t-77 -31.5q-54 6 -89.5 35t-51.5 72.5t-23.5 98t-9 114.5t-4 120t-12.5 115.5t-30.5 100t-62.5 74.5t-104 38q-2 5 -6 15.5t-4 13.5t0.5 8.5t5.5 8t14 5.5q160 48 298 241
q113 159 154 328q37 151 -12 201q-16 15 -38 18q-65 0 -134 -61t-129 -162t-108 -205t-88 -215q-1 -61 1 -86.5t-1 -87.5t-3.5 -87t-5.5 -86t-6.5 -83.5t-7 -79.5t-7 -74.5t-7 -68.5t-6.5 -62q-4 -38 -8.5 -55t-14.5 -27.5t-27 -9.5t-45.5 -0.5t-70.5 -1.5q6 38 13.5 87.5
t19 134t19.5 170.5t16 189.5t8.5 198t-3.5 189.5t-19.5 170.5t-40 133.5t-65 87t-93.5 23q-82 -10 -122.5 -77t-30 -155.5t64.5 -161.5q-25 -17 -36 -13t-32 46q-32 62 -38.5 129.5t10.5 124t62 95.5t109 44q72 7 130 -16t97 -68t67.5 -112.5t43.5 -143t23 -168.5
q43 109 91 204t107 183.5t126 140.5t132 52q127 -1 173 -109q47 -109 -7 -268q-62 -182 -221 -319q-115 -99 -260 -152q87 -14 144.5 -62t82.5 -114t35.5 -142t8.5 -150.5t-3.5 -135.5t6 -100.5t29.5 -42.5q26 -1 59.5 33.5t68.5 99.5t67.5 134t68 159t58.5 151t49 135
t31 86z" />
    <glyph glyph-name="S" unicode="S" horiz-adv-x="1128" 
d="M782 1016q94 -232 147.5 -426t45.5 -367q-5 -111 -49 -201t-112.5 -145t-150 -84.5t-167.5 -30.5q-211 -2 -300 131q-68 101 -41 236q23 123 110 195q70 59 157 57q50 0 83 -24t9 -58q-49 40 -108 37q-55 -6 -101.5 -38t-73 -79.5t-39.5 -103.5t-1 -110t41.5 -98t91 -70
t143.5 -23q63 2 121.5 26t108 68t82.5 115t40 161q6 89 -9.5 200.5t-37 193t-50.5 181.5t-38 138q-89 -106 -222 -193t-253 -90q-110 -1 -169.5 60.5t-31.5 146.5q9 30 18.5 45.5t21.5 18t21 -0.5t25 -12q-67 -88 -34 -154.5t143 -66.5q116 0 250 91t217 194
q-12 38 -23 89.5t-15 122.5t6 128.5t50 99t107 43.5q48 -1 76 -36.5t28 -84.5q-1 -77 -39.5 -155.5t-77.5 -126.5zM793 1384q-122 -27 -31 -317l4 -12q33 41 65 109t33 132q0 35 -18 61t-53 27z" />
    <glyph glyph-name="T" unicode="T" horiz-adv-x="1093" 
d="M1276 1425q64 -10 88 -66q24 -59 -18 -115q-63 -84 -226 -86q-60 -1 -129 11q-37 5 -180 43q-11 -60 -20.5 -179.5t-19 -243t-23.5 -267t-39 -267t-61 -227t-94.5 -164t-133.5 -61.5q-62 -1 -104 34.5t-56 92.5q-3 10 -4 17t-0.5 12t1 8t5.5 5.5t7.5 3t11.5 3t14 3.5
q2 -59 31.5 -101t85.5 -41t97 115t64.5 292.5t41.5 364.5t41.5 366.5t50.5 262.5q-60 16 -108.5 28t-109.5 25.5t-109.5 20t-100 11t-90 -0.5t-71 -16.5t-51.5 -35t-24 -56.5q-10 -76 57 -117.5t138 -9.5q15 -26 11 -39t-44 -17q-82 -11 -148.5 48t-54.5 143q8 63 54.5 97.5
t120 39.5t159 -3.5t184 -31t181 -45t163.5 -44t119 -28.5q220 -35 311 41q50 40 39 90q-8 39 -47 49q-4 0 -8 1q-61 8 -121 -23q-12 34 25 50t94 7z" />
    <glyph glyph-name="U" unicode="U" horiz-adv-x="1234" 
d="M1292 612l35 -14q-8 -19 -38 -95t-57.5 -143t-68 -159t-79.5 -164.5t-81.5 -138t-84.5 -100t-78 -31.5q-37 -2 -65.5 16.5t-46 58.5t-28.5 87t-13 116t-1.5 131.5t8.5 147t15 148.5t20 150.5t21.5 139t20.5 127.5l3 18q-14 -36 -46.5 -123.5t-53.5 -143t-55.5 -144
t-59.5 -148t-57.5 -134t-58 -122.5t-52.5 -92t-50 -65t-42 -21q-65 2 -100 61t-40 159t4.5 217.5t33 251t46.5 245.5t45 215.5t27 146.5q7 65 2 87t-24 24q-34 1 -77 -39t-79.5 -97.5t-64 -109.5t-39.5 -84q-17 5 -22 7t-10 9t-1 18.5t14 33.5q16 35 38.5 73.5t55.5 83
t67 79t75 57.5t78 22q86 0 92 -180q1 -36 -10.5 -124.5t-28 -197t-36.5 -233t-35.5 -241t-24.5 -213t-4.5 -156.5t24.5 -64q26 -5 81 98.5t119 263.5t125 321.5t112.5 298.5t68.5 169q5 13 11.5 20t20 10t26.5 3.5t43 2t57 3.5q-3 -10 -27 -142.5t-55 -331t-54.5 -391
t-22.5 -332t38 -144.5q118 -6 430 763q3 9 5 13.5t4.5 11t4.5 10.5z" />
    <glyph glyph-name="V" unicode="V" horiz-adv-x="1077" 
d="M928 1411q49 -3 82 -28t45.5 -65.5t16.5 -84.5t-3.5 -96.5t-15 -89t-17.5 -74.5q-60 -241 -180.5 -518.5t-298.5 -530.5q-12 -18 -31 -45q-39 -58 -60.5 -69.5t-110.5 -21.5h-4t-3 -0.5t-4 -0.5q5 66 9 140t10 203t7 248t-0.5 257t-12 249.5t-27.5 205.5t-47.5 145.5
t-71.5 50.5q-59 -4 -101.5 -41t-59.5 -88.5t-11.5 -109t35.5 -99.5q-3 -2 -8 -4.5l-7 -3.5t-5.5 -3t-5 -1.5t-4 0t-4 1.5t-4 4t-4.5 6t-4 8.5t-5 11.5q-26 52 -22 112.5t25.5 113t70.5 88.5t112 40q76 6 134 -36.5t90.5 -134t55 -185.5t26 -236.5t5 -236.5t-9 -237
t-14.5 -187.5t-13 -135.5v-2q135 165 283.5 456t224.5 583q111 418 -84 407q-19 -1 -41 -6q-2 23 10 32.5t52 8.5z" />
    <glyph glyph-name="W" unicode="W" horiz-adv-x="1484" 
d="M1341 1411q219 -15 111 -438q-27 -107 -98 -299t-160.5 -398t-188.5 -352.5t-165 -140.5q-57 -3 -93 35.5t-48.5 112.5t-13 159.5t13 198.5t27.5 206.5t33 204.5q12 68 17 99q-25 -57 -68 -156.5t-74.5 -172t-73 -164t-75 -155.5t-68 -121.5t-64.5 -86.5t-54 -29
q-57 2 -89 32.5t-43.5 101.5t-3.5 177t34 267q19 119 68 376.5t59 341.5q15 107 -31 111q-34 1 -77 -39t-79.5 -97.5t-64 -109.5t-39.5 -84q-17 5 -22 7t-10 9t-1 18.5t14 33.5q16 35 38.5 73.5t55.5 83t67 79t75 57.5t78 22q94 0 100 -180q2 -74 -9.5 -182.5t-30 -219.5
t-40.5 -230t-40 -222t-28 -186.5t-4.5 -134t29.5 -54.5q42 -7 155.5 226t230 512.5t128.5 300.5q6 12 24.5 15.5t48 2t73.5 2.5q-3 -11 -26.5 -127.5t-54 -294t-53.5 -348t-22 -295t37 -129.5q52 -3 141 140t173 339t152 380t93 280v2q111 418 -84 405l-39 -6q-3 22 8.5 32
t50.5 9z" />
    <glyph glyph-name="X" unicode="X" horiz-adv-x="1296" 
d="M1354 612l35 -12q-19 -56 -42 -117.5t-61.5 -157t-79.5 -179.5t-87 -163.5t-95 -131.5t-92 -64q-54 -14 -98.5 6t-76 63t-57 114.5t-42 148t-31.5 176.5q-154 -165 -298.5 -262t-240.5 -90q-43 3 -65.5 28t-22 57.5t7.5 65.5q9 29 18 43.5t20.5 15.5t18 -2t21.5 -12
q-8 -5 -21 -29.5t-21.5 -53t2.5 -52.5t46 -27q90 -7 231 94t295 271q-9 65 -20.5 160.5t-19.5 165t-21 156t-25 148.5t-30.5 126t-40 104.5t-51 69t-64.5 33.5q-54 4 -96 -14.5t-67.5 -51t-41.5 -79t-21.5 -94t-4.5 -99.5q-26 -7 -34 -1.5t-7 40.5q2 68 18 126.5t47 108.5
t84.5 76.5t124.5 21.5q59 0 108 -27.5t85 -70.5t66 -111.5t49.5 -136.5t36.5 -161.5t27 -169.5t21 -177q82 103 150.5 207.5t119.5 207.5t76 190t17 156.5t-55 105.5q10 9 16.5 13t17 5.5t21.5 -9t22 -32.5q41 -86 -2.5 -239.5t-142 -321t-233.5 -334.5q3 -26 8 -77
q15 -148 24.5 -219.5t28 -162.5t46.5 -124t67 -25q39 11 84.5 61.5t89 128t83 159t76 173.5t59 152t40.5 112z" />
    <glyph glyph-name="Y" unicode="Y" horiz-adv-x="1142" 
d="M1204 610l31 -18q-68 -107 -128 -182.5t-117.5 -124.5t-94 -73t-98.5 -59q-17 -9 -25 -14q-17 -50 -32.5 -90.5t-40.5 -94.5t-50.5 -95.5t-61.5 -84.5t-74.5 -72t-88.5 -49t-105 -22q-182 -11 -182 111q0 53 37 108.5t93.5 100.5t125.5 84.5t132.5 65.5t113.5 38
q27 95 47 194t34.5 223.5t21 192t18.5 216.5q-135 -341 -155 -389q-180 -424 -271 -422q-64 2 -101 47.5t-45 124t-2.5 170.5t25.5 200t39.5 199t39 181.5t25.5 133.5q7 65 2 87t-24 24q-34 1 -77 -39t-79.5 -97.5t-64 -109.5t-39.5 -84q-17 5 -22 7t-10 9t-1 18.5t14 33.5
q16 35 38.5 73.5t55.5 83t67 79t75 57.5t78 22q86 0 92 -180q1 -48 -16.5 -170t-39 -254t-38.5 -260.5t-15.5 -214t29.5 -90.5q26 -5 74.5 74t103 205t105 252t95.5 240.5t60 145.5q10 20 41.5 23t104.5 -4q-6 -59 -19 -188.5t-21 -201.5t-22 -178t-33.5 -200t-44.5 -187
q232 116 420 424zM281 -332q54 2 104.5 35t87 78.5t69.5 107.5t52 111t35 100q-53 -10 -129 -46.5t-149 -85.5t-124 -112t-51 -118q0 -34 26.5 -52.5t78.5 -17.5z" />
    <glyph glyph-name="Z" unicode="Z" horiz-adv-x="890" 
d="M952 610l31 -18q-77 -183 -106 -239q-92 -174 -232 -260q-16 -10 -33 -19q-32 -70 -86 -139.5t-125 -132.5t-163.5 -108t-188.5 -59q-56 -7 -94.5 15.5t-48.5 59.5t10.5 83.5t71.5 83.5q51 38 147.5 76.5t192.5 70.5t127 48q56 129 70.5 219.5t-14 145.5t-106 65
t-204.5 -23q-12 22 -16.5 35t0.5 25.5t10.5 18.5t24.5 23.5t32 30.5q116 119 213 300t100 294q3 131 -110 137q-51 2 -103 -22t-95 -68.5t-63 -118t-4 -161.5q-26 -6 -31.5 -1.5t-8.5 38.5q-9 91 19 164.5t80.5 117.5t115.5 67.5t129 24.5q97 0 155.5 -49.5t52.5 -138.5
q-5 -90 -76.5 -222.5t-173.5 -251.5t-196 -183q146 36 238 17t134.5 -82.5t42 -153t-39.5 -193.5q32 19 62 45t52.5 50.5t46.5 60.5t39 61t35.5 68t30 65.5t29 69t26.5 63.5zM45 -330q86 12 204.5 122t180.5 228q-24 -11 -114.5 -40t-177 -63.5t-130.5 -68.5
q-48 -37 -62 -82t12.5 -74t86.5 -22z" />
    <glyph glyph-name="bracketleft" unicode="[" horiz-adv-x="503" 
d="M403 -162q21 3 24.5 -2.5t4.5 -48.5q-86 -2 -258 -2q-15 0 -31.5 -0.5t-25.5 -2t-18.5 -0.5t-13.5 0t-8.5 4t-5.5 6t-2.5 11.5t-1 15.5t0.5 23v29l16 1485q-1 85 21.5 105.5t105.5 23.5q4 0 57 0.5t104 1t52 0.5q5 -4 8 -53l-201 -2l-30 -1538q-6 -40 -25 -66z" />
    <glyph glyph-name="backslash" unicode="\" horiz-adv-x="808" 
d="M215 1227l520 -1290q-11 0 -19.5 1.5t-15.5 6.5t-11.5 8.5t-10.5 14.5t-9.5 17.5t-11.5 24.5t-14 29l-573 1311q62 -2 89 -24t56 -99z" />
    <glyph glyph-name="bracketright" unicode="]" horiz-adv-x="487" 
d="M311 1419l-227 -10q-21 -3 -24.5 2.5t-4.5 48.5q86 2 258 2q15 0 31.5 0.5t25.5 2t18.5 0t13.5 0t9 -3.5t6 -5.5t2.5 -12t1 -15.5t-0.5 -23v-29l-17 -1485q1 -85 -21.5 -105.5t-105.5 -23.5q-6 0 -110 -1l-103 -1q-5 4 -8 54l201 2l31 1538q6 40 24 65z" />
    <glyph glyph-name="asciicircum" unicode="^" horiz-adv-x="600" 
d="M479 1034q32 -47 31 -58q0 -11 -26 -34q-23 -20 -38 -35l-131 193l-104 -137q-7 -9 -16 -23q-10 -15 -16 -14q-5 1 -20 13q-4 3 -7 5l190 252l16 21l15 -23z" />
    <glyph glyph-name="underscore" unicode="_" horiz-adv-x="913" 
d="M727 -2q44 3 50 -2.5t11 -48.5l-636 -4q-31 3 -41 9.5t-11 31.5z" />
    <glyph glyph-name="a" unicode="a" horiz-adv-x="798" 
d="M858 610l33 -22q-14 -27 -45.5 -93.5t-58.5 -124t-66 -128t-74 -120t-76.5 -85t-78.5 -37.5q-58 5 -99 35t-61 71.5t-28 98t-6.5 107.5t9.5 108q-98 -196 -186 -203q-71 -5 -103 82q-35 93 -4 216q34 139 128 201q61 39 137 36q57 -2 102.5 -30.5t64.5 -88.5
q-14 -5 -19.5 -6t-10.5 5t-7 12.5t-9 17.5t-17 20q-33 26 -66 29q-46 3 -85 -41.5t-61.5 -110t-35.5 -131.5t-12.5 -112.5t12.5 -47.5q34 -1 79.5 68t74 135t45.5 115q31 -6 75 -12q28 -4 38 -6t16.5 -13.5t4.5 -28t-8 -54.5q-3 -20 -5 -32q-7 -52 -10.5 -85.5t-8 -87
t-3.5 -88t5.5 -69.5t17.5 -51.5t33 -15.5q36 2 79 46t87 120t78 142t73.5 151t51.5 108z" />
    <glyph glyph-name="b" unicode="b" horiz-adv-x="841" 
d="M903 600l31 -20q-28 -66 -74 -145.5t-109.5 -164t-132 -153.5t-146 -114t-146.5 -46q-85 0 -127 55q-21 28 -24.5 53t5.5 37t21 11q23 0 26 -39q69 9 117 133.5t46 243.5t-56 114q-24 -3 -55 -45q-13 -18 -25.5 -43.5t-23 -50.5t-22 -60t-19 -59t-17 -61t-13.5 -53
t-11.5 -48t-8.5 -34q-30 5 -72 9q-55 5 -62.5 18.5t0.5 87.5q3 29 5 46q9 91 20 184.5t30 215.5t41 229.5t54 215t67 184.5t81.5 125t97.5 49q73 3 70 -122q-2 -133 -79 -314q-80 -185 -173 -257l-6 -4q-30 -211 -55 -452q53 160 96 221q44 67 111 67q99 1 139 -98
q40 -97 6 -225q-38 -138 -137 -209q-63 -45 -140 -51q31 -31 95 -31q64 2 137.5 47t138 112t125.5 148.5t104.5 156.5t69.5 136zM403 1432q-92 -3 -182 -598q72 60 146 239q73 176 75 286q1 74 -39 73z" />
    <glyph glyph-name="c" unicode="c" horiz-adv-x="585" 
d="M645 600l33 -20q-27 -58 -61 -120.5t-85 -140.5t-101.5 -138t-110 -101t-111.5 -41q-70 3 -119 46.5t-68 110.5t-22 147t18 159.5t53 145.5t82.5 108t106.5 43q37 3 66.5 -27t36.5 -91.5t-35 -154.5q-5 4 -12 10t-9 7.5t-5 5t-2.5 4.5t0.5 5.5t2 7.5t4.5 10.5t4.5 15.5
q16 54 11 90t-22 54.5t-38 15.5q-58 -9 -96.5 -176.5t-28 -331.5t71.5 -162q57 0 125.5 58.5t129.5 147.5t105.5 167t75.5 145z" />
    <glyph glyph-name="d" unicode="d" horiz-adv-x="993" 
d="M1057 625l28 -25q-9 -15 -45.5 -77.5t-58.5 -100t-65 -104t-75.5 -110t-78.5 -97t-85 -85.5t-84.5 -55t-86.5 -24q-76 1 -124 64.5t-64.5 164t-10.5 234.5q-105 -202 -198 -209q-80 -7 -113 82q-33 90 -1 211q35 132 124 192q56 37 125 35q61 -3 96 -49
q28 149 75.5 287.5t106 247t129.5 167.5t140 45q106 -14 27 -208q-64 -159 -203 -343q-70 -92 -119 -135q-20 -93 -35 -183t-24 -173.5t-10 -154t6 -123t25 -81.5t46 -28q38 1 80.5 23.5t79.5 54t80.5 82.5t75.5 94.5t72.5 106.5t63.5 101.5t56.5 96.5t44.5 76zM786 1376
q-44 6 -95.5 -75.5t-97 -211.5t-83.5 -292l2 2q111 115 233.5 340.5t40.5 236.5zM317 524q3 39 13 90q-23 57 -58 60q-53 4 -102.5 -105t-59 -204t10.5 -113q30 -3 72 49t71.5 109.5t52.5 113.5z" />
    <glyph glyph-name="e" unicode="e" horiz-adv-x="571" 
d="M633 600l31 -20q-26 -59 -77 -135.5t-113.5 -149.5t-133.5 -124t-125 -52q-136 -5 -189 121q-47 113 -11 269q34 152 123 235q67 63 145 61q59 -2 74 -54q16 -54 -23 -109q-50 -72 -149 -70q-8 0 -17 1q-10 -37 -18.5 -100t-11.5 -136t15.5 -124.5t59.5 -50.5
q49 1 115.5 51t125.5 120t107.5 142.5t71.5 124.5zM299 766q-25 0 -61 -45.5t-58 -104.5q83 -8 126 56q28 42 17 76q-7 18 -24 18z" />
    <glyph glyph-name="f" unicode="f" horiz-adv-x="645" 
d="M737 588q-20 -67 -71.5 -160.5t-116 -183t-140.5 -158t-137 -80.5q18 -51 33.5 -148.5t21 -210.5t0 -215t-34 -168t-77.5 -63q-115 -2 -175.5 221.5t-51.5 543t56.5 639t151.5 542t230 219.5q103 -3 63 -173q-37 -152 -154 -344q-86 -140 -147 -187q-43 -308 -59.5 -632
t5 -551.5t81.5 -232.5q24 -2 41 31t24.5 89t10 126.5t-1.5 146t-11.5 145.5t-18 126.5t-21.5 87.5q-45 -4 -66.5 15t-19.5 46q1 14 7.5 25.5t17 16.5t23 3.5t27.5 -17t29 -42.5q69 9 168.5 115.5t177.5 233t103 210.5zM422 1323q-67 0 -123.5 -160.5t-97.5 -427.5
q54 50 141 211q112 208 120 313q4 65 -40 64z" />
    <glyph glyph-name="g" unicode="g" horiz-adv-x="792" 
d="M852 606l33 -20q-48 -114 -86 -190t-91 -153.5t-92 -127t-131 -160.5q-4 -47 -9 -89.5t-16.5 -121.5t-25.5 -143.5t-37.5 -139t-50 -125.5t-65 -86t-82.5 -36q-52 -2 -77 70.5t-3 187.5q23 111 77.5 205t139.5 196q11 151 47 612q-19 -66 -41 -119.5t-50 -101t-62.5 -73
t-71.5 -23.5q-107 4 -143 122q-35 114 7 265q41 150 128 222q53 44 112 44q83 0 100 -94q-6 -1 -13 -3t-9 -2.5t-5.5 -1t-4 0.5t-2 2t-2.5 4l-2 6t-3.5 8l-5.5 11q-13 23 -39 26q-50 6 -93 -139q-44 -147 -48 -301q-3 -124 29 -123q46 -7 91 59.5t76 167.5t50 183.5
t27 138.5q26 -2 65 -3q20 -1 28 -1t19 -3t13.5 -5.5t6.5 -12t3.5 -17.5t-1.5 -27t-3 -37q-1 -9 -1.5 -14t-1 -13.5t-1.5 -16.5q0 -2 -43 -589q14 18 50.5 64.5t46 59l38 50t37 50.5t31 46t32.5 51.5t28.5 51t31.5 61.5t30 66.5t35 80.5zM201 -739q32 -1 56 45t36.5 121.5
t19.5 144t11 143t6 88.5q-141 -172 -176 -348q-16 -91 -0.5 -142.5t47.5 -51.5z" />
    <glyph glyph-name="h" unicode="h" horiz-adv-x="866" 
d="M926 600l32 -16q-1 -3 -5.5 -16t-9.5 -27.5t-9 -28.5q-39 -107 -70 -184.5t-78 -180t-87 -166.5t-88.5 -109.5t-92.5 -43.5q-54 6 -85.5 40.5t-38 86.5t-3 117t19.5 133t31 134.5t30 120t17 90.5t-8 46q-23 10 -60.5 -23.5t-82.5 -103t-78 -125.5t-74.5 -132.5
t-44.5 -82.5q-20 3 -46 6.5t-36.5 4t-25.5 5t-18.5 6t-9.5 11.5t-5 16t0.5 24.5t2.5 32.5t6.5 45t6.5 58q9 92 20.5 183.5t30 210t40.5 221t52.5 205t65 175.5t79 118.5t93.5 45.5q76 4 68 -128q-10 -138 -93 -321q-79 -172 -159 -235q-42 -307 -63 -592q23 43 35.5 64.5
t39.5 69.5t45.5 76t45.5 69t48.5 64.5t45.5 45.5t45 29.5t39 1.5q45 -14 67.5 -64t22 -118t-9 -148.5t-25.5 -156t-28 -141t-15.5 -102t12.5 -40.5q31 -1 65 26.5t69 82.5t66 114t66.5 143.5t59.5 146t55 146.5q5 11 14 35t13 35zM399 1456q-92 -5 -178 -584q70 66 143 244
q75 182 72 281q-2 60 -37 59z" />
    <glyph glyph-name="i" unicode="i" horiz-adv-x="475" 
d="M141 924q-29 0 -45 24t-10 58q7 35 32 58t54 23q28 0 43.5 -23t9.5 -58q-6 -34 -30.5 -58t-53.5 -24zM537 602l30 -22q-27 -58 -67.5 -125.5t-94.5 -143t-115 -124t-112 -46.5q-36 1 -65 15.5t-48 37t-32.5 57t-20.5 67.5t-10 78.5t-2.5 81.5t4 83.5t6.5 76.5t8 69
q4 33 6.5 49t8.5 29t10 15.5t17 2t24.5 -5.5t36.5 -12t49 -13q-45 -320 -40 -455q5 -133 50 -135q43 -1 99 47t107 120.5t89.5 137.5t61.5 115z" />
    <glyph glyph-name="j" unicode="j" horiz-adv-x="417" 
d="M479 606l31 -20q-102 -246 -182 -388t-222 -311q-4 -47 -9 -90t-16.5 -122.5t-25.5 -144t-37.5 -139t-50 -125.5t-65 -86t-82.5 -36q-52 -2 -76 70t-2 188q23 111 77 205.5t138 197.5q50 639 66 824q0 6 1 18q6 90 16 105q10 16 48 11q6 -1 22 -3q37 -6 62 -8
q-34 -457 -59 -797q130 166 200 294t166 357zM-178 -809q33 0 57 45.5t37 123t19.5 142.5t10.5 144.5t5 87.5q-142 -173 -176 -348q-16 -90 -0.5 -142.5t47.5 -52.5zM119 897q-29 0 -45.5 24t-10.5 58q6 35 30.5 59.5t53.5 24.5t45.5 -24.5t10.5 -59.5q-6 -34 -31 -58
t-53 -24z" />
    <glyph glyph-name="k" unicode="k" horiz-adv-x="735" 
d="M799 596l32 -14q-74 -252 -151 -424q-134 -286 -242 -289q-46 0 -78 25t-47 66t-22.5 91t-7 99.5t2 90.5t0.5 66t-7 25q-31 -1 -89.5 -113.5t-74.5 -167.5q-98 14 -108 17q-26 9 -27 37q-1 10 10 116q1 10 2 19q8 88 18.5 178t29 206t39.5 218.5t52 204t65.5 174.5
t80.5 118.5t96 46.5q75 3 69 -120q-7 -128 -87 -299q-78 -166 -162 -228q-35 -246 -62 -540q73 144 260 399q5 7 13 19q16 23 23 23q5 0 25 -22q3 -4 5 -6l-170 -235h2q49 2 79 -36t39.5 -97.5t12.5 -120.5t6.5 -118.5t13.5 -78.5q18 -37 89 55q67 85 118 197
q62 134 152 418zM375 1343q-92 -3 -174 -550q57 42 129 199q79 173 84 278q4 74 -39 73z" />
    <glyph glyph-name="l" unicode="l" horiz-adv-x="706" 
d="M768 625l31 -25q-4 -6 -37.5 -61.5t-48 -79t-53 -83.5t-61.5 -92.5t-63.5 -87t-70 -86t-69.5 -71.5t-73 -62t-70.5 -38t-70.5 -17q-78 1 -123 69.5t-54.5 182.5t2 246t42.5 278q31 144 72 269t92.5 226t114.5 153.5t129 39.5q103 -19 45 -206q-49 -155 -172 -334
q-87 -127 -142 -162q-29 -133 -47 -257t-23 -229t10 -168.5t52 -64.5q57 2 127.5 53.5t124.5 110.5t127.5 165.5t104 156t86.5 144.5q4 7 6.5 10.5t5.5 9.5t6 10zM455 1343q-33 4 -67.5 -44.5t-67.5 -141t-60 -188.5t-57 -221q71 59 166 226q106 188 118 296q7 67 -32 73z
" />
    <glyph glyph-name="m" unicode="m" horiz-adv-x="1286" 
d="M1348 608l30 -26q-46 -77 -117 -181.5t-164 -229t-179.5 -208t-133.5 -80.5q-137 7 -105 246q12 89 72 315q44 170 35 206q-5 20 -22 18q-102 -12 -344 -531q-42 9 -61.5 43t-18 80.5t11.5 101t25 107t25 96t8.5 71t-21.5 28.5q-25 2 -61 -38t-73.5 -106.5t-70 -131
t-65.5 -132.5t-45 -90q-23 8 -57 19q-50 15 -56 29.5t8 86.5q5 24 8 39q11 53 25 123l24.5 122.5t20.5 100.5q6 30 10 46.5t11 27.5t12 14t17.5 1.5t23.5 -5.5t34.5 -11.5t45.5 -13.5q-14 -71 -92 -423q9 17 35 66t40.5 75.5t40 71t44.5 69.5t42.5 52.5t45.5 39.5t42 11
q40 -1 67 -16t39.5 -42.5t16.5 -59t-1.5 -74.5t-14 -80t-21.5 -83q50 97 95 171t100 133.5t94 58.5q147 -4 110 -274q-13 -90 -71 -321q-41 -160 -30 -186q5 -11 18 -8q51 14 170 157t220 287.5t157 237.5z" />
    <glyph glyph-name="n" unicode="n" horiz-adv-x="874" 
d="M938 596l29 -25q-10 -16 -50.5 -85t-68.5 -115t-74.5 -118.5t-84 -122t-79 -98t-77.5 -73t-64 -22.5q-60 3 -88.5 44.5t-28 105.5t13.5 140.5t32.5 152t34 137t13.5 98.5t-26 34q-112 -12 -309 -430q-13 -34 -17 -39q-29 11 -70 23q-22 6 -30.5 9t-16.5 10t-7.5 16
t2.5 26t7 42q3 15 5 24q14 75 39 206t26 138q7 36 10 51.5t10 30.5t10.5 17.5t16.5 2.5t23 -5t35 -13.5t47 -14.5q-45 -210 -90 -438q35 70 66.5 126.5t76 122.5t90 102.5t86.5 35.5q148 -4 119 -252q-9 -81 -60 -289q-34 -143 -21 -165q5 -9 17 -6q23 6 54.5 33.5t70 77.5
t71 94.5t77.5 116.5t68 109t65 107t47 78z" />
    <glyph glyph-name="o" unicode="o" horiz-adv-x="550" 
d="M614 602l29 -24q-20 -34 -45 -69t-59.5 -72t-69 -63.5t-74.5 -39.5t-76 -4q-77 -218 -196 -215q-74 1 -111 55t-37.5 133t14.5 156t40 137q11 26 18 40.5t15.5 23t14 10t17.5 -4t20.5 -12t28.5 -21.5t37 -26q-28 -42 -58 -174q-45 -196 -7 -252q12 -18 32 -18q36 0 78 60
t62 122q-50 34 -75.5 124t-11.5 165t62 72q32 -2 51.5 -42.5t23.5 -97t2.5 -107t-7.5 -83.5q36 -8 79 13t82 60t69 78t52 76zM297 391q5 31 7 90.5t-8 119t-34 61.5q-23 -1 -26.5 -59t14 -124.5t47.5 -87.5z" />
    <glyph glyph-name="p" unicode="p" horiz-adv-x="802" 
d="M862 602l33 -20q-37 -88 -100 -181.5t-143 -176t-176.5 -128t-184.5 -28.5q-56 10 -86 51q-13 17 -19.5 33.5t-6 28t4 20.5t10 13.5t13.5 4.5q23 0 26 -39q66 8 116 134q48 120 47 242q0 111 -47 116h-5q-33 -1 -65 -33t-55.5 -82.5t-40 -96t-27.5 -89.5
q-5 -131 -16.5 -253.5t-31 -255t-50.5 -241t-71.5 -196.5t-98 -137.5t-126.5 -49.5q-38 0 -60.5 39t-23 100t12 129t45 134.5t76.5 107.5q34 31 47.5 30.5t23.5 -32.5q-47 -22 -85 -76t-57 -117t-26 -123.5t5.5 -102.5t39.5 -46q52 -7 94.5 66t68.5 205.5t45 282t28 324.5
t13 303t5 245q1 84 6 95q6 14 37 13q83 -3 101 -2q5 -90 2 -307q81 206 182 209q123 10 169 -93q42 -93 5 -223q-38 -133 -135 -207q-64 -49 -141 -55q26 -23 57 -28q65 -12 137.5 15.5t135 80.5t121.5 122.5t101.5 140t69.5 134.5z" />
    <glyph glyph-name="q" unicode="q" horiz-adv-x="692" 
d="M602 -295q39 -76 46 -189t-17 -194q-33 -119 -105 -123q-44 -2 -79.5 18t-58.5 61.5t-39.5 93t-23.5 122.5t-10 139.5t0.5 154t8 156.5t14 156.5t16.5 144t17 128.5q-110 -229 -205 -232q-111 7 -149 129q-38 118 7 278q44 160 142 245q77 67 166 61q55 1 86.5 -36.5
t32 -89.5t-16.5 -107q-7 -25 -18 -41q-6 5 -12.5 11t-8.5 7t-4.5 4.5t-2 4.5t1.5 4.5t3 6.5t4.5 10t5.5 15q11 40 12 78t-20.5 64.5t-62.5 25.5q-73 -6 -135 -176q-57 -154 -67 -317q-8 -133 29 -136q2 -1 5 0q23 1 47 18.5t47 51t41 63t39 76.5t29.5 67t23.5 58
q4 12 9 17.5t17 5t23.5 -3t39 -9t52.5 -10.5q-3 -23 -17.5 -121t-28.5 -205.5t-30 -244.5t-21 -257.5t-1.5 -224t28 -164t68.5 -59.5q19 2 36.5 22.5t27.5 57.5q16 61 18 137.5t-16 153.5t-57 119q19 21 31.5 16t31.5 -41z" />
    <glyph glyph-name="r" unicode="r" horiz-adv-x="628" 
d="M688 602l33 -22q-6 -12 -37.5 -76.5t-63 -126t-76 -146t-87 -154.5t-86 -133t-83 -98.5t-67.5 -35.5q-66 0 -101.5 41.5t-40.5 102.5t4 139t26 144t32.5 125.5t16.5 75.5q2 33 -11.5 60t-34 45t-43.5 39.5t-41 43t-25.5 57t3.5 79.5q7 35 32.5 72.5t51.5 37.5
q10 1 20 -4.5t20.5 -18t19.5 -23.5t22.5 -30.5t22.5 -31.5q-55 -20 -70 -82q-7 -35 -2.5 -57t18.5 -41t32 -31t37.5 -29t35.5 -34t25.5 -46t7.5 -65q-1 -15 -15 -76.5t-29 -133t-27 -143t-8.5 -118.5t25.5 -47q17 0 42 21.5t54.5 62.5t60 87.5t65.5 109t63.5 114t61.5 115.5
t51.5 100.5t41 82.5t23.5 48z" />
    <glyph glyph-name="s" unicode="s" horiz-adv-x="557" 
d="M649 571q-100 -131 -176.5 -205t-183.5 -128q15 -111 -4.5 -200t-60.5 -138.5t-91.5 -71.5t-99.5 -12q-51 13 -79 49.5t-20 97.5q9 73 69 140.5t149 111.5q-12 66 -49 173t-57 199t-5 177q14 80 65 111q41 25 68 -4q24 -26 19 -83q-7 -64 -52 -145q11 -23 20.5 -46
t17 -39.5t17.5 -43t14.5 -38t16.5 -45t15.5 -43t19 -52.5t19.5 -55q101 52 176.5 126t163.5 193zM162 799q7 47 -13 49q-17 2 -31 -30q-22 -52 5 -128q33 67 39 109zM49 -141q28 -2 50 11t41.5 47.5t23 96t-5.5 158.5q-72 -36 -128 -98.5t-59 -122.5q-2 -34 21.5 -61.5
t56.5 -30.5z" />
    <glyph glyph-name="t" unicode="t" horiz-adv-x="712" 
d="M772 602l33 -22q-36 -76 -77.5 -154.5t-106 -181t-126.5 -180.5t-136 -135t-138 -62q-48 2 -85.5 25t-62 65t-41.5 95t-23 123t-8 139t4.5 154t13.5 158.5t19.5 160t23 151t24.5 139.5q-57 24 -98 34.5t-79.5 8.5t-62.5 -28.5t-32 -77.5q-32 14 -19 63q11 38 33 59.5
t48.5 28t64 1.5t72.5 -16t81 -30q14 66 17 80q4 23 9 49.5t6 38.5t5.5 26.5t6 18.5t8.5 9.5t11.5 4t18 -4t24.5 -7t33 -11.5t43 -13q-3 -19 -47 -250q55 -24 91.5 -38.5t85 -29.5t83 -15.5t69.5 6.5t61 33t43 68q43 -21 -7 -88q-27 -35 -65.5 -51t-77.5 -16.5t-92.5 14
t-96 31t-100.5 43.5q-15 -87 -28 -170.5t-27 -183t-23 -187.5t-15 -176.5t-3.5 -158.5t11 -124t29 -82.5t50.5 -25.5q50 4 106.5 42.5t110 101t104 133.5t96.5 152.5t78.5 143.5t59.5 119z" />
    <glyph glyph-name="u" unicode="u" horiz-adv-x="823" 
d="M887 604l28 -24l-10 -17q-23 -40 -45 -76t-66.5 -107.5t-84.5 -126.5t-84.5 -110t-82 -82t-61.5 -20q-48 3 -80 30.5t-46.5 68.5t-18.5 97.5t0 108.5t14 111q-108 -243 -192 -238q-238 4 -115 508q7 29 11.5 45t11.5 26.5t12 12.5t17.5 -0.5t23 -8.5t33.5 -16t45 -18
q-1 -2 -9 -33.5t-13.5 -56t-15.5 -68t-15.5 -78t-12 -76.5t-7.5 -73.5t1 -59.5t11.5 -43.5t25.5 -17.5q27 2 56.5 35t57 87t48.5 102.5t43.5 106t29.5 73.5q20 -7 40 -12.5t32 -7.5t23.5 -7t17 -5t9.5 -7t5 -9t0 -14.5t-3 -19.5t-7 -28.5t-8 -37.5q-89 -418 -17 -436
q74 -19 388 506z" />
    <glyph glyph-name="v" unicode="v" horiz-adv-x="673" 
d="M745 602l21 -27q-5 -6 -18 -22q-127 -155 -207 -206q-111 -70 -164 18q-89 -200 -144 -277q-56 -77 -98 -76q-49 0 -80 44.5t-42.5 111.5t-12 157.5t7 171t19.5 162.5q5 31 8.5 48t10.5 29t11.5 15t18 1t24 -7t35 -15t45.5 -17q-9 -34 -23.5 -132.5t-27.5 -216.5t-8 -208
t35 -90q24 -1 70 74.5t82 155t50 122.5q-7 21 -8 63t5 84.5t25.5 69.5t49.5 18q51 -14 -33 -241q35 -129 214 41q61 58 134 149z" />
    <glyph glyph-name="w" unicode="w" horiz-adv-x="1044" 
d="M1108 610l29 -22q-13 -21 -31.5 -47t-46.5 -64t-58.5 -72t-64.5 -69t-67 -57.5t-64 -34t-58.5 -2t-46.5 40.5q-60 -137 -96 -190q-58 -84 -110 -81t-84 41.5t-42 102.5t-9.5 129.5t10.5 140.5q-160 -406 -244 -406q-45 0 -73.5 30.5t-39 84.5t-12.5 115.5t7 137t19 134.5
t23 121q18 88 28 100q11 13 44 0q82 -33 84 -34q-91 -385 -101 -530q-7 -111 23 -113q26 -2 70.5 72t91 189t73 184t44.5 122q18 -7 45.5 -17t35 -12.5t21.5 -11t15 -13t4 -17t0.5 -25t-7.5 -35.5q-19 -88 -32.5 -172.5t-13.5 -170t26 -102.5q10 -6 23 0t27 24t27.5 38
t28.5 49.5t25.5 51.5t22.5 51t17 40t11 27q-8 27 -8.5 75t6.5 95t28 77.5t52 22.5q18 -4 18.5 -41.5t-12.5 -86.5t-25.5 -89t-21.5 -59q32 -115 178 17q95 86 182 214q21 30 29 47z" />
    <glyph glyph-name="x" unicode="x" horiz-adv-x="727" 
d="M788 604l31 -20l-20 -45q-28 -59 -57 -114.5t-76 -130.5t-92 -130t-100.5 -96.5t-106.5 -47.5q-125 -16 -213 146q-90 -104 -181 -146q-10 34 -6.5 41.5t41.5 32.5q57 39 125 113q-78 177 -94 422q-4 41 -3 66.5t5.5 39.5t18 19t35.5 4.5t58 -3.5q19 -2 29 -3
q-5 -59 6 -186.5t35 -241.5q122 179 191 378q26 -12 27 -24t-17 -57q-77 -193 -188 -351q55 -207 131 -207q48 0 109 55.5t118 142t99 160.5t73 140q11 24 22 43z" />
    <glyph glyph-name="y" unicode="y" horiz-adv-x="911" 
d="M971 606l33 -20q-24 -56 -52 -110t-50.5 -94t-59.5 -91.5t-57 -79t-65.5 -81t-62 -72.5t-70.5 -78.5t-69 -75.5q-4 -46 -9 -90.5t-17 -122.5t-26.5 -143.5t-37.5 -139.5t-50 -125.5t-65.5 -86.5t-81.5 -36q-52 -2 -77.5 71.5t-3.5 188.5q22 109 76.5 202t140.5 200
q12 156 25.5 329t21.5 273q-18 -60 -35 -108t-41.5 -102t-49.5 -89.5t-58 -59.5t-68 -24q-59 -1 -96 35t-51 92t-14 133.5t9 147t25 145.5q2 8 5 24q18 88 29 103q12 15 49 3q8 -2 27 -9q39 -13 66 -21q-14 -46 -35 -135t-42 -203t-16 -194.5t46 -77.5q28 2 54.5 23t50 60
t42.5 79t38.5 97.5t31.5 96.5t27.5 94t21.5 74q27 -2 67 -3q55 -2 63 -14t1 -84q-3 -30 -4 -48q-7 -93 -33 -488q34 41 103 119.5t102.5 120t83 108.5t87 136t71.5 151zM231 -793q24 0 43.5 24.5t32 67.5t21.5 92.5t14.5 108t8.5 103.5t5.5 89.5t3.5 57.5
q-144 -180 -174 -348q-15 -95 -1 -145t46 -50z" />
    <glyph glyph-name="z" unicode="z" horiz-adv-x="610" 
d="M702 590q-42 -169 -126.5 -341t-186.5 -267q45 -215 -78 -396q-80 -119 -196 -176q-103 -50 -162 -18q-45 24 -43 92q2 49 27.5 103t60 98t86 93.5t90.5 81t88 68.5q6 125 -41 181t-117 28q-8 7 -19 16.5t-14.5 12t-7.5 8.5t-3.5 7t2.5 8t6 10t11.5 14t14.5 20
q127 194 129 265q1 23 -14 36.5t-39 19.5t-53.5 11t-58.5 15.5t-52.5 28.5t-37 54.5t-11.5 88.5q0 50 43 53q16 0 52.5 -10.5t51.5 -12.5q-32 -72 -23.5 -113t38.5 -54t74.5 -17t86 -2.5t73 -9.5t34.5 -39q3 -27 -14 -65.5t-49.5 -82t-61 -78.5t-66.5 -77.5t-49 -55.5
q74 9 137.5 -34.5t92.5 -128.5q93 89 172.5 254t118.5 321zM-51 -504q-2 -56 39 -67q49 -12 110 49q107 106 149 338q5 28 9 57q-46 -35 -93.5 -77t-97.5 -95t-82.5 -107.5t-33.5 -97.5z" />
    <glyph glyph-name="braceleft" unicode="{" horiz-adv-x="538" 
d="M225 633q44 -71 70 -181.5t36 -212.5t34.5 -231.5t62.5 -224.5q-11 -12 -24 -7t-23.5 17t-28.5 41q-46 73 -78 166.5t-49.5 179.5t-34.5 169t-44 158t-66 124q28 37 47 109t32 159t29 179t49 191t82 173q26 40 40 50t34 -3q-36 -77 -55.5 -182.5t-25.5 -203t-12 -190.5
t-23.5 -168t-51.5 -112z" />
    <glyph glyph-name="bar" unicode="|" horiz-adv-x="317" 
d="M133 1227q-3 77 15 99t79 24l-47 -1311q-1 -12 -2.5 -29t-2 -24.5t-2.5 -17.5t-5 -14t-8 -9t-12.5 -6.5t-18.5 -1.5z" />
    <glyph glyph-name="braceright" unicode="}" horiz-adv-x="466" 
d="M283 639q-44 71 -70 181.5t-36 212.5t-34.5 231.5t-62.5 224.5q11 12 24 7t23.5 -17t28.5 -41q46 -73 78 -166.5t49.5 -179.5t34.5 -169t44 -158t66 -124q-28 -37 -47 -109t-32.5 -159t-29.5 -179t-49 -191t-82 -173q-26 -41 -39.5 -50.5t-33.5 3.5q36 77 55.5 182.5
t25.5 203t12 190.5t23.5 168t51.5 112z" />
    <glyph glyph-name="asciitilde" unicode="~" horiz-adv-x="813" 
d="M739 690q12 -26 7.5 -36t-39.5 -40q-65 -53 -111.5 -80.5t-71 -36t-42 6t-22 26t-12.5 42.5q-8 28 -13 41.5t-22 26.5t-42 6t-71 -34t-110 -80q-14 18 -12 29.5t29 38.5q188 177 238 156q20 -9 30 -63q10 -62 25 -80q47 -58 233 73z" />
    <glyph glyph-name="exclamdown" unicode="&#xa1;" horiz-adv-x="352" 
d="M209 1012q1 10 1.5 27t1 22t3 14.5t6.5 12t11.5 5t19.5 3.5l10 -1073l-3 -30t-1.5 -24t-4.5 -17t-5.5 -14t-11 -7.5t-15.5 -6t-24.5 -2t-31.5 -2.5h-44zM213 1186q-32 0 -49.5 26.5t-11.5 65.5q8 38 35 65t59 27t50 -27t11 -65q-6 -38 -34 -65t-60 -27z" />
    <glyph glyph-name="cent" unicode="&#xa2;" horiz-adv-x="860" 
d="M502 39q101 29 190 106q3 -5 8 -14q13 -22 12 -27.5t-20 -18.5q-11 -8 -18 -13q-68 -54 -172 -74v-10q-3 -65 -10 -85.5t-33 -21.5v111q-2 0 -7.5 -1t-7.5 -1q-171 -12 -263 162q-84 160 -73 410q10 249 108 439q98 187 245 230v1q-3 90 4 104q6 11 37 13h4q5 1 8 1
l-2 -109q10 2 27 2q75 1 125.5 -32.5t66 -80t6 -96.5t-44.5 -82q-16 -15 -27 -16.5t-15.5 2.5t-18.5 20q40 19 59.5 63t13.5 87.5t-49 75t-114 26.5q-9 0 -29 -4zM459 31l2 1151q-79 -54 -137 -192t-77 -300.5t-10 -315t64.5 -251.5t144.5 -94q2 0 6.5 1t6.5 1z" />
    <glyph glyph-name="sterling" unicode="&#xa3;" horiz-adv-x="995" 
d="M848 84q16 -33 13 -48.5t-34 -29.5q-41 -20 -80.5 -29.5t-71.5 -12t-71 6.5t-65.5 17.5t-68.5 30.5t-66 36.5t-72 44.5q-39 -25 -100 -35.5t-109.5 4.5t-46.5 58q2 34 33 49.5t72 14t80.5 -11t62.5 -21.5q49 49 70 156.5t36 293.5l-139 -2q-22 3 -29 9.5t-8 31.5l180 6
q7 79 12 129t15.5 121.5t23 116t33.5 94.5t47.5 77.5t64 44t83.5 13.5q26 -1 39.5 -19t13.5 -44q0 -34 -27 -90q-6 -12 -10 -18.5t-8.5 -7.5t-7 0t-10 5t-13.5 6q47 58 47 103q0 33 -26 35q-25 2 -44 -12.5t-31 -46t-19.5 -68t-12.5 -92.5t-8 -104t-7.5 -118t-8.5 -121
l127 5q32 3 36 -2t7 -50l-175 -2q-20 -176 -65.5 -299t-136.5 -182q60 -39 96 -59t84 -37.5t88.5 -15.5t93 18t113.5 51zM117 127q-5 -30 35 -35q50 -7 110 20q15 7 25 15q-24 12 -58.5 22t-70.5 7.5t-41 -29.5z" />
    <glyph glyph-name="yen" unicode="&#xa5;" horiz-adv-x="960" 
d="M784 340q22 3 25 -2t6 -49l-125 -2q-99 -305 -307 -316q-75 -4 -119 23t-52 68.5t4 87t40 83.5q29 37 44 40t38 -21q-27 -19 -52 -60.5t-36 -84t13 -73.5t87 -28q156 5 238 281l-90 -2q-15 3 -20.5 10t-6.5 31l129 6q12 42 18 80h-104q-15 2 -20.5 9t-6.5 32l140 6
q43 244 43 592q-9 -23 -39 -96t-48.5 -116.5t-50 -114t-55 -114.5t-51 -89.5t-52 -67t-44.5 -21.5q-51 1 -81.5 30.5t-39 80t-6 110t16 130.5t27.5 131t29 122t19 94q5 46 1 62t-20 18q-50 1 -116 -89.5t-88 -151.5q-23 6 -25.5 12t10.5 37q17 33 41.5 69.5t57.5 74.5
t72.5 62.5t76.5 24.5q69 0 72 -133q1 -35 -10.5 -116.5t-25.5 -166.5t-24.5 -168t-7.5 -137.5t25 -58.5q21 -3 59 55.5t80 150.5t81.5 185.5t74.5 176.5t47 106q6 17 30.5 19.5t84.5 -3.5q-1 -15 -4 -123t-7 -180.5t-15.5 -186.5t-29.5 -206l66 4q21 3 24 -3q2 -4 4 -50
h-104q-10 -44 -20 -76z" />
    <glyph glyph-name="questiondown" unicode="&#xbf;" horiz-adv-x="761" 
d="M342 -264q-88 7 -152 45t-93 94.5t-32 122t28 134t91 124.5q22 21 57.5 51t62 51.5t59 54t54 63t42 74t29 89.5t8 108t-14.5 132q24 8 37 -3t19 -51q9 -62 8 -117.5t-6.5 -97.5t-22 -84.5t-30 -69.5t-40 -62t-42 -52.5t-46 -50.5t-43.5 -47q-34 -38 -63.5 -94t-45 -119
t-12 -118.5t41 -94.5t108.5 -45q60 -3 113.5 18.5t89.5 59t60.5 86t32 96.5t-2 93t-37.5 75q10 12 17.5 17t16.5 5t18.5 -11.5t19.5 -35.5q18 -42 18 -93.5t-15 -101.5t-46 -97t-72.5 -81.5t-97.5 -53t-117 -13.5zM489 967q-32 0 -50 27t-11 65q6 38 34 65t60 27t50 -27
t12 -65q-8 -38 -35.5 -65t-59.5 -27z" />
    <glyph glyph-name="Agrave" unicode="&#xc0;" 
d="M1438 1669l94 -199q-13 -5 -21 -7t-13.5 -3t-11 4.5l-8.5 8.5t-11.5 15t-14.5 19l-143 187q10 5 28.5 16.5t27.5 14.5t22.5 2.5t25.5 -15t25 -43.5zM1864 612l34 -16q-97 -266 -143 -371q-188 -438 -330 -448q-73 -2 -123.5 39.5t-76 111t-35 169.5t-5 204.5t20.5 226.5
q-95 4 -239 78q-68 -103 -130.5 -187t-137 -165t-145 -135.5t-149 -86.5t-153.5 -30q-69 1 -122.5 26t-82.5 63t-40.5 85t-2.5 93t38 87t75 66q30 15 39 10.5t22 -35.5q-45 -18 -76 -51.5t-44 -72.5t-7.5 -80t28 -74.5t69.5 -55.5t110 -24q69 -1 141.5 30.5t137.5 84
t135.5 131t130 160t125.5 182.5q-60 32 -96 49t-94.5 33t-114.5 16t-92 -27.5t-35 -79.5q-33 2 -39 9q-8 9 0 37q12 46 54 72t99 26q62 0 129 -19t100 -34.5t107 -53.5q68 106 211.5 351.5t206.5 334.5q4 6 11.5 16.5t9.5 13.5t7.5 9t8.5 6t9 0.5t11.5 -2.5t14.5 -8
q2 -38 -11 -152t-36 -305.5t-37 -326.5q66 21 135 70q6 -7 8.5 -10t6 -7.5t4 -6.5t2 -4.5t0 -4t-1.5 -3t-4 -3.5t-6 -3.5t-7.5 -4.5t-9.5 -5q-70 -43 -131 -61q-9 -101 -14.5 -187t-8 -172.5t1.5 -153t14 -118.5t29.5 -78.5t46.5 -25.5q158 8 439 777q6 15 8 21zM1210 567
q30 218 84 434.5t86 294.5q-46 -70 -179 -300.5t-216 -360.5q128 -66 225 -68z" />
    <glyph glyph-name="Aacute" unicode="&#xc1;" 
d="M1446 1692q13 29 25 43.5t26 15t23 -3t28 -15t29 -16.5l-145 -186q-6 -7 -13 -17t-9.5 -14t-8 -8.5t-8.5 -5.5t-9 -1t-13 2.5t-17 6.5zM1864 612l34 -16q-97 -266 -143 -371q-188 -438 -330 -448q-73 -2 -123.5 39.5t-76 111t-35 169.5t-5 204.5t20.5 226.5
q-95 4 -239 78q-68 -103 -130.5 -187t-137 -165t-145 -135.5t-149 -86.5t-153.5 -30q-69 1 -122.5 26t-82.5 63t-40.5 85t-2.5 93t38 87t75 66q30 15 39 10.5t22 -35.5q-45 -18 -76 -51.5t-44 -72.5t-7.5 -80t28 -74.5t69.5 -55.5t110 -24q69 -1 141.5 30.5t137.5 84
t135.5 131t130 160t125.5 182.5q-60 32 -96 49t-94.5 33t-114.5 16t-92 -27.5t-35 -79.5q-33 2 -39 9q-8 9 0 37q12 46 54 72t99 26q62 0 129 -19t100 -34.5t107 -53.5q68 106 211.5 351.5t206.5 334.5q4 6 11.5 16.5t9.5 13.5t7.5 9t8.5 6t9 0.5t11.5 -2.5t14.5 -8
q2 -38 -11 -152t-36 -305.5t-37 -326.5q66 21 135 70q6 -7 8.5 -10t6 -7.5t4 -6.5t2 -4.5t0 -4t-1.5 -3t-4 -3.5t-6 -3.5t-7.5 -4.5t-9.5 -5q-70 -43 -131 -61q-9 -101 -14.5 -187t-8 -172.5t1.5 -153t14 -118.5t29.5 -78.5t46.5 -25.5q158 8 439 777q6 15 8 21zM1210 567
q30 218 84 434.5t86 294.5q-46 -70 -179 -300.5t-216 -360.5q128 -66 225 -68z" />
    <glyph glyph-name="Acircumflex" unicode="&#xc2;" 
d="M1561 1540q9 -13 19 -26t12 -17t5 -9t-2.5 -8.5t-10 -8.5t-18 -15.5t-26.5 -23.5l-131 190l-104 -137q-7 -9 -15 -20t-9 -13.5t-7.5 -2.5t-10.5 3t-18 14l178 236l17 22l14 -24zM1864 612l34 -16q-97 -266 -143 -371q-188 -438 -330 -448q-73 -2 -123.5 39.5t-76 111
t-35 169.5t-5 204.5t20.5 226.5q-95 4 -239 78q-68 -103 -130.5 -187t-137 -165t-145 -135.5t-149 -86.5t-153.5 -30q-69 1 -122.5 26t-82.5 63t-40.5 85t-2.5 93t38 87t75 66q30 15 39 10.5t22 -35.5q-45 -18 -76 -51.5t-44 -72.5t-7.5 -80t28 -74.5t69.5 -55.5t110 -24
q69 -1 141.5 30.5t137.5 84t135.5 131t130 160t125.5 182.5q-60 32 -96 49t-94.5 33t-114.5 16t-92 -27.5t-35 -79.5q-33 2 -39 9q-8 9 0 37q12 46 54 72t99 26q62 0 129 -19t100 -34.5t107 -53.5q68 106 211.5 351.5t206.5 334.5q4 6 11.5 16.5t9.5 13.5t7.5 9t8.5 6t9 0.5
t11.5 -2.5t14.5 -8q2 -38 -11 -152t-36 -305.5t-37 -326.5q66 21 135 70q6 -7 8.5 -10t6 -7.5t4 -6.5t2 -4.5t0 -4t-1.5 -3t-4 -3.5t-6 -3.5t-7.5 -4.5t-9.5 -5q-70 -43 -131 -61q-9 -101 -14.5 -187t-8 -172.5t1.5 -153t14 -118.5t29.5 -78.5t46.5 -25.5q158 8 439 777
q6 15 8 21zM1210 567q30 218 84 434.5t86 294.5q-46 -70 -179 -300.5t-216 -360.5q128 -66 225 -68z" />
    <glyph glyph-name="Atilde" unicode="&#xc3;" 
d="M1610 1534q-30 -35 -61 -49t-56.5 -10t-50.5 15.5t-48.5 23.5t-45 17.5t-44 -5t-42.5 -41.5q-4 4 -11 10t-9 8.5t-3.5 8.5t3 13.5t13.5 18.5q30 40 62 53t58.5 4t56.5 -22.5t56 -25.5t57.5 -5t60.5 39q12 -10 17.5 -16t2.5 -14t-4 -9t-12 -14zM1864 612l34 -16
q-97 -266 -143 -371q-188 -438 -330 -448q-73 -2 -123.5 39.5t-76 111t-35 169.5t-5 204.5t20.5 226.5q-95 4 -239 78q-68 -103 -130.5 -187t-137 -165t-145 -135.5t-149 -86.5t-153.5 -30q-69 1 -122.5 26t-82.5 63t-40.5 85t-2.5 93t38 87t75 66q30 15 39 10.5t22 -35.5
q-45 -18 -76 -51.5t-44 -72.5t-7.5 -80t28 -74.5t69.5 -55.5t110 -24q69 -1 141.5 30.5t137.5 84t135.5 131t130 160t125.5 182.5q-60 32 -96 49t-94.5 33t-114.5 16t-92 -27.5t-35 -79.5q-33 2 -39 9q-8 9 0 37q12 46 54 72t99 26q62 0 129 -19t100 -34.5t107 -53.5
q68 106 211.5 351.5t206.5 334.5q4 6 11.5 16.5t9.5 13.5t7.5 9t8.5 6t9 0.5t11.5 -2.5t14.5 -8q2 -38 -11 -152t-36 -305.5t-37 -326.5q66 21 135 70q6 -7 8.5 -10t6 -7.5t4 -6.5t2 -4.5t0 -4t-1.5 -3t-4 -3.5t-6 -3.5t-7.5 -4.5t-9.5 -5q-70 -43 -131 -61
q-9 -101 -14.5 -187t-8 -172.5t1.5 -153t14 -118.5t29.5 -78.5t46.5 -25.5q158 8 439 777q6 15 8 21zM1210 567q30 218 84 434.5t86 294.5q-46 -70 -179 -300.5t-216 -360.5q128 -66 225 -68z" />
    <glyph glyph-name="Adieresis" unicode="&#xc4;" 
d="M1528 1587q22 0 33.5 -17.5t7.5 -43.5q-4 -28 -23.5 -46t-42.5 -18q-22 0 -33.5 18t-7.5 46q4 26 23.5 43.5t42.5 17.5zM1352 1587q23 0 35.5 -17.5t7.5 -43.5q-4 -27 -24 -45.5t-42 -18.5t-34.5 18.5t-6.5 45.5q4 26 23 43.5t41 17.5zM1864 612l34 -16
q-97 -266 -143 -371q-188 -438 -330 -448q-73 -2 -123.5 39.5t-76 111t-35 169.5t-5 204.5t20.5 226.5q-95 4 -239 78q-68 -103 -130.5 -187t-137 -165t-145 -135.5t-149 -86.5t-153.5 -30q-69 1 -122.5 26t-82.5 63t-40.5 85t-2.5 93t38 87t75 66q30 15 39 10.5t22 -35.5
q-45 -18 -76 -51.5t-44 -72.5t-7.5 -80t28 -74.5t69.5 -55.5t110 -24q69 -1 141.5 30.5t137.5 84t135.5 131t130 160t125.5 182.5q-60 32 -96 49t-94.5 33t-114.5 16t-92 -27.5t-35 -79.5q-33 2 -39 9q-8 9 0 37q12 46 54 72t99 26q62 0 129 -19t100 -34.5t107 -53.5
q68 106 211.5 351.5t206.5 334.5q4 6 11.5 16.5t9.5 13.5t7.5 9t8.5 6t9 0.5t11.5 -2.5t14.5 -8q2 -38 -11 -152t-36 -305.5t-37 -326.5q66 21 135 70q6 -7 8.5 -10t6 -7.5t4 -6.5t2 -4.5t0 -4t-1.5 -3t-4 -3.5t-6 -3.5t-7.5 -4.5t-9.5 -5q-70 -43 -131 -61
q-9 -101 -14.5 -187t-8 -172.5t1.5 -153t14 -118.5t29.5 -78.5t46.5 -25.5q158 8 439 777q6 15 8 21zM1210 567q30 218 84 434.5t86 294.5q-46 -70 -179 -300.5t-216 -360.5q128 -66 225 -68z" />
    <glyph glyph-name="Aring" unicode="&#xc5;" 
d="M1497 1681q35 0 55.5 -30.5t12.5 -71.5q-8 -43 -39 -73.5t-68 -30.5q-35 0 -55 30.5t-12 73.5q8 42 39 72t67 30zM1526 1579q3 23 -8 39t-31 16q-19 0 -36 -16t-21 -39q-3 -25 7.5 -41t30.5 -16q19 0 36.5 16.5t21.5 40.5zM1864 612l34 -16q-97 -266 -143 -371
q-188 -438 -330 -448q-73 -2 -123.5 39.5t-76 111t-35 169.5t-5 204.5t20.5 226.5q-95 4 -239 78q-68 -103 -130.5 -187t-137 -165t-145 -135.5t-149 -86.5t-153.5 -30q-69 1 -122.5 26t-82.5 63t-40.5 85t-2.5 93t38 87t75 66q30 15 39 10.5t22 -35.5q-45 -18 -76 -51.5
t-44 -72.5t-7.5 -80t28 -74.5t69.5 -55.5t110 -24q69 -1 141.5 30.5t137.5 84t135.5 131t130 160t125.5 182.5q-60 32 -96 49t-94.5 33t-114.5 16t-92 -27.5t-35 -79.5q-33 2 -39 9q-8 9 0 37q12 46 54 72t99 26q62 0 129 -19t100 -34.5t107 -53.5q68 106 211.5 351.5
t206.5 334.5q4 6 11.5 16.5t9.5 13.5t7.5 9t8.5 6t9 0.5t11.5 -2.5t14.5 -8q2 -38 -11 -152t-36 -305.5t-37 -326.5q66 21 135 70q6 -7 8.5 -10t6 -7.5t4 -6.5t2 -4.5t0 -4t-1.5 -3t-4 -3.5t-6 -3.5t-7.5 -4.5t-9.5 -5q-70 -43 -131 -61q-9 -101 -14.5 -187t-8 -172.5
t1.5 -153t14 -118.5t29.5 -78.5t46.5 -25.5q158 8 439 777q6 15 8 21zM1210 567q30 218 84 434.5t86 294.5q-46 -70 -179 -300.5t-216 -360.5q128 -66 225 -68z" />
    <glyph glyph-name="AE" unicode="&#xc6;" horiz-adv-x="2592" 
d="M2650 618l35 -14q-36 -105 -87 -208.5t-126 -212t-160.5 -190.5t-196 -136.5t-227.5 -57.5q-221 -5 -274 148q-103 -162 -189 -170q-73 -2 -123.5 39.5t-76 111t-35 169.5t-5 204.5t20.5 226.5q-95 4 -239 78q-68 -103 -130.5 -187t-137 -165t-145 -135.5t-149 -86.5
t-153.5 -30q-69 1 -122.5 26t-82.5 63t-40.5 85t-2.5 93t38 87t75 66q30 15 39 10.5t22 -35.5q-45 -18 -76 -51.5t-44 -72.5t-7.5 -80t28 -74.5t69.5 -55.5t110 -24q69 -1 141.5 30.5t137.5 84t135.5 131t130 160t125.5 182.5q-60 32 -96 49t-94.5 33t-114.5 16t-92 -27.5
t-35 -79.5q-33 2 -39 9q-8 9 0 37q12 46 54 72t99 26q62 0 129 -19t100 -34.5t107 -53.5q68 106 211.5 351.5t206.5 334.5q4 6 11.5 16.5t9.5 13.5t7.5 9t8.5 6t9 0.5t11.5 -2.5t14.5 -8q2 -38 -11 -152t-36 -305.5t-37 -326.5q66 21 135 70q6 -7 8.5 -10t6 -7.5t4 -6.5
t2 -4.5t0 -4t-1.5 -3t-4 -3.5t-6 -3.5t-7.5 -4.5t-9.5 -5q-70 -43 -131 -61q-9 -101 -14.5 -187t-8 -172.5t1.5 -153t14 -118.5t29.5 -78.5t46.5 -25.5q77 5 182 188q-4 49 -2 74q4 113 69 230.5t165 217.5q11 11 26 27.5t23 24t32 24t64 41.5q-129 -16 -199 91
q-64 97 -48 238q16 155 117 256q104 104 265 109q66 2 118.5 -14t83.5 -44t50 -63.5t19.5 -74t-8.5 -73.5t-32.5 -64.5t-55.5 -45.5q-29 -15 -38.5 -10.5t-15.5 37.5q47 14 78 52t33.5 82.5t-16 86.5t-74 69t-137.5 25q-111 -6 -182 -131q-62 -112 -59 -249q3 -135 70 -190
q71 -57 187 3q15 -28 13.5 -32.5t-31.5 -26.5q-158 -115 -262.5 -277t-108.5 -342q-2 -95 33.5 -152.5t117.5 -56.5q107 1 212 54t187 134.5t154.5 187t121.5 205t81 193.5zM1210 567q30 218 84 434.5t86 294.5q-46 -70 -179 -300.5t-216 -360.5q128 -66 225 -68z" />
    <glyph glyph-name="Ccedilla" unicode="&#xc7;" horiz-adv-x="999" 
d="M1059 621l33 -17q-42 -102 -108.5 -219.5t-169.5 -249.5t-204 -203q-136 -91 -245 -102l6 16l-47 -4l-5 -12q-176 10 -260 206q-82 191 -53 482q29 290 150 519q123 234 296 300q59 22 121 23q89 1 146 -39.5t72 -97t-0.5 -117.5t-59.5 -100q-7 -6 -12.5 -10.5
t-10.5 -6.5t-8.5 -3.5t-8 0t-6.5 1.5t-6.5 4.5l-6 6t-6.5 8t-7 8.5q39 18 65.5 57t30.5 83t-9.5 84t-59 64t-113.5 19q-139 -11 -254 -227q-112 -211 -155 -517q-43 -304 10 -503q51 -187 174 -195q10 -1 21 0q93 3 221 92q141 103 272.5 298t196.5 352zM358 -193l7 23h-5
h-41v-4q-4 -10 -6.5 -15.5t-3 -10.5t-1 -7t3 -3.5t5 -2t8.5 -1.5t11 -1q45 -4 37 -47q-7 -38 -43 -65q-20 -15 -39 -15q-29 -1 -24 27q5 25 26 38q9 5 16 3q2 9 -4 18t-18 6q-22 -6 -38 -33t-11 -54.5t34 -33.5q67 -14 122 42q44 44 39 88q-7 49 -75 48z" />
    <glyph glyph-name="Egrave" unicode="&#xc8;" horiz-adv-x="995" 
d="M502 1628l94 -198q-13 -5 -21 -7t-13.5 -3t-11.5 4t-8.5 8t-11 15t-14.5 19l-143 187q10 5 28.5 16.5t27.5 14.5t22.5 2.5t25.5 -15t25 -43.5zM1053 618l34 -14q-36 -105 -86.5 -208.5t-126 -212t-160.5 -190.5t-195.5 -136.5t-227.5 -57.5q-163 -4 -229.5 71.5
t-61.5 205.5q7 155 120.5 313t258.5 252q-129 -16 -199 91q-64 97 -48 238q16 155 117 256q104 104 265 109q77 2 135 -20t87.5 -57.5t41.5 -80.5t4 -87.5t-32.5 -78.5t-61.5 -55q-29 -15 -38 -10.5t-15 37.5q47 14 78 52t33.5 82.5t-16 86.5t-74.5 69t-138 25
q-111 -6 -181 -131q-63 -112 -60 -249q3 -135 71 -190q71 -57 187 3q15 -27 12 -33q-3 -5 -31 -26q-158 -115 -262.5 -277t-108.5 -342q-2 -95 34 -152.5t118 -56.5q107 1 212 54t187 134.5t154.5 187t121.5 205t81 193.5z" />
    <glyph glyph-name="Eacute" unicode="&#xc9;" horiz-adv-x="995" 
d="M551 1651q13 29 25 43.5t26 15t23 -3t28 -15t29 -16.5l-145 -186q-6 -7 -13 -17t-9.5 -14t-8 -8.5t-8.5 -5.5t-9 -1t-13 2.5t-17 6.5zM1053 618l34 -14q-36 -105 -86.5 -208.5t-126 -212t-160.5 -190.5t-195.5 -136.5t-227.5 -57.5q-163 -4 -229.5 71.5t-61.5 205.5
q7 155 120.5 313t258.5 252q-129 -16 -199 91q-64 97 -48 238q16 155 117 256q104 104 265 109q77 2 135 -20t87.5 -57.5t41.5 -80.5t4 -87.5t-32.5 -78.5t-61.5 -55q-29 -15 -38 -10.5t-15 37.5q47 14 78 52t33.5 82.5t-16 86.5t-74.5 69t-138 25q-111 -6 -181 -131
q-63 -112 -60 -249q3 -135 71 -190q71 -57 187 3q15 -27 12 -33q-3 -5 -31 -26q-158 -115 -262.5 -277t-108.5 -342q-2 -95 34 -152.5t118 -56.5q107 1 212 54t187 134.5t154.5 187t121.5 205t81 193.5z" />
    <glyph glyph-name="Ecircumflex" unicode="&#xca;" horiz-adv-x="995" 
d="M647 1532q9 -13 19 -26t12 -17t5 -9t-2 -9t-9.5 -8.5t-18 -15.5t-26.5 -24l-131 191l-105 -137q-7 -9 -15 -19.5t-8.5 -13.5t-7.5 -3t-10 3t-18 14l178 236l16 22l15 -24zM1053 618l34 -14q-36 -105 -86.5 -208.5t-126 -212t-160.5 -190.5t-195.5 -136.5t-227.5 -57.5
q-163 -4 -229.5 71.5t-61.5 205.5q7 155 120.5 313t258.5 252q-129 -16 -199 91q-64 97 -48 238q16 155 117 256q104 104 265 109q77 2 135 -20t87.5 -57.5t41.5 -80.5t4 -87.5t-32.5 -78.5t-61.5 -55q-29 -15 -38 -10.5t-15 37.5q47 14 78 52t33.5 82.5t-16 86.5t-74.5 69
t-138 25q-111 -6 -181 -131q-63 -112 -60 -249q3 -135 71 -190q71 -57 187 3q15 -27 12 -33q-3 -5 -31 -26q-158 -115 -262.5 -277t-108.5 -342q-2 -95 34 -152.5t118 -56.5q107 1 212 54t187 134.5t154.5 187t121.5 205t81 193.5z" />
    <glyph glyph-name="Edieresis" unicode="&#xcb;" horiz-adv-x="995" 
d="M600 1552q22 0 33.5 -17.5t7.5 -43.5q-4 -28 -23.5 -46t-42.5 -18q-22 0 -33 18t-7 46q4 26 23 43.5t42 17.5zM424 1552q23 0 35.5 -17.5t7.5 -43.5q-4 -27 -24 -45.5t-42 -18.5t-34.5 18.5t-6.5 45.5q4 26 23 43.5t41 17.5zM1053 618l34 -14q-36 -105 -86.5 -208.5
t-126 -212t-160.5 -190.5t-195.5 -136.5t-227.5 -57.5q-163 -4 -229.5 71.5t-61.5 205.5q7 155 120.5 313t258.5 252q-129 -16 -199 91q-64 97 -48 238q16 155 117 256q104 104 265 109q77 2 135 -20t87.5 -57.5t41.5 -80.5t4 -87.5t-32.5 -78.5t-61.5 -55
q-29 -15 -38 -10.5t-15 37.5q47 14 78 52t33.5 82.5t-16 86.5t-74.5 69t-138 25q-111 -6 -181 -131q-63 -112 -60 -249q3 -135 71 -190q71 -57 187 3q15 -27 12 -33q-3 -5 -31 -26q-158 -115 -262.5 -277t-108.5 -342q-2 -95 34 -152.5t118 -56.5q107 1 212 54t187 134.5
t154.5 187t121.5 205t81 193.5z" />
    <glyph glyph-name="Igrave" unicode="&#xcc;" horiz-adv-x="944" 
d="M653 1665l95 -199q-13 -5 -21 -7t-13.5 -3t-11 4.5l-8.5 8.5t-11.5 15t-14.5 19l-144 187q10 5 28.5 16.5t27.5 14.5t22.5 2.5t25.5 -15t25 -43.5zM649 1348h19q89 -1 105 -10q17 -9 16 -47q0 -7 -1 -25q-2 -30 -2 -49q0 -17 -1 -52q-4 -399 -36 -622
q-100 -705 -507 -711q-69 -1 -120 17t-78 50t-37.5 73.5t-4.5 87.5t27 92q20 48 30.5 50t46.5 -16q-32 -45 -46.5 -98.5t-7.5 -102.5t51 -80.5t122 -29.5q65 1 119.5 33.5t94 83.5t72 130t53 156.5t36 182t23.5 188t13.5 191.5t7 176.5t3 159.5t2.5 124q-38 -26 -105 -64.5
t-113 -67t-94.5 -66t-76 -80t-31.5 -90.5q-8 -86 43 -113t119 -4q0 -4 2 -14t2 -13.5t-0.5 -10t-4 -9t-9 -6t-15.5 -4t-24 -0.5q-68 2 -113.5 48t-38.5 130q5 58 37 107.5t85 90t106 72t121 71.5t110 71z" />
    <glyph glyph-name="Iacute" unicode="&#xcd;" horiz-adv-x="944" 
d="M688 1692q13 29 25 43.5t26 15t23 -3t28 -15t29 -16.5l-145 -186q-6 -7 -13 -17t-9.5 -14t-8 -8.5t-8.5 -5.5t-9 -1t-13 2.5t-17 6.5zM649 1348h19q89 -1 105 -10q17 -9 16 -47q0 -7 -1 -25q-2 -30 -2 -49q0 -17 -1 -52q-4 -399 -36 -622q-100 -705 -507 -711
q-69 -1 -120 17t-78 50t-37.5 73.5t-4.5 87.5t27 92q20 48 30.5 50t46.5 -16q-32 -45 -46.5 -98.5t-7.5 -102.5t51 -80.5t122 -29.5q65 1 119.5 33.5t94 83.5t72 130t53 156.5t36 182t23.5 188t13.5 191.5t7 176.5t3 159.5t2.5 124q-38 -26 -105 -64.5t-113 -67t-94.5 -66
t-76 -80t-31.5 -90.5q-8 -86 43 -113t119 -4q0 -4 2 -14t2 -13.5t-0.5 -10t-4 -9t-9 -6t-15.5 -4t-24 -0.5q-68 2 -113.5 48t-38.5 130q5 58 37 107.5t85 90t106 72t121 71.5t110 71z" />
    <glyph glyph-name="Icircumflex" unicode="&#xce;" horiz-adv-x="944" 
d="M858 1540q9 -13 19 -26t12 -17t5 -9t-2 -8.5t-9.5 -8.5t-18 -15.5t-26.5 -23.5l-131 190l-105 -137q-7 -9 -15 -19.5t-8.5 -13.5t-7.5 -3t-10 3t-18 14l178 236l16 22l15 -24zM649 1348h19q89 -1 105 -10q17 -9 16 -47q0 -7 -1 -25q-2 -30 -2 -49q0 -17 -1 -52
q-4 -399 -36 -622q-100 -705 -507 -711q-69 -1 -120 17t-78 50t-37.5 73.5t-4.5 87.5t27 92q20 48 30.5 50t46.5 -16q-32 -45 -46.5 -98.5t-7.5 -102.5t51 -80.5t122 -29.5q65 1 119.5 33.5t94 83.5t72 130t53 156.5t36 182t23.5 188t13.5 191.5t7 176.5t3 159.5t2.5 124
q-38 -26 -105 -64.5t-113 -67t-94.5 -66t-76 -80t-31.5 -90.5q-8 -86 43 -113t119 -4q0 -4 2 -14t2 -13.5t-0.5 -10t-4 -9t-9 -6t-15.5 -4t-24 -0.5q-68 2 -113.5 48t-38.5 130q5 58 37 107.5t85 90t106 72t121 71.5t110 71z" />
    <glyph glyph-name="Idieresis" unicode="&#xcf;" horiz-adv-x="944" 
d="M811 1579q22 0 33.5 -17.5t7.5 -43.5q-4 -28 -23.5 -46t-42.5 -18q-22 0 -33.5 18t-7.5 46q4 26 23.5 43.5t42.5 17.5zM635 1579q23 0 35.5 -17.5t7.5 -43.5q-4 -27 -24 -45.5t-42 -18.5t-34.5 18.5t-6.5 45.5q4 26 23 43.5t41 17.5zM649 1348h19q89 -1 105 -10
q17 -9 16 -47q0 -7 -1 -25q-2 -30 -2 -49q0 -17 -1 -52q-4 -399 -36 -622q-100 -705 -507 -711q-69 -1 -120 17t-78 50t-37.5 73.5t-4.5 87.5t27 92q20 48 30.5 50t46.5 -16q-32 -45 -46.5 -98.5t-7.5 -102.5t51 -80.5t122 -29.5q65 1 119.5 33.5t94 83.5t72 130t53 156.5
t36 182t23.5 188t13.5 191.5t7 176.5t3 159.5t2.5 124q-38 -26 -105 -64.5t-113 -67t-94.5 -66t-76 -80t-31.5 -90.5q-8 -86 43 -113t119 -4q0 -4 2 -14t2 -13.5t-0.5 -10t-4 -9t-9 -6t-15.5 -4t-24 -0.5q-68 2 -113.5 48t-38.5 130q5 58 37 107.5t85 90t106 72t121 71.5
t110 71z" />
    <glyph glyph-name="Eth" unicode="&#xd0;" horiz-adv-x="1513" 
d="M688 567q37 3 42.5 -2t6.5 -49l-200 -2q-26 -267 -82 -487q-5 -22 -8.5 -34t-8.5 -24t-9 -16.5t-10.5 -10t-14 -5t-19 -1.5t-25.5 0.5t-33 0.5t-42 0q63 265 100 575h-156q-24 3 -32 9.5t-9 31.5l201 6q17 152 18.5 279t-14 240t-62 174t-122.5 55q-83 -8 -127.5 -74
t-39 -154.5t55.5 -163.5q-27 -16 -37.5 -11.5t-29.5 46.5q-28 62 -30 130t18.5 124t67.5 94.5t112 42.5q156 8 238 -105t104 -314q35 94 73 171.5t85.5 146t103 107.5t112.5 39q87 -1 151.5 -40t99.5 -105.5t54 -154t18 -186t-11 -199.5t-30.5 -196.5t-43.5 -176t-47 -138.5
t-43 -84q81 11 151.5 52.5t133 114t112 150.5t109.5 191l37 -14q-37 -70 -60.5 -112.5t-60.5 -101.5t-67.5 -96t-73.5 -79.5t-86 -68.5t-98 -48t-116 -31q-66 -112 -153 -168.5t-221 -60.5q-63 -3 -99.5 19.5t-38.5 56.5q-3 39 24 68.5t77.5 48t96.5 30t104.5 22t78.5 15.5
q23 30 55.5 131.5t63.5 239t47 290t13 282.5t-46 218.5t-124 96.5q-57 0 -113 -46t-103.5 -126.5t-85 -167t-71.5 -187.5q3 -139 -8 -262zM627 -129q80 3 157 57t109 123q-13 -3 -65 -11t-89.5 -16.5t-81 -23t-66.5 -39t-20 -55.5q2 -14 18.5 -25t37.5 -10z" />
    <glyph glyph-name="Ntilde" unicode="&#xd1;" horiz-adv-x="1435" 
d="M866 1442q-30 -35 -61 -49t-56.5 -10t-50.5 15.5t-48.5 23.5t-45 17.5t-44 -5t-42.5 -41.5q-4 4 -11 10t-9 8.5t-3 8.5t3.5 13.5t13.5 18.5q36 48 73.5 57t70.5 -6.5t65.5 -33t69.5 -14.5t71 40q12 -10 17.5 -16t2.5 -14t-4 -9t-12 -14zM1495 612l33 -20
q-17 -31 -70.5 -139.5t-106 -210t-114.5 -210.5t-118.5 -179t-94.5 -76q-76 -13 -105 105q-37 148 -1 579q5 58 16 173q33 357 27 463q-5 103 -39 109q-18 2 -45 -40.5t-57 -118.5t-62 -167t-64.5 -196.5t-60 -195.5t-53.5 -176t-39 -126q-6 -53 -23 -139q-5 -28 -8 -42.5
t-9.5 -27t-11.5 -16.5t-19 -8t-26 -4t-38.5 -2.5t-51.5 -5.5q8 46 18 118t23.5 185.5t20.5 230t10 242.5t-9 233t-35.5 190.5t-71 126t-113.5 29.5q-82 -16 -122.5 -85.5t-29.5 -157t66 -156.5q-27 -19 -38 -15.5t-32 42.5q-32 60 -39 127.5t10 125.5t62 100t110 52
q77 12 139.5 -9.5t104.5 -69t72 -119.5t46 -153.5t22.5 -179.5t5.5 -190.5t-9 -191.5q31 107 53.5 180t58 183t64.5 184t62 146.5t63.5 110t55.5 37.5q61 0 98 -61t48.5 -162t11 -229.5t-13 -263t-25 -263.5t-23 -230t-9 -162.5t18.5 -61.5q27 0 78 69t111 177.5t113 212.5
t102.5 205t62.5 124z" />
    <glyph glyph-name="Ograve" unicode="&#xd2;" horiz-adv-x="1075" 
d="M573 1645l95 -199q-13 -5 -21 -7t-13.5 -3t-11 4.5l-8.5 8.5t-11.5 15t-14.5 19l-144 186q11 5 29 16.5t27 15t22.5 3t25.5 -15t25 -43.5zM1133 614l34 -14q-44 -94 -105 -190.5t-118 -153.5t-115.5 -86.5t-142.5 -24.5q-72 -145 -170 -226.5t-221 -80.5q-144 2 -225 182
q-82 183 -69 467q13 298 122 527q114 242 294 304q55 19 115 19v-34q-122 -1 -215 -147t-130.5 -354.5t-44 -417t37.5 -354.5t121 -147q106 -7 195.5 67.5t154.5 207.5q-60 32 -99.5 129t-52.5 220t-6.5 261t31 254t68 197t96.5 92q42 8 73 -24.5t46.5 -81t25 -114
t11.5 -107t2 -77.5q0 -203 -43 -409q-42 -190 -96 -305q55 -10 111 17t100 71q56 56 114 148.5t101 184.5zM674 205q56 126 92 301q43 200 43 401q0 19 -1.5 47.5t-5 75.5t-12 89.5t-20.5 81t-31.5 59.5t-44.5 16q-36 -6 -61 -158.5t-30.5 -339t12.5 -359t59 -214.5z" />
    <glyph glyph-name="Oacute" unicode="&#xd3;" horiz-adv-x="1075" 
d="M672 1661q11 24 22 38t20 19t21 2.5t20 -7.5t23 -13.5t25 -13.5l-146 -187q-6 -8 -16.5 -22.5t-12.5 -16.5t-10 -6t-15.5 -1l-22.5 9zM1133 614l34 -14q-44 -94 -105 -190.5t-118 -153.5t-115.5 -86.5t-142.5 -24.5q-72 -145 -170 -226.5t-221 -80.5q-144 2 -225 182
q-82 183 -69 467q13 298 122 527q114 242 294 304q55 19 115 19v-34q-122 -1 -215 -147t-130.5 -354.5t-44 -417t37.5 -354.5t121 -147q106 -7 195.5 67.5t154.5 207.5q-60 32 -99.5 129t-52.5 220t-6.5 261t31 254t68 197t96.5 92q42 8 73 -24.5t46.5 -81t25 -114
t11.5 -107t2 -77.5q0 -203 -43 -409q-42 -190 -96 -305q55 -10 111 17t100 71q56 56 114 148.5t101 184.5zM674 205q56 126 92 301q43 200 43 401q0 19 -1.5 47.5t-5 75.5t-12 89.5t-20.5 81t-31.5 59.5t-44.5 16q-36 -6 -61 -158.5t-30.5 -339t12.5 -359t59 -214.5z" />
    <glyph glyph-name="Ocircumflex" unicode="&#xd4;" horiz-adv-x="1075" 
d="M674 1530q9 -13 19 -26t12 -17t5 -9t-2.5 -9t-10 -8.5t-18 -15.5t-26.5 -24l-131 191l-104 -137q-7 -9 -15 -20t-9 -13.5t-7.5 -2.5t-10.5 3t-18 14l179 236l16 22l14 -24zM1133 614l34 -14q-44 -94 -105 -190.5t-118 -153.5t-115.5 -86.5t-142.5 -24.5
q-72 -145 -170 -226.5t-221 -80.5q-144 2 -225 182q-82 183 -69 467q13 298 122 527q114 242 294 304q55 19 115 19v-34q-122 -1 -215 -147t-130.5 -354.5t-44 -417t37.5 -354.5t121 -147q106 -7 195.5 67.5t154.5 207.5q-60 32 -99.5 129t-52.5 220t-6.5 261t31 254t68 197
t96.5 92q42 8 73 -24.5t46.5 -81t25 -114t11.5 -107t2 -77.5q0 -203 -43 -409q-42 -190 -96 -305q55 -10 111 17t100 71q56 56 114 148.5t101 184.5zM674 205q56 126 92 301q43 200 43 401q0 19 -1.5 47.5t-5 75.5t-12 89.5t-20.5 81t-31.5 59.5t-44.5 16q-36 -6 -61 -158.5
t-30.5 -339t12.5 -359t59 -214.5z" />
    <glyph glyph-name="Otilde" unicode="&#xd5;" horiz-adv-x="1075" 
d="M739 1522q-30 -35 -61 -49t-56.5 -10t-50.5 15.5t-48.5 23.5t-45 17.5t-44 -5t-42.5 -41.5q-4 4 -11 10t-9 8.5t-3 8.5t3.5 13.5t13.5 18.5q36 48 73.5 57t70.5 -6.5t65.5 -33t69.5 -14.5t71 40q12 -10 17.5 -16t2.5 -14t-4 -9t-12 -14zM1133 614l34 -14
q-44 -94 -105 -190.5t-118 -153.5t-115.5 -86.5t-142.5 -24.5q-72 -145 -170 -226.5t-221 -80.5q-144 2 -225 182q-82 183 -69 467q13 298 122 527q114 242 294 304q55 19 115 19v-34q-122 -1 -215 -147t-130.5 -354.5t-44 -417t37.5 -354.5t121 -147q106 -7 195.5 67.5
t154.5 207.5q-60 32 -99.5 129t-52.5 220t-6.5 261t31 254t68 197t96.5 92q42 8 73 -24.5t46.5 -81t25 -114t11.5 -107t2 -77.5q0 -203 -43 -409q-42 -190 -96 -305q55 -10 111 17t100 71q56 56 114 148.5t101 184.5zM674 205q56 126 92 301q43 200 43 401q0 19 -1.5 47.5
t-5 75.5t-12 89.5t-20.5 81t-31.5 59.5t-44.5 16q-36 -6 -61 -158.5t-30.5 -339t12.5 -359t59 -214.5z" />
    <glyph glyph-name="Odieresis" unicode="&#xd6;" horiz-adv-x="1075" 
d="M676 1563q22 0 33.5 -18t7.5 -44q-4 -27 -23 -45t-43 -18q-22 0 -33.5 17.5t-7.5 45.5q4 26 23.5 44t42.5 18zM500 1563q23 0 35.5 -18t7.5 -44q-4 -27 -24 -45t-42 -18t-34.5 18t-6.5 45q4 26 23 44t41 18zM1133 614l34 -14q-44 -94 -105 -190.5t-118 -153.5
t-115.5 -86.5t-142.5 -24.5q-72 -145 -170 -226.5t-221 -80.5q-144 2 -225 182q-82 183 -69 467q13 298 122 527q114 242 294 304q55 19 115 19v-34q-122 -1 -215 -147t-130.5 -354.5t-44 -417t37.5 -354.5t121 -147q106 -7 195.5 67.5t154.5 207.5q-60 32 -99.5 129
t-52.5 220t-6.5 261t31 254t68 197t96.5 92q42 8 73 -24.5t46.5 -81t25 -114t11.5 -107t2 -77.5q0 -203 -43 -409q-42 -190 -96 -305q55 -10 111 17t100 71q56 56 114 148.5t101 184.5zM674 205q56 126 92 301q43 200 43 401q0 19 -1.5 47.5t-5 75.5t-12 89.5t-20.5 81
t-31.5 59.5t-44.5 16q-36 -6 -61 -158.5t-30.5 -339t12.5 -359t59 -214.5z" />
    <glyph glyph-name="Oslash" unicode="&#xd8;" horiz-adv-x="1075" 
d="M1133 614l34 -14q-44 -94 -105 -190.5t-118 -153.5t-115.5 -86.5t-142.5 -24.5q-72 -145 -170 -226.5t-221 -80.5q-29 0 -62 10l-2 -6q-8 -15 -20.5 -38t-17 -30.5t-14 -20t-17.5 -16t-20.5 -7t-30.5 -4.5l69 151q-60 42 -102 129t-60.5 197t-17 237.5t23 253t66.5 242.5
t106 205.5t148 142t188 53.5v-34q-90 0 -165 -81.5t-121 -208.5t-73.5 -283.5t-31 -306t14.5 -278t57 -196.5l283 602q-14 164 5.5 333.5t69 291t117.5 135.5q74 13 115 -99q35 74 70.5 96.5t113.5 24.5l-147 -293q6 -57 6 -133q0 -203 -43 -409q-42 -190 -96 -305
q55 -10 111 17t100 71q56 56 114 148.5t101 184.5zM651 158q-94 50 -135 245l-258 -505q26 -15 43 -15q106 -7 195.5 67.5t154.5 207.5zM674 205q56 126 92 301q43 200 43 401q0 37 -2 70l-203 -402q11 -311 70 -370zM694 1276q-36 -7 -61 -151t-31 -345l178 383
q-13 56 -34.5 87.5t-51.5 25.5z" />
    <glyph glyph-name="Ugrave" unicode="&#xd9;" horiz-adv-x="1234" 
d="M618 1507l95 -198q-13 -5 -21 -7t-13.5 -3t-11 4.5l-8.5 8.5t-11.5 15t-14.5 19l-144 186q10 5 28.5 16.5t27.5 14.5t22.5 2.5t25.5 -15t25 -43.5zM1292 612l35 -14q-8 -19 -38 -95t-57.5 -143t-68 -159t-79.5 -164.5t-81.5 -138t-84.5 -100t-78 -31.5q-37 -2 -65.5 16.5
t-46 58.5t-28.5 87t-13 116t-1.5 131.5t8.5 147t15 148.5t20 150.5t21.5 139t20.5 127.5l3 18q-14 -36 -46.5 -123.5t-53.5 -143t-55.5 -144t-59.5 -148t-57.5 -134t-58 -122.5t-52.5 -92t-50 -65t-42 -21q-65 2 -100 61t-40 159t4.5 217.5t33 251t46.5 245.5t45 215.5
t27 146.5q7 65 2 87t-24 24q-34 1 -77 -39t-79.5 -97.5t-64 -109.5t-39.5 -84q-17 5 -22 7t-10 9t-1 18.5t14 33.5q16 35 38.5 73.5t55.5 83t67 79t75 57.5t78 22q86 0 92 -180q1 -36 -10.5 -124.5t-28 -197t-36.5 -233t-35.5 -241t-24.5 -213t-4.5 -156.5t24.5 -64
q26 -5 81 98.5t119 263.5t125 321.5t112.5 298.5t68.5 169q5 13 11.5 20t20 10t26.5 3.5t43 2t57 3.5q-3 -10 -27 -142.5t-55 -331t-54.5 -391t-22.5 -332t38 -144.5q118 -6 430 763q3 9 5 13.5t4.5 11t4.5 10.5z" />
    <glyph glyph-name="Uacute" unicode="&#xda;" horiz-adv-x="1234" 
d="M688 1505q11 24 22 38t20 19t21 2.5t20 -7.5t23 -13.5t25 -13.5l-145 -187q-6 -7 -14.5 -19t-11 -15t-8.5 -8t-11 -4t-13 3t-20 7zM1292 612l35 -14q-8 -19 -38 -95t-57.5 -143t-68 -159t-79.5 -164.5t-81.5 -138t-84.5 -100t-78 -31.5q-37 -2 -65.5 16.5t-46 58.5
t-28.5 87t-13 116t-1.5 131.5t8.5 147t15 148.5t20 150.5t21.5 139t20.5 127.5l3 18q-14 -36 -46.5 -123.5t-53.5 -143t-55.5 -144t-59.5 -148t-57.5 -134t-58 -122.5t-52.5 -92t-50 -65t-42 -21q-65 2 -100 61t-40 159t4.5 217.5t33 251t46.5 245.5t45 215.5t27 146.5
q7 65 2 87t-24 24q-34 1 -77 -39t-79.5 -97.5t-64 -109.5t-39.5 -84q-17 5 -22 7t-10 9t-1 18.5t14 33.5q16 35 38.5 73.5t55.5 83t67 79t75 57.5t78 22q86 0 92 -180q1 -36 -10.5 -124.5t-28 -197t-36.5 -233t-35.5 -241t-24.5 -213t-4.5 -156.5t24.5 -64q26 -5 81 98.5
t119 263.5t125 321.5t112.5 298.5t68.5 169q5 13 11.5 20t20 10t26.5 3.5t43 2t57 3.5q-3 -10 -27 -142.5t-55 -331t-54.5 -391t-22.5 -332t38 -144.5q118 -6 430 763q3 9 5 13.5t4.5 11t4.5 10.5z" />
    <glyph glyph-name="Ucircumflex" unicode="&#xdb;" horiz-adv-x="1234" 
d="M838 1440q9 -13 19 -26t12 -17t5 -9t-2.5 -9t-10 -8.5t-18 -15.5t-26.5 -24l-131 191l-104 -138q-7 -9 -16 -22q-10 -14 -15 -14t-24 14q-3 3 -5 4l178 236l17 22l14 -25zM1292 612l35 -14q-8 -19 -38 -95t-57.5 -143t-68 -159t-79.5 -164.5t-81.5 -138t-84.5 -100
t-78 -31.5q-37 -2 -65.5 16.5t-46 58.5t-28.5 87t-13 116t-1.5 131.5t8.5 147t15 148.5t20 150.5t21.5 139t20.5 127.5l3 18q-14 -36 -46.5 -123.5t-53.5 -143t-55.5 -144t-59.5 -148t-57.5 -134t-58 -122.5t-52.5 -92t-50 -65t-42 -21q-65 2 -100 61t-40 159t4.5 217.5
t33 251t46.5 245.5t45 215.5t27 146.5q7 65 2 87t-24 24q-34 1 -77 -39t-79.5 -97.5t-64 -109.5t-39.5 -84q-17 5 -22 7t-10 9t-1 18.5t14 33.5q16 35 38.5 73.5t55.5 83t67 79t75 57.5t78 22q86 0 92 -180q1 -36 -10.5 -124.5t-28 -197t-36.5 -233t-35.5 -241t-24.5 -213
t-4.5 -156.5t24.5 -64q26 -5 81 98.5t119 263.5t125 321.5t112.5 298.5t68.5 169q5 13 11.5 20t20 10t26.5 3.5t43 2t57 3.5q-3 -10 -27 -142.5t-55 -331t-54.5 -391t-22.5 -332t38 -144.5q118 -6 430 763q3 9 5 13.5t4.5 11t4.5 10.5z" />
    <glyph glyph-name="Udieresis" unicode="&#xdc;" horiz-adv-x="1234" 
d="M788 1452q22 0 33.5 -17.5t7.5 -43.5q-4 -28 -23 -46t-42 -18q-22 0 -33.5 18t-7.5 46q4 26 23 43.5t42 17.5zM612 1452q23 0 35.5 -17.5t7.5 -43.5q-4 -27 -23.5 -45.5t-41.5 -18.5t-34.5 18.5t-6.5 45.5q4 26 22.5 43.5t40.5 17.5zM1292 612l35 -14q-8 -19 -38 -95
t-57.5 -143t-68 -159t-79.5 -164.5t-81.5 -138t-84.5 -100t-78 -31.5q-37 -2 -65.5 16.5t-46 58.5t-28.5 87t-13 116t-1.5 131.5t8.5 147t15 148.5t20 150.5t21.5 139t20.5 127.5l3 18q-14 -36 -46.5 -123.5t-53.5 -143t-55.5 -144t-59.5 -148t-57.5 -134t-58 -122.5
t-52.5 -92t-50 -65t-42 -21q-65 2 -100 61t-40 159t4.5 217.5t33 251t46.5 245.5t45 215.5t27 146.5q7 65 2 87t-24 24q-34 1 -77 -39t-79.5 -97.5t-64 -109.5t-39.5 -84q-17 5 -22 7t-10 9t-1 18.5t14 33.5q16 35 38.5 73.5t55.5 83t67 79t75 57.5t78 22q86 0 92 -180
q1 -36 -10.5 -124.5t-28 -197t-36.5 -233t-35.5 -241t-24.5 -213t-4.5 -156.5t24.5 -64q26 -5 81 98.5t119 263.5t125 321.5t112.5 298.5t68.5 169q5 13 11.5 20t20 10t26.5 3.5t43 2t57 3.5q-3 -10 -27 -142.5t-55 -331t-54.5 -391t-22.5 -332t38 -144.5q118 -6 430 763
q3 9 5 13.5t4.5 11t4.5 10.5z" />
    <glyph glyph-name="Yacute" unicode="&#xdd;" horiz-adv-x="1142" 
d="M686 1489q13 29 25 43.5t26 15t23 -3t28 -15t29 -16.5l-145 -186q-6 -7 -13 -17t-9.5 -14t-8 -8.5t-8.5 -5.5t-9 -1t-13 2.5t-17 6.5zM1204 610l31 -18q-68 -107 -128 -182.5t-117.5 -124.5t-94 -73t-98.5 -59q-17 -9 -25 -14q-17 -50 -32.5 -90.5t-40.5 -94.5
t-50.5 -95.5t-61.5 -84.5t-74.5 -72t-88.5 -49t-105 -22q-182 -11 -182 111q0 53 37 108.5t93.5 100.5t125.5 84.5t132.5 65.5t113.5 38q27 95 47 194t34.5 223.5t21 192t18.5 216.5q-135 -341 -155 -389q-180 -424 -271 -422q-64 2 -101 47.5t-45 124t-2.5 170.5t25.5 200
t39.5 199t39 181.5t25.5 133.5q7 65 2 87t-24 24q-34 1 -77 -39t-79.5 -97.5t-64 -109.5t-39.5 -84q-17 5 -22 7t-10 9t-1 18.5t14 33.5q16 35 38.5 73.5t55.5 83t67 79t75 57.5t78 22q86 0 92 -180q1 -48 -16.5 -170t-39 -254t-38.5 -260.5t-15.5 -214t29.5 -90.5
q26 -5 74.5 74t103 205t105 252t95.5 240.5t60 145.5q10 20 41.5 23t104.5 -4q-6 -59 -19 -188.5t-21 -201.5t-22 -178t-33.5 -200t-44.5 -187q232 116 420 424zM281 -332q54 2 104.5 35t87 78.5t69.5 107.5t52 111t35 100q-53 -10 -129 -46.5t-149 -85.5t-124 -112
t-51 -118q0 -34 26.5 -52.5t78.5 -17.5z" />
    <glyph glyph-name="germandbls" unicode="&#xdf;" horiz-adv-x="823" 
d="M426 694q62 -12 112 -42t80.5 -71.5t49 -92t17 -105t-15 -109.5t-47.5 -107t-80 -95.5t-113 -77t-146 -49.5q-66 -16 -87 -9t-28 58q193 47 299 201q84 123 77 255q-6 122 -87 178q-76 53 -195 23q-2 6 -5.5 13.5t-4.5 10.5t-1.5 7t1.5 6t7 4t13 4q159 53 254 210
q77 126 76 249q-1 106 -62 135q-14 7 -30 8q-44 -2 -84.5 -35.5t-74 -96t-62.5 -135.5t-54 -170.5t-44.5 -183t-37.5 -191.5t-29 -177t-24 -158.5t-18 -119.5l-7.5 -42t-9.5 -26t-11.5 -15.5t-18.5 -6.5t-26 -2.5t-39 0t-52 -1.5q54 405 96 608q167 812 472 793q7 0 14 -1
q156 -1 216 -109q54 -96 9 -229q-47 -141 -179 -238q-56 -41 -120 -67z" />
    <glyph glyph-name="agrave" unicode="&#xe0;" horiz-adv-x="798" 
d="M305 1034l94 -198q-13 -5 -21 -7t-13.5 -3t-11.5 4t-8.5 8t-11 15t-14.5 19l-143 187q10 5 28.5 16.5t27.5 14.5t22.5 2.5t25.5 -15t25 -43.5zM858 610l33 -22q-14 -27 -45.5 -93.5t-58.5 -124t-66 -128t-74 -120t-76.5 -85t-78.5 -37.5q-58 5 -99 35t-61 71.5t-28 98
t-6.5 107.5t9.5 108q-98 -196 -186 -203q-71 -5 -103 82q-35 93 -4 216q34 139 128 201q61 39 137 36q57 -2 102.5 -30.5t64.5 -88.5q-14 -5 -19.5 -6t-10.5 5t-7 12.5t-9 17.5t-17 20q-33 26 -66 29q-46 3 -85 -41.5t-61.5 -110t-35.5 -131.5t-12.5 -112.5t12.5 -47.5
q34 -1 79.5 68t74 135t45.5 115q31 -6 75 -12q28 -4 38 -6t16.5 -13.5t4.5 -28t-8 -54.5q-3 -20 -5 -32q-7 -52 -10.5 -85.5t-8 -87t-3.5 -88t5.5 -69.5t17.5 -51.5t33 -15.5q36 2 79 46t87 120t78 142t73.5 151t51.5 108z" />
    <glyph glyph-name="aacute" unicode="&#xe1;" horiz-adv-x="798" 
d="M332 1038q11 24 22 38t20 19t21 2.5t20 -7.5t23 -13.5t25 -13.5l-146 -186q-6 -8 -16.5 -22.5t-12.5 -16.5t-10 -6t-15.5 -1l-22.5 9zM858 610l33 -22q-14 -27 -45.5 -93.5t-58.5 -124t-66 -128t-74 -120t-76.5 -85t-78.5 -37.5q-58 5 -99 35t-61 71.5t-28 98t-6.5 107.5
t9.5 108q-98 -196 -186 -203q-71 -5 -103 82q-35 93 -4 216q34 139 128 201q61 39 137 36q57 -2 102.5 -30.5t64.5 -88.5q-14 -5 -19.5 -6t-10.5 5t-7 12.5t-9 17.5t-17 20q-33 26 -66 29q-46 3 -85 -41.5t-61.5 -110t-35.5 -131.5t-12.5 -112.5t12.5 -47.5q34 -1 79.5 68
t74 135t45.5 115q31 -6 75 -12q28 -4 38 -6t16.5 -13.5t4.5 -28t-8 -54.5q-3 -20 -5 -32q-7 -52 -10.5 -85.5t-8 -87t-3.5 -88t5.5 -69.5t17.5 -51.5t33 -15.5q36 2 79 46t87 120t78 142t73.5 151t51.5 108z" />
    <glyph glyph-name="acircumflex" unicode="&#xe2;" horiz-adv-x="798" 
d="M401 936q9 -13 19 -26t12 -17t5 -9t-2 -9t-9.5 -8.5t-18 -15.5t-26.5 -24l-131 191l-105 -137q-7 -9 -15 -19.5t-8.5 -13.5t-7.5 -3t-10 3t-18 14l178 236l17 22l14 -24zM858 610l33 -22q-14 -27 -45.5 -93.5t-58.5 -124t-66 -128t-74 -120t-76.5 -85t-78.5 -37.5
q-58 5 -99 35t-61 71.5t-28 98t-6.5 107.5t9.5 108q-98 -196 -186 -203q-71 -5 -103 82q-35 93 -4 216q34 139 128 201q61 39 137 36q57 -2 102.5 -30.5t64.5 -88.5q-14 -5 -19.5 -6t-10.5 5t-7 12.5t-9 17.5t-17 20q-33 26 -66 29q-46 3 -85 -41.5t-61.5 -110t-35.5 -131.5
t-12.5 -112.5t12.5 -47.5q34 -1 79.5 68t74 135t45.5 115q31 -6 75 -12q28 -4 38 -6t16.5 -13.5t4.5 -28t-8 -54.5q-3 -20 -5 -32q-7 -52 -10.5 -85.5t-8 -87t-3.5 -88t5.5 -69.5t17.5 -51.5t33 -15.5q36 2 79 46t87 120t78 142t73.5 151t51.5 108z" />
    <glyph glyph-name="atilde" unicode="&#xe3;" horiz-adv-x="798" 
d="M444 889q-30 -35 -61 -49t-56.5 -10t-50.5 15.5t-48.5 23.5t-45 17.5t-44 -5t-42.5 -41.5q-4 4 -11 10t-9 8.5t-3 8.5t3.5 13.5t13.5 18.5q36 48 73.5 57t70.5 -6.5t65.5 -33t69.5 -14.5t71 40q12 -10 17.5 -16t2.5 -14t-4 -9t-12 -14zM858 610l33 -22
q-14 -27 -45.5 -93.5t-58.5 -124t-66 -128t-74 -120t-76.5 -85t-78.5 -37.5q-58 5 -99 35t-61 71.5t-28 98t-6.5 107.5t9.5 108q-98 -196 -186 -203q-71 -5 -103 82q-35 93 -4 216q34 139 128 201q61 39 137 36q57 -2 102.5 -30.5t64.5 -88.5q-14 -5 -19.5 -6t-10.5 5
t-7 12.5t-9 17.5t-17 20q-33 26 -66 29q-46 3 -85 -41.5t-61.5 -110t-35.5 -131.5t-12.5 -112.5t12.5 -47.5q34 -1 79.5 68t74 135t45.5 115q31 -6 75 -12q28 -4 38 -6t16.5 -13.5t4.5 -28t-8 -54.5q-3 -20 -5 -32q-7 -52 -10.5 -85.5t-8 -87t-3.5 -88t5.5 -69.5t17.5 -51.5
t33 -15.5q36 2 79 46t87 120t78 142t73.5 151t51.5 108z" />
    <glyph glyph-name="adieresis" unicode="&#xe4;" horiz-adv-x="798" 
d="M369 956q22 0 33.5 -17.5t7.5 -43.5q-4 -28 -23.5 -46t-42.5 -18q-22 0 -33.5 18t-7.5 46q4 26 23.5 43.5t42.5 17.5zM193 956q23 0 35.5 -17.5t7.5 -43.5q-4 -27 -24 -45.5t-42 -18.5t-34.5 18.5t-6.5 45.5q4 26 23 43.5t41 17.5zM858 610l33 -22q-14 -27 -45.5 -93.5
t-58.5 -124t-66 -128t-74 -120t-76.5 -85t-78.5 -37.5q-58 5 -99 35t-61 71.5t-28 98t-6.5 107.5t9.5 108q-98 -196 -186 -203q-71 -5 -103 82q-35 93 -4 216q34 139 128 201q61 39 137 36q57 -2 102.5 -30.5t64.5 -88.5q-14 -5 -19.5 -6t-10.5 5t-7 12.5t-9 17.5t-17 20
q-33 26 -66 29q-46 3 -85 -41.5t-61.5 -110t-35.5 -131.5t-12.5 -112.5t12.5 -47.5q34 -1 79.5 68t74 135t45.5 115q31 -6 75 -12q28 -4 38 -6t16.5 -13.5t4.5 -28t-8 -54.5q-3 -20 -5 -32q-7 -52 -10.5 -85.5t-8 -87t-3.5 -88t5.5 -69.5t17.5 -51.5t33 -15.5q36 2 79 46
t87 120t78 142t73.5 151t51.5 108z" />
    <glyph glyph-name="aring" unicode="&#xe5;" horiz-adv-x="798" 
d="M303 1034q35 0 55.5 -30.5t12.5 -71.5q-8 -43 -39 -74t-68 -31q-35 0 -55 31t-12 74q8 42 39 72t67 30zM332 932q3 23 -8 39t-31 16q-19 0 -36 -16t-21 -39q-3 -25 7.5 -41.5t30.5 -16.5q19 0 36.5 17t21.5 41zM858 610l33 -22q-14 -27 -45.5 -93.5t-58.5 -124t-66 -128
t-74 -120t-76.5 -85t-78.5 -37.5q-58 5 -99 35t-61 71.5t-28 98t-6.5 107.5t9.5 108q-98 -196 -186 -203q-71 -5 -103 82q-35 93 -4 216q34 139 128 201q61 39 137 36q57 -2 102.5 -30.5t64.5 -88.5q-14 -5 -19.5 -6t-10.5 5t-7 12.5t-9 17.5t-17 20q-33 26 -66 29
q-46 3 -85 -41.5t-61.5 -110t-35.5 -131.5t-12.5 -112.5t12.5 -47.5q34 -1 79.5 68t74 135t45.5 115q31 -6 75 -12q28 -4 38 -6t16.5 -13.5t4.5 -28t-8 -54.5q-3 -20 -5 -32q-7 -52 -10.5 -85.5t-8 -87t-3.5 -88t5.5 -69.5t17.5 -51.5t33 -15.5q36 2 79 46t87 120t78 142
t73.5 151t51.5 108z" />
    <glyph glyph-name="ae" unicode="&#xe6;" horiz-adv-x="1298" 
d="M1360 600l31 -20q-26 -59 -77 -135.5t-113.5 -149.5t-133.5 -124t-125 -52q-156 -6 -203 160q-144 -274 -247 -279q-58 5 -99 35t-61 71.5t-28 98t-6.5 107.5t9.5 108q-98 -196 -186 -203q-71 -5 -103 82q-35 93 -4 216q34 139 128 201q61 39 137 36q57 -2 102.5 -30.5
t64.5 -88.5q-14 -5 -19.5 -6t-10.5 5t-7 12.5t-9 17.5t-17 20q-33 26 -66 29q-46 3 -85 -41.5t-61.5 -110t-35.5 -131.5t-12.5 -112.5t12.5 -47.5q34 -1 79.5 68t74 135t45.5 115q31 -6 75 -12q28 -4 38 -6t16.5 -13.5t4.5 -28t-8 -54.5q-3 -20 -5 -32q-7 -52 -10.5 -85.5
t-8 -87t-3.5 -88t5.5 -69.5t17.5 -51.5t33 -15.5q91 5 240 299q-9 103 23.5 210t102 181t155.5 72q59 -2 74 -54q16 -54 -23 -109q-50 -72 -149 -70l-17 1q-10 -37 -18.5 -100t-11.5 -136t15.5 -124.5t59.5 -50.5q49 1 115.5 51t125.5 120t107.5 142.5t71.5 124.5zM1026 766
q-25 0 -61 -45.5t-58 -104.5q83 -8 126 56q28 42 17 76q-7 18 -24 18z" />
    <glyph glyph-name="ccedilla" unicode="&#xe7;" horiz-adv-x="585" 
d="M229 20q4 17 13 39l-47 -4l-5 -16q-4 -10 -6.5 -15.5t-3 -10.5t-1 -7t3 -3.5t5 -2t8.5 -1.5t11 -1q45 -4 37 -47q-7 -38 -43 -65q-20 -15 -39 -15q-29 -1 -24 27q5 25 26 38q9 5 16 3q2 9 -4 18t-18 6q-22 -6 -38 -33t-11 -54.5t34 -33.5q67 -14 122 42q44 44 39 88
q-7 49 -75 48zM645 600l33 -20q-27 -58 -61 -120.5t-85 -140.5t-101.5 -138t-110 -101t-111.5 -41q-70 3 -119 46.5t-68 110.5t-22 147t18 159.5t53 145.5t82.5 108t106.5 43q37 3 66.5 -27t36.5 -91.5t-35 -154.5q-5 4 -12 10t-9 7.5t-5 5t-2.5 4.5t0.5 5.5t2 7.5t4.5 10.5
t4.5 15.5q16 54 11 90t-22 54.5t-38 15.5q-58 -9 -96.5 -176.5t-28 -331.5t71.5 -162q57 0 125.5 58.5t129.5 147.5t105.5 167t75.5 145z" />
    <glyph glyph-name="egrave" unicode="&#xe8;" horiz-adv-x="571" 
d="M240 1096l94 -199q-13 -5 -21 -7t-13.5 -3t-11 4.5l-8.5 8.5t-11.5 15t-14.5 19l-143 186q11 5 29 16.5t27 15t22.5 3t25.5 -15t25 -43.5zM633 600l31 -20q-26 -59 -77 -135.5t-113.5 -149.5t-133.5 -124t-125 -52q-136 -5 -189 121q-47 113 -11 269q34 152 123 235
q67 63 145 61q59 -2 74 -54q16 -54 -23 -109q-50 -72 -149 -70q-8 0 -17 1q-10 -37 -18.5 -100t-11.5 -136t15.5 -124.5t59.5 -50.5q49 1 115.5 51t125.5 120t107.5 142.5t71.5 124.5zM299 766q-25 0 -61 -45.5t-58 -104.5q83 -8 126 56q28 42 17 76q-7 18 -24 18z" />
    <glyph glyph-name="eacute" unicode="&#xe9;" horiz-adv-x="571" 
d="M272 1075q11 24 22 38t20 19t21 2.5t20 -7.5t23 -13.5t25 -13.5l-145 -187q-6 -7 -14.5 -19t-11 -15t-8.5 -8t-11 -4t-13 3t-20 7zM633 600l31 -20q-26 -59 -77 -135.5t-113.5 -149.5t-133.5 -124t-125 -52q-136 -5 -189 121q-47 113 -11 269q34 152 123 235
q67 63 145 61q59 -2 74 -54q16 -54 -23 -109q-50 -72 -149 -70q-8 0 -17 1q-10 -37 -18.5 -100t-11.5 -136t15.5 -124.5t59.5 -50.5q49 1 115.5 51t125.5 120t107.5 142.5t71.5 124.5zM299 766q-25 0 -61 -45.5t-58 -104.5q83 -8 126 56q28 42 17 76q-7 18 -24 18z" />
    <glyph glyph-name="ecircumflex" unicode="&#xea;" horiz-adv-x="571" 
d="M401 952q9 -13 19 -26t12 -17t5 -9t-2 -8.5t-9.5 -8.5t-18 -15.5t-26.5 -23.5l-131 190l-105 -137q-7 -9 -15 -19.5t-8.5 -13.5t-7.5 -2t-9.5 3t-18.5 14l178 235l17 23l14 -25zM633 600l31 -20q-26 -59 -77 -135.5t-113.5 -149.5t-133.5 -124t-125 -52q-136 -5 -189 121
q-47 113 -11 269q34 152 123 235q67 63 145 61q59 -2 74 -54q16 -54 -23 -109q-50 -72 -149 -70q-8 0 -17 1q-10 -37 -18.5 -100t-11.5 -136t15.5 -124.5t59.5 -50.5q49 1 115.5 51t125.5 120t107.5 142.5t71.5 124.5zM299 766q-25 0 -61 -45.5t-58 -104.5q83 -8 126 56
q28 42 17 76q-7 18 -24 18z" />
    <glyph glyph-name="edieresis" unicode="&#xeb;" horiz-adv-x="571" 
d="M348 995q22 0 33.5 -17.5t7.5 -43.5q-4 -28 -23 -46t-42 -18q-22 0 -33.5 18t-7.5 46q4 26 23 43.5t42 17.5zM172 995q23 0 35.5 -17.5t7.5 -43.5q-4 -27 -23.5 -45.5t-41.5 -18.5t-34.5 18.5t-6.5 45.5q4 26 22.5 43.5t40.5 17.5zM633 600l31 -20q-26 -59 -77 -135.5
t-113.5 -149.5t-133.5 -124t-125 -52q-136 -5 -189 121q-47 113 -11 269q34 152 123 235q67 63 145 61q59 -2 74 -54q16 -54 -23 -109q-50 -72 -149 -70q-8 0 -17 1q-10 -37 -18.5 -100t-11.5 -136t15.5 -124.5t59.5 -50.5q49 1 115.5 51t125.5 120t107.5 142.5t71.5 124.5z
M299 766q-25 0 -61 -45.5t-58 -104.5q83 -8 126 56q28 42 17 76q-7 18 -24 18z" />
    <glyph glyph-name="igrave" unicode="&#xec;" horiz-adv-x="475" 
d="M537 602l30 -22q-27 -58 -67.5 -125.5t-94.5 -143t-115 -124t-112 -46.5q-36 1 -65 15.5t-48 37t-32.5 57t-20.5 67.5t-10 78.5t-2.5 81.5t4 83.5t6.5 76.5t8 69q4 33 6.5 49t8.5 29t10 15.5t17 2t24.5 -5.5t36.5 -12t49 -13q-45 -320 -40 -455q5 -133 50 -135
q43 -1 99 47t107 120.5t89.5 137.5t61.5 115zM94 1116l94 -198q-13 -5 -21 -7t-13.5 -3t-11 4t-8 8t-11 14.5t-14.5 19.5l-144 187q10 5 28.5 16.5t27.5 14.5t22.5 2.5t25.5 -15t25 -43.5z" />
    <glyph glyph-name="iacute" unicode="&#xed;" horiz-adv-x="475" 
d="M537 602l30 -22q-27 -58 -67.5 -125.5t-94.5 -143t-115 -124t-112 -46.5q-36 1 -65 15.5t-48 37t-32.5 57t-20.5 67.5t-10 78.5t-2.5 81.5t4 83.5t6.5 76.5t8 69q4 33 6.5 49t8.5 29t10 15.5t17 2t24.5 -5.5t36.5 -12t49 -13q-45 -320 -40 -455q5 -133 50 -135
q43 -1 99 47t107 120.5t89.5 137.5t61.5 115zM98 907l95 199q13 29 25 43.5t25.5 15t22.5 -3t27 -15t29 -16.5l-144 -186q-6 -7 -13 -17t-9.5 -14t-8 -9t-8.5 -5.5t-9.5 -0.5t-13.5 2.5t-18 6.5z" />
    <glyph glyph-name="icircumflex" unicode="&#xee;" horiz-adv-x="475" 
d="M254 977q9 -13 19 -26t12 -17t5 -9t-2.5 -9t-10 -8.5t-18 -15.5t-26.5 -24l-131 191l-104 -137q-7 -9 -15 -19.5t-8.5 -13.5t-7.5 -3t-10 3t-18 14l178 236l16 22l14 -24zM537 602l30 -22q-27 -58 -67.5 -125.5t-94.5 -143t-115 -124t-112 -46.5q-36 1 -65 15.5t-48 37
t-32.5 57t-20.5 67.5t-10 78.5t-2.5 81.5t4 83.5t6.5 76.5t8 69q4 33 6.5 49t8.5 29t10 15.5t17 2t24.5 -5.5t36.5 -12t49 -13q-45 -320 -40 -455q5 -133 50 -135q43 -1 99 47t107 120.5t89.5 137.5t61.5 115z" />
    <glyph glyph-name="idieresis" unicode="&#xef;" horiz-adv-x="475" 
d="M217 1016q22 0 33.5 -18t7.5 -44q-4 -28 -23 -45.5t-42 -17.5q-22 0 -33.5 17.5t-7.5 45.5q5 26 23.5 44t41.5 18zM41 1016q23 0 35.5 -18t7.5 -44q-4 -27 -24 -45t-42 -18t-34.5 18t-6.5 45q4 26 23 44t41 18zM537 602l30 -22q-27 -58 -67.5 -125.5t-94.5 -143
t-115 -124t-112 -46.5q-36 1 -65 15.5t-48 37t-32.5 57t-20.5 67.5t-10 78.5t-2.5 81.5t4 83.5t6.5 76.5t8 69q4 33 6.5 49t8.5 29t10 15.5t17 2t24.5 -5.5t36.5 -12t49 -13q-45 -320 -40 -455q5 -133 50 -135q43 -1 99 47t107 120.5t89.5 137.5t61.5 115z" />
    <glyph glyph-name="ntilde" unicode="&#xf1;" horiz-adv-x="874" 
d="M549 883q-30 -35 -61 -49t-56.5 -10t-50.5 15.5t-48.5 23.5t-45 17.5t-44 -5t-42.5 -41.5q-4 4 -11 10t-9 8.5t-3 8.5t3.5 13.5t13.5 18.5q36 48 73.5 57t70.5 -6.5t65.5 -33t69.5 -14.5t71 40q12 -10 17.5 -16t2.5 -14t-4 -9t-12 -14zM938 596l29 -25q-10 -16 -50.5 -85
t-68.5 -115t-74.5 -118.5t-84 -122t-79 -98t-77.5 -73t-64 -22.5q-60 3 -88.5 44.5t-28 105.5t13.5 140.5t32.5 152t34 137t13.5 98.5t-26 34q-112 -12 -309 -430q-13 -34 -17 -39q-29 11 -70 23q-22 6 -30.5 9t-16.5 10t-7.5 16t2.5 26t7 42q3 15 5 24q14 75 39 206t26 138
q7 36 10 51.5t10 30.5t10.5 17.5t16.5 2.5t23 -5t35 -13.5t47 -14.5q-45 -210 -90 -438q35 70 66.5 126.5t76 122.5t90 102.5t86.5 35.5q148 -4 119 -252q-9 -81 -60 -289q-34 -143 -21 -165q5 -9 17 -6q23 6 54.5 33.5t70 77.5t71 94.5t77.5 116.5t68 109t65 107t47 78z
" />
    <glyph glyph-name="ograve" unicode="&#xf2;" horiz-adv-x="550" 
d="M170 983l94 -199q-13 -5 -21 -7t-13.5 -3t-11 4.5l-8.5 8.5t-11.5 15t-14.5 19l-143 187q10 5 28.5 16.5t27.5 14.5t22.5 2.5t25.5 -15t25 -43.5zM614 602l29 -24q-20 -34 -45 -69t-59.5 -72t-69 -63.5t-74.5 -39.5t-76 -4q-77 -218 -196 -215q-74 1 -111 55t-37.5 133
t14.5 156t40 137q11 26 18 40.5t15.5 23t14 10t17.5 -4t20.5 -12t28.5 -21.5t37 -26q-28 -42 -58 -174q-45 -196 -7 -252q12 -18 32 -18q36 0 78 60t62 122q-50 34 -75.5 124t-11.5 165t62 72q32 -2 51.5 -42.5t23.5 -97t2.5 -107t-7.5 -83.5q36 -8 79 13t82 60t69 78t52 76
zM297 391q5 31 7 90.5t-8 119t-34 61.5q-23 -1 -26.5 -59t14 -124.5t47.5 -87.5z" />
    <glyph glyph-name="oacute" unicode="&#xf3;" horiz-adv-x="550" 
d="M221 975q13 29 25 43.5t26 15t23 -3t28 -15t29 -16.5l-145 -186q-6 -7 -13 -17t-9.5 -14t-8 -8.5t-8.5 -5.5t-9 -1t-13 2.5t-17 6.5zM614 602l29 -24q-20 -34 -45 -69t-59.5 -72t-69 -63.5t-74.5 -39.5t-76 -4q-77 -218 -196 -215q-74 1 -111 55t-37.5 133t14.5 156
t40 137q11 26 18 40.5t15.5 23t14 10t17.5 -4t20.5 -12t28.5 -21.5t37 -26q-28 -42 -58 -174q-45 -196 -7 -252q12 -18 32 -18q36 0 78 60t62 122q-50 34 -75.5 124t-11.5 165t62 72q32 -2 51.5 -42.5t23.5 -97t2.5 -107t-7.5 -83.5q36 -8 79 13t82 60t69 78t52 76zM297 391
q5 31 7 90.5t-8 119t-34 61.5q-23 -1 -26.5 -59t14 -124.5t47.5 -87.5z" />
    <glyph glyph-name="ocircumflex" unicode="&#xf4;" horiz-adv-x="550" 
d="M297 866q9 -13 19 -26t12 -17t5 -9t-2.5 -8.5t-10 -8.5t-18 -15.5t-26.5 -23.5l-131 190l-104 -137q-7 -9 -15 -19.5t-8.5 -13.5t-7.5 -2t-9.5 3t-18.5 14l178 235l16 23l14 -25zM614 602l29 -24q-20 -34 -45 -69t-59.5 -72t-69 -63.5t-74.5 -39.5t-76 -4
q-77 -218 -196 -215q-74 1 -111 55t-37.5 133t14.5 156t40 137q11 26 18 40.5t15.5 23t14 10t17.5 -4t20.5 -12t28.5 -21.5t37 -26q-28 -42 -58 -174q-45 -196 -7 -252q12 -18 32 -18q36 0 78 60t62 122q-50 34 -75.5 124t-11.5 165t62 72q32 -2 51.5 -42.5t23.5 -97
t2.5 -107t-7.5 -83.5q36 -8 79 13t82 60t69 78t52 76zM297 391q5 31 7 90.5t-8 119t-34 61.5q-23 -1 -26.5 -59t14 -124.5t47.5 -87.5z" />
    <glyph glyph-name="otilde" unicode="&#xf5;" horiz-adv-x="550" 
d="M352 848q-30 -35 -61 -49t-56.5 -10t-50.5 15.5t-48.5 23.5t-45 17.5t-44 -5t-42.5 -41.5q-4 4 -11 10t-9 8.5t-3 8.5t3.5 13.5t13.5 18.5q36 48 73.5 57t70.5 -6.5t65.5 -33t69.5 -14.5t71 40q12 -10 17.5 -16t2.5 -14t-4 -9t-12 -14zM614 602l29 -24q-20 -34 -45 -69
t-59.5 -72t-69 -63.5t-74.5 -39.5t-76 -4q-77 -218 -196 -215q-74 1 -111 55t-37.5 133t14.5 156t40 137q11 26 18 40.5t15.5 23t14 10t17.5 -4t20.5 -12t28.5 -21.5t37 -26q-28 -42 -58 -174q-45 -196 -7 -252q12 -18 32 -18q36 0 78 60t62 122q-50 34 -75.5 124t-11.5 165
t62 72q32 -2 51.5 -42.5t23.5 -97t2.5 -107t-7.5 -83.5q36 -8 79 13t82 60t69 78t52 76zM297 391q5 31 7 90.5t-8 119t-34 61.5q-23 -1 -26.5 -59t14 -124.5t47.5 -87.5z" />
    <glyph glyph-name="odieresis" unicode="&#xf6;" horiz-adv-x="550" 
d="M276 893q22 0 33.5 -18t7.5 -44q-4 -28 -23 -45.5t-42 -17.5q-22 0 -33.5 17.5t-7.5 45.5q5 26 23.5 44t41.5 18zM100 893q23 0 35.5 -18t7.5 -44q-4 -27 -23.5 -45t-41.5 -18t-34.5 18t-6.5 45q4 26 22.5 44t40.5 18zM614 602l29 -24q-20 -34 -45 -69t-59.5 -72
t-69 -63.5t-74.5 -39.5t-76 -4q-77 -218 -196 -215q-74 1 -111 55t-37.5 133t14.5 156t40 137q11 26 18 40.5t15.5 23t14 10t17.5 -4t20.5 -12t28.5 -21.5t37 -26q-28 -42 -58 -174q-45 -196 -7 -252q12 -18 32 -18q36 0 78 60t62 122q-50 34 -75.5 124t-11.5 165t62 72
q32 -2 51.5 -42.5t23.5 -97t2.5 -107t-7.5 -83.5q36 -8 79 13t82 60t69 78t52 76zM297 391q5 31 7 90.5t-8 119t-34 61.5q-23 -1 -26.5 -59t14 -124.5t47.5 -87.5z" />
    <glyph glyph-name="oslash" unicode="&#xf8;" horiz-adv-x="550" 
d="M614 602l29 -24q-20 -34 -45 -69t-59.5 -72t-69 -63.5t-74.5 -39.5t-76 -4q-77 -218 -196 -215q-24 0 -45 6q-3 -7 -9 -20.5t-8.5 -18.5t-7.5 -14.5t-7 -12.5t-7 -9t-9 -7.5t-10 -4.5t-12.5 -4t-15.5 -1l53 106q-41 28 -58 86.5t-12 127t19 132.5t35 115q11 26 18 40.5
t15.5 23t14 10t17.5 -4t20.5 -12t28.5 -21.5t37 -26q-25 -37 -55.5 -160t-26.5 -204l113 225q-16 55 -16 110.5t17.5 92.5t49.5 35q30 -3 49 -39l4 8q14 37 25.5 51t18.5 12t18 -10.5t18 -9.5l-63 -119q9 -65 8 -125t-8 -98q36 -8 79 13t82 60t69 78t52 76zM287 344
q-34 21 -56 66l-118 -226q13 -22 34 -22q36 0 78 60t62 122zM262 662q-19 -1 -24.5 -44t2.5 -94l51 101q-10 34 -29 37zM297 391q9 53 6 152l-47 -86q16 -48 41 -66z" />
    <glyph glyph-name="ugrave" unicode="&#xf9;" horiz-adv-x="823" 
d="M305 1034l94 -198q-13 -5 -21 -7t-13.5 -3t-11.5 4t-8.5 8t-11 15t-14.5 19l-143 187q10 5 28.5 16.5t27.5 14.5t22.5 2.5t25.5 -15t25 -43.5zM887 604l28 -24l-10 -17q-23 -40 -45 -76t-66.5 -107.5t-84.5 -126.5t-84.5 -110t-82 -82t-61.5 -20q-48 3 -80 30.5
t-46.5 68.5t-18.5 97.5t0 108.5t14 111q-108 -243 -192 -238q-238 4 -115 508q7 29 11.5 45t11.5 26.5t12 12.5t17.5 -0.5t23 -8.5t33.5 -16t45 -18q-1 -2 -9 -33.5t-13.5 -56t-15.5 -68t-15.5 -78t-12 -76.5t-7.5 -73.5t1 -59.5t11.5 -43.5t25.5 -17.5q27 2 56.5 35t57 87
t48.5 102.5t43.5 106t29.5 73.5q20 -7 40 -12.5t32 -7.5t23.5 -7t17 -5t9.5 -7t5 -9t0 -14.5t-3 -19.5t-7 -28.5t-8 -37.5q-89 -418 -17 -436q74 -19 388 506z" />
    <glyph glyph-name="uacute" unicode="&#xfa;" horiz-adv-x="823" 
d="M389 987q11 24 22 38t20 19t21 2.5t20 -7.5t23 -13.5t25 -13.5l-145 -187q-6 -7 -13 -17t-9.5 -14t-8 -8.5t-8.5 -5.5t-9 -1t-13 2.5t-17 6.5zM887 604l28 -24l-10 -17q-23 -40 -45 -76t-66.5 -107.5t-84.5 -126.5t-84.5 -110t-82 -82t-61.5 -20q-48 3 -80 30.5
t-46.5 68.5t-18.5 97.5t0 108.5t14 111q-108 -243 -192 -238q-238 4 -115 508q7 29 11.5 45t11.5 26.5t12 12.5t17.5 -0.5t23 -8.5t33.5 -16t45 -18q-1 -2 -9 -33.5t-13.5 -56t-15.5 -68t-15.5 -78t-12 -76.5t-7.5 -73.5t1 -59.5t11.5 -43.5t25.5 -17.5q27 2 56.5 35t57 87
t48.5 102.5t43.5 106t29.5 73.5q20 -7 40 -12.5t32 -7.5t23.5 -7t17 -5t9.5 -7t5 -9t0 -14.5t-3 -19.5t-7 -28.5t-8 -37.5q-89 -418 -17 -436q74 -19 388 506z" />
    <glyph glyph-name="ucircumflex" unicode="&#xfb;" horiz-adv-x="823" 
d="M492 944q9 -13 19 -26t12 -17t5 -9t-2.5 -8.5t-10 -8.5t-18 -15.5t-26.5 -23.5l-131 190l-104 -137q-7 -9 -15 -20t-9 -13.5t-7.5 -2.5t-10.5 3t-18 14l178 236l17 22l14 -24zM887 604l28 -24l-10 -17q-23 -40 -45 -76t-66.5 -107.5t-84.5 -126.5t-84.5 -110t-82 -82
t-61.5 -20q-48 3 -80 30.5t-46.5 68.5t-18.5 97.5t0 108.5t14 111q-108 -243 -192 -238q-238 4 -115 508q7 29 11.5 45t11.5 26.5t12 12.5t17.5 -0.5t23 -8.5t33.5 -16t45 -18q-1 -2 -9 -33.5t-13.5 -56t-15.5 -68t-15.5 -78t-12 -76.5t-7.5 -73.5t1 -59.5t11.5 -43.5
t25.5 -17.5q27 2 56.5 35t57 87t48.5 102.5t43.5 106t29.5 73.5q20 -7 40 -12.5t32 -7.5t23.5 -7t17 -5t9.5 -7t5 -9t0 -14.5t-3 -19.5t-7 -28.5t-8 -37.5q-89 -418 -17 -436q74 -19 388 506z" />
    <glyph glyph-name="udieresis" unicode="&#xfc;" horiz-adv-x="823" 
d="M471 965q22 0 33.5 -18t7.5 -44q-4 -27 -23 -45t-43 -18q-22 0 -33 17.5t-7 45.5q5 26 23.5 44t41.5 18zM295 965q23 0 35.5 -18t7.5 -44q-4 -27 -24 -45t-42 -18t-34.5 18t-6.5 45q4 26 23 44t41 18zM887 604l28 -24l-10 -17q-23 -40 -45 -76t-66.5 -107.5t-84.5 -126.5
t-84.5 -110t-82 -82t-61.5 -20q-48 3 -80 30.5t-46.5 68.5t-18.5 97.5t0 108.5t14 111q-108 -243 -192 -238q-238 4 -115 508q7 29 11.5 45t11.5 26.5t12 12.5t17.5 -0.5t23 -8.5t33.5 -16t45 -18q-1 -2 -9 -33.5t-13.5 -56t-15.5 -68t-15.5 -78t-12 -76.5t-7.5 -73.5
t1 -59.5t11.5 -43.5t25.5 -17.5q27 2 56.5 35t57 87t48.5 102.5t43.5 106t29.5 73.5q20 -7 40 -12.5t32 -7.5t23.5 -7t17 -5t9.5 -7t5 -9t0 -14.5t-3 -19.5t-7 -28.5t-8 -37.5q-89 -418 -17 -436q74 -19 388 506z" />
    <glyph glyph-name="yacute" unicode="&#xfd;" horiz-adv-x="911" 
d="M414 938q11 24 22 38t20 19t21 2.5t20 -7.5t23 -13.5t25 -13.5l-146 -187q-6 -8 -16.5 -22.5t-12.5 -16.5t-10 -6t-15.5 -1l-22.5 9zM971 606l33 -20q-24 -56 -52 -110t-50.5 -94t-59.5 -91.5t-57 -79t-65.5 -81t-62 -72.5t-70.5 -78.5t-69 -75.5q-4 -46 -9 -90.5
t-17 -122.5t-26.5 -143.5t-37.5 -139.5t-50 -125.5t-65.5 -86.5t-81.5 -36q-52 -2 -77.5 71.5t-3.5 188.5q22 109 76.5 202t140.5 200q12 156 25.5 329t21.5 273q-18 -60 -35 -108t-41.5 -102t-49.5 -89.5t-58 -59.5t-68 -24q-59 -1 -96 35t-51 92t-14 133.5t9 147t25 145.5
q2 8 5 24q18 88 29 103q12 15 49 3q8 -2 27 -9q39 -13 66 -21q-14 -46 -35 -135t-42 -203t-16 -194.5t46 -77.5q28 2 54.5 23t50 60t42.5 79t38.5 97.5t31.5 96.5t27.5 94t21.5 74q27 -2 67 -3q55 -2 63 -14t1 -84q-3 -30 -4 -48q-7 -93 -33 -488q34 41 103 119.5t102.5 120
t83 108.5t87 136t71.5 151zM231 -793q24 0 43.5 24.5t32 67.5t21.5 92.5t14.5 108t8.5 103.5t5.5 89.5t3.5 57.5q-144 -180 -174 -348q-15 -95 -1 -145t46 -50z" />
    <glyph glyph-name="ydieresis" unicode="&#xff;" horiz-adv-x="911" 
d="M496 897q22 0 33.5 -17.5t7.5 -43.5q-4 -28 -23.5 -46t-42.5 -18q-22 0 -33.5 18t-7.5 46q4 26 23.5 43.5t42.5 17.5zM319 897q23 0 35.5 -17.5t7.5 -43.5q-4 -27 -23.5 -45.5t-41.5 -18.5t-34.5 18.5t-6.5 45.5q4 26 22.5 43.5t40.5 17.5zM971 606l33 -20
q-24 -56 -52 -110t-50.5 -94t-59.5 -91.5t-57 -79t-65.5 -81t-62 -72.5t-70.5 -78.5t-69 -75.5q-4 -46 -9 -90.5t-17 -122.5t-26.5 -143.5t-37.5 -139.5t-50 -125.5t-65.5 -86.5t-81.5 -36q-52 -2 -77.5 71.5t-3.5 188.5q22 109 76.5 202t140.5 200q12 156 25.5 329
t21.5 273q-18 -60 -35 -108t-41.5 -102t-49.5 -89.5t-58 -59.5t-68 -24q-59 -1 -96 35t-51 92t-14 133.5t9 147t25 145.5q2 8 5 24q18 88 29 103q12 15 49 3q8 -2 27 -9q39 -13 66 -21q-14 -46 -35 -135t-42 -203t-16 -194.5t46 -77.5q28 2 54.5 23t50 60t42.5 79t38.5 97.5
t31.5 96.5t27.5 94t21.5 74q27 -2 67 -3q55 -2 63 -14t1 -84q-3 -30 -4 -48q-7 -93 -33 -488q34 41 103 119.5t102.5 120t83 108.5t87 136t71.5 151zM231 -793q24 0 43.5 24.5t32 67.5t21.5 92.5t14.5 108t8.5 103.5t5.5 89.5t3.5 57.5q-144 -180 -174 -348q-15 -95 -1 -145
t46 -50z" />
    <glyph glyph-name="OE" unicode="&#x152;" horiz-adv-x="1761" 
d="M1819 618l34 -14q-36 -105 -86.5 -208.5t-126 -212t-160.5 -190.5t-195.5 -136.5t-227.5 -57.5q-163 -4 -229.5 71.5t-61.5 205.5q0 31 10 76q-44 -10 -90 -7q-72 -145 -170 -226.5t-221 -80.5q-144 2 -225 182q-82 183 -69 467q13 298 122 527q114 242 294 304
q55 19 115 19v-34q-122 -1 -215 -147t-130.5 -354.5t-44 -417t37.5 -354.5t121 -147q106 -7 195.5 67.5t154.5 207.5q-60 32 -99.5 129t-52.5 220t-6.5 261t31 254t68 197t96.5 92q42 8 73 -24.5t46.5 -81t25 -114t11.5 -107t2 -77.5q0 -203 -43 -409q-42 -190 -96 -305
q35 -8 81 6q41 127 141 247t216 195q-129 -16 -199 91q-64 97 -48 238q16 155 117 256q104 104 265 109q77 2 135 -20t87.5 -57.5t41.5 -80.5t4 -87.5t-32.5 -78.5t-61.5 -55q-29 -15 -38 -10.5t-15 37.5q47 14 78 52t33.5 82.5t-16 86.5t-74.5 69t-138 25
q-111 -6 -182 -131q-62 -112 -59 -249q3 -135 70 -190q71 -57 187 3q15 -28 13.5 -32.5t-31.5 -26.5q-74 -53 -139 -121q-63 -66 -115 -143t-74 -142q-40 -101 -43 -213q-2 -95 34 -152.5t118 -56.5q107 1 212 54t187 134.5t154.5 187t121.5 205t81 193.5zM674 205
q56 126 92 301q43 200 43 401q0 19 -1.5 47.5t-5 75.5t-12 89.5t-20.5 81t-31.5 59.5t-44.5 16q-36 -6 -61 -158.5t-30.5 -339t12.5 -359t59 -214.5z" />
    <glyph glyph-name="oe" unicode="&#x153;" horiz-adv-x="1056" 
d="M1118 600l31 -20q-26 -59 -77 -135.5t-113.5 -149.5t-133.5 -124t-125 -52q-109 -4 -163 72t-52 194q-91 -74 -166 -55q-77 -218 -196 -215q-74 1 -111 55t-37.5 133t14.5 156t40 137q11 26 18 40.5t15.5 23t14 10t17.5 -4t20.5 -12t28.5 -21.5t37 -26q-28 -42 -58 -174
q-45 -196 -7 -252q12 -18 32 -18q36 0 78 60t62 122q-50 34 -75.5 124t-11.5 165t62 72q32 -2 51.5 -42.5t23.5 -97t2.5 -107t-7.5 -83.5q68 -17 155 67q10 92 47 174.5t99 136.5t135 52q59 -2 74 -54q16 -54 -23 -109q-50 -72 -149 -70l-17 1q-10 -37 -18.5 -100
t-11.5 -136t15.5 -124.5t59.5 -50.5q49 1 115.5 51t125.5 120t107.5 142.5t71.5 124.5zM297 391q5 31 7 90.5t-8 119t-34 61.5q-23 -1 -26.5 -59t14 -124.5t47.5 -87.5zM784 766q-25 0 -60.5 -45t-57.5 -105q83 -8 125 56q28 42 17 76q-7 18 -24 18z" />
    <glyph glyph-name="Scaron" unicode="&#x160;" horiz-adv-x="1128" 
d="M770 1516l-106 159q-9 13 -19 26t-12 17t-5 9t2 9t9.5 8.5t18 15.5t26.5 24l131 -191l105 138q7 9 15 19.5t8.5 13.5t7.5 2t9.5 -3t18.5 -14l-178 -236l-17 -22zM782 1016q94 -232 147.5 -426t45.5 -367q-5 -111 -49 -201t-112.5 -145t-150 -84.5t-167.5 -30.5
q-211 -2 -300 131q-68 101 -41 236q23 123 110 195q70 59 157 57q50 0 83 -24t9 -58q-49 40 -108 37q-55 -6 -101.5 -38t-73 -79.5t-39.5 -103.5t-1 -110t41.5 -98t91 -70t143.5 -23q63 2 121.5 26t108 68t82.5 115t40 161q6 89 -9.5 200.5t-37 193t-50.5 181.5t-38 138
q-89 -106 -222 -193t-253 -90q-110 -1 -169.5 60.5t-31.5 146.5q9 30 18.5 45.5t21.5 18t21 -0.5t25 -12q-67 -88 -34 -154.5t143 -66.5q116 0 250 91t217 194q-12 38 -23 89.5t-15 122.5t6 128.5t50 99t107 43.5q48 -1 76 -36.5t28 -84.5q-1 -77 -39.5 -155.5t-77.5 -126.5
zM793 1384q-122 -27 -31 -317l4 -12q33 41 65 109t33 132q0 35 -18 61t-53 27z" />
    <glyph glyph-name="scaron" unicode="&#x161;" horiz-adv-x="557" 
d="M106 977l-106 160q-9 13 -19 26t-12 17t-5 9t2 8.5t9.5 8.5t18 15.5t26.5 23.5l132 -190l104 137q7 9 15 19.5t8.5 13.5t7.5 2t9.5 -3t18.5 -14l-178 -235l-16 -23zM649 571q-100 -131 -176.5 -205t-183.5 -128q15 -111 -4.5 -200t-60.5 -138.5t-91.5 -71.5t-99.5 -12
q-51 13 -79 49.5t-20 97.5q9 73 69 140.5t149 111.5q-12 66 -49 173t-57 199t-5 177q14 80 65 111q41 25 68 -4q24 -26 19 -83q-7 -64 -52 -145q11 -23 20.5 -46t17 -39.5t17.5 -43t14.5 -38t16.5 -45t15.5 -43t19 -52.5t19.5 -55q101 52 176.5 126t163.5 193zM162 799
q7 47 -13 49q-17 2 -31 -30q-22 -52 5 -128q33 67 39 109zM49 -141q28 -2 50 11t41.5 47.5t23 96t-5.5 158.5q-72 -36 -128 -98.5t-59 -122.5q-2 -34 21.5 -61.5t56.5 -30.5z" />
    <glyph glyph-name="Ydieresis" unicode="&#x178;" horiz-adv-x="1142" 
d="M791 1470q22 0 33.5 -17.5t6.5 -43.5q-4 -28 -23 -45.5t-42 -17.5q-22 0 -33.5 17.5t-7.5 45.5q4 26 23.5 43.5t42.5 17.5zM614 1470q23 0 35.5 -17.5t7.5 -43.5q-4 -27 -23.5 -45t-41.5 -18t-34.5 18t-6.5 45q4 26 22.5 43.5t40.5 17.5zM1204 610l31 -18
q-68 -107 -128 -182.5t-117.5 -124.5t-94 -73t-98.5 -59q-17 -9 -25 -14q-17 -50 -32.5 -90.5t-40.5 -94.5t-50.5 -95.5t-61.5 -84.5t-74.5 -72t-88.5 -49t-105 -22q-182 -11 -182 111q0 53 37 108.5t93.5 100.5t125.5 84.5t132.5 65.5t113.5 38q27 95 47 194t34.5 223.5
t21 192t18.5 216.5q-135 -341 -155 -389q-180 -424 -271 -422q-64 2 -101 47.5t-45 124t-2.5 170.5t25.5 200t39.5 199t39 181.5t25.5 133.5q7 65 2 87t-24 24q-34 1 -77 -39t-79.5 -97.5t-64 -109.5t-39.5 -84q-17 5 -22 7t-10 9t-1 18.5t14 33.5q16 35 38.5 73.5t55.5 83
t67 79t75 57.5t78 22q86 0 92 -180q1 -48 -16.5 -170t-39 -254t-38.5 -260.5t-15.5 -214t29.5 -90.5q26 -5 74.5 74t103 205t105 252t95.5 240.5t60 145.5q10 20 41.5 23t104.5 -4q-6 -59 -19 -188.5t-21 -201.5t-22 -178t-33.5 -200t-44.5 -187q232 116 420 424zM281 -332
q54 2 104.5 35t87 78.5t69.5 107.5t52 111t35 100q-53 -10 -129 -46.5t-149 -85.5t-124 -112t-51 -118q0 -34 26.5 -52.5t78.5 -17.5z" />
    <glyph glyph-name="Zcaron" unicode="&#x17d;" horiz-adv-x="890" 
d="M467 1495l-107 160q-9 13 -19 26t-12 17t-5 9t2.5 8.5t10 8.5t18 15.5t26.5 23.5l131 -190l104 137q7 9 15 20t9 13.5t7.5 2.5t10.5 -3t18 -14l-178 -236l-17 -23zM952 610l31 -18q-77 -183 -106 -239q-92 -174 -232 -260q-16 -10 -33 -19q-32 -70 -86 -139.5
t-125 -132.5t-163.5 -108t-188.5 -59q-56 -7 -94.5 15.5t-48.5 59.5t10.5 83.5t71.5 83.5q51 38 147.5 76.5t192.5 70.5t127 48q56 129 70.5 219.5t-14 145.5t-106 65t-204.5 -23q-12 22 -16.5 35t0.5 25.5t10.5 18.5t24.5 23.5t32 30.5q116 119 213 300t100 294
q3 131 -110 137q-51 2 -103 -22t-95 -68.5t-63 -118t-4 -161.5q-26 -6 -31.5 -1.5t-8.5 38.5q-9 91 19 164.5t80.5 117.5t115.5 67.5t129 24.5q97 0 155.5 -49.5t52.5 -138.5q-5 -90 -76.5 -222.5t-173.5 -251.5t-196 -183q146 36 238 17t134.5 -82.5t42 -153t-39.5 -193.5
q32 19 62 45t52.5 50.5t46.5 60.5t39 61t35.5 68t30 65.5t29 69t26.5 63.5zM45 -330q86 12 204.5 122t180.5 228q-24 -11 -114.5 -40t-177 -63.5t-130.5 -68.5q-48 -37 -62 -82t12.5 -74t86.5 -22z" />
    <glyph glyph-name="zcaron" unicode="&#x17e;" horiz-adv-x="610" 
d="M211 836l-107 159q-9 13 -19 26t-12 17t-5 9t2.5 9t10 8.5t18 15.5t26.5 24l131 -191l104 138q7 9 16 22q10 14 15 14t24 -14q3 -3 5 -4l-178 -235l-17 -23zM702 590q-42 -169 -126.5 -341t-186.5 -267q45 -215 -78 -396q-80 -119 -196 -176q-103 -50 -162 -18
q-45 24 -43 92q2 49 27.5 103t60 98t86 93.5t90.5 81t88 68.5q6 125 -41 181t-117 28q-8 7 -19 16.5t-14.5 12t-7.5 8.5t-3.5 7t2.5 8t6 10t11.5 14t14.5 20q127 194 129 265q1 23 -14 36.5t-39 19.5t-53.5 11t-58.5 15.5t-52.5 28.5t-37 54.5t-11.5 88.5q0 50 43 53
q16 0 52.5 -10.5t51.5 -12.5q-32 -72 -23.5 -113t38.5 -54t74.5 -17t86 -2.5t73 -9.5t34.5 -39q3 -27 -14 -65.5t-49.5 -82t-61 -78.5t-66.5 -77.5t-49 -55.5q74 9 137.5 -34.5t92.5 -128.5q93 89 172.5 254t118.5 321zM-51 -504q-2 -56 39 -67q49 -12 110 49
q107 106 149 338q5 28 9 57q-46 -35 -93.5 -77t-97.5 -95t-82.5 -107.5t-33.5 -97.5z" />
    <glyph glyph-name="quoteleft" unicode="&#x2018;" horiz-adv-x="468" 
d="M233 965q-27 -1 -44.5 15.5t-16 56t30.5 93.5q25 47 66 76.5t87 32.5q35 1 40.5 -10.5t-1.5 -34.5q-44 9 -82 -6.5t-63 -52.5q51 14 69 -32q16 -43 -9 -89q-26 -47 -77 -49z" />
    <glyph glyph-name="quoteright" unicode="&#x2019;" horiz-adv-x="452" 
d="M317 1239q27 1 44.5 -16t16.5 -56.5t-30 -93.5q-25 -47 -66 -76t-87 -32q-35 -1 -40.5 10.5t1.5 34.5q44 -9 82 6.5t63 52.5q-51 -14 -69 32q-17 43 8 89q25 47 77 49z" />
    <glyph glyph-name="quotedblleft" unicode="&#x201c;" horiz-adv-x="679" 
d="M438 965q-27 -1 -44.5 15.5t-16 56t30.5 93.5q25 47 66 76.5t87 32.5q35 1 40.5 -10.5t-1.5 -34.5q-44 9 -82 -6.5t-63 -52.5q51 14 69 -32q16 -43 -9 -89q-26 -47 -77 -49zM236 965q-27 -1 -45 15.5t-17 56t31 93.5q24 47 64.5 76.5t88.5 32.5q35 1 40.5 -10.5
t-1.5 -34.5q-93 18 -145 -59q50 14 68 -32q17 -44 -9 -90q-25 -46 -75 -48z" />
    <glyph glyph-name="quotedblright" unicode="&#x201d;" horiz-adv-x="655" 
d="M317 1239q27 1 44.5 -16t16.5 -56.5t-30 -93.5q-25 -47 -66 -76t-87 -32q-35 -1 -40.5 10.5t1.5 34.5q44 -9 82 6.5t63 52.5q-51 -14 -69 32q-17 43 8 89q25 47 77 49zM520 1239q27 1 45 -15.5t17 -56.5t-31 -94q-24 -47 -64.5 -76t-89.5 -32q-35 -1 -40.5 10.5t1.5 34.5
q94 -18 146 59q-50 -14 -68 32q-17 44 9 90q25 46 75 48z" />
    <glyph glyph-name="bullet" unicode="&#x2022;" horiz-adv-x="489" 
d="M256 659q42 0 66 -36t14 -86q-10 -49 -46.5 -84t-76.5 -35q-44 0 -68 34.5t-16 84.5q10 51 47.5 86.5t79.5 35.5z" />
    <glyph glyph-name="Euro" unicode="&#x20ac;" horiz-adv-x="966" 
d="M594 29q56 3 127.5 38.5t118.5 77.5q20 -36 19 -41q-1 -6 -22 -21q-9 -6 -16 -11q-44 -34 -106.5 -55.5t-122.5 -26.5q-83 -5 -148.5 35t-106 112.5t-61.5 166t-22 200.5h-145q-21 2 -28.5 9t-8.5 32l182 6q4 77 10 113h-143q-22 2 -29 7.5t-8 30.5l186 7
q18 107 53.5 201t87 169.5t122.5 119t153 44.5q75 1 125.5 -32.5t66.5 -80t6.5 -96.5t-44.5 -82q-16 -15 -27 -16.5t-16.5 3t-18.5 19.5q40 19 59.5 63t13.5 87.5t-49 75t-114 26.5q-72 -5 -133 -77t-99.5 -179.5t-58.5 -240.5l140 6q32 3 36.5 -3t6.5 -50h-189
q-8 -72 -10 -111l143 4q31 3 35.5 -3t7.5 -50h-186q-2 -134 19 -240.5t71 -173.5t123 -63z" />
    <glyph glyph-name="t.1" unicode="&#xe007;" horiz-adv-x="714" 
d="M1036 1135q20 -13 16 -37t-28 -51q-26 -30 -70 -48t-107.5 -22t-127.5 -1.5t-155 16t-162.5 26t-174.5 33.5q-15 -87 -28.5 -170.5t-28 -185.5t-24 -192.5t-16 -182.5t-4.5 -164.5t10.5 -129.5t29 -87t51.5 -27q50 4 106.5 42.5t110 101t104 133.5t96.5 152.5t78.5 143.5
t59.5 119l31 -22q-24 -52 -52 -106t-68 -125t-80.5 -134t-89.5 -126.5t-96.5 -110t-99 -77t-98.5 -34.5q-353 15 -133 1210q-84 16 -141.5 26.5t-133 23t-127.5 16.5t-111.5 6.5t-99.5 -4t-76.5 -19t-57.5 -36t-29 -56.5q-33 16 -15 64q12 30 36 51t63.5 31.5t79.5 15.5
t103 0.5t113 -10t129 -19.5t132 -24.5t141 -28.5q1 7 8 38.5t9 47.5q4 22 9 49t6 38.5t6 27t6.5 19t8.5 9t12 3.5t18.5 -3.5t24.5 -6.5t33 -12t43 -13q-2 -13 -17 -89.5t-26 -138.5q127 -26 218.5 -41t197 -23.5t176.5 -1t129 36t82 79.5z" />
    <glyph glyph-name="t.2" unicode="&#xe008;" horiz-adv-x="712" 
d="M1393 1124q13 -52 -21 -63q-5 42 -31.5 68.5t-72.5 37t-103.5 11.5t-131.5 -8.5t-149 -23t-163.5 -32.5t-168 -36.5t-170 -35t-161.5 -28.5q-20 -120 -36.5 -230.5t-33 -244.5t-21 -241t-1 -199t26 -141t61.5 -46q50 4 106.5 42.5t110 101t104 133.5t96.5 152.5
t78.5 143.5t59.5 119l33 -22q-24 -52 -52 -106t-68 -125t-80.5 -134t-89.5 -126.5t-96.5 -110t-99 -77t-98.5 -34.5q-342 13 -149 1128q-232 -13 -297 80q-21 30 -22.5 53.5t18.5 34.5q49 -136 309 -123q12 70 31 160q4 22 9 49t6 39t5.5 26.5t6 18.5t9 9.5t12.5 4
t18.5 -3.5t24.5 -7t33.5 -12t43.5 -13q-16 -73 -50 -256q112 16 288.5 55t306.5 66t261.5 43.5t211 -6.5t96.5 -91z" />
    <glyph glyph-name="t.3" unicode="&#xe009;" horiz-adv-x="712" 
d="M772 602l33 -22q-36 -76 -78 -155.5t-106 -181.5t-126.5 -180t-136 -134.5t-137.5 -61.5q-347 13 -143 1159q-70 12 -164 30.5t-169.5 33.5t-164.5 32t-160 27.5t-144 17.5t-128 3.5t-101.5 -15.5t-74.5 -37.5t-37 -64.5q-31 20 -14 65q15 40 55 63t94 31t130.5 4
t153.5 -15.5t175 -29.5t183 -36.5t189 -38.5t183 -33q6 30 27 137q4 23 9 49.5t6 38.5t5.5 26.5t6 18.5t8.5 9.5t11.5 4t18 -4t24.5 -7t33 -11.5t43 -13q-3 -17 -10 -55t-18.5 -99.5t-20.5 -114.5q366 -40 435 109q19 -13 15 -36t-28 -50q-87 -102 -428 -59
q-33 -188 -55 -357t-35.5 -350.5t7.5 -287.5t79 -101q50 4 106.5 42.5t110 101t104 133.5t96.5 152.5t78.5 143.5t59.5 119z" />
    <glyph glyph-name="a.1" unicode="&#xe00a;" horiz-adv-x="2107" 
d="M2169 610l31 -22q-14 -27 -45.5 -93.5t-58.5 -124t-66 -128t-74 -120t-76 -85t-78 -37.5q-59 5 -100 35t-61 71t-28 98.5t-6.5 108t9.5 107.5q-94 -196 -186 -203q-49 -4 -81 39t-37.5 108.5t7.5 139.5q-67 -91 -127.5 -168.5t-147.5 -181.5t-165 -187t-171.5 -168
t-176.5 -141.5t-171 -91t-163 -31.5q-91 4 -136.5 55t-58.5 140q-2 13 -3 22t1 16t2 10t6 6.5t8 4t12.5 3t14.5 3.5q3 -50 9.5 -84.5t22 -67.5t47 -51t77.5 -20q79 -3 175.5 41t180.5 103.5t194.5 170.5t179.5 186.5t175.5 211t142.5 183.5t119 161q8 11 12 16
q80 113 211 107q56 -3 102.5 -32t63.5 -87q-14 -5 -19.5 -6t-10.5 5t-7 12.5t-9 17.5t-17 20q-33 26 -66 29q-72 5 -127.5 -110t-61.5 -216t7 -117q34 -1 79.5 68.5t73.5 134.5t45 115q31 -6 75 -12q28 -4 38 -6t16.5 -13.5t4.5 -28t-8 -54.5q-3 -20 -5 -32q-6 -50 -10 -85
t-8.5 -87.5t-3 -88t6 -70t17.5 -51t33 -15.5q36 2 79 46.5t87 119.5t78.5 142.5t73.5 150t53 108.5z" />
    <glyph glyph-name="a.2" unicode="&#xe00b;" horiz-adv-x="1898" 
d="M1896 868q2 -13 3 -22t-1 -16t-2 -10t-6.5 -6.5t-8 -4t-13 -3t-15.5 -3.5q-2 50 -8 84.5t-21.5 67.5t-46 51t-77.5 20q-101 4 -213.5 -50t-213.5 -143.5t-201.5 -198.5t-188 -220t-162 -202.5t-134.5 -150.5t-95 -61q-58 5 -99 35t-61 71.5t-28 98t-6.5 107.5t9.5 108
q-94 -195 -186 -203q-71 -6 -103 81q-34 93 -4 216q33 139 127 201q61 40 138 37q131 -8 167 -119q-14 -5 -19.5 -6t-10.5 5t-7 12.5t-9 17.5t-17 20q-33 26 -66 29q-73 5 -128 -110t-61 -216t7 -117q34 -1 79.5 68t74 135t45.5 115q31 -6 75 -12q28 -4 38 -6t16.5 -13.5
t4.5 -28t-8 -54.5q-3 -20 -5 -32q-7 -52 -10.5 -85.5t-8 -87t-3.5 -88t5.5 -69.5t17.5 -51.5t33 -15.5q25 1 72.5 47t106 119t135 165.5t157.5 189t175 187.5t185 161.5t191.5 111.5t190.5 37q91 -3 136 -53.5t58 -139.5z" />
    <glyph glyph-name="b.1" unicode="&#xe00c;" horiz-adv-x="2099" 
d="M2159 600l32 -20q-28 -66 -74.5 -145.5t-110.5 -164t-132 -153.5t-146 -114t-147 -46q-85 0 -125 55q-22 28 -26 53t5 37t21 11q27 0 27 -39q70 9 118 133.5t45 243t-57 114.5q-26 -4 -53 -45q-15 -20 -29.5 -48t-27.5 -64t-23 -65t-21 -72t-16 -62.5l-15 -58.5l-9 -39v0
q-30 5 -72 9q-55 5 -62.5 18.5t0.5 87.5q3 29 5 46q12 130 37 312q-69 -89 -130.5 -165.5t-148 -176t-164 -178t-169 -158.5t-172.5 -132t-166 -83t-158 -27q-169 8 -193 197q-2 13 -3 22t1 16t2 10t7 6t8 3.5t13 2.5t15 3q2 -50 8 -84.5t21 -68t46 -51.5t77 -21
q377 -19 1116 958q16 102 34 193.5t41.5 187t52 171.5t61 137t72.5 95t83 34q103 4 50 -194q-48 -182 -187 -424l-54 -89q-24 -172 -53 -442q53 160 96 221q44 67 113 67q98 1 138 -98q40 -97 5 -226q-37 -138 -136 -209q-62 -44 -138 -50q31 -31 94 -31q63 2 136.5 46.5
t138 112t125.5 149t104.5 156.5t69.5 136zM1659 1432q-95 -3 -180 -592q30 58 57 113t60 127.5t54.5 131t35.5 110.5t7.5 81t-34.5 29z" />
    <glyph glyph-name="b.2" unicode="&#xe00d;" horiz-adv-x="1886" 
d="M1878 836q1 -10 2 -18t0.5 -14t-0.5 -10t-3 -7.5t-4.5 -5t-6.5 -3.5t-7.5 -2.5t-11 -2.5t-12.5 -3q-2 50 -8 84.5t-21 68t-46 51.5t-77 21q-84 5 -172 -27.5t-168.5 -91.5t-162 -136.5t-158.5 -164.5t-151.5 -174t-146.5 -166.5t-138.5 -141.5t-134 -98.5t-125.5 -37.5
q-85 0 -127 55q-21 28 -24.5 53t5.5 37t21 11q23 0 26 -39q69 9 117 133.5t46 243t-56 114.5q-24 -3 -55 -45q-13 -18 -25.5 -43.5t-23 -50.5t-22 -60t-19 -59t-17 -61t-13.5 -53t-11.5 -48t-8.5 -34q-30 5 -72 9q-55 5 -62.5 18.5t0.5 87.5q3 29 5 46q9 91 20 184.5
t30 215.5t41 229.5t54 215t67 184.5t81.5 125t97.5 49q101 4 51 -191q-47 -181 -184 -421q-29 -51 -57 -95q-24 -172 -53 -442q53 160 96 221q44 67 111 67q99 1 139 -98q40 -97 6 -225q-38 -138 -137 -209q-63 -45 -140 -51q31 -31 95 -31q53 2 117 39t129 98.5t137 141
t147 166t153 172.5t161.5 162.5t166 135t172.5 90.5t175 27q91 -6 136 -56.5t56 -139.5zM403 1432q-93 -3 -182 -592q202 383 216 526q7 67 -34 66z" />
    <glyph glyph-name="c.1" unicode="&#xe00e;" horiz-adv-x="1855" 
d="M1917 600l31 -20q-26 -57 -60 -120.5t-84.5 -141t-101 -137.5t-110 -101t-111.5 -41q-74 4 -124 51.5t-68.5 121t-16 158t25.5 167.5q-68 -90 -128 -167t-145.5 -178t-162 -181t-168 -161.5t-172.5 -135.5t-166.5 -86t-158.5 -29q-168 5 -195 192q-2 12 -2 20t-0.5 14.5
t2 11t3 7t6.5 4.5t8 3t11 3t13 3q3 -50 9.5 -84.5t22 -68t47 -51.5t77.5 -20q79 -3 174 39t183 107.5t191 166.5t182 190t172.5 206.5t146 187.5t117.5 159q9 12 13 18q70 89 154 92q37 3 66.5 -27t36 -91.5t-35.5 -154.5q-26 22 -27 25q-2 3 7 27l4 14q21 79 3 122t-54 38
q-35 -5 -64.5 -76.5t-43 -169.5t-16 -195t16.5 -164t56 -65q57 0 125.5 58.5t129.5 147.5t105.5 167t75.5 145z" />
    <glyph glyph-name="c.2" unicode="&#xe00f;" horiz-adv-x="1675" 
d="M1671 911q2 -13 3 -22t-1 -16t-2 -10t-6 -6.5t-8 -4t-12.5 -3t-14.5 -3.5q-2 40 -5.5 68t-13.5 58.5t-26 49.5t-43 32t-65 15q-83 4 -170 -29t-166.5 -92t-160 -136t-154.5 -163.5t-145 -173t-136.5 -165t-124 -139.5t-113 -96.5t-98.5 -35.5q-70 3 -119 46.5t-68 110.5
t-22 147t18 159.5t53 145.5t82.5 108t106.5 43q37 3 66.5 -27t36.5 -91.5t-35 -154.5q-5 4 -12 10t-9 7.5t-5 5t-2.5 4.5t0.5 5.5t2 7.5t4.5 10.5t4.5 15.5q16 54 11 90t-22 54.5t-38 15.5q-35 -5 -65 -76.5t-44 -169.5t-16.5 -195t16.5 -164t56 -65q48 -2 118 54.5
t148.5 148t169 202.5t192 221.5t203.5 201t217 145.5t220 51q91 -4 136 -55t58 -140z" />
    <glyph glyph-name="d.1" unicode="&#xe010;" horiz-adv-x="2304" 
d="M2367 625l29 -25q-8 -13 -35 -60.5t-43.5 -76t-49 -81t-56.5 -87.5t-59 -84.5t-64 -82.5t-66 -69.5t-69 -58.5t-68 -37t-69 -16q-76 1 -124 64.5t-64.5 164t-10.5 234.5q-103 -201 -199 -209q-53 -5 -87 35t-39.5 102.5t7.5 134.5q-68 -90 -128.5 -167t-146 -178.5
t-162 -182t-168 -162t-172.5 -135.5t-167 -87t-159 -30q-91 4 -136.5 55t-58.5 140q-2 13 -3 22t1 16t2 10t6.5 6.5t8 4t13 3t15.5 3.5q1 -39 5 -68t14 -59t26 -49t43.5 -32t65.5 -15q61 -3 131.5 22t137 64t145.5 105t143 127t142.5 149t132.5 152t125 155.5t107 139.5
t91 122q2 4 24 37v0q73 83 176 80q62 -3 97 -49q38 201 106 375.5t160.5 282.5t183.5 89q106 -14 27 -208q-64 -159 -203 -343q-70 -92 -119 -135q-20 -93 -34.5 -183t-23.5 -173.5t-10 -154t6 -123t25 -81.5t46 -28q38 1 80.5 23t79.5 54t80.5 82.5t75.5 94.5t72 106.5
t63 102t56.5 97t44.5 75.5zM2097 1376q-44 6 -95.5 -75.5t-97 -211.5t-83.5 -292l2 2q111 115 233.5 340.5t40.5 236.5zM1628 524q3 42 12 90q-23 57 -57 60q-32 2 -64.5 -40.5t-54 -104.5t-35 -125t-13 -107.5t15.5 -46.5q31 -2 73 51t70.5 109.5t52.5 113.5z" />
    <glyph glyph-name="d.2" unicode="&#xe011;" horiz-adv-x="2093" 
d="M2085 948q2 -13 3.5 -22t-0.5 -16t-2 -10t-6 -6.5t-7.5 -4t-13 -3t-15.5 -3.5q-2 40 -6 68t-14 58.5t-26 49.5t-43 32t-65 15q-88 4 -180.5 -32.5t-177.5 -102t-171.5 -152t-166.5 -183t-157 -193t-150 -185t-138.5 -157.5t-128 -110.5t-114.5 -43.5q-76 1 -124 64.5
t-64.5 164t-10.5 234.5q-103 -201 -198 -209q-80 -7 -113 82q-33 90 -1 211q35 132 124 192q56 37 125 35q61 -3 96 -49q28 149 75.5 287.5t106 247t129.5 167.5t140 45q106 -14 27 -208q-64 -159 -203 -343q-70 -92 -119 -135q-20 -93 -35 -183t-24 -173.5t-10 -154t6 -123
t25 -81.5t46 -28q42 1 95 35t108.5 91t120.5 132t130.5 159t140.5 172t148 171t155 156t160 127t163.5 83.5t166.5 26.5q169 -8 193 -195zM786 1376q-44 6 -95.5 -75.5t-97 -211.5t-83.5 -292l2 2q111 115 233.5 340.5t40.5 236.5zM317 524q2 34 13 90q-23 57 -58 60
q-32 2 -64.5 -40.5t-54.5 -104.5t-35.5 -125t-13 -107.5t16.5 -46.5q30 -2 72 50.5t71.5 110t52.5 113.5z" />
    <glyph glyph-name="e.1" unicode="&#xe012;" horiz-adv-x="1849" 
d="M1909 602l33 -20q-27 -59 -78 -135t-113.5 -149.5t-133.5 -124.5t-126 -52q-73 -3 -123 33.5t-70.5 97.5t-20.5 134.5t21 148.5q-67 -90 -128 -167t-146 -178t-161.5 -181t-168 -161t-172.5 -135t-166.5 -86.5t-158.5 -29.5q-91 4 -136.5 54.5t-58.5 139.5q-2 12 -2 20
t-0.5 14.5t2 11t3 7t6.5 4.5t8 3t11 3t13 3q3 -50 9.5 -84.5t22 -68t47 -51.5t77.5 -20q78 -3 172.5 38t182.5 106t189 163.5t181 188t171 203.5t146 187t118 159q9 12 13 18q2 4 4 6l2 5q83 103 183 100q59 -2 74 -54q15 -54 -24 -110q-52 -72 -151 -69q-7 0 -14 1
q-10 -37 -18.5 -100.5t-11.5 -136.5t15.5 -124t59.5 -50q63 2 154 84.5t161.5 181.5t102.5 172zM1575 768q-25 0 -60 -45t-57 -105q82 -8 125 54q28 42 17 76q-7 19 -25 20z" />
    <glyph glyph-name="e.2" unicode="&#xe013;" horiz-adv-x="1634" 
d="M1630 924q2 -12 2 -20t0.5 -14.5t-2 -11t-3 -7t-6.5 -4.5t-8 -3t-11 -3t-13 -3q-2 40 -5.5 68t-14 59t-26.5 50t-43.5 32t-65.5 14q-78 4 -160.5 -26.5t-158 -85t-152.5 -126t-148.5 -151.5t-140 -160.5t-132.5 -154.5t-121 -131t-111 -91.5t-97 -35.5q-136 -5 -189 120
q-47 112 -11 269q34 151 122 235q67 64 146 62q59 -2 74 -54q16 -54 -23 -109q-50 -72 -149 -70q-8 0 -17 1q-10 -37 -18.5 -100.5t-11.5 -136.5t15.5 -124t59.5 -50q48 1 117 55.5t145 140.5t163.5 189.5t184.5 206t195 186t208 133.5t212 45q91 -4 136 -54.5t58 -139.5z
M297 766q-25 0 -61 -45.5t-58 -104.5q84 -8 126 55q28 43 16 76q-7 18 -23 19z" />
    <glyph glyph-name="f.1" unicode="&#xe014;" horiz-adv-x="1945" 
d="M2038 588q-28 -92 -104 -219.5t-179 -237t-182 -125.5q17 -51 32.5 -148.5t21 -210.5t0 -215t-34 -168t-76.5 -63q-84 -1 -139.5 120.5t-75 316t-12 430t41.5 467.5q-68 -92 -126.5 -168t-147.5 -184t-167 -191t-173.5 -171.5t-179.5 -146t-174 -93t-166 -32.5
q-91 4 -136.5 55t-58.5 140q-2 13 -3 22t1 16t2 10t6.5 6t7.5 3.5t12.5 2.5t14.5 3q3 -49 9.5 -83.5t22 -67.5t47 -51t77.5 -19q60 -3 130 21t136 63t143.5 103t141 125t141.5 147t132 150t124 153.5t107 138.5t92 123q27 161 64.5 296t84.5 240.5t106.5 163.5t124.5 56
q102 -4 76 -149t-153 -346q-77 -122 -160 -209q-44 -309 -60 -632.5t5.5 -551t81.5 -232.5q55 -4 69.5 155t-2.5 340t-45 257q-45 -4 -66.5 15t-19.5 46q1 24 16 38.5t40 3t48 -55.5q68 9 167.5 115.5t177.5 233t102 208.5zM1722 1323q-67 0 -124.5 -161.5t-98.5 -426.5
q103 116 191 294q96 191 75 263q-9 31 -43 31z" />
    <glyph glyph-name="f.2" unicode="&#xe015;" horiz-adv-x="1734" 
d="M1733 911q2 -13 3.5 -22t-0.5 -16t-2 -10t-6 -6.5t-7.5 -4t-13 -3t-15.5 -3.5q-2 40 -6 68t-14 58.5t-26 49.5t-43 32t-65 15q-81 3 -167.5 -30t-166 -91t-160 -134.5t-155 -163t-146 -173.5t-138 -168t-125.5 -145.5t-114 -107t-98 -50.5q18 -51 33.5 -148.5t21 -210.5
t0 -215t-34 -168t-77.5 -63q-115 -2 -175.5 221.5t-51.5 543t56.5 639t151.5 542t230 219.5q103 -3 63 -173q-37 -152 -154 -344q-86 -140 -147 -187q-43 -308 -59.5 -632t5 -551.5t81.5 -232.5q55 -4 69.5 155t-2.5 340t-45 257q-45 -4 -66.5 15t-19.5 46q2 24 17.5 38.5
t40 3t47.5 -55.5q46 6 116.5 69.5t151 159t174 209.5t197.5 225.5t208.5 202.5t220 145.5t220.5 49.5q169 -8 193 -195zM418 1323q-67 0 -123.5 -160.5t-97.5 -427.5q55 50 142 213q111 207 118 312q4 64 -39 63z" />
    <glyph glyph-name="g.1" unicode="&#xe016;" horiz-adv-x="2086" 
d="M2146 606l33 -20q-90 -213 -161 -321.5t-238 -309.5q-4 -47 -9 -90t-17 -121.5t-26 -143t-37 -139t-50 -125.5t-65.5 -86t-82.5 -36q-52 -2 -77 70.5t-3 187.5q23 111 77.5 205t139.5 196q11 132 25.5 319t23.5 293q-43 -142 -99.5 -231.5t-127.5 -85.5q-56 2 -93 36
t-52 87.5t-13.5 117.5t19.5 130q-68 -91 -128 -167.5t-147 -180.5t-164 -185.5t-170.5 -165.5t-175.5 -139.5t-169 -89.5t-162 -31q-91 4 -136.5 55t-58.5 140q-2 13 -3 22t1 16t2 10t6.5 6.5t8 4t13 3t15.5 3.5q1 -39 5 -68t14 -59t26 -49t43.5 -32t65.5 -15
q79 -3 175.5 41t180.5 103.5t194.5 170.5t179.5 186.5t175.5 211t142.5 183.5t119 161q8 11 12 16q76 111 174 111q82 0 99 -96q-6 -1 -12.5 -2.5t-8.5 -2t-5 -1t-4 0.5l-2 2t-2 4l-2 6t-3.5 8l-5.5 11q-14 24 -41 27q-49 5 -90 -133q-43 -142 -47 -291q-2 -120 30 -119
q46 -7 91 59.5t76 167.5t50 183.5t27 138.5q26 -2 65 -3q56 -2 64.5 -14t1.5 -85q-1 -10 -1.5 -15.5t-1 -15t-1.5 -17.5q0 -2 -43 -589q14 18 50.5 64.5t46 59l38 50t37 50.5t31 46t32.5 51.5t28.5 51t31.5 61.5t30 66.5t35 80.5zM1495 -741q33 0 57 46t36.5 122t19 144.5
t10.5 143t6 88.5q-142 -173 -176 -350q-16 -89 -0.5 -140.5t47.5 -53.5z" />
    <glyph glyph-name="g.2" unicode="&#xe017;" horiz-adv-x="1968" 
d="M1966 991q2 -13 3 -22t-1 -16t-2 -10t-6.5 -6t-7.5 -3.5t-12.5 -2.5t-14.5 -3q-2 39 -6 67.5t-14.5 58.5t-26.5 49.5t-44 32.5t-65 15q-76 3 -164 -32.5t-171 -95.5t-177 -148.5t-174 -179t-170 -200t-158 -198.5t-145 -187.5t-123 -154.5q-4 -47 -9 -89.5t-16.5 -121.5
t-25.5 -143.5t-37.5 -139t-50 -125.5t-65 -86t-82.5 -36q-52 -2 -77 70.5t-3 187.5q23 111 77.5 205t139.5 196q11 151 47 612q-41 -140 -98 -230.5t-127 -86.5q-108 4 -145 120q-35 112 6 258q40 145 127 214q52 41 110 41q83 0 100 -96q-6 -1 -12.5 -2.5t-8.5 -2t-5 -1
t-4 0.5l-2 2t-2 4l-2 6t-3.5 8l-5.5 11q-14 24 -41 27q-49 5 -90 -133q-43 -142 -46 -291q-2 -120 30 -119q46 -7 91 59.5t76 167.5t50 183.5t27 138.5q26 -2 65 -3q20 -1 28 -1t19 -3t13.5 -5.5t6.5 -12t3.5 -17.5t-1.5 -27t-3 -37q-1 -9 -1.5 -14t-1 -13.5t-1.5 -16.5
q0 -2 -43 -589q27 35 86 111.5t105.5 137t117.5 148.5t130.5 158.5t136.5 153.5t144 146t144 124t144.5 100t137.5 62t132 20q91 -3 136 -54t58 -141zM201 -741q33 0 57 46t37 122t20 144.5t11 143t6 88.5q-145 -177 -176 -350q-15 -95 -1 -143.5t46 -50.5z" />
    <glyph glyph-name="h.1" unicode="&#xe018;" horiz-adv-x="2154" 
d="M2214 600l33 -18q-1 -2 -27 -70q-28 -75 -49 -129.5t-52.5 -131.5t-58 -131.5t-60.5 -114t-64 -96t-64 -59.5t-66 -22q-54 6 -85.5 40.5t-38 86.5t-3 117t19.5 133t31 134t29.5 119.5t16 90t-8.5 45.5q-23 11 -59.5 -22.5t-81 -102t-78 -125.5t-74 -132.5t-44.5 -82.5
q-20 3 -46 6.5t-36.5 3.5t-25 5t-18.5 6t-10 11t-5.5 16t0.5 24.5t2.5 33t6 45.5t5.5 58q22 203 43 334q-70 -94 -127 -168t-148 -185t-169 -195t-176.5 -175.5t-183.5 -150t-176 -95t-169 -33.5q-91 4 -136.5 55t-58.5 140q-2 13 -3 22t1 16t2 10t7 6t8 3.5t13 2.5t15 3
q2 -49 8 -83.5t21.5 -67.5t47 -51t77.5 -19q61 -3 132.5 22t137.5 64t146.5 107t143 127.5t144 151.5t132.5 153t126 157.5t106.5 138.5t90.5 122q24 147 53.5 269.5t69.5 235.5t93 177t112 65q77 3 67 -132q-11 -140 -96 -322q-79 -168 -156 -230q-32 -221 -65 -594
q33 59 50 89.5t55 94t64.5 99.5t60.5 76t62.5 55t51.5 8q46 -14 68.5 -64t22 -118t-9 -149t-26 -157t-28 -141.5t-14.5 -102t13 -40.5q31 -1 65 27t68.5 82.5t66 114.5t66.5 143.5t59.5 147t55.5 146.5q4 8 7.5 18t9.5 25.5t10 26.5zM1688 1454q-92 -2 -179 -582
q70 66 143 245q75 182 72 280q-1 58 -36 57z" />
    <glyph glyph-name="h.2" unicode="&#xe019;" horiz-adv-x="1972" 
d="M1970 750q2 -12 2.5 -20t1.5 -14.5t-2 -10.5t-3 -6.5t-6.5 -5t-8 -3t-12 -2t-13.5 -2.5q-2 40 -5.5 67.5t-13.5 58t-26 49.5t-43.5 32t-64.5 14q-93 4 -195 -39.5t-194 -119t-186.5 -173.5t-176 -200.5t-160.5 -201t-141.5 -176t-116.5 -124t-88 -45.5q-54 6 -85.5 40.5
t-38 86.5t-3 117t19.5 133t31 134t30 119.5t17 90t-8 45.5q-23 11 -60.5 -22.5t-82.5 -102.5t-78 -125t-74.5 -133t-44.5 -82q-20 3 -46 6.5t-36.5 3.5t-25 5t-18.5 6t-10 11t-5.5 16t0.5 24.5t3 33t6.5 45.5t6.5 58q9 92 20.5 183.5t30 210t40.5 221t52.5 205t65 175.5
t79 118.5t93.5 45.5q77 3 67 -131q-10 -139 -94 -321q-78 -170 -157 -232q-42 -310 -63 -594q29 53 49 89t55 95.5t63.5 98t61.5 77t62.5 54t52.5 8.5q45 -14 67.5 -64t22 -118t-9 -149t-25.5 -157t-28 -141.5t-15.5 -102t12.5 -40.5q31 -1 90.5 59t136 156.5t168.5 213
t198 232t213.5 210.5t226.5 152t225 52q91 -4 136 -54.5t58 -139.5zM399 1454q-91 -3 -178 -582q69 66 143 244q75 182 72 281q-2 58 -37 57z" />
    <glyph glyph-name="i.1" unicode="&#xe01a;" horiz-adv-x="1816" 
d="M1483 924q-29 0 -45.5 24t-10.5 58q6 33 31 57t53 24q29 0 45.5 -23.5t10.5 -57.5t-30.5 -58t-53.5 -24zM1878 602l31 -22q-27 -58 -67.5 -126.5t-95 -144t-115.5 -124t-111 -46.5q-53 2 -90.5 31t-55.5 80t-27 104.5t-6.5 125t7 119.5t12.5 108q-55 -74 -95 -127
t-109.5 -141t-125.5 -153.5t-133 -149.5t-142 -145t-142 -123t-144.5 -100.5t-138.5 -62t-133 -20.5q-91 4 -136.5 54.5t-58.5 139.5q-2 12 -2 20t-0.5 14.5t2 11t3 7t6.5 4.5t8 3t11 3t13 3q3 -50 9.5 -84.5t22 -68t47 -51.5t77.5 -20q89 -4 193.5 43.5t221 150.5
t206.5 190.5t211.5 238.5t170.5 214.5t146 194.5l30 40q5 7 11.5 8.5t18 -1t23.5 -7t35 -11.5t45 -12q-51 -354 -38 -489q9 -97 47 -99q44 -1 100 47t107 120.5t89 137.5t62 115z" />
    <glyph glyph-name="i.2" unicode="&#xe01b;" horiz-adv-x="1689" 
d="M141 924q-29 0 -44.5 24t-8.5 58q6 34 30.5 57.5t53.5 23.5q28 0 43.5 -23.5t9.5 -57.5t-30.5 -58t-53.5 -24zM1686 1098q2 -12 2 -20t0.5 -14.5t-2.5 -11t-3.5 -7t-6.5 -4.5t-8.5 -3t-12 -3t-13.5 -3q-2 50 -8 84.5t-21.5 67.5t-46 51t-77.5 20q-85 4 -176.5 -32
t-176 -100.5t-170.5 -148.5t-164.5 -177.5t-153.5 -187.5t-143 -179t-127 -150.5t-111 -103.5t-89 -37q-46 2 -80 25.5t-53.5 57.5t-30 86.5t-13.5 98t0 108.5t6.5 101t10.5 91q4 33 6.5 49t8.5 29t10 15t17 1.5t24.5 -5.5t36.5 -12.5t49 -13.5q-83 -584 10 -588
q32 -1 80 37t105 103t124.5 149.5t143 178t156 186.5t168.5 176.5t174 147.5t180 100t180 32q91 -4 136.5 -54.5t58.5 -139.5z" />
    <glyph glyph-name="j.1" unicode="&#xe01c;" horiz-adv-x="1757" 
d="M1817 604l32 -18q-104 -247 -183.5 -388.5t-219.5 -312.5q-4 -45 -9 -89.5t-17 -122t-26.5 -143t-37.5 -139.5t-50 -125t-65.5 -86t-81.5 -36q-52 -2 -77 70.5t-1 187.5q21 110 74.5 203.5t138.5 197.5q16 189 34 423t32 403q1 7 2 21t2 20q-54 -73 -94.5 -126.5
t-109.5 -141t-125.5 -154t-133.5 -150.5t-142.5 -145.5t-143 -124t-145.5 -101.5t-139.5 -62.5t-133.5 -20.5q-91 4 -136.5 54.5t-58.5 139.5q-2 12 -2 20t-0.5 14.5t2 11t3 7t6.5 4.5t8 3t11 3t13 3q3 -50 9.5 -84.5t22 -67.5t47 -51t77.5 -20q79 -3 175.5 41t180.5 103.5
t194.5 170.5t179.5 186.5t175.5 211t142.5 183.5t119 161q8 11 12 16q5 6 11.5 8.5t18.5 2t24 -2.5t35 -5t44 -5q-10 -124 -59 -797q129 165 198.5 292t166.5 357zM1159 -809q24 0 43.5 24.5t32 67.5t21.5 92.5t14.5 108t8.5 103.5t5.5 89.5t3.5 57.5q-144 -180 -174 -348
q-15 -95 -1 -145t46 -50zM1456 897q-29 0 -45 24t-10 58t31.5 58t54.5 24q28 0 43.5 -24t9.5 -58t-30.5 -58t-53.5 -24z" />
    <glyph glyph-name="j.2" unicode="&#xe01d;" horiz-adv-x="1630" 
d="M117 897q-29 0 -45.5 24t-10.5 58t30.5 58t53.5 24t45.5 -24t10.5 -58t-31 -58t-53 -24zM1626 995q2 -13 3.5 -22t-0.5 -16t-2 -10t-6 -6.5t-7.5 -4t-13 -3t-15.5 -3.5q-2 40 -5.5 68t-13.5 59t-26 50t-43.5 32t-64.5 14q-107 3 -233 -65t-237.5 -170.5t-241.5 -251.5
t-226.5 -276.5t-211.5 -278.5t-178 -226q-4 -47 -9 -89.5t-16.5 -121.5t-25.5 -143.5t-37.5 -139t-50 -125.5t-65 -86t-82.5 -36q-52 -2 -76 70t-2 188q23 111 77 205.5t138 195.5q64 810 65 826q0 5 1 15q6 92 16 107q10 16 47 11q6 0 22 -2q38 -6 64 -8q-31 -409 -59 -797
q42 54 124.5 164t148 196.5t161 204t175.5 206.5t178.5 182t184 152.5t178 96t173.5 33.5q91 -4 136 -55t56 -140zM-180 -809q24 0 43.5 24.5t32 67.5t21.5 92.5t14.5 108t8.5 103.5t5.5 89.5t3.5 57.5q-142 -173 -176 -348q-16 -90 -0.5 -142.5t47.5 -52.5z" />
    <glyph glyph-name="k.1" unicode="&#xe01e;" horiz-adv-x="2043" 
d="M2101 596l35 -16q-88 -276 -154 -422q-133 -289 -241 -289q-54 -1 -88.5 33t-47 85.5t-17 112t-1.5 112.5t3 86t-7 34q-32 -1 -89.5 -111.5t-76.5 -171.5q-15 2 -39 6q-70 10 -83 20q-16 13 -11 63q1 10 3 34q5 41 7 68q20 203 49 389l-96 -128t-109.5 -141t-124.5 -151
t-131 -146.5t-138.5 -140.5t-139.5 -119.5t-141.5 -97t-135.5 -59.5t-130 -19q-91 4 -136.5 55t-58.5 140q-2 13 -3 22t1 16t2 10t6 6.5t8 4t12.5 3t14.5 3.5q3 -50 9.5 -84.5t22 -67.5t47 -51t77.5 -20q78 -3 172 38t180.5 104t189 163.5t179.5 186t172 204.5t145 186
t119 161q24 136 53 249t68 213.5t90 158t108 58.5q76 3 70 -119q-5 -127 -86 -298q-79 -168 -164 -230q-39 -269 -59 -542q71 145 258 401q5 7 13 18q16 24 22 24t26 -23l4 -5l-168 -235q49 2 79 -36t40 -97.5t13.5 -120.5t7 -118.5t12.5 -78.5q19 -37 90 54q67 86 117 198
q59 127 151 418zM1677 1343q-92 -5 -174 -550q58 42 130 199q80 172 84 277q4 75 -40 74z" />
    <glyph glyph-name="k.2" unicode="&#xe01f;" horiz-adv-x="1941" 
d="M1939 883q2 -12 2 -20t0.5 -14.5t-2 -11t-3 -7t-6.5 -4.5t-8 -3t-11 -3t-13 -3q-2 40 -6 68.5t-14 59t-26 49.5t-44 32t-65 14q-108 5 -230 -57t-233 -164.5t-221 -228.5t-206 -252.5t-176.5 -231.5t-144.5 -171t-98 -66q-46 0 -78.5 25.5t-47 66.5t-22 90.5t-7.5 99
t1.5 90.5t0.5 66t-7 25q-31 -1 -89.5 -114t-73.5 -169q-15 2 -40 6q-31 4 -43.5 6t-27.5 8.5t-17.5 11t-5.5 20t-1.5 30t5.5 45.5q5 39 7 64q10 108 23.5 212t36 243.5t53 253.5t68.5 216.5t90 161t110 59.5q75 3 69 -120q-7 -128 -88 -299q-78 -166 -162 -228
q-33 -231 -61 -542q73 145 260 401q5 7 13 19q16 23 23 23q5 0 25 -22q3 -4 5 -6l-170 -235h2q49 2 79 -36t39.5 -97.5t12.5 -120.5t6.5 -118.5t13.5 -78.5q14 -31 108 82q24 29 213 271q287 372 483 552q298 274 505 246q91 -4 136 -54.5t58 -139.5zM371 1343
q-92 -5 -174 -550q57 43 129 199q81 173 85 278q4 74 -40 73z" />
    <glyph glyph-name="l.1" unicode="&#xe020;" horiz-adv-x="2009" 
d="M2073 625l28 -27q-132 -219 -192 -305q-253 -364 -424 -371q-68 1 -110.5 53.5t-57.5 143t-12 199t22 235.5q-68 -92 -127 -168.5t-147.5 -182.5t-166.5 -189t-173 -170t-178.5 -144t-172.5 -91.5t-165 -31.5q-91 4 -136.5 55t-58.5 140q-2 13 -3 22t1 16t2 10t6.5 6
t7.5 3.5t12.5 2.5t14.5 3q2 -39 6 -67.5t14.5 -58.5t26.5 -49.5t44 -32.5t65 -15q76 -3 167.5 36.5t175.5 99.5t185 157.5t176 180t169 199.5t145 184t122 163q5 29 15 67q30 144 70.5 269t92 226t115 153t129.5 38q103 -19 44 -207q-50 -156 -172 -335q-86 -124 -140 -160
q-29 -133 -47 -256t-24 -228t10 -168.5t53 -64.5q47 2 100 32.5t108 88.5t101 114t100 138t83.5 129t71.5 118q17 28 24 40zM1757 1343q-33 4 -67.5 -45t-67 -141t-59.5 -190t-56 -222q72 61 165 228q107 189 118 297q7 67 -33 73z" />
    <glyph glyph-name="l.2" unicode="&#xe021;" horiz-adv-x="1812" 
d="M1806 971q2 -12 2 -20t0.5 -14.5t-2 -11t-3 -7t-6.5 -4.5t-8 -3t-11 -3t-13 -3q-2 40 -5.5 68t-13.5 58.5t-26.5 49.5t-44 32t-65.5 15q-88 4 -182.5 -34.5t-181.5 -106.5t-176 -157.5t-172.5 -190t-164 -201.5t-156.5 -193t-144.5 -163t-134 -114.5t-118.5 -45.5
q-78 1 -123 69.5t-54.5 182.5t2 246t42.5 278q31 144 72 269t92.5 226t114.5 153t129 38q104 -19 44 -207q-49 -155 -173 -335q-86 -124 -140 -160q-29 -132 -47 -256t-23 -228.5t10 -168t52 -64.5q48 2 110.5 44.5t129 113.5t142 163t157 192t166 200t175.5 189.5
t180.5 157.5t186.5 106t187 34q91 -4 136 -54.5t58 -139.5zM453 1343q-33 4 -67.5 -44.5t-67.5 -141.5t-60 -189.5t-57 -222.5q72 61 166 229q107 191 118 298q7 65 -32 71z" />
    <glyph glyph-name="m.1" unicode="&#xe022;" horiz-adv-x="2568" 
d="M2632 588l28 -27q-37 -61 -84.5 -135t-119.5 -175t-136 -180.5t-127.5 -135.5t-101.5 -54q-137 7 -106 248q11 88 71 315q44 170 34 207q-5 19 -22 17q-16 -2 -35.5 -16t-41.5 -41.5t-41.5 -54t-45 -71.5t-42 -74t-42.5 -80.5t-36.5 -72.5t-34 -69t-25.5 -52
q-42 9 -61 43t-17.5 80.5t12 101t25.5 107t25 96t8 71t-22 28.5q-25 2 -60.5 -38t-73.5 -107t-70 -130.5t-65.5 -132.5t-44.5 -90q-23 8 -56 19q-50 15 -56 29.5t8 83.5q5 26 8 42q11 54 33 162.5t33 165.5q-54 -72 -95.5 -127t-110 -141t-125 -151.5t-132 -147.5t-140 -142
t-140.5 -120.5t-142.5 -98.5t-136.5 -60.5t-131 -19.5q-91 4 -136.5 55t-58.5 140q-2 13 -3 22t1 16t2 10t6 6.5t8 4t12.5 3t14.5 3.5q3 -50 9.5 -84.5t22 -67.5t47 -51t77.5 -20q63 -3 136 23.5t141.5 67.5t151 112t147 133t147 157t134.5 157t126.5 159.5t105 139
t86.5 118.5q4 4 4 6v0q5 5 12 6t18.5 -1.5t23 -6.5t32.5 -11t41 -12q-43 -211 -90 -423q5 10 26.5 51t30.5 57.5t30 55.5t34 58.5t33 50.5t35.5 47t33.5 33.5t35 25t33 6.5q40 -1 67 -16.5t39 -42.5t16.5 -59t-1.5 -74.5t-14.5 -80.5t-22.5 -84q38 73 71.5 130t73.5 114.5
t77 89.5t67 31q149 -5 109 -281q-12 -89 -71 -320q-41 -157 -29 -182q5 -9 17 -6q40 11 116 93.5t157 194t147.5 209.5t106.5 165z" />
    <glyph glyph-name="m.2" unicode="&#xe023;" horiz-adv-x="2242" 
d="M2241 793q1 -9 1.5 -16t1 -13t-0.5 -10t-1 -7.5t-3 -5.5t-4.5 -3.5t-6.5 -3t-7 -2t-9.5 -1.5t-11.5 -2q-2 39 -6 67t-14 58.5t-26 49.5t-43.5 32t-64.5 14q-102 5 -217.5 -52t-220.5 -151.5t-210.5 -210t-198.5 -231.5t-172 -211.5t-144 -155t-103 -57.5q-137 7 -105 248
q12 88 72 315q45 170 35 207q-5 19 -22 17q-102 -12 -344 -531q-42 9 -61.5 43t-18 80.5t11.5 101t25 107t25 96t8.5 71t-21.5 28.5q-25 2 -61 -38t-73.5 -106.5t-70 -131t-65.5 -132.5t-45 -90q-23 8 -57 19q-50 15 -56 29.5t8 86.5q5 24 8 39q11 53 25 123l24.5 122.5
t20.5 100.5q6 30 10 46.5t11 27.5t12 14t17.5 1.5t23.5 -5.5t34.5 -11.5t45.5 -13.5q-17 -83 -51.5 -238t-41.5 -188q7 12 35 66t40.5 77.5t40 70.5t45.5 70.5t42 52t46 40.5t42 11q59 -2 90 -33.5t33.5 -87t-7 -110t-30.5 -126.5q36 71 70.5 129.5t74 115.5t77 89t67.5 31
q148 -5 109 -278q-12 -89 -71 -319q-40 -159 -28 -185q5 -10 17 -7q30 8 76.5 51t100.5 107t119 145.5t137 168.5t148.5 173.5t160 162.5t166 134t171 90.5t170.5 28.5q91 -4 136.5 -54.5t58.5 -139.5z" />
    <glyph glyph-name="n.1" unicode="&#xe024;" horiz-adv-x="2181" 
d="M2243 596l30 -25q-9 -15 -38 -64t-49.5 -83.5t-55 -90.5t-62 -97t-62.5 -91t-64.5 -84.5t-60 -65t-57.5 -45t-48 -13.5q-60 3 -89 44.5t-29 105.5t12.5 140.5t32 152t34 137t13.5 98.5t-26 34q-105 -12 -302 -417q-5 -9 -7 -13q-1 -3 -4.5 -12.5t-6.5 -17t-5 -11.5
q-30 12 -72 24q-45 13 -50.5 26.5t7.5 78.5l1.5 7.5t1 7t1.5 8.5q12 66 34.5 180.5t31.5 161.5q-70 -94 -126 -167.5t-148 -186t-170.5 -197.5t-178 -178t-185 -153t-178.5 -97.5t-171 -34.5q-91 4 -136.5 55t-58.5 140q-2 13 -3 22t1 16t2 10t6.5 6.5t8 4t13 3t15.5 3.5
q2 -50 8 -85t21.5 -68t47 -51t77.5 -19q78 -4 173 38.5t179.5 102.5t191.5 166t178.5 185t173 207t144 184t119.5 161q14 18 20 27q5 7 11.5 9t17.5 -0.5t22.5 -6.5t33 -11.5t42.5 -13.5q-44 -218 -90 -440q192 394 322 389q149 -4 118 -254q-9 -81 -60 -289
q-35 -142 -22 -164q5 -8 17 -5q23 6 54.5 33.5t70 77.5t71 94.5t77.5 116.5t68 109t65 107t47 78z" />
    <glyph glyph-name="n.2" unicode="&#xe025;" horiz-adv-x="1937" 
d="M1931 874q2 -13 3 -22t-1 -16t-2 -10t-6.5 -6t-7.5 -3.5t-12.5 -2.5t-14.5 -3q-2 40 -5.5 67.5t-14 58t-26 49.5t-43.5 32t-66 14q-82 4 -172 -31.5t-174 -98.5t-170.5 -145.5t-165.5 -175t-153.5 -184.5t-140.5 -175.5t-121 -147.5t-100 -101.5t-73 -35.5
q-60 3 -88.5 44.5t-28 105.5t13.5 140.5t32.5 152t34 137t13.5 98.5t-26 34q-113 -12 -310 -430q-1 -3 -4.5 -12.5t-6.5 -17t-5 -11.5q-30 12 -72 24q-45 13 -50 26t7 77q3 16 5 25q14 75 39 206t26 138q7 35 10 50.5t10 30.5t10.5 17.5t16.5 3t23 -4.5t35 -13.5t47 -14.5
q-60 -280 -91 -440q34 69 66.5 127.5t76.5 123.5t90 102t87 36q149 -4 119 -254q-9 -81 -60 -289q-34 -142 -21 -164q5 -8 17 -5q33 9 95 76t138.5 165t168.5 214.5t196.5 229.5t211 206t223.5 148t223 50q91 -4 136 -55t58 -140z" />
    <glyph glyph-name="o.1" unicode="&#xe026;" horiz-adv-x="1871" 
d="M1935 602l29 -24q-20 -34 -45 -69t-59.5 -72t-69 -63.5t-74.5 -39.5t-76 -4q-77 -218 -196 -215q-51 1 -85 27.5t-48 68t-16 96.5t6 107t22 104q-69 -92 -127.5 -167.5t-147.5 -182t-166 -188.5t-171.5 -168.5t-177.5 -142.5t-171.5 -90.5t-164.5 -31.5q-91 4 -136.5 55
t-58.5 140q-2 13 -3 22t1 16t2 10t6.5 6t7.5 3.5t12.5 2.5t14.5 3q2 -39 6 -67.5t14.5 -58.5t26.5 -49.5t44 -32.5t65 -15q78 -3 173 38.5t182 105.5t190 165t180.5 188t171.5 205.5t145.5 187t118.5 159.5q11 15 16 22q8 12 15.5 15.5t18.5 -1t20.5 -11t31 -22.5t39.5 -28
q-28 -42 -58 -175q-45 -196 -7 -252q12 -17 32 -17q37 0 79 61t59 121q-50 34 -74.5 124t-10.5 165t62 72q32 -2 51.5 -42.5t23.5 -97t2.5 -107t-7.5 -83.5q36 -8 79 13t82 60t69 78t52 76zM1618 391q5 31 7 90.5t-8 119t-34 61.5q-23 -1 -26.5 -59t14 -124.5t47.5 -87.5z
" />
    <glyph glyph-name="o.2" unicode="&#xe027;" horiz-adv-x="1544" 
d="M1540 874q2 -13 3 -22t-1 -16t-2 -10t-6 -6.5t-8 -4t-12.5 -3t-14.5 -3.5q-2 40 -6 68t-14 58.5t-26 49.5t-44 32t-66 15q-90 4 -184.5 -35.5t-176 -105t-161 -145t-150.5 -157.5t-133.5 -140.5t-120.5 -96t-102 -22.5q-77 -218 -196 -215q-62 1 -98 38.5t-45 93.5
t-3.5 123.5t20 125t32.5 100.5q11 26 18 40.5t15.5 23t14 10t17.5 -4t20.5 -12t28.5 -21.5t37 -26q-27 -40 -58 -170q-46 -196 -9 -255q12 -19 34 -19q37 0 79 61t59 121q-50 34 -74.5 124t-10.5 165t62 72q32 -2 51.5 -42.5t23.5 -97t2.5 -107t-7.5 -83.5q38 -8 92.5 26.5
t116 96.5t132.5 138.5t152 154t163.5 141.5t177.5 102.5t184 34.5q91 -4 136 -55t58 -140zM293 391q5 31 6.5 90.5t-8.5 119t-35 61.5q-22 -1 -25 -59t14.5 -124.5t47.5 -87.5z" />
    <glyph glyph-name="p.1" unicode="&#xe028;" horiz-adv-x="2158" 
d="M2218 600l33 -18q-29 -69 -74.5 -143.5t-107.5 -147t-128.5 -127t-143.5 -82t-148 -14.5q-60 10 -86 51q-22 28 -25.5 52.5t4.5 36t21 11.5q26 0 26 -39q66 8 116 134q49 121 48 242q0 111 -47 116h-6q-32 -1 -64 -33t-56 -82.5t-41 -96.5t-28 -89q-5 -131 -16.5 -253.5
t-31 -255t-50 -241t-71 -196.5t-98 -137.5t-126.5 -49.5q-38 0 -60.5 39t-23.5 100t12 129t46 134.5t77 107.5q32 31 46.5 30.5t23.5 -32.5q-47 -22 -85 -76t-56.5 -117t-25.5 -123.5t5 -102.5t39 -46q52 -7 94.5 66.5t69 204.5t45.5 282.5t28 324.5t13 303.5t4 244.5v28
q-70 -96 -123.5 -166.5t-148 -188t-172.5 -203t-181 -183.5t-190 -159.5t-182.5 -101t-175.5 -36.5q-91 4 -136.5 54.5t-58.5 139.5q-2 12 -2 20t-0.5 14.5t2 11t3 7t6.5 4.5t8 3t11 3t13 3q3 -50 9.5 -84.5t22 -67.5t47 -51t77.5 -20q79 -3 175.5 41t180.5 103.5
t194.5 170.5t179.5 186.5t175.5 211t142.5 183.5t119 161q8 11 12 16q6 7 19 7.5t47.5 -1.5t68.5 0q8 -138 3 -307q83 207 182 209q123 10 169 -93q42 -93 4 -223q-38 -133 -134 -206q-65 -50 -142 -56q26 -22 58 -28q80 -15 170.5 29.5t166 124.5t135 168t93.5 169z" />
    <glyph glyph-name="p.2" unicode="&#xe029;" horiz-adv-x="1808" 
d="M1808 836q2 -12 2 -20t0.5 -14.5t-2 -10.5t-3 -6.5t-6.5 -5t-7.5 -3t-11.5 -2t-13 -2.5q-3 50 -9 83.5t-21.5 67.5t-46.5 52t-78 20q-83 4 -168.5 -28t-161.5 -88.5t-153 -130.5t-148.5 -155.5t-141.5 -162.5t-139.5 -151.5t-136 -122.5t-136.5 -76t-136 -12
q-56 10 -86 51q-13 17 -19.5 33.5t-6 28t4 20.5t10 13.5t13.5 4.5q23 0 26 -39q66 8 116 134q48 120 47 242q0 111 -47 116h-5q-33 -1 -65 -33t-55.5 -82.5t-40 -96t-27.5 -89.5q-5 -131 -16.5 -253.5t-31 -255t-50.5 -241t-71.5 -196.5t-98 -137.5t-126.5 -49.5
q-38 0 -60.5 39t-23 100t12 129t45 134.5t76.5 107.5q34 31 47.5 30.5t23.5 -32.5q-47 -22 -85 -76t-57 -117t-26 -123.5t5.5 -102.5t39.5 -46q52 -7 94.5 66t68.5 205.5t45 282t28 324.5t13 303t5 245q1 84 6 95q6 14 37 13q83 -3 101 -2q5 -90 2 -307q83 207 182 209
q123 10 169 -93q42 -93 5 -223q-38 -133 -135 -207q-64 -49 -141 -55q26 -23 57 -28q76 -14 162.5 30t171 126.5t175 184.5t187.5 206t194 190t208.5 137.5t218.5 46.5q91 -3 136 -54t58 -140z" />
    <glyph glyph-name="q.1" unicode="&#xe02a;" horiz-adv-x="1966" 
d="M1870 -295q39 -76 45.5 -190t-17.5 -193q-33 -120 -104 -123q-318 -17 -156 1174q-109 -229 -204 -234q-60 4 -99.5 44.5t-54 102.5t-10.5 136t26 149q-711 -953 -1099 -938q-91 4 -136.5 55t-58.5 140q-1 10 -2 18t-0.5 14t0.5 10t3 7.5t4.5 5t6.5 3.5t7.5 2.5t11 2.5
t12.5 3q1 -39 5 -68t14 -59t26 -49.5t43.5 -32.5t65.5 -15q79 -3 175.5 41t180.5 103.5t194.5 170.5t179.5 186.5t175.5 211t142.5 183.5t119 161q8 11 12 16q98 133 224 125q41 0 69 -22t39 -56.5t9.5 -75.5t-15.5 -81q-11 -27 -21 -41q-5 5 -12 11q-11 11 -12.5 14t2.5 12
q6 13 10 26q12 40 13 78t-20.5 65t-61.5 27q-75 -7 -137 -182q-57 -158 -67 -323q-8 -135 29 -138q2 -1 5 0q102 4 227 334h2q2 9 5 14t9 7t12 2t18 -2.5t24 -5.5t32.5 -7.5t40.5 -7.5q-2 -20 -12 -86.5t-21 -141.5t-24.5 -176t-22.5 -197.5t-16.5 -197.5t-5.5 -185
t10.5 -151t31 -104.5t56.5 -36.5q19 2 36.5 22.5t27.5 57.5q17 61 19 137t-16.5 152.5t-56.5 120.5q19 21 31 16t31 -41z" />
    <glyph glyph-name="q.2" unicode="&#xe02b;" horiz-adv-x="1957" 
d="M1954 682q2 -12 2 -20.5t0.5 -15t-2 -11t-3 -7t-7 -5t-7.5 -3t-11 -2t-13 -2.5q-2 40 -6 68t-14 59t-26 50t-44 32t-66 15q-73 3 -161 -35.5t-170 -100t-178 -156t-172.5 -181.5t-166.5 -200.5t-146.5 -189t-124.5 -169.5q-38 -52 -54 -74q4 -6 16 -29q41 -76 48 -190
t-17 -193q-33 -119 -105 -123q-44 -2 -79.5 18t-58.5 61.5t-39.5 93t-23.5 122.5t-10 139.5t0.5 154t8 156.5t14 156.5t16.5 144t17 128.5q-109 -229 -205 -234q-111 8 -149 132q-38 122 7 284q45 164 143 251q77 68 165 62q55 0 86.5 -38t32 -90t-16.5 -107q-7 -25 -18 -41
q-6 5 -12.5 11t-8.5 7t-4.5 4.5t-2 4.5t1.5 4.5t3 6.5t4.5 10t5.5 15q11 40 12 78t-20.5 65t-62.5 27q-75 -7 -137 -182q-56 -158 -65 -323q-8 -135 29 -138q2 -1 5 0q23 1 47 18.5t47 51t41 63t39 76.5t29.5 67t23.5 58q4 12 9 17.5t17 5t23.5 -3t39 -9t52.5 -10.5
q-3 -23 -17.5 -121t-28.5 -205.5t-30 -244.5t-21 -257.5t-1.5 -224t28 -164t68.5 -59.5q19 2 36.5 22.5t27.5 57.5q16 61 18 137t-16 153t-57 120q19 26 78 106.5t98.5 134t110 145t124.5 157t130.5 151t139 145.5t138 123t140 100.5t133 61t128.5 20.5q168 -5 195 -192z
" />
    <glyph glyph-name="r.1" unicode="&#xe02c;" horiz-adv-x="1816" 
d="M1878 602l31 -22q-4 -8 -26.5 -55t-43 -87.5t-53.5 -105.5t-63 -119.5t-66 -117.5t-69 -111t-65.5 -89t-62 -63t-51.5 -22q-65 0 -100.5 41.5t-40.5 102.5t4 139t26 144t32 125.5t16 75.5q2 29 -11 55.5t-26.5 40.5t-40.5 37q-45 -77 -79.5 -135.5t-93 -153
t-107.5 -167.5t-116 -165t-126 -161t-129 -139.5t-133.5 -117t-132 -77.5t-130.5 -35q-91 -7 -141 38t-74 132q-3 12 -4 20t-2 14.5t1 11t2.5 7t6 5.5t7.5 4t11 3.5t13 4.5q8 -49 18 -82.5t29 -65t52 -46t79 -11.5q60 4 126.5 35.5t127 77t130.5 117.5t126 139t123.5 161
t114 163t106.5 166t90.5 149.5t77.5 132.5q-68 68 -47 166q9 35 34 72t50 38q12 1 26 -9.5t23.5 -23t27.5 -37t29 -38.5q-56 -19 -71 -82q-10 -44 3 -74.5t38.5 -50t52 -39.5t44.5 -55t15 -84q0 -15 -13.5 -76.5t-28.5 -133t-27 -143t-8.5 -118.5t26.5 -47q21 0 55 34.5
t75 97.5t80.5 129t84 151t73.5 140.5t61 120t34 68.5z" />
    <glyph glyph-name="r.2" unicode="&#xe02d;" horiz-adv-x="1685" 
d="M1686 778q1 -10 2 -18t0 -14t-0.5 -10t-3 -7.5t-3.5 -5t-6.5 -3.5t-7.5 -2.5t-10 -2t-12 -2.5q-3 50 -9.5 84.5t-22 67.5t-47 51t-77.5 20q-91 4 -194 -42t-198.5 -124.5t-195 -180t-185 -208t-167 -209t-144 -183t-111.5 -130t-73 -49.5q-66 0 -101.5 41.5t-40.5 102.5
t4 139t26 144t32.5 125.5t16.5 75.5q2 33 -11.5 60t-34 45t-43.5 39.5t-41 43t-25.5 57t3.5 79.5q7 34 32.5 71.5t51.5 38.5q10 1 20 -4.5t20.5 -18t19.5 -23.5t22.5 -30.5t22.5 -31.5q-55 -20 -70 -82q-9 -36 -0.5 -64.5t26.5 -44.5t41 -35t43.5 -36.5t33 -49.5t10.5 -73
q-1 -15 -15 -76.5t-29 -133t-27 -143t-8.5 -118.5t25.5 -47q16 0 53 38.5t89 104t117.5 150t142.5 178t159.5 186t172.5 176t178 146.5t180 99t174 32q91 -3 136.5 -53.5t58.5 -139.5z" />
    <glyph glyph-name="s.1" unicode="&#xe02e;" horiz-adv-x="1734" 
d="M1827 571q-99 -130 -176 -204.5t-183 -128.5q15 -111 -5 -200.5t-61 -139t-92 -71.5t-100 -11q-51 11 -79 48.5t-19 98.5q9 73 68.5 140.5t148.5 111.5q-11 62 -48 176.5t-42 130.5q-57 -98 -107 -181t-126 -198.5t-144.5 -207.5t-154 -189.5t-162.5 -164t-162.5 -111.5
t-161.5 -50q-91 -7 -141 38t-74 132q-3 12 -4 20t-2 14.5t1 11t2.5 7t6 5.5t7.5 4t11 3.5t13 4.5q8 -49 18 -82.5t29 -65t52 -46t79 -11.5q74 5 159 52.5t161 115t162.5 170t153 193.5t144.5 212t124 197t104 176q-24 107 -8 193q14 79 64 110q41 26 68 -3q24 -26 19 -83
q-7 -67 -51 -145q17 -36 30.5 -68t27.5 -69t23.5 -62.5t28.5 -77.5t31 -85q100 51 174.5 124.5t165.5 194.5zM1339 799q7 47 -13 49q-17 2 -31 -30q-22 -52 5 -128q33 67 39 109zM1227 -141q28 -2 50 11t41 47.5t22.5 96t-5.5 158.5q-71 -37 -127 -99t-59 -122
q-2 -34 21.5 -61.5t56.5 -30.5z" />
    <glyph glyph-name="s.2" unicode="&#xe02f;" horiz-adv-x="1527" 
d="M1526 850q2 -12 2 -20t0.5 -14.5t-2 -10.5t-3 -6.5t-6.5 -5t-7.5 -3t-11.5 -2t-13 -2.5q-2 39 -6 67t-14 59t-26 50t-44 32.5t-66 15.5q-85 3 -169.5 -28.5t-158.5 -87.5t-145.5 -125.5t-142.5 -148t-137 -149t-142.5 -134.5t-146.5 -99q15 -111 -4.5 -200.5t-60.5 -139
t-91.5 -71.5t-99.5 -11q-51 11 -79.5 48.5t-19.5 98.5q9 73 69 140.5t149 111.5q-9 48 -27.5 109.5t-35 108t-33 108t-20 110t4.5 113.5q14 79 64 110q41 26 68 -3q24 -26 19 -83q-7 -67 -51 -145q11 -23 20.5 -46t17 -39.5t17.5 -43t14.5 -38t16.5 -45t15.5 -43t19 -52.5
t19.5 -55q67 34 141.5 97t141.5 133t139 148t145.5 147t149 124.5t162 86.5t173.5 27q91 -3 136.5 -53.5t58.5 -140.5zM160 799q7 47 -13 49q-17 2 -31 -30q-22 -52 5 -128q33 67 39 109zM47 -141q28 -2 50 11t41.5 47.5t23 96t-5.5 158.5q-72 -36 -128 -98.5t-59 -122.5
q-2 -34 21.5 -61.5t56.5 -30.5z" />
    <glyph glyph-name="t.4" unicode="&#xe030;" horiz-adv-x="1955" 
d="M2017 602l31 -22q-34 -75 -76.5 -155t-106 -181.5t-126 -180t-136 -135t-137.5 -61.5q-325 14 -168 1022q-203 -351 -284 -480q-468 -744 -771 -787q-14 -2 -28 -3q-166 -8 -209 176q-3 12 -4 20t-2 14.5t1 11t2.5 7t6 5t7.5 3.5t11 3.5t13 3.5q7 -50 16 -83t27.5 -65
t51 -47t79.5 -14q70 3 151 50t156 118.5t160 176.5t154 205.5t147.5 225t131 214.5t113.5 195.5t87 147.5q12 64 16 90q-57 24 -98 34.5t-79.5 8.5t-62.5 -28.5t-32 -77.5q-34 15 -19 63q14 46 42.5 68.5t70.5 22t85 -12t101 -35.5q14 66 17 80q4 22 9 49t6 39t5.5 26.5
t6 18.5t9 9.5t12 4t18 -3.5t24.5 -7t33 -12t43 -13q-3 -19 -47 -250q54 -24 91.5 -39t85 -29.5t82.5 -15.5t69.5 6.5t60.5 33.5t43 68q21 -11 18.5 -35t-24.5 -53q-33 -43 -81 -59t-110.5 -4t-114.5 30.5t-127 51.5q-15 -87 -28 -170t-27 -182.5t-23 -187t-15 -176
t-3.5 -158.5t11 -124t29 -82.5t50.5 -25.5q50 4 106.5 42.5t110 101t104 133.5t96.5 152.5t78.5 143.5t59.5 119z" />
    <glyph glyph-name="t.5" unicode="&#xe031;" horiz-adv-x="1902" 
d="M1901 1020q2 -12 2 -20t0.5 -14.5t-2 -11t-3 -7t-6.5 -4.5t-8 -3t-11 -3t-13 -3q-2 40 -6 68t-14 59t-26 50t-44 32t-66 15q-92 4 -190.5 -37t-190.5 -114.5t-185.5 -170t-181 -205t-171.5 -217.5t-163 -209t-149 -178.5t-136 -127t-118 -52.5q-48 2 -85.5 25t-62 65
t-41.5 95t-23 123t-8 139t4.5 154t13.5 158.5t19.5 160t23 151t24.5 139.5q-57 24 -98 34.5t-79.5 8.5t-62.5 -28.5t-32 -77.5q-32 14 -19 63q14 46 42.5 68.5t70.5 22t85 -12t101 -35.5q14 66 17 80q4 23 9 49.5t6 38.5t5.5 26.5t6 18.5t8.5 9.5t11.5 4t18 -4t24.5 -7
t33 -11.5t43 -13q-3 -19 -47 -250q54 -24 91.5 -39t85 -29.5t82.5 -15.5t69.5 6.5t60.5 33.5t43 68q21 -11 18.5 -35t-24.5 -53q-27 -35 -65.5 -51t-77.5 -16.5t-93 13.5t-95.5 30.5t-100.5 42.5q-15 -87 -28 -170t-27 -182.5t-23 -187t-15 -176t-3.5 -158.5t11 -124
t29 -82.5t50.5 -25.5q54 4 127 64t151 154t172 212.5t188.5 240.5t202.5 238t211.5 205.5t218.5 141.5t220 48q91 -4 136.5 -54.5t58.5 -139.5z" />
    <glyph glyph-name="u.1" unicode="&#xe032;" horiz-adv-x="2134" 
d="M2195 604l31 -24l-10 -17q-149 -247 -232 -358q-136 -180 -194 -164q-58 4 -93 43t-44.5 103.5t-7 129.5t15.5 140q-47 -106 -96 -173.5t-97 -66.5q-231 7 -122 481q-68 -92 -126 -168t-148 -185.5t-169 -194.5t-177 -176t-183.5 -150t-176.5 -95.5t-169 -33.5
q-91 4 -136.5 54.5t-58.5 139.5q-2 12 -2 20t-0.5 14.5t2 11t3 7t6.5 4.5t8 3t11 3t13 3q3 -50 9.5 -84.5t22 -67.5t47 -51t77.5 -20q358 -15 1030 872q41 54 147 197q2 2 2 4v0q5 7 12 8.5t18 -2.5t22.5 -9.5t33 -15.5t41.5 -18q-54 -221 -66 -319q-23 -181 31 -187
q27 2 57 35t57.5 86.5t49 103t44 106t30.5 73.5q20 -7 39.5 -12.5t31 -7.5t23 -7t17 -5t9.5 -7t5 -9t0 -14.5t-3 -19.5t-7 -29t-8 -37q-14 -68 -25 -133t-18.5 -135.5t-1.5 -116t28 -51.5q73 -19 387 506z" />
    <glyph glyph-name="u.2" unicode="&#xe033;" horiz-adv-x="1980" 
d="M1974 1020q2 -12 2 -20t0.5 -14.5t-2 -11t-3 -7t-6.5 -4.5t-8 -3t-11 -3t-13 -3q-3 51 -9 84.5t-21.5 67.5t-46.5 52t-78 20q-83 4 -176 -34t-180.5 -105t-177.5 -154.5t-172.5 -184.5t-160.5 -194t-145.5 -183.5t-122.5 -152t-98 -100.5t-66 -29q-48 3 -80 30.5
t-46.5 68.5t-18.5 97.5t0 108.5t14 111q-48 -109 -95.5 -175t-96.5 -65q-238 7 -115 510q7 29 11.5 45t11.5 26.5t12 12.5t17.5 -0.5t23 -8.5t33.5 -16t45 -18q-1 -2 -9 -33.5t-13.5 -56t-15.5 -68t-15.5 -78t-12 -76.5t-7.5 -73.5t1 -59.5t11.5 -43.5t25.5 -17.5
q27 2 56.5 35t57 87t48.5 102.5t43.5 106t29.5 73.5q20 -7 40 -12.5t32 -7.5t23.5 -7t17 -5t9.5 -7t5 -9t0 -14.5t-3 -19.5t-7 -28.5t-8 -37.5q-89 -418 -17 -436q16 -5 54 31.5t91.5 102t120 152t145.5 182.5t163 191.5t176 182t181.5 152.5t184 103t177.5 33
q91 -3 136 -53t58 -139z" />
    <glyph glyph-name="v.1" unicode="&#xe034;" horiz-adv-x="2002" 
d="M2075 602l20 -27q-5 -6 -18 -22q-127 -155 -207 -206q-111 -70 -164 18q-89 -200 -144 -277q-56 -77 -98 -76q-48 0 -79 43.5t-42.5 109.5t-12.5 155t6.5 168.5t19.5 162.5q-55 -73 -95.5 -127t-109.5 -141t-125 -152.5t-132.5 -149t-141.5 -144t-141.5 -122
t-143.5 -99.5t-137.5 -61t-132.5 -20q-91 4 -136.5 55t-58.5 140q-2 12 -2 20t-0.5 14.5t2 11t3 7t6.5 4.5t8 3t11 3t13 3q3 -50 9.5 -84.5t22 -68t47 -51.5t77.5 -20q78 -4 173.5 39t177.5 100t192 167t177 182.5t175 208t142.5 181.5t120.5 163q14 19 21 28q5 8 11.5 10.5
t18 -0.5t23 -7.5t34.5 -14t44 -16.5q-8 -34 -23 -132.5t-28 -216.5t-8.5 -208t33.5 -90q25 -1 71.5 74.5t83 155t50.5 122.5q-7 21 -8 63t4.5 84.5t25 69.5t49.5 18q51 -14 -33 -241q35 -129 214 41q62 58 135 149z" />
    <glyph glyph-name="v.2" unicode="&#xe035;" horiz-adv-x="1736" 
d="M1731 965q2 -12 2 -20t1 -14.5t-2 -10.5t-3 -7t-6.5 -5t-7.5 -3t-11.5 -3t-13.5 -3q-2 40 -6 68t-14 58.5t-26 49.5t-43 32t-65 15q-89 4 -186.5 -39t-185 -114t-174.5 -157.5t-164.5 -174t-145.5 -160t-128 -117.5t-101 -45q-47 0 -76 50q-89 -200 -144 -277
q-56 -77 -98 -76q-49 0 -80 44.5t-42.5 111.5t-12 157.5t7 171t19.5 162.5q5 31 8.5 48t10.5 29t11.5 15t18 1t24 -7t35 -15t45.5 -17q-9 -34 -23.5 -132.5t-27.5 -216.5t-8 -208t35 -90q24 -1 70 74.5t82 155t50 122.5q-7 21 -8 63t5 84.5t25.5 69.5t49.5 18
q51 -14 -33 -241q14 -53 56 -56q36 -2 93 42.5t123.5 116.5t144 159t165.5 173.5t177 157.5t189.5 113.5t192.5 38.5q168 -5 195 -192z" />
    <glyph glyph-name="w.1" unicode="&#xe036;" horiz-adv-x="2347" 
d="M2408 610l31 -24q-14 -22 -31.5 -46.5t-46.5 -63t-58.5 -72t-63.5 -69t-67 -57.5t-64.5 -33.5t-59 -2t-47.5 40.5q-63 -143 -102 -198q-54 -76 -103 -73q-172 9 -127 414q-155 -406 -242 -406q-205 0 -75 623v2q-51 -70 -94.5 -127.5t-110 -141.5t-125 -152
t-132.5 -148.5t-140 -142.5t-141.5 -121.5t-143 -98t-137.5 -61t-131 -19.5q-91 4 -136.5 55t-58.5 140q-2 12 -2 20t-0.5 14.5t2 11t3 7t6.5 4.5t8 3t11 3t13 3q3 -50 9.5 -84.5t22 -68t47 -51.5t77.5 -20q79 -3 174 38.5t183 107t190.5 165.5t182.5 190t172.5 206
t146 187.5t117.5 158.5q5 6 7.5 10t5.5 8v2v0q5 5 11 6t17.5 -2t23 -8t34 -14t43.5 -16q-120 -510 -98 -615q6 -27 21 -28q16 -1 38 25t46.5 74t48.5 99.5t49.5 117t42 108.5t34.5 92t19 51q18 -7 45.5 -17t35.5 -12.5t21.5 -11t15 -13t4 -17t0.5 -25t-7 -35.5
q-19 -88 -32.5 -172.5t-14 -170.5t25.5 -102q53 -31 183 279q-8 28 -8.5 76t6.5 95.5t27.5 78t51.5 22.5q13 -3 16.5 -21.5t-0.5 -46.5t-11 -59t-17 -62.5t-17 -52.5t-12 -34q32 -116 178 18q95 86 181 214q20 30 28 46z" />
    <glyph glyph-name="w.2" unicode="&#xe037;" horiz-adv-x="2164" 
d="M2161 1032q2 -13 3.5 -22t-0.5 -16t-2 -10t-6 -6.5t-7.5 -4t-13 -3t-15.5 -3.5q-2 40 -6 68t-14 58.5t-26 49.5t-43 32t-65 15q-97 4 -203.5 -45.5t-202.5 -132.5t-191.5 -184.5t-181 -204t-160.5 -188t-141.5 -140.5t-111.5 -57q-49 0 -76 45q-60 -137 -96 -190
q-58 -84 -110 -81t-84 41.5t-42 102.5t-9.5 129.5t10.5 140.5q-160 -406 -244 -406q-45 0 -73.5 30.5t-39 84.5t-12.5 115t7 137t19 134.5t23 121.5q18 88 28 100q11 13 44 0q82 -33 84 -34q-91 -385 -101 -530q-7 -111 23 -113q26 -2 70 72t91 189.5t72.5 183t44.5 122.5
q18 -7 45.5 -17t35.5 -12.5t21.5 -11t15 -13t4 -17t0.5 -25t-7 -35.5q-19 -87 -32.5 -172.5t-13.5 -171t26 -101.5q54 -31 178 270q3 7 4 9q-8 28 -8.5 76t6.5 95.5t28 78t52 22.5q18 -4 18.5 -41.5t-12.5 -86.5t-25.5 -89t-21.5 -59q16 -53 57 -53q35 1 88 43.5
t112.5 110.5t134.5 154.5t152 176t166 174.5t175 150.5t181.5 104t182.5 34.5q91 -4 136.5 -55t58.5 -140z" />
    <glyph glyph-name="x.1" unicode="&#xe038;" horiz-adv-x="2060" 
d="M2120 604l32 -22q-3 -6 -20 -43q-28 -59 -57 -114.5t-76 -130.5t-92 -130t-100.5 -96.5t-106.5 -47.5q-125 -16 -213 146q-89 -103 -180 -146q-10 34 -7 41.5t39 32.5q62 42 127 113q-78 177 -94 422q0 7 -1 21t-1 20q-55 -74 -94 -126t-109.5 -142t-126.5 -156
t-134 -152t-143.5 -147.5t-144 -125.5t-146.5 -103.5t-140 -63.5t-135 -21q-91 4 -136.5 55t-58.5 140q-2 12 -2 20t-0.5 14.5t2 11t3 7t6.5 4.5t8 3t11 3t13 3q3 -50 9.5 -84.5t22 -68t47 -51.5t77.5 -20q79 -3 175.5 41t180.5 103.5t194.5 170.5t179.5 186.5t175.5 211
t142.5 183.5t119 161q8 11 12 16q11 13 44.5 14t93.5 -5q-5 -60 5.5 -187t34.5 -241q122 179 191 378q26 -12 26.5 -24.5t-18.5 -56.5q-72 -188 -186 -351q55 -207 131 -207q48 -1 109 54.5t118 141.5t99 161t73 141q19 38 21 43z" />
    <glyph glyph-name="x.2" unicode="&#xe039;" horiz-adv-x="1888" 
d="M1882 989q2 -13 3 -22t-1 -16t-2 -10t-6 -6.5t-8 -4t-12.5 -3t-14.5 -3.5q-2 40 -5.5 68t-13.5 58.5t-26.5 49.5t-44 32t-65.5 15q-84 4 -174.5 -31.5t-173.5 -98t-168 -145.5t-163.5 -175.5t-153.5 -186t-144.5 -179.5t-129.5 -153.5t-115 -110t-97 -47.5
q-125 -16 -213 146q-90 -104 -181 -146q-10 34 -6.5 41.5t41.5 32.5q57 39 125 113q-78 177 -94 422q-4 40 -3 65.5t5 39.5t17.5 19t34.5 5t55 -3q22 -2 34 -3q-5 -59 6 -186.5t35 -241.5q122 179 191 378q26 -12 26.5 -24.5t-18.5 -56.5q-72 -188 -186 -351
q55 -207 131 -207q32 0 80 38.5t106 104.5t126.5 151.5t145.5 179.5t158.5 188t170 178t175.5 148.5t180.5 100.5t178.5 32q91 -4 136 -55t58 -140z" />
    <glyph glyph-name="y.1" unicode="&#xe03a;" horiz-adv-x="2222" 
d="M2281 606l33 -20q-24 -56 -51.5 -109.5t-50.5 -94.5t-59.5 -92t-57 -79.5t-65 -80.5t-62.5 -72.5t-70 -78.5t-69 -77q-4 -47 -9 -90t-17 -121.5t-26 -143.5t-37 -139.5t-50 -125.5t-65.5 -86t-82.5 -36q-52 -2 -78 71.5t-4 188.5q22 109 77 202.5t140 197.5
q12 150 25.5 325.5t21.5 278.5q-23 -77 -45.5 -136t-53.5 -120t-70 -94.5t-82 -34.5q-59 -1 -96 36t-51 93t-14 133.5t9 147t25 145.5q3 15 6 27q-55 -73 -96 -127t-109.5 -141t-125 -152.5t-132 -147.5t-140.5 -142t-141 -121t-142.5 -98.5t-137 -60.5t-131.5 -20
q-91 4 -136.5 54.5t-58.5 139.5q-2 12 -2 20t-0.5 14.5t2 10.5t3 6.5t6.5 5t7.5 3t11.5 2t13 2.5q3 -49 9.5 -83.5t22 -67.5t47 -51t77.5 -19q78 -4 172.5 38t178 101.5t190 165t178 183.5t173.5 206t144 184t120 162q16 21 23 31q5 8 12 10.5t20 0t25.5 -7t38 -13
t48.5 -15.5q-8 -26 -21 -76t-29.5 -121.5t-27 -143t-15 -134t6.5 -100.5t39 -37q28 2 54.5 23.5t50 60.5t42.5 79.5t38.5 98t31.5 96.5t27.5 94t21.5 74q27 -2 67 -3q55 -2 63 -14t1 -84q-3 -30 -4 -48q-7 -90 -15.5 -228.5t-17.5 -259.5q33 40 102.5 119.5t102.5 120
t82.5 108t87 136.5t71.5 151zM1542 -793q24 0 43.5 24.5t32 67.5t21.5 92.5t14.5 108t8.5 103.5t5.5 89.5t3.5 57.5q-144 -180 -174 -348q-15 -95 -1 -145t46 -50z" />
    <glyph glyph-name="y.2" unicode="&#xe03b;" horiz-adv-x="2093" 
d="M2093 1042q2 -13 3 -22t-1 -16t-2 -10t-6 -6.5t-8 -4t-12.5 -3t-14.5 -3.5q-2 40 -6 68t-14 58.5t-26 49.5t-44 32t-66 15q-100 4 -225 -66t-241.5 -177.5t-253 -259t-242.5 -285t-227.5 -283.5t-190.5 -227q-4 -45 -9 -89.5t-17 -122t-26.5 -143t-37.5 -139.5
t-50 -125.5t-65.5 -86.5t-81.5 -36q-52 -2 -78 71.5t-4 188.5q22 109 77 202t141 198q12 150 25.5 325.5t21.5 278.5q-23 -77 -45.5 -136t-54 -120t-70.5 -94.5t-82 -34.5q-59 -1 -96 36t-51 93t-14 133.5t9 147t25 145.5q2 8 5 24q18 88 29 103q12 15 49 3q8 -2 27 -9
q39 -13 66 -21q-8 -26 -21 -76t-29.5 -121.5t-27 -143t-15 -134t6.5 -100.5t39 -37q28 2 54.5 23.5t50 60.5t42.5 79.5t38.5 98t31.5 96.5t27.5 94t21.5 74q27 -2 67 -3q55 -2 63 -14t1 -84q-3 -30 -4 -48q-7 -93 -33 -488q49 58 135 164.5t160 199t174 210t187 212
t188 188.5t188.5 157t178 100.5t165.5 34.5q91 -4 136.5 -55t58.5 -140zM229 -793q24 0 43.5 24.5t32 67.5t21.5 92.5t14.5 108t8.5 103.5t5.5 89.5t3.5 57.5q-144 -180 -174 -348q-15 -95 -1 -145t46 -50z" />
    <glyph glyph-name="z.1" unicode="&#xe03c;" horiz-adv-x="1779" 
d="M1872 588q-40 -166 -125 -338.5t-188 -267.5q45 -216 -78 -398q-80 -118 -196 -175q-104 -51 -163 -18q-45 25 -43 93q2 49 28 103.5t60 97.5t87 93.5t90 80.5t88 69q7 124 -40.5 180.5t-117.5 28.5q-8 8 -18 17t-14 11.5t-7.5 8.5t-4 7t2 8t5.5 10t11.5 14t14.5 20
q129 190 129 265q1 23 -15 37t-35.5 18.5t-55 11t-56.5 13.5q-203 -406 -345 -634q-367 -588 -653 -626q-165 -21 -223 158q-4 11 -6 19t-3.5 14.5t0 11t1.5 7t5.5 5.5t7.5 4t11 4.5t13 5.5q9 -38 17 -65t23.5 -55t34.5 -44t48 -24.5t67 -3.5q361 47 884 1072q30 58 83 165
q-75 46 -70 160q1 29 11.5 40t31.5 13q16 0 53.5 -10.5t51.5 -12.5q-33 -91 -19 -128t62 -49.5t99.5 -9.5t94 -6.5t45.5 -41.5q3 -27 -13.5 -65.5t-49 -82t-61 -78t-66.5 -77.5t-49 -56q73 9 137 -34.5t94 -128.5q93 90 172.5 255.5t116.5 319.5zM1118 -504q-2 -56 39 -67
q49 -12 110 49q107 106 149 338q5 28 9 57q-46 -35 -93.5 -77t-97.5 -95t-82.5 -107.5t-33.5 -97.5z" />
    <glyph glyph-name="z.2" unicode="&#xe03d;" horiz-adv-x="1753" 
d="M1751 858q2 -13 3 -22t-1 -16t-2 -10t-6 -6.5t-8 -4t-12.5 -3t-14.5 -3.5q-3 50 -9.5 84.5t-22 67.5t-47 51t-77.5 20q-92 4 -188.5 -35.5t-186 -112.5t-176 -162t-171.5 -194t-158.5 -199t-150.5 -185.5t-134 -145.5q45 -216 -78 -398q-80 -119 -196 -176
q-103 -50 -162 -17q-45 25 -43 93q2 49 27.5 103t60 98t86 93.5t90.5 81t88 68.5q6 124 -41.5 180.5t-116.5 28.5q-8 7 -19 16.5t-14.5 12t-7.5 8.5t-3.5 7t2.5 8t6 10t11.5 14t14.5 20q127 194 129 265q1 31 -27 45t-68.5 20.5t-80.5 19.5t-66.5 55t-23.5 114q0 50 43 53
q16 0 52.5 -10.5t51.5 -12.5q-32 -72 -23.5 -113t38.5 -54.5t74.5 -17.5t86 -2.5t73 -9.5t34.5 -38t-14 -65.5t-49.5 -82t-61 -78.5t-66.5 -77.5t-49 -55.5q74 9 137.5 -34.5t92.5 -128.5q59 57 137.5 151.5t151.5 187.5t158 197t171.5 191t177 157.5t189 109t194.5 34.5
q91 -4 136.5 -55t58.5 -140zM-51 -504q-2 -56 39 -67q49 -12 110 49q107 106 149 338q5 28 9 57q-46 -35 -93.5 -77t-97.5 -95t-82.5 -107.5t-33.5 -97.5z" />
    </font>
</defs>
</svg>
