<?xml version="1.0" standalone="no"?>
<!DOCTYPE svg PUBLIC "-//W3C//DTD SVG 1.1//EN" "http://www.w3.org/Graphics/SVG/1.1/DTD/svg11.dtd" >
<svg xmlns="http://www.w3.org/2000/svg" xmlns:xlink="http://www.w3.org/1999/xlink" version="1.1">
<metadata>
Created by FontForge 20170731 at Thu Mar 17 11:59:42 2022
 By Aleksey,,,
(c) 2020, Nabila Graphic.
</metadata>
<defs>
<font id="ChristmasBella-Regular" horiz-adv-x="880" >
  <font-face 
    font-family="Christmas Bella"
    font-weight="400"
    font-stretch="normal"
    units-per-em="2048"
    panose-1="0 0 0 0 0 0 0 0 0 0"
    ascent="1638"
    descent="-410"
    x-height="246"
    cap-height="1032"
    bbox="-254.375 -778 2777 1186.14"
    underline-thickness="102"
    underline-position="-358"
    unicode-range="U+000D-FB06"
  />
<missing-glyph horiz-adv-x="200" 
d="M119 90q30 -3 39 -24q13 -22 -4 -46q-11 -20 -39 -20q-17 3 -27 16q-12 24 10 62q3 12 21 12z" />
    <glyph glyph-name="uniF000" unicode="ff" horiz-adv-x="573" 
d="M571 150q7 -22 -14 -29q-2 0 -33.5 -12t-88 -35t-107.5 -47q-20 -10 -23 -11q-20 -151 -26 -233q29 -29 47 -72q31 -79 14 -180q-4 -44 -29 -111q-27 -57 -51 -57q-5 0 -10 2t-11.5 10t-7.5 21q-14 166 2 368q-33 26 -75 37q-86 26 -88 74q0 14 6 28t24 35t60 48.5
t104 58.5q2 27 10 72q-92 -33 -237 -101q-22 -188 -29 -270q36 -36 53 -80q36 -90 19 -207q-5 -24 -11 -48t-17.5 -59t-27.5 -57t-34 -22q-27 0 -29 33q-16 175 2 422q-39 31 -88 45q-96 23 -98 80q-3 48 69 102q43 35 152 90q10 94 66.5 384t70.5 304q22 58 80 58
q30 0 64 -17q7 -3 10 -12.5t-2 -16.5q-6 -12 -19 -12q-6 0 -10 2q-20 10 -41 10q-12 0 -18 -2q-15 -6 -23 -24q-91 -370 -131 -651q92 44 238 100q1 8 4 24.5t4 24.5q12 68 26 137t25 119t20.5 90t15.5 61l5 21q20 53 74 53q29 0 57 -14q8 -5 10 -13t-2 -16q-6 -12 -18 -12
q-6 0 -10 2q-30 10 -35 10q-7 0 -15 -4q-12 -3 -18 -18q-64 -255 -115 -565q22 11 124.5 53.5t113.5 42.5q15 0 22 -14zM-33 -219q4 53 23 211q-170 -89 -170 -137q0 -22 67 -41q42 -11 80 -33zM35 -397q-8 43 -31 80q-11 -164 -2 -336q16 37 23 69q27 99 10 187zM238 -184
q1 14 18 176q-61 -33 -95.5 -60t-41 -38t-4.5 -17q0 -7 13.5 -16.5t41.5 -16.5q46 -15 68 -28zM295 -340q-6 31 -21 55q-8 -130 -2 -270q13 30 17 51q22 90 6 164z" />
    <glyph glyph-name="uniF001" unicode="ll" horiz-adv-x="593" 
d="M651 166q11 -18 -6 -31q-2 -2 -19 -14.5t-52 -34.5t-70 -39q-62 -32 -100.5 -43.5t-96.5 -11.5q-25 3 -43 12q-35 20 -51 68q-27 -31 -63 -49q-22 -13 -62 -13q-10 0 -18 4q-83 36 -68 203q22 255 111 543q12 40 25 80t23 68t18.5 50.5t12.5 33.5l5 12q6 12 26 12
q17 -3 17 -25l-17 -121q0 -9 -7.5 -14.5t-16.5 -3.5q-3 0 -11 4q-116 -342 -143 -643q-5 -63 6.5 -106t34.5 -52q4 -2 12 -2q44 0 105 74q1 7 2 22.5t2 22.5q13 156 57 331.5t74 257.5t39 101q7 15 22 15q1 0 3.5 -1.5t3.5 -1.5q19 -10 12 -28q-9 -17 -38 -98.5
t-72.5 -253.5t-57.5 -324q-9 -103 37 -127q13 -8 41 -8q63 0 155 51q33 17 66.5 38t50.5 34l18 12q4 4 15 4q13 0 18 -8z" />
    <glyph glyph-name="uniF002" unicode="tt" horiz-adv-x="274" 
d="M666 614q1 -9 -4 -16.5t-13 -9.5l-387 -64q-127 -502 -127 -825q0 -9 -6.5 -16t-15.5 -7t-16 7t-7 16q0 128 20.5 282t41.5 258t61 277l-86 -14q-129 -518 -129 -912q0 -9 -7 -15.5t-16 -6.5t-15.5 6.5t-6.5 15.5q0 353 127 904l-297 -50q-22 0 -25 19q-3 20 19 24
l313 54l51 196q3 9 11 14t16 3q20 -7 16 -29q-20 -70 -47 -176l88 14l19 66q6 16 22 16h4q21 -7 17 -29q-7 -16 -13 -45l367 62q22 0 25 -19z" />
    <glyph glyph-name="uniF003" unicode="ss" horiz-adv-x="688" 
d="M727 215q7 -22 -10 -29l-25 -12q-25 -11 -67.5 -33.5t-79.5 -44.5q-10 -5 -13 -8q20 -15 27 -22q47 -44 29 -84q-22 -51 -78 -81t-115 -30q-52 12 -55 74q0 63 113 145q-1 1 -3.5 2t-3.5 2q-73 51 -86 66q-89 -46 -135 -76q24 -20 35 -31q54 -48 35 -96
q-25 -48 -88 -88.5t-117 -40.5q-14 0 -20 2q-59 13 -62 82q0 73 125 164q2 2 6 5t6 5l-12 6q-37 26 -54 38.5t-40.5 33t-32 38.5t-6.5 36q7 55 84.5 111.5t134.5 56.5q76 0 88 -82q2 -9 -3.5 -17.5t-14.5 -9.5t-16 4t-9 14q-7 47 -45 47q-52 -4 -110 -53q-60 -45 -64 -78
q-5 -11 27 -38q10 -9 24 -19t33 -23.5t29 -21.5q23 -14 26 -16q31 19 152 84q-4 15 -2 22q4 47 71 95.5t115 50.5q67 0 80 -74q1 -9 -4 -16t-14 -9t-17.5 4t-9.5 15q-4 34 -35 34q-38 0 -89 -41t-54 -65q0 -6 6 -12q13 -17 88 -70q4 -2 11.5 -7t11.5 -7q24 17 109 62.5
t95 45.5q2 2 9 2q17 0 20 -12zM254 -25q13 26 -70 82q-37 -18 -84 -64.5t-47 -78.5q0 -36 27 -41q49 0 103.5 30t70.5 72zM547 0q5 11 -19 35l-36 28q-107 -74 -107 -118q0 -25 18 -31q39 0 83 25.5t61 60.5z" />
    <glyph glyph-name="uniF005" unicode="oo" horiz-adv-x="452" 
d="M391 193q22 -18 31 -33q16 -31 4 -70q-14 -43 -52 -83t-79 -40q-17 2 -32 18t-19 52q-5 77 53 135l-86 10l4 -8q21 -37 6 -82q-15 -54 -63 -104.5t-99 -50.5q-51 4 -59 83q-6 96 68 170q3 2 15 13t19 16q3 19 23 19h4q14 7 14 8q4 2 9 2q16 0 22 -17l174 -20q2 2 5 3
t4 1.5t1 1.5q4 2 11 2q14 0 20 -12q2 -6 2 -14zM180 104q9 27 -4 50q-9 18 -41 34q-21 -14 -37 -30q-59 -59 -53 -133q0 -13 4.5 -28t13.5 -15q23 -3 62.5 37.5t54.5 84.5zM383 104q8 16 0 35q-9 15 -29 23q-5 -3 -14 -10.5t-12 -10.5q-45 -48 -39 -100q3 -27 10 -31
q17 0 43 29q29 27 41 65z" />
    <glyph glyph-name="s_t" unicode="st" horiz-adv-x="559" 
d="M1090 614q3 -20 -19 -24l-526 -88q-125 -577 -125 -932q0 -9 -7 -16t-16 -7t-14.5 7t-5.5 16q0 258 67 643q-149 -90 -227 -152q24 -15 43 -34q54 -48 35 -97q-20 -47 -85 -88t-118 -41q-38 0 -60 22t-24 62q0 65 135 174q-1 1 -4.5 4t-5.5 3q-39 27 -54.5 38.5t-40 32.5
t-32.5 38.5t-6 35.5q7 55 84.5 111.5t134.5 56.5q76 0 88 -82q1 -9 -3.5 -17t-12.5 -10q-9 -2 -17.5 4t-9.5 15q-7 47 -45 47q-40 -3 -105 -49t-69 -82q-6 -11 29 -39q9 -9 22 -19t33 -24.5t29 -20.5q10 -5 22 -14q108 83 275 184q4 26 16 86q4 26 14 72.5t13 63.5l-291 -48
q-2 -2 -4 -2q-8 0 -15 6t-8 13q-1 9 4.5 16.5t14.5 9.5l309 52q51 235 57 241q1 7 8 12t15 5h4q8 -3 12.5 -11.5t1.5 -17.5q0 -1 -6 -27t-19 -81.5t-26 -112.5l510 84q9 1 16 -4.5t9 -14.5zM254 -51q13 25 -72 86q-129 -104 -129 -148q0 -37 27 -41q48 0 103 30.5t71 72.5z
" />
    <glyph glyph-name=".notdef" horiz-adv-x="200" 
d="M119 90q30 -3 39 -24q13 -22 -4 -46q-11 -20 -39 -20q-17 3 -27 16q-12 24 10 62q3 12 21 12z" />
    <glyph glyph-name="uni0000" horiz-adv-x="0" 
 />
    <glyph glyph-name="uni0000" horiz-adv-x="0" 
 />
    <glyph glyph-name="uni000D" unicode="&#xd;" horiz-adv-x="512" 
 />
    <glyph glyph-name="space" unicode=" " horiz-adv-x="339" 
 />
    <glyph glyph-name="exclam" unicode="!" horiz-adv-x="317" 
d="M96 74q8 4 13 4q11 0 18 -10q5 -7 3 -17t-9 -14l-47 -33q-4 -4 -13 -4q-13 0 -18 8q-5 7 -3 17t9 14zM289 670q19 -8 12 -29q-169 -443 -172 -489q0 -9 -7 -15t-16 -6t-14.5 6.5t-5.5 14.5q0 30 88 272q18 52 39.5 110.5t34 90t12.5 32.5q8 15 21 15q1 0 4 -1t4 -1z" />
    <glyph glyph-name="quotedbl" unicode="&#x22;" horiz-adv-x="225" 
d="M74 670q9 0 15.5 -7t8.5 -16q0 -115 -28 -143q-6 -6 -17 -6q-8 0 -14 6q-7 6 -7 15.5t7 15.5q8 10 12 44.5t2 65.5q0 21 21 25zM182 670q9 -2 14.5 -9t4.5 -16q-25 -127 -49 -156q-5 -8 -19 -8q-8 0 -12 4q-8 6 -9 15.5t5 15.5q20 27 39 137q4 19 20 19q1 0 3 -1t3 -1z
" />
    <glyph glyph-name="numbersign" unicode="#" horiz-adv-x="616" 
d="M49 23q-8 3 -12.5 11t-1.5 17l69 211h-47q-9 0 -15.5 6.5t-6.5 14.5q0 9 6.5 15.5t15.5 6.5h62l57 172h-98q-9 0 -15 7t-6 16q0 20 21 20h112l89 266q7 17 20 17q1 0 4 -1t4 -1q8 -3 11.5 -11.5t0.5 -15.5l-81 -254h196l105 283q7 14 20 14q1 0 4 -1t4 -1q8 -3 12 -11.5
t1 -17.5l-99 -266h54q9 0 15.5 -5.5t6.5 -14.5t-6.5 -16t-15.5 -7h-70l-64 -172h103q9 0 15.5 -6.5t6.5 -15.5q0 -8 -6.5 -14.5t-15.5 -6.5h-117l-92 -248q-1 -6 -8 -10t-13 -4q-4 0 -8 2q-19 8 -12 29l86 231h-188l-74 -225q-7 -17 -21 -17q-2 0 -4.5 1.5t-3.5 1.5z
M166 305h190l62 172h-195z" />
    <glyph glyph-name="dollar" unicode="$" horiz-adv-x="569" 
d="M444 686q20 -6 39 -16.5t28 -18t9 -8.5q16 -13 2 -31q-6 -6 -16 -6q-6 0 -14 4q-24 24 -66 35l-111 -252q80 -69 80 -121q0 -54 -70 -98t-130 -49l-50 -113q-6 -12 -20 -12q-6 0 -8 2q-9 3 -12.5 12t-0.5 17l43 96q-10 0 -26 4t-31.5 11t-26 13.5t-19 12t-12.5 8.5l-5 4
q-6 6 -6 16t6 17q6 6 16 6q8 0 14 -6q4 -4 15 -12t38.5 -19t55.5 -12l96 213q-30 26 -46.5 42.5t-31.5 42t-16 50.5q-3 47 37 90q43 47 88.5 67.5t107.5 20.5l62 142q6 12 20 12q7 0 11 -2q8 -3 11 -11.5t-1 -17.5zM211 522q2 -38 70 -98l100 227q-48 0 -109 -41.5
t-61 -87.5zM350 272q2 27 -55 80l-78 -178q51 10 105 53q28 25 28 45z" />
    <glyph glyph-name="percent" unicode="%" horiz-adv-x="638" 
d="M559 596q6 6 16 6q11 0 17 -6t6 -15.5t-6 -15.5l-516 -547q-5 -8 -17 -8q-8 0 -14 6q-7 6 -7.5 15.5t5.5 15.5zM199 385q-71 0 -82 53q-15 48 45 129q12 16 26 33t21.5 25.5t7.5 9.5l12 6q14 4 37 4q49 0 70 -33q20 -38 11.5 -79.5t-36.5 -79.5q-50 -68 -112 -68z
M244 598q-37 -39 -64 -82t-22 -67l2 -3q1 -3 3 -5.5t7.5 -5.5t13.5 -5q4 -2 15 -2q42 0 75 49q21 29 28.5 61.5t-3.5 49.5q-7 12 -33 12q-14 0 -22 -2zM354 256q14 4 39 4q49 0 70 -33q19 -36 10 -78t-37 -81q-52 -68 -112 -68q-7 0 -27 4q-46 13 -55 51q-12 49 45 129
q12 17 26 33t22 24.5t9 8.5q3 6 10 6zM399 94q22 29 30 61.5t-3 47.5q-8 14 -35 14q-14 0 -20 -2q-38 -40 -65.5 -83t-20.5 -66q0 -13 24 -19q4 -2 15 -2q42 0 75 49z" />
    <glyph glyph-name="ampersand" unicode="&#x26;" horiz-adv-x="692" 
d="M621 332q6 6 16 6q8 0 14 -6q14 -18 -2 -31q0 -1 -24 -23t-70 -60t-92 -71q72 -82 166 -176q6 -6 6 -15t-6 -15q-7 -7 -17 -7q-7 0 -14 7q-1 0 -24.5 23t-65.5 68t-82 91q-148 -103 -238 -103q-43 0 -69.5 26.5t-34.5 70.5q-15 83 63 170q33 40 99 92q-2 2 -2 4
q-61 116 -37 186q11 32 37.5 52.5t64.5 29t67.5 11t69.5 2.5q58 0 78 -23q14 -21 0 -57q-21 -42 -65.5 -84.5t-120.5 -102.5q-6 -5 -18.5 -14t-18.5 -14q56 -92 115 -162q3 -4 9 -12.5t9 -12.5q44 32 90.5 69.5t71.5 58.5zM248 555q-16 -53 33 -147q5 4 14 12t14 12
q146 110 174 170q4 6 4 12q-4 4 -36 7q-38 0 -74 -3.5t-78 -19.5t-51 -43zM127 125q6 -30 20.5 -44.5t42.5 -14.5q66 0 209 92q-3 3 -9 10t-9 10q-74 93 -115 162q-73 -61 -111 -113t-28 -102z" />
    <glyph glyph-name="quotesingle" unicode="'" horiz-adv-x="151" 
d="M84 629q9 0 16 -7t9 -16q0 -114 -29 -143q-6 -6 -17 -6q-8 0 -14 6q-7 6 -7 15.5t7 15.5q8 10 12 44.5t2 65.5q0 9 6 16.5t15 8.5z" />
    <glyph glyph-name="parenleft" unicode="(" horiz-adv-x="378" 
d="M354 807q7 -22 -14 -29q-3 0 -15 -5.5t-37 -23t-51 -44.5t-56.5 -77.5t-53.5 -113.5q-60 -159 -66 -344q-3 -56 1 -100t9.5 -62.5t10.5 -23.5q20 -3 20 -25q-3 -20 -24 -20q-17 0 -35 22q-38 57 -25 234q9 183 68 335q25 68 59.5 123.5t62 84t59 50t42 26t19.5 7.5
q1 0 4 1t4 1q15 0 18 -16z" />
    <glyph glyph-name="parenright" unicode=")" horiz-adv-x="413" 
d="M283 874q7 7 16 7q10 0 16 -9q4 -4 12 -16t21.5 -45t21.5 -73t7 -105t-17 -137q-28 -117 -113 -292t-161 -208q-8 -4 -23 -4q-8 0 -20 4q-8 5 -10 14t2 17q7 10 18 10q6 0 10 -2q8 1 23.5 14t42.5 47.5t55 83.5q93 158 133 326q14 65 15.5 124t-5.5 95.5t-18.5 65.5
t-18 39.5t-9.5 13.5q-14 14 2 30z" />
    <glyph glyph-name="asterisk" unicode="*" horiz-adv-x="372" 
d="M37 184q-4 9 -1 17.5t11 11.5q49 21 111 104h-76q-9 0 -16 7t-7 16t7 15.5t16 6.5h76l-41 78q-8 20 10 31q4 2 10 2q15 0 21 -12l39 -80q34 53 59 115q6 14 23 14q6 0 8 -2q20 -12 10 -29q-13 -40 -59 -117h75q9 0 16 -6.5t7 -15.5t-7 -16t-16 -7h-84l68 -133q5 -7 2 -16
t-12 -12q-4 -4 -11 -4q-10 0 -18 12l-65 129q-65 -94 -127 -121q-2 0 -5 -1t-4 -1q-17 0 -20 14z" />
    <glyph glyph-name="plus" unicode="+" horiz-adv-x="376" 
d="M49 430q-9 0 -15.5 6t-6.5 15t6.5 15.5t15.5 6.5h113l12 129q2 9 9 14.5t16 4.5q9 0 14.5 -7t5.5 -16l-12 -125h110q9 0 16 -6.5t7 -15.5t-7 -15t-16 -6h-114l-13 -129q0 -9 -6.5 -14.5t-15.5 -5.5h-2q-8 2 -14 9t-5 15l11 125h-109z" />
    <glyph glyph-name="comma" unicode="," horiz-adv-x="264" 
d="M158 111q18 -7 18 -25q0 -22 -21.5 -54t-41.5 -32q-14 0 -21 10q-4 8 -2 17t10 14q12 6 19 16q0 1 -1 2t-1 2q-14 14 -4 35q14 17 34 17q2 0 6 -1t5 -1z" />
    <glyph glyph-name="hyphen" unicode="-" horiz-adv-x="319" 
d="M264 334q9 0 16 -6t7 -15q1 -9 -5.5 -15.5t-15.5 -6.5l-219 -10q-9 0 -15.5 6t-6.5 14q0 22 20 25z" />
    <glyph glyph-name="period" unicode="." horiz-adv-x="309" 
d="M141 90q30 -3 39 -24q13 -22 -4 -46q-11 -20 -39 -20q-16 3 -26 16q-12 24 10 62q3 12 20 12z" />
    <glyph glyph-name="slash" unicode="/" horiz-adv-x="288" 
d="M16 27l213 741q8 16 21 16q1 0 3 -1t3 -1q20 -7 16 -26l-215 -742q-4 -18 -22 -14h-4q-9 3 -13.5 11t-1.5 16z" />
    <glyph glyph-name="zero" unicode="0" horiz-adv-x="430" 
d="M229 500q49 -6 84 -23t52 -41t24 -45t8 -43q6 -99 -78 -213q-82 -112 -172 -131q-10 -4 -30 -4q-70 0 -101 72q-12 28 -14 60t2 59.5t20 61t27.5 56t36.5 54t36 45t37 40t27.5 27.5t18.5 17l4 4q8 4 14 4h4zM285 162q72 98 69 182q-6 93 -121 111q-10 -9 -22 -20.5
t-31.5 -32t-36.5 -42.5t-36 -48.5t-32 -54t-22 -56t-8 -57.5t12 -54q18 -47 58 -47q42 0 89.5 37.5t80.5 81.5z" />
    <glyph glyph-name="one" unicode="1" horiz-adv-x="239" 
d="M199 590q11 -11 8 -25l-162 -549q-6 -16 -22 -16q-5 0 -7 2q-8 2 -12.5 10t-1.5 17l143 487l-108 -80q-4 -4 -14 -4q-12 0 -17 8q-6 8 -5 17t9 14l162 119q4 4 14 4q9 0 13 -4z" />
    <glyph glyph-name="two" unicode="2" horiz-adv-x="387" 
d="M352 477q12 -56 -151 -270q-24 -31 -65 -81.5t-48 -59.5q33 11 62 16q74 18 120 18q49 0 76 -20q15 -15 2 -31q-5 -8 -16 -8q-9 0 -15 6q-16 8 -45 8q-41 0 -112 -16q-30 -6 -63 -15.5t-51 -15.5l-17 -6q-1 0 -3 -1t-3 -1q-12 0 -19 10q-10 14 0 27q60 60 182.5 225
t122.5 205q0 6 -15 10t-24 4q-52 0 -127 -30q-1 0 -3 -1t-3 -1q-15 0 -22 14q-7 21 12 29q80 32 147 32q66 0 78 -47z" />
    <glyph glyph-name="three" unicode="3" horiz-adv-x="419" 
d="M358 535q26 -19 29 -50q6 -78 -145 -153q-9 -4 -31 -14.5t-33 -14.5q100 -24 139 -74q27 -38 19 -82q-10 -41 -46 -71.5t-85.5 -46t-95 -22.5t-86.5 -7q-19 0 -23 23q0 9 7 15.5t16 6.5q32 0 71.5 5.5t83 17.5t76 35t39.5 53q3 29 -10 47q-24 32 -85 49.5t-106 19.5
q-20 3 -20 21q-4 18 14 22q69 23 137 56q124 65 121 110q-4 13 -10 15q-11 8 -43 8q-78 0 -191 -41q-1 0 -4 -1t-4 -1q-13 0 -20 14q-7 22 14 29l14 5q15 5 40.5 13t49.5 13q55 14 101 14q45 0 67 -14z" />
    <glyph glyph-name="four" unicode="4" horiz-adv-x="387" 
d="M340 541q20 -10 12 -29q-150 -382 -190 -496q-4 -16 -21 -16q-9 0 -15.5 7t-6.5 16q0 5 18 53.5t41 107.5t25 64q-70 -27 -113 -27q-32 0 -58.5 11.5t-29.5 37.5q-12 58 66 187q63 104 75 116q6 9 17 9q10 0 14 -4q18 -14 4 -31q-39 -54 -74 -113q-70 -120 -59 -153
q0 -7 4 -7q20 -10 43 -10q60 0 131 43q2 2 4 2l84 217q7 17 23 17q1 0 3 -1t3 -1z" />
    <glyph glyph-name="five" unicode="5" horiz-adv-x="438" 
d="M391 526q22 -11 12 -28q-7 -17 -20 -17q-1 0 -3 1t-3 1q-53 21 -103 21q-34 0 -49 -15q-41 -41 -80 -108q131 -28 179 -92q29 -47 18 -92q-13 -71 -100 -134t-162 -63q-31 0 -54 16t-26 45q-2 9 3.5 17t14.5 8q9 1 16 -4t9 -14q0 -21 35 -23h4q60 0 134 52t83 108
q6 33 -12 57q-13 17 -35.5 31.5t-46.5 23.5t-45.5 15t-35.5 9l-15 3q-14 0 -17 10q-7 10 0 21q5 10 16 29.5t37 56.5t50 59q29 29 84 29q18 0 38.5 -3.5t33.5 -7t27 -8.5z" />
    <glyph glyph-name="six" unicode="6" horiz-adv-x="382" 
d="M246 344q54 -3 80 -39q34 -48 20.5 -114t-57.5 -119q-57 -72 -135 -72q-40 0 -76 20q-70 36 -76 103q-15 107 137 285q33 38 70 75t58 56t24 20q6 6 12 6q11 0 19 -8q6 -8 4.5 -17t-7.5 -14q-116 -101 -196 -213q71 31 123 31zM256 98q36 45 47 99t-12 82q-14 20 -51 20
q-46 0 -105 -29q-2 -2 -8 -2q-18 0 -21 13q-2 2 -2 6q-67 -98 -59 -160q6 -37 39 -59.5t72 -22.5q59 0 100 53z" />
    <glyph glyph-name="seven" unicode="7" horiz-adv-x="352" 
d="M319 545q6 -27 -22 -81t-96 -155l32 -2q9 0 15.5 -6.5t5.5 -15.5q0 -9 -7 -16t-16 -7l-59 4q-39 -56 -84 -130.5t-45 -102.5q11 -19 -6 -29q-8 -4 -12 -4q-12 0 -19 10q-18 26 8 80t107 178l-88 4q-9 0 -15 7t-6 16t7 15t16 5l115 -4q57 85 92 142q34 61 34 82
q-1 1 -1.5 2t-1.5 2t-3 2q-12 4 -24 4q-34 0 -89.5 -15.5t-99.5 -35.5q-2 -2 -8 -2q-17 0 -20 12q-7 21 12 31q125 53 205 53q29 0 45 -8q22 -12 28 -35z" />
    <glyph glyph-name="eight" unicode="8" horiz-adv-x="405" 
d="M203 604q116 0 153 -59q25 -36 13 -76q-21 -66 -138 -137q-8 -4 -10 -6q29 -52 37 -99q10 -86 -41 -149q-28 -35 -67 -56.5t-76 -21.5q-27 0 -45 12q-34 20 -27 72q6 66 80 184q7 7 10 19q-7 18 12 28q2 1 6.5 3.5t6.5 3.5q6 8 14 20q4 6 12 14q-5 5 -15.5 17t-16.5 18
q-59 64 -37 129q12 32 47.5 55t81.5 29zM182 106q68 83 0 197q-21 -9 -35 -16q-23 -35 -41 -64q-67 -113 -61 -160q3 -11 8 -14q4 -4 21 -4q26 0 56 15.5t52 45.5zM326 481q6 20 -7 39q-24 39 -110 39q-35 -3 -60.5 -18t-33.5 -37q-15 -35 28 -84q20 -17 37 -41
q12 -4 15 -12v-5q115 64 131 119z" />
    <glyph glyph-name="nine" unicode="9" horiz-adv-x="395" 
d="M346 604q8 -3 12.5 -11t1.5 -15q0 -2 -11.5 -40t-34 -106.5t-46.5 -128.5q-105 -288 -196 -303q-43 0 -68 37q-6 6 -5 15.5t9 15.5q8 4 12 4q12 0 19 -11q17 -21 27 -16q39 5 102.5 134.5t83.5 207.5q-17 -17 -33 -25q-39 -26 -74 -26q-33 0 -53 20q-34 34 -31 80
q6 58 78 127q16 14 33 27t26.5 19.5t10.5 6.5q1 1 4 2.5t4 2.5q12 2 31 2q55 0 76 -25q6 6 22 6zM145 381q33 0 71.5 33t59.5 67q30 55 21 78q-5 19 -49 19h-21q-41 -29 -79.5 -69.5t-41.5 -76.5q-3 -26 17 -43q8 -8 22 -8z" />
    <glyph glyph-name="colon" unicode=":" horiz-adv-x="180" 
d="M100 313q30 -3 39 -24q13 -22 -4 -45q-12 -21 -39 -21q-15 3 -26 17q-12 23 10 61q3 12 20 12zM80 90q29 -3 41 -24q10 -22 -4 -46q-17 -20 -37 -20q-23 3 -29 16q-13 26 8 62q6 12 21 12z" />
    <glyph glyph-name="semicolon" unicode=";" horiz-adv-x="210" 
d="M160 315q-14 -20 -39 -20q-18 4 -27 16q-12 24 10 62q6 12 21 12q28 0 39 -25q13 -22 -4 -45zM119 152q9 -2 14 -9t4 -16q0 -10 -4 -30.5t-19.5 -51t-39.5 -43.5q-2 -2 -11 -2q-11 0 -18 10q-10 20 8 31q18 9 28.5 38.5t12.5 51.5q2 9 9 15.5t16 5.5z" />
    <glyph glyph-name="less" unicode="&#x3c;" horiz-adv-x="409" 
d="M92 139q-47 32 -55 56q-1 16 12 29.5t43 29.5q38 20 143.5 65.5t118.5 45.5q18 0 21 -17q4 -8 0 -15.5t-13 -10.5q0 -1 -18.5 -8t-53 -20.5t-63.5 -25.5q-99 -41 -141 -69q21 -18 134.5 -88t123.5 -70q18 -11 8 -31q-7 -10 -18 -10q-8 0 -12 2q-68 37 -136 76
q-80 52 -94 61z" />
    <glyph glyph-name="equal" unicode="=" horiz-adv-x="339" 
d="M289 319q20 0 20 -20q0 -9 -5.5 -16t-14.5 -7h-226q-9 0 -15.5 7t-6.5 16t6.5 14.5t15.5 5.5h226zM289 188q9 0 15.5 -6.5t6.5 -15.5t-6.5 -16t-15.5 -7h-238q-9 0 -15.5 7t-6.5 16t6.5 15.5t15.5 6.5h238z" />
    <glyph glyph-name="greater" unicode="&#x3e;" horiz-adv-x="407" 
d="M319 225q53 -38 56 -57q3 -16 -11 -29t-45 -30q-80 -38 -104 -48q-32 -14 -70 -29t-58.5 -23t-20.5 -9q-23 0 -29 14q-3 8 1 17t11 12q14 0 133.5 53t143.5 68q-29 29 -131 88l-125 70q-7 4 -10.5 13t-0.5 17q7 10 21 10q6 0 10 -2q67 -36 135 -75q14 -9 35 -22t35 -22
t24 -16z" />
    <glyph glyph-name="question" unicode="?" horiz-adv-x="370" 
d="M61 43q28 0 39 -25q14 -20 -4 -45q-14 -20 -39 -20q-16 3 -26 16q-12 24 10 62q6 12 20 12zM354 541q13 -68 -41 -156q-41 -74 -102 -121q-36 -25 -63.5 -70.5t-37.5 -74t-10 -33.5q-2 -16 -26 -16q-9 3 -14 10.5t-3 15.5q23 68 42 103q36 66 85 102q49 34 93 107t34 122
q-13 54 -88 54q-33 0 -53 -17q-24 -20 -38 -59.5t-16 -69.5l-1 -30q0 -9 -6 -16t-15 -7t-15.5 6.5t-6.5 14.5q0 54 13 101.5t48.5 84.5t89.5 37q47 0 85 -22.5t46 -65.5z" />
    <glyph glyph-name="at" unicode="@" horiz-adv-x="696" 
d="M455 571q184 0 207 -159q7 -85 -31 -168q-44 -89 -90 -101q-24 -8 -54 -8q-70 0 -88 64q-104 -76 -163 -76q-11 0 -31 4q-32 16 -35 55q-4 39 20.5 87t61.5 73q42 29 94 29q80 0 125 -45q6 -5 7 -14t-5 -17q-8 -8 -16 -8q-9 0 -15 6q-3 3 -13.5 10t-34.5 16t-48 9
q-34 0 -70 -23q-28 -19 -46.5 -56t-16.5 -63q1 -9 10 -18q1 0 4 -1t6 -1q53 0 170 92q4 4 13 4q8 0 12 -2q13 -8 10 -22q-1 -34 17 -50q17 -10 34 -10q9 0 39 6q30 9 63 82t25 142q-12 115 -151 118q-126 0 -243 -96.5t-140 -220.5q-26 -126 96 -166q7 -3 11 -12t1 -17
q-2 -14 -28 -14q-74 26 -106 82.5t-17 134.5q16 81 77 162.5t153.5 136.5t185.5 55z" />
    <glyph glyph-name="A" unicode="A" 
d="M883 115q20 3 24 -19q2 -8 -3.5 -15.5t-14.5 -8.5l-90 -15l-72 -669q-2 -8 -9 -14t-16 -5q-9 2 -14 9t-4 16l70 655l-439 -74q-155 -339 -258 -680q-6 -16 -22 -16q-1 0 -3 1t-3 1q-8 3 -13 11.5t-2 15.5q100 326 248 659l-237 -39q-22 0 -25 19q-3 20 18 24l267 45
q77 171 172 353q102 191 201 350t161 237q12 15 33 15q10 0 16 -2q28 -14 25 -45l-88 -822zM336 25l424 69l88 828q-80 -103 -225 -347t-287 -550z" />
    <glyph glyph-name="B" unicode="B" horiz-adv-x="1675" 
d="M762 412q246 28 371 28q340 0 446 -121q77 -89 25 -231q-41 -112 -165 -219.5t-285 -187t-338.5 -141t-336.5 -93t-268 -31.5q-164 0 -201 70q-30 56 31 141q135 186 342 295l61 522q-2 0 -12 5q-18 11 -8 30q2 2 31 49l53 451q4 21 24 18q9 0 15 -7.5t6 -16.5l-45 -365
q35 47 64 83t76 86t88.5 82.5t92.5 56.5t97 24q40 0 78 -18q18 -9 32.5 -22.5t26 -36.5t9.5 -58t-21 -78q-38 -81 -121.5 -170.5t-167.5 -144.5zM1563 102q43 121 -19 189q-88 104 -407 104q-233 0 -478 -45q-43 -18 -69 -18q-9 0 -25 4q-15 7 -12 22q0 18 16 21q31 6 78 14
q1 1 4.5 2t5.5 2q100 54 205.5 154.5t147.5 191.5q16 36 18 63t-8.5 42.5t-17.5 21.5t-19 13q-25 14 -57 14q-55 0 -120 -41t-124.5 -106.5t-103 -123t-80.5 -114.5l-68 -569q126 53 315 53q21 -4 21 -25q-1 -9 -9.5 -14.5t-17.5 -3.5q-12 2 -32 2q-149 0 -283 -64l-45 -389
q-3 -20 -25 -20q-9 2 -15 8.5t-5 15.5l43 363q-172 -94 -301 -268q-44 -63 -27 -95q25 -45 162 -45q110 0 267.5 32t329.5 92t327 137t272.5 177.5t155.5 202.5z" />
    <glyph glyph-name="C" unicode="C" horiz-adv-x="1191" 
d="M1225 96q7 -4 9 -13.5t-3 -16.5q-58 -87 -135 -172.5t-169.5 -165t-199 -130.5t-203.5 -55q-170 0 -302 113.5t-185 284.5q-84 272 22 551q32 81 88.5 169t129.5 169t165.5 133.5t180.5 52.5q53 0 98 -25q152 -81 115 -395q0 -8 -8 -13.5t-17 -4.5q-21 4 -18 24
q15 146 -13 240q-40 129 -157 129q-115 0 -252 -113q-86 -70 -155 -166.5t-116.5 -217.5t-53.5 -251t34 -268q21 -71 62 -136.5t96 -117.5t126.5 -83.5t145.5 -31.5q217 0 477 256q25 25 50 52t44.5 50.5t37.5 46t31.5 40t23 31t14.5 20.5l6 8q7 10 18 10q5 0 13 -4z" />
    <glyph glyph-name="D" unicode="D" horiz-adv-x="1406" 
d="M743 973q98 0 198 -26t189 -74t158 -125.5t98 -172.5q49 -151 -22 -319q-76 -178 -289 -354q-89 -73 -184.5 -137t-207 -124t-230.5 -95t-224 -35q-35 0 -70.5 6t-71.5 20t-60 41t-27 64q-9 92 121 180q81 54 178 102l107 926q-51 -24 -125 -76q-34 -25 -66.5 -52.5
t-54 -49.5t-37.5 -41t-25 -29l-8 -10q-7 -10 -18 -10q-5 0 -13 4q-17 13 -4 30q3 6 22.5 30.5t68.5 73t106 89.5q107 79 233.5 121.5t257.5 42.5zM1047 -63q190 155 266.5 316.5t32.5 309.5q-27 89 -92.5 161t-150.5 115t-178 66t-186 23q-150 0 -295 -60q7 -10 7 -18
l-105 -903q103 47 223 84t205 37q8 0 15 -6t8 -15q0 -9 -7 -15.5t-16 -6.5q-183 -11 -434 -129l-31 -273q0 -18 -24 -18q-22 4 -19 24l27 244q-67 -36 -148 -88q-108 -73 -102 -139q4 -27 24.5 -46t51 -28t57.5 -12.5t53 -3.5q101 0 216 34.5t223.5 92.5t201 121t177.5 133z
" />
    <glyph glyph-name="E" unicode="E" horiz-adv-x="1118" 
d="M1122 119q5 8 17 8q9 0 14 -8q6 -6 6 -15.5t-6 -15.5q-14 -14 -61 -56.5t-157 -132.5t-212 -159q-293 -201 -487 -201q-110 0 -181 68q-69 69 -51 155q44 218 703 519h-89q-138 0 -206 8q-156 14 -187 80q-19 39 7 94.5t102 142.5q97 110 244 161.5t311 51.5
q36 0 69.5 -2t50 -4.5t17.5 -3.5q9 -2 14 -9t4 -16q-4 -21 -24 -18l-6 1q-7 1 -18.5 2t-26.5 2t-36 2t-42 1q-156 0 -294 -47.5t-230 -151.5q-125 -139 -101 -188q31 -63 375 -63q119 0 180 2q20 0 23 -19q3 -17 -15 -24q-2 0 -53 -21t-144 -64t-177 -89
q-378 -207 -408 -357q-12 -61 41 -114q56 -56 148 -56q173 0 462 195q63 43 130 93.5t117.5 93t91.5 78.5t63 56z" />
    <glyph glyph-name="F" unicode="F" horiz-adv-x="907" 
d="M1530 1067q9 2 17 -3.5t9 -14.5q2 -8 -3.5 -16t-14.5 -9q-2 -1 -139 -29t-362.5 -72.5t-420.5 -82.5l-53 -488l508 84q8 2 16 -3.5t9 -14.5q2 -9 -4 -17.5t-15 -9.5l-518 -86l-92 -848q-3 -20 -23 -20q-22 3 -22 24l65 605q-9 74 -47 221l-227 -39q-24 0 -27 18
q-2 9 4 17.5t15 9.5l225 37q-22 77 -34.5 117t-40.5 116t-59.5 127.5t-66.5 79.5q-68 -11 -125 -18q-50 -4 -59 -4q-29 0 -39 12q-10 10 -4 22q6 19 57 33q35 10 97 21q54 0 84 -21q46 9 108 21q80 13 232 43q5 8 18 8q2 0 4.5 -1t3.5 -1q895 172 924 182zM504 213l10 86
l-29 -6q1 -6 19 -80zM518 344l53 487q-8 -1 -215 -38q-40 -10 -71 -15q12 -14 41 -55q85 -139 147 -387z" />
    <glyph glyph-name="G" unicode="G" horiz-adv-x="1224" 
d="M1333 213q0 -10 -5.5 -17.5t-14.5 -7.5q-5 0 -38.5 -5.5t-105.5 -21.5t-141 -38q-32 -232 -135 -447q-54 -110 -112 -190t-93 -100q-65 -35 -127 -35q-66 0 -106 37q-50 44 -47 131q3 93 65 235q119 258 488 391q20 8 26 11q6 62 6 129q0 373 -133 506
q-23 -86 -54 -169.5t-81 -179t-107.5 -169t-136.5 -129t-166 -70.5q-36 -4 -51 -4q-67 0 -126 29.5t-93 84.5q-52 78 -43.5 181t74.5 206q47 74 100 134.5t119 113t145.5 82t163.5 29.5q87 0 141 -27q20 -12 11 -31q-6 -12 -21 -12q-6 0 -8 2t-16 7.5t-46 11.5t-67 6
q-76 0 -149 -29t-134 -80t-110 -107.5t-92 -123.5q-59 -92 -67 -182t36 -156q60 -94 180 -94q91 0 174 51t143 128t111.5 178t82.5 189t52 173q4 11 13 14q4 2 10 2t8 -2q6 -3 13 -7.5t26 -23.5t35.5 -43.5t37 -70t35 -100.5t25 -138t10.5 -180q0 -59 -6 -115
q68 21 136.5 36t101 20t39.5 5q9 1 15.5 -4.5t8.5 -13.5zM854 -305q97 206 127 411q-2 -2 -6 -2q-354 -129 -461 -368q-54 -117 -61.5 -199t32.5 -117q26 -26 76 -26q52 0 105 31q25 13 80 87.5t108 182.5z" />
    <glyph glyph-name="H" unicode="H" 
d="M883 309q9 2 17 -3.5t9 -14.5q0 -22 -18 -25l-129 -20l-90 -791q-4 -18 -23 -18q-10 0 -16 7t-6 17l90 777l-410 -68l-88 -758q-3 -20 -24 -20q-22 4 -19 24l86 746l-237 -39q-22 0 -25 18q-1 9 4 16t14 9l250 41l82 702q0 9 7.5 16t15.5 5q9 -2 15 -9t5 -16l-80 -690
l408 68l80 694q4 21 24 18q9 0 15 -7.5t6 -16.5l-80 -680z" />
    <glyph glyph-name="I" unicode="I" horiz-adv-x="352" 
d="M326 1024q34 -24 28 -96v-2l-174 -1516q-4 -20 -22 -20q0 2 -2 2q-9 0 -15 7.5t-4 16.5l174 1514q2 55 -10 55q-1 0 -3 1t-3 1q-33 0 -87 -66t-85 -118q-83 -150 -80 -273q1 -9 -5 -15.5t-15 -6.5q-9 -1 -16 5t-7 15q-2 70 22 150t62.5 146.5t82.5 118t83 73.5
q24 16 47 16q17 0 29 -8z" />
    <glyph glyph-name="J" unicode="J" horiz-adv-x="937" 
d="M915 219q20 0 23 -20q0 -9 -7 -16t-16 -7q-64 0 -157 -35q-1 -2 -8 -12.5t-9 -15.5q-26 -44 -86 -123.5t-142.5 -176.5t-165.5 -183t-162.5 -144.5t-127.5 -58.5q-14 0 -22 2q-49 19 -31 112q17 96 100 202.5t193 191.5t225 150t205 91q84 162 115 346q38 229 -33 340
q-51 70 -137 70q-79 0 -160.5 -35.5t-148.5 -94t-121 -125.5t-92 -138q8 -6 8 -15.5t-8 -15.5l-39 -41q-6 -6 -17 -6q-8 0 -12 2q-15 11 -8 29l1 2q50 111 134 215q94 114 215 190t248 76q117 0 172 -88q83 -122 41 -371q-27 -166 -99 -319q77 22 129 22zM350 -305
q99 104 192 218.5t148 201.5q-90 -37 -190 -96.5t-197 -135.5t-168 -169.5t-88 -180.5q-10 -56 4 -61q1 0 3 -1t3 -1q17 0 49.5 17.5t97.5 71t146 136.5z" />
    <glyph glyph-name="K" unicode="K" horiz-adv-x="745" 
d="M1034 881q6 6 17 6q8 0 14 -6q15 -19 -2 -33q-3 -3 -69 -62.5t-188.5 -167.5t-232.5 -202q-219 -188 -350 -287q-19 -16 -41 -31l-6 -63q316 -92 578 -205q131 -54 145 -82q5 -7 2 -16.5t-12 -12.5q-2 -2 -10 -2q-12 0 -19 11q-38 38 -286.5 126.5t-403.5 135.5l-61 -533
q0 -18 -25 -18q-9 0 -14.5 7.5t-3.5 16.5l61 539q-19 5 -70 18q-16 -4 -24 -4q-14 0 -23 9q-13 13 -8 28q7 15 25 17q2 0 26 -4q37 21 88 57l99 856q0 9 7.5 14.5t16.5 3.5q9 0 15 -7.5t4 -16.5l-95 -815q6 4 18.5 13t18.5 13q169 135 342 285q106 90 223 193.5t178.5 159
t65.5 59.5zM133 47l2 16q-8 -4 -20 -12q6 0 18 -4z" />
    <glyph glyph-name="L" unicode="L" horiz-adv-x="468" 
d="M731 -229q4 2 10 2q15 0 21 -13q10 -17 -8 -28q-367 -203 -549 -203q-77 0 -121 33q-37 24 -57 63t-23.5 93t-1.5 88t8 90v6l123 1063q0 9 7.5 14.5t15.5 3.5q9 -2 15 -9t5 -16l-123 -1062v-7q-13 -104 -6 -168q9 -88 59 -124q41 -23 99 -23q176 0 526 197z" />
    <glyph glyph-name="M" unicode="M" horiz-adv-x="1124" 
d="M1008 784q44 -12 58.5 -83.5t8.5 -143.5q-4 -65 -12.5 -316.5t-14.5 -467t-6 -224.5t-6.5 -15.5t-15.5 -6.5t-15 6.5t-6 15.5q0 45 13.5 481t19.5 531q3 73 -8 123q-10 51 -29 57q-1 0 -4 -0.5t-13 -8t-21.5 -21.5t-30.5 -46t-39 -77q-21 -42 -29 -62
q-85 -190 -130.5 -271.5t-82.5 -92.5q-4 -2 -14 -2q-13 0 -19 4q-23 15 -34 106q-8 91 -5 152q3 168 -26 285t-76 137q-2 2 -10 2q-11 0 -17 -4q-117 -65 -272 -744q-34 -151 -66 -319.5t-47.5 -259t-15.5 -94.5q-3 -19 -25 -19q-9 2 -14 9t-4 16q0 5 15.5 96.5t47.5 260
t66 321.5q75 320 133 489q85 241 162 283q20 10 35 10q35 0 64.5 -33t43.5 -68.5t23 -72.5q32 -132 26 -295q-3 -56 5 -137q4 -30 14 -80q6 3 24 24q25 37 46 76q19 36 112 240q5 10 14.5 30.5t14.5 30.5q82 180 149 180q9 0 13 -2z" />
    <glyph glyph-name="N" unicode="N" horiz-adv-x="1216" 
d="M1169 913q3 -9 11 -48.5t18 -128.5t12 -179q3 -193 -28 -332q-70 -341 -262 -467q-60 -45 -117 -45q-127 0 -178 254q-21 97 -47 389q-20 241 -37 328q-24 141 -70 160q-2 2 -10 2q-11 0 -17 -4q-117 -65 -272 -744q-34 -151 -66 -319.5t-47.5 -259t-15.5 -94.5
q-3 -19 -25 -19q-9 2 -14 9t-4 16q0 5 15.5 96.5t47.5 260t66 321.5q75 320 133 489q85 241 162 283q20 10 35 10q16 0 28 -6q35 -15 58.5 -61t40.5 -132q19 -108 37 -332q20 -260 45 -383q38 -180 102 -210q22 -9 33 -9q51 0 111.5 50t97.5 104q159 246 155 645
q-1 40 -3.5 81t-6.5 74t-8 63t-8 53t-7.5 40t-5.5 26l-2 9q-3 9 2.5 17t14.5 10q1 0 3 1t3 1q12 0 20 -19z" />
    <glyph glyph-name="O" unicode="O" horiz-adv-x="1007" 
d="M475 1026q90 -7 170 -58t136.5 -128t95 -162t57.5 -172q57 -244 -47 -533q-33 -90 -81.5 -174t-112.5 -162.5t-148 -133.5t-174 -72q-38 -9 -76 -9q-60 0 -121.5 19.5t-103.5 56.5q-87 84 -66 246q18 121 98 289q5 9 27 53q-2 9 -9.5 35t-10.5 43q-39 142 -39 289
q0 72 12 147t41 153t71 138t108 98.5t147 38.5q4 0 13 -1t13 -1zM565 -426q186 151 282 421.5t44 500.5q-44 202 -162 337.5t-258 147.5q-111 0 -182.5 -56.5t-116.5 -164.5q-104 -252 -22 -586q2 -6 5 -17.5t5 -17.5q35 63 73.5 123t60.5 90.5t23 30.5q5 8 17 8q10 0 14 -4
q6 -5 7 -14t-3 -17q-2 0 -26.5 -35t-67.5 -103t-80 -136q10 -32 22 -62.5t21.5 -51.5t17.5 -37.5t13 -25.5l4 -9q4 -8 2 -17t-10 -14q-4 -2 -10 -2q-15 0 -21 12q-1 1 -10 18.5t-25 55.5t-32 80q-1 -3 -7 -15q-176 -361 -43 -483q20 -20 47 -31q71 -35 150 -35
q133 0 268 109z" />
    <glyph glyph-name="P" unicode="P" horiz-adv-x="993" 
d="M1128 944q81 -72 72 -227q-6 -96 -42 -183.5t-91 -156t-131 -129t-157 -105t-174.5 -82t-178.5 -62.5t-174 -44l-66 -565q-4 -19 -24 -19q-9 2 -14.5 9t-4.5 16l62 549q-134 -29 -180 -29q-21 0 -25 18q-2 9 4.5 17t15.5 8q78 8 191 33l88 762q-34 -19 -64 -38t-43 -28
l-14 -10q-4 -4 -14 -4q-12 0 -17 8q-6 8 -4.5 17t9.5 14q2 2 18.5 13.5t54.5 34.5t80 46l12 104q0 9 8 15t17 4q9 0 14.5 -8t3.5 -17l-8 -71q135 68 293.5 117.5t284.5 49.5q131 0 198 -57zM1155 719q9 135 -57 192q-51 45 -158 45q-258 0 -594 -176l-90 -780
q86 21 165 44.5t169.5 59.5t166.5 77.5t149 98t125 120t85.5 146t38.5 173.5z" />
    <glyph glyph-name="Q" unicode="Q" horiz-adv-x="997" 
d="M1092 -551q17 -13 6 -31q-7 -10 -19 -10q-4 0 -12 4l-358 244q-85 -104 -190.5 -169t-223.5 -65q-60 0 -121.5 19.5t-103.5 56.5q-90 87 -64 246q9 70 47 174.5t78 167.5q-17 52 -22 78q-39 142 -39 289q0 59 9 121.5t27 128t49 123t71.5 103.5t98 72.5t124.5 26.5
q4 0 13 -1t13 -1q89 -7 169.5 -58t137 -128t96 -162.5t58.5 -171.5q55 -252 -49 -533q-73 -189 -152 -282zM297 -535q103 0 201.5 61.5t173.5 154.5l-246 165q-7 6 -9 15.5t3 15.5q10 10 18 10q5 0 13 -4l249 -168q125 166 179.5 382.5t13.5 398.5q-46 203 -163.5 338
t-258.5 147q-111 0 -182.5 -56.5t-116.5 -164.5q-105 -257 -20 -584q1 -6 4 -18.5t4 -18.5q35 63 73.5 123t60.5 90.5t23 30.5q5 8 17 8q10 0 14 -4q8 -5 9 -14t-5 -17q-92 -122 -174 -274q10 -32 22 -62.5t21.5 -51.5t17.5 -37.5t13 -25.5l4 -9q4 -8 2 -17t-10 -14
q-4 -2 -10 -2q-15 0 -21 12l-9 18q-9 18 -26 56.5t-32 79.5q-1 -3 -7 -15q-176 -361 -43 -483q30 -30 89.5 -48t107.5 -18z" />
    <glyph glyph-name="R" unicode="R" horiz-adv-x="636" 
d="M1212 -217q9 -1 13.5 -9.5t1.5 -17.5q-46 -155 -170 -155q-186 0 -520 356q-79 83 -158.5 179t-120.5 150t-41 56q-10 14 0 27q5 8 16 8q7 0 9 -2q4 -2 14 -2q61 0 157 53t177.5 125.5t109.5 128.5q64 122 -59 201q-27 18 -59 18q-11 0 -35 -4q-48 -12 -105 -54.5
t-109 -100.5t-94 -113t-75 -107l-121 -1020q0 -20 -25 -20q-21 4 -18 24l111 940q-1 0 -4 -1t-5 -1t-10 4q-18 11 -8 31q2 2 37 60l53 440q0 9 8 14.5t17 3.5q9 0 14.5 -7.5t3.5 -16.5l-41 -357q37 53 77 101t96 104.5t117 90.5t114 34q58 0 114 -45.5t68 -101.5
q15 -66 -21 -135q-54 -101 -201 -208t-261 -122q60 -77 115 -144t153 -174t179.5 -181.5t172 -130.5t154.5 -56q16 0 24 2q75 12 109 121q3 16 18 16q1 0 4 -1t4 -1z" />
    <glyph glyph-name="S" unicode="S" horiz-adv-x="1116" 
d="M1087 106h5q17 0 24 -14q4 -22 -16 -29q-181 -58 -342 -122q5 -12 14 -43q22 -92 -11.5 -184t-111.5 -158q-86 -74 -209 -93q-40 -4 -63 -4q-101 0 -199 43q-1 0 -2 1t-2 1q-58 37 -49 86q6 63 121 146q84 59 254 141q33 16 198 88q-94 168 -387 236q-53 12 -100 30.5
t-94.5 47t-78 72t-36.5 95.5q-12 115 90 236q78 95 217 177t254 89q87 0 137 -22q15 -6 28.5 -14t23.5 -16t18.5 -15.5t15 -14.5t10.5 -12t6 -8l3 -4q4 -8 2 -17t-10 -14q-8 -4 -13 -4q-9 0 -18 12q-27 41 -77 63.5t-103 22.5q-110 0 -246 -79.5t-215 -172.5
q-89 -106 -80 -200q19 -148 277 -209q132 -31 248.5 -97t168.5 -165q129 50 348 124zM621 -410q69 58 98 137.5t10 159.5q-2 14 -10 37q-62 -24 -141.5 -60t-175 -85.5t-162 -102t-72.5 -90.5q0 -27 29 -43q88 -39 182 -39q139 0 242 86z" />
    <glyph glyph-name="T" unicode="T" horiz-adv-x="704" 
d="M1413 1055q9 1 16 -4.5t9 -14.5q2 -8 -4 -15.5t-15 -8.5l-733 -123l-160 -1479q0 -20 -24 -20q-22 4 -19 24l156 1469l-668 -111q-21 0 -24 19q-2 8 3.5 15.5t14.5 8.5l680 113l25 239q2 8 9 14t15 5q21 -4 21 -25l-25 -225z" />
    <glyph glyph-name="U" unicode="U" horiz-adv-x="808" 
d="M741 934q9 2 17.5 -4t9.5 -15q29 -174 15 -397.5t-68 -419.5q-61 -230 -170 -381q-62 -87 -156 -156t-184 -69q-179 0 -203 365q-9 193 21 473q7 65 16.5 134t18.5 128t19 114.5t18 98.5t14.5 75.5t10.5 49.5l3 18q1 9 9.5 15t17.5 4q19 -6 16 -27l-7 -34
q-7 -33 -18.5 -93.5t-24 -133.5t-26.5 -168.5t-24 -184.5q-31 -285 -19 -465q2 -46 8.5 -90.5t21.5 -103t47.5 -94.5t78.5 -36q22 0 43 6q141 38 251 184.5t175 381.5q54 193 68 410.5t-17 387.5q-2 9 3.5 17.5t14.5 9.5z" />
    <glyph glyph-name="V" unicode="V" horiz-adv-x="659" 
d="M1024 920q4 4 14 4q11 0 17 -9q6 -6 5.5 -15t-7.5 -15q-302 -257 -580 -844q-62 -130 -116.5 -264t-78.5 -202.5t-24 -72.5q-7 -14 -23 -14t-20 18l-211 1373q-3 20 18 24q9 2 17.5 -3.5t9.5 -14.5l197 -1284q64 178 141.5 351.5t176.5 357t219.5 344t244.5 266.5z" />
    <glyph glyph-name="W" unicode="W" horiz-adv-x="1161" 
d="M987 780l4 -16q4 -15 11 -44t15.5 -67t18 -88t18.5 -103t17 -116t14 -123q25 -270 -8 -448q-40 -238 -170 -350q-66 -54 -125 -54q-24 0 -53 13q-193 85 -252 825q-97 -312 -186 -483q-19 -36 -31.5 -56t-36 -49t-50.5 -43t-58 -14q-64 9 -95 123q-24 93 -18 221
q9 203 121 581q26 85 53.5 167.5t43 125.5t16.5 43q7 17 20 17q1 0 3 -1t3 -1q21 -7 14 -29l-1 -3q-20 -56 -43.5 -127t-70.5 -221t-79 -300t-37 -254q-3 -124 18 -207q10 -40 26 -64.5t32 -27.5q11 -1 25 5t43.5 39.5t62.5 94.5q102 188 217 596q8 19 25 16q18 -4 18 -20
l4 -59q3 -59 13.5 -166t25.5 -203q8 -56 21.5 -119.5t36.5 -144.5t58.5 -143t76.5 -81q15 -6 34 -6q45 0 97 43q113 96 155 322q29 178 8 438q-12 130 -36.5 266.5t-42 208.5t-19.5 74q-4 22 17 29q8 2 15.5 -3t10.5 -14z" />
    <glyph glyph-name="X" unicode="X" horiz-adv-x="808" 
d="M1391 -117q8 -5 9 -13.5t-5 -16.5q-206 -293 -414 -293q-282 0 -518 575q-252 -350 -453 -723q-6 -12 -18 -12q-8 0 -10 2q-7 4 -10.5 13.5t-0.5 17.5q189 351 414 667q17 27 59 84q-6 15 -16 43t-12 33q-49 137 -89.5 289.5t-57.5 233t-17 87.5q-1 9 3.5 16t12.5 9h4
q20 0 23 -16q0 -7 17 -87t57.5 -231.5t89.5 -286.5q3 -7 8 -23t8 -24q158 210 291 363q213 244 391 399l2 2q8 4 12 4q14 0 19 -8q14 -15 -2 -31l-2 -2q-176 -153 -387 -395q-153 -174 -305 -381q19 -47 37 -89.5t48.5 -103.5t60.5 -110.5t70.5 -102t81 -88t90 -58.5
t99.5 -23q177 0 379 276q8 8 18 8q9 0 13 -4z" />
    <glyph glyph-name="Y" unicode="Y" horiz-adv-x="1214" 
d="M1307 238q9 0 16.5 -6t7.5 -15q3 -20 -18 -24q-5 0 -39 -5t-106.5 -21.5t-141.5 -39.5q-29 -235 -135 -446q-52 -109 -110.5 -188.5t-94.5 -102.5q-61 -33 -127 -33q-67 0 -104 37q-50 44 -47 131q0 94 65 233q40 93 121.5 173t172 131.5t194.5 89.5q4 1 12 4t12 4
q8 57 8 129q0 89 -8.5 173t-40.5 183.5t-84 151.5q-24 -87 -55 -169.5t-80.5 -178.5t-106.5 -169.5t-136.5 -129t-166.5 -70.5q-18 -4 -53 -4q-142 0 -219 112q-51 78 -42.5 181.5t75.5 205.5q55 85 102 140q8 8 19 8q6 0 12 -6q7 -6 7.5 -15.5t-5.5 -15.5q-47 -52 -98 -133
q-60 -91 -68 -182t35 -158q65 -94 182 -94q17 0 45 4q85 16 161.5 72.5t130.5 130t100.5 170t74.5 177.5t51 167q2 7 13 14q4 2 10 2t8 -2l12.5 -7.5t26.5 -23.5t35.5 -44t37 -70.5t34.5 -101t24 -138.5t10 -180q0 -39 -4 -113q42 13 85.5 24t75.5 17.5t58 11t40.5 7
t15.5 2.5zM852 -299q94 188 127 410h-4q-356 -134 -463 -371q-108 -240 -29 -313q30 -27 78 -27q50 0 103 29q27 15 81 88.5t107 183.5z" />
    <glyph glyph-name="Z" unicode="Z" horiz-adv-x="1454" 
d="M1454 88q8 4 12 4q12 0 19 -10q5 -7 3 -17t-9 -14q-142 -90 -286 -171t-327 -171t-358 -144t-305 -54q-113 0 -162 36q-52 39 -39 101q10 38 92 122t275 261q13 12 73 68.5t81 77t72 69t79.5 77t66.5 67t68 71.5q103 115 145 182q49 83 37 115q-11 23 -53 30
q-62 9 -119 9q-195 0 -407 -78q-40 -14 -79.5 -31t-67.5 -30.5t-50 -25t-33 -18.5l-12 -6q-4 -2 -10 -2q-11 0 -21 10q-4 8 -2 16t10 13q4 4 32.5 20t90 44.5t127.5 52.5q226 80 420 80q54 0 129 -11q73 -12 88 -61q16 -59 -43 -149q-59 -91 -151 -191q-127 -139 -443 -432
q-2 -2 -35 -32t-56.5 -52.5t-63.5 -60t-69 -67t-59 -60.5t-47.5 -53.5t-21.5 -34.5q-6 -34 23 -54q32 -28 122 -28q132 0 305.5 52.5t353 140.5t322 168.5t283.5 170.5z" />
    <glyph glyph-name="bracketleft" unicode="[" horiz-adv-x="655" 
d="M629 913q20 3 24 -18q3 -9 -2 -16t-14 -9l-250 -47l-295 -774l250 37q22 0 25 -20q2 -8 -4 -16t-15 -9l-287 -41q-16 0 -20 8q-7 11 -4 23l313 819q4 11 17 14z" />
    <glyph glyph-name="backslash" unicode="\" horiz-adv-x="221" 
d="M61 784l134 -757q2 -9 -4 -17.5t-15 -9.5q-21 0 -24 18l-134 758q-2 9 4 17.5t15 9.5q20 3 24 -19z" />
    <glyph glyph-name="bracketright" unicode="]" horiz-adv-x="593" 
d="M524 870q12 0 19 -10q5 -8 2 -18l-250 -826q-6 -16 -21 -16h-163q-9 0 -16 7t-7 16t7 15.5t16 6.5h147l238 780h-205q-9 0 -16 7t-7 16t7 15.5t16 6.5h233z" />
    <glyph glyph-name="asciicircum" unicode="^" horiz-adv-x="368" 
d="M252 678q10 -10 19 -25t16.5 -32.5t14 -34.5t12 -35t9 -30t6.5 -23.5t3 -12.5q2 -9 -3 -17t-14 -9q-23 0 -26 16q-9 42 -27.5 94.5t-40.5 75.5q-4 0 -12.5 -5.5t-29 -28.5t-46.5 -60q-16 -22 -31.5 -47t-23.5 -39l-8 -14q-6 -13 -19 -13q-6 0 -10 4q-18 9 -10 29
q1 1 9.5 15.5t24.5 40.5t31 48q76 110 121 115q27 0 35 -12z" />
    <glyph glyph-name="underscore" unicode="_" horiz-adv-x="417" 
d="M313 55q68 -2 84 -18q6 -6 6 -15.5t-6 -15.5t-16 -6q-6 0 -14 4q-12 6 -91 6q-57 0 -96 -2l-164 -8q-21 0 -24 20q0 9 5.5 16t14.5 7l25 1q25 2 68 4.5t81 4.5q53 2 127 2z" />
    <glyph glyph-name="grave" unicode="`" horiz-adv-x="75" 
d="M66 283q-2 -2 -9 -2q-11 0 -16 8q-3 6 -11 13t-14 7q-7 0 -12.5 6.5t-3.5 14.5q0 8 6 13t14 3q14 -1 27 -10.5t19 -17t8 -11.5q3 -6 1 -13.5t-9 -10.5z" />
    <glyph glyph-name="a" unicode="a" horiz-adv-x="579" 
d="M614 217q14 -15 -2 -31q-199 -172 -297 -172q-32 0 -54.5 18.5t-31.5 49.5q-107 -78 -163 -78q-28 0 -46.5 17t-19.5 45q-4 39 20.5 85.5t61.5 73.5q42 29 94 29q33 0 57 -8q19 -6 35.5 -15t24.5 -15t8 -7q7 -6 8 -15.5t-4 -15.5q-5 -8 -16 -8t-17 6q-3 3 -13.5 10
t-34.5 16t-48 9q-34 0 -70 -23q-28 -19 -46.5 -55.5t-16.5 -62.5q3 -21 23 -21q52 0 167 92q8 4 15 4q6 0 10 -2q13 -7 10 -22q-2 -46 27 -58q8 -4 22 -4q82 0 267 160q6 6 14 6q11 0 16 -8z" />
    <glyph glyph-name="b" unicode="b" horiz-adv-x="417" 
d="M481 213q3 -7 -0.5 -15.5t-11.5 -11.5l-22 -7q-22 -7 -57.5 -19.5t-63.5 -26.5q-15 -31 -35.5 -66t-51 -78.5t-64 -71.5t-62.5 -28q-7 0 -11 2q-27 5 -36 39q-10 37 8 66q50 84 217 168q1 2 2 5t2 5q49 120 24 182q-7 13 -14 13q-42 0 -139 -123q-23 -28 -46.5 -60.5
t-35.5 -51.5l-12 -19q-29 -223 -29 -359q0 -9 -5.5 -15.5t-14.5 -6.5t-16 6.5t-7 15.5q0 308 94 756q21 99 44.5 197t36.5 146l13 48q3 9 11 14t16 3q20 -7 16 -29q-1 0 -14 -48t-36 -143.5t-44 -195.5q-31 -150 -53 -293q30 39 47 63q112 140 178 140q36 -5 49 -39
q32 -65 -8 -182q19 9 43.5 17t41.5 12.5t18 4.5t4 1t4 1q14 0 20 -16zM174 -20q42 44 82 114q-111 -66 -143 -121q-10 -16 -7 -30l5 -9q2 -1 9 1.5t21.5 14t32.5 30.5z" />
    <glyph glyph-name="c" unicode="c" horiz-adv-x="397" 
d="M455 166q6 -6 5 -15.5t-9 -15.5q-53 -53 -164.5 -114.5t-175.5 -61.5q-27 0 -43 8q-57 21 -66 103q-8 71 25 143q29 57 71 80q20 14 43 14q19 0 27 -8q23 -17 16 -55q-2 -9 -9.5 -14.5t-16.5 -4.5t-14 9.5t-3 17.5v10q-13 0 -32 -14q-30 -25 -49 -70.5t-13 -103.5
q7 -58 37 -66q12 -6 29 -6q55 0 159 60t152 108q4 4 12 4q14 0 19 -8z" />
    <glyph glyph-name="d" unicode="d" horiz-adv-x="403" 
d="M383 844q8 0 14 -7t6 -16v-121q0 -9 -6.5 -15.5t-15.5 -6.5q-15 -81 -27 -201q0 -3 -1 -8t-1 -8q-39 -393 -4 -680q0 -10 -5.5 -17.5t-14.5 -7.5q-21 0 -25 19q-25 237 -8 504q-6 -13 -16 -39.5t-13 -34.5q-101 -263 -182 -279q-27 0 -39.5 5t-26.5 26q-38 53 0 137
q24 50 72 100t92 50q20 0 33 -13q6 -6 6 -15t-6 -15t-14 -6q-11 0 -17 6q-5 1 -16.5 -4.5t-31.5 -22t-40 -39.5q-20 -24 -33.5 -50.5t-18 -55t10.5 -47.5q9 -13 21 -13q5 1 11.5 5.5t20.5 20.5t30 41.5t39 73.5t48 111q20 51 39.5 108t31.5 96t13 42v14q10 89 22.5 175
t19.5 128l7 41q2 9 9 14.5t16 4.5z" />
    <glyph glyph-name="e" unicode="e" horiz-adv-x="440" 
d="M496 221q6 -6 5.5 -15.5t-7.5 -15.5q-8 -8 -23.5 -22t-53.5 -43.5t-76 -52.5t-88 -41.5t-93 -18.5q-52 0 -97.5 29.5t-58.5 77.5q-10 41 8 78q19 43 72 82q46 26 74 26q10 0 14 -2q33 -7 33 -47q-3 -54 -42.5 -87t-84.5 -38q-24 0 -33 6q7 -33 43 -57q29 -23 72 -23
q62 0 159 56q36 21 72 48t54 43l18 17q9 6 16 6q11 0 17 -6zM160 260q-30 0 -62 -25.5t-45 -54.5q5 0 10 -2t7 -2q20 -4 59 23q31 25 31 61z" />
    <glyph glyph-name="f" unicode="f" horiz-adv-x="346" 
d="M-123 -244q-98 23 -100 82q0 79 221 191q15 107 70 390.5t69 297.5v2q22 55 80 55q15 0 30 -3.5t22.5 -7t9.5 -5.5q9 -3 12 -12.5t-2 -16.5q-6 -12 -21 -12q-6 0 -10 2q-15 10 -39 10q-12 0 -18 -2q-15 -6 -23 -25q-91 -370 -131 -651q0 2 4 2q250 111 273 111
q13 0 20 -14q7 -22 -14 -29q-2 0 -38 -13.5t-100.5 -41t-121.5 -54.5l-31 -12q-21 -153 -29 -270q36 -36 53 -80q36 -90 19 -207q-5 -24 -11 -48t-17.5 -59t-27.5 -57t-34 -22q-27 0 -29 32q-16 175 2 422q-39 31 -88 45zM-8 -25q-45 -23 -78 -44.5t-50 -35.5t-27.5 -27
t-12.5 -19t-2 -11q0 -22 65 -41q43 -11 82 -33q4 53 23 211zM6 -334q-11 -164 -2 -336q16 36 23 70q27 98 10 186q-8 43 -31 80z" />
    <glyph glyph-name="g" unicode="g" horiz-adv-x="468" 
d="M463 203q14 -14 2 -31q-126 -141 -207 -256v-92q0 -204 -18 -336q-5 -37 -9 -61.5t-15.5 -64t-26 -65t-40 -47t-57.5 -26.5q-43 0 -67 24q-41 38 -44.5 122.5t33.5 191.5q63 176 199 368q0 40 -6 205q-71 -142 -131 -151q-37 0 -62 32q-44 66 17 170q26 49 70 85t85 36
q27 0 27 -22q1 0 3 1t3 1q21 0 25 -21q0 -12 2 -30q9 -210 10 -246q72 97 174 211q5 8 16 8t17 -6zM70 29q26 4 78.5 89.5t52.5 114.5q0 8 -0.5 15t-0.5 12l-1 4h-11q-25 1 -60 -27.5t-60 -70.5q-46 -81 -17 -127q8 -10 19 -10zM131 -707q84 84 84 560q-111 -166 -158 -306
q-35 -116 -32.5 -179t30.5 -89q10 -10 29 -10q23 0 47 24z" />
    <glyph glyph-name="h" unicode="h" horiz-adv-x="538" 
d="M594 219q14 -15 -2 -31q-142 -116 -217 -116q-13 0 -19 2q-30 7 -49.5 30t-38.5 62q-10 22 -17.5 35.5t-21.5 30t-30 24.5q-4 4 -15 4q-8 0 -14 -4q-48 -21 -92 -195q-10 -39 -19 -82t-13 -67l-3 -23q-4 -18 -20 -18q-10 0 -16.5 6t-6.5 14q0 308 94 756q21 99 44.5 197
t36.5 146l13 48q4 19 21 19q1 0 3 -1t3 -1q20 -7 16 -27q-1 -1 -14.5 -49t-36.5 -144.5t-43 -195.5q-54 -252 -78 -483q40 115 91 141q20 8 32 8q22 0 41.5 -11t36 -31.5t27 -37t22.5 -39.5q15 -32 27.5 -48.5t30.5 -20.5q30 0 72 21.5t63 37t61 47.5q4 4 15 4t16 -8z" />
    <glyph glyph-name="i" unicode="i" horiz-adv-x="315" 
d="M371 186q7 -6 7.5 -15t-5.5 -15q-145 -145 -271 -166h-20q-45 0 -62 26q-38 44 -4 154q5 22 13.5 44.5t14.5 35.5l5 12q3 12 19 12q6 0 10 -2q19 -6 12 -28q-26 -53 -38.5 -111.5t3.5 -89.5q10 -10 25 -10q10 0 16 2q34 5 72 22t67 38t53 41.5t38 33.5l14 14q6 9 16 9
q8 0 15 -7zM49 285q-13 0 -20 10q-4 8 -2 17t10 14l67 41q4 2 11 2q13 0 20 -11q11 -18 -6 -28l-70 -41q-2 -4 -10 -4z" />
    <glyph glyph-name="j" unicode="j" horiz-adv-x="186" 
d="M-20 301q-14 0 -19 10q-11 18 8 31l68 41q4 2 10 2q14 0 21 -10q4 -8 1.5 -17t-10.5 -14l-67 -41q-4 -2 -12 -2zM240 223q16 -16 2 -33q-99 -111 -164 -198q2 -53 2 -168q0 -197 -19 -336q-4 -32 -7.5 -50.5t-11.5 -54.5t-19 -59t-27 -48t-39.5 -37.5t-52.5 -12.5
q-42 0 -68 29q-44 41 -53 120q-9 92 24 205q55 189 226 426q-1 41 -3 82t-3.5 71t-3 53.5t-2.5 36.5l-1 13q0 9 6 16.5t15 8.5q21 0 25 -21v-10q1 -10 2 -29t2.5 -42.5t3 -57t2.5 -66.5q76 99 133 160q8 8 18 8q7 0 13 -6zM37 -176q0 73 -2 108q-131 -190 -187 -364
q-29 -106 -20 -186q6 -62 37 -97q19 -16 39 -16q25 0 49 24q82 82 84 531z" />
    <glyph glyph-name="k" unicode="k" horiz-adv-x="428" 
d="M418 49q7 -4 9 -14t-3 -17q-5 -8 -18 -8q-9 0 -13 4q-23 13 -319 62q-29 -208 -29 -383q0 -9 -6.5 -15t-15.5 -6t-16 6t-7 15q0 167 31 389q-18 4 -21 16t8 23l21 16q18 127 55 312q21 99 44.5 197t36.5 146l13 48q7 20 27 16q20 -7 16 -27l-5 -19q-5 -19 -14.5 -55.5
t-21 -82t-26 -108t-27.5 -124.5q-26 -126 -49 -262l231 182q5 5 13 5q12 0 18 -9q11 -18 -4 -30l-260 -207q119 -22 127 -23q190 -32 205 -47z" />
    <glyph glyph-name="l" unicode="l" horiz-adv-x="446" 
d="M115 -29q-22 2 -47 15q-78 43 -66 190q19 246 111 545q19 64 40 124.5t33 88.5l11 29q7 14 22 14h4q8 -3 12 -10.5t3 -14.5l-15 -121q-3 -20 -24 -20q-2 1 -5.5 2t-5.5 2q-115 -335 -143 -643q-9 -117 43 -147q22 -11 47 -11q68 0 182 60q38 20 76.5 44.5t58 38
t21.5 15.5q8 4 12 4q12 0 19 -10q5 -6 4 -15.5t-8 -15.5q-1 0 -10 -6.5t-24 -17t-34 -22.5t-44 -26.5t-50 -27.5q-126 -66 -203 -66q-4 0 -10.5 1t-9.5 1z" />
    <glyph glyph-name="m" unicode="m" horiz-adv-x="866" 
d="M922 199q6 -6 6 -15.5t-6 -15.5q-75 -77 -145.5 -119.5t-155.5 -42.5q-34 4 -63.5 18t-53 37t-36.5 39t-28 39q-9 13 -10 17q-20 -25 -35 -50q-34 -53 -47 -62q-8 -5 -18 -5q-11 -2 -27 10q-20 28 -47 76q-23 46 -35 55q-30 -10 -98 -127l-68 -131q-6 -12 -20 -12
q-15 0 -21 12q-31 67 9 238q9 36 20 74t18 59t7 22q7 17 20 17q1 0 4 -1t4 -1q9 -3 13.5 -12t1.5 -17q-64 -195 -66 -297q6 10 20.5 35.5t22.5 38.5q50 88 80 117.5t53 29.5q19 0 33.5 -16.5t35.5 -52.5q3 -6 5 -9q15 -27 35 -57q10 13 26 39t25 39t22.5 25t26.5 12
q6 0 10 -2q14 -4 37 -37q15 -22 25 -35.5t29.5 -34t43 -32t50.5 -13.5q71 0 133 39.5t131 108.5q6 6 16 6q11 0 17 -6z" />
    <glyph glyph-name="n" unicode="n" horiz-adv-x="710" 
d="M764 223q17 -14 2 -33q-177 -198 -305 -198q-34 0 -63 11t-53.5 33.5t-41.5 42.5t-39 52q-17 27 -31 41q-10 12 -14 12q-3 0 -10.5 -5.5t-31.5 -36t-54 -81.5q-17 -28 -34.5 -59.5t-26.5 -49.5l-9 -18q-6 -12 -20 -12q-15 0 -21 12q-30 64 11 232q8 35 19 72t18 57l6 20
q6 15 20 15q6 0 8 -2q9 -3 13.5 -11t1.5 -16q-23 -58 -44.5 -143.5t-21.5 -145.5q6 10 20.5 35.5t22.5 38.5q51 84 81.5 112.5t51.5 28.5q15 0 29.5 -10.5t24 -22t28.5 -36.5q17 -26 29 -42t32 -37t42.5 -32t48.5 -12q118 0 280 186q8 8 19 8q6 0 12 -6z" />
    <glyph glyph-name="o" unicode="o" horiz-adv-x="247" 
d="M174 217q31 -19 43 -41q18 -38 6 -84q-20 -56 -66.5 -105.5t-97.5 -49.5q-52 9 -57 86q-12 90 68 167q8 10 32 29q6 19 23 19h4q3 1 6 2.5t5 3t3 2t2 0.5q2 2 9 2q17 0 20 -12q3 -10 0 -19zM180 104q9 30 -2 50t-43 34q-35 -28 -37 -30q-59 -59 -53 -131q6 -43 21 -45
q22 -3 60.5 37t53.5 85z" />
    <glyph glyph-name="p" unicode="p" horiz-adv-x="473" 
d="M514 193q0 -22 -20 -25q-66 -5 -138 -55q-5 -51 -33 -98t-79 -78q-33 -19 -45 -19q-10 0 -19 6q-16 16 -10 41q16 59 111 144q5 5 16.5 14t15.5 12v21q-9 69 -65 88q-4 2 -12 2q-33 0 -73.5 -54.5t-65 -108t-38.5 -93.5q-29 -373 0 -625q3 -20 -18 -24q-22 0 -25 20
q-33 266 0 635q1 14 3.5 38t3.5 34q6 56 13 111.5t13 95.5t11.5 71.5t8.5 48.5l3 17q1 9 9 14.5t17 3.5q20 -7 17 -27l-3 -13q-2 -12 -6 -36.5t-8.5 -55t-10.5 -74t-11 -87.5l3 7l5 10q21 36 38 60.5t49.5 49.5t64.5 25q8 0 24 -4q39 -12 64.5 -44t31.5 -77q68 44 133 49
q22 0 25 -20zM223 -25q53 33 76 91q-56 -53 -76 -91z" />
    <glyph glyph-name="q" unicode="q" horiz-adv-x="440" 
d="M0 61q-3 90 51 144q64 59 187 59q20 -3 20 -24q-4 -21 -25 -21q-104 0 -151 -47q-40 -40 -37 -109q0 -22 8 -22q21 0 67.5 38t83 77.5t36.5 48.5q5 8 18 8q6 0 8 -2q17 -7 13 -25q-33 -174 -39 -211q36 36 71 64q125 112 152 145q6 9 16 9q8 0 15 -7q7 -4 7.5 -13.5
t-5.5 -16.5q-32 -38 -156 -150q-71 -61 -113 -102q-40 -223 -57 -377v-43q1 -23 0 -47t-2 -42.5t-2.5 -33t-2.5 -23.5l-1 -8q-3 -16 -21 -20h-2q-16 0 -20 18q-11 41 4 191q2 2 2 8q-11 115 -51 156q-23 17 -23 47q0 58 88 149l47 47q6 38 17.5 101t15.5 86q-18 -23 -26 -29
q-88 -88 -136 -88q-10 0 -14 2q-36 9 -43 61v2zM94 -268q0 -12 8 -17q24 -21 39 -59q5 33 15.5 97t15.5 97q-78 -87 -78 -118z" />
    <glyph glyph-name="r" unicode="r" horiz-adv-x="423" 
d="M481 199q11 -18 -6 -31q-65 -41 -139 -41q-101 0 -184 74q-34 -42 -65.5 -128t-43.5 -145q-4 -18 -23 -18q-2 0 -4 2q-8 2 -12.5 9t-3.5 16l55 368q0 9 8 15t17 4q9 0 14.5 -8t3.5 -17l-20 -137q28 62 59 86q6 6 13 6q10 0 18 -8q31 -33 78 -54.5t90 -21.5q60 0 115 37
q4 2 10 2q13 0 20 -10z" />
    <glyph glyph-name="s" unicode="s" horiz-adv-x="421" 
d="M461 215q7 -23 -12 -29q-103 -45 -203 -106q-4 -2 -11.5 -6t-11.5 -6q21 -15 37 -31q54 -48 35 -96q-25 -48 -88 -88.5t-117 -40.5q-14 0 -20 2q-59 13 -62 82q0 76 137 174l-12 6q-39 27 -54.5 38.5t-40 32.5t-32.5 38.5t-6 35.5q7 53 84.5 110.5t132.5 57.5
q37 0 60.5 -21t29.5 -61q2 -9 -3.5 -17t-14.5 -9t-16 4t-9 14q-7 47 -45 47q-52 -4 -110 -53q-30 -22 -47 -43.5t-17 -34.5q0 -16 27 -39q16 -15 67 -51q35 -22 45 -29q7 3 20.5 11.5t18.5 11.5q45 27 97 53.5t81 39.5l29 13q4 2 10 2q15 0 21 -12zM254 -41q11 27 -70 82
q-131 -86 -131 -143q0 -36 27 -41q49 0 103.5 30t70.5 72z" />
    <glyph glyph-name="t" unicode="t" horiz-adv-x="147" 
d="M653 559q1 -9 -3.5 -17t-12.5 -10l-522 -86q-131 -522 -131 -911q0 -9 -6 -15.5t-15 -6.5t-15.5 6.5t-6.5 15.5q0 208 33.5 425t93.5 478l-297 -49q-22 0 -25 19q-3 20 18 24l314 53l51 197q7 20 27 16q20 -7 16 -28q-20 -70 -47 -176l504 84q20 3 24 -19z" />
    <glyph glyph-name="u" unicode="u" horiz-adv-x="444" 
d="M459 94q-84 -76 -152 -76q-33 0 -57 17q-42 37 -55 80q-1 -1 -2.5 -3t-2.5 -3q-53 -100 -96 -117q-12 -6 -24 -6q-9 0 -21 4q-56 23 -47 141q3 22 7.5 46t8.5 37.5t5 14.5q3 17 18 17q1 0 4 -1t4 -1q9 -1 13 -9.5t1 -17.5q-10 -36 -15 -74.5t-0.5 -71.5t20.5 -40
q4 -2 10 2q25 9 58 66.5t54 113.5q11 18 29 14q21 -7 14 -28q-3 -3 -5 -20.5t8.5 -49.5t37.5 -57q18 -11 33 -11q44 0 123 66q8 4 16 4q9 0 15 -6q5 -6 4.5 -13t-3.5 -12z" />
    <glyph glyph-name="v" unicode="v" horiz-adv-x="319" 
d="M119 -92q-23 0 -37 14q-41 30 -61.5 148t-20.5 209q0 9 7 15.5t16 6.5t15.5 -6.5t6.5 -15.5q0 -82 16 -187t48 -137l8 -4q1 0 3 1t3 1q4 1 9 4.5t16 19t22.5 40t27 72t31.5 110.5q13 54 24.5 114.5t17 93.5t5.5 35q1 9 9 15t16 4q9 -1 14.5 -9t3.5 -16q0 -2 -5.5 -36
t-17 -95.5t-24.5 -116.5q-64 -263 -139 -278q-6 -2 -14 -2z" />
    <glyph glyph-name="w" unicode="w" horiz-adv-x="423" 
d="M365 287q52 -108 34 -224q-8 -53 -49 -124.5t-86 -71.5q-10 0 -14 2q-30 9 -48 50.5t-36 121.5q-1 -2 -3 -7t-3 -7q-34 -88 -56 -126.5t-49 -39.5q-28 0 -41 28q-31 67 9 232q31 122 45 151q8 15 20 15q1 0 4 -1t4 -1q8 -3 12 -11.5t1 -17.5q-31 -86 -54.5 -194
t-1.5 -152q9 3 29 41q6 14 18.5 44.5t18.5 45.5q19 52 26.5 66.5t20.5 15.5h4q21 0 29 -31q1 -2 10 -43q7 -32 24.5 -84.5t28.5 -52.5q2 -2 14 6q39 36 62 90t21.5 123.5t-33.5 134.5q-5 7 -2 17t12 14q2 2 8 2q15 0 21 -12z" />
    <glyph glyph-name="x" unicode="x" horiz-adv-x="534" 
d="M588 174q8 -6 9 -15.5t-5 -15.5q-4 -6 -19 -24.5t-46 -48t-66.5 -56t-82.5 -46t-91 -19.5q-3 0 -10.5 1t-10.5 1q-2 0 -6.5 1t-7.5 1q-66 12 -121 76l-92 -103q-6 -6 -16 -6q-11 0 -17 6q-14 14 0 31l98 109q-40 59 -71 165q-3 9 1.5 17.5t12.5 11.5h4q19 0 25 -16
q25 -90 59 -144l117 129q9 9 18 9q6 0 13 -7q7 -6 7.5 -15t-5.5 -15l-125 -138q46 -58 100 -67q8 -2 27 -2q44 0 92 24t85.5 57.5t60 57.5t31.5 35l1 2q5 8 16 8q7 0 15 -4z" />
    <glyph glyph-name="y" unicode="y" horiz-adv-x="571" 
d="M625 203q6 -6 7 -15.5t-5 -15.5q-126 -141 -207 -256q0 -16 1 -46t1 -46q-3 -204 -21 -336q-27 -243 -145 -264q-46 0 -70 24q-41 38 -43.5 122.5t35.5 191.5q56 165 199 368q-2 65 -5 132t-6.5 121.5t-3.5 62.5q-28 -36 -51 -72q-27 -41 -42.5 -63t-49.5 -65t-66 -65
t-61 -22q-38 0 -67 41q-13 20 -19.5 44t-6 46.5t4 44.5t10.5 41.5t13 33.5t11 24l5 10q10 10 20 10q7 0 11 -2q8 -5 10 -14t-2 -17l-4 -7q-4 -8 -9 -19.5t-10.5 -27t-9.5 -34t-5 -36.5t3 -37t14 -35q15 -21 31 -21q58 0 182 195q42 62 62 85t37 23q1 0 4 -1t4 -1
q22 -6 25 -39q0 -1 2 -37t5.5 -104t6.5 -135q69 97 174 211q5 8 16 8q9 0 15 -6zM295 -707q82 88 82 560q-111 -166 -158 -306q-35 -116 -32 -178.5t30 -89.5q10 -10 29 -10q25 0 49 24z" />
    <glyph glyph-name="z" unicode="z" horiz-adv-x="409" 
d="M446 74q5 -7 3 -17t-9 -14q-13 -9 -40.5 -23.5t-90 -35.5t-114.5 -21q-38 0 -68 12q-39 13 -45 41q-8 29 12 65t66 93q84 102 78 131q-2 5 -9 12q-4 2 -18 2q-32 0 -85 -18t-95 -41q-4 -2 -11 -2q-12 0 -18 12q-4 8 -2 16t10 13q18 18 93 42t106 24q17 0 39 -9
q27 -14 33 -43q5 -23 -8.5 -54t-29 -52t-48.5 -62q-6 -9 -27 -34.5t-29 -38.5q-16 -27 -16 -43q7 -21 72 -21q46 0 101 18.5t87.5 36t32.5 19.5q4 2 10 2q13 0 20 -10z" />
    <glyph glyph-name="braceleft" unicode="{" horiz-adv-x="380" 
d="M379 854q-6 -16 -21 -16q-1 0 -4 1t-4 1q-45 18 -88 18q-33 0 -41 -14q-16 -16 -14 -211q1 -26 2 -55t2 -51.5t2 -41t1 -29.5l1 -10q0 -7 -6 -16q-6 -6 -16 -6h-19l8 -8q15 -15 4 -29q-45 -63 -83.5 -154t-18.5 -145q11 -33 55 -45q9 -3 14 -11t3 -16q-5 -16 -27 -16
q-68 18 -86 74q-29 75 37 217q37 73 59 104l-37 33q-13 10 -6 25q4 14 21 14h51q0 12 -2 70t-2 96q-4 198 18 235q20 33 78 33q23 0 35 -2q17 -3 34 -7t26.5 -7t9.5 -4q9 -3 13 -11t1 -16z" />
    <glyph glyph-name="bar" unicode="|" horiz-adv-x="192" 
d="M43 23l63 768q2 9 9 15t16 5q9 0 15 -7t6 -16l-66 -768q0 -20 -25 -20q-9 0 -14.5 7.5t-3.5 15.5z" />
    <glyph glyph-name="braceright" unicode="}" horiz-adv-x="413" 
d="M223 895q150 -28 154 -98q6 -39 -92 -217q-18 -31 -46.5 -81t-35.5 -63l45 -24q12 -6 12 -23q-3 -15 -16 -18l-49 -13q7 -44 4 -118q-2 -40 -8.5 -76.5t-21.5 -76t-45 -63.5t-71 -24q-13 0 -33 4q-9 1 -14.5 9.5t-3.5 17.5q7 20 27 16q8 -2 24 -2q31 0 47 16q29 27 43 92
t11.5 122t-4.5 98q-2 7 3 15t13 9l12 2l-16 11q-7 2 -12 12q0 12 4 18q49 79 114.5 201t65.5 154q-1 18 -39 34t-78 21q-9 1 -14.5 8.5t-3.5 15.5q0 9 7.5 15t16.5 6z" />
    <glyph glyph-name="asciitilde" unicode="~" horiz-adv-x="311" 
d="M25 330q-9 4 -11 12t4 14q28 33 80 33q24 0 45 -8q41 -16 70 -16q10 0 18 2t11 4l2 2q7 10 22 10q6 0 10 -2q21 -10 11 -27q-26 -26 -74 -26q-42 0 -92 18q-12 6 -25 6q-11 0 -21 -4t-14 -8t-4 -6q-8 -8 -20 -8q-4 0 -12 4z" />
    <glyph glyph-name="exclamdown" unicode="&#xa1;" horiz-adv-x="307" 
d="M14 -236q-20 10 -12 29q169 447 172 490q0 9 6 15.5t15 6.5t15.5 -6.5t6.5 -15.5q0 -31 -88 -273l-86 -231q-7 -17 -20 -17q-1 0 -4.5 1t-4.5 1zM223 371q-8 -4 -12 -4q-11 0 -18 10q-14 17 4 31l49 32q8 4 12 4q11 0 18 -10q11 -18 -6 -31z" />
    <glyph glyph-name="cent" unicode="&#xa2;" horiz-adv-x="528" 
d="M459 217q8 4 12 4q11 0 18 -10q11 -18 -6 -31q-2 -2 -21.5 -14t-57 -33.5t-74.5 -38.5q-86 -41 -158 -51l-14 -154q-4 -20 -23 -20q-22 3 -22 25l14 147q-28 0 -49 12q-56 27 -53 111q0 79 38 141q38 54 82 74q15 5 17 6l18 166q0 9 7.5 14.5t17.5 5.5q21 -4 18 -24
l-16 -164q1 -1 4 -3t4 -3q21 -21 10 -58q-6 -16 -20 -16q-1 0 -3 1t-3 1q-9 1 -13.5 9.5t-1.5 17.5v10q0 2 -2 2q-9 0 -30 -12q-35 -21 -59.5 -64.5t-24.5 -103.5q0 -57 30 -72q13 -8 41 -8q66 0 170 49q36 17 73.5 38t57.5 33z" />
    <glyph glyph-name="sterling" unicode="&#xa3;" horiz-adv-x="544" 
d="M506 512q-1 0 -3 -1t-3 -1q-17 0 -21 16q-28 81 -73 92q-2 0 -6.5 1.5t-6.5 1.5q-35 0 -66.5 -28.5t-54 -75t-36 -82.5t-23.5 -73q-3 -9 3 -16.5t17 -7.5l99 8q21 0 24 -20q0 -22 -20 -25l-127 -8q-16 -4 -19 -17q-6 -30 -43 -223q-1 -7 3 -13.5t12 -8.5q18 -4 61 -19
q77 -28 137 -28q38 0 58 20q8 8 16 8h6q11 0 17 -10.5t0 -19.5q-7 -15 -21 -23q-26 -20 -78 -20q-60 0 -149 30q-49 16 -64 19q-12 0 -20 -11q-5 -10 -14 -16q-11 -8 -27 -8q-21 0 -37 16q-23 23 -8 49q11 20 45 23q14 0 18 14q13 58 17 88q8 37 24 119q2 9 -4.5 17t-15.5 8
l-33 -4q-10 0 -17 6t-7 14q0 22 20 25l59 4q13 0 17 14q84 318 231 318q17 0 25 -2q32 -9 57.5 -39.5t35 -53t9.5 -28.5q7 -22 -14 -29z" />
    <glyph glyph-name="yen" unicode="&#xa5;" horiz-adv-x="573" 
d="M35 182q0 9 6.5 16t15.5 7h109l18 78l-114 10q-9 0 -15 7.5t-6 16.5q2 9 9 14.5t16 4.5l121 -10v2q-37 24 -62.5 110t-34 163.5t-8.5 137.5q0 9 7 15t16 6t15.5 -6t6.5 -15q0 -90 21 -219.5t61 -152.5q15 -7 62 45q18 20 110 145q58 86 88.5 122t54.5 40q21 0 29 -6
q16 -16 2 -33q-5 -8 -16 -8q-6 0 -8 2q-11 -4 -41 -41q-2 -2 -74 -101q-71 -102 -113 -151q-45 -45 -71 -55v-2l135 -13q9 0 14.5 -7t5.5 -15q-3 -21 -22 -21h-2l-142 11l-18 -74h92q9 0 16 -7t7 -16t-7 -15.5t-16 -6.5h-102l-49 -201q-1 -6 -8 -11t-13 -5q-4 0 -6 2
q-9 1 -13.5 9t-2.5 17l47 189h-99q-9 0 -15.5 6.5t-6.5 15.5z" />
    <glyph glyph-name="brokenbar" unicode="&#xa6;" horiz-adv-x="163" 
d="M109 504q9 -2 14 -9t4 -16l-18 -184q-4 -19 -23 -19q-10 0 -16.5 7.5t-6.5 17.5l21 182q2 9 9 15.5t16 5.5zM74 166q9 0 14.5 -7t5.5 -16l-18 -170q0 -9 -7 -14.5t-16 -5.5q-9 2 -15 8.5t-5 15.5l16 170q2 9 9 14.5t16 4.5z" />
    <glyph glyph-name="section" unicode="&#xa7;" horiz-adv-x="360" 
d="M354 537q10 -19 -10 -31q-1 0 -4 -1t-4 -1q-16 0 -23 14q-8 19 -25.5 41t-37.5 25q-23 3 -51 -33q-11 -15 -13.5 -32t4 -38.5t15.5 -41t26 -48.5q11 -20 16 -29.5t12.5 -26t9.5 -27t2.5 -24t-3.5 -24.5q-10 -31 -47 -43q-37 -15 -65 -18q-2 0 -2.5 -2.5t0.5 -3.5
q7 -14 8 -17l13.5 -24t11.5 -22t10 -23t6 -20.5t2 -21t-4 -18.5q-13 -31 -49 -43q-50 -20 -84 -20q-29 0 -43 14q-12 9 -15 22q-1 4 2 8.5t8 4.5l29 -2q4 0 6 -2q84 0 105 32q-1 9 1 9.5t-2 11.5t-4.5 13.5t-6.5 14t-8 15t-8.5 16t-8.5 15.5q-15 27 -31 59q-42 92 2 150
q35 43 70 49q2 0 2 4q-48 102 -2 160q40 49 90 49q58 -6 100 -90zM195 365q-9 6 -19 6q-23 0 -47 -33q-26 -36 0 -94l2 -2q23 0 57.5 9.5t38.5 22.5q7 22 -32 91z" />
    <glyph glyph-name="dieresis" unicode="&#xa8;" horiz-adv-x="153" 
d="M123 338q4 4 10 4q2 0 5 -1t5 -1q11 -7 11 -18q-5 -29 -17 -37q-8 -4 -12 -4q-1 0 -4 1t-4 1q-12 6 -15 18q-3 16 21 37zM20 338q8 4 13 4q1 0 4 -1t4 -1q10 -7 10 -18q0 -26 -14 -37q-8 -4 -12 -4q-2 0 -5.5 1t-5.5 1q-11 5 -14 18q0 17 20 37z" />
    <glyph glyph-name="copyright" unicode="&#xa9;" horiz-adv-x="657" 
d="M500 244q4 2 10 2q13 0 20 -10q4 -8 2 -17t-10 -14q-185 -103 -280 -103q-35 0 -66 17q-52 28 -49 108q0 78 39 142q57 82 121 82q19 0 30 -11q22 -22 11 -57q-6 -16 -21 -16q-1 0 -3 1t-3 1q-21 4 -14 26q4 11 0 11q-9 4 -33 -11q-35 -21 -59.5 -64.5t-24.5 -103.5
q0 -42 16.5 -61t55.5 -19q90 0 258 97zM326 516q116 0 202 -62t95 -175q7 -87 -43 -158q-35 -53 -98 -87t-138 -34q-94 0 -187.5 51t-115.5 133q-24 94 63 213q40 52 98 83t124 36zM543 145q24 36 33.5 77.5t-5 91.5t-57.5 92q-39 39 -82 53t-104 14q-116 -9 -187 -102
q-75 -101 -57 -176q16 -64 101 -108t159 -44q63 0 115.5 28.5t83.5 73.5z" />
    <glyph glyph-name="ordfeminine" unicode="&#xaa;" horiz-adv-x="425" 
d="M377 526q4 4 10 4t12 -6q5 -4 4.5 -11.5t-6.5 -10.5q-119 -107 -182 -107q-15 0 -27 6q-15 6 -28 33q-60 -45 -99 -45q-6 0 -18 4q-22 9 -25 35q-2 26 13.5 55.5t38.5 44.5q27 19 61 19q42 0 78 -27q9 -9 2 -24q-7 -7 -14 -7q-1 0 -11 5q-20 20 -57 20q-24 0 -41 -12
q-16 -11 -27.5 -33.5t-9.5 -36.5l4 -8q1 0 3.5 -1t4.5 -1q30 0 99 55q8 4 10 4t4.5 -1t3.5 -1q10 -7 10 -16q-1 -25 13 -33q1 0 4.5 -1t5.5 -1q50 0 164 98z" />
    <glyph glyph-name="guillemotleft" unicode="&#xab;" horiz-adv-x="432" 
d="M184 123q-2 9 4 18t13 14t20 13q41 20 64 29q18 7 41.5 16t36 14t12.5 6h6q16 0 22 -14q3 -8 -1 -17t-13 -12q-101 -36 -151 -65q40 -29 141 -84q17 -10 10 -31q-7 -10 -20 -10q-7 0 -11 2l-82 45q-38 23 -59.5 39t-26.5 23t-6 14zM31 123q-2 9 4 18t13 14t20 13
q44 22 63 29q18 7 41.5 16t36 14t12.5 6h6q17 0 23 -14q3 -8 -1 -17t-13 -12q-104 -36 -152 -65q40 -29 141 -84q18 -11 11 -31q-7 -10 -21 -10q-6 0 -10 2l-82 45q-38 23 -59.5 39t-26.5 23t-6 14z" />
    <glyph glyph-name="registered" unicode="&#xae;" horiz-adv-x="659" 
d="M326 516q117 0 203.5 -61.5t95.5 -175.5q6 -83 -43 -158q-37 -54 -99 -87.5t-137 -33.5q-58 0 -121.5 21t-116 64.5t-65.5 98.5q-25 97 63 213q83 109 220 119zM285 326q23 0 55.5 22t38.5 43q5 10 -10 19h-4h-5q-25 -5 -73 -74zM545 145q23 36 32 77.5t-5 92t-56 91.5
q-67 67 -186 67q-30 -4 -45 -8q18 -4 14 -23l-2 -24q29 29 53 35q6 2 17 2q14 0 26 -9q49 -31 23 -81q-15 -34 -64 -62q-2 -1 -11 -6.5t-15 -7.5q16 -21 49 -58q32 -33 56 -51t32.5 -20t11.5 0q5 0 10 14q6 16 25 16h4q21 -7 14 -28q-11 -37 -45 -47q-51 0 -107 51t-95 110
l-21 -170q-4 -18 -22 -18q-10 0 -16.5 7.5t-6.5 17.5l25 200q-11 15 -2 27q2 4 6 10l12 96q0 7 4 11q-69 -24 -119 -86q-75 -101 -57 -176q19 -64 103 -108t159 -44q63 0 115.5 28.5t83.5 73.5z" />
    <glyph glyph-name="degree" unicode="&#xb0;" horiz-adv-x="139" 
d="M111 621q17 -25 -13 -68q-19 -29 -47 -29q-8 0 -10 2q-22 5 -27 23q-3 19 21 53q4 7 10 14l9 10.5t3 4.5q2 2 6 2q6 2 19 2q22 0 29 -14zM82 565q18 28 10 43q-3 6 -12 6q-2 0 -4.5 -1t-3.5 -1q-41 -41 -35 -59q2 -4 8 -6h4q15 0 33 18z" />
    <glyph glyph-name="plusminus" unicode="&#xb1;" horiz-adv-x="290" 
d="M39 377q0 7 5.5 12.5t12.5 5.5h74l6 82q2 8 8 13t13 4q5 0 12 -7q4 -8 4 -12l-8 -80h72q16 0 16 -18q0 -19 -16 -19h-74l-8 -82q-3 -16 -19 -16h-2q-6 0 -11 6.5t-5 12.5l8 79h-70q-7 0 -12.5 5.5t-5.5 13.5zM45 233q0 8 5.5 13.5t12.5 5.5l146 6q18 0 18 -16
q0 -11 -4 -13q-3 -6 -12 -6l-145 -6h-3q-15 0 -18 16z" />
    <glyph glyph-name="twosuperior" unicode="&#xb2;" horiz-adv-x="169" 
d="M158 553q10 -10 2 -21q-4 -4 -13 -4q-6 0 -8 2q-4 2 -16 2q-23 0 -43 -6l-53 -14h-7q-7 0 -10 6q-8 8 0 17q91 102 125 172l-5 1q-4 1 -9 1q-11 0 -17 -2l-30 -11h-6q-10 0 -13 9q-4 12 8 18q42 14 60 14q12 0 24 -6q13 -8 15 -18q5 -13 -19 -51q-44 -71 -82 -109
q9 0 13 2q27 8 49 8q20 0 35 -10z" />
    <glyph glyph-name="threesuperior" unicode="&#xb3;" horiz-adv-x="176" 
d="M158 571q-4 -21 -23 -35t-44.5 -19.5t-40 -7t-25.5 -1.5q-6 0 -10.5 3.5t-4.5 8.5q0 6 4.5 10.5t10.5 4.5q29 0 65 10.5t41 32.5q0 10 -4 14q-15 20 -74 26q-10 0 -14 13q0 13 10 16q28 9 55 23q48 22 48 39q-4 4 -17 4q-39 0 -78 -17q-4 -1 -9 1.5t-7 7.5q-7 14 8 18
q45 18 86 18q19 0 31 -6q11 -8 14 -24q0 -40 -76 -74q35 -13 46 -29q11 -14 8 -37z" />
    <glyph glyph-name="acute" unicode="&#xb4;" horiz-adv-x="75" 
d="M10 285q-7 3 -9 10.5t1 13.5q2 5 7.5 12t18.5 16.5t27 10.5q21 0 21 -16q0 -8 -5 -14.5t-12 -6.5q-12 -2 -24 -20q-7 -10 -17 -10q-4 0 -8 4z" />
    <glyph glyph-name="periodcentered" unicode="&#xb7;" horiz-adv-x="151" 
d="M72 279q29 0 39 -23q13 -22 -5 -47q-13 -19 -34 -19q-20 0 -31 17q-12 22 10 61q9 14 21 11z" />
    <glyph glyph-name="cedilla" unicode="&#xb8;" horiz-adv-x="178" 
d="M66 -4q65 -8 98 -49q21 -27 12 -60q-12 -64 -74 -86q-21 -6 -45 -6q-31 0 -49 15q-8 6 -8.5 15t6.5 15q8 8 19 8q6 0 12 -6q8 -4 20 -4q28 0 49 15.5t27 42.5q3 14 -4 24q-22 29 -98 37q-10 0 -17 10q-6 9 -2 21l43 92q6 12 21 12q6 0 10 -2q7 -3 10 -12.5t0 -16.5z" />
    <glyph glyph-name="onesuperior" unicode="&#xb9;" horiz-adv-x="149" 
d="M49 514q-13 3 -10 16l55 187l-33 -25q-2 -2 -6 -2q-8 0 -14 6q-8 11 4 19l66 49l8 4q4 0 8 -4q9 -6 6 -16l-65 -226q-3 -10 -15 -10q-2 0 -4 2z" />
    <glyph glyph-name="ordmasculine" unicode="&#xba;" horiz-adv-x="176" 
d="M143 621q9 -15 5 -33.5t-17 -34.5q-23 -29 -53 -29q-8 0 -12 2q-22 5 -27 23q-6 20 20 53q5 7 16.5 19t16.5 12q8 2 21 2q23 0 30 -14zM111 565q22 29 12 43q-3 6 -12 6q-2 0 -6 -1t-5 -1q-42 -42 -39 -59q1 0 2 -1t3.5 -2.5t5.5 -2.5q21 0 39 18z" />
    <glyph glyph-name="guillemotright" unicode="&#xbb;" horiz-adv-x="360" 
d="M143 14q-3 8 1.5 16t13.5 11q129 52 151 65q-39 31 -141 87q-17 10 -10 28q6 12 20 12q6 0 10 -2l82 -45q56 -33 73 -48.5t19 -26.5q5 -25 -36 -45t-64 -29l-90 -37h-6q-17 0 -23 14zM8 14q-3 8 1.5 16t13.5 11q129 52 151 65q-39 31 -141 87q-17 10 -10 28q6 12 20 12
q6 0 10 -2l82 -45q56 -33 73 -48.5t19 -26.5q5 -24 -37 -45q-44 -22 -63 -29l-90 -37h-6q-17 0 -23 14z" />
    <glyph glyph-name="questiondown" unicode="&#xbf;" horiz-adv-x="421" 
d="M41 -39q-15 67 39 156q49 83 102 121q37 25 64.5 70.5t37 73.5t9.5 34q3 16 22 16h4q9 -3 14 -10.5t3 -15.5l-2 -6q-1 -5 -3 -11.5t-5.5 -16.5t-8 -21t-10.5 -24t-13 -26t-16.5 -27t-19.5 -26.5t-22.5 -24.5t-26.5 -22q-49 -34 -92 -107.5t-33 -122.5q4 -28 29.5 -40.5
t56.5 -12.5t53 19q24 20 38 59.5t16 68.5l2 29q0 9 6.5 16t15.5 7t16 -6t7 -15q0 -53 -13.5 -101t-50 -85t-90.5 -37q-47 0 -84 22.5t-45 65.5zM356 475q-32 4 -41 25q-11 25 4 45q11 20 39 20q17 -3 27 -16q10 -20 -8 -62q-6 -12 -21 -12z" />
    <glyph glyph-name="Agrave" unicode="&#xc0;" 
d="M883 115q20 3 24 -19q2 -8 -3.5 -15.5t-14.5 -8.5l-90 -15l-72 -669q-2 -8 -9 -14t-16 -5q-9 2 -14 9t-4 16l70 655l-439 -74q-155 -339 -258 -680q-6 -16 -22 -16q-1 0 -3 1t-3 1q-8 3 -13 11.5t-2 15.5q100 326 248 659l-237 -39q-22 0 -25 19q-3 20 18 24l267 45
q77 171 172 353q102 191 201 350t161 237q12 15 33 15q10 0 16 -2q28 -14 25 -45l-88 -822zM336 25l424 69l88 828q-80 -103 -225 -347t-287 -550zM874 1034q-2 -2 -8 -2q-11 0 -16 8q-3 7 -11 14t-14 7q-7 0 -12 6.5t-4 13.5q0 8 6.5 13t13.5 4q14 -1 27 -10.5t19 -17
t8 -11.5q3 -6 0.5 -14t-9.5 -11z" />
    <glyph glyph-name="Aacute" unicode="&#xc1;" 
d="M883 115q20 3 24 -19q2 -8 -3.5 -15.5t-14.5 -8.5l-90 -15l-72 -669q-2 -8 -9 -14t-16 -5q-9 2 -14 9t-4 16l70 655l-439 -74q-155 -339 -258 -680q-6 -16 -22 -16q-1 0 -3 1t-3 1q-8 3 -13 11.5t-2 15.5q100 326 248 659l-237 -39q-22 0 -25 19q-3 20 18 24l267 45
q77 171 172 353q102 191 201 350t161 237q12 15 33 15q10 0 16 -2q28 -14 25 -45l-88 -822zM336 25l424 69l88 828q-80 -103 -225 -347t-287 -550zM862 1018q-7 3 -9 10.5t1 13.5q2 5 7.5 12t18.5 16.5t27 10.5q21 0 21 -16q0 -8 -5 -14.5t-12 -6.5q-12 -2 -24 -20
q-7 -10 -17 -10q-4 0 -8 4z" />
    <glyph glyph-name="Acircumflex" unicode="&#xc2;" 
d="M883 115q20 3 24 -19q2 -8 -3.5 -15.5t-14.5 -8.5l-90 -15l-72 -669q-2 -8 -9 -14t-16 -5q-9 2 -14 9t-4 16l70 655l-439 -74q-155 -339 -258 -680q-6 -16 -22 -16q-1 0 -3 1t-3 1q-8 3 -13 11.5t-2 15.5q100 326 248 659l-237 -39q-22 0 -25 19q-3 20 18 24l267 45
q77 171 172 353q102 191 201 350t161 237q12 15 33 15q10 0 16 -2q28 -14 25 -45l-88 -822zM336 25l424 69l88 828q-80 -103 -225 -347t-287 -550zM805 1006q-15 9 -4 24q40 59 69 64q13 0 21 -4q15 -12 49 -68q3 -6 1.5 -14t-7.5 -11q-4 -2 -10 -2q-11 0 -17 9
q-16 32 -35 51q-19 -14 -43 -45q-9 -9 -14 -9z" />
    <glyph glyph-name="Atilde" unicode="&#xc3;" 
d="M883 115q20 3 24 -19q2 -8 -3.5 -15.5t-14.5 -8.5l-90 -15l-72 -669q-2 -8 -9 -14t-16 -5q-9 2 -14 9t-4 16l70 655l-439 -74q-155 -339 -258 -680q-6 -16 -22 -16q-1 0 -3 1t-3 1q-8 3 -13 11.5t-2 15.5q100 326 248 659l-237 -39q-22 0 -25 19q-3 20 18 24l267 45
q77 171 172 353q102 191 201 350t161 237q12 15 33 15q10 0 16 -2q28 -14 25 -45l-88 -822zM336 25l424 69l88 828q-80 -103 -225 -347t-287 -550zM780 1006q-7 4 -9 12t3 14q24 33 64 33q18 0 34 -8q38 -17 56 -17q8 0 14 2t8 4l2 3q7 10 19 10q6 0 8 -2q15 -11 6 -27
q0 -2 -4.5 -7.5t-19 -12t-33.5 -6.5q-32 0 -72 18q-9 6 -18 6q-15 0 -33 -18q-5 -9 -14 -9q-6 0 -11 5z" />
    <glyph glyph-name="Adieresis" unicode="&#xc4;" 
d="M883 115q20 3 24 -19q2 -8 -3.5 -15.5t-14.5 -8.5l-90 -15l-72 -669q-2 -8 -9 -14t-16 -5q-9 2 -14 9t-4 16l70 655l-439 -74q-155 -339 -258 -680q-6 -16 -22 -16q-1 0 -3 1t-3 1q-8 3 -13 11.5t-2 15.5q100 326 248 659l-237 -39q-22 0 -25 19q-3 20 18 24l267 45
q77 171 172 353q102 191 201 350t161 237q12 15 33 15q10 0 16 -2q28 -14 25 -45l-88 -822zM336 25l424 69l88 828q-80 -103 -225 -347t-287 -550zM918 1061q4 4 10 4q2 0 5 -1t5 -1q10 -7 10 -19q-5 -28 -16 -36q-8 -4 -12 -4q-1 0 -4.5 1t-4.5 1q-11 5 -14 18q-3 16 21 37
zM815 1061q8 4 12 4q1 0 4.5 -1t4.5 -1q10 -7 10 -19q0 -24 -15 -36q-8 -4 -12 -4q-2 0 -5 1t-5 1q-11 5 -14 18q0 17 20 37z" />
    <glyph glyph-name="Aring" unicode="&#xc5;" 
d="M883 115q20 3 24 -19q2 -8 -3.5 -15.5t-14.5 -8.5l-90 -15l-72 -669q-2 -8 -9 -14t-16 -5q-9 2 -14 9t-4 16l70 655l-439 -74q-155 -339 -258 -680q-6 -16 -22 -16q-1 0 -3 1t-3 1q-8 3 -13 11.5t-2 15.5q100 326 248 659l-237 -39q-22 0 -25 19q-3 20 18 24l267 45
q77 171 172 353q102 191 201 350t161 237q12 15 33 15q10 0 16 -2q28 -14 25 -45l-88 -822zM336 25l424 69l88 828q-80 -103 -225 -347t-287 -550zM897 1032q12 -8 12 -18q0 -28 -16 -39q-8 -4 -14 -4q-22 0 -25 20q-3 16 20 39q4 4 11 4q8 0 12 -2zM887 1014q-4 0 -6 -2
q-9 -6 -9 -13q0 -1 5 -6h4h4q6 6 6 15q0 2 -4 6z" />
    <glyph glyph-name="AE" unicode="&#xc6;" horiz-adv-x="1933" 
d="M883 115q20 3 24 -19q2 -8 -3.5 -15.5t-14.5 -8.5l-90 -15l-72 -669q-2 -8 -9 -14t-16 -5q-9 2 -14 9t-4 16l70 655l-439 -74q-155 -339 -258 -680q-6 -16 -22 -16q-1 0 -3 1t-3 1q-8 3 -13 11.5t-2 15.5q100 326 248 659l-237 -39q-22 0 -25 19q-3 20 18 24l267 45
q77 171 172 353q102 191 201 350t161 237q12 15 33 15q10 0 16 -2q28 -14 25 -45l-88 -822zM336 25l424 69l88 828q-80 -103 -225 -347t-287 -550zM1937 119q5 8 17 8q9 0 14 -8q6 -6 6 -15.5t-6 -15.5q-14 -14 -61 -56.5t-157 -132.5t-212 -159q-293 -201 -487 -201
q-110 0 -181 68q-69 69 -51 155q44 218 703 519h-88q-139 0 -207 8q-156 14 -187 80q-19 39 7 94.5t102 142.5q97 110 244 161.5t311 51.5q36 0 69.5 -2t50 -4.5t17.5 -3.5q9 -2 14.5 -9t4.5 -16q-2 -9 -9 -14t-16 -4l-7 1q-6 1 -17.5 2t-26.5 2t-36 2t-42 1
q-156 0 -294 -47.5t-230 -151.5q-125 -139 -101 -188q31 -63 375 -63q119 0 180 2q20 0 23 -19q3 -17 -14 -24q-2 0 -53 -21t-144.5 -64t-177.5 -89q-378 -207 -408 -357q-12 -61 41 -114q56 -56 148 -56q173 0 462 195q63 43 130 93.5t117.5 93t91.5 78.5t63 56z" />
    <glyph glyph-name="Ccedilla" unicode="&#xc7;" horiz-adv-x="1193" 
d="M371 858q-86 -70 -155 -166.5t-116.5 -217.5t-53.5 -251t34 -268q21 -71 62 -136.5t96 -117.5t126.5 -83.5t145.5 -31.5q217 0 477 256q25 25 50 52t44.5 50.5t37.5 46t31.5 40t23 31t14.5 20.5l6 8q7 10 18 10q5 0 13 -4q7 -4 9 -13.5t-3 -16.5q-56 -84 -129 -166.5
t-161 -159t-188.5 -129.5t-193.5 -66q0 -6 -2 -8l-31 -65q65 -8 99 -50q20 -27 12 -59q-12 -64 -74 -86q-21 -6 -45 -6q-32 0 -49 14q-6 6 -7 15.5t5 15.5q8 8 18 8q7 0 13 -6q8 -4 20 -4q29 0 49.5 15t26.5 42q3 15 -4 25q-22 29 -98 37q-10 0 -17 10q-6 9 -2 20l37 80h-2
q-81 0 -158.5 33.5t-137.5 89.5t-105.5 127t-69.5 148q-84 272 22 551q32 81 88.5 169t129.5 169t165.5 133.5t180.5 52.5q53 0 98 -25q152 -81 115 -395q0 -8 -8 -13.5t-17 -4.5q-21 4 -18 24q15 146 -13 240q-40 129 -157 129q-115 0 -252 -113z" />
    <glyph glyph-name="Egrave" unicode="&#xc8;" horiz-adv-x="1118" 
d="M1122 119q5 8 17 8q9 0 14 -8q6 -6 6 -15.5t-6 -15.5q-14 -14 -61 -56.5t-157 -132.5t-212 -159q-293 -201 -487 -201q-110 0 -181 68q-69 69 -51 155q44 218 703 519h-89q-138 0 -206 8q-156 14 -187 80q-19 39 7 94.5t102 142.5q97 110 244 161.5t311 51.5
q36 0 69.5 -2t50 -4.5t17.5 -3.5q9 -2 14 -9t4 -16q-4 -21 -24 -18l-6 1q-7 1 -18.5 2t-26.5 2t-36 2t-42 1q-156 0 -294 -47.5t-230 -151.5q-125 -139 -101 -188q31 -63 375 -63q119 0 180 2q20 0 23 -19q3 -17 -15 -24q-2 0 -53 -21t-144 -64t-177 -89
q-378 -207 -408 -357q-12 -61 41 -114q56 -56 148 -56q173 0 462 195q63 43 130 93.5t117.5 93t91.5 78.5t63 56zM766 866q-2 -2 -8 -2q-12 0 -17 8q-11 21 -24 21q-8 0 -13 6.5t-4 13.5q0 8 7 13t14 4q14 -1 27 -10.5t18.5 -16.5t7.5 -12q3 -6 1 -14t-9 -11z" />
    <glyph glyph-name="Eacute" unicode="&#xc9;" horiz-adv-x="1118" 
d="M1122 119q5 8 17 8q9 0 14 -8q6 -6 6 -15.5t-6 -15.5q-14 -14 -61 -56.5t-157 -132.5t-212 -159q-293 -201 -487 -201q-110 0 -181 68q-69 69 -51 155q44 218 703 519h-89q-138 0 -206 8q-156 14 -187 80q-19 39 7 94.5t102 142.5q97 110 244 161.5t311 51.5
q36 0 69.5 -2t50 -4.5t17.5 -3.5q9 -2 14 -9t4 -16q-4 -21 -24 -18l-6 1q-7 1 -18.5 2t-26.5 2t-36 2t-42 1q-156 0 -294 -47.5t-230 -151.5q-125 -139 -101 -188q31 -63 375 -63q119 0 180 2q20 0 23 -19q3 -17 -15 -24q-2 0 -53 -21t-144 -64t-177 -89
q-378 -207 -408 -357q-12 -61 41 -114q56 -56 148 -56q173 0 462 195q63 43 130 93.5t117.5 93t91.5 78.5t63 56zM692 862q-7 3 -9 11t1 14q2 5 7.5 12t18.5 16.5t27 10.5q8 0 14.5 -5t6.5 -12q0 -8 -5 -14t-12 -6q-12 -2 -24 -21q-7 -10 -17 -10q-4 0 -8 4z" />
    <glyph glyph-name="Ecircumflex" unicode="&#xca;" horiz-adv-x="1118" 
d="M1122 119q5 8 17 8q9 0 14 -8q6 -6 6 -15.5t-6 -15.5q-14 -14 -61 -56.5t-157 -132.5t-212 -159q-293 -201 -487 -201q-110 0 -181 68q-69 69 -51 155q44 218 703 519h-89q-138 0 -206 8q-156 14 -187 80q-19 39 7 94.5t102 142.5q97 110 244 161.5t311 51.5
q36 0 69.5 -2t50 -4.5t17.5 -3.5q9 -2 14 -9t4 -16q-4 -21 -24 -18l-6 1q-7 1 -18.5 2t-26.5 2t-36 2t-42 1q-156 0 -294 -47.5t-230 -151.5q-125 -139 -101 -188q31 -63 375 -63q119 0 180 2q20 0 23 -19q3 -17 -15 -24q-2 0 -53 -21t-144 -64t-177 -89
q-378 -207 -408 -357q-12 -61 41 -114q56 -56 148 -56q173 0 462 195q63 43 130 93.5t117.5 93t91.5 78.5t63 56zM655 856q-16 9 -4 25q39 58 70 63q12 0 20 -4q17 -13 50 -68q8 -16 -7 -24q-4 -2 -10 -2q-11 0 -16 8q-16 32 -35 51q-19 -14 -43 -45q-8 -8 -14 -8
q-3 0 -11 4z" />
    <glyph glyph-name="Edieresis" unicode="&#xcb;" horiz-adv-x="1118" 
d="M1122 119q5 8 17 8q9 0 14 -8q6 -6 6 -15.5t-6 -15.5q-14 -14 -61 -56.5t-157 -132.5t-212 -159q-293 -201 -487 -201q-110 0 -181 68q-69 69 -51 155q44 218 703 519h-89q-138 0 -206 8q-156 14 -187 80q-19 39 7 94.5t102 142.5q97 110 244 161.5t311 51.5
q36 0 69.5 -2t50 -4.5t17.5 -3.5q9 -2 14 -9t4 -16q-4 -21 -24 -18l-6 1q-7 1 -18.5 2t-26.5 2t-36 2t-42 1q-156 0 -294 -47.5t-230 -151.5q-125 -139 -101 -188q31 -63 375 -63q119 0 180 2q20 0 23 -19q3 -17 -15 -24q-2 0 -53 -21t-144 -64t-177 -89
q-378 -207 -408 -357q-12 -61 41 -114q56 -56 148 -56q173 0 462 195q63 43 130 93.5t117.5 93t91.5 78.5t63 56zM684 913q5 5 10 5q2 0 5.5 -1.5t5.5 -1.5q10 -7 10 -18q-5 -29 -17 -37q-8 -4 -12 -4q-1 0 -4 1t-4 1q-11 5 -14 19q-3 16 20 36zM582 913q10 5 12 5
q1 0 4 -1.5t4 -1.5q10 -7 10 -18q0 -26 -14 -37q-8 -4 -12 -4q-2 0 -5.5 1t-5.5 1q-11 5 -14 19q0 15 21 36z" />
    <glyph glyph-name="Igrave" unicode="&#xcc;" horiz-adv-x="352" 
d="M326 1024q34 -24 28 -96v-2l-174 -1516q-4 -20 -22 -20q0 2 -2 2q-9 0 -15 7.5t-4 16.5l174 1514q2 55 -10 55q-1 0 -3 1t-3 1q-33 0 -87 -66t-85 -118q-83 -150 -80 -273q1 -9 -5 -15.5t-15 -6.5q-9 -1 -16 5t-7 15q-2 70 22 150t62.5 146.5t82.5 118t83 73.5
q24 16 47 16q17 0 29 -8zM315 1090q-3 -3 -8 -3q-10 0 -16 9q-3 6 -11 13t-14 7q-7 0 -12.5 6.5t-3.5 14.5q0 7 6 12t14 4q14 -1 27 -10.5t19 -17t8 -11.5q8 -17 -9 -24z" />
    <glyph glyph-name="Iacute" unicode="&#xcd;" horiz-adv-x="352" 
d="M326 1024q34 -24 28 -96v-2l-174 -1516q-4 -20 -22 -20q0 2 -2 2q-9 0 -15 7.5t-4 16.5l174 1514q2 55 -10 55q-1 0 -3 1t-3 1q-33 0 -87 -66t-85 -118q-83 -150 -80 -273q1 -9 -5 -15.5t-15 -6.5q-9 -1 -16 5t-7 15q-2 70 22 150t62.5 146.5t82.5 118t83 73.5
q24 16 47 16q17 0 29 -8zM260 1092q-7 3 -9 10.5t1 13.5q2 5 7.5 12t18.5 16.5t27 10.5q21 0 21 -16q0 -8 -5 -14.5t-12 -6.5q-12 -2 -24 -20q-7 -11 -17 -11q-3 0 -8 5z" />
    <glyph glyph-name="Icircumflex" unicode="&#xce;" horiz-adv-x="352" 
d="M326 1024q34 -24 28 -96v-2l-174 -1516q-4 -20 -22 -20q0 2 -2 2q-9 0 -15 7.5t-4 16.5l174 1514q2 55 -10 55q-1 0 -3 1t-3 1q-33 0 -87 -66t-85 -118q-83 -150 -80 -273q1 -9 -5 -15.5t-15 -6.5q-9 -1 -16 5t-7 15q-2 70 22 150t62.5 146.5t82.5 118t83 73.5
q24 16 47 16q17 0 29 -8zM205 1061q-15 9 -4 24q40 59 69 64q13 0 21 -4q15 -12 49 -68q8 -17 -6 -24q-4 -2 -10 -2q-12 0 -17 8q-16 32 -35 51q-19 -14 -43 -45q-8 -8 -14 -8q-2 0 -10 4z" />
    <glyph glyph-name="Idieresis" unicode="&#xcf;" horiz-adv-x="352" 
d="M326 1024q34 -24 28 -96v-2l-174 -1516q-4 -20 -22 -20q0 2 -2 2q-9 0 -15 7.5t-4 16.5l174 1514q2 55 -10 55q-1 0 -3 1t-3 1q-33 0 -87 -66t-85 -118q-83 -150 -80 -273q1 -9 -5 -15.5t-15 -6.5q-9 -1 -16 5t-7 15q-2 70 22 150t62.5 146.5t82.5 118t83 73.5
q24 16 47 16q17 0 29 -8zM307 1124q4 4 10 4q2 0 5.5 -1t5.5 -1q10 -7 10 -18q-5 -30 -16 -37q-8 -4 -13 -4q-1 0 -4 1t-4 1q-11 5 -14 18q-3 17 20 37zM205 1124q8 4 12 4q1 0 4 -1t4 -1q11 -7 11 -18q0 -25 -15 -37q-8 -4 -12 -4q-2 0 -5 1t-5 1q-12 6 -15 18q0 16 21 37z
" />
    <glyph glyph-name="Eth" unicode="&#xd0;" horiz-adv-x="1406" 
d="M0 -358q-9 92 121 180q81 54 178 102l107 926q-51 -24 -125 -76q-34 -25 -66.5 -52.5t-54 -49.5t-37.5 -41t-25 -29l-8 -10q-7 -10 -18 -10q-5 0 -13 4q-17 13 -4 30q3 6 22.5 30.5t68.5 73t106 89.5q107 79 233.5 121.5t257.5 42.5q98 0 198 -26t189 -74t158 -125.5
t98 -172.5q49 -151 -22 -319q-76 -178 -289 -354q-89 -73 -184.5 -137t-207 -124t-230.5 -95t-224 -35q-35 0 -70.5 6t-71.5 20t-60 41t-27 64zM145 -215q-108 -73 -102 -139q4 -27 24.5 -46t51 -28t57.5 -12.5t53 -3.5q101 0 216 34.5t223.5 92.5t201 121t177.5 133
q190 155 266.5 316.5t32.5 309.5q-27 89 -92.5 161t-150.5 115t-178 66t-186 23q-150 0 -295 -60q7 -10 7 -18l-105 -903q103 47 223 84t205 37q8 0 15 -6t8 -15q0 -9 -7 -15.5t-16 -6.5q-183 -11 -434 -129l-31 -273q0 -7 -6 -12.5t-14 -5.5h-4q-22 4 -19 24l27 244
q-67 -36 -148 -88z" />
    <glyph glyph-name="Ntilde" unicode="&#xd1;" horiz-adv-x="1216" 
d="M1169 913q3 -9 11 -48.5t18 -128.5t12 -179q3 -193 -28 -332q-70 -341 -262 -467q-60 -45 -117 -45q-127 0 -178 254q-21 97 -47 389q-20 241 -37 328q-24 141 -70 160q-2 2 -10 2q-11 0 -17 -4q-117 -65 -272 -744q-34 -151 -66 -319.5t-47.5 -259t-15.5 -94.5
q-3 -19 -25 -19q-9 2 -14 9t-4 16q0 5 15.5 96.5t47.5 260t66 321.5q75 320 133 489q85 241 162 283q20 10 35 10q16 0 28 -6q35 -15 58.5 -61t40.5 -132q19 -108 37 -332q20 -260 45 -383q38 -180 102 -210q22 -9 33 -9q51 0 111.5 50t97.5 104q159 246 155 645
q-1 40 -3.5 81t-6.5 74t-8 63t-8 53t-7.5 40t-5.5 26l-2 9q-3 9 2.5 17t14.5 10q1 0 3 1t3 1q12 0 20 -19zM580 975q-18 11 -7 26q24 33 64 33q19 0 35 -8q36 -16 55 -16q8 0 14 2t9 4l2 2q7 10 18 10q6 0 8 -2q15 -11 6 -27q0 -2 -4.5 -7.5t-19 -12t-33.5 -6.5
q-32 0 -72 18q-9 6 -18 6q-15 0 -33 -18q-4 -8 -14 -8q-6 0 -10 4z" />
    <glyph glyph-name="Ograve" unicode="&#xd2;" horiz-adv-x="1007" 
d="M475 1026q90 -7 170 -58t136.5 -128t95 -162t57.5 -172q57 -244 -47 -533q-33 -90 -81.5 -174t-112.5 -162.5t-148 -133.5t-174 -72q-38 -9 -76 -9q-60 0 -121.5 19.5t-103.5 56.5q-87 84 -66 246q18 121 98 289q5 9 27 53q-2 9 -9.5 35t-10.5 43q-39 142 -39 289
q0 72 12 147t41 153t71 138t108 98.5t147 38.5q4 0 13 -1t13 -1zM565 -426q186 151 282 421.5t44 500.5q-44 202 -162 337.5t-258 147.5q-111 0 -182.5 -56.5t-116.5 -164.5q-104 -252 -22 -586q2 -6 5 -17.5t5 -17.5q35 63 73.5 123t60.5 90.5t23 30.5q5 8 17 8q10 0 14 -4
q6 -5 7 -14t-3 -17q-2 0 -26.5 -35t-67.5 -103t-80 -136q10 -32 22 -62.5t21.5 -51.5t17.5 -37.5t13 -25.5l4 -9q4 -8 2 -17t-10 -14q-4 -2 -10 -2q-15 0 -21 12q-1 1 -10 18.5t-25 55.5t-32 80q-1 -3 -7 -15q-176 -361 -43 -483q20 -20 47 -31q71 -35 150 -35
q133 0 268 109zM520 1083q-2 -2 -8 -2q-10 0 -16 9q-3 6 -11 13t-14 7q-7 0 -12 6t-4 14q0 8 6.5 13t13.5 4q14 -1 27 -10.5t18.5 -16.5t7.5 -12q3 -6 1 -14t-9 -11z" />
    <glyph glyph-name="Oacute" unicode="&#xd3;" horiz-adv-x="1007" 
d="M475 1026q90 -7 170 -58t136.5 -128t95 -162t57.5 -172q57 -244 -47 -533q-33 -90 -81.5 -174t-112.5 -162.5t-148 -133.5t-174 -72q-38 -9 -76 -9q-60 0 -121.5 19.5t-103.5 56.5q-87 84 -66 246q18 121 98 289q5 9 27 53q-2 9 -9.5 35t-10.5 43q-39 142 -39 289
q0 72 12 147t41 153t71 138t108 98.5t147 38.5q4 0 13 -1t13 -1zM565 -426q186 151 282 421.5t44 500.5q-44 202 -162 337.5t-258 147.5q-111 0 -182.5 -56.5t-116.5 -164.5q-104 -252 -22 -586q2 -6 5 -17.5t5 -17.5q35 63 73.5 123t60.5 90.5t23 30.5q5 8 17 8q10 0 14 -4
q6 -5 7 -14t-3 -17q-2 0 -26.5 -35t-67.5 -103t-80 -136q10 -32 22 -62.5t21.5 -51.5t17.5 -37.5t13 -25.5l4 -9q4 -8 2 -17t-10 -14q-4 -2 -10 -2q-15 0 -21 12q-1 1 -10 18.5t-25 55.5t-32 80q-1 -3 -7 -15q-176 -361 -43 -483q20 -20 47 -31q71 -35 150 -35
q133 0 268 109zM471 1075q-7 3 -9 11t1 14q2 5 7.5 12t18.5 16.5t27 10.5q8 0 14.5 -5t6.5 -12q0 -8 -5 -14t-12 -6q-12 -2 -24 -21q-7 -10 -17 -10q-4 0 -8 4z" />
    <glyph glyph-name="Ocircumflex" unicode="&#xd4;" horiz-adv-x="1007" 
d="M475 1026q90 -7 170 -58t136.5 -128t95 -162t57.5 -172q57 -244 -47 -533q-33 -90 -81.5 -174t-112.5 -162.5t-148 -133.5t-174 -72q-38 -9 -76 -9q-60 0 -121.5 19.5t-103.5 56.5q-87 84 -66 246q18 121 98 289q5 9 27 53q-2 9 -9.5 35t-10.5 43q-39 142 -39 289
q0 72 12 147t41 153t71 138t108 98.5t147 38.5q4 0 13 -1t13 -1zM565 -426q186 151 282 421.5t44 500.5q-44 202 -162 337.5t-258 147.5q-111 0 -182.5 -56.5t-116.5 -164.5q-104 -252 -22 -586q2 -6 5 -17.5t5 -17.5q35 63 73.5 123t60.5 90.5t23 30.5q5 8 17 8q10 0 14 -4
q6 -5 7 -14t-3 -17q-2 0 -26.5 -35t-67.5 -103t-80 -136q10 -32 22 -62.5t21.5 -51.5t17.5 -37.5t13 -25.5l4 -9q4 -8 2 -17t-10 -14q-4 -2 -10 -2q-15 0 -21 12q-1 1 -10 18.5t-25 55.5t-32 80q-1 -3 -7 -15q-176 -361 -43 -483q20 -20 47 -31q71 -35 150 -35
q133 0 268 109zM412 1069q-16 9 -4 25q39 58 69 63q13 0 21 -4q15 -12 49 -68q8 -17 -6 -24q-4 -2 -11 -2q-11 0 -16 8q-16 32 -35 51q-19 -14 -43 -45q-8 -8 -14 -8q-2 0 -10 4z" />
    <glyph glyph-name="Otilde" unicode="&#xd5;" horiz-adv-x="1007" 
d="M475 1026q90 -7 170 -58t136.5 -128t95 -162t57.5 -172q57 -244 -47 -533q-33 -90 -81.5 -174t-112.5 -162.5t-148 -133.5t-174 -72q-38 -9 -76 -9q-60 0 -121.5 19.5t-103.5 56.5q-87 84 -66 246q18 121 98 289q5 9 27 53q-2 9 -9.5 35t-10.5 43q-39 142 -39 289
q0 72 12 147t41 153t71 138t108 98.5t147 38.5q4 0 13 -1t13 -1zM565 -426q186 151 282 421.5t44 500.5q-44 202 -162 337.5t-258 147.5q-111 0 -182.5 -56.5t-116.5 -164.5q-104 -252 -22 -586q2 -6 5 -17.5t5 -17.5q35 63 73.5 123t60.5 90.5t23 30.5q5 8 17 8q10 0 14 -4
q6 -5 7 -14t-3 -17q-2 0 -26.5 -35t-67.5 -103t-80 -136q10 -32 22 -62.5t21.5 -51.5t17.5 -37.5t13 -25.5l4 -9q4 -8 2 -17t-10 -14q-4 -2 -10 -2q-15 0 -21 12q-1 1 -10 18.5t-25 55.5t-32 80q-1 -3 -7 -15q-176 -361 -43 -483q20 -20 47 -31q71 -35 150 -35
q133 0 268 109zM401 1073q-7 4 -9 12.5t3 14.5q24 33 64 33q17 0 35 -9q36 -16 55 -16q8 0 14 2t8 4l2 2q7 10 19 10q6 0 8 -2q15 -11 6 -26q0 -2 -4.5 -8t-19 -12.5t-33.5 -6.5q-30 0 -72 19q-9 6 -18 6q-5 0 -9.5 -1.5t-7.5 -3t-6 -4t-5 -4.5t-3 -4l-2 -2q-4 -8 -14 -8
q-7 0 -11 4z" />
    <glyph glyph-name="Odieresis" unicode="&#xd6;" horiz-adv-x="1007" 
d="M475 1026q90 -7 170 -58t136.5 -128t95 -162t57.5 -172q57 -244 -47 -533q-33 -90 -81.5 -174t-112.5 -162.5t-148 -133.5t-174 -72q-38 -9 -76 -9q-60 0 -121.5 19.5t-103.5 56.5q-87 84 -66 246q18 121 98 289q5 9 27 53q-2 9 -9.5 35t-10.5 43q-39 142 -39 289
q0 72 12 147t41 153t71 138t108 98.5t147 38.5q4 0 13 -1t13 -1zM565 -426q186 151 282 421.5t44 500.5q-44 202 -162 337.5t-258 147.5q-111 0 -182.5 -56.5t-116.5 -164.5q-104 -252 -22 -586q2 -6 5 -17.5t5 -17.5q35 63 73.5 123t60.5 90.5t23 30.5q5 8 17 8q10 0 14 -4
q6 -5 7 -14t-3 -17q-2 0 -26.5 -35t-67.5 -103t-80 -136q10 -32 22 -62.5t21.5 -51.5t17.5 -37.5t13 -25.5l4 -9q4 -8 2 -17t-10 -14q-4 -2 -10 -2q-15 0 -21 12q-1 1 -10 18.5t-25 55.5t-32 80q-1 -3 -7 -15q-176 -361 -43 -483q20 -20 47 -31q71 -35 150 -35
q133 0 268 109zM543 1122q4 4 10 4q2 0 5 -1t5 -1q10 -7 10 -18q-5 -30 -16 -37q-8 -4 -12 -4q-1 0 -4 1t-4 1q-12 6 -15 18q-3 16 21 37zM440 1122q8 4 13 4q1 0 4 -1t4 -1q10 -7 10 -18q0 -26 -14 -37q-8 -4 -13 -4q-2 0 -5 1t-5 1q-11 5 -14 18q0 17 20 37z" />
    <glyph glyph-name="multiply" unicode="&#xd7;" horiz-adv-x="366" 
d="M287 201q12 -20 -4 -33q-8 -4 -13 -4q-13 0 -18 8l-74 88l-106 -72q-8 -4 -13 -4q-7 0 -18 11q-5 7 -3 16.5t9 13.5l105 70l-70 84q-6 8 -5 17t7 14q6 6 16 6t15 -8l73 -89l107 72q4 4 12 4q11 0 19 -8q5 -7 2.5 -17t-9.5 -14l-104 -71z" />
    <glyph glyph-name="Oslash" unicode="&#xd8;" horiz-adv-x="1007" 
d="M475 1026q90 -7 170 -58t136.5 -128t95 -162t57.5 -172q57 -244 -47 -533q-33 -90 -81.5 -174t-112.5 -162.5t-148 -133.5t-174 -72q-38 -9 -76 -9q-60 0 -121.5 19.5t-103.5 56.5q-87 84 -66 246q18 121 98 289q5 9 27 53q-2 9 -9.5 35t-10.5 43q-39 142 -39 289
q0 72 12 147t41 153t71 138t108 98.5t147 38.5q4 0 13 -1t13 -1zM565 -426q186 151 282 421.5t44 500.5q-44 202 -162 337.5t-258 147.5q-111 0 -182.5 -56.5t-116.5 -164.5q-104 -252 -22 -586q2 -6 5 -17.5t5 -17.5q35 63 73.5 123t60.5 90.5t23 30.5q5 8 17 8q10 0 14 -4
q6 -5 7 -14t-3 -17q-2 0 -26.5 -35t-67.5 -103t-80 -136q10 -32 22 -62.5t21.5 -51.5t17.5 -37.5t13 -25.5l4 -9q4 -8 2 -17t-10 -14q-4 -2 -10 -2q-15 0 -21 12q-1 1 -10 18.5t-25 55.5t-32 80q-1 -3 -7 -15q-176 -361 -43 -483q20 -20 47 -31q71 -35 150 -35
q133 0 268 109zM348 27l213 741q8 16 21 16q1 0 3 -1t3 -1q20 -7 16 -26l-215 -742q-4 -18 -22 -14h-5q-9 3 -13 11t-1 16z" />
    <glyph glyph-name="Ugrave" unicode="&#xd9;" horiz-adv-x="808" 
d="M741 934q9 2 17.5 -4t9.5 -15q29 -174 15 -397.5t-68 -419.5q-61 -230 -170 -381q-62 -87 -156 -156t-184 -69q-179 0 -203 365q-9 193 21 473q7 65 16.5 134t18.5 128t19 114.5t18 98.5t14.5 75.5t10.5 49.5l3 18q1 9 9.5 15t17.5 4q19 -6 16 -27l-7 -34
q-7 -33 -18.5 -93.5t-24 -133.5t-26.5 -168.5t-24 -184.5q-31 -285 -19 -465q2 -46 8.5 -90.5t21.5 -103t47.5 -94.5t78.5 -36q22 0 43 6q141 38 251 184.5t175 381.5q54 193 68 410.5t-17 387.5q-2 9 3.5 17.5t14.5 9.5zM485 1026q-2 -2 -8 -2q-11 0 -16 8q-3 7 -11 14
t-14 7q-8 0 -13 6.5t-3 13.5q0 8 6.5 13t13.5 4q14 -1 27 -10.5t19 -17t8 -11.5q3 -6 0.5 -14t-9.5 -11z" />
    <glyph glyph-name="Uacute" unicode="&#xda;" horiz-adv-x="808" 
d="M741 934q9 2 17.5 -4t9.5 -15q29 -174 15 -397.5t-68 -419.5q-61 -230 -170 -381q-62 -87 -156 -156t-184 -69q-179 0 -203 365q-9 193 21 473q7 65 16.5 134t18.5 128t19 114.5t18 98.5t14.5 75.5t10.5 49.5l3 18q1 9 9.5 15t17.5 4q19 -6 16 -27l-7 -34
q-7 -33 -18.5 -93.5t-24 -133.5t-26.5 -168.5t-24 -184.5q-31 -285 -19 -465q2 -46 8.5 -90.5t21.5 -103t47.5 -94.5t78.5 -36q22 0 43 6q141 38 251 184.5t175 381.5q54 193 68 410.5t-17 387.5q-2 9 3.5 17.5t14.5 9.5zM424 1024q-7 3 -9 11t1 14q2 4 7.5 11.5t18.5 16.5
t27 10q20 0 20 -16q0 -20 -16 -20q-12 -2 -24 -21q-7 -10 -17 -10q-4 0 -8 4z" />
    <glyph glyph-name="Ucircumflex" unicode="&#xdb;" horiz-adv-x="808" 
d="M741 934q9 2 17.5 -4t9.5 -15q29 -174 15 -397.5t-68 -419.5q-61 -230 -170 -381q-62 -87 -156 -156t-184 -69q-179 0 -203 365q-9 193 21 473q7 65 16.5 134t18.5 128t19 114.5t18 98.5t14.5 75.5t10.5 49.5l3 18q1 9 9.5 15t17.5 4q19 -6 16 -27l-7 -34
q-7 -33 -18.5 -93.5t-24 -133.5t-26.5 -168.5t-24 -184.5q-31 -285 -19 -465q2 -46 8.5 -90.5t21.5 -103t47.5 -94.5t78.5 -36q22 0 43 6q141 38 251 184.5t175 381.5q54 193 68 410.5t-17 387.5q-2 9 3.5 17.5t14.5 9.5zM393 1008q-15 9 -4 24q13 20 33.5 40.5t36.5 23.5
q12 0 20 -4q15 -12 49 -68q3 -6 1.5 -14t-7.5 -11q-4 -2 -10 -2q-10 0 -16 9q-16 32 -35 51q-19 -14 -43 -45q-8 -8 -15 -8q-2 0 -10 4z" />
    <glyph glyph-name="Udieresis" unicode="&#xdc;" horiz-adv-x="808" 
d="M741 934q9 2 17.5 -4t9.5 -15q29 -174 15 -397.5t-68 -419.5q-61 -230 -170 -381q-62 -87 -156 -156t-184 -69q-179 0 -203 365q-9 193 21 473q7 65 16.5 134t18.5 128t19 114.5t18 98.5t14.5 75.5t10.5 49.5l3 18q1 9 9.5 15t17.5 4q19 -6 16 -27l-7 -34
q-7 -33 -18.5 -93.5t-24 -133.5t-26.5 -168.5t-24 -184.5q-31 -285 -19 -465q2 -46 8.5 -90.5t21.5 -103t47.5 -94.5t78.5 -36q22 0 43 6q141 38 251 184.5t175 381.5q54 193 68 410.5t-17 387.5q-2 9 3.5 17.5t14.5 9.5zM510 1061q4 4 10 4q2 0 5 -1t5 -1q11 -7 11 -19
q-5 -28 -17 -36q-8 -4 -12 -4q-1 0 -4 1t-4 1q-12 6 -15 18q-3 16 21 37zM408 1061q8 4 12 4q1 0 4 -1t4 -1q10 -7 10 -19q0 -25 -14 -36q-8 -4 -12 -4q-2 0 -5.5 1t-5.5 1q-11 5 -14 18q0 16 21 37z" />
    <glyph glyph-name="Yacute" unicode="&#xdd;" horiz-adv-x="1214" 
d="M1307 238q9 0 16.5 -6t7.5 -15q3 -20 -18 -24q-5 0 -39 -5t-106.5 -21.5t-141.5 -39.5q-29 -235 -135 -446q-52 -109 -110.5 -188.5t-94.5 -102.5q-61 -33 -127 -33q-67 0 -104 37q-50 44 -47 131q0 94 65 233q40 93 121.5 173t172 131.5t194.5 89.5q4 1 12 4t12 4
q8 57 8 129q0 89 -8.5 173t-40.5 183.5t-84 151.5q-24 -87 -55 -169.5t-80.5 -178.5t-106.5 -169.5t-136.5 -129t-166.5 -70.5q-18 -4 -53 -4q-142 0 -219 112q-51 78 -42.5 181.5t75.5 205.5q55 85 102 140q8 8 19 8q6 0 12 -6q7 -6 7.5 -15.5t-5.5 -15.5q-47 -52 -98 -133
q-60 -91 -68 -182t35 -158q65 -94 182 -94q17 0 45 4q85 16 161.5 72.5t130.5 130t100.5 170t74.5 177.5t51 167q2 7 13 14q4 2 10 2t8 -2l12.5 -7.5t26.5 -23.5t35.5 -44t37 -70.5t34.5 -101t24 -138.5t10 -180q0 -39 -4 -113q42 13 85.5 24t75.5 17.5t58 11t40.5 7
t15.5 2.5zM852 -299q94 188 127 410h-4q-356 -134 -463 -371q-108 -240 -29 -313q30 -27 78 -27q50 0 103 29q27 15 81 88.5t107 183.5zM496 899q-7 3 -9.5 11t0.5 14q2 4 8 11.5t19 17t27 10.5q8 0 14 -5t6 -12q0 -20 -16 -20q-13 -3 -25 -21q-7 -10 -16 -10q-4 0 -8 4z
" />
    <glyph glyph-name="germandbls" unicode="&#xdf;" horiz-adv-x="563" 
d="M207 393q297 -36 313 -221q6 -88 -26.5 -155t-92.5 -89q-16 -8 -51 -8q-119 0 -241 164q-6 8 -5 17t9 14q4 4 14 4q11 0 16 -8q114 -148 207 -148q20 0 35 6q46 17 71 73t19 128q-3 50 -38.5 87.5t-78 54.5t-96 27t-75.5 11.5t-35 1.5q-17 0 -21 15q-6 15 8 26
q42 26 87 100.5t68.5 157.5t6.5 127q-14 33 -55 33q-13 0 -21 -2q-32 -6 -58.5 -36.5t-44.5 -81.5t-32 -107.5t-22 -129.5t-13 -130.5t-7 -128.5t-2.5 -105.5t-0.5 -77.5q0 -9 -6.5 -15.5t-15.5 -6.5q-19 0 -23 22q0 242 18 398q4 39 7.5 66t12.5 77.5t19.5 86.5t29 79
t40 70.5t53 46t68.5 18.5q74 0 94 -61q31 -81 -37 -240q-46 -105 -98 -160z" />
    <glyph glyph-name="agrave" unicode="&#xe0;" horiz-adv-x="579" 
d="M614 217q14 -15 -2 -31q-199 -172 -297 -172q-32 0 -54.5 18.5t-31.5 49.5q-107 -78 -163 -78q-28 0 -46.5 17t-19.5 45q-4 39 20.5 85.5t61.5 73.5q42 29 94 29q33 0 57 -8q19 -6 35.5 -15t24.5 -15t8 -7q7 -6 8 -15.5t-4 -15.5q-5 -8 -16 -8t-17 6q-3 3 -13.5 10
t-34.5 16t-48 9q-34 0 -70 -23q-28 -19 -46.5 -55.5t-16.5 -62.5q3 -21 23 -21q52 0 167 92q8 4 15 4q6 0 10 -2q13 -7 10 -22q-2 -46 27 -58q8 -4 22 -4q82 0 267 160q6 6 14 6q11 0 16 -8zM180 279q-3 -3 -8 -3q-10 0 -16 9q-3 6 -11 13t-14 7q-7 0 -12.5 6.5t-3.5 14.5
q0 8 6.5 13t13.5 3q14 -1 27 -10.5t18.5 -16.5t7.5 -12q3 -6 1 -13.5t-9 -10.5z" />
    <glyph glyph-name="aacute" unicode="&#xe1;" horiz-adv-x="579" 
d="M614 217q14 -15 -2 -31q-199 -172 -297 -172q-32 0 -54.5 18.5t-31.5 49.5q-107 -78 -163 -78q-28 0 -46.5 17t-19.5 45q-4 39 20.5 85.5t61.5 73.5q42 29 94 29q33 0 57 -8q19 -6 35.5 -15t24.5 -15t8 -7q7 -6 8 -15.5t-4 -15.5q-5 -8 -16 -8t-17 6q-3 3 -13.5 10
t-34.5 16t-48 9q-34 0 -70 -23q-28 -19 -46.5 -55.5t-16.5 -62.5q3 -21 23 -21q52 0 167 92q8 4 15 4q6 0 10 -2q13 -7 10 -22q-2 -46 27 -58q8 -4 22 -4q82 0 267 160q6 6 14 6q11 0 16 -8zM152 281q-7 3 -9.5 10.5t0.5 13.5q2 4 8 11.5t19 17t27 10.5q20 0 20 -16
q0 -21 -16 -21q-13 -3 -25 -20q-7 -11 -16 -11q-3 0 -8 5z" />
    <glyph glyph-name="acircumflex" unicode="&#xe2;" horiz-adv-x="579" 
d="M614 217q14 -15 -2 -31q-199 -172 -297 -172q-32 0 -54.5 18.5t-31.5 49.5q-107 -78 -163 -78q-28 0 -46.5 17t-19.5 45q-4 39 20.5 85.5t61.5 73.5q42 29 94 29q33 0 57 -8q19 -6 35.5 -15t24.5 -15t8 -7q7 -6 8 -15.5t-4 -15.5q-5 -8 -16 -8t-17 6q-3 3 -13.5 10
t-34.5 16t-48 9q-34 0 -70 -23q-28 -19 -46.5 -55.5t-16.5 -62.5q3 -21 23 -21q52 0 167 92q8 4 15 4q6 0 10 -2q13 -7 10 -22q-2 -46 27 -58q8 -4 22 -4q82 0 267 160q6 6 14 6q11 0 16 -8zM129 287q-15 9 -4 24q13 20 33.5 40.5t36.5 23.5q12 0 20 -4q15 -12 49 -68
q8 -17 -6 -24q-6 -3 -10 -3q-11 0 -17 9q-17 34 -34 51q-19 -14 -43 -45q-8 -8 -15 -8q-2 0 -10 4z" />
    <glyph glyph-name="atilde" unicode="&#xe3;" horiz-adv-x="579" 
d="M614 217q14 -15 -2 -31q-199 -172 -297 -172q-32 0 -54.5 18.5t-31.5 49.5q-107 -78 -163 -78q-28 0 -46.5 17t-19.5 45q-4 39 20.5 85.5t61.5 73.5q42 29 94 29q33 0 57 -8q19 -6 35.5 -15t24.5 -15t8 -7q7 -6 8 -15.5t-4 -15.5q-5 -8 -16 -8t-17 6q-3 3 -13.5 10
t-34.5 16t-48 9q-34 0 -70 -23q-28 -19 -46.5 -55.5t-16.5 -62.5q3 -21 23 -21q52 0 167 92q8 4 15 4q6 0 10 -2q13 -7 10 -22q-2 -46 27 -58q8 -4 22 -4q82 0 267 160q6 6 14 6q11 0 16 -8zM86 281q-7 4 -9 12t3 14q24 33 63 33q19 0 35 -8q38 -17 55 -17q5 0 9.5 1t7 2.5
t4.5 2.5t3 2l1 1q7 10 18 10q7 0 9 -2q15 -11 6 -27q0 -2 -5 -7.5t-19.5 -12t-33.5 -6.5q-31 0 -71 18q-9 6 -19 6q-14 0 -32 -18q-5 -9 -15 -9q-5 0 -10 5z" />
    <glyph glyph-name="adieresis" unicode="&#xe4;" horiz-adv-x="579" 
d="M614 217q14 -15 -2 -31q-199 -172 -297 -172q-32 0 -54.5 18.5t-31.5 49.5q-107 -78 -163 -78q-28 0 -46.5 17t-19.5 45q-4 39 20.5 85.5t61.5 73.5q42 29 94 29q33 0 57 -8q19 -6 35.5 -15t24.5 -15t8 -7q7 -6 8 -15.5t-4 -15.5q-5 -8 -16 -8t-17 6q-3 3 -13.5 10
t-34.5 16t-48 9q-34 0 -70 -23q-28 -19 -46.5 -55.5t-16.5 -62.5q3 -21 23 -21q52 0 167 92q8 4 15 4q6 0 10 -2q13 -7 10 -22q-2 -46 27 -58q8 -4 22 -4q82 0 267 160q6 6 14 6q11 0 16 -8zM229 334q4 4 11 4q2 0 5 -1t5 -1q10 -7 10 -19q-5 -28 -16 -36q-10 -5 -13 -5
q-1 0 -4 1.5t-4 1.5q-11 5 -14 18q-3 17 20 37zM127 334q8 4 12 4q1 0 4 -1t4 -1q11 -7 11 -19q0 -24 -15 -36q-10 -5 -12 -5t-5 1.5t-5 1.5q-12 6 -15 18q0 16 21 37z" />
    <glyph glyph-name="aring" unicode="&#xe5;" horiz-adv-x="579" 
d="M614 217q14 -15 -2 -31q-199 -172 -297 -172q-32 0 -54.5 18.5t-31.5 49.5q-107 -78 -163 -78q-28 0 -46.5 17t-19.5 45q-4 39 20.5 85.5t61.5 73.5q42 29 94 29q33 0 57 -8q19 -6 35.5 -15t24.5 -15t8 -7q7 -6 8 -15.5t-4 -15.5q-5 -8 -16 -8t-17 6q-3 3 -13.5 10
t-34.5 16t-48 9q-34 0 -70 -23q-28 -19 -46.5 -55.5t-16.5 -62.5q3 -21 23 -21q52 0 167 92q8 4 15 4q6 0 10 -2q13 -7 10 -22q-2 -46 27 -58q8 -4 22 -4q82 0 267 160q6 6 14 6q11 0 16 -8zM178 340q12 -8 12 -18q0 -28 -16 -39q-8 -4 -14 -4q-22 0 -25 20q-3 15 21 39
q4 4 10 4q8 0 12 -2zM168 322q-3 0 -6 -3q-8 -5 -8 -12q0 -2 4 -6h4h4q6 6 6 14q0 3 -4 7z" />
    <glyph glyph-name="ae" unicode="&#xe6;" horiz-adv-x="1019" 
d="M0 66q-4 39 20.5 85.5t61.5 73.5q42 29 94 29q33 0 57 -8q19 -6 35.5 -15t24.5 -15t8 -7q7 -6 8 -15.5t-4 -15.5q-5 -8 -16 -8t-17 6q-3 3 -13.5 10t-34.5 16t-48 9q-34 0 -70 -23q-28 -19 -46.5 -55.5t-16.5 -62.5q3 -21 23 -21q52 0 167 92q8 4 15 4q6 0 10 -2
q13 -7 10 -22q-2 -46 27 -58q8 -4 22 -4q82 0 267 160q26 37 59 60q45 26 74 26q10 0 14 -2q33 -7 33 -47q-3 -54 -42.5 -87t-84.5 -38q-24 0 -33 6q7 -33 43 -57q29 -23 72 -23q63 0 160 56q36 21 71.5 48t53.5 43l18 17q9 6 16 6q11 0 17 -6t5.5 -15.5t-7.5 -15.5
q-8 -8 -23.5 -22t-53.5 -43.5t-76 -52.5t-88 -41.5t-93 -18.5q-50 0 -98 31q-30 22 -41 41t-21 59q-159 -129 -244 -129q-32 0 -54.5 18.5t-31.5 49.5q-107 -78 -163 -78q-28 0 -46.5 17t-19.5 45zM719 260q-30 0 -62 -25.5t-45 -54.5h2q3 0 8 -2t7 -2q20 -4 59 23
q31 25 31 59v2z" />
    <glyph glyph-name="ccedilla" unicode="&#xe7;" horiz-adv-x="397" 
d="M2 70q-8 71 25 143q29 57 71 80q20 14 43 14q19 0 27 -8q23 -17 16 -55q-2 -9 -9.5 -14.5t-16.5 -4.5t-14 9.5t-3 17.5v10q-13 0 -32 -14q-30 -25 -49 -70.5t-13 -103.5q7 -58 37 -66q12 -6 29 -6q55 0 159 60t152 108q4 4 12 4q14 0 19 -8q6 -6 5 -15.5t-9 -15.5
q-44 -44 -140.5 -100.5t-156.5 -71.5q-2 -2 -2 -4l-31 -65q64 -8 98 -50q20 -27 12 -59q-13 -64 -73 -86q-21 -6 -45 -6q-33 0 -50 14q-6 6 -7 15.5t5 15.5q8 8 19 8q6 0 12 -6q8 -4 21 -4q28 0 48.5 15t26.5 42q3 15 -4 25q-22 29 -98 37q-9 0 -16 10q-6 9 -2 20l34 74
q-43 0 -69 33t-31 78z" />
    <glyph glyph-name="egrave" unicode="&#xe8;" horiz-adv-x="440" 
d="M496 221q6 -6 5.5 -15.5t-7.5 -15.5q-8 -8 -23.5 -22t-53.5 -43.5t-76 -52.5t-88 -41.5t-93 -18.5q-52 0 -97.5 29.5t-58.5 77.5q-10 41 8 78q19 43 72 82q46 26 74 26q10 0 14 -2q33 -7 33 -47q-3 -54 -42.5 -87t-84.5 -38q-24 0 -33 6q7 -33 43 -57q29 -23 72 -23
q62 0 159 56q36 21 72 48t54 43l18 17q9 6 16 6q11 0 17 -6zM160 260q-30 0 -62 -25.5t-45 -54.5q5 0 10 -2t7 -2q20 -4 59 23q31 25 31 61zM154 324q-2 -2 -9 -2q-11 0 -16 8q-3 6 -11 13t-14 7q-7 0 -12.5 6.5t-3.5 14.5q0 7 6.5 12.5t14.5 3.5q14 -1 27 -10.5t18.5 -16.5
t7.5 -12q3 -6 1 -13.5t-9 -10.5z" />
    <glyph glyph-name="eacute" unicode="&#xe9;" horiz-adv-x="440" 
d="M496 221q6 -6 5.5 -15.5t-7.5 -15.5q-8 -8 -23.5 -22t-53.5 -43.5t-76 -52.5t-88 -41.5t-93 -18.5q-52 0 -97.5 29.5t-58.5 77.5q-10 41 8 78q19 43 72 82q46 26 74 26q10 0 14 -2q33 -7 33 -47q-3 -54 -42.5 -87t-84.5 -38q-24 0 -33 6q7 -33 43 -57q29 -23 72 -23
q62 0 159 56q36 21 72 48t54 43l18 17q9 6 16 6q11 0 17 -6zM160 260q-30 0 -62 -25.5t-45 -54.5q5 0 10 -2t7 -2q20 -4 59 23q31 25 31 61zM127 326q-7 3 -9 10.5t1 13.5q2 5 7.5 12t18.5 16.5t27 10.5q21 0 21 -16q0 -8 -5 -14.5t-12 -6.5q-12 -2 -24 -20q-7 -10 -17 -10
q-4 0 -8 4z" />
    <glyph glyph-name="ecircumflex" unicode="&#xea;" horiz-adv-x="440" 
d="M496 221q6 -6 5.5 -15.5t-7.5 -15.5q-8 -8 -23.5 -22t-53.5 -43.5t-76 -52.5t-88 -41.5t-93 -18.5q-52 0 -97.5 29.5t-58.5 77.5q-10 41 8 78q19 43 72 82q46 26 74 26q10 0 14 -2q33 -7 33 -47q-3 -54 -42.5 -87t-84.5 -38q-24 0 -33 6q7 -33 43 -57q29 -23 72 -23
q62 0 159 56q36 21 72 48t54 43l18 17q9 6 16 6q11 0 17 -6zM160 260q-30 0 -62 -25.5t-45 -54.5q5 0 10 -2t7 -2q20 -4 59 23q31 25 31 61zM82 330q-15 9 -4 24q40 59 69 64q13 0 21 -4q15 -12 49 -68q8 -17 -6 -24q-6 -3 -10 -3q-11 0 -17 9q-17 34 -34 51
q-22 -16 -44 -45q-8 -8 -14 -8q-2 0 -10 4z" />
    <glyph glyph-name="edieresis" unicode="&#xeb;" horiz-adv-x="440" 
d="M496 221q6 -6 5.5 -15.5t-7.5 -15.5q-8 -8 -23.5 -22t-53.5 -43.5t-76 -52.5t-88 -41.5t-93 -18.5q-52 0 -97.5 29.5t-58.5 77.5q-10 41 8 78q19 43 72 82q46 26 74 26q10 0 14 -2q33 -7 33 -47q-3 -54 -42.5 -87t-84.5 -38q-24 0 -33 6q7 -33 43 -57q29 -23 72 -23
q62 0 159 56q36 21 72 48t54 43l18 17q9 6 16 6q11 0 17 -6zM160 260q-30 0 -62 -25.5t-45 -54.5q5 0 10 -2t7 -2q20 -4 59 23q31 25 31 61zM180 377q4 4 10 4q2 0 5.5 -1t5.5 -1q10 -7 10 -19q-5 -28 -16 -36q-10 -5 -13 -5q-1 0 -4 1.5t-4 1.5q-11 5 -14 18q-3 17 20 37z
M78 377q8 4 12 4q1 0 4 -1t4 -1q11 -7 11 -19q0 -24 -15 -36q-10 -5 -12 -5t-5 1.5t-5 1.5q-12 6 -15 18q0 16 21 37z" />
    <glyph glyph-name="igrave" unicode="&#xec;" horiz-adv-x="315" 
d="M369 184q7 -6 7.5 -15t-5.5 -15q-145 -145 -271 -166q-3 0 -10 -1t-10 -1q-39 0 -62 28q-34 43 -4 152q5 23 13.5 46t14.5 36l5 12q3 12 21 12q6 0 8 -2q9 -3 12 -11.5t0 -16.5q-26 -53 -38.5 -111.5t3.5 -89.5q5 -10 25 -10q10 0 16 2q55 8 116 45.5t94.5 69t33.5 34.5
q8 8 18 8q7 0 13 -6zM104 291q-2 -2 -8 -2q-11 0 -16 8q-3 6 -11 13t-14 7q-16 0 -16 21q4 19 20 16q14 -1 27 -10.5t19 -17t8 -11.5q3 -6 0.5 -13.5t-9.5 -10.5z" />
    <glyph glyph-name="iacute" unicode="&#xed;" horiz-adv-x="315" 
d="M369 182q7 -6 7.5 -15t-5.5 -15q-143 -143 -271 -164q-3 0 -10 -1t-10 -1q-40 0 -62 26q-34 42 -4 154q5 22 13.5 44.5t14.5 35.5l5 12q6 14 21 14q6 0 8 -2q19 -9 12 -30q-26 -53 -38.5 -111.5t3.5 -89.5q8 -8 27 -8h14q34 5 72 22t67.5 38t54 41.5t37.5 33.5l13 14
q5 8 16 8q9 0 15 -6zM74 291q-6 3 -8 10.5t2 13.5q3 5 7.5 12t17 16.5t26.5 10.5q8 2 14 -3t6 -13q2 -8 -3.5 -14.5t-12.5 -6.5q-12 0 -25 -20q-3 -8 -14 -8q-8 0 -10 2z" />
    <glyph glyph-name="icircumflex" unicode="&#xee;" horiz-adv-x="315" 
d="M369 182q7 -6 7.5 -15t-5.5 -15q-146 -146 -271 -164q-6 -2 -20 -2q-42 0 -62 28q-35 41 -4 152q5 22 13.5 45t14.5 35l5 12q6 14 21 14q6 0 8 -2q19 -9 12 -30q-26 -53 -38.5 -111.5t3.5 -87.5q5 -10 29 -10h12q55 8 116 46t94.5 70t33.5 35q6 6 16 6q9 0 15 -6zM16 283
q-15 6 -6 24q47 60 72 64q12 0 20 -4q12 -9 28.5 -33t21.5 -35q4 -6 1.5 -14t-8.5 -11q-4 -2 -10 -2q-10 0 -16 9q-16 32 -35 51q-15 -9 -43 -45q-5 -8 -12 -8q-5 0 -13 4z" />
    <glyph glyph-name="idieresis" unicode="&#xef;" horiz-adv-x="315" 
d="M369 197q7 -6 7.5 -15.5t-5.5 -15.5q-146 -146 -271 -164q-8 -2 -20 -2q-43 0 -64 29q-33 41 -2 151q5 22 13.5 45t14.5 35l5 12q6 15 21 15q6 0 8 -2q20 -10 12 -29q-26 -56 -38.5 -113.5t3.5 -87.5q5 -10 29 -10h12q108 16 244 152q6 6 16 6q9 0 15 -6zM119 348
q6 6 12 6q2 0 4.5 -1t3.5 -1q13 -6 13 -18q-5 -41 -29 -41q-2 0 -5 1t-5 1q-13 9 -13 18q-3 16 19 35zM41 365q6 6 12 6q2 0 4.5 -1t3.5 -1q11 -7 11 -19q0 -28 -17 -37q-4 -4 -12 -4q-1 0 -4 1t-4 1q-12 6 -15 19q-3 15 21 35z" />
    <glyph glyph-name="ntilde" unicode="&#xf1;" horiz-adv-x="710" 
d="M766 223q17 -14 2 -33q-177 -198 -305 -198q-34 0 -63 11t-53.5 33.5t-41.5 42.5t-39 52q-18 29 -30 41q-10 12 -15 12q-3 0 -10.5 -5.5t-31.5 -36t-54 -81.5q-17 -28 -34.5 -59.5t-26.5 -49.5l-9 -18q-6 -12 -20 -12q-15 0 -21 12q-30 64 11 232q8 35 19 72t18 57l6 20
q6 15 20 15q6 0 8 -2q9 -3 13.5 -11t1.5 -16q-23 -58 -44.5 -143.5t-21.5 -145.5q6 10 20.5 35.5t22.5 38.5q51 84 81.5 112.5t51.5 28.5q15 0 29.5 -10.5t24 -22t28.5 -36.5q17 -26 29 -42t32 -37t42.5 -32t48.5 -12q118 0 280 186q8 8 19 8q6 0 12 -6zM98 358
q-7 4 -9 12.5t3 14.5q24 33 64 33q18 0 34 -8q38 -17 56 -17q8 0 14 2t8 4l2 2q7 11 19 11q6 0 8 -2q15 -11 6 -27q0 -2 -4.5 -8t-19 -12.5t-33.5 -6.5q-30 0 -72 19q-9 6 -18 6q-5 0 -9.5 -1.5t-7.5 -3t-6 -4t-5 -4.5l-4 -4l-1 -2q-4 -8 -14 -8q-7 0 -11 4z" />
    <glyph glyph-name="ograve" unicode="&#xf2;" horiz-adv-x="247" 
d="M174 217q31 -19 43 -41q18 -38 6 -84q-20 -56 -66.5 -105.5t-97.5 -49.5q-52 9 -57 86q-12 90 68 167q8 10 32 29q6 19 23 19h4q3 1 6 2.5t5 3t3 2t2 0.5q2 2 9 2q17 0 20 -12q3 -10 0 -19zM180 104q9 30 -2 50t-43 34q-35 -28 -37 -30q-59 -59 -53 -131q6 -43 21 -45
q22 -3 60.5 37t53.5 85zM147 266q-2 -2 -8 -2q-11 0 -16 8q-3 7 -11 14t-14 7q-8 0 -13 6.5t-3 13.5q0 8 6.5 13t13.5 4q14 -1 27 -10.5t19 -17t8 -11.5q3 -6 0.5 -14t-9.5 -11z" />
    <glyph glyph-name="oacute" unicode="&#xf3;" horiz-adv-x="247" 
d="M174 217q31 -19 43 -41q18 -38 6 -84q-20 -56 -66.5 -105.5t-97.5 -49.5q-52 9 -57 86q-12 90 68 167q8 10 32 29q6 19 23 19h4q3 1 6 2.5t5 3t3 2t2 0.5q2 2 9 2q17 0 20 -12q3 -10 0 -19zM180 104q9 30 -2 50t-43 34q-35 -28 -37 -30q-59 -59 -53 -131q6 -43 21 -45
q22 -3 60.5 37t53.5 85zM113 268q-7 3 -9.5 11t0.5 14q2 4 8 11.5t19 17t27 10.5q8 0 14 -5t6 -12q0 -20 -16 -20q-13 -3 -25 -21q-7 -10 -16 -10q-4 0 -8 4z" />
    <glyph glyph-name="ocircumflex" unicode="&#xf4;" horiz-adv-x="247" 
d="M174 217q31 -19 43 -41q18 -38 6 -84q-20 -56 -66.5 -105.5t-97.5 -49.5q-52 9 -57 86q-12 90 68 167q8 10 32 29q6 19 23 19h4q3 1 6 2.5t5 3t3 2t2 0.5q2 2 9 2q17 0 20 -12q3 -10 0 -19zM180 104q9 30 -2 50t-43 34q-35 -28 -37 -30q-59 -59 -53 -131q6 -43 21 -45
q22 -3 60.5 37t53.5 85zM72 274q-16 9 -4 25q39 58 69 63q13 0 21 -4q16 -13 49 -67q3 -6 1.5 -14t-7.5 -11q-4 -2 -11 -2q-11 0 -16 8q-17 34 -35 52q-19 -14 -43 -45q-9 -9 -14 -9q-2 0 -10 4z" />
    <glyph glyph-name="otilde" unicode="&#xf5;" horiz-adv-x="247" 
d="M174 217q31 -19 43 -41q18 -38 6 -84q-20 -56 -66.5 -105.5t-97.5 -49.5q-52 9 -57 86q-12 90 68 167q8 10 32 29q6 19 23 19h4q3 1 6 2.5t5 3t3 2t2 0.5q2 2 9 2q17 0 20 -12q3 -10 0 -19zM180 104q9 30 -2 50t-43 34q-35 -28 -37 -30q-59 -59 -53 -131q6 -43 21 -45
q22 -3 60.5 37t53.5 85zM33 268q-7 4 -9 12.5t3 14.5q24 33 63 33q17 0 35 -9q36 -16 55 -16q8 0 14 2t8 4l3 2q7 11 18 11q5 0 8 -3q16 -12 7 -26q0 -2 -5 -8t-19.5 -12.5t-33.5 -6.5q-29 0 -71 19q-9 6 -19 6q-5 0 -9.5 -1.5t-7.5 -3t-6 -4t-5 -4.5l-4 -4l-1 -2
q-4 -8 -14 -8q-6 0 -10 4z" />
    <glyph glyph-name="odieresis" unicode="&#xf6;" horiz-adv-x="247" 
d="M174 217q31 -19 43 -41q18 -38 6 -84q-20 -56 -66.5 -105.5t-97.5 -49.5q-52 9 -57 86q-12 90 68 167q8 10 32 29q6 19 23 19h4q3 1 6 2.5t5 3t3 2t2 0.5q2 2 9 2q17 0 20 -12q3 -10 0 -19zM180 104q9 30 -2 50t-43 34q-35 -28 -37 -30q-59 -59 -53 -131q6 -43 21 -45
q22 -3 60.5 37t53.5 85zM190 322q4 4 11 4q2 0 5 -1t5 -1q10 -7 10 -19q-5 -30 -16 -37q-8 -4 -12 -4q-1 0 -4.5 1t-4.5 1q-11 5 -14 19q-3 17 20 37zM88 322q8 4 12 4q1 0 4.5 -1t4.5 -1q10 -7 10 -19q0 -25 -15 -37q-8 -4 -12 -4q-2 0 -5 1t-5 1q-11 5 -14 19q0 17 20 37z
" />
    <glyph glyph-name="divide" unicode="&#xf7;" horiz-adv-x="342" 
d="M203 268q-10 -20 -39 -20q-18 4 -27 16q-12 24 10 62q6 12 21 12q30 -3 39 -25q13 -22 -4 -45zM287 205q9 1 15.5 -5.5t6.5 -15.5q1 -9 -5 -15.5t-15 -6.5l-219 -10q-9 0 -16 6.5t-7 15.5t6 16t15 7zM203 55q-11 -20 -35 -20q-23 3 -29 16q-14 23 8 62q6 12 21 12
q29 -3 41 -25q10 -23 -6 -45z" />
    <glyph glyph-name="oslash" unicode="&#xf8;" horiz-adv-x="247" 
d="M2 23q-12 90 68 167q8 10 32 29v2q2 6 11 15l131 454q8 17 20 17q1 0 3 -1t3 -1q9 -3 14 -11t3 -16l-125 -432q10 -3 12 -10q3 -10 0 -19q31 -19 43 -41q18 -38 6 -84q-18 -50 -62 -101t-89 -54q-1 -7 -8 -12t-15 -3h-4q-9 3 -13 11t-1 16q-26 23 -29 74zM86 -12
q26 13 54 47t40 69q9 30 -2 50q-10 18 -35 30zM47 8l41 137q-49 -52 -43 -118q0 -1 1 -7.5t1 -11.5z" />
    <glyph glyph-name="ugrave" unicode="&#xf9;" horiz-adv-x="444" 
d="M459 94q-84 -76 -152 -76q-33 0 -57 17q-42 37 -55 80q-1 -1 -2.5 -3t-2.5 -3q-53 -100 -96 -117q-12 -6 -24 -6q-9 0 -21 4q-56 23 -47 141q3 22 7.5 46t8.5 37.5t5 14.5q3 17 18 17q1 0 4 -1t4 -1q9 -1 13 -9.5t1 -17.5q-10 -36 -15 -74.5t-0.5 -71.5t20.5 -40
q4 -2 10 2q25 9 58 66.5t54 113.5q11 18 29 14q21 -7 14 -28q-3 -3 -5 -20.5t8.5 -49.5t37.5 -57q18 -11 33 -11q44 0 123 66q8 4 16 4q9 0 15 -6q5 -6 4.5 -13t-3.5 -12zM141 270q-2 -2 -8 -2q-11 0 -16 8q-3 7 -11 14t-14 7q-8 0 -13 6.5t-3 13.5q0 8 6.5 13t13.5 4
q14 -1 27 -10.5t19 -17t8 -11.5q3 -6 0.5 -14t-9.5 -11z" />
    <glyph glyph-name="uacute" unicode="&#xfa;" horiz-adv-x="444" 
d="M459 94q-84 -76 -152 -76q-33 0 -57 17q-42 37 -55 80q-1 -1 -2.5 -3t-2.5 -3q-53 -100 -96 -117q-12 -6 -24 -6q-9 0 -21 4q-56 23 -47 141q3 22 7.5 46t8.5 37.5t5 14.5q3 17 18 17q1 0 4 -1t4 -1q9 -1 13 -9.5t1 -17.5q-10 -36 -15 -74.5t-0.5 -71.5t20.5 -40
q4 -2 10 2q25 9 58 66.5t54 113.5q11 18 29 14q21 -7 14 -28q-3 -3 -5 -20.5t8.5 -49.5t37.5 -57q18 -11 33 -11q44 0 123 66q8 4 16 4q9 0 15 -6q5 -6 4.5 -13t-3.5 -12zM119 272q-7 3 -9 11t1 14q2 5 7.5 12t18.5 16.5t27 10.5q8 0 14 -5t6 -12q0 -20 -16 -20
q-13 -3 -25 -20q-7 -11 -16 -11q-4 0 -8 4z" />
    <glyph glyph-name="ucircumflex" unicode="&#xfb;" horiz-adv-x="444" 
d="M459 94q-84 -76 -152 -76q-33 0 -57 17q-42 37 -55 80q-1 -1 -2.5 -3t-2.5 -3q-53 -100 -96 -117q-12 -6 -24 -6q-9 0 -21 4q-56 23 -47 141q3 22 7.5 46t8.5 37.5t5 14.5q3 17 18 17q1 0 4 -1t4 -1q9 -1 13 -9.5t1 -17.5q-10 -36 -15 -74.5t-0.5 -71.5t20.5 -40
q4 -2 10 2q25 9 58 66.5t54 113.5q11 18 29 14q21 -7 14 -28q-3 -3 -5 -20.5t8.5 -49.5t37.5 -57q18 -11 33 -11q44 0 123 66q8 4 16 4q9 0 15 -6q5 -6 4.5 -13t-3.5 -12zM76 279q-15 9 -4 24q40 59 69 64q11 0 21 -5q16 -13 49 -67q3 -6 1.5 -14t-7.5 -11q-4 -2 -10 -2
q-12 0 -17 8q-17 34 -35 52q-19 -14 -43 -45q-9 -9 -14 -9z" />
    <glyph glyph-name="udieresis" unicode="&#xfc;" horiz-adv-x="444" 
d="M459 94q-84 -76 -152 -76q-33 0 -57 17q-42 37 -55 80q-1 -1 -2.5 -3t-2.5 -3q-53 -100 -96 -117q-12 -6 -24 -6q-9 0 -21 4q-56 23 -47 141q3 22 7.5 46t8.5 37.5t5 14.5q3 17 18 17q1 0 4 -1t4 -1q9 -1 13 -9.5t1 -17.5q-10 -36 -15 -74.5t-0.5 -71.5t20.5 -40
q4 -2 10 2q25 9 58 66.5t54 113.5q11 18 29 14q21 -7 14 -28q-3 -3 -5 -20.5t8.5 -49.5t37.5 -57q18 -11 33 -11q44 0 123 66q8 4 16 4q9 0 15 -6q5 -6 4.5 -13t-3.5 -12zM190 326q4 4 11 4q2 0 5 -1t5 -1q10 -7 10 -19q-5 -30 -16 -37q-8 -4 -12 -4q-1 0 -4.5 1t-4.5 1
q-11 5 -14 19q-3 17 20 37zM88 326q8 4 12 4q1 0 4.5 -1t4.5 -1q10 -7 10 -19q0 -25 -15 -37q-8 -4 -12 -4q-2 0 -5 1t-5 1q-11 5 -14 19q0 17 20 37z" />
    <glyph glyph-name="yacute" unicode="&#xfd;" horiz-adv-x="571" 
d="M625 203q6 -6 7 -15.5t-5 -15.5q-126 -141 -207 -256q0 -16 1 -46t1 -46q-3 -204 -21 -336q-27 -243 -145 -264q-46 0 -70 24q-41 38 -43.5 122.5t35.5 191.5q56 165 199 368q-2 65 -5 132t-6.5 121.5t-3.5 62.5q-28 -36 -51 -72q-27 -41 -42.5 -63t-49.5 -65t-66 -65
t-61 -22q-38 0 -67 41q-13 20 -19.5 44t-6 46.5t4 44.5t10.5 41.5t13 33.5t11 24l5 10q10 10 20 10q7 0 11 -2q8 -5 10 -14t-2 -17l-4 -7q-4 -8 -9 -19.5t-10.5 -27t-9.5 -34t-5 -36.5t3 -37t14 -35q15 -21 31 -21q58 0 182 195q42 62 62 85t37 23q1 0 4 -1t4 -1
q22 -6 25 -39q0 -1 2 -37t5.5 -104t6.5 -135q69 97 174 211q5 8 16 8q9 0 15 -6zM295 -707q82 88 82 560q-111 -166 -158 -306q-35 -116 -32 -178.5t30 -89.5q10 -10 29 -10q25 0 49 24zM186 322q-7 3 -9 10.5t1 13.5q2 5 7.5 12t18.5 16.5t27 10.5q21 0 21 -16
q0 -21 -16 -21q-13 -3 -25 -20q-7 -11 -16 -11q-4 0 -9 5z" />
    <glyph glyph-name="ydieresis" unicode="&#xff;" horiz-adv-x="571" 
d="M625 203q6 -6 7 -15.5t-5 -15.5q-126 -141 -207 -256q0 -16 1 -46t1 -46q-3 -204 -21 -336q-27 -243 -145 -264q-46 0 -70 24q-41 38 -43.5 122.5t35.5 191.5q56 165 199 368q-2 65 -5 132t-6.5 121.5t-3.5 62.5q-28 -36 -51 -72q-27 -41 -42.5 -63t-49.5 -65t-66 -65
t-61 -22q-38 0 -67 41q-13 20 -19.5 44t-6 46.5t4 44.5t10.5 41.5t13 33.5t11 24l5 10q10 10 20 10q7 0 11 -2q8 -5 10 -14t-2 -17l-4 -7q-4 -8 -9 -19.5t-10.5 -27t-9.5 -34t-5 -36.5t3 -37t14 -35q15 -21 31 -21q58 0 182 195q42 62 62 85t37 23q1 0 4 -1t4 -1
q22 -6 25 -39q0 -1 2 -37t5.5 -104t6.5 -135q69 97 174 211q5 8 16 8q9 0 15 -6zM295 -707q82 88 82 560q-111 -166 -158 -306q-35 -116 -32 -178.5t30 -89.5q10 -10 29 -10q25 0 49 24zM260 377q4 4 10 4q2 0 5.5 -1t5.5 -1q10 -7 10 -19q-5 -28 -17 -36q-10 -5 -12 -5
q-1 0 -4 1.5t-4 1.5q-11 5 -14 18q-3 17 20 37zM158 377q8 4 12 4q1 0 4 -1t4 -1q10 -7 10 -19q0 -25 -14 -36q-10 -5 -12 -5t-5 1.5t-5 1.5q-12 6 -15 18q0 16 21 37z" />
    <glyph glyph-name="Dcroat" unicode="&#x110;" horiz-adv-x="1406" 
d="M0 -358q-9 92 121 180q81 54 178 102l107 926q-51 -24 -125 -76q-34 -25 -66.5 -52.5t-54 -49.5t-37.5 -41t-25 -29l-8 -10q-7 -10 -18 -10q-5 0 -13 4q-17 13 -4 30q3 6 22.5 30.5t68.5 73t106 89.5q107 79 233.5 121.5t257.5 42.5q98 0 198 -26t189 -74t158 -125.5
t98 -172.5q49 -151 -22 -319q-76 -178 -289 -354q-89 -73 -184.5 -137t-207 -124t-230.5 -95t-224 -35q-35 0 -70.5 6t-71.5 20t-60 41t-27 64zM145 -215q-108 -73 -102 -139q4 -27 24.5 -46t51 -28t57.5 -12.5t53 -3.5q101 0 216 34.5t223.5 92.5t201 121t177.5 133
q190 155 266.5 316.5t32.5 309.5q-27 89 -92.5 161t-150.5 115t-178 66t-186 23q-150 0 -295 -60q7 -10 7 -18l-105 -903q103 47 223 84t205 37q8 0 15 -6t8 -15q0 -9 -7 -15.5t-16 -6.5q-183 -11 -434 -129l-31 -273q0 -7 -6 -12.5t-14 -5.5h-4q-22 4 -19 24l27 244
q-67 -36 -148 -88z" />
    <glyph glyph-name="dcroat" unicode="&#x111;" horiz-adv-x="403" 
d="M383 844q8 0 14 -7t6 -16v-121q0 -9 -6.5 -15.5t-15.5 -6.5q-15 -81 -27 -201q0 -3 -1 -8t-1 -8q-39 -393 -4 -680q0 -10 -5.5 -17.5t-14.5 -7.5q-21 0 -25 19q-25 237 -8 504q-6 -13 -16 -39.5t-13 -34.5q-101 -263 -182 -279q-27 0 -39.5 5t-26.5 26q-38 53 0 137
q24 50 72 100t92 50q20 0 33 -13q6 -6 6 -15t-6 -15t-14 -6q-11 0 -17 6q-5 1 -16.5 -4.5t-31.5 -22t-40 -39.5q-20 -24 -33.5 -50.5t-18 -55t10.5 -47.5q9 -13 21 -13q5 1 11.5 5.5t20.5 20.5t30 41.5t39 73.5t48 111q20 51 39.5 108t31.5 96t13 42v14q10 89 22.5 175
t19.5 128l7 41q2 9 9 14.5t16 4.5zM406 670q9 0 15.5 -6t6.5 -15q1 -9 -5 -15.5t-15 -6.5l-220 -11q-9 0 -15.5 6.5t-6.5 14.5q0 22 20 25z" />
    <glyph glyph-name="dotlessi" unicode="&#x131;" horiz-adv-x="333" 
d="M389 186q7 -6 7.5 -15t-5.5 -15q-145 -145 -270 -166h-21q-44 0 -61 26q-34 42 -4 154q5 22 13.5 44.5t13.5 35.5l6 12q3 12 18 12q6 0 10 -2q20 -7 13 -28q-26 -53 -38.5 -111.5t3.5 -89.5q10 -10 24 -10q11 0 17 2q34 5 71.5 22t67 38t53 41.5t37.5 33.5l14 14
q6 9 17 9q7 0 14 -7zM68 285q-14 0 -21 10q-4 8 -2 17t10 14l68 41q4 2 10 2q14 0 21 -11q11 -18 -7 -28l-69 -41q-2 -4 -10 -4z" />
    <glyph glyph-name="Lslash" unicode="&#x141;" horiz-adv-x="468" 
d="M109 379l165 6q11 0 19 -5.5t8 -14.5t-7.5 -16t-17.5 -7l-172 -6l-51 -440v-7q-13 -104 -6 -168q9 -88 59 -124q41 -23 99 -23q176 0 526 197q4 2 10 2q15 0 21 -13q10 -17 -8 -28q-367 -203 -549 -203q-77 0 -121 33q-37 24 -57 63t-23.5 93t-1.5 88t8 90v6l49 432
l-47 -2q-10 0 -18 6t-8 14q0 9 7 16.5t17 8.5l56 2l67 586q0 9 7.5 14.5t15.5 3.5q9 -2 15 -9t5 -16z" />
    <glyph glyph-name="lslash" unicode="&#x142;" horiz-adv-x="446" 
d="M115 -29q-22 2 -47 15q-78 43 -66 190q19 246 111 545q19 64 40 124.5t33 88.5l11 29q7 14 22 14h4q8 -3 12 -10.5t3 -14.5l-15 -121q-3 -20 -24 -20q-2 1 -5.5 2t-5.5 2q-115 -335 -143 -643q-9 -117 43 -147q22 -11 47 -11q68 0 182 60q38 20 76.5 44.5t58 38
t21.5 15.5q8 4 12 4q12 0 19 -10q5 -6 4 -15.5t-8 -15.5q-1 0 -10 -6.5t-24 -17t-34 -22.5t-44 -26.5t-50 -27.5q-126 -66 -203 -66q-4 0 -10.5 1t-9.5 1zM100 313l265 9q11 0 18.5 -6t7.5 -15t-7 -15.5t-17 -6.5l-265 -11q-10 0 -18 6.5t-8 14.5q0 9 7 16t17 8z" />
    <glyph glyph-name="OE" unicode="&#x152;" horiz-adv-x="1976" 
d="M475 1026q90 -7 170 -58t136.5 -128t95 -162t57.5 -172q57 -244 -47 -533q-33 -90 -81.5 -174t-112.5 -162.5t-148 -133.5t-174 -72q-38 -9 -76 -9q-60 0 -121.5 19.5t-103.5 56.5q-87 84 -66 246q18 121 98 289q5 9 27 53q-2 9 -9.5 35t-10.5 43q-39 142 -39 289
q0 72 12 147t41 153t71 138t108 98.5t147 38.5q4 0 13 -1t13 -1zM565 -426q186 151 282 421.5t44 500.5q-44 202 -162 337.5t-258 147.5q-111 0 -182.5 -56.5t-116.5 -164.5q-104 -252 -22 -586q2 -6 5 -17.5t5 -17.5q35 63 73.5 123t60.5 90.5t23 30.5q5 8 17 8q10 0 14 -4
q6 -5 7 -14t-3 -17q-2 0 -26.5 -35t-67.5 -103t-80 -136q10 -32 22 -62.5t21.5 -51.5t17.5 -37.5t13 -25.5l4 -9q4 -8 2 -17t-10 -14q-4 -2 -10 -2q-15 0 -21 12q-1 1 -10 18.5t-25 55.5t-32 80q-1 -3 -7 -15q-176 -361 -43 -483q20 -20 47 -31q71 -35 150 -35
q133 0 268 109zM1980 119q5 8 17 8q9 0 14 -8q6 -6 6 -15.5t-6 -15.5q-14 -14 -61 -56.5t-157 -132.5t-212 -159q-293 -201 -487 -201q-110 0 -181 68q-69 69 -51 155q44 218 703 519h-88q-139 0 -207 8q-156 14 -187 80q-19 39 7 94.5t102 142.5q97 110 244 161.5t311 51.5
q36 0 69.5 -2t50 -4.5t17.5 -3.5q9 -2 14.5 -9t4.5 -16q-2 -9 -9 -14t-16 -4l-6 1q-7 1 -18.5 2t-26.5 2t-36 2t-42 1q-156 0 -294 -47.5t-230 -151.5q-125 -139 -101 -188q31 -63 375 -63q119 0 180 2q20 0 23 -19q3 -17 -14 -24q-2 0 -53 -21t-144.5 -64t-177.5 -89
q-378 -207 -408 -357q-12 -61 41 -114q56 -56 148 -56q173 0 462 195q63 43 130 93.5t117.5 93t91.5 78.5t63 56z" />
    <glyph glyph-name="oe" unicode="&#x153;" horiz-adv-x="708" 
d="M174 217q31 -19 43 -41q18 -38 6 -84q-20 -56 -66.5 -105.5t-97.5 -49.5q-52 9 -57 86q-9 93 68 167q8 10 32 29q6 19 23 19h4q3 1 6 2.5t5 3t3 2t2 0.5q2 2 9 2q17 0 20 -12q3 -10 0 -19zM180 104q9 30 -2 50t-43 34q-35 -28 -37 -30q-59 -59 -53 -131q6 -43 21 -45
q22 -3 60.5 37t53.5 85zM764 221q6 -6 5.5 -15.5t-7.5 -15.5q-8 -8 -23.5 -22t-53.5 -43.5t-76 -52.5t-88 -41.5t-93 -18.5q-52 0 -97.5 29.5t-58.5 77.5q-9 39 9 78q20 44 71 82q46 26 74 26q10 0 14 -2q33 -7 33 -47q-3 -54 -42.5 -87t-84.5 -38q-24 0 -33 6q7 -33 43 -57
q29 -23 72 -23q63 0 160 56q36 21 71.5 48t53.5 43l18 17q9 6 17 6q10 0 16 -6zM428 260q-29 0 -61 -25.5t-45 -54.5q4 0 9 -2t7 -2q20 -4 59 23q31 25 31 61z" />
    <glyph glyph-name="Scaron" unicode="&#x160;" horiz-adv-x="1116" 
d="M1087 106h5q17 0 24 -14q4 -22 -16 -29q-181 -58 -342 -122q5 -12 14 -43q22 -92 -11.5 -184t-111.5 -158q-86 -74 -209 -93q-40 -4 -63 -4q-101 0 -199 43q-1 0 -2 1t-2 1q-58 37 -49 86q6 63 121 146q84 59 254 141q33 16 198 88q-94 168 -387 236q-53 12 -100 30.5
t-94.5 47t-78 72t-36.5 95.5q-12 115 90 236q78 95 217 177t254 89q87 0 137 -22q15 -6 28.5 -14t23.5 -16t18.5 -15.5t15 -14.5t10.5 -12t6 -8l3 -4q4 -8 2 -17t-10 -14q-8 -4 -13 -4q-9 0 -18 12q-27 41 -77 63.5t-103 22.5q-110 0 -246 -79.5t-215 -172.5
q-89 -106 -80 -200q19 -148 277 -209q132 -31 248.5 -97t168.5 -165q129 50 348 124zM621 -410q69 58 98 137.5t10 159.5q-2 14 -10 37q-62 -24 -141.5 -60t-175 -85.5t-162 -102t-72.5 -90.5q0 -27 29 -43q88 -39 182 -39q139 0 242 86zM633 1073q14 -11 4 -24
q-47 -60 -72 -64q-12 0 -20 4q-15 12 -49 68q-8 17 6 24q4 2 10 2q11 0 16 -8q16 -32 35 -51q15 9 43 45q8 8 15 8q4 0 12 -4z" />
    <glyph glyph-name="scaron" unicode="&#x161;" horiz-adv-x="421" 
d="M461 215q7 -23 -12 -29q-103 -45 -203 -106q-4 -2 -11.5 -6t-11.5 -6q21 -15 37 -31q54 -48 35 -96q-25 -48 -88 -88.5t-117 -40.5q-14 0 -20 2q-59 13 -62 82q0 76 137 174l-12 6q-39 27 -54.5 38.5t-40 32.5t-32.5 38.5t-6 35.5q7 53 84.5 110.5t132.5 57.5
q37 0 60.5 -21t29.5 -61q2 -9 -3.5 -17t-14.5 -9t-16 4t-9 14q-7 47 -45 47q-52 -4 -110 -53q-30 -22 -47 -43.5t-17 -34.5q0 -16 27 -39q16 -15 67 -51q35 -22 45 -29q7 3 20.5 11.5t18.5 11.5q45 27 97 53.5t81 39.5l29 13q4 2 10 2q15 0 21 -12zM254 -41q11 27 -70 82
q-131 -86 -131 -143q0 -36 27 -41q49 0 103.5 30t70.5 72zM287 492q15 -11 4 -25q-47 -60 -72 -64q-10 0 -20 5q-17 13 -49 67q-3 6 -1.5 14t7.5 11q4 2 10 2q11 0 16 -8q17 -34 35 -52q15 9 43 45q9 9 14 9t13 -4z" />
    <glyph glyph-name="Ydieresis" unicode="&#x178;" horiz-adv-x="1214" 
d="M1307 238q9 0 16.5 -6t7.5 -15q3 -20 -18 -24q-5 0 -39 -5t-106.5 -21.5t-141.5 -39.5q-29 -235 -135 -446q-52 -109 -110.5 -188.5t-94.5 -102.5q-61 -33 -127 -33q-67 0 -104 37q-50 44 -47 131q0 94 65 233q40 93 121.5 173t172 131.5t194.5 89.5q4 1 12 4t12 4
q8 57 8 129q0 89 -8.5 173t-40.5 183.5t-84 151.5q-24 -87 -55 -169.5t-80.5 -178.5t-106.5 -169.5t-136.5 -129t-166.5 -70.5q-18 -4 -53 -4q-142 0 -219 112q-51 78 -42.5 181.5t75.5 205.5q55 85 102 140q8 8 19 8q6 0 12 -6q7 -6 7.5 -15.5t-5.5 -15.5q-47 -52 -98 -133
q-60 -91 -68 -182t35 -158q65 -94 182 -94q17 0 45 4q85 16 161.5 72.5t130.5 130t100.5 170t74.5 177.5t51 167q2 7 13 14q4 2 10 2t8 -2l12.5 -7.5t26.5 -23.5t35.5 -44t37 -70.5t34.5 -101t24 -138.5t10 -180q0 -39 -4 -113q42 13 85.5 24t75.5 17.5t58 11t40.5 7
t15.5 2.5zM852 -299q94 188 127 410h-4q-356 -134 -463 -371q-108 -240 -29 -313q30 -27 78 -27q50 0 103 29q27 15 81 88.5t107 183.5zM578 969q4 4 10 4q2 0 5 -1t5 -1q10 -7 10 -19q-5 -30 -16 -37q-8 -4 -12 -4q-1 0 -4.5 1t-4.5 1q-11 5 -14 19q-3 16 21 37zM475 969
q8 4 12 4q1 0 4.5 -1t4.5 -1q10 -7 10 -19q0 -26 -14 -37q-8 -4 -13 -4q-2 0 -5 1t-5 1q-11 5 -14 19q0 17 20 37z" />
    <glyph glyph-name="Zcaron" unicode="&#x17d;" horiz-adv-x="1454" 
d="M1454 88q8 4 12 4q12 0 19 -10q5 -7 3 -17t-9 -14q-142 -90 -286 -171t-327 -171t-358 -144t-305 -54q-113 0 -162 36q-52 39 -39 101q10 38 92 122t275 261q13 12 73 68.5t81 77t72 69t79.5 77t66.5 67t68 71.5q103 115 145 182q49 83 37 115q-11 23 -53 30
q-62 9 -119 9q-195 0 -407 -78q-40 -14 -79.5 -31t-67.5 -30.5t-50 -25t-33 -18.5l-12 -6q-4 -2 -10 -2q-11 0 -21 10q-4 8 -2 16t10 13q4 4 32.5 20t90 44.5t127.5 52.5q226 80 420 80q54 0 129 -11q73 -12 88 -61q16 -59 -43 -149q-59 -91 -151 -191q-127 -139 -443 -432
q-2 -2 -35 -32t-56.5 -52.5t-63.5 -60t-69 -67t-59 -60.5t-47.5 -53.5t-21.5 -34.5q-6 -34 23 -54q32 -28 122 -28q132 0 305.5 52.5t353 140.5t322 168.5t283.5 170.5zM838 993q14 -11 4 -24q-47 -60 -72 -64q-12 0 -20 4q-17 13 -50 68q-8 16 7 24q6 3 10 3q10 0 16 -9
q16 -32 35 -51q15 9 43 45q8 8 14 8q5 0 13 -4z" />
    <glyph glyph-name="zcaron" unicode="&#x17e;" horiz-adv-x="409" 
d="M446 74q5 -7 3 -17t-9 -14q-13 -9 -40.5 -23.5t-90 -35.5t-114.5 -21q-38 0 -68 12q-39 13 -45 41q-8 29 12 65t66 93q84 102 78 131q-2 5 -9 12q-4 2 -18 2q-32 0 -85 -18t-95 -41q-4 -2 -11 -2q-12 0 -18 12q-4 8 -2 16t10 13q18 18 93 42t106 24q17 0 39 -9
q27 -14 33 -43q5 -23 -8.5 -54t-29 -52t-48.5 -62q-6 -9 -27 -34.5t-29 -38.5q-16 -27 -16 -43q7 -21 72 -21q46 0 101 18.5t87.5 36t32.5 19.5q4 2 10 2q13 0 20 -10zM285 469q15 -11 4 -25q-46 -59 -72 -63q-12 0 -20 4q-17 13 -50 68q-8 16 7 24q4 2 10 2q11 0 16 -8
q16 -32 35 -51q15 9 43 45q8 8 14 8q5 0 13 -4z" />
    <glyph glyph-name="circumflex" unicode="&#x2c6;" horiz-adv-x="335" 
d="M94 291q-15 9 -4 24q13 20 33.5 40.5t36.5 23.5q12 0 20 -4q15 -12 49 -68q8 -17 -6 -24q-4 -2 -10 -2q-11 0 -16 8q-16 32 -35 51q-19 -14 -43 -45q-8 -8 -15 -8q-2 0 -10 4z" />
    <glyph glyph-name="caron" unicode="&#x2c7;" horiz-adv-x="163" 
d="M150 371q15 -11 4 -25q-46 -59 -72 -63q-13 0 -21 4q-17 13 -49 67q-3 6 -1.5 14t7.5 11q4 2 11 2q11 0 16 -8q16 -32 35 -51q15 9 43 45q8 8 14 8q5 0 13 -4z" />
    <glyph glyph-name="dotaccent" unicode="&#x2d9;" horiz-adv-x="98" 
d="M47 725q29 0 39 -23q13 -23 -4 -47q-12 -18 -35 -18q-20 0 -31 16q-12 22 11 62q9 13 20 10z" />
    <glyph glyph-name="ring" unicode="&#x2da;" horiz-adv-x="63" 
d="M49 344q12 -8 12 -18q0 -28 -16 -39q-8 -4 -14 -4q-22 0 -25 20q-3 15 21 39q4 4 10 4q8 0 12 -2zM39 326q-4 0 -6 -2q-8 -5 -8 -13q0 -2 4 -6h4h4q6 6 6 14q0 3 -4 7z" />
    <glyph glyph-name="tilde" unicode="&#x2dc;" horiz-adv-x="288" 
d="M41 285q-7 4 -9 12t3 14q24 33 63 33q19 0 35 -8q38 -17 55 -17q8 0 14 2.5t8 4.5l3 2q7 10 18 10q7 0 9 -2q15 -11 6 -27q0 -2 -5 -7.5t-19.5 -12t-33.5 -6.5q-31 0 -71 18q-9 6 -19 6q-14 0 -32 -18q-4 -8 -15 -8q-6 0 -10 4z" />
    <glyph glyph-name="endash" unicode="&#x2013;" horiz-adv-x="389" 
d="M328 322q11 0 18.5 -6t7.5 -15t-7 -15.5t-17 -6.5l-264 -11q-10 0 -18.5 6.5t-8.5 14.5q0 9 6.5 16t17.5 8z" />
    <glyph glyph-name="emdash" unicode="&#x2014;" horiz-adv-x="522" 
d="M444 324q15 0 27 -4.5t12 -10.5q0 -16 -37 -16l-370 -8q-17 0 -28 5t-11 11q0 13 35 16z" />
    <glyph glyph-name="quoteleft" unicode="&#x2018;" horiz-adv-x="139" 
d="M86 387q7 -4 9 -14t-3 -17q-14 -18 -14 -30q0 -2 6 -2q9 0 15.5 -6t6.5 -15t-6.5 -15.5t-15.5 -6.5q-33 0 -45 22q-17 31 16 80q8 8 19 8q8 0 12 -4z" />
    <glyph glyph-name="quoteright" unicode="&#x2019;" horiz-adv-x="151" 
d="M80 389q1 0 3 1t3 1q16 0 23 -18q3 -9 5 -21t-1 -30.5t-13 -28.5q-12 -12 -30 -12q-5 0 -21 4q-21 7 -14 28q7 17 20 17q1 0 3 -1t3 -1q4 -2 9 -2q4 11 -4 34q-3 9 1.5 18t12.5 11z" />
    <glyph glyph-name="quotesinglbase" unicode="&#x201a;" horiz-adv-x="145" 
d="M80 35h4q18 0 25 -17q17 -52 -9 -79q-13 -13 -30 -13q-5 0 -21 4q-21 7 -14 29q6 16 20 16q1 0 3 -1t3 -1q4 -2 9 -2q4 11 -4 35q-3 9 1.5 17.5t12.5 11.5z" />
    <glyph glyph-name="quotedblleft" unicode="&#x201c;" horiz-adv-x="229" 
d="M84 387q7 -4 9 -14t-3 -17q-14 -18 -14 -30q0 -2 6 -2q9 0 15.5 -6t6.5 -15t-6.5 -15.5t-15.5 -6.5q-33 0 -45 22q-17 31 16 80q8 8 19 8q8 0 12 -4zM176 387q7 -4 9 -14t-3 -17q-14 -18 -14 -30q0 -2 6 -2q9 0 16 -6t7 -15t-7 -15.5t-16 -6.5q-33 0 -45 22q-17 31 16 80
q8 8 19 8q8 0 12 -4z" />
    <glyph glyph-name="quotedblright" unicode="&#x201d;" horiz-adv-x="239" 
d="M184 389q1 0 3 1t3 1q16 0 23 -18q18 -54 -8 -80q-12 -12 -31 -12q-4 0 -20 4q-9 3 -13.5 11t-1.5 17q7 17 21 17q1 0 3 -1t3 -1q4 -2 8 -2q4 11 -4 34q-3 9 1.5 18t12.5 11zM76 389q1 0 3 1t3 1q15 0 22 -18q18 -54 -8 -80q-12 -12 -30 -12q-5 0 -21 4q-21 7 -14 28
q7 17 20 17q1 0 3 -1t3 -1q4 -2 9 -2q3 10 -5 34q-3 9 2 18t13 11z" />
    <glyph glyph-name="quotedblbase" unicode="&#x201e;" horiz-adv-x="262" 
d="M186 96h4q19 0 25 -16q18 -54 -8 -80q-12 -12 -31 -12q-4 0 -20 4q-9 3 -13.5 11t-1.5 17q7 17 21 17q1 0 3 -1t3 -1q4 -2 8 -2q4 11 -4 35q-3 9 1.5 17t12.5 11zM90 98h4q19 0 25 -16q18 -54 -8 -80q-12 -12 -31 -12q-5 0 -21 4q-21 7 -14 29q6 16 21 16q1 0 3 -1t3 -1
q4 -2 8 -2q4 12 -4 35q-3 9 1.5 17t12.5 11z" />
    <glyph glyph-name="bullet" unicode="&#x2022;" horiz-adv-x="196" 
d="M98 399q45 -3 60 -34q15 -35 -6 -70q-22 -31 -58 -31q-29 3 -41 27q-16 33 15 92q10 16 30 16z" />
    <glyph glyph-name="ellipsis" unicode="&#x2026;" horiz-adv-x="294" 
d="M205 33q-12 22 10 61q9 13 21 10q29 0 38 -22q13 -23 -4 -47q-13 -19 -34 -19h-5q-16 0 -26 17zM109 33q-12 22 10 61q9 13 20 10q30 0 39 -22q13 -23 -4 -47q-13 -19 -35 -19h-4q-16 0 -26 17zM16 33q-12 21 11 61q9 13 20 10q30 0 39 -22q13 -23 -4 -47
q-13 -19 -35 -19h-4q-17 0 -27 17z" />
    <glyph glyph-name="guilsinglleft" unicode="&#x2039;" horiz-adv-x="258" 
d="M14 123q-2 9 4 18t13 14t20 13q41 20 64 29q18 7 41.5 16t36 14t12.5 6q22 0 28 -14q3 -8 -1 -17t-13 -12q-101 -36 -151 -65q40 -29 141 -84q17 -10 10 -31q-7 -10 -20 -10q-7 0 -11 2q-41 22 -82 45q-38 23 -59.5 39t-26.5 23t-6 14z" />
    <glyph glyph-name="guilsinglright" unicode="&#x203a;" horiz-adv-x="231" 
d="M229 111q5 -25 -36 -45t-64 -29l-90 -37q-23 0 -29 14q-3 8 1.5 16t13.5 11q129 52 151 65q-39 31 -141 87q-17 10 -10 28q6 12 20 12q6 0 10 -2q41 -22 82 -45q56 -33 73 -48.5t19 -26.5z" />
    <glyph glyph-name="Euro" unicode="&#x20ac;" horiz-adv-x="710" 
d="M72 401q-9 0 -16 6t-7 15t7 15.5t16 6.5h104q18 127 97.5 208t203.5 81q17 -1 34 -5t31 -9t28 -12t25.5 -14.5t22.5 -15.5t19 -15t15 -13.5t11 -11.5t7 -9l4 -3q5 -7 4 -17t-8 -14q-6 -6 -15 -6q-8 0 -16 8q0 3 -20 23t-61.5 43.5t-84.5 27.5q-102 0 -168 -70t-84 -176
h203q9 0 15.5 -6.5t6.5 -15.5t-6.5 -15t-15.5 -6h-209q-2 -25 2 -71h207q9 0 15.5 -7t6.5 -16t-6.5 -15.5t-15.5 -6.5h-201q21 -109 91.5 -175.5t179.5 -66.5q70 0 155 31q1 0 3 1t3 1q14 0 21 -17q8 -19 -12 -26q-88 -33 -170 -33q-128 0 -208.5 77t-107.5 208h-106
q-9 0 -16 6.5t-7 15.5t7 16t16 7h100q-2 23 -2 71h-98z" />
    <glyph glyph-name="trademark" unicode="&#x2122;" horiz-adv-x="462" 
d="M344 485h-6q-8 0 -12 2q-10 7 -13 31q-2 8 -2 29q3 32 -6 53q-20 -46 -35 -119l-22 -112q-3 -17 -21 -17q-19 4 -16 21q0 36 23.5 130t41.5 120l-86 -15l-26 -250q0 -16 -21 -16q-7 0 -12 6t-4 14l25 240l-99 -16q-20 0 -20 14q-4 19 14 23l109 18l4 31q3 16 20 16
q20 -4 17 -20l-2 -21l108 17q8 2 15 -3t8 -12q0 -8 -2 -10q20 -16 26 -80q10 20 10 27q23 39 41 39h7q22 -5 22 -56q-6 -81 -6 -178q0 -7 -5 -12.5t-13 -5.5q-7 0 -13 6t-6 14q0 45 6 168q-33 -65 -41 -72q-4 -3 -8 -4z" />
    <glyph glyph-name="minus" unicode="&#x2212;" horiz-adv-x="335" 
d="M274 332q9 0 16 -6t7 -15q1 -9 -5.5 -15.5t-15.5 -6.5l-219 -10q-9 0 -15.5 6t-6.5 14q0 22 20 25z" />
    <glyph glyph-name="uni2407" unicode="&#x2407;" horiz-adv-x="606" 
d="M119 143q85 -37 166 -37q106 0 180 39q-9 -59 -54 -100t-106 -45h-16q-7 10 -10 23l-3 22q1 0 2.5 0.5t6 2.5t6 5t3.5 8.5t-1 12.5q-5 18 -23 18q-8 0 -15.5 -6.5t-8.5 -13.5q-3 -23 16 -27q-3 -20 8 -45q-56 8 -98.5 48t-52.5 95zM565 453q8 -13 8 -33v-4q0 -1 -1 -4.5
t-1 -5.5q-4 -4 -4 -9q-1 -2 -3 -4.5t-3 -4t-2 -3.5q-8 -8 -12 -8q-2 -4 -10 -8q-45 -9 -58 -9q-45 0 -80 9q-1 1 -4 2t-4 2q3 -3 10.5 -8.5t10.5 -8.5q30 -28 53.5 -57.5t26.5 -32.5q19 -19 38 -30.5t28 -13.5l9 -1l-16 -47q-47 19 -76 68q-60 98 -164 151q15 -11 15 -28
q0 -10 -7 -17q59 -9 101.5 -55.5t46.5 -106.5q0 -18 -2 -28q-65 -39 -176 -41q-96 0 -170 35q-2 4 -2 16q-3 64 40 114t109 64q-6 12 -6 19q0 14 12 26q-2 0 -43 -22q-19 -12 -38 -32t-30 -34t-31 -42.5t-26 -35.5q-16 -20 -31.5 -33t-23.5 -16l-8 -4l-18 49q47 21 67 39
q9 7 31 36t53 54q4 3 11.5 8.5t11.5 8.5q-28 -7 -52 -7q-65 0 -82 46q0 1 -1 6t-1 8q0 12 5 24q0 18 27 29.5t46 11.5q36 0 79.5 -19t68.5 -44q2 -1 5.5 -2.5t4.5 -2t2.5 -2.5t1.5 -5q35 35 85 55t97 20q61 0 82 -32zM141 381q45 0 117 31q-11 6 -25 16q-45 29 -120 29
q-28 -4 -39 -15q-1 -2 -4 -5t-4.5 -5.5t-2.5 -5.5q0 -4 3 -10q6 -20 40 -31q24 -4 35 -4zM420 242q-6 -2 -11.5 -8t-5.5 -13t5.5 -12.5t13.5 -5.5q12 4 12 18q0 17 -14 21zM186 211q0 19 -16 25q-9 -6 -12 -19q0 -21 14 -24q11 5 14 18zM317 201q0 9 -7.5 14.5t-18.5 5.5
q-10 0 -17.5 -5.5t-7.5 -14.5t8 -16t17 -7q10 0 18 7t8 16zM315 365q0 17 -14 20q0 -10 -8 -10t-8 10q-13 -7 -13 -20q0 -11 9 -17h26q8 8 8 17zM532 391q13 8 17 15q-3 20 -21.5 31.5t-40.5 11.5q-83 0 -161 -41q3 -2 8 -5.5t8 -5.5q12 -4 16 -6q40 -18 88 -18q46 0 86 18z
" />
    <glyph glyph-name="uniF004" unicode="&#xf004;" horiz-adv-x="684" 
d="M739 215q6 -6 5.5 -15.5t-7.5 -15.5q-3 -4 -19 -19t-46.5 -38t-64.5 -44.5t-76.5 -36.5t-79.5 -15q-29 0 -61 12t-46 33q-109 -64 -184 -64q-51 0 -98.5 29.5t-57.5 77.5q-12 37 8 78q14 37 59 72.5t85 35.5q10 0 14 -2q35 -6 35 -47q-3 -53 -43.5 -86.5t-85.5 -38.5
q-22 0 -31 6q3 -34 40 -57t75 -23q63 0 157 54q-16 42 5 82q17 40 57 67t82 27q31 -9 31 -45q-1 -47 -37 -76t-76 -33h-8q-11 0 -15 2q7 -23 33 -41q23 -18 62 -18q62 0 135 47q30 17 60.5 40t45.5 37l15 15q9 6 16 6q10 0 16 -6zM446 244q-14 0 -41 -18.5t-40 -45.5
q2 0 10 -4q23 0 47 21q24 18 24 47zM57 190q-4 -8 -4 -10q9 0 17 -4q23 0 59 23q31 28 31 61q-29 0 -57.5 -21.5t-45.5 -48.5z" />
    <glyph glyph-name="i.alt1" horiz-adv-x="126" 
d="M6 -10q-11 51 10 164.5t37 167.5q4 16 21 16q1 0 3 -1t3 -1q9 -1 13.5 -9.5t2.5 -17.5q-19 -71 -37 -170.5t-10 -138.5q2 -9 -3.5 -17.5t-14.5 -9.5h-4q-18 0 -21 17zM66 395q-2 3 0.5 6t5.5 2l12 -4q6 0 6 2l8 13l4 2q7 0 7 -6v-15q0 -4 4 -4l12 -4q3 -1 4 -3.5t0 -4.5
t-4 -2l-12 -4q-4 -4 -4 -6v-15q0 -3 -4 -4t-7 2l-8 10q0 2 -2 2.5t-4 -0.5l-12 -4q-3 -1 -5.5 2.5t-0.5 6.5l8 12q3 3 0 6zM86 391l-2 -2l4 -4q0 -2 -2 -4l-2 -4q0 -2 2 -2l6 2l4 -6q4 0 4 2v6l6 2q2 0 2 2t-2 2l-6 2v6q0 2 -4 2l-4 -6z" />
    <glyph glyph-name="b.alt" horiz-adv-x="1845" 
d="M23 -266q-9 0 -16 6.5t-7 15.5q0 303 94 756q13 62 27.5 125.5t26 109t21 82t14.5 55.5l5 19q2 6 8 11.5t13 5.5q1 0 3 -1t3 -1q20 -7 16 -27q-1 -1 -14.5 -49t-36.5 -144.5t-43 -195.5q-30 -139 -53 -293q30 43 61 82.5t78 80t80 40.5h6q33 -5 49 -37q32 -68 -8 -182
q12 5 74 30q59 51 148 76t178 25q118 0 245 -43q94 -25 147.5 -38t136.5 -26.5t148 -13.5q269 0 375 221q6 12 21 12q6 0 10 -2q17 -10 10 -31q-124 -245 -418 -245q-67 0 -151.5 14t-140.5 28t-148 40q-37 9 -72 18q-85 23 -163 23q-39 0 -76 -5t-66 -13.5t-54.5 -18.5
t-44 -19.5t-31.5 -18t-20 -13.5l-7 -5q-2 -1 -20.5 -8.5t-48 -20.5t-58.5 -28q-16 -35 -37 -70.5t-51 -77.5t-65.5 -68t-68.5 -26q-27 5 -36 39q-10 39 8 66q48 81 217 170q1 1 2 4t2 4q50 121 24 184q-7 11 -14 11q-6 2 -18.5 -3.5t-45.5 -35.5t-75 -82
q-23 -29 -46.5 -62.5t-35.5 -51.5l-12 -19q-29 -195 -29 -357q0 -9 -6 -15.5t-14 -6.5zM111 -68q29 0 73 56.5t72 105.5q-112 -68 -145 -123q-8 -16 -5 -30z" />
    <glyph glyph-name="c.alt" horiz-adv-x="1820" 
d="M82 8q12 -6 29 -6q53 0 159 60t152 106q134 92 313 92q104 0 250 -41q89 -23 142 -36t133 -25.5t143 -12.5q134 0 227 52t150 168q6 12 20 12q6 0 10 -2q8 -5 10.5 -14t-1.5 -17q-111 -232 -377 -244q-180 0 -469 76q-135 41 -238 41q-161 0 -286 -84q-100 -75 -140 -100
q-124 -74 -198 -74q-99 0 -109 111q-9 79 25 143q16 34 48 63t64 29q18 0 29 -8q23 -17 14 -55q-2 -8 -8.5 -13t-15.5 -4t-15 9.5t-4 17.5q2 4 2 10q-16 0 -32 -16q-31 -25 -50.5 -69.5t-13.5 -102.5q6 -56 37 -66z" />
    <glyph glyph-name="e.alt" horiz-adv-x="1865" 
d="M78 131h-10q-14 0 -23 6q6 -35 41.5 -58.5t73.5 -23.5q68 0 156 52.5t149 113.5q131 94 305 94q119 0 246 -43q91 -24 147 -37.5t138 -26.5t147 -13q269 0 375 221q6 12 20 12q6 0 10 -2q7 -3 10.5 -12.5t0.5 -18.5q-122 -245 -418 -245q-68 0 -151.5 13.5t-141.5 28
t-147 39.5q-12 3 -35.5 9.5t-36.5 9.5q-86 22 -160 22q-155 0 -280 -84q-13 -13 -40 -35.5t-76 -57.5t-108 -59t-110 -24q-52 0 -97 28.5t-59 76.5q-9 41 8 80q23 47 72 79q47 27 74 27q10 0 14 -2q33 -7 33 -47q-3 -54 -43 -87t-84 -36zM162 258q-24 0 -65.5 -28t-41.5 -50
q9 0 15 -6q34 0 61.5 25t30.5 59z" />
    <glyph glyph-name="g.alt" horiz-adv-x="2394" 
d="M1190 291q-75 23 -120.5 36t-109 24t-116.5 11q-216 0 -379 -190q-131 -146 -207 -258v-94q0 -202 -18 -334q-5 -37 -9 -61.5t-15.5 -64t-26 -65t-40 -47t-57.5 -26.5q-41 0 -69 24q-40 39 -42.5 122t33.5 192q56 165 199 368q-3 136 -6 205q-39 -75 -71 -111.5
t-62 -39.5q-36 0 -60 30q-44 68 15 172q28 49 72 85t85 36q27 0 27 -22h6q9 2 16 -4t7 -15v-4q1 -5 1.5 -12t0.5 -15q10 -112 12 -245q57 74 166 202q171 203 389 216q153 0 391 -72q184 -62 303 -62q79 0 160 25q32 11 59.5 26t39.5 24l12 9q6 6 14 6q11 0 16 -8
q6 -6 6 -15t-6 -15l-6 -4q-5 -4 -16 -11.5t-25 -16t-35 -18.5t-43 -18q-89 -29 -178 -29q-86 0 -180 25q-25 7 -70 20.5t-63 18.5zM70 27q24 0 77.5 90t53.5 114q-2 18 -2 31q-71 0 -131 -100q-46 -78 -17 -125q8 -10 19 -10zM213 -180q3 15 0 30q-105 -160 -158 -305
q-35 -118 -32 -179.5t30 -88.5q10 -10 29 -10q25 0 49 24q19 18 35.5 61.5t31.5 165.5t15 302z" />
    <glyph glyph-name="h.alt" horiz-adv-x="1961" 
d="M20 -131q-20 3 -20 22q0 303 94 756q20 100 43 196.5t36.5 145t14.5 49.5q1 7 8 12t15 5h4q21 -7 14 -29l-5 -19q-5 -19 -14.5 -55t-20.5 -81t-25 -107.5t-27 -124.5q-54 -252 -78 -483q41 116 91 139q13 8 32 8q22 0 37 -10q50 -26 90 -109q15 -32 27.5 -48t30.5 -19
q2 0 5 -1t5 -1q57 0 186 108q117 94 301 94q90 0 178 -24q13 -3 36 -9.5t36 -9.5q267 -77 430 -77q133 0 226.5 52t150.5 167q3 12 18 12q7 0 11 -2q9 -3 12 -12.5t-2 -16.5q-115 -233 -385 -245q-77 0 -164.5 12.5t-147.5 26.5t-161 40q-14 3 -38 10t-32 9q-87 22 -170 22
q-82 0 -160 -24q-33 -11 -60.5 -26t-38.5 -24l-11 -10q-145 -116 -217 -116q-13 0 -19 2q-30 7 -49.5 30t-38.5 62q-31 69 -69 88q-6 4 -17 4q-18 0 -37 -25t-33 -62.5t-23 -65t-13 -46.5l-33 -170q-3 -20 -23 -20z" />
    <glyph glyph-name="i.alt" horiz-adv-x="1748" 
d="M1737 399q17 -10 10 -30q-116 -232 -385 -244q-111 0 -220 20.5t-253 59.5q-13 3 -70 18q-88 23 -164 23q-70 0 -156.5 -24.5t-127.5 -65.5q-142 -142 -269 -164q-4 0 -11 -1t-11 -1q-39 0 -62 28q-34 45 -4 152q6 22 14.5 45.5t13.5 36.5l5 12q6 12 21 12q6 0 10 -2
q8 -3 11 -11.5t-1 -16.5q-16 -34 -27.5 -72.5t-16 -75.5t8.5 -53q5 -10 25 -10q10 0 16 2q56 8 116.5 45.5t94 68.5t33.5 35q1 0 7 5t17 13t25.5 17t35.5 19t44 18q87 31 188 31q120 0 244 -43q94 -25 147.5 -38t136.5 -26.5t148 -13.5q269 0 375 221q6 12 20 12q7 0 11 -2z
M82 301q-12 0 -19 10q-5 7 -2.5 17t11.5 14l67 41q4 2 11 2q13 0 20 -10q10 -17 -8 -31l-68 -41q-4 -2 -12 -2z" />
    <glyph glyph-name="j.alt" horiz-adv-x="1632" 
d="M-39 311q-5 7 -3 17t9 14l70 41q4 2 10 2q11 0 21 -10q10 -16 -9 -31l-67 -41q-4 -2 -12 -2q-12 0 -19 10zM63 266q6 -6 13 -205q74 96 131 160q170 234 471 234q71 0 161 -14.5t138.5 -26.5t152.5 -39l25 -6q91 -23 170 -23t160 25q33 11 60.5 26t38.5 24l11 9q6 6 15 6
q11 0 16 -8q6 -6 6 -15.5t-6 -15.5q-46 -46 -136 -71t-167 -25q-86 0 -180 25l-23 6q-286 78 -440 78q-282 0 -438 -215q-107 -125 -164 -203q2 -53 2 -168q0 -197 -19 -336q-4 -29 -8 -49.5t-12 -55t-19.5 -59t-27.5 -48.5t-39 -37t-51 -13q-54 0 -84 44.5t-37 104.5
q-9 92 24 205q55 189 226 426l-13 256q0 9 6 16.5t15 8.5q9 0 15.5 -6t6.5 -15zM37 -176q0 19 -1 55t-1 53q-138 -201 -187 -364q-29 -100 -22 -186q9 -67 39 -97q17 -14 39 -14q27 0 49 22q82 82 84 531z" />
    <glyph glyph-name="l.alt" horiz-adv-x="1878" 
d="M1841 418q6 6 14 6q12 0 17 -8q6 -6 6 -15.5t-6 -15.5q-47 -47 -135 -71.5t-168 -24.5q-89 0 -180 24q-6 2 -18.5 6t-16.5 5q-270 71 -412 71q-274 0 -440 -217q-76 -76 -182 -144.5t-183 -68.5q-49 0 -80.5 31t-42.5 70.5t-12 89.5q-10 262 43 553q7 42 15 83t14.5 70
t12 52t8.5 35l3 12q7 18 25 14q7 0 12.5 -6.5t5.5 -14.5v-123q0 -9 -6 -15.5t-14 -6.5q-4 0 -12 4q-73 -356 -64 -657q5 -146 92 -146q70 0 191 82q32 22 64 48t54 46l23 21q175 233 471 233q66 0 146.5 -12.5t135 -25.5t144.5 -37q6 -1 17.5 -4.5t17.5 -4.5q87 -22 170 -22
q50 0 96 9t75.5 20t54 25t33 20.5t11.5 9.5z" />
    <glyph glyph-name="m.alt" horiz-adv-x="2289" 
d="M1726 317q-80 22 -129 34t-117.5 23t-125.5 11q-250 0 -430 -213l-4 -4q-72 -76 -144 -119t-158 -43q-44 5 -84 31.5t-57 48t-39 53.5q-9 13 -10 17q-20 -25 -35 -50q-23 -38 -36 -52.5t-29 -14.5q-12 -3 -25 10q-29 40 -49 76q-23 46 -35 55q-31 -10 -96 -127
q-17 -29 -34.5 -62t-26.5 -51l-9 -18q-6 -12 -20 -12q-15 0 -21 12q-30 64 11 238q8 36 19 74t17.5 59t6.5 22q7 17 20 17q1 0 4 -1t4 -1q9 -3 13.5 -12t1.5 -17q-64 -188 -66 -297q6 10 20.5 35.5t22.5 38.5q52 87 82 117t51 30t37 -19t37 -59q6 -9 17.5 -28.5t17.5 -28.5
q6 6 15.5 21t12.5 18q18 29 25 40t20.5 23.5t26.5 12.5q6 0 10 -2q14 -4 37 -37q15 -22 25 -35.5t29.5 -34t43 -32t50.5 -13.5q124 0 264 148q90 105 190.5 162t229.5 67q14 2 45 2q21 0 42 -1t46 -4.5t40.5 -5t45.5 -8t40.5 -8.5t45.5 -10.5t40.5 -10t45.5 -12t41 -10.5
q13 -3 37 -10t36 -10q91 -23 170 -23t160 25q32 11 60 26t40 24l11 9q7 7 14 7q11 0 17 -9q6 -6 6 -15t-6 -15q-46 -46 -136.5 -71.5t-167.5 -25.5q-86 0 -180 25q-13 3 -37.5 10t-36.5 10z" />
    <glyph glyph-name="n.alt" horiz-adv-x="2131" 
d="M31 -78q-15 0 -21 12q-31 67 8 232q30 118 45 149q7 15 21 15q1 0 4 -1t4 -1q8 -3 11.5 -11.5t0.5 -15.5q-63 -186 -63 -289q19 32 41 74q52 85 82 113t53 28q21 0 38 -16.5t42 -52.5q20 -28 31 -42.5t32 -36t43 -32.5t48 -12q39 0 79 17t79 49.5t64.5 58t57.5 61.5
q130 129 250 182.5t242 53.5q52 0 115 -11t97 -19.5t115 -31.5l105 -30q91 -23 170 -23q83 0 160 25q33 11 60.5 26t38.5 24l11 9q6 6 16 6q9 0 15 -6q13 -16 0 -33l-6 -4q-5 -4 -15.5 -11t-24 -15.5t-34.5 -18.5t-43 -18q-83 -27 -174 -27q-119 0 -291 53
q-81 23 -112.5 31.5t-93.5 19.5t-111 11q-232 0 -459 -224q-174 -198 -305 -198q-34 0 -63 11t-53.5 33.5t-41.5 42.5t-39 52q-14 22 -29 41l-14 12l-2 -1q-2 -1 -6 -4t-9.5 -8t-13.5 -14t-17.5 -21.5t-22.5 -32t-27 -42.5l-70 -127q-6 -12 -18 -12z" />
    <glyph glyph-name="q.alt" horiz-adv-x="1873" 
d="M43 -4q-36 9 -43 63q-3 93 51 144q59 59 187 59q9 0 14.5 -6.5t5.5 -15.5q-2 -9 -9 -15.5t-16 -5.5q-102 0 -151 -49q-40 -37 -37 -109q0 -18 8 -22q35 0 107 74q19 19 39 41.5t31 35.5l10 13q5 8 18 8q6 0 8 -2q17 -7 13 -25q-14 -69 -37 -200q66 59 133 118
q89 81 96 88q49 47 136 72t165 25q88 0 182 -25q57 -15 70 -18q94 -25 147.5 -38t136.5 -26.5t148 -13.5q269 0 375 221q7 10 18 10q9 0 13 -2q7 -3 10 -12t0 -16q-116 -234 -385 -246q-77 0 -165.5 13t-146 26.5t-161.5 40.5q-13 3 -36 9t-36 9q-92 25 -172 25
q-66 0 -147 -23t-119 -61q-7 -8 -18.5 -19t-22 -19.5t-29.5 -24.5t-31 -27q-126 -112 -176 -160q-40 -224 -57 -385v-41q1 -23 0 -47t-2 -43t-2.5 -33.5t-2.5 -23.5l-1 -9q-4 -18 -21 -18q-19 0 -22 16q-11 41 4 191q2 4 2 8q-11 118 -51 156q-23 20 -23 49q0 67 135 202
q6 38 17.5 98t15.5 81q-34 -40 -81.5 -78.5t-80.5 -38.5q-3 0 -7.5 1t-6.5 1zM166 -193q4 32 8 48q-78 -89 -78 -127q0 -9 6 -15q25 -22 39 -57q4 20 12 70.5t13 80.5z" />
    <glyph glyph-name="r.alt" horiz-adv-x="1849" 
d="M481 172q-4 -2 -6 -4q-65 -41 -137 -41q-97 0 -184 74q-34 -42 -65.5 -128t-43.5 -145q-6 -16 -27 -16q-18 3 -18 25l55 368q1 9 9.5 15t17.5 6q9 -1 14.5 -9.5t3.5 -17.5l-20 -137q25 57 57 86q6 6 15 6q8 0 16 -8l10 -10q11 -9 32 -23.5t44 -24.5q44 -18 82 -18
q52 0 113 33q112 227 380 239q184 0 474 -80q11 -3 22.5 -6t25 -6.5t21.5 -5.5q87 -22 170 -22q79 0 146.5 21.5t95.5 40t28 22.5q6 6 15 6q10 0 16 -9q7 -6 6.5 -15t-6.5 -15q-46 -46 -135 -71.5t-166 -25.5q-86 0 -180 25q-34 9 -72 18q-280 78 -422 78
q-138 0 -232.5 -50.5t-152.5 -168.5q-2 -4 -2 -6z" />
    <glyph glyph-name="s.alt" horiz-adv-x="1726" 
d="M1690 268q6 6 14 6q11 0 16 -8q6 -6 6 -15t-6 -15q-46 -46 -135 -71.5t-166 -25.5q-85 0 -182 25l-8 2q-270 70 -408 84q-66 4 -94 4q-170 0 -276 -68l-7 -4q-7 -3 -18.5 -8t-26.5 -12t-33 -16t-37.5 -19.5t-42 -22.5t-42.5 -24q-3 -2 -10.5 -6t-10.5 -6q21 -15 37 -31
q54 -54 33 -96q-22 -52 -94 -97q-35 -21 -60.5 -26.5t-68.5 -5.5q-62 13 -62 84q-3 74 137 172q-2 1 -6 4t-6 4q-69 45 -103 77.5t-30 67.5q7 55 83.5 110.5t133.5 57.5q37 0 60.5 -22t29.5 -62q3 -20 -18 -24q-9 -1 -16 4t-9 14q-9 45 -45 45q-40 0 -105 -46t-71 -83
q0 -14 29 -41q40 -31 86 -61q4 -3 13 -9.5t13 -9.5q27 18 37 23q27 16 56.5 32t55 29t44.5 22.5t34.5 16.5t16.5 8q115 74 295 74q47 0 102 -6q26 -2 56 -6t52 -7.5t57 -10.5l50 -10t55.5 -13t48 -12l52.5 -14l45 -11l8 -2q91 -23 170 -23t160 25q32 11 59.5 25.5t39.5 23
t12 10.5zM254 -41q9 22 -70 82q-133 -92 -133 -145q2 -35 27 -39q4 -2 14 -2q41 0 92 33.5t70 70.5z" />
    <glyph glyph-name="u.alt" horiz-adv-x="1927" 
d="M1915 442q20 -10 10 -30q-56 -117 -154.5 -179t-228.5 -65q-12 -2 -33 -2q-67 0 -154 14.5t-136 26.5t-150 39q-7 2 -33 9t-39 9q-92 25 -174 25q-153 0 -264 -84q-29 -37 -51 -61.5t-57.5 -58.5t-72 -51.5t-71.5 -17.5q-32 0 -59 19q-38 35 -55 78q0 -1 -1.5 -3.5
t-1.5 -3.5q-52 -98 -98 -116q-6 -4 -22 -4q-15 0 -21 4q-59 24 -47 139q1 14 3.5 29.5t5 27t4.5 21t3 15.5l2 5q7 17 25 17h4q8 -3 12.5 -11.5t1.5 -17.5q-11 -35 -16.5 -73.5t-1 -71t20.5 -39.5q2 -3 10 0q26 11 58 66.5t56 115.5q7 14 21 14q1 0 4 -1t4 -1q19 -8 12 -28
l-1 -3q0 -3 -0.5 -7.5t-1 -10.5t0 -14t1.5 -16.5t4.5 -18t8.5 -19t13 -19.5t18 -19q18 -11 33 -11q46 0 120 64t97 110q41 41 127 72q83 27 174 27q88 0 185 -25q8 -2 21.5 -5.5t25 -6.5t22.5 -6q94 -25 147.5 -38t136.5 -26.5t148 -13.5q265 0 375 221q6 12 21 12q6 0 8 -2
z" />
    <glyph glyph-name="x.alt" horiz-adv-x="1951" 
d="M272 18h11q37 0 76.5 19.5t67.5 43.5t57.5 58t41 50t21.5 31l2 3q147 228 405 240q14 2 45 2q22 0 44 -1t47.5 -4.5t43 -5.5t48 -8.5t43 -9t48 -11t43 -10.5t47.5 -12.5t44 -11.5q143 -41 238 -41q82 0 159 25q33 11 60.5 25.5t39 23t11.5 10.5q6 6 14 6q9 0 17 -8
q7 -6 6.5 -15.5t-6.5 -15.5q-47 -47 -133.5 -71.5t-165.5 -24.5q-93 0 -250 43q-89 24 -137.5 35.5t-125 24t-137.5 12.5q-266 0 -411 -219q-52 -92 -138.5 -159t-179.5 -67q-68 6 -129 64l-80 -113q-8 -8 -18 -8t-14 4q-6 5 -7 14t3 17l86 119q-54 71 -89 157q-3 8 0.5 17
t12.5 12q2 2 8 2q14 0 20 -14q35 -83 74 -137l103 141q10 10 18 10q4 0 12 -4q7 -6 9 -15.5t-3 -15.5l-108 -151q50 -50 106 -56z" />
    <glyph glyph-name="y.alt" horiz-adv-x="1994" 
d="M94 -43q-39 0 -67 43q-19 27 -24 62t0 63.5t15 57t17 41.5t10 18q7 10 18 10q9 0 13 -2q7 -4 9 -14t-3 -17q-3 -5 -7.5 -13.5t-13.5 -33t-13.5 -47.5t-1.5 -51t17 -49q14 -23 31 -23q12 0 27 8.5t33 27.5t31 33.5t34.5 44t29 40.5t27.5 41q40 61 60 84.5t37 23.5
q1 0 4 -1t4 -1q22 -6 25 -39l2 -36q3 -37 6.5 -104.5t5.5 -135.5q67 90 174 213q190 223 471 223q64 0 142 -12t128.5 -24.5t137.5 -35.5q140 -35 215 -35q80 0 161 25q32 11 59.5 26t38.5 24l11 9q7 7 16 7q11 0 17 -9q14 -14 -2 -30q-46 -46 -135 -71.5t-166 -25.5
q-87 0 -181 25q-91 26 -148.5 40.5t-140.5 28t-153 13.5q-261 0 -438 -207q-121 -135 -205 -256q0 -260 -19 -430q-4 -29 -7.5 -47.5t-11.5 -53.5t-18.5 -58t-25.5 -48.5t-36.5 -39t-47.5 -15.5q-4 -2 -10 -2q-36 0 -60 24q-41 38 -43 122.5t35 193.5q57 165 199 366
q-2 181 -15 316q-31 -40 -49 -72q-71 -103 -100 -137q-69 -78 -119 -78zM295 -709q82 82 82 562q-110 -167 -158 -306q-35 -117 -32 -180t30 -88q12 -12 29 -12q25 0 49 24z" />
    <glyph glyph-name="swash.bell1" horiz-adv-x="2680" 
d="M2771 209q6 -6 6 -15.5t-6 -15.5q-39 -39 -125 -67q-74 -29 -176 -29q-91 0 -182 24q-8 2 -32 9t-38 10q-94 25 -147.5 38t-136.5 26.5t-148 13.5q-249 0 -359 -189q13 9 17 9q3 0 6 -3q9 -5 7.5 -11.5t-7.5 -12.5l-6 -6h6q8 0 14.5 -4t5.5 -13q-3 -14 -26 -14
q-7 0 -37 6q4 -8 4 -12q0 -10 -6 -16q26 -7 47.5 -34.5t24.5 -76.5q3 -60 15 -83t36 -32q20 -7 20 -20.5t-22 -22.5q-46 -22 -135 -22q-88 0 -134 22q-14 6 -19.5 14t-1 16t18.5 13q24 9 36.5 32t15.5 83q3 49 23.5 76.5t47.5 34.5q-6 6 -6 16q0 6 4 14q-15 -6 -41 -6
q-22 0 -24 12q-1 9 4.5 13t13.5 4h6q-1 0 -1.5 1t-2.5 3.5l-4 5t-3.5 5.5t-1.5 5.5t1.5 5t5.5 4.5q17 0 29 -10q-105 184 -334 193q-107 0 -212.5 -20t-246.5 -58q-13 -3 -36 -9.5t-35 -9.5q-91 -24 -183 -24q-100 0 -174 29q-86 28 -125 67q-6 6 -6 15.5t6 15.5q8 8 19 8
q6 0 12 -6q0 -2 11.5 -10.5t39 -23t60.5 -25.5q81 -25 161 -25q77 0 168 23q57 15 70 18q290 80 473 80q255 -13 365 -209q118 196 366 209q183 0 473 -80q13 -3 70 -18q91 -23 168 -23q81 0 162 25q32 11 59.5 25.5t39 23t11.5 10.5q6 6 13 6q10 0 18 -8z" />
    <glyph glyph-name="swash.star" horiz-adv-x="2664" 
d="M2765 217q6 -6 5.5 -15.5t-7.5 -15.5q0 -2 -13 -12t-43.5 -26.5t-66.5 -28.5q-78 -29 -176 -29q-89 0 -183 25q-8 2 -21.5 5.5t-25 6.5t-22.5 6q-94 25 -147.5 38t-136.5 26.5t-148 13.5q-131 0 -223.5 -51t-149.5 -164q8 -12 8 -21q0 -17 -18 -28q-1 -1 -3 -4t-3 -4
q30 -12 57 -121h27q95 0 102 -25q10 -27 -96 -100q41 -114 16 -129q-8 -4 -12 -4q-33 0 -101 55q-68 -55 -100 -55q-4 0 -12 4q-24 17 16 129q-104 72 -96 100q8 25 102 25h27q26 106 57 121q-6 3 -6 10q-16 6 -16 26q0 12 6 21q-102 206 -344 215q-107 0 -212.5 -20
t-246.5 -58q-37 -9 -72 -18q-94 -25 -182 -25q-79 0 -165.5 24.5t-133.5 71.5q-6 6 -6.5 15.5t6.5 15.5q8 8 17 8q8 0 14 -6q0 -2 11 -10.5t38.5 -23t60.5 -25.5q81 -25 162 -25q77 0 168 23q57 15 70 18q290 80 473 80q254 -13 364 -209q118 196 365 209q111 0 220 -20.5
t253 -59.5q38 -9 72 -18q91 -23 170 -23q50 0 96 9t75.5 20t54 25t33 20.5t11.5 9.5q6 6 12 6q11 0 19 -8zM1395 -43q12 4 12 18q0 5 -4 13q-4 -2 -7.5 -4t-5.5 -3.5t-3 -2t-1.5 -1t-1.5 -0.5q-5 2 -8 3.5t-4 2.5t-2 1q-6 0 -6 -9q0 -11 10 -18q3 6 10 6q5 0 11 -6z" />
    <glyph glyph-name="swash.bell" horiz-adv-x="2662" 
d="M8 184q-17 14 -2 33q6 6 17 6q8 0 14 -6l5 -3q5 -4 14 -10.5t21.5 -14t31 -16t38.5 -15.5q81 -25 160 -25t170 23q35 9 72 18q285 80 444 80q268 0 393 -209q110 196 365 209q183 0 473 -80q12 -3 70 -18q91 -23 170 -23q82 0 159 25q33 11 60.5 26t38.5 24l12 9
q6 6 14 6q12 0 17 -8q7 -6 6.5 -15.5t-6.5 -15.5q-46 -46 -135 -71t-166 -25q-115 0 -252 45q-91 25 -145.5 38t-137 26.5t-147.5 13.5q-257 0 -367 -201q85 51 156 51q35 0 62.5 -14.5t27.5 -46.5v-8q0 -2 -1 -5t-1 -5q-1 -1 -2 -4.5t-2 -4.5q-1 -2 -3 -4.5t-3 -4t-2 -3.5
l-4 -3q-4 -3 -5 -5h-2q-4 -4 -12 -8q-24 -8 -57 -8q-49 0 -80 8l-8 4q3 -3 10 -8.5t10 -8.5q24 -22 39.5 -39.5t26 -31.5t14.5 -19q19 -19 38.5 -31t29.5 -14l10 -2l-19 -45q-44 19 -75 68q-57 98 -164 151q14 -10 14 -28q0 -7 -4 -19q57 -7 98.5 -53.5t46.5 -106.5v-28
q-74 -39 -178 -43q-97 0 -170 37q-2 4 -2 14q-3 65 41.5 115.5t110.5 64.5q-6 6 -6 19q0 17 12 26q-12 -5 -45 -22q-24 -16 -44.5 -38t-48.5 -61t-32 -45q-16 -20 -32 -33t-24 -16l-8 -4l-18 49q48 19 68 37q6 6 29.5 36t56.5 56q3 2 10 7.5t10 7.5q-14 -4 -47 -4
q-35 0 -55 8.5t-31 36.5q0 8 -2 12v10q1 3 2 8t2 8v-2q12 24 28.5 33.5t45.5 9.5q61 0 127 -47q-107 185 -334 197q-108 0 -212 -19.5t-249 -58.5q-133 -45 -250 -45q-89 0 -178 29q-36 13 -66.5 29.5t-43.5 26t-13 11.5zM1360 -430q-56 8 -99.5 48t-52.5 95q74 -37 164 -37
q114 0 180 39q-9 -59 -53 -100t-104 -45h-19q-12 17 -12 45q3 0 6.5 1.5t8.5 9t1 18.5q-4 18 -22 18q-8 0 -15.5 -6.5t-7.5 -13.5q-3 -10 2 -18.5t13 -10.5q-3 -20 10 -43zM1413 -18q11 -4 19 -9q4 -2 16 -6q44 -18 90 -18q44 0 82 18q9 6 16 13q0 23 -22 34q-18 11 -39 11
q-71 0 -129 -27zM1153 -8q5 -19 41 -31q24 -4 37 -4q51 0 115 31q-11 6 -25 16q-48 29 -121 29q-28 -4 -39 -15q-5 -8 -8 -16v-10zM1354 -223q4 -23 26 -23q9 0 17.5 7t9.5 16q-1 9 -9.5 14.5t-17.5 5.5q-23 0 -26 -20zM1360 -59q0 -12 8 -17h27q8 5 8 17q0 16 -12 20
q-3 -10 -11 -10t-8 10q-12 -6 -12 -20zM1260 -188q-12 -6 -15 -19q0 -21 17 -24q12 8 12 18q0 18 -14 25zM1493 -203q0 -18 16 -18q13 3 13 18q0 17 -15 21q-14 -4 -14 -21z" />
    <glyph glyph-name="a.alt" horiz-adv-x="1970" 
d="M1964 408q6 -7 6 -17t-6 -16q-46 -46 -135 -71t-166 -25q-89 0 -180 24q-94 25 -148 37.5t-137 25.5t-151 13q-260 0 -429 -182q-11 -18 -26 -27q-181 -156 -275 -156q-31 0 -55.5 19t-30.5 49q-107 -76 -165 -76q-57 0 -66 60q-3 40 21 86.5t61 72.5q45 29 96 29
q33 0 68.5 -12t56.5 -33q15 -15 2 -31q-8 -8 -18 -8q-7 0 -13 6q-3 3 -13.5 10t-34.5 16t-48 9q-36 0 -72 -23q-28 -20 -46 -56t-15 -62q1 -11 10 -19q1 0 4.5 -1t6.5 -1q53 0 170 92q8 4 12 4q22 0 22 -22q0 -64 47 -64q83 0 258 154q101 105 204 155t237 56q190 0 477 -78
q87 -22 170 -22q50 0 96 9t75.5 20t54 25t33 20.5t11.5 9.5q6 6 17 6q8 0 14 -6z" />
    <glyph glyph-name="swash" horiz-adv-x="1363" 
d="M1456 207q14 -15 -2 -31q-46 -46 -135 -71t-166 -25q-115 0 -252 45q-95 25 -143.5 37t-132 25.5t-146.5 13.5q-137 0 -232 -50.5t-151 -168.5q-6 -13 -20 -13q-6 0 -10 2q-18 11 -11 29q115 234 385 246q183 0 473 -80q14 -3 38 -10t32 -9q87 -22 172 -22q79 0 146 21.5
t94.5 40t27.5 22.5q6 6 17 6q8 0 16 -8z" />
    <glyph glyph-name="swash.1" horiz-adv-x="1523" 
d="M8 215q9 6 17 6q10 0 16 -6q4 -3 11 -9t32 -20.5t53.5 -25.5t75 -20t96.5 -9q69 0 172 25q13 2 37.5 9t32.5 9q90 24 146 38t139.5 27t150.5 13q153 0 254.5 -56.5t167.5 -187.5q7 -21 -10 -31q-2 0 -5 -1t-5 -1q-12 0 -21 13q-101 209 -346 221q-107 0 -212.5 -20
t-246.5 -58q-25 -6 -71 -18q-97 -25 -185 -25q-82 0 -165 23.5t-132 72.5q-16 16 -2 31z" />
    </font>
</defs>
</svg>
