<?xml version="1.0" standalone="no"?>
<!DOCTYPE svg PUBLIC "-//W3C//DTD SVG 1.1//EN" "http://www.w3.org/Graphics/SVG/1.1/DTD/svg11.dtd" >
<svg xmlns="http://www.w3.org/2000/svg" xmlns:xlink="http://www.w3.org/1999/xlink" version="1.1">
<metadata>
Created by FontForge 20170731 at Mon Apr 11 06:01:22 2022
 By Aleksey,,,
Gosseliena Koplexs Studio
</metadata>
<defs>
<font id="GosselienaRegular" horiz-adv-x="0" >
  <font-face 
    font-family="Gosseliena"
    font-weight="400"
    font-stretch="normal"
    units-per-em="2048"
    panose-1="0 0 0 0 0 0 0 0 0 0"
    ascent="1638"
    descent="-410"
    x-height="502"
    cap-height="1339"
    bbox="-809 -393.5 3224.2 1550.57"
    underline-thickness="102"
    underline-position="-409"
    unicode-range="U+000A-F03C"
  />
<missing-glyph horiz-adv-x="1079" 
d="M102 1434h875v-1434h-875v1434zM160 1393l379 -633l381 633h-760zM514 717l-369 614v-1231zM541 674l-379 -631h758zM565 717l371 -621v1239z" />
    <glyph glyph-name="ar.liga" unicode="ar" horiz-adv-x="505" 
d="M519 458q4 -5 -1 -7q-85 -61 -104 -74q-7 -5 -24.5 -16.5t-27.5 -18.5q-8 -6 -55 -35q-9 -4 -31 -12q-6 -2 -8 -2q-6 -2 -8 -2q-4 0 -6 2q-2 0 -6 4q0 2 -2 4t-2 6q0 10 4 19q2 7 6 14q6 12 18 29q7 7 11 12l8 12q4 4 10 12q9 9 10 13q11 12 23 24l8 11l-4 4q-2 6 -2 10
q-6 -5 -12 -6q-4 -3 -14 -9.5t-15 -9.5q-47 -32 -78 -49q-27 -14 -45 -20q-12 -7 -22 -8q-4 -1 -9 -2.5t-8.5 -3t-5.5 -1.5h-14l-9 4l-2 3q-2 0 -2 2q0 1 -1 2.5t-2 2.5t-1 2q-2 4 -2 7q-2 6 0 14q0 13 6 25q0 2 1 3l1 1l-2 -1q-2 -2 -2 -3q-4 -3 -9.5 -7.5t-9.5 -7t-7 -4.5
q-12 -8 -27 -14q-7 -4 -14 -6q-9 -4 -19 -2q-2 1 -5.5 2.5t-4.5 1.5q-7 5 -8 10q-4 7 -4 21q0 18 10 35q5 12 16 28q7 11 21 25q4 4 12 10q5 5 7 6l2 2q3 1 5 2q21 14 33 15q9 4 19 2q9 0 22 -9l8 -8q0 -1 2 -4.5t3 -5.5l4 -12q0 2 2 2q5 7 14 16l2 2q10 10 21 0
q12 -10 2 -20v-2h-2q-7 -7 -15 -17l-16 -16q-12 -12 -17 -19l-12 -16q-16 -20 -22 -39q-4 -9 -2 -16l2 -2v-2h2l2 -2h10q11 0 22 4q4 2 12 4.5t11 3.5q16 7 41 20q21 12 76 50q11 7 26 22l17 16l12 17v2q5 5 6 8l4 4l2 2l2 2l2 2q12 12 24 0t-1 -24v-2h-2v-2q-2 0 -2 -2
q-3 -3 -4 -7q-4 -5 -4 -10v-3v-2l2 -2q1 0 2 -1l2 -2l4 -4q12 -11 2 -21l-4 -4q-9 -5 -25 -18q-8 -7 -22 -21q-2 -1 -6.5 -4.5t-6.5 -5.5l-11 -11l-10 -10l-11 -12q-19 -23 -19 -24q-4 -6 -6 -15q-4 -5 -4 -12v-2q0 -2 2 -2h2q4 0 14 2q4 2 14 6l15 6q12 5 27 15q12 5 28 16
q30 20 52 35q60 41 102 76q4 4 7 -1zM92 426q17 15 25 25l8 12q0 1 2 3l2 1q1 15 0 25q-1 2 -2.5 6t-1.5 5q-1 4 -5 6q-1 1 -3.5 1.5t-3.5 0.5q-3 1 -9 -1q-12 -4 -24 -12q0 -2 -4 -5l-6 -4q-3 -4 -9 -10q-9 -9 -18 -22q-10 -16 -14 -23q-2 -5 -6.5 -12.5t-6.5 -11.5
q-2 -6 -2 -9v-4l2 -2q4 -4 13 -2q4 0 12 2q4 1 27 13q12 8 24 18z" />
    <glyph glyph-name="al.liga" unicode="al" horiz-adv-x="618" 
d="M913 856q2 -2 2 -6v-2v-2l-2 -4q0 -1 -1 -3t-1 -3l-2 -2v-3q-11 -13 -14 -18q-9 -9 -16 -14q-4 -3 -9.5 -7t-13 -9t-12.5 -9q-23 -17 -70 -43q-59 -36 -145 -78q-42 -22 -76 -37q-8 -4 -26.5 -12.5t-28.5 -13.5q-89 -94 -123 -133q-31 -36 -62 -76l-6 -9l-6 -10l-12 -20
q-4 -11 -6 -20q-2 -12 2 -17q0 -2 5 -4q2 -1 5 -2t4 -2q8 -2 23 0q15 1 47 10q39 12 90 39q87 44 162 107q3 3 8 -1q5 -5 0 -10l-41 -28q-11 -10 -41 -27q-43 -29 -84 -51q-49 -24 -90 -39q-22 -9 -49 -14q-15 -1 -27 0q-4 0 -12 2q-11 5 -15 10h-2v2l-2 4q-4 5 -4 8v4v4
q-2 2 0 7q0 13 4 26l10 25q6 8 7 12l6 10q11 20 28 41q19 25 31 39q10 11 45 53q-148 -125 -157 -133q-16 -10 -21 -14q-14 -10 -22 -14q-8 -6 -11 -9q-6 -2 -12 -6q-4 -1 -9 -3.5t-9 -4t-7 -2.5h-16q-9 0 -16 5q-6 5 -11 16q-4 5 -4 14q-2 17 2 31q1 5 11 26q-3 -2 -8 -5.5
t-7 -4.5l-24 -18q-18 -12 -27 -17q-7 -4 -14 -6q-11 -2 -19 0q-7 0 -12 4q-5 5 -6 10q-4 7 -4 21t8 33q4 8 18 28q7 11 21 25q4 4 12 10l6 6l8 4q17 11 31 15q9 4 21 2q12 0 20 -8l8 -9q0 -1 1.5 -4.5t2.5 -5.5q0 -2 2 -6.5t3 -7.5q1 1 3.5 5t4.5 6q1 2 3.5 5t4.5 4h2
q10 12 21 2q12 -11 2 -22v0l-9 -8q-1 -1 -3.5 -5t-4.5 -6t-16 -18q-15 -21 -27 -41q-1 -2 -10 -23q-4 -9 -4 -20q0 -9 6 -14q2 -5 6 -5q6 -1 10 0q8 0 25 5l10 5q8 4 12 5q5 4 21 14q4 2 11 7.5t9 7.5q20 14 224 186h2q24 26 43 41q130 116 270 192q49 24 78 35q11 4 20 6
q11 4 23 4q6 0 12 -2q4 0 8 -4q4 -1 4 -8zM92 432q22 20 35 33v2v2q1 17 0 27q0 5 -2 11q-1 4 -5 6q-2 1 -7 1h-11q-9 -4 -22 -12l-4 -4l-2 -1q-1 -1 -4 -3q-5 -6 -11 -11q-5 -6 -16 -22q-3 -5 -16 -23q-4 -11 -11 -22q-2 -8 -2 -10v-4q0 -1 1 -1t1 -2q6 -2 13 -2q4 0 12 2
q12 5 27 15q12 8 24 18zM899 848v2v2h-2v2h-8q-13 -3 -19 -4q-2 -1 -18 -8q-29 -12 -72 -37q-58 -35 -133 -94q-8 -6 -19 -14.5t-14 -10.5l-32 -27q-20 -14 -31 -24q-1 -1 -4 -3.5t-8 -7t-9 -8.5q11 5 19 11q13 6 74 35q38 18 73 37q39 21 72 42q47 26 70 43q6 5 16.5 13.5
t13.5 11.5q10 7 17 14q2 2 3.5 5t3.5 6.5t3 5.5h2v2q0 2 1 3l1 1v2z" />
    <glyph glyph-name="am.liga" unicode="am" horiz-adv-x="714" 
d="M728 457q3 -4 -1 -8t-8 -7q-8 -6 -9 -7q-4 -3 -8 -5q-8 -6 -10 -6q-18 -15 -37 -23q-19 -11 -39 -16q-11 -5 -22 -6h-23q-26 5 -41 18q-16 15 -28 37q0 1 -1.5 4.5t-2.5 5.5t-2.5 6t-1.5 5t-2 4.5t-3 5.5q0 4 -2 10q-5 15 -6 21v6q-2 0 -3 -1l-3 -3l-2 -2q-2 -2 -8 -19
q0 -2 -1 -4.5t-2.5 -7t-2.5 -8.5q-7 -16 -10 -21v-2h-3q0 -2 -2 -4h-2l-1 -1l-1 -1q-4 -1 -8 0q-2 0 -4 2l-2 2v2q-2 2 -2 4q-2 0 -3 3q-1 2 -1 5q-3 17 -4 23q0 5 -0.5 9t-1.5 6v3q0 3 -2 9t-17 0l-16 -9q-17 -12 -31 -26q-10 -8 -29 -31v-2l-22 -33q-8 -8 -16 -2t-2 17
q11 15 28 43q-11 -11 -12 -11q-31 -26 -78 -49q-27 -14 -45 -20q-11 -7 -23 -8q-4 -1 -11.5 -3.5l-10.5 -3.5h-14l-9 4l-2 3q-2 0 -2 2q0 1 -1 2.5t-2 2.5t-1 2q-2 4 -2 7q-2 6 0 14q0 13 6 25q0 2 1 3l1 1h-2l-2 -4q-20 -14 -26 -17q-14 -11 -27 -16q-7 -4 -14 -6
q-9 -4 -19 -2q-2 1 -5.5 2.5t-4.5 1.5q-7 5 -8 10q-4 7 -4 23t10 33q5 12 16 28q7 11 21 25l12 12q1 0 2.5 1t2.5 2t2 1l2 2q3 1 5 2q19 13 33 17q11 2 19 0q9 0 22 -9l8 -8q0 -1 1.5 -4.5t2.5 -5.5l5 -12q0 2 2 2q5 7 14 16v2h2q10 10 20 0q12 -11 3 -20v-2h-3
q-2 -2 -14 -17l-16 -16q-12 -12 -17 -19l-12 -16q-16 -20 -22 -39q-4 -9 -2 -16l2 -2v-2h2l2 -2h10q11 0 22 4q4 2 12 4.5t11 3.5q16 7 41 20q30 16 78 50q20 14 33 26q4 6 6 15q2 3 4 7l3.5 7l3.5 7t3 7q5 10 16 5t7 -15q-2 -4 -8 -14.5t-9 -16.5l-1 -2l-1 -2q8 6 10 8
q7 7 17 15q11 8 18 12q4 1 4 4l6 2h7l4 2q3 0 4 -1l2 -1h4l4 -4q3 -3 4 -6l4 -12q3 -17 4 -23q2 -2 2 -14q1 3 4 6q8 13 10 19q5 13 9 20q1 2 3 5q2 4 3 5v3q0 1 2 1q0 2 2 2q1 4 8 4l2 2h4l2 -1q1 -1 3 -2l2 -1l1 -1l1 -1l2 -2v-2l2 -2q0 -1 1.5 -4.5t2.5 -5.5q4 -11 4 -13
l2 -8q0 -4 4 -18q8 -20 8 -21q5 -12 8 -16q5 -9 11 -16q16 -16 32 -17q17 -4 39 2q11 2 21 6q11 5 18 9q30 15 70 47q4 4 7 0zM92 426q17 15 25 25l8 12l2 4h2q1 15 0 25q-1 2 -2.5 6t-1.5 5q-2 5 -5 7q-4 2 -7 2t-9 -2q-12 -4 -24 -12l-4 -4q-4 -4 -6 -5q-6 -6 -9 -10
q-9 -9 -18 -22q-10 -16 -14 -23q-2 -5 -6.5 -12.5t-6.5 -11.5q-2 -6 -2 -9v-4l2 -2q4 -4 13 -2q4 0 12 2q12 5 27 15q13 7 24 16z" />
    <glyph glyph-name="an.liga" unicode="an" horiz-adv-x="673" 
d="M687 458q4 -5 -1 -10q-5 -3 -30 -19.5t-37 -23.5q-13 -7 -70 -36q-17 -10 -37 -15q-29 -8 -41 -8q-13 0 -22 4q-13 6 -19 19q-1 4 -6 10q-2 8 -2 12q-2 10 -2 21q0 20 4 41q0 5 0.5 9t1.5 6v3q0 2 2 4q-1 10 -18 4q-18 -9 -29 -16q-7 -3 -31 -21q-17 -12 -31 -26
q-4 -3 -12 -11l-8 -8q-21 -22 -37 -37q-4 -4 -8 1q-6 6 0 8v2q19 14 35 34q5 6 15 21t13 20l21 31l-21 -18t-20 -17q-38 -27 -80 -49q-27 -14 -45 -20q-12 -7 -22 -8q-4 -1 -9 -2.5t-8.5 -3t-5.5 -1.5h-14l-9 4l-2 3q-2 0 -2 2q0 1 -1 2.5t-2 2.5t-1 2q-2 4 -2 7q-2 6 0 14
q0 13 6 25q0 2 1 3l1 1l-2 -1q-2 -2 -2 -3q-20 -14 -26 -17q-14 -11 -27 -16q-7 -4 -14 -6q-9 -4 -19 -2q-2 1 -5.5 2.5t-4.5 1.5q-7 5 -8 10q-4 7 -4 21q0 18 10 35q5 12 16 28q7 11 21 25l12 12q1 0 2.5 1t2.5 2t2 1l2 2q3 1 5 2q19 13 33 17q11 2 19 0q9 0 22 -9l8 -8
q0 -1 2 -4.5t3 -5.5l4 -12q0 2 2 2q5 7 14 16v2h2q10 10 21 0q12 -10 2 -20v-2h-2q-7 -7 -15 -17l-16 -16q-12 -12 -17 -19l-12 -16q-16 -20 -22 -39q-4 -9 -2 -16l2 -2v-2h2l2 -2h10q11 0 22 4q4 2 12 4.5t11 3.5q16 7 41 20q42 22 78 50q25 18 69 61l13 18q4 10 14 5
q11 -6 4 -15v-2q-11 -16 -29 -41q-6 -12 -14 -20l25 20q11 11 16 15l16 12q2 1 6 2.5t5 1.5q5 4 12 4l2 2h2h4q4 0 10 -2l3 -3q1 -1 4 -1q0 -2 1 -2t1 -1t2 -3q0 -1 2 -5l2 -3q0 -5 2 -15v-10l-4 -20q0 -6 -4 -39q0 -2 -4 -17q0 -8 2 -16v-4l2 -2q1 -3 4 -6q8 -6 14 -7h10h4
h2h2l5 2h6q1 0 8 5q3 0 5 1t5 1l8 4l9 4l10 4q33 17 67 37q30 18 66 43q6 4 9 -1zM92 426q17 15 25 25l8 12q0 1 2 3l2 1q1 15 0 25q-1 2 -2.5 6t-1.5 5q-2 5 -5 7q-4 2 -7 2t-9 -2q-12 -4 -24 -12l-4 -4q-4 -4 -6 -5q-6 -6 -9 -10q-9 -9 -18 -22q-10 -16 -14 -23
q-2 -5 -6.5 -12.5t-6.5 -11.5q-2 -6 -2 -9v-4l2 -2q4 -4 13 -2q4 0 12 2q12 5 27 15q13 7 24 16z" />
    <glyph glyph-name=".notdef" horiz-adv-x="1079" 
d="M102 1434h875v-1434h-875v1434zM160 1393l379 -633l381 633h-760zM514 717l-369 614v-1231zM541 674l-379 -631h758zM565 717l371 -621v1239z" />
    <glyph glyph-name=".null" 
 />
    <glyph glyph-name=".null" 
 />
    <glyph glyph-name="nonmarkingreturn" horiz-adv-x="681" 
 />
    <glyph glyph-name="controlLF" unicode="&#xa;" 
 />
    <glyph glyph-name="controlCR" unicode="&#xd;" 
 />
    <glyph glyph-name="space" unicode=" " horiz-adv-x="548" 
 />
    <glyph glyph-name="exclam" unicode="!" horiz-adv-x="430" 
d="M370 662q9 -15 -5 -25h-3l-18 -12l-20 -11q-29 -19 -37 -26q-39 -24 -74 -53q-24 -22 -36 -32t-32 -32q-18 -17 -30 -33q-12 -14 -27 -37q-4 -6 -8 -3t-2 8q11 21 24 40l29 37q22 24 33 35l33 33q60 52 71 61q18 15 39 27q14 10 19 14q4 2 10.5 6.5t9.5 6.5q15 11 24 -4z
M48 352q12 -6 0 -24t-21 -12q-10 7 0 25q10 17 21 11z" />
    <glyph glyph-name="quotedbl" unicode="&#x22;" horiz-adv-x="106" 
d="M37 657q9 -9 10 -18q4 -9 2 -23q0 -9 -4 -18q0 -2 -2 -8q-2 -2 -2 -4l-2 -2l-2 -2q-4 -10 -14 -4q-8 5 -7 12l2 2v4l2 2v6q2 10 2 12q-1 2 -2.5 6t-1.5 5q-2 5 -6 6q-14 10 -4 24q11 15 25 5l2 -3zM92 641q2 -11 0 -23q-2 -8 -6 -18l-4 -8q-2 -2 -2 -4l-2 -2l-2 -2
q-7 -9 -15 -2t-4 14v2l2 2v4q2 2 2 6q2 8 2 13t-2 9l-1 2q-2 3 -3 5q-15 12 -2 25t25 2q2 -2 2 -4h2q7 -12 8 -21z" />
    <glyph glyph-name="quotedbl" unicode="&#x201d;" horiz-adv-x="106" 
d="M37 657q9 -9 10 -18q4 -9 2 -23q0 -9 -4 -18q0 -2 -2 -8q-2 -2 -2 -4l-2 -2l-2 -2q-4 -10 -14 -4q-8 5 -7 12l2 2v4l2 2v6q2 10 2 12q-1 2 -2.5 6t-1.5 5q-2 5 -6 6q-14 10 -4 24q11 15 25 5l2 -3zM92 641q2 -11 0 -23q-2 -8 -6 -18l-4 -8q-2 -2 -2 -4l-2 -2l-2 -2
q-7 -9 -15 -2t-4 14v2l2 2v4q2 2 2 6q2 8 2 13t-2 9l-1 2q-2 3 -3 5q-15 12 -2 25t25 2q2 -2 2 -4h2q7 -12 8 -21z" />
    <glyph glyph-name="quotedbl" unicode="&#x201c;" horiz-adv-x="106" 
d="M37 657q9 -9 10 -18q4 -9 2 -23q0 -9 -4 -18q0 -2 -2 -8q-2 -2 -2 -4l-2 -2l-2 -2q-4 -10 -14 -4q-8 5 -7 12l2 2v4l2 2v6q2 10 2 12q-1 2 -2.5 6t-1.5 5q-2 5 -6 6q-14 10 -4 24q11 15 25 5l2 -3zM92 641q2 -11 0 -23q-2 -8 -6 -18l-4 -8q-2 -2 -2 -4l-2 -2l-2 -2
q-7 -9 -15 -2t-4 14v2l2 2v4q2 2 2 6q2 8 2 13t-2 9l-1 2q-2 3 -3 5q-15 12 -2 25t25 2q2 -2 2 -4h2q7 -12 8 -21z" />
    <glyph glyph-name="numbersign" unicode="#" horiz-adv-x="397" 
d="M336 615q4 -16 -14 -21q-4 0 -16.5 -1.5t-20.5 -2.5l-37 -4l-12 -2q-9 -9 -15 -19q-6 -8 -8 -10q37 6 66 12q18 5 21 -13t-13 -22h-2q-33 -4 -72 -6q-14 -2 -20 -2q-11 -18 -13 -22q-6 -12 -6 -21v-2q0 -4 -6 -4t-6 6q0 11 6 27q2 7 6 14h-35h-55q-2 -6 -6 -12
q-1 -2 -10 -23q-1 -4 -3.5 -11.5l-3.5 -10.5v-2q0 -4 -6 -4q-4 0 -4 6q-2 11 4 27q1 9 8 26l1 2l2 4q-29 6 -35 8l-4 2l-2 1q-3 0 -5 2l-4 2q-4 1 -4 4q-3 3 -7 9q-3 4 -3 11q0 4 6 4q5 0 6 -4q0 -5 6 -10q4 -5 15 -6q11 -4 33 -4h3h1q8 14 12 24q0 2 6 17q-14 1 -27 8
q-12 5 -18 10q-5 5 -6 10q-2 8 -2 12q0 5 6 5t6 -4v-2q0 -2 2 -6q1 -2 4 -5q1 0 13 -8q11 -4 30 -4q1 1 3 5q0 1 0.5 2.5t1.5 2.5t3 4q8 19 25 48q7 16 23 8q14 -7 6 -25v-2q-8 -10 -29 -43q11 0 43 2q16 1 47 8q1 2 2.5 4.5t2.5 4.5l1 2q24 36 29 43q10 14 25 4
q14 -10 4 -25h-2v-2q-3 -4 -10 -12.5t-11 -12.5l17 5q26 5 34 8q18 5 23 -14zM201 578l1 1q1 1 1 3q-22 -2 -29 -2h-55q-2 -3 -7.5 -11t-7.5 -12q-6 -10 -10 -14q13 0 45 2q19 1 47 6q2 4 7 13t8 14z" />
    <glyph glyph-name="dollar" unicode="$" horiz-adv-x="485" 
d="M422 782q4 -4 2 -8l-43 -47l4 -12v-17q0 -15 -4 -30q-5 -16 -10 -29q-2 -6 -8 -16t-7 -13q-9 -12 -22 -24h-2q-12 -11 -23 2q-10 12 4 22q2 2 4 2q5 2 9 6q2 0 10 9q11 11 16 20q9 15 13 27l1 4q2 4 3 7q2 10 2 13q2 10 2 15l-2 2l-140 -158q-4 -27 -12 -55
q-14 -40 -22 -56q-15 -27 -33 -51q-14 -14 -21 -22l-10 -11l-10 -10q-13 -9 -25 -16q-13 -9 -28 -14q-15 -3 -17 -3q-7 0 -16 7q-3 0 -4 4l-23 -29q-4 -4 -8 0t0 8l25 29q-6 8 -7 14q0 3 -1 8.5t-2 7.5q-1 5 -1 15q0 17 4 30q2 6 11 29q6 16 16 27q11 16 25 23q6 5 16 6
q10 2 18 2q16 2 18 -15q1 -16 -15 -16h-7q-6 2 -8 2l-12 -4q-10 -1 -21 -12q-1 -1 -2.5 -3t-3 -4.5t-2.5 -3.5q-2 -2 -8 -10q-5 -6 -6 -12l-4 -12q-1 -3 -2.5 -8.5t-1.5 -6.5v-6l-2 -6q0 -13 2 -29l4 -8l158 182q2 6 5 18.5t5 20.5q5 15 10 34t6 22q1 1 6 14q6 12 8 14
q6 13 17 25l6 6l4 6l6 4v2l4 4q7 5 23 19q12 10 26 16l7 2q2 0 2 2h2l4 2l2 1q1 1 4 1q6 2 8 2q9 0 17 -2q5 -1 10 -6l41 47q2 4 6 0zM170 459q10 25 16 45l-145 -168l2 -2q4 -4 12 -4q5 0 13 2q6 2 12 6l10 8q11 7 23 19q15 15 32 43q14 21 25 51zM236 578l131 149
q-3 3 -7 4t-10 0h-6l-6 -2l-4 -2h-2q-2 0 -2 -1l-2 -2q-1 -1 -4 -1l-13 -6q-3 -1 -10 -8q-8 -7 -20 -19q-13 -15 -17 -22q-3 -3 -4 -6q-2 -7 -4 -7q-4 -9 -4 -14q-2 0 -6 -12l-2 -13z" />
    <glyph glyph-name="percent" unicode="%" horiz-adv-x="417" 
d="M352 709q12 -13 0 -25h-2l-340 -313q-4 -4 -8 0t0 8l326 330q12 12 24 0zM143 598q-7 0 -11 4q-6 6 -8 11q-3 8 -3 16q0 15 6 22q6 8 15 8q10 0 16 -8q6 -7 6 -21t-6 -23t-15 -9zM207 436q-4 0 -10 2q-5 2 -8 6q-2 3 -4 11q-1 4 -1 12q0 12 6 21q7 10 17 10q7 0 11 -4
q6 -6 7 -12q2 -10 2 -15q0 -13 -6 -22t-14 -9z" />
    <glyph glyph-name="ampersand" unicode="&#x26;" horiz-adv-x="1443" 
d="M1382 1030q2 -50 -12 -92q-24 -86 -86 -160q-27 -29 -65 -61q-32 -27 -76 -51q-16 -9 -41 -21q-2 0 -21 -8l-10 -4l-10 -4l-10 -4l-7 -2l-4 -2l-22 -7l-21 -6l-12 -4q-2 0 -5 -1q-2 -1 -4 -1h-1q-55 -13 -129 -20q14 -65 6 -131q-1 -7 -2.5 -18t-1.5 -15q-5 -21 -10 -33
q-4 -11 -14 -33q-7 -15 -15 -28q-26 -37 -44 -55q-26 -26 -50 -42q-53 -35 -121 -53q-63 -19 -129 -20q-71 -2 -131 8q-62 11 -123 37q-33 12 -59 28q-34 21 -54 39q-26 22 -45 47q-20 27 -33 60q-6 14 -10 30t-6 35q-2 20 -2 33q0 11 2 33q5 71 31 131q17 34 35 57
q18 28 45 51q23 21 55 39q29 20 59 29q66 24 131 25q33 1 68 -5q41 -5 66 -14q7 -3 30 -14q11 -5 31 -19q10 -8 16 -14q0 6 2 16l5 33l8 29q8 29 24 59q3 8 15 27q3 7 16 27q16 26 39 49q22 27 45 45q18 14 53 32q29 15 60 23q13 4 30 4q20 2 31 2t31 -2q19 -2 31 -6
q18 -6 28 -16q12 -15 12 -33q2 -14 -4 -31q-4 -12 -12 -29q-5 -11 -16 -26q-7 -11 -19 -25q-18 -20 -45 -43q-18 -15 -49 -37q-25 -15 -57 -28q-17 -6 -23 10t10 22h2q6 1 28 8q3 1 28 11q25 11 50 30q28 21 44 37q17 18 37 48q8 16 12 26q4 13 4 27l-4 12q-1 6 -6 12
q-9 9 -25 13q-12 5 -26 6q-9 0 -29 -2q-22 -3 -57 -13q-30 -12 -51 -26q-31 -19 -48 -33l-20 -20q-4 -3 -20 -21q-21 -24 -35 -45q-38 -56 -54 -102q-7 -17 -8 -29q-4 -15 -6 -27q-4 -15 -4 -28v-29q4 -9 -8 -14q-8 -1 -12 6v2q-12 22 -41 39q-12 8 -25 14q-13 5 -29 10
q-59 18 -121 17q-28 -1 -61 -8q-27 -5 -57 -17q-38 -14 -56 -24q-25 -15 -49 -36q-23 -20 -41 -44q-9 -13 -30 -53q-25 -54 -31 -117l-2 -8v-9q0 -3 -0.5 -6.5t-0.5 -5.5l-1 -2v-31q4 -31 12 -59q7 -26 26 -55q17 -26 40 -47q43 -43 104 -70q60 -26 121 -33q59 -10 127 -4
q66 6 123 27q65 22 110 55q20 15 45 40q20 20 37 48q32 54 39 113q6 55 -6 123v2h-14h-88q-15 1 -50 3q-20 1 -41 1q-38 2 -43 2q-21 0 -43 -2l-20 -4l-6 -2l-2 -1l-2 -2h-2l-2 -2l-4 -2h-1q-1 0 -1 -2h-3l-2 -1q-2 -2 -2 -3l-6 -6q-1 0 -6 -6l-2 -4t-2 -3l-1 -2
q-2 -2 -3 -9v-5v-4q-1 -10 0 -20q2 -11 6 -17q6 -10 11 -14q8 -6 15 -9t15 -3l6 2l8 2h2l2 2l5 2l4 2l4 4q14 10 24 -3t-4 -23v-2q-5 -2 -12.5 -6.5t-11.5 -6.5q-4 0 -13 -4h-14q-14 0 -29 6q-12 6 -20 19q-13 13 -16 21q-6 16 -7 24q-1 12 0 26q1 9 9 25l1 1q1 2 2.5 4.5
t2.5 4.5l8 10q5 5 10 9q0 1 2 3l2 1l4 2l2 2l6 2l4 1q1 0 2.5 0.5t2.5 1.5l2 1l6 2q2 0 10 1.5t14 2.5q18 2 45 0q6 0 46 -2q114 -10 176 -8h20q5 5 8 6q10 0 15 -4q75 5 133 20l8 2q3 1 7 3t5 2l23 6l20 6h2l2 2l7 2l10 4l4 1q5 2 6 3l10 4q6 2 13 5t8 3q21 11 39 21
q38 22 71 49q34 28 62 64q9 10 25 34q3 5 22 37q19 38 31 82q4 22 6 41q1 22 0 43t-8 39t-21 31q-13 12 -1 24t26 2v-2q16 -18 24 -45q8 -24 8 -47z" />
    <glyph glyph-name="quotesingle" unicode="'" horiz-adv-x="71" 
d="M51 641q2 -11 0 -23q-1 -8 -6 -18l-4 -8q-2 -2 -2 -4l-2 -2l-2 -2q-6 -8 -17 -2q-7 6 -2 14v2v2q2 2 2 4q2 2 2 6q0 1 0.5 3t1 3.5l1 3t0.5 2.5t-0.5 3t-1.5 4.5t-1 3.5l-6 6q-12 13 0 25q13 13 25 2q0 -2 2 -4q9 -12 10 -21z" />
    <glyph glyph-name="quotesingle" unicode="&#x2019;" horiz-adv-x="71" 
d="M51 641q2 -11 0 -23q-1 -8 -6 -18l-4 -8q-2 -2 -2 -4l-2 -2l-2 -2q-6 -8 -17 -2q-7 6 -2 14v2v2q2 2 2 4q2 2 2 6q0 1 0.5 3t1 3.5l1 3t0.5 2.5t-0.5 3t-1.5 4.5t-1 3.5l-6 6q-12 13 0 25q13 13 25 2q0 -2 2 -4q9 -12 10 -21z" />
    <glyph glyph-name="quotesingle" unicode="&#x2018;" horiz-adv-x="71" 
d="M51 641q2 -11 0 -23q-1 -8 -6 -18l-4 -8q-2 -2 -2 -4l-2 -2l-2 -2q-6 -8 -17 -2q-7 6 -2 14v2v2q2 2 2 4q2 2 2 6q0 1 0.5 3t1 3.5l1 3t0.5 2.5t-0.5 3t-1.5 4.5t-1 3.5l-6 6q-12 13 0 25q13 13 25 2q0 -2 2 -4q9 -12 10 -21z" />
    <glyph glyph-name="parenleft" unicode="(" horiz-adv-x="458" 
d="M416 695q2 -6 -4 -7q-63 -23 -119 -57q-63 -39 -107 -82q-52 -50 -84 -100q-16 -25 -28 -58q0 -1 -1 -3l-2.5 -5t-2.5 -6q0 -3 -1 -5l-1 -3v-3v-6q-5 -13 -5 -28v-2q0 -17 -17 -17t-17 17v2q0 4 0.5 8t1 6.5t0.5 3.5v2l2 6l2 11l2 6v2l2 8q6 15 6 18q21 42 35 62
q38 54 94 102q50 43 111 78q58 31 125 55q6 0 8 -5z" />
    <glyph glyph-name="parenright" unicode=")" horiz-adv-x="466" 
d="M386 713q17 0 17 -17v-2q0 -5 -0.5 -9t-0.5 -7l-1 -2v-4q0 -4 -2 -6l-2 -9v-6l-2 -2q0 -3 -1 -5t-1 -5q-1 -3 -2 -5.5t-1.5 -4.5t-1.5 -3.5t-1 -2.5q-13 -33 -35 -62q-39 -55 -92 -102q-50 -43 -113 -78q-61 -35 -124 -55q-6 -2 -8 3t3 7q63 24 121 59q63 42 105 82
q51 45 86 101q15 25 28 57q0 3 4 14q0 2 2 4q1 1 1 3t1 4l1 4q2 20 2 30v2q0 17 17 17z" />
    <glyph glyph-name="asterisk" unicode="*" horiz-adv-x="86" 
d="M66 662q6 0 6 -8q0 -7 -6 -7h-9l6 -6q4 -4 0 -8q-2 -2 -5 -2t-5 2l-6 6v-10q0 -6 -7 -6t-7 6v10l-6 -6q-2 -2 -4 -2q-3 0 -5 2q-5 4 0 8l7 6h-11q-6 0 -6 7q0 8 6 8h11l-7 6q-6 4 -1 9t10 1l6 -6v8q0 6 7 6t7 -6v-8l6 6q4 4 9 -1t1 -9l-6 -6h9z" />
    <glyph glyph-name="comma" unicode="," horiz-adv-x="77" 
d="M37 459q2 -12 -2 -21q-1 -8 -6 -18q-3 -3 -4 -6q-2 -2 -2 -4l-3 -2l-2 -3q-6 -6 -12 0q-4 1 -4 7v6v2v2v2q2 2 2 6v11q0 7 -4 8q0 3 -4 4q-21 12 -9 31q12 20 29 10q8 -6 9 -9l4 -4q7 -12 8 -22z" />
    <glyph glyph-name="period" unicode="." horiz-adv-x="65" 
d="M7 506q10 0 16 -10q6 -11 6 -25q0 -15 -6 -24t-16 -9q-9 0 -15 9t-6 24q0 14 6 25q6 10 15 10z" />
    <glyph glyph-name="slash" unicode="/" horiz-adv-x="475" 
d="M424 725q12 -13 0 -25h-2l-391 -354q-4 -4 -8 0t0 8l376 371q13 13 25 0z" />
    <glyph glyph-name="zero" unicode="0" horiz-adv-x="370" 
d="M369 707q0 -5 -2 -19q-1 -6 -7 -16q-14 -31 -32 -58q-34 -51 -82 -102q-22 -24 -45 -45q-43 -38 -49 -43q-23 -18 -56 -39l-14 -7t-16 -7q-4 -1 -11 -2.5t-8 -1.5q-11 0 -20 4q-2 1 -6 2.5t-5 1.5q-6 5 -9 10q-4 8 -5 12v11q0 6 2 20q0 1 1.5 7.5t2.5 10.5q5 12 17 31
q6 14 16 29q19 28 39 53q13 17 43 51l47 47q22 20 49 43q14 9 28 20q12 9 27 17q17 11 31 15q9 4 19 4q6 2 12 0q7 0 12 -4q12 -6 4 -19l-4 -4q4 -1 10 -5t7 -9zM356 690q2 10 2 15q-1 5 -6 10l-12 4q-6 0 -6 6l2 2h-2h-2h-4q-8 0 -13 -4q-14 -5 -24 -14q-3 -2 -8 -5.5
t-10 -6.5t-9 -5q-9 -9 -24 -20q-48 -42 -90 -86q-55 -60 -82 -99q-19 -27 -31 -53q-4 -7 -6 -14q-2 -8 -2 -11q0 -4 2 -10l2 -2l2 -2q8 -2 12 -2q2 0 12 2q5 2 14 6t13 5q30 15 53 32q18 14 51 41q40 35 48 43q27 27 43 47q16 17 38 49q16 22 19 29q12 24 14 29q4 7 4 14z
" />
    <glyph glyph-name="one" unicode="1" horiz-adv-x="473" 
d="M467 750q11 -12 0 -23l-2 -2q-37 -39 -90 -90l-14 -14q-1 -1 -7 -7.5t-9 -9.5q-6 -5 -15 -14l-45 -43q-20 -19 -52 -48t-43 -40q-16 -13 -40.5 -35t-34.5 -31h2q3 -2 7 -3.5t6.5 -3t5 -2.5t3.5 -1q9 -4 21 -4h22q10 1 25 6q5 2 6 -4q2 -7 -4 -8q-3 -1 -11 -3.5t-12 -4.5
q-6 -1 -14.5 -2.5t-11.5 -1.5q-8 -1 -27 1l-24 9q-3 1 -8.5 2.5t-6.5 1.5q-4 -1 -8 0v2q-14 2 -20 2q-7 0 -23 -2q-9 -2 -20 -6h-3q-7 -2 -12 2q-7 5 -8 10q-5 18 12 23h2q5 0 10 1l10 2t7 1q11 0 27 -2q5 -1 26 -7q1 0 3 -1t3 -1l72 80q12 14 42.5 45t45.5 47l45 47l20 20
l25 26q33 30 35 32l-10 -2l-43 -14l-43 -14q-7 -2 -8 4q-2 7 4 8q13 1 45 10q16 5 41 17q24 7 41 20q2 0 4 2q18 18 26 25v2q15 10 25 -4z" />
    <glyph glyph-name="two" unicode="2" horiz-adv-x="540" 
d="M530 696q7 -14 7 -26q0 -14 -5 -27q-1 -11 -10 -25q-10 -17 -28 -38q-16 -16 -35 -31q-32 -28 -76 -55q-4 -2 -17.5 -10t-21.5 -13q-20 -10 -41 -22q-35 -17 -82 -35q16 -2 17 -2q16 -2 46.5 -7.5t45.5 -7.5q5 -1 27 -5q15 -3 33 -6q4 -1 10.5 -2t11 -2t8.5 -1
q16 -1 13 -20q-3 -17 -19 -13h-4q-39 18 -84 33q-46 12 -88 18l-41 4q-36 -12 -66 -20q-26 -9 -45 -10q-24 -6 -45 -6h-12q-7 0 -13 2q-2 0 -8 2q-2 0 -4 2q-3 3 -4 6q0 2 2 8q0 2 2 4q3 3 6 4q5 5 10 6l13 4q5 1 22 7q6 0 21 1.5t24 2.5q30 2 47 2h19q19 7 43 18
q43 19 80 39q42 23 76 47q47 31 71 53l33 29q17 18 27 33q13 19 14 33q2 9 -1 16q-3 8 -11 16q-5 5 -15 13q-11 6 -19 9q-11 4 -21 5q-11 1 -21 0q-20 -1 -43 -12q-21 -12 -35 -25q-31 -27 -53 -69q-11 -21 -15 -39q-2 -14 -2 -21q0 -8 2 -18q5 -17 -12 -22q-16 -4 -22 12v4
v2v12q2 10 2 14q1 10 8 23q6 19 20 43q28 41 64 69q20 18 39 25q12 7 22 8q10 4 23 6q26 2 47 -4q10 -1 22 -8q13 -5 23 -12q9 -6 18 -21zM125 401q2 2 6 2l4 3q-37 0 -78 -9q-9 -1 -20 -6q-17 -6 -19 -8h21q18 1 43 8q28 6 43 10z" />
    <glyph glyph-name="three" unicode="3" horiz-adv-x="473" 
d="M467 716q4 -8 4 -20q0 -11 -4 -18q-2 -11 -8 -19q-11 -12 -27 -24q-24 -18 -63 -39q-20 -10 -66 -27q-6 -5 -16 -6q-6 -4 -17 -6q6 -4 11 -6q13 -7 20 -12q9 -9 14 -21l2 -6l2 -6q0 -1 1 -3.5t1.5 -4.5t0.5 -4q0 -1 -3 -25q-5 -26 -16 -47q-23 -46 -65 -72
q-22 -12 -45 -18q-11 -4 -25 -6h-25q-53 2 -90 28q-9 5 -18 16q-2 2 -8 8.5t-9 10.5q-11 20 -16 45q-4 22 4 48q7 22 27 42q18 20 39 31q20 10 47 16q17 6 21 -10t-13 -22h-2q-15 -1 -43 -9q-14 -6 -19 -9q-9 -5 -16 -11q-6 -6 -14 -16q-3 -3 -10 -18q-6 -12 -7 -19
q-2 -11 0 -23q5 -45 43 -72q16 -11 39 -16q21 -4 43 0l21 4l20 8q15 6 37 21q22 16 33 26q19 17 29 31q15 17 22 37l4 21q0 11 -4 18q0 5 -4 10q-2 2 -2 4q-3 0 -4 4q-8 6 -19 11q-7 4 -20 4q-8 1 -18 0h-5q-12 1 -10 12q0 8 8 10q17 1 35 8q24 6 35 9q44 14 66 24q6 3 16 9
t14 8q18 8 29 18q18 13 25 23q7 8 8 14q5 8 3 16l-3 15q-4 7 -11 12q-9 9 -28 14q-22 2 -35 2q-15 -1 -33 -8q-36 -11 -59 -31q-27 -24 -33 -53q-1 -15 -19 -14q-19 2 -14 20v4q7 18 23 35q4 3 10 8t11 9l10 8q29 20 67 28q23 5 37 5q24 2 37 -2q19 -4 35 -17q7 -6 12 -15z
" />
    <glyph glyph-name="four" unicode="4" horiz-adv-x="370" 
d="M365 676q13 -13 -2 -25q-16 -13 -47.5 -37.5t-45.5 -35.5q-26 -21 -84 -70l17 -8q7 -2 3 -7t-9 -4q-8 6 -19 11q-60 -52 -86 -76q-9 -9 -24.5 -22.5t-18.5 -16.5l-10 -10q-1 -3 -10 -10q-3 -3 -4 -7l-2 -2q-3 -3 -3 -4l-4 -4l-4 -6q-4 -6 -8 -3q-4 2 -2 9l4 6l4 6
q0 3 2 5l2 2q4 4 4 6l11 10q8 10 10 12q22 24 41 43q12 11 37.5 35.5t38.5 36.5q-14 2 -21 6l-28 4q-4 -2 -10.5 -4t-8.5 -3q-9 -4 -16 -5q-10 -2 -19 -2h-18h-4q-2 2 -4 2q-1 0 -3 2q-1 1 -1 3t1 3l1 1q1 1 1 2q2 2 5 3q6 5 16 6q10 2 19 2q18 1 38 0q5 1 11 7q8 4 28 20
q3 2 27 21q30 28 51 49q23 24 45 51q7 12 21 29l10 12q2 3 5.5 8t4.5 6q10 14 25 5q14 -8 4 -23q0 -2 -2 -2q-2 -5 -12 -15l-13 -12q-2 -1 -24 -24q-37 -35 -52 -48q-36 -32 -55 -47q-6 -6 -27 -20q-20 -14 -30 -19l16 -4l25 -8q2 0 2 1t2 3q23 22 86 79q10 9 41.5 37
t46.5 42q12 11 25 -2zM70 516q5 1 16 6h2h-22q-7 0 -17 -2q-3 0 -14 -4l-2 -2h4q9 0 16 1t17 1z" />
    <glyph glyph-name="five" unicode="5" horiz-adv-x="548" 
d="M545 716q8 -17 -8 -24h-2l-5 -2h-2h-2l-4 -2h-8l-16 -4q-11 0 -35 -2q-37 -2 -66 2q-31 0 -65 6q-48 7 -62 10l-69 -77q14 2 18 2q24 4 45 4h23q12 -1 24 -8q7 -1 13 -7q7 -7 8 -13q1 -3 2.5 -7t1.5 -6q0 -5 -2 -15q-1 -11 -8 -24q-3 -7 -11 -21q-5 -7 -12 -20
q-10 -14 -14 -19q-26 -30 -66 -63q-18 -15 -39 -27q-25 -14 -41 -20q-19 -9 -45 -14q-32 -9 -45 -9q-15 0 -24 4l-13 5q-4 3 -10 9q-4 4 -4 13q-2 8 -2 12q0 12 4 23q7 20 21 43q1 3 4.5 9.5t6.5 11.5q2 3 4.5 8t4 7.5t2.5 4.5q8 17 25 7q16 -9 6 -24q-1 -3 -4 -6
q-16 -12 -33 -30q-17 -17 -23 -35q-6 -10 -6 -19q-2 -12 3 -18q3 -5 16 -10q8 -2 20 0q15 1 41 10q15 6 39 20q21 13 35 25q20 15 35 27q35 27 63 57q7 8 18 20l11 13q13 18 18 35q4 9 2 16q-1 5 -10 12q-6 4 -18 6q-18 4 -21 4q-13 0 -45 -2l-20 -4q-16 -6 -21 -10h-2
q-11 -2 -12 10q-2 7 4 11l96 90q2 2 4 2h2q32 -4 64 -6q33 -1 63 0q37 0 64 4q16 1 31 6q6 0 16 2l6 2l4 2h2q18 8 25 -7z" />
    <glyph glyph-name="six" unicode="6" horiz-adv-x="397" 
d="M381 739q16 0 16 -18q-1 -16 -18 -14q-25 0 -70 -9q-31 -8 -65 -24q-37 -18 -62 -37q-30 -23 -57 -45q-29 -29 -49 -53q-23 -25 -41 -60l-15 -33q-4 -15 -2 -32q0 -9 5 -17q3 -3 4 -5t6 -7q16 -13 30 -14q17 -5 35 0q17 2 35 12q14 6 31 18q10 7 26 23q27 24 50 53
q1 2 4.5 7t5.5 8q1 1 4.5 6t5.5 8q12 22 19 31q8 16 14 30q6 19 0 31q0 1 -1 2.5t-2 2.5t-1 2q-2 3 -5 5q-2 1 -8 3q-2 1 -4.5 2t-3.5 1h-18l-17 -4q-19 -5 -33 -13q-18 -11 -28 -21q-12 -15 -16 -29q-6 -17 0 -29q6 -16 -11 -22q-16 -6 -22 10q-2 2 -2 6q0 9 2 25
q4 10 10 20q6 14 27 31q15 12 33 21q20 10 36 14l21 4q6 0 20 -2q3 0 9 -2q2 -1 5.5 -2.5t4.5 -1.5q7 -4 16 -15q7 -8 8 -20q2 -11 0 -23q0 -17 -8 -39q-7 -22 -16 -37q-4 -5 -10 -16q-9 -9 -13 -14q-27 -34 -58 -54q-33 -21 -69 -34q-28 -10 -39 -11q-21 -4 -39 0t-36 17
q-7 7 -7 8l-8 8l-2.5 5t-3 7t-2.5 7q-2 22 2 41q1 13 10 38q6 16 17 35l20 33q24 32 51 59q58 58 125 91q40 19 74 26q43 10 80 6z" />
    <glyph glyph-name="seven" unicode="7" horiz-adv-x="466" 
d="M463 717q7 -11 -4 -19l-8 -4q-41 -26 -56 -35l-63 -36q-90 -55 -123 -78q-2 -1 -29 -23h10q54 0 78 4q19 4 37 11q3 2 8 5.5t6 4.5q8 8 9 14q5 10 16 5q10 -4 6 -15l-2 -2q-7 -12 -16 -17q-7 -4 -21 -10q-13 -5 -41 -10q-27 -2 -80 0h-6h-6h-6h-6q-38 -30 -66 -63
q-24 -26 -43 -58q-10 -22 -14 -33q-6 -18 -6 -32q0 -9 -4.5 -14t-13.5 -4q-17 1 -17 20v4q9 21 18 37q1 2 21 32q4 5 13.5 16t18.5 21t17 19q13 13 53 51q0 1 2 3l2 1q-14 0 -36 -2q-9 0 -19 -2q-4 -1 -10.5 -2.5t-7.5 -1.5q-11 -2 -17 -6q-5 -2 -6 -6q-2 0 -6 -5
q-6 -11 -15 -3t-3 16q0 2 2 2q7 7 20 12q7 4 21 6l20 4h21h49q22 18 39 33q76 64 116 92l19.5 13t21.5 14q-33 -3 -67 -4l-84 -4l-43 -2h-21h-12q-5 0 -7 1t-5 1l-2 2h-2l-2 2v2h-2q0 2 -3 2v6q-4 16 13 18q10 1 16 -6q2 0 8 -2q18 -4 21 -4q16 -4 41 -4q39 -4 82 0
q37 1 82 10q6 2 18.5 5.5t18.5 5.5q18 11 36 18l2 2q13 7 19 -8zM131 696h4h-2v2h-2v-2zM139 690v-2v2z" />
    <glyph glyph-name="eight" unicode="8" horiz-adv-x="391" 
d="M381 741q7 -8 8 -20q2 -10 -2 -21q-1 -6 -8 -18q-8 -14 -10 -16q-21 -27 -56 -56q-26 -20 -63 -43q-21 -14 -33 -20h-1q-1 0 -1 -2q-7 -41 -16 -72q-12 -39 -29 -74q-6 -16 -18 -32q-20 -24 -27 -31q-17 -15 -37 -21q-21 -6 -43 0q-1 0 -4.5 1.5t-5.5 2.5l-2 3h-4l-4 4
q-11 8 -17 20q-6 10 -6 25q-1 10 0 22q4 21 16 41q12 18 25 33q24 28 59 51q29 20 68 39l10 4v3v3q1 17 8 41l7 19q1 2 3.5 9t4.5 10q1 2 3.5 8.5t4.5 9.5q8 14 10 16q9 16 23 33q14 16 26 26q21 14 35 19q22 6 39 2q10 -2 21 -6q9 -4 16 -13zM162 406q16 32 22 69
q4 25 2 57l-4 -4q-38 -19 -61 -36q-27 -19 -53 -48q-18 -18 -23 -28q-8 -16 -12 -29q-2 -19 2 -29q1 -5 6 -10q2 0 3 -1l1 -1h2q3 -1 6 -4q15 -6 31 -4q17 0 33 10q13 9 24 25q15 19 21 33zM377 705q2 10 2 16q0 8 -6 14q-8 12 -29 17q-18 4 -37 -2q-13 -4 -31 -17
q-13 -13 -24 -28q-14 -20 -19 -31q-2 -3 -4.5 -9.5t-3.5 -8.5q-4 -9 -6 -17q0 -1 -1.5 -7.5t-2.5 -10.5q0 -2 -4 -17q-2 -22 -2 -29l29 15q25 13 63 37q23 17 29 22q11 8 26 25q4 5 13 14z" />
    <glyph glyph-name="nine" unicode="9" horiz-adv-x="514" 
d="M498 735q16 -1 14 -18q-1 -16 -16 -15h-2q-8 0 -15 -4q-14 -8 -16 -10q-15 -12 -33 -33q-10 -10 -31 -34q-10 -16 -28 -39q-58 -75 -58 -76q-37 -45 -63 -74q-22 -24 -33 -35l-35 -35q-19 -16 -39 -28q-25 -17 -45 -23h-8l-2 -1q-1 -1 -4 -1h-12h-13q-4 0 -12 2
q-11 1 -24 12q-12 10 -17 23q-4 11 -4 27q-2 14 2 26q1 14 8 27l8 12q1 4 7 6q8 6 12 7q17 1 18 -15q2 -17 -14 -18h2h-4l-6 -6l-2.5 -5t-3 -7t-2.5 -7q-8 -24 -4 -41q1 -9 9 -17q6 -7 17 -11q21 -6 45 0q10 1 23 8q6 1 20 10q1 1 4.5 3t7 5t7.5 6l16 17q29 28 61 71
q36 51 56 80q25 37 35 51l-11 -10l-32 -24q-20 -18 -35 -25q-4 -2 -10.5 -5t-8.5 -5q-14 -7 -22 -8q-13 -4 -25 -2h-8q-2 2 -4 2l-2 2q-8 2 -12 6q-8 8 -11 12q-4 6 -6 14q-2 14 2 27q5 21 19 43t26 35q27 33 64 55q21 14 39 23q16 7 18 8q12 4 23 6q9 4 22 4q16 0 25 -4
q5 -1 11 -7t7 -11q2 -8 2 -13q0 -4 -2 -6v-6q-1 -6 -6 -4q-5 0 -6 4v2v4v4q0 3 -2 9q-5 6 -10 6q-6 2 -17 0q-1 0 -7.5 -1.5t-10.5 -2.5q-6 -2 -35 -19q-15 -7 -33 -20q-30 -22 -57 -54q-16 -16 -25 -30q-6 -8 -8 -15q-5 -11 -6 -16q-2 -10 -2 -14q0 -7 4 -11l6 -2v-1
q0 -1 1 -1h3q6 -2 17 0q10 3 34 15l33 20q19 13 33 25q22 14 33 24q2 2 41 35q3 4 13.5 17t16.5 20q6 9 19 18q13 13 18 17q12 8 25 14l8 4h4h2l2 2h4h4h3h2h4z" />
    <glyph glyph-name="equal" unicode="=" horiz-adv-x="233" 
d="M154 514q16 0 16 -15q0 -16 -16 -16h-138q-16 0 -16 16q0 15 16 15h138zM16 530q-16 0 -16 16q0 15 16 15h138q16 0 16 -15q0 -16 -16 -16h-138z" />
    <glyph glyph-name="question" unicode="?" horiz-adv-x="434" 
d="M365 676q4 -10 2 -27q-1 -8 -9 -22q-4 -5 -12 -19q-8 -11 -29 -30q-22 -16 -34 -23q-23 -13 -46 -24q-7 -3 -55 -21q-28 -10 -45 -18q-8 -4 -19.5 -10.5t-15.5 -8.5q-15 -11 -28 -24q-14 -17 -19 -33q0 -2 -1.5 -8.5t-2.5 -9.5q-2 -12 -2 -17v-2q0 -4 -5 -4t-5 4
q-2 12 0 20q1 11 5 22q2 6 8 18q6 11 11 18q10 14 31 28q18 12 35 21q34 17 72 33q58 27 69 34q38 23 56 50q13 19 14 30q0 5 -2 13q-1 1 -7 5q-5 3 -14 3q-8 2 -16 0q-16 -1 -35 -10q-15 -7 -24 -19q-8 -8 -9 -12q-2 -8 -2 -12q2 -19 -15 -20q-9 -1 -13 3.5t-4 13.5
q0 16 4 27q5 12 14 21q14 15 37 26q23 12 43 13h22q2 -1 6.5 -2t6.5 -2q8 -2 12 -5q5 -1 10 -8q7 -5 11 -12zM40 299q-13 0 -13 20q0 21 13 21t13 -21q0 -20 -13 -20z" />
    <glyph glyph-name="at" unicode="@" horiz-adv-x="450" 
d="M385 625q6 -22 2 -47q-5 -24 -14 -43q-15 -35 -45 -74l-15 -15q-5 -7 -16 -16q-9 -9 -18 -14q-3 -2 -9.5 -5.5t-9.5 -4.5q-2 0 -6 -1.5t-6 -1.5q-8 0 -15 5l-2 2l-2 2q-3 3 -4 6q-5 5 -6 10q-4 9 -2 23q0 13 4 22q2 9 6 19q-6 -4 -39 -25q-10 -4 -24 -12q-25 -10 -29 -11
q-10 -1 -16 0q-4 1 -8 5l-5 4q-2 2 -2 4t-1 4l-2 4q-1 3 -1 8q0 1 1.5 6t2.5 8q4 15 15 27q7 14 18 25q6 9 21 18q15 10 26 16q7 5 15 7q7 4 16 4q11 2 18 0q2 -1 6 -2.5t5 -1.5q4 -1 10 -7q6 -8 8 -16l6 2q16 8 23 -6q8 -16 -6 -23l-4 -2q-2 -2 -2 -4q-5 -2 -9 -6l-14 -14
q-13 -15 -20 -35q-7 -12 -7 -18q-2 -13 2 -19q0 -2 2 -8l5 -4l2 -2q6 -2 7 -2t9 2t16 8l17 12q6 6 16 17.5t12 13.5q13 18 23 35q9 15 16 37q11 33 13 41q1 21 -4 36q-6 16 -21 27q-7 4 -16 6q-2 2 -4 2l-7 2q-2 0 -8 2q-41 6 -80 -4q-39 -6 -75 -26q-38 -18 -66 -45
q-28 -28 -47 -64q-8 -17 -12 -37q-6 -19 -5 -38q2 -26 5 -40q0 -2 2 -10q1 -1 3 -5q1 -2 1 -5q2 -3 4.5 -8.5t4.5 -7.5q6 -10 12 -16t18 -13q17 -8 37 -12q17 -4 41 -2q17 1 41 8q36 11 75 33q22 14 33 24q8 6 14 14q8 6 13 15q10 14 24 4t4 -25q0 -2 -2 -2v-2
q-13 -11 -18 -14q-5 -4 -19 -12q-19 -12 -38 -21q-48 -20 -82 -29q-23 -5 -43 -6q-28 -2 -45 2q-23 5 -41 15q-21 12 -33 30q-14 18 -21 39q-9 26 -10 45q-6 46 10 88q16 41 52 76q16 17 34 29q15 10 39 22q41 21 84 27q52 8 90 -2q8 -2 11 -2l6 -2l6 -2q13 -5 20 -12
q12 -6 20 -17t9 -22zM226 522l3 6q2 6 2 10v9q0 4 -1 5l-3 3h-9q-3 0 -11 -2l-12 -4q-12 -5 -23 -12q-4 -1 -10 -7q-8 -6 -10 -8q-1 -1 -5 -3.5t-6 -4.5q-6 -4 -10 -10q-2 -2 -8 -10q-4 -4 -6 -11q-6 -12 -2 -22l2 -2q2 -2 4 -2q5 -1 12 0q21 9 23 10q1 1 9.5 6t14.5 8
q2 2 41 35q2 0 4 2q0 3 1 4z" />
    <glyph glyph-name="A" unicode="A" horiz-adv-x="1720" 
d="M2302 1458q4 -10 -4 -16q-11 -7 -23 -15q-4 -3 -8.5 -6t-7 -5t-4.5 -3l-43 -29q-42 -32 -82 -61q-35 -27 -80 -66q-51 -44 -76 -69q-120 -114 -209 -232q101 1 189 25q18 5 45 14q1 0 8 4t14 7l21 10q47 25 76 57q34 33 55 76q9 20 16 45l4 25v10q2 10 2 12q-1 6 5 6
t6 -6v-12q0 -4 -2 -12l-4 -25l-9 -25q-4 -6 -10 -22q-11 -25 -22 -43q-15 -21 -32 -38q-12 -12 -36 -34q-6 -4 -19.5 -12.5t-21.5 -13.5q-10 -8 -22 -13q-4 -2 -8 -3.5t-7 -3l-5 -2.5t-3 -1q-18 -7 -45 -18q-87 -29 -193 -35q-16 -2 -24 -2q-24 -36 -35 -52
q-55 -83 -102 -178q-28 -62 -41 -93q-24 -57 -37 -95q-30 -92 -53 -201l-2 -12l-3 -12v-2q-1 -2 -1.5 -5t-0.5 -5q-2 -12 -2 -13q-6 -44 -8 -51q0 -5 -1 -11t-1 -16l-4 -24v-7v-8l-2 -12l-2 -25q0 -6 -6 -6t-6 6q2 214 63 412q19 60 35 98q32 78 41 97q25 50 49 94q0 2 5 10
q7 11 7 12l15 23q22 36 28 45l21 31h-31h-24h-17l-8 2h-12h-13q-2 2 -11 2h-13q-86 8 -160 22q-73 -49 -82 -55q-30 -21 -112 -82l-15 -10l-14 -10l-27 -21q-17 -12 -55 -43q-110 -88 -207 -182q-108 -105 -182 -207q-46 -64 -74 -117q-21 -42 -29 -61q-4 -11 -10 -31
l-4 -16q0 -2 -2 -8v-5v-2q-1 -17 -19 -16q-18 2 -18 18v2l2 3v2v6q2 6 2 8q1 7 6 18q3 11 13 33q2 6 7 17t7 16q9 15 16 33q30 53 78 116q30 40 45 56q11 11 23 26q2 2 5.5 6t8 10t8.5 11q30 31 99 98q103 98 213 183q38 31 55 43l27 20l14 10l14 10q42 31 115 80
q32 24 67 45q0 2 -4 2h-4q-13 3 -29 7t-20 4l-22 6l-25 6l-94 23l-25 6q-15 4 -22 4l-45 12l-49 10q-9 2 -20 4.5t-18 4.5t-10 2l-47 10q-20 4 -26 5q-18 3 -21 3l-22 4q-15 4 -17 4h-8l-47 8l-49 9l-10 2h-13l-24 4q-5 0 -9.5 0.5t-7 1t-5 0.5h-3.5l-22 2l-25 4h-13
q-10 0 -12 2q-106 6 -192 0q-51 -5 -94 -14q-47 -11 -90 -31q-46 -23 -78 -55l-4 -5l-4 -4l-9 -8l-6 -10l-4 -4l-4 -6l-1 -3q-2 -2 -5 -7t-6 -9q0 -4 -4 -8v-4l-4 -4q0 -3 -1 -4l-1 -2q-24 -50 -31 -90q-10 -45 -2 -95q6 -48 28 -90q21 -37 58 -73q18 -15 39 -27t43 -18
q26 -7 45 -7t43 7q43 15 76 49q24 26 47 78q6 16 22 10t10 -23v-2q-28 -53 -59 -84q-26 -23 -41 -31q-21 -14 -49 -20q-22 -6 -51 -4h-13l-6 2h-2h-4l-6 2q-2 0 -4 2h-2q-5 0 -12 4q-48 16 -86 51q-36 34 -58 80q-21 42 -29 93q-7 45 1 98q7 43 32 94l1 2l1 2l2 6q4 0 5 4
l2 6q13 22 14 23l4 4l2 4l8 10l8 11l5 4l4 4q33 33 82 55q39 21 92 33q45 9 96 14q94 8 195 4l9 -1q6 -1 15 -1l23 -2l24 -2l25 -2l24 -2h13l12 -2l47 -6l49 -6q12 0 47 -6q9 0 13 -1l12 -3l12 -2l12 -3l48 -8q4 0 47 -8l49 -8l47 -10l25 -5q10 -1 22 -6l94 -20l25 -6l22 -4
q22 -6 47 -11l50 -8q156 101 360 217l59 33l62 33q61 34 123 65l30 17l31 16l31 16l33 17q42 23 68 35q13 6 26 12.5t20 9.5t9 4q10 6 16 -4zM2111 1348q14 8 23 16l-25 -12q-33 -16 -63 -33q-13 -7 -123 -64l-61 -32l-62 -33l-59 -35l-60 -35q-2 -1 -26 -15
q-25 -15 -35 -20l-25 -15q-10 -6 -34 -21q-33 -20 -103 -66q54 -9 117 -16q71 -8 94 -9q36 -2 51 -2q43 59 84 107l70 78q8 8 76 71q83 77 161 136z" />
    <glyph glyph-name="A" unicode="&#xc5;" horiz-adv-x="1720" 
d="M2302 1458q4 -10 -4 -16q-11 -7 -23 -15q-4 -3 -8.5 -6t-7 -5t-4.5 -3l-43 -29q-42 -32 -82 -61q-35 -27 -80 -66q-51 -44 -76 -69q-120 -114 -209 -232q101 1 189 25q18 5 45 14q1 0 8 4t14 7l21 10q47 25 76 57q34 33 55 76q9 20 16 45l4 25v10q2 10 2 12q-1 6 5 6
t6 -6v-12q0 -4 -2 -12l-4 -25l-9 -25q-4 -6 -10 -22q-11 -25 -22 -43q-15 -21 -32 -38q-12 -12 -36 -34q-6 -4 -19.5 -12.5t-21.5 -13.5q-10 -8 -22 -13q-4 -2 -8 -3.5t-7 -3l-5 -2.5t-3 -1q-18 -7 -45 -18q-87 -29 -193 -35q-16 -2 -24 -2q-24 -36 -35 -52
q-55 -83 -102 -178q-28 -62 -41 -93q-24 -57 -37 -95q-30 -92 -53 -201l-2 -12l-3 -12v-2q-1 -2 -1.5 -5t-0.5 -5q-2 -12 -2 -13q-6 -44 -8 -51q0 -5 -1 -11t-1 -16l-4 -24v-7v-8l-2 -12l-2 -25q0 -6 -6 -6t-6 6q2 214 63 412q19 60 35 98q32 78 41 97q25 50 49 94q0 2 5 10
q7 11 7 12l15 23q22 36 28 45l21 31h-31h-24h-17l-8 2h-12h-13q-2 2 -11 2h-13q-86 8 -160 22q-73 -49 -82 -55q-30 -21 -112 -82l-15 -10l-14 -10l-27 -21q-17 -12 -55 -43q-110 -88 -207 -182q-108 -105 -182 -207q-46 -64 -74 -117q-21 -42 -29 -61q-4 -11 -10 -31
l-4 -16q0 -2 -2 -8v-5v-2q-1 -17 -19 -16q-18 2 -18 18v2l2 3v2v6q2 6 2 8q1 7 6 18q3 11 13 33q2 6 7 17t7 16q9 15 16 33q30 53 78 116q30 40 45 56q11 11 23 26q2 2 5.5 6t8 10t8.5 11q30 31 99 98q103 98 213 183q38 31 55 43l27 20l14 10l14 10q42 31 115 80
q32 24 67 45q0 2 -4 2h-4q-13 3 -29 7t-20 4l-22 6l-25 6l-94 23l-25 6q-15 4 -22 4l-45 12l-49 10q-9 2 -20 4.5t-18 4.5t-10 2l-47 10q-20 4 -26 5q-18 3 -21 3l-22 4q-15 4 -17 4h-8l-47 8l-49 9l-10 2h-13l-24 4q-5 0 -9.5 0.5t-7 1t-5 0.5h-3.5l-22 2l-25 4h-13
q-10 0 -12 2q-106 6 -192 0q-51 -5 -94 -14q-47 -11 -90 -31q-46 -23 -78 -55l-4 -5l-4 -4l-9 -8l-6 -10l-4 -4l-4 -6l-1 -3q-2 -2 -5 -7t-6 -9q0 -4 -4 -8v-4l-4 -4q0 -3 -1 -4l-1 -2q-24 -50 -31 -90q-10 -45 -2 -95q6 -48 28 -90q21 -37 58 -73q18 -15 39 -27t43 -18
q26 -7 45 -7t43 7q43 15 76 49q24 26 47 78q6 16 22 10t10 -23v-2q-28 -53 -59 -84q-26 -23 -41 -31q-21 -14 -49 -20q-22 -6 -51 -4h-13l-6 2h-2h-4l-6 2q-2 0 -4 2h-2q-5 0 -12 4q-48 16 -86 51q-36 34 -58 80q-21 42 -29 93q-7 45 1 98q7 43 32 94l1 2l1 2l2 6q4 0 5 4
l2 6q13 22 14 23l4 4l2 4l8 10l8 11l5 4l4 4q33 33 82 55q39 21 92 33q45 9 96 14q94 8 195 4l9 -1q6 -1 15 -1l23 -2l24 -2l25 -2l24 -2h13l12 -2l47 -6l49 -6q12 0 47 -6q9 0 13 -1l12 -3l12 -2l12 -3l48 -8q4 0 47 -8l49 -8l47 -10l25 -5q10 -1 22 -6l94 -20l25 -6l22 -4
q22 -6 47 -11l50 -8q156 101 360 217l59 33l62 33q61 34 123 65l30 17l31 16l31 16l33 17q42 23 68 35q13 6 26 12.5t20 9.5t9 4q10 6 16 -4zM2111 1348q14 8 23 16l-25 -12q-33 -16 -63 -33q-13 -7 -123 -64l-61 -32l-62 -33l-59 -35l-60 -35q-2 -1 -26 -15
q-25 -15 -35 -20l-25 -15q-10 -6 -34 -21q-33 -20 -103 -66q54 -9 117 -16q71 -8 94 -9q36 -2 51 -2q43 59 84 107l70 78q8 8 76 71q83 77 161 136z" />
    <glyph glyph-name="A" unicode="&#xc4;" horiz-adv-x="1720" 
d="M2302 1458q4 -10 -4 -16q-11 -7 -23 -15q-4 -3 -8.5 -6t-7 -5t-4.5 -3l-43 -29q-42 -32 -82 -61q-35 -27 -80 -66q-51 -44 -76 -69q-120 -114 -209 -232q101 1 189 25q18 5 45 14q1 0 8 4t14 7l21 10q47 25 76 57q34 33 55 76q9 20 16 45l4 25v10q2 10 2 12q-1 6 5 6
t6 -6v-12q0 -4 -2 -12l-4 -25l-9 -25q-4 -6 -10 -22q-11 -25 -22 -43q-15 -21 -32 -38q-12 -12 -36 -34q-6 -4 -19.5 -12.5t-21.5 -13.5q-10 -8 -22 -13q-4 -2 -8 -3.5t-7 -3l-5 -2.5t-3 -1q-18 -7 -45 -18q-87 -29 -193 -35q-16 -2 -24 -2q-24 -36 -35 -52
q-55 -83 -102 -178q-28 -62 -41 -93q-24 -57 -37 -95q-30 -92 -53 -201l-2 -12l-3 -12v-2q-1 -2 -1.5 -5t-0.5 -5q-2 -12 -2 -13q-6 -44 -8 -51q0 -5 -1 -11t-1 -16l-4 -24v-7v-8l-2 -12l-2 -25q0 -6 -6 -6t-6 6q2 214 63 412q19 60 35 98q32 78 41 97q25 50 49 94q0 2 5 10
q7 11 7 12l15 23q22 36 28 45l21 31h-31h-24h-17l-8 2h-12h-13q-2 2 -11 2h-13q-86 8 -160 22q-73 -49 -82 -55q-30 -21 -112 -82l-15 -10l-14 -10l-27 -21q-17 -12 -55 -43q-110 -88 -207 -182q-108 -105 -182 -207q-46 -64 -74 -117q-21 -42 -29 -61q-4 -11 -10 -31
l-4 -16q0 -2 -2 -8v-5v-2q-1 -17 -19 -16q-18 2 -18 18v2l2 3v2v6q2 6 2 8q1 7 6 18q3 11 13 33q2 6 7 17t7 16q9 15 16 33q30 53 78 116q30 40 45 56q11 11 23 26q2 2 5.5 6t8 10t8.5 11q30 31 99 98q103 98 213 183q38 31 55 43l27 20l14 10l14 10q42 31 115 80
q32 24 67 45q0 2 -4 2h-4q-13 3 -29 7t-20 4l-22 6l-25 6l-94 23l-25 6q-15 4 -22 4l-45 12l-49 10q-9 2 -20 4.5t-18 4.5t-10 2l-47 10q-20 4 -26 5q-18 3 -21 3l-22 4q-15 4 -17 4h-8l-47 8l-49 9l-10 2h-13l-24 4q-5 0 -9.5 0.5t-7 1t-5 0.5h-3.5l-22 2l-25 4h-13
q-10 0 -12 2q-106 6 -192 0q-51 -5 -94 -14q-47 -11 -90 -31q-46 -23 -78 -55l-4 -5l-4 -4l-9 -8l-6 -10l-4 -4l-4 -6l-1 -3q-2 -2 -5 -7t-6 -9q0 -4 -4 -8v-4l-4 -4q0 -3 -1 -4l-1 -2q-24 -50 -31 -90q-10 -45 -2 -95q6 -48 28 -90q21 -37 58 -73q18 -15 39 -27t43 -18
q26 -7 45 -7t43 7q43 15 76 49q24 26 47 78q6 16 22 10t10 -23v-2q-28 -53 -59 -84q-26 -23 -41 -31q-21 -14 -49 -20q-22 -6 -51 -4h-13l-6 2h-2h-4l-6 2q-2 0 -4 2h-2q-5 0 -12 4q-48 16 -86 51q-36 34 -58 80q-21 42 -29 93q-7 45 1 98q7 43 32 94l1 2l1 2l2 6q4 0 5 4
l2 6q13 22 14 23l4 4l2 4l8 10l8 11l5 4l4 4q33 33 82 55q39 21 92 33q45 9 96 14q94 8 195 4l9 -1q6 -1 15 -1l23 -2l24 -2l25 -2l24 -2h13l12 -2l47 -6l49 -6q12 0 47 -6q9 0 13 -1l12 -3l12 -2l12 -3l48 -8q4 0 47 -8l49 -8l47 -10l25 -5q10 -1 22 -6l94 -20l25 -6l22 -4
q22 -6 47 -11l50 -8q156 101 360 217l59 33l62 33q61 34 123 65l30 17l31 16l31 16l33 17q42 23 68 35q13 6 26 12.5t20 9.5t9 4q10 6 16 -4zM2111 1348q14 8 23 16l-25 -12q-33 -16 -63 -33q-13 -7 -123 -64l-61 -32l-62 -33l-59 -35l-60 -35q-2 -1 -26 -15
q-25 -15 -35 -20l-25 -15q-10 -6 -34 -21q-33 -20 -103 -66q54 -9 117 -16q71 -8 94 -9q36 -2 51 -2q43 59 84 107l70 78q8 8 76 71q83 77 161 136z" />
    <glyph glyph-name="A" unicode="&#xc3;" horiz-adv-x="1720" 
d="M2302 1458q4 -10 -4 -16q-11 -7 -23 -15q-4 -3 -8.5 -6t-7 -5t-4.5 -3l-43 -29q-42 -32 -82 -61q-35 -27 -80 -66q-51 -44 -76 -69q-120 -114 -209 -232q101 1 189 25q18 5 45 14q1 0 8 4t14 7l21 10q47 25 76 57q34 33 55 76q9 20 16 45l4 25v10q2 10 2 12q-1 6 5 6
t6 -6v-12q0 -4 -2 -12l-4 -25l-9 -25q-4 -6 -10 -22q-11 -25 -22 -43q-15 -21 -32 -38q-12 -12 -36 -34q-6 -4 -19.5 -12.5t-21.5 -13.5q-10 -8 -22 -13q-4 -2 -8 -3.5t-7 -3l-5 -2.5t-3 -1q-18 -7 -45 -18q-87 -29 -193 -35q-16 -2 -24 -2q-24 -36 -35 -52
q-55 -83 -102 -178q-28 -62 -41 -93q-24 -57 -37 -95q-30 -92 -53 -201l-2 -12l-3 -12v-2q-1 -2 -1.5 -5t-0.5 -5q-2 -12 -2 -13q-6 -44 -8 -51q0 -5 -1 -11t-1 -16l-4 -24v-7v-8l-2 -12l-2 -25q0 -6 -6 -6t-6 6q2 214 63 412q19 60 35 98q32 78 41 97q25 50 49 94q0 2 5 10
q7 11 7 12l15 23q22 36 28 45l21 31h-31h-24h-17l-8 2h-12h-13q-2 2 -11 2h-13q-86 8 -160 22q-73 -49 -82 -55q-30 -21 -112 -82l-15 -10l-14 -10l-27 -21q-17 -12 -55 -43q-110 -88 -207 -182q-108 -105 -182 -207q-46 -64 -74 -117q-21 -42 -29 -61q-4 -11 -10 -31
l-4 -16q0 -2 -2 -8v-5v-2q-1 -17 -19 -16q-18 2 -18 18v2l2 3v2v6q2 6 2 8q1 7 6 18q3 11 13 33q2 6 7 17t7 16q9 15 16 33q30 53 78 116q30 40 45 56q11 11 23 26q2 2 5.5 6t8 10t8.5 11q30 31 99 98q103 98 213 183q38 31 55 43l27 20l14 10l14 10q42 31 115 80
q32 24 67 45q0 2 -4 2h-4q-13 3 -29 7t-20 4l-22 6l-25 6l-94 23l-25 6q-15 4 -22 4l-45 12l-49 10q-9 2 -20 4.5t-18 4.5t-10 2l-47 10q-20 4 -26 5q-18 3 -21 3l-22 4q-15 4 -17 4h-8l-47 8l-49 9l-10 2h-13l-24 4q-5 0 -9.5 0.5t-7 1t-5 0.5h-3.5l-22 2l-25 4h-13
q-10 0 -12 2q-106 6 -192 0q-51 -5 -94 -14q-47 -11 -90 -31q-46 -23 -78 -55l-4 -5l-4 -4l-9 -8l-6 -10l-4 -4l-4 -6l-1 -3q-2 -2 -5 -7t-6 -9q0 -4 -4 -8v-4l-4 -4q0 -3 -1 -4l-1 -2q-24 -50 -31 -90q-10 -45 -2 -95q6 -48 28 -90q21 -37 58 -73q18 -15 39 -27t43 -18
q26 -7 45 -7t43 7q43 15 76 49q24 26 47 78q6 16 22 10t10 -23v-2q-28 -53 -59 -84q-26 -23 -41 -31q-21 -14 -49 -20q-22 -6 -51 -4h-13l-6 2h-2h-4l-6 2q-2 0 -4 2h-2q-5 0 -12 4q-48 16 -86 51q-36 34 -58 80q-21 42 -29 93q-7 45 1 98q7 43 32 94l1 2l1 2l2 6q4 0 5 4
l2 6q13 22 14 23l4 4l2 4l8 10l8 11l5 4l4 4q33 33 82 55q39 21 92 33q45 9 96 14q94 8 195 4l9 -1q6 -1 15 -1l23 -2l24 -2l25 -2l24 -2h13l12 -2l47 -6l49 -6q12 0 47 -6q9 0 13 -1l12 -3l12 -2l12 -3l48 -8q4 0 47 -8l49 -8l47 -10l25 -5q10 -1 22 -6l94 -20l25 -6l22 -4
q22 -6 47 -11l50 -8q156 101 360 217l59 33l62 33q61 34 123 65l30 17l31 16l31 16l33 17q42 23 68 35q13 6 26 12.5t20 9.5t9 4q10 6 16 -4zM2111 1348q14 8 23 16l-25 -12q-33 -16 -63 -33q-13 -7 -123 -64l-61 -32l-62 -33l-59 -35l-60 -35q-2 -1 -26 -15
q-25 -15 -35 -20l-25 -15q-10 -6 -34 -21q-33 -20 -103 -66q54 -9 117 -16q71 -8 94 -9q36 -2 51 -2q43 59 84 107l70 78q8 8 76 71q83 77 161 136z" />
    <glyph glyph-name="A" unicode="&#xc2;" horiz-adv-x="1720" 
d="M2302 1458q4 -10 -4 -16q-11 -7 -23 -15q-4 -3 -8.5 -6t-7 -5t-4.5 -3l-43 -29q-42 -32 -82 -61q-35 -27 -80 -66q-51 -44 -76 -69q-120 -114 -209 -232q101 1 189 25q18 5 45 14q1 0 8 4t14 7l21 10q47 25 76 57q34 33 55 76q9 20 16 45l4 25v10q2 10 2 12q-1 6 5 6
t6 -6v-12q0 -4 -2 -12l-4 -25l-9 -25q-4 -6 -10 -22q-11 -25 -22 -43q-15 -21 -32 -38q-12 -12 -36 -34q-6 -4 -19.5 -12.5t-21.5 -13.5q-10 -8 -22 -13q-4 -2 -8 -3.5t-7 -3l-5 -2.5t-3 -1q-18 -7 -45 -18q-87 -29 -193 -35q-16 -2 -24 -2q-24 -36 -35 -52
q-55 -83 -102 -178q-28 -62 -41 -93q-24 -57 -37 -95q-30 -92 -53 -201l-2 -12l-3 -12v-2q-1 -2 -1.5 -5t-0.5 -5q-2 -12 -2 -13q-6 -44 -8 -51q0 -5 -1 -11t-1 -16l-4 -24v-7v-8l-2 -12l-2 -25q0 -6 -6 -6t-6 6q2 214 63 412q19 60 35 98q32 78 41 97q25 50 49 94q0 2 5 10
q7 11 7 12l15 23q22 36 28 45l21 31h-31h-24h-17l-8 2h-12h-13q-2 2 -11 2h-13q-86 8 -160 22q-73 -49 -82 -55q-30 -21 -112 -82l-15 -10l-14 -10l-27 -21q-17 -12 -55 -43q-110 -88 -207 -182q-108 -105 -182 -207q-46 -64 -74 -117q-21 -42 -29 -61q-4 -11 -10 -31
l-4 -16q0 -2 -2 -8v-5v-2q-1 -17 -19 -16q-18 2 -18 18v2l2 3v2v6q2 6 2 8q1 7 6 18q3 11 13 33q2 6 7 17t7 16q9 15 16 33q30 53 78 116q30 40 45 56q11 11 23 26q2 2 5.5 6t8 10t8.5 11q30 31 99 98q103 98 213 183q38 31 55 43l27 20l14 10l14 10q42 31 115 80
q32 24 67 45q0 2 -4 2h-4q-13 3 -29 7t-20 4l-22 6l-25 6l-94 23l-25 6q-15 4 -22 4l-45 12l-49 10q-9 2 -20 4.5t-18 4.5t-10 2l-47 10q-20 4 -26 5q-18 3 -21 3l-22 4q-15 4 -17 4h-8l-47 8l-49 9l-10 2h-13l-24 4q-5 0 -9.5 0.5t-7 1t-5 0.5h-3.5l-22 2l-25 4h-13
q-10 0 -12 2q-106 6 -192 0q-51 -5 -94 -14q-47 -11 -90 -31q-46 -23 -78 -55l-4 -5l-4 -4l-9 -8l-6 -10l-4 -4l-4 -6l-1 -3q-2 -2 -5 -7t-6 -9q0 -4 -4 -8v-4l-4 -4q0 -3 -1 -4l-1 -2q-24 -50 -31 -90q-10 -45 -2 -95q6 -48 28 -90q21 -37 58 -73q18 -15 39 -27t43 -18
q26 -7 45 -7t43 7q43 15 76 49q24 26 47 78q6 16 22 10t10 -23v-2q-28 -53 -59 -84q-26 -23 -41 -31q-21 -14 -49 -20q-22 -6 -51 -4h-13l-6 2h-2h-4l-6 2q-2 0 -4 2h-2q-5 0 -12 4q-48 16 -86 51q-36 34 -58 80q-21 42 -29 93q-7 45 1 98q7 43 32 94l1 2l1 2l2 6q4 0 5 4
l2 6q13 22 14 23l4 4l2 4l8 10l8 11l5 4l4 4q33 33 82 55q39 21 92 33q45 9 96 14q94 8 195 4l9 -1q6 -1 15 -1l23 -2l24 -2l25 -2l24 -2h13l12 -2l47 -6l49 -6q12 0 47 -6q9 0 13 -1l12 -3l12 -2l12 -3l48 -8q4 0 47 -8l49 -8l47 -10l25 -5q10 -1 22 -6l94 -20l25 -6l22 -4
q22 -6 47 -11l50 -8q156 101 360 217l59 33l62 33q61 34 123 65l30 17l31 16l31 16l33 17q42 23 68 35q13 6 26 12.5t20 9.5t9 4q10 6 16 -4zM2111 1348q14 8 23 16l-25 -12q-33 -16 -63 -33q-13 -7 -123 -64l-61 -32l-62 -33l-59 -35l-60 -35q-2 -1 -26 -15
q-25 -15 -35 -20l-25 -15q-10 -6 -34 -21q-33 -20 -103 -66q54 -9 117 -16q71 -8 94 -9q36 -2 51 -2q43 59 84 107l70 78q8 8 76 71q83 77 161 136z" />
    <glyph glyph-name="A" unicode="&#xc1;" horiz-adv-x="1720" 
d="M2302 1458q4 -10 -4 -16q-11 -7 -23 -15q-4 -3 -8.5 -6t-7 -5t-4.5 -3l-43 -29q-42 -32 -82 -61q-35 -27 -80 -66q-51 -44 -76 -69q-120 -114 -209 -232q101 1 189 25q18 5 45 14q1 0 8 4t14 7l21 10q47 25 76 57q34 33 55 76q9 20 16 45l4 25v10q2 10 2 12q-1 6 5 6
t6 -6v-12q0 -4 -2 -12l-4 -25l-9 -25q-4 -6 -10 -22q-11 -25 -22 -43q-15 -21 -32 -38q-12 -12 -36 -34q-6 -4 -19.5 -12.5t-21.5 -13.5q-10 -8 -22 -13q-4 -2 -8 -3.5t-7 -3l-5 -2.5t-3 -1q-18 -7 -45 -18q-87 -29 -193 -35q-16 -2 -24 -2q-24 -36 -35 -52
q-55 -83 -102 -178q-28 -62 -41 -93q-24 -57 -37 -95q-30 -92 -53 -201l-2 -12l-3 -12v-2q-1 -2 -1.5 -5t-0.5 -5q-2 -12 -2 -13q-6 -44 -8 -51q0 -5 -1 -11t-1 -16l-4 -24v-7v-8l-2 -12l-2 -25q0 -6 -6 -6t-6 6q2 214 63 412q19 60 35 98q32 78 41 97q25 50 49 94q0 2 5 10
q7 11 7 12l15 23q22 36 28 45l21 31h-31h-24h-17l-8 2h-12h-13q-2 2 -11 2h-13q-86 8 -160 22q-73 -49 -82 -55q-30 -21 -112 -82l-15 -10l-14 -10l-27 -21q-17 -12 -55 -43q-110 -88 -207 -182q-108 -105 -182 -207q-46 -64 -74 -117q-21 -42 -29 -61q-4 -11 -10 -31
l-4 -16q0 -2 -2 -8v-5v-2q-1 -17 -19 -16q-18 2 -18 18v2l2 3v2v6q2 6 2 8q1 7 6 18q3 11 13 33q2 6 7 17t7 16q9 15 16 33q30 53 78 116q30 40 45 56q11 11 23 26q2 2 5.5 6t8 10t8.5 11q30 31 99 98q103 98 213 183q38 31 55 43l27 20l14 10l14 10q42 31 115 80
q32 24 67 45q0 2 -4 2h-4q-13 3 -29 7t-20 4l-22 6l-25 6l-94 23l-25 6q-15 4 -22 4l-45 12l-49 10q-9 2 -20 4.5t-18 4.5t-10 2l-47 10q-20 4 -26 5q-18 3 -21 3l-22 4q-15 4 -17 4h-8l-47 8l-49 9l-10 2h-13l-24 4q-5 0 -9.5 0.5t-7 1t-5 0.5h-3.5l-22 2l-25 4h-13
q-10 0 -12 2q-106 6 -192 0q-51 -5 -94 -14q-47 -11 -90 -31q-46 -23 -78 -55l-4 -5l-4 -4l-9 -8l-6 -10l-4 -4l-4 -6l-1 -3q-2 -2 -5 -7t-6 -9q0 -4 -4 -8v-4l-4 -4q0 -3 -1 -4l-1 -2q-24 -50 -31 -90q-10 -45 -2 -95q6 -48 28 -90q21 -37 58 -73q18 -15 39 -27t43 -18
q26 -7 45 -7t43 7q43 15 76 49q24 26 47 78q6 16 22 10t10 -23v-2q-28 -53 -59 -84q-26 -23 -41 -31q-21 -14 -49 -20q-22 -6 -51 -4h-13l-6 2h-2h-4l-6 2q-2 0 -4 2h-2q-5 0 -12 4q-48 16 -86 51q-36 34 -58 80q-21 42 -29 93q-7 45 1 98q7 43 32 94l1 2l1 2l2 6q4 0 5 4
l2 6q13 22 14 23l4 4l2 4l8 10l8 11l5 4l4 4q33 33 82 55q39 21 92 33q45 9 96 14q94 8 195 4l9 -1q6 -1 15 -1l23 -2l24 -2l25 -2l24 -2h13l12 -2l47 -6l49 -6q12 0 47 -6q9 0 13 -1l12 -3l12 -2l12 -3l48 -8q4 0 47 -8l49 -8l47 -10l25 -5q10 -1 22 -6l94 -20l25 -6l22 -4
q22 -6 47 -11l50 -8q156 101 360 217l59 33l62 33q61 34 123 65l30 17l31 16l31 16l33 17q42 23 68 35q13 6 26 12.5t20 9.5t9 4q10 6 16 -4zM2111 1348q14 8 23 16l-25 -12q-33 -16 -63 -33q-13 -7 -123 -64l-61 -32l-62 -33l-59 -35l-60 -35q-2 -1 -26 -15
q-25 -15 -35 -20l-25 -15q-10 -6 -34 -21q-33 -20 -103 -66q54 -9 117 -16q71 -8 94 -9q36 -2 51 -2q43 59 84 107l70 78q8 8 76 71q83 77 161 136z" />
    <glyph glyph-name="A" unicode="&#xc0;" horiz-adv-x="1720" 
d="M2302 1458q4 -10 -4 -16q-11 -7 -23 -15q-4 -3 -8.5 -6t-7 -5t-4.5 -3l-43 -29q-42 -32 -82 -61q-35 -27 -80 -66q-51 -44 -76 -69q-120 -114 -209 -232q101 1 189 25q18 5 45 14q1 0 8 4t14 7l21 10q47 25 76 57q34 33 55 76q9 20 16 45l4 25v10q2 10 2 12q-1 6 5 6
t6 -6v-12q0 -4 -2 -12l-4 -25l-9 -25q-4 -6 -10 -22q-11 -25 -22 -43q-15 -21 -32 -38q-12 -12 -36 -34q-6 -4 -19.5 -12.5t-21.5 -13.5q-10 -8 -22 -13q-4 -2 -8 -3.5t-7 -3l-5 -2.5t-3 -1q-18 -7 -45 -18q-87 -29 -193 -35q-16 -2 -24 -2q-24 -36 -35 -52
q-55 -83 -102 -178q-28 -62 -41 -93q-24 -57 -37 -95q-30 -92 -53 -201l-2 -12l-3 -12v-2q-1 -2 -1.5 -5t-0.5 -5q-2 -12 -2 -13q-6 -44 -8 -51q0 -5 -1 -11t-1 -16l-4 -24v-7v-8l-2 -12l-2 -25q0 -6 -6 -6t-6 6q2 214 63 412q19 60 35 98q32 78 41 97q25 50 49 94q0 2 5 10
q7 11 7 12l15 23q22 36 28 45l21 31h-31h-24h-17l-8 2h-12h-13q-2 2 -11 2h-13q-86 8 -160 22q-73 -49 -82 -55q-30 -21 -112 -82l-15 -10l-14 -10l-27 -21q-17 -12 -55 -43q-110 -88 -207 -182q-108 -105 -182 -207q-46 -64 -74 -117q-21 -42 -29 -61q-4 -11 -10 -31
l-4 -16q0 -2 -2 -8v-5v-2q-1 -17 -19 -16q-18 2 -18 18v2l2 3v2v6q2 6 2 8q1 7 6 18q3 11 13 33q2 6 7 17t7 16q9 15 16 33q30 53 78 116q30 40 45 56q11 11 23 26q2 2 5.5 6t8 10t8.5 11q30 31 99 98q103 98 213 183q38 31 55 43l27 20l14 10l14 10q42 31 115 80
q32 24 67 45q0 2 -4 2h-4q-13 3 -29 7t-20 4l-22 6l-25 6l-94 23l-25 6q-15 4 -22 4l-45 12l-49 10q-9 2 -20 4.5t-18 4.5t-10 2l-47 10q-20 4 -26 5q-18 3 -21 3l-22 4q-15 4 -17 4h-8l-47 8l-49 9l-10 2h-13l-24 4q-5 0 -9.5 0.5t-7 1t-5 0.5h-3.5l-22 2l-25 4h-13
q-10 0 -12 2q-106 6 -192 0q-51 -5 -94 -14q-47 -11 -90 -31q-46 -23 -78 -55l-4 -5l-4 -4l-9 -8l-6 -10l-4 -4l-4 -6l-1 -3q-2 -2 -5 -7t-6 -9q0 -4 -4 -8v-4l-4 -4q0 -3 -1 -4l-1 -2q-24 -50 -31 -90q-10 -45 -2 -95q6 -48 28 -90q21 -37 58 -73q18 -15 39 -27t43 -18
q26 -7 45 -7t43 7q43 15 76 49q24 26 47 78q6 16 22 10t10 -23v-2q-28 -53 -59 -84q-26 -23 -41 -31q-21 -14 -49 -20q-22 -6 -51 -4h-13l-6 2h-2h-4l-6 2q-2 0 -4 2h-2q-5 0 -12 4q-48 16 -86 51q-36 34 -58 80q-21 42 -29 93q-7 45 1 98q7 43 32 94l1 2l1 2l2 6q4 0 5 4
l2 6q13 22 14 23l4 4l2 4l8 10l8 11l5 4l4 4q33 33 82 55q39 21 92 33q45 9 96 14q94 8 195 4l9 -1q6 -1 15 -1l23 -2l24 -2l25 -2l24 -2h13l12 -2l47 -6l49 -6q12 0 47 -6q9 0 13 -1l12 -3l12 -2l12 -3l48 -8q4 0 47 -8l49 -8l47 -10l25 -5q10 -1 22 -6l94 -20l25 -6l22 -4
q22 -6 47 -11l50 -8q156 101 360 217l59 33l62 33q61 34 123 65l30 17l31 16l31 16l33 17q42 23 68 35q13 6 26 12.5t20 9.5t9 4q10 6 16 -4zM2111 1348q14 8 23 16l-25 -12q-33 -16 -63 -33q-13 -7 -123 -64l-61 -32l-62 -33l-59 -35l-60 -35q-2 -1 -26 -15
q-25 -15 -35 -20l-25 -15q-10 -6 -34 -21q-33 -20 -103 -66q54 -9 117 -16q71 -8 94 -9q36 -2 51 -2q43 59 84 107l70 78q8 8 76 71q83 77 161 136z" />
    <glyph glyph-name="B" unicode="B" horiz-adv-x="2021" 
d="M2184 1215q1 -6 -1 -19q0 -9 -4 -16q-2 -7 -8 -15l-8 -12q-11 -12 -23 -23q-15 -14 -45 -32q-42 -25 -100 -51q-28 -13 -103 -41q-88 -32 -209 -66q-114 -34 -270 -72q60 -2 117 -12q70 -17 131 -45q71 -34 117 -80q28 -28 45 -55q19 -35 26 -70q6 -36 2 -74
q-5 -36 -18 -69t-33 -64q-2 -4 -20 -28q-16 -19 -23 -27q-7 -10 -24 -27l-25 -24q-21 -20 -53 -45q-44 -37 -111 -80q-57 -34 -121 -68q-124 -62 -256 -96q-72 -19 -135 -29q-12 -2 -34 -4.5t-33 -3.5q-31 -4 -68 -4q-69 -5 -137 0q-59 5 -137 19q-144 28 -258 86
q-65 31 -117 71q-59 45 -98 94q-46 58 -68 119q-25 71 -21 137q1 34 17 68q15 32 37 59q28 30 51 48q12 6 29 18q4 2 14 7.5t16 8.5q55 26 131 43q20 6 33 7q18 4 33 6q12 2 36.5 4.5t33.5 3.5q68 5 137 0q72 -6 135 -21q36 -8 65 -18q41 -12 66 -25q36 -19 51 -30l60 45
q90 67 98 73l47 37l47 39q43 36 94 76l94 78q71 60 148 121q-62 -10 -88 -13q-57 -4 -123 2q-54 4 -121 17q-71 13 -119 26q-15 4 -44 13t-85.5 27t-103.5 32q-139 43 -236 59q-40 8 -59 9q-29 4 -61 4q-36 2 -60 -2q-26 -1 -59 -10q-40 -11 -57 -18q-32 -14 -52 -28
q-28 -17 -47 -36q-26 -24 -41 -43q-11 -15 -23 -4q-13 12 -3 24l2 2q33 29 49 41q32 21 53 33l29 14q22 9 28 10q34 14 59 18q40 6 62 9q29 2 62 0q51 -1 120 -14q42 -6 119 -27q43 -10 117 -33q170 -51 233 -67q67 -19 119 -29q51 -8 119 -14q66 -6 121 -2q66 5 112 18l6 5
l6 6l5 5q133 107 190 152q59 48 97 76q7 6 17 13.5t17.5 13.5l12.5 10q20 15 26 18l9 4q2 2 4 2t3 1t3 1q1 0 3 -1t3 -1q4 -1 6 -8v-4q0 -2 -2 -4q0 -1 -2 -5l-2 -3l-2 -4q-39 -51 -80 -95q-41 -43 -90 -82q-78 -60 -170 -94q-17 -16 -21 -16l-16 -15q1 0 2 1q2 2 3 2
q4 2 5 2q53 26 101 45q19 8 55.5 23t44.5 18q10 4 104 34q63 18 109 25q32 7 55 8q13 0 29 -2q18 0 31 -4q16 -4 28 -12q14 -7 25 -23q2 -2 4.5 -7l3.5 -7q3 -5 5 -18zM1782 1300q-24 -20 -68.5 -57t-62.5 -53l24 12q53 28 101 66q75 61 141 145q-22 -15 -43 -33zM2149 1202
q1 3 1 9q0 4 -2 10l-4 8q-6 8 -14 14q-6 4 -11 6q-1 0 -3.5 1t-4.5 2t-4 1q-25 7 -49 7q-16 2 -25 1q-4 0 -13.5 -1.5t-14.5 -2.5q-17 -1 -51 -10q-25 -4 -53 -12q-88 -22 -207 -70q-70 -28 -101 -43q-32 -13 -53 -24q-13 -11 -62 -49.5t-73 -57.5q-24 -18 -96 -74
q-16 -12 -49.5 -35.5t-49.5 -35.5l-49 -37l-49 -37q-18 -13 -41.5 -30t-36.5 -26t-20 -14q-5 -4 -58 -41q32 -24 52 -47q23 -28 34 -63q13 -38 9 -72q-1 -13 -7 -37q-8 -22 -12 -34q-12 -28 -35 -62q-7 -14 -22 -5q-14 8 -6 24q24 32 35 57q5 13 10 29q7 19 8 30q5 33 -6 62
q-7 29 -29 57q-18 22 -45 45q-2 0 -4 2q-57 -39 -125 -84q-121 -83 -207 -131q-32 -18 -53 -29l-13 -6.5t-14 -7.5l-28 -12q-72 -32 -117 -43q-17 -5 -21 13q-5 18 13 20q0 2 2 2q27 1 57 12q26 6 55 18l29 13q15 6 29 12l53 25q110 58 209 124q63 41 121 82q-4 2 -19 11
t-24 14q-52 27 -125 45q-65 17 -133 23q-71 6 -135 2q-75 -5 -134 -19q-74 -17 -129 -43q-26 -14 -57 -35q-25 -20 -49 -45q-24 -29 -35 -55q-13 -31 -14 -64q-4 -67 18 -133q20 -58 66 -116q39 -50 96 -93q53 -41 115 -71q18 -9 61 -29q20 -8 64 -22q46 -15 65 -19
q44 -10 66 -14q74 -13 135 -17q80 -2 135 2q24 1 68 7t67 10q52 9 131 31q131 39 248 102q52 27 116 70q59 40 109 79q27 21 49 43q25 23 46 50q22 25 40 51q21 33 31 57q12 31 17 62q4 29 -2 61q-6 27 -23 57q-16 29 -39 52q-21 22 -49 43q-18 14 -55 32q-61 29 -125 45
q-44 10 -66 13q-33 5 -67 6q-45 0 -80 -4q-12 -2 -29 -6q-16 -4 -22 -4l-3 4l3 -4q-13 -5 -16 8q-3 12 9 14q171 44 211 53q35 9 211 60q124 37 207 67q17 7 50.5 21t49.5 20q52 22 95 49q28 19 41 31q7 5 18 16q9 12 10 21q0 2 1 4.5t2 3.5zM1253 852v4v-4z" />
    <glyph glyph-name="C" unicode="C" horiz-adv-x="2007" 
d="M2224 1389q8 -16 8 -31q-1 -11 -10 -29q-1 -2 -14 -20q-8 -11 -21 -19q-11 -11 -20 -16q-3 -3 -6 -4l-4 -4l-11 -6l-20 -15q-39 -24 -84 -51q-39 -23 -88 -47q-93 -50 -182 -80q-100 -35 -193 -51q-104 -19 -199 -19q-92 0 -196 19q-44 7 -99 20q-18 4 -65 19
q-30 -22 -88 -66q-81 -65 -148 -131q-67 -65 -133 -143q-29 -35 -61 -78q-33 -43 -55 -80q-31 -50 -46 -86q-18 -47 -24 -90q-5 -51 10 -90l10 -21q5 -10 13 -18q7 -13 13 -18q7 -7 17 -15q14 -13 39 -26q15 -9 43 -21q40 -16 92 -27q38 -9 97 -14q30 -2 49 -2q30 -2 47 -2
q95 0 197 12q92 12 194 33q188 40 377 115q100 41 180 82q87 44 170 100q4 4 7 -1t-1 -9q-82 -58 -170 -103q-87 -48 -180 -86q-7 -3 -40.5 -16.5t-51.5 -20.5q-28 -10 -94 -30q-112 -36 -193 -54q-95 -22 -194 -34q-109 -16 -199 -17q-19 0 -51 2q-19 0 -49 2
q-44 4 -101 13q-56 11 -98 28q-22 9 -47 23q-19 10 -43 29q-11 9 -19 18q-13 11 -18 19q-8 12 -14 24q-9 14 -13 25q-10 24 -12 51q-2 24 0 53q5 48 27 100q6 17 20 45l25 45q27 43 57 84q25 35 62 78q73 87 136 148q79 77 148 133q30 25 68 51q-79 29 -170 66
q-7 3 -27.5 11.5t-32.5 14.5l-65 29q-12 6 -31.5 14t-25.5 10q-20 8 -52.5 20t-40.5 15q-57 20 -94 29q-51 12 -94 12q-52 2 -94 -11q-47 -14 -86 -40q-37 -26 -70 -63q-12 -12 -24 -1q-12 12 -2 23q43 45 79 66q43 27 95 43q27 7 51 8t51 0q40 -1 100 -15q53 -14 95 -32
q51 -19 92 -37q21 -11 91 -42q72 -32 91 -40q90 -41 176 -70q36 25 82 56q162 107 354 186q44 18 93 35q18 6 96 30q46 15 96 27q68 15 98 19q26 7 49 8q23 4 50 6q47 4 100 4q57 0 102 -6l25 -4q12 -4 25 -6q6 -2 14 -6l10 -5q12 -5 25 -14q12 -7 18 -20zM2210 1360v2v2
l-2 4q0 4 -4 8q-5 9 -13 15q-6 5 -20 10l-21 8q-12 5 -24 6q-3 0 -11 1.5t-12 2.5q-39 4 -96 4q-91 -2 -195 -22q-183 -34 -376 -113q-92 -38 -176 -84q-33 -18 -86 -49q-44 -24 -84 -51q-36 -22 -58 -39q77 -24 152 -39q57 -9 98 -14q45 -4 98 -4q47 0 100 5q47 4 97 15
q96 17 190 53q87 32 179 80q82 44 170 101q6 6 11 9q8 5 9 5l10 8l4 2q4 1 4 4q9 5 20 16l17 17l13 16q4 11 6 21z" />
    <glyph glyph-name="C" unicode="&#xc7;" horiz-adv-x="2007" 
d="M2224 1389q8 -16 8 -31q-1 -11 -10 -29q-1 -2 -14 -20q-8 -11 -21 -19q-11 -11 -20 -16q-3 -3 -6 -4l-4 -4l-11 -6l-20 -15q-39 -24 -84 -51q-39 -23 -88 -47q-93 -50 -182 -80q-100 -35 -193 -51q-104 -19 -199 -19q-92 0 -196 19q-44 7 -99 20q-18 4 -65 19
q-30 -22 -88 -66q-81 -65 -148 -131q-67 -65 -133 -143q-29 -35 -61 -78q-33 -43 -55 -80q-31 -50 -46 -86q-18 -47 -24 -90q-5 -51 10 -90l10 -21q5 -10 13 -18q7 -13 13 -18q7 -7 17 -15q14 -13 39 -26q15 -9 43 -21q40 -16 92 -27q38 -9 97 -14q30 -2 49 -2q30 -2 47 -2
q95 0 197 12q92 12 194 33q188 40 377 115q100 41 180 82q87 44 170 100q4 4 7 -1t-1 -9q-82 -58 -170 -103q-87 -48 -180 -86q-7 -3 -40.5 -16.5t-51.5 -20.5q-28 -10 -94 -30q-112 -36 -193 -54q-95 -22 -194 -34q-109 -16 -199 -17q-19 0 -51 2q-19 0 -49 2
q-44 4 -101 13q-56 11 -98 28q-22 9 -47 23q-19 10 -43 29q-11 9 -19 18q-13 11 -18 19q-8 12 -14 24q-9 14 -13 25q-10 24 -12 51q-2 24 0 53q5 48 27 100q6 17 20 45l25 45q27 43 57 84q25 35 62 78q73 87 136 148q79 77 148 133q30 25 68 51q-79 29 -170 66
q-7 3 -27.5 11.5t-32.5 14.5l-65 29q-12 6 -31.5 14t-25.5 10q-20 8 -52.5 20t-40.5 15q-57 20 -94 29q-51 12 -94 12q-52 2 -94 -11q-47 -14 -86 -40q-37 -26 -70 -63q-12 -12 -24 -1q-12 12 -2 23q43 45 79 66q43 27 95 43q27 7 51 8t51 0q40 -1 100 -15q53 -14 95 -32
q51 -19 92 -37q21 -11 91 -42q72 -32 91 -40q90 -41 176 -70q36 25 82 56q162 107 354 186q44 18 93 35q18 6 96 30q46 15 96 27q68 15 98 19q26 7 49 8q23 4 50 6q47 4 100 4q57 0 102 -6l25 -4q12 -4 25 -6q6 -2 14 -6l10 -5q12 -5 25 -14q12 -7 18 -20zM2210 1360v2v2
l-2 4q0 4 -4 8q-5 9 -13 15q-6 5 -20 10l-21 8q-12 5 -24 6q-3 0 -11 1.5t-12 2.5q-39 4 -96 4q-91 -2 -195 -22q-183 -34 -376 -113q-92 -38 -176 -84q-33 -18 -86 -49q-44 -24 -84 -51q-36 -22 -58 -39q77 -24 152 -39q57 -9 98 -14q45 -4 98 -4q47 0 100 5q47 4 97 15
q96 17 190 53q87 32 179 80q82 44 170 101q6 6 11 9q8 5 9 5l10 8l4 2q4 1 4 4q9 5 20 16l17 17l13 16q4 11 6 21z" />
    <glyph glyph-name="D" unicode="D" horiz-adv-x="2050" 
d="M2210 1169q8 -40 8 -79v-9q0 -6 -2 -12v-18l-4 -21v-4l-2 -4l-2 -10v-11l-4 -8l-1 -8q-2 -9 -3 -10q-2 -9 -4.5 -17.5t-4.5 -14t-2 -7.5q-1 -1 -3 -5l-2 -6q-1 -2 -1 -7l-6 -17l-4 -10l-4 -8q0 -3 -6 -19q-14 -27 -37 -69q-38 -65 -90 -125q-55 -61 -111 -109
q-61 -51 -121 -92q-74 -50 -131 -82q-62 -34 -137 -67q-142 -64 -287 -107q-69 -21 -147 -39q-53 -10 -152 -24q-159 -23 -305 -15q-81 5 -151 19q-3 1 -74 16q-21 6 -72 25q-39 16 -69 32q-37 19 -66 41q-62 46 -104 111q-14 24 -19 35q-9 19 -14 35q-13 42 -13 75
q0 38 15 76q11 33 37 68q41 56 112 102q65 43 135 70q63 25 148 41q76 16 152 16q90 2 153 -12q40 -7 76 -23q36 -12 70 -33l20 -16q13 11 62 49.5t73 57.5l201 157q27 21 69.5 54t74.5 57.5t57 44.5q3 3 5 4l3 2q-106 -32 -205 -39q-120 -8 -254 10q-98 16 -252 52
q-71 16 -123 26q-1 0 -5 1t-7.5 2t-7.5 1q-10 2 -13 2l-30 6q-30 5 -62 11l-16 2h-10l-6 2h-7q-6 0 -8 2h-16q-3 0 -17 2h-14h-16h-17h-14h-4h-4h-8l-7 -1q-4 -1 -10 -1l-14 -2q-1 0 -17 -2l-6 -1q-4 -1 -8 -1l-16 -4h-6l-9 -2l-14 -5l-14 -6l-8 -2q-3 0 -5 -2h-2l-14 -6
q-1 0 -4.5 -1.5t-5.5 -2.5q-2 -2 -4 -2q-15 -6 -15 -8q-6 -3 -12 -7t-9.5 -6t-4.5 -2l-4 -4l-8 -4l-13 -10q-2 -1 -24 -18q-6 -6 -13 -11l-10 -10l-12 -12l-10 -10q-12 -15 -25 -2q-12 12 0 24q0 2 9 10q6 5 16 15l12 10q7 5 12 10q23 17 27 21l14 8l14 8q3 3 29 16l14 7
l6 3q1 0 2.5 0.5t2.5 1.5t4 1l16 6l2 2h6l9 4l14 4l16 4l8 2h9l16 4q4 0 8 1t8 1q14 2 17 2l16 2h8h7h8h4h4h16h17h16l16 -2q9 0 17 -2h16q2 -2 8 -2h7q2 -2 8 -2h8l16 -4q54 -8 125 -24q10 -2 125 -29q144 -36 248 -53q137 -21 254 -13q67 5 125 19q55 12 113 35
q122 94 163 123q52 41 103 75q29 22 51 39q23 15 53 35q3 2 8 5.5t7 4.5q2 0 4 2q2 0 4 2h2h4q2 2 7 -3t3 -7q0 -2 -2 -4v-2l-2 -2l-2 -2q0 -2 -10 -12l-13 -11l-45 -45l-6 -6l-6 -4l-12 -12q-24 -20 -25 -21l-24 -20l-27 -19q-1 0 -25 -18q-21 -14 -26 -19q-2 0 -12 -7
q-11 -8 -15 -9l-28 -16q-9 -5 -24 -14t-19 -11q53 16 84 21q40 8 75 12q45 7 76 8q40 1 78 0h5h7h6q1 0 4 -0.5t8 -1t9 -0.5q23 -5 37 -6q2 -2 5 -2t5 -2l10 -2h4l4 -2l11 -4q9 -3 21.5 -8.5t14.5 -6.5t17 -10l4 -4l4 -2l8 -6l8 -6q2 -2 6 -4l3 -3q1 -3 14 -16
q25 -31 37 -72zM1739 1366l-47 -37l16 10q2 1 4.5 3t3.5 3l9 6q5 3 10 5l9 6l16 12t17 12l9 7l24 20l25 21q1 1 8.5 7.5t14.5 12.5l18 16q1 0 4 3l2 2l8 8q-24 -18 -51 -39q-40 -29 -100 -78zM2187 1092q1 39 -6 69q-11 38 -31 64q-10 12 -12 12l-2 3q-2 3 -4 3l-6 6l-6 6
l-4 2q-3 3 -5 3q-11 7 -14 10q-15 8 -33 14l-8 2l-6 2l-4 2l-8 2q-3 0 -5 1l-3 1q-46 10 -74 11q-29 4 -74 2q-68 -1 -149 -17q-19 -3 -76 -14q-32 -8 -47 -12l-72 -56l-201 -157l-200 -158q-7 -6 -129 -102q5 -4 14 -13q25 -28 43 -65q9 -15 16 -37q5 -18 9 -39
q4 -18 6 -41v-39q0 -16 -18 -16q-17 0 -17 16v2q2 45 -2 72q-1 18 -8 35q-3 12 -13 34q-12 31 -37 60q-6 8 -14 14q-385 -304 -653 -510q-8 -8 -16 1t1 18q137 111 642 514l-15 10q-57 39 -135 57q-71 17 -147 17q-147 -1 -295 -54q-79 -30 -136 -65q-69 -45 -112 -100
q-22 -30 -35 -66q-14 -32 -14 -72q0 -36 12 -73q12 -34 33 -68q40 -63 102 -109q21 -16 64 -38q40 -22 69 -31q42 -15 72 -23q31 -9 74 -16q71 -13 149 -14q75 -2 150 4q71 6 149 18q69 11 150 29q57 14 145 41q149 47 281 108q64 30 133 68q71 40 127 80q68 45 119 90
q60 50 108 104t88 119q18 28 35 66l6 16l4 8l4 8l6 19v2q1 1 2 3t1 4q1 7 4 7q0 1 1.5 6.5t4 13.5t4.5 17q1 1 3 9l1 7l2 11l2 8l2 10l2 4v2v2l4 19l2 18v9v10z" />
    <glyph glyph-name="E" unicode="E" horiz-adv-x="2002" 
d="M2062 1219q2 -6 2 -9q0 -9 -4 -16q-1 -4 -6 -10q-12 -15 -16 -19q-12 -9 -35 -26q-17 -12 -39 -25q-25 -14 -41 -20q-34 -14 -43 -17q-28 -8 -43 -11q-30 -6 -45 -7q-77 -12 -178 -4h-2q-32 -29 -49 -54q-12 -20 -17 -36q-6 -19 -5 -37q2 -19 9 -37q6 -17 19 -37
q10 -11 -2 -22q-7 -7 -15 -5l-8 2q-8 2 -14 3q-11 4 -25 4q-8 2 -24 4.5t-23 3.5q-33 4 -96 10q-109 8 -193 4q-108 -5 -190 -20q-100 -21 -178 -60q-46 -23 -82 -49q-44 -32 -70 -62q-33 -38 -55 -75q-21 -38 -37 -86q-18 -52 -25 -90q-8 -53 -4 -94q5 -49 21 -89
q10 -20 22 -38t29 -35q30 -30 74 -53q41 -23 88 -35q50 -14 94 -19q22 -4 47 -6h49q88 0 193 17q87 16 188 45q95 30 181 66q94 40 176 83q173 90 325 211q4 4 7 -1t-1 -9q-104 -76 -159 -111q-37 -26 -82 -52q-51 -30 -86 -48q-178 -94 -359 -150q-41 -14 -94 -26
q-60 -16 -94 -21q-105 -19 -195 -20q-61 -2 -98 2q-59 5 -98 14q-50 12 -94 33q-46 22 -84 57q-22 20 -34 37q-16 23 -26 45q-21 44 -26 100q-5 47 6 103q6 45 24 96q16 44 41 90q25 42 62 82q35 40 73 68q38 26 86 51q82 40 189 61q93 19 196 23q86 4 195 -4q65 -6 98 -10
l49 -9h7l2 -2q-2 6 -2 9q-12 27 -13 49q-2 25 6 49q6 24 21 45q11 20 29 39l4 2q-64 8 -127 22q-80 18 -174 45q-28 8 -170 52l-86 26q-16 4 -86 25q-107 31 -172 47q-95 22 -175 33q-99 12 -176 6q-46 -5 -86 -12q-39 -11 -82 -29q-39 -17 -73 -43q-21 -14 -34 -27l-30 -30
q-12 -12 -24 -1q-12 12 -2 23q23 23 34 33q8 7 37 26t39 25q28 14 43 21q31 12 88 24q43 11 90 12q85 5 179 -10q71 -10 176 -37q63 -16 86 -24q49 -13 86 -25q10 -3 38.5 -11.5t47.5 -14.5l84 -27q156 -48 170 -53q89 -24 174 -43q72 -17 133 -23q20 18 22 19q32 27 76 51
q74 41 168 71q65 17 88 21q24 5 45 6q29 2 47 0q8 -2 13 -2l12 -4q7 -1 12 -8q4 -1 6 -6zM2045 1202q1 3 1 6v2l-2 2q-2 2 -6 2q-8 5 -21 5q-9 0 -41 -2q-28 -6 -43 -9q-49 -13 -84 -26q-37 -11 -82 -31q-47 -23 -77 -41q-38 -22 -66 -45q54 -2 78 -2q43 1 88 8
q95 15 166 55q23 14 37 25q12 8 35 27q6 6 12 16q4 4 5 8z" />
    <glyph glyph-name="E" unicode="&#xcb;" horiz-adv-x="2002" 
d="M2062 1219q2 -6 2 -9q0 -9 -4 -16q-1 -4 -6 -10q-12 -15 -16 -19q-12 -9 -35 -26q-17 -12 -39 -25q-25 -14 -41 -20q-34 -14 -43 -17q-28 -8 -43 -11q-30 -6 -45 -7q-77 -12 -178 -4h-2q-32 -29 -49 -54q-12 -20 -17 -36q-6 -19 -5 -37q2 -19 9 -37q6 -17 19 -37
q10 -11 -2 -22q-7 -7 -15 -5l-8 2q-8 2 -14 3q-11 4 -25 4q-8 2 -24 4.5t-23 3.5q-33 4 -96 10q-109 8 -193 4q-108 -5 -190 -20q-100 -21 -178 -60q-46 -23 -82 -49q-44 -32 -70 -62q-33 -38 -55 -75q-21 -38 -37 -86q-18 -52 -25 -90q-8 -53 -4 -94q5 -49 21 -89
q10 -20 22 -38t29 -35q30 -30 74 -53q41 -23 88 -35q50 -14 94 -19q22 -4 47 -6h49q88 0 193 17q87 16 188 45q95 30 181 66q94 40 176 83q173 90 325 211q4 4 7 -1t-1 -9q-104 -76 -159 -111q-37 -26 -82 -52q-51 -30 -86 -48q-178 -94 -359 -150q-41 -14 -94 -26
q-60 -16 -94 -21q-105 -19 -195 -20q-61 -2 -98 2q-59 5 -98 14q-50 12 -94 33q-46 22 -84 57q-22 20 -34 37q-16 23 -26 45q-21 44 -26 100q-5 47 6 103q6 45 24 96q16 44 41 90q25 42 62 82q35 40 73 68q38 26 86 51q82 40 189 61q93 19 196 23q86 4 195 -4q65 -6 98 -10
l49 -9h7l2 -2q-2 6 -2 9q-12 27 -13 49q-2 25 6 49q6 24 21 45q11 20 29 39l4 2q-64 8 -127 22q-80 18 -174 45q-28 8 -170 52l-86 26q-16 4 -86 25q-107 31 -172 47q-95 22 -175 33q-99 12 -176 6q-46 -5 -86 -12q-39 -11 -82 -29q-39 -17 -73 -43q-21 -14 -34 -27l-30 -30
q-12 -12 -24 -1q-12 12 -2 23q23 23 34 33q8 7 37 26t39 25q28 14 43 21q31 12 88 24q43 11 90 12q85 5 179 -10q71 -10 176 -37q63 -16 86 -24q49 -13 86 -25q10 -3 38.5 -11.5t47.5 -14.5l84 -27q156 -48 170 -53q89 -24 174 -43q72 -17 133 -23q20 18 22 19q32 27 76 51
q74 41 168 71q65 17 88 21q24 5 45 6q29 2 47 0q8 -2 13 -2l12 -4q7 -1 12 -8q4 -1 6 -6zM2045 1202q1 3 1 6v2l-2 2q-2 2 -6 2q-8 5 -21 5q-9 0 -41 -2q-28 -6 -43 -9q-49 -13 -84 -26q-37 -11 -82 -31q-47 -23 -77 -41q-38 -22 -66 -45q54 -2 78 -2q43 1 88 8
q95 15 166 55q23 14 37 25q12 8 35 27q6 6 12 16q4 4 5 8z" />
    <glyph glyph-name="E" unicode="&#xca;" horiz-adv-x="2002" 
d="M2062 1219q2 -6 2 -9q0 -9 -4 -16q-1 -4 -6 -10q-12 -15 -16 -19q-12 -9 -35 -26q-17 -12 -39 -25q-25 -14 -41 -20q-34 -14 -43 -17q-28 -8 -43 -11q-30 -6 -45 -7q-77 -12 -178 -4h-2q-32 -29 -49 -54q-12 -20 -17 -36q-6 -19 -5 -37q2 -19 9 -37q6 -17 19 -37
q10 -11 -2 -22q-7 -7 -15 -5l-8 2q-8 2 -14 3q-11 4 -25 4q-8 2 -24 4.5t-23 3.5q-33 4 -96 10q-109 8 -193 4q-108 -5 -190 -20q-100 -21 -178 -60q-46 -23 -82 -49q-44 -32 -70 -62q-33 -38 -55 -75q-21 -38 -37 -86q-18 -52 -25 -90q-8 -53 -4 -94q5 -49 21 -89
q10 -20 22 -38t29 -35q30 -30 74 -53q41 -23 88 -35q50 -14 94 -19q22 -4 47 -6h49q88 0 193 17q87 16 188 45q95 30 181 66q94 40 176 83q173 90 325 211q4 4 7 -1t-1 -9q-104 -76 -159 -111q-37 -26 -82 -52q-51 -30 -86 -48q-178 -94 -359 -150q-41 -14 -94 -26
q-60 -16 -94 -21q-105 -19 -195 -20q-61 -2 -98 2q-59 5 -98 14q-50 12 -94 33q-46 22 -84 57q-22 20 -34 37q-16 23 -26 45q-21 44 -26 100q-5 47 6 103q6 45 24 96q16 44 41 90q25 42 62 82q35 40 73 68q38 26 86 51q82 40 189 61q93 19 196 23q86 4 195 -4q65 -6 98 -10
l49 -9h7l2 -2q-2 6 -2 9q-12 27 -13 49q-2 25 6 49q6 24 21 45q11 20 29 39l4 2q-64 8 -127 22q-80 18 -174 45q-28 8 -170 52l-86 26q-16 4 -86 25q-107 31 -172 47q-95 22 -175 33q-99 12 -176 6q-46 -5 -86 -12q-39 -11 -82 -29q-39 -17 -73 -43q-21 -14 -34 -27l-30 -30
q-12 -12 -24 -1q-12 12 -2 23q23 23 34 33q8 7 37 26t39 25q28 14 43 21q31 12 88 24q43 11 90 12q85 5 179 -10q71 -10 176 -37q63 -16 86 -24q49 -13 86 -25q10 -3 38.5 -11.5t47.5 -14.5l84 -27q156 -48 170 -53q89 -24 174 -43q72 -17 133 -23q20 18 22 19q32 27 76 51
q74 41 168 71q65 17 88 21q24 5 45 6q29 2 47 0q8 -2 13 -2l12 -4q7 -1 12 -8q4 -1 6 -6zM2045 1202q1 3 1 6v2l-2 2q-2 2 -6 2q-8 5 -21 5q-9 0 -41 -2q-28 -6 -43 -9q-49 -13 -84 -26q-37 -11 -82 -31q-47 -23 -77 -41q-38 -22 -66 -45q54 -2 78 -2q43 1 88 8
q95 15 166 55q23 14 37 25q12 8 35 27q6 6 12 16q4 4 5 8z" />
    <glyph glyph-name="E" unicode="&#xc9;" horiz-adv-x="2002" 
d="M2062 1219q2 -6 2 -9q0 -9 -4 -16q-1 -4 -6 -10q-12 -15 -16 -19q-12 -9 -35 -26q-17 -12 -39 -25q-25 -14 -41 -20q-34 -14 -43 -17q-28 -8 -43 -11q-30 -6 -45 -7q-77 -12 -178 -4h-2q-32 -29 -49 -54q-12 -20 -17 -36q-6 -19 -5 -37q2 -19 9 -37q6 -17 19 -37
q10 -11 -2 -22q-7 -7 -15 -5l-8 2q-8 2 -14 3q-11 4 -25 4q-8 2 -24 4.5t-23 3.5q-33 4 -96 10q-109 8 -193 4q-108 -5 -190 -20q-100 -21 -178 -60q-46 -23 -82 -49q-44 -32 -70 -62q-33 -38 -55 -75q-21 -38 -37 -86q-18 -52 -25 -90q-8 -53 -4 -94q5 -49 21 -89
q10 -20 22 -38t29 -35q30 -30 74 -53q41 -23 88 -35q50 -14 94 -19q22 -4 47 -6h49q88 0 193 17q87 16 188 45q95 30 181 66q94 40 176 83q173 90 325 211q4 4 7 -1t-1 -9q-104 -76 -159 -111q-37 -26 -82 -52q-51 -30 -86 -48q-178 -94 -359 -150q-41 -14 -94 -26
q-60 -16 -94 -21q-105 -19 -195 -20q-61 -2 -98 2q-59 5 -98 14q-50 12 -94 33q-46 22 -84 57q-22 20 -34 37q-16 23 -26 45q-21 44 -26 100q-5 47 6 103q6 45 24 96q16 44 41 90q25 42 62 82q35 40 73 68q38 26 86 51q82 40 189 61q93 19 196 23q86 4 195 -4q65 -6 98 -10
l49 -9h7l2 -2q-2 6 -2 9q-12 27 -13 49q-2 25 6 49q6 24 21 45q11 20 29 39l4 2q-64 8 -127 22q-80 18 -174 45q-28 8 -170 52l-86 26q-16 4 -86 25q-107 31 -172 47q-95 22 -175 33q-99 12 -176 6q-46 -5 -86 -12q-39 -11 -82 -29q-39 -17 -73 -43q-21 -14 -34 -27l-30 -30
q-12 -12 -24 -1q-12 12 -2 23q23 23 34 33q8 7 37 26t39 25q28 14 43 21q31 12 88 24q43 11 90 12q85 5 179 -10q71 -10 176 -37q63 -16 86 -24q49 -13 86 -25q10 -3 38.5 -11.5t47.5 -14.5l84 -27q156 -48 170 -53q89 -24 174 -43q72 -17 133 -23q20 18 22 19q32 27 76 51
q74 41 168 71q65 17 88 21q24 5 45 6q29 2 47 0q8 -2 13 -2l12 -4q7 -1 12 -8q4 -1 6 -6zM2045 1202q1 3 1 6v2l-2 2q-2 2 -6 2q-8 5 -21 5q-9 0 -41 -2q-28 -6 -43 -9q-49 -13 -84 -26q-37 -11 -82 -31q-47 -23 -77 -41q-38 -22 -66 -45q54 -2 78 -2q43 1 88 8
q95 15 166 55q23 14 37 25q12 8 35 27q6 6 12 16q4 4 5 8z" />
    <glyph glyph-name="E" unicode="&#xc8;" horiz-adv-x="2002" 
d="M2062 1219q2 -6 2 -9q0 -9 -4 -16q-1 -4 -6 -10q-12 -15 -16 -19q-12 -9 -35 -26q-17 -12 -39 -25q-25 -14 -41 -20q-34 -14 -43 -17q-28 -8 -43 -11q-30 -6 -45 -7q-77 -12 -178 -4h-2q-32 -29 -49 -54q-12 -20 -17 -36q-6 -19 -5 -37q2 -19 9 -37q6 -17 19 -37
q10 -11 -2 -22q-7 -7 -15 -5l-8 2q-8 2 -14 3q-11 4 -25 4q-8 2 -24 4.5t-23 3.5q-33 4 -96 10q-109 8 -193 4q-108 -5 -190 -20q-100 -21 -178 -60q-46 -23 -82 -49q-44 -32 -70 -62q-33 -38 -55 -75q-21 -38 -37 -86q-18 -52 -25 -90q-8 -53 -4 -94q5 -49 21 -89
q10 -20 22 -38t29 -35q30 -30 74 -53q41 -23 88 -35q50 -14 94 -19q22 -4 47 -6h49q88 0 193 17q87 16 188 45q95 30 181 66q94 40 176 83q173 90 325 211q4 4 7 -1t-1 -9q-104 -76 -159 -111q-37 -26 -82 -52q-51 -30 -86 -48q-178 -94 -359 -150q-41 -14 -94 -26
q-60 -16 -94 -21q-105 -19 -195 -20q-61 -2 -98 2q-59 5 -98 14q-50 12 -94 33q-46 22 -84 57q-22 20 -34 37q-16 23 -26 45q-21 44 -26 100q-5 47 6 103q6 45 24 96q16 44 41 90q25 42 62 82q35 40 73 68q38 26 86 51q82 40 189 61q93 19 196 23q86 4 195 -4q65 -6 98 -10
l49 -9h7l2 -2q-2 6 -2 9q-12 27 -13 49q-2 25 6 49q6 24 21 45q11 20 29 39l4 2q-64 8 -127 22q-80 18 -174 45q-28 8 -170 52l-86 26q-16 4 -86 25q-107 31 -172 47q-95 22 -175 33q-99 12 -176 6q-46 -5 -86 -12q-39 -11 -82 -29q-39 -17 -73 -43q-21 -14 -34 -27l-30 -30
q-12 -12 -24 -1q-12 12 -2 23q23 23 34 33q8 7 37 26t39 25q28 14 43 21q31 12 88 24q43 11 90 12q85 5 179 -10q71 -10 176 -37q63 -16 86 -24q49 -13 86 -25q10 -3 38.5 -11.5t47.5 -14.5l84 -27q156 -48 170 -53q89 -24 174 -43q72 -17 133 -23q20 18 22 19q32 27 76 51
q74 41 168 71q65 17 88 21q24 5 45 6q29 2 47 0q8 -2 13 -2l12 -4q7 -1 12 -8q4 -1 6 -6zM2045 1202q1 3 1 6v2l-2 2q-2 2 -6 2q-8 5 -21 5q-9 0 -41 -2q-28 -6 -43 -9q-49 -13 -84 -26q-37 -11 -82 -31q-47 -23 -77 -41q-38 -22 -66 -45q54 -2 78 -2q43 1 88 8
q95 15 166 55q23 14 37 25q12 8 35 27q6 6 12 16q4 4 5 8z" />
    <glyph glyph-name="F" unicode="F" horiz-adv-x="1282" 
d="M3208 1339q18 -1 16 -18v-2q-4 -17 -11 -39q-6 -17 -14 -37q-17 -33 -47 -63q-28 -25 -62 -47q-30 -17 -69 -33q-42 -15 -72 -23q-71 -15 -74 -16q-78 -14 -149 -19q-136 -8 -301 -2q-127 6 -299 23q-146 17 -297 39q-156 23 -297 49q-118 23 -158 31l-653 -690
q3 0 10.5 -2t20.5 -5t25 -5q3 -1 69 -13q78 -17 112 -23q49 -8 113 -14q69 -6 113 -2q32 5 55 12q17 6 25 11q11 7 22 18q4 4 8 0t0 -8q-14 -14 -24 -19l-6 -4q-3 0 -4 -1t-5 -1l-2 -2h-4q0 -2 -2 -2q-4 0 -4 -2q-20 -5 -57 -10q-27 -2 -58 0q-30 0 -57 4q-63 6 -115 14
q-3 0 -21 4t-34 7q-8 2 -27 5t-30 5q-13 2 -35 6q-4 1 -19 3.5t-22 4.5q-18 4 -37 6q-9 3 -18 4l-621 -655h-2q-10 -12 -22 0q-13 13 -2 25l555 577q13 16 45 62q-39 6 -45 8q-78 9 -115 10q-34 0 -55 -4q-3 0 -6 -0.5t-5 -1.5h-2q-7 0 -14 -4q-19 -6 -23 -8q-17 -8 -24 7
q-8 16 6 23q2 0 4 2q4 0 15 1.5t18 2.5q20 2 29 2h16h5h9q6 -1 16.5 -2.5t12.5 -1.5q51 -6 113 -16q9 -2 26.5 -4.5l24.5 -3.5q1 0 3 2q1 0 2 2l1 2q21 33 39 63q19 29 37 66q37 71 55 137q22 76 22 148l-4 36q-1 20 -6 37q-6 24 -10 35q-5 16 -14 35q-30 66 -88 117
q-21 21 -58 47q-30 24 -63 41q-48 25 -64 39q-14 8 -16 10q-10 8 -14 12q-6 7 -7 8q-1 5 -4 7q0 5 1 8q2 5 5 6q2 2 5 2q1 0 4.5 1.5t5.5 2.5h20h19q5 0 18 -1.5t21 -2.5q11 -2 73 -10q102 -18 295 -54q127 -25 148 -28l147 -29q257 -50 293 -57q392 -73 590 -99
q133 -17 299 -30q166 -7 299 0q80 6 147 18q79 16 142 41q32 14 65 35q30 21 55 47q26 30 37 59q10 22 13 34q3 13 5 35q1 16 18 15zM659 469l19 20h-2h-2q-2 -4 -7.5 -11t-7.5 -9zM688 498l660 688q-12 3 -109 22q-22 7 -74 17l-73 16q-8 2 -36 8.5t-48 10.5q-44 10 -62 14
q-124 29 -147 33q-59 14 -146 30q-11 2 -36.5 6.5t-36.5 6.5q-9 1 -22 2.5t-15 1.5h-19h-18q-2 0 -8 -2q-2 0 -2 -1v-2v-3l6 -7q5 -7 14 -12q1 -1 6 -4.5t8 -5.5l31 -21q6 -2 18 -9q14 -9 15 -9q33 -17 63 -41q33 -25 58 -47l14 -14q2 -3 4.5 -5.5t4 -4.5t2.5 -4l1 -1
q17 -17 25 -28q3 -4 20 -31q13 -20 19 -35q9 -19 14 -35q5 -14 10 -37q6 -22 7 -37q2 -24 2 -36q2 -70 -21 -150q-23 -73 -57 -139q-30 -54 -37 -66q-18 -30 -39 -63q-1 0 -3 -2l-1 -2q3 0 4 -1t4 -1z" />
    <glyph glyph-name="G" unicode="G" horiz-adv-x="2109" 
d="M2285 1366q3 -13 -2 -29q-6 -14 -10 -22q-10 -13 -16 -17q-8 -10 -33 -28q-3 -1 -8 -6l-10 -4l-17 -13q-33 -19 -35 -22l-17.5 -10t-26 -15t-27.5 -16q-51 -26 -74 -39q-157 -79 -311 -117q-95 -21 -162 -27q-87 -8 -166 -2q-80 4 -166 23q-41 8 -80 18q0 2 -2 2l-24 -20
q-124 -105 -221 -236q-53 -72 -91 -137q-9 -16 -18 -35q-14 -27 -18 -36q-22 -42 -29 -74q-12 -44 -6 -74q5 -20 13 -32t24 -23q29 -19 71 -25q33 -6 78 -6q42 0 82 4q34 4 80 12q68 11 162 35q150 37 313 99q60 23 154 61q10 9 26 23t21 18q86 71 129 104q15 13 33 25
q6 4 13.5 10t12 9.5t8.5 5.5q21 10 39 18q32 11 41 14q16 2 23 2q13 2 22 -2h4q2 0 4 -2q6 -2 7 -6q2 -6 2 -8t-2 -8q0 -1 -7 -10l-8 -9q-11 -11 -32 -26q-11 -7 -35 -23q-47 -27 -148 -76q-11 -6 -35 -17t-28 -13q-10 -8 -19 -17q-94 -80 -125 -108l-120 -111
q-16 -15 -52 -45l17 2l162 35q22 5 79 17t82 18q92 22 160 41q49 11 78 22q15 4 39 15q15 5 37 16q6 5 8 -1q2 -5 -2 -9q-33 -15 -39 -17q-22 -9 -39 -14q-21 -6 -39 -12q-3 -1 -17.5 -4.5t-23.5 -5.5q-61 -16 -160 -39q-78 -19 -161 -35l-162 -35q-26 -7 -35 -8
q-118 -105 -182 -158q-131 -114 -258 -209q-55 -40 -136 -94q-80 -53 -141 -88q-85 -47 -149 -74q-79 -31 -160 -47q-44 -11 -84 -12q-20 -1 -41 0q-19 0 -41 2q-45 1 -84 12q-17 5 -39 14q-17 9 -37 23q-19 17 -26 37q-10 21 -9 45q1 13 11 45q6 15 20 39q23 34 55 63
q27 26 68 54q62 43 145 82q73 35 154 63q90 28 160 47q29 7 80 21q34 7 82 18q25 5 159 35q8 2 61.5 13t100.5 20l230 47q47 41 102 90q143 129 176 158q-84 -36 -125 -52q-76 -30 -156 -57q-88 -31 -157 -51q-90 -25 -160 -41q-99 -19 -166 -23q-47 0 -86 6q-15 1 -43 9
q-22 7 -41 20q-21 15 -34 34q-13 18 -19 44q-4 17 -2 45q1 18 8 43q11 40 31 82l18 37l21 37q40 72 90 141q100 134 227 244l1 1q1 1 3 1q-16 6 -30 10q-66 22 -156 59q-34 16 -152 68q-35 16 -75 33q-36 15 -76 28q-92 34 -158 41q-41 4 -82 -2q-41 -5 -76 -20
q-36 -16 -67 -41q-34 -25 -58 -55q-12 -16 -24 -4t-2 26h2q15 15 31 29t34 26q38 24 76 39q38 14 82 19q39 4 86 -2q69 -11 160 -45q60 -24 151 -64q110 -49 152 -65q81 -36 154 -60q14 -4 38 -12q114 97 261 178q148 80 307 131q90 27 160 43q93 20 165 25q40 4 84 4
q49 0 84 -4q7 -1 21 -3.5t22 -4.5q17 -4 41 -13q16 -8 21 -12q13 -7 20 -16q10 -14 12 -25zM1243 160q72 61 129 112q-83 -18 -209 -45q-222 -50 -321 -75q-41 -11 -80 -23q-45 -10 -80 -20q-68 -19 -156 -52q-82 -31 -149 -63q-85 -42 -142 -82q-33 -23 -61 -49
q-31 -27 -55 -58q-17 -24 -21 -32q-7 -17 -12 -35q-2 -18 3 -36q4 -16 20 -32l16 -12q2 -2 16 -10q26 -12 37 -15q20 -7 39 -8q21 -5 41 -6h41q13 0 41 2q44 5 80 14q64 16 153 58q58 26 144 76q126 75 270 184q112 85 256 207zM1888 672q-35 -25 -80 -64q6 2 17 7.5t16 7.5
q15 8 40.5 21t33.5 17q45 24 69 41q12 7 35 23q21 15 31 25q5 5 6 8q4 4 4 6l2 2h-2q0 2 -2 2h-2q-6 1 -16 0q-9 -2 -19 -6q-3 -1 -34 -19q-3 -3 -33 -22q-30 -22 -33 -25q-26 -18 -33 -24zM2255 1346q4 13 -5 24q-10 12 -30 19q-13 5 -37 10q-17 5 -39 6q-31 4 -80 4
q-44 0 -80 -4q-63 -6 -161 -27q-74 -16 -158 -41q-159 -51 -299 -129q-128 -71 -233 -157q123 -33 237 -39q166 -11 326 28q154 40 305 121q33 17 72 39q7 5 15 10.5t12.5 8.5t6.5 4l17 10l18 12q2 1 17 10l16 13l16 12l9 6q3 1 8 6q15 10 28 25q10 10 13 14q4 6 6 15z" />
    <glyph glyph-name="H" unicode="H" horiz-adv-x="2224" 
d="M2400 1262q14 -10 4 -25q0 -2 -2 -2q-14 -16 -35 -37q-31 -34 -32 -37q-28 -31 -68 -74q-24 -30 -63 -75q-29 -37 -64 -78q-25 -30 -69 -84.5t-56 -69.5q-30 -38 -123 -157q-8 -10 -24 -31.5t-25 -32.5q2 0 11 -3q3 -1 8 -3t6 -2l45 -14q5 -2 14 -5l16.5 -5.5t14.5 -4.5
q28 -9 90 -24q1 -1 25 -6q19 -4 22 -7q8 -2 24 -4.5t23 -3.5q54 -8 92 -8q7 2 7 -4t-7 -6q-15 0 -47 2q-16 1 -47 8q-43 7 -47 8q-3 0 -22 4q-23 6 -25 6q-27 5 -92 23l-45 12l-45 13q-27 8 -33 10q-27 -39 -59 -80q-52 -69 -60 -80q-32 -44 -59 -80q-71 -102 -111 -164
q-26 -41 -51 -86q-15 -24 -23 -43q-2 -3 -4 -10l-1 -2q-1 -1 -3 -4v-4q-2 -2 -2 -4v-2l-2 -6l-2 -3v-2v-4v-2q-5 -18 -21 -14q-18 5 -14 20l2 9v4l2 2l2 6q0 3 1 4l1 2l5 6q0 1 1 3t1 3q5 12 6 13q8 17 24 45q18 29 56 84q21 34 57 82q15 19 35.5 47t23.5 32
q12 15 32.5 41.5t29.5 38.5q5 7 27 36t32 42q32 41 60 74q-41 13 -136 39l-182 53l-90 27l-88 24q-14 -19 -47 -61q-9 -12 -36.5 -46.5t-39.5 -49.5q-85 -103 -158 -187q-85 -101 -163 -178q-9 -12 -41 -45l-23 -21q-1 -4 -6 -7q-3 -2 -8 -7t-6 -8q-34 -33 -91 -82
q-54 -48 -94 -78l-15 -10q-9 -6 -11 -8l-13 -8l-5 -4q-6 -4 -7 -5q-27 -14 -29 -16l-5 -2q-1 -1 -4 -2t-5 -2l-14 -6q-17 -8 -24 8t9 22h2l2 2q27 7 54 21q3 0 8 3t6 3q2 0 4 2q5 1 8 4q12 8 27 17q45 29 96 69q84 70 176 166q65 67 164 180q107 131 154 189q65 80 119 151
q-131 37 -170 47q-137 33 -185 43q-79 19 -92 21q-30 7 -92 17t-92 14q-60 9 -94 10q-49 4 -95 6q-55 0 -94 -4q-21 -2 -45 -6q-30 -6 -45 -10q-48 -12 -86 -33q-21 -12 -39 -27t-33 -33q-12 -13 -27 -35q-14 -21 -24 -40q-17 -42 -19 -89q-2 -48 19 -92q16 -39 51 -77
q11 -11 35 -31q17 -14 39 -25q40 -24 86 -30q50 -8 94 2q25 5 43 14q24 12 39 22q37 28 60 70q7 14 23 6q15 -7 7 -24l-2 -2q-41 -43 -78 -64q-45 -25 -90 -35q-49 -8 -96 2q-44 7 -90 31q-24 13 -41 27q-21 15 -35 32q-34 34 -55 78q-21 47 -21 96q0 45 19 93q12 26 23 43
q13 21 30 39q13 16 33 34q10 8 41 29q38 22 88 37q12 3 47 10q31 7 47 8q57 6 96 7q40 0 97 -5q39 -1 94 -8q44 -4 94 -12q157 -22 373 -76q101 -24 184 -49h2q0 2 3 5l3 3q68 93 72 99q10 14 72 98q22 30 141 198q31 44 135 201q10 14 25 5q14 -8 4 -23v-2q-21 -27 -72 -99
q-2 -3 -27 -37t-45 -61q-64 -90 -143 -194l-75 -99q-53 -70 -74 -96q0 -2 -2 -2q6 -2 15.5 -5t26 -8.5t29.5 -9.5q41 -12 92 -28l45 -15l45 -14l89 -31q2 -1 59 -20q46 -16 80 -29l53 68q40 49 125 155q38 47 127 156l61 78q35 41 64 78q24 30 59 78q1 2 7 9t11 13
q11 14 13 19q26 36 29 40q10 15 24 5z" />
    <glyph glyph-name="I" unicode="I" horiz-adv-x="1126" 
d="M1566 1332q1 -1 1 -5l-2 -4v-2l-2 -6q0 -2 -2 -8l-9 -25q-11 -21 -30 -43q-23 -25 -37 -37q-18 -13 -23 -16l-49 -70q-27 -36 -121 -164q-60 -82 -125 -164q-23 -29 -66 -81.5t-63 -77.5q-88 -104 -133 -156q-62 -69 -143 -147q-80 -80 -152 -140q-85 -72 -168 -120
q-48 -26 -94 -43q-27 -11 -51 -15q-27 -6 -53 -6q-29 -2 -51 4q-25 6 -52 19q-21 11 -43 30q-15 14 -32 39q-4 6 0 9t8 -1q31 -42 76 -63q20 -11 45 -16q24 -5 49 -3q44 1 96 23q40 17 90 45q36 22 82 57q34 25 80 64q45 37 76 67q22 21 71 72q20 20 70 74q46 50 68 76
q65 73 133 155q45 54 127 160q45 56 125 162l61 82l59 82l2 2q-44 -23 -79 -37q-23 -10 -97 -37q-56 -22 -96 -35q-15 -5 -48 -17t-48 -18q-53 -20 -94 -39q-33 -15 -48 -20l-45 -25q-47 -29 -81 -57q-14 -12 -37 -35q-20 -26 -29 -41q-26 -46 -27 -92q0 -16 -17 -15t-17 17
q0 2 2 2q1 13 6 29q3 6 8 24l6 13l6 12q2 3 7.5 11t7.5 12q4 7 16 21q10 12 18 20q10 10 39 32q41 31 88 56q35 19 93 45q10 4 42.5 17.5t51.5 21.5q11 4 25.5 9.5t35.5 13.5t35 13l96 35q62 23 94 37q61 25 95 43q3 3 8 4l43 60q27 34 33 41q10 12 32 36q11 11 19 21
q2 2 10 8q3 3 4 6q3 1 6 4q2 0 3 1t3 1h5q3 -1 6 -4q0 -2 1 -3zM1538 1288q4 10 6 21v-2v-2q-7 -7 -14 -21q-2 -2 -8 -10q-4 -6 -6 -11q-2 -6 -7 -11q-1 -1 -2.5 -3t-3 -4.5t-2.5 -3.5l-12 -18q8 8 22 24q18 23 27 41z" />
    <glyph glyph-name="I" unicode="&#xcf;" horiz-adv-x="1126" 
d="M1566 1332q1 -1 1 -5l-2 -4v-2l-2 -6q0 -2 -2 -8l-9 -25q-11 -21 -30 -43q-23 -25 -37 -37q-18 -13 -23 -16l-49 -70q-27 -36 -121 -164q-60 -82 -125 -164q-23 -29 -66 -81.5t-63 -77.5q-88 -104 -133 -156q-62 -69 -143 -147q-80 -80 -152 -140q-85 -72 -168 -120
q-48 -26 -94 -43q-27 -11 -51 -15q-27 -6 -53 -6q-29 -2 -51 4q-25 6 -52 19q-21 11 -43 30q-15 14 -32 39q-4 6 0 9t8 -1q31 -42 76 -63q20 -11 45 -16q24 -5 49 -3q44 1 96 23q40 17 90 45q36 22 82 57q34 25 80 64q45 37 76 67q22 21 71 72q20 20 70 74q46 50 68 76
q65 73 133 155q45 54 127 160q45 56 125 162l61 82l59 82l2 2q-44 -23 -79 -37q-23 -10 -97 -37q-56 -22 -96 -35q-15 -5 -48 -17t-48 -18q-53 -20 -94 -39q-33 -15 -48 -20l-45 -25q-47 -29 -81 -57q-14 -12 -37 -35q-20 -26 -29 -41q-26 -46 -27 -92q0 -16 -17 -15t-17 17
q0 2 2 2q1 13 6 29q3 6 8 24l6 13l6 12q2 3 7.5 11t7.5 12q4 7 16 21q10 12 18 20q10 10 39 32q41 31 88 56q35 19 93 45q10 4 42.5 17.5t51.5 21.5q11 4 25.5 9.5t35.5 13.5t35 13l96 35q62 23 94 37q61 25 95 43q3 3 8 4l43 60q27 34 33 41q10 12 32 36q11 11 19 21
q2 2 10 8q3 3 4 6q3 1 6 4q2 0 3 1t3 1h5q3 -1 6 -4q0 -2 1 -3zM1538 1288q4 10 6 21v-2v-2q-7 -7 -14 -21q-2 -2 -8 -10q-4 -6 -6 -11q-2 -6 -7 -11q-1 -1 -2.5 -3t-3 -4.5t-2.5 -3.5l-12 -18q8 8 22 24q18 23 27 41z" />
    <glyph glyph-name="I" unicode="&#xce;" horiz-adv-x="1126" 
d="M1566 1332q1 -1 1 -5l-2 -4v-2l-2 -6q0 -2 -2 -8l-9 -25q-11 -21 -30 -43q-23 -25 -37 -37q-18 -13 -23 -16l-49 -70q-27 -36 -121 -164q-60 -82 -125 -164q-23 -29 -66 -81.5t-63 -77.5q-88 -104 -133 -156q-62 -69 -143 -147q-80 -80 -152 -140q-85 -72 -168 -120
q-48 -26 -94 -43q-27 -11 -51 -15q-27 -6 -53 -6q-29 -2 -51 4q-25 6 -52 19q-21 11 -43 30q-15 14 -32 39q-4 6 0 9t8 -1q31 -42 76 -63q20 -11 45 -16q24 -5 49 -3q44 1 96 23q40 17 90 45q36 22 82 57q34 25 80 64q45 37 76 67q22 21 71 72q20 20 70 74q46 50 68 76
q65 73 133 155q45 54 127 160q45 56 125 162l61 82l59 82l2 2q-44 -23 -79 -37q-23 -10 -97 -37q-56 -22 -96 -35q-15 -5 -48 -17t-48 -18q-53 -20 -94 -39q-33 -15 -48 -20l-45 -25q-47 -29 -81 -57q-14 -12 -37 -35q-20 -26 -29 -41q-26 -46 -27 -92q0 -16 -17 -15t-17 17
q0 2 2 2q1 13 6 29q3 6 8 24l6 13l6 12q2 3 7.5 11t7.5 12q4 7 16 21q10 12 18 20q10 10 39 32q41 31 88 56q35 19 93 45q10 4 42.5 17.5t51.5 21.5q11 4 25.5 9.5t35.5 13.5t35 13l96 35q62 23 94 37q61 25 95 43q3 3 8 4l43 60q27 34 33 41q10 12 32 36q11 11 19 21
q2 2 10 8q3 3 4 6q3 1 6 4q2 0 3 1t3 1h5q3 -1 6 -4q0 -2 1 -3zM1538 1288q4 10 6 21v-2v-2q-7 -7 -14 -21q-2 -2 -8 -10q-4 -6 -6 -11q-2 -6 -7 -11q-1 -1 -2.5 -3t-3 -4.5t-2.5 -3.5l-12 -18q8 8 22 24q18 23 27 41z" />
    <glyph glyph-name="I" unicode="&#xcd;" horiz-adv-x="1126" 
d="M1566 1332q1 -1 1 -5l-2 -4v-2l-2 -6q0 -2 -2 -8l-9 -25q-11 -21 -30 -43q-23 -25 -37 -37q-18 -13 -23 -16l-49 -70q-27 -36 -121 -164q-60 -82 -125 -164q-23 -29 -66 -81.5t-63 -77.5q-88 -104 -133 -156q-62 -69 -143 -147q-80 -80 -152 -140q-85 -72 -168 -120
q-48 -26 -94 -43q-27 -11 -51 -15q-27 -6 -53 -6q-29 -2 -51 4q-25 6 -52 19q-21 11 -43 30q-15 14 -32 39q-4 6 0 9t8 -1q31 -42 76 -63q20 -11 45 -16q24 -5 49 -3q44 1 96 23q40 17 90 45q36 22 82 57q34 25 80 64q45 37 76 67q22 21 71 72q20 20 70 74q46 50 68 76
q65 73 133 155q45 54 127 160q45 56 125 162l61 82l59 82l2 2q-44 -23 -79 -37q-23 -10 -97 -37q-56 -22 -96 -35q-15 -5 -48 -17t-48 -18q-53 -20 -94 -39q-33 -15 -48 -20l-45 -25q-47 -29 -81 -57q-14 -12 -37 -35q-20 -26 -29 -41q-26 -46 -27 -92q0 -16 -17 -15t-17 17
q0 2 2 2q1 13 6 29q3 6 8 24l6 13l6 12q2 3 7.5 11t7.5 12q4 7 16 21q10 12 18 20q10 10 39 32q41 31 88 56q35 19 93 45q10 4 42.5 17.5t51.5 21.5q11 4 25.5 9.5t35.5 13.5t35 13l96 35q62 23 94 37q61 25 95 43q3 3 8 4l43 60q27 34 33 41q10 12 32 36q11 11 19 21
q2 2 10 8q3 3 4 6q3 1 6 4q2 0 3 1t3 1h5q3 -1 6 -4q0 -2 1 -3zM1538 1288q4 10 6 21v-2v-2q-7 -7 -14 -21q-2 -2 -8 -10q-4 -6 -6 -11q-2 -6 -7 -11q-1 -1 -2.5 -3t-3 -4.5t-2.5 -3.5l-12 -18q8 8 22 24q18 23 27 41z" />
    <glyph glyph-name="I" unicode="&#xcc;" horiz-adv-x="1126" 
d="M1566 1332q1 -1 1 -5l-2 -4v-2l-2 -6q0 -2 -2 -8l-9 -25q-11 -21 -30 -43q-23 -25 -37 -37q-18 -13 -23 -16l-49 -70q-27 -36 -121 -164q-60 -82 -125 -164q-23 -29 -66 -81.5t-63 -77.5q-88 -104 -133 -156q-62 -69 -143 -147q-80 -80 -152 -140q-85 -72 -168 -120
q-48 -26 -94 -43q-27 -11 -51 -15q-27 -6 -53 -6q-29 -2 -51 4q-25 6 -52 19q-21 11 -43 30q-15 14 -32 39q-4 6 0 9t8 -1q31 -42 76 -63q20 -11 45 -16q24 -5 49 -3q44 1 96 23q40 17 90 45q36 22 82 57q34 25 80 64q45 37 76 67q22 21 71 72q20 20 70 74q46 50 68 76
q65 73 133 155q45 54 127 160q45 56 125 162l61 82l59 82l2 2q-44 -23 -79 -37q-23 -10 -97 -37q-56 -22 -96 -35q-15 -5 -48 -17t-48 -18q-53 -20 -94 -39q-33 -15 -48 -20l-45 -25q-47 -29 -81 -57q-14 -12 -37 -35q-20 -26 -29 -41q-26 -46 -27 -92q0 -16 -17 -15t-17 17
q0 2 2 2q1 13 6 29q3 6 8 24l6 13l6 12q2 3 7.5 11t7.5 12q4 7 16 21q10 12 18 20q10 10 39 32q41 31 88 56q35 19 93 45q10 4 42.5 17.5t51.5 21.5q11 4 25.5 9.5t35.5 13.5t35 13l96 35q62 23 94 37q61 25 95 43q3 3 8 4l43 60q27 34 33 41q10 12 32 36q11 11 19 21
q2 2 10 8q3 3 4 6q3 1 6 4q2 0 3 1t3 1h5q3 -1 6 -4q0 -2 1 -3zM1538 1288q4 10 6 21v-2v-2q-7 -7 -14 -21q-2 -2 -8 -10q-4 -6 -6 -11q-2 -6 -7 -11q-1 -1 -2.5 -3t-3 -4.5t-2.5 -3.5l-12 -18q8 8 22 24q18 23 27 41z" />
    <glyph glyph-name="J" unicode="J" horiz-adv-x="1933" 
d="M2249 1331q1 -16 0 -31q-1 -10 -11 -26q-6 -13 -18 -23q-7 -10 -20 -18q-31 -24 -99 -47q-12 -4 -28 -10l-41 -48q-58 -65 -141 -163q-33 -39 -77 -92t-57 -68q-122 -142 -139 -162q-17 -18 -45.5 -50t-52.5 -58.5t-45 -49.5q-39 -44 -95 -100q88 14 148 25
q171 29 422 63q6 1 7 -5q1 -7 -5 -7q-32 -5 -103 -14.5t-108 -14.5q-86 -12 -211 -33q-101 -14 -160 -26q-119 -123 -192 -191q-81 -76 -158 -143q-91 -80 -166 -135q-94 -68 -180 -117q-100 -59 -195 -90q-62 -20 -104 -29q-50 -13 -107 -20q-59 -6 -106 2q-31 6 -53 18
q-28 15 -39 41q-10 24 -4 55q6 30 18 52q11 22 29 45q25 31 34 41q27 28 80 71q53 41 88 62q37 24 90 55q46 23 97 47q36 19 96 43q14 5 26 10t18 8t7 3l25 8l24 10l13 4l12 4q1 0 13 5q10 4 12 4l8 3q7 3 14 5q26 8 29 10l26 6l6 2l7 2l12 4l51 15q98 25 207 49
q55 11 197 39q80 81 137 145q26 28 77 86t64 72q6 7 139 160q95 107 140 159q110 127 139 160l2 4l4 2q-6 0 -8 -2q-98 -20 -211 -31q-88 -8 -107 -10q-50 -1 -106 -6q-56 -4 -107 -4q-11 0 -47 -1.5t-59 -2.5q-15 0 -28 -0.5t-19 -1.5h-6q-41 -1 -54 -4l-26 -2h-6l-7 -2
l-14 -2l-24 -5l-27 -4q-11 -1 -51 -12l-6 -2l-7 -2l-12 -4l-14 -4l-6 -2l-6 -2l-25 -11l-10 -6l-13 -4l-12 -6l-12 -6l-10 -6l-7 -4q-3 0 -4 -1l-2 -1q-91 -57 -147 -146l-1 -2q-1 -1 -1 -4l-4 -6l-6 -10l-7 -13l-2 -4l-2 -6l-6 -12l-2 -6l-2 -6l-4 -13l-4 -12
q-8 -28 -12 -49l-2 -12v-13q-2 -10 -2 -12v-6v-4v-2q2 -21 -18 -23t-21 19v4v4v4q0 2 2 8v1q0 1 0.5 2.5t1 4t0.5 4.5q0 1 2 15l4 12q7 23 18 53l4 13l7 12l2 6l4 6l6 12q0 4 4 9q2 2 2 3t1 2t1 3q1 3 4 6l8 12l4 6l2 6q62 89 160 144l2 2q2 2 4 2l4 2l13 8l12 6l12 4l13 7
l12 6l24 8l7 2l8 2l12 4l19 6l6 2q13 3 25.5 6t19 5t8.5 2l27 4l26 4l12 2h7q3 0 4 1t4 1l26 2q2 0 9 0.5t20 1t25 0.5h6q6 1 19 1.5t28 0.5q32 0 106 2q61 4 107 6q58 2 104 6q19 2 55 5.5t52 5.5q40 5 106 14q99 19 105 20q5 1 22 7q52 55 54 57q54 56 75 74q26 21 43 34
q10 6 13 9q11 5 16 6h12q1 0 5 -2t8 -6q0 -1 1.5 -5t2.5 -6v-4v-2zM1147 213q47 45 147 147q-95 -17 -184 -36q-70 -14 -207 -48l-51 -16l-12 -2l-6 -2l-7 -2l-26 -8q-3 -1 -29 -10q-5 -2 -10 -3.5t-8 -2.5l-2 -1l-27 -8l-25 -10l-24 -8l-25 -10q-3 -3 -49 -21
q-60 -24 -96 -43q-34 -16 -96 -47q-62 -36 -91 -55q-33 -22 -86 -62q-45 -37 -77 -71q-16 -16 -33 -39q-18 -25 -29 -45q-11 -21 -16 -48q-6 -27 4 -49q11 -23 33 -35q18 -9 49 -14q43 -7 104 0q45 6 103 23q63 18 100 32q81 31 186 97q77 50 172 121q150 113 318 276z
M2222 1282q10 21 6 45v2v4h-2q-3 -1 -9 -5t-9 -7q-15 -10 -39 -35q-5 -5 -29 -31.5t-41 -46.5l-12 -14q2 1 5.5 2.5t4.5 1.5q24 9 49 21q16 6 23 12l10 6q10 6 10 8q23 17 33 37z" />
    <glyph glyph-name="K" unicode="K" horiz-adv-x="1499" 
d="M2185 1221q14 -10 4 -25q-1 -3 -6 -8l-6 -8q-7 -10 -14 -17q-11 -15 -29 -33q-37 -39 -59 -59q-61 -57 -129 -108q-134 -97 -293 -166q-154 -67 -322 -95q-142 -27 -299 -22l12 -8q23 -21 35 -35q26 -32 49 -80q17 -29 41 -82q4 -11 37 -84q23 -57 35 -84q21 -45 39 -84
q48 -101 86 -160q23 -39 51 -73q30 -35 64 -64q35 -31 73 -51q39 -20 84 -28q42 -7 88 -1q14 1 46 9q16 3 40 12l21 8q10 4 20 10q25 12 41 21q41 23 74 51q15 10 25 -3q11 -14 -4 -24v-2q-38 -20 -41 -22q-6 -3 -20.5 -11.5t-20.5 -11.5l-21 -10q-4 -2 -11.5 -4.5
l-10.5 -3.5q-26 -12 -43 -17q-30 -10 -45 -13q-30 -6 -47 -7q-45 -4 -95 2q-41 7 -88 31q-39 18 -78 51q-32 27 -65 65q-25 29 -55 74q-54 77 -95 160q-18 35 -41 82q-8 21 -36 84q-55 118 -76 166q-35 64 -43 78q-2 2 -27 34l-14 15q-2 0 -4 2q-37 -37 -64 -68
q-97 -103 -164 -192q-37 -47 -73 -103q-21 -32 -33 -53q-4 -7 -11 -18.5t-12.5 -20.5t-9.5 -16q-31 -63 -47 -115q-8 -34 -12 -61q-5 -33 0 -62q2 -17 -16 -18t-19 16v2q6 55 31 127q23 62 53 117q23 42 65 110q67 93 74 103q65 90 160 198q19 22 59 66v4q0 4 6 4
q51 55 107 113q44 45 90 90q13 13 28.5 27.5t34 31.5t29.5 27q36 35 88 80q-36 -4 -86 -4q-114 0 -254 20q-85 13 -250 41q-106 18 -125 21q-81 9 -124 10q-68 5 -125 0q-67 -6 -121 -23q-63 -21 -111 -55q-49 -33 -88 -82q-10 -14 -23 -4t-3 25q44 52 97 87q54 36 120 54
q59 19 127 23q48 4 129 -3q95 -6 252 -34q218 -39 247 -45q146 -21 252 -21q62 0 103 4q10 9 41.5 36.5t44.5 39.5q9 7 49 39l49 41q34 26 102 76q3 2 52 36q47 31 53 35q8 6 55 35l29 14q10 6 14 7q2 1 5.5 2.5t4.5 1.5h4h8q3 0 5 -2l4 -4q2 -2 2 -7v-4q0 -1 -1.5 -4.5
t-2.5 -5.5q-2 -2 -2 -4l-2 -2l-4 -8q-8 -8 -9 -13l-4 -4l-6 -10l-8 -12q-1 -1 -5 -7q-3 -5 -5 -5q-2 -2 -4.5 -7.5t-3.5 -7.5q-2 -4 -11 -12q-37 -47 -86 -94q-45 -42 -102 -76q-52 -31 -117 -53q-51 -18 -100 -25q-6 -5 -18 -16t-17 -15q-45 -39 -96 -84q-34 -32 -92 -84
q-16 -15 -47 -44.5t-46 -43.5q-43 -39 -94 -92q153 0 297 27q170 34 316 98q150 68 282 170q67 49 125 107q21 21 57 59q18 20 27 31q8 10 14 16l7 8l4 9h2q7 14 22 4zM1503 1122q-6 -6 -21 -18.5t-22 -18.5q38 7 78 23q62 18 115 50q55 33 100 75q46 45 84 94q2 3 35 51
q0 1 1.5 5t2.5 6l4 4q1 6 8 14l4 6l2 4h-4q-2 -2 -7 -4.5l-7 -3.5q-15 -8 -27 -14q-35 -25 -51 -37q-22 -16 -49 -37q-24 -18 -51 -39q-12 -10 -45 -36.5t-54 -43.5q-31 -23 -49 -39z" />
    <glyph glyph-name="L" unicode="L" horiz-adv-x="1363" 
d="M2713 57q9 -15 -6 -22l-2 -2q-83 -48 -194 -82q-52 -17 -103 -29q-50 -10 -104 -18q-104 -17 -209 -23q-66 -2 -104 -2q-51 -2 -107 0q-198 5 -418 33q-203 24 -415 65l-205 41q-31 7 -99.5 23.5t-105.5 24.5l-205 47q-3 0 -6 1l-6 2t-4 1l-6 -4q-38 -10 -54 -13
q-29 -4 -55 2q-10 3 -26 11q-5 1 -7 4l-6 4q-8 6 -10 8q-3 1 -6 4q-5 5 -6 8q-2 6 -2 7q0 5 1 7q1 3 4 4q4 2 7 3h4q6 2 14 0q5 0 15 -2q13 -1 51 -8q12 -3 72 -17q10 3 43 19q41 21 90 51q38 23 86 59q69 50 164 129q62 52 157 135q125 112 305 287q111 108 258 258
q-12 -5 -22 -6q-24 -6 -51 -12q-24 -4 -53 -6q-55 -5 -105 -5q-43 0 -104 7q-50 5 -105 12q-78 12 -207 39q-140 27 -207 39q-53 7 -102 12q-55 6 -104 6q-55 0 -105 -8q-52 -7 -98 -29q-47 -17 -88 -50t-70 -75q-10 -14 -23 -4t-3 25v2l10 8q3 3 5 6q3 4 5 4l6 6q2 2 2 5
q3 1 10 8q27 21 43 33q47 31 97 49q46 18 102 24q50 8 107 6q92 0 209 -20q26 -4 206 -39q126 -25 205 -37q44 -8 105 -14q47 -4 104 -4q61 -2 105 4q24 1 51 8q33 5 51 10q6 2 20.5 6.5t22.5 6.5q0 2 8 10l12 12l148 150q9 8 36 34t40 37q14 13 39 37.5t36 34.5
q11 11 21 18q8 9 10 9q9 7 12 8q2 2 5 2q2 2 4 2q3 0 6 -1q5 -2 6 -5q2 -6 2 -8q-2 -2 -2 -4q0 -1 -2 -3q0 -1 -6 -12l-6 -12l-7 -13q-11 -15 -28 -43q-13 -20 -31 -43q-1 -1 -16 -22l-9 -10l-4 -4l-6 -7q-10 -11 -35 -36q-41 -41 -82 -68q-6 -5 -22 -16q-14 -7 -23 -13
q-15 -8 -45 -22l-14 -17q-334 -344 -604 -583q-56 -50 -160 -135q-89 -74 -168 -127q-60 -40 -90 -58q-58 -34 -94 -49l-17 -8l97 -23l102 -24q44 -11 116.5 -27.5t86.5 -19.5q154 -33 205 -43q243 -45 413 -66q221 -26 418 -26q56 -2 105 0q18 1 52.5 2.5t51.5 1.5
q107 7 207 26q37 5 102 21q84 24 101 30q100 34 186 86q16 8 24 -6zM1724 1237q-34 -34 -104 -109q8 6 12 8q12 6 23 13l20 14q81 56 148 146q14 22 28 43q17 27 27 45l1 1l1 1q-8 -6 -12 -10q-4 -5 -72 -76q-48 -50 -72 -76zM358 121q18 4 21 4q-6 1 -16 3.5t-17 4t-12 2.5
q-34 7 -51 8h-13q-2 2 -4 2v-2q2 -2 10 -8l7 -2l4 -4q12 -7 22 -8q21 -4 49 0z" />
    <glyph glyph-name="M" unicode="M" horiz-adv-x="1990" 
d="M2722 1447v-1v-2v-2q0 -3 -2 -9t-4 -8l-2 -4l-2 -2l-5 -6l-4 -6q-7 -9 -10 -10l-10 -10l-10 -9q-11 -9 -45 -30q-59 -33 -95 -52h-2q-18 -18 -39 -36q-22 -22 -46.5 -47t-54.5 -56t-48 -49q-63 -64 -148 -156q-164 -181 -278 -321q-78 -97 -127 -170q-74 -109 -111 -182
q-13 -30 -20 -50q-15 -33 -19 -49q-9 -34 -10 -51q-2 -32 2 -51q6 -25 25 -43q8 -11 20 -17q1 0 5 -1.5t6 -2.5l12 -4q22 -6 49 -6q26 -2 51 4q19 2 22 -14t-16 -21h-4q-26 1 -55 7q-31 5 -53 12q-29 12 -47 33q-12 12 -17 22q-7 13 -8 27q-4 13 -4 28q0 7 2 27q1 20 10 53
q12 46 39 101q24 50 49 96q7 13 16 28t21 33.5t19 30.5q66 98 122 174q121 160 275 330q142 156 266 272l-94 -47q-34 -18 -96 -49q-207 -113 -363 -225q-36 -24 -84 -64q-62 -51 -82 -69q-82 -72 -151 -150q-9 -9 -17 0q-4 4 -4 10q2 8 2 9l2 6l2 8l2 6l13 29q15 30 26 49
q20 38 58 98q25 40 63 94q27 45 64 95q11 15 33 46.5t32 45.5q22 30 68 90q33 48 66 91q6 8 51 62q-6 -4 -17 -6q-21 -7 -47 -22q-25 -12 -45 -25q-40 -23 -45 -26q-12 -8 -88 -60q-46 -33 -86 -61q-12 -9 -40 -31.5t-44 -34.5q-70 -53 -84 -65q-14 -11 -42 -34t-40 -32
q-77 -63 -82 -67q-25 -21 -83 -69t-81 -67q-132 -112 -162 -137q-3 -3 -58.5 -51t-102.5 -88l-80 -70q-37 -31 -84 -67q-92 -70 -182 -113q-55 -26 -101 -37q-56 -17 -104 -18q-33 -2 -56 2q-27 5 -51 12q-28 11 -49 25q-25 18 -41 37q-36 40 -53 94q-14 44 -19 104v5v9v13
v14v6l2 6q1 23 9 54q6 27 18 51q13 26 27 47q28 43 71 80q36 29 91 61q48 25 98 41q54 19 106 23q29 2 56 0h6h8q0 -3 14 -4q13 -1 27 -9h4l2 -2q3 0 4 -1t4 -1l6 -4l7 -4q15 -11 22 -20q10 -11 16 -27q7 -17 8 -32q1 -16 -17 -18q-17 -1 -17 15v2l-4 21q-1 3 -11 20
q-8 11 -14 15l-2 1q-1 1 -4 3l-4 2q0 2 -2 2t-2 2h-4l-2 2q-4 2 -23 8l-12 2l-6 2h-6q-20 4 -52 2q-51 -2 -102 -16q-47 -14 -98 -39q-48 -25 -86 -57q-19 -14 -40 -35q-14 -14 -32 -41q-32 -43 -47 -94q-7 -26 -8 -52v-6l-2 -6v-14v-13q0 -4 1 -7t1 -7q2 -59 16 -102
q18 -53 51 -90q15 -18 41 -35q25 -14 45 -23q47 -17 103 -12q48 1 104 18q45 15 96 39q2 1 47 25q23 13 46 29q50 35 84 61q31 24 79 70l80 71q57 50 158 142q132 114 162 139q59 51 162 137q61 53 81 68q37 31 84 67q78 59 84 64q39 30 86 63q50 38 88 62q49 34 91 59
q24 15 45 27l49 24q29 15 49 21q33 11 55 12q13 2 13 -10q0 -2 -1.5 -4.5t-1.5 -3.5q-24 -37 -63 -93q-2 -3 -68 -90q-44 -62 -67 -92q-39 -56 -66 -90q-25 -37 -65 -92q-15 -25 -31 -47q-29 -44 -31 -47q-37 -55 -61 -94q-5 -9 -14 -26t-13 -24q58 56 119 107q30 26 84 67
q45 37 86 64q148 108 363 225q3 2 70 38t120 63q23 12 47 24q40 38 74 68q44 40 82 67q28 21 45 33q7 4 14 6q6 2 8 2h6h5h2l2 -2l3 -3l2 -2q1 -1 1 -3v-2v-3zM2695 1434q-2 0 -4 -2q-15 -7 -41 -31q-24 -19 -63 -53q5 3 14.5 9t13.5 9q20 12 43 29l2 1q1 1 3 2.5t4 2.5l2 2
l10 10l8 8l2 4q1 1 2 3l1 2l1 2z" />
    <glyph glyph-name="N" unicode="N" horiz-adv-x="1994" 
d="M2849 1550q16 -1 14 -18v-2q-1 -14 -10 -33l-6.5 -13t-7.5 -14q-18 -25 -37 -49q-37 -42 -84 -86q-62 -58 -183 -155q-114 -95 -185 -151q-33 -26 -97 -77.5t-86 -68.5q-226 -184 -361 -312q-35 -31 -86 -82q-24 -24 -82 -84q-80 -85 -153 -180q-6 -10 -17 -2q-4 4 -4 10
q2 10 2 11v4l2 4q0 2 2 10q0 1 1.5 3.5t1.5 4.5l10 35q16 54 22 70q7 21 23 67t24 70q17 45 52.5 138t50.5 134l26 68l27 65q42 103 53 136q11 28 30 73t26 62q8 18 53 117h-6q-4 -1 -25 -9q-21 -9 -43 -24q-18 -10 -41 -29q-23 -17 -39 -31q-60 -51 -147 -139
q-96 -102 -139 -149l-138 -152q-168 -183 -280 -295q-49 -49 -74 -72q-26 -23 -76 -67q-51 -46 -80 -66q-30 -24 -82 -61q-94 -61 -182 -94q-59 -21 -100 -27q-58 -8 -103 -2q-53 7 -98 35q-42 27 -70 76q-24 41 -36 96q-9 56 -9 102q1 47 21 101q19 48 51 88q27 36 74 71
t88 56q46 24 96 39q44 13 100 18q34 2 54 -2q29 -2 53 -12q11 -4 25 -13q16 -14 22 -20q9 -14 14 -27q6 -16 7 -28q2 -19 -16 -20q-17 -1 -19 16v2q2 23 -10 39q-10 16 -33 28q-26 11 -45 15q-30 2 -49 2q-44 0 -99 -13q-29 -7 -49 -16q-15 -5 -47 -19q-47 -23 -86 -51
q-48 -39 -72 -69q-34 -40 -51 -86q-18 -48 -20 -99q0 -15 2 -51q2 -26 6 -49q12 -53 35 -94q30 -47 69 -70q40 -27 92 -33q49 -6 101 4q39 6 96 27q45 18 90 45q37 19 86 53q38 28 80 62q35 30 76 67q22 21 71 72q21 19 72 72q79 79 283 293q184 195 284 290q41 41 74 70
q51 45 78 68q44 37 84 61q26 16 45 23q3 1 13 6q8 4 12 4q1 1 3.5 2t4.5 1l9 3q1 1 4 2t5 2q11 2 12 -10v-4l-2 -2q-12 -37 -49 -135q-24 -60 -53 -136l-53 -135l-53 -133q-78 -194 -107 -270q-5 -13 -14 -37.5t-11 -30.5q-5 -13 -13.5 -35.5t-12.5 -31.5l-23 -68
q-5 -11 -6 -20q119 139 297 303q25 22 88 77q19 18 90 80q79 68 183 152l182 151q84 67 182 152q45 38 90 78q44 40 86 82q53 53 78 86q23 30 33 47q8 12 12 24q6 12 6 25h2q1 16 19 14z" />
    <glyph glyph-name="N" unicode="&#xd1;" horiz-adv-x="1994" 
d="M2849 1550q16 -1 14 -18v-2q-1 -14 -10 -33l-6.5 -13t-7.5 -14q-18 -25 -37 -49q-37 -42 -84 -86q-62 -58 -183 -155q-114 -95 -185 -151q-33 -26 -97 -77.5t-86 -68.5q-226 -184 -361 -312q-35 -31 -86 -82q-24 -24 -82 -84q-80 -85 -153 -180q-6 -10 -17 -2q-4 4 -4 10
q2 10 2 11v4l2 4q0 2 2 10q0 1 1.5 3.5t1.5 4.5l10 35q16 54 22 70q7 21 23 67t24 70q17 45 52.5 138t50.5 134l26 68l27 65q42 103 53 136q11 28 30 73t26 62q8 18 53 117h-6q-4 -1 -25 -9q-21 -9 -43 -24q-18 -10 -41 -29q-23 -17 -39 -31q-60 -51 -147 -139
q-96 -102 -139 -149l-138 -152q-168 -183 -280 -295q-49 -49 -74 -72q-26 -23 -76 -67q-51 -46 -80 -66q-30 -24 -82 -61q-94 -61 -182 -94q-59 -21 -100 -27q-58 -8 -103 -2q-53 7 -98 35q-42 27 -70 76q-24 41 -36 96q-9 56 -9 102q1 47 21 101q19 48 51 88q27 36 74 71
t88 56q46 24 96 39q44 13 100 18q34 2 54 -2q29 -2 53 -12q11 -4 25 -13q16 -14 22 -20q9 -14 14 -27q6 -16 7 -28q2 -19 -16 -20q-17 -1 -19 16v2q2 23 -10 39q-10 16 -33 28q-26 11 -45 15q-30 2 -49 2q-44 0 -99 -13q-29 -7 -49 -16q-15 -5 -47 -19q-47 -23 -86 -51
q-48 -39 -72 -69q-34 -40 -51 -86q-18 -48 -20 -99q0 -15 2 -51q2 -26 6 -49q12 -53 35 -94q30 -47 69 -70q40 -27 92 -33q49 -6 101 4q39 6 96 27q45 18 90 45q37 19 86 53q38 28 80 62q35 30 76 67q22 21 71 72q21 19 72 72q79 79 283 293q184 195 284 290q41 41 74 70
q51 45 78 68q44 37 84 61q26 16 45 23q3 1 13 6q8 4 12 4q1 1 3.5 2t4.5 1l9 3q1 1 4 2t5 2q11 2 12 -10v-4l-2 -2q-12 -37 -49 -135q-24 -60 -53 -136l-53 -135l-53 -133q-78 -194 -107 -270q-5 -13 -14 -37.5t-11 -30.5q-5 -13 -13.5 -35.5t-12.5 -31.5l-23 -68
q-5 -11 -6 -20q119 139 297 303q25 22 88 77q19 18 90 80q79 68 183 152l182 151q84 67 182 152q45 38 90 78q44 40 86 82q53 53 78 86q23 30 33 47q8 12 12 24q6 12 6 25h2q1 16 19 14z" />
    <glyph glyph-name="O" unicode="O" horiz-adv-x="1060" 
d="M1487 1411q2 -24 2 -41q-1 -34 -14 -80q-18 -62 -62 -143q-36 -64 -84 -131q-92 -127 -194 -240q-100 -111 -217 -217q-118 -108 -238 -194q-37 -29 -64 -46q-60 -41 -63 -43q-68 -41 -135 -73q-81 -40 -146 -56q-18 -5 -39 -6q-19 -4 -38 -4q-11 0 -39 2q-26 5 -39 10
q-19 7 -35 23q-7 8 -11 17q-7 14 -8 20q-4 15 -2 41q1 8 9 37q12 37 30 71q16 32 39 68q13 22 43 63q8 11 24.5 33.5t20.5 28.5q34 44 97 119q34 40 102 114q4 5 15 17t16 18q60 125 131 232q49 70 92 123q47 59 102 114q1 3 27 29l14 12l8 6l7 6q45 37 61 50l14 12l17 10
l3 2q2 1 5 4l8 4q3 3 6 4l11 9l16 8q1 2 9 6l7 4l9 4l8 6l10 4l8 5l17 8l10 5q6 3 8 3l4 1q4 1 4 3l10 2l9 4l6 2l4 2l18 6l19 4q3 3 18 7l10 2q3 0 5 1t6 1q42 7 77 8l9 2h6h4l20 -2q29 0 39 -2q48 -5 78 -21q20 -10 35 -22l4 -4l4 -4l8 -9q5 -6 6 -10l2 -4q3 -3 3 -4
q9 -15 14 -41zM1458 1372q2 42 -12 66q-16 30 -47 47q-15 6 -33 12q-17 5 -37 6q-10 0 -37 4h-18h-4h-4h-11q-35 -1 -73 -8h-4q-5 0 -7 -2l-8 -2q-15 -4 -18 -4l-19 -4l-18 -6l-4 -2h-4l-8 -4l-11 -2l-8 -5l-7 -3q-7 -3 -9 -5l-19 -6q-27 -13 -65 -37q-1 0 -5 -2l-6 -4
q-4 -2 -6 -4l-8 -4l-4 -4q-2 0 -4 -2l-14 -11l-17 -10q-20 -15 -59 -47l-8 -6l-6 -6l-15 -12l-26 -27q-58 -56 -105 -113q-50 -60 -90 -123q-48 -71 -82 -129q-5 -8 -16.5 -29.5t-18.5 -33.5q15 15 45 47l107 113l53 55l51 55q13 13 25 1t2 -23l-2 -2q-19 -14 -59 -49
q-18 -16 -56 -52q-49 -45 -110 -106l-72 -72q-1 -4 -16 -39q-38 -80 -54 -143q-12 -38 -18 -74q-2 -18 -3 -37q-1 -15 1 -37q2 -17 -16 -18t-19 16v2q2 19 6 41q6 31 8 37q15 48 25 76q11 34 29 72l28 69l1 2q1 2 2 2l1 2q-64 -66 -112 -122q-13 -15 -49 -60
q-43 -52 -48 -59q-45 -59 -88 -125q-8 -14 -19.5 -37t-16.5 -31q-20 -43 -29 -69q-5 -21 -6 -37q-2 -24 2 -37q2 -9 6 -16q8 -13 10 -15q10 -10 29 -18q18 -7 37 -8q24 -2 37 -2q30 1 73 14q62 16 138 57q62 33 131 80q55 39 61 43q30 21 61 45q117 89 234 195
q120 113 215 217q48 49 100 114q52 63 92 119q49 66 82 127q45 79 62 137l10 35q4 16 4 37z" />
    <glyph glyph-name="O" unicode="&#xd8;" horiz-adv-x="1060" 
d="M1487 1411q2 -24 2 -41q-1 -34 -14 -80q-18 -62 -62 -143q-36 -64 -84 -131q-92 -127 -194 -240q-100 -111 -217 -217q-118 -108 -238 -194q-37 -29 -64 -46q-60 -41 -63 -43q-68 -41 -135 -73q-81 -40 -146 -56q-18 -5 -39 -6q-19 -4 -38 -4q-11 0 -39 2q-26 5 -39 10
q-19 7 -35 23q-7 8 -11 17q-7 14 -8 20q-4 15 -2 41q1 8 9 37q12 37 30 71q16 32 39 68q13 22 43 63q8 11 24.5 33.5t20.5 28.5q34 44 97 119q34 40 102 114q4 5 15 17t16 18q60 125 131 232q49 70 92 123q47 59 102 114q1 3 27 29l14 12l8 6l7 6q45 37 61 50l14 12l17 10
l3 2q2 1 5 4l8 4q3 3 6 4l11 9l16 8q1 2 9 6l7 4l9 4l8 6l10 4l8 5l17 8l10 5q6 3 8 3l4 1q4 1 4 3l10 2l9 4l6 2l4 2l18 6l19 4q3 3 18 7l10 2q3 0 5 1t6 1q42 7 77 8l9 2h6h4l20 -2q29 0 39 -2q48 -5 78 -21q20 -10 35 -22l4 -4l4 -4l8 -9q5 -6 6 -10l2 -4q3 -3 3 -4
q9 -15 14 -41zM1458 1372q2 42 -12 66q-16 30 -47 47q-15 6 -33 12q-17 5 -37 6q-10 0 -37 4h-18h-4h-4h-11q-35 -1 -73 -8h-4q-5 0 -7 -2l-8 -2q-15 -4 -18 -4l-19 -4l-18 -6l-4 -2h-4l-8 -4l-11 -2l-8 -5l-7 -3q-7 -3 -9 -5l-19 -6q-27 -13 -65 -37q-1 0 -5 -2l-6 -4
q-4 -2 -6 -4l-8 -4l-4 -4q-2 0 -4 -2l-14 -11l-17 -10q-20 -15 -59 -47l-8 -6l-6 -6l-15 -12l-26 -27q-58 -56 -105 -113q-50 -60 -90 -123q-48 -71 -82 -129q-5 -8 -16.5 -29.5t-18.5 -33.5q15 15 45 47l107 113l53 55l51 55q13 13 25 1t2 -23l-2 -2q-19 -14 -59 -49
q-18 -16 -56 -52q-49 -45 -110 -106l-72 -72q-1 -4 -16 -39q-38 -80 -54 -143q-12 -38 -18 -74q-2 -18 -3 -37q-1 -15 1 -37q2 -17 -16 -18t-19 16v2q2 19 6 41q6 31 8 37q15 48 25 76q11 34 29 72l28 69l1 2q1 2 2 2l1 2q-64 -66 -112 -122q-13 -15 -49 -60
q-43 -52 -48 -59q-45 -59 -88 -125q-8 -14 -19.5 -37t-16.5 -31q-20 -43 -29 -69q-5 -21 -6 -37q-2 -24 2 -37q2 -9 6 -16q8 -13 10 -15q10 -10 29 -18q18 -7 37 -8q24 -2 37 -2q30 1 73 14q62 16 138 57q62 33 131 80q55 39 61 43q30 21 61 45q117 89 234 195
q120 113 215 217q48 49 100 114q52 63 92 119q49 66 82 127q45 79 62 137l10 35q4 16 4 37z" />
    <glyph glyph-name="O" unicode="&#xd6;" horiz-adv-x="1060" 
d="M1487 1411q2 -24 2 -41q-1 -34 -14 -80q-18 -62 -62 -143q-36 -64 -84 -131q-92 -127 -194 -240q-100 -111 -217 -217q-118 -108 -238 -194q-37 -29 -64 -46q-60 -41 -63 -43q-68 -41 -135 -73q-81 -40 -146 -56q-18 -5 -39 -6q-19 -4 -38 -4q-11 0 -39 2q-26 5 -39 10
q-19 7 -35 23q-7 8 -11 17q-7 14 -8 20q-4 15 -2 41q1 8 9 37q12 37 30 71q16 32 39 68q13 22 43 63q8 11 24.5 33.5t20.5 28.5q34 44 97 119q34 40 102 114q4 5 15 17t16 18q60 125 131 232q49 70 92 123q47 59 102 114q1 3 27 29l14 12l8 6l7 6q45 37 61 50l14 12l17 10
l3 2q2 1 5 4l8 4q3 3 6 4l11 9l16 8q1 2 9 6l7 4l9 4l8 6l10 4l8 5l17 8l10 5q6 3 8 3l4 1q4 1 4 3l10 2l9 4l6 2l4 2l18 6l19 4q3 3 18 7l10 2q3 0 5 1t6 1q42 7 77 8l9 2h6h4l20 -2q29 0 39 -2q48 -5 78 -21q20 -10 35 -22l4 -4l4 -4l8 -9q5 -6 6 -10l2 -4q3 -3 3 -4
q9 -15 14 -41zM1458 1372q2 42 -12 66q-16 30 -47 47q-15 6 -33 12q-17 5 -37 6q-10 0 -37 4h-18h-4h-4h-11q-35 -1 -73 -8h-4q-5 0 -7 -2l-8 -2q-15 -4 -18 -4l-19 -4l-18 -6l-4 -2h-4l-8 -4l-11 -2l-8 -5l-7 -3q-7 -3 -9 -5l-19 -6q-27 -13 -65 -37q-1 0 -5 -2l-6 -4
q-4 -2 -6 -4l-8 -4l-4 -4q-2 0 -4 -2l-14 -11l-17 -10q-20 -15 -59 -47l-8 -6l-6 -6l-15 -12l-26 -27q-58 -56 -105 -113q-50 -60 -90 -123q-48 -71 -82 -129q-5 -8 -16.5 -29.5t-18.5 -33.5q15 15 45 47l107 113l53 55l51 55q13 13 25 1t2 -23l-2 -2q-19 -14 -59 -49
q-18 -16 -56 -52q-49 -45 -110 -106l-72 -72q-1 -4 -16 -39q-38 -80 -54 -143q-12 -38 -18 -74q-2 -18 -3 -37q-1 -15 1 -37q2 -17 -16 -18t-19 16v2q2 19 6 41q6 31 8 37q15 48 25 76q11 34 29 72l28 69l1 2q1 2 2 2l1 2q-64 -66 -112 -122q-13 -15 -49 -60
q-43 -52 -48 -59q-45 -59 -88 -125q-8 -14 -19.5 -37t-16.5 -31q-20 -43 -29 -69q-5 -21 -6 -37q-2 -24 2 -37q2 -9 6 -16q8 -13 10 -15q10 -10 29 -18q18 -7 37 -8q24 -2 37 -2q30 1 73 14q62 16 138 57q62 33 131 80q55 39 61 43q30 21 61 45q117 89 234 195
q120 113 215 217q48 49 100 114q52 63 92 119q49 66 82 127q45 79 62 137l10 35q4 16 4 37z" />
    <glyph glyph-name="O" unicode="&#xd5;" horiz-adv-x="1060" 
d="M1487 1411q2 -24 2 -41q-1 -34 -14 -80q-18 -62 -62 -143q-36 -64 -84 -131q-92 -127 -194 -240q-100 -111 -217 -217q-118 -108 -238 -194q-37 -29 -64 -46q-60 -41 -63 -43q-68 -41 -135 -73q-81 -40 -146 -56q-18 -5 -39 -6q-19 -4 -38 -4q-11 0 -39 2q-26 5 -39 10
q-19 7 -35 23q-7 8 -11 17q-7 14 -8 20q-4 15 -2 41q1 8 9 37q12 37 30 71q16 32 39 68q13 22 43 63q8 11 24.5 33.5t20.5 28.5q34 44 97 119q34 40 102 114q4 5 15 17t16 18q60 125 131 232q49 70 92 123q47 59 102 114q1 3 27 29l14 12l8 6l7 6q45 37 61 50l14 12l17 10
l3 2q2 1 5 4l8 4q3 3 6 4l11 9l16 8q1 2 9 6l7 4l9 4l8 6l10 4l8 5l17 8l10 5q6 3 8 3l4 1q4 1 4 3l10 2l9 4l6 2l4 2l18 6l19 4q3 3 18 7l10 2q3 0 5 1t6 1q42 7 77 8l9 2h6h4l20 -2q29 0 39 -2q48 -5 78 -21q20 -10 35 -22l4 -4l4 -4l8 -9q5 -6 6 -10l2 -4q3 -3 3 -4
q9 -15 14 -41zM1458 1372q2 42 -12 66q-16 30 -47 47q-15 6 -33 12q-17 5 -37 6q-10 0 -37 4h-18h-4h-4h-11q-35 -1 -73 -8h-4q-5 0 -7 -2l-8 -2q-15 -4 -18 -4l-19 -4l-18 -6l-4 -2h-4l-8 -4l-11 -2l-8 -5l-7 -3q-7 -3 -9 -5l-19 -6q-27 -13 -65 -37q-1 0 -5 -2l-6 -4
q-4 -2 -6 -4l-8 -4l-4 -4q-2 0 -4 -2l-14 -11l-17 -10q-20 -15 -59 -47l-8 -6l-6 -6l-15 -12l-26 -27q-58 -56 -105 -113q-50 -60 -90 -123q-48 -71 -82 -129q-5 -8 -16.5 -29.5t-18.5 -33.5q15 15 45 47l107 113l53 55l51 55q13 13 25 1t2 -23l-2 -2q-19 -14 -59 -49
q-18 -16 -56 -52q-49 -45 -110 -106l-72 -72q-1 -4 -16 -39q-38 -80 -54 -143q-12 -38 -18 -74q-2 -18 -3 -37q-1 -15 1 -37q2 -17 -16 -18t-19 16v2q2 19 6 41q6 31 8 37q15 48 25 76q11 34 29 72l28 69l1 2q1 2 2 2l1 2q-64 -66 -112 -122q-13 -15 -49 -60
q-43 -52 -48 -59q-45 -59 -88 -125q-8 -14 -19.5 -37t-16.5 -31q-20 -43 -29 -69q-5 -21 -6 -37q-2 -24 2 -37q2 -9 6 -16q8 -13 10 -15q10 -10 29 -18q18 -7 37 -8q24 -2 37 -2q30 1 73 14q62 16 138 57q62 33 131 80q55 39 61 43q30 21 61 45q117 89 234 195
q120 113 215 217q48 49 100 114q52 63 92 119q49 66 82 127q45 79 62 137l10 35q4 16 4 37z" />
    <glyph glyph-name="O" unicode="&#xd4;" horiz-adv-x="1060" 
d="M1487 1411q2 -24 2 -41q-1 -34 -14 -80q-18 -62 -62 -143q-36 -64 -84 -131q-92 -127 -194 -240q-100 -111 -217 -217q-118 -108 -238 -194q-37 -29 -64 -46q-60 -41 -63 -43q-68 -41 -135 -73q-81 -40 -146 -56q-18 -5 -39 -6q-19 -4 -38 -4q-11 0 -39 2q-26 5 -39 10
q-19 7 -35 23q-7 8 -11 17q-7 14 -8 20q-4 15 -2 41q1 8 9 37q12 37 30 71q16 32 39 68q13 22 43 63q8 11 24.5 33.5t20.5 28.5q34 44 97 119q34 40 102 114q4 5 15 17t16 18q60 125 131 232q49 70 92 123q47 59 102 114q1 3 27 29l14 12l8 6l7 6q45 37 61 50l14 12l17 10
l3 2q2 1 5 4l8 4q3 3 6 4l11 9l16 8q1 2 9 6l7 4l9 4l8 6l10 4l8 5l17 8l10 5q6 3 8 3l4 1q4 1 4 3l10 2l9 4l6 2l4 2l18 6l19 4q3 3 18 7l10 2q3 0 5 1t6 1q42 7 77 8l9 2h6h4l20 -2q29 0 39 -2q48 -5 78 -21q20 -10 35 -22l4 -4l4 -4l8 -9q5 -6 6 -10l2 -4q3 -3 3 -4
q9 -15 14 -41zM1458 1372q2 42 -12 66q-16 30 -47 47q-15 6 -33 12q-17 5 -37 6q-10 0 -37 4h-18h-4h-4h-11q-35 -1 -73 -8h-4q-5 0 -7 -2l-8 -2q-15 -4 -18 -4l-19 -4l-18 -6l-4 -2h-4l-8 -4l-11 -2l-8 -5l-7 -3q-7 -3 -9 -5l-19 -6q-27 -13 -65 -37q-1 0 -5 -2l-6 -4
q-4 -2 -6 -4l-8 -4l-4 -4q-2 0 -4 -2l-14 -11l-17 -10q-20 -15 -59 -47l-8 -6l-6 -6l-15 -12l-26 -27q-58 -56 -105 -113q-50 -60 -90 -123q-48 -71 -82 -129q-5 -8 -16.5 -29.5t-18.5 -33.5q15 15 45 47l107 113l53 55l51 55q13 13 25 1t2 -23l-2 -2q-19 -14 -59 -49
q-18 -16 -56 -52q-49 -45 -110 -106l-72 -72q-1 -4 -16 -39q-38 -80 -54 -143q-12 -38 -18 -74q-2 -18 -3 -37q-1 -15 1 -37q2 -17 -16 -18t-19 16v2q2 19 6 41q6 31 8 37q15 48 25 76q11 34 29 72l28 69l1 2q1 2 2 2l1 2q-64 -66 -112 -122q-13 -15 -49 -60
q-43 -52 -48 -59q-45 -59 -88 -125q-8 -14 -19.5 -37t-16.5 -31q-20 -43 -29 -69q-5 -21 -6 -37q-2 -24 2 -37q2 -9 6 -16q8 -13 10 -15q10 -10 29 -18q18 -7 37 -8q24 -2 37 -2q30 1 73 14q62 16 138 57q62 33 131 80q55 39 61 43q30 21 61 45q117 89 234 195
q120 113 215 217q48 49 100 114q52 63 92 119q49 66 82 127q45 79 62 137l10 35q4 16 4 37z" />
    <glyph glyph-name="O" unicode="&#xd3;" horiz-adv-x="1060" 
d="M1487 1411q2 -24 2 -41q-1 -34 -14 -80q-18 -62 -62 -143q-36 -64 -84 -131q-92 -127 -194 -240q-100 -111 -217 -217q-118 -108 -238 -194q-37 -29 -64 -46q-60 -41 -63 -43q-68 -41 -135 -73q-81 -40 -146 -56q-18 -5 -39 -6q-19 -4 -38 -4q-11 0 -39 2q-26 5 -39 10
q-19 7 -35 23q-7 8 -11 17q-7 14 -8 20q-4 15 -2 41q1 8 9 37q12 37 30 71q16 32 39 68q13 22 43 63q8 11 24.5 33.5t20.5 28.5q34 44 97 119q34 40 102 114q4 5 15 17t16 18q60 125 131 232q49 70 92 123q47 59 102 114q1 3 27 29l14 12l8 6l7 6q45 37 61 50l14 12l17 10
l3 2q2 1 5 4l8 4q3 3 6 4l11 9l16 8q1 2 9 6l7 4l9 4l8 6l10 4l8 5l17 8l10 5q6 3 8 3l4 1q4 1 4 3l10 2l9 4l6 2l4 2l18 6l19 4q3 3 18 7l10 2q3 0 5 1t6 1q42 7 77 8l9 2h6h4l20 -2q29 0 39 -2q48 -5 78 -21q20 -10 35 -22l4 -4l4 -4l8 -9q5 -6 6 -10l2 -4q3 -3 3 -4
q9 -15 14 -41zM1458 1372q2 42 -12 66q-16 30 -47 47q-15 6 -33 12q-17 5 -37 6q-10 0 -37 4h-18h-4h-4h-11q-35 -1 -73 -8h-4q-5 0 -7 -2l-8 -2q-15 -4 -18 -4l-19 -4l-18 -6l-4 -2h-4l-8 -4l-11 -2l-8 -5l-7 -3q-7 -3 -9 -5l-19 -6q-27 -13 -65 -37q-1 0 -5 -2l-6 -4
q-4 -2 -6 -4l-8 -4l-4 -4q-2 0 -4 -2l-14 -11l-17 -10q-20 -15 -59 -47l-8 -6l-6 -6l-15 -12l-26 -27q-58 -56 -105 -113q-50 -60 -90 -123q-48 -71 -82 -129q-5 -8 -16.5 -29.5t-18.5 -33.5q15 15 45 47l107 113l53 55l51 55q13 13 25 1t2 -23l-2 -2q-19 -14 -59 -49
q-18 -16 -56 -52q-49 -45 -110 -106l-72 -72q-1 -4 -16 -39q-38 -80 -54 -143q-12 -38 -18 -74q-2 -18 -3 -37q-1 -15 1 -37q2 -17 -16 -18t-19 16v2q2 19 6 41q6 31 8 37q15 48 25 76q11 34 29 72l28 69l1 2q1 2 2 2l1 2q-64 -66 -112 -122q-13 -15 -49 -60
q-43 -52 -48 -59q-45 -59 -88 -125q-8 -14 -19.5 -37t-16.5 -31q-20 -43 -29 -69q-5 -21 -6 -37q-2 -24 2 -37q2 -9 6 -16q8 -13 10 -15q10 -10 29 -18q18 -7 37 -8q24 -2 37 -2q30 1 73 14q62 16 138 57q62 33 131 80q55 39 61 43q30 21 61 45q117 89 234 195
q120 113 215 217q48 49 100 114q52 63 92 119q49 66 82 127q45 79 62 137l10 35q4 16 4 37z" />
    <glyph glyph-name="O" unicode="&#xd2;" horiz-adv-x="1060" 
d="M1487 1411q2 -24 2 -41q-1 -34 -14 -80q-18 -62 -62 -143q-36 -64 -84 -131q-92 -127 -194 -240q-100 -111 -217 -217q-118 -108 -238 -194q-37 -29 -64 -46q-60 -41 -63 -43q-68 -41 -135 -73q-81 -40 -146 -56q-18 -5 -39 -6q-19 -4 -38 -4q-11 0 -39 2q-26 5 -39 10
q-19 7 -35 23q-7 8 -11 17q-7 14 -8 20q-4 15 -2 41q1 8 9 37q12 37 30 71q16 32 39 68q13 22 43 63q8 11 24.5 33.5t20.5 28.5q34 44 97 119q34 40 102 114q4 5 15 17t16 18q60 125 131 232q49 70 92 123q47 59 102 114q1 3 27 29l14 12l8 6l7 6q45 37 61 50l14 12l17 10
l3 2q2 1 5 4l8 4q3 3 6 4l11 9l16 8q1 2 9 6l7 4l9 4l8 6l10 4l8 5l17 8l10 5q6 3 8 3l4 1q4 1 4 3l10 2l9 4l6 2l4 2l18 6l19 4q3 3 18 7l10 2q3 0 5 1t6 1q42 7 77 8l9 2h6h4l20 -2q29 0 39 -2q48 -5 78 -21q20 -10 35 -22l4 -4l4 -4l8 -9q5 -6 6 -10l2 -4q3 -3 3 -4
q9 -15 14 -41zM1458 1372q2 42 -12 66q-16 30 -47 47q-15 6 -33 12q-17 5 -37 6q-10 0 -37 4h-18h-4h-4h-11q-35 -1 -73 -8h-4q-5 0 -7 -2l-8 -2q-15 -4 -18 -4l-19 -4l-18 -6l-4 -2h-4l-8 -4l-11 -2l-8 -5l-7 -3q-7 -3 -9 -5l-19 -6q-27 -13 -65 -37q-1 0 -5 -2l-6 -4
q-4 -2 -6 -4l-8 -4l-4 -4q-2 0 -4 -2l-14 -11l-17 -10q-20 -15 -59 -47l-8 -6l-6 -6l-15 -12l-26 -27q-58 -56 -105 -113q-50 -60 -90 -123q-48 -71 -82 -129q-5 -8 -16.5 -29.5t-18.5 -33.5q15 15 45 47l107 113l53 55l51 55q13 13 25 1t2 -23l-2 -2q-19 -14 -59 -49
q-18 -16 -56 -52q-49 -45 -110 -106l-72 -72q-1 -4 -16 -39q-38 -80 -54 -143q-12 -38 -18 -74q-2 -18 -3 -37q-1 -15 1 -37q2 -17 -16 -18t-19 16v2q2 19 6 41q6 31 8 37q15 48 25 76q11 34 29 72l28 69l1 2q1 2 2 2l1 2q-64 -66 -112 -122q-13 -15 -49 -60
q-43 -52 -48 -59q-45 -59 -88 -125q-8 -14 -19.5 -37t-16.5 -31q-20 -43 -29 -69q-5 -21 -6 -37q-2 -24 2 -37q2 -9 6 -16q8 -13 10 -15q10 -10 29 -18q18 -7 37 -8q24 -2 37 -2q30 1 73 14q62 16 138 57q62 33 131 80q55 39 61 43q30 21 61 45q117 89 234 195
q120 113 215 217q48 49 100 114q52 63 92 119q49 66 82 127q45 79 62 137l10 35q4 16 4 37z" />
    <glyph glyph-name="P" unicode="P" horiz-adv-x="1796" 
d="M2327 1153q4 -21 0 -43q-1 -15 -9 -43q-6 -18 -18 -39q-5 -11 -21 -35q-12 -17 -26 -32q-48 -57 -119 -109q-46 -32 -68 -47q-52 -31 -69 -41q-59 -35 -144 -72q-41 -19 -73 -30q-23 -11 -37 -15q-17 -6 -37 -14q-91 -28 -156 -43q-10 -2 -36.5 -7.5t-40.5 -7.5
q-26 -4 -80 -10q-36 -4 -80 -2q-22 0 -41 4q-19 1 -39 8q-21 5 -37 17q-19 13 -31 29l-2 4l-2 4q-1 1 -3 6l-1 4q-4 7 -6 20q-2 14 -2 23q-89 -78 -139 -119q-83 -69 -201 -162q-48 -35 -105 -73q-64 -45 -108 -70q-66 -39 -117 -57q-32 -14 -65 -19q-40 -8 -70 0
q-16 1 -13 20q3 18 21 13q12 -4 29 -6q7 0 29 2q26 1 61 12q54 17 117 49q40 22 108 66q42 28 105 74q91 68 200 161q88 73 191 170q38 35 186 179l92 90l91 90l112 112q-29 -8 -57 -12q-57 -10 -129 -10q-71 -2 -129 2q-60 4 -129 12l-31 4l-33 4q-35 4 -63 9
q-135 18 -254 32q-155 17 -256 17q-66 0 -127 -8q-61 -7 -125 -27q-68 -23 -115 -53q-52 -34 -92 -82q-10 -14 -23 -3q-14 12 -4 23q0 2 3 2q54 51 106 78q60 32 121 49q62 18 127 25q61 6 129 6q106 0 256 -18l256 -35q87 -12 127 -17q85 -9 127 -10q58 -4 129 -2
q73 0 127 10q31 5 74 17q44 46 55 57q19 19 50.5 48.5t41.5 39.5q43 38 49 43q43 38 49 43q1 1 13 10q10 8 14 11q2 0 4 2l6 2h4h4q5 -1 7 -4q1 -1 3 -5q1 -2 -1 -8v-2l-9 -16l-8 -14l-4 -9q0 -2 -2 -4l-2 -2l-8 -14l-6 -6q0 -2 -2 -4l-2 -2q-39 -55 -91 -95l-3 -2
q-3 -2 -3 -4l-8 -4l-12 -8q-3 -3 -6 -4l-9 -6l-6 -4l-8 -4q-20 -11 -53 -25q-42 -41 -162 -158q-30 -30 -63 -59q8 6 10 6q10 7 32 22t33 23q9 6 32 19.5t36 21.5q51 32 139 80q66 34 146 65q90 32 153 39q44 4 82 -4q16 -4 21 -4l4 -1q3 -1 6 -1l10 -4q20 -10 35 -22
q2 -1 16 -13q3 -3 4 -6l5 -2l6 -8l6 -8q3 -3 4 -6l2 -5l2 -2l4 -6l4 -10l2 -4q0 -2 2 -4v-1q0 -1 1 -2t1 -3l2 -6l4 -11v-6q3 -3 3 -4zM1966 1470v-2v2zM1767 1260q0 -3 -2 -3q6 2 16 8t13 7l6 4l6 4l9 4q4 4 6 4l12 10l6 5l2 2t2 1q2 2 2 3q49 38 84 92l2 3l2 3l4 8l9 12
q0 3 2 5t2 4l4 6v2l-4 -4q-25 -25 -47 -45l-45 -45q-35 -36 -91 -90zM2296 1114q4 14 2 35l-1 3q-1 2 -1 5q0 2 -1 5q-1 4 -1 5l-2 4v3v2l-1 1q-1 1 -1 3l-2 4l-4 8q0 1 -1 2q-2 2 -2 3l-2 3l-2 4q0 2 -2 4l-4 9q-1 1 -3 4q-2 2 -3 4l-2 2l-4 4q-11 12 -12 12l-4 4
q-2 2 -5 2l-6 6l-2 2h-2l-4 3q-8 5 -8 6l-8 4q-3 0 -5 1t-6 1q-5 1 -8 4l-8 2q-37 8 -78 6q-35 -2 -78 -12q-42 -13 -75 -25q-66 -23 -144 -63q-49 -23 -139 -78q-23 -13 -68 -41l-65 -45q-7 -5 -64 -45q-115 -109 -266 -244q-3 -3 -18.5 -16.5t-24.5 -22.5q-1 -16 0 -30
q1 -20 12 -35q11 -17 27 -27l8 -4l11 -4l4 -2q0 -2 2 -2h2q3 -3 8 -4q45 -10 78 -11q27 0 39 1q5 0 18 1.5t21 2.5q22 5 38 6q5 1 18.5 3.5t20.5 4.5q32 6 78 20q17 5 74 23q25 9 74 29q17 5 37 14q12 4 36 14q39 16 72 33q12 6 36 17.5t36 17.5q27 13 67 37q13 8 36 21.5
t32 19.5q22 14 33 22q6 4 30 23q33 22 62 47q39 37 55 55q26 28 45 59q11 19 17 35l1 4l1 4q2 2 2 6q0 3 1 3t1 4t2 4v5v5z" />
    <glyph glyph-name="Q" unicode="Q" horiz-adv-x="1290" 
d="M1870 1384q2 -25 -2 -45q-6 -41 -27 -86q-6 -15 -20 -39q-7 -12 -23 -36l-24 -37q-12 -15 -27 -33q-51 -63 -117 -129q-73 -70 -127 -115q-123 -100 -278 -200q-152 -96 -301 -164q-133 -60 -269 -99q3 -4 15.5 -19t21.5 -26q41 -44 56 -63q34 -34 61 -55q38 -29 70 -39
q28 -8 39 -9q17 -1 38 3q40 5 76 24q16 8 23 -6q8 -16 -6 -23l-2 -2q-41 -19 -86 -24q-20 -4 -46 -2q-23 4 -45 12q-19 5 -41 18q-18 12 -36 27q-29 23 -62 62q-20 22 -32 36q-9 10 -35 43q-6 8 -16.5 20.5t-14.5 16.5q-3 -1 -15 -3.5t-18 -4.5q-94 -22 -168 -29h-10h-12
l-21 -2h-22h-12h-9q-7 0 -12 1t-10 1h-7q-5 0 -8 1t-6 1t-6.5 0.5t-5.5 0.5t-4 0.5t-3 0.5h-2h-1q-20 5 -21 5l-10 2l-10 4h-7l-4 2l-10 4q-24 8 -41 18q-19 11 -35 27q-14 13 -26 33q-14 26 -15 43q0 8 2 22q1 9 7 23l6 10l2 4l1 1l1 1l2 4q8 11 14 15q16 14 39 22
q22 8 43 12q28 2 43 2q7 0 21 -1.5t22 -2.5q5 -1 19.5 -4.5t23.5 -5.5q13 -2 23 -6q7 27 10 35q21 62 72 153q83 146 204 275q46 49 121 121q69 60 133 108q145 107 293 174q81 37 164 58q81 21 170 26q52 2 86 -2h3q3 -1 8.5 -1.5t11.5 -0.5q5 0 10 -0.5t8 -1t4 -0.5
q7 -1 21 -3.5t22 -4.5q21 -4 43 -12q19 -6 41 -21q19 -11 37 -29q17 -17 27 -38q9 -24 10 -48zM616 410h2h3q-64 71 -123 110q-46 27 -74 41q-20 8 -37 14l-4 -32q0 -13 2 -41q5 -21 12 -37q6 -15 -10 -22t-22 10v2q-7 26 -7 45q-1 7 0 22q0 13 2 23q1 13 7 37q-10 4 -23 6
q-9 2 -23.5 5.5t-17.5 4.5q-20 4 -41 4q-17 0 -41 -2q-20 -1 -41 -10q-16 -5 -35 -19q-8 -10 -12 -14l-2 -2q0 -2 -2 -2l-2 -4l-6 -8q-3 -7 -5 -21q-1 -7 -1 -18q1 -18 12 -39q6 -14 25 -31q13 -12 32 -24q22 -13 39 -19q1 0 3 -1t3 -1h4l5 -2l4 -2l10 -2l10 -2q5 0 21 -4
l22 -4l8 -1q5 -1 13 -1h8h12q48 -2 84 2q39 5 84 12q24 5 41 10l41 10q6 1 20 7zM1835 1343q8 46 -6 76q-6 13 -21 30q-13 14 -28 24q-17 11 -37 18q-14 5 -39 10q-20 7 -41 8q-5 0 -21 4q-5 0 -10 1t-8 2h-2q-32 4 -82 2q-80 -1 -166 -23q-89 -23 -160 -53
q-65 -26 -151 -76q-71 -39 -141 -92q-81 -58 -134 -106q-70 -63 -121 -117q-59 -62 -110 -131q-20 -26 -49 -68q-24 -39 -45 -72q-20 -36 -37 -75q-19 -43 -29 -80q-2 -6 -4.5 -18t-3.5 -17q8 -2 23 -8t18 -7q40 -17 76 -40l10 -7l3 -2q2 -1 5 -4q14 -8 19 -12q11 -8 32 -27
q39 -37 62 -61q0 -1 2 -3t2 -3q18 7 37 12q8 3 35 14t43 17l78 33l77 36q159 79 293 166q149 98 275 201q71 58 125 111q34 32 59 60q28 30 55 64q15 16 27 33q4 5 23 34q8 12 22 34q16 27 20 37q20 44 25 75z" />
    <glyph glyph-name="R" unicode="R" horiz-adv-x="1800" 
d="M2332 1139q1 -14 -1 -43q-2 -11 -13 -41q-16 -38 -43 -70q-23 -31 -57 -59q-30 -27 -61 -47q-22 -15 -68 -43q-52 -28 -70 -37q-136 -67 -295 -107q-78 -22 -153 -33q-77 -14 -156 -16q-41 -1 -78 0t-77 10l-13 4l21 -41q27 -56 69 -176q28 -83 64 -178l37 -86
q20 -39 45 -82q14 -25 26 -39q2 -2 12.5 -15t16.5 -20q27 -34 68 -65q40 -31 77 -51q39 -20 89 -33q82 -22 184 -16q48 2 94 12l10 2l13 2q4 0 22 6q8 0 23 4q4 2 11.5 4.5l10.5 3.5q17 5 22 -12q4 -16 -12 -20l-2 -2q-115 -18 -190 -19q-102 0 -191 25q-47 12 -90 33
l-41 24q-21 12 -39 27q-36 26 -71 63q-2 2 -31 37q-18 19 -29 39q-29 41 -51 80q-14 25 -43 86q-28 67 -67 178q-2 7 -12 37.5t-17 52.5q-17 58 -29 90q-13 35 -24 56q-4 1 -39 16q-14 8 -19 12q-33 -27 -55 -47q-57 -48 -98 -82q-118 -98 -203 -160q-22 -17 -104 -75
q-61 -42 -109 -70q-56 -32 -117 -57q-42 -15 -63 -19q-16 -4 -35 -4q-18 0 -36 3q-17 3 -14 21t21 13h2q12 -5 27 -6h31q32 5 59 14q58 16 117 49q46 24 110 66q42 28 105 74q162 124 346 295q-17 17 -23 30q-2 7 4 8h3q13 0 24 -4q14 -6 21 -10l7 7l7 7q98 91 369 359
q103 100 112 108q-19 -4 -57 -10q-60 -10 -129 -12q-65 0 -129 4q-91 6 -254 29q-163 22 -256 32q-117 12 -127 13q-65 6 -129 4q-63 0 -127 -8q-64 -7 -125 -25q-66 -22 -115 -55q-12 -9 -24 -19l-6 -4l-7 -4l-12 -10q0 -2 -10 -12l-12 -11l-5 -6l-6 -6l-10 -10v-2
q-13 -12 -24 -1q-12 12 -3 23q0 2 3 2l12 12q3 3 7 6.5t5 4.5l14 10q11 8 13 8l14 11l6 4l8 4l13 10q1 0 5 2l6 3q3 1 3 3q54 28 121 49q66 18 127 25q60 6 129 6q105 0 258 -18q4 0 30.5 -4t93 -13t130.5 -18q158 -21 256 -27q56 -4 127 -2q61 1 127 10q31 6 74 19
q15 14 57 53l45 45l47 45q7 7 23 21t24 22q10 9 26.5 23.5t22.5 19.5q13 7 15 10q10 8 14 9l4 4q4 0 6 2h2h4q5 -2 7 -5q2 -4 3 -5t1 -7l-2 -2l-9 -16l-8 -14l-2 -9q0 -1 -1 -2l-2 -2q-2 -2 -3 -2l-8 -14l-4 -6q0 -1 -1 -2l-2 -2q-2 -2 -3 -2l-9 -15l-2 -2l-4 -4l-4 -6
l-10 -12q-2 0 -2 -2l-2 -2l-2 -2l-6 -7l-11 -12l-12 -10l-6 -6l-4 -2l-2 -2l-15 -11l-2 -2l-4 -4l-6 -4l-14 -10l-6 -4l-6 -4l-9 -4l-6 -4q-30 -16 -57 -27q-103 -103 -158 -156q-9 -9 -39 -37q40 27 109 72q73 48 135 80q74 39 141 66q29 12 74 26q51 12 78 17q47 6 82 2
q46 -6 80 -27q37 -21 59 -59q2 -2 5 -8.5t5 -10.5l4 -10q0 -1 1.5 -4.5t2.5 -5.5q9 -25 10 -41zM1767 1260l-2 -3q43 22 80 52q49 38 84 92q2 2 2 4l4 4l4 6l9 12q0 4 1 5t1 4l4 6l2 4l-6 -6q-32 -30 -92 -90zM1159 715l5 5l5 5q-13 7 -26 8q6 -11 16 -18zM1190 694
q16 -7 18 -8v2l-2 2q-1 1 -8.5 10t-11.5 13q-6 -8 -10 -11l7 -3.5t7 -4.5zM2286 1067q14 31 12 70q-1 15 -6 32l-4 9l-1 3q-2 4 -3 5q-4 9 -9 16q-19 31 -47 49q-30 19 -67 23q-33 5 -74 0q-43 -6 -74 -14q-35 -11 -71 -25q-68 -24 -142 -62q-82 -43 -135 -75
q-101 -60 -195 -129q-10 -10 -35.5 -33.5t-37.5 -34.5q-70 -65 -191 -172l-5 -5q-3 -3 -5 -3q7 -7 21 -23q9 -9 16 -20q16 -5 29 -6q66 -10 153 -6q80 7 152 20q75 16 149 37q88 26 146 47q78 30 141 61q68 35 131 78q71 46 113 99q27 30 39 59z" />
    <glyph glyph-name="S" unicode="S" horiz-adv-x="1525" 
d="M1894 1212v-4v-2v-8l-2 -6q-5 -23 -16 -45l-2 -4l-4 -6l-6 -11l-4 -4l-5 -6l-2 -2q-1 -3 -4 -6q-29 -36 -65 -66q-2 -2 -37 -28l-19 -13q-4 -1 -10 -6l-10 -6l-8 -6l-8 -4l-2 -2l-21 -10q-5 -5 -12 -9l-8 -4q-19 -10 -21 -10l-41 -20l-6 -2q-10 -21 -16 -43
q-4 -10 -6 -23l-5 -10q-1 -2 -2.5 -5.5t-1.5 -4.5q-9 -27 -16 -43q-32 -80 -84 -164q-101 -161 -238 -277q-74 -62 -149 -106q-85 -48 -168 -74q-90 -28 -180 -33q-47 -5 -92 0h-13l-10 2h-12q-3 0 -6 1l-4 1q-11 1 -23 4h-12l-2 2h-4h-7q-46 11 -88 31q-40 21 -75 51l-9 9
l-8 8q-2 2 -16 18l-6 8l-4 7l-2 2l-3 2l-6 8l-4 6l-2 2v2q-25 41 -41 84q-23 62 -24 133q-33 -21 -60 -45l-16 -14q-1 -1 -5.5 -7t-8.5 -10q-26 -30 -27 -32q-15 -21 -21 -39l-2 -8l-2 -7v-2v-2l-1 -2l-1 -2v-6v-1v-3v-2q0 -19 -16 -20q-17 -2 -19 16v4v2v2q0 3 1 4q2 2 2 4
v6l2 4v2l2 3v4l2 6q1 4 6 10q7 19 24 41q0 2 3 5q4 4 4 5l8 8l8 9l8 10q8 8 16 14l19 17q42 30 72 49v24q1 37 10 90q6 45 22 88q57 181 207 293q74 57 160 86q7 2 22 7.5t23 7.5t23.5 4.5t21.5 3.5q6 0 21 1.5t24 2.5q24 1 45 0q26 -1 47 -6q22 -5 45 -12q15 -5 43 -19
l11 -6l8 -6l1 -2q2 -1 4.5 -3t4.5 -3l4 -4q3 0 4 -1l2 -2q22 -20 33 -32q2 -2 14 -21q3 -4 7 -8t6 -6.5t2 -3.5q1 -2 10 -23q3 -3 4 -5q2 -4 2 -5l2 -4l2 -6l4 -12l4 -11l2 -6l2 -6l3 -10q5 -17 -13 -22q-16 -4 -20 12v2q-7 42 -27 81l-2 3q-1 2 -4 7t-6 9q-7 14 -12 16
q-11 17 -29 33q-14 13 -35 25q-20 13 -39 20q-23 8 -41 12q-28 6 -43 9q-21 1 -45 0h-10h-2h-4h-6h-2q-8 -2 -9 -2h-10q-24 -5 -45 -9q-9 -3 -20 -6q-1 0 -9 -2h-2l-12 -4q-47 -16 -82 -35q-40 -22 -74 -47q-150 -111 -202 -289q-16 -47 -23 -86q-6 -45 -6 -88q-2 -8 0 -16
q30 17 70 35q72 34 168 63l6 3q3 1 6 1l10 4l21 7q2 0 8 2q3 1 7 3q2 1 7 1l23 6l20 6h4l8 2l11 4l43 10q4 1 12.5 2.5t13.5 2.5q16 3 19 6l22 4q3 1 13 3q5 1 10 1l43 10q6 0 22 4l23 4l88 17l22 2l23 6l45 8q97 21 174 41q99 24 174 49q97 35 166 66q8 2 10 4l21 45
q18 34 47 80q21 36 55 73q27 34 66 66q18 16 39 27q20 13 41 22q16 5 24 6q10 2 14 2q10 0 17 -4q9 -2 13 -9q6 -10 7 -15q0 -2 2 -4v-5zM1534 889q2 7 6 14q-71 -31 -164 -59q-3 -3 -18 -7q-6 -2 -14.5 -5t-10.5 -3l-43 -12q-1 0 -6 -1.5t-8 -2.5l-16 -4q-3 -1 -8.5 -2.5
t-6.5 -1.5l-20 -6l-23 -4q-67 -18 -176 -39l-45 -11l-23 -4l-22 -2l-88 -16q-61 -10 -176 -37q-87 -21 -174 -47q-92 -30 -166 -68q-48 -23 -76 -41q5 -74 27 -137q15 -39 41 -80l2 -4l4 -4l6 -8l2 -4v-2l4 -4l8 -8q14 -16 15 -17l8 -6l8 -8q34 -30 72 -47q44 -20 84 -27
q82 -14 176 -8q83 7 172 37q87 28 162 71q21 13 73 50q34 23 70 55q134 113 231 268q47 75 82 158q12 28 17 41q0 1 1.5 4.5t2.5 5.5l2 10q1 3 3.5 11t4.5 12zM1868 1206v2v2v2v2q0 3 -2 5t-4 2q-6 2 -17 0q-9 0 -18 -4q-1 -1 -37 -21q-20 -15 -35 -27q-33 -27 -61 -61
q-60 -71 -97 -147l-4 -13l9 4q3 1 9 5l9 6q1 0 3.5 1.5t6.5 4t8 4.5q2 2 10 5q2 1 5.5 2.5t5.5 2.5l18 12q2 0 4 2q5 1 7 4l8 7l10 6q6 5 10 6l17 12q20 15 34 29q37 29 62 61l8 8l2 5q1 3 4 6l4 8q3 3 4 6q2 2 2 4q11 22 15 37v6v4z" />
    <glyph glyph-name="T" unicode="T" horiz-adv-x="1247" 
d="M2960 1461q15 -8 10 -21l-2 -2q-13 -24 -27 -41q0 -2 -8 -10l-1 -3q-2 -2 -3 -2l-4 -6l-5 -4l-4 -4l-8 -8q-18 -18 -37 -33q-1 -1 -41 -24q-34 -19 -43 -23l-6 -2l-6 -2l-10 -4l-23 -8l-12 -4l-16 -5l-7 -2l-12 -4q-37 -8 -45 -10q-75 -14 -188 -20q-62 -2 -97 -2
q-26 0 -94 2q-5 0 -94 4q-48 2 -94 6q-103 7 -189 16q-66 7 -94 10l-67 9q-6 -6 -58.5 -57t-89.5 -87l-186 -182q-39 -38 -76 -74t-70 -68t-43 -42q-35 -33 -99.5 -94.5t-90.5 -86.5q-235 -217 -397 -344q-116 -95 -213 -155q-65 -43 -115 -64q-31 -16 -66 -22
q-16 -6 -34 -6q-22 -2 -37 2q-17 5 -14 20q3 16 20 14q2 0 2 -2q11 -4 29 -4q8 0 30 2q14 1 31 6q23 9 29 11l30 12q5 2 29 14q2 1 57 31q49 28 111 72q40 28 104 78q104 84 201 170q6 6 96 86q14 13 46.5 43t50.5 47q96 91 188 182q130 129 186 186q48 48 308 316
q-102 11 -172 20l-95 12l-94 13q-30 4 -92 10q-83 9 -94 10q-111 11 -189 15q-105 6 -186 6q-19 -1 -50.5 -2.5t-43.5 -1.5q-34 -1 -94 -9q-22 -1 -46 -6q-7 -1 -23 -3.5t-24 -4.5q-50 -8 -92 -22l-10 -2l-12 -5q-3 -1 -23 -8q-1 0 -20 -8q-3 -1 -13 -5q-8 -3 -10 -3
q-42 -17 -82 -45q-82 -51 -133 -127q-7 -14 -22 -5q-13 8 -6 23q2 2 2 4q43 43 71 65q33 26 80 54q81 45 176 74q34 10 92 22q21 5 45 9q8 2 24.5 4.5t23.5 3.5q50 7 94 8q46 4 94 6q76 4 190 2q136 -7 189 -10q14 -1 45.5 -3.5t48.5 -4.5q14 -1 45.5 -3.5t48.5 -4.5
q62 -6 189 -23q25 -3 88 -12t98 -13l10 -2l29 31q13 13 25 1t0 -23v-2l-7 -7q-4 -4 -6 -4l137 -18q132 -20 187 -25q57 -7 94 -8q65 -7 94 -8q18 -1 48.5 -2.5t43.5 -1.5q37 0 95 2q106 5 186 22q15 3 47 11l17 4l4 2l12 4l10 4l23 8l10 6l6 2l4 2q17 7 41 23q21 12 37 27
q17 12 33 30q13 14 26 37l6 10q3 3 3 4l4 7q2 2 8 18v2q7 15 23 7z" />
    <glyph glyph-name="U" unicode="U" horiz-adv-x="1931" 
d="M2495 1328q1 -3 0 -7q-2 -6 -3 -10l-4 -8q-7 -15 -14 -27q-26 -35 -35 -49q-13 -21 -26 -37q-9 -11 -29 -33q-20 -25 -60 -65q-62 -64 -124 -123q-118 -111 -263 -232q-61 -50 -137 -108q-95 -74 -141 -105q-24 -16 -35 -24q-41 -47 -84 -101q-83 -101 -139 -194
q-34 -54 -58 -105q-22 -46 -40 -108q-6 -16 -23 -11q-16 5 -12 21h2q19 56 51 111q24 49 61 104q63 92 146 193q24 28 53 59q-13 -9 -37.5 -24t-30.5 -19q-76 -48 -151 -88q-86 -47 -160 -74q-41 -17 -82 -28q-54 -13 -88 -17q-48 -6 -90 2q-24 5 -45 12q-25 12 -41 25
q-21 15 -31 37q-11 21 -12 47q-2 26 2 49q4 20 12 43q14 37 39 82q25 42 49 74q38 53 111 139q112 125 248 248q122 112 268 229q11 9 32 25t28 22q-73 -10 -170 -10q-75 -2 -177 6q-36 1 -86 6q-41 5 -88 9q-231 23 -348 28q-108 2 -174 -2q-94 -6 -172 -24
q-90 -21 -162 -60q-78 -41 -131 -104q-12 -15 -24 -3t-2 23q0 2 2 2q21 21 32 31q17 16 37 27q32 22 76 45q75 37 168 55q72 13 176 18q78 4 174 0q103 -5 350 -28q143 -14 174 -17q95 -6 175 -6q85 1 174 15q2 0 12 2q98 77 205 149q29 18 37 23q22 15 38 22l21 10l4 2l2 1
q3 0 4 1l2 1q4 0 6 -2q5 0 7 -5q2 -6 2 -8l-2 -6l-5 -4q-14 -24 -26 -37q-27 -34 -64 -61q-31 -25 -73 -47q-41 -20 -99 -37q-57 -43 -112 -90q-141 -116 -265 -230q-60 -55 -124 -119q-66 -63 -121 -124q-63 -68 -111 -136q-27 -37 -47 -69q-22 -38 -39 -76q-7 -21 -12 -41
q-4 -18 -2 -39q0 -22 7 -37q8 -17 23 -28q19 -15 33 -21q22 -9 39 -14q42 -8 84 -4q40 2 86 12q57 15 82 24q75 26 160 72q111 59 254 156q38 40 78 84l16 16t31 31.5t37 38.5q27 29 84 86l81 86l82 88l43 43q30 32 41 43q60 62 84 86q98 97 178 162q27 22 48 39
q6 4 13.5 10t10.5 8q2 1 7.5 3.5t7.5 4.5l8 4l8 4q3 0 5 1q3 1 5 -1h6q4 -1 6 -6q1 -3 3 -7zM1925 1464v-2v2zM1700 1286q31 10 69 29q47 24 72 47q39 30 60 61q4 7 14 21l-6 -2q-51 -35 -70 -49q-12 -8 -70 -54q-4 -3 -69 -53zM2454 1288q4 7 10 21q-5 -5 -8 -6
q-7 -5 -23 -19q-18 -15 -45 -39q-33 -31 -88 -82l-86 -82l-86 -82l-88 -81q-44 -44 -88 -84q-60 -58 -86 -84l-84 -84q-40 -40 -84 -86q-13 -15 -39 -43q141 102 268 211q136 114 260 233q49 49 123 125q31 32 57 65q17 18 27 33q21 26 25 35h2l17 25.5t16 23.5z" />
    <glyph glyph-name="U" unicode="&#xdc;" horiz-adv-x="1931" 
d="M2495 1328q1 -3 0 -7q-2 -6 -3 -10l-4 -8q-7 -15 -14 -27q-26 -35 -35 -49q-13 -21 -26 -37q-9 -11 -29 -33q-20 -25 -60 -65q-62 -64 -124 -123q-118 -111 -263 -232q-61 -50 -137 -108q-95 -74 -141 -105q-24 -16 -35 -24q-41 -47 -84 -101q-83 -101 -139 -194
q-34 -54 -58 -105q-22 -46 -40 -108q-6 -16 -23 -11q-16 5 -12 21h2q19 56 51 111q24 49 61 104q63 92 146 193q24 28 53 59q-13 -9 -37.5 -24t-30.5 -19q-76 -48 -151 -88q-86 -47 -160 -74q-41 -17 -82 -28q-54 -13 -88 -17q-48 -6 -90 2q-24 5 -45 12q-25 12 -41 25
q-21 15 -31 37q-11 21 -12 47q-2 26 2 49q4 20 12 43q14 37 39 82q25 42 49 74q38 53 111 139q112 125 248 248q122 112 268 229q11 9 32 25t28 22q-73 -10 -170 -10q-75 -2 -177 6q-36 1 -86 6q-41 5 -88 9q-231 23 -348 28q-108 2 -174 -2q-94 -6 -172 -24
q-90 -21 -162 -60q-78 -41 -131 -104q-12 -15 -24 -3t-2 23q0 2 2 2q21 21 32 31q17 16 37 27q32 22 76 45q75 37 168 55q72 13 176 18q78 4 174 0q103 -5 350 -28q143 -14 174 -17q95 -6 175 -6q85 1 174 15q2 0 12 2q98 77 205 149q29 18 37 23q22 15 38 22l21 10l4 2l2 1
q3 0 4 1l2 1q4 0 6 -2q5 0 7 -5q2 -6 2 -8l-2 -6l-5 -4q-14 -24 -26 -37q-27 -34 -64 -61q-31 -25 -73 -47q-41 -20 -99 -37q-57 -43 -112 -90q-141 -116 -265 -230q-60 -55 -124 -119q-66 -63 -121 -124q-63 -68 -111 -136q-27 -37 -47 -69q-22 -38 -39 -76q-7 -21 -12 -41
q-4 -18 -2 -39q0 -22 7 -37q8 -17 23 -28q19 -15 33 -21q22 -9 39 -14q42 -8 84 -4q40 2 86 12q57 15 82 24q75 26 160 72q111 59 254 156q38 40 78 84l16 16t31 31.5t37 38.5q27 29 84 86l81 86l82 88l43 43q30 32 41 43q60 62 84 86q98 97 178 162q27 22 48 39
q6 4 13.5 10t10.5 8q2 1 7.5 3.5t7.5 4.5l8 4l8 4q3 0 5 1q3 1 5 -1h6q4 -1 6 -6q1 -3 3 -7zM1925 1464v-2v2zM1700 1286q31 10 69 29q47 24 72 47q39 30 60 61q4 7 14 21l-6 -2q-51 -35 -70 -49q-12 -8 -70 -54q-4 -3 -69 -53zM2454 1288q4 7 10 21q-5 -5 -8 -6
q-7 -5 -23 -19q-18 -15 -45 -39q-33 -31 -88 -82l-86 -82l-86 -82l-88 -81q-44 -44 -88 -84q-60 -58 -86 -84l-84 -84q-40 -40 -84 -86q-13 -15 -39 -43q141 102 268 211q136 114 260 233q49 49 123 125q31 32 57 65q17 18 27 33q21 26 25 35h2l17 25.5t16 23.5z" />
    <glyph glyph-name="U" unicode="&#xdb;" horiz-adv-x="1931" 
d="M2495 1328q1 -3 0 -7q-2 -6 -3 -10l-4 -8q-7 -15 -14 -27q-26 -35 -35 -49q-13 -21 -26 -37q-9 -11 -29 -33q-20 -25 -60 -65q-62 -64 -124 -123q-118 -111 -263 -232q-61 -50 -137 -108q-95 -74 -141 -105q-24 -16 -35 -24q-41 -47 -84 -101q-83 -101 -139 -194
q-34 -54 -58 -105q-22 -46 -40 -108q-6 -16 -23 -11q-16 5 -12 21h2q19 56 51 111q24 49 61 104q63 92 146 193q24 28 53 59q-13 -9 -37.5 -24t-30.5 -19q-76 -48 -151 -88q-86 -47 -160 -74q-41 -17 -82 -28q-54 -13 -88 -17q-48 -6 -90 2q-24 5 -45 12q-25 12 -41 25
q-21 15 -31 37q-11 21 -12 47q-2 26 2 49q4 20 12 43q14 37 39 82q25 42 49 74q38 53 111 139q112 125 248 248q122 112 268 229q11 9 32 25t28 22q-73 -10 -170 -10q-75 -2 -177 6q-36 1 -86 6q-41 5 -88 9q-231 23 -348 28q-108 2 -174 -2q-94 -6 -172 -24
q-90 -21 -162 -60q-78 -41 -131 -104q-12 -15 -24 -3t-2 23q0 2 2 2q21 21 32 31q17 16 37 27q32 22 76 45q75 37 168 55q72 13 176 18q78 4 174 0q103 -5 350 -28q143 -14 174 -17q95 -6 175 -6q85 1 174 15q2 0 12 2q98 77 205 149q29 18 37 23q22 15 38 22l21 10l4 2l2 1
q3 0 4 1l2 1q4 0 6 -2q5 0 7 -5q2 -6 2 -8l-2 -6l-5 -4q-14 -24 -26 -37q-27 -34 -64 -61q-31 -25 -73 -47q-41 -20 -99 -37q-57 -43 -112 -90q-141 -116 -265 -230q-60 -55 -124 -119q-66 -63 -121 -124q-63 -68 -111 -136q-27 -37 -47 -69q-22 -38 -39 -76q-7 -21 -12 -41
q-4 -18 -2 -39q0 -22 7 -37q8 -17 23 -28q19 -15 33 -21q22 -9 39 -14q42 -8 84 -4q40 2 86 12q57 15 82 24q75 26 160 72q111 59 254 156q38 40 78 84l16 16t31 31.5t37 38.5q27 29 84 86l81 86l82 88l43 43q30 32 41 43q60 62 84 86q98 97 178 162q27 22 48 39
q6 4 13.5 10t10.5 8q2 1 7.5 3.5t7.5 4.5l8 4l8 4q3 0 5 1q3 1 5 -1h6q4 -1 6 -6q1 -3 3 -7zM1925 1464v-2v2zM1700 1286q31 10 69 29q47 24 72 47q39 30 60 61q4 7 14 21l-6 -2q-51 -35 -70 -49q-12 -8 -70 -54q-4 -3 -69 -53zM2454 1288q4 7 10 21q-5 -5 -8 -6
q-7 -5 -23 -19q-18 -15 -45 -39q-33 -31 -88 -82l-86 -82l-86 -82l-88 -81q-44 -44 -88 -84q-60 -58 -86 -84l-84 -84q-40 -40 -84 -86q-13 -15 -39 -43q141 102 268 211q136 114 260 233q49 49 123 125q31 32 57 65q17 18 27 33q21 26 25 35h2l17 25.5t16 23.5z" />
    <glyph glyph-name="U" unicode="&#xda;" horiz-adv-x="1931" 
d="M2495 1328q1 -3 0 -7q-2 -6 -3 -10l-4 -8q-7 -15 -14 -27q-26 -35 -35 -49q-13 -21 -26 -37q-9 -11 -29 -33q-20 -25 -60 -65q-62 -64 -124 -123q-118 -111 -263 -232q-61 -50 -137 -108q-95 -74 -141 -105q-24 -16 -35 -24q-41 -47 -84 -101q-83 -101 -139 -194
q-34 -54 -58 -105q-22 -46 -40 -108q-6 -16 -23 -11q-16 5 -12 21h2q19 56 51 111q24 49 61 104q63 92 146 193q24 28 53 59q-13 -9 -37.5 -24t-30.5 -19q-76 -48 -151 -88q-86 -47 -160 -74q-41 -17 -82 -28q-54 -13 -88 -17q-48 -6 -90 2q-24 5 -45 12q-25 12 -41 25
q-21 15 -31 37q-11 21 -12 47q-2 26 2 49q4 20 12 43q14 37 39 82q25 42 49 74q38 53 111 139q112 125 248 248q122 112 268 229q11 9 32 25t28 22q-73 -10 -170 -10q-75 -2 -177 6q-36 1 -86 6q-41 5 -88 9q-231 23 -348 28q-108 2 -174 -2q-94 -6 -172 -24
q-90 -21 -162 -60q-78 -41 -131 -104q-12 -15 -24 -3t-2 23q0 2 2 2q21 21 32 31q17 16 37 27q32 22 76 45q75 37 168 55q72 13 176 18q78 4 174 0q103 -5 350 -28q143 -14 174 -17q95 -6 175 -6q85 1 174 15q2 0 12 2q98 77 205 149q29 18 37 23q22 15 38 22l21 10l4 2l2 1
q3 0 4 1l2 1q4 0 6 -2q5 0 7 -5q2 -6 2 -8l-2 -6l-5 -4q-14 -24 -26 -37q-27 -34 -64 -61q-31 -25 -73 -47q-41 -20 -99 -37q-57 -43 -112 -90q-141 -116 -265 -230q-60 -55 -124 -119q-66 -63 -121 -124q-63 -68 -111 -136q-27 -37 -47 -69q-22 -38 -39 -76q-7 -21 -12 -41
q-4 -18 -2 -39q0 -22 7 -37q8 -17 23 -28q19 -15 33 -21q22 -9 39 -14q42 -8 84 -4q40 2 86 12q57 15 82 24q75 26 160 72q111 59 254 156q38 40 78 84l16 16t31 31.5t37 38.5q27 29 84 86l81 86l82 88l43 43q30 32 41 43q60 62 84 86q98 97 178 162q27 22 48 39
q6 4 13.5 10t10.5 8q2 1 7.5 3.5t7.5 4.5l8 4l8 4q3 0 5 1q3 1 5 -1h6q4 -1 6 -6q1 -3 3 -7zM1925 1464v-2v2zM1700 1286q31 10 69 29q47 24 72 47q39 30 60 61q4 7 14 21l-6 -2q-51 -35 -70 -49q-12 -8 -70 -54q-4 -3 -69 -53zM2454 1288q4 7 10 21q-5 -5 -8 -6
q-7 -5 -23 -19q-18 -15 -45 -39q-33 -31 -88 -82l-86 -82l-86 -82l-88 -81q-44 -44 -88 -84q-60 -58 -86 -84l-84 -84q-40 -40 -84 -86q-13 -15 -39 -43q141 102 268 211q136 114 260 233q49 49 123 125q31 32 57 65q17 18 27 33q21 26 25 35h2l17 25.5t16 23.5z" />
    <glyph glyph-name="U" unicode="&#xd9;" horiz-adv-x="1931" 
d="M2495 1328q1 -3 0 -7q-2 -6 -3 -10l-4 -8q-7 -15 -14 -27q-26 -35 -35 -49q-13 -21 -26 -37q-9 -11 -29 -33q-20 -25 -60 -65q-62 -64 -124 -123q-118 -111 -263 -232q-61 -50 -137 -108q-95 -74 -141 -105q-24 -16 -35 -24q-41 -47 -84 -101q-83 -101 -139 -194
q-34 -54 -58 -105q-22 -46 -40 -108q-6 -16 -23 -11q-16 5 -12 21h2q19 56 51 111q24 49 61 104q63 92 146 193q24 28 53 59q-13 -9 -37.5 -24t-30.5 -19q-76 -48 -151 -88q-86 -47 -160 -74q-41 -17 -82 -28q-54 -13 -88 -17q-48 -6 -90 2q-24 5 -45 12q-25 12 -41 25
q-21 15 -31 37q-11 21 -12 47q-2 26 2 49q4 20 12 43q14 37 39 82q25 42 49 74q38 53 111 139q112 125 248 248q122 112 268 229q11 9 32 25t28 22q-73 -10 -170 -10q-75 -2 -177 6q-36 1 -86 6q-41 5 -88 9q-231 23 -348 28q-108 2 -174 -2q-94 -6 -172 -24
q-90 -21 -162 -60q-78 -41 -131 -104q-12 -15 -24 -3t-2 23q0 2 2 2q21 21 32 31q17 16 37 27q32 22 76 45q75 37 168 55q72 13 176 18q78 4 174 0q103 -5 350 -28q143 -14 174 -17q95 -6 175 -6q85 1 174 15q2 0 12 2q98 77 205 149q29 18 37 23q22 15 38 22l21 10l4 2l2 1
q3 0 4 1l2 1q4 0 6 -2q5 0 7 -5q2 -6 2 -8l-2 -6l-5 -4q-14 -24 -26 -37q-27 -34 -64 -61q-31 -25 -73 -47q-41 -20 -99 -37q-57 -43 -112 -90q-141 -116 -265 -230q-60 -55 -124 -119q-66 -63 -121 -124q-63 -68 -111 -136q-27 -37 -47 -69q-22 -38 -39 -76q-7 -21 -12 -41
q-4 -18 -2 -39q0 -22 7 -37q8 -17 23 -28q19 -15 33 -21q22 -9 39 -14q42 -8 84 -4q40 2 86 12q57 15 82 24q75 26 160 72q111 59 254 156q38 40 78 84l16 16t31 31.5t37 38.5q27 29 84 86l81 86l82 88l43 43q30 32 41 43q60 62 84 86q98 97 178 162q27 22 48 39
q6 4 13.5 10t10.5 8q2 1 7.5 3.5t7.5 4.5l8 4l8 4q3 0 5 1q3 1 5 -1h6q4 -1 6 -6q1 -3 3 -7zM1925 1464v-2v2zM1700 1286q31 10 69 29q47 24 72 47q39 30 60 61q4 7 14 21l-6 -2q-51 -35 -70 -49q-12 -8 -70 -54q-4 -3 -69 -53zM2454 1288q4 7 10 21q-5 -5 -8 -6
q-7 -5 -23 -19q-18 -15 -45 -39q-33 -31 -88 -82l-86 -82l-86 -82l-88 -81q-44 -44 -88 -84q-60 -58 -86 -84l-84 -84q-40 -40 -84 -86q-13 -15 -39 -43q141 102 268 211q136 114 260 233q49 49 123 125q31 32 57 65q17 18 27 33q21 26 25 35h2l17 25.5t16 23.5z" />
    <glyph glyph-name="V" unicode="V" horiz-adv-x="1841" 
d="M2284 1436v-9l-5 -16v-8l-2 -8l-4 -17l-1 -3q-1 -2 -1 -5l-2 -8l-4 -16q-8 -25 -10 -31q-23 -62 -53 -121l-17 -29q-14 -25 -14 -28q-8 -13 -15.5 -24.5t-13 -21t-6.5 -10.5l-8 -14q-1 -1 -5 -7q-3 -5 -3 -7l-9 -13l-6 -8l-4 -6l-18 -27l-19 -26q-50 -64 -82 -101
q-48 -55 -88 -96q-88 -90 -190 -178q-87 -75 -205 -160q-84 -63 -217 -147q-107 -67 -223 -131q-5 -3 -15.5 -8.5t-21.5 -11.5t-21 -11q-44 -23 -57 -29q-35 -17 -59 -28q-46 -22 -60 -29q-10 -4 -14 6l-2 2q-2 40 -2 60q0 9 2 29q1 5 2 15t2 15q6 44 27 113q13 36 43 108
q21 49 51 105q19 34 57 100q4 6 31 49q22 32 33 47q61 94 135 189q137 180 303 350q1 1 70 67h-4l-15 -2l-6 -2h-8q-54 -8 -115 -8q-91 -2 -231 6q-11 0 -28 1.5t-43 3t-45 2.5q-25 1 -64 4l-52 4q-138 8 -229 8q-66 0 -115 -4q-47 -3 -114 -13q-64 -8 -113 -22
q-59 -16 -109 -39q-54 -25 -98 -57q-46 -35 -80 -78q-10 -14 -23 -4t-3 24q0 2 2 2q51 46 94 72q54 33 104 53q47 20 111 37q55 16 113 23q98 14 231 14q69 -1 231 -10l115 -6q21 -2 46.5 -4t42 -3.5t26.5 -1.5q151 -8 231 -4q46 1 115 9l6 2h8l12 4l2 1q2 0 6 0.5t7 0.5h6
q43 43 86 80q56 46 90 71q4 2 25 17q15 10 26 16q6 4 15 6h4h8q2 0 4 -2q2 0 3 -1t1 -3q2 -2 2 -8q0 -2 -2 -10q0 -3 -2 -9q-6 -10 -8 -12q-33 -53 -80 -86q-18 -13 -51 -31l-12 -6l-4 -1q-2 -1 -5 -1l-6 -2l-14 -6l-12 -4l-19 -6q-35 -34 -108 -107q-84 -86 -158 -168
q-78 -86 -150 -174q-77 -93 -141 -182q-11 -15 -33 -47q-6 -9 -16 -24.5t-14 -22.5q-38 -58 -60 -99q-32 -57 -53 -102q-26 -62 -41 -108q-20 -65 -25 -111q-6 -51 2 -96q68 35 101 53l32.5 17.5t24.5 13.5t55 32q122 71 222 134q66 39 110 69q17 12 53 36l54 36q0 2 10 9
q3 3 8.5 6t7.5 5l25 19q9 6 20.5 14.5t19.5 13.5t13 9q11 9 47.5 36.5t55.5 42.5q95 76 194 170q45 45 88 93q51 58 83 100q40 53 75 106q14 24 16 27q10 16 16 28q10 20 15 29l12 29q25 60 41 123q5 21 8 31l2 14l3 8v6q0 2 2 2q0 7 1 11q0 2 0.5 5.5t1.5 5.5q1 3 1 9l2 17
l2 8q0 2 2 4t4 2q12 8 22 -2q2 -2 2 -4q3 -3 3 -4zM1683 1366q-12 -11 -38 -37l10 4l12 6l6 2q2 0 4 2h2l15 7q35 19 47 30q46 34 74 84q2 8 6 13q0 2 2 4q-1 0 -5 -1.5t-6 -2.5q-16 -13 -22 -17q-18 -13 -23 -16q-33 -28 -84 -78z" />
    <glyph glyph-name="W" unicode="W" horiz-adv-x="2123" 
d="M2487 1278q18 -1 16 -21q-6 -46 -27 -112q-16 -49 -45 -105q-46 -91 -125 -188q-64 -84 -151 -168q-68 -68 -168 -149q-84 -70 -179 -136q-98 -69 -186 -125q-189 -116 -397 -211l-11 -5l-14 -7l-14 -4q-4 -1 -6 0q-4 1 -6 6v2v2q2 2 2 4q0 3 2 9q4 6 12 26q1 3 2.5 7
t4 9t3.5 9q16 35 51 100q36 73 103 201q19 35 106 196l53 99q35 62 54 98q-12 -7 -17 -8q-2 -3 -7 -4q-1 -1 -4 -2t-5 -2l-8 -4q-30 -16 -94 -58q-44 -29 -93 -63q-54 -41 -90 -70q-10 -8 -39.5 -31.5t-46.5 -37.5q-36 -31 -86 -74q-49 -42 -82 -74q-11 -11 -41 -39
q-28 -30 -39 -41q-8 -8 -16 0q-4 4 -2 10v2q19 64 37 109q19 53 45 104q24 50 53 103q9 15 19.5 31t23 35.5t19.5 29.5q58 86 137 182q81 94 158 168q2 2 33 32t48 46q17 15 51 42.5t38 31.5h2q-62 0 -168 8q-85 6 -228 21l-225 22q-128 11 -227 12q-43 0 -113 -2
q-57 -1 -113 -8q-53 -7 -110 -20q-8 -2 -26.5 -8t-28.5 -9q-4 -1 -23.5 -8.5t-28.5 -11.5q-51 -22 -96 -53q-48 -34 -82 -74q-12 -15 -24 -3t-2 23q0 2 2 2q43 43 92 72q46 28 102 51q51 18 111 33q53 11 112 18q110 11 228 7q77 -1 227 -13q57 -6 144 -15q18 -2 165 -16
q17 -2 68 -7t76 -7q55 -4 112 -4h68q90 73 172 123q46 29 100 55q30 15 54 23q19 7 28 8q3 1 8.5 2.5t6.5 1.5h16q2 0 3 -1t2 -1t2 -1t3 -1q7 -2 8 -6q5 -5 6 -10v-4v-7q0 -7 -4 -14t-6 -14q-18 -29 -35 -47q-21 -21 -45 -39q-25 -18 -49 -29q-50 -23 -110 -33
q-43 -9 -113 -14h-3h-1q-2 -2 -15 -12.5t-20 -16.5l-45 -37l-41 -36q-44 -39 -82 -76q-170 -168 -293 -344q-36 -53 -59 -95q-11 -16 -29 -49q-7 -12 -26 -49q-45 -87 -74 -168q16 13 139 119l84 72q18 15 46.5 39.5t39.5 33.5q120 98 178 138q50 37 94 61q5 5 15 9l10 5
q2 1 11 6t16 9l12 4l6 4h2l4 2q5 0 9 -4l3 -3q3 -2 3 -3q2 -2 2 -6v-4l-2 -3q0 -2 -2 -8q-3 -3 -3 -8q-5 -5 -6 -12q-3 -6 -11 -23t-13 -28q-4 -7 -13 -24t-14 -26q-21 -44 -51 -100q-15 -28 -52.5 -94.5t-56.5 -101.5l-18 -31.5t-39.5 -70t-52.5 -93.5q-43 -80 -53 -98
q-2 -4 -6.5 -12.5t-6.5 -12.5l-10 -20q21 9 23 10q92 36 202 96q75 40 195 111q15 10 92 61q39 25 92 64q86 61 178 137q103 88 164 151q80 80 148 168q34 44 63 90q30 50 53 97q25 48 41 102q17 58 23 107q0 17 17 16zM1759 1341q-69 -49 -131 -96q59 5 103 15q28 6 55 14
t51 18q29 16 47 29q25 19 41 39q20 24 31 45q4 6 6 12q2 8 2 10v3v2v2q-2 2 -3 2h-3h-2q-4 1 -10 0q-5 0 -15 -2l-10 -5t-14 -6q-28 -9 -52 -22q-41 -23 -96 -60z" />
    <glyph glyph-name="X" unicode="X" horiz-adv-x="2482" 
d="M2808 1127q6 -15 -10 -21l-25 -10q-2 0 -5 -1.5t-8 -3.5l-10 -4l-24 -8l-23 -10q-29 -11 -96 -39l-47 -18l-47 -21l-45 -20q-43 -17 -47 -21q-22 -8 -31 -12q-24 -10 -34 -15q-24 -12 -29 -14l-93 -43q-19 -9 -182 -88l-47 -24q-1 0 -4.5 -2t-8.5 -4.5t-10 -4.5l-22 -12
q-87 -44 -90 -47l-90 -49l-23 -12l-10 -7l-10 -6l-45 -26l-45 -25l-21 -12q-6 -5 -12 -6l-10 -9l-88 -51l-21 -14q-1 0 -12 -7q-7 -4 -10 -7l-43 -27l-43 -27q-5 -5 -9 -6q-11 -43 -14 -55q-8 -40 -12 -78q-4 -39 -4 -80q1 -38 10 -78q11 -42 31 -69q23 -33 55 -51
q2 0 10 -5l8 -4l8 -4l11 -2q16 -6 37 -6q31 0 77 8q34 7 76 23q71 23 148 59q54 25 141 74q117 63 272 164q52 34 133 90q85 59 129 92q4 4 8 -1q3 -5 -1 -9q-132 -94 -265 -178q-158 -105 -272 -166q-84 -48 -141 -74q-80 -38 -148 -61q-43 -16 -78 -23q-41 -10 -79 -10
q-23 2 -41 6l-11 4l-8 2l-10 4q-8 5 -8 6q-40 21 -62 54q-24 35 -35 75q-9 40 -10 80q0 41 4 80q3 26 11 80q2 7 4.5 20.5t3.5 18.5l-13 -8q-82 -54 -176 -105q-41 -23 -90 -49q-45 -23 -92 -43q-93 -42 -190 -76q-47 -17 -99 -30q-46 -14 -98 -25q-119 -26 -205 -27
q-46 0 -102 9q-34 5 -51 10q-1 0 -25 8l-12 4l-6 2l-4 4q-26 11 -46 27l-6 2l-2 2l-2 2l-10 10l-10 8l-2 5l-6 6l-5 6l-4 4l-2 6l-2 2l-2 4l-6 10l-6 13l-2 4v2l-2 6l-2 6q-2 2 -2 4v2q-2 2 -2 6l-2 7l-2 14q-7 31 -7 51v7v7v13v6l2 6v14q5 42 21 103q4 16 20 12
q17 -5 13 -20v-2v-2q-8 -16 -11 -23q-1 -3 -3.5 -11t-4.5 -12l-8 -24l-2 -12l-1 -6q-2 -6 -3 -7q-5 -29 -6 -49v-6v-2v-4v-12v-5v-2l2 -6v-12l2 -12l2 -8l2 -5v-2v-4l2 -6l2 -6h2v-2v-2l6 -12l6 -11l2 -4v-2l5 -4l4 -6l4 -4l4 -6v-2l4 -2l8 -9l8 -8l2 -2l5 -2l4 -4
q20 -14 43 -25l6 -4l6 -2l4 -2l6 -2q7 -2 25 -8q4 -1 49 -10q47 -6 100 -6q91 1 201 26q54 11 100 25q9 3 43.5 14t53.5 17q104 36 188 75q179 81 356 197q11 7 27 18q11 47 27 95q19 61 53 151q52 136 129 293q42 88 71 141q16 33 39 72q11 19 39 70q7 14 24 6q15 -7 7 -25
h-2q-31 -51 -80 -137q-39 -69 -74 -139q-10 -20 -71 -144q-49 -108 -64 -145q-33 -85 -53 -150q-16 -43 -23 -73l37 24l43 27l9 6q9 7 12 8l22 15l86 53l13 6q6 5 10 6l22 14l43 25q21 13 179 102q6 3 51 27q38 21 39 21l22 12q17 10 23 12l92 47q3 0 10 4l12 6l23 13l92 45
l92 45q2 1 10.5 4.5t13.5 5.5l8 4l8 4l6 3l24 12q16 6 22 10q5 0 48 20l47 21q6 4 26 12q19 8 21 8q0 2 18 10q6 3 16 6.5t13 4.5q40 18 94 41l23 10l24 8q19 8 23 10l24 9q17 6 23 -10z" />
    <glyph glyph-name="Y" unicode="Y" horiz-adv-x="1591" 
d="M1937 1128v-6v-5q0 -3 -2 -5q-9 -16 -37 -49q-18 -21 -40 -43q-11 -12 -89 -84q-86 -80 -182 -154l-28 -20q-194 -196 -295 -293q-14 -13 -40.5 -38.5t-39.5 -37.5l75 8q23 2 45 4.5t43 5t29 3.5q56 6 119 16q22 5 55 16q37 11 52 25q6 4 9 -1t-1 -9q-19 -12 -27 -15
q-11 -5 -29 -12q-33 -9 -57 -14q-81 -13 -119 -17q-29 -3 -205 -18q-133 -126 -264 -233q-104 -86 -190 -144q-31 -22 -101 -65q-73 -39 -106 -54q-33 -14 -55 -20q-26 -8 -60 -14q-28 -4 -61 -2q-37 5 -60 14q-14 6 -26 16q-15 13 -21 24q-8 15 -12 27q-2 20 -2 31
q2 31 16 60q3 6 9.5 15t7.5 11l8 12q8 11 8 13q15 19 41 43q20 19 47 39q44 32 101 63q47 25 108 49q55 22 113 39q100 30 231 51q105 17 236 29h2q68 66 100 98q78 76 172 172q-12 -6 -22 -14q-38 -25 -105 -61q-27 -15 -53 -27q-29 -15 -53 -25q-12 -5 -58 -22
q-26 -9 -57 -16q-40 -10 -59 -13q-26 -4 -62 -2q-29 1 -59 13q-5 0 -17 6q-7 2 -14 6q-14 7 -27 20q-9 13 -14 33q-6 14 -4 35q1 12 8 31q3 11 12 30q14 29 33 54q13 18 37 47q50 54 84 88q80 75 184 153q52 38 78 56q-4 0 -12 -2q-63 -5 -121 -5q-49 0 -119 5q-18 2 -118 8
q-89 7 -119 8q-66 5 -121 6q-66 2 -119 0q-55 -1 -119 -10q-5 -2 -28 -6h-11l-4 -2l-6 -1q-4 -1 -8 -1l-14 -4l-9 -3l-6 -2l-14 -4l-14 -4q-2 0 -11.5 -3t-17.5 -5l-2 -2l-4 -2l-6 -2l-8 -2q-4 -2 -7 -4q-17 -6 -26 -13l-5 -3q-1 -1 -4 -3l-4 -2l-12 -6q-2 -2 -12 -8
q0 -2 -5 -5q-6 -4 -7 -5q-4 -3 -8 -6.5t-7 -5.5t-5 -4l-3 -3l-10 -10l-10 -10l-2 -2l-3 -2l-4 -6l-4 -5q-5 -5 -6 -8q-10 -12 -23 -2t-3 25l2 2q46 40 102 69l12 7q1 0 4.5 1.5t5.5 2.5q2 2 5 2q2 2 28 12q2 2 6 2l7 4l8 2l4 2h2q7 2 13.5 4.5t10.5 4.5t5 2q4 0 7 1q6 2 7 3
l16 2l6 2l9 2l14 4q4 0 8 1l6 1l15 2q24 4 30 4q66 9 119 10q35 0 119 -2q11 0 61 -2q7 0 27.5 -1.5t32.5 -2.5q22 0 66 -3q43 -3 53 -5q81 -5 118 -6q152 -8 238 2q7 1 19 3l12 1q20 13 57 36.5t47 30.5q10 6 51 29q44 24 54 29q7 4 14 6l8 4q6 2 8 2h6h2q3 0 5 -2
q3 0 4 -4v-4v-6q-2 0 -2 -2l-2 -2l-11 -13q-24 -27 -45 -43q-16 -12 -51 -30l-8 -4l-2 -3h-3h-1l-15 -6q-6 -2 -12.5 -4.5t-10 -4t-5.5 -1.5t-11.5 -3t-17.5 -5h-4l-33 -25q-33 -24 -94 -71q-18 -14 -48.5 -39t-43.5 -35q-46 -38 -90 -80q-60 -58 -82 -82q-19 -20 -37 -45
q-21 -27 -31 -47q-15 -26 -20 -51q-1 -15 0 -25t10 -22q7 -12 18 -19q8 -2 13 -6l12 -6q20 -9 55 -14q29 -2 58 0q26 1 59 8l14 4q1 1 7 3q3 1 8 1l6 2l8 2q9 4 12 4q27 10 58 23q95 40 209 110q11 8 33 23t32 22q44 45 123 129l84 84q49 53 82 86q53 53 86 82q11 9 27.5 23
t19.5 16q18 13 27 17q4 4 8 4q0 2 2 2h2q4 1 8 0h2h3q2 0 3 -1l2 -1q4 -4 6 -11zM1382 1108q-6 -4 -18.5 -14t-20.5 -15q6 2 7 2q2 0 10 4t16 7l15 6q2 0 2 2h4l6 4l6 4l8 2l6 4l2 2l4 2l13 8l10 9q23 18 41 41q-1 0 -4.5 -2t-5.5 -3q-23 -12 -51 -30q-17 -12 -50 -33z
M1073 324q27 24 60 57q-156 -17 -226 -29q-131 -21 -231 -51q-53 -16 -112 -39q-57 -22 -107 -49q-51 -28 -99 -64q-24 -18 -45 -36q-29 -29 -41 -43q0 -2 -8 -13t-8 -12q-8 -12 -14 -25q-16 -30 -17 -55q0 -8 2 -28q4 -11 13 -25q16 -23 43 -35q13 -7 26 -8q13 -4 29 -4
q32 -2 57 2q48 7 111 35q49 21 104 55q68 40 101 63q79 57 186 146q39 34 176 158zM1882 1077q5 6 13 16.5t12 14.5q-2 0 -4 -2q-8 -6 -11 -10q-3 -3 -18.5 -16.5t-24.5 -22.5l-84 -84l-82 -84l-59 -60q27 20 47 39q23 21 45 39q14 12 43 41q49 46 84 84q23 24 39 45z
M1915 1122z" />
    <glyph glyph-name="Y" unicode="&#x178;" horiz-adv-x="1591" 
d="M1937 1128v-6v-5q0 -3 -2 -5q-9 -16 -37 -49q-18 -21 -40 -43q-11 -12 -89 -84q-86 -80 -182 -154l-28 -20q-194 -196 -295 -293q-14 -13 -40.5 -38.5t-39.5 -37.5l75 8q23 2 45 4.5t43 5t29 3.5q56 6 119 16q22 5 55 16q37 11 52 25q6 4 9 -1t-1 -9q-19 -12 -27 -15
q-11 -5 -29 -12q-33 -9 -57 -14q-81 -13 -119 -17q-29 -3 -205 -18q-133 -126 -264 -233q-104 -86 -190 -144q-31 -22 -101 -65q-73 -39 -106 -54q-33 -14 -55 -20q-26 -8 -60 -14q-28 -4 -61 -2q-37 5 -60 14q-14 6 -26 16q-15 13 -21 24q-8 15 -12 27q-2 20 -2 31
q2 31 16 60q3 6 9.5 15t7.5 11l8 12q8 11 8 13q15 19 41 43q20 19 47 39q44 32 101 63q47 25 108 49q55 22 113 39q100 30 231 51q105 17 236 29h2q68 66 100 98q78 76 172 172q-12 -6 -22 -14q-38 -25 -105 -61q-27 -15 -53 -27q-29 -15 -53 -25q-12 -5 -58 -22
q-26 -9 -57 -16q-40 -10 -59 -13q-26 -4 -62 -2q-29 1 -59 13q-5 0 -17 6q-7 2 -14 6q-14 7 -27 20q-9 13 -14 33q-6 14 -4 35q1 12 8 31q3 11 12 30q14 29 33 54q13 18 37 47q50 54 84 88q80 75 184 153q52 38 78 56q-4 0 -12 -2q-63 -5 -121 -5q-49 0 -119 5q-18 2 -118 8
q-89 7 -119 8q-66 5 -121 6q-66 2 -119 0q-55 -1 -119 -10q-5 -2 -28 -6h-11l-4 -2l-6 -1q-4 -1 -8 -1l-14 -4l-9 -3l-6 -2l-14 -4l-14 -4q-2 0 -11.5 -3t-17.5 -5l-2 -2l-4 -2l-6 -2l-8 -2q-4 -2 -7 -4q-17 -6 -26 -13l-5 -3q-1 -1 -4 -3l-4 -2l-12 -6q-2 -2 -12 -8
q0 -2 -5 -5q-6 -4 -7 -5q-4 -3 -8 -6.5t-7 -5.5t-5 -4l-3 -3l-10 -10l-10 -10l-2 -2l-3 -2l-4 -6l-4 -5q-5 -5 -6 -8q-10 -12 -23 -2t-3 25l2 2q46 40 102 69l12 7q1 0 4.5 1.5t5.5 2.5q2 2 5 2q2 2 28 12q2 2 6 2l7 4l8 2l4 2h2q7 2 13.5 4.5t10.5 4.5t5 2q4 0 7 1q6 2 7 3
l16 2l6 2l9 2l14 4q4 0 8 1l6 1l15 2q24 4 30 4q66 9 119 10q35 0 119 -2q11 0 61 -2q7 0 27.5 -1.5t32.5 -2.5q22 0 66 -3q43 -3 53 -5q81 -5 118 -6q152 -8 238 2q7 1 19 3l12 1q20 13 57 36.5t47 30.5q10 6 51 29q44 24 54 29q7 4 14 6l8 4q6 2 8 2h6h2q3 0 5 -2
q3 0 4 -4v-4v-6q-2 0 -2 -2l-2 -2l-11 -13q-24 -27 -45 -43q-16 -12 -51 -30l-8 -4l-2 -3h-3h-1l-15 -6q-6 -2 -12.5 -4.5t-10 -4t-5.5 -1.5t-11.5 -3t-17.5 -5h-4l-33 -25q-33 -24 -94 -71q-18 -14 -48.5 -39t-43.5 -35q-46 -38 -90 -80q-60 -58 -82 -82q-19 -20 -37 -45
q-21 -27 -31 -47q-15 -26 -20 -51q-1 -15 0 -25t10 -22q7 -12 18 -19q8 -2 13 -6l12 -6q20 -9 55 -14q29 -2 58 0q26 1 59 8l14 4q1 1 7 3q3 1 8 1l6 2l8 2q9 4 12 4q27 10 58 23q95 40 209 110q11 8 33 23t32 22q44 45 123 129l84 84q49 53 82 86q53 53 86 82q11 9 27.5 23
t19.5 16q18 13 27 17q4 4 8 4q0 2 2 2h2q4 1 8 0h2h3q2 0 3 -1l2 -1q4 -4 6 -11zM1382 1108q-6 -4 -18.5 -14t-20.5 -15q6 2 7 2q2 0 10 4t16 7l15 6q2 0 2 2h4l6 4l6 4l8 2l6 4l2 2l4 2l13 8l10 9q23 18 41 41q-1 0 -4.5 -2t-5.5 -3q-23 -12 -51 -30q-17 -12 -50 -33z
M1073 324q27 24 60 57q-156 -17 -226 -29q-131 -21 -231 -51q-53 -16 -112 -39q-57 -22 -107 -49q-51 -28 -99 -64q-24 -18 -45 -36q-29 -29 -41 -43q0 -2 -8 -13t-8 -12q-8 -12 -14 -25q-16 -30 -17 -55q0 -8 2 -28q4 -11 13 -25q16 -23 43 -35q13 -7 26 -8q13 -4 29 -4
q32 -2 57 2q48 7 111 35q49 21 104 55q68 40 101 63q79 57 186 146q39 34 176 158zM1882 1077q5 6 13 16.5t12 14.5q-2 0 -4 -2q-8 -6 -11 -10q-3 -3 -18.5 -16.5t-24.5 -22.5l-84 -84l-82 -84l-59 -60q27 20 47 39q23 21 45 39q14 12 43 41q49 46 84 84q23 24 39 45z
M1915 1122z" />
    <glyph glyph-name="Y" unicode="&#xdd;" horiz-adv-x="1591" 
d="M1937 1128v-6v-5q0 -3 -2 -5q-9 -16 -37 -49q-18 -21 -40 -43q-11 -12 -89 -84q-86 -80 -182 -154l-28 -20q-194 -196 -295 -293q-14 -13 -40.5 -38.5t-39.5 -37.5l75 8q23 2 45 4.5t43 5t29 3.5q56 6 119 16q22 5 55 16q37 11 52 25q6 4 9 -1t-1 -9q-19 -12 -27 -15
q-11 -5 -29 -12q-33 -9 -57 -14q-81 -13 -119 -17q-29 -3 -205 -18q-133 -126 -264 -233q-104 -86 -190 -144q-31 -22 -101 -65q-73 -39 -106 -54q-33 -14 -55 -20q-26 -8 -60 -14q-28 -4 -61 -2q-37 5 -60 14q-14 6 -26 16q-15 13 -21 24q-8 15 -12 27q-2 20 -2 31
q2 31 16 60q3 6 9.5 15t7.5 11l8 12q8 11 8 13q15 19 41 43q20 19 47 39q44 32 101 63q47 25 108 49q55 22 113 39q100 30 231 51q105 17 236 29h2q68 66 100 98q78 76 172 172q-12 -6 -22 -14q-38 -25 -105 -61q-27 -15 -53 -27q-29 -15 -53 -25q-12 -5 -58 -22
q-26 -9 -57 -16q-40 -10 -59 -13q-26 -4 -62 -2q-29 1 -59 13q-5 0 -17 6q-7 2 -14 6q-14 7 -27 20q-9 13 -14 33q-6 14 -4 35q1 12 8 31q3 11 12 30q14 29 33 54q13 18 37 47q50 54 84 88q80 75 184 153q52 38 78 56q-4 0 -12 -2q-63 -5 -121 -5q-49 0 -119 5q-18 2 -118 8
q-89 7 -119 8q-66 5 -121 6q-66 2 -119 0q-55 -1 -119 -10q-5 -2 -28 -6h-11l-4 -2l-6 -1q-4 -1 -8 -1l-14 -4l-9 -3l-6 -2l-14 -4l-14 -4q-2 0 -11.5 -3t-17.5 -5l-2 -2l-4 -2l-6 -2l-8 -2q-4 -2 -7 -4q-17 -6 -26 -13l-5 -3q-1 -1 -4 -3l-4 -2l-12 -6q-2 -2 -12 -8
q0 -2 -5 -5q-6 -4 -7 -5q-4 -3 -8 -6.5t-7 -5.5t-5 -4l-3 -3l-10 -10l-10 -10l-2 -2l-3 -2l-4 -6l-4 -5q-5 -5 -6 -8q-10 -12 -23 -2t-3 25l2 2q46 40 102 69l12 7q1 0 4.5 1.5t5.5 2.5q2 2 5 2q2 2 28 12q2 2 6 2l7 4l8 2l4 2h2q7 2 13.5 4.5t10.5 4.5t5 2q4 0 7 1q6 2 7 3
l16 2l6 2l9 2l14 4q4 0 8 1l6 1l15 2q24 4 30 4q66 9 119 10q35 0 119 -2q11 0 61 -2q7 0 27.5 -1.5t32.5 -2.5q22 0 66 -3q43 -3 53 -5q81 -5 118 -6q152 -8 238 2q7 1 19 3l12 1q20 13 57 36.5t47 30.5q10 6 51 29q44 24 54 29q7 4 14 6l8 4q6 2 8 2h6h2q3 0 5 -2
q3 0 4 -4v-4v-6q-2 0 -2 -2l-2 -2l-11 -13q-24 -27 -45 -43q-16 -12 -51 -30l-8 -4l-2 -3h-3h-1l-15 -6q-6 -2 -12.5 -4.5t-10 -4t-5.5 -1.5t-11.5 -3t-17.5 -5h-4l-33 -25q-33 -24 -94 -71q-18 -14 -48.5 -39t-43.5 -35q-46 -38 -90 -80q-60 -58 -82 -82q-19 -20 -37 -45
q-21 -27 -31 -47q-15 -26 -20 -51q-1 -15 0 -25t10 -22q7 -12 18 -19q8 -2 13 -6l12 -6q20 -9 55 -14q29 -2 58 0q26 1 59 8l14 4q1 1 7 3q3 1 8 1l6 2l8 2q9 4 12 4q27 10 58 23q95 40 209 110q11 8 33 23t32 22q44 45 123 129l84 84q49 53 82 86q53 53 86 82q11 9 27.5 23
t19.5 16q18 13 27 17q4 4 8 4q0 2 2 2h2q4 1 8 0h2h3q2 0 3 -1l2 -1q4 -4 6 -11zM1382 1108q-6 -4 -18.5 -14t-20.5 -15q6 2 7 2q2 0 10 4t16 7l15 6q2 0 2 2h4l6 4l6 4l8 2l6 4l2 2l4 2l13 8l10 9q23 18 41 41q-1 0 -4.5 -2t-5.5 -3q-23 -12 -51 -30q-17 -12 -50 -33z
M1073 324q27 24 60 57q-156 -17 -226 -29q-131 -21 -231 -51q-53 -16 -112 -39q-57 -22 -107 -49q-51 -28 -99 -64q-24 -18 -45 -36q-29 -29 -41 -43q0 -2 -8 -13t-8 -12q-8 -12 -14 -25q-16 -30 -17 -55q0 -8 2 -28q4 -11 13 -25q16 -23 43 -35q13 -7 26 -8q13 -4 29 -4
q32 -2 57 2q48 7 111 35q49 21 104 55q68 40 101 63q79 57 186 146q39 34 176 158zM1882 1077q5 6 13 16.5t12 14.5q-2 0 -4 -2q-8 -6 -11 -10q-3 -3 -18.5 -16.5t-24.5 -22.5l-84 -84l-82 -84l-59 -60q27 20 47 39q23 21 45 39q14 12 43 41q49 46 84 84q23 24 39 45z
M1915 1122z" />
    <glyph glyph-name="Z" unicode="Z" horiz-adv-x="1196" 
d="M1409 1055q1 -12 0 -27q-7 -22 -20 -41q-11 -17 -27 -33l-29 -28q-54 -47 -131 -97q-60 -39 -137 -81q-69 -38 -141 -72q-37 -20 -80 -39q4 0 12 -2q23 -5 41 -12q20 -10 35 -25q8 -8 14 -17q4 -6 10 -20q10 -28 11 -43q2 -24 -2 -43q0 -6 -2 -16q13 1 39 3.5t40 4.5
q82 1 160 0q6 0 6 -6t-6 -6v2q-80 2 -158 0q-39 -1 -83 -6l-5 -17q0 -4 -4 -20l-4 -11q0 -3 -1 -5l-1 -3l-8 -20q0 -4 -3 -10q-4 -8 -5 -9l-4 -10l-2 -4l-2 -4l-9 -19q-39 -70 -92 -133q-3 -3 -4 -5t-5 -6q-3 -3 -3 -5l-14 -14l-15 -15l-6 -8l-8 -6l-14 -14q-1 -1 -11 -9
l-4 -6q-2 0 -5 -3l-5 -5l-4 -4l-16 -14l-9 -6l-4 -5l-2 -2l-16 -12l-4 -2l-4 -4l-9 -6l-16 -12l-16 -11q-12 -10 -17 -12q-29 -19 -32 -20l-19 -13l-16 -8q-2 -1 -6 -3.5t-12.5 -7.5t-16.5 -9l-2 -1q-3 -1 -7.5 -3.5t-9.5 -4.5l-18 -10l-18 -8l-9 -4l-6 -2q-2 0 -4 -2
q-81 -34 -151 -49l-11 -2h-6q-2 0 -4 -2l-8 -2q-5 -1 -10 -1q-29 -4 -41 -4q-21 -1 -41 0q-18 1 -41 7q-5 4 -8 4l-7 2l-4 2q-9 5 -16 12q-15 15 -20 39q0 1 -1.5 8.5t-1.5 11.5l3 21q6 22 14 39q15 33 41 69q30 37 51 60q56 55 123 102q43 30 67 43l35 19q0 1 3 3l6 3l10 4
l16 8l19 10l3 2q4 2 5 2l10 4l35 17q1 0 6.5 3t11.5 5l19 8l18 8l4 2h6l9 5l36 14q2 1 22 7q15 5 17 5l19 6l39 13l8 2q8 2 10 2q72 18 156 33q21 5 43 6l2 6q2 14 2 18q8 45 -2 72q-4 17 -17 29q-10 15 -26 22q-29 16 -72 21h-2q-8 -3 -20 -8.5t-15 -6.5q-71 -32 -147 -57
q-21 -6 -39 -12l-21 -4q-3 0 -10 -1.5t-10 -1.5h-2q-1 0 -4 3h-4l-2 2q-5 1 -7 4q-2 6 -2 10t2 6q0 1 5 6q3 1 8 6q16 11 37 21q31 15 75 26q7 2 19 5.5t18 5.5q21 5 41 6q33 6 64 6l114 57q94 52 138 78q75 43 133 84q38 25 65 45q27 19 60 49q11 10 28 27q1 1 4 3.5t5 5
t4 4.5t10 16q11 16 16 28q2 11 1 15q-2 7 -5 10q-6 10 -24 16q-26 11 -35 13q-14 2 -19 2q-11 1 -20 4q-11 0 -19 2h-10h-10q-74 6 -154 -11q-77 -15 -151 -45t-139 -73q-59 -36 -125 -94q-34 -30 -58 -56q-18 -18 -26 -28q-5 -5 -13 -15l-6 -8l-6 -8q-10 -14 -25 -4
q-14 10 -4 24l2 2q7 7 17 15l14 14l10 8t11 9t10 8q15 13 61 51q69 52 131 92q63 40 142 76q79 35 151 51q74 20 160 18h2h8h10q1 0 21 -2h3t4 -0.5t5.5 -1t7.5 -0.5q9 0 19 -2q26 -5 43 -12q10 -4 20 -10q12 -7 19 -17q9 -12 10 -24zM698 594q46 20 68 31l-29 -4
q-39 -5 -78 -15q-45 -13 -73 -26q-21 -10 -33 -21q-3 -1 -6 -4q-2 -2 -2 -4l-2 -2l2 -2h2h2h2q9 -2 18 2q10 0 19 4q16 5 39 12q27 9 71 29zM924 442l2 4q-21 -2 -39 -6q-71 -11 -78 -14l-21 -4l-10 -2l-8 -2l-39 -10q-2 0 -10 -2l-8 -3l-21 -6l-18 -4l-19 -8q-5 0 -12 -3
q-10 -4 -14 -5q-2 -1 -5.5 -2.5t-4.5 -1.5l-39 -13l-9 -4l-4 -2l-6 -2l-35 -14q-6 -2 -11.5 -5t-6.5 -3l-37 -17l-8 -4q-3 -3 -6 -4l-2 -2l-19 -8l-18 -8l-8 -6l-9 -5l-34 -20q-28 -15 -68 -41q-69 -51 -119 -102q-21 -23 -51 -60q-25 -34 -41 -67q-9 -25 -10 -37
q0 -1 -1.5 -8t-2.5 -11q0 -8 2 -18q5 -20 16 -31q5 -5 17 -12l4 -2h2h2q3 -3 8 -4q17 -5 39 -6q18 -1 39 0q10 0 39 4q2 1 9 3q5 1 9 1l4 1q3 1 6 1l9 2q36 9 75 22q31 11 37 15l6 2l13 6l18 8q62 27 135 76q2 1 6 4t12 8t15 10q8 8 16 13l17 12l14 12l8 4l4 5l4 4l15 12
l6 6l8 6q63 54 109 113l12 14l6 8l6 9l10 14q1 1 5 6q3 3 4 5t4 5l4 8q2 5 4 5l2 4l10 16l8 16q3 3 6 9l5 10l8 16q0 1 2 5l2 3l4 11q0 2 3 8t5 8l6 19v4l2 6l5 8l2 10l1 3q1 2 1 5z" />
    <glyph glyph-name="backslash" unicode="\" horiz-adv-x="405" 
d="M283 311q2 -7 -4 -8q-7 -2 -7 4l-170 543q-6 16 11 21q16 4 22 -11z" />
    <glyph glyph-name="asciicircum" unicode="^" horiz-adv-x="251" 
d="M188 602q1 -4 0 -8q-5 -2 -6 2q-5 5 -10 18q-4 6 -6 17q-1 2 -4.5 15.5t-5.5 21.5q-5 18 -9 37q-2 10 -2 16q-2 0 -3 -1t-3 -1q-14 -8 -22 -12q-25 -17 -43 -27q-25 -19 -39 -31q-13 -13 -17 -18q-9 -12 -10 -21q0 -4 -4 -4t-4 4q0 7 2 15q2 6 6 12q4 7 17 22
q19 20 38 35q9 8 41 31q12 8 23 14q3 2 11 7.5t12 7.5q12 6 18 -6v-5q2 -22 3 -36q1 -19 3 -37l2.5 -20t1.5 -15q1 -4 2.5 -11t1.5 -8z" />
    <glyph glyph-name="underscore" unicode="_" horiz-adv-x="299" 
d="M188 473q17 0 17 -15q0 -16 -17 -16h-133q-14 0 -14 16q0 15 14 15h133z" />
    <glyph glyph-name="grave" unicode="`" horiz-adv-x="131" 
d="M66 653q4 -3 -3 -15t-14 -5l-47 39q-5 4 3 14q9 10 13 6z" />
    <glyph glyph-name="a" unicode="a" horiz-adv-x="286" 
d="M300 461q3 -5 -1 -6q-44 -33 -80 -52q-27 -14 -45 -20q-4 -2 -11.5 -4.5l-10.5 -3.5q-14 -4 -23 -6h-14l-9 4l-2 2l-2 2l-4 8l-2 6q-2 7 0 15q0 12 6 24q0 2 1 3t1 3q0 -1 -2 -3l-2 -1q-14 -13 -26 -18q-16 -13 -27 -17q-7 -4 -14 -6q-9 -4 -19 -2q-5 1 -10 6q-6 2 -8 8
q-4 9 -4 23q0 16 10 33q5 12 16 28q7 11 21 25l12 12q2 1 4 2.5t3 1.5l8 4q20 13 32 17q14 2 19 2q10 -1 22 -10l8 -9q0 -1 2 -4.5t3 -5.5l4 -12q0 2 2 2q3 5 14 18h2q10 12 21 0q12 -10 2 -20v-2h-2q-11 -11 -15 -16l-16 -17l-17 -16q-8 -14 -12 -19q-16 -20 -22 -39
q-4 -9 -2 -16l2 -2v-2h2l2 -2h10q12 0 23 4q4 2 11.5 4.5l10.5 3.5q7 3 41 21q42 24 80 51q5 2 7 -2zM94 438q16 14 25 23l8 12l2 4h2q1 15 0 25q0 2 -1 4.5t-2 4.5t-1 3q-1 4 -5 6t-7 2t-9 -2q-12 -4 -24 -12l-4 -4q-3 -3 -6 -4q-3 -3 -9 -11q-9 -9 -18 -22
q-10 -16 -14 -23q-2 -5 -6.5 -12.5t-6.5 -11.5q-2 -6 -2 -8v-4l2 -2q9 -3 13 -3l12 3q15 6 27 14t24 18z" />
    <glyph glyph-name="a" unicode="&#xe5;" horiz-adv-x="286" 
d="M300 461q3 -5 -1 -6q-44 -33 -80 -52q-27 -14 -45 -20q-4 -2 -11.5 -4.5l-10.5 -3.5q-14 -4 -23 -6h-14l-9 4l-2 2l-2 2l-4 8l-2 6q-2 7 0 15q0 12 6 24q0 2 1 3t1 3q0 -1 -2 -3l-2 -1q-14 -13 -26 -18q-16 -13 -27 -17q-7 -4 -14 -6q-9 -4 -19 -2q-5 1 -10 6q-6 2 -8 8
q-4 9 -4 23q0 16 10 33q5 12 16 28q7 11 21 25l12 12q2 1 4 2.5t3 1.5l8 4q20 13 32 17q14 2 19 2q10 -1 22 -10l8 -9q0 -1 2 -4.5t3 -5.5l4 -12q0 2 2 2q3 5 14 18h2q10 12 21 0q12 -10 2 -20v-2h-2q-11 -11 -15 -16l-16 -17l-17 -16q-8 -14 -12 -19q-16 -20 -22 -39
q-4 -9 -2 -16l2 -2v-2h2l2 -2h10q12 0 23 4q4 2 11.5 4.5l10.5 3.5q7 3 41 21q42 24 80 51q5 2 7 -2zM94 438q16 14 25 23l8 12l2 4h2q1 15 0 25q0 2 -1 4.5t-2 4.5t-1 3q-1 4 -5 6t-7 2t-9 -2q-12 -4 -24 -12l-4 -4q-3 -3 -6 -4q-3 -3 -9 -11q-9 -9 -18 -22
q-10 -16 -14 -23q-2 -5 -6.5 -12.5t-6.5 -11.5q-2 -6 -2 -8v-4l2 -2q9 -3 13 -3l12 3q15 6 27 14t24 18z" />
    <glyph glyph-name="a" unicode="&#xe4;" horiz-adv-x="286" 
d="M300 461q3 -5 -1 -6q-44 -33 -80 -52q-27 -14 -45 -20q-4 -2 -11.5 -4.5l-10.5 -3.5q-14 -4 -23 -6h-14l-9 4l-2 2l-2 2l-4 8l-2 6q-2 7 0 15q0 12 6 24q0 2 1 3t1 3q0 -1 -2 -3l-2 -1q-14 -13 -26 -18q-16 -13 -27 -17q-7 -4 -14 -6q-9 -4 -19 -2q-5 1 -10 6q-6 2 -8 8
q-4 9 -4 23q0 16 10 33q5 12 16 28q7 11 21 25l12 12q2 1 4 2.5t3 1.5l8 4q20 13 32 17q14 2 19 2q10 -1 22 -10l8 -9q0 -1 2 -4.5t3 -5.5l4 -12q0 2 2 2q3 5 14 18h2q10 12 21 0q12 -10 2 -20v-2h-2q-11 -11 -15 -16l-16 -17l-17 -16q-8 -14 -12 -19q-16 -20 -22 -39
q-4 -9 -2 -16l2 -2v-2h2l2 -2h10q12 0 23 4q4 2 11.5 4.5l10.5 3.5q7 3 41 21q42 24 80 51q5 2 7 -2zM94 438q16 14 25 23l8 12l2 4h2q1 15 0 25q0 2 -1 4.5t-2 4.5t-1 3q-1 4 -5 6t-7 2t-9 -2q-12 -4 -24 -12l-4 -4q-3 -3 -6 -4q-3 -3 -9 -11q-9 -9 -18 -22
q-10 -16 -14 -23q-2 -5 -6.5 -12.5t-6.5 -11.5q-2 -6 -2 -8v-4l2 -2q9 -3 13 -3l12 3q15 6 27 14t24 18z" />
    <glyph glyph-name="a" unicode="&#xe3;" horiz-adv-x="286" 
d="M300 461q3 -5 -1 -6q-44 -33 -80 -52q-27 -14 -45 -20q-4 -2 -11.5 -4.5l-10.5 -3.5q-14 -4 -23 -6h-14l-9 4l-2 2l-2 2l-4 8l-2 6q-2 7 0 15q0 12 6 24q0 2 1 3t1 3q0 -1 -2 -3l-2 -1q-14 -13 -26 -18q-16 -13 -27 -17q-7 -4 -14 -6q-9 -4 -19 -2q-5 1 -10 6q-6 2 -8 8
q-4 9 -4 23q0 16 10 33q5 12 16 28q7 11 21 25l12 12q2 1 4 2.5t3 1.5l8 4q20 13 32 17q14 2 19 2q10 -1 22 -10l8 -9q0 -1 2 -4.5t3 -5.5l4 -12q0 2 2 2q3 5 14 18h2q10 12 21 0q12 -10 2 -20v-2h-2q-11 -11 -15 -16l-16 -17l-17 -16q-8 -14 -12 -19q-16 -20 -22 -39
q-4 -9 -2 -16l2 -2v-2h2l2 -2h10q12 0 23 4q4 2 11.5 4.5l10.5 3.5q7 3 41 21q42 24 80 51q5 2 7 -2zM94 438q16 14 25 23l8 12l2 4h2q1 15 0 25q0 2 -1 4.5t-2 4.5t-1 3q-1 4 -5 6t-7 2t-9 -2q-12 -4 -24 -12l-4 -4q-3 -3 -6 -4q-3 -3 -9 -11q-9 -9 -18 -22
q-10 -16 -14 -23q-2 -5 -6.5 -12.5t-6.5 -11.5q-2 -6 -2 -8v-4l2 -2q9 -3 13 -3l12 3q15 6 27 14t24 18z" />
    <glyph glyph-name="a" unicode="&#xe2;" horiz-adv-x="286" 
d="M300 461q3 -5 -1 -6q-44 -33 -80 -52q-27 -14 -45 -20q-4 -2 -11.5 -4.5l-10.5 -3.5q-14 -4 -23 -6h-14l-9 4l-2 2l-2 2l-4 8l-2 6q-2 7 0 15q0 12 6 24q0 2 1 3t1 3q0 -1 -2 -3l-2 -1q-14 -13 -26 -18q-16 -13 -27 -17q-7 -4 -14 -6q-9 -4 -19 -2q-5 1 -10 6q-6 2 -8 8
q-4 9 -4 23q0 16 10 33q5 12 16 28q7 11 21 25l12 12q2 1 4 2.5t3 1.5l8 4q20 13 32 17q14 2 19 2q10 -1 22 -10l8 -9q0 -1 2 -4.5t3 -5.5l4 -12q0 2 2 2q3 5 14 18h2q10 12 21 0q12 -10 2 -20v-2h-2q-11 -11 -15 -16l-16 -17l-17 -16q-8 -14 -12 -19q-16 -20 -22 -39
q-4 -9 -2 -16l2 -2v-2h2l2 -2h10q12 0 23 4q4 2 11.5 4.5l10.5 3.5q7 3 41 21q42 24 80 51q5 2 7 -2zM94 438q16 14 25 23l8 12l2 4h2q1 15 0 25q0 2 -1 4.5t-2 4.5t-1 3q-1 4 -5 6t-7 2t-9 -2q-12 -4 -24 -12l-4 -4q-3 -3 -6 -4q-3 -3 -9 -11q-9 -9 -18 -22
q-10 -16 -14 -23q-2 -5 -6.5 -12.5t-6.5 -11.5q-2 -6 -2 -8v-4l2 -2q9 -3 13 -3l12 3q15 6 27 14t24 18z" />
    <glyph glyph-name="a" unicode="&#xe1;" horiz-adv-x="286" 
d="M300 461q3 -5 -1 -6q-44 -33 -80 -52q-27 -14 -45 -20q-4 -2 -11.5 -4.5l-10.5 -3.5q-14 -4 -23 -6h-14l-9 4l-2 2l-2 2l-4 8l-2 6q-2 7 0 15q0 12 6 24q0 2 1 3t1 3q0 -1 -2 -3l-2 -1q-14 -13 -26 -18q-16 -13 -27 -17q-7 -4 -14 -6q-9 -4 -19 -2q-5 1 -10 6q-6 2 -8 8
q-4 9 -4 23q0 16 10 33q5 12 16 28q7 11 21 25l12 12q2 1 4 2.5t3 1.5l8 4q20 13 32 17q14 2 19 2q10 -1 22 -10l8 -9q0 -1 2 -4.5t3 -5.5l4 -12q0 2 2 2q3 5 14 18h2q10 12 21 0q12 -10 2 -20v-2h-2q-11 -11 -15 -16l-16 -17l-17 -16q-8 -14 -12 -19q-16 -20 -22 -39
q-4 -9 -2 -16l2 -2v-2h2l2 -2h10q12 0 23 4q4 2 11.5 4.5l10.5 3.5q7 3 41 21q42 24 80 51q5 2 7 -2zM94 438q16 14 25 23l8 12l2 4h2q1 15 0 25q0 2 -1 4.5t-2 4.5t-1 3q-1 4 -5 6t-7 2t-9 -2q-12 -4 -24 -12l-4 -4q-3 -3 -6 -4q-3 -3 -9 -11q-9 -9 -18 -22
q-10 -16 -14 -23q-2 -5 -6.5 -12.5t-6.5 -11.5q-2 -6 -2 -8v-4l2 -2q9 -3 13 -3l12 3q15 6 27 14t24 18z" />
    <glyph glyph-name="a" unicode="&#xe0;" horiz-adv-x="286" 
d="M300 461q3 -5 -1 -6q-44 -33 -80 -52q-27 -14 -45 -20q-4 -2 -11.5 -4.5l-10.5 -3.5q-14 -4 -23 -6h-14l-9 4l-2 2l-2 2l-4 8l-2 6q-2 7 0 15q0 12 6 24q0 2 1 3t1 3q0 -1 -2 -3l-2 -1q-14 -13 -26 -18q-16 -13 -27 -17q-7 -4 -14 -6q-9 -4 -19 -2q-5 1 -10 6q-6 2 -8 8
q-4 9 -4 23q0 16 10 33q5 12 16 28q7 11 21 25l12 12q2 1 4 2.5t3 1.5l8 4q20 13 32 17q14 2 19 2q10 -1 22 -10l8 -9q0 -1 2 -4.5t3 -5.5l4 -12q0 2 2 2q3 5 14 18h2q10 12 21 0q12 -10 2 -20v-2h-2q-11 -11 -15 -16l-16 -17l-17 -16q-8 -14 -12 -19q-16 -20 -22 -39
q-4 -9 -2 -16l2 -2v-2h2l2 -2h10q12 0 23 4q4 2 11.5 4.5l10.5 3.5q7 3 41 21q42 24 80 51q5 2 7 -2zM94 438q16 14 25 23l8 12l2 4h2q1 15 0 25q0 2 -1 4.5t-2 4.5t-1 3q-1 4 -5 6t-7 2t-9 -2q-12 -4 -24 -12l-4 -4q-3 -3 -6 -4q-3 -3 -9 -11q-9 -9 -18 -22
q-10 -16 -14 -23q-2 -5 -6.5 -12.5t-6.5 -11.5q-2 -6 -2 -8v-4l2 -2q9 -3 13 -3l12 3q15 6 27 14t24 18z" />
    <glyph glyph-name="b" unicode="b" horiz-adv-x="233" 
d="M590 825q0 -2 2 -4q0 -2 -2 -10q-2 -9 -6 -16q-8 -11 -23 -23q-11 -11 -24 -20q-15 -10 -52 -31q-2 -1 -55 -29q-14 -7 -54 -25q-30 -13 -57 -24q-5 -2 -13 -5t-20.5 -8t-21.5 -9q-16 -8 -57 -23q-15 -6 -44 -16.5t-38 -14.5l-21 -20q-18 -17 -41 -41q-8 -9 -38 -45
l-15 -25q-7 -17 -8 -26q-4 -14 2 -25q4 -12 16 -16q11 -2 25 4q6 1 12 6q4 1 11 8l20 21q4 4 12 14q-9 0 -16 4q-4 0 -6 2q-5 1 -8 4l-8 7q-4 4 -5 7q-4 6 -2 19q0 9 6 16q6 8 11 13q10 10 27 17q18 7 30 9h8h10q7 -2 10 -6q4 -6 5 -10q2 -6 0 -19q-1 -5 -6 -16
q-6 -17 -19 -37q23 4 51 12q33 13 56 25q4 1 7 -3q4 -5 -3 -7q-26 -14 -55 -25q-35 -13 -62 -14h-2l-4 -4q-24 -27 -45 -43q-10 -8 -14 -11q-6 -4 -15 -6q-19 -6 -35 -2q-9 1 -17 8q-4 3 -11 15q0 1 -1.5 7.5t-2.5 10.5v17q5 31 20 61q16 30 33 53q15 19 43 47q13 13 45 41
q7 6 14.5 13t17 15t15.5 13q25 18 49 37q57 40 103 66q57 34 108 57q30 15 60 23q19 7 30 8q24 2 33 2q8 0 16 -2q7 -2 11 -6t6 -9zM88 436q1 0 6 -1.5t8 -2.5h7l16 21q4 7 9 15l5 9q5 6 6 12q2 10 2 13t-1 4q-2 2 -3 2q-5 2 -12 0q-4 0 -14 -2q-7 -2 -13 -6q-14 -5 -24 -15
q-12 -11 -12 -22q-2 -2 -1 -5l2 -6l3 -6l4 -4q3 -3 6 -4zM575 813v6v3q0 1 -2 1q0 1 -2 3q-1 1 -4 1q-5 1 -12 0q-11 -1 -27 -6q-10 -4 -26 -12q-33 -14 -53 -25q-41 -21 -54 -28q-20 -10 -51 -29q-46 -27 -100 -68q-44 -30 -49 -34q-15 -11 -45 -37q-2 -2 -4 -2q-1 0 -1 -2
q7 3 60 22q16 4 57 21q7 3 16 6.5t20.5 8t18.5 7.5q10 5 29 13t27 12q34 14 55 26q38 19 53 29q30 17 49 31q17 12 25 20q11 10 16 23q4 5 4 10z" />
    <glyph glyph-name="c" unicode="c" horiz-adv-x="212" 
d="M226 468q3 -5 -1 -9q-29 -16 -55 -27q-24 -12 -29 -14q-4 -2 -13.5 -5t-14.5 -5q-23 -9 -29 -11q-4 -1 -14.5 -3.5t-16.5 -4.5q-22 -2 -33 -2h-8q-2 0 -10 2q-5 1 -10 6q-4 4 -6 11q-2 8 -2 12t2 10q2 10 6 18q6 16 16 27q5 7 23 25q4 3 12 10t12 10q2 1 7.5 3.5t7.5 4.5
q10 8 14 9q12 7 18 8h13h4q2 -2 4 -2l2 -2l2 -2q2 0 2 -2q5 -5 6 -12t0 -13q-1 -5 -6 -10q-1 -4 -6 -6q-6 -8 -12 -13l-8 -4q-1 0 -3 -1.5t-4 -2.5q-7 -2 -8 4q-2 5 2 6q14 14 19 23q1 1 3 4q1 1 1 4q0 2 -2 2q-3 0 -5 -2l-8 -4q-11 -6 -22 -16q-14 -12 -41 -41
q-10 -14 -17 -23q-7 -7 -8 -10q0 -2 -2 -4v-3v-3l2 -2q1 0 3 -1t3 -1l7 -3q5 0 14.5 1.5t13.5 1.5q14 0 29 4l29 8q4 2 13.5 5t14.5 5q11 5 29 12q42 22 53 29q4 4 7 -1z" />
    <glyph glyph-name="c" unicode="&#xe7;" horiz-adv-x="212" 
d="M226 468q3 -5 -1 -9q-29 -16 -55 -27q-24 -12 -29 -14q-4 -2 -13.5 -5t-14.5 -5q-23 -9 -29 -11q-4 -1 -14.5 -3.5t-16.5 -4.5q-22 -2 -33 -2h-8q-2 0 -10 2q-5 1 -10 6q-4 4 -6 11q-2 8 -2 12t2 10q2 10 6 18q6 16 16 27q5 7 23 25q4 3 12 10t12 10q2 1 7.5 3.5t7.5 4.5
q10 8 14 9q12 7 18 8h13h4q2 -2 4 -2l2 -2l2 -2q2 0 2 -2q5 -5 6 -12t0 -13q-1 -5 -6 -10q-1 -4 -6 -6q-6 -8 -12 -13l-8 -4q-1 0 -3 -1.5t-4 -2.5q-7 -2 -8 4q-2 5 2 6q14 14 19 23q1 1 3 4q1 1 1 4q0 2 -2 2q-3 0 -5 -2l-8 -4q-11 -6 -22 -16q-14 -12 -41 -41
q-10 -14 -17 -23q-7 -7 -8 -10q0 -2 -2 -4v-3v-3l2 -2q1 0 3 -1t3 -1l7 -3q5 0 14.5 1.5t13.5 1.5q14 0 29 4l29 8q4 2 13.5 5t14.5 5q11 5 29 12q42 22 53 29q4 4 7 -1z" />
    <glyph glyph-name="d" unicode="d" horiz-adv-x="370" 
d="M500 797q2 -8 0 -19q-1 -9 -13 -26q-8 -16 -16 -25q-6 -8 -18 -22q-22 -24 -39 -41q-30 -29 -86 -74q-89 -73 -168 -121l-13 -25q-7 -14 -8 -22q-4 -13 -2 -23q1 -5 5 -9q3 -4 8 -5q14 -2 24 -2q16 0 27 4q11 1 28 6q10 3 52 21q44 17 100 49q6 1 9 -3q4 -5 -3 -7
l-25 -13l-26 -14q-18 -7 -51 -23q-29 -12 -54 -20q-35 -13 -55 -14q-19 -5 -31 0q-9 1 -16 8q-8 6 -12 16q-2 10 -2 17q0 6 2 16q1 9 6 20q-11 -7 -29 -16q-8 -3 -26 -12q-24 -9 -27 -10q-12 -5 -14 -5q-14 -2 -19 -2l-9 6q-6 4 -7 11q-2 10 -2 18q1 14 12 31q6 16 16 27
q18 19 48 38q2 1 13 7q7 5 15 6q3 1 8.5 2.5t6.5 1.5q10 2 16 2h18q11 -2 19 -8q4 -4 6 -11q13 18 16 23q28 35 35 45q1 2 15.5 18t21.5 25q27 27 40 41q21 23 40 39q28 26 43 39q11 10 22 16q21 15 25 17q5 3 14 7.5l13 6.5q3 1 8 2.5t6 1.5q8 2 10 2t10 -2q4 -1 9 -8
q2 -2 2 -4t2 -2v-2zM86 444q31 19 47 27q5 11 19 35q2 2 2 3t2 1q0 4 -2 10q0 2 -5 6h-8q-2 0 -10 -2q-10 -6 -22 -12q-16 -8 -22 -12q-7 -4 -21 -17q-13 -8 -21 -16q-7 -5 -18 -16q-10 -16 -13 -21q-2 -6 -2 -8v-2h2q2 -2 9 0q4 0 14 2q23 8 49 22zM485 782v11l-2 2
q0 2 -1 2h-1q-4 1 -10 0q-4 -1 -10 -6q-10 -4 -23 -14q-3 -3 -10.5 -8.5t-11.5 -8.5l-21 -17q-21 -18 -41 -38q-18 -17 -39 -39q-27 -27 -39 -41q-39 -45 -69 -86q-20 -25 -29 -39q40 24 51 32q48 33 90 68q58 45 87 72q22 20 38 41q21 24 33 45q7 13 8 24z" />
    <glyph glyph-name="e" unicode="e" horiz-adv-x="235" 
d="M251 467q3 -4 -3 -8l-66 -37q-10 -4 -35 -16q-5 -2 -16.5 -7.5t-17.5 -7.5q-8 -2 -21.5 -5.5t-15.5 -4.5q-21 -6 -41 -4q-12 0 -21 4q-13 7 -20 16q-4 4 -6 11l-4 12q-2 14 2 24q6 14 10 21q5 9 14 16q16 17 31 27q29 13 37 16q25 7 41 8q4 0 10 -2h4h2q5 -2 6 -6
q0 -3 1 -4t1 -3v-3v-4q-1 -5 -6 -10q-8 -11 -14 -15l-17 -8q-18 -8 -36 -12t-35 -6q-15 -15 -19 -25q-7 -15 -2 -24l1 -1l1 -1l1 -1l1 -1l5 -5q6 -4 14 -6q15 -1 35 0l37 8q6 2 17.5 7.5t16.5 7.5q15 5 33 14q31 15 66 37q7 2 9 -2zM61 481q-8 -6 -10 -8q31 5 51 14
q8 1 15 9q8 5 12 10l1 1l1 1v2v2h2v2v2v2h-2h-4q-3 0 -6 -1q-1 -1 -4 -2t-4 -1q-3 0 -9 -2q-14 -8 -16 -10l-10 -8q-10 -7 -17 -13z" />
    <glyph glyph-name="e" unicode="&#xeb;" horiz-adv-x="235" 
d="M251 467q3 -4 -3 -8l-66 -37q-10 -4 -35 -16q-5 -2 -16.5 -7.5t-17.5 -7.5q-8 -2 -21.5 -5.5t-15.5 -4.5q-21 -6 -41 -4q-12 0 -21 4q-13 7 -20 16q-4 4 -6 11l-4 12q-2 14 2 24q6 14 10 21q5 9 14 16q16 17 31 27q29 13 37 16q25 7 41 8q4 0 10 -2h4h2q5 -2 6 -6
q0 -3 1 -4t1 -3v-3v-4q-1 -5 -6 -10q-8 -11 -14 -15l-17 -8q-18 -8 -36 -12t-35 -6q-15 -15 -19 -25q-7 -15 -2 -24l1 -1l1 -1l1 -1l1 -1l5 -5q6 -4 14 -6q15 -1 35 0l37 8q6 2 17.5 7.5t16.5 7.5q15 5 33 14q31 15 66 37q7 2 9 -2zM61 481q-8 -6 -10 -8q31 5 51 14
q8 1 15 9q8 5 12 10l1 1l1 1v2v2h2v2v2v2h-2h-4q-3 0 -6 -1q-1 -1 -4 -2t-4 -1q-3 0 -9 -2q-14 -8 -16 -10l-10 -8q-10 -7 -17 -13z" />
    <glyph glyph-name="e" unicode="&#xea;" horiz-adv-x="235" 
d="M251 467q3 -4 -3 -8l-66 -37q-10 -4 -35 -16q-5 -2 -16.5 -7.5t-17.5 -7.5q-8 -2 -21.5 -5.5t-15.5 -4.5q-21 -6 -41 -4q-12 0 -21 4q-13 7 -20 16q-4 4 -6 11l-4 12q-2 14 2 24q6 14 10 21q5 9 14 16q16 17 31 27q29 13 37 16q25 7 41 8q4 0 10 -2h4h2q5 -2 6 -6
q0 -3 1 -4t1 -3v-3v-4q-1 -5 -6 -10q-8 -11 -14 -15l-17 -8q-18 -8 -36 -12t-35 -6q-15 -15 -19 -25q-7 -15 -2 -24l1 -1l1 -1l1 -1l1 -1l5 -5q6 -4 14 -6q15 -1 35 0l37 8q6 2 17.5 7.5t16.5 7.5q15 5 33 14q31 15 66 37q7 2 9 -2zM61 481q-8 -6 -10 -8q31 5 51 14
q8 1 15 9q8 5 12 10l1 1l1 1v2v2h2v2v2v2h-2h-4q-3 0 -6 -1q-1 -1 -4 -2t-4 -1q-3 0 -9 -2q-14 -8 -16 -10l-10 -8q-10 -7 -17 -13z" />
    <glyph glyph-name="e" unicode="&#xe9;" horiz-adv-x="235" 
d="M251 467q3 -4 -3 -8l-66 -37q-10 -4 -35 -16q-5 -2 -16.5 -7.5t-17.5 -7.5q-8 -2 -21.5 -5.5t-15.5 -4.5q-21 -6 -41 -4q-12 0 -21 4q-13 7 -20 16q-4 4 -6 11l-4 12q-2 14 2 24q6 14 10 21q5 9 14 16q16 17 31 27q29 13 37 16q25 7 41 8q4 0 10 -2h4h2q5 -2 6 -6
q0 -3 1 -4t1 -3v-3v-4q-1 -5 -6 -10q-8 -11 -14 -15l-17 -8q-18 -8 -36 -12t-35 -6q-15 -15 -19 -25q-7 -15 -2 -24l1 -1l1 -1l1 -1l1 -1l5 -5q6 -4 14 -6q15 -1 35 0l37 8q6 2 17.5 7.5t16.5 7.5q15 5 33 14q31 15 66 37q7 2 9 -2zM61 481q-8 -6 -10 -8q31 5 51 14
q8 1 15 9q8 5 12 10l1 1l1 1v2v2h2v2v2v2h-2h-4q-3 0 -6 -1q-1 -1 -4 -2t-4 -1q-3 0 -9 -2q-14 -8 -16 -10l-10 -8q-10 -7 -17 -13z" />
    <glyph glyph-name="e" unicode="&#xe8;" horiz-adv-x="235" 
d="M251 467q3 -4 -3 -8l-66 -37q-10 -4 -35 -16q-5 -2 -16.5 -7.5t-17.5 -7.5q-8 -2 -21.5 -5.5t-15.5 -4.5q-21 -6 -41 -4q-12 0 -21 4q-13 7 -20 16q-4 4 -6 11l-4 12q-2 14 2 24q6 14 10 21q5 9 14 16q16 17 31 27q29 13 37 16q25 7 41 8q4 0 10 -2h4h2q5 -2 6 -6
q0 -3 1 -4t1 -3v-3v-4q-1 -5 -6 -10q-8 -11 -14 -15l-17 -8q-18 -8 -36 -12t-35 -6q-15 -15 -19 -25q-7 -15 -2 -24l1 -1l1 -1l1 -1l1 -1l5 -5q6 -4 14 -6q15 -1 35 0l37 8q6 2 17.5 7.5t16.5 7.5q15 5 33 14q31 15 66 37q7 2 9 -2zM61 481q-8 -6 -10 -8q31 5 51 14
q8 1 15 9q8 5 12 10l1 1l1 1v2v2h2v2v2v2h-2h-4q-3 0 -6 -1q-1 -1 -4 -2t-4 -1q-3 0 -9 -2q-14 -8 -16 -10l-10 -8q-10 -7 -17 -13z" />
    <glyph glyph-name="f" unicode="f" horiz-adv-x="321" 
d="M332 471q6 2 8 -3q2 -6 -4 -7q-34 -12 -96 -31q-51 -16 -97 -29q-10 -3 -43 -11.5t-53 -14.5q-44 -13 -94 -25q-2 -2 -2 -4l-4 -8q-1 -6 -6 -12q-2 -3 -5.5 -8t-6.5 -10t-5 -9q-17 -31 -31 -51q-33 -51 -67 -96q-32 -45 -72 -97q-30 -32 -41 -43q-14 -16 -20 -22
q-17 -12 -27 -17q-8 -7 -14 -8h-10q-5 0 -11 2q-3 1 -8 6t-6 9l-2 4t-1 4q-1 3 -1 10q0 2 2 16q0 10 4 17q3 9 12 28q3 8 15 27q7 15 16 27q10 15 37 47q66 80 164 174q24 26 43 41q25 25 43 41q21 18 45 39q27 23 45 39q48 38 94 73l49 35q21 15 25 17q18 7 26 14l29 12
q16 8 29 12q3 1 7.5 3t6.5 2h10h11q4 -1 10 -9v-2l2 -2q2 -2 2 -4q2 -6 2 -9t-2 -9q-2 -9 -8 -17t-10 -12q-2 -1 -10.5 -7.5t-14.5 -10.5q-18 -13 -51 -31q-23 -14 -53 -27q-16 -8 -54 -24q-46 -20 -71 -31q-2 -2 -5 -2q-79 -67 -174 -158q-29 -29 -43 -41l-20 -22
q-16 -14 -21 -21q-34 -35 -79 -86q-16 -16 -37 -45q-26 -31 -35 -45q-10 -14 -14 -24q-9 -18 -9 -25v-6l2 -6q1 -4 6 -6q3 -2 9 0q7 0 12 4q14 8 23 16q8 6 22 18q11 11 39 43q27 29 74 95q31 41 67 96l31 51q2 4 14 25q6 10 7 14q3 3 4 6q0 4 2 6q0 3 4 4q55 13 96 25
q6 2 98 27q14 4 34.5 10t36 10t26.5 8q59 18 94 31zM156 541q-29 -22 -64 -52q33 16 43 19q32 13 53 24q42 21 54 29q30 17 49 31q16 14 20 18q7 6 8 11q6 8 7 11q2 4 0 9q-2 2 -2 4q-2 2 -5 2l-10 -2q-7 0 -12 -4q-17 -7 -49 -31q-6 -4 -13.5 -9.5t-9.5 -6.5l-24 -19
q-36 -26 -45 -34z" />
    <glyph glyph-name="g" unicode="g" horiz-adv-x="305" 
d="M321 468q3 -4 -4 -9q-19 -12 -59 -31q-18 -9 -63 -29q-59 -27 -127 -53l-9 -4l-14 -14q-8 -7 -41.5 -40t-56.5 -55q-17 -17 -52 -49t-49 -45q-43 -40 -104 -90q-66 -56 -109 -86q-7 -4 -28 -18q-23 -16 -29 -19l-8 -4l-8 -4l-9 -4l-8 -2q-21 -9 -35 -10q-18 -6 -34 -6
q-22 0 -37 4q-19 6 -33 16q-12 15 -18 33q-5 17 0 35q1 16 12 34q5 11 20 29q14 16 23 25q19 18 57 41q7 4 60 32q76 37 125 58q43 18 127 51q36 14 56 22q5 2 65 27q13 6 31.5 13.5t23.5 9.5q8 6 16 14l16 16q75 73 111 107q-12 -5 -16 -8q-35 -20 -64 -33q-26 -9 -35 -12
q-4 0 -10 -2q-6 0 -14 2l-8 4l-1 1l-1 1q0 1 -3 4q-2 2 -2 6v8l2 6q1 5 7 19q8 14 10 16q6 14 20 31q27 31 58 49q18 10 37 12q10 1 20 0q13 -2 21 -10l8 -8q2 -8 2 -10q2 -14 2 -21q0 -4 -2 -18q0 -2 -2 -4l8 4q0 3 4 4l43 43h2v2q12 11 25 -2q11 -12 0 -23l-2 -2
q-40 -41 -95 -98l-61 -62q63 27 108 48q53 23 62 28q37 18 61 31q4 4 8 -1zM106 465q26 13 37 20q6 17 4 33q0 9 -2 17q-1 5 -6 10q-6 2 -12 2q-5 0 -12 -4q-12 -5 -27 -15l-25 -20q-1 -1 -22 -25q-16 -16 -23 -24q-2 -2 -4.5 -7l-3.5 -7q-5 -8 -6 -13h6q12 2 33 6
q30 10 63 27zM-80 262q15 13 45 41q-106 -40 -151 -59q-18 -7 -44.5 -18t-46 -19t-34.5 -14q-54 -24 -125 -58q-37 -18 -62 -33q-30 -16 -53 -36q-7 -6 -24 -25q-13 -15 -19 -27q-3 -5 -7 -15t-5 -15q-2 -21 2 -33q5 -17 16 -27q12 -7 29 -12q8 -2 14 -2h17q7 1 17 3t15 5
q29 11 58 29q29 19 53 41q3 2 11.5 9.5t19.5 16t22 17.5q27 24 51 45q58 51 101 92q42 38 100 94z" />
    <glyph glyph-name="h" unicode="h" horiz-adv-x="327" 
d="M678 920q2 -6 2 -9q0 -9 -6 -16q-4 -7 -17 -20q-15 -15 -18 -17q-14 -13 -41 -33q-18 -14 -84 -55q-61 -38 -176 -100q-66 -38 -123 -68q-3 -3 -5 -4l-6 -4q-2 -1 -5 -4q-131 -105 -158 -127l-1 -2q-2 -2 -3 -2q3 3 5 4q4 2 5 2q14 9 43 27q32 19 47 26q6 2 15.5 5.5
t11.5 4.5l12 4q11 2 19 0h2h2h4q5 -1 10 -6l4 -4l2 -2q0 -2 2 -4v-4q2 -6 -1 -13q-1 -1 -3 -7.5t-4 -10.5q-2 -2 -8 -10q-15 -17 -39 -39q-7 -8 -19 -16q-7 -7 -16 -19l-8 -8q0 -2 -1 -3t-1 1v-2l2 -2q6 -2 10 -2q12 -2 25 2q8 1 24 6q21 9 23 10q5 2 12.5 7t9.5 6
q24 12 45 24q34 22 84 62h2q4 4 8 -1q4 -6 -1 -8v-2q-9 -6 -89 -57q-56 -34 -90 -51q-3 -1 -26 -8q-16 -6 -27 -6q-8 -2 -16 0l-8 4q-8 6 -9 10q-2 8 -2 12q2 6 2 8q1 2 3 5t3.5 5.5t2.5 4.5q6 12 16 22q12 15 18 21l17 16l18 19q2 2 8 10h2q0 2 -1 3t-5 1h-2h-12
q-11 -2 -23 -6q-15 -5 -47 -21q-21 -7 -45 -24q-36 -20 -88 -58q-5 -4 -14 -10t-15.5 -11t-11.5 -9q-12 -11 -37 -33l-2 -2q-8 -6 -16 2q-6 8 2 16q7 7 37 35q10 8 37 35q20 17 75 65q65 57 156 131q34 27 160 125q29 22 82 62q45 33 84 57q27 20 43 29q15 8 45 22
q16 8 24 11q17 7 25 8q10 2 14 2h2h2h5q6 0 10 -4q4 -1 6 -8zM664 901q2 8 2 10t-2 2q0 2 -1 2h-4h-2h-2q-1 0 -4.5 -1.5t-5.5 -2.5l-20 -10q-7 -4 -23 -12q-6 -7 -41 -29l-41 -29q-66 -43 -162 -118q-34 -24 -106 -80q24 12 39 18q7 4 15 8.5t16 9.5t12 7q95 50 176 102
q48 30 82 56q28 21 39 32q8 7 18 17q11 11 15 18z" />
    <glyph glyph-name="i" unicode="i" horiz-adv-x="256" 
d="M271 466q4 -5 -3 -7l-24 -10l-27 -11q-48 -18 -51 -20q-62 -22 -107 -33q-15 -4 -26 -4q-24 -2 -31 -2q-9 0 -16 4q-4 1 -9 6t-6 10v13q2 6 2 8q3 4 9 14q7 12 18 23q6 8 18 22q5 5 21 19q14 12 22 18q12 12 24 -1q12 -14 -3 -26q-14 -8 -23 -16l-20 -16q-11 -7 -21 -17
q-11 -11 -16 -20q-5 -5 -7 -8q-3 -4 -3 -9l1 -1q1 -1 3 -1q3 -3 8 -4q16 -2 27 -2q1 0 10 1.5t16 2.5q16 3 54 13q28 7 51 16q48 16 102 41q4 1 7 -3zM160 574q-21 -21 -34 -10q-13 12 6 34t34 10q16 -12 -6 -34z" />
    <glyph glyph-name="i" unicode="&#xef;" horiz-adv-x="256" 
d="M271 466q4 -5 -3 -7l-24 -10l-27 -11q-48 -18 -51 -20q-62 -22 -107 -33q-15 -4 -26 -4q-24 -2 -31 -2q-9 0 -16 4q-4 1 -9 6t-6 10v13q2 6 2 8q3 4 9 14q7 12 18 23q6 8 18 22q5 5 21 19q14 12 22 18q12 12 24 -1q12 -14 -3 -26q-14 -8 -23 -16l-20 -16q-11 -7 -21 -17
q-11 -11 -16 -20q-5 -5 -7 -8q-3 -4 -3 -9l1 -1q1 -1 3 -1q3 -3 8 -4q16 -2 27 -2q1 0 10 1.5t16 2.5q16 3 54 13q28 7 51 16q48 16 102 41q4 1 7 -3zM160 574q-21 -21 -34 -10q-13 12 6 34t34 10q16 -12 -6 -34z" />
    <glyph glyph-name="i" unicode="&#xee;" horiz-adv-x="256" 
d="M271 466q4 -5 -3 -7l-24 -10l-27 -11q-48 -18 -51 -20q-62 -22 -107 -33q-15 -4 -26 -4q-24 -2 -31 -2q-9 0 -16 4q-4 1 -9 6t-6 10v13q2 6 2 8q3 4 9 14q7 12 18 23q6 8 18 22q5 5 21 19q14 12 22 18q12 12 24 -1q12 -14 -3 -26q-14 -8 -23 -16l-20 -16q-11 -7 -21 -17
q-11 -11 -16 -20q-5 -5 -7 -8q-3 -4 -3 -9l1 -1q1 -1 3 -1q3 -3 8 -4q16 -2 27 -2q1 0 10 1.5t16 2.5q16 3 54 13q28 7 51 16q48 16 102 41q4 1 7 -3zM160 574q-21 -21 -34 -10q-13 12 6 34t34 10q16 -12 -6 -34z" />
    <glyph glyph-name="i" unicode="&#xed;" horiz-adv-x="256" 
d="M271 466q4 -5 -3 -7l-24 -10l-27 -11q-48 -18 -51 -20q-62 -22 -107 -33q-15 -4 -26 -4q-24 -2 -31 -2q-9 0 -16 4q-4 1 -9 6t-6 10v13q2 6 2 8q3 4 9 14q7 12 18 23q6 8 18 22q5 5 21 19q14 12 22 18q12 12 24 -1q12 -14 -3 -26q-14 -8 -23 -16l-20 -16q-11 -7 -21 -17
q-11 -11 -16 -20q-5 -5 -7 -8q-3 -4 -3 -9l1 -1q1 -1 3 -1q3 -3 8 -4q16 -2 27 -2q1 0 10 1.5t16 2.5q16 3 54 13q28 7 51 16q48 16 102 41q4 1 7 -3zM160 574q-21 -21 -34 -10q-13 12 6 34t34 10q16 -12 -6 -34z" />
    <glyph glyph-name="i" unicode="&#xec;" horiz-adv-x="256" 
d="M271 466q4 -5 -3 -7l-24 -10l-27 -11q-48 -18 -51 -20q-62 -22 -107 -33q-15 -4 -26 -4q-24 -2 -31 -2q-9 0 -16 4q-4 1 -9 6t-6 10v13q2 6 2 8q3 4 9 14q7 12 18 23q6 8 18 22q5 5 21 19q14 12 22 18q12 12 24 -1q12 -14 -3 -26q-14 -8 -23 -16l-20 -16q-11 -7 -21 -17
q-11 -11 -16 -20q-5 -5 -7 -8q-3 -4 -3 -9l1 -1q1 -1 3 -1q3 -3 8 -4q16 -2 27 -2q1 0 10 1.5t16 2.5q16 3 54 13q28 7 51 16q48 16 102 41q4 1 7 -3zM160 574q-21 -21 -34 -10q-13 12 6 34t34 10q16 -12 -6 -34z" />
    <glyph glyph-name="j" unicode="j" horiz-adv-x="172" 
d="M186 469q4 -4 0 -8q-7 -7 -16 -12q-7 -5 -16 -9q-15 -9 -31 -16q-23 -12 -66 -31q-14 -7 -131 -59q-6 -4 -18 -9q-11 -4 -19 -10l-18 -14q-101 -93 -215 -190l-27 -23l-55 -47l-29 -23q-4 -3 -9.5 -7t-8 -6.5t-5.5 -5t-5 -3.5q-3 -3 -29 -21l-14 -12q-3 -2 -8 -5.5
t-7 -4.5l-28 -21l-15 -10l-16 -10l-14 -10l-9 -4l-6 -4q-43 -26 -65 -35q-24 -8 -35 -11q-21 -6 -39 -4q-8 1 -18 7q-12 5 -17 14l-3 9q-1 3 -1 9q0 7 2 21q5 15 17 33q4 8 20 30q25 26 53 49q27 22 29 23q4 2 8.5 5t11.5 6.5t11 6.5l61 37q52 28 129 66q48 23 129 61
q17 8 58.5 27.5t66.5 30.5l4 2l53 49l211 190q14 12 26 0q11 -12 -1 -24q-98 -94 -176 -164q14 7 18 8q98 46 129 61q12 5 34 16t32 15q19 12 31 17q9 5 14 10q9 5 14 10q4 4 8 0zM-260 233l33 31q-19 -9 -107 -49q-29 -14 -129 -61q-75 -38 -127 -68q-25 -13 -61 -35
q-15 -10 -29 -20l-29 -21q-24 -20 -51 -49q-13 -18 -20 -29q-12 -18 -13 -32q-4 -7 -2 -15v-8q0 -2 2 -8q7 -12 27 -12q17 0 33 4q15 5 33 12q32 17 59 37l6 6l8 4l15 12l14 11l2 2q3 2 5 4l5 4l29 22q8 11 14 15q11 7 13 10q14 11 26 23l27 22l28 25l27 22l27 23l26 24
q62 53 109 94zM164 586q-21 -23 -34 -11q-14 12 6 35t34 11q15 -12 -6 -35z" />
    <glyph glyph-name="k" unicode="k" horiz-adv-x="299" 
d="M672 864q2 -8 0 -16q-2 -7 -6 -14q-5 -10 -17 -23q-13 -13 -39 -31q-4 -3 -41 -26q-28 -16 -43 -23q-62 -34 -178 -82q-21 -8 -53.5 -20.5t-38.5 -14.5l-45 -18l-21 -8q-9 -7 -12 -8q-86 -71 -147 -127q-10 -8 -31 -29q1 1 4 3q2 2 2 3q12 9 66 47q31 24 32 25
q19 13 37 20q12 7 21 8h14q6 0 14 -2q3 0 5 -2h2l2 -2q2 0 4 -2q10 -8 12 -10q3 -5 5 -17q1 -6 -1 -20l-8 -12q-2 -2 -10 -8q-9 -8 -19 -13q-15 -10 -39 -16q-32 -9 -82 -14q-30 -2 -41 -2l-10 1q-10 1 -10 -1q-2 0 -4 -2v-1v-4v-12q0 -15 4 -26q5 -13 13 -20q9 -7 24 -9
q12 -2 29 0q11 1 28 6q25 7 56 25q57 32 102 65q49 36 96 76q6 4 9 -1q4 -5 -1 -7q-58 -50 -96 -76q-14 -10 -51 -35q-34 -22 -53 -31q-35 -18 -58 -26q-16 -6 -30 -10q-20 -5 -33 -5q-13 1 -33 11q-19 12 -25 26q-5 9 -10 29l-14 -14q-20 -17 -29 -27l-14 -14
q-1 -2 -3.5 -5t-4.5 -5.5t-4 -4.5q-8 -9 -17 0q-9 7 -2 15q44 61 131 147q73 69 148 131q9 7 34.5 28.5t40.5 32.5q37 28 79 58q27 19 81 55q43 28 84 51q49 27 90 43q29 11 49 15q18 2 29 0t19 -8l1 -1l2 -4t2 -3q3 -5 3 -9zM80 467q-28 -17 -66 -45h4h2q21 0 40 3
q20 3 38 9q7 2 35 15q21 7 33 18q3 2 8 5.5t6 4.5q1 3 4 6q2 2 2 4v2v3q-2 0 -4 2l-2 2l-2 2q-2 2 -5 2h-7q-2 0 -16 -2q-11 -3 -35 -13q-19 -8 -35 -18zM647 844q4 6 2 16q0 1 -2 3q-1 1 -6 1q-8 2 -18 -2q-22 -6 -43 -16q-4 -2 -18.5 -9.5t-24.5 -11.5q-25 -13 -41 -24
q-34 -19 -82 -51l-80 -54l-78 -57q-10 -8 -39 -29q65 22 127 49q30 14 45 19q2 1 18.5 8.5t24.5 11.5l45 21q15 8 43 22q45 26 80 54q27 20 35 30q4 5 12 19z" />
    <glyph glyph-name="l" unicode="l" horiz-adv-x="278" 
d="M573 866v-8v-2v-4l-2 -6l-2 -2l-2 -4q-9 -12 -14 -17q-9 -9 -16 -14q-9 -8 -33 -25q-21 -15 -72 -43q-54 -33 -145 -79q-51 -24 -74 -35q-24 -11 -55 -27q-2 0 -2 -2q-80 -82 -123 -131q-39 -46 -60 -76q-5 -6 -6 -10q-5 -5 -6 -10q-4 -5 -12 -19q-7 -13 -8 -20
q-2 -12 2 -17q1 -1 7 -5q4 -3 9 -3q8 -2 23 0q13 1 45 10q39 12 90 39q87 44 162 107q5 4 10 -1q4 -4 -2 -9q-25 -20 -39 -29q-1 0 -15.5 -11t-25.5 -18q-28 -16 -86 -49q-47 -24 -90 -39q-23 -9 -47 -14q-15 -1 -27 0q-4 0 -14 2q-2 1 -7.5 3.5t-7.5 4.5v2l-2 2l-2 4l-2 8
l-2 5v2v8q0 11 6 26q4 12 11 25q1 6 6 12q4 6 6 11q11 20 28 41q15 20 31 38q41 51 107 115q27 29 41 41q134 118 272 193q36 18 76 34q17 6 20 7q13 4 23 4q6 0 14 -2q1 -1 6 -5q5 -5 6 -8zM557 858v2v2h-2q-2 2 -6 2q-1 0 -8 -1.5t-11 -2.5q-16 -7 -18 -8q-29 -11 -72 -37
q-60 -36 -135 -94q-8 -6 -19 -14.5t-14 -10.5l-30 -26q-15 -10 -33 -27q-5 -2 -21 -16l21 8l74 37q12 6 36.5 19t35.5 19q16 8 43.5 23.5t29.5 16.5q43 25 68 45q12 8 32 24l15 15q6 6 12 14v2l2 2v3v1v2z" />
    <glyph glyph-name="m" unicode="m" horiz-adv-x="403" 
d="M422 468q5 -5 0 -7l-2 -2l-6 -4q-8 -6 -11 -8t-8 -7l-10 -6q-19 -13 -35 -20q-24 -13 -41 -17q-11 -5 -20 -6h-23q-24 1 -43 19q-16 15 -26 36l-6 11l-5 10q0 2 -2 10q-1 2 -2.5 5.5t-1.5 4.5q-4 13 -4 21l-2 4q-2 2 -3 1l-3 -3v-2q-2 -2 -10 -19q-2 -9 -6 -20
q-2 -5 -5 -11.5t-4 -8.5l-2 -3q-1 -4 -4 -4h-2v-2h-2q-5 -2 -6 0q-4 0 -6 2v2h-2v2q-2 0 -2 5q-2 0 -2 2l-2 6q-4 18 -4 22l-2 12t-1 7v6q-2 8 -18 2l-16 -8l-12 -10q-12 -10 -19 -17q-12 -15 -27 -33q-2 0 -2 -2l-10.5 -14t-11.5 -16q-7 -12 -16 -4t-3 18q20 25 35 53
q2 3 5.5 8t6.5 10t5 9l14 28q5 12 14 8q11 -5 6 -16q-2 -6 -7 -16l-7 -14q-2 0 -2 -3q0 -2 -2 -2q4 3 10 9q15 12 17 14q10 8 18 12l2 1l2 1l3 1l3 1l6 2h4h5h2h4l4 -4l4 -8q5 -5 6 -10q3 -17 4 -23v-14q4 1 4 6q1 3 4.5 9.5t5.5 9.5q8 17 9 20q5 6 6 10v2h2q2 2 2 4
q5 5 8 5h2h4h2q1 0 4 -3l2 -2l2 -2l3 -2v-2q0 -1 1.5 -4.5t2.5 -5.5q0 -1 1 -3t2 -4.5t1 -4.5l2 -8q2 -14 6 -21q1 -11 6 -18q6 -15 8 -17q4 -7 13 -16q12 -15 32 -19q15 -1 39 5q9 2 19 6q15 6 18 8q30 15 70 47q4 3 8 -1z" />
    <glyph glyph-name="n" unicode="n" horiz-adv-x="342" 
d="M361 469q3 -4 -1 -8q-42 -29 -65 -43q-26 -15 -70 -37q-17 -9 -39 -14q-32 -9 -41 -9q-12 -2 -22 4q-13 5 -19 17q0 1 -1 3t-2 4.5t-1 4.5q-2 8 -2 10q-2 14 -2 23q-2 20 2 41q4 13 4 18v4q0 9 -16 2q-17 -6 -29 -14q-16 -7 -32 -22q-12 -7 -31 -25q-2 -2 -12 -10l-9 -8
q-29 -33 -34 -37q-7 -5 -10 0q-3 4 1 8q17 17 33 37q15 20 29 41q3 4 28 41q14 21 25 43q6 10 16 4q11 -6 5 -17q-11 -16 -29 -41l-7 -10.5t-7 -11.5q17 17 24 22q8 11 14 15q14 8 19 12q1 0 4.5 1.5t5.5 2.5q5 4 12 4h2q2 2 7 0q2 0 10 -2l2 -2q2 0 2 -2h2l1 -1q1 -1 1 -3
q1 -1 3 -5l1 -3q2 -8 2 -14v-13q0 -4 -2 -20l-6 -37q-2 -14 -2 -19v-14l2 -4v-2v-2q3 -3 6 -4q4 -6 14 -6h9h4h3h3h4l2 2h2l10 2q1 1 5 3l4 1l8 4q1 0 4.5 1.5t5.5 2.5l8 4q44 22 70 37q23 14 65 43q5 2 7 -2z" />
    <glyph glyph-name="n" unicode="&#xf1;" horiz-adv-x="342" 
d="M361 469q3 -4 -1 -8q-42 -29 -65 -43q-26 -15 -70 -37q-17 -9 -39 -14q-32 -9 -41 -9q-12 -2 -22 4q-13 5 -19 17q0 1 -1 3t-2 4.5t-1 4.5q-2 8 -2 10q-2 14 -2 23q-2 20 2 41q4 13 4 18v4q0 9 -16 2q-17 -6 -29 -14q-16 -7 -32 -22q-12 -7 -31 -25q-2 -2 -12 -10l-9 -8
q-29 -33 -34 -37q-7 -5 -10 0q-3 4 1 8q17 17 33 37q15 20 29 41q3 4 28 41q14 21 25 43q6 10 16 4q11 -6 5 -17q-11 -16 -29 -41l-7 -10.5t-7 -11.5q17 17 24 22q8 11 14 15q14 8 19 12q1 0 4.5 1.5t5.5 2.5q5 4 12 4h2q2 2 7 0q2 0 10 -2l2 -2q2 0 2 -2h2l1 -1q1 -1 1 -3
q1 -1 3 -5l1 -3q2 -8 2 -14v-13q0 -4 -2 -20l-6 -37q-2 -14 -2 -19v-14l2 -4v-2v-2q3 -3 6 -4q4 -6 14 -6h9h4h3h3h4l2 2h2l10 2q1 1 5 3l4 1l8 4q1 0 4.5 1.5t5.5 2.5l8 4q44 22 70 37q23 14 65 43q5 2 7 -2z" />
    <glyph glyph-name="o" unicode="o" horiz-adv-x="278" 
d="M295 468q2 -6 -4 -7q-28 -13 -58 -17q-32 -6 -61 -2q-14 0 -29 3q-6 1 -28 10q-20 5 -29 10l-12 6q2 -2 2 -6q0 -5 -2 -25q-4 -22 -15 -43q-6 -11 -13 -19l-15 -18q-14 -10 -21 -14q-10 -4 -24 -2l-13 4q-5 4 -10 12q-4 5 -4 15v12q1 10 8 23q5 13 10 22q11 19 29 37
q2 3 17 18q4 3 10 9q7 4 14 6h2q17 6 23 -10v-7q2 -2 6 -2l12 -8q9 -5 27 -10q14 -4 28 -7q21 -4 29 -5q33 -2 57 2q32 7 56 16q6 2 8 -3zM63 442q2 13 0 21v8q-2 -2 -4 -2h-4l-6 -2l-8 -4l-16 -12q-19 -17 -29 -31q-14 -20 -19 -37q-4 -9 -2 -16q2 -5 7 -7q3 -3 6 -4
q10 -2 18 0q11 4 19 13l14 14q5 12 10 18q9 18 14 41z" />
    <glyph glyph-name="o" unicode="&#xf8;" horiz-adv-x="278" 
d="M295 468q2 -6 -4 -7q-28 -13 -58 -17q-32 -6 -61 -2q-14 0 -29 3q-6 1 -28 10q-20 5 -29 10l-12 6q2 -2 2 -6q0 -5 -2 -25q-4 -22 -15 -43q-6 -11 -13 -19l-15 -18q-14 -10 -21 -14q-10 -4 -24 -2l-13 4q-5 4 -10 12q-4 5 -4 15v12q1 10 8 23q5 13 10 22q11 19 29 37
q2 3 17 18q4 3 10 9q7 4 14 6h2q17 6 23 -10v-7q2 -2 6 -2l12 -8q9 -5 27 -10q14 -4 28 -7q21 -4 29 -5q33 -2 57 2q32 7 56 16q6 2 8 -3zM63 442q2 13 0 21v8q-2 -2 -4 -2h-4l-6 -2l-8 -4l-16 -12q-19 -17 -29 -31q-14 -20 -19 -37q-4 -9 -2 -16q2 -5 7 -7q3 -3 6 -4
q10 -2 18 0q11 4 19 13l14 14q5 12 10 18q9 18 14 41z" />
    <glyph glyph-name="o" unicode="&#xf6;" horiz-adv-x="278" 
d="M295 468q2 -6 -4 -7q-28 -13 -58 -17q-32 -6 -61 -2q-14 0 -29 3q-6 1 -28 10q-20 5 -29 10l-12 6q2 -2 2 -6q0 -5 -2 -25q-4 -22 -15 -43q-6 -11 -13 -19l-15 -18q-14 -10 -21 -14q-10 -4 -24 -2l-13 4q-5 4 -10 12q-4 5 -4 15v12q1 10 8 23q5 13 10 22q11 19 29 37
q2 3 17 18q4 3 10 9q7 4 14 6h2q17 6 23 -10v-7q2 -2 6 -2l12 -8q9 -5 27 -10q14 -4 28 -7q21 -4 29 -5q33 -2 57 2q32 7 56 16q6 2 8 -3zM63 442q2 13 0 21v8q-2 -2 -4 -2h-4l-6 -2l-8 -4l-16 -12q-19 -17 -29 -31q-14 -20 -19 -37q-4 -9 -2 -16q2 -5 7 -7q3 -3 6 -4
q10 -2 18 0q11 4 19 13l14 14q5 12 10 18q9 18 14 41z" />
    <glyph glyph-name="o" unicode="&#xf5;" horiz-adv-x="278" 
d="M295 468q2 -6 -4 -7q-28 -13 -58 -17q-32 -6 -61 -2q-14 0 -29 3q-6 1 -28 10q-20 5 -29 10l-12 6q2 -2 2 -6q0 -5 -2 -25q-4 -22 -15 -43q-6 -11 -13 -19l-15 -18q-14 -10 -21 -14q-10 -4 -24 -2l-13 4q-5 4 -10 12q-4 5 -4 15v12q1 10 8 23q5 13 10 22q11 19 29 37
q2 3 17 18q4 3 10 9q7 4 14 6h2q17 6 23 -10v-7q2 -2 6 -2l12 -8q9 -5 27 -10q14 -4 28 -7q21 -4 29 -5q33 -2 57 2q32 7 56 16q6 2 8 -3zM63 442q2 13 0 21v8q-2 -2 -4 -2h-4l-6 -2l-8 -4l-16 -12q-19 -17 -29 -31q-14 -20 -19 -37q-4 -9 -2 -16q2 -5 7 -7q3 -3 6 -4
q10 -2 18 0q11 4 19 13l14 14q5 12 10 18q9 18 14 41z" />
    <glyph glyph-name="o" unicode="&#xf4;" horiz-adv-x="278" 
d="M295 468q2 -6 -4 -7q-28 -13 -58 -17q-32 -6 -61 -2q-14 0 -29 3q-6 1 -28 10q-20 5 -29 10l-12 6q2 -2 2 -6q0 -5 -2 -25q-4 -22 -15 -43q-6 -11 -13 -19l-15 -18q-14 -10 -21 -14q-10 -4 -24 -2l-13 4q-5 4 -10 12q-4 5 -4 15v12q1 10 8 23q5 13 10 22q11 19 29 37
q2 3 17 18q4 3 10 9q7 4 14 6h2q17 6 23 -10v-7q2 -2 6 -2l12 -8q9 -5 27 -10q14 -4 28 -7q21 -4 29 -5q33 -2 57 2q32 7 56 16q6 2 8 -3zM63 442q2 13 0 21v8q-2 -2 -4 -2h-4l-6 -2l-8 -4l-16 -12q-19 -17 -29 -31q-14 -20 -19 -37q-4 -9 -2 -16q2 -5 7 -7q3 -3 6 -4
q10 -2 18 0q11 4 19 13l14 14q5 12 10 18q9 18 14 41z" />
    <glyph glyph-name="o" unicode="&#xf3;" horiz-adv-x="278" 
d="M295 468q2 -6 -4 -7q-28 -13 -58 -17q-32 -6 -61 -2q-14 0 -29 3q-6 1 -28 10q-20 5 -29 10l-12 6q2 -2 2 -6q0 -5 -2 -25q-4 -22 -15 -43q-6 -11 -13 -19l-15 -18q-14 -10 -21 -14q-10 -4 -24 -2l-13 4q-5 4 -10 12q-4 5 -4 15v12q1 10 8 23q5 13 10 22q11 19 29 37
q2 3 17 18q4 3 10 9q7 4 14 6h2q17 6 23 -10v-7q2 -2 6 -2l12 -8q9 -5 27 -10q14 -4 28 -7q21 -4 29 -5q33 -2 57 2q32 7 56 16q6 2 8 -3zM63 442q2 13 0 21v8q-2 -2 -4 -2h-4l-6 -2l-8 -4l-16 -12q-19 -17 -29 -31q-14 -20 -19 -37q-4 -9 -2 -16q2 -5 7 -7q3 -3 6 -4
q10 -2 18 0q11 4 19 13l14 14q5 12 10 18q9 18 14 41z" />
    <glyph glyph-name="o" unicode="&#xf2;" horiz-adv-x="278" 
d="M295 468q2 -6 -4 -7q-28 -13 -58 -17q-32 -6 -61 -2q-14 0 -29 3q-6 1 -28 10q-20 5 -29 10l-12 6q2 -2 2 -6q0 -5 -2 -25q-4 -22 -15 -43q-6 -11 -13 -19l-15 -18q-14 -10 -21 -14q-10 -4 -24 -2l-13 4q-5 4 -10 12q-4 5 -4 15v12q1 10 8 23q5 13 10 22q11 19 29 37
q2 3 17 18q4 3 10 9q7 4 14 6h2q17 6 23 -10v-7q2 -2 6 -2l12 -8q9 -5 27 -10q14 -4 28 -7q21 -4 29 -5q33 -2 57 2q32 7 56 16q6 2 8 -3zM63 442q2 13 0 21v8q-2 -2 -4 -2h-4l-6 -2l-8 -4l-16 -12q-19 -17 -29 -31q-14 -20 -19 -37q-4 -9 -2 -16q2 -5 7 -7q3 -3 6 -4
q10 -2 18 0q11 4 19 13l14 14q5 12 10 18q9 18 14 41z" />
    <glyph glyph-name="p" unicode="p" horiz-adv-x="292" 
d="M306 470q3 -5 -1 -9q-5 -3 -24 -10q-3 0 -25 -7q-9 -3 -51 -8q-6 -8 -10 -12q-10 -10 -23 -18q-23 -18 -49 -25q-28 -9 -51 -10q-16 -2 -27 -1q-15 2 -27 3l-12 4l-7 3.5t-7 4.5l-2 2l-4 4v8l4 4q4 5 6 5l6 2q10 4 27 6l24 6q18 2 51 6q3 0 19.5 3t30.5 5h4q4 4 12 10
l12 17l4 8q1 2 2.5 5.5t1.5 4.5q0 3 1.5 10.5t1.5 10.5t-4 7t-7 5q-7 4 -22 4q-3 0 -11 -1.5t-12 -2.5l-24 -8q-6 -2 -13.5 -5.5t-17.5 -8t-16 -7.5q-2 -2 -7.5 -4.5t-7.5 -3.5l-4 -2q-4 -4 -9 -7t-11 -9q-27 -21 -82 -70l-19 -18l-10 -8l-10 -11l-19 -18l-18 -19
q-6 -6 -10 -11l-9 -9l-10 -8l-8 -11l-18 -20l-17 -20q-6 -6 -18 -21q0 -1 -6 -9l-11 -11q-1 0 -16 -21l-8 -10l-8 -10q-71 -97 -113 -183q-8 -15 -24 -7q-15 7 -7 24l2 2q6 8 27.5 35.5t35.5 46.5q50 65 68 88q1 2 7 9t11 13q16 20 17 21q3 3 5 6l6 8l6 6q4 5 16 21
q26 31 72 80q25 28 75 77l21 19l18 18l21 19l20 16q37 35 84 70q15 12 43 32q12 9 23 15q7 7 10 8l6 4q3 1 6 4q16 8 24 -6q9 -15 -5 -25h-2q-2 -2 -6 -2l-4 -4q-5 0 -13 -6q-8 -4 -22 -12q-28 -19 -45 -29q-18 -13 -23 -16q1 1 8.5 3.5t10.5 4.5q27 11 51 16h12h16
q9 -2 15 -8q6 -4 10 -14q4 -11 4 -31q0 -8 -1 -13q-2 -10 -5 -15q0 -3 -2 -5q24 4 45 9l10.5 3.5t11.5 4.5l13 4q5 1 10 6q4 4 7 -1zM113 406q21 12 32 20q-35 -5 -41 -6q-43 -6 -49 -8l-24 -4l-25 -7l-4 -4q-4 0 -4 -2l2 -2q2 -3 10 -4q1 0 4.5 -1.5t5.5 -2.5q25 -2 48 4
q20 5 45 17z" />
    <glyph glyph-name="q" unicode="q" horiz-adv-x="305" 
d="M318 469q3 -4 -1 -8q-22 -16 -47 -31q-20 -12 -49 -27q-50 -27 -100 -51q-33 -15 -103 -45q-42 -16 -88 -35q-17 -13 -24 -20q-15 -27 -35 -62q-15 -23 -47 -75q-64 -98 -107 -148q-19 -24 -30 -33q-18 -18 -37 -30q-13 -7 -23 -8h-6h-6q-6 0 -14 2q-3 3 -5 4q-5 2 -6 6
q-4 5 -4 14q0 4 2 12l4 13q6 13 25 39q1 1 29 37q18 22 59 67q62 64 129 127q107 99 133 123q78 68 150 129l-19 -10q-1 -1 -12 -7.5t-20 -11.5q-15 -9 -17 -10q-14 -6 -16 -7q-6 -3 -13 -3h-6q-2 0 -8 2h-2h-2v2q-2 2 -4 2l-4 8q-4 5 -4 15v12q1 2 2.5 5.5t1.5 4.5
q1 9 8 21q9 14 25 30l14 14q1 1 16 13q16 12 35 18q10 5 21 6q13 5 22 5l12 -3q7 -2 13 -6t10 -10t6 -12q2 -11 0 -23v-4q22 19 66 55v3q14 7 24 -7q7 -12 -4 -22q-15 -12 -62.5 -51t-76.5 -62l-70 -57q-3 -3 -28.5 -25.5t-40.5 -34.5q-6 -6 -29 -24q8 3 59 22q40 18 103 45
l100 50q7 4 23 13t24 15q25 15 47 31q5 2 7 -2zM94 467q16 7 33 18q4 2 12 7.5t11 7.5q2 6 2 10q2 10 2 16q0 7 -2 13t-7 8q-4 1 -10 0q-4 0 -14 -2t-15 -6q-30 -16 -55 -41q-12 -12 -20 -25q-6 -6 -9 -13q-4 -10 -4 -11q-2 -2 -2 -5v-2h2h9q9 0 16 4q3 1 18 7q20 8 33 14z
M-137 197q6 13 18 32q-30 -25 -33 -28q-74 -67 -129 -123q-34 -34 -61 -66q-17 -19 -29 -35q-17 -23 -22 -36q-6 -12 -6 -19q0 -5 1 -7q1 -3 5 -4q1 -1 3.5 -2t4.5 -1h6h4q8 2 19 8q13 6 34 27q20 20 31 32q26 31 55 70q31 43 50 76q26 37 49 76z" />
    <glyph glyph-name="r" unicode="r" horiz-adv-x="217" 
d="M230 470q3 -5 -1 -9q-84 -60 -104 -72q-27 -19 -53 -37q-10 -7 -28.5 -18t-25.5 -15q-18 -7 -30 -12q-6 -2 -8 -2q-6 -2 -9 -2q-4 0 -6 2q-4 0 -6 2t-2 6q-2 2 -2 6q0 3 2 17l8 16q6 12 19 27q1 6 8 14q1 1 10 13q6 8 10 13l4 4l4 4l3 3q6 6 13 14.5t9 10.5l8 10l-4 4
q0 1 -1.5 4.5t-2.5 5.5q-8 -6 -10 -8l-21 -10q-7 -2 -8 4q-2 2 2 6q10 8 17 14q3 3 8 9t7 8q3 3 7 7.5t6 6.5v2q1 5 6 10l4 4v3h3v2l2 2q12 10 24 -2t0 -23v-2h-2v-2l-2 -2q-1 -3 -4 -6q-4 -5 -4 -10v-4v-2q0 -1 2 -3t4 -2l4 -4q10 -10 0 -22l-2 -2q-4 -3 -25 -19
q-4 -3 -12 -10t-12 -10l-10 -11l-12 -11l-11 -11l-10 -10l-19 -25q-7 -8 -8 -14q-2 -8 -2 -13v-3q0 -1 1 -1h1h2q6 -2 15 2q2 0 28 11q15 7 27 16q14 7 27 16q16 8 53 35q57 39 100 76q6 4 9 -1z" />
    <glyph glyph-name="s" unicode="s" horiz-adv-x="212" 
d="M227 471q4 -4 0 -8t-14 -12q-4 -3 -14 -9l-29 -14q-49 -21 -61 -25q-32 -14 -123 -47q-6 -2 -21 -6q-11 -16 -12 -18l-10 -13q-6 -10 -9 -14q-8 -10 -22 -26q-12 -15 -25 -23q-17 -14 -28 -18q-24 -10 -35 -11q-19 0 -35 11q-8 5 -12 14q-4 6 -2 18q2 9 8 17l12 12
q15 9 31 16q5 0 16 4l17 5q12 4 35 10.5t32 9.5q0 2 1 3l1 1q18 35 33 58q11 19 35 55q1 1 2.5 3t2.5 4l1 1q2 5 6 6q6 10 8 12q7 8 23 27l12 12l8 6q2 0 4 2l3 1l8 4h2h3h2h3q2 -2 4 -2q4 -1 6 -6q0 -1 1.5 -3t2.5 -4q1 -4 0 -8v-4v-2l-4 -8l-8 -8l-8 -5q-2 -3 -15 -10
q-2 -2 -7 -4.5l-7 -3.5l-1 -1q-1 -1 -3 -1q-7 -11 -20 -29q-12 -16 -35 -53q-1 -2 -8.5 -12t-10.5 -15q3 0 6 1q5 1 7 4q63 23 120 45q8 4 30.5 13t31.5 13l29 15q4 4 12 10q10 6 12 8v2q4 4 8 0zM-80 334l2 2q-29 -9 -61 -21l-17 -4q-11 -4 -14 -4q-19 -7 -29 -16
q-6 -4 -10 -10q-4 -5 -6 -13q0 -4 2 -12q1 -5 8 -10q12 -8 29 -6q12 1 29 8q11 7 24 20t19 25q12 16 16 26q3 3 8 15z" />
    <glyph glyph-name="t" unicode="t" horiz-adv-x="172" 
d="M847 843q15 -7 9 -22l-2 -2q-7 -15 -23 -31l-6 -6l-8 -6l-8 -4l-8 -6l-4 -2q-2 -2 -4 -2l-5 -2l-4 -2l-8 -2l-8 -4h-4l-4 -2l-8 -2l-9 -3q-2 0 -5 -1q-2 -1 -4 -1h-1q-30 -5 -67 -6q-18 0 -68 2q-75 5 -215 25q-12 -10 -90 -72q-163 -133 -187 -153q-8 -8 -40 -37.5
t-48 -44.5q-42 -41 -84 -86q-41 -46 -73 -97q-40 -57 -56 -106q0 -4 -6 -3q-5 1 -4 7q19 56 55 109q30 46 74 98q31 39 82 90q26 26 88 84q76 69 182 160q33 27 66 57h-5q-5 0 -7 2q-64 8 -66 8q-38 5 -67 6q-38 5 -66 5q-54 2 -68 2q-4 0 -8 -1t-8 -1h-8h-8q-6 -1 -17.5 -3
t-15.5 -2q-32 -6 -64 -14q-34 -12 -59 -29q-26 -20 -43 -45q-7 -14 -22 -5t-7 24l2 2q26 26 60 43q28 17 63 24q57 16 135 17q64 2 136 -4q26 -1 67 -6q27 -5 66 -9q2 0 24 -2q2 0 6 4l7 7q53 44 88 81q12 12 24 0t0 -24q-42 -38 -84 -74q60 -7 68 -8q88 -8 133 -8
q38 -2 66 0q32 1 65 10h8l6 2l9 4h4l4 2l6 2l8 4l2 2l4 2l3 2q3 2 3 3q13 8 23 18q12 16 16 25q6 15 22 7z" />
    <glyph glyph-name="u" unicode="u" horiz-adv-x="288" 
d="M302 468q3 -5 -1 -9l-41 -21q-45 -22 -51 -26q-34 -17 -45 -21l-25 -10q-17 -7 -26 -8h-6h-5q-2 -2 -2 0h-4h-4q-2 0 -8 2q-3 0 -4 4l-4 4q-2 6 -2 8q-2 6 0 17q6 14 10 24q3 7 12 25l8 12q-7 -5 -18 -13t-16 -12q-24 -17 -37 -24t-23 -8l-4 -2h-2h-4h-4q-2 0 -2 2h-2
q-2 0 -3 1t-1 3l-4 4v6q0 2 2 12q2 8 6 13q1 1 4.5 7.5t6.5 11.5t6.5 11t4.5 8q4 1 15 17l12 18l14 19q10 15 25 3t4 -24l-4 -4q-6 -7 -17 -14l-14 -15l-16 -16l-15 -14q-8 -14 -12 -19l-4 -8q0 -3 -1 -4l-1 -2v-2h2h2h4q6 2 19 8q12 5 18 10q9 4 18 11q30 22 35 26
q15 11 31 27q2 3 5.5 8t4.5 6q10 14 17 23l4 -4h2l-4 4l2 2q12 10 22 -4q11 -11 0 -23h-2v0l-16 -16q-5 -7 -17 -19q-7 -8 -18 -21.5t-14 -17.5q-2 -2 -7.5 -9t-7.5 -11l-10 -21q-2 -8 -2 -10t2 -4q0 -2 2 -2q2 -2 8 -2h2h1h2h4h2q12 1 24 6l25 8q2 1 6 2.5t5 1.5q2 1 5.5 3
t5.5 3q7 3 13 5l10 6l24 12q15 8 21 12q10 5 45 25q4 4 7 -1zM176 522l4 -4zM0 426v-2v2z" />
    <glyph glyph-name="u" unicode="&#xfc;" horiz-adv-x="288" 
d="M302 468q3 -5 -1 -9l-41 -21q-45 -22 -51 -26q-34 -17 -45 -21l-25 -10q-17 -7 -26 -8h-6h-5q-2 -2 -2 0h-4h-4q-2 0 -8 2q-3 0 -4 4l-4 4q-2 6 -2 8q-2 6 0 17q6 14 10 24q3 7 12 25l8 12q-7 -5 -18 -13t-16 -12q-24 -17 -37 -24t-23 -8l-4 -2h-2h-4h-4q-2 0 -2 2h-2
q-2 0 -3 1t-1 3l-4 4v6q0 2 2 12q2 8 6 13q1 1 4.5 7.5t6.5 11.5t6.5 11t4.5 8q4 1 15 17l12 18l14 19q10 15 25 3t4 -24l-4 -4q-6 -7 -17 -14l-14 -15l-16 -16l-15 -14q-8 -14 -12 -19l-4 -8q0 -3 -1 -4l-1 -2v-2h2h2h4q6 2 19 8q12 5 18 10q9 4 18 11q30 22 35 26
q15 11 31 27q2 3 5.5 8t4.5 6q10 14 17 23l4 -4h2l-4 4l2 2q12 10 22 -4q11 -11 0 -23h-2v0l-16 -16q-5 -7 -17 -19q-7 -8 -18 -21.5t-14 -17.5q-2 -2 -7.5 -9t-7.5 -11l-10 -21q-2 -8 -2 -10t2 -4q0 -2 2 -2q2 -2 8 -2h2h1h2h4h2q12 1 24 6l25 8q2 1 6 2.5t5 1.5q2 1 5.5 3
t5.5 3q7 3 13 5l10 6l24 12q15 8 21 12q10 5 45 25q4 4 7 -1zM176 522l4 -4zM0 426v-2v2z" />
    <glyph glyph-name="u" unicode="&#xfb;" horiz-adv-x="288" 
d="M302 468q3 -5 -1 -9l-41 -21q-45 -22 -51 -26q-34 -17 -45 -21l-25 -10q-17 -7 -26 -8h-6h-5q-2 -2 -2 0h-4h-4q-2 0 -8 2q-3 0 -4 4l-4 4q-2 6 -2 8q-2 6 0 17q6 14 10 24q3 7 12 25l8 12q-7 -5 -18 -13t-16 -12q-24 -17 -37 -24t-23 -8l-4 -2h-2h-4h-4q-2 0 -2 2h-2
q-2 0 -3 1t-1 3l-4 4v6q0 2 2 12q2 8 6 13q1 1 4.5 7.5t6.5 11.5t6.5 11t4.5 8q4 1 15 17l12 18l14 19q10 15 25 3t4 -24l-4 -4q-6 -7 -17 -14l-14 -15l-16 -16l-15 -14q-8 -14 -12 -19l-4 -8q0 -3 -1 -4l-1 -2v-2h2h2h4q6 2 19 8q12 5 18 10q9 4 18 11q30 22 35 26
q15 11 31 27q2 3 5.5 8t4.5 6q10 14 17 23l4 -4h2l-4 4l2 2q12 10 22 -4q11 -11 0 -23h-2v0l-16 -16q-5 -7 -17 -19q-7 -8 -18 -21.5t-14 -17.5q-2 -2 -7.5 -9t-7.5 -11l-10 -21q-2 -8 -2 -10t2 -4q0 -2 2 -2q2 -2 8 -2h2h1h2h4h2q12 1 24 6l25 8q2 1 6 2.5t5 1.5q2 1 5.5 3
t5.5 3q7 3 13 5l10 6l24 12q15 8 21 12q10 5 45 25q4 4 7 -1zM176 522l4 -4zM0 426v-2v2z" />
    <glyph glyph-name="u" unicode="&#xfa;" horiz-adv-x="288" 
d="M302 468q3 -5 -1 -9l-41 -21q-45 -22 -51 -26q-34 -17 -45 -21l-25 -10q-17 -7 -26 -8h-6h-5q-2 -2 -2 0h-4h-4q-2 0 -8 2q-3 0 -4 4l-4 4q-2 6 -2 8q-2 6 0 17q6 14 10 24q3 7 12 25l8 12q-7 -5 -18 -13t-16 -12q-24 -17 -37 -24t-23 -8l-4 -2h-2h-4h-4q-2 0 -2 2h-2
q-2 0 -3 1t-1 3l-4 4v6q0 2 2 12q2 8 6 13q1 1 4.5 7.5t6.5 11.5t6.5 11t4.5 8q4 1 15 17l12 18l14 19q10 15 25 3t4 -24l-4 -4q-6 -7 -17 -14l-14 -15l-16 -16l-15 -14q-8 -14 -12 -19l-4 -8q0 -3 -1 -4l-1 -2v-2h2h2h4q6 2 19 8q12 5 18 10q9 4 18 11q30 22 35 26
q15 11 31 27q2 3 5.5 8t4.5 6q10 14 17 23l4 -4h2l-4 4l2 2q12 10 22 -4q11 -11 0 -23h-2v0l-16 -16q-5 -7 -17 -19q-7 -8 -18 -21.5t-14 -17.5q-2 -2 -7.5 -9t-7.5 -11l-10 -21q-2 -8 -2 -10t2 -4q0 -2 2 -2q2 -2 8 -2h2h1h2h4h2q12 1 24 6l25 8q2 1 6 2.5t5 1.5q2 1 5.5 3
t5.5 3q7 3 13 5l10 6l24 12q15 8 21 12q10 5 45 25q4 4 7 -1zM176 522l4 -4zM0 426v-2v2z" />
    <glyph glyph-name="u" unicode="&#xf9;" horiz-adv-x="288" 
d="M302 468q3 -5 -1 -9l-41 -21q-45 -22 -51 -26q-34 -17 -45 -21l-25 -10q-17 -7 -26 -8h-6h-5q-2 -2 -2 0h-4h-4q-2 0 -8 2q-3 0 -4 4l-4 4q-2 6 -2 8q-2 6 0 17q6 14 10 24q3 7 12 25l8 12q-7 -5 -18 -13t-16 -12q-24 -17 -37 -24t-23 -8l-4 -2h-2h-4h-4q-2 0 -2 2h-2
q-2 0 -3 1t-1 3l-4 4v6q0 2 2 12q2 8 6 13q1 1 4.5 7.5t6.5 11.5t6.5 11t4.5 8q4 1 15 17l12 18l14 19q10 15 25 3t4 -24l-4 -4q-6 -7 -17 -14l-14 -15l-16 -16l-15 -14q-8 -14 -12 -19l-4 -8q0 -3 -1 -4l-1 -2v-2h2h2h4q6 2 19 8q12 5 18 10q9 4 18 11q30 22 35 26
q15 11 31 27q2 3 5.5 8t4.5 6q10 14 17 23l4 -4h2l-4 4l2 2q12 10 22 -4q11 -11 0 -23h-2v0l-16 -16q-5 -7 -17 -19q-7 -8 -18 -21.5t-14 -17.5q-2 -2 -7.5 -9t-7.5 -11l-10 -21q-2 -8 -2 -10t2 -4q0 -2 2 -2q2 -2 8 -2h2h1h2h4h2q12 1 24 6l25 8q2 1 6 2.5t5 1.5q2 1 5.5 3
t5.5 3q7 3 13 5l10 6l24 12q15 8 21 12q10 5 45 25q4 4 7 -1zM176 522l4 -4zM0 426v-2v2z" />
    <glyph glyph-name="v" unicode="v" horiz-adv-x="212" 
d="M228 467q2 -6 -5 -6q-10 -2 -15 -2q-10 0 -15 1q-2 0 -8 1t-8 2t-7 2.5t-8 1.5q-13 5 -27 14l-7 3.5t-7 4.5l-6 7q-20 -22 -31 -33q-2 -2 -37 -31q-19 -15 -43 -26q-2 -1 -9.5 -6t-12.5 -7q-2 -1 -23 -10h-2q-5 0 -6 4q0 4 2 6l14 15q8 14 10 16q13 22 19 37q7 16 8 18
q1 1 3.5 8.5t4.5 10.5q1 2 8 18l7 19q6 15 22 11t10 -22q0 -2 -2 -4l-10 -18l-12 -17l-12 -16l-11 -18q-16 -21 -24 -33l-13 -15h2q14 8 21 11q27 14 42 26q22 17 36 31q13 13 33 37q4 4 8 0q2 -2 12 -8q2 -2 12 -8q15 -9 25 -13q6 -5 13 -6l15 -3q5 -1 13 -1q10 2 14 2
q6 1 7 -4z" />
    <glyph glyph-name="w" unicode="w" horiz-adv-x="348" 
d="M364 468q2 -5 -4 -7q-27 -11 -51 -12q-27 -4 -53 0q-24 5 -51 12l-12 6q-9 2 -11 4v-3q0 -1 -2 -1q0 -7 -4 -12q-8 -23 -24 -47l-15 -21q-7 -11 -16 -20q-15 -19 -37 -39q-16 -12 -23 -15q-6 -5 -12 -6q-7 -4 -14 -4t-8 6q0 4 4 8h2q1 1 2 3l1 2l3 6q2 2 4.5 7l3.5 7
q3 8 10 31q5 18 9 33q2 14 2 16l2 6v2q-2 -1 -7.5 -3.5t-7.5 -4.5q-11 -7 -24 -23q-8 -8 -23 -26q-14 -15 -22 -25v-2q-4 -4 -9 0q-2 2 -2 4q2 13 4.5 28.5t2.5 18.5q1 19 10 45q7 25 16 45q6 14 10 21q1 4 7 12l4 4v2q2 2 2 4l2 2q10 15 24 5t4 -25l-4 -4l-2 -2l-2 -2
q-2 -2 -2 -4l-8 -8l-12 -17q-16 -19 -23 -39q-6 -10 -10 -20t-6 -21q-4 -11 -4 -22v-6q17 23 35 39l24 24q12 12 12 14l9 5q2 2 3 2h3q3 0 4 -1t4 -1q2 -3 4 -7l2 -2v-12v-8q0 -9 -2 -19q-1 -16 -8 -34q-4 -18 -12 -33q-6 -6 -7 -8q14 8 19 12q17 12 35 35q10 11 30 41
q16 26 23 45q1 2 2.5 5.5t1.5 4.5q0 4 2 6q0 4 2 6h6h4l6 -2l7 -2q7 -4 12 -4q24 -10 49 -12q24 -5 49 0q21 1 49 10q6 2 8 -3z" />
    <glyph glyph-name="x" unicode="x" horiz-adv-x="190" 
d="M213 569q4 -4 0 -8q-44 -30 -90 -67q-29 -22 -43 -37q-28 -22 -43 -37q-7 -5 -23 -19q0 -4 2 -10q1 -10 9 -18q6 -6 18 -6h6h6q5 0 11 2q11 1 24 8q7 1 21 10q13 7 21 13q14 12 20 16q10 8 18 16t16 19q1 3 7 9q1 1 7 10q4 5 8 1t3 -8h-2q-1 -3 -8 -10l-8 -9
q-3 -4 -17 -18q-11 -11 -20 -16q-7 -10 -19 -17q-19 -14 -45 -26q-8 -3 -22 -9q-8 -2 -13 -2q-2 -2 -7 -2h-7q-6 0 -14 2t-13 7q-4 4 -10 12q-4 6 -6 12l-2 -2q-2 -2 -4 -2q-27 -27 -39 -41q-8 -8 -20.5 -22.5t-16.5 -18.5l-4 -6l-4 -6l-4 -4l-4 -6l-13 -25q-6 -14 -22 -7
q-15 7 -8 21q0 2 2 4q10 13 41 43q23 23 43 39q26 23 53 45q-2 8 -2 15q-1 12 0 26q0 27 4 52q0 8 4 24q0 2 2 12t2 15q4 16 22 12q17 -4 13 -20q0 -3 -2 -5q0 -3 -4 -10q0 -1 -1 -3t-2 -4.5t-1 -4.5q-2 -4 -8 -23q-2 -9 -5.5 -24.5t-5.5 -22.5v-24q2 2 17 14q37 29 43 35
q35 27 45 37q24 18 38 30q31 27 48 39q4 4 8 0z" />
    <glyph glyph-name="y" unicode="y" horiz-adv-x="274" 
d="M290 469q3 -4 -1 -8q-46 -33 -119 -60q-22 -8 -109 -36l-20 -21q-5 -2 -25 -22l-22 -23q-33 -30 -49 -45q-43 -40 -99 -88q-134 -110 -208 -162l-12 -7q-11 -7 -15 -11l-29 -17q-35 -19 -61 -30q-24 -8 -33 -9q-16 -4 -33 -4q-19 0 -35 8q-9 7 -13 14q-6 10 -7 17
q-2 10 -2 17q0 9 4 18q4 14 12 31q15 27 41 53q24 26 47 45q15 11 27 21q17 12 29 18q61 41 112 68q60 31 121 53q53 22 125 45q7 2 41 12.5t63 18.5q6 2 42 35q35 32 59 51q15 12 29 26q-16 -13 -39 -26q-16 -10 -21 -13l-20 -12q-20 -9 -25 -10q-10 -2 -14 -2q-2 0 -4 2
h-7q-3 1 -8 6q-2 2 -8 10q-2 6 -2 10q-2 10 2 17q1 8 10 26q9 13 31 39q7 10 16 17q1 2 5 4.5t5 3.5q1 2 4 4.5t5 3.5q14 10 24 -2q8 -12 0 -23h-2l-6 -8l-8 -8l-14 -16q-23 -27 -27 -35q-9 -9 -10 -16l-2 -3v-2h-2q0 -2 1 -2t1 -2q6 -2 8 -2q6 0 20 2q7 1 23 9q10 4 20 10
q7 4 20 11.5t19 10.5q20 13 37 29q22 16 35 29h2v0q4 4 7 0q3 -5 -1 -9l-45 -45l-47 -47l-55 -55q59 17 88 29q75 30 117 59q5 2 7 -2zM-29 322l29 24q-75 -21 -82 -24q-73 -23 -123 -43q-127 -49 -231 -119q-23 -16 -29 -19l-24 -20q-32 -23 -50 -43q-24 -27 -39 -51
q-6 -14 -12 -29q-5 -19 0 -31q1 -14 17 -22q11 -6 28 -6q16 0 31 4q20 6 31 10q27 11 55 31l27 18q3 1 26 18q49 39 101 84l24 23l25 20q29 26 49 46l98 86q30 28 49 43z" />
    <glyph glyph-name="y" unicode="&#xff;" horiz-adv-x="274" 
d="M290 469q3 -4 -1 -8q-46 -33 -119 -60q-22 -8 -109 -36l-20 -21q-5 -2 -25 -22l-22 -23q-33 -30 -49 -45q-43 -40 -99 -88q-134 -110 -208 -162l-12 -7q-11 -7 -15 -11l-29 -17q-35 -19 -61 -30q-24 -8 -33 -9q-16 -4 -33 -4q-19 0 -35 8q-9 7 -13 14q-6 10 -7 17
q-2 10 -2 17q0 9 4 18q4 14 12 31q15 27 41 53q24 26 47 45q15 11 27 21q17 12 29 18q61 41 112 68q60 31 121 53q53 22 125 45q7 2 41 12.5t63 18.5q6 2 42 35q35 32 59 51q15 12 29 26q-16 -13 -39 -26q-16 -10 -21 -13l-20 -12q-20 -9 -25 -10q-10 -2 -14 -2q-2 0 -4 2
h-7q-3 1 -8 6q-2 2 -8 10q-2 6 -2 10q-2 10 2 17q1 8 10 26q9 13 31 39q7 10 16 17q1 2 5 4.5t5 3.5q1 2 4 4.5t5 3.5q14 10 24 -2q8 -12 0 -23h-2l-6 -8l-8 -8l-14 -16q-23 -27 -27 -35q-9 -9 -10 -16l-2 -3v-2h-2q0 -2 1 -2t1 -2q6 -2 8 -2q6 0 20 2q7 1 23 9q10 4 20 10
q7 4 20 11.5t19 10.5q20 13 37 29q22 16 35 29h2v0q4 4 7 0q3 -5 -1 -9l-45 -45l-47 -47l-55 -55q59 17 88 29q75 30 117 59q5 2 7 -2zM-29 322l29 24q-75 -21 -82 -24q-73 -23 -123 -43q-127 -49 -231 -119q-23 -16 -29 -19l-24 -20q-32 -23 -50 -43q-24 -27 -39 -51
q-6 -14 -12 -29q-5 -19 0 -31q1 -14 17 -22q11 -6 28 -6q16 0 31 4q20 6 31 10q27 11 55 31l27 18q3 1 26 18q49 39 101 84l24 23l25 20q29 26 49 46l98 86q30 28 49 43z" />
    <glyph glyph-name="y" unicode="&#xfd;" horiz-adv-x="274" 
d="M290 469q3 -4 -1 -8q-46 -33 -119 -60q-22 -8 -109 -36l-20 -21q-5 -2 -25 -22l-22 -23q-33 -30 -49 -45q-43 -40 -99 -88q-134 -110 -208 -162l-12 -7q-11 -7 -15 -11l-29 -17q-35 -19 -61 -30q-24 -8 -33 -9q-16 -4 -33 -4q-19 0 -35 8q-9 7 -13 14q-6 10 -7 17
q-2 10 -2 17q0 9 4 18q4 14 12 31q15 27 41 53q24 26 47 45q15 11 27 21q17 12 29 18q61 41 112 68q60 31 121 53q53 22 125 45q7 2 41 12.5t63 18.5q6 2 42 35q35 32 59 51q15 12 29 26q-16 -13 -39 -26q-16 -10 -21 -13l-20 -12q-20 -9 -25 -10q-10 -2 -14 -2q-2 0 -4 2
h-7q-3 1 -8 6q-2 2 -8 10q-2 6 -2 10q-2 10 2 17q1 8 10 26q9 13 31 39q7 10 16 17q1 2 5 4.5t5 3.5q1 2 4 4.5t5 3.5q14 10 24 -2q8 -12 0 -23h-2l-6 -8l-8 -8l-14 -16q-23 -27 -27 -35q-9 -9 -10 -16l-2 -3v-2h-2q0 -2 1 -2t1 -2q6 -2 8 -2q6 0 20 2q7 1 23 9q10 4 20 10
q7 4 20 11.5t19 10.5q20 13 37 29q22 16 35 29h2v0q4 4 7 0q3 -5 -1 -9l-45 -45l-47 -47l-55 -55q59 17 88 29q75 30 117 59q5 2 7 -2zM-29 322l29 24q-75 -21 -82 -24q-73 -23 -123 -43q-127 -49 -231 -119q-23 -16 -29 -19l-24 -20q-32 -23 -50 -43q-24 -27 -39 -51
q-6 -14 -12 -29q-5 -19 0 -31q1 -14 17 -22q11 -6 28 -6q16 0 31 4q20 6 31 10q27 11 55 31l27 18q3 1 26 18q49 39 101 84l24 23l25 20q29 26 49 46l98 86q30 28 49 43z" />
    <glyph glyph-name="z" unicode="z" horiz-adv-x="239" 
d="M254 461q4 -4 0 -8q-44 -33 -96 -62q-3 -2 -41 -22q-1 -2 -5 -10.5t-6 -14.5q-11 -20 -30 -49q-30 -40 -76 -88q-15 -13 -43 -39q-2 -1 -18 -15.5t-25 -21.5q-42 -34 -92 -68q-40 -29 -96 -59q-8 -4 -25.5 -13t-26.5 -14q-26 -13 -53 -22q-2 -1 -12 -3.5t-15 -4.5
q-17 -5 -28 -6h-17q-6 0 -14 2q-9 1 -14 6q-9 7 -10 16v15l4 16q4 10 14 24q20 30 35 46q37 39 88 73q15 11 47 31q17 12 49 29q22 13 98 53q26 14 205 98q31 16 47 23v4q6 15 2 22q0 1 -1 2l-2 2t-2 3l-1 2q-1 0 -3 1t-4.5 2t-4.5 1q-14 2 -25 2q-6 0 -28 -2q-15 -2 -27 -6
q-7 -2 -8 4q0 5 4 6q41 16 82 41q22 12 39 24l14 15q9 13 10 16q0 4 -3 7q-4 4 -7 5q-6 4 -18 2q-12 0 -21 -4q-10 -4 -20 -10q-21 -12 -37 -27q-18 -16 -31 -32q-4 -4 -8 0t0 8q20 24 31 35l39 26q9 5 22 10q16 6 23 7q15 1 26 -4q5 -1 11 -9q1 -3 3 -7q1 -2 1 -7
q0 -7 -4 -14q-1 -3 -7 -11q-11 -11 -18 -16q-22 -16 -39 -25q-3 -2 -41 -22h-2q4 0 12 2q15 0 31 -2q8 -2 14 -6l9 -4q5 -5 6 -8q4 -5 4 -17v-6q18 11 33 18q54 27 94 60q4 4 8 0zM88 354v2l-33 -16q-165 -78 -202 -98q-63 -32 -99 -54q-44 -23 -49 -26q-25 -15 -47 -31
q-54 -39 -86 -72q-24 -24 -35 -43l-4.5 -9t-4.5 -8.5t-3 -6.5q-6 -14 -4 -25q1 -5 6 -10q1 0 4.5 -1.5t5.5 -2.5q11 -1 27 0q24 5 51 16q10 5 49 27q37 25 47 31q59 42 90 65q18 12 45 33q7 5 21 17t22 18q6 6 21 18.5t22 18.5q15 12 43 36q55 51 78 78q24 24 35 43z" />
    <glyph glyph-name="asciitilde" unicode="~" horiz-adv-x="352" 
d="M285 571q12 -12 2 -24h-2q-18 -18 -33 -25q-6 -3 -20 -7q-3 -1 -9.5 -2.5t-9.5 -2.5q-22 -2 -41 4q-21 5 -37 12q-9 5 -16 11l-8 4l-2 2q-3 0 -4 1l-1 1q-15 6 -30 6q-18 0 -33 -4q-9 -2 -16 -6l-9 -4l-8 -5q-3 -3 -7 2t1 7q6 5 16 10q8 6 17 8q21 9 37 10q20 0 41 -6
l1 -1q1 -1 3 -1l4 -2l8 -4q7 -4 16 -6q34 -15 64 -10q4 1 14 5q8 3 15 5q9 7 22 21q12 14 25 1z" />
    <glyph glyph-name="nonbreakingspace" unicode="&#xa0;" horiz-adv-x="1210" 
 />
    <glyph glyph-name="softhyphen" unicode="&#xad;" 
 />
    <glyph glyph-name="a.alt1" unicode="&#xf000;" horiz-adv-x="1415" 
d="M1426 461q3 -5 -1 -6q-47 -35 -79 -52q-26 -14 -43 -20q-3 -1 -11 -3.5t-12 -4.5q-15 -5 -25 -6h-14q-3 1 -6 4h-2l-2 2q0 2 -2 2l-4 8l-2 6q-2 7 0 15q0 12 6 24q2 2 2 3v3q0 -1 -2 -3l-2 -1q-10 -9 -25 -18q-20 -14 -26 -17q-10 -4 -17 -6q-14 -2 -18 -2q-7 2 -11 6
q-6 2 -8 8q-4 9 -4 23q1 12 10 33q3 9 17 28q7 12 16 21q-7 -4 -16 -6q-25 -12 -76 -29q-77 -27 -151 -51q-169 -49 -312 -82q-105 -23 -157 -31q-76 -13 -160 -20q-60 -2 -82 -2q-34 0 -80 8q-4 0 -9 0.5t-8 1t-4 0.5q-9 2 -20 6q-20 5 -39 14q-2 1 -8 7l-4 4l-4 4
q-12 7 -17 16q-4 7 -10 21q0 2 -1.5 10t-2.5 14q-2 17 14 18q17 2 19 -14q0 -4 -2 -6q-2 -19 4 -33q1 -8 8 -14q5 -6 12 -12q17 -14 35 -19q21 -9 37 -10q16 -4 41 -4q24 -2 39 -2q41 0 80 4q84 5 159 18q56 9 158 31q137 31 309 82q80 23 154 51q13 5 74 27q19 9 37 16
q7 4 14 6q4 2 11 7t9 6l13 4q14 2 20 2q13 -2 21 -10l8 -9q0 -1 1.5 -4.5t2.5 -5.5l4 -12l2 2q3 5 14 18h2q11 12 23 0q10 -10 0 -20v-2q-7 -5 -16 -16l-17 -17q-5 -5 -15 -17q-3 -3 -7 -9.5t-6 -8.5q-16 -23 -23 -39q-4 -10 0 -16v-2l2 -2l2 -2h10q12 0 23 4q4 2 11.5 4.5
l10.5 3.5q11 4 41 21q43 24 80 51q5 2 7 -2zM1222 438l23 23l8 12l3 3l1 1q1 15 0 25q0 2 -1 4.5t-2 4.5t-1 3q-1 3 -4 6q-2 2 -7 2q-3 0 -9 -2q-12 -5 -23 -12q-3 -1 -6 -4l-4 -4q-4 -3 -10 -11q-12 -12 -19 -22q-10 -16 -14 -23l-12 -24q-2 -6 -2 -8v-3q0 -1 1 -2l1 -1
q9 -3 12 -3q2 0 7.5 1.5t6.5 1.5q15 6 27 14t24 18z" />
    </font>
</defs>
</svg>
