<?xml version="1.0" standalone="no"?>
<!DOCTYPE svg PUBLIC "-//W3C//DTD SVG 1.1//EN" "http://www.w3.org/Graphics/SVG/1.1/DTD/svg11.dtd" >
<svg xmlns="http://www.w3.org/2000/svg" xmlns:xlink="http://www.w3.org/1999/xlink" version="1.1">
<metadata>
Created by FontForge 20170731 at Wed Nov 24 09:46:48 2021
 By Aleksey,,,
(c)VinType Studio
</metadata>
<defs>
<font id="HoneyStoryDemoRegular" horiz-adv-x="3137" >
  <font-face 
    font-family="Honey Story Demo"
    font-weight="400"
    font-stretch="normal"
    units-per-em="2048"
    panose-1="0 0 0 0 0 0 0 0 0 0"
    ascent="1638"
    descent="-410"
    x-height="983"
    cap-height="1406"
    bbox="-178 -423 3056.7 1434"
    underline-thickness="102"
    underline-position="-409"
    unicode-range="U+000A-20AC"
  />
<missing-glyph horiz-adv-x="1079" 
d="M102 1434h875v-1434h-875v1434zM160 1393l379 -633l381 633h-760zM514 717l-369 614v-1231zM541 674l-379 -631h758zM565 717l371 -621v1239z" />
    <glyph glyph-name=".notdef" horiz-adv-x="1079" 
d="M102 1434h875v-1434h-875v1434zM160 1393l379 -633l381 633h-760zM514 717l-369 614v-1231zM541 674l-379 -631h758zM565 717l371 -621v1239z" />
    <glyph glyph-name=".null" horiz-adv-x="0" 
 />
    <glyph glyph-name=".null" horiz-adv-x="0" 
 />
    <glyph glyph-name="nonmarkingreturn" horiz-adv-x="682" 
 />
    <glyph glyph-name="LF" unicode="&#xa;" horiz-adv-x="0" 
 />
    <glyph glyph-name="controlCR" unicode="&#xd;" horiz-adv-x="0" 
 />
    <glyph glyph-name="space" unicode=" " horiz-adv-x="614" 
 />
    <glyph glyph-name="exclam" unicode="!" 
d="M2343 649q17 30 38.5 40t37 1.5t23 -31.5t0.5 -53q-118 -475 -279 -672q-3 -5 -10 -12l-9 -9q-26 -27 -57 -38.5t-56 -6t-42 21.5t-16 48t23 70q4 6 14.5 21.5t18 27.5t13.5 25.5t3 22t-15 11.5q-41 8 -164.5 -6t-260.5 -49q-36 -9 -143 -41q-98 -30 -155 -46t-169 -44.5
t-184 -37t-169.5 -17t-158.5 10t-117.5 49.5t-80 95t-15.5 154q17 -40 47.5 -70.5t73 -49t92.5 -29t112.5 -13t126.5 1t140 12.5q-26 19 -46.5 44.5t-27.5 47.5q-15 42 3 217q3 27 31 205.5t26 261.5q-1 47 -25 65t-56 6.5t-58 -42.5q-34 -41 -66 -121q-19 -46 -34 -101
q60 -23 89.5 -77.5t17.5 -112.5q-10 -47 -41.5 -72.5t-67 -26t-69.5 22t-49 63.5q-14 41 1 133q-27 -5 -169.5 -56t-215.5 -53q-69 -2 -115.5 41.5t-50.5 137.5q38 -48 118.5 -56t157 9t167.5 39t128 23l9 30q28 83 72 154t100 117q26 21 58.5 34t69.5 13t63 -20
q49 -37 57 -131q6 -70 -1.5 -151t-24.5 -188t-22 -153q-1 -8 -2.5 -21.5t-3 -35t-1.5 -42t1 -38.5t5.5 -28.5t12.5 -9.5q4 1 8.5 6.5t10 18t10 24t13 35t14.5 39.5q25 63 74 204.5t92.5 247.5t94.5 193q85 143 187 148q62 4 99 -41q30 -37 14 -72q-41 41 -101.5 -6.5
t-121.5 -136.5q34 -20 85.5 -23t106 7.5t124 30.5t131 41.5t136 44t130.5 35.5q46 10 93 14t96.5 -3.5t84.5 -27t50.5 -62t0.5 -103.5q-17 110 -385 44q31 -19 31 -50.5t-21 -81.5q-52 -126 -154 -414q-24 -68 -65 -76q-31 -7 -44 26q-3 6 -4 13q-37 -48 -79 -57.5t-67 23
t-16 93.5q4 33 12 71q7 34 15 64q6 24 11 38q-20 -20 -46 -60q-17 -26 -51 -84q-38 -68 -47 -87q-27 -58 -68 -71q-35 -11 -45 20q-6 19 1 47q1 2 4.5 18.5t5.5 25.5q-32 -48 -52 -68q-55 -54 -94 -16t-22 128q9 50 20 87q9 31 29 91q1 2 5 13t6 17q17 52 52 56q28 3 41 -26
q11 -25 -2 -56q-39 -91 -53 -143q-32 -113 1 -85q37 32 122 191l7 14q1 3 3 9.5t3 10.5q21 60 38 96q14 30 41 33t43 -20t2 -56q-4 -10 -14 -30q-3 -6 -10.5 -23.5t-11.5 -26.5q-3 -7 -9.5 -20.5t-9.5 -19.5q-7 -16 -9 -23q16 29 36 57q23 33 38 52q26 32 39 45
q39 39 73.5 39t44.5 -35t-10 -98q-17 -44 -26 -76q-42 -135 -22 -135q17 1 79 90q14 19 36 58q6 17 149 400q-82 -16 -295 -65q-126 -29 -183 -23q-98 8 -116 95q-39 -60 -60 -103q-43 -88 -84 -186q-35 -83 -91 -236.5t-83 -220.5q-3 -8 -9 -22q107 16 469 84
q236 45 390 45t151 -60q-1 -14 -22.5 -55t-39 -74.5t-10.5 -35.5q10 -4 58 62q64 89 105 181.5t84 223.5q10 31 10 33q-10 -20 -36 -62q-63 -96 -101 -128q-37 -32 -67 -29q-34 4 -46 44.5t5 104.5q20 64 26 81q18 49 33 80q8 16 24 44q18 29 46 29t39 -22t-3 -51
q-6 -10 -21 -40q-23 -47 -33 -73q-37 -94 -18 -88q18 6 66 83q21 34 45 75q4 6 45 80q8 14 19.5 37t16.5 31zM795 404q21 15 26 47t-15.5 64t-67.5 40q-28 -98 9 -141q24 -25 48 -10zM2845 337q-13 -65 29 -63q43 3 103 64q48 49 69 102q-1 -9 -4.5 -24t-16.5 -54.5
t-30.5 -71.5t-49.5 -62t-70 -39q-42 -9 -75 9q-58 31 -55 119q2 34 8 60q12 49 29 90q18 44 44 87q24 40 51 72q32 36 71.5 46.5t67 -7t37.5 -56.5t-17 -102q-24 -55 -52.5 -84t-55.5 -31q-23 -2 -34.5 13t-0.5 38q6 -11 23 -6q30 9 57 73.5t8 73.5q-4 2 -15.5 -7.5t-31 -38
t-40.5 -69.5q-37 -72 -49 -132zM2737 608q25 -22 24.5 -74.5t-20 -109t-56.5 -108.5t-79 -74q-25 -13 -52.5 -13.5t-43.5 16.5t-5 51q16 -29 49 -9.5t60 70.5q45 85 53 154q5 40 -13 36q-19 -5 -56 -56q-31 -42 -64 -110q-95 -198 -143 -381q-13 -48 -44 -53q-27 -4 -39 28
q-13 32 3 80q24 74 72.5 211t66.5 191q7 19 22.5 65t23.5 68q4 12 10 30.5t10 28.5q10 30 34.5 34t39.5 -17t4 -53q-5 -14 -10 -30q25 29 55 40.5t55 6.5t43 -22zM1451 613q-22 0 -37.5 15.5t-15.5 37.5t15.5 37.5t37.5 15.5t37.5 -15.5t15.5 -37.5t-15.5 -37.5t-37.5 -15.5
zM1815 1221l-2 -50l-33 2l6 132l104 -5l-1 -29l-71 3l-1 -23l64 -4l-1 -29zM2360 1070l33 97l-38 13l10 28l107 -36l-10 -28l-38 13l-33 -98zM2011 1150q-29 5 -46.5 27.5t-13.5 50.5t28 45t53 12t46.5 -28t13.5 -51t-28 -44.5t-53 -11.5zM2027 1255q-15 2 -27.5 -7
t-14.5 -25t7 -29t24 -15t27.5 7.5t14.5 25.5t-7 28.5t-24 14.5zM2193 1198l-18 -77l-32 8l29 129l33 -8l39 -89l17 77l32 -8l-29 -129l-32 8zM1572 1170q-29 -2 -51 17t-23 47t18.5 49t48.5 23t51.5 -17t23.5 -47q2 -28 -18.5 -49.5t-49.5 -22.5zM1567 1277
q-15 -1 -25.5 -13t-9.5 -28t12.5 -27t26.5 -10t25.5 13t9.5 28t-12.5 27t-26.5 10zM1000 1064l-46 -16l-43 126l46 15q32 11 59 1t36 -38t-5.5 -52.5t-46.5 -35.5zM971 1163l-19 -7l23 -69l20 7q16 5 23 18.5t2 28.5t-19 21t-30 1zM1235 1129l-101 -23l-29 129l101 23l7 -29
l-70 -16l5 -20l63 15l6 -29l-63 -14l5 -23l70 16zM1330 1146l-32 -5l-20 131l32 5l48 -62l28 74l32 5l20 -131l-32 -5l-12 76l-27 -74l-48 62zM864 1070q-106 -44 -201 -96l-19 29q85 49 208 99zM2733 1003l-19 -29q-94 52 -201 96l13 32q119 -49 207 -99z" />
    <glyph glyph-name="quotedbl" unicode="&#x22;" 
d="M2343 649q23 40 51 45t43 -21t5 -66q-118 -478 -278 -673q-3 -5 -10 -12l-9 -9q-32 -33 -72 -42.5t-65.5 5.5t-33.5 47.5t22 84.5q4 6 14.5 21.5t18 27.5t13.5 25.5t3 22t-15 11.5q-41 8 -164.5 -6t-260.5 -49q-36 -9 -143 -41q-98 -30 -155 -46t-169 -44.5t-184 -37
t-169.5 -17t-158.5 10t-117.5 49.5t-80 95t-15.5 154q17 -40 47.5 -70.5t73 -49t92.5 -29t112.5 -13t126.5 1t140 12.5q-26 19 -46.5 44.5t-27.5 47.5q-15 42 3 217q3 27 31 205.5t26 261.5q-1 47 -25 65t-56 6.5t-58 -42.5q-34 -41 -66 -121q-19 -46 -34 -101
q60 -23 89.5 -77.5t17.5 -112.5q-10 -47 -41.5 -72.5t-67 -26t-69 22t-48.5 63.5q-15 43 0 133q-27 -5 -169.5 -56t-215.5 -53q-69 -2 -115.5 41.5t-50.5 137.5q38 -48 118.5 -56t157 9t167.5 39t128 23l9 30q28 83 72 154t100 117q26 21 58.5 34t69.5 13t63 -20
q49 -37 57 -131q6 -70 -1.5 -151t-24.5 -188t-22 -153q-1 -8 -2.5 -21.5t-3 -35t-1.5 -42t1 -38.5t5.5 -28.5t12.5 -9.5q4 1 8.5 6.5t10 18t10 24t13 35t14.5 39.5q25 63 74 204.5t92.5 247.5t94.5 193q85 143 187 148q62 4 99 -41q30 -37 14 -72q-41 41 -101.5 -6.5
t-121.5 -136.5q34 -20 85.5 -23t106 7.5t124 30.5t131 41.5t136 44t130.5 35.5q46 10 93 14t97 -3.5t85 -27t50.5 -62t0.5 -103.5q-17 111 -386 44q31 -19 31 -50.5t-21 -81.5q-52 -126 -154 -414q-24 -68 -65 -76q-31 -7 -44 26q-3 6 -4 13q-37 -48 -79 -57.5t-67 23
t-16 93.5q4 33 12 71q7 34 15 64q6 24 11 38q-20 -20 -46 -60q-17 -26 -51 -84q-38 -68 -47 -87q-27 -58 -68 -71q-35 -11 -45 20q-6 19 1 47q1 2 4.5 18.5t5.5 25.5q-32 -48 -52 -68q-55 -54 -94 -16t-22 128q9 50 20 87q9 31 29 91q1 2 5 13t6 17q17 52 52 56q28 3 41 -26
q11 -25 -2 -56q-39 -91 -53 -143q-32 -113 1 -85q37 32 122 191l7 14q1 3 3 9.5t3 10.5q21 60 38 96q14 30 41 33t43 -20t2 -56q-4 -10 -14 -30q-3 -6 -10.5 -23.5t-11.5 -26.5q-3 -7 -9.5 -20.5t-9.5 -19.5q-7 -16 -9 -23q16 29 36 57q23 33 38 52q26 32 39 45
q39 39 73.5 39t44.5 -35t-10 -98q-17 -44 -26 -76q-42 -133 -23 -135q16 -1 79 90q18 26 37 58q6 17 149 400q-82 -16 -295 -65q-126 -29 -183 -23q-98 8 -116 95q-39 -60 -60 -103q-43 -88 -84 -186q-35 -83 -91 -236.5t-83 -220.5q-3 -8 -9 -22q107 16 469 84
q236 45 390 45t151 -60q-1 -14 -22.5 -55t-39 -74.5t-10.5 -35.5q10 -4 58 62q64 89 105 181.5t84 223.5q10 31 10 33q-10 -20 -36 -62q-19 -29 -31.5 -47t-38 -50t-51 -47.5t-47.5 -12.5q-33 4 -45.5 44.5t5.5 104.5q25 80 25 81q18 49 33 80q8 16 24 44q18 29 46 29
t39 -22t-3 -51q-6 -10 -21 -40q-23 -47 -33 -73q-37 -94 -18 -88q18 6 66 83q21 34 45 75q4 6 45 80q8 14 19.5 37t16.5 31zM795 404q21 15 26 47t-15.5 64t-67.5 40q-28 -98 9 -141q24 -25 48 -10zM2845 337q-13 -65 29 -63q43 3 103 64q48 49 69 102q-1 -9 -4.5 -24
t-16.5 -54.5t-30.5 -71.5t-49.5 -62t-70 -39q-42 -9 -75 9q-58 31 -55 119q2 34 8 60q12 49 29 90q18 44 44 87q24 40 51 72q32 36 71.5 46.5t67 -7t37.5 -56.5t-17 -102q-24 -55 -52.5 -84t-55.5 -31q-23 -2 -34.5 13t-0.5 38q6 -11 23 -6q30 9 57 73.5t8 73.5
q-4 2 -15.5 -7.5t-31 -38t-40.5 -69.5q-37 -72 -49 -132zM2737 608q25 -22 24.5 -74.5t-20 -109t-56.5 -108.5t-79 -74q-25 -13 -52.5 -13.5t-44 16.5t-5.5 51q16 -29 49.5 -9.5t60.5 70.5q45 85 53 154q5 40 -13 36q-19 -5 -56 -56q-31 -42 -64 -110q-95 -198 -143 -381
q-12 -48 -43 -53q-28 -4 -41 28t3 80q24 73 72.5 209t67.5 193q7 19 22.5 65t23.5 68q4 12 10 30.5t10 28.5q10 30 34.5 34t39.5 -17t4 -53l-10 -30q25 29 55 40.5t55 6.5t43 -22zM1451 613q-22 0 -37.5 15.5t-15.5 37.5t15.5 37.5t37.5 15.5t37.5 -15.5t15.5 -37.5
t-15.5 -37.5t-37.5 -15.5zM2011 1150q-29 5 -46.5 27.5t-13.5 50.5t28 45t53 12t46.5 -28t13.5 -51t-28 -44.5t-53 -11.5zM2027 1255q-15 2 -28 -7t-15 -25t7.5 -29t24.5 -15t27.5 7.5t14.5 25.5t-7 28.5t-24 14.5zM2193 1198l-18 -77l-32 8l29 129l32 -8l39 -89l18 77
l32 -8l-29 -129l-32 8zM2360 1070l33 97l-38 13l10 28l107 -36l-10 -28l-38 13l-33 -98zM1815 1221l-2 -50l-33 2l6 132l104 -5l-1 -29l-71 3l-1 -23l64 -4l-1 -29zM1000 1064l-46 -16l-43 126l46 15q32 11 59 1t36 -38t-5.5 -52.5t-46.5 -35.5zM971 1163l-19 -7l23 -69
l20 7q16 5 23 18.5t2 28.5t-19 21t-30 1zM1572 1170q-29 -2 -51 17t-23 47t18.5 49t48.5 23t51.5 -17t23.5 -47q2 -28 -18.5 -49.5t-49.5 -22.5zM1567 1277q-15 -1 -25.5 -13t-9.5 -28t12.5 -27t26.5 -10t25.5 13t9.5 28t-12.5 27t-26.5 10zM1235 1129l-101 -23l-29 129
l101 23l7 -29l-70 -16l5 -20l63 15l6 -29l-63 -14l5 -23l70 16zM1330 1146l-32 -5l-20 131l32 5l48 -62l28 74l32 5l20 -131l-32 -5l-12 76l-27 -74l-48 62zM864 1070q-106 -44 -201 -96l-19 29q85 49 208 99zM2733 1003l-19 -29q-94 52 -201 96l12 32q123 -50 208 -99z" />
    <glyph glyph-name="numbersign" unicode="#" 
d="M2343 649q17 30 38.5 40t37 1.5t23 -31.5t0.5 -53q-118 -476 -278 -672q-3 -5 -10 -12l-9 -9q-32 -33 -72 -42.5t-65.5 5.5t-33.5 47.5t22 84.5q4 6 14.5 21.5t18 27.5t13.5 25.5t3 22t-15 11.5q-41 8 -164.5 -6t-260.5 -49q-36 -9 -143 -41q-98 -30 -155 -46t-169 -44.5
t-184 -37t-169.5 -17t-158.5 10t-117.5 49.5t-80 95t-15.5 154q17 -40 47.5 -70.5t73 -49t92.5 -29t112.5 -13t126.5 1t140 12.5q-26 19 -46.5 44.5t-27.5 47.5q-15 42 3 217q3 27 31 205.5t26 261.5q-1 47 -25 65t-56 6.5t-58 -42.5q-34 -41 -66 -121q-19 -46 -34 -101
q60 -23 89.5 -77.5t17.5 -112.5q-10 -47 -41.5 -72.5t-67 -26t-69.5 22t-49 63.5q-14 41 1 133q-27 -5 -169.5 -56t-215.5 -53q-69 -2 -115.5 41.5t-50.5 137.5q38 -48 118.5 -56t157 9t167.5 39t128 23l9 30q28 83 72 154t100 117q26 21 58.5 34t69.5 13t63 -20
q49 -37 57 -131q6 -70 -1.5 -151t-24.5 -188t-22 -153q-1 -8 -2.5 -21.5t-3 -35t-1.5 -42t1 -38.5t5.5 -28.5t12.5 -9.5q4 1 8.5 6.5t10 18t10 24t13 35t14.5 39.5q25 63 74 204.5t92.5 247.5t94.5 193q85 143 187 148q62 4 99 -41q30 -37 14 -72q-41 41 -101.5 -6.5
t-121.5 -136.5q34 -20 85.5 -23t106 7.5t124 30.5t131 41.5t136 44t130.5 35.5q46 10 93 14t97 -3.5t85 -27t50.5 -62t0.5 -103.5q-17 111 -386 44q31 -19 31 -50.5t-21 -81.5q-52 -126 -154 -414q-24 -68 -65 -76q-31 -7 -44 26q-3 6 -4 13q-37 -48 -79 -57.5t-67 23
t-16 93.5q4 33 12 71q7 34 15 64q6 24 11 38q-20 -20 -46 -60q-17 -26 -51 -84q-38 -68 -47 -87q-27 -58 -68 -71q-35 -11 -45 20q-6 19 1 47q1 2 4.5 18.5t5.5 25.5q-32 -48 -52 -68q-55 -54 -94 -16t-22 128q9 50 20 87q9 31 29 91q1 2 5 13t6 17q17 52 52 56q28 3 41 -26
q11 -25 -2 -56q-39 -91 -53 -143q-32 -113 1 -85q37 32 122 191l7 14q1 3 3 9.5t3 10.5q21 60 38 96q14 30 41 33t43 -20t2 -56q-4 -10 -14 -30q-3 -6 -10.5 -23.5t-11.5 -26.5q-3 -7 -9.5 -20.5t-9.5 -19.5q-7 -16 -9 -23q16 29 36 57q23 33 38 52q26 32 39 45
q39 39 73.5 39t44.5 -35t-10 -98q-17 -44 -26 -76q-42 -135 -22 -135q17 1 79 90q14 19 36 58q6 17 149 400q-82 -16 -295 -65q-126 -29 -183 -23q-98 8 -116 95q-39 -60 -60 -103q-43 -88 -84 -186q-35 -83 -91 -236.5t-83 -220.5q-3 -8 -9 -22q107 16 469 84
q236 45 390 45t151 -60q-1 -14 -22.5 -55t-39 -74.5t-10.5 -35.5q10 -4 58 62q64 89 105 181.5t84 223.5q10 31 10 33q-10 -20 -36 -62q-63 -96 -101 -128q-37 -32 -67 -29q-33 4 -45.5 44.5t5.5 104.5q25 80 25 81q18 49 33 80q8 16 24 44q18 29 46 29t39 -22t-3 -51
q-6 -10 -21 -40q-23 -47 -33 -73q-37 -94 -18 -88q18 6 66 83q21 34 45 75q4 6 45 80q8 14 19.5 37t16.5 31zM795 404q21 15 26 47t-15.5 64t-67.5 40q-28 -98 9 -141q24 -25 48 -10zM2845 337q-13 -65 29 -63q43 3 103 64q48 49 69 102q-1 -9 -4.5 -24t-16.5 -54.5
t-30.5 -71.5t-49.5 -62t-70 -39q-42 -9 -75 9q-58 31 -55 119q2 34 8 60q12 49 29 90q18 44 44 87q24 40 51 72q32 36 71.5 46.5t67 -7t37.5 -56.5t-17 -102q-24 -55 -52.5 -84t-55.5 -31q-23 -2 -34.5 13t-0.5 38q6 -11 23 -6q30 9 57 73.5t8 73.5q-4 2 -15.5 -7.5t-31 -38
t-40.5 -69.5q-37 -72 -49 -132zM2737 608q25 -22 24.5 -74.5t-20 -109t-56.5 -108.5t-79 -74q-25 -13 -52.5 -13.5t-43.5 16.5t-5 51q16 -29 49 -9.5t60 70.5q45 85 53 154q5 40 -13 36q-19 -5 -56 -56q-31 -42 -64 -110q-95 -198 -143 -381q-12 -48 -43 -53q-28 -4 -41 28
t3 80q24 73 72.5 209t67.5 193q7 19 22.5 65t23.5 68q4 12 10 30.5t10 28.5q10 30 34.5 34t39.5 -17t4 -53q-5 -14 -10 -30q25 29 55 40.5t55 6.5t43 -22zM1451 613q-22 0 -37.5 15.5t-15.5 37.5t15.5 37.5t37.5 15.5t37.5 -15.5t15.5 -37.5t-15.5 -37.5t-37.5 -15.5z
M2360 1070l33 97l-38 13l10 28l107 -36l-10 -28l-38 13l-33 -98zM2193 1198l-18 -77l-32 8l29 129l33 -8l39 -89l17 77l32 -8l-29 -129l-32 8zM2011 1150q-29 5 -46.5 27.5t-13.5 50.5t28 45t53 12t46.5 -28t13.5 -51t-28 -44.5t-53 -11.5zM2027 1255q-15 2 -27.5 -7
t-14.5 -25t7 -29t24 -15t27.5 7.5t14.5 25.5t-7 28.5t-24 14.5zM1815 1221l-2 -50l-33 2l6 132l104 -5l-1 -29l-71 3l-1 -23l64 -4l-1 -29zM1572 1170q-29 -2 -51 17t-23 47t18.5 49t48.5 23t51.5 -17t23.5 -47q2 -28 -18.5 -49.5t-49.5 -22.5zM1567 1277q-15 -1 -25.5 -13
t-9.5 -28t12.5 -27t26.5 -10t25.5 13t9.5 28t-12.5 27t-26.5 10zM1000 1064l-46 -16l-43 126l46 15q32 11 59 1t36 -38t-5.5 -52.5t-46.5 -35.5zM971 1163l-19 -7l23 -69l20 7q16 5 23 18.5t2 28.5t-19 21t-30 1zM1235 1129l-101 -23l-29 129l101 23l7 -29l-70 -16l5 -20
l63 15l6 -29l-63 -14l5 -23l70 16zM1330 1146l-32 -5l-20 131l32 5l48 -62l28 74l32 5l20 -131l-32 -5l-12 76l-27 -74l-48 62zM864 1070q-106 -44 -201 -96l-19 29q85 49 208 99zM2733 1003l-19 -29q-94 52 -201 96l13 32q119 -49 207 -99z" />
    <glyph glyph-name="dollar" unicode="$" 
d="M2343 649q23 40 51 45t43 -21t5 -66q-118 -478 -278 -673q-3 -5 -10 -12l-9 -9q-32 -33 -72 -42.5t-65.5 5.5t-33.5 47.5t22 84.5q4 6 14.5 21.5t18 27.5t13.5 25.5t3 22t-15 11.5q-41 8 -164.5 -6t-260.5 -49q-36 -9 -143 -41q-98 -30 -155 -46t-169 -44.5t-184 -37
t-169.5 -17t-158.5 10t-117.5 49.5t-80 95t-15.5 154q17 -40 47.5 -70.5t73 -49t92.5 -29t112.5 -13t126.5 1t140 12.5q-26 19 -46.5 44.5t-27.5 47.5q-15 42 3 217q3 27 31 205.5t26 261.5q-1 47 -25 65t-56 6.5t-58 -42.5q-34 -41 -66 -121q-19 -46 -34 -101
q60 -23 89.5 -77.5t17.5 -112.5q-10 -47 -41.5 -72.5t-67 -26t-69.5 22t-49 63.5q-14 41 1 133q-27 -5 -169.5 -56t-215.5 -53q-69 -2 -115.5 41.5t-50.5 137.5q38 -48 118.5 -56t157 9t167.5 39t128 23l9 30q28 83 72 154t100 117q26 21 58.5 34t69.5 13t63 -20
q49 -37 57 -131q6 -70 -1.5 -151t-24.5 -188t-22 -153q-1 -8 -2.5 -21.5t-3 -35t-1.5 -42t1 -38.5t5.5 -28.5t12.5 -9.5q4 1 8.5 6.5t10 18t10 24t13 35t14.5 39.5q25 63 74 204.5t92.5 247.5t94.5 193q85 143 187 148q62 4 99 -41q30 -37 14 -72q-41 41 -101.5 -6.5
t-121.5 -136.5q34 -20 85.5 -23t106 7.5t124 30.5t131 41.5t136 44t130.5 35.5q46 10 93 14t96.5 -3.5t84.5 -27t50.5 -62t0.5 -103.5q-17 110 -385 44q31 -19 31 -50.5t-21 -81.5q-52 -126 -154 -414q-24 -68 -65 -76q-31 -7 -44 26q-3 6 -4 13q-37 -48 -79 -57.5t-67 23
t-16 93.5q4 33 12 71q7 34 15 64q6 24 11 38q-20 -20 -46 -60q-17 -26 -51 -84q-38 -68 -47 -87q-27 -58 -68 -71q-35 -11 -45 20q-6 19 1 47q1 2 4.5 18.5t5.5 25.5q-32 -48 -52 -68q-55 -54 -94 -16t-22 128q9 50 20 87q9 31 29 91q1 2 5 13t6 17q17 52 52 56q28 3 41 -26
q11 -25 -2 -56q-39 -91 -53 -143q-32 -113 1 -85q37 32 122 191l7 14q1 3 3 9.5t3 10.5q21 60 38 96q14 30 41 33t43 -20t2 -56q-4 -10 -14 -30q-3 -6 -10.5 -23.5t-11.5 -26.5q-3 -7 -9.5 -20.5t-9.5 -19.5q-7 -16 -9 -23q16 29 36 57q23 33 38 52q26 32 39 45
q39 39 73.5 39t44.5 -35t-10 -98q-17 -44 -26 -76q-42 -133 -23 -135q16 -1 79 90q18 26 37 58q6 17 149 400q-82 -16 -295 -65q-126 -29 -183 -23q-98 8 -116 95q-39 -60 -60 -103q-43 -88 -84 -186q-35 -83 -91 -236.5t-83 -220.5q-3 -8 -9 -22q107 16 469 84
q236 45 390 45t151 -60q-1 -14 -22.5 -55t-39 -74.5t-10.5 -35.5q10 -4 58 62q64 89 105 181.5t84 223.5q10 31 10 33q-10 -20 -36 -62q-63 -96 -101 -128q-37 -32 -67 -29q-33 4 -45.5 44.5t5.5 104.5q25 80 25 81q18 49 33 80q8 16 24 44q18 29 46 29t39 -22t-3 -51
q-6 -10 -21 -40q-23 -47 -33 -73q-37 -94 -18 -88q18 6 66 83q21 34 45 75q4 6 45 80q8 14 19.5 37t16.5 31zM795 404q21 15 26 47t-15.5 64t-67.5 40q-28 -98 9 -141q24 -25 48 -10zM2845 337q-13 -65 29 -63q43 3 103 64q48 49 69 102q-1 -9 -4.5 -24t-16.5 -54.5
t-30.5 -71.5t-49.5 -62t-70 -39q-42 -9 -75 9q-58 31 -55 119q2 34 8 60q11 43 30 90q21 49 43 87q24 40 51 72q25 29 56.5 41.5t57.5 7t45 -26t19.5 -57t-18.5 -84.5q-24 -55 -53 -84t-56 -31q-23 -2 -34.5 13t-0.5 38q6 -11 23 -6q30 9 57 73.5t8 73.5q-4 2 -15.5 -7.5
t-31 -38t-40.5 -69.5q-37 -72 -49 -132zM2737 608q25 -22 24.5 -74.5t-20 -109t-56.5 -108.5t-79 -74q-25 -13 -52.5 -13.5t-43.5 16.5t-5 51q16 -29 49 -9.5t60 70.5q45 85 53 154q5 40 -13 36q-19 -5 -56 -56q-31 -42 -64 -110q-95 -198 -143 -381q-13 -48 -44 -53
q-27 -4 -39 28q-13 32 3 80q24 74 72.5 211t66.5 191q7 19 22.5 65t23.5 68q4 12 10 30.5t10 28.5q10 30 34.5 34t39.5 -17t4 -53q-5 -14 -10 -30q25 29 55 40.5t55 6.5t43 -22zM1451 613q-22 0 -37.5 15.5t-15.5 37.5t15.5 37.5t37.5 15.5t37.5 -15.5t15.5 -37.5
t-15.5 -37.5t-37.5 -15.5zM2011 1150q-29 5 -46.5 27.5t-13.5 50.5t28 45t53 12t46.5 -28t13.5 -51t-28 -44.5t-53 -11.5zM2027 1255q-15 2 -27.5 -7t-14.5 -25t7 -29t24 -15t27.5 7.5t14.5 25.5t-7 28.5t-24 14.5zM1815 1221l-2 -50l-33 2l6 132l104 -5l-1 -29l-71 3
l-1 -23l64 -4l-1 -29zM2193 1198l-18 -77l-32 8l29 129l33 -8l39 -89l17 77l32 -8l-29 -129l-32 8zM2360 1070l33 97l-38 13l10 28l107 -36l-10 -28l-37 13l-34 -98zM1572 1170q-29 -2 -51 17t-23 47t18.5 49t48.5 23t51.5 -17t23.5 -47q2 -28 -18.5 -49.5t-49.5 -22.5z
M1567 1277q-15 -1 -25.5 -13t-9.5 -28t12.5 -27t26.5 -10t25.5 13t9.5 28t-12.5 27t-26.5 10zM1235 1129l-101 -23l-29 129l101 23l7 -29l-70 -16l5 -20l63 15l6 -29l-63 -14l5 -23l70 16zM1330 1146l-32 -5l-20 131l32 5l48 -62l28 74l32 5l20 -131l-32 -5l-12 76l-27 -74
l-48 62zM1000 1064l-46 -16l-43 126l46 15q32 11 59 1t36 -38t-5.5 -52.5t-46.5 -35.5zM971 1163l-19 -7l23 -69l20 7q16 5 23 18.5t2 28.5t-19 21t-30 1zM864 1070q-106 -44 -201 -96l-19 29q85 49 208 99zM2733 1003l-19 -29q-94 52 -201 96l13 32q119 -49 207 -99z" />
    <glyph glyph-name="percent" unicode="%" 
d="M2343 649q23 40 51 45t43 -21.5t5 -66.5q-118 -475 -279 -672q-3 -5 -10 -12l-9 -9q-26 -27 -57 -38.5t-56 -6t-42 21.5t-16 48t23 70q4 6 14.5 21.5t18 27.5t13.5 25.5t3 22t-15 11.5q-41 8 -164.5 -6t-260.5 -49q-36 -9 -143 -41q-98 -30 -155 -46t-169 -44.5t-184 -37
t-169.5 -17t-158.5 10t-117.5 49.5t-80 95t-15.5 154q17 -40 47.5 -70.5t73 -49t92.5 -29t112.5 -13t126.5 1t140 12.5q-26 19 -46.5 44.5t-27.5 47.5q-15 42 3 217q3 27 31 205.5t26 261.5q-1 47 -25 65t-56 6.5t-58 -42.5q-34 -41 -66 -121q-19 -46 -34 -101
q60 -23 89.5 -77.5t17.5 -112.5q-10 -47 -41.5 -72.5t-67 -26t-69.5 22t-49 63.5q-14 41 1 133q-27 -5 -169.5 -56t-215.5 -53q-69 -2 -115.5 41.5t-50.5 137.5q38 -48 118.5 -56t157 9t167.5 39t128 23l9 30q28 83 72 154q43 69 100 116q26 21 58.5 34.5t69.5 13.5t63 -20
q49 -37 57 -131q6 -70 -1.5 -151t-24.5 -188t-22 -153q-1 -8 -2.5 -21.5t-3 -35t-1.5 -42t1 -38.5t5.5 -28.5t12.5 -9.5q4 1 8.5 6.5t10 18t10 24t13 35t14.5 39.5q25 63 74 204.5t92.5 247.5t94.5 193q85 143 187 148q62 4 99 -41q30 -37 14 -72q-41 41 -101.5 -6.5
t-121.5 -136.5q34 -20 85.5 -23t106 7.5t124 30.5t131 41.5t136 44t130.5 35.5q46 10 93 14t96.5 -3.5t84.5 -27t50.5 -62t0.5 -103.5q-17 110 -385 44q31 -19 31 -50.5t-21 -81.5q-52 -126 -154 -414q-24 -68 -65 -76q-31 -7 -44 26q-3 6 -4 13q-37 -48 -79 -57.5t-67 23
t-16 93.5q4 33 12 71q7 34 15 64q6 24 11 38q-20 -20 -46 -60q-17 -26 -51 -84q-38 -68 -47 -87q-27 -58 -68 -71q-35 -11 -45 20q-6 19 1 47q1 2 4.5 18.5t5.5 25.5q-32 -48 -52 -68q-55 -54 -94 -16t-22 128q9 50 20 87q9 31 29 91q1 2 5 13t6 17q17 52 52 56q28 3 41 -26
q11 -25 -2 -56q-39 -91 -53 -143q-32 -113 1 -85q37 32 122 191l7 14q1 3 3 9.5t3 10.5q21 60 38 96q14 30 41 33t43 -20t2 -56q-4 -10 -14 -30q-3 -6 -10.5 -23.5t-11.5 -26.5q-3 -7 -9.5 -20.5t-9.5 -19.5q-7 -16 -9 -23q16 29 36 57q23 33 38 52q26 32 39 45
q39 39 73.5 39t44.5 -35t-10 -98q-17 -44 -26 -76q-42 -135 -22 -135q17 1 79 90q14 19 36 58q6 17 149 400q-82 -16 -295 -65q-126 -29 -183 -23q-98 8 -116 95q-39 -60 -60 -103q-43 -88 -84 -186q-35 -83 -91 -236.5t-83 -220.5q-3 -8 -9 -22q107 16 469 84
q236 45 390 45t151 -60q-1 -14 -22.5 -55t-39 -74.5t-10.5 -35.5q10 -4 58 62q64 89 105 181.5t84 223.5q10 31 10 33q-10 -20 -36 -62q-63 -96 -101 -128q-37 -32 -67 -29q-34 4 -46 44.5t5 104.5q20 64 26 81q18 49 33 80q8 16 24 44q18 29 46 29t39 -22t-3 -51
q-6 -10 -21 -40q-23 -47 -33 -73q-37 -94 -18 -88q18 6 66 83q21 34 45 75q4 6 45 80q8 14 19.5 37t16.5 31zM795 404q21 15 26 47t-15.5 64t-67.5 40q-28 -98 9 -141q24 -25 48 -10zM2845 337q-13 -65 29 -63q43 3 103 64q48 49 69 102q-1 -9 -4.5 -24t-16.5 -54.5
t-30.5 -71.5t-49.5 -62t-70 -39q-42 -9 -75 9q-58 31 -55 119q2 34 8 60q11 43 30 90q21 49 43 87q24 40 51 72q25 29 56.5 41.5t57.5 7t45 -26t19.5 -57t-18.5 -84.5q-24 -55 -53 -84t-56 -31q-23 -2 -34.5 13t-0.5 38q6 -11 23 -6q30 9 57 73.5t8 73.5q-4 2 -15.5 -7.5
t-31 -38t-40.5 -69.5q-37 -72 -49 -132zM2737 608q25 -22 24.5 -74.5t-20 -109t-56.5 -108.5t-79 -74q-25 -13 -52.5 -13.5t-43.5 16.5t-5 51q16 -29 49 -9.5t60 70.5q45 85 53 154q5 40 -13 36q-19 -5 -56 -56q-31 -42 -64 -110q-95 -198 -143 -381q-13 -48 -44 -53
q-27 -4 -39 28q-13 32 3 80q24 74 72.5 211t66.5 191q7 19 22.5 65t23.5 68q4 12 10 30.5t10 28.5q10 30 34.5 34t39.5 -17t4 -53q-5 -14 -10 -30q25 29 55 40.5t55 6.5t43 -22zM1451 613q-22 0 -37.5 15.5t-15.5 37.5t15.5 37.5t37.5 15.5t37.5 -15.5t15.5 -37.5
t-15.5 -37.5t-37.5 -15.5zM1815 1221l-2 -50l-33 2l6 132l104 -5l-1 -29l-71 3l-1 -23l64 -4l-1 -29zM2193 1198l-18 -77l-32 8l29 129l33 -8l39 -89l17 77l32 -8l-29 -129l-32 8zM2011 1150q-29 5 -46.5 27.5t-13.5 50.5t28 45t53 12t46.5 -28t13.5 -51t-28 -44.5
t-53 -11.5zM2027 1255q-15 2 -27.5 -7t-14.5 -25t7 -29t24 -15t27.5 7.5t14.5 25.5t-7 28.5t-24 14.5zM2360 1070l33 97l-38 13l10 28l107 -36l-10 -28l-38 13l-33 -98zM1000 1064l-46 -16l-43 126l46 15q32 11 59 1t36 -38t-5.5 -52.5t-46.5 -35.5zM971 1163l-19 -7l23 -69
l20 7q16 5 23 18.5t2 28.5t-19 21t-30 1zM1235 1129l-101 -23l-29 129l101 23l7 -29l-70 -16l5 -20l63 15l6 -29l-63 -14l5 -23l70 16zM1330 1146l-32 -5l-20 131l32 5l48 -62l28 74l32 5l20 -131l-32 -5l-12 76l-27 -74l-48 62zM1572 1170q-29 -2 -51 17t-23 47t18.5 49
t48.5 23t51.5 -17t23.5 -47q2 -28 -18.5 -49.5t-49.5 -22.5zM1567 1277q-15 -1 -25.5 -13t-9.5 -28t12.5 -27t26.5 -10t25.5 13t9.5 28t-12.5 27t-26.5 10zM864 1070q-106 -44 -201 -96l-19 29q85 49 208 99zM2733 1003l-19 -29q-94 52 -201 96l13 32q119 -49 207 -99z" />
    <glyph glyph-name="ampersand" unicode="&#x26;" 
d="M2343 649q17 30 38.5 40t37 1.5t23 -31.5t0.5 -53q-118 -475 -279 -672q-3 -5 -10 -12l-9 -9q-26 -27 -57 -38.5t-56 -6t-42 21.5t-16 48t23 70q4 6 14.5 21.5t18 27.5t13.5 25.5t3 22t-15 11.5q-41 8 -164.5 -6t-260.5 -49q-36 -9 -143 -41q-98 -30 -155 -46t-169 -44.5
t-184 -37t-169.5 -17t-158.5 10t-117.5 49.5t-80 95t-15.5 154q17 -40 47.5 -70.5t73 -49t92.5 -29t112.5 -13t126.5 1t140 12.5q-26 19 -46.5 44.5t-27.5 47.5q-15 42 3 217q3 27 31 205.5t26 261.5q-1 47 -25 65t-56 6.5t-58 -42.5q-34 -41 -66 -121q-19 -46 -34 -101
q60 -23 89.5 -77.5t17.5 -112.5q-10 -47 -41.5 -72.5t-67 -26t-69.5 22t-49 63.5q-14 41 1 133q-27 -5 -169.5 -56t-215.5 -53q-69 -2 -115.5 41.5t-50.5 137.5q38 -48 118.5 -56t157 9t167.5 39t128 23l9 30q28 83 72 154q43 69 100 116q26 21 58.5 34.5t69.5 13.5t63 -20
q49 -37 57 -131q6 -70 -1.5 -151t-24.5 -188t-22 -153q-1 -8 -2.5 -21.5t-3 -35t-1.5 -42t1 -38.5t5.5 -28.5t12.5 -9.5q4 1 8.5 6.5t10 18t10 24t13 35t14.5 39.5q25 63 74 204.5t92.5 247.5t94.5 193q85 143 187 148q62 4 99 -41q30 -37 14 -72q-41 41 -101.5 -6.5
t-121.5 -136.5q34 -20 85.5 -23t106 7.5t124 30.5t131 41.5t136 44t130.5 35.5q46 10 93 14t96.5 -3.5t84.5 -27t50.5 -62t0.5 -103.5q-17 110 -385 44q31 -19 31 -50.5t-21 -81.5q-52 -126 -154 -414q-24 -68 -65 -76q-31 -7 -44 26q-3 6 -4 13q-37 -48 -79 -57.5t-67 23
t-16 93.5q4 33 12 71q7 34 15 64q6 24 11 38q-20 -20 -46 -60q-17 -26 -51 -84q-38 -68 -47 -87q-27 -58 -68 -71q-35 -11 -45 20q-6 19 1 47q1 2 4.5 18.5t5.5 25.5q-32 -48 -52 -68q-55 -54 -94 -16t-22 128q9 50 20 87q9 31 29 91q1 2 5 13t6 17q17 52 52 56q28 3 41 -26
q11 -25 -2 -56q-39 -91 -53 -143q-32 -113 1 -85q37 32 122 191l7 14q1 3 3 9.5t3 10.5q21 60 38 96q14 30 41 33t43 -20t2 -56q-4 -10 -14 -30q-3 -6 -10.5 -23.5t-11.5 -26.5q-3 -7 -9.5 -20.5t-9.5 -19.5q-7 -16 -9 -23q16 29 36 57q23 33 38 52q26 32 39 45
q39 39 73.5 39t44.5 -35t-10 -98q-17 -44 -26 -76q-42 -135 -22 -135q17 1 79 90q14 19 36 58q6 17 149 400q-82 -16 -295 -65q-126 -29 -183 -23q-98 8 -116 95q-39 -60 -60 -103q-43 -88 -84 -186q-35 -83 -91 -236.5t-83 -220.5q-3 -8 -9 -22q107 16 469 84
q236 45 390 45t151 -60q-1 -14 -22.5 -55t-39 -74.5t-10.5 -35.5q10 -4 58 62q64 89 105 181.5t84 223.5q10 31 10 33q-10 -20 -36 -62q-63 -96 -101 -128q-37 -32 -67 -29q-34 4 -46 44.5t5 104.5q20 64 26 81q18 49 33 80q8 16 24 44q18 29 46 29t39 -22t-3 -51
q-6 -10 -21 -40q-23 -47 -33 -73q-37 -94 -18 -88q18 6 66 83q21 34 45 75q4 6 45 80q8 14 19.5 37t16.5 31zM795 404q21 15 26 47t-15.5 64t-67.5 40q-28 -98 9 -141q24 -25 48 -10zM2845 337q-13 -65 29 -63q43 3 103 64q48 49 69 102q-1 -9 -4.5 -24t-16.5 -54.5
t-30.5 -71.5t-49.5 -62t-70 -39q-42 -9 -75 9q-58 31 -55 119q2 34 8 60q12 49 29 90q18 44 44 87q24 40 51 72q32 36 71.5 46.5t67 -7t37.5 -56.5t-17 -102q-24 -55 -52.5 -84t-55.5 -31q-23 -2 -34.5 13t-0.5 38q6 -11 23 -6q30 9 57 73.5t8 73.5q-4 2 -15.5 -7.5t-31 -38
t-40.5 -69.5q-37 -72 -49 -132zM2737 608q25 -22 24.5 -74.5t-20 -109t-56.5 -108.5t-79 -74q-25 -13 -52.5 -13.5t-44 16.5t-5.5 51q16 -29 49.5 -9.5t60.5 70.5q45 85 53 154q5 40 -13 36q-19 -5 -56 -56q-31 -42 -64 -110q-95 -198 -143 -381q-12 -48 -43 -53
q-28 -4 -41 28t3 80q24 73 72.5 209t67.5 193q7 19 22.5 65t23.5 68q4 12 10 30.5t10 28.5q10 30 34.5 34t39.5 -17t4 -53q-5 -14 -10 -30q25 29 55 40.5t55 6.5t43 -22zM1451 613q-22 0 -37.5 15.5t-15.5 37.5t15.5 37.5t37.5 15.5t37.5 -15.5t15.5 -37.5t-15.5 -37.5
t-37.5 -15.5zM2011 1150q-29 5 -46.5 27.5t-13.5 50.5t28 45t53 12t46.5 -28t13.5 -51t-28 -44.5t-53 -11.5zM2027 1255q-15 2 -27.5 -7t-14.5 -25t7 -29t24 -15t27.5 7.5t14.5 25.5t-7 28.5t-24 14.5zM2193 1198l-18 -77l-32 8l29 129l32 -8l40 -89l17 77l32 -8l-29 -129
l-32 8zM2360 1070l33 97l-38 13l10 28l107 -36l-10 -28l-38 13l-33 -98zM1815 1221l-2 -50l-33 2l6 132l104 -5l-1 -29l-71 3l-1 -23l64 -4l-1 -29zM1000 1064l-46 -16l-43 126l46 15q32 11 59 1t36 -38t-5.5 -52.5t-46.5 -35.5zM971 1163l-19 -7l23 -69l20 7q16 5 23 18.5
t2 28.5t-19 21t-30 1zM1572 1170q-29 -2 -51 17t-23 47t18.5 49t48.5 23t51.5 -17t23.5 -47q2 -28 -18.5 -49.5t-49.5 -22.5zM1567 1277q-15 -1 -26 -13t-10 -28t13 -27t27 -10t25.5 13t9.5 28t-12.5 27t-26.5 10zM1235 1129l-101 -23l-29 129l101 23l7 -29l-70 -16l5 -20
l63 15l6 -29l-63 -14l5 -23l70 16zM1330 1146l-32 -5l-20 131l32 5l48 -62l28 74l32 5l20 -131l-32 -5l-12 76l-27 -74l-48 62zM864 1070q-106 -44 -201 -96l-19 29q85 49 208 99zM2733 1003l-19 -29q-94 52 -201 96l12 32q123 -50 208 -99z" />
    <glyph glyph-name="quotesingle" unicode="'" 
d="M2343 649q23 40 51 45t43 -21.5t5 -66.5q-118 -475 -279 -672q-3 -5 -10 -12l-9 -9q-26 -27 -57 -38.5t-56 -6t-42 21.5t-16 48t23 70q4 6 14.5 21.5t18 27.5t13.5 25.5t3 22t-15 11.5q-41 8 -164.5 -6t-260.5 -49q-36 -9 -143 -41q-98 -30 -155 -46t-169 -44.5t-184 -37
t-169.5 -17t-158.5 10t-117.5 49.5t-80 95t-15.5 154q17 -40 47.5 -70.5t73 -49t92.5 -29t112.5 -13t126.5 1t140 12.5q-26 19 -46.5 44.5t-27.5 47.5q-15 42 3 217q3 27 31 205.5t26 261.5q-1 47 -25 65t-56 6.5t-58 -42.5q-34 -41 -66 -121q-19 -46 -34 -101
q60 -23 89.5 -77.5t17.5 -112.5q-10 -47 -41.5 -72.5t-67 -26t-69.5 22t-49 63.5q-14 41 1 133q-27 -5 -169.5 -56t-215.5 -53q-69 -2 -115.5 41.5t-50.5 137.5q38 -48 118.5 -56t157 9t167.5 39t128 23l9 30q28 83 72 154t100 117q26 21 58.5 34t69.5 13t63 -20
q49 -37 57 -131q6 -70 -1.5 -151t-24.5 -188t-22 -153q-1 -8 -2.5 -21.5t-3 -35t-1.5 -42t1 -38.5t5.5 -28.5t12.5 -9.5q4 1 8.5 6.5t10 18t10 24t13 35t14.5 39.5q25 63 74 204.5t92.5 247.5t94.5 193q85 143 187 148q62 4 99 -41q30 -37 14 -72q-41 41 -101.5 -6.5
t-121.5 -136.5q34 -20 85.5 -23t106 7.5t124 30.5t131 41.5t136 44t130.5 35.5q46 10 93 14t96.5 -3.5t84.5 -27t50.5 -62t0.5 -103.5q-17 110 -385 44q31 -19 31 -50.5t-21 -81.5q-52 -126 -154 -414q-24 -68 -65 -76q-31 -7 -44 26q-3 6 -4 13q-37 -48 -79 -57.5t-67 23
t-16 93.5q4 33 12 71q7 34 15 64q6 24 11 38q-20 -20 -46 -60q-27 -41 -52 -84q-34 -59 -46 -87q-27 -58 -68 -71q-35 -11 -45 20q-6 19 1 47q1 2 4.5 18.5t5.5 25.5q-32 -48 -52 -68q-55 -54 -94 -16t-22 128q9 50 20 87q9 31 29 91q1 2 5 13t6 17q17 52 52 56q28 3 41 -26
q11 -25 -2 -56q-39 -91 -53 -143q-32 -113 1 -85q37 32 122 191l7 14q1 3 3 9.5t3 10.5q21 60 38 96q14 30 41 33t43 -20t2 -56q-4 -10 -14 -30q-7 -15 -23 -50q-4 -9 -10.5 -23t-7.5 -17q-7 -16 -9 -23q16 29 36 57q23 33 38 52q26 32 39 45q39 39 73.5 39t44.5 -35
t-10 -98q-17 -44 -26 -76q-42 -133 -23 -135q16 -1 79 90q18 26 37 58q6 17 149 400q-82 -16 -295 -65q-126 -29 -183 -23q-98 8 -116 95q-39 -60 -60 -103q-43 -88 -84 -186q-35 -83 -91 -236.5t-83 -220.5q-2 -5 -5.5 -12.5t-4.5 -9.5q111 16 470 84q236 45 390 45
t151 -60q-1 -14 -22.5 -55t-39 -74.5t-10.5 -35.5q10 -4 58 62q64 89 105 181.5t84 223.5q10 31 10 33q-10 -20 -36 -62q-63 -96 -101 -128q-37 -32 -67 -29q-33 4 -45.5 44.5t5.5 104.5q25 80 25 81q18 49 33 80q8 16 24 44q18 29 46 29t39 -22t-3 -51q-6 -10 -21 -40
q-23 -47 -33 -73q-37 -94 -18 -88q18 6 66 83q21 34 45 75q4 6 45 80q8 14 19.5 37t16.5 31zM795 404q21 15 26.5 47t-15 64t-67.5 40q-28 -99 9 -142q23 -25 47 -9zM2845 337q-13 -66 30 -63q44 3 104 65q47 48 68 101q-1 -9 -4.5 -24t-16.5 -54.5t-30.5 -71.5t-49.5 -62
t-70 -39q-42 -9 -76 9q-58 31 -55 119q2 34 8 60q11 43 30 90q21 49 43 87q22 37 52 72q32 36 71.5 46.5t67 -7t37.5 -56.5t-17 -102q-24 -55 -53 -84t-56 -31q-23 -2 -34.5 13t-0.5 38q6 -11 23 -6q30 9 57 73.5t8 73.5q-4 2 -15.5 -7.5t-31 -38t-40.5 -69.5
q-37 -72 -49 -132zM2737 608q25 -22 24.5 -74.5t-20 -109t-56.5 -108.5t-79 -74q-25 -13 -52.5 -13.5t-43.5 16.5t-5 51q16 -29 49 -9.5t60 70.5q45 85 53 154q5 40 -13 36q-19 -5 -56 -56q-31 -42 -64 -110q-95 -198 -143 -381q-13 -48 -44 -53q-27 -4 -39 28q-13 32 3 80
q24 74 72.5 211t66.5 191q7 19 22.5 65t23.5 68q4 12 10 30.5t10 28.5q10 30 34.5 34t39.5 -17t4 -53q-2 -5 -9 -30q25 29 54.5 40.5t54.5 6.5t43 -22zM1451 613q-22 0 -37.5 15.5t-15.5 37.5t15.5 37.5t37.5 15.5t37.5 -15.5t15.5 -37.5t-15.5 -37.5t-37.5 -15.5z
M1815 1221l-2 -50l-33 2l6 132l105 -5l-2 -29l-71 3l-1 -23l64 -4l-1 -29zM2193 1198l-17 -77l-33 8l29 129l33 -8l39 -89l17 77l32 -8l-29 -129l-32 8zM2011 1150q-29 5 -46.5 27.5t-13.5 50.5t28 45t53 12t46.5 -28t13.5 -51t-28 -44.5t-53 -11.5zM2027 1255
q-15 2 -27.5 -7t-14.5 -25t7 -29t24 -15t27.5 7.5t14.5 25.5t-7 28.5t-24 14.5zM2360 1070l33 97l-38 13l10 28l107 -36l-10 -28l-37 13l-34 -98zM1000 1064l-46 -16l-43 126l46 15q32 11 59 1t36 -38t-5.5 -52.5t-46.5 -35.5zM971 1163l-19 -7l24 -69l19 7q16 5 23 18.5
t2 28.5t-19 21t-30 1zM1235 1129l-101 -23l-29 129l101 23l7 -29l-70 -16l5 -20l63 15l6 -29l-63 -14l5 -23l70 16zM1572 1170q-29 -2 -51 17t-23 47t18.5 49t48.5 23t51.5 -17t23.5 -47q2 -28 -18.5 -49.5t-49.5 -22.5zM1567 1277q-15 -1 -25.5 -13t-9.5 -28t12.5 -27
t26.5 -10t25.5 13t9.5 28t-12.5 27t-26.5 10zM1330 1146l-32 -5l-20 131l32 5l48 -62l28 74l32 5l20 -131l-32 -5l-12 76l-27 -74l-48 62zM864 1070q-106 -44 -201 -96l-19 29q85 49 208 99zM2733 1003l-19 -29q-94 52 -201 96l13 32q119 -49 207 -99z" />
    <glyph glyph-name="parenleft" unicode="(" 
d="M2343 649q17 30 38.5 40t37 1.5t23 -31.5t0.5 -53q-118 -475 -279 -672q-3 -5 -10 -12l-9 -9q-26 -27 -57 -38.5t-56 -6t-42 21.5t-16 48t23 70q4 6 14.5 21.5t18 27.5t13.5 25.5t3 22t-15 11.5q-41 8 -164.5 -6t-260.5 -49q-36 -9 -143 -41q-98 -30 -155 -46t-169 -44.5
t-184 -37t-169.5 -17t-158.5 10t-117.5 49.5t-80 95t-15.5 154q17 -40 47.5 -70.5t73 -49t92.5 -29t112.5 -13t126.5 1t140 12.5q-26 19 -46.5 44.5t-27.5 47.5q-15 42 3 217q3 27 31 205.5t26 261.5q-1 47 -25 65t-56 6.5t-58 -42.5q-34 -41 -66 -121q-19 -46 -34 -101
q60 -23 89.5 -77.5t17.5 -112.5q-10 -47 -41.5 -72.5t-67 -26t-69.5 22t-49 63.5q-14 41 1 133q-27 -5 -169.5 -56t-215.5 -53q-69 -2 -115.5 41.5t-50.5 137.5q38 -48 118.5 -56t157 9t167.5 39t128 23l9 30q28 83 72 154q43 69 100 116q26 21 58.5 34.5t69.5 13.5t63 -20
q49 -37 57 -131q6 -70 -1.5 -151t-24.5 -188t-22 -153q-1 -8 -2.5 -21.5t-3 -35t-1.5 -42t1 -38.5t5.5 -28.5t12.5 -9.5q4 1 8.5 6.5t10 18t10 24t13 35t14.5 39.5q25 63 74 204.5t92.5 247.5t94.5 193q85 143 187 148q62 4 99 -41q30 -37 14 -72q-41 41 -101.5 -6.5
t-121.5 -136.5q34 -20 85.5 -23t106 7.5t124 30.5t131 41.5t136 44t130.5 35.5q46 10 93 14t96.5 -3.5t84.5 -27t50.5 -62t0.5 -103.5q-17 110 -385 44q31 -19 31 -50.5t-21 -81.5q-52 -126 -154 -414q-24 -68 -65 -76q-31 -7 -44 26q-3 6 -4 13q-37 -48 -79 -57.5t-67 23
t-16 93.5q4 33 12 71q7 34 15 64q6 24 11 38q-20 -20 -46 -60q-17 -26 -51 -84q-38 -68 -47 -87q-27 -58 -68 -71q-35 -11 -45 20q-6 19 1 47q1 2 4.5 18.5t5.5 25.5q-32 -48 -52 -68q-55 -54 -94 -16t-22 128q9 50 20 87q9 31 29 91q1 2 5 13t6 17q17 52 52 56q28 3 41 -26
q11 -25 -2 -56q-39 -91 -53 -143q-32 -113 1 -85q37 32 122 191l7 14q1 3 3 9.5t3 10.5q21 60 38 96q14 30 41 33t43 -20t2 -56q-4 -10 -14 -30q-3 -6 -10.5 -23.5t-11.5 -26.5q-3 -7 -9.5 -20.5t-9.5 -19.5q-7 -16 -9 -23q16 29 36 57q23 33 38 52q26 32 39 45
q39 39 73.5 39t44.5 -35t-10 -98q-17 -44 -26 -76q-42 -135 -22 -135q17 1 79 90q14 19 36 58q6 17 149 400q-82 -16 -295 -65q-126 -29 -183 -23q-98 8 -116 95q-39 -60 -60 -103q-43 -88 -84 -186q-35 -83 -91 -236.5t-83 -220.5q-3 -8 -9 -22q107 16 469 84
q236 45 390 45t151 -60q-1 -14 -22.5 -55t-39 -74.5t-10.5 -35.5q10 -4 58 62q64 89 105 181.5t84 223.5q10 31 10 33q-10 -20 -36 -62q-63 -96 -101 -128q-37 -32 -67 -29q-34 4 -46 44.5t5 104.5q20 64 26 81q18 49 33 80q8 16 24 44q18 29 46 29t39 -22t-3 -51
q-6 -10 -21 -40q-23 -47 -33 -73q-37 -94 -18 -88q18 6 66 83q21 34 45 75q4 6 45 80q8 14 19.5 37t16.5 31zM795 404q21 15 26 47t-15.5 64t-67.5 40q-28 -98 9 -141q24 -25 48 -10zM2845 337q-13 -65 29 -63q43 3 103 64q48 49 69 102q-1 -9 -4.5 -24t-16.5 -54.5
t-30.5 -71.5t-49.5 -62t-70 -39q-42 -9 -75 9q-58 31 -55 119q2 34 8 60q12 49 29 90q18 44 44 87q24 40 51 72q32 36 71.5 46.5t67 -7t37.5 -56.5t-17 -102q-24 -55 -52.5 -84t-55.5 -31q-23 -2 -34.5 13t-0.5 38q6 -11 23 -6q30 9 57 73.5t8 73.5q-4 2 -15.5 -7.5t-31 -38
t-40.5 -69.5q-37 -72 -49 -132zM2737 608q25 -22 24.5 -74.5t-20 -109t-56.5 -108.5t-79 -74q-25 -13 -52.5 -13.5t-44 16.5t-5.5 51q16 -29 49.5 -9.5t60.5 70.5q45 85 53 154q5 40 -13 36q-19 -5 -56 -56q-31 -42 -64 -110q-95 -198 -143 -381q-12 -48 -43 -53
q-28 -4 -41 28t3 80q24 73 72.5 209t67.5 193q7 19 22.5 65t23.5 68q4 12 10 30.5t10 28.5q10 30 34.5 34t39.5 -17t4 -53q-5 -14 -10 -30q25 29 55 40.5t55 6.5t43 -22zM1451 613q-22 0 -37.5 15.5t-15.5 37.5t15.5 37.5t37.5 15.5t37.5 -15.5t15.5 -37.5t-15.5 -37.5
t-37.5 -15.5zM1000 1064l-46 -16l-43 126l46 15q32 11 58.5 1t35.5 -38t-5 -52.5t-46 -35.5zM971 1163l-19 -7l23 -69l20 7q16 5 23 18.5t2 28.5t-19 21t-30 1zM2193 1198l-18 -77l-32 8l29 129l32 -8l39 -89l18 77l32 -8l-29 -129l-32 8zM2360 1070l33 97l-38 13l10 28
l107 -36l-10 -28l-38 13l-33 -98zM2011 1150q-29 5 -46.5 27.5t-13.5 50.5t28 45t53 12t46.5 -28t13.5 -51t-28 -44.5t-53 -11.5zM2027 1255q-15 2 -28 -7t-15 -25t7.5 -29t24.5 -15t27.5 7.5t14.5 25.5t-7 28.5t-24 14.5zM1572 1170q-29 -2 -51 17t-23 47t18.5 49t48.5 23
t51.5 -17t23.5 -47q2 -28 -18.5 -49.5t-49.5 -22.5zM1567 1277q-15 -1 -25.5 -13t-9.5 -28t12.5 -27t26.5 -10t25.5 13t9.5 28t-12.5 27t-26.5 10zM1330 1146l-32 -5l-20 131l32 5l48 -62l28 74l32 5l20 -131l-32 -5l-12 76l-27 -74l-48 62zM1815 1221l-2 -50l-33 2l6 132
l104 -5l-1 -29l-71 3l-1 -23l64 -4l-1 -29zM1235 1129l-101 -23l-29 129l101 23l7 -29l-70 -16l5 -20l63 15l6 -29l-63 -14l5 -23l70 16zM864 1070q-106 -44 -201 -96l-19 29q85 49 208 99zM2733 1003l-19 -29q-94 52 -201 96l12 32q123 -50 208 -99z" />
    <glyph glyph-name="parenright" unicode=")" 
d="M2343 649q23 40 51 45t43 -21t5 -66q-118 -478 -278 -673q-3 -5 -10 -12l-9 -9q-32 -33 -72 -42.5t-65.5 5.5t-33.5 47.5t22 84.5q4 6 14.5 21.5t18 27.5t13.5 25.5t3 22t-15 11.5q-41 8 -164.5 -6t-260.5 -49q-36 -9 -143 -41q-98 -30 -155 -46t-169 -44.5t-184 -37
t-169.5 -17t-158.5 10t-117.5 49.5t-80 95t-15.5 154q17 -40 47.5 -70.5t73 -49t92.5 -29t112.5 -13t126.5 1t140 12.5q-26 19 -46.5 44.5t-27.5 47.5q-15 42 3 217q3 27 31 205.5t26 261.5q-1 47 -25 65t-56 6.5t-58 -42.5q-34 -41 -66 -121q-19 -46 -34 -101
q60 -23 89.5 -77.5t17.5 -112.5q-10 -47 -41.5 -72.5t-67 -26t-69.5 22t-49 63.5q-14 41 1 133q-27 -5 -169.5 -56t-215.5 -53q-69 -2 -115.5 41.5t-50.5 137.5q38 -48 118.5 -56t157 9t167.5 39t128 23l9 30q28 83 72 154t100 117q26 21 58.5 34t69.5 13t63 -20
q49 -37 57 -131q6 -70 -1.5 -151t-24.5 -188t-22 -153q-1 -8 -2.5 -21.5t-3 -35t-1.5 -42t1 -38.5t5.5 -28.5t12.5 -9.5q4 1 8.5 6.5t10 18t10 24t13 35t14.5 39.5q25 63 74 204.5t92.5 247.5t94.5 193q85 143 187 148q62 4 99 -41q30 -37 14 -72q-41 41 -101.5 -6.5
t-121.5 -136.5q34 -20 85.5 -23t106 7.5t124 30.5t131 41.5t136 44t130.5 35.5q46 10 93 14t96.5 -3.5t84.5 -27t50.5 -62t0.5 -103.5q-17 110 -385 44q31 -19 31 -50.5t-21 -81.5q-52 -126 -154 -414q-24 -68 -65 -76q-31 -7 -44 26q-3 6 -4 13q-37 -48 -79 -57.5t-67 23
t-16 93.5q4 33 12 71q7 34 15 64q6 24 11 38q-20 -20 -46 -60q-27 -41 -52 -84q-34 -59 -46 -87q-27 -58 -68 -71q-35 -11 -45 20q-6 19 1 47q1 2 4.5 18.5t5.5 25.5q-32 -48 -52 -68q-55 -54 -94 -16t-22 128q9 50 20 87q9 31 29 91q1 2 5 13t6 17q17 52 52 56q28 3 41 -26
q11 -25 -2 -56q-39 -91 -53 -143q-32 -113 1 -85q37 32 122 191l7 14q1 3 3 9.5t3 10.5q21 60 38 96q14 30 41 33t43 -20t2 -56q-4 -10 -14 -30q-3 -6 -10.5 -23.5t-11.5 -26.5q-3 -7 -9.5 -20.5t-9.5 -19.5q-7 -16 -9 -23q16 29 36 57q23 33 38 52q26 32 39 45
q39 39 73.5 39t44.5 -35t-10 -98q-17 -44 -26 -76q-42 -133 -23 -135q16 -1 79 90q18 26 37 58q6 17 149 400q-82 -16 -295 -65q-126 -29 -183 -23q-98 8 -116 95q-39 -60 -60 -103q-43 -88 -84 -186q-35 -83 -91 -236.5t-83 -220.5q-2 -5 -5.5 -12.5t-4.5 -9.5
q111 16 470 84q236 45 390 45t151 -60q-1 -14 -22.5 -55t-39 -74.5t-10.5 -35.5q10 -4 58 62q64 89 105 181.5t84 223.5q10 31 10 33q-10 -20 -36 -62q-63 -96 -101 -128q-37 -32 -67 -29q-33 4 -45.5 44.5t5.5 104.5q25 80 25 81q18 49 33 80q8 16 24 44q18 29 46 29
t39 -22t-3 -51q-6 -10 -21 -40q-23 -47 -33 -73q-37 -94 -18 -88q18 6 66 83q21 34 45 75q4 6 45 80q8 14 19.5 37t16.5 31zM795 404q21 15 26 47t-15.5 64t-67.5 40q-28 -98 9 -141q24 -25 48 -10zM2845 337q-13 -65 29 -63q43 3 103 64q48 49 69 102q-1 -9 -4.5 -24
t-16.5 -54.5t-30.5 -71.5t-49.5 -62t-70 -39q-42 -9 -75 9q-58 31 -55 119q2 34 8 60q11 43 30 90q21 49 43 87q24 40 51 72q32 36 71.5 46.5t67 -7t37.5 -56.5t-17 -102q-24 -55 -52.5 -84t-55.5 -31q-23 -2 -34.5 13t-0.5 38q6 -11 23 -6q30 9 57 73.5t8 73.5
q-4 2 -15.5 -7.5t-31 -38t-40.5 -69.5q-37 -72 -49 -132zM2737 608q25 -22 24.5 -74.5t-20 -109t-56.5 -108.5t-79 -74q-25 -13 -52.5 -13.5t-43.5 16.5t-5 51q16 -29 49 -9.5t60 70.5q45 85 53 154q5 40 -13 36q-19 -5 -56 -56q-31 -42 -64 -110q-95 -198 -143 -381
q-13 -48 -44 -53q-27 -4 -39 28q-13 32 3 80q24 74 72.5 211t66.5 191q7 19 22.5 65t23.5 68q4 12 10 30.5t10 28.5q10 30 34.5 34t39.5 -17t4 -53q-5 -14 -10 -30q25 29 55 40.5t55 6.5t43 -22zM1451 613q-22 0 -37.5 15.5t-15.5 37.5t15.5 37.5t37.5 15.5t37.5 -15.5
t15.5 -37.5t-15.5 -37.5t-37.5 -15.5zM2193 1198l-18 -77l-32 8l29 129l33 -8l39 -89l17 77l32 -8l-29 -129l-32 8zM2011 1150q-29 5 -46.5 27.5t-13.5 50.5t28 45t53 12t46.5 -28t13.5 -51t-28 -44.5t-53 -11.5zM2027 1255q-15 2 -27.5 -7t-14.5 -25t7 -29t24 -15t27.5 7.5
t14.5 25.5t-7 28.5t-24 14.5zM2360 1070l33 97l-38 13l10 28l107 -36l-10 -28l-38 13l-33 -98zM1815 1221l-2 -50l-33 2l6 132l104 -5l-1 -29l-71 3l-1 -23l64 -4l-1 -29zM1235 1129l-101 -23l-29 129l101 23l7 -29l-70 -16l5 -20l63 15l6 -29l-63 -14l5 -23l70 16z
M1000 1064l-46 -16l-43 126l46 15q32 11 59 1t36 -38t-5.5 -52.5t-46.5 -35.5zM971 1163l-19 -7l23 -69l20 7q16 5 23 18.5t2 28.5t-19 21t-30 1zM1330 1146l-32 -5l-20 131l32 5l48 -62l28 74l32 5l20 -131l-32 -5l-12 76l-27 -74l-48 62zM1572 1170q-29 -2 -51 17t-23 47
t18.5 49t48.5 23t51.5 -17t23.5 -47q2 -28 -18.5 -49.5t-49.5 -22.5zM1567 1277q-15 -1 -25.5 -13t-9.5 -28t12.5 -27t26.5 -10t25.5 13t9.5 28t-12.5 27t-26.5 10zM864 1070q-106 -44 -201 -96l-19 29q85 49 208 99zM2733 1003l-19 -29q-94 52 -201 96l13 32
q119 -49 207 -99z" />
    <glyph glyph-name="asterisk" unicode="*" 
d="M2343 649q23 40 51 45t43 -21t5 -66q-118 -476 -279 -673q-3 -5 -10 -12l-9 -9q-26 -27 -57 -38.5t-56 -6t-42 21.5t-16 48t23 70q4 6 14.5 21.5t18 27.5t13.5 25.5t3 22t-15 11.5q-41 8 -164.5 -6t-260.5 -49q-36 -9 -143 -41q-98 -30 -155 -46t-169 -44.5t-184 -37
t-169.5 -17t-158.5 10t-117.5 49.5t-80 95t-15.5 154q17 -40 47.5 -70.5t73 -49t92.5 -29t112.5 -13t126.5 1t140 12.5q-26 19 -46.5 44.5t-27.5 47.5q-15 42 3 217q3 27 31 205.5t26 261.5q-1 47 -25 65t-56 6.5t-58 -42.5q-34 -41 -66 -121q-19 -46 -34 -101
q60 -23 89.5 -77.5t17.5 -112.5q-10 -47 -41.5 -72.5t-67 -26t-69.5 22t-49 63.5q-14 41 1 133q-27 -5 -169.5 -56t-215.5 -53q-69 -2 -115.5 41.5t-50.5 137.5q38 -48 118.5 -56t157 9t167.5 39t128 23l9 30q28 83 72 154t100 117q26 21 58.5 34t69.5 13t63 -20
q49 -37 57 -131q6 -70 -1.5 -151t-24.5 -188t-22 -153q-1 -8 -2.5 -21.5t-3 -35t-1.5 -42t1 -38.5t5.5 -28.5t12.5 -9.5q4 1 8.5 6.5t10 18t10 24t13 35t14.5 39.5q25 63 74 204.5t92.5 247.5t94.5 193q85 143 187 148q62 4 99 -41q30 -37 14 -72q-41 41 -101.5 -6.5
t-121.5 -136.5q34 -20 85.5 -23t106 7.5t124 30.5t131 41.5t136 44t130.5 35.5q46 10 93 14t96.5 -3.5t84.5 -27t50.5 -62t0.5 -103.5q-17 110 -385 44q31 -19 31 -50.5t-21 -81.5q-52 -126 -154 -414q-24 -68 -65 -76q-31 -7 -44 26q-3 6 -4 13q-37 -48 -79 -57.5t-67 23
t-16 93.5q4 33 12 71q7 34 15 64q6 24 11 38q-20 -20 -46 -60q-27 -41 -52 -84q-34 -59 -46 -87q-27 -58 -68 -71q-35 -11 -45 20q-6 19 1 47q1 2 4.5 18.5t5.5 25.5q-32 -48 -52 -68q-55 -54 -94 -16t-22 128q9 50 20 87q9 31 29 91q1 2 5 13t6 17q17 52 52 56q28 3 41 -26
q11 -25 -2 -56q-39 -91 -53 -143q-32 -113 1 -85q37 32 122 191l7 14q1 3 3 9.5t3 10.5q21 60 38 96q14 30 41 33t43 -20t2 -56q-4 -10 -14 -30q-7 -15 -23 -50q-4 -9 -10.5 -23t-7.5 -17q-7 -16 -9 -23q16 29 36 57q23 33 38 52q26 32 39 45q39 39 73.5 39t44.5 -35
t-10 -98q-17 -44 -26 -76q-42 -133 -23 -135q16 -1 79 90q18 26 37 58q6 17 149 400q-82 -16 -295 -65q-126 -29 -183 -23q-98 8 -116 95q-39 -60 -60 -103q-43 -88 -84 -186q-35 -83 -91 -236.5t-83 -220.5q-2 -5 -5.5 -12.5t-4.5 -9.5q111 16 470 84q236 45 390 45
t151 -60q-1 -14 -22.5 -55t-39 -74.5t-10.5 -35.5q10 -4 58 62q64 89 105 181.5t84 223.5q10 31 10 33q-10 -20 -36 -62q-63 -96 -101 -128q-37 -32 -67 -29q-34 4 -46 44.5t5 104.5q20 64 26 81q18 49 33 80q8 16 24 44q18 29 46 29t39 -22t-3 -51q-6 -10 -21 -40
q-23 -47 -33 -73q-37 -94 -18 -88q18 6 66 83q21 34 45 75q4 6 45 80q8 14 19.5 37t16.5 31zM795 404q21 15 26 47t-15.5 64t-67.5 40q-28 -98 9 -141q24 -25 48 -10zM2845 337q-13 -65 29 -63q43 3 103 64q48 49 69 102q-1 -9 -4.5 -24t-16.5 -54.5t-30.5 -71.5t-49.5 -62
t-70 -39q-42 -9 -75 9q-58 31 -55 119q2 34 8 60q11 43 30 90q21 49 43 87q24 40 51 72q25 29 56.5 41.5t57.5 7t45 -26t19.5 -57t-18.5 -84.5q-24 -55 -53 -84t-56 -31q-23 -2 -34.5 13t-0.5 38q6 -11 23 -6q30 9 57 73.5t8 73.5q-4 2 -15.5 -7.5t-31 -38t-40.5 -69.5
q-37 -72 -49 -132zM2737 608q25 -22 24.5 -74.5t-20 -109t-56.5 -108.5t-79 -74q-25 -13 -52.5 -13.5t-43.5 16.5t-5 51q16 -29 49 -9.5t60 70.5q45 85 53 154q5 40 -13 36q-19 -5 -56 -56q-31 -42 -64 -110q-95 -198 -143 -381q-13 -48 -44 -53q-27 -4 -39 28q-13 32 3 80
q24 74 72.5 211t66.5 191q7 19 22.5 65t23.5 68q4 12 10 30.5t10 28.5q10 30 34.5 34t39.5 -17t4 -53q-5 -14 -10 -30q25 29 55 40.5t55 6.5t43 -22zM1451 613q-22 0 -37.5 15.5t-15.5 37.5t15.5 37.5t37.5 15.5t37.5 -15.5t15.5 -37.5t-15.5 -37.5t-37.5 -15.5zM1815 1221
l-2 -50l-33 2l6 132l104 -5l-1 -29l-71 3l-1 -23l64 -4l-1 -29zM2011 1150q-29 5 -46.5 27.5t-13.5 50.5t28 45t53 12t46.5 -28t13.5 -51t-28 -44.5t-53 -11.5zM2027 1255q-15 2 -27.5 -7t-14.5 -25t7 -29t24 -15t27.5 7.5t14.5 25.5t-7 28.5t-24 14.5zM2193 1198l-18 -77
l-32 8l29 129l33 -8l39 -89l17 77l32 -8l-29 -129l-32 8zM2360 1070l33 97l-38 13l10 28l107 -36l-10 -28l-38 13l-33 -98zM1572 1170q-29 -2 -51 17t-23 47t18.5 49t48.5 23t51.5 -17t23.5 -47q2 -28 -18.5 -49.5t-49.5 -22.5zM1567 1277q-15 -1 -25.5 -13t-9.5 -28
t12.5 -27t26.5 -10t25.5 13t9.5 28t-12.5 27t-26.5 10zM1330 1146l-32 -5l-20 131l32 5l48 -62l28 74l32 5l20 -131l-32 -5l-12 76l-27 -74l-48 62zM1000 1064l-46 -16l-43 126l46 15q32 11 59 1t36 -38t-5.5 -52.5t-46.5 -35.5zM971 1163l-19 -7l23 -69l20 7q16 5 23 18.5
t2 28.5t-19 21t-30 1zM1235 1129l-101 -23l-29 129l101 23l7 -29l-70 -16l5 -20l63 15l6 -29l-63 -14l5 -23l70 16zM864 1070q-106 -44 -201 -96l-19 29q85 49 208 99zM2733 1003l-19 -29q-94 52 -201 96l13 32q119 -49 207 -99z" />
    <glyph glyph-name="plus" unicode="+" 
d="M2343 649q23 40 51 45t43 -21t5 -66q-118 -478 -278 -673q-3 -5 -10 -12l-9 -9q-32 -33 -72 -42.5t-65.5 5.5t-33.5 47.5t22 84.5q4 6 14.5 21.5t18 27.5t13.5 25.5t3 22t-15 11.5q-41 8 -164.5 -6t-260.5 -49q-36 -9 -143 -41q-98 -30 -155 -46t-169 -44.5t-184 -37
t-169.5 -17t-158.5 10t-117.5 49.5t-80 95t-15.5 154q17 -40 47.5 -70.5t73 -49t92.5 -29t112.5 -13t126.5 1t140 12.5q-26 19 -46.5 44.5t-27.5 47.5q-15 42 3 217q3 27 31 205.5t26 261.5q-1 47 -25 65t-56 6.5t-58 -42.5q-34 -41 -66 -121q-19 -46 -34 -101
q60 -23 89.5 -77.5t17.5 -112.5q-10 -47 -41.5 -72.5t-67 -26t-69.5 22t-49 63.5q-14 41 1 133q-27 -5 -169.5 -56t-215.5 -53q-69 -2 -115.5 41.5t-50.5 137.5q38 -48 118.5 -56t157 9t167.5 39t128 23l9 30q29 86 71 154q43 70 101 117q26 21 58.5 34t69 13t62.5 -20
q50 -38 58 -131q6 -70 -1.5 -151t-24.5 -188t-22 -153q-1 -8 -2.5 -21.5t-3 -35t-1.5 -42t1 -38.5t5.5 -28.5t12.5 -9.5q4 1 8.5 6.5t10 18t10 24t13 35t14.5 39.5q25 63 74 204.5t92.5 247.5t94.5 193q85 143 187 148q62 4 99 -41q30 -37 14 -72q-41 41 -101.5 -6.5
t-121.5 -136.5q34 -20 85.5 -23t106 7.5t124 30.5t131 41.5t136 44t130.5 35.5q46 10 93 14t96.5 -3.5t84.5 -27t50.5 -62t0.5 -103.5q-17 110 -385 44q31 -19 31 -50.5t-21 -81.5q-52 -126 -154 -414q-24 -68 -65 -76q-31 -7 -44 26q-3 6 -4 13q-37 -48 -79 -57.5t-67 23
t-16 93.5q4 33 12 71q7 34 15 64q6 24 11 38q-20 -20 -46 -60q-27 -41 -52 -84q-34 -59 -46 -87q-27 -58 -68 -71q-35 -11 -45 20q-6 19 1 47q1 2 4.5 18.5t5.5 25.5q-32 -48 -52 -68q-55 -54 -94 -16t-22 128q9 50 20 87q9 31 29 91q1 2 5 13t6 17q17 52 52 56q28 3 41 -26
q11 -25 -2 -56q-39 -91 -53 -143q-32 -113 1 -85q37 32 122 191l7 14q1 3 3 9.5t3 10.5q21 60 38 96q14 30 41 33t43 -20t2 -56q-4 -10 -14 -30q-3 -6 -10.5 -23.5t-11.5 -26.5q-3 -7 -9.5 -20.5t-9.5 -19.5q-7 -16 -9 -23q16 29 36 57q23 33 38 52q26 32 39 45
q39 39 73.5 39t44.5 -35t-10 -98q-17 -44 -26 -76q-42 -133 -23 -135q16 -1 79 90q18 26 37 58q6 17 149 400q-82 -16 -295 -65q-126 -29 -183 -23q-98 8 -116 95q-39 -60 -60 -103q-43 -88 -84 -186q-35 -83 -91 -236.5t-83 -220.5q-2 -5 -5.5 -12.5t-4.5 -9.5
q111 16 470 84q236 45 390 45t151 -60q-1 -14 -22.5 -55t-39 -74.5t-10.5 -35.5q10 -4 58 62q64 89 105 181.5t84 223.5q10 31 10 33q-10 -20 -36 -62q-19 -29 -31.5 -47t-38 -50t-51 -47.5t-47.5 -12.5q-33 4 -45.5 44.5t5.5 104.5q25 80 25 81q18 49 33 80q8 16 24 44
q18 29 46 29t39 -22t-3 -51q-6 -10 -21 -40q-23 -47 -33 -73q-37 -94 -18 -88q18 6 66 83q21 34 45 75q4 6 45 80q8 14 19.5 37t16.5 31zM795 404q21 15 26 47t-15.5 64t-67.5 40q-28 -98 9 -141q24 -25 48 -10zM2845 337q-13 -65 29 -63q43 3 103 64q48 49 69 102
q-1 -9 -4.5 -24t-16.5 -54.5t-30.5 -71.5t-49.5 -62t-70 -39q-42 -9 -75 9q-58 31 -55 119q2 34 8 60q12 49 29 90q18 44 44 87q24 40 51 72q32 36 71.5 46.5t67 -7t37.5 -56.5t-17 -102q-24 -55 -52.5 -84t-55.5 -31q-23 -2 -34.5 13t-0.5 38q6 -11 23 -6q30 9 57 73.5
t8 73.5q-4 2 -15.5 -7.5t-31 -38t-40.5 -69.5q-37 -72 -49 -132zM2737 608q25 -22 24.5 -74.5t-20 -109t-56.5 -108.5t-79 -74q-25 -13 -52.5 -13.5t-44 16.5t-5.5 51q16 -29 49.5 -9.5t60.5 70.5q45 85 53 154q5 40 -13 36q-19 -5 -56 -56q-31 -42 -64 -110
q-95 -198 -143 -381q-12 -48 -43 -53q-28 -4 -41 28t3 80q24 73 72.5 209t67.5 193q7 19 22.5 65t23.5 68q4 12 10 30.5t10 28.5q10 30 34.5 34t39.5 -17t4 -53l-10 -30q25 29 55 40.5t55 6.5t43 -22zM1451 613q-22 0 -37.5 15.5t-15.5 37.5t15.5 37.5t37.5 15.5t37.5 -15.5
t15.5 -37.5t-15.5 -37.5t-37.5 -15.5zM2011 1150q-29 5 -46.5 27.5t-13.5 50.5t28 45t53 12t46.5 -28t13.5 -51t-28 -44.5t-53 -11.5zM2027 1255q-15 2 -27.5 -7t-14.5 -25t7 -29t24 -15t27.5 7.5t14.5 25.5t-7 28.5t-24 14.5zM1815 1221l-2 -50l-33 2l6 132l104 -5l-1 -29
l-71 3l-1 -23l64 -4l-1 -29zM2193 1198l-18 -77l-32 8l29 129l32 -8l39 -89l18 77l32 -8l-29 -129l-32 8zM1000 1064l-46 -16l-43 126l46 15q32 11 59 1t36 -38t-5.5 -52.5t-46.5 -35.5zM971 1163l-19 -7l23 -69l20 7q16 5 23 18.5t2 28.5t-19 21t-30 1zM1235 1129l-101 -23
l-29 129l101 23l7 -29l-70 -16l5 -20l63 15l6 -29l-63 -14l5 -23l70 16zM2360 1070l33 97l-38 13l10 28l107 -36l-10 -28l-38 13l-33 -98zM1572 1170q-29 -2 -51 17t-23 47t18.5 49t48.5 23t51.5 -17t23.5 -47q2 -28 -18.5 -49.5t-49.5 -22.5zM1567 1277q-15 -1 -26 -13
t-10 -28t13 -27t27 -10t25.5 13t9.5 28t-12.5 27t-26.5 10zM1330 1146l-32 -5l-20 131l32 5l48 -62l28 74l32 5l20 -131l-32 -5l-12 76l-27 -74l-48 62zM864 1070q-106 -44 -201 -96l-19 29q85 49 208 99zM2733 1003l-19 -29q-94 52 -201 96l12 32q123 -50 208 -99z" />
    <glyph glyph-name="comma" unicode="," 
d="M2343 649q23 40 51 45t43 -21t5 -66q-118 -476 -279 -673q-3 -5 -10 -12l-9 -9q-26 -27 -57 -38.5t-56 -6t-42 21.5t-16 48t23 70q4 6 14.5 21.5t18 27.5t13.5 25.5t3 22t-15 11.5q-41 8 -164.5 -6t-260.5 -49q-36 -9 -143 -41q-98 -30 -155 -46t-169 -44.5t-184 -37
t-169.5 -17t-158.5 10t-117.5 49.5t-80 95t-15.5 154q17 -40 47.5 -70.5t73 -49t92.5 -29t112.5 -13t126.5 1t140 12.5q-26 19 -46.5 44.5t-27.5 47.5q-15 42 3 217q3 27 31 205.5t26 261.5q-1 47 -25 65t-56 6.5t-58 -42.5q-34 -41 -66 -121q-19 -46 -34 -101
q60 -23 89.5 -77.5t17.5 -112.5q-10 -47 -41.5 -72.5t-67 -26t-69.5 22t-49 63.5q-14 41 1 133q-27 -5 -169.5 -56t-215.5 -53q-69 -2 -115.5 41.5t-50.5 137.5q38 -48 118.5 -56t157 9t167.5 39t128 23l9 30q28 83 72 154t100 117q26 21 58.5 34t69.5 13t63 -20
q49 -37 57 -131q6 -70 -1.5 -151t-24.5 -188t-22 -153q-1 -8 -2.5 -21.5t-3 -35t-1.5 -42t1 -38.5t5.5 -28.5t12.5 -9.5q4 1 8.5 6.5t10 18t10 24t13 35t14.5 39.5q25 63 74 204.5t92.5 247.5t94.5 193q85 143 187 148q62 4 99 -41q30 -37 14 -72q-41 41 -101.5 -6.5
t-121.5 -136.5q34 -20 85.5 -23t106 7.5t124 30.5t131 41.5t136 44t130.5 35.5q46 10 93 14t96.5 -3.5t84.5 -27t50.5 -62t0.5 -103.5q-17 110 -385 44q31 -19 31 -50.5t-21 -81.5q-52 -126 -154 -414q-24 -68 -65 -76q-31 -7 -44 26q-3 6 -4 13q-37 -48 -79 -57.5t-67 23
t-16 93.5q4 33 12 71q7 34 15 64q6 24 11 38q-20 -20 -46 -60q-17 -26 -51 -84q-38 -68 -47 -87q-27 -58 -68 -71q-35 -11 -45 20q-6 19 1 47q1 2 4.5 18.5t5.5 25.5q-32 -48 -52 -68q-55 -54 -94 -16t-22 128q9 50 20 87q9 31 29 91q1 2 5 13t6 17q17 52 52 56q28 3 41 -26
q11 -25 -2 -56q-39 -91 -53 -143q-32 -113 1 -85q37 32 122 191l7 14q1 3 3 9.5t3 10.5q21 60 38 96q14 30 41 33t43 -20t2 -56q-4 -10 -14 -30q-3 -6 -10.5 -23.5t-11.5 -26.5q-3 -7 -9.5 -20.5t-9.5 -19.5q-7 -16 -9 -23q16 29 36 57q23 33 38 52q26 32 39 45
q39 39 73.5 39t44.5 -35t-10 -98q-17 -44 -26 -76q-42 -133 -23 -135q16 -1 79 90q18 26 37 58q6 17 149 400q-82 -16 -295 -65q-126 -29 -183 -23q-98 8 -116 95q-39 -60 -60 -103q-43 -88 -84 -186q-35 -83 -91 -236.5t-83 -220.5q-3 -8 -9 -22q107 16 469 84
q236 45 390 45t151 -60q-1 -14 -22.5 -55t-39 -74.5t-10.5 -35.5q10 -4 58 62q64 89 105 181.5t84 223.5q10 31 10 33q-10 -20 -36 -62q-19 -29 -31.5 -47t-38 -50t-51 -47.5t-47.5 -12.5q-33 4 -45.5 44.5t5.5 104.5q25 80 25 81q18 49 33 80q8 16 24 44q18 29 46 29
t39 -22t-3 -51q-6 -10 -21 -40q-23 -47 -33 -73q-37 -94 -18 -88q18 6 66 83q21 34 45 75q4 6 45 80q8 14 19.5 37t16.5 31zM795 404q21 15 26 47t-15.5 64t-67.5 40q-28 -98 9 -141q24 -25 48 -10zM2845 337q-13 -66 30 -63q44 3 104 65q47 48 68 101q-1 -9 -4.5 -24
t-16.5 -54.5t-30.5 -71.5t-49.5 -62t-70 -39q-42 -9 -76 9q-58 31 -55 119q2 34 8 60q11 43 30 90q21 49 43 87q24 40 51 72q25 29 56.5 41.5t57.5 7t45 -26t19.5 -57t-18.5 -84.5q-24 -55 -53 -84t-56 -31q-23 -2 -34.5 13t-0.5 38q6 -11 23 -6q30 9 57 73.5t8 73.5
q-4 2 -15.5 -7.5t-31 -38t-40.5 -69.5q-37 -72 -49 -132zM2737 608q25 -22 24.5 -74.5t-20 -109t-56.5 -108.5t-79 -74q-25 -13 -52.5 -13.5t-43.5 16.5t-5 51q16 -29 49 -9.5t60 70.5q45 85 53 154q5 40 -13 36q-19 -5 -56 -56q-31 -42 -64 -110q-95 -198 -143 -381
q-13 -48 -44 -53q-27 -4 -39 28q-13 32 3 80q24 74 72.5 211t66.5 191q7 19 22.5 65t23.5 68q4 12 10 30.5t10 28.5q10 30 34.5 34t39.5 -17t4 -53l-10 -30q25 29 55 40.5t55 6.5t43 -22zM1451 613q-22 0 -37.5 15.5t-15.5 37.5t15.5 37.5t37.5 15.5t37.5 -15.5t15.5 -37.5
t-15.5 -37.5t-37.5 -15.5zM2011 1150q-29 5 -46.5 27.5t-13.5 50.5t28 45t53 12t46.5 -28t13.5 -51t-28 -44.5t-53 -11.5zM2027 1255q-15 2 -27.5 -7t-14.5 -25t7 -29t24 -15t27.5 7.5t14.5 25.5t-7 28.5t-24 14.5zM1815 1221l-2 -50l-33 2l6 132l104 -5l-1 -29l-71 3
l-1 -23l64 -4l-1 -29zM2360 1070l33 97l-38 13l10 28l107 -36l-10 -28l-37 13l-34 -98zM2193 1198l-17 -77l-33 8l29 129l33 -8l39 -89l17 77l32 -8l-29 -129l-32 8zM1000 1064l-46 -16l-43 126l46 15q32 11 59 1t36 -38t-5.5 -52.5t-46.5 -35.5zM971 1163l-19 -7l23 -69
l20 7q16 5 23 18.5t2 28.5t-19 21t-30 1zM1235 1129l-101 -23l-29 129l101 23l7 -29l-70 -16l5 -20l63 15l6 -29l-63 -14l5 -23l70 16zM1572 1170q-29 -2 -51 17t-23 47t18.5 49t48.5 23t51.5 -17t23.5 -47q2 -28 -18.5 -49.5t-49.5 -22.5zM1567 1277q-15 -1 -25.5 -13
t-9.5 -28t12.5 -27t26.5 -10t25.5 13t9.5 28t-12.5 27t-26.5 10zM1330 1146l-32 -5l-20 131l32 5l48 -62l28 74l32 5l20 -131l-32 -5l-12 76l-27 -74l-48 62zM864 1070q-106 -44 -201 -96l-19 29q85 49 208 99zM2733 1003l-19 -29q-94 52 -201 96l13 32q119 -49 207 -99z
" />
    <glyph glyph-name="hyphen" unicode="-" 
d="M2343 649q23 40 51 45t43 -21t5 -66q-118 -478 -278 -673q-3 -5 -10 -12l-9 -9q-32 -33 -72 -42.5t-65.5 5.5t-33.5 47.5t22 84.5q4 6 14.5 21.5t18 27.5t13.5 25.5t3 22t-15 11.5q-41 8 -164.5 -6t-260.5 -49q-36 -9 -143 -41q-98 -30 -155 -46t-169 -44.5t-184 -37
t-169.5 -17t-158.5 10t-117.5 49.5t-80 95t-15.5 154q17 -40 47.5 -70.5t73 -49t92.5 -29t112.5 -13t126.5 1t140 12.5q-26 19 -46.5 44.5t-27.5 47.5q-15 42 3 217q3 27 31 205.5t26 261.5q-1 47 -25 65t-56 6.5t-58 -42.5q-34 -41 -66 -121q-19 -46 -34 -101
q60 -23 89.5 -77.5t17.5 -112.5q-10 -47 -41.5 -72.5t-67 -26t-69.5 22t-49 63.5q-14 41 1 133q-27 -5 -169.5 -56t-215.5 -53q-69 -2 -115.5 41.5t-50.5 137.5q38 -48 118.5 -56t157 9t167.5 39t128 23l9 30q28 83 72 154t100 117q26 21 58.5 34t69.5 13t63 -20
q49 -37 57 -131q6 -70 -1.5 -151t-24.5 -188t-22 -153q-1 -8 -2.5 -21.5t-3 -35t-1.5 -42t1 -38.5t5.5 -28.5t12.5 -9.5q4 1 8.5 6.5t10 18t10 24t13 35t14.5 39.5q25 63 74 204.5t92.5 247.5t94.5 193q85 143 187 148q62 4 99 -41q30 -37 14 -72q-41 41 -101.5 -6.5
t-121.5 -136.5q34 -20 85.5 -23t106 7.5t124 30.5t131 41.5t136 44t130.5 35.5q46 10 93 14t97 -3.5t85 -27t50.5 -62t0.5 -103.5q-17 111 -386 44q31 -19 31 -50.5t-21 -81.5q-52 -126 -154 -414q-24 -68 -65 -76q-31 -7 -44 26q-3 6 -4 13q-37 -48 -79 -57.5t-67 23
t-16 93.5q4 33 12 71q7 34 15 64q6 24 11 38q-20 -20 -46 -60q-17 -26 -51 -84q-38 -68 -47 -87q-27 -58 -68 -71q-35 -11 -45 20q-6 19 1 47q1 2 4.5 18.5t5.5 25.5h1q-30 -45 -53 -68q-55 -54 -94 -16t-22 128q9 50 20 87q9 31 29 91q1 2 5 13t6 17q17 52 52 56
q28 3 41 -26q11 -25 -2 -56q-39 -91 -53 -143q-32 -113 1 -85q37 32 122 191l7 14q1 3 3 9.5t3 10.5q21 60 38 96q14 30 41 33t43 -20t2 -56q-4 -10 -14 -30q-3 -6 -10.5 -23.5t-11.5 -26.5q-3 -7 -9.5 -20.5t-9.5 -19.5q-7 -16 -9 -23q16 29 36 57q23 33 38 52q26 32 39 45
q39 39 73.5 39t44.5 -35t-10 -98q-17 -44 -26 -76q-42 -133 -23 -135q16 -1 79 90q18 26 37 58q6 17 149 400q-82 -16 -295 -65q-126 -29 -183 -23q-98 8 -116 95q-39 -60 -60 -103q-43 -88 -84 -186q-35 -83 -91 -236.5t-83 -220.5q-2 -5 -5.5 -12.5t-4.5 -9.5
q111 16 470 84q236 45 390 45t151 -60q-1 -14 -22.5 -55t-39 -74.5t-10.5 -35.5q10 -4 58 62q64 89 105 181.5t84 223.5q10 31 10 33q-10 -20 -36 -62q-19 -29 -31.5 -47t-38 -50t-51 -47.5t-47.5 -12.5q-33 4 -45.5 44.5t5.5 104.5q25 80 25 81q18 49 33 80q8 16 24 44
q18 29 46 29t39 -22t-3 -51q-6 -10 -21 -40q-23 -47 -33 -73q-37 -94 -18 -88q18 6 66 83q21 34 45 75q4 6 45 80q8 14 19.5 37t16.5 31zM795 404q21 15 26 47t-15.5 64t-67.5 40q-28 -98 9 -141q24 -25 48 -10zM2845 337q-13 -65 29 -63q43 3 103 64q48 49 69 102
q-1 -9 -4.5 -24t-16.5 -54.5t-30.5 -71.5t-49.5 -62t-70 -39q-42 -9 -75 9q-58 31 -55 119q2 34 8 60q11 43 30 90q21 49 43 87q24 40 51 72q32 36 71.5 46.5t67 -7t37.5 -56.5t-17 -102q-24 -55 -52.5 -84t-55.5 -31q-23 -2 -34.5 13t-0.5 38q6 -11 23 -6q30 9 57 73.5
t8 73.5q-4 2 -15.5 -7.5t-31 -38t-40.5 -69.5q-37 -72 -49 -132zM2737 608q25 -22 24.5 -74.5t-20 -109t-56.5 -108.5t-79 -74q-25 -13 -52.5 -13.5t-43.5 16.5t-5 51q16 -29 49 -9.5t60 70.5q45 85 53 154q5 40 -13 36q-19 -5 -56 -56q-31 -42 -64 -110q-95 -198 -143 -381
q-13 -48 -44 -53q-27 -4 -39 28q-13 32 3 80q24 74 72.5 211t66.5 191q7 19 22.5 65t23.5 68q4 12 10 30.5t10 28.5q10 30 34.5 34t39.5 -17t4 -53l-10 -30q25 29 55 40.5t55 6.5t43 -22zM1451 613q-22 0 -37.5 15.5t-15.5 37.5t15.5 37.5t37.5 15.5t37.5 -15.5t15.5 -37.5
t-15.5 -37.5t-37.5 -15.5zM1815 1221l-2 -50l-33 2l6 132l104 -5l-1 -29l-71 3l-1 -23l64 -4l-1 -29zM2011 1150q-29 5 -46.5 27.5t-13.5 50.5t28 45t53 12t46.5 -28t13.5 -51t-28 -44.5t-53 -11.5zM2027 1255q-15 2 -27.5 -7t-14.5 -25t7 -29t24 -15t27.5 7.5t14.5 25.5
t-7 28.5t-24 14.5zM2193 1198l-18 -77l-32 8l29 129l33 -8l39 -89l17 77l32 -8l-29 -129l-32 8zM2360 1070l33 97l-38 13l10 28l107 -36l-10 -28l-38 13l-33 -98zM1000 1064l-46 -16l-43 126l46 15q32 11 58.5 1t36.5 -38q9 -28 -5.5 -52.5t-46.5 -35.5zM971 1163l-19 -7
l23 -69l20 7q16 5 23 18.5t2 28.5t-19 21t-30 1zM1572 1170q-29 -2 -51 17t-23 47t18.5 49t48.5 23t51.5 -17t23.5 -47q2 -28 -18.5 -49.5t-49.5 -22.5zM1567 1277q-15 -1 -25.5 -13t-9.5 -28t12.5 -27t26.5 -10t25.5 13t9.5 28t-12.5 27t-26.5 10zM1235 1129l-101 -23
l-29 129l101 23l7 -29l-70 -16l5 -20l63 15l6 -29l-63 -14l5 -23l70 16zM1330 1146l-32 -5l-20 131l32 5l48 -62l28 74l32 5l20 -131l-32 -5l-12 76l-27 -74l-48 62zM864 1070q-106 -44 -201 -96l-19 29q85 49 208 99zM2733 1003l-19 -29q-94 52 -201 96l13 32
q119 -49 207 -99z" />
    <glyph glyph-name="period" unicode="." 
d="M2343 649q23 40 51 45t43 -21.5t5 -66.5q-118 -475 -279 -672q-3 -5 -10 -12l-9 -9q-26 -27 -57 -38.5t-56 -6t-42 21.5t-16 48t23 70q4 6 14.5 21.5t18 27.5t13.5 25.5t3 22t-15 11.5q-41 8 -164.5 -6t-260.5 -49q-36 -9 -142 -41q-99 -30 -156 -46t-169 -44.5t-184 -37
t-170 -17t-158.5 10t-117.5 49.5t-80.5 95t-15.5 154q25 -60 80 -97.5t135.5 -51.5t171 -13.5t206.5 14.5q-26 19 -46.5 44.5t-27.5 47.5q-15 42 3 217q3 27 31 205.5t26 261.5q-1 47 -25 65t-56 6.5t-58 -42.5q-34 -41 -66 -121q-19 -46 -34 -101q60 -23 89.5 -77.5
t17.5 -112.5q-10 -47 -41.5 -72.5t-67 -26t-69.5 22t-49 63.5q-14 41 1 133q-27 -5 -169.5 -56t-215.5 -53q-69 -2 -115.5 41.5t-50.5 137.5q38 -48 118.5 -56t157 9t167.5 39t128 23l9 30q29 86 71 154q43 70 101 117q26 21 58.5 34t69 13t62.5 -20q50 -38 58 -131
q6 -70 -1.5 -151t-24.5 -188t-22 -153q-1 -8 -2.5 -21.5t-3 -35t-1.5 -42t1 -38.5t5.5 -28.5t12.5 -9.5q4 1 8.5 6.5t10 18t10 24t13 35t14.5 39.5q25 63 74 204.5t92.5 247.5t94.5 193q85 143 187 148q62 4 99 -41q30 -37 14 -72q-41 41 -101.5 -6.5t-121.5 -136.5
q34 -20 85.5 -23t106 7.5t124 30.5t131 41.5t136 44t130.5 35.5q46 10 93 14t96.5 -3.5t84.5 -27t50.5 -62t0.5 -103.5q-17 110 -385 44q31 -19 31 -50.5t-21 -81.5q-52 -126 -154 -414q-24 -68 -65 -76q-31 -7 -44 26q-3 6 -4 13q-37 -48 -79 -57.5t-67 23t-16 93.5
q4 33 12 71q7 34 15 64q6 24 11 38q-20 -20 -46 -60q-27 -41 -52 -84q-34 -59 -46 -87q-27 -58 -68 -71q-35 -11 -45 20q-6 19 1 47q1 2 4.5 18.5t5.5 25.5q-32 -48 -52 -68q-55 -54 -94 -16t-22 128q9 50 20 87q9 31 29 91q1 2 5 13t6 17q17 52 52 56q28 3 41 -26
q11 -25 -2 -56q-39 -91 -53 -143q-32 -113 1 -85q37 32 122 191l7 14q1 3 3 9.5t3 10.5q21 60 38 96q14 30 41 33t43 -20t2 -56q-4 -10 -14 -30q-3 -6 -10.5 -23.5t-11.5 -26.5q-3 -7 -9.5 -20.5t-9.5 -19.5q-7 -16 -9 -23q16 29 36 57q23 33 38 52q26 32 39 45
q39 39 73.5 39t44.5 -35t-10 -98q-17 -44 -26 -76q-42 -133 -23 -135q16 -1 79 90q18 26 37 58q6 17 149 400q-82 -16 -295 -65q-126 -29 -183 -23q-98 8 -116 95q-39 -60 -60 -103q-43 -88 -84 -186q-35 -83 -91 -236.5t-83 -220.5q-3 -8 -9 -22q107 16 469 84
q236 45 390 45t151 -60q-1 -14 -22.5 -55t-39 -74.5t-10.5 -35.5q10 -4 58 62q64 89 105 181.5t84 223.5q10 31 10 33q-10 -20 -36 -62q-19 -29 -31.5 -47t-38 -50t-51 -47.5t-47.5 -12.5q-33 4 -45.5 44.5t5.5 104.5q25 80 25 81q18 49 33 80q8 16 24 44q18 29 46 29
t39 -22t-3 -51q-6 -10 -21 -40q-17 -35 -32 -73q-38 -96 -18 -88q18 8 65 83q21 34 45 75q4 6 45 80q8 14 19.5 37t16.5 31zM795 404q21 15 26.5 47t-15 64t-67.5 40q-28 -99 9 -142q23 -25 47 -9zM2845 337q-13 -66 30 -63q44 3 104 65q47 48 68 101q-1 -9 -4.5 -24
t-16.5 -54.5t-30.5 -71.5t-49.5 -62t-70 -39q-42 -9 -76 9q-58 31 -55 119q2 34 8 60q11 43 30 90q21 49 43 87q22 37 52 72q32 36 71.5 46.5t67 -7t37.5 -56.5t-17 -102q-24 -55 -53 -84t-56 -31q-23 -2 -34.5 13t-0.5 38q6 -11 23 -6q30 9 57 73.5t8 73.5q-4 2 -15.5 -7.5
t-31 -38t-40.5 -69.5q-37 -72 -49 -132zM2737 608q25 -22 24.5 -74.5t-20 -109t-56.5 -108.5t-79 -74q-25 -13 -52.5 -13.5t-43.5 16.5t-5 51q16 -29 49 -9.5t60 70.5q45 85 53 154q5 40 -13 36q-19 -5 -56 -56q-31 -42 -64 -110q-93 -194 -142 -381q-12 -48 -43 -53
q-28 -4 -41 28t3 80q24 74 72.5 211t66.5 191q7 19 22.5 65t23.5 68q4 12 10 30.5t10 28.5q10 30 34.5 34t39.5 -17t4 -53q-2 -5 -4 -13t-5 -17q25 29 54.5 40.5t54.5 6.5t43 -22zM1451 613q-22 0 -37.5 15.5t-15.5 37.5t15.5 37.5t37.5 15.5t37.5 -15.5t15.5 -37.5
t-15.5 -37.5t-37.5 -15.5zM1235 1129l-101 -23l-29 129l101 23l7 -29l-70 -16l5 -20l63 15l6 -29l-63 -14l5 -23l70 16zM1815 1221l-2 -50l-33 2l6 132l105 -5l-2 -29l-71 3l-1 -23l64 -4l-1 -29zM2193 1198l-17 -77l-33 8l30 129l32 -8l39 -89l17 77l32 -8l-29 -129l-32 8z
M2360 1070l33 97l-38 13l10 28l107 -36l-10 -28l-37 13l-34 -98zM2011 1150q-29 5 -46.5 27.5t-13.5 50.5t28 45t53 12t46.5 -28t13.5 -51t-28 -44.5t-53 -11.5zM2027 1255q-15 2 -27.5 -7t-14.5 -25t7 -29t24 -15t27.5 7.5t14.5 25.5t-7 28.5t-24 14.5zM1330 1146l-32 -5
l-20 131l32 5l48 -62l28 74l32 5l20 -131l-32 -5l-12 76l-27 -74l-48 62zM1572 1170q-29 -2 -51 17t-23 47t18.5 49t48.5 23t51.5 -17t23.5 -47q2 -28 -18.5 -49.5t-49.5 -22.5zM1567 1277q-15 -1 -25.5 -13t-9.5 -28t12.5 -27t26.5 -10t25.5 13t9.5 28t-12.5 27t-26.5 10z
M1000 1064l-46 -16l-43 126l46 15q32 11 59 1t36 -38t-5.5 -52.5t-46.5 -35.5zM971 1163l-19 -7l24 -69l19 7q16 5 23 18.5t2 28.5t-19 21t-30 1zM864 1070q-106 -44 -201 -96l-19 29q85 49 208 99zM2733 1003l-19 -29q-94 52 -201 96l13 32q119 -49 207 -99z" />
    <glyph glyph-name="slash" unicode="/" 
d="M2343 649q23 40 51 45t43 -21t5 -66q-118 -476 -279 -673q-3 -5 -10 -12l-9 -9q-26 -27 -57 -38.5t-56 -6t-42 21.5t-16 48t23 70q4 6 14.5 21.5t18 27.5t13.5 25.5t3 22t-15 11.5q-41 8 -164.5 -6t-260.5 -49q-36 -9 -143 -41q-98 -30 -155 -46t-169 -44.5t-184 -37
t-169.5 -17t-158.5 10t-117.5 49.5t-80 95t-15.5 154q17 -40 47.5 -70.5t73 -49t92.5 -29t112.5 -13t126.5 1t140 12.5q-26 19 -46.5 44.5t-27.5 47.5q-15 42 3 217q3 27 31 205.5t26 261.5q-1 47 -25 65t-56 6.5t-58 -42.5q-34 -41 -66 -121q-19 -46 -34 -101
q60 -23 89.5 -77.5t17.5 -112.5q-10 -47 -41.5 -72.5t-67 -26t-69.5 22t-49 63.5q-14 41 1 133q-27 -5 -169.5 -56t-215.5 -53q-69 -2 -115.5 41.5t-50.5 137.5q38 -48 118.5 -56t157 9t167.5 39t128 23l9 30q29 86 71 154q43 70 101 117q26 21 58.5 34t69 13t62.5 -20
q50 -38 58 -131q6 -70 -1.5 -151t-24.5 -188t-22 -153q-1 -8 -2.5 -21.5t-3 -35t-1.5 -42t1 -38.5t5.5 -28.5t12.5 -9.5q4 1 8.5 6.5t10 18t10 24t13 35t14.5 39.5q25 63 74 204.5t92.5 247.5t94.5 193q85 143 187 148q62 4 99 -41q30 -37 14 -72q-41 41 -101.5 -6.5
t-121.5 -136.5q34 -20 85.5 -23t106 7.5t124 30.5t131 41.5t136 44t130.5 35.5q46 10 93 14t96.5 -3.5t84.5 -27t50.5 -62t0.5 -103.5q-17 110 -385 44q31 -19 31 -50.5t-21 -81.5q-52 -126 -154 -414q-24 -68 -65 -76q-31 -7 -44 26q-3 6 -4 13q-37 -48 -79 -57.5t-67 23
t-16 93.5q4 33 12 71q7 34 15 64q6 24 11 38q-20 -20 -46 -60q-27 -41 -52 -84q-34 -59 -46 -87q-27 -58 -68 -71q-35 -11 -45 20q-6 19 1 47q1 2 4.5 18.5t5.5 25.5q-32 -48 -52 -68q-55 -54 -94 -16t-22 128q9 50 20 87q9 31 29 91q1 2 5 13t6 17q17 52 52 56q28 3 41 -26
q11 -25 -2 -56q-39 -91 -53 -143q-32 -113 1 -85q37 32 122 191l7 14q1 3 3 9.5t3 10.5q21 60 38 96q14 30 41 33t43 -20t2 -56q-4 -10 -14 -30q-3 -6 -10.5 -23.5t-11.5 -26.5q-3 -7 -9.5 -20.5t-9.5 -19.5q-7 -16 -9 -23q16 29 36 57q23 33 38 52q26 32 39 45
q39 39 73.5 39t44.5 -35t-10 -98q-17 -44 -26 -76q-42 -133 -23 -135q16 -1 79 90q18 26 37 58q6 17 149 400q-82 -16 -295 -65q-126 -29 -183 -23q-98 8 -116 95q-39 -60 -60 -103q-43 -88 -84 -186q-35 -83 -91 -236.5t-83 -220.5q-2 -5 -5.5 -12.5t-4.5 -9.5
q111 16 470 84q236 45 390 45t151 -60q-1 -14 -22.5 -55t-39 -74.5t-10.5 -35.5q10 -4 58 62q64 89 105 181.5t84 223.5q10 31 10 33q-10 -20 -36 -62q-19 -29 -31.5 -47t-38 -50t-51 -47.5t-47.5 -12.5q-33 4 -45.5 44.5t5.5 104.5q25 80 25 81q18 49 33 80q8 16 24 44
q18 29 46 29t39 -22t-3 -51q-6 -10 -21 -40q-23 -47 -33 -73q-37 -94 -18 -88q18 6 66 83q21 34 45 75q4 6 45 80q8 14 19.5 37t16.5 31zM795 404q21 15 26 47t-15.5 64t-67.5 40q-28 -98 9 -141q24 -25 48 -10zM2845 337q-13 -66 30 -63q44 3 104 65q47 48 68 101
q-1 -5 -2.5 -13t-8 -31t-14.5 -45t-22 -50t-31 -49t-41.5 -39t-52.5 -24q-42 -9 -75 9q-58 31 -55 119q2 34 8 60q12 49 29 90q18 44 44 87q24 40 51 72q32 36 71.5 46.5t67 -7t37.5 -56.5t-17 -102q-24 -55 -52.5 -84t-55.5 -31q-23 -2 -34.5 13t-0.5 38q6 -11 23 -6
q30 9 57 73.5t8 73.5q-4 2 -15.5 -7.5t-31 -38t-40.5 -69.5q-37 -72 -49 -132zM2737 608q25 -22 24.5 -74.5t-20 -109t-56.5 -108.5t-79 -74q-25 -13 -52.5 -13.5t-44 16.5t-5.5 51q16 -29 49.5 -9.5t60.5 70.5q45 85 53 154q5 40 -13 36q-19 -5 -56 -56q-31 -42 -64 -110
q-95 -198 -143 -381q-13 -48 -44 -53q-27 -4 -39 28q-13 32 3 80q24 74 72.5 211t66.5 191q7 19 22.5 65t23.5 68q4 12 10 30.5t10 28.5q10 30 34.5 34t39.5 -17t4 -53l-10 -30q25 29 55 40.5t55 6.5t43 -22zM1451 613q-22 0 -37.5 15.5t-15.5 37.5t15.5 37.5t37.5 15.5
t37.5 -15.5t15.5 -37.5t-15.5 -37.5t-37.5 -15.5zM1815 1221l-2 -50l-33 2l6 132l104 -5l-1 -29l-71 3l-1 -23l64 -4l-1 -29zM2011 1150q-29 5 -46.5 27.5t-13.5 50.5t28 45t53 12t46.5 -28t13.5 -51t-28 -44.5t-53 -11.5zM2027 1255q-15 2 -27.5 -7t-14.5 -25t7 -29t24 -15
t27.5 7.5t14.5 25.5t-7 28.5t-24 14.5zM2193 1198l-18 -77l-32 8l29 129l32 -8l39 -89l18 77l32 -8l-29 -129l-32 8zM2360 1070l33 97l-38 13l10 28l107 -36l-10 -28l-38 13l-33 -98zM1572 1170q-29 -2 -51 17t-23 47t18.5 49t48.5 23t51.5 -17t23.5 -47q2 -28 -18.5 -49.5
t-49.5 -22.5zM1567 1277q-15 -1 -25.5 -13t-9.5 -28t12.5 -27t26.5 -10t25.5 13t9.5 28t-12.5 27t-26.5 10zM1330 1146l-32 -5l-20 131l32 5l48 -62l28 74l32 5l20 -131l-32 -5l-12 76l-27 -74l-48 62zM1000 1064l-46 -16l-43 126l46 15q32 11 59 1t36 -38t-5.5 -52.5
t-46.5 -35.5zM971 1163l-19 -7l23 -69l20 7q16 5 23 18.5t2 28.5t-19 21t-30 1zM1235 1129l-101 -23l-29 129l101 23l7 -29l-70 -16l5 -20l63 15l6 -29l-63 -14l5 -23l70 16zM864 1070q-106 -44 -201 -96l-19 29q85 49 208 99zM2733 1003l-19 -29q-94 52 -201 96l12 32
q123 -50 208 -99z" />
    <glyph glyph-name="zero" unicode="0" 
d="M2343 707q23 40 51 45t43 -21.5t5 -66.5q-118 -475 -279 -672q-3 -5 -10 -12l-9 -9q-26 -27 -57 -38.5t-56 -6t-42 21.5t-16 48t23 70q4 6 14.5 21.5t18 27.5t13.5 25.5t3 22t-15 11.5q-41 8 -164.5 -6t-260.5 -49q-36 -9 -143 -41q-98 -30 -155 -46t-169 -44.5t-184 -37
t-169.5 -17t-158.5 10t-117.5 49.5t-80 95t-15.5 154q17 -40 47.5 -70.5t73 -49t92.5 -29t112.5 -13t126.5 1t140 12.5q-26 19 -46.5 44.5t-27.5 47.5q-15 42 3 217q3 27 31 205.5t26 261.5q-1 47 -25 65t-56 6.5t-58 -42.5q-34 -41 -66 -121q-19 -46 -34 -101
q60 -23 89.5 -77.5t17.5 -112.5q-10 -47 -41.5 -73t-67 -26.5t-69.5 22t-49 63.5q-14 41 1 134q-27 -5 -169.5 -56t-215.5 -53q-69 -2 -115.5 41.5t-50.5 137.5q38 -48 118.5 -56t157 9t167.5 39t128 23l9 30q28 83 72 154q43 69 100 116q26 21 58.5 34.5t69.5 13.5t63 -20
q49 -37 57 -131q6 -70 -1.5 -151t-24.5 -188t-22 -153q-1 -8 -2.5 -21.5t-3 -35t-1.5 -42t1 -38.5t5.5 -28.5t12.5 -9.5q4 1 8.5 6.5t10 18t10 24t13 35t14.5 39.5q25 63 74 204.5t92.5 247.5t94.5 193q85 143 187 148q62 4 99 -41q30 -37 14 -72q-41 41 -101.5 -6.5
t-121.5 -136.5q34 -20 85.5 -23t106 7.5t124 30t131 41t136 44.5t130.5 35q46 10 93 14t96.5 -3.5t84.5 -27t50.5 -62t0.5 -103.5q-17 111 -385 45q31 -19 31 -50.5t-21 -81.5q-25 -61 -48.5 -122t-34.5 -91t-37 -105t-34 -97q-23 -66 -63 -76q-32 -7 -46 27l-4 13
q-37 -48 -79 -57.5t-67 22.5t-16 93q4 36 12 72q7 34 15 64q6 24 11 38q-18 -18 -46 -61q-23 -35 -51 -83q-38 -68 -47 -87q-27 -58 -68 -71q-35 -11 -45 20q-6 19 1 47q1 2 4.5 18.5t5.5 25.5q-32 -48 -52 -68q-55 -54 -94 -16t-22 128q9 50 20 87q9 31 29 91q1 2 5 13
t6 17q17 52 52 56q28 3 41 -26q11 -25 -2 -56q-39 -91 -53 -143q-32 -113 1 -85q37 32 122 191l7 14q1 4 3 10.5t3 9.5q21 60 38 96q14 30 41 32.5t43 -20.5t2 -55q-6 -15 -14 -31q-17 -39 -22 -49q-3 -7 -9.5 -20.5t-9.5 -19.5q-7 -16 -9 -23q13 22 36 56q27 39 38 53
q26 32 39 45q39 39 73.5 39t44.5 -35t-10 -98q-15 -40 -26 -77q-42 -135 -22 -134q17 0 79 90q14 19 36 58q6 17 149 400q-82 -16 -295 -65q-126 -29 -183 -23q-98 8 -116 95q-39 -60 -60 -103q-43 -88 -84 -186q-35 -83 -91 -236.5t-83 -220.5q-3 -8 -9 -22q107 16 469 84
q236 45 390 45t151 -60q-1 -14 -22.5 -55t-39 -74.5t-10.5 -35.5q10 -4 58 62q64 89 105 181.5t84 223.5q10 31 10 33q-10 -20 -36 -62q-63 -96 -101 -128q-37 -32 -67 -29q-34 4 -46 44.5t5 104.5q20 64 26 81q18 49 33 80q8 16 24 44q11 18 26.5 25t29 3t24 -14t11 -26
t-8.5 -33q-9 -15 -21 -39q-23 -48 -33 -73q-37 -94 -18 -88q18 6 66 83q21 34 45 75q14 23 45 79q8 14 19.5 37t16.5 32zM795 462q21 15 26 47t-15.5 64t-67.5 40q-28 -98 9 -141q24 -25 48 -10zM2845 395q-13 -65 29 -63q43 3 103 64q48 49 69 102q-1 -9 -4.5 -24
t-16.5 -54.5t-30.5 -71.5t-49.5 -62t-70 -39q-42 -9 -75 9q-58 31 -55 119q2 34 8 60q12 49 29 90q18 44 44 87q24 40 51 72q32 36 71.5 46.5t67 -7t37.5 -56.5t-17 -102q-24 -55 -52.5 -84t-55.5 -31q-23 -2 -34.5 13t-0.5 38q6 -11 23 -6q30 9 57 73.5t8 73.5
q-4 2 -15.5 -7.5t-31 -38t-40.5 -69.5q-37 -72 -49 -132zM2737 666q25 -22 24.5 -74.5t-20 -109t-56.5 -108.5t-79 -74q-25 -13 -52.5 -14t-43.5 16t-5 51q16 -29 49 -9.5t60 70.5q45 84 53 154q5 40 -12 37q-20 -5 -57 -56q-31 -42 -64 -110q-95 -198 -143 -381
q-13 -48 -44 -53q-27 -4 -39 28q-13 32 3 80q24 74 72.5 211t66.5 191q7 19 22.5 65t23.5 68q4 12 10 30.5t10 28.5q13 36 44 34q27 -2 36 -31q6 -18 -2 -40q-6 -16 -10 -29q25 29 55 40.5t55 6.5t43 -22zM1451 670q-22 0 -37.5 16t-15.5 38t15.5 37.5t37.5 15.5t37.5 -15.5
t15.5 -37.5t-15.5 -38t-37.5 -16zM1000 1122l-46 -16l-43 125l46 16q32 11 59 0.5t36 -38.5t-5.5 -52t-46.5 -35zM971 1220l-19 -6l23 -69l20 7q16 5 23 18.5t2 28.5t-19 20.5t-30 0.5zM1235 1187l-101 -23l-29 129l101 23l7 -29l-70 -16l5 -20l63 14l6 -28l-63 -15l5 -22
l70 15zM2360 1128l33 97l-38 13l10 28l107 -37l-10 -27l-38 12l-33 -97zM2011 1207q-29 5 -46.5 28t-13.5 51t28 45t53 12t46.5 -28t13.5 -51t-28 -45t-53 -12zM2027 1313q-15 2 -27.5 -7t-14.5 -25t7 -29t24 -15t27.5 7t14.5 25t-7 29t-24 15zM2193 1255l-18 -76l-32 7
l29 129l33 -7l39 -89l17 77l32 -8l-29 -129l-32 7zM1572 1227q-28 -1 -50 18t-24 47q-1 28 18.5 49t48.5 23q29 1 51 -18t24 -47t-18.5 -49.5t-49.5 -22.5zM1567 1334q-15 -1 -25.5 -12.5t-9.5 -27.5t12.5 -27t26.5 -10t25.5 13t9.5 28t-12.5 26.5t-26.5 9.5zM1330 1204
l-32 -5l-20 131l32 5l48 -62l28 74l32 4l20 -130l-32 -5l-12 76l-27 -74l-48 62zM1815 1279l-2 -50l-33 2l6 132l104 -5l-1 -30l-71 4l-1 -24l64 -3l-1 -29zM864 1128q-106 -44 -201 -96l-19 29q85 49 208 99zM2733 1061l-19 -29q-94 52 -201 96l13 32q119 -49 207 -99z" />
    <glyph glyph-name="one" unicode="1" 
d="M2343 707q23 40 51 45t43 -21.5t5 -66.5q-118 -475 -279 -672q-3 -5 -10 -12l-9 -9q-26 -27 -57 -38.5t-56 -6t-42 21.5t-16 48t23 70q4 6 14.5 21.5t18 27.5t13.5 25.5t3 22t-15 11.5q-41 8 -164.5 -6t-260.5 -49q-36 -9 -142 -41q-99 -30 -156 -46t-169 -44.5t-184 -37
t-170 -17t-158.5 10t-117.5 49.5t-80.5 95t-15.5 154q25 -60 80 -97.5t135.5 -51.5t171 -13.5t206.5 14.5q-60 44 -75 92q-14 40 4 217q3 27 31 205.5t26 261.5q-1 47 -25 65t-56 6.5t-58 -42.5q-34 -41 -66 -121q-19 -46 -34 -101q60 -23 89.5 -77.5t17.5 -112.5
q-10 -47 -41.5 -73t-67 -26.5t-69.5 22t-49 63.5q-14 41 1 134q-27 -5 -169.5 -56t-215.5 -53q-69 -2 -115.5 41.5t-50.5 137.5q38 -48 118.5 -56t157 9t167.5 39t128 23q2 5 5 15t5 15q29 86 71 154q43 69 100 116q26 21 58.5 34.5t69.5 13.5t63 -20q49 -37 57 -132
q6 -70 -1.5 -151t-24.5 -187t-22 -153q-1 -8 -2.5 -21.5t-3 -35t-1.5 -42t1 -38.5t5.5 -28.5t12.5 -9.5q3 1 6 4t7 9.5t7 13t7.5 18.5t8.5 22t10 26.5t11 29.5q25 64 73.5 205t92 247t94.5 193q85 143 187 148q62 4 99 -41q30 -37 14 -72q-41 41 -101.5 -6.5t-121.5 -136.5
q34 -20 85.5 -23t106 7.5t124 30t131 41t136 44.5t130.5 35q46 10 93 14t97 -3.5t85 -27t50.5 -62t0.5 -103.5q-17 112 -386 45q31 -19 31 -50.5t-21 -81.5q-25 -61 -48.5 -122t-34.5 -91t-37 -105t-34 -97q-23 -66 -63 -76q-32 -7 -46 27l-4 13q-37 -48 -79 -57.5t-67 22.5
t-16 93q4 36 12 72q7 34 15 64q6 24 11 38q-18 -18 -46 -61q-23 -35 -51 -83q-38 -68 -47 -87q-27 -58 -68 -71q-35 -11 -45 20q-6 19 1 47q1 6 3 13t4.5 16.5t3.5 14.5q-30 -45 -53 -68q-55 -54 -94 -16t-22 128q9 50 20 87q9 31 29 91q1 2 5 13t6 17q17 52 52 56
q28 3 41 -26q11 -25 -2 -56q-39 -91 -53 -143q-32 -113 1 -85q37 32 122 191l7 14q1 4 3.5 10.5t3.5 9.5q21 60 38 96q14 30 40.5 32.5t42.5 -20.5t2 -55q-6 -15 -14 -31q-17 -39 -22 -49q-3 -7 -9.5 -20.5t-9.5 -19.5q-7 -16 -9 -23q13 22 36 56q27 39 38 53q26 32 39 45
q39 39 73.5 39t44.5 -35t-10 -98q-15 -40 -26 -77q-42 -135 -22 -134q17 0 79 90q14 19 36 58q6 17 149 400q-82 -16 -295 -65q-126 -29 -183 -23q-98 8 -116 95q-39 -60 -60 -103q-43 -88 -84 -186q-35 -83 -91 -236.5t-83 -220.5q-3 -8 -9 -22q111 16 470 84
q236 45 389.5 45t150.5 -60q-1 -14 -22.5 -55t-39 -74.5t-10.5 -35.5q10 -4 58 62q64 89 105 181.5t84 223.5q10 31 10 33q-10 -20 -36 -62q-63 -96 -101 -128q-37 -32 -67 -29q-33 4 -45.5 44.5t5.5 104.5q25 80 25 81q18 49 33 80q8 16 24 44q11 18 26.5 25t29 3t24 -14
t11 -26t-8.5 -33q-9 -15 -21 -39q-17 -35 -32 -73q-38 -96 -18 -88q18 8 65 83q21 34 45 75q14 23 45 79q8 14 19.5 37t16.5 32zM795 462q21 15 26 47t-15.5 64t-67.5 40q-28 -98 9 -141q24 -25 48 -10zM2845 395q-13 -66 30 -63q44 3 104 65q47 48 68 101q-1 -9 -4.5 -24
t-16.5 -54.5t-30.5 -71.5t-49.5 -62t-70 -39q-42 -9 -76 9q-58 31 -55 119q2 34 8 60q11 43 30 90q21 49 43 87q22 37 52 72q32 36 71.5 46.5t67 -7t37.5 -56.5t-17 -102q-24 -55 -53 -84t-56 -31q-23 -2 -34.5 13t-0.5 38q6 -11 23 -6q30 9 57 73.5t8 73.5q-4 2 -15.5 -7.5
t-31 -38t-40.5 -69.5q-37 -72 -49 -132zM2737 666q25 -22 24.5 -74.5t-20 -109t-56.5 -108.5t-79 -74q-25 -13 -52.5 -14t-43.5 16t-5 51q16 -29 49 -9.5t60 70.5q45 84 53 154q5 40 -12 37q-20 -5 -57 -56q-31 -42 -64 -110q-93 -194 -142 -381q-12 -48 -43 -53
q-28 -4 -41 28t3 80q24 74 72.5 211t66.5 191q7 19 22.5 65t23.5 68q4 12 10 30.5t10 28.5q13 36 44 34q27 -2 36 -31q6 -18 -2 -40q-3 -8 -9 -29q25 29 54.5 40.5t54.5 6.5t43 -22zM1451 670q-22 0 -37.5 16t-15.5 38t15.5 37.5t37.5 15.5t37.5 -15.5t15.5 -37.5t-15.5 -38
t-37.5 -16zM1000 1122l-46 -16l-43 125l46 16q32 11 59 0.5t36 -38.5t-5.5 -52t-46.5 -35zM971 1220l-19 -6l24 -69l19 7q16 5 23 18.5t2 28.5t-19 20.5t-30 0.5zM1815 1279l-2 -50l-33 2l6 132l105 -5l-2 -30l-71 4l-1 -24l64 -3l-1 -29zM2011 1207q-29 5 -46.5 28
t-13.5 51t28 45t53 12t46.5 -28t13.5 -51t-28 -45t-53 -12zM2027 1313q-15 2 -27.5 -7t-14.5 -25t7 -29t24 -15t27.5 7t14.5 25t-7 29t-24 15zM2193 1255l-17 -76l-33 7l30 129l32 -7l39 -89l17 77l32 -8l-29 -129l-32 7zM1572 1227q-28 -1 -50 18t-24 47q-1 28 18.5 49
t48.5 23q29 1 51 -18t24 -47t-18.5 -49.5t-49.5 -22.5zM1567 1334q-15 -1 -25.5 -12.5t-9.5 -27.5t12.5 -27t26.5 -10t25.5 13t9.5 28t-12.5 26.5t-26.5 9.5zM2360 1128l33 97l-38 13l10 28l107 -37l-9 -27l-38 12l-34 -97zM1330 1204l-32 -5l-20 131l32 5l48 -62l28 73
l32 5l20 -130l-32 -5l-12 76l-27 -74l-48 62zM1235 1187l-101 -23l-29 129l101 23l7 -29l-70 -16l5 -20l63 14l6 -28l-63 -15l5 -22l70 15zM864 1128q-106 -44 -201 -96l-18 29q88 50 207 99zM2733 1061l-19 -29q-97 54 -200 96l12 32q119 -49 207 -99z" />
    <glyph glyph-name="two" unicode="2" 
d="M2343 707q23 40 51 45t43 -21.5t5 -66.5q-118 -475 -279 -672q-3 -5 -10 -12l-9 -9q-26 -27 -57 -38.5t-56 -6t-42 21.5t-16 48t23 70q4 6 14.5 21.5t18 27.5t13.5 25.5t3 22t-15 11.5q-41 8 -164.5 -6t-260.5 -49q-36 -9 -143 -41q-98 -30 -155 -46t-169 -44.5t-184 -37
t-169.5 -17t-158.5 10t-117.5 49.5t-80 95t-15.5 154q17 -40 47.5 -70.5t73 -49t92.5 -29t112.5 -13t126.5 1t140 12.5q-26 19 -46.5 44.5t-27.5 47.5q-15 42 3 217q3 27 31 205.5t26 261.5q-1 47 -25 65t-56 6.5t-58 -42.5q-34 -41 -66 -121q-19 -46 -34 -101
q60 -23 89.5 -77.5t17.5 -112.5q-10 -47 -41.5 -73t-67 -26.5t-69.5 22t-49 63.5q-14 41 1 134q-27 -5 -169.5 -56t-215.5 -53q-69 -2 -115.5 41.5t-50.5 137.5q38 -48 118.5 -56t157 9t167.5 39t128 23l9 30q28 83 72 154q43 69 100 116q26 21 58.5 34.5t69.5 13.5t63 -20
q49 -37 57 -131q6 -70 -1.5 -151t-24.5 -188t-22 -153q-1 -8 -2.5 -21.5t-3 -35t-1.5 -42t1 -38.5t5.5 -28.5t12.5 -9.5q4 1 8.5 6.5t10 18t10 24t13 35t14.5 39.5q25 63 74 204.5t92.5 247.5t94.5 193q85 143 187 148q62 4 99 -41q30 -37 14 -72q-41 41 -101.5 -6.5
t-121.5 -136.5q34 -20 85.5 -23t106 7.5t124 30t131 41t136 44.5t130.5 35q46 10 93 14t96.5 -3.5t84.5 -27t50.5 -62t0.5 -103.5q-17 111 -385 45q31 -19 31 -50.5t-21 -81.5q-25 -61 -48.5 -122t-34.5 -91t-37 -105t-34 -97q-23 -66 -63 -76q-32 -7 -46 27l-4 13
q-37 -48 -79 -57.5t-67 22.5t-16 93q4 36 12 72q7 34 15 64q6 24 11 38q-18 -18 -46 -61q-32 -49 -52 -83q-34 -59 -46 -87q-27 -58 -68 -71q-35 -11 -45 20q-6 19 1 47q1 2 4.5 18.5t5.5 25.5q-32 -48 -52 -68q-55 -54 -94 -16t-22 128q9 50 20 87q9 31 29 91q1 2 5 13
t6 17q17 52 52 56q28 3 41 -26q11 -25 -2 -56q-39 -91 -53 -143q-32 -113 1 -85q37 32 122 191l7 14q1 4 3 10.5t3 9.5q21 60 38 96q14 30 41 32.5t43 -20.5t2 -55q-6 -15 -14 -31q-17 -39 -22 -49q-3 -7 -9.5 -20.5t-9.5 -19.5q-7 -16 -9 -23q13 22 36 56q27 39 38 53
q26 32 39 45q39 39 73.5 39t44.5 -35t-10 -98q-15 -40 -26 -77q-42 -133 -23 -134q14 -1 62 66q8 11 17 24q18 26 37 58q6 17 149 400q-82 -16 -295 -65q-126 -29 -183 -23q-98 8 -116 95q-39 -60 -60 -103q-43 -88 -84 -186q-35 -83 -91 -236.5t-83 -220.5
q-2 -5 -5.5 -12.5t-4.5 -9.5q111 16 470 84q236 45 390 45t151 -60q-1 -14 -22.5 -55t-39 -74.5t-10.5 -35.5q10 -4 58 62q64 89 105 181.5t84 223.5q10 31 10 33q-10 -20 -36 -62q-63 -96 -101 -128q-37 -32 -67 -29q-34 4 -46 44.5t5 104.5q20 64 26 81q18 49 33 80
q8 16 24 44q11 18 26.5 25t29 3t24 -14t11 -26t-8.5 -33q-9 -15 -21 -39q-23 -48 -33 -73q-37 -94 -18 -88q18 6 66 83q21 34 45 75q14 23 45 79q8 14 19.5 37t16.5 32zM795 462q21 15 26 47t-15.5 64t-67.5 40q-28 -98 9 -141q24 -25 48 -10zM2845 395q-13 -65 29 -63
q43 3 103 64q48 49 69 102q-1 -9 -4.5 -24t-16.5 -54.5t-30.5 -71.5t-49.5 -62t-70 -39q-42 -9 -75 9q-58 31 -55 119q2 34 8 60q11 43 30 90q21 49 43 87q24 40 51 72q32 36 71.5 46.5t67 -7t37.5 -56.5t-17 -102q-24 -55 -52.5 -84t-55.5 -31q-23 -2 -34.5 13t-0.5 38
q6 -11 23 -6q30 9 57 73.5t8 73.5q-4 2 -15.5 -7.5t-31 -38t-40.5 -69.5q-37 -72 -49 -132zM2737 666q25 -22 24.5 -74.5t-20 -109t-56.5 -108.5t-79 -74q-25 -13 -52.5 -14t-43.5 16t-5 51q16 -29 49 -9.5t60 70.5q45 84 53 154q5 40 -12 37q-20 -5 -57 -56
q-31 -42 -64 -110q-95 -198 -143 -381q-13 -48 -44 -53q-27 -4 -39 28q-13 32 3 80q24 74 72.5 211t66.5 191q7 19 22.5 65t23.5 68q4 12 10 30.5t10 28.5q13 36 44 34q27 -2 36 -31q6 -18 -2 -40q-6 -16 -10 -29q25 29 55 40.5t55 6.5t43 -22zM1451 670q-22 0 -37.5 16
t-15.5 38t15.5 37.5t37.5 15.5t37.5 -15.5t15.5 -37.5t-15.5 -38t-37.5 -16zM1815 1279l-2 -50l-33 2l6 132l104 -5l-1 -30l-71 4l-1 -24l64 -3l-1 -29zM2011 1207q-29 5 -46.5 28t-13.5 51t28 45t53 12t46.5 -28t13.5 -51t-28 -45t-53 -12zM2027 1313q-15 2 -27.5 -7
t-14.5 -25t7 -29t24 -15t27.5 7t14.5 25t-7 29t-24 15zM2360 1128l33 97l-38 13l10 28l107 -37l-10 -27l-38 12l-33 -97zM2193 1255l-18 -76l-32 7l29 129l32 -7l39 -89l18 77l32 -8l-29 -129l-32 7zM1572 1227q-28 -1 -50 18t-24 47q-1 28 18.5 49t48.5 23q29 1 51 -18
t24 -47t-18.5 -49.5t-49.5 -22.5zM1567 1334q-15 -1 -25.5 -12.5t-9.5 -27.5t12.5 -27t26.5 -10t25.5 13t9.5 28t-12.5 26.5t-26.5 9.5zM1000 1122l-46 -16l-43 125l46 16q32 11 59 0.5t36 -38.5t-5.5 -52t-46.5 -35zM971 1220l-19 -6l23 -69l20 7q16 5 23 18.5t2 28.5
t-19 20.5t-30 0.5zM1235 1187l-101 -23l-29 129l101 23l7 -29l-70 -16l5 -20l63 14l6 -28l-63 -15l5 -22l70 15zM1330 1204l-32 -5l-20 131l32 5l48 -62l28 74l32 4l20 -130l-32 -5l-12 76l-27 -74l-48 62zM864 1128q-106 -44 -201 -96l-19 29q85 49 208 99zM2733 1061
l-19 -29q-94 52 -201 96l12 32q123 -50 208 -99z" />
    <glyph glyph-name="three" unicode="3" 
d="M2343 707q23 40 51 45t43 -21.5t5 -66.5q-118 -475 -279 -672q-3 -5 -10 -12l-9 -9q-26 -27 -57 -38.5t-56 -6t-42 21.5t-16 48t23 70q4 6 14.5 21.5t18 27.5t13.5 25.5t3 22t-15 11.5q-41 8 -164.5 -6t-260.5 -49q-36 -9 -143 -41q-98 -30 -155 -46t-169 -44.5t-184 -37
t-169.5 -17t-158.5 10t-117.5 49.5t-80 95t-15.5 154q17 -40 47.5 -70.5t73 -49t92.5 -29t112.5 -13t126.5 1t140 12.5q-26 19 -46.5 44.5t-27.5 47.5q-15 42 3 217q3 27 31 205.5t26 261.5q-1 47 -25 65t-56 6.5t-58 -42.5q-34 -41 -66 -121q-19 -46 -34 -101
q60 -23 89.5 -77.5t17.5 -112.5q-10 -47 -41.5 -73t-67 -26.5t-69.5 22t-49 63.5q-14 41 1 134q-27 -5 -169.5 -56t-215.5 -53q-69 -2 -115.5 41.5t-50.5 137.5q38 -48 118.5 -56t157 9t167.5 39t128 23l9 30q28 83 72 154q43 69 100 116q26 21 58 34.5t69 13.5t63 -20
q50 -38 58 -131q6 -70 -1.5 -151t-24.5 -188t-22 -153q-1 -8 -2.5 -21.5t-3 -35t-1.5 -42t1 -38.5t5.5 -28.5t12.5 -9.5q4 1 8.5 6.5t10 18t10 24t13 35t14.5 39.5q25 63 74 204.5t92.5 247.5t94.5 193q85 143 187 148q62 4 99 -41q30 -37 14 -72q-41 41 -101.5 -6.5
t-121.5 -136.5q34 -20 85.5 -23t106 7.5t124 30t131 41t136 44.5t130.5 35q46 10 93 14t96.5 -3.5t84.5 -27t50.5 -62t0.5 -103.5q-17 111 -385 45q31 -19 31 -50.5t-21 -81.5q-25 -61 -48.5 -122t-34.5 -91t-37 -105t-34 -97q-23 -66 -63 -76q-32 -7 -46 27l-4 13
q-37 -48 -79 -57.5t-67 22.5t-16 93q4 36 12 72q7 34 15 64q6 24 11 38q-18 -18 -46 -61q-32 -49 -52 -83q-34 -59 -46 -87q-27 -58 -68 -71q-35 -11 -45 20q-6 19 1 47q1 2 4.5 18.5t5.5 25.5q-32 -48 -52 -68q-55 -54 -94 -16t-22 128q9 50 20 87q9 31 29 91q1 2 5 13
t6 17q17 52 52 56q28 3 41 -26q11 -25 -2 -56q-39 -91 -53 -143q-32 -113 1 -85q37 32 122 191l7 14q1 4 3 10.5t3 9.5q21 60 38 96q14 30 41 32.5t43 -20.5t2 -55q-6 -15 -14 -31q-17 -39 -22 -49q-3 -7 -9.5 -20.5t-9.5 -19.5q-7 -16 -9 -23q13 22 36 56q27 39 38 53
q26 32 39 45q39 39 73.5 39t44.5 -35t-10 -98q-15 -40 -26 -77q-42 -133 -23 -134q14 -1 62 66q8 11 17 24q18 26 37 58q6 17 149 400q-82 -16 -295 -65q-126 -29 -183 -23q-98 8 -116 95q-39 -60 -60 -103q-43 -88 -84 -186q-35 -83 -91 -236.5t-83 -220.5q-3 -8 -9 -22
q107 16 469 84q236 45 390 45t151 -60q-1 -14 -22.5 -55t-39 -74.5t-10.5 -35.5q10 -4 58 62q64 89 105 181.5t84 223.5q10 31 10 33q-10 -20 -36 -62q-63 -96 -101 -128q-37 -32 -67 -29q-33 4 -45.5 44.5t5.5 104.5q25 80 25 81q18 49 33 80q8 16 24 44q11 18 26.5 25
t29 3t24 -14t11 -26t-8.5 -33q-9 -15 -21 -39q-23 -48 -33 -73q-37 -94 -18 -88q18 6 66 83q21 34 45 75q14 23 45 79q8 14 19.5 37t16.5 32zM795 462q21 15 26 47t-15.5 64t-67.5 40q-28 -98 9 -141q24 -25 48 -10zM2845 395q-13 -65 29 -63q44 3 104 64q47 49 68 102
q-1 -9 -4.5 -24t-16.5 -54.5t-30.5 -71.5t-49.5 -62t-70 -39q-42 -9 -75 9q-58 31 -55 119q2 34 8 60q11 43 30 90q21 49 43 87q24 40 51 72q25 29 56.5 41.5t57.5 7t45 -26t19.5 -57t-18.5 -84.5q-24 -55 -53 -84t-56 -31q-23 -2 -34.5 13t-0.5 38q6 -11 23 -6
q30 9 57 73.5t8 73.5q-4 2 -15.5 -7.5t-31 -38t-40.5 -69.5q-37 -72 -49 -132zM2737 666q25 -22 24.5 -74.5t-20 -109t-56.5 -108.5t-79 -74q-25 -13 -52.5 -14t-43.5 16t-5 51q16 -29 49 -9.5t60 70.5q45 84 53 154q5 40 -12 37q-20 -5 -57 -56q-31 -42 -64 -110
q-93 -194 -142 -381q-12 -48 -43 -53q-28 -4 -41 28t3 80q24 74 72.5 211t66.5 191q7 19 22.5 65t23.5 68q4 12 10 30.5t10 28.5q13 36 44 34q27 -2 36 -31q6 -18 -2 -40q-6 -16 -10 -29q25 29 55 40.5t55 6.5t43 -22zM1451 670q-22 0 -37.5 16t-15.5 38t15.5 37.5
t37.5 15.5t37.5 -15.5t15.5 -37.5t-15.5 -38t-37.5 -16zM2011 1207q-29 5 -46.5 28t-13.5 51t28 45t53 12t46.5 -28t13.5 -51t-28 -45t-53 -12zM2027 1313q-15 2 -27.5 -7t-14.5 -25t7 -29t24 -15t27.5 7t14.5 25t-7 29t-24 15zM1815 1279l-2 -50l-33 2l6 132l104 -5l-1 -30
l-71 4l-1 -24l64 -3l-1 -29zM2193 1255l-18 -76l-32 7l29 129l33 -7l39 -89l17 77l32 -8l-29 -129l-32 7zM2360 1128l33 97l-38 13l10 28l107 -37l-10 -27l-37 12l-34 -97zM1330 1204l-32 -5l-20 131l32 5l48 -62l28 74l32 4l20 -130l-32 -5l-12 76l-27 -74l-48 62z
M1000 1122l-46 -16l-43 125l46 16q32 11 59 0.5t36 -38.5t-5.5 -52t-46.5 -35zM971 1220l-19 -6l23 -69l20 7q16 5 23 18.5t2 28.5t-19 20.5t-30 0.5zM1235 1187l-101 -23l-29 129l101 23l7 -29l-70 -16l5 -20l63 14l6 -28l-63 -15l5 -22l70 15zM1572 1227q-28 -1 -50 18
t-24 47q-1 28 18.5 49t48.5 23q29 1 51 -18t24 -47t-18.5 -49.5t-49.5 -22.5zM1567 1334q-15 -1 -25.5 -12.5t-9.5 -27.5t12.5 -27t26.5 -10t25.5 13t9.5 28t-12.5 26.5t-26.5 9.5zM864 1128q-106 -44 -201 -96l-19 29q85 49 208 99zM2733 1061l-19 -29q-94 52 -201 96
l13 32q119 -49 207 -99z" />
    <glyph glyph-name="four" unicode="4" 
d="M2343 707q17 30 38.5 40t37 1.5t23 -31.5t0.5 -53q-118 -476 -278 -672q-3 -5 -10 -12l-9 -9q-32 -33 -72 -42.5t-65.5 5.5t-33.5 47.5t22 84.5q4 6 14.5 21.5t18 27.5t13.5 25.5t3 22t-15 11.5q-41 8 -164.5 -6t-260.5 -49q-36 -9 -143 -41q-98 -30 -155 -46t-169 -44.5
t-184 -37t-169.5 -17t-158.5 10t-117.5 49.5t-80 95t-15.5 154q17 -40 47.5 -70.5t73 -49t92.5 -29t112.5 -13t126.5 1t140 12.5q-26 19 -46.5 44.5t-27.5 47.5q-15 42 3 217q3 27 31 205.5t26 261.5q-1 47 -25 65t-56 6.5t-58 -42.5q-34 -41 -66 -121q-19 -46 -34 -101
q60 -23 89.5 -77.5t17.5 -112.5q-10 -47 -41.5 -73t-67 -26.5t-69.5 22t-49 63.5q-14 41 1 134q-27 -5 -169.5 -56t-215.5 -53q-69 -2 -115.5 41.5t-50.5 137.5q38 -48 118.5 -56t157 9t167.5 39t128 23l9 30q28 83 72 154q43 69 100 116q26 21 58.5 34.5t69.5 13.5t63 -20
q49 -37 57 -131q6 -70 -1.5 -151t-24.5 -188t-22 -153q-1 -8 -2.5 -21.5t-3 -35t-1.5 -42t1 -38.5t5.5 -28.5t12.5 -9.5q4 1 8.5 6.5t10 18t10 24t13 35t14.5 39.5q25 63 74 204.5t92.5 247.5t94.5 193q85 143 187 148q62 4 99 -41q30 -37 14 -72q-41 41 -101.5 -6.5
t-121.5 -136.5q34 -20 85.5 -23t106 7.5t124 30t131 41t136 44.5t130.5 35q46 10 93 14t96.5 -3.5t84.5 -27t50.5 -62t0.5 -103.5q-17 111 -385 45q31 -19 31 -50.5t-21 -81.5q-25 -61 -48.5 -122t-34.5 -91t-37 -105t-34 -97q-23 -66 -63 -76q-32 -7 -46 27l-4 13
q-37 -48 -79 -57.5t-67 22.5t-16 93q4 36 12 72q7 34 15 64q6 24 11 38q-18 -18 -46 -61q-23 -35 -51 -83q-38 -68 -47 -87q-27 -58 -68 -71q-35 -11 -45 20q-6 19 1 47q1 2 4.5 18.5t5.5 25.5q-32 -48 -52 -68q-55 -54 -94 -16t-22 128q9 50 20 87q9 31 29 91q1 2 5 13
t6 17q17 52 52 56q28 3 41 -26q11 -25 -2 -56q-39 -91 -53 -143q-32 -113 1 -85q37 32 122 191l7 14q1 4 3 10.5t3 9.5q21 60 38 96q14 30 41 32.5t43 -20.5t2 -55q-6 -15 -14 -31q-17 -39 -22 -49q-3 -7 -9.5 -20.5t-9.5 -19.5q-7 -16 -9 -23q13 22 36 56q27 39 38 53
q26 32 39 45q39 39 73.5 39t44.5 -35t-10 -98q-15 -40 -26 -77q-42 -133 -23 -134q14 -1 62 66q8 11 17 24q18 26 37 58q6 17 149 400q-82 -16 -295 -65q-126 -29 -183 -23q-98 8 -116 95q-39 -60 -60 -103q-43 -88 -84 -186q-35 -83 -91 -236.5t-83 -220.5q-3 -8 -9 -22
q107 16 469 84q236 45 390 45t151 -60q-1 -14 -22.5 -55t-39 -74.5t-10.5 -35.5q10 -4 58 62q64 89 105 181.5t84 223.5q10 31 10 33q-10 -20 -36 -62q-63 -96 -101 -128q-37 -32 -67 -29q-33 4 -45.5 44.5t5.5 104.5q25 80 25 81q18 49 33 80q8 16 24 44q11 18 26.5 25
t29 3t24 -14t11 -26t-8.5 -33q-9 -15 -21 -39q-23 -48 -33 -73q-37 -94 -18 -88q18 6 66 83q21 34 45 75q14 23 45 79q8 14 19.5 37t16.5 32zM795 462q21 15 26 47t-15.5 64t-67.5 40q-28 -98 9 -141q24 -25 48 -10zM2845 395q-13 -65 29 -63q43 3 103 64q48 49 69 102
q-1 -9 -4.5 -24t-16.5 -54.5t-30.5 -71.5t-49.5 -62t-70 -39q-42 -9 -75 9q-58 31 -55 119q2 34 8 60q11 43 30 90q21 49 43 87q24 40 51 72q25 29 56.5 41.5t57.5 7t45 -26t19.5 -57t-18.5 -84.5q-24 -55 -53 -84t-56 -31q-23 -2 -34.5 13t-0.5 38q6 -11 23 -6
q30 9 57 73.5t8 73.5q-4 2 -15.5 -7.5t-31 -38t-40.5 -69.5q-37 -72 -49 -132zM2737 666q25 -22 24.5 -74.5t-20 -109t-56.5 -108.5t-79 -74q-25 -13 -52.5 -14t-43.5 16t-5 51q16 -29 49 -9.5t60 70.5q45 84 53 154q5 40 -12 37q-20 -5 -57 -56q-31 -42 -64 -110
q-95 -198 -143 -381q-13 -48 -44 -53q-27 -4 -39 28q-13 32 3 80q24 74 72.5 211t66.5 191q7 19 22.5 65t23.5 68q4 12 10 30.5t10 28.5q13 36 44 34q27 -2 36 -31q6 -18 -2 -40q-6 -16 -10 -29q25 29 55 40.5t55 6.5t43 -22zM1451 670q-22 0 -37.5 16t-15.5 38t15.5 37.5
t37.5 15.5t37.5 -15.5t15.5 -37.5t-15.5 -38t-37.5 -16zM1815 1279l-2 -50l-33 2l6 132l104 -5l-1 -30l-71 4l-1 -24l64 -3l-1 -29zM2193 1255l-18 -76l-32 7l29 129l33 -7l39 -89l17 77l32 -8l-29 -129l-32 7zM2011 1207q-29 5 -46.5 28t-13.5 51t28 45t53 12t46.5 -28
t13.5 -51t-28 -45t-53 -12zM2027 1313q-15 2 -27.5 -7t-14.5 -25t7 -29t24 -15t27.5 7t14.5 25t-7 29t-24 15zM1235 1187l-101 -23l-29 129l101 23l7 -29l-70 -16l5 -20l63 14l6 -28l-63 -15l5 -22l70 15zM2360 1128l33 97l-38 13l10 28l107 -37l-10 -27l-38 12l-33 -97z
M1000 1122l-46 -16l-43 125l46 16q32 11 59 0.5t36 -38.5t-5.5 -52t-46.5 -35zM971 1220l-19 -6l23 -69l20 7q16 5 23 18.5t2 28.5t-19 20.5t-30 0.5zM1330 1204l-32 -5l-20 131l32 5l48 -62l28 74l32 4l20 -130l-32 -5l-12 76l-27 -74l-48 62zM1572 1227q-28 -1 -50 18
t-24 47q-1 28 18.5 49t48.5 23q29 1 51 -18t24 -47t-18.5 -49.5t-49.5 -22.5zM1567 1334q-15 -1 -25.5 -12.5t-9.5 -27.5t12.5 -27t26.5 -10t25.5 13t9.5 28t-12.5 26.5t-26.5 9.5zM864 1128q-106 -44 -201 -96l-19 29q85 49 208 99zM2733 1061l-19 -29q-94 52 -201 96
l13 32q119 -49 207 -99z" />
    <glyph glyph-name="five" unicode="5" 
d="M2343 707q23 40 51 45t43 -21.5t5 -66.5q-118 -475 -279 -672q-3 -5 -10 -12l-9 -9q-26 -27 -57 -38.5t-56 -6t-42 21.5t-16 48t23 70q4 6 14.5 21.5t18 27.5t13.5 25.5t3 22t-15 11.5q-41 8 -164.5 -6t-260.5 -49q-36 -9 -143 -41q-98 -30 -155 -46t-169 -44.5t-184 -37
t-169.5 -17t-158.5 10t-117.5 49.5t-80 95t-15.5 154q17 -40 47.5 -70.5t73 -49t92.5 -29t112.5 -13t126.5 1t140 12.5q-26 19 -46.5 44.5t-27.5 47.5q-15 42 3 217q3 27 31 205.5t26 261.5q-1 47 -25 65t-56 6.5t-58 -42.5q-34 -41 -66 -121q-19 -46 -34 -101
q60 -23 89.5 -77.5t17.5 -112.5q-10 -47 -41.5 -73t-67 -26.5t-69.5 22t-49 63.5q-14 41 1 134q-27 -5 -169.5 -56t-215.5 -53q-69 -2 -115.5 41.5t-50.5 137.5q38 -48 118.5 -56t157 9t167.5 39t128 23l9 30q28 83 72 154q43 69 100 116q26 21 58.5 34.5t69.5 13.5t63 -20
q49 -37 57 -131q6 -70 -1.5 -151t-24.5 -188t-22 -153q-1 -8 -2.5 -21.5t-3 -35t-1.5 -42t1 -38.5t5.5 -28.5t12.5 -9.5q4 1 8.5 6.5t10 18t10 24t13 35t14.5 39.5q25 63 74 204.5t92.5 247.5t94.5 193q85 143 187 148q62 4 99 -41q30 -37 14 -72q-41 41 -101.5 -6.5
t-121.5 -136.5q34 -20 85.5 -23t106 7.5t124 30t131 41t136 44.5t130.5 35q46 10 93 14t96.5 -3.5t84.5 -27t50.5 -62t0.5 -103.5q-17 111 -385 45q31 -19 31 -50.5t-21 -81.5q-25 -61 -48.5 -122t-34.5 -91t-37 -105t-34 -97q-23 -66 -63 -76q-32 -7 -46 27l-4 13
q-37 -48 -79 -57.5t-67 22.5t-16 93q4 36 12 72q7 34 15 64q6 24 11 38q-18 -18 -46 -61q-32 -49 -52 -83q-34 -59 -46 -87q-27 -58 -68 -71q-35 -11 -45 20q-6 19 1 47q1 2 4.5 18.5t5.5 25.5q-32 -48 -52 -68q-55 -54 -94 -16t-22 128q9 50 20 87q9 31 29 91q1 2 5 13
t6 17q17 52 52 56q28 3 41 -26q11 -25 -2 -56q-39 -91 -53 -143q-32 -113 1 -85q37 32 122 191l7 14q1 4 3 10.5t3 9.5q21 60 38 96q14 30 41 32.5t43 -20.5t2 -55q-6 -15 -14 -31q-5 -11 -13.5 -29t-9.5 -20q-4 -9 -10.5 -23t-7.5 -17q-7 -16 -9 -23q13 22 36 56
q27 39 38 53q26 32 39 45q39 39 73.5 39t44.5 -35t-10 -98q-15 -40 -26 -77q-42 -133 -23 -134q14 -1 62 66q8 11 17 24q18 26 37 58q6 17 149 400q-82 -16 -295 -65q-126 -29 -183 -23q-98 8 -116 95q-39 -60 -60 -103q-43 -88 -84 -186q-35 -83 -91 -236.5t-83 -220.5
q-2 -5 -5.5 -12.5t-4.5 -9.5q111 16 470 84q236 45 390 45t151 -60q-1 -14 -22.5 -55t-39 -74.5t-10.5 -35.5q10 -4 58 62q64 89 105 181.5t84 223.5q10 31 10 33q-10 -20 -36 -62q-63 -96 -101 -128q-37 -32 -67 -29q-34 4 -46 44.5t5 104.5q20 64 26 81q18 49 33 80
q8 16 24 44q11 18 26.5 25t29 3t24 -14t11 -26t-8.5 -33q-9 -15 -21 -39q-23 -48 -33 -73q-37 -94 -18 -88q18 6 66 83q21 34 45 75q14 23 45 79q8 14 19.5 37t16.5 32zM795 462q21 15 26 47t-15.5 64t-67.5 40q-28 -98 9 -141q24 -25 48 -10zM2845 395q-13 -65 29 -63
q43 3 103 64q48 49 69 102q-1 -9 -4.5 -24t-16.5 -54.5t-30.5 -71.5t-49.5 -62t-70 -39q-42 -9 -75 9q-58 31 -55 119q2 34 8 60q11 43 30 90q21 49 43 87q24 40 51 72q25 29 56.5 41.5t57.5 7t45 -26t19.5 -57t-18.5 -84.5q-24 -55 -53 -84t-56 -31q-23 -2 -34.5 13
t-0.5 38q6 -11 23 -6q30 9 57 73.5t8 73.5q-4 2 -15.5 -7.5t-31 -38t-40.5 -69.5q-37 -72 -49 -132zM2737 666q25 -22 24.5 -74.5t-20 -109t-56.5 -108.5t-79 -74q-25 -13 -52.5 -14t-43.5 16t-5 51q16 -29 49 -9.5t60 70.5q45 84 53 154q5 40 -12 37q-20 -5 -57 -56
q-31 -42 -64 -110q-95 -198 -143 -381q-13 -48 -44 -53q-27 -4 -39 28q-13 32 3 80q24 74 72.5 211t66.5 191q7 19 22.5 65t23.5 68q4 12 10 30.5t10 28.5q13 36 44 34q27 -2 36 -31q6 -18 -2 -40q-6 -16 -10 -29q25 29 55 40.5t55 6.5t43 -22zM1451 670q-22 0 -37.5 16
t-15.5 38t15.5 37.5t37.5 15.5t37.5 -15.5t15.5 -37.5t-15.5 -38t-37.5 -16zM1235 1187l-101 -23l-29 129l101 23l7 -29l-70 -16l5 -20l63 14l6 -28l-63 -15l5 -22l70 15zM2011 1207q-29 5 -46.5 28t-13.5 51t28 45t53 12t46.5 -28t13.5 -51t-28 -45t-53 -12zM2027 1313
q-15 2 -27.5 -7t-14.5 -25t7 -29t24 -15t27.5 7t14.5 25t-7 29t-24 15zM2360 1128l33 97l-38 13l10 28l107 -37l-10 -27l-38 12l-33 -97zM1815 1279l-2 -50l-33 2l6 132l104 -5l-1 -30l-71 4l-1 -24l64 -3l-1 -29zM2193 1255l-18 -76l-32 7l29 129l33 -7l39 -89l17 77l32 -8
l-29 -129l-32 7zM1330 1204l-32 -5l-20 131l32 5l48 -62l28 74l32 4l20 -130l-32 -5l-12 76l-27 -74l-48 62zM1000 1122l-46 -16l-43 125l46 16q32 11 59 0.5t36 -38.5t-5.5 -52t-46.5 -35zM971 1220l-19 -6l23 -69l20 7q16 5 23 18.5t2 28.5t-19 20.5t-30 0.5zM1572 1227
q-28 -1 -50 18t-24 47q-1 28 18.5 49t48.5 23q29 1 51 -18t24 -47t-18.5 -49.5t-49.5 -22.5zM1567 1334q-15 -1 -25.5 -12.5t-9.5 -27.5t12.5 -27t26.5 -10t25.5 13t9.5 28t-12.5 26.5t-26.5 9.5zM864 1128q-106 -44 -201 -96l-19 29q85 49 208 99zM2733 1061l-19 -29
q-94 52 -201 96l13 32q119 -49 207 -99z" />
    <glyph glyph-name="six" unicode="6" 
d="M2343 707q17 30 38.5 40t37 1.5t23 -31.5t0.5 -53q-118 -476 -278 -672q-3 -5 -10 -12l-9 -9q-32 -33 -72 -42.5t-65.5 5.5t-33.5 47.5t22 84.5q4 6 14.5 21.5t18 27.5t13.5 25.5t3 22t-15 11.5q-41 8 -164.5 -6t-260.5 -49q-36 -9 -143 -41q-98 -30 -155 -46t-169 -44.5
t-184 -37t-169.5 -17t-158.5 10t-117.5 49.5t-80 95t-15.5 154q17 -40 47.5 -70.5t73 -49t92.5 -29t112.5 -13t126.5 1t140 12.5q-26 19 -46.5 44.5t-27.5 47.5q-15 42 3 217q3 27 31 205.5t26 261.5q-1 47 -25 65t-56 6.5t-58 -42.5q-34 -41 -66 -121q-19 -46 -34 -101
q60 -23 89.5 -77.5t17.5 -112.5q-10 -47 -41.5 -73t-67 -26.5t-69.5 22t-49 63.5q-14 41 1 134q-27 -5 -169.5 -56t-215.5 -53q-69 -2 -115.5 41.5t-50.5 137.5q38 -48 118.5 -56t157 9t167.5 39t128 23l9 30q28 83 72 154q43 69 100 116q26 21 58.5 34.5t69.5 13.5t63 -20
q49 -37 57 -131q6 -70 -1.5 -151t-24.5 -188t-22 -153q-1 -8 -2.5 -21.5t-3 -35t-1.5 -42t1 -38.5t5.5 -28.5t12.5 -9.5q4 1 8.5 6.5t10 18t10 24t13 35t14.5 39.5q25 63 74 204.5t92.5 247.5t94.5 193q85 143 187 148q62 4 99 -41q30 -37 14 -72q-41 41 -101.5 -6.5
t-121.5 -136.5q34 -20 85.5 -23t106 7.5t124 30t131 41t136 44.5t130.5 35q46 10 93 14t96.5 -3.5t84.5 -27t50.5 -62t0.5 -103.5q-17 111 -385 45q31 -19 31 -50.5t-21 -81.5q-25 -61 -48.5 -122t-34.5 -91t-37 -105t-34 -97q-23 -66 -63 -76q-32 -7 -46 27l-4 13
q-37 -48 -79 -57.5t-67 22.5t-16 93q4 36 12 72q7 34 15 64q6 24 11 38q-18 -18 -46 -61q-32 -49 -52 -83q-34 -59 -46 -87q-27 -58 -68 -71q-35 -11 -45 20q-6 19 1 47q1 2 4.5 18.5t5.5 25.5q-32 -48 -52 -68q-55 -54 -94 -16t-22 128q9 50 20 87q9 31 29 91q1 2 5 13
t6 17q17 52 52 56q28 3 41 -26q11 -25 -2 -56q-39 -91 -53 -143q-32 -113 1 -85q37 32 122 191l7 14q1 4 3 10.5t3 9.5q21 60 38 96q14 30 41 32.5t43 -20.5t2 -55q-6 -15 -14 -31q-17 -39 -22 -49q-3 -7 -9.5 -20.5t-9.5 -19.5q-7 -16 -9 -23q13 22 36 56q27 39 38 53
q26 32 39 45q39 39 73.5 39t44.5 -35t-10 -98q-15 -40 -26 -77q-42 -133 -23 -134q14 -1 62 66q8 11 17 24q18 26 37 58q6 17 149 400q-82 -16 -295 -65q-126 -29 -183 -23q-98 8 -116 95q-39 -60 -60 -103q-43 -88 -84 -186q-35 -83 -91 -236.5t-83 -220.5
q-2 -5 -5.5 -12.5t-4.5 -9.5q111 16 470 84q236 45 390 45t151 -60q-1 -14 -22.5 -55t-39 -74.5t-10.5 -35.5q10 -4 58 62q64 89 105 181.5t84 223.5q10 31 10 33q-10 -20 -36 -62q-63 -96 -101 -128q-37 -32 -67 -29q-33 4 -45.5 44.5t5.5 104.5q25 80 25 81q18 49 33 80
q8 16 24 44q11 18 26.5 25t29 3t24 -14t11 -26t-8.5 -33q-9 -15 -21 -39q-23 -48 -33 -73q-37 -94 -18 -88q18 6 66 83q21 34 45 75q14 23 45 79q8 14 19.5 37t16.5 32zM795 462q21 15 26 47t-15.5 64t-67.5 40q-28 -98 9 -141q24 -25 48 -10zM2845 395q-13 -65 29 -63
q43 3 103 64q48 49 69 102q-1 -9 -4.5 -24t-16.5 -54.5t-30.5 -71.5t-49.5 -62t-70 -39q-42 -9 -75 9q-58 31 -55 119q2 34 8 60q12 49 29 90q18 44 44 87q24 40 51 72q32 36 71.5 46.5t67 -7t37.5 -56.5t-17 -102q-24 -55 -52.5 -84t-55.5 -31q-23 -2 -34.5 13t-0.5 38
q6 -11 23 -6q30 9 57 73.5t8 73.5q-4 2 -15.5 -7.5t-31 -38t-40.5 -69.5q-37 -72 -49 -132zM2737 666q25 -22 24.5 -74.5t-20 -109t-56.5 -108.5t-79 -74q-25 -13 -52.5 -14t-43.5 16t-5 51q16 -29 49 -9.5t60 70.5q45 84 53 154q5 40 -12 37q-20 -5 -57 -56
q-31 -42 -64 -110q-95 -198 -143 -381q-13 -48 -44 -53q-27 -4 -39 28q-13 32 3 80q24 74 72.5 211t66.5 191q7 19 22.5 65t23.5 68q4 12 10 30.5t10 28.5q13 36 44 34q27 -2 36 -31q6 -18 -2 -40q-6 -16 -10 -29q25 29 55 40.5t55 6.5t43 -22zM1451 670q-22 0 -37.5 16
t-15.5 38t15.5 37.5t37.5 15.5t37.5 -15.5t15.5 -37.5t-15.5 -38t-37.5 -16zM1815 1279l-2 -50l-33 2l6 132l104 -5l-1 -30l-71 4l-1 -24l64 -3l-1 -29zM2193 1255l-18 -76l-32 7l29 129l33 -7l39 -89l17 77l32 -8l-29 -129l-32 7zM2011 1207q-29 5 -46.5 28t-13.5 51t28 45
t53 12t46.5 -28t13.5 -51t-28 -45t-53 -12zM2027 1313q-15 2 -27.5 -7t-14.5 -25t7 -29t24 -15t27.5 7t14.5 25t-7 29t-24 15zM2360 1128l33 97l-38 13l10 28l107 -37l-10 -27l-38 12l-33 -97zM1000 1122l-46 -16l-43 125l46 16q32 11 59 0.5t36 -38.5t-5.5 -52t-46.5 -35z
M971 1220l-19 -6l23 -69l20 7q16 5 23 18.5t2 28.5t-19 20.5t-30 0.5zM1235 1187l-101 -23l-29 129l101 23l7 -29l-70 -16l5 -20l63 14l6 -28l-63 -15l5 -22l70 15zM1330 1204l-32 -5l-20 131l32 5l48 -62l28 74l32 4l20 -130l-32 -5l-12 76l-27 -74l-48 62zM1572 1227
q-28 -1 -50 18t-24 47q-1 28 18.5 49t48.5 23q29 1 51 -18t24 -47t-18.5 -49.5t-49.5 -22.5zM1567 1334q-15 -1 -25.5 -12.5t-9.5 -27.5t12.5 -27t26.5 -10t25.5 13t9.5 28t-12.5 26.5t-26.5 9.5zM864 1128q-106 -44 -201 -96l-19 29q85 49 208 99zM2733 1061l-19 -29
q-94 52 -201 96l13 32q119 -49 207 -99z" />
    <glyph glyph-name="seven" unicode="7" 
d="M2343 707q17 30 38.5 40t37 1.5t23 -31.5t0.5 -53q-118 -476 -278 -672q-3 -5 -10 -12l-9 -9q-32 -33 -72 -42.5t-65.5 5.5t-33.5 47.5t22 84.5q4 6 14.5 21.5t18 27.5t13.5 25.5t3 22t-15 11.5q-41 8 -164.5 -6t-260.5 -49q-36 -9 -143 -41q-98 -30 -155 -46t-169 -44.5
t-184 -37t-169.5 -17t-158.5 10t-117.5 49.5t-80 95t-15.5 154q17 -40 47.5 -70.5t73 -49t92.5 -29t112.5 -13t126.5 1t140 12.5q-26 19 -46.5 44.5t-27.5 47.5q-15 42 3 217q3 27 31 205.5t26 261.5q-1 47 -25 65t-56 6.5t-58 -42.5q-34 -41 -66 -121q-19 -46 -34 -101
q60 -23 89.5 -77.5t17.5 -112.5q-10 -47 -41.5 -73t-67 -26.5t-69.5 22t-49 63.5q-14 41 1 134q-27 -5 -169.5 -56t-215.5 -53q-69 -2 -115.5 41.5t-50.5 137.5q38 -48 118.5 -56t157 9t167.5 39t128 23l9 30q28 83 72 154q43 69 100 116q26 21 58.5 34.5t69.5 13.5t63 -20
q49 -37 57 -132q6 -70 -1.5 -151t-24.5 -187t-22 -153q-1 -8 -2.5 -21.5t-3 -35t-1.5 -42t1 -38.5t5.5 -28.5t12.5 -9.5q4 1 8.5 6.5t10 18t10 24t13 35t14.5 39.5q25 63 74 204.5t92.5 247.5t94.5 193q85 143 187 148q62 4 99 -41q30 -37 14 -72q-41 41 -101.5 -6.5
t-121.5 -136.5q34 -20 85.5 -23t106 7.5t124 30t131 41t136 44.5t130.5 35q46 10 93 14t96.5 -3.5t84.5 -27t50.5 -62t0.5 -103.5q-17 111 -385 45q31 -19 31 -50.5t-21 -81.5q-25 -61 -48.5 -122t-34.5 -91t-37 -105t-34 -97q-23 -66 -63 -76q-32 -7 -46 27l-4 13
q-37 -48 -79 -57.5t-67 22.5t-16 93q4 36 12 72q7 34 15 64q6 24 11 38q-18 -18 -46 -61q-32 -49 -52 -83q-34 -59 -46 -87q-27 -58 -68 -71q-35 -11 -45 20q-6 19 1 47q1 2 4.5 18.5t5.5 25.5q-32 -48 -52 -68q-55 -54 -94 -16t-22 128q9 50 20 87q9 31 29 91q1 2 5 13
t6 17q17 52 52 56q28 3 41 -26q11 -25 -2 -56q-39 -91 -53 -143q-32 -113 1 -85q37 32 122 191l7 14q1 4 3 10.5t3 9.5q21 60 38 96q14 30 41 32.5t43 -20.5t2 -55q-6 -15 -14 -31q-17 -39 -22 -49q-3 -7 -9.5 -20.5t-9.5 -19.5q-7 -16 -9 -23q13 22 36 56q27 39 38 53
q26 32 39 45q39 39 73.5 39t44.5 -35t-10 -98q-15 -40 -26 -77q-42 -133 -23 -134q14 -1 62 66q8 11 17 24q18 26 37 58q6 17 149 400q-82 -16 -295 -65q-126 -29 -183 -23q-98 8 -116 95q-39 -60 -60 -103q-43 -88 -84 -186q-35 -83 -91 -236.5t-83 -220.5
q-2 -5 -5.5 -12.5t-4.5 -9.5q111 16 470 84q236 45 390 45t151 -60q-1 -14 -22.5 -55t-39 -74.5t-10.5 -35.5q10 -4 58 62q64 89 105 181.5t84 223.5q10 31 10 33q-10 -20 -36 -62q-63 -96 -101 -128q-37 -32 -67 -29q-33 4 -45.5 44.5t5.5 104.5q25 80 25 81q18 49 33 80
q8 16 24 44q11 18 26.5 25t29 3t24 -14t11 -26t-8.5 -33q-9 -15 -21 -39q-23 -48 -33 -73q-37 -94 -18 -88q18 6 66 83q21 34 45 75q14 23 45 79q8 14 19.5 37t16.5 32zM795 462q21 15 26 47t-15.5 64t-67.5 40q-28 -98 9 -141q24 -25 48 -10zM2845 395q-13 -65 29 -63
q43 3 103 64q48 49 69 102q-1 -9 -4.5 -24t-16.5 -54.5t-30.5 -71.5t-49.5 -62t-70 -39q-42 -9 -75 9q-58 31 -55 119q2 34 8 60q12 49 29 90q18 44 44 87q24 40 51 72q32 36 71.5 46.5t67 -7t37.5 -56.5t-17 -102q-24 -55 -52.5 -84t-55.5 -31q-23 -2 -34.5 13t-0.5 38
q6 -11 23 -6q30 9 57 73.5t8 73.5q-4 2 -15.5 -7.5t-31 -38t-40.5 -69.5q-37 -72 -49 -132zM2737 666q25 -22 24.5 -74.5t-20 -109t-56.5 -108.5t-79 -74q-25 -13 -52.5 -14t-43.5 16t-5 51q16 -29 49 -9.5t60 70.5q45 84 53 154q5 40 -12 37q-20 -5 -57 -56
q-31 -42 -64 -110q-95 -198 -143 -381q-12 -48 -43 -53q-28 -4 -41 28t3 80q24 73 72.5 209t67.5 193q7 19 22.5 65t23.5 68q4 12 10 30.5t10 28.5q13 36 44 34q27 -2 36 -31q6 -18 -2 -40q-6 -16 -10 -29q25 29 55 40.5t55 6.5t43 -22zM1451 670q-22 0 -37.5 16t-15.5 38
t15.5 37.5t37.5 15.5t37.5 -15.5t15.5 -37.5t-15.5 -38t-37.5 -16zM2360 1128l33 97l-38 13l10 28l107 -37l-10 -27l-38 12l-33 -97zM1815 1279l-2 -50l-33 2l6 132l104 -5l-1 -30l-71 4l-1 -24l64 -3l-1 -29zM2193 1255l-18 -76l-32 7l29 129l33 -7l39 -89l17 77l32 -8
l-29 -129l-32 7zM2011 1207q-29 5 -46.5 28t-13.5 51t28 45t53 12t46.5 -28t13.5 -51t-28 -45t-53 -12zM2027 1313q-15 2 -27.5 -7t-14.5 -25t7 -29t24 -15t27.5 7t14.5 25t-7 29t-24 15zM1572 1227q-28 -1 -50 18t-24 47q-1 28 18.5 49t48.5 23q29 1 51 -18t24 -47
t-18.5 -49.5t-49.5 -22.5zM1567 1334q-15 -1 -25.5 -12.5t-9.5 -27.5t12.5 -27t26.5 -10t25.5 13t9.5 28t-12.5 26.5t-26.5 9.5zM1000 1122l-46 -16l-43 125l46 16q32 11 59 0.5t36 -38.5t-5.5 -52t-46.5 -35zM971 1220l-19 -6l23 -69l20 7q16 5 23 18.5t2 28.5t-19 20.5
t-30 0.5zM1235 1187l-101 -23l-29 129l101 23l7 -29l-70 -16l5 -20l63 14l6 -28l-63 -15l5 -22l70 15zM1330 1204l-32 -5l-20 131l32 5l48 -62l28 74l32 4l20 -130l-32 -5l-12 76l-27 -74l-48 62zM864 1128q-106 -44 -201 -96l-19 29q85 49 208 99zM2733 1061l-19 -29
q-94 52 -201 96l13 32q119 -49 207 -99z" />
    <glyph glyph-name="eight" unicode="8" 
d="M2343 707q17 30 38.5 40t37 1.5t23 -31.5t0.5 -53q-118 -475 -279 -672q-3 -5 -10 -12l-9 -9q-26 -27 -57 -38.5t-56 -6t-42 21.5t-16 48t23 70q4 6 14.5 21.5t18 27.5t13.5 25.5t3 22t-15 11.5q-41 8 -164.5 -6t-260.5 -49q-36 -9 -143 -41q-98 -30 -155 -46t-169 -44.5
t-184 -37t-169.5 -17t-158.5 10t-117.5 49.5t-80 95t-15.5 154q17 -40 47.5 -70.5t73 -49t92.5 -29t112.5 -13t126.5 1t140 12.5q-26 19 -46.5 44.5t-27.5 47.5q-15 42 3 217q3 27 31 205.5t26 261.5q-1 47 -25 65t-56 6.5t-58 -42.5q-34 -41 -66 -121q-19 -46 -34 -101
q60 -23 89.5 -77.5t17.5 -112.5q-10 -47 -41.5 -73t-67 -26.5t-69.5 22t-49 63.5q-14 41 1 134q-27 -5 -169.5 -56t-215.5 -53q-69 -2 -115.5 41.5t-50.5 137.5q38 -48 118.5 -56t157 9t167.5 39t128 23l9 30q28 83 72 154q43 69 100 116q26 21 58.5 34.5t69.5 13.5t63 -20
q49 -37 57 -132q6 -70 -1.5 -151t-24.5 -187t-22 -153q-1 -8 -2.5 -21.5t-3 -35t-1.5 -42t1 -38.5t5.5 -28.5t12.5 -9.5q4 1 8.5 6.5t10 18t10 24t13 35t14.5 39.5q25 63 74 204.5t92.5 247.5t94.5 193q85 143 187 148q62 4 99 -41q30 -37 14 -72q-41 41 -101.5 -6.5
t-121.5 -136.5q34 -20 85.5 -23t106 7.5t124 30t131 41t136 44.5t130.5 35q46 10 93 14t96.5 -3.5t84.5 -27t50.5 -62t0.5 -103.5q-17 111 -385 45q31 -19 31 -50.5t-21 -81.5q-25 -61 -48.5 -122t-34.5 -91t-37 -105t-34 -97q-23 -66 -63 -76q-32 -7 -46 27l-4 13
q-37 -48 -79 -57.5t-67 22.5t-16 93q4 36 12 72q7 34 15 64q6 24 11 38q-18 -18 -46 -61q-23 -35 -51 -83q-38 -68 -47 -87q-27 -58 -68 -71q-35 -11 -45 20q-6 19 1 47q1 2 4.5 18.5t5.5 25.5q-32 -48 -52 -68q-55 -54 -94 -16t-22 128q9 50 20 87q9 31 29 91q1 2 5 13
t6 17q17 52 52 56q28 3 41 -26q11 -25 -2 -56q-39 -91 -53 -143q-32 -113 1 -85q37 32 122 191l7 14q1 4 3 10.5t3 9.5q21 60 38 96q14 30 41 32.5t43 -20.5t2 -55q-6 -15 -14 -31q-17 -39 -22 -49q-3 -7 -9.5 -20.5t-9.5 -19.5q-7 -16 -9 -23q13 22 36 56q27 39 38 53
q26 32 39 45q39 39 73.5 39t44.5 -35t-10 -98q-15 -40 -26 -77q-42 -135 -22 -134q17 0 79 90q14 19 36 58q6 17 149 400q-82 -16 -295 -65q-126 -29 -183 -23q-98 8 -116 95q-39 -60 -60 -103q-43 -88 -84 -186q-35 -83 -91 -236.5t-83 -220.5q-3 -8 -9 -22q107 16 469 84
q236 45 390 45t151 -60q-1 -14 -22.5 -55t-39 -74.5t-10.5 -35.5q10 -4 58 62q64 89 105 181.5t84 223.5q10 31 10 33q-10 -20 -36 -62q-63 -96 -101 -128q-37 -32 -67 -29q-34 4 -46 44.5t5 104.5q20 64 26 81q18 49 33 80q8 16 24 44q11 18 26.5 25t29 3t24 -14t11 -26
t-8.5 -33q-9 -15 -21 -39q-23 -48 -33 -73q-37 -94 -18 -88q18 6 66 83q21 34 45 75q14 23 45 79q8 14 19.5 37t16.5 32zM795 462q21 15 26 47t-15.5 64t-67.5 40q-28 -98 9 -141q24 -25 48 -10zM2845 395q-13 -65 29 -63q43 3 103 64q48 49 69 102q-1 -9 -4.5 -24
t-16.5 -54.5t-30.5 -71.5t-49.5 -62t-70 -39q-42 -9 -75 9q-58 31 -55 119q2 34 8 60q12 49 29 90q18 44 44 87q24 40 51 72q32 36 71.5 46.5t67 -7t37.5 -56.5t-17 -102q-24 -55 -52.5 -84t-55.5 -31q-23 -2 -34.5 13t-0.5 38q6 -11 23 -6q30 9 57 73.5t8 73.5
q-4 2 -15.5 -7.5t-31 -38t-40.5 -69.5q-37 -72 -49 -132zM2737 666q25 -22 24.5 -74.5t-20 -109t-56.5 -108.5t-79 -74q-25 -13 -52.5 -14t-44 16t-5.5 51q16 -29 49.5 -9.5t60.5 70.5q45 84 53 154q5 40 -12 37q-20 -5 -57 -56q-31 -42 -64 -110q-95 -198 -143 -381
q-12 -48 -43 -53q-28 -4 -41 28t3 80q24 73 72.5 209t67.5 193q7 19 22.5 65t23.5 68q4 12 10 30.5t10 28.5q13 36 44 34q27 -2 36 -31q6 -18 -2 -40q-6 -16 -10 -29q25 29 55 40.5t55 6.5t43 -22zM1451 670q-22 0 -37.5 16t-15.5 38t15.5 37.5t37.5 15.5t37.5 -15.5
t15.5 -37.5t-15.5 -38t-37.5 -16zM2011 1207q-29 5 -46.5 28t-13.5 51t28 45t53 12t46.5 -28t13.5 -51t-28 -45t-53 -12zM2027 1313q-15 2 -27.5 -7t-14.5 -25t7 -29t24 -15t27.5 7t14.5 25t-7 29t-24 15zM2193 1255l-18 -76l-32 7l29 129l32 -7l39 -89l18 77l32 -8
l-29 -129l-32 7zM1815 1279l-2 -50l-33 2l6 132l104 -5l-1 -30l-71 4l-1 -24l64 -3l-1 -29zM2360 1128l33 97l-38 13l10 28l107 -37l-10 -27l-38 12l-33 -97zM1235 1187l-101 -23l-29 129l101 23l7 -29l-70 -16l5 -20l63 14l6 -28l-63 -15l5 -22l70 15zM1572 1227
q-28 -1 -50 18t-24 47q-1 28 18.5 49t48.5 23q29 1 51 -18t24 -47t-18.5 -49.5t-49.5 -22.5zM1567 1334q-15 -1 -25.5 -12.5t-9.5 -27.5t12.5 -27t26.5 -10t25.5 13t9.5 28t-12.5 26.5t-26.5 9.5zM1000 1122l-46 -16l-43 125l46 16q32 11 58.5 0.5t35.5 -38.5t-5 -52
t-46 -35zM971 1220l-19 -6l23 -69l20 7q16 5 23 18.5t2 28.5t-19 20.5t-30 0.5zM1330 1204l-32 -5l-20 131l32 5l48 -62l28 74l32 4l20 -130l-32 -5l-12 76l-27 -74l-48 62zM864 1128q-106 -44 -201 -96l-19 29q85 49 208 99zM2733 1061l-19 -29q-94 52 -201 96l12 32
q123 -50 208 -99z" />
    <glyph glyph-name="nine" unicode="9" 
d="M2343 707q23 40 51 45t43 -21.5t5 -66.5q-118 -475 -279 -672q-3 -5 -10 -12l-9 -9q-26 -27 -57 -38.5t-56 -6t-42 21.5t-16 48t23 70q4 6 14.5 21.5t18 27.5t13.5 25.5t3 22t-15 11.5q-41 8 -164.5 -6t-260.5 -49q-36 -9 -143 -41q-98 -30 -155 -46t-169 -44.5t-184 -37
t-169.5 -17t-158.5 10t-117.5 49.5t-80 95t-15.5 154q17 -40 47.5 -70.5t73 -49t92.5 -29t112.5 -13t126.5 1t140 12.5q-26 19 -46.5 44.5t-27.5 47.5q-15 42 3 217q3 27 31 205.5t26 261.5q-1 47 -25 65t-56 6.5t-58 -42.5q-34 -41 -66 -121q-19 -46 -34 -101
q60 -23 89.5 -77.5t17.5 -112.5q-10 -47 -41.5 -73t-67 -26.5t-69.5 22t-49 63.5q-14 41 1 134q-27 -5 -169.5 -56t-215.5 -53q-69 -2 -115.5 41.5t-50.5 137.5q38 -48 118.5 -56t157 9t167.5 39t128 23l9 30q28 83 72 154q43 69 100 116q26 21 58.5 34.5t69.5 13.5t63 -20
q49 -37 57 -132q6 -70 -1.5 -151t-24.5 -187t-22 -153q-1 -8 -2.5 -21.5t-3 -35t-1.5 -42t1 -38.5t5.5 -28.5t12.5 -9.5q4 1 8.5 6.5t10 18t10 24t13 35t14.5 39.5q25 63 74 204.5t92.5 247.5t94.5 193q85 143 187 148q62 4 99 -41q30 -37 14 -72q-41 41 -101.5 -6.5
t-121.5 -136.5q34 -20 85.5 -23t106 7.5t124 30t131 41t136 44.5t130.5 35q46 10 93 14t96.5 -3.5t84.5 -27t50.5 -62t0.5 -103.5q-17 111 -385 45q31 -19 31 -50.5t-21 -81.5q-25 -61 -48.5 -122t-34.5 -91t-37 -105t-34 -97q-23 -66 -63 -76q-32 -7 -46 27l-4 13
q-37 -48 -79 -57.5t-67 22.5t-16 93q4 36 12 72q7 34 15 64q6 24 11 38q-18 -18 -46 -61q-32 -49 -52 -83q-34 -59 -46 -87q-27 -58 -68 -71q-35 -11 -45 20q-6 19 1 47q1 2 4.5 18.5t5.5 25.5q-32 -48 -52 -68q-55 -54 -94 -16t-22 128q9 50 20 87q9 31 29 91q1 2 5 13
t6 17q17 52 52 56q28 3 41 -26q11 -25 -2 -56q-39 -91 -53 -143q-32 -113 1 -85q37 32 122 191l7 14q1 4 3 10.5t3 9.5q21 60 38 96q14 30 41 32.5t43 -20.5t2 -55q-6 -15 -14 -31q-17 -39 -22 -49q-3 -7 -9.5 -20.5t-9.5 -19.5q-7 -16 -9 -23q13 22 36 56q27 39 38 53
q26 32 39 45q39 39 73.5 39t44.5 -35t-10 -98q-15 -40 -26 -77q-42 -133 -23 -134q14 -1 62 66q8 11 17 24q18 26 37 58q6 17 149 400q-82 -16 -295 -65q-126 -29 -183 -23q-98 8 -116 95q-39 -60 -60 -103q-43 -88 -84 -186q-35 -83 -91 -236.5t-83 -220.5
q-2 -5 -5.5 -12.5t-4.5 -9.5q111 16 470 84q236 45 390 45t151 -60q-1 -14 -22.5 -55t-39 -74.5t-10.5 -35.5q10 -4 58 62q64 89 105 181.5t84 223.5q10 31 10 33q-10 -20 -36 -62q-63 -96 -101 -128q-37 -32 -67 -29q-34 4 -46 44.5t5 104.5q20 64 26 81q18 49 33 80
q8 16 24 44q11 18 26.5 25t29 3t24 -14t11 -26t-8.5 -33q-9 -15 -21 -39q-23 -48 -33 -73q-37 -94 -18 -88q18 6 66 83q21 34 45 75q14 23 45 79q8 14 19.5 37t16.5 32zM795 462q21 15 26 47t-15.5 64t-67.5 40q-28 -98 9 -141q24 -25 48 -10zM2845 395q-13 -65 29 -63
q43 3 103 64q48 49 69 102q-1 -9 -4.5 -24t-16.5 -54.5t-30.5 -71.5t-49.5 -62t-70 -39q-42 -9 -75 9q-58 31 -55 119q2 34 8 60q11 43 30 90q21 49 43 87q24 40 51 72q32 36 71.5 46.5t67 -7t37.5 -56.5t-17 -102q-24 -55 -52.5 -84t-55.5 -31q-23 -2 -34.5 13t-0.5 38
q6 -11 23 -6q30 9 57 73.5t8 73.5q-4 2 -15.5 -7.5t-31 -38t-40.5 -69.5q-37 -72 -49 -132zM2737 666q25 -22 24.5 -74.5t-20 -109t-56.5 -108.5t-79 -74q-25 -13 -52.5 -14t-43.5 16t-5 51q16 -29 49 -9.5t60 70.5q45 84 53 154q5 40 -12 37q-20 -5 -57 -56
q-31 -42 -64 -110q-95 -198 -143 -381q-13 -48 -44 -53q-27 -4 -39 28q-13 32 3 80q24 74 72.5 211t66.5 191q7 19 22.5 65t23.5 68q4 12 10 30.5t10 28.5q13 36 44 34q27 -2 36 -31q6 -18 -2 -40q-6 -16 -10 -29q25 29 55 40.5t55 6.5t43 -22zM1451 670q-22 0 -37.5 16
t-15.5 38t15.5 37.5t37.5 15.5t37.5 -15.5t15.5 -37.5t-15.5 -38t-37.5 -16zM2011 1207q-29 5 -46.5 28t-13.5 51t28 45t53 12t46.5 -28t13.5 -51t-28 -45t-53 -12zM2027 1313q-15 2 -27.5 -7t-14.5 -25t7 -29t24 -15t27.5 7t14.5 25t-7 29t-24 15zM2360 1128l33 97l-38 13
l10 28l107 -37l-10 -27l-38 12l-33 -97zM2193 1255l-18 -76l-32 7l29 129l32 -7l39 -89l18 77l32 -8l-29 -129l-32 7zM1815 1279l-2 -50l-33 2l6 132l104 -5l-1 -30l-71 4l-1 -24l64 -3l-1 -29zM1572 1227q-28 -1 -50 18t-24 47q-1 28 18.5 49t48.5 23q29 1 51 -18t24 -47
t-18.5 -49.5t-49.5 -22.5zM1567 1334q-15 -1 -25.5 -12.5t-9.5 -27.5t12.5 -27t26.5 -10t25.5 13t9.5 28t-12.5 26.5t-26.5 9.5zM1330 1204l-32 -5l-20 131l32 5l48 -62l28 74l32 4l20 -130l-32 -5l-12 76l-27 -74l-48 62zM1000 1122l-46 -16l-43 125l46 16q32 11 59 0.5
t36 -38.5t-5.5 -52t-46.5 -35zM971 1220l-19 -6l23 -69l20 7q16 5 23 18.5t2 28.5t-19 20.5t-30 0.5zM1235 1187l-101 -23l-29 129l101 23l7 -29l-70 -16l5 -20l63 14l6 -28l-63 -15l5 -22l70 15zM864 1128q-106 -44 -201 -96l-19 29q85 49 208 99zM2733 1061l-19 -29
q-94 52 -201 96l12 32q123 -50 208 -99z" />
    <glyph glyph-name="colon" unicode=":" 
d="M2343 649q23 40 51 45t43 -21t5 -66q-118 -478 -278 -673q-3 -5 -10 -12l-9 -9q-32 -33 -72 -42.5t-65.5 5.5t-33.5 47.5t22 84.5q4 6 14.5 21.5t18 27.5t13.5 25.5t3 22t-15 11.5q-41 8 -164.5 -6t-260.5 -49q-36 -9 -143 -41q-98 -30 -155 -46t-169 -44.5t-184 -37
t-169.5 -17t-158.5 10t-117.5 49.5t-80 95t-15.5 154q17 -40 47.5 -70.5t73 -49t92.5 -29t112.5 -13t126.5 1t140 12.5q-26 19 -46.5 44.5t-27.5 47.5q-15 42 3 217q3 27 31 205.5t26 261.5q-1 47 -25 65t-56 6.5t-58 -42.5q-34 -41 -66 -121q-19 -46 -34 -101
q60 -23 89.5 -77.5t17.5 -112.5q-10 -47 -41.5 -72.5t-67 -26t-69 22t-48.5 63.5q-15 43 0 133q-27 -5 -169.5 -56t-215.5 -53q-69 -2 -115.5 41.5t-50.5 137.5q38 -48 118.5 -56t157 9t167.5 39t128 23l9 30q28 83 72 154t100 117q26 21 58.5 34t69.5 13t63 -20
q49 -37 57 -131q6 -70 -1.5 -151t-24.5 -188t-22 -153q-1 -8 -2.5 -21.5t-3 -35t-1.5 -42t1 -38.5t5.5 -28.5t12.5 -9.5q4 1 8.5 6.5t10 18t10 24t13 35t14.5 39.5q25 63 74 204.5t92.5 247.5t94.5 193q85 143 187 148q62 4 99 -41q30 -37 14 -72q-41 41 -101.5 -6.5
t-121.5 -136.5q34 -20 85.5 -23t106 7.5t124 30.5t131 41.5t136 44t130.5 35.5q46 10 93 14t96.5 -3.5t84.5 -27t50.5 -62t0.5 -103.5q-17 110 -385 44q31 -19 31 -50.5t-21 -81.5q-52 -126 -154 -414q-24 -68 -65 -76q-31 -7 -44 26q-3 6 -4 13q-37 -48 -79 -57.5t-67 23
t-16 93.5q4 33 12 71q7 34 15 64q6 24 11 38q-20 -20 -46 -60q-27 -41 -52 -84q-34 -59 -46 -87q-27 -58 -68 -71q-35 -11 -45 20q-6 19 1 47q1 2 4.5 18.5t5.5 25.5q-32 -48 -52 -68q-55 -54 -94 -16t-22 128q9 50 20 87q9 31 29 91q1 2 5 13t6 17q17 52 52 56q28 3 41 -26
q11 -25 -2 -56q-39 -91 -53 -143q-32 -113 1 -85q37 32 122 191l7 14q1 3 3 9.5t3 10.5q21 60 38 96q14 30 41 33t43 -20t2 -56q-4 -10 -14 -30q-3 -6 -10.5 -23.5t-11.5 -26.5q-3 -7 -9.5 -20.5t-9.5 -19.5q-7 -16 -9 -23q16 29 36 57q23 33 38 52q26 32 39 45
q39 39 73.5 39t44.5 -35t-10 -98q-17 -44 -26 -76q-42 -133 -23 -135q16 -1 79 90q18 26 37 58q6 17 149 400q-82 -16 -295 -65q-126 -29 -183 -23q-98 8 -116 95q-39 -60 -60 -103q-43 -88 -84 -186q-35 -83 -91 -236.5t-83 -220.5q-2 -5 -5.5 -12.5t-4.5 -9.5
q111 16 470 84q236 45 390 45t151 -60q-1 -14 -22.5 -55t-39 -74.5t-10.5 -35.5q10 -4 58 62q64 89 105 181.5t84 223.5q10 31 10 33q-10 -20 -36 -62q-63 -96 -101 -128q-37 -32 -67 -29q-33 4 -45.5 44.5t5.5 104.5q25 80 25 81q18 49 33 80q8 16 24 44q18 29 46 29
t39 -22t-3 -51q-6 -10 -21 -40q-23 -47 -33 -73q-37 -94 -18 -88q18 6 66 83q21 34 45 75q4 6 45 80q8 14 19.5 37t16.5 31zM795 404q21 15 26 47t-15.5 64t-67.5 40q-28 -98 9 -141q24 -25 48 -10zM2845 337q-13 -66 30 -63q44 3 104 65q47 48 68 101q-1 -5 -2.5 -13
t-8 -31t-14.5 -45t-22 -50t-31 -49t-41.5 -39t-52.5 -24q-42 -9 -75 9q-58 31 -55 119q2 34 8 60q12 49 29 90q18 44 44 87q24 40 51 72q32 36 71.5 46.5t67 -7t37.5 -56.5t-17 -102q-24 -55 -52.5 -84t-55.5 -31q-23 -2 -34.5 13t-0.5 38q6 -11 23 -6q30 9 57 73.5t8 73.5
q-4 2 -15.5 -7.5t-31 -38t-40.5 -69.5q-37 -72 -49 -132zM2737 608q25 -22 24.5 -74.5t-20 -109t-56.5 -108.5t-79 -74q-25 -13 -52.5 -13.5t-43.5 16.5t-5 51q16 -29 49 -9.5t60 70.5q45 85 53 154q5 40 -13 36q-19 -5 -56 -56q-31 -42 -64 -110q-95 -198 -143 -381
q-13 -48 -44 -53q-27 -4 -39 28q-13 32 3 80q24 74 72.5 211t66.5 191q7 19 22.5 65t23.5 68q4 12 10 30.5t10 28.5q10 30 34.5 34t39.5 -17t4 -53q-5 -14 -10 -30q25 29 55 40.5t55 6.5t43 -22zM1451 613q-22 0 -37.5 15.5t-15.5 37.5t15.5 37.5t37.5 15.5t37.5 -15.5
t15.5 -37.5t-15.5 -37.5t-37.5 -15.5zM1815 1221l-2 -50l-33 2l6 132l104 -5l-1 -29l-71 3l-1 -23l64 -4l-1 -29zM2011 1150q-29 5 -46.5 27.5t-13.5 50.5t28 45t53 12t46.5 -28t13.5 -51t-28 -44.5t-53 -11.5zM2027 1255q-15 2 -27.5 -7t-14.5 -25t7 -29t24 -15t27.5 7.5
t14.5 25.5t-7 28.5t-24 14.5zM2193 1198l-18 -77l-32 8l29 129l33 -8l39 -89l17 77l32 -8l-29 -129l-32 8zM2360 1070l33 97l-38 13l10 28l107 -36l-10 -28l-38 13l-33 -98zM1000 1064l-46 -16l-43 126l46 15q32 11 59 1t36 -38t-5.5 -52.5t-46.5 -35.5zM971 1163l-19 -7
l23 -69l20 7q16 5 23 18.5t2 28.5t-19 21t-30 1zM1235 1129l-101 -23l-29 129l101 23l7 -29l-70 -16l5 -20l63 15l6 -29l-63 -14l5 -23l70 16zM1330 1146l-32 -5l-20 131l32 5l48 -62l28 74l32 5l20 -131l-32 -5l-12 76l-27 -74l-48 62zM1572 1170q-29 -2 -51 17t-23 47
t18.5 49t48.5 23t51.5 -17t23.5 -47q2 -28 -18.5 -49.5t-49.5 -22.5zM1567 1277q-15 -1 -25.5 -13t-9.5 -28t12.5 -27t26.5 -10t25.5 13t9.5 28t-12.5 27t-26.5 10zM864 1070q-106 -44 -201 -96l-19 29q85 49 208 99zM2733 1003l-19 -29q-94 52 -201 96l13 32
q119 -49 207 -99z" />
    <glyph glyph-name="semicolon" unicode=";" 
d="M2343 649q23 40 51 45t43 -21t5 -66q-118 -476 -279 -673q-3 -5 -10 -12l-9 -9q-26 -27 -57 -38.5t-56 -6t-42 21.5t-16 48t23 70q4 6 14.5 21.5t18 27.5t13.5 25.5t3 22t-15 11.5q-41 8 -164.5 -6t-260.5 -49q-36 -9 -143 -41q-98 -30 -155 -46t-169 -44.5t-184 -37
t-169.5 -17t-158.5 10t-117.5 49.5t-80 95t-15.5 154q17 -40 47.5 -70.5t73 -49t92.5 -29t112.5 -13t126.5 1t140 12.5q-26 19 -46.5 44.5t-27.5 47.5q-15 42 3 217q3 27 31 205.5t26 261.5q-1 47 -25 65t-56 6.5t-58 -42.5q-34 -41 -66 -121q-19 -46 -34 -101
q60 -23 89.5 -77.5t17.5 -112.5q-10 -47 -41.5 -72.5t-67 -26t-69.5 22t-49 63.5q-14 41 1 133q-27 -5 -169.5 -56t-215.5 -53q-69 -2 -115.5 41.5t-50.5 137.5q38 -48 118.5 -56t157 9t167.5 39t128 23l9 30q28 83 72 154t100 117q26 21 58.5 34t69.5 13t63 -20
q49 -37 57 -131q6 -70 -1.5 -151t-24.5 -188t-22 -153q-1 -8 -2.5 -21.5t-3 -35t-1.5 -42t1 -38.5t5.5 -28.5t12.5 -9.5q4 1 8.5 6.5t10 18t10 24t13 35t14.5 39.5q25 63 74 204.5t92.5 247.5t94.5 193q85 143 187 148q62 4 99 -41q30 -37 14 -72q-41 41 -101.5 -6.5
t-121.5 -136.5q34 -20 85.5 -23t106 7.5t124 30.5t131 41.5t136 44t130.5 35.5q46 10 93 14t96.5 -3.5t84.5 -27t50.5 -62t0.5 -103.5q-17 110 -385 44q31 -19 31 -50.5t-21 -81.5q-52 -126 -154 -414q-24 -68 -65 -76q-31 -7 -44 26q-3 6 -4 13q-37 -48 -79 -57.5t-67 23
t-16 93.5q4 33 12 71q7 34 15 64q6 24 11 38q-20 -20 -46 -60q-17 -26 -51 -84q-38 -68 -47 -87q-27 -58 -68 -71q-35 -11 -45 20q-6 19 1 47q1 2 4.5 18.5t5.5 25.5q-32 -48 -52 -68q-55 -54 -94 -16t-22 128q9 50 20 87q9 31 29 91q1 2 5 13t6 17q17 52 52 56q28 3 41 -26
q11 -25 -2 -56q-39 -91 -53 -143q-32 -113 1 -85q37 32 122 191l7 14q1 3 3 9.5t3 10.5q21 60 38 96q14 30 41 33t43 -20t2 -56q-4 -10 -14 -30q-3 -6 -10.5 -23.5t-11.5 -26.5q-3 -7 -9.5 -20.5t-9.5 -19.5q-7 -16 -9 -23q16 29 36 57q23 33 38 52q26 32 39 45
q39 39 73.5 39t44.5 -35t-10 -98q-17 -44 -26 -76q-42 -135 -22 -135q17 1 79 90q14 19 36 58q6 17 149 400q-82 -16 -295 -65q-126 -29 -183 -23q-98 8 -116 95q-39 -60 -60 -103q-43 -88 -84 -186q-35 -83 -91 -236.5t-83 -220.5q-3 -8 -9 -22q107 16 469 84
q236 45 390 45t151 -60q-1 -14 -22.5 -55t-39 -74.5t-10.5 -35.5q10 -4 58 62q64 89 105 181.5t84 223.5q10 31 10 33q-10 -20 -36 -62q-63 -96 -101 -128q-37 -32 -67 -29q-33 4 -45.5 44.5t5.5 104.5q25 80 25 81q18 49 33 80q8 16 24 44q18 29 46 29t39 -22t-3 -51
q-6 -10 -21 -40q-23 -47 -33 -73q-37 -94 -18 -88q18 6 66 83q21 34 45 75q4 6 45 80q8 14 19.5 37t16.5 31zM795 404q21 15 26 47t-15.5 64t-67.5 40q-28 -98 9 -141q24 -25 48 -10zM2845 337q-13 -65 29 -63q44 3 104 64q47 49 68 102q-1 -9 -4.5 -24t-16.5 -54.5
t-30.5 -71.5t-49.5 -62t-70 -39q-42 -9 -75 9q-58 31 -55 119q2 34 8 60q11 43 30 90q21 49 43 87q24 40 51 72q25 29 56.5 41.5t57.5 7t45 -26t19.5 -57t-18.5 -84.5q-24 -55 -53 -84t-56 -31q-23 -2 -34.5 13t-0.5 38q6 -11 23 -6q30 9 57 73.5t8 73.5q-4 2 -15.5 -7.5
t-31 -38t-40.5 -69.5q-37 -72 -49 -132zM2737 608q25 -22 24.5 -74.5t-20 -109t-56.5 -108.5t-79 -74q-25 -13 -52.5 -13.5t-43.5 16.5t-5 51q16 -29 49 -9.5t60 70.5q45 85 53 154q5 40 -13 36q-19 -5 -56 -56q-31 -42 -64 -110q-95 -198 -143 -381q-13 -48 -44 -53
q-27 -4 -39 28q-13 32 3 80q24 74 72.5 211t66.5 191q7 19 22.5 65t23.5 68q4 12 10 30.5t10 28.5q10 30 34.5 34t39.5 -17t4 -53q-2 -5 -9 -30q25 29 54.5 40.5t54.5 6.5t43 -22zM1451 613q-22 0 -37.5 15.5t-15.5 37.5t15.5 37.5t37.5 15.5t37.5 -15.5t15.5 -37.5
t-15.5 -37.5t-37.5 -15.5zM1815 1221l-2 -50l-33 2l6 132l104 -5l-1 -29l-71 3l-1 -23l64 -4l-1 -29zM2011 1150q-29 5 -46.5 27.5t-13.5 50.5t28 45t53 12t46.5 -28t13.5 -51t-28 -44.5t-53 -11.5zM2027 1255q-15 2 -27.5 -7t-14.5 -25t7 -29t24 -15t27.5 7.5t14.5 25.5
t-7 28.5t-24 14.5zM2360 1070l33 97l-38 13l10 28l107 -36l-10 -28l-37 13l-34 -98zM2193 1198l-17 -77l-33 8l29 129l33 -8l39 -89l17 77l32 -8l-29 -129l-32 8zM1235 1129l-101 -23l-29 129l101 23l7 -29l-70 -16l5 -20l63 15l6 -29l-63 -14l5 -23l70 16zM1000 1064
l-46 -16l-43 126l46 15q32 11 59 1t36 -38t-5.5 -52.5t-46.5 -35.5zM971 1163l-19 -7l24 -69l19 7q16 5 23 18.5t2 28.5t-19 21t-30 1zM1572 1170q-29 -2 -51 17t-23 47t18.5 49t48.5 23t51.5 -17t23.5 -47q2 -28 -18.5 -49.5t-49.5 -22.5zM1567 1277q-15 -1 -25.5 -13
t-9.5 -28t12.5 -27t26.5 -10t25.5 13t9.5 28t-12.5 27t-26.5 10zM1330 1146l-32 -5l-20 131l32 5l48 -62l28 74l32 5l20 -131l-32 -5l-12 76l-27 -74l-48 62zM864 1070q-106 -44 -201 -96l-19 29q85 49 208 99zM2733 1003l-19 -29q-94 52 -201 96l13 32q119 -49 207 -99z
" />
    <glyph glyph-name="less" unicode="&#x3c;" 
d="M2343 649q23 40 51 45t43 -21t5 -66q-118 -478 -278 -673q-3 -5 -10 -12l-9 -9q-32 -33 -72 -42.5t-65.5 5.5t-33.5 47.5t22 84.5q4 6 14.5 21.5t18 27.5t13.5 25.5t3 22t-15 11.5q-41 8 -164.5 -6t-260.5 -49q-36 -9 -143 -41q-98 -30 -155 -46t-169 -44.5t-184 -37
t-169.5 -17t-158.5 10t-117.5 49.5t-80 95t-15.5 154q17 -40 47.5 -70.5t73 -49t92.5 -29t112.5 -13t126.5 1t140 12.5q-26 19 -46.5 44.5t-27.5 47.5q-15 42 3 217q3 27 31 205.5t26 261.5q-1 47 -25 65t-56 6.5t-58 -42.5q-34 -41 -66 -121q-19 -46 -34 -101
q60 -23 89.5 -77.5t17.5 -112.5q-10 -47 -41.5 -72.5t-67 -26t-69.5 22t-49 63.5q-14 41 1 133q-27 -5 -169.5 -56t-215.5 -53q-69 -2 -115.5 41.5t-50.5 137.5q38 -48 118.5 -56t157 9t167.5 39t128 23l9 30q28 83 72 154t100 117q26 21 58.5 34t69.5 13t63 -20
q49 -37 57 -131q6 -70 -1.5 -151t-24.5 -188t-22 -153q-1 -8 -2.5 -21.5t-3 -35t-1.5 -42t1 -38.5t5.5 -28.5t12.5 -9.5q4 1 8.5 6.5t10 18t10 24t13 35t14.5 39.5q25 63 74 204.5t92.5 247.5t94.5 193q85 143 187 148q62 4 99 -41q30 -37 14 -72q-41 41 -101.5 -6.5
t-121.5 -136.5q34 -20 85.5 -23t106 7.5t124 30.5t131 41.5t136 44t130.5 35.5q46 10 93 14t96.5 -3.5t84.5 -27t50.5 -62t0.5 -103.5q-17 110 -385 44q31 -19 31 -50.5t-21 -81.5q-52 -126 -154 -414q-24 -68 -65 -76q-31 -7 -44 26q-3 6 -4 13q-37 -48 -79 -57.5t-67 23
t-16 93.5q4 33 12 71q7 34 15 64q6 24 11 38q-20 -20 -46 -60q-17 -26 -51 -84q-38 -68 -47 -87q-27 -58 -68 -71q-35 -11 -45 20q-6 19 1 47q1 2 4.5 18.5t5.5 25.5q-32 -48 -52 -68q-55 -54 -94 -16t-22 128q9 50 20 87q9 31 29 91q1 2 5 13t6 17q17 52 52 56q28 3 41 -26
q11 -25 -2 -56q-39 -91 -53 -143q-32 -113 1 -85q37 32 122 191l7 14q1 3 3 9.5t3 10.5q21 60 38 96q14 30 41 33t43 -20t2 -56q-4 -10 -14 -30q-3 -6 -10.5 -23.5t-11.5 -26.5q-3 -7 -9.5 -20.5t-9.5 -19.5q-7 -16 -9 -23q16 29 36 57q23 33 38 52q26 32 39 45
q39 39 73.5 39t44.5 -35t-10 -98q-17 -44 -26 -76q-42 -133 -23 -135q16 -1 79 90q18 26 37 58q6 17 149 400q-82 -16 -295 -65q-126 -29 -183 -23q-98 8 -116 95q-39 -60 -60 -103q-43 -88 -84 -186q-35 -83 -91 -236.5t-83 -220.5q-2 -5 -5.5 -12.5t-4.5 -9.5
q111 16 470 84q236 45 390 45t151 -60q-1 -14 -22.5 -55t-39 -74.5t-10.5 -35.5q10 -4 58 62q64 89 105 181.5t84 223.5q10 31 10 33q-10 -20 -36 -62q-19 -29 -31.5 -47t-38 -50t-51 -47.5t-47.5 -12.5q-34 4 -46 44.5t5 104.5q20 64 26 81q18 49 33 80q8 16 24 44
q18 29 46 29t39 -22t-3 -51q-6 -10 -21 -40q-23 -47 -33 -73q-37 -94 -18 -88q18 6 66 83q21 34 45 75q4 6 45 80q8 14 19.5 37t16.5 31zM795 404q21 15 26 47t-15.5 64t-67.5 40q-28 -98 9 -141q24 -25 48 -10zM2845 337q-13 -65 29 -63q43 3 103 64q48 49 69 102
q-1 -9 -4.5 -24t-16.5 -54.5t-30.5 -71.5t-49.5 -62t-70 -39q-42 -9 -75 9q-58 31 -55 119q2 34 8 60q12 49 29 90q18 44 44 87q24 40 51 72q32 36 71.5 46.5t67 -7t37.5 -56.5t-17 -102q-24 -55 -52.5 -84t-55.5 -31q-23 -2 -34.5 13t-0.5 38q6 -11 23 -6q30 9 57 73.5
t8 73.5q-4 2 -15.5 -7.5t-31 -38t-40.5 -69.5q-37 -72 -49 -132zM2737 608q25 -22 24.5 -74.5t-20 -109t-56.5 -108.5t-79 -74q-25 -13 -52.5 -13.5t-44 16.5t-5.5 51q16 -29 49.5 -9.5t60.5 70.5q45 85 53 154q5 40 -13 36q-19 -5 -56 -56q-31 -42 -64 -110
q-95 -198 -143 -381q-12 -48 -43 -53q-28 -4 -41 28t3 80q24 73 72.5 209t67.5 193q7 19 22.5 65t23.5 68q4 12 10 30.5t10 28.5q10 30 34.5 34t39.5 -17t4 -53l-10 -30q25 29 55 40.5t55 6.5t43 -22zM1451 613q-22 0 -37.5 15.5t-15.5 37.5t15.5 37.5t37.5 15.5t37.5 -15.5
t15.5 -37.5t-15.5 -37.5t-37.5 -15.5zM1815 1221l-2 -50l-33 2l6 132l104 -5l-1 -29l-71 3l-1 -23l64 -4l-1 -29zM2360 1070l33 97l-38 13l10 28l107 -36l-10 -28l-38 13l-33 -98zM2193 1198l-18 -77l-32 8l29 129l32 -8l39 -89l18 77l32 -8l-29 -129l-32 8zM2011 1150
q-29 5 -46.5 27.5t-13.5 50.5t28 45t53 12t46.5 -28t13.5 -51t-28 -44.5t-53 -11.5zM2027 1255q-15 2 -27.5 -7t-14.5 -25t7 -29t24 -15t27.5 7.5t14.5 25.5t-7 28.5t-24 14.5zM1235 1129l-101 -23l-29 129l101 23l7 -29l-70 -16l5 -20l63 15l6 -29l-63 -14l5 -23l70 16z
M1000 1064l-46 -16l-43 126l46 15q32 11 59 1t36 -38t-5.5 -52.5t-46.5 -35.5zM971 1163l-19 -7l23 -69l20 7q16 5 23 18.5t2 28.5t-19 21t-30 1zM1330 1146l-32 -5l-20 131l32 5l48 -62l28 74l32 5l20 -131l-32 -5l-12 76l-27 -74l-48 62zM1572 1170q-29 -2 -51 17t-23 47
t18.5 49t48.5 23t51.5 -17t23.5 -47q2 -28 -18.5 -49.5t-49.5 -22.5zM1567 1277q-15 -1 -26 -13t-10 -28t13 -27t27 -10t25.5 13t9.5 28t-12.5 27t-26.5 10zM864 1070q-106 -44 -201 -96l-19 29q85 49 208 99zM2733 1003l-19 -29q-94 52 -201 96l12 32q123 -50 208 -99z" />
    <glyph glyph-name="equal" unicode="=" 
d="M2343 649q23 40 51 45t43 -21t5 -66q-118 -476 -279 -673q-3 -5 -10 -12l-9 -9q-26 -27 -57 -38.5t-56 -6t-42 21.5t-16 48t23 70q4 6 14.5 21.5t18 27.5t13.5 25.5t3 22t-15 11.5q-41 8 -164.5 -6t-260.5 -49q-36 -9 -143 -41q-98 -30 -155 -46t-169 -44.5t-184 -37
t-169.5 -17t-158.5 10t-117.5 49.5t-80 95t-15.5 154q17 -40 47.5 -70.5t73 -49t92.5 -29t112.5 -13t126.5 1t140 12.5q-26 19 -46.5 44.5t-27.5 47.5q-15 42 3 217q3 27 31 205.5t26 261.5q-1 47 -25 65t-56 6.5t-58 -42.5q-34 -41 -66 -121q-19 -46 -34 -101
q60 -23 89.5 -77.5t17.5 -112.5q-10 -47 -41.5 -72.5t-67 -26t-69.5 22t-49 63.5q-14 41 1 133q-27 -5 -169.5 -56t-215.5 -53q-69 -2 -115.5 41.5t-50.5 137.5q38 -48 118.5 -56t157 9t167.5 39t128 23l9 30q28 83 72 154t100 117q26 21 58.5 34t69.5 13t63 -20
q49 -37 57 -131q6 -70 -1.5 -151t-24.5 -188t-22 -153q-1 -8 -2.5 -21.5t-3 -35t-1.5 -42t1 -38.5t5.5 -28.5t12.5 -9.5q4 1 8.5 6.5t10 18t10 24t13 35t14.5 39.5q25 63 74 204.5t92.5 247.5t94.5 193q85 143 187 148q62 4 99 -41q30 -37 14 -72q-41 41 -101.5 -6.5
t-121.5 -136.5q34 -20 85.5 -23t106 7.5t124 30.5t131 41.5t136 44t130.5 35.5q46 10 93 14t96.5 -3.5t84.5 -27t50.5 -62t0.5 -103.5q-17 110 -385 44q31 -19 31 -50.5t-21 -81.5q-52 -126 -154 -414q-24 -68 -65 -76q-31 -7 -44 26q-3 6 -4 13q-37 -48 -79 -57.5t-67 23
t-16 93.5q4 33 12 71q7 34 15 64q6 24 11 38q-20 -20 -46 -60q-27 -41 -52 -84q-34 -59 -46 -87q-27 -58 -68 -71q-35 -11 -45 20q-6 19 1 47q1 2 4.5 18.5t5.5 25.5q-32 -48 -52 -68q-55 -54 -94 -16t-22 128q9 50 20 87q9 31 29 91q1 2 5 13t6 17q17 52 52 56q28 3 41 -26
q11 -25 -2 -56q-39 -91 -53 -143q-32 -113 1 -85q37 32 122 191l7 14q1 3 3 9.5t3 10.5q21 60 38 96q14 30 41 33t43 -20t2 -56q-4 -10 -14 -30q-3 -6 -10.5 -23.5t-11.5 -26.5q-3 -7 -9.5 -20.5t-9.5 -19.5q-7 -16 -9 -23q16 29 36 57q23 33 38 52q26 32 39 45
q39 39 73.5 39t44.5 -35t-10 -98q-17 -44 -26 -76q-42 -133 -23 -135q16 -1 79 90q18 26 37 58q6 17 149 400q-82 -16 -295 -65q-126 -29 -183 -23q-98 8 -116 95q-39 -60 -60 -103q-43 -88 -84 -186q-35 -83 -91 -236.5t-83 -220.5q-3 -8 -9 -22q107 16 469 84
q236 45 390 45t151 -60q-1 -14 -22.5 -55t-39 -74.5t-10.5 -35.5q10 -4 58 62q64 89 105 181.5t84 223.5q10 31 10 33q-10 -20 -36 -62q-19 -29 -31.5 -47t-38 -50t-51 -47.5t-47.5 -12.5q-33 4 -45.5 44.5t5.5 104.5q25 80 25 81q18 49 33 80q8 16 24 44q18 29 46 29
t39 -22t-3 -51q-6 -10 -21 -40q-23 -47 -33 -73q-37 -94 -18 -88q18 6 66 83q21 34 45 75q4 6 45 80q8 14 19.5 37t16.5 31zM795 404q21 15 26 47t-15.5 64t-67.5 40q-28 -98 9 -141q24 -25 48 -10zM2845 337q-13 -66 30 -63q44 3 104 65q47 48 68 101q-1 -9 -4.5 -24
t-16.5 -54.5t-30.5 -71.5t-49.5 -62t-70 -39q-42 -9 -76 9q-58 31 -55 119q2 34 8 60q11 43 30 90q21 49 43 87q24 40 51 72q25 29 56.5 41.5t57.5 7t45 -26t19.5 -57t-18.5 -84.5q-24 -55 -53 -84t-56 -31q-23 -2 -34.5 13t-0.5 38q6 -11 23 -6q30 9 57 73.5t8 73.5
q-4 2 -15.5 -7.5t-31 -38t-40.5 -69.5q-37 -72 -49 -132zM2737 608q25 -22 24.5 -74.5t-20 -109t-56.5 -108.5t-79 -74q-25 -13 -52.5 -13.5t-43.5 16.5t-5 51q16 -29 49 -9.5t60 70.5q45 85 53 154q5 40 -13 36q-19 -5 -56 -56q-31 -42 -64 -110q-95 -198 -143 -381
q-13 -48 -44 -53q-27 -4 -39 28q-13 32 3 80q24 74 72.5 211t66.5 191q7 19 22.5 65t23.5 68q4 12 10 30.5t10 28.5q10 30 34.5 34t39.5 -17t4 -53q-5 -14 -10 -30q25 29 55 40.5t55 6.5t43 -22zM1451 613q-22 0 -37.5 15.5t-15.5 37.5t15.5 37.5t37.5 15.5t37.5 -15.5
t15.5 -37.5t-15.5 -37.5t-37.5 -15.5zM1815 1221l-2 -50l-33 2l6 132l104 -5l-1 -29l-71 3l-1 -23l64 -4l-1 -29zM2360 1070l33 97l-38 13l10 28l107 -36l-10 -28l-37 13l-34 -98zM2011 1150q-29 5 -46.5 27.5t-13.5 50.5t28 45t53 12t46.5 -28t13.5 -51t-28 -44.5
t-53 -11.5zM2027 1255q-15 2 -27.5 -7t-14.5 -25t7 -29t24 -15t27.5 7.5t14.5 25.5t-7 28.5t-24 14.5zM2193 1198l-17 -77l-33 8l29 129l33 -8l39 -89l17 77l32 -8l-29 -129l-32 8zM1000 1064l-46 -16l-43 126l46 15q32 11 58.5 1t36.5 -38q9 -28 -5.5 -52.5t-46.5 -35.5z
M971 1163l-19 -7l23 -69l20 7q16 5 23 18.5t2 28.5t-19 21t-30 1zM1235 1129l-101 -23l-29 129l101 23l7 -29l-70 -16l5 -20l63 15l6 -29l-63 -14l5 -23l70 16zM1572 1170q-29 -2 -51 17t-23 47t18.5 49t48.5 23t51.5 -17t23.5 -47q2 -28 -18.5 -49.5t-49.5 -22.5z
M1567 1277q-15 -1 -25.5 -13t-9.5 -28t12.5 -27t26.5 -10t25.5 13t9.5 28t-12.5 27t-26.5 10zM1330 1146l-32 -5l-20 131l32 5l48 -62l28 74l32 5l20 -131l-32 -5l-12 76l-27 -74l-48 62zM864 1070q-106 -44 -201 -96l-19 29q85 49 208 99zM2733 1003l-19 -29
q-94 52 -201 96l13 32q119 -49 207 -99z" />
    <glyph glyph-name="greater" unicode="&#x3e;" 
d="M2343 649q23 40 51 45t43 -21t5 -66q-118 -478 -278 -673q-3 -5 -10 -12l-9 -9q-32 -33 -72 -42.5t-65.5 5.5t-33.5 47.5t22 84.5q4 6 14.5 21.5t18 27.5t13.5 25.5t3 22t-15 11.5q-41 8 -164.5 -6t-260.5 -49q-36 -9 -143 -41q-98 -30 -155 -46t-169 -44.5t-184 -37
t-169.5 -17t-158.5 10t-117.5 49.5t-80 95t-15.5 154q17 -40 47.5 -70.5t73 -49t92.5 -29t112.5 -13t126.5 1t140 12.5q-26 19 -46.5 44.5t-27.5 47.5q-15 42 3 217q3 27 31 205.5t26 261.5q-1 47 -25 65t-56 6.5t-58 -42.5q-34 -41 -66 -121q-19 -46 -34 -101
q60 -23 89.5 -77.5t17.5 -112.5q-10 -47 -41.5 -72.5t-67 -26t-69.5 22t-49 63.5q-14 41 1 133q-27 -5 -169.5 -56t-215.5 -53q-69 -2 -115.5 41.5t-50.5 137.5q38 -48 118.5 -56t157 9t167.5 39t128 23l9 30q28 83 72 154t100 117q26 21 58.5 34t69.5 13t63 -20
q49 -37 57 -131q6 -70 -1.5 -151t-24.5 -188t-22 -153q-1 -8 -2.5 -21.5t-3 -35t-1.5 -42t1 -38.5t5.5 -28.5t12.5 -9.5q4 1 8.5 6.5t10 18t10 24t13 35t14.5 39.5q25 63 74 204.5t92.5 247.5t94.5 193q85 143 187 148q62 4 99 -41q30 -37 14 -72q-41 41 -101.5 -6.5
t-121.5 -136.5q34 -20 85.5 -23t106 7.5t124 30.5t131 41.5t136 44t130.5 35.5q46 10 93 14t97 -3.5t85 -27t50.5 -62t0.5 -103.5q-17 111 -386 44q31 -19 31 -50.5t-21 -81.5q-52 -126 -154 -414q-24 -68 -65 -76q-31 -7 -44 26q-3 6 -4 13q-37 -48 -79 -57.5t-67 23
t-16 93.5q4 33 12 71q7 34 15 64q6 24 11 38q-20 -20 -46 -60q-17 -26 -51 -84q-38 -68 -47 -87q-27 -58 -68 -71q-35 -11 -45 20q-6 19 1 47q1 2 4.5 18.5t5.5 25.5h1q-30 -45 -53 -68q-55 -54 -94 -16t-22 128q9 50 20 87q9 31 29 91q1 2 5 13t6 17q17 52 52 56
q28 3 41 -26q11 -25 -2 -56q-39 -91 -53 -143q-32 -113 1 -85q37 32 122 191l7 14q1 3 3 9.5t3 10.5q21 60 38 96q14 30 41 33t43 -20t2 -56q-4 -10 -14 -30q-3 -6 -10.5 -23.5t-11.5 -26.5q-3 -7 -9.5 -20.5t-9.5 -19.5q-7 -16 -9 -23q16 29 36 57q23 33 38 52q26 32 39 45
q39 39 73.5 39t44.5 -35t-10 -98q-17 -44 -26 -76q-42 -133 -23 -135q16 -1 79 90q18 26 37 58q6 17 149 400q-82 -16 -295 -65q-126 -29 -183 -23q-98 8 -116 95q-39 -60 -60 -103q-43 -88 -84 -186q-35 -83 -91 -236.5t-83 -220.5q-2 -5 -5.5 -12.5t-4.5 -9.5
q111 16 470 84q236 45 390 45t151 -60q-1 -14 -22.5 -55t-39 -74.5t-10.5 -35.5q10 -4 58 62q64 89 105 181.5t84 223.5q10 31 10 33q-10 -20 -36 -62q-19 -29 -31.5 -47t-38 -50t-51 -47.5t-47.5 -12.5q-33 4 -45.5 44.5t5.5 104.5q25 80 25 81q18 49 33 80q8 16 24 44
q18 29 46 29t39 -22t-3 -51q-6 -10 -21 -40q-23 -47 -33 -73q-37 -94 -18 -88q18 6 66 83q21 34 45 75q4 6 45 80q8 14 19.5 37t16.5 31zM795 404q21 15 26 47t-15.5 64t-67.5 40q-28 -98 9 -141q24 -25 48 -10zM2845 337q-13 -65 29 -63q44 3 104 64q47 49 68 102
q-1 -9 -4.5 -24t-16.5 -54.5t-30.5 -71.5t-49.5 -62t-70 -39q-42 -9 -75 9q-58 31 -55 119q2 34 8 60q11 43 30 90q21 49 43 87q24 40 51 72q32 36 71.5 46.5t67 -7t37.5 -56.5t-17 -102q-24 -55 -52.5 -84t-55.5 -31q-23 -2 -34.5 13t-0.5 38q6 -11 23 -6q30 9 57 73.5
t8 73.5q-4 2 -15.5 -7.5t-31 -38t-40.5 -69.5q-37 -72 -49 -132zM2737 608q25 -22 24.5 -74.5t-20 -109t-56.5 -108.5t-79 -74q-25 -13 -52.5 -13.5t-43.5 16.5t-5 51q16 -29 49 -9.5t60 70.5q45 85 53 154q5 40 -13 36q-19 -5 -56 -56q-31 -42 -64 -110q-93 -194 -142 -381
q-12 -48 -43 -53q-28 -4 -41 28t3 80q24 74 72.5 211t66.5 191q7 19 22.5 65t23.5 68q4 12 10 30.5t10 28.5q10 30 34.5 34t39.5 -17t4 -53l-10 -30q25 29 55 40.5t55 6.5t43 -22zM1451 613q-22 0 -37.5 15.5t-15.5 37.5t15.5 37.5t37.5 15.5t37.5 -15.5t15.5 -37.5
t-15.5 -37.5t-37.5 -15.5zM2011 1150q-29 5 -46.5 27.5t-13.5 50.5t28 45t53 12t46.5 -28t13.5 -51t-28 -44.5t-53 -11.5zM2027 1255q-15 2 -27.5 -7t-14.5 -25t7 -29t24 -15t27.5 7.5t14.5 25.5t-7 28.5t-24 14.5zM2360 1070l33 97l-38 13l10 28l107 -36l-10 -28l-38 13
l-33 -98zM2193 1198l-18 -77l-32 8l29 129l33 -8l39 -89l17 77l32 -8l-29 -129l-32 8zM1815 1221l-2 -50l-33 2l6 132l104 -5l-1 -29l-71 3l-1 -23l64 -4l-1 -29zM1330 1146l-32 -5l-20 131l32 5l48 -62l28 74l32 5l20 -131l-32 -5l-12 76l-27 -74l-48 62zM1000 1064
l-46 -16l-43 126l46 15q32 11 58.5 1t36.5 -38q9 -28 -5.5 -52.5t-46.5 -35.5zM971 1163l-19 -7l23 -69l20 7q16 5 23 18.5t2 28.5t-19 21t-30 1zM1235 1129l-101 -23l-29 129l101 23l7 -29l-70 -16l5 -20l63 15l6 -29l-63 -14l5 -23l70 16zM1572 1170q-29 -2 -51 17t-23 47
t18.5 49t48.5 23t51.5 -17t23.5 -47q2 -28 -18.5 -49.5t-49.5 -22.5zM1567 1277q-15 -1 -25.5 -13t-9.5 -28t12.5 -27t26.5 -10t25.5 13t9.5 28t-12.5 27t-26.5 10zM864 1070q-106 -44 -201 -96l-19 29q85 49 208 99zM2733 1003l-19 -29q-94 52 -201 96l13 32
q119 -49 207 -99z" />
    <glyph glyph-name="question" unicode="?" 
d="M2343 649q23 40 51 45t43 -21t5 -66q-118 -476 -279 -673q-3 -5 -10 -12l-9 -9q-26 -27 -57 -38.5t-56 -6t-42 21.5t-16 48t23 70q4 6 14.5 21.5t18 27.5t13.5 25.5t3 22t-15 11.5q-41 8 -164.5 -6t-260.5 -49q-36 -9 -143 -41q-98 -30 -155 -46t-169 -44.5t-184 -37
t-169.5 -17t-158.5 10t-117.5 49.5t-80 95t-15.5 154q17 -40 47.5 -70.5t73 -49t92.5 -29t112.5 -13t126.5 1t140 12.5q-26 19 -46.5 44.5t-27.5 47.5q-15 42 3 217q3 27 31 205.5t26 261.5q-1 47 -25 65t-56 6.5t-58 -42.5q-34 -41 -66 -121q-19 -46 -34 -101
q60 -23 89.5 -77.5t17.5 -112.5q-10 -47 -41.5 -72.5t-67 -26t-69.5 22t-49 63.5q-14 41 1 133q-27 -5 -169.5 -56t-215.5 -53q-69 -2 -115.5 41.5t-50.5 137.5q38 -48 118.5 -56t157 9t167.5 39t128 23l9 30q28 83 72 154t100 117q26 21 58.5 34t69.5 13t63 -20
q49 -37 57 -131q6 -70 -1.5 -151t-24.5 -188t-22 -153q-1 -8 -2.5 -21.5t-3 -35t-1.5 -42t1 -38.5t5.5 -28.5t12.5 -9.5q4 1 8.5 6.5t10 18t10 24t13 35t14.5 39.5q25 63 74 204.5t92.5 247.5t94.5 193q85 143 187 148q62 4 99 -41q30 -37 14 -72q-41 41 -101.5 -6.5
t-121.5 -136.5q34 -20 85.5 -23t106 7.5t124 30.5t131 41.5t136 44t130.5 35.5q46 10 93 14t96.5 -3.5t84.5 -27t50.5 -62t0.5 -103.5q-17 110 -385 44q31 -19 31 -50.5t-21 -81.5q-52 -126 -154 -414q-24 -68 -65 -76q-31 -7 -44 26q-3 6 -4 13q-37 -48 -79 -57.5t-67 23
t-16 93.5q4 33 12 71q7 34 15 64q6 24 11 38q-20 -20 -46 -60q-27 -41 -52 -84q-34 -59 -46 -87q-27 -58 -68 -71q-35 -11 -45 20q-6 19 1 47q1 2 4.5 18.5t5.5 25.5q-32 -48 -52 -68q-55 -54 -94 -16t-22 128q9 50 20 87q9 31 29 91q1 2 5 13t6 17q17 52 52 56q28 3 41 -26
q11 -25 -2 -56q-39 -91 -53 -143q-32 -113 1 -85q37 32 122 191l7 14q1 3 3 9.5t3 10.5q21 60 38 96q14 30 41 33t43 -20t2 -56q-4 -10 -14 -30q-3 -6 -10.5 -23.5t-11.5 -26.5q-3 -7 -9.5 -20.5t-9.5 -19.5q-7 -16 -9 -23q16 29 36 57q23 33 38 52q26 32 39 45
q39 39 73.5 39t44.5 -35t-10 -98q-17 -44 -26 -76q-42 -133 -23 -135q16 -1 79 90q18 26 37 58q6 17 149 400q-82 -16 -295 -65q-126 -29 -183 -23q-98 8 -116 95q-39 -60 -60 -103q-43 -88 -84 -186q-35 -83 -91 -236.5t-83 -220.5q-2 -5 -5.5 -12.5t-4.5 -9.5
q111 16 470 84q236 45 390 45t151 -60q-1 -14 -22.5 -55t-39 -74.5t-10.5 -35.5q10 -4 58 62q64 89 105 181.5t84 223.5q10 31 10 33q-10 -20 -36 -62q-19 -29 -31.5 -47t-38 -50t-51 -47.5t-47.5 -12.5q-33 4 -45.5 44.5t5.5 104.5q25 80 25 81q18 49 33 80q8 16 24 44
q18 29 46 29t39 -22t-3 -51q-6 -10 -21 -40q-23 -47 -33 -73q-37 -94 -18 -88q18 6 66 83q21 34 45 75q4 6 45 80q8 14 19.5 37t16.5 31zM795 404q21 15 26 47t-15.5 64t-67.5 40q-28 -98 9 -141q24 -25 48 -10zM2845 337q-13 -66 30 -63q44 3 104 65q47 48 68 101
q-1 -9 -4.5 -24t-16.5 -54.5t-30.5 -71.5t-49.5 -62t-70 -39q-42 -9 -76 9q-58 31 -55 119q2 34 8 60q11 43 30 90q21 49 43 87q24 40 51 72q25 29 56.5 41.5t57.5 7t45 -26t19.5 -57t-18.5 -84.5q-24 -55 -53 -84t-56 -31q-23 -2 -34.5 13t-0.5 38q6 -11 23 -6
q30 9 57 73.5t8 73.5q-4 2 -15.5 -7.5t-31 -38t-40.5 -69.5q-37 -72 -49 -132zM2737 608q25 -22 24.5 -74.5t-20 -109t-56.5 -108.5t-79 -74q-25 -13 -52.5 -13.5t-43.5 16.5t-5 51q16 -29 49 -9.5t60 70.5q45 85 53 154q5 40 -13 36q-19 -5 -56 -56q-31 -42 -64 -110
q-95 -198 -143 -381q-13 -48 -44 -53q-27 -4 -39 28q-13 32 3 80q24 74 72.5 211t66.5 191q7 19 22.5 65t23.5 68q4 12 10 30.5t10 28.5q10 30 34.5 34t39.5 -17t4 -53q-5 -14 -10 -30q25 29 55 40.5t55 6.5t43 -22zM1451 613q-22 0 -37.5 15.5t-15.5 37.5t15.5 37.5
t37.5 15.5t37.5 -15.5t15.5 -37.5t-15.5 -37.5t-37.5 -15.5zM2011 1150q-29 5 -46.5 27.5t-13.5 50.5t28 45t53 12t46.5 -28t13.5 -51t-28 -44.5t-53 -11.5zM2027 1255q-15 2 -27.5 -7t-14.5 -25t7 -29t24 -15t27.5 7.5t14.5 25.5t-7 28.5t-24 14.5zM2360 1070l33 97l-38 13
l10 28l107 -36l-10 -28l-38 13l-33 -98zM1815 1221l-2 -50l-33 2l6 132l104 -5l-1 -29l-71 3l-1 -23l64 -4l-1 -29zM2193 1198l-18 -77l-32 8l29 129l33 -8l39 -89l17 77l32 -8l-29 -129l-32 8zM1572 1170q-29 -2 -51 17t-23 47t18.5 49t48.5 23t51.5 -17t23.5 -47
q2 -28 -18.5 -49.5t-49.5 -22.5zM1567 1277q-15 -1 -25.5 -13t-9.5 -28t12.5 -27t26.5 -10t25.5 13t9.5 28t-12.5 27t-26.5 10zM1330 1146l-32 -5l-20 131l32 5l48 -62l28 74l32 5l20 -131l-32 -5l-12 76l-27 -74l-48 62zM1235 1129l-101 -23l-29 129l101 23l7 -29l-70 -16
l5 -20l63 15l6 -29l-63 -14l5 -23l70 16zM1000 1064l-46 -16l-43 126l46 15q32 11 58.5 1t36.5 -38q9 -28 -5.5 -52.5t-46.5 -35.5zM971 1163l-19 -7l23 -69l20 7q16 5 23 18.5t2 28.5t-19 21t-30 1zM864 1070q-106 -44 -201 -96l-19 29q85 49 208 99zM2733 1003l-19 -29
q-94 52 -201 96l13 32q119 -49 207 -99z" />
    <glyph glyph-name="at" unicode="@" 
d="M2343 649q23 40 51 45t43 -21t5 -66q-118 -476 -279 -673q-3 -5 -10 -12l-9 -9q-26 -27 -57 -38.5t-56 -6t-42 21.5t-16 48t23 70q4 6 14.5 21.5t18 27.5t13.5 25.5t3 22t-15 11.5q-41 8 -164.5 -6t-260.5 -49q-36 -9 -143 -41q-98 -30 -155 -46t-169 -44.5t-184 -37
t-169.5 -17t-158.5 10t-117.5 49.5t-80 95t-15.5 154q17 -40 47.5 -70.5t73 -49t92.5 -29t112.5 -13t126.5 1t140 12.5q-26 19 -46.5 44.5t-27.5 47.5q-15 42 3 217q3 27 31 205.5t26 261.5q-1 47 -25 65t-56 6.5t-58 -42.5q-34 -41 -66 -121q-19 -46 -34 -101
q60 -23 89.5 -77.5t17.5 -112.5q-10 -47 -41.5 -72.5t-67 -26t-69.5 22t-49 63.5q-14 41 1 133q-27 -5 -169.5 -56t-215.5 -53q-69 -2 -115.5 41.5t-50.5 137.5q38 -48 118.5 -56t157 9t167.5 39t128 23l9 30q29 86 71 154q43 70 101 117q26 21 58.5 34t69 13t62.5 -20
q50 -38 58 -131q6 -70 -1.5 -151t-24.5 -188t-22 -153q-1 -8 -2.5 -21.5t-3 -35t-1.5 -42t1 -38.5t5.5 -28.5t12.5 -9.5q4 1 8.5 6.5t10 18t10 24t13 35t14.5 39.5q25 63 74 204.5t92.5 247.5t94.5 193q85 143 187 148q62 4 99 -41q30 -37 14 -72q-41 41 -101.5 -6.5
t-121.5 -136.5q34 -20 85.5 -23t106 7.5t124 30.5t131 41.5t136 44t130.5 35.5q46 10 93 14t96.5 -3.5t84.5 -27t50.5 -62t0.5 -103.5q-17 110 -385 44q31 -19 31 -50.5t-21 -81.5q-52 -126 -154 -414q-24 -68 -65 -76q-31 -7 -44 26q-3 6 -4 13q-37 -48 -79 -57.5t-67 23
t-16 93.5q4 33 12 71q7 34 15 64q6 24 11 38q-20 -20 -46 -60q-27 -41 -52 -84q-34 -59 -46 -87q-27 -58 -68 -71q-35 -11 -45 20q-6 19 1 47q1 2 4.5 18.5t5.5 25.5q-32 -48 -52 -68q-55 -54 -94 -16t-22 128q9 50 20 87q9 31 29 91q1 2 5 13t6 17q17 52 52 56q28 3 41 -26
q11 -25 -2 -56q-39 -91 -53 -143q-32 -113 1 -85q37 32 122 191l7 14q1 3 3 9.5t3 10.5q21 60 38 96q14 30 41 33t43 -20t2 -56q-4 -10 -14 -30q-7 -15 -23 -50q-4 -9 -10.5 -23t-7.5 -17q-7 -16 -9 -23q16 29 36 57q23 33 38 52q26 32 39 45q39 39 73.5 39t44.5 -35
t-10 -98q-17 -44 -26 -76q-42 -133 -23 -135q16 -1 79 90q18 26 37 58q6 17 149 400q-82 -16 -295 -65q-126 -29 -183 -23q-98 8 -116 95q-39 -60 -60 -103q-43 -88 -84 -186q-35 -83 -91 -236.5t-83 -220.5q-2 -5 -5.5 -12.5t-4.5 -9.5q111 16 470 84q236 45 390 45
t151 -60q-1 -14 -22.5 -55t-39 -74.5t-10.5 -35.5q10 -4 58 62q64 89 105 181.5t84 223.5q10 31 10 33q-10 -20 -36 -62q-63 -96 -101 -128q-37 -32 -67 -29q-34 4 -46 44.5t5 104.5q20 64 26 81q18 49 33 80q8 16 24 44q18 29 46 29t39 -22t-3 -51q-6 -10 -21 -40
q-23 -47 -33 -73q-37 -94 -18 -88q18 6 66 83q21 34 45 75q4 6 45 80q8 14 19.5 37t16.5 31zM795 404q21 15 26 47t-15.5 64t-67.5 40q-28 -98 9 -141q24 -25 48 -10zM2845 337q-13 -65 29 -63q43 3 103 64q48 49 69 102q-1 -9 -4.5 -24t-16.5 -54.5t-30.5 -71.5t-49.5 -62
t-70 -39q-42 -9 -75 9q-58 31 -55 119q2 34 8 60q12 49 29 90q18 44 44 87q24 40 51 72q32 36 71.5 46.5t67 -7t37.5 -56.5t-17 -102q-24 -55 -52.5 -84t-55.5 -31q-23 -2 -34.5 13t-0.5 38q6 -11 23 -6q30 9 57 73.5t8 73.5q-4 2 -15.5 -7.5t-31 -38t-40.5 -69.5
q-37 -72 -49 -132zM2737 608q25 -22 24.5 -74.5t-20 -109t-56.5 -108.5t-79 -74q-25 -13 -52.5 -13.5t-43.5 16.5t-5 51q16 -29 49 -9.5t60 70.5q45 85 53 154q5 40 -13 36q-19 -5 -56 -56q-31 -42 -64 -110q-95 -198 -143 -381q-12 -48 -43 -53q-28 -4 -41 28t3 80
q24 73 72.5 209t67.5 193q7 19 22.5 65t23.5 68q4 12 10 30.5t10 28.5q10 30 34.5 34t39.5 -17t4 -53q-5 -14 -10 -30q25 29 55 40.5t55 6.5t43 -22zM1451 613q-22 0 -37.5 15.5t-15.5 37.5t15.5 37.5t37.5 15.5t37.5 -15.5t15.5 -37.5t-15.5 -37.5t-37.5 -15.5zM1815 1221
l-2 -50l-33 2l6 132l104 -5l-1 -29l-71 3l-1 -23l64 -4l-1 -29zM2360 1070l33 97l-38 13l10 28l107 -36l-10 -28l-38 13l-33 -98zM2193 1198l-18 -77l-32 8l29 129l32 -8l39 -89l18 77l32 -8l-29 -129l-32 8zM2011 1150q-29 5 -46.5 27.5t-13.5 50.5t28 45t53 12t46.5 -28
t13.5 -51t-28 -44.5t-53 -11.5zM2027 1255q-15 2 -27.5 -7t-14.5 -25t7 -29t24 -15t27.5 7.5t14.5 25.5t-7 28.5t-24 14.5zM1572 1170q-29 -2 -51 17t-23 47t18.5 49t48.5 23t51.5 -17t23.5 -47q2 -28 -18.5 -49.5t-49.5 -22.5zM1567 1277q-15 -1 -25.5 -13t-9.5 -28
t12.5 -27t26.5 -10t25.5 13t9.5 28t-12.5 27t-26.5 10zM1235 1129l-101 -23l-29 129l101 23l7 -29l-70 -16l5 -20l63 15l6 -29l-63 -14l5 -23l70 16zM1000 1064l-46 -16l-43 126l46 15q32 11 59 1t36 -38t-5.5 -52.5t-46.5 -35.5zM971 1163l-19 -7l23 -69l20 7q16 5 23 18.5
t2 28.5t-19 21t-30 1zM1330 1146l-32 -5l-20 131l32 5l48 -62l28 74l32 5l20 -131l-32 -5l-12 76l-27 -74l-48 62zM864 1070q-106 -44 -201 -96l-19 29q85 49 208 99zM2733 1003l-19 -29q-94 52 -201 96l12 32q123 -50 208 -99z" />
    <glyph glyph-name="A" unicode="A" horiz-adv-x="1337" 
d="M636 1406l575 -1373l106 -33h-299l104 33l-509 1215l-295 -830q41 42 95 54q76 18 164 -24q22 -11 66 -38.5t68 -36.5q31 -15 68 -6t61 40q-13 -41 -54 -60q-42 -19 -85 -7q-33 8 -83 36t-60 32q-73 35 -139 29q-56 -4 -109 -43l-129 -361l128 -33h-299l138 33z" />
    <glyph glyph-name="A" unicode="&#xc1;" horiz-adv-x="1337" 
d="M636 1406l575 -1373l106 -33h-299l104 33l-509 1215l-295 -830q41 42 95 54q76 18 164 -24q22 -11 66 -38.5t68 -36.5q31 -15 68 -6t61 40q-13 -41 -54 -60q-42 -19 -85 -7q-33 8 -83 36t-60 32q-73 35 -139 29q-56 -4 -109 -43l-129 -361l128 -33h-299l138 33z" />
    <glyph glyph-name="B" unicode="B" horiz-adv-x="1222" 
d="M807 834q144 -32 238 -147t94 -265q0 -175 -123.5 -298.5t-298.5 -123.5h-707l105 33v1339l-105 34h682q123 0 210 -87.5t87 -210.5q0 -91 -50.5 -165.5t-131.5 -108.5zM636 1372h-432v-528h432q110 0 187 77t77 187t-77 187t-187 77zM661 33q161 0 275 114t114 275
t-114 275t-275 114h-457v-778h457z" />
    <glyph glyph-name="C" unicode="C" horiz-adv-x="1259" 
d="M1082 1283q32 -20 55.5 10.5t30.5 71.5l7 41v-294q-7 11 -21.5 28.5t-63.5 62.5t-103.5 79.5t-141.5 63t-179 29.5q-109 1 -208.5 -53t-171 -144.5t-114 -215t-42.5 -259.5q0 -180 71.5 -335t195.5 -246t269 -90q67 0 131 15t113.5 38t93.5 51t74.5 56t53 51t32.5 37
l11 15v-294l-11 53q-28 103 -82 69q-193 -122 -416 -121q-127 1 -243 56.5t-199.5 149t-133 223t-49.5 272.5v0q0 143 49.5 272.5t133 223.5t199.5 149.5t243 56.5q221 1 416 -122z" />
    <glyph glyph-name="D" unicode="D" horiz-adv-x="1148" 
d="M363 1406q143 0 273 -55.5t224.5 -150t150 -224.5t55.5 -273t-55.5 -273t-150 -224.5t-224.5 -150t-273 -55.5h-353l105 33v1339l-105 34h353zM360 33q181 0 323 90.5t218 242.5t76 337q0 138 -45 260.5t-125 213t-196.5 143t-252.5 52.5h-154v-1339h156z" />
    <glyph glyph-name="E" unicode="E" horiz-adv-x="1007" 
d="M10 1406h914v-150l-34 116h-686v-660q42 46 102 60q77 18 164 -23q22 -11 66 -38.5t68 -36.5q31 -15 68 -6t61 40q-14 -42 -54 -61q-41 -19 -85 -6q-33 8 -83 36t-60 32q-73 35 -139 29q-56 -4 -108 -42v-663h686l34 116v-149h-914l105 33v1339z" />
    <glyph glyph-name="F" unicode="F" horiz-adv-x="1054" 
d="M604 674q31 -15 68 -6t61 40q-14 -42 -54 -61q-41 -19 -85 -6q-33 8 -83 36t-60 32q-73 35 -139 29q-56 -4 -108 -42v-663l115 -33h-309l105 33v1339l-105 34h1003v-150l-34 116h-775v-660q42 46 102 60q77 18 164 -23q22 -11 66 -38.5t68 -36.5z" />
    <glyph glyph-name="G" unicode="G" horiz-adv-x="1355" 
d="M1016 703h298l-112 -33v-670q-40 49 -77 65.5t-81 8t-89.5 -24.5t-124.5 -32t-164 -15q-127 1 -243 56.5t-199.5 149t-133 223t-49.5 272.5t49.5 272.5t133 223.5t199.5 149.5t243 56.5q221 1 416 -122q32 -20 55.5 10.5t30.5 71.5l7 41v-294q-7 11 -21.5 28.5
t-63.5 62.5t-103.5 79.5t-141.5 63t-179 29.5q-145 1 -268.5 -89.5t-195.5 -244.5t-72 -334q1 -134 44 -256t114.5 -211t170.5 -141.5t207 -52.5q80 0 158 19.5t146 57.5t111 101.5t44 142.5q4 173 5 303z" />
    <glyph glyph-name="H" unicode="H" horiz-adv-x="1228" 
d="M1144 1406l-105 -34v-1339l105 -33h-299l105 33v649q-25 -23 -66 -37q-54 -15 -111 -4q-42 8 -113 35.5t-88 32.5q-106 34 -200 30q-93 -5 -168 -48v-658l105 -33h-299l105 33v1339l-105 34h299l-105 -34v-672q68 60 165 73q100 15 216 -22q33 -10 97 -38.5t98 -37.5
q50 -14 99 -8q40 3 71 24v681l-105 34h299z" />
    <glyph glyph-name="I" unicode="I" horiz-adv-x="462" 
d="M381 1406l-105 -34v-1339l105 -33h-299l105 33v1339l-105 34h299z" />
    <glyph glyph-name="J" unicode="J" horiz-adv-x="1153" 
d="M812 1406h299l-105 -34v-910q0 -191 -135.5 -326.5t-326.5 -135.5t-326.5 135.5t-135.5 326.5l89 -56q0 -154 109.5 -263.5t263.5 -109.5t263.5 109.5t109.5 263.5v966z" />
    <glyph glyph-name="K" unicode="K" horiz-adv-x="1167" 
d="M988 66q65 -46 135 -38q-65 -37 -155 -1q-71 28 -133 89q-80 77 -187 247l-151 259q-52 84 -82 121q-47 57 -92 62q-71 -57 -119 -94v-678l105 -33h-299l105 33v1339l-105 34h299l-105 -34v-605q322 253 472 420q91 101 126 185l-125 34h299l-126 -34q-37 -99 -141 -215
q-142 -157 -370 -340q20 0 35 -4q32 -10 71 -39q50 -40 108 -113q60 -73 171 -252q56 -92 78 -126q34 -54 83 -119q52 -64 103 -98z" />
    <glyph glyph-name="L" unicode="L" horiz-adv-x="1073" 
d="M204 33h781l33 117v-150h-1008l105 33v1339l-105 34h280l-86 -34v-1339z" />
    <glyph glyph-name="M" unicode="M" horiz-adv-x="1392" 
d="M1311 1406l-105 -34v-1339l105 -33h-299l105 33v1312l-420 -1345h-1l-520 1287v-1254l133 -33h-299l133 33l-1 1339l-132 34h208l496 -1245l389 1245h208z" />
    <glyph glyph-name="N" unicode="N" horiz-adv-x="1228" 
d="M1144 1406l-105 -34v-1339l105 -33h-299l105 33v279q-10 34 -16 50q-31 92 -77 168q-86 144 -234 286q-44 44 -139.5 126t-140.5 126q-77 79 -115 153q-13 27 -24 59v-1247l105 -33h-299l105 33v1339l-105 34h194q0 -6 1 -18t9.5 -47.5t24 -71t49 -84.5t78.5 -92
q29 -27 145 -120q77 -63 142 -125q157 -152 233 -301q40 -78 64 -161v986l-105 34h299z" />
    <glyph glyph-name="O" unicode="O" horiz-adv-x="1415" 
d="M707 1405q170 0 314 -94t228 -256t84 -352t-84 -351.5t-228 -255.5t-314 -94t-314 94t-227.5 255.5t-83.5 351.5q0 143 49.5 272.5t133 224t199.5 150t243 55.5zM707 46q146 0 269.5 89t195.5 242t72 333t-72 333t-195.5 242.5t-269.5 89.5t-269.5 -89.5t-195 -242.5
t-71.5 -333q0 -135 42.5 -258t114 -212t171 -141.5t208.5 -52.5z" />
    <glyph glyph-name="P" unicode="P" horiz-adv-x="1120" 
d="M639 1406q175 0 298.5 -123.5t123.5 -298.5t-123.5 -298.5t-298.5 -123.5h-435v-529l105 -33h-299l105 33v1339l-105 34h629zM583 595q161 0 275 114t114 275t-114 274.5t-275 113.5h-379v-777h379z" />
    <glyph glyph-name="Q" unicode="Q" horiz-adv-x="1415" 
d="M1333 703q0 -175 -72.5 -327.5t-198 -250t-277.5 -118.5q27 -10 55 -24q8 -4 31.5 -16.5t33 -17.5t30 -15t33.5 -15t31 -11t34 -10q105 -27 211 -15q-103 -38 -218 -19q-51 8 -108 31q-17 7 -98 48q-99 54 -196 50q-110 -5 -197 -66q58 66 147 91q-213 52 -352.5 243.5
t-139.5 441.5q0 143 49.5 272.5t133 224t199.5 150t243 55.5q170 0 314 -94t228 -256t84 -352zM707 46q146 0 269.5 89t195.5 242t72 333t-72 333t-195.5 242.5t-269.5 89.5t-269.5 -89.5t-195 -242.5t-71.5 -333q0 -135 42.5 -258t114 -212t171 -141.5t208.5 -52.5z" />
    <glyph glyph-name="R" unicode="R" horiz-adv-x="1323" 
d="M1075 113q38 -54 78 -76q40 -24 114 -31q-62 -26 -130 -9q-63 15 -116 72q-70 76 -128 224q-10 27 -38 107.5t-46 120.5q-28 64 -64 102t-96 45q7 2 19 4q-23 -3 -47 -3h-417v-636l105 -33h-299l105 33v1339l-105 34h611q153 0 260.5 -108t107.5 -261q0 -135 -86.5 -237
t-217.5 -125q48 3 93 -24q49 -31 92 -97q9 -14 17 -29t14.5 -27t15 -29.5t13 -27.5t12.5 -30t11 -28t12 -30t11 -28q64 -161 99 -212zM565 702q139 0 237 98t98 237t-98 237t-237 98h-361v-670h361z" />
    <glyph glyph-name="S" unicode="S" horiz-adv-x="1112" 
d="M173 1016q1 -72 31.5 -126t81 -86.5t116 -56t137.5 -40.5t144 -34.5t137 -43.5t115 -62t79.5 -95t29.5 -138q0 -160 -133 -250.5t-343 -83.5q-111 3 -192 29t-187 80q-46 23 -61 -1t-23 -93q-1 -7 -1 -10l-5 294h1q7 -11 21 -29.5t60.5 -65.5t97.5 -83t129.5 -64.5
t159.5 -27.5q165 3 278.5 92.5t111.5 216.5q-1 57 -26 101t-67.5 71t-99 50t-119 37t-129 32.5t-129.5 36.5t-119 49.5t-98 70.5t-66.5 100.5t-24.5 138.5q0 102 61 189.5t169 139.5t235 52q186 0 364 -115q4 -3 13.5 -9t13 -8.5t11 -5.5t11.5 -1.5t9.5 5.5t9 13.5t7.5 23.5
l20 97l5 -293v-1v0q-7 11 -20.5 28.5t-58.5 63t-95 80t-128.5 63.5t-160.5 29q-105 0 -192.5 -51.5t-134.5 -134t-46 -174.5z" />
    <glyph glyph-name="T" unicode="T" horiz-adv-x="1173" 
d="M10 1406h1101v-150l-33 116h-478v-1339l105 -33h-299l105 33v1339h-467l-34 -116v150z" />
    <glyph glyph-name="U" unicode="U" horiz-adv-x="1187" 
d="M845 1406h299l-105 -34v-910q0 -191 -135.5 -326.5t-326.5 -135.5t-326.5 135.5t-135.5 326.5v910l-105 34h299l-105 -34v-966q0 -154 109 -263.5t264 -109.5t264 109.5t109 263.5v966z" />
    <glyph glyph-name="U" unicode="&#xda;" horiz-adv-x="1187" 
d="M845 1406h299l-105 -34v-910q0 -191 -135.5 -326.5t-326.5 -135.5t-326.5 135.5t-135.5 326.5v910l-105 34h299l-105 -34v-966q0 -154 109 -263.5t264 -109.5t264 109.5t109 263.5v966z" />
    <glyph glyph-name="V" unicode="V" horiz-adv-x="1359" 
d="M1018 1406h299l-137 -34l-488 -1372h-1l-575 1372l-106 34h299l-104 -34l509 -1214l432 1214z" />
    <glyph glyph-name="W" unicode="W" horiz-adv-x="1751" 
d="M1542 1372l-132 34h299l-133 -34l-338 -1372l-402 1173l-338 -1171h-2v-2l-377 1372l-109 34h299l-101 -34l315 -1159l336 1193l395 -1165z" />
    <glyph glyph-name="X" unicode="X" horiz-adv-x="1218" 
d="M625 721l441 -688l111 -33h-299l99 33l-395 616l-370 -616l118 -33h-299l148 33l386 643l-447 696l-108 34h299l-102 -34l401 -624l375 624l-133 34h299l-133 -34z" />
    <glyph glyph-name="Y" unicode="Y" horiz-adv-x="1339" 
d="M1130 1372l-134 34h299l-131 -34l-454 -800v0v-539l105 -33h-299l105 33v539l-505 800l-106 34h299l-104 -34l487 -768z" />
    <glyph glyph-name="Z" unicode="Z" horiz-adv-x="1015" 
d="M946 1406l-805 -1373h772l59 117l-26 -150h-914l806 1372h-773l-55 -116l22 150h914z" />
    <glyph glyph-name="bracketleft" unicode="[" 
d="M2343 649q23 40 51 45t43 -21t5 -66q-118 -476 -279 -673q-3 -5 -10 -12l-9 -9q-26 -27 -57 -38.5t-56 -6t-42 21.5t-16 48t23 70q4 6 14.5 21.5t18 27.5t13.5 25.5t3 22t-15 11.5q-41 8 -164.5 -6t-260.5 -49q-36 -9 -143 -41q-98 -30 -155 -46t-169 -44.5t-184 -37
t-169.5 -17t-158.5 10t-117.5 49.5t-80 95t-15.5 154q17 -40 47.5 -70.5t73 -49t92.5 -29t112.5 -13t126.5 1t140 12.5q-26 19 -46.5 44.5t-27.5 47.5q-15 42 3 217q3 27 31 205.5t26 261.5q-1 47 -25 65t-56 6.5t-58 -42.5q-34 -41 -66 -121q-19 -46 -34 -101
q60 -23 89.5 -77.5t17.5 -112.5q-10 -47 -41.5 -72.5t-67 -26t-69.5 22t-49 63.5q-14 41 1 133q-27 -5 -169.5 -56t-215.5 -53q-69 -2 -115.5 41.5t-50.5 137.5q38 -48 118.5 -56t157 9t167.5 39t128 23l9 30q28 83 72 154t100 117q26 21 58.5 34t69.5 13t63 -20
q49 -37 57 -131q6 -70 -1.5 -151t-24.5 -188t-22 -153q-1 -8 -2.5 -21.5t-3 -35t-1.5 -42t1 -38.5t5.5 -28.5t12.5 -9.5q4 1 8.5 6.5t10 18t10 24t13 35t14.5 39.5q25 63 74 204.5t92.5 247.5t94.5 193q85 143 187 148q62 4 99 -41q30 -37 14 -72q-41 41 -101.5 -6.5
t-121.5 -136.5q34 -20 85.5 -23t106 7.5t124 30.5t131 41.5t136 44t130.5 35.5q46 10 93 14t96.5 -3.5t84.5 -27t50.5 -62t0.5 -103.5q-17 110 -385 44q31 -19 31 -50.5t-21 -81.5q-52 -126 -154 -414q-24 -68 -65 -76q-31 -7 -44 26q-3 6 -4 13q-37 -48 -79 -57.5t-67 23
t-16 93.5q4 33 12 71q7 34 15 64q6 24 11 38q-20 -20 -46 -60q-17 -26 -51 -84q-38 -68 -47 -87q-27 -58 -68 -71q-35 -11 -45 20q-6 19 1 47q1 2 4.5 18.5t5.5 25.5q-32 -48 -52 -68q-55 -54 -94 -16t-22 128q9 50 20 87q9 31 29 91q1 2 5 13t6 17q17 52 52 56q28 3 41 -26
q11 -25 -2 -56q-39 -91 -53 -143q-32 -113 1 -85q37 32 122 191l7 14q1 3 3 9.5t3 10.5q21 60 38 96q14 30 41 33t43 -20t2 -56q-4 -10 -14 -30q-3 -6 -10.5 -23.5t-11.5 -26.5q-3 -7 -9.5 -20.5t-9.5 -19.5q-7 -16 -9 -23q16 29 36 57q23 33 38 52q26 32 39 45
q39 39 73.5 39t44.5 -35t-10 -98q-17 -44 -26 -76q-42 -135 -22 -135q17 1 79 90q14 19 36 58q6 17 149 400q-82 -16 -295 -65q-126 -29 -183 -23q-98 8 -116 95q-39 -60 -60 -103q-43 -88 -84 -186q-35 -83 -91 -236.5t-83 -220.5q-3 -8 -9 -22q107 16 469 84
q236 45 390 45t151 -60q-1 -14 -22.5 -55t-39 -74.5t-10.5 -35.5q10 -4 58 62q64 89 105 181.5t84 223.5q10 31 10 33q-10 -20 -36 -62q-19 -29 -31.5 -47t-38 -50t-51 -47.5t-47.5 -12.5q-33 4 -45.5 44.5t5.5 104.5q25 80 25 81q18 49 33 80q8 16 24 44q18 29 46 29
t39 -22t-3 -51q-6 -10 -21 -40q-23 -47 -33 -73q-37 -94 -18 -88q18 6 66 83q21 34 45 75q4 6 45 80q8 14 19.5 37t16.5 31zM795 404q21 15 26 47t-15.5 64t-67.5 40q-28 -98 9 -141q24 -25 48 -10zM2845 337q-13 -65 29 -63q43 3 103 64q48 49 69 102q-1 -9 -4.5 -24
t-16.5 -54.5t-30.5 -71.5t-49.5 -62t-70 -39q-42 -9 -75 9q-58 31 -55 119q2 34 8 60q11 43 30 90q21 49 43 87q24 40 51 72q25 29 56.5 41.5t57.5 7t45 -26t19.5 -57t-18.5 -84.5q-24 -55 -53 -84t-56 -31q-23 -2 -34.5 13t-0.5 38q6 -11 23 -6q30 9 57 73.5t8 73.5
q-4 2 -15.5 -7.5t-31 -38t-40.5 -69.5q-37 -72 -49 -132zM2737 608q25 -22 24.5 -74.5t-20 -109t-56.5 -108.5t-79 -74q-25 -13 -52.5 -13.5t-43.5 16.5t-5 51q16 -29 49 -9.5t60 70.5q45 85 53 154q5 40 -13 36q-19 -5 -56 -56q-31 -42 -64 -110q-95 -198 -143 -381
q-13 -48 -44 -53q-27 -4 -39 28q-13 32 3 80q24 74 72.5 211t66.5 191q7 19 22.5 65t23.5 68q4 12 10 30.5t10 28.5q10 30 34.5 34t39.5 -17t4 -53q-5 -14 -10 -30q25 29 55 40.5t55 6.5t43 -22zM1451 613q-22 0 -37.5 15.5t-15.5 37.5t15.5 37.5t37.5 15.5t37.5 -15.5
t15.5 -37.5t-15.5 -37.5t-37.5 -15.5zM2011 1150q-29 5 -46.5 27.5t-13.5 50.5t28 45t53 12t46.5 -28t13.5 -51t-28 -44.5t-53 -11.5zM2027 1255q-15 2 -27.5 -7t-14.5 -25t7 -29t24 -15t27.5 7.5t14.5 25.5t-7 28.5t-24 14.5zM1815 1221l-2 -50l-33 2l6 132l104 -5l-1 -29
l-71 3l-1 -23l64 -4l-1 -29zM2193 1198l-17 -77l-33 8l29 129l33 -8l39 -89l17 77l32 -8l-29 -129l-32 8zM2360 1070l33 97l-38 13l10 28l107 -36l-10 -28l-37 13l-34 -98zM1330 1146l-32 -5l-20 131l32 5l48 -62l28 74l32 5l20 -131l-32 -5l-12 76l-27 -74l-48 62z
M1572 1170q-29 -2 -51 17t-23 47t18.5 49t48.5 23t51.5 -17t23.5 -47q2 -28 -18.5 -49.5t-49.5 -22.5zM1567 1277q-15 -1 -25.5 -13t-9.5 -28t12.5 -27t26.5 -10t25.5 13t9.5 28t-12.5 27t-26.5 10zM1000 1064l-46 -16l-43 126l46 15q32 11 59 1t36 -38t-5.5 -52.5
t-46.5 -35.5zM971 1163l-19 -7l23 -69l20 7q16 5 23 18.5t2 28.5t-19 21t-30 1zM1235 1129l-101 -23l-29 129l101 23l7 -29l-70 -16l5 -20l63 15l6 -29l-63 -14l5 -23l70 16zM864 1070q-106 -44 -201 -96l-19 29q85 49 208 99zM2733 1003l-19 -29q-94 52 -201 96l13 32
q119 -49 207 -99z" />
    <glyph glyph-name="backslash" unicode="\" 
d="M2343 649q23 40 51 45t43 -21t5 -66q-118 -476 -279 -673q-3 -5 -10 -12l-9 -9q-26 -27 -57 -38.5t-56 -6t-42 21.5t-16 48t23 70q4 6 14.5 21.5t18 27.5t13.5 25.5t3 22t-15 11.5q-41 8 -164.5 -6t-260.5 -49q-36 -9 -142 -41q-99 -30 -156 -46t-169 -44.5t-184 -37
t-170 -17t-158.5 10t-117.5 49.5t-80.5 95t-15.5 154q25 -60 80 -97.5t135.5 -51.5t171 -13.5t206.5 14.5q-60 44 -75 92q-14 40 4 217q3 27 31 205.5t26 261.5q-1 47 -25 65t-56 6.5t-58 -42.5q-34 -41 -66 -121q-19 -46 -34 -101q60 -23 89.5 -77.5t17.5 -112.5
q-10 -47 -41.5 -72.5t-67 -26t-69.5 22t-49 63.5q-14 41 1 134q-27 -5 -169.5 -56.5t-215.5 -53.5q-69 -2 -115.5 41.5t-50.5 137.5q38 -48 118.5 -56t157 9t167.5 39t128 23q2 5 5 15t5 15q29 86 71 154q44 71 100 117q26 21 58.5 34t69.5 13t63 -20q49 -37 57 -131
q6 -70 -1.5 -151t-24.5 -188t-22 -153q-1 -8 -2.5 -21.5t-3 -35t-1.5 -42t1 -38.5t5.5 -28.5t12.5 -9.5q3 1 6 4t7 9.5t7 13t7.5 18.5t8.5 22t10 26.5t11 29.5q25 64 73.5 205t92 247t94.5 193q85 143 187 148q62 4 99 -41q30 -37 14 -72q-41 41 -101.5 -6.5t-121.5 -136.5
q34 -20 85.5 -23t106 7.5t124 30.5t131 41.5t136 44t130.5 35.5q46 10 93 14t97 -3.5t85 -27t50.5 -62t0.5 -103.5q-17 111 -386 44q31 -19 31 -50.5t-21 -81.5q-52 -126 -154 -414q-24 -68 -65 -76q-31 -7 -44 26q-3 6 -4 13q-37 -48 -79 -57.5t-67 23t-16 93.5q4 33 12 71
q7 34 15 64q6 24 11 38q-20 -20 -46 -60q-17 -26 -51 -84q-38 -68 -47 -87q-27 -58 -68 -71q-35 -11 -45 20q-6 19 1 47q1 6 3 13t4.5 16.5t3.5 14.5q-30 -45 -53 -68q-55 -54 -94 -16t-22 128q9 50 20 87q9 31 29 91q1 2 5 13t6 17q17 52 52 56q28 3 41 -26q11 -25 -2 -56
q-39 -91 -53 -143q-32 -113 1 -85q37 32 122 191l7 14q1 3 3.5 9.5t3.5 10.5q21 60 38 96q14 30 40.5 33t42.5 -20t2 -56q-4 -10 -14 -30q-3 -6 -10.5 -23.5t-11.5 -26.5q-3 -7 -9.5 -20.5t-9.5 -19.5q-7 -16 -9 -23q16 29 36 57q23 33 38 52q26 32 39 45q39 39 73.5 39
t44.5 -35t-10 -98q-17 -44 -26 -76q-42 -135 -22 -135q17 1 79 90q14 19 36 58q6 17 149 400q-82 -16 -295 -65q-126 -29 -183 -23q-98 8 -116 95q-39 -60 -60 -103q-43 -88 -84 -186q-35 -83 -91 -236.5t-83 -220.5q-3 -8 -9 -22q111 16 470 84q236 45 389.5 45t150.5 -60
q-1 -14 -22.5 -55t-39 -74.5t-10.5 -35.5q10 -4 58 62q64 89 105 181.5t84 223.5q10 31 10 33q-10 -20 -36 -62q-63 -96 -101 -128q-37 -32 -67 -29q-33 4 -45.5 44.5t5.5 104.5q25 80 25 81q18 49 33 80q8 16 24 44q18 29 46 29t39 -22t-3 -51q-6 -10 -21 -40
q-17 -35 -32 -73q-38 -96 -18 -88q18 8 65 83q21 34 45 75q4 6 45 80q8 14 19.5 37t16.5 31zM795 404q21 15 26 47t-15.5 64t-67.5 40q-28 -98 9 -141q24 -25 48 -10zM2845 337q-13 -66 30 -63q44 3 104 65q47 48 68 101q-1 -9 -4.5 -24t-16.5 -54.5t-30.5 -71.5t-49.5 -62
t-70 -39q-42 -9 -76 9q-58 31 -55 119q2 34 8 60q11 43 30 90q21 49 43 87q22 37 52 72q32 36 71.5 46.5t67 -7t37.5 -56.5t-17 -102q-24 -55 -53 -84t-56 -31q-23 -2 -34.5 13t-0.5 38q6 -11 23 -6q30 9 57 73.5t8 73.5q-4 2 -15.5 -7.5t-31 -38t-40.5 -69.5
q-37 -72 -49 -132zM2737 608q25 -22 24.5 -74.5t-20 -109t-56.5 -108.5t-79 -74q-25 -13 -52.5 -13.5t-43.5 16.5t-5 51q16 -29 49 -9.5t60 70.5q45 85 53 154q5 40 -13 36q-19 -5 -56 -56q-31 -42 -64 -110q-93 -194 -142 -381q-12 -48 -43 -53q-28 -4 -41 28t3 80
q24 74 72.5 211t66.5 191q7 19 22.5 65t23.5 68q4 12 10 30.5t10 28.5q10 30 34.5 34t39.5 -17t4 -53q-2 -5 -9 -30q25 29 54.5 40.5t54.5 6.5t43 -22zM1451 613q-22 0 -37.5 15.5t-15.5 37.5t15.5 37.5t37.5 15.5t37.5 -15.5t15.5 -37.5t-15.5 -37.5t-37.5 -15.5z
M2011 1150q-29 5 -46.5 27.5t-13.5 50.5t28 45t53 12t46.5 -28t13.5 -51t-28 -44.5t-53 -11.5zM2027 1255q-15 2 -27.5 -7t-14.5 -25t7 -29t24 -15t27.5 7.5t14.5 25.5t-7 28.5t-24 14.5zM2360 1070l33 97l-38 13l10 28l107 -36l-9 -28l-38 13l-34 -98zM1815 1221l-2 -50
l-33 2l6 132l105 -5l-2 -29l-71 3l-1 -23l64 -4l-1 -29zM2193 1198l-17 -77l-33 8l30 129l32 -8l39 -89l17 77l32 -8l-29 -129l-32 8zM1572 1170q-29 -2 -51 17t-23 47t18.5 49t48.5 23t51.5 -17t23.5 -47q2 -28 -18.5 -49.5t-49.5 -22.5zM1567 1277q-15 -1 -25.5 -13
t-9.5 -28t12.5 -27t26.5 -10t25.5 13t9.5 28t-12.5 27t-26.5 10zM1330 1146l-32 -5l-20 131l32 5l48 -62l28 74l32 5l20 -131l-32 -5l-12 76l-27 -74l-48 62zM1000 1064l-46 -16l-43 126l46 15q32 11 59 1t36 -38t-5.5 -52.5t-46.5 -35.5zM971 1163l-19 -7l24 -69l19 7
q16 5 23 18.5t2 28.5t-19 21t-30 1zM1235 1129l-101 -23l-29 129l101 23l7 -29l-70 -16l5 -20l63 15l6 -29l-63 -14l5 -23l70 16zM864 1070q-106 -44 -201 -96l-18 29q88 50 207 99zM2733 1003l-19 -29q-97 54 -200 96l12 32q119 -49 207 -99z" />
    <glyph glyph-name="bracketright" unicode="]" 
d="M2343 649q23 40 51 45t43 -21t5 -66q-118 -478 -278 -673q-3 -4 -10.5 -11t-9.5 -10q-26 -27 -57 -38.5t-56 -6t-42 21.5t-16 48t23 70q4 6 14.5 21.5t18 27.5t13.5 25.5t3 22t-15 11.5q-41 8 -164.5 -6t-260.5 -49q-36 -9 -143 -41q-98 -30 -155 -46t-169 -44.5
t-184 -37t-169.5 -17t-158.5 10t-117.5 49.5t-80 95t-15.5 154q17 -40 47.5 -70.5t73 -49t92.5 -29t112.5 -13t126.5 1t140 12.5q-26 19 -46.5 44.5t-27.5 47.5q-15 42 3 217q3 27 31 205.5t26 261.5q-1 47 -25 65t-56 6.5t-58 -42.5q-34 -41 -66 -121q-19 -46 -34 -101
q60 -23 89.5 -77.5t17.5 -112.5q-10 -47 -41.5 -72.5t-67 -26t-69.5 22t-49 63.5q-14 41 1 133q-27 -5 -169.5 -56t-215.5 -53q-69 -2 -115.5 41.5t-50.5 137.5q38 -48 118.5 -56t157 9t167.5 39t128 23l9 30q28 83 72 154t100 117q26 21 58.5 34t69.5 13t63 -20
q49 -37 57 -131q6 -70 -1.5 -151t-24.5 -188t-22 -153q-1 -8 -2.5 -21.5t-3 -35t-1.5 -42t1 -38.5t5.5 -28.5t12.5 -9.5q4 1 8.5 6.5t10 18t10 24t13 35t14.5 39.5q25 63 74 204.5t92.5 247.5t94.5 193q85 143 187 148q62 4 99 -41q30 -37 14 -72q-41 41 -101.5 -6.5
t-121.5 -136.5q34 -20 85.5 -23t106 7.5t124 30.5t131 41.5t136 44t130.5 35.5q46 10 93 14t96.5 -3.5t84.5 -27t50.5 -62t0.5 -103.5q-17 110 -385 44q31 -19 31 -50.5t-21 -81.5q-52 -126 -154 -414q-24 -68 -65 -76q-31 -7 -44 26q-3 6 -4 13q-37 -48 -79 -57.5t-67 23
t-16 93.5q4 33 12 71q7 34 15 64q6 24 11 38q-20 -20 -46 -60q-17 -26 -51 -84q-38 -68 -47 -87q-27 -58 -68 -71q-35 -11 -45 20q-6 19 1 47q1 2 4.5 18.5t5.5 25.5q-32 -48 -52 -68q-55 -54 -94 -16t-22 128q9 50 20 87q9 31 29 91q1 2 5 13t6 17q17 52 52 56q28 3 41 -26
q11 -25 -2 -56q-39 -91 -53 -143q-32 -113 1 -85q37 32 122 191l7 14q1 3 3 9.5t3 10.5q21 60 38 96q14 30 41 33t43 -20t2 -56q-4 -10 -14 -30q-3 -6 -10.5 -23.5t-11.5 -26.5q-3 -7 -9.5 -20.5t-9.5 -19.5q-7 -16 -9 -23q16 29 36 57q23 33 38 52q26 32 39 45
q39 39 73.5 39t44.5 -35t-10 -98q-17 -44 -26 -76q-42 -133 -23 -135q16 -1 79 90q18 26 37 58q6 17 149 400q-82 -16 -295 -65q-126 -29 -183 -23q-98 8 -116 95q-39 -60 -60 -103q-43 -88 -84 -186q-35 -83 -91 -236.5t-83 -220.5q-2 -5 -5.5 -12.5t-4.5 -9.5
q111 16 470 84q236 45 390 45t151 -60q-1 -14 -22.5 -55t-39 -74.5t-10.5 -35.5q10 -4 58 62q64 89 105 181.5t84 223.5q10 31 10 33q-10 -20 -36 -62q-19 -29 -31.5 -47t-38 -50t-51 -47.5t-47.5 -12.5q-33 4 -45.5 44.5t5.5 104.5q25 80 25 81q18 49 33 80q8 16 24 44
q18 29 46 29t39 -22t-3 -51q-6 -10 -21 -40q-23 -47 -33 -73q-37 -94 -18 -88q18 6 66 83q21 34 45 75q4 6 45 80q8 14 19.5 37t16.5 31zM795 404q21 15 26 47t-15.5 64t-67.5 40q-28 -98 9 -141q24 -25 48 -10zM2845 337q-13 -65 29 -63q44 3 104 64q47 49 68 102
q-1 -9 -4 -24t-16.5 -54.5t-30.5 -71.5t-49 -62t-70 -39q-42 -9 -76 9q-58 31 -55 119q2 34 8 60q11 43 30 90q21 49 43 87q24 40 51 72q25 29 56.5 41.5t57.5 7t45 -26t19.5 -57t-18.5 -84.5q-24 -55 -53 -84t-56 -31q-23 -2 -34.5 13t-0.5 38q6 -11 23 -6q30 9 57 73.5
t8 73.5q-4 2 -15.5 -7.5t-31 -38t-40.5 -69.5q-37 -72 -49 -132zM2737 608q25 -22 24.5 -74.5t-20 -109t-56.5 -108.5t-79 -74q-25 -13 -52.5 -13.5t-44 16.5t-5.5 51q16 -29 49.5 -9.5t60.5 70.5q45 85 53 154q5 40 -13 36q-19 -5 -56 -56q-31 -42 -64 -110
q-95 -198 -143 -381q-13 -48 -44 -53q-27 -4 -39 28q-13 32 3 80q24 74 72.5 211t66.5 191q7 19 22.5 65t23.5 68q4 12 10 30.5t10 28.5q10 30 34.5 34t39.5 -17t4 -53q-5 -14 -10 -30q25 29 55 40.5t55 6.5t43 -22zM1451 613q-22 0 -37.5 15.5t-15.5 37.5t15.5 37.5
t37.5 15.5t37.5 -15.5t15.5 -37.5t-15.5 -37.5t-37.5 -15.5zM1815 1221l-2 -50l-33 2l6 132l104 -5l-1 -29l-71 3l-1 -23l64 -4l-1 -29zM2193 1198l-17 -77l-33 8l29 129l33 -8l39 -89l17 77l32 -8l-29 -129l-32 8zM2360 1070l33 97l-38 13l10 28l107 -36l-10 -28l-37 13
l-34 -98zM2011 1150q-29 5 -46.5 27.5t-13.5 50.5t28 45t53 12t46.5 -28t13.5 -51t-28 -44.5t-53 -11.5zM2027 1255q-15 2 -27.5 -7t-14.5 -25t7 -29t24 -15t27.5 7.5t14.5 25.5t-7 28.5t-24 14.5zM1572 1170q-29 -2 -51 17t-23 47t18.5 49t48.5 23t51.5 -17t23.5 -47
q2 -28 -18.5 -49.5t-49.5 -22.5zM1567 1277q-15 -1 -25.5 -13t-9.5 -28t12.5 -27t26.5 -10t25.5 13t9.5 28t-12.5 27t-26.5 10zM1330 1146l-32 -5l-20 131l32 5l48 -62l28 74l32 5l20 -131l-32 -5l-12 76l-27 -74l-48 62zM1000 1064l-46 -16l-43 126l46 15q32 11 59 1
t36 -38t-5.5 -52.5t-46.5 -35.5zM971 1163l-19 -7l23 -69l20 7q16 5 23 18.5t2 28.5t-19 21t-30 1zM1235 1129l-101 -23l-29 129l101 23l7 -29l-70 -16l5 -20l63 15l6 -29l-63 -14l5 -23l70 16zM864 1070q-106 -44 -201 -96l-19 29q85 49 208 99zM2733 1003l-19 -29
q-94 52 -201 96l13 32q119 -49 207 -99z" />
    <glyph glyph-name="asciicircum" unicode="^" 
d="M2343 649q23 40 51 45t43 -21t5 -66q-118 -478 -278 -673q-3 -5 -10 -12l-9 -9q-32 -33 -72 -42.5t-65.5 5.5t-33.5 47.5t22 84.5q4 6 14.5 21.5t18 27.5t13.5 25.5t3 22t-15 11.5q-41 8 -164.5 -6t-260.5 -49q-36 -9 -143 -41q-98 -30 -155 -46t-169 -44.5t-184 -37
t-169.5 -17t-158.5 10t-117.5 49.5t-80 95t-15.5 154q17 -40 47.5 -70.5t73 -49t92.5 -29t112.5 -13t126.5 1t140 12.5q-26 19 -46.5 44.5t-27.5 47.5q-15 42 3 217q3 27 31 205.5t26 261.5q-1 47 -25 65t-56 6.5t-58 -42.5q-34 -41 -66 -121q-19 -46 -34 -101
q60 -23 89.5 -77.5t17.5 -112.5q-10 -47 -41.5 -72.5t-67 -26t-69.5 22t-49 63.5q-14 41 1 133q-27 -5 -169.5 -56t-215.5 -53q-69 -2 -115.5 41.5t-50.5 137.5q38 -48 118.5 -56t157 9t167.5 39t128 23l9 30q28 83 72 154t100 117q26 21 58.5 34t69.5 13t63 -20
q49 -37 57 -131q6 -70 -1.5 -151t-24.5 -188t-22 -153q-1 -8 -2.5 -21.5t-3 -35t-1.5 -42t1 -38.5t5.5 -28.5t12.5 -9.5q4 1 8.5 6.5t10 18t10 24t13 35t14.5 39.5q25 63 74 204.5t92.5 247.5t94.5 193q85 143 187 148q62 4 99 -41q30 -37 14 -72q-41 41 -101.5 -6.5
t-121.5 -136.5q34 -20 85.5 -23t106 7.5t124 30.5t131 41.5t136 44t130.5 35.5q46 10 93 14t96.5 -3.5t84.5 -27t50.5 -62t0.5 -103.5q-17 110 -385 44q31 -19 31 -50.5t-21 -81.5q-52 -126 -154 -414q-24 -68 -65 -76q-31 -7 -44 26q-3 6 -4 13q-37 -48 -79 -57.5t-67 23
t-16 93.5q4 33 12 71q7 34 15 64q6 24 11 38q-20 -20 -46 -60q-27 -41 -52 -84q-34 -59 -46 -87q-27 -58 -68 -71q-35 -11 -45 20q-6 19 1 47q1 2 4.5 18.5t5.5 25.5q-32 -48 -52 -68q-55 -54 -94 -16t-22 128q9 50 20 87q9 31 29 91q1 2 5 13t6 17q17 52 52 56q28 3 41 -26
q11 -25 -2 -56q-39 -91 -53 -143q-32 -113 1 -85q37 32 122 191l7 14q1 3 3 9.5t3 10.5q21 60 38 96q14 30 41 33t43 -20t2 -56q-4 -10 -14 -30q-3 -6 -10.5 -23.5t-11.5 -26.5q-3 -7 -9.5 -20.5t-9.5 -19.5q-7 -16 -9 -23q16 29 36 57q23 33 38 52q26 32 39 45
q39 39 73.5 39t44.5 -35t-10 -98q-17 -44 -26 -76q-42 -133 -23 -135q16 -1 79 90q18 26 37 58q6 17 149 400q-82 -16 -295 -65q-126 -29 -183 -23q-98 8 -116 95q-39 -60 -60 -103q-43 -88 -84 -186q-35 -83 -91 -236.5t-83 -220.5q-2 -5 -5.5 -12.5t-4.5 -9.5
q111 16 470 84q236 45 390 45t151 -60q-1 -14 -22.5 -55t-39 -74.5t-10.5 -35.5q10 -4 58 62q64 89 105 181.5t84 223.5q10 31 10 33q-10 -20 -36 -62q-63 -96 -101 -128q-37 -32 -67 -29q-33 4 -45.5 44.5t5.5 104.5q25 80 25 81q18 49 33 80q8 16 24 44q18 29 46 29
t39 -22t-3 -51q-6 -10 -21 -40q-23 -47 -33 -73q-37 -94 -18 -88q18 6 66 83q21 34 45 75q4 6 45 80q8 14 19.5 37t16.5 31zM795 404q21 15 26 47t-15.5 64t-67.5 40q-28 -98 9 -141q24 -25 48 -10zM2845 337q-13 -65 29 -63q43 3 103 64q48 49 69 102q-1 -9 -4.5 -24
t-16.5 -54.5t-30.5 -71.5t-49.5 -62t-70 -39q-42 -9 -75 9q-58 31 -55 119q2 34 8 60q11 43 30 90q21 49 43 87q24 40 51 72q32 36 71.5 46.5t67 -7t37.5 -56.5t-17 -102q-24 -55 -52.5 -84t-55.5 -31q-23 -2 -34.5 13t-0.5 38q6 -11 23 -6q30 9 57 73.5t8 73.5
q-4 2 -15.5 -7.5t-31 -38t-40.5 -69.5q-37 -72 -49 -132zM2737 608q25 -22 24.5 -74.5t-20 -109t-56.5 -108.5t-79 -74q-25 -13 -52.5 -13.5t-43.5 16.5t-5 51q16 -29 49 -9.5t60 70.5q45 85 53 154q5 40 -13 36q-19 -5 -56 -56q-31 -42 -64 -110q-95 -198 -143 -381
q-13 -48 -44 -53q-27 -4 -39 28q-13 32 3 80q24 74 72.5 211t66.5 191q7 19 22.5 65t23.5 68q4 12 10 30.5t10 28.5q10 30 34.5 34t39.5 -17t4 -53q-5 -14 -10 -30q25 29 55 40.5t55 6.5t43 -22zM1451 613q-22 0 -37.5 15.5t-15.5 37.5t15.5 37.5t37.5 15.5t37.5 -15.5
t15.5 -37.5t-15.5 -37.5t-37.5 -15.5zM1815 1221l-2 -50l-33 2l6 132l104 -5l-1 -29l-71 3l-1 -23l64 -4l-1 -29zM2011 1150q-29 5 -46.5 27.5t-13.5 50.5t28 45t53 12t46.5 -28t13.5 -51t-28 -44.5t-53 -11.5zM2027 1255q-15 2 -27.5 -7t-14.5 -25t7 -29t24 -15t27.5 7.5
t14.5 25.5t-7 28.5t-24 14.5zM2193 1198l-18 -77l-32 8l29 129l32 -8l39 -89l18 77l32 -8l-29 -129l-32 8zM2360 1070l33 97l-38 13l10 28l107 -36l-10 -28l-38 13l-33 -98zM1235 1129l-101 -23l-29 129l101 23l7 -29l-70 -16l5 -20l63 15l6 -29l-63 -14l5 -23l70 16z
M1000 1064l-46 -16l-43 126l46 15q32 11 59 1t36 -38t-5.5 -52.5t-46.5 -35.5zM971 1163l-19 -7l23 -69l20 7q16 5 23 18.5t2 28.5t-19 21t-30 1zM1572 1170q-29 -2 -51 17t-23 47t18.5 49t48.5 23t51.5 -17t23.5 -47q2 -28 -18.5 -49.5t-49.5 -22.5zM1567 1277
q-15 -1 -25.5 -13t-9.5 -28t12.5 -27t26.5 -10t25.5 13t9.5 28t-12.5 27t-26.5 10zM1330 1146l-32 -5l-20 131l32 5l48 -62l28 74l32 5l20 -131l-32 -5l-12 76l-27 -74l-48 62zM864 1070q-106 -44 -201 -96l-19 29q85 49 208 99zM2733 1003l-19 -29q-94 52 -201 96l13 32
q119 -49 207 -99z" />
    <glyph glyph-name="underscore" unicode="_" 
d="M2343 649q23 40 51 45t43 -21t5 -66q-118 -476 -279 -673q-3 -5 -10 -12l-9 -9q-26 -27 -57 -38.5t-56 -6t-42 21.5t-16 48t23 70q4 6 14.5 21.5t18 27.5t13.5 25.5t3 22t-15 11.5q-41 8 -164.5 -6t-260.5 -49q-36 -9 -143 -41q-98 -30 -155 -46t-169 -44.5t-184 -37
t-169.5 -17t-158.5 10t-117.5 49.5t-80 95t-15.5 154q17 -40 47.5 -70.5t73 -49t92.5 -29t112.5 -13t126.5 1t140 12.5q-26 19 -46.5 44.5t-27.5 47.5q-15 42 3 217q3 27 31 205.5t26 261.5q-1 47 -25 65t-56 6.5t-58 -42.5q-34 -41 -66 -121q-19 -46 -34 -101
q60 -23 89.5 -77.5t17.5 -112.5q-10 -47 -41.5 -72.5t-67 -26t-69.5 22t-49 63.5q-14 41 1 133q-27 -5 -169.5 -56t-215.5 -53q-69 -2 -115.5 41.5t-50.5 137.5q38 -48 118.5 -56t157 9t167.5 39t128 23l9 30q28 83 72 154t100 117q26 21 58.5 34t69.5 13t63 -20
q49 -37 57 -131q6 -70 -1.5 -151t-24.5 -188t-22 -153q-1 -8 -2.5 -21.5t-3 -35t-1.5 -42t1 -38.5t5.5 -28.5t12.5 -9.5q4 1 8.5 6.5t10 18t10 24t13 35t14.5 39.5q25 63 74 204.5t92.5 247.5t94.5 193q85 143 187 148q62 4 99 -41q30 -37 14 -72q-41 41 -101.5 -6.5
t-121.5 -136.5q34 -20 85.5 -23t106 7.5t124 30.5t131 41.5t136 44t130.5 35.5q46 10 93 14t96.5 -3.5t84.5 -27t50.5 -62t0.5 -103.5q-17 110 -385 44q31 -19 31 -50.5t-21 -81.5q-52 -126 -154 -414q-24 -68 -65 -76q-31 -7 -44 26q-3 6 -4 13q-37 -48 -79 -57.5t-67 23
t-16 93.5q4 33 12 71q7 34 15 64q6 24 11 38q-20 -20 -46 -60q-17 -26 -51 -84q-38 -68 -47 -87q-27 -58 -68 -71q-35 -11 -45 20q-6 19 1 47q1 2 4.5 18.5t5.5 25.5q-32 -48 -52 -68q-55 -54 -94 -16t-22 128q9 50 20 87q9 31 29 91q1 2 5 13t6 17q17 52 52 56q28 3 41 -26
q11 -25 -2 -56q-39 -91 -53 -143q-32 -113 1 -85q37 32 122 191l7 14q1 3 3 9.5t3 10.5q21 60 38 96q14 30 41 33t43 -20t2 -56q-4 -10 -14 -30q-3 -6 -10.5 -23.5t-11.5 -26.5q-3 -7 -9.5 -20.5t-9.5 -19.5q-7 -16 -9 -23q16 29 36 57q23 33 38 52q26 32 39 45
q39 39 73.5 39t44.5 -35t-10 -98q-17 -44 -26 -76q-42 -135 -22 -135q17 1 79 90q14 19 36 58q6 17 149 400q-82 -16 -295 -65q-126 -29 -183 -23q-98 8 -116 95q-39 -60 -60 -103q-43 -88 -84 -186q-35 -83 -91 -236.5t-83 -220.5q-3 -8 -9 -22q107 16 469 84
q236 45 390 45t151 -60q-1 -14 -22.5 -55t-39 -74.5t-10.5 -35.5q10 -4 58 62q64 89 105 181.5t84 223.5q10 31 10 33q-10 -20 -36 -62q-63 -96 -101 -128q-37 -32 -67 -29q-34 4 -46 44.5t5 104.5q20 64 26 81q18 49 33 80q8 16 24 44q18 29 46 29t39 -22t-3 -51
q-6 -10 -21 -40q-23 -47 -33 -73q-37 -94 -18 -88q18 6 66 83q21 34 45 75q4 6 45 80q8 14 19.5 37t16.5 31zM795 404q21 15 26 47t-15.5 64t-67.5 40q-28 -98 9 -141q24 -25 48 -10zM2845 337q-13 -65 29 -63q43 3 103 64q48 49 69 102q-1 -9 -4.5 -24t-16.5 -54.5
t-30.5 -71.5t-49.5 -62t-70 -39q-42 -9 -75 9q-58 31 -55 119q2 34 8 60q12 49 29 90q18 44 44 87q24 40 51 72q32 36 71.5 46.5t67 -7t37.5 -56.5t-17 -102q-24 -55 -52.5 -84t-55.5 -31q-23 -2 -34.5 13t-0.5 38q6 -11 23 -6q30 9 57 73.5t8 73.5q-4 2 -15.5 -7.5t-31 -38
t-40.5 -69.5q-37 -72 -49 -132zM2737 608q25 -22 24.5 -74.5t-20 -109t-56.5 -108.5t-79 -74q-25 -13 -52.5 -13.5t-43.5 16.5t-5 51q16 -29 49 -9.5t60 70.5q45 85 53 154q5 40 -13 36q-19 -5 -56 -56q-31 -42 -64 -110q-95 -198 -143 -381q-13 -48 -44 -53q-27 -4 -39 28
q-13 32 3 80q24 74 72.5 211t66.5 191q7 19 22.5 65t23.5 68q4 12 10 30.5t10 28.5q10 30 34.5 34t39.5 -17t4 -53q-5 -14 -10 -30q25 29 55 40.5t55 6.5t43 -22zM1451 613q-22 0 -37.5 15.5t-15.5 37.5t15.5 37.5t37.5 15.5t37.5 -15.5t15.5 -37.5t-15.5 -37.5t-37.5 -15.5
zM1815 1221l-2 -50l-33 2l6 132l104 -5l-1 -29l-71 3l-1 -23l64 -4l-1 -29zM2011 1150q-29 5 -46.5 27.5t-13.5 50.5t28 45t53 12t46.5 -28t13.5 -51t-28 -44.5t-53 -11.5zM2027 1255q-15 2 -27.5 -7t-14.5 -25t7 -29t24 -15t27.5 7.5t14.5 25.5t-7 28.5t-24 14.5z
M2193 1198l-18 -77l-32 8l29 129l32 -8l40 -89l17 77l32 -8l-29 -129l-32 8zM2360 1070l33 97l-38 13l10 28l107 -36l-10 -28l-38 13l-33 -98zM1235 1129l-101 -23l-29 129l101 23l7 -29l-70 -16l5 -20l63 15l6 -29l-63 -14l5 -23l70 16zM1000 1064l-46 -16l-43 126l46 15
q32 11 59 1t36 -38t-5.5 -52.5t-46.5 -35.5zM971 1163l-19 -7l23 -69l20 7q16 5 23 18.5t2 28.5t-19 21t-30 1zM1572 1170q-29 -2 -51 17t-23 47t18.5 49t48.5 23t51.5 -17t23.5 -47q2 -28 -18.5 -49.5t-49.5 -22.5zM1567 1277q-15 -1 -25.5 -13t-9.5 -28t12.5 -27t26.5 -10
t25.5 13t9.5 28t-12.5 27t-26.5 10zM1330 1146l-32 -5l-20 131l32 5l48 -62l28 74l32 5l20 -131l-32 -5l-12 76l-27 -74l-48 62zM864 1070q-106 -44 -201 -96l-19 29q85 49 208 99zM2733 1003l-19 -29q-94 52 -201 96l13 32q119 -49 207 -99z" />
    <glyph glyph-name="grave" unicode="`" 
d="M2343 649q23 40 51 45t43 -21t5 -66q-118 -478 -278 -673q-3 -5 -10 -12l-9 -9q-32 -33 -72 -42.5t-65.5 5.5t-33.5 47.5t22 84.5q4 6 14.5 21.5t18 27.5t13.5 25.5t3 22t-15 11.5q-41 8 -164.5 -6t-260.5 -49q-36 -9 -143 -41q-98 -30 -155 -46t-169 -44.5t-184 -37
t-169.5 -17t-158.5 10t-117.5 49.5t-80 95t-15.5 154q17 -40 47.5 -70.5t73 -49t92.5 -29t112.5 -13t126.5 1t140 12.5q-26 19 -46.5 44.5t-27.5 47.5q-15 42 3 217q3 27 31 205.5t26 261.5q-1 47 -25 65t-56 6.5t-58 -42.5q-34 -41 -66 -121q-19 -46 -34 -101
q60 -23 89.5 -77.5t17.5 -112.5q-10 -47 -41.5 -72.5t-67 -26t-69.5 22t-49 63.5q-14 41 1 133q-27 -5 -169.5 -56t-215.5 -53q-69 -2 -115.5 41.5t-50.5 137.5q38 -48 118.5 -56t157 9t167.5 39t128 23l9 30q28 83 72 154t100 117q26 21 58.5 34t69.5 13t63 -20
q49 -37 57 -131q6 -70 -1.5 -151t-24.5 -188t-22 -153q-1 -8 -2.5 -21.5t-3 -35t-1.5 -42t1 -38.5t5.5 -28.5t12.5 -9.5q4 1 8.5 6.5t10 18t10 24t13 35t14.5 39.5q25 63 74 204.5t92.5 247.5t94.5 193q85 143 187 148q62 4 99 -41q30 -37 14 -72q-41 41 -101.5 -6.5
t-121.5 -136.5q34 -20 85.5 -23t106 7.5t124 30.5t131 41.5t136 44t130.5 35.5q46 10 93 14t96.5 -3.5t84.5 -27t50.5 -62t0.5 -103.5q-17 110 -385 44q31 -19 31 -50.5t-21 -81.5q-52 -126 -154 -414q-24 -68 -65 -76q-31 -7 -44 26q-3 6 -4 13q-37 -48 -79 -57.5t-67 23
t-16 93.5q4 33 12 71q7 34 15 64q6 24 11 38q-20 -20 -46 -60q-27 -41 -52 -84q-34 -59 -46 -87q-27 -58 -68 -71q-35 -11 -45 20q-6 19 1 47q1 2 4.5 18.5t5.5 25.5q-32 -48 -52 -68q-55 -54 -94 -16t-22 128q9 50 20 87q9 31 29 91q1 2 5 13t6 17q17 52 52 56q28 3 41 -26
q11 -25 -2 -56q-39 -91 -53 -143q-32 -113 1 -85q37 32 122 191l7 14q1 3 3 9.5t3 10.5q21 60 38 96q14 30 41 33t43 -20t2 -56q-4 -10 -14 -30q-3 -6 -10.5 -23.5t-11.5 -26.5q-3 -7 -9.5 -20.5t-9.5 -19.5q-7 -16 -9 -23q16 29 36 57q23 33 38 52q26 32 39 45
q39 39 73.5 39t44.5 -35t-10 -98q-17 -44 -26 -76q-42 -133 -23 -135q16 -1 79 90q18 26 37 58q6 17 149 400q-82 -16 -295 -65q-126 -29 -183 -23q-98 8 -116 95q-39 -60 -60 -103q-43 -88 -84 -186q-35 -83 -91 -236.5t-83 -220.5q-2 -5 -5.5 -12.5t-4.5 -9.5
q111 16 470 84q236 45 390 45t151 -60q-1 -14 -22.5 -55t-39 -74.5t-10.5 -35.5q10 -4 58 62q64 89 105 181.5t84 223.5q10 31 10 33q-10 -20 -36 -62q-63 -96 -101 -128q-37 -32 -67 -29q-33 4 -45.5 44.5t5.5 104.5q25 80 25 81q18 49 33 80q8 16 24 44q18 29 46 29
t39 -22t-3 -51q-6 -10 -21 -40q-23 -47 -33 -73q-37 -94 -18 -88q18 6 66 83q21 34 45 75q4 6 45 80q8 14 19.5 37t16.5 31zM795 404q21 15 26 47t-15.5 64t-67.5 40q-28 -98 9 -141q24 -25 48 -10zM2845 337q-13 -65 29 -63q43 3 103 64q48 49 69 102q-1 -9 -4.5 -24
t-16.5 -54.5t-30.5 -71.5t-49.5 -62t-70 -39q-42 -9 -75 9q-58 31 -55 119q2 34 8 60q12 49 29 90q18 44 44 87q24 40 51 72q32 36 71.5 46.5t67 -7t37.5 -56.5t-17 -102q-24 -55 -52.5 -84t-55.5 -31q-23 -2 -34.5 13t-0.5 38q6 -11 23 -6q30 9 57 73.5t8 73.5
q-4 2 -15.5 -7.5t-31 -38t-40.5 -69.5q-37 -72 -49 -132zM2737 608q25 -22 24.5 -74.5t-20 -109t-56.5 -108.5t-79 -74q-25 -13 -52.5 -13.5t-43.5 16.5t-5 51q16 -29 49 -9.5t60 70.5q45 85 53 154q5 40 -13 36q-19 -5 -56 -56q-31 -42 -64 -110q-95 -198 -143 -381
q-12 -48 -43 -53q-28 -4 -41 28t3 80q24 73 72.5 209t67.5 193q7 19 22.5 65t23.5 68q4 12 10 30.5t10 28.5q10 30 34.5 34t39.5 -17t4 -53q-5 -14 -10 -30q25 29 55 40.5t55 6.5t43 -22zM1451 613q-22 0 -37.5 15.5t-15.5 37.5t15.5 37.5t37.5 15.5t37.5 -15.5t15.5 -37.5
t-15.5 -37.5t-37.5 -15.5zM2011 1150q-29 5 -46.5 27.5t-13.5 50.5t28 45t53 12t46.5 -28t13.5 -51t-28 -44.5t-53 -11.5zM2027 1255q-15 2 -27.5 -7t-14.5 -25t7 -29t24 -15t27.5 7.5t14.5 25.5t-7 28.5t-24 14.5zM1815 1221l-2 -50l-33 2l6 132l104 -5l-1 -29l-71 3
l-1 -23l64 -4l-1 -29zM2360 1070l33 97l-38 13l10 28l107 -36l-10 -28l-38 13l-33 -98zM2193 1198l-18 -77l-32 8l29 129l33 -8l39 -89l17 77l32 -8l-29 -129l-32 8zM1000 1064l-46 -16l-43 126l46 15q32 11 59 1t36 -38t-5.5 -52.5t-46.5 -35.5zM971 1163l-19 -7l23 -69
l20 7q16 5 23 18.5t2 28.5t-19 21t-30 1zM1572 1170q-29 -2 -51 17t-23 47t18.5 49t48.5 23t51.5 -17t23.5 -47q2 -28 -18.5 -49.5t-49.5 -22.5zM1567 1277q-15 -1 -25.5 -13t-9.5 -28t12.5 -27t26.5 -10t25.5 13t9.5 28t-12.5 27t-26.5 10zM1235 1129l-101 -23l-29 129
l101 23l7 -29l-70 -16l5 -20l63 15l6 -29l-63 -14l5 -23l70 16zM1330 1146l-32 -5l-20 131l32 5l48 -62l28 74l32 5l20 -131l-32 -5l-12 76l-27 -74l-48 62zM864 1070q-106 -44 -201 -96l-19 29q85 49 208 99zM2733 1003l-19 -29q-94 52 -201 96l13 32q119 -49 207 -99z" />
    <glyph glyph-name="a" unicode="a" horiz-adv-x="913" 
d="M905 0h-194v80q-43 -35 -108.5 -60t-138 -36.5t-146 -2.5t-134 36t-100.5 84t-46 137q-10 139 65 226.5t245 106.5q81 9 151 4.5t131 -2t81 19.5v80q0 115 -80.5 195.5t-195.5 80.5t-196 -80.5t-81 -195.5l-89 -56q0 151 107.5 258.5t258.5 107.5t258 -107t107 -259v-584
zM133 231q8 -80 70 -132t148 -66t184.5 6.5t175.5 74.5v448q-29 -12 -83 -16.5t-162 -7.5q-23 -1 -35 -1q-163 -4 -237.5 -83.5t-60.5 -222.5z" />
    <glyph glyph-name="a" unicode="&#xe5;" horiz-adv-x="913" 
d="M905 0h-194v80q-43 -35 -108.5 -60t-138 -36.5t-146 -2.5t-134 36t-100.5 84t-46 137q-10 139 65 226.5t245 106.5q81 9 151 4.5t131 -2t81 19.5v80q0 115 -80.5 195.5t-195.5 80.5t-196 -80.5t-81 -195.5l-89 -56q0 151 107.5 258.5t258.5 107.5t258 -107t107 -259v-584
zM133 231q8 -80 70 -132t148 -66t184.5 6.5t175.5 74.5v448q-29 -12 -83 -16.5t-162 -7.5q-23 -1 -35 -1q-163 -4 -237.5 -83.5t-60.5 -222.5z" />
    <glyph glyph-name="b" unicode="b" horiz-adv-x="948" 
d="M503 982q167 0 289 -145t122 -347t-122 -346.5t-289 -144.5q-94 0 -176 50t-139 137v-184h-182l93 34v1339l-93 33h182v-614q57 88 139 138t176 50zM484 38q149 0 243.5 128.5t94.5 323.5q0 196 -95 329.5t-243 133.5q-102 0 -179.5 -66.5t-116.5 -180.5v-429
q39 -111 116 -175t180 -64z" />
    <glyph glyph-name="c" unicode="c" horiz-adv-x="866" 
d="M444 33q48 0 94.5 14.5t82 38t67.5 52t54.5 57t39 52t24.5 37.5l8 15v-299q-11 69 -31.5 95.5t-68.5 -0.5q-56 -32 -85.5 -47t-82.5 -31.5t-102 -16.5q-109 0 -203.5 65.5t-151 179t-56.5 246.5v0q0 133 56.5 246.5t151 179.5t203.5 66q49 0 102 -16.5t82.5 -31.5
t85.5 -47q48 -27 68.5 -0.5t31.5 95.5v-299q-3 6 -8.5 15.5t-24 37t-39 52.5t-54 55.5t-68.5 52.5t-81.5 37t-94.5 15q-139 0 -228 -132t-91 -326q2 -194 91 -326t228 -132z" />
    <glyph glyph-name="d" unicode="d" horiz-adv-x="952" 
d="M848 1373v-1339l105 -34h-299l105 34v158q-57 -87 -139 -137t-176 -50q-109 0 -203.5 65.5t-151 179t-56.5 246.5q0 202 122 347t289 145q94 0 176 -50t139 -137v605h194zM759 281v429q-39 110 -116 174t-180 64q-149 0 -243.5 -128.5t-94.5 -323.5q0 -196 95 -329.5
t243 -133.5q102 0 179.5 67t116.5 181z" />
    <glyph glyph-name="e" unicode="e" horiz-adv-x="872" 
d="M444 33q102 0 178 75t111 200h84q-45 -138 -146.5 -223t-226.5 -85q-109 0 -203.5 65.5t-151 179t-56.5 246.5q0 202 122 347t289 145q166 0 284 -144.5t118 -347.5h-721q2 -194 91 -326t228 -132zM444 948q-130 0 -217 -113.5t-100 -289.5l628 -1q-11 178 -95.5 291
t-215.5 113z" />
    <glyph glyph-name="f" unicode="f" horiz-adv-x="438" 
d="M334 1406h150v-33h-128q-46 0 -70 -3.5t-44.5 -16.5t-27.5 -39t-7 -72v-259h239v-34h-239v-916l108 -33h-299l102 33v916h-87v34h87v253q0 103 53.5 137t162.5 33z" />
    <glyph glyph-name="g" unicode="g" horiz-adv-x="886" 
d="M200 355q-53 -1 -87.5 -41.5t-6.5 -85.5q16 -25 48 -43t55.5 -24.5t64.5 -14.5q42 -9 181.5 -26.5t212.5 -42.5q154 -53 164 -168q7 -86 -48 -163q-49 -68 -128 -107.5t-162 -43.5t-167 18q-104 32 -149 102q-40 63 -37 142q3 69 46.5 134.5t106.5 91.5q-65 11 -68 12
q-100 23 -140 55q-28 23 -35.5 56.5t10.5 65.5q17 30 52 58t71 36q-68 49 -107.5 118.5t-39.5 147.5q0 144 122 247.5t289 103.5q13 0 35 -2q34 3 61 2q23 -1 65 -5.5t53 -5.5q61 -6 112 -1q52 6 113 28q-44 -45 -106 -62q-50 -14 -117 -9q85 -47 135.5 -125.5t50.5 -170.5
q0 -145 -118 -247.5t-284 -102.5q-137 0 -248 73zM129 636q0 -140 89.5 -235t229.5 -95t226.5 95t86.5 235q0 139 -86.5 230.5t-226.5 91.5q-141 0 -230 -91.5t-89 -230.5zM558 38q-35 9 -71 15.5t-93.5 14.5t-72.5 10q-61 -12 -102 -63t-47 -113t18 -125q22 -49 65 -82
t93.5 -45t106.5 -16t104 6q125 19 168 87q44 67 31 149q-17 113 -200 162z" />
    <glyph glyph-name="h" unicode="h" horiz-adv-x="991" 
d="M682 0l105 33v609q0 129 -91.5 218t-209.5 89q-113 0 -201.5 -77t-94.5 -185v-653l105 -34h-299l105 34v1339l-105 33h194v-589q45 75 125.5 120.5t170.5 45.5q102 0 190.5 -44t144 -129t55.5 -193v-584l105 -33h-299z" />
    <glyph glyph-name="i" unicode="i" horiz-adv-x="292" 
d="M-2 0l105 34v915l-105 34h194v-949l105 -34h-299zM117 1112q-49 0 -84 35t-35 84t35 84t84 35t84 -35t35 -84t-35 -84t-84 -35z" />
    <glyph glyph-name="j" unicode="j" horiz-adv-x="284" 
d="M-10 985h299l-101 -34v-1202q0 -103 -54 -137t-163 -33q-23 0 -72.5 -0.5t-76.5 -0.5v34h127q46 0 70 3.5t45 16.5t28 39t7 72v1208zM138 1112q-50 0 -84.5 35t-34.5 84t34.5 84t84.5 35t84.5 -35t34.5 -84t-34.5 -84t-84.5 -35z" />
    <glyph glyph-name="k" unicode="k" horiz-adv-x="872" 
d="M787 45q38 -41 96 -34q-26 -15 -58 -12t-59 21q-42 30 -80 91q-47 78 -92 215q-18 58 -63 219q-23 76 -36 104q-20 45 -46 55l-126 -93l-79 -58l-40 -29l-14 -9v-481l105 -34h-299l105 34v1339l-105 33h194v-817l273 166l166 104q13 8 51.5 31.5t64 40.5t48.5 35
q-20 -18 -154 -121l-157 -117l-19 -14q6 -1 14 -6q24 -13 46 -42q28 -38 57 -104q25 -58 78 -216q48 -149 74 -210q29 -64 55 -91z" />
    <glyph glyph-name="l" unicode="l" horiz-adv-x="290" 
d="M190 34l105 -34h-299l105 34v1339l-105 33h194v-1372z" />
    <glyph glyph-name="m" unicode="m" horiz-adv-x="1693" 
d="M1385 0l105 33v609q0 129 -92 218t-210 89q-117 0 -206.5 -81.5t-89.5 -194.5v-41v-15v-584l105 -33h-299l105 33v609q0 129 -91.5 218t-209.5 89q-113 0 -201.5 -77t-94.5 -185v-654l105 -33h-299l105 33v916l-105 33h194v-165q45 75 125.5 120.5t170.5 45.5
q118 0 218 -61t144 -165q34 98 125 162t199 64q102 0 190.5 -44t144.5 -129t56 -193v-584l105 -33h-299z" />
    <glyph glyph-name="n" unicode="n" horiz-adv-x="1009" 
d="M892 33h105v-33h-299v33h105v609q0 129 -91.5 218t-209.5 89q-113 0 -201.5 -77t-94.5 -185v-654l105 -33h-299l105 33v916l-105 33h194v-165q45 75 125.5 120.5t170.5 45.5q102 0 190.5 -44t144 -129t55.5 -193v-584z" />
    <glyph glyph-name="o" unicode="o" horiz-adv-x="878" 
d="M444 983q166 0 284 -144.5t118 -347.5t-118 -347t-284 -144q-109 0 -203.5 65.5t-151 179t-56.5 246.5q0 202 122 347t289 145zM444 33q93 0 165 62t110 167t38 234q0 196 -86.5 324t-226.5 128q-141 0 -230.5 -128.5t-89.5 -323.5q0 -196 90 -329.5t230 -133.5z" />
    <glyph glyph-name="p" unicode="p" horiz-adv-x="952" 
d="M505 982q109 0 203.5 -66t151 -179.5t56.5 -246.5q0 -202 -122 -346.5t-289 -144.5q-94 0 -176 50t-139 137v-576l105 -33h-299l105 33v1339l-105 34h194v-189q57 88 139 138t176 50zM486 38q149 0 243.5 128.5t94.5 323.5q0 196 -95 329.5t-243 133.5
q-102 0 -179.5 -66.5t-116.5 -180.5v-429q39 -111 116 -175t180 -64z" />
    <glyph glyph-name="q" unicode="q" horiz-adv-x="948" 
d="M848 951v-1339l105 -34h-299l105 34v580q-57 -87 -139 -137t-176 -50q-109 0 -203.5 65.5t-151 179t-56.5 246.5q0 202 122 347t289 145q94 0 176 -50t139 -137v183h194zM759 281v429q-39 110 -116 174t-180 64q-149 0 -243.5 -128.5t-94.5 -323.5q0 -196 95 -329.5
t243 -133.5q102 0 179.5 67t116.5 181z" />
    <glyph glyph-name="r" unicode="r" horiz-adv-x="894" 
d="M502 983q144 0 255.5 -86.5t131.5 -227.5l-92 37q-23 106 -108 174.5t-187 68.5q-113 0 -201.5 -77t-94.5 -185v-654l105 -33h-299l105 33v916l-105 33h194v-165q45 75 125.5 120.5t170.5 45.5z" />
    <glyph glyph-name="s" unicode="s" horiz-adv-x="790" 
d="M127 714q2 -55 37 -94.5t89 -61t118.5 -39t129.5 -36t118.5 -43t88 -69t36.5 -106.5q4 -110 -91.5 -185.5t-238.5 -75.5q-121 0 -235 65q-97 54 -114 -70v302q1 -5 4.5 -14.5t16 -36t28.5 -50.5t45 -54t63 -52t84 -37.5t107 -17.5q120 -4 186 57.5t59 170.5
q-3 46 -38.5 79t-90.5 52.5t-121 36.5t-130.5 38t-118 49.5t-86.5 77.5t-32 116q2 111 98 189t237 78q107 0 230 -70q55 -28 88 -7t41 77l-5 -299q-2 5 -5 14.5t-16.5 36t-30 51t-46 54.5t-64 52.5t-84.5 38t-107 17.5q-119 4 -187 -60t-63 -174z" />
    <glyph glyph-name="t" unicode="t" horiz-adv-x="452" 
d="M336 33h127v-33h-149q-109 -1 -163 33t-54 137v925h-87v33h87v244l89 34v-278h240v-33h-240v-930q0 -31 3 -52.5t12 -36t19 -23t29 -13t37.5 -6t49.5 -1.5z" />
    <glyph glyph-name="u" unicode="u" horiz-adv-x="974" 
d="M868 949v-915l105 -34h-194v166q-45 -75 -125.5 -120.5t-170.5 -45.5q-102 0 -190.5 44t-144 129t-55.5 193v583l-105 34h299l-105 -34v-608q0 -129 91.5 -218.5t209.5 -89.5q112 0 201 77.5t95 185.5v653l-105 34h299z" />
    <glyph glyph-name="v" unicode="v" horiz-adv-x="956" 
d="M699 983h299l-125 -34l-350 -949v0l-452 949l-110 34h299l-100 -34l377 -792l302 792z" />
    <glyph glyph-name="w" unicode="w" horiz-adv-x="1478" 
d="M1222 983h299l-132 -34l-315 -949l-366 813l-297 -813l-344 949l-104 34h299l-107 -34l277 -787l304 821l359 -821l260 787z" />
    <glyph glyph-name="x" unicode="x" horiz-adv-x="870" 
d="M470 513l310 -480l96 -33h-299l114 33l-265 410l-252 -410l117 -33h-299l149 33l268 436l-311 480l-106 34h299l-104 -34l265 -409l252 409l-127 34h299l-138 -34z" />
    <glyph glyph-name="y" unicode="y" horiz-adv-x="956" 
d="M699 983h299l-125 -34l-305 -828q-10 -30 -23.5 -72t-15.5 -49q-15 -50 -34 -107q-24 -76 -25 -81q-13 -44 -20.5 -67.5t-21 -55t-30.5 -56.5q-35 -53 -88 -53q-2 0 -6 0.5t-7 0.5l5 44q20 -2 32.5 5t26.5 28q34 52 67 167q18 66 24 82q22 66 34 106q2 7 6 19.5t6 18.5
l-427 898l-110 34h299l-100 -34l377 -792l302 792z" />
    <glyph glyph-name="z" unicode="z" horiz-adv-x="780" 
d="M716 33l52 116l-18 -149h-719v0l608 949h-575l-56 -116l23 150h719l-609 -950h575z" />
    <glyph glyph-name="braceleft" unicode="{" 
d="M2343 649q23 40 51 45t43 -21t5 -66q-118 -476 -279 -673q-3 -5 -10 -12l-9 -9q-26 -27 -57 -38.5t-56 -6t-42 21.5t-16 48t23 70q4 6 14.5 21.5t18 27.5t13.5 25.5t3 22t-15 11.5q-41 8 -164.5 -6t-260.5 -49q-36 -9 -143 -41q-98 -30 -155 -46t-169 -44.5t-184 -37
t-169.5 -17t-158.5 10t-117.5 49.5t-80 95t-15.5 154q17 -40 47.5 -70.5t73 -49t92.5 -29t112.5 -13t126.5 1t140 12.5q-26 19 -46.5 44.5t-27.5 47.5q-15 42 3 217q3 27 31 205.5t26 261.5q-1 47 -25 65t-56 6.5t-58 -42.5q-34 -41 -66 -121q-19 -46 -34 -101
q60 -23 89.5 -77.5t17.5 -112.5q-10 -47 -41.5 -72.5t-67 -26t-69.5 22t-49 63.5q-14 41 1 133q-27 -5 -169.5 -56t-215.5 -53q-69 -2 -115.5 41.5t-50.5 137.5q38 -48 118.5 -56t157 9t167.5 39t128 23l9 30q28 83 72 154t100 117q26 21 58.5 34t69.5 13t63 -20
q49 -37 57 -131q6 -70 -1.5 -151t-24.5 -188t-22 -153q-1 -8 -2.5 -21.5t-3 -35t-1.5 -42t1 -38.5t5.5 -28.5t12.5 -9.5q4 1 8.5 6.5t10 18t10 24t13 35t14.5 39.5q25 63 74 204.5t92.5 247.5t94.5 193q85 143 187 148q62 4 99 -41q30 -37 14 -72q-41 41 -101.5 -6.5
t-121.5 -136.5q34 -20 85.5 -23t106 7.5t124 30.5t131 41.5t136 44t130.5 35.5q46 10 93 14t96.5 -3.5t84.5 -27t50.5 -62t0.5 -103.5q-17 110 -385 44q31 -19 31 -50.5t-21 -81.5q-52 -126 -154 -414q-24 -68 -65 -76q-31 -7 -44 26q-3 6 -4 13q-37 -48 -79 -57.5t-67 23
t-16 93.5q4 33 12 71q7 34 15 64q6 24 11 38q-20 -20 -46 -60q-27 -41 -52 -84q-34 -59 -46 -87q-27 -58 -68 -71q-35 -11 -45 20q-6 19 1 47q1 2 4.5 18.5t5.5 25.5q-32 -48 -52 -68q-55 -54 -94 -16t-22 128q9 50 20 87q9 31 29 91q1 2 5 13t6 17q17 52 52 56q28 3 41 -26
q11 -25 -2 -56q-39 -91 -53 -143q-32 -113 1 -85q37 32 122 191l7 14q1 3 3 9.5t3 10.5q21 60 38 96q14 30 41 33t43 -20t2 -56q-4 -10 -14 -30q-3 -6 -10.5 -23.5t-11.5 -26.5q-3 -7 -9.5 -20.5t-9.5 -19.5q-7 -16 -9 -23q16 29 36 57q23 33 38 52q26 32 39 45
q39 39 73.5 39t44.5 -35t-10 -98q-17 -44 -26 -76q-42 -133 -23 -135q16 -1 79 90q18 26 37 58q6 17 149 400q-82 -16 -295 -65q-126 -29 -183 -23q-98 8 -116 95q-39 -60 -60 -103q-43 -88 -84 -186q-35 -83 -91 -236.5t-83 -220.5q-2 -5 -5.5 -12.5t-4.5 -9.5
q111 16 470 84q236 45 390 45t151 -60q-1 -14 -22.5 -55t-39 -74.5t-10.5 -35.5q10 -4 58 62q64 89 105 181.5t84 223.5q10 31 10 33q-10 -20 -36 -62q-19 -29 -31.5 -47t-38 -50t-51 -47.5t-47.5 -12.5q-33 4 -45.5 44.5t5.5 104.5q25 80 25 81q18 49 33 80q8 16 24 44
q18 29 46 29t39 -22t-3 -51q-6 -10 -21 -40q-23 -47 -33 -73q-37 -94 -18 -88q18 6 66 83q21 34 45 75q4 6 45 80q8 14 19.5 37t16.5 31zM795 404q21 15 26 47t-15.5 64t-67.5 40q-28 -98 9 -141q24 -25 48 -10zM2845 337q-13 -66 30 -63q44 3 104 65q47 48 68 101
q-1 -9 -4.5 -24t-16.5 -54.5t-30.5 -71.5t-49.5 -62t-70 -39q-42 -9 -76 9q-58 31 -55 119q2 34 8 60q11 43 30 90q21 49 43 87q24 40 51 72q25 29 56.5 41.5t57.5 7t45 -26t19.5 -57t-18.5 -84.5q-24 -55 -53 -84t-56 -31q-23 -2 -34.5 13t-0.5 38q6 -11 23 -6
q30 9 57 73.5t8 73.5q-4 2 -15.5 -7.5t-31 -38t-40.5 -69.5q-37 -72 -49 -132zM2737 608q25 -22 24.5 -74.5t-20 -109t-56.5 -108.5t-79 -74q-25 -13 -52.5 -13.5t-43.5 16.5t-5 51q16 -29 49 -9.5t60 70.5q45 85 53 154q5 40 -13 36q-19 -5 -56 -56q-31 -42 -64 -110
q-95 -198 -143 -381q-13 -48 -44 -53q-27 -4 -39 28q-13 32 3 80q24 74 72.5 211t66.5 191q7 19 22.5 65t23.5 68q4 12 10 30.5t10 28.5q10 30 34.5 34t39.5 -17t4 -53q-5 -14 -10 -30q25 29 55 40.5t55 6.5t43 -22zM1451 613q-22 0 -37.5 15.5t-15.5 37.5t15.5 37.5
t37.5 15.5t37.5 -15.5t15.5 -37.5t-15.5 -37.5t-37.5 -15.5zM1815 1221l-2 -50l-33 2l6 132l104 -5l-1 -29l-71 3l-1 -23l64 -4l-1 -29zM2011 1150q-29 5 -46.5 27.5t-13.5 50.5t28 45t53 12t46.5 -28t13.5 -51t-28 -44.5t-53 -11.5zM2027 1255q-15 2 -27.5 -7t-14.5 -25
t7 -29t24 -15t27.5 7.5t14.5 25.5t-7 28.5t-24 14.5zM2360 1070l33 97l-38 13l10 28l107 -36l-10 -28l-37 13l-34 -98zM2193 1198l-17 -77l-33 8l29 129l33 -8l39 -89l17 77l32 -8l-29 -129l-32 8zM1572 1170q-29 -2 -51 17t-23 47t18.5 49t48.5 23t51.5 -17t23.5 -47
q2 -28 -18.5 -49.5t-49.5 -22.5zM1567 1277q-15 -1 -25.5 -13t-9.5 -28t12.5 -27t26.5 -10t25.5 13t9.5 28t-12.5 27t-26.5 10zM1330 1146l-32 -5l-20 131l32 5l48 -62l28 74l32 5l20 -131l-32 -5l-12 76l-27 -74l-48 62zM1000 1064l-46 -16l-43 126l46 15q32 11 59 1
t36 -38t-5.5 -52.5t-46.5 -35.5zM971 1163l-19 -7l24 -69l19 7q16 5 23 18.5t2 28.5t-19 21t-30 1zM1235 1129l-101 -23l-29 129l101 23l7 -29l-70 -16l5 -20l63 15l6 -29l-63 -14l5 -23l70 16zM864 1070q-106 -44 -201 -96l-19 29q85 49 208 99zM2733 1003l-19 -29
q-94 52 -201 96l13 32q119 -49 207 -99z" />
    <glyph glyph-name="verticalbar" unicode="|" 
d="M2343 649q23 40 51 45t43 -21t5 -66q-118 -476 -279 -673q-3 -5 -10 -12l-9 -9q-26 -27 -57 -38.5t-56 -6t-42 21.5t-16 48t23 70q4 6 14.5 21.5t18 27.5t13.5 25.5t3 22t-15 11.5q-41 8 -164.5 -6t-260.5 -49q-36 -9 -143 -41q-98 -30 -155 -46t-169 -44.5t-184 -37
t-169.5 -17t-158.5 10t-117.5 49.5t-80 95t-15.5 154q17 -40 47.5 -70.5t73 -49t92.5 -29t112.5 -13t126.5 1t140 12.5q-26 19 -46.5 44.5t-27.5 47.5q-15 42 3 217q3 27 31 205.5t26 261.5q-1 47 -25 65t-56 6.5t-58 -42.5q-34 -41 -66 -121q-19 -46 -34 -101
q60 -23 89.5 -77.5t17.5 -112.5q-10 -47 -41.5 -72.5t-67 -26t-69.5 22t-49 63.5q-14 41 1 133q-27 -5 -169.5 -56t-215.5 -53q-69 -2 -115.5 41.5t-50.5 137.5q38 -48 118.5 -56t157 9t167.5 39t128 23l9 30q28 83 72 154t100 117q26 21 58.5 34t69.5 13t63 -20
q49 -37 57 -131q6 -70 -1.5 -151t-24.5 -188t-22 -153q-1 -8 -2.5 -21.5t-3 -35t-1.5 -42t1 -38.5t5.5 -28.5t12.5 -9.5q4 1 8.5 6.5t10 18t10 24t13 35t14.5 39.5q25 63 74 204.5t92.5 247.5t94.5 193q85 143 187 148q62 4 99 -41q30 -37 14 -72q-41 41 -101.5 -6.5
t-121.5 -136.5q34 -20 85.5 -23t106 7.5t124 30.5t131 41.5t136 44t130.5 35.5q46 10 93 14t97 -3.5t85 -27t50.5 -62t0.5 -103.5q-17 111 -386 44q31 -19 31 -50.5t-21 -81.5q-52 -126 -154 -414q-24 -68 -65 -76q-31 -7 -44 26q-3 6 -4 13q-37 -48 -79 -57.5t-67 23
t-16 93.5q4 33 12 71q7 34 15 64q6 24 11 38q-20 -20 -46 -60q-17 -26 -51 -84q-38 -68 -47 -87q-27 -58 -68 -71q-35 -11 -45 20q-6 19 1 47q1 2 4.5 18.5t5.5 25.5q-32 -48 -52 -68q-55 -54 -94 -16t-22 128q9 50 20 87q9 31 29 91q1 2 5 13t6 17q17 52 52 56q28 3 41 -26
q11 -25 -2 -56q-39 -91 -53 -143q-32 -113 1 -85q37 32 122 191l7 14q1 3 3 9.5t3 10.5q21 60 38 96q14 30 41 33t43 -20t2 -56q-4 -10 -14 -30q-3 -6 -10.5 -23.5t-11.5 -26.5q-3 -7 -9.5 -20.5t-9.5 -19.5q-7 -16 -9 -23q16 29 36 57q23 33 38 52q26 32 39 45
q39 39 73.5 39t44.5 -35t-10 -98q-17 -44 -26 -76q-42 -133 -23 -135q16 -1 79 90q18 26 37 58q6 17 149 400q-82 -16 -295 -65q-126 -29 -183 -23q-98 8 -116 95q-39 -60 -60 -103q-43 -88 -84 -186q-35 -83 -91 -236.5t-83 -220.5q-3 -8 -9 -22q107 16 469 84
q236 45 390 45t151 -60q-1 -14 -22.5 -55t-39 -74.5t-10.5 -35.5q10 -4 58 62q64 89 105 181.5t84 223.5q10 31 10 33q-10 -20 -36 -62q-63 -96 -101 -128q-37 -32 -67 -29q-33 4 -45.5 44.5t5.5 104.5q25 80 25 81q18 49 33 80q8 16 24 44q18 29 46 29t39 -22t-3 -51
q-6 -10 -21 -40q-23 -47 -33 -73q-37 -94 -18 -88q18 6 66 83q21 34 45 75q4 6 45 80q8 14 19.5 37t16.5 31zM795 404q21 15 26 47t-15.5 64t-67.5 40q-28 -98 9 -141q24 -25 48 -10zM2845 337q-13 -66 30 -63q44 3 104 65q47 48 68 101q-1 -9 -4.5 -24t-16.5 -54.5
t-30.5 -71.5t-49.5 -62t-70 -39q-42 -9 -76 9q-58 31 -55 119q2 34 8 60q12 49 29 90q18 44 44 87q24 40 51 72q32 36 71.5 46.5t67 -7t37.5 -56.5t-17 -102q-24 -55 -52.5 -84t-55.5 -31q-23 -2 -34.5 13t-0.5 38q6 -11 23 -6q30 9 57 73.5t8 73.5q-4 2 -15.5 -7.5t-31 -38
t-40.5 -69.5q-37 -72 -49 -132zM2737 608q25 -22 24.5 -74.5t-20 -109t-56.5 -108.5t-79 -74q-25 -13 -52.5 -13.5t-43.5 16.5t-5 51q16 -29 49 -9.5t60 70.5q45 85 53 154q5 40 -13 36q-19 -5 -56 -56q-31 -42 -64 -110q-95 -198 -143 -381q-12 -48 -43 -53q-28 -4 -41 28
t3 80q24 73 72.5 209t67.5 193q7 19 22.5 65t23.5 68q4 12 10 30.5t10 28.5q10 30 34.5 34t39.5 -17t4 -53q-5 -14 -10 -30q25 29 55 40.5t55 6.5t43 -22zM1451 613q-22 0 -37.5 15.5t-15.5 37.5t15.5 37.5t37.5 15.5t37.5 -15.5t15.5 -37.5t-15.5 -37.5t-37.5 -15.5z
M1815 1221l-2 -50l-33 2l6 132l104 -5l-1 -29l-71 3l-1 -23l64 -4l-1 -29zM2193 1198l-18 -77l-32 8l29 129l33 -8l39 -89l17 77l32 -8l-29 -129l-32 8zM2011 1150q-29 5 -46.5 27.5t-13.5 50.5t28 45t53 12t46.5 -28t13.5 -51t-28 -44.5t-53 -11.5zM2027 1255
q-15 2 -27.5 -7t-14.5 -25t7 -29t24 -15t27.5 7.5t14.5 25.5t-7 28.5t-24 14.5zM1000 1064l-46 -16l-43 126l46 15q32 11 59 1t36 -38t-5.5 -52.5t-46.5 -35.5zM971 1163l-19 -7l23 -69l20 7q16 5 23 18.5t2 28.5t-19 21t-30 1zM2360 1070l33 97l-38 13l10 28l107 -36
l-10 -28l-38 13l-33 -98zM1235 1129l-101 -23l-29 129l101 23l7 -29l-70 -16l5 -20l63 15l6 -29l-63 -14l5 -23l70 16zM1330 1146l-32 -5l-20 131l32 5l48 -62l28 74l32 5l20 -131l-32 -5l-12 76l-27 -74l-48 62zM1572 1170q-29 -2 -51 17t-23 47t18.5 49t48.5 23t51.5 -17
t23.5 -47q2 -28 -18.5 -49.5t-49.5 -22.5zM1567 1277q-15 -1 -25.5 -13t-9.5 -28t12.5 -27t26.5 -10t25.5 13t9.5 28t-12.5 27t-26.5 10zM864 1070q-106 -44 -201 -96l-19 29q85 49 208 99zM2733 1003l-19 -29q-94 52 -201 96l13 32q119 -49 207 -99z" />
    <glyph glyph-name="braceright" unicode="}" 
d="M2343 649q23 40 51 45t43 -21t5 -66q-118 -478 -278 -673q-3 -4 -10.5 -11t-9.5 -10q-26 -27 -57 -38.5t-56 -6t-42 21.5t-16 48t23 70q4 6 14.5 21.5t18 27.5t13.5 25.5t3 22t-15 11.5q-41 8 -164.5 -6t-260.5 -49q-36 -9 -143 -41q-98 -30 -155 -46t-169 -44.5
t-184 -37t-169.5 -17t-158.5 10t-117.5 49.5t-80 95t-15.5 154q17 -40 47.5 -70.5t73 -49t92.5 -29t112.5 -13t126.5 1t140 12.5q-26 19 -46.5 44.5t-27.5 47.5q-15 42 3 217q3 27 31 205.5t26 261.5q-1 47 -25 65t-56 6.5t-58 -42.5q-34 -41 -66 -121q-19 -46 -34 -101
q60 -23 89.5 -77.5t17.5 -112.5q-10 -47 -41.5 -72.5t-67 -26t-69.5 22t-49 63.5q-14 41 1 133q-27 -5 -169.5 -56t-215.5 -53q-69 -2 -115.5 41.5t-50.5 137.5q38 -48 118.5 -56t157 9t167.5 39t128 23l9 30q28 83 72 154t100 117q26 21 58.5 34t69.5 13t63 -20
q49 -37 57 -131q6 -70 -1.5 -151t-24.5 -188t-22 -153q-1 -8 -2.5 -21.5t-3 -35t-1.5 -42t1 -38.5t5.5 -28.5t12.5 -9.5q4 1 8.5 6.5t10 18t10 24t13 35t14.5 39.5q25 63 74 204.5t92.5 247.5t94.5 193q85 143 187 148q62 4 99 -41q30 -37 14 -72q-41 41 -101.5 -6.5
t-121.5 -136.5q34 -20 85.5 -23t106 7.5t124 30.5t131 41.5t136 44t130.5 35.5q46 10 93 14t96.5 -3.5t84.5 -27t50.5 -62t0.5 -103.5q-17 110 -385 44q31 -19 31 -50.5t-21 -81.5q-52 -126 -154 -414q-24 -68 -65 -76q-31 -7 -44 26q-3 6 -4 13q-37 -48 -79 -57.5t-67 23
t-16 93.5q4 33 12 71q7 34 15 64q6 24 11 38q-20 -20 -46 -60q-17 -26 -51 -84q-38 -68 -47 -87q-27 -58 -68 -71q-35 -11 -45 20q-6 19 1 47q1 2 4.5 18.5t5.5 25.5q-32 -48 -52 -68q-55 -54 -94 -16t-22 128q9 50 20 87q9 31 29 91q1 2 5 13t6 17q17 52 52 56q28 3 41 -26
q11 -25 -2 -56q-39 -91 -53 -143q-32 -113 1 -85q37 32 122 191l7 14q1 3 3 9.5t3 10.5q21 60 38 96q14 30 41 33t43 -20t2 -56q-4 -10 -14 -30q-3 -6 -10.5 -23.5t-11.5 -26.5q-3 -7 -9.5 -20.5t-9.5 -19.5q-7 -16 -9 -23q16 29 36 57q23 33 38 52q26 32 39 45
q39 39 73.5 39t44.5 -35t-10 -98q-17 -44 -26 -76q-42 -133 -23 -135q16 -1 79 90q18 26 37 58q6 17 149 400q-82 -16 -295 -65q-126 -29 -183 -23q-98 8 -116 95q-39 -60 -60 -103q-43 -88 -84 -186q-35 -83 -91 -236.5t-83 -220.5q-2 -5 -5.5 -12.5t-4.5 -9.5
q111 16 470 84q236 45 390 45t151 -60q-1 -14 -22.5 -55t-39 -74.5t-10.5 -35.5q10 -4 58 62q64 89 105 181.5t84 223.5q10 31 10 33q-10 -20 -36 -62q-19 -29 -31.5 -47t-38 -50t-51 -47.5t-47.5 -12.5q-33 4 -45.5 44.5t5.5 104.5q25 80 25 81q18 49 33 80q8 16 24 44
q18 29 46 29t39 -22t-3 -51q-6 -10 -21 -40q-23 -47 -33 -73q-37 -94 -18 -88q18 6 66 83q21 34 45 75q4 6 45 80q8 14 19.5 37t16.5 31zM795 404q21 15 26 47t-15.5 64t-67.5 40q-28 -98 9 -141q24 -25 48 -10zM2845 337q-13 -65 29 -63q43 3 103 64q48 49 69 102
q-1 -9 -4 -24t-16.5 -54.5t-30.5 -71.5t-49 -62t-70 -39q-42 -9 -76 9q-58 31 -55 119q2 34 8 60q11 43 30 90q21 49 43 87q24 40 51 72q25 29 56.5 41.5t57.5 7t45 -26t19.5 -57t-18.5 -84.5q-24 -55 -53 -84t-56 -31q-23 -2 -34.5 13t-0.5 38q6 -11 23 -6q30 9 57 73.5
t8 73.5q-4 2 -15.5 -7.5t-31 -38t-40.5 -69.5q-37 -72 -49 -132zM2737 608q25 -22 24.5 -74.5t-20 -109t-56.5 -108.5t-79 -74q-25 -13 -52.5 -13.5t-44 16.5t-5.5 51q16 -29 49.5 -9.5t60.5 70.5q45 85 53 154q5 40 -13 36q-19 -5 -56 -56q-31 -42 -64 -110
q-95 -198 -143 -381q-13 -48 -44 -53q-27 -4 -39 28q-13 32 3 80q24 74 72.5 211t66.5 191q7 19 22.5 65t23.5 68q4 12 10 30.5t10 28.5q10 30 34.5 34t39.5 -17t4 -53q-5 -14 -10 -30q25 29 55 40.5t55 6.5t43 -22zM1451 613q-22 0 -37.5 15.5t-15.5 37.5t15.5 37.5
t37.5 15.5t37.5 -15.5t15.5 -37.5t-15.5 -37.5t-37.5 -15.5zM2011 1150q-29 5 -46.5 27.5t-13.5 50.5t28 45t53 12t46.5 -28t13.5 -51t-28 -44.5t-53 -11.5zM2027 1255q-15 2 -27.5 -7t-14.5 -25t7 -29t24 -15t27.5 7.5t14.5 25.5t-7 28.5t-24 14.5zM2360 1070l33 97l-38 13
l10 28l107 -36l-10 -28l-37 13l-34 -98zM2193 1198l-17 -77l-33 8l29 129l33 -8l39 -89l17 77l32 -8l-29 -129l-32 8zM1815 1221l-2 -50l-33 2l6 132l104 -5l-1 -29l-71 3l-1 -23l64 -4l-1 -29zM1000 1064l-46 -16l-43 126l46 15q32 11 59 1t36 -38t-5.5 -52.5t-46.5 -35.5z
M971 1163l-19 -7l23 -69l20 7q16 5 23 18.5t2 28.5t-19 21t-30 1zM1235 1129l-101 -23l-29 129l101 23l7 -29l-70 -16l5 -20l63 15l6 -29l-63 -14l5 -23l70 16zM1330 1146l-32 -5l-20 131l32 5l48 -62l28 74l32 5l20 -131l-32 -5l-12 76l-27 -74l-48 62zM1572 1170
q-29 -2 -51 17t-23 47t18.5 49t48.5 23t51.5 -17t23.5 -47q2 -28 -18.5 -49.5t-49.5 -22.5zM1567 1277q-15 -1 -25.5 -13t-9.5 -28t12.5 -27t26.5 -10t25.5 13t9.5 28t-12.5 27t-26.5 10zM864 1070q-106 -44 -201 -96l-19 29q85 49 208 99zM2733 1003l-19 -29
q-94 52 -201 96l13 32q119 -49 207 -99z" />
    <glyph glyph-name="asciitilde" unicode="~" 
d="M2343 649q23 40 51 45t43 -21t5 -66q-118 -476 -279 -673q-3 -5 -10 -12l-9 -9q-26 -27 -57 -38.5t-56 -6t-42 21.5t-16 48t23 70q4 6 14.5 21.5t18 27.5t13.5 25.5t3 22t-15 11.5q-41 8 -164.5 -6t-260.5 -49q-36 -9 -142 -41q-99 -30 -156 -46t-169 -44.5t-184 -37
t-170 -17t-158.5 10t-117.5 49.5t-80.5 95t-15.5 154q25 -60 80 -97.5t135.5 -51.5t171 -13.5t206.5 14.5q-60 44 -75 92q-14 40 4 217q3 27 31 205.5t26 261.5q-1 47 -25 65t-56 6.5t-58 -42.5q-34 -41 -66 -121q-19 -46 -34 -101q60 -23 89.5 -77.5t17.5 -112.5
q-10 -47 -41.5 -72.5t-67 -26t-69.5 22t-49 63.5q-14 41 1 134q-27 -5 -169.5 -56.5t-215.5 -53.5q-69 -2 -115.5 41.5t-50.5 137.5q38 -48 118.5 -56t157 9t167.5 39t128 23q2 5 5 15t5 15q29 86 71 154q44 71 100 117q26 21 58.5 34t69.5 13t63 -20q49 -37 57 -131
q6 -70 -1.5 -151t-24.5 -188t-22 -153q-1 -8 -2.5 -21.5t-3 -35t-1.5 -42t1 -38.5t5.5 -28.5t12.5 -9.5q3 1 6 4t7 9.5t7 13t7.5 18.5t8.5 22t10 26.5t11 29.5q25 64 73.5 205t92 247t94.5 193q85 143 187 148q62 4 99 -41q30 -37 14 -72q-41 41 -101.5 -6.5t-121.5 -136.5
q34 -20 85.5 -23t106 7.5t124 30.5t131 41.5t136 44t130.5 35.5q46 10 93 14t97 -3.5t85 -27t50.5 -62t0.5 -103.5q-17 111 -386 44q31 -19 31 -50.5t-21 -81.5q-52 -126 -154 -414q-24 -68 -65 -76q-31 -7 -44 26q-3 6 -4 13q-37 -48 -79 -57.5t-67 23t-16 93.5q4 33 12 71
q7 34 15 64q6 24 11 38q-20 -20 -46 -60q-17 -26 -51 -84q-38 -68 -47 -87q-27 -58 -68 -71q-35 -11 -45 20q-6 19 1 47q1 6 3 13t4.5 16.5t3.5 14.5q-30 -45 -53 -68q-55 -54 -94 -16t-22 128q9 50 20 87q9 31 29 91q1 2 5 13t6 17q17 52 52 56q28 3 41 -26q11 -25 -2 -56
q-39 -91 -53 -143q-32 -113 1 -85q37 32 122 191l7 14q1 3 3.5 9.5t3.5 10.5q21 60 38 96q14 30 40.5 33t42.5 -20t2 -56q-4 -10 -14 -30q-3 -6 -10.5 -23.5t-11.5 -26.5q-3 -7 -9.5 -20.5t-9.5 -19.5q-7 -16 -9 -23q16 29 36 57q23 33 38 52q26 32 39 45q39 39 73.5 39
t44.5 -35t-10 -98q-17 -44 -26 -76q-42 -135 -22 -135q17 1 79 90q14 19 36 58q6 17 149 400q-82 -16 -295 -65q-126 -29 -183 -23q-98 8 -116 95q-39 -60 -60 -103q-43 -88 -84 -186q-35 -83 -91 -236.5t-83 -220.5q-3 -8 -9 -22q111 16 470 84q236 45 389.5 45t150.5 -60
q-1 -14 -22.5 -55t-39 -74.5t-10.5 -35.5q10 -4 58 62q64 89 105 181.5t84 223.5q10 31 10 33q-10 -20 -36 -62q-63 -96 -101 -128q-37 -32 -67 -29q-33 4 -45.5 44.5t5.5 104.5q25 80 25 81q18 49 33 80q8 16 24 44q18 29 46 29t39 -22t-3 -51q-6 -10 -21 -40
q-17 -35 -32 -73q-38 -96 -18 -88q18 8 65 83q21 34 45 75q4 6 45 80q8 14 19.5 37t16.5 31zM795 404q21 15 26 47t-15.5 64t-67.5 40q-28 -98 9 -141q24 -25 48 -10zM2845 337q-13 -66 30 -63q44 3 104 65q47 48 68 101q-1 -9 -4.5 -24t-16.5 -54.5t-30.5 -71.5t-49.5 -62
t-70 -39q-42 -9 -76 9q-58 31 -55 119q2 34 8 60q11 43 30 90q21 49 43 87q22 37 52 72q32 36 71.5 46.5t67 -7t37.5 -56.5t-17 -102q-24 -55 -53 -84t-56 -31q-23 -2 -34.5 13t-0.5 38q6 -11 23 -6q30 9 57 73.5t8 73.5q-4 2 -15.5 -7.5t-31 -38t-40.5 -69.5
q-37 -72 -49 -132zM2737 608q25 -22 24.5 -74.5t-20 -109t-56.5 -108.5t-79 -74q-25 -13 -52.5 -13.5t-43.5 16.5t-5 51q16 -29 49 -9.5t60 70.5q45 85 53 154q5 40 -13 36q-19 -5 -56 -56q-31 -42 -64 -110q-93 -194 -142 -381q-12 -48 -43 -53q-28 -4 -41 28t3 80
q24 74 72.5 211t66.5 191q7 19 22.5 65t23.5 68q4 12 10 30.5t10 28.5q10 30 34.5 34t39.5 -17t4 -53q-2 -5 -9 -30q25 29 54.5 40.5t54.5 6.5t43 -22zM1451 613q-22 0 -37.5 15.5t-15.5 37.5t15.5 37.5t37.5 15.5t37.5 -15.5t15.5 -37.5t-15.5 -37.5t-37.5 -15.5z
M2011 1150q-29 5 -46.5 27.5t-13.5 50.5t28 45t53 12t46.5 -28t13.5 -51t-28 -44.5t-53 -11.5zM2027 1255q-15 2 -27.5 -7t-14.5 -25t7 -29t24 -15t27.5 7.5t14.5 25.5t-7 28.5t-24 14.5zM2193 1198l-17 -77l-33 8l30 129l32 -8l39 -89l17 77l32 -8l-29 -129l-32 8z
M1815 1221l-2 -50l-33 2l6 132l105 -5l-2 -29l-71 3l-1 -23l64 -4l-1 -29zM2360 1070l33 97l-38 13l10 28l107 -36l-9 -28l-38 13l-34 -98zM1572 1170q-29 -2 -51 17t-23 47t18.5 49t48.5 23t51.5 -17t23.5 -47q2 -28 -18.5 -49.5t-49.5 -22.5zM1567 1277q-15 -1 -25.5 -13
t-9.5 -28t12.5 -27t26.5 -10t25.5 13t9.5 28t-12.5 27t-26.5 10zM1000 1064l-46 -16l-43 126l46 15q32 11 59 1t36 -38t-5.5 -52.5t-46.5 -35.5zM971 1163l-19 -7l24 -69l19 7q16 5 23 18.5t2 28.5t-19 21t-30 1zM1330 1146l-32 -5l-20 131l32 5l48 -62l28 74l32 5l20 -131
l-32 -5l-12 76l-27 -74l-48 62zM1235 1129l-101 -23l-29 129l101 23l7 -29l-70 -16l5 -20l63 15l6 -29l-63 -14l5 -23l70 16zM864 1070q-106 -44 -201 -96l-18 29q88 50 207 99zM2733 1003l-19 -29q-97 54 -200 96l12 32q119 -49 207 -99z" />
    <glyph glyph-name="nonbreakingspace" unicode="&#xa0;" horiz-adv-x="528" 
 />
    </font>
</defs>
</svg>
