<?xml version="1.0" standalone="no"?>
<!DOCTYPE svg PUBLIC "-//W3C//DTD SVG 1.1//EN" "http://www.w3.org/Graphics/SVG/1.1/DTD/svg11.dtd" >
<svg xmlns="http://www.w3.org/2000/svg" xmlns:xlink="http://www.w3.org/1999/xlink" version="1.1">
<metadata>
Created by FontForge 20170731 at Tue Apr  5 16:12:40 2022
 By Aleksey,,,
Copyright (c) 1991, 1992, 1994 Adobe Systems Incorporated.  All Rights Reserved.Minion is a trademark of Adobe Systems Incorporated which may be registered in certain jurisdictions.
</metadata>
<defs>
<font id="Minion-Condensed" horiz-adv-x="874" >
  <font-face 
    font-family="Minion Condensed"
    font-weight="400"
    font-stretch="condensed"
    units-per-em="2048"
    panose-1="2 2 5 6 0 0 0 0 0 0"
    ascent="1536"
    descent="-512"
    x-height="895"
    cap-height="1309"
    bbox="-49 -512 1958 1708"
    underline-thickness="102"
    underline-position="-307"
    unicode-range="U+0020-FB02"
  />
<missing-glyph horiz-adv-x="380" 
 />
    <glyph glyph-name=".notdef" horiz-adv-x="380" 
 />
    <glyph glyph-name=".null" horiz-adv-x="0" 
 />
    <glyph glyph-name="nonmarkingreturn" horiz-adv-x="682" 
 />
    <glyph glyph-name="space" unicode=" " horiz-adv-x="380" 
 />
    <glyph glyph-name="space" unicode="&#xa0;" horiz-adv-x="380" 
 />
    <glyph glyph-name="exclam" unicode="!" horiz-adv-x="483" 
d="M242 -25h-2q-47 0 -79 33.5t-32 87.5q0 51 32.5 85t80.5 34q47 0 79.5 -34t32.5 -85q0 -54 -32 -87.5t-80 -33.5zM238 1333h2q52 0 74 -12.5t22 -44.5q0 -61 -10 -156q-33 -311 -58 -727q-6 -9 -29.5 -9t-29.5 9q-28 479 -55 727q-13 124 -13 156q0 31 23 44t74 13z" />
    <glyph glyph-name="quotedbl" unicode="&#x22;" horiz-adv-x="647" 
d="M172 1434h2q86 0 86 -50q0 -32 -10 -86l-51 -385q-8 -9 -27.5 -9t-26.5 9l-51 383q-10 75 -10 88q0 50 88 50zM477 1434h2q86 0 86 -50q0 -14 -10 -86l-51 -385q-8 -9 -27 -9t-26 9l-52 383q-10 75 -10 88q0 50 88 50z" />
    <glyph glyph-name="numbersign" unicode="#" horiz-adv-x="880" 
d="M584 813h-207l-55 -307h204zM842 813h-185l-57 -307h176l-18 -119h-180l-72 -387h-74l72 387h-207l-72 -387h-73l69 387h-196l16 119h205l57 307h-192l14 119h201l61 344h76l-64 -344h205l64 344h73l-63 -344h182z" />
    <glyph glyph-name="dollar" unicode="$" 
d="M483 563v-500q90 19 136.5 77t46.5 147q0 87 -35 152.5t-125 111.5zM418 770v447q-89 -13 -135.5 -75t-46.5 -141q0 -147 182 -231zM483 1217v-478l64 -30q254 -112 254 -344q0 -146 -86.5 -243t-231.5 -116v-174h-65v168q-170 0 -291 80q-18 68 -53 260l49 12
q103 -267 295 -293v533l-76 37q-225 112 -225 309q0 125 79 219.5t222 112.5v157h65v-151q85 0 172 -27q37 -10 56 -12q31 -191 39 -246l-48 -10q-13 35 -18.5 48.5t-20.5 46.5t-29 49.5t-36.5 39t-51 34.5t-63.5 18z" />
    <glyph glyph-name="percent" unicode="%" horiz-adv-x="1466" 
d="M1110 768h2q70 0 125 -38t87 -98t48.5 -126.5t16.5 -132.5q0 -65 -16.5 -132t-48.5 -128t-88 -99.5t-126 -38.5q-57 0 -105 25.5t-80 67t-54 94.5t-32 106.5t-10 104.5q0 66 16.5 132.5t48.5 126.5t88.5 98t127.5 38zM1112 715h-2q-43 0 -72.5 -35.5t-43 -94t-18.5 -109
t-5 -103.5q0 -41 2.5 -80.5t11.5 -89.5t24 -86.5t41.5 -62t61.5 -25.5q36 0 62.5 26t40.5 62.5t22.5 87t11 89t2.5 79.5q0 53 -4.5 102t-17.5 108.5t-43 95.5t-74 36zM356 1300h2q70 0 126 -38t88 -98.5t48.5 -127.5t16.5 -133q0 -51 -10 -104t-32 -105.5t-54 -93.5
t-80 -66.5t-105 -25.5t-105 25.5t-79 66.5t-53 93.5t-31.5 105.5t-9.5 104q0 52 9.5 105t31.5 106t53 94t79 66.5t105 25.5zM360 1247h-2q-43 0 -72.5 -36t-43 -94.5t-18.5 -109.5t-5 -104q0 -41 2.5 -80.5t11.5 -89t24 -86t41.5 -61.5t61.5 -25q44 0 74 36t43 95t18 108.5
t5 102.5t-5 102.5t-18 109t-43 96t-74 36.5zM1118 1292l-731 -1374l-59 39l729 1370z" />
    <glyph glyph-name="ampersand" unicode="&#x26;" horiz-adv-x="1243" 
d="M487 100h2q160 0 295 226q-138 186 -356 366q-101 -73 -145.5 -147.5t-44.5 -159.5q0 -139 75.5 -212t173.5 -73zM852 844h408v-43q-60 -7 -97.5 -24.5t-57.5 -40.5t-52 -74q-22 -34 -148 -244q73 -90 160 -220t125 -214l-14 -21q-60 9 -123.5 36.5t-79.5 47.5
q-6 8 -59.5 94t-90.5 135q-105 -161 -198 -231t-195 -70q-82 0 -148.5 32t-107 83t-62 112.5t-20.5 123.5q1 56 18.5 106t41 87t67 77.5t78 66.5t92.5 66q-163 126 -160 277q1 86 42.5 158.5t108 113.5t140.5 41q114 0 191.5 -78.5t74.5 -198.5q0 -50 -24.5 -97.5
t-54.5 -70.5q-20 -17 -144 -106q171 -141 301 -301q42 63 90 188q32 83 13.5 108.5t-115.5 37.5v43zM496 1255h-2q-58 0 -99 -52t-41 -142q0 -73 42 -135.5t126 -124.5q124 88 127 246q2 83 -38.5 145.5t-114.5 62.5z" />
    <glyph glyph-name="quotesingle" unicode="'" horiz-adv-x="344" 
d="M172 1434h2q86 0 86 -50q0 -32 -10 -86l-51 -385q-8 -9 -27.5 -9t-26.5 9l-51 383q-10 75 -10 88q0 50 88 50z" />
    <glyph glyph-name="parenleft" unicode="(" horiz-adv-x="667" 
d="M131 547v2q0 280 96 513t295 384l33 -39q-132 -121 -207.5 -355.5t-75.5 -504.5t75.5 -505t207.5 -357l-33 -37q-199 151 -295 384t-96 515z" />
    <glyph glyph-name="parenright" unicode=")" horiz-adv-x="667" 
d="M539 547v-2q0 -280 -96.5 -513t-295.5 -384l-32 37q132 122 207 357t75 505t-75 504.5t-207 355.5l32 39q199 -151 295.5 -384.5t96.5 -514.5z" />
    <glyph glyph-name="asterisk" unicode="*" horiz-adv-x="860" 
d="M547 1321l-60 -305l285 2l2 -49l-282 -56l81 -301l-43 -18l-147 280l-258 -161l-27 43l219 198l-227 228l31 39l256 -181l125 293z" />
    <glyph glyph-name="plus" unicode="+" horiz-adv-x="1267" 
d="M102 614h473v469h117v-469h471v-96h-471v-518h-117v518h-473v96z" />
    <glyph glyph-name="comma" unicode="," horiz-adv-x="448" 
d="M182 274h2q62 0 118 -62.5t56 -160.5q0 -109 -74 -183.5t-180 -109.5l-18 52q147 58 147 184q0 58 -32.5 97t-85.5 50q-23 11 -23 47q0 37 27 61.5t63 24.5z" />
    <glyph glyph-name="hyphen" unicode="-" horiz-adv-x="649" 
d="M104 522h441v-112h-441v112z" />
    <glyph glyph-name="hyphen" unicode="&#xad;" horiz-adv-x="649" 
d="M104 522h441v-112h-441v112z" />
    <glyph glyph-name="period" unicode="." horiz-adv-x="448" 
d="M223 -25h-2q-44 0 -74 32t-30 83q0 49 30.5 82t75.5 33q46 0 77.5 -33t31.5 -82q0 -52 -31 -83.5t-78 -31.5z" />
    <glyph glyph-name="slash" unicode="/" horiz-adv-x="579" 
d="M35 -92l381 1425h116l-380 -1425h-117z" />
    <glyph glyph-name="zero" unicode="0" 
d="M436 1241h-2q-61 0 -104.5 -52.5t-65.5 -143.5t-31.5 -190t-9.5 -216t9.5 -216t32 -191t66 -144.5t105.5 -52.5q50 0 89 36t62 93.5t38 139t20.5 161.5t5.5 172q0 118 -9.5 217t-32 190.5t-67 144t-106.5 52.5zM434 1300h2q100 0 176 -60.5t117.5 -160t61.5 -210.5
t20 -230q0 -94 -11.5 -184t-40 -178.5t-70.5 -154.5t-107.5 -106.5t-147.5 -40.5t-147.5 40.5t-107 106.5t-69.5 154t-39.5 177.5t-11.5 183.5t11.5 184t39.5 178t69.5 154t107 106.5t147.5 40.5z" />
    <glyph glyph-name="one" unicode="1" 
d="M381 211v827q0 71 -14 88.5t-76 20.5l-80 4v43q180 41 311 106v-1089q0 -38 1 -58.5t7.5 -41t15.5 -29.5t30 -18t47 -13t69 -8v-43h-481v43q43 4 68.5 8t46.5 13t30.5 18t16 29.5t7.5 41t1 58.5z" />
    <glyph glyph-name="two" unicode="2" 
d="M743 0h-686v35q192 217 293 350q234 309 234 516q0 129 -57 203t-160 74q-142 0 -242 -177l-43 35l100 148q42 52 107 84t141 32q126 0 214.5 -90.5t88.5 -244.5q0 -87 -32 -172.5t-81 -159.5t-139 -187l-250 -309h347q78 0 110 19t70 98l45 -12q-33 -103 -60 -242z" />
    <glyph glyph-name="three" unicode="3" 
d="M426 1300h2q125 0 197.5 -72t72.5 -184q0 -72 -53 -131q-34 -36 -139 -108v-4q122 -26 195 -117t73 -217q0 -98 -38.5 -182.5t-96.5 -139.5t-127 -95t-129 -57.5t-104 -17.5q-106 0 -183 68q-33 29 -16 68q12 35 43 57q30 22 55 0q29 -26 53 -43t68.5 -33t95.5 -16
q94 0 158.5 82.5t64.5 249.5q0 150 -71.5 221t-177.5 71q-55 0 -123 -28l-19 45q156 58 238 128.5t82 168.5q0 90 -47.5 137t-122.5 47q-125 0 -215 -149l-39 30l76 115q38 47 99 76.5t128 29.5z" />
    <glyph glyph-name="four" unicode="4" 
d="M653 1294v-837h176v-90h-176v-177q0 -48 3.5 -70.5t20.5 -40.5t46 -24t86 -12v-43h-473v43q66 6 98.5 12t51.5 24.5t22.5 40.5t3.5 70v177h-475v51q298 500 551 876h65zM512 457v608h-4q-243 -392 -358 -608h362z" />
    <glyph glyph-name="five" unicode="5" 
d="M217 1276h520l15 -19l-47 -118h-431l-43 -353q126 50 197 50q86 0 156.5 -31.5t113 -83.5t65.5 -115t23 -129q0 -206 -161 -354q-74 -68 -164.5 -107t-171.5 -41q-110 0 -185 66q-31 31 -18 68q17 40 45 59q30 22 57 -2q85 -90 207 -90q112 0 177 88t65 231
q0 153 -78 242.5t-227 89.5q-82 0 -178 -35z" />
    <glyph glyph-name="six" unicode="6" 
d="M774 1313l10 -53q-106 -22 -200 -72q-37 -19 -73 -45t-77 -67.5t-74.5 -90.5t-62 -117.5t-43.5 -146.5l121 61q61 33 112 33q141 0 234.5 -111.5t93.5 -273.5q0 -123 -47.5 -227t-134 -166t-193.5 -62q-162 0 -267 138t-105 372q0 130 30.5 245t78.5 196t112.5 147.5
t126 106.5t125.5 65q120 48 233 68zM420 709h-2q-96 0 -176 -54q-13 -61 -13 -180q0 -192 67 -316t173 -124q188 0 188 321q0 71 -14 133t-42 112t-74.5 79t-106.5 29z" />
    <glyph glyph-name="seven" unicode="7" 
d="M123 1276h688l14 -23q-78 -187 -158 -390t-185 -477t-150 -390l-152 -21l-14 23q306 568 541 1141h-398q-33 0 -51 -1t-36 -7t-26 -12.5t-18 -24.5t-16 -36t-17 -54h-51q12 87 29 272z" />
    <glyph glyph-name="eight" unicode="8" 
d="M430 1241h-2q-82 0 -125 -62.5t-43 -146.5q0 -56 18.5 -101.5t55.5 -80t72.5 -57.5t89.5 -50q116 87 116 261q0 112 -54 174.5t-128 62.5zM451 35h2q90 0 145 68t55 188q0 64 -21 117.5t-62 94.5t-85 71t-106 61q-152 -109 -152 -301q0 -138 64.5 -218.5t159.5 -80.5z
M449 1300h2q132 0 216.5 -85.5t84.5 -210.5q0 -86 -50 -154q-33 -43 -157 -135q58 -37 98 -68.5t78 -75.5t57 -98t19 -119q0 -89 -34.5 -163t-89 -120t-117.5 -71t-124 -25q-150 0 -251 92.5t-101 249.5q0 117 74 209q18 21 73 63t107 75q-209 130 -209 305
q0 132 91.5 231.5t232.5 99.5z" />
    <glyph glyph-name="nine" unicode="9" 
d="M444 1300h2q111 0 194.5 -70t125 -183.5t41.5 -251.5q0 -264 -120.5 -466t-319.5 -290q-66 -29 -137 -45.5t-111 -18.5l-4 50q200 40 336.5 188t183.5 383l-129 -70q-52 -32 -111 -32q-144 0 -235.5 105.5t-91.5 264.5q0 76 25 151.5t71 140t119 104.5t161 40zM416 1241
h-2q-52 0 -90.5 -28.5t-59 -75t-30 -95.5t-9.5 -100q0 -150 64.5 -247t177.5 -97q45 0 94.5 18.5t77.5 42.5q8 63 8 146q0 58 -5.5 113.5t-21.5 115.5t-41 104.5t-67 73.5t-96 29z" />
    <glyph glyph-name="colon" unicode=":" horiz-adv-x="448" 
d="M223 895h2q45 0 76 -32.5t31 -82.5t-31.5 -82t-77.5 -32q-45 0 -75.5 32t-30.5 82t30.5 82.5t75.5 32.5zM225 -25h-2q-44 0 -74 32t-30 83q0 49 30.5 82t75.5 33q46 0 77.5 -33t31.5 -82q0 -52 -31 -83.5t-78 -31.5z" />
    <glyph glyph-name="semicolon" unicode=";" horiz-adv-x="448" 
d="M184 272h2q62 0 118 -62.5t56 -160.5q0 -109 -74 -183.5t-180 -109.5l-18 51q148 58 148 185q0 58 -33.5 97t-87.5 50q-21 14 -21 47q0 37 27 61.5t63 24.5zM225 895h2q45 0 76 -32.5t31 -82.5t-31.5 -82t-77.5 -32q-45 0 -75.5 32t-30.5 82t30.5 82.5t75.5 32.5z" />
    <glyph glyph-name="less" unicode="&#x3c;" horiz-adv-x="1267" 
d="M123 516v96l1022 516v-106l-903 -455v-6l903 -455v-106z" />
    <glyph glyph-name="equal" unicode="=" horiz-adv-x="1267" 
d="M102 412h1061v-97h-1061v97zM102 817h1061v-96h-1061v96z" />
    <glyph glyph-name="greater" unicode="&#x3e;" horiz-adv-x="1267" 
d="M1145 612v-96l-1022 -516v106l903 455v6l-903 455v106z" />
    <glyph glyph-name="question" unicode="?" horiz-adv-x="616" 
d="M258 1333h2q106 0 194.5 -99t88.5 -220q0 -53 -18 -93t-64 -83q-10 -10 -50 -44.5t-67 -60.5t-51.5 -65.5t-24.5 -73.5q0 -49 20 -88t62 -84l-31 -39q-64 29 -129 104t-65 154q0 52 32.5 105t112.5 122q3 3 29.5 25t34.5 30t30.5 29t31.5 34.5t22.5 33.5t18.5 39.5
t5 38.5q0 53 -29 82.5t-79 29.5t-93 -21t-68 -42t-30 -21q-17 0 -44 26t-27 56t37 62q35 29 79 46t70 17zM287 -25h-2q-45 0 -76 32.5t-31 84.5q0 51 31.5 84t77.5 33t77 -33t31 -84q0 -52 -31 -84.5t-77 -32.5z" />
    <glyph glyph-name="at" unicode="@" horiz-adv-x="1355" 
d="M764 944h-2q-61 0 -111 -59q-40 -47 -76 -156.5t-36 -212.5q0 -48 8.5 -66t27.5 -18q28 0 101 69.5t131 172.5q28 75 57 252q-37 18 -100 18zM973 109l18 -48q-145 -90 -336 -90q-118 0 -220.5 38t-182.5 110t-126 188t-46 262q0 139 40 262.5t109 214t158.5 156
t190 98.5t202.5 33q118 0 215 -43t160 -115.5t97 -165.5t34 -196q0 -136 -54.5 -249.5t-155.5 -182t-228 -68.5q-45 0 -65 19t-17.5 48.5t8.5 65.5l31 142l-4 2q-46 -81 -157 -179t-163 -98q-34 0 -57 37.5t-23 114.5q0 92 36.5 203t111.5 196q128 144 295 152q15 0 47.5 -9
t38.5 -10q36 -8 63 -8q-42 -178 -90 -461q-15 -80 -10 -109.5t37 -29.5q50 2 98.5 32t88.5 83t64.5 135.5t24.5 179.5q0 201 -118.5 317.5t-309.5 116.5q-163 0 -291 -84.5t-198 -234t-70 -338.5q0 -78 14 -151.5t50 -147.5t90 -128t141 -88t197 -34q149 0 262 62z" />
    <glyph glyph-name="A" unicode="A" horiz-adv-x="1161" 
d="M717 481h-348q-58 -192 -76 -276q-22 -94 -1 -123t122 -39v-43h-387v43q44 6 67.5 14t45.5 33.5t37 62t40 109.5l348 1053l47 18l115 -379q99 -326 219 -704q42 -127 75 -162.5t114 -44.5v-43h-430v43q88 10 108 33t2 86q-2 8 -20 67t-39.5 128t-38.5 124zM391 557h301
l-145 498h-4q-27 -91 -78 -256.5t-74 -241.5z" />
    <glyph glyph-name="B" unicode="B" horiz-adv-x="1050" 
d="M231 240v831q0 64 -4 96t-21 55t-45 30.5t-83 13.5v43h450q190 0 277 -68q47 -37 72.5 -94t25.5 -123t-24 -120t-63.5 -88t-77 -54.5t-76.5 -32.5v-4q137 -24 226 -110t89 -228q0 -198 -174 -307q-126 -80 -350 -80h-385v43q39 3 63 7t44 13.5t30 21.5t16.5 35t8 49.5
t1.5 70.5zM381 1186v-447h74q284 0 284 258q0 51 -12 93t-39.5 80t-79.5 59.5t-125 21.5q-59 0 -82 -10q-8 -6 -11 -10t-6 -15.5t-3 -29.5zM381 682v-449q0 -101 26.5 -138t102.5 -36q128 0 208.5 76t80.5 234q0 157 -93.5 235t-252.5 78h-72z" />
    <glyph glyph-name="C" unicode="C" horiz-adv-x="1042" 
d="M971 1008l-49 -4q-37 143 -103.5 205.5t-171.5 62.5q-94 0 -169 -49t-120.5 -133.5t-69.5 -190.5t-24 -227q0 -183 46 -327t130.5 -225t194.5 -81q57 0 103.5 20.5t84 61.5t66 87t61.5 114l49 -13q-41 -159 -88 -293q-39 -13 -119 -27t-147 -14q-115 0 -209.5 37.5
t-159 100.5t-108.5 148.5t-64 180t-20 195.5q0 155 45 285.5t125 220.5t192 140t244 50q121 0 252 -35q8 -74 17 -169.5t12 -120.5z" />
    <glyph glyph-name="D" unicode="D" horiz-adv-x="1214" 
d="M231 238v831q0 52 -3 81t-10.5 52.5t-26 34.5t-43.5 18t-70 11v43h403q341 0 498 -168q151 -165 151 -439q0 -348 -202 -534q-183 -168 -512 -168h-350v43q41 4 65.5 8t44.5 13.5t29.5 20.5t16 34.5t8 49t1.5 69.5zM383 1182v-940q0 -98 25.5 -136t113.5 -38
q145 0 244.5 80t144.5 215.5t45 318.5q0 374 -208 504q-106 65 -265 65q-58 0 -82 -12q-18 -9 -18 -57z" />
    <glyph glyph-name="E" unicode="E" horiz-adv-x="1009" 
d="M231 242v825q0 123 -25 156t-130 43v43h788q11 -185 21 -281l-51 -6q-21 113 -70 172q-47 53 -193 53h-135q-38 0 -45.5 -9t-7.5 -52v-467h168q41 0 66 1.5t46 8t31.5 14t20 26.5t14.5 38t12 55h50v-366h-50q-20 103 -50.5 127t-139.5 24h-168v-397q0 -131 43 -164
q17 -12 44.5 -17.5t52 -6.5t79.5 -1q169 0 225 68q53 66 95 186l49 -8q-37 -210 -62 -307h-858v43q44 4 71 8t49 14t32.5 21.5t17.5 35.5t8.5 49.5t1.5 70.5z" />
    <glyph glyph-name="F" unicode="F" horiz-adv-x="940" 
d="M231 242v821q0 45 -1.5 71.5t-7.5 50t-15 35.5t-28 22t-42 14t-61 8v45h784q6 -110 21 -283l-52 -6q-27 127 -67 170q-24 30 -68 43.5t-127 13.5h-129q-38 0 -46.5 -9t-8.5 -52v-490h186q50 0 77.5 3t49 10t32.5 25.5t17.5 40.5t14.5 65h49v-367h-49q-6 38 -11 59
t-15 40.5t-20.5 28t-32 15t-46 8t-66.5 1.5h-186v-383q0 -45 1.5 -71t8.5 -50.5t18 -35.5t33.5 -21t50.5 -14t74 -7v-43h-493v43q38 3 61 7t42 14t28 21.5t15 35t7.5 50t1.5 71.5z" />
    <glyph glyph-name="G" unicode="G" horiz-adv-x="1142" 
d="M991 393v-155q0 -120 13 -197q-204 -66 -328 -66q-269 0 -430.5 180t-161.5 484q0 170 52.5 305.5t140 218.5t195.5 126.5t226 43.5q141 0 275 -41q17 -220 26 -286l-47 -9q-38 153 -110 213t-185 60q-172 0 -282.5 -160t-110.5 -438q0 -95 14 -183t46 -171t80 -144
t121 -98t163 -37q78 0 115 18q21 11 29 36t8 87v205q0 37 -1 55.5t-8 38.5t-17 28.5t-34 18t-53 14.5t-78 11v43h449v-43q-74 -17 -90.5 -41t-16.5 -117z" />
    <glyph glyph-name="H" unicode="H" horiz-adv-x="1282" 
d="M381 729h514v340q0 121 -23.5 154t-121.5 43v43h454v-43q-38 -4 -61.5 -8t-42.5 -14t-28.5 -21.5t-15.5 -35t-7.5 -49t-1.5 -69.5v-831q0 -52 3 -81t10.5 -52t26.5 -34t44.5 -17t70.5 -11v-43h-465v43q107 10 132.5 42t25.5 153v415h-514v-415q0 -44 1.5 -69.5t7 -49
t14 -34.5t26.5 -20.5t40 -13.5t58 -8v-43h-450v43q102 10 126.5 42t24.5 153v831q0 44 -1.5 69.5t-7.5 49t-15.5 35t-28.5 21.5t-42.5 14t-61.5 8v43h450v-43q-96 -10 -118.5 -43t-22.5 -154v-340z" />
    <glyph glyph-name="I" unicode="I" horiz-adv-x="616" 
d="M231 238v831q0 44 -1.5 69.5t-8 49t-15.5 35t-28.5 21.5t-43 14t-62.5 8v43h471v-43q-39 -4 -63 -8t-43.5 -14t-29 -21.5t-15.5 -35t-7.5 -49t-1.5 -69.5v-831q0 -44 1.5 -69.5t7.5 -49t15.5 -35t29 -21t43.5 -13.5t63 -7v-43h-471v43q39 3 62.5 7t43 13.5t28.5 21
t15.5 35t8 49t1.5 69.5z" />
    <glyph glyph-name="J" unicode="J" horiz-adv-x="604" 
d="M250 330v741q0 43 -1.5 68.5t-8 49t-16.5 34.5t-30.5 21t-45.5 14t-66 8v43h473v-43q-55 -6 -83 -13.5t-45.5 -30.5t-21.5 -55t-4 -96v-840q-1 -94 -6.5 -157.5t-21.5 -129.5t-48 -116t-83 -90q-84 -63 -191 -82l-16 47q162 61 194 248q21 136 21 379z" />
    <glyph glyph-name="K" unicode="K" horiz-adv-x="1173" 
d="M231 238v831q0 121 -26 154t-133 43v43h465v-43q-56 -6 -84 -13.5t-45.5 -31t-21 -55t-3.5 -97.5v-371q50 20 106 82q196 217 306 379q31 47 22.5 67.5t-57.5 28.5l-49 11v43h417v-43q-81 -12 -130.5 -41.5t-131.5 -114.5q-187 -203 -311 -352q87 -143 205 -310.5
t186 -250.5q53 -65 78 -90.5t55 -41.5t74 -22v-43h-262q-114 145 -412 590q-28 43 -49 54.5t-47 0.5v-407q0 -44 1.5 -69.5t7.5 -49t15.5 -35t29 -21t44 -13.5t64.5 -7v-43h-463v43q36 3 58 7t40.5 13.5t27 21t14.5 35t7.5 49t1.5 69.5z" />
    <glyph glyph-name="L" unicode="L" horiz-adv-x="983" 
d="M231 238v831q0 44 -1.5 69.5t-8 49t-15.5 35t-29 21.5t-44.5 14t-64.5 8v43h481v-43q-41 -4 -66 -8t-45 -14t-30 -21t-16 -35t-7.5 -49.5t-1.5 -69.5v-823q0 -133 41 -158q43 -27 162 -27q156 0 209 66q50 67 92 192l49 -10q-6 -41 -29 -155t-33 -154h-808v43
q41 4 65.5 8t44.5 13.5t29.5 20.5t16 34.5t8 49t1.5 69.5z" />
    <glyph glyph-name="M" unicode="M" horiz-adv-x="1542" 
d="M88 1309h299l383 -1018l393 1018h301v-43q-26 -3 -43 -5t-35 -6t-28 -8.5t-21.5 -11.5t-15.5 -16.5t-10.5 -22t-6.5 -28.5t-3.5 -37t-1 -46.5t0.5 -56.5l17 -745q1 -46 1.5 -71t4 -53t7 -41t13.5 -28t19.5 -20t29.5 -12t39 -9.5t52 -5.5v-43h-475v43q32 3 51 5.5t38 9.5
t28.5 12t18.5 20.5t12 27.5t6 41.5t3 53v70.5l-2 833h-8l-414 -1093h-41l-376 1077h-5l-22 -586q-10 -268 0 -344q6 -63 44 -90.5t130 -36.5v-43h-430v43q72 9 104 36.5t43 86.5q21 107 35 371l29 454q3 50 4 82t-1 62t-5 46.5t-13.5 32t-20.5 22.5t-31.5 14t-41.5 9.5
t-55 6.5v43z" />
    <glyph glyph-name="N" unicode="N" horiz-adv-x="1243" 
d="M231 492v493q0 106 -4.5 139.5t-27.5 65.5q-25 37 -61.5 53.5t-96.5 22.5v43h264l649 -1004h4v514q0 176 -16 328q-7 58 -49.5 86t-130.5 33v43h434v-43q-69 -3 -105.5 -32t-43.5 -87q-15 -143 -15 -328v-833h-61l-662 1052h-4v-546q0 -207 17 -328q8 -58 48 -86.5
t128 -34.5v-43h-432v43q71 4 107 33.5t44 87.5q14 100 14 328z" />
    <glyph glyph-name="O" unicode="O" horiz-adv-x="1165" 
d="M600 1333h2q96 0 183.5 -48.5t153 -134t104 -210t38.5 -268.5q0 -316 -142 -506.5t-364 -190.5q-141 0 -253.5 87t-175 239t-62.5 340q0 103 20 201.5t62 188t101.5 156.5t145.5 106.5t187 39.5zM559 1270h-2q-138 0 -214.5 -148.5t-76.5 -425.5q0 -300 88 -478.5
t256 -178.5q142 0 217.5 142t75.5 419q0 327 -86 498.5t-258 171.5z" />
    <glyph glyph-name="P" unicode="P" horiz-adv-x="1001" 
d="M383 1188v-559q62 -23 123 -23q35 0 68.5 8.5t69 32t61.5 59t42.5 95t16.5 135.5q0 160 -76 237.5t-215 77.5q-46 0 -74 -8q-16 -8 -16 -55zM231 238v831q0 66 -3.5 98t-21 55t-44.5 30.5t-82 13.5v43h424q206 0 311 -84q119 -97 119 -279q0 -92 -31.5 -167.5t-85 -124.5
t-117.5 -78.5t-135 -40.5q-29 -3 -57 0l-125 32v-329q0 -66 4 -97t25 -54.5t54.5 -30.5t102.5 -13v-43h-499v43q47 4 73.5 10.5t46 17t27.5 34t11 52t3 81.5z" />
    <glyph glyph-name="Q" unicode="Q" horiz-adv-x="1165" 
d="M1169 -272l-10 -37q-140 8 -229 37q-116 35 -383 249q-76 0 -168.5 50t-159.5 145q-135 187 -135 467q0 86 14 169.5t41.5 161.5t71 143.5t99 115t130 77t160.5 27.5q97 0 185 -48.5t153.5 -134t104 -210t38.5 -268.5q0 -253 -92.5 -426t-245.5 -240q194 -166 426 -278z
M541 47l102 39q10 -10 45 -35q101 33 157 172.5t56 376.5q0 326 -87 498t-257 172q-139 0 -216 -149t-77 -425q0 -176 30 -312t93 -225t154 -112z" />
    <glyph glyph-name="R" unicode="R" horiz-adv-x="1130" 
d="M383 1186v-543l106 2q109 3 166 51q101 83 101 256q0 76 -23 135t-62 94t-86.5 52.5t-99.5 17.5q-67 0 -88 -12q-14 -6 -14 -53zM231 238v833q0 52 -3 81t-10.5 52t-26.5 34t-44.5 17t-70.5 11v43h430q204 0 297 -70q55 -38 87 -105t32 -153q0 -241 -234 -346
q85 -172 158 -291q98 -157 151 -217q38 -46 66.5 -67.5t69.5 -34.5l-7 -39q-33 0 -49 2q-84 3 -142 25t-94.5 57.5t-76.5 97.5q-57 87 -182 342q-20 41 -45 59t-74 19h-80v-350q0 -44 1.5 -69.5t7.5 -49t15.5 -35t29 -21t43.5 -13.5t63 -7v-43h-475v43q40 3 64.5 7
t44.5 13.5t29 21t15.5 35t8 49t1.5 69.5z" />
    <glyph glyph-name="S" unicode="S" 
d="M78 340l49 10q11 -37 24.5 -72.5t40.5 -81.5t59 -79t81 -56.5t106 -23.5q103 0 161 68.5t58 185.5q0 102 -59 174.5t-168 136.5q-35 20 -52 30t-55 36t-59 45t-51 51.5t-46 63t-28 71.5t-12 84q0 147 102 248.5t273 101.5q36 0 71.5 -5t56 -10t50 -13.5t39.5 -10.5
q4 -44 17 -133.5t18 -132.5l-49 -10q-13 43 -23.5 71.5t-31 66.5t-44 60.5t-61 39t-82.5 16.5q-93 0 -144 -64t-51 -157q0 -95 55 -158.5t166 -128.5q113 -67 155 -100q159 -127 159 -310q0 -165 -113 -272t-287 -107q-84 0 -159 23q-16 4 -117 41q-7 26 -14.5 71.5
t-18.5 120.5t-16 109z" />
    <glyph glyph-name="T" unicode="T" horiz-adv-x="1058" 
d="M455 248v999h-93q-139 0 -190 -69q-36 -45 -61 -160h-50q2 40 10.5 161t10.5 179h31q22 -49 94 -49h661q33 0 47.5 9t38.5 40h31q3 -129 19 -336l-50 -4q-29 131 -65 172q-51 57 -189 57h-94v-999q0 -48 1.5 -74.5t9 -52t18 -36.5t33.5 -21t51.5 -14t75.5 -7v-43h-521v43
q45 3 71.5 7t49 14t32.5 21.5t17.5 36t9 52t1.5 74.5z" />
    <glyph glyph-name="U" unicode="U" horiz-adv-x="1243" 
d="M217 494v577q0 44 -1.5 69t-8 48.5t-15.5 34t-29.5 20.5t-44.5 14t-65 9v43h471v-43q-38 -4 -60.5 -8.5t-42 -14t-28.5 -20.5t-15 -34t-7.5 -48.5t-1.5 -69.5v-498q-1 -92 7 -164t28.5 -136t53.5 -106.5t85.5 -66.5t122.5 -24q90 0 152 44.5t94.5 127.5t45.5 181.5
t11 225.5v156q0 212 -17 342q-8 54 -46 80t-128 33v43h432v-43q-75 -7 -110 -33.5t-41 -79.5q-17 -130 -17 -342v-227q0 -172 -30 -288t-99 -198q-55 -62 -133.5 -92.5t-158.5 -30.5q-169 0 -273 88q-68 62 -99.5 167t-31.5 264z" />
    <glyph glyph-name="V" unicode="V" horiz-adv-x="1196" 
d="M606 -18h-53q-283 907 -346 1097q-38 112 -69 143.5t-111 43.5v43h436v-43q-93 -12 -114 -35t-3 -86q101 -344 279 -875h4q205 612 260 824q11 44 14.5 68.5t0 45t-21 30.5t-43.5 16.5t-73 11.5v43h401v-43q-47 -7 -71 -15t-47 -31.5t-38 -57.5t-40 -101
q-58 -157 -170 -481.5t-195 -597.5z" />
    <glyph glyph-name="W" unicode="W" horiz-adv-x="1665" 
d="M532 -18h-51q-85 354 -282 1105q-29 108 -58.5 137.5t-113.5 41.5v43h438v-43q-100 -13 -120 -37.5t-1 -102.5q52 -216 207 -815h4q26 93 274 977h48q22 -70 132 -426t169 -551h4q46 161 103.5 404.5t82.5 384.5q6 36 8 56t-0.5 39.5t-10 29.5t-24.5 19t-40 13.5t-60 8.5
v43h397v-43q-50 -8 -73.5 -15.5t-45.5 -31.5t-34 -55.5t-33 -100.5q-85 -280 -285 -1081h-51q-38 142 -87 304t-114 370.5t-100 326.5h-4q-227 -796 -279 -1001z" />
    <glyph glyph-name="X" unicode="X" horiz-adv-x="1130" 
d="M51 1309h436v-43q-88 -13 -104 -31.5t10 -69.5q82 -165 191 -360q112 194 174 328q35 72 19.5 96.5t-105.5 36.5v43h389v-43q-61 -8 -94 -23t-57 -41t-68 -92q-100 -154 -221 -369q129 -241 290 -532q56 -99 92.5 -126.5t126.5 -39.5v-43h-458v43q89 10 106.5 31.5
t-12.5 79.5q-47 97 -229 436q-140 -244 -215 -432q-25 -54 -5.5 -78.5t109.5 -36.5v-43h-408v43q74 9 114 31.5t77 79.5q87 132 291 503q-164 307 -250 465q-25 45 -37 64t-34.5 38.5t-51 27.5t-76.5 14v43z" />
    <glyph glyph-name="Y" unicode="Y" horiz-adv-x="1077" 
d="M459 236v288q0 24 -1 36t-8 33.5t-22 53.5q-99 209 -223 453q-50 101 -78 127.5t-100 38.5v43h422v-43q-97 -14 -115 -32t10 -77q106 -228 231 -477q153 333 193 438q33 86 14.5 112t-123.5 36v43h392v-43q-35 -6 -58 -13.5t-39 -16t-33 -30.5t-28 -40t-35 -62
q-90 -157 -221 -445q-18 -36 -22.5 -57t-4.5 -57v-309q0 -65 4 -96t24 -54.5t52.5 -30.5t97.5 -12v-43h-501v43q43 3 69 7t47 14t31 20.5t16.5 34.5t7.5 48.5t1 68.5z" />
    <glyph glyph-name="Z" unicode="Z" horiz-adv-x="997" 
d="M293 1309h620l11 -21q-433 -771 -668 -1216q90 -11 258 -11q230 0 297 72q54 57 102 193l52 -13q-53 -267 -64 -313h-833l-15 25q418 749 674 1222h-231q-111 0 -159.5 -16t-76.5 -51q-42 -52 -70 -172h-47q3 50 11 172t10 178h35q18 -32 35.5 -40.5t58.5 -8.5z" />
    <glyph glyph-name="bracketleft" unicode="[" horiz-adv-x="667" 
d="M221 -340v1774h311v-48q-55 -5 -78.5 -7t-51 -11.5t-34.5 -16.5t-15.5 -30.5t-8.5 -45v-69.5v-1321v-53t4 -39.5t6.5 -30t15 -20t21.5 -14.5t34.5 -8.5t45 -7t61.5 -5.5v-47h-311z" />
    <glyph glyph-name="backslash" unicode="\" horiz-adv-x="571" 
d="M410 -92l-363 1425h117l362 -1425h-116z" />
    <glyph glyph-name="bracketright" unicode="]" horiz-adv-x="667" 
d="M449 1434v-1774h-312v47q118 13 143 23q34 13 42 56q4 25 4 103v1317v69t-8.5 45.5t-15.5 31t-34.5 16t-51 11.5t-79.5 7v48h312z" />
    <glyph glyph-name="asciicircum" unicode="^" horiz-adv-x="1269" 
d="M168 360l424 916h86l424 -918h-121l-350 779l-350 -777h-113z" />
    <glyph glyph-name="underscore" unicode="_" horiz-adv-x="1024" 
d="M0 -154h1024v-102h-1024v102z" />
    <glyph glyph-name="grave" unicode="`" horiz-adv-x="819" 
d="M291 1329l198 -319l-38 -27l-258 258q-51 48 -3 80l33 22q21 14 37.5 12t30.5 -26z" />
    <glyph glyph-name="a" unicode="a" horiz-adv-x="825" 
d="M666 666v-455q0 -115 53 -115q29 0 69 21l21 -41l-166 -101q-13 0 -34 11t-38 28q-28 33 -43 90q-188 -129 -233 -129q-94 0 -157.5 75t-63.5 171q0 72 34 121.5t107 83.5q28 13 102 41.5t131 53.5t78 44l2 68q-2 98 -42 150.5t-117 52.5q-59 0 -95 -52q-32 -42 -49 -122
q-9 -41 -51 -41q-27 0 -54.5 22t-27.5 51q0 38 60 88q44 37 123 78.5t159 59.5q99 0 158 -56q74 -62 74 -198zM526 170v328q-22 -12 -106 -49t-101 -46q-51 -33 -72.5 -64.5t-21.5 -84.5q0 -75 41.5 -119.5t93.5 -44.5q40 0 86 23t80 57z" />
    <glyph glyph-name="b" unicode="b" horiz-adv-x="942" 
d="M135 49v1131q0 38 -0.5 57t-5.5 38.5t-11 26t-23 14t-34.5 10t-52.5 5.5v43q140 18 268 72v-612l158 69q39 17 76 17q149 0 253.5 -123.5t104.5 -300.5q0 -110 -37 -208t-99 -166t-146 -107.5t-176 -39.5q-149 0 -275 74zM276 774v-563q0 -45 11 -72q6 -13 16.5 -26.5
t29.5 -30.5t51 -28.5t71 -12.5q117 0 185.5 106t68.5 291q0 175 -78 276t-213 101q-76 0 -142 -41z" />
    <glyph glyph-name="c" unicode="c" horiz-adv-x="768" 
d="M537 920h2q37 0 84 -14.5t73 -39.5q28 -25 23 -61q-3 -27 -25.5 -57.5t-40.5 -30.5q-12 0 -30 18q-44 52 -90 71t-101 19q-85 0 -146.5 -81t-62.5 -250q-1 -88 16.5 -158.5t45 -113.5t64 -71.5t70.5 -39.5t68 -11q64 0 110 23t108 88l32 -35q-61 -87 -142.5 -144
t-160.5 -57q-107 0 -190 60.5t-125.5 156.5t-42.5 209q0 236 174 394q74 67 153 96t134 29z" />
    <glyph glyph-name="d" unicode="d" horiz-adv-x="966" 
d="M664 166v586q-49 96 -193 96q-21 0 -44 -7t-51.5 -22.5t-53.5 -45t-46.5 -69.5t-34 -102t-12.5 -137q0 -178 75.5 -274.5t174.5 -96.5t185 72zM805 1446v-1223q-1 -77 9.5 -97.5t51.5 -23.5l72 -6v-43q-182 -34 -274 -78v125l-146 -86q-60 -39 -106 -39q-54 0 -112.5 29
t-110.5 82t-85.5 139.5t-33.5 188.5q0 136 63 252t174.5 185t245.5 69q63 0 111 -19v287q0 36 -0.5 54t-6.5 36.5t-11.5 25t-24.5 13.5t-37 9.5t-56 6.5v41q147 21 277 72z" />
    <glyph glyph-name="e" unicode="e" horiz-adv-x="786" 
d="M469 920h2q109 0 188.5 -92.5t79.5 -204.5q0 -36 -9 -49t-36 -21q-17 -2 -81.5 -7.5t-178.5 -12.5t-221 -11q-1 -112 24 -196.5t68.5 -131.5t94 -69.5t106.5 -22.5q103 0 192 97l29 -37q-47 -67 -107.5 -112t-104 -60t-75.5 -15q-111 0 -195.5 59.5t-127.5 157.5t-43 218
t42.5 226t116.5 177q53 50 115.5 78.5t120.5 28.5zM424 850h-2q-69 0 -127.5 -69.5t-69.5 -186.5q53 1 163 3t163 3q21 0 29 11.5t8 39.5q2 83 -42 141t-122 58z" />
    <glyph glyph-name="f" unicode="f" horiz-adv-x="536" 
d="M188 203v616h-125l-10 23l49 53h86v43q0 95 19 160q39 147 139 239q102 94 199 109q90 -6 141 -64q21 -26 10 -61q-11 -29 -32 -47q-14 -14 -30 -14t-28 14q-66 63 -149 63q-55 0 -90 -57q-40 -64 -37 -315v-70h213q10 -18 3.5 -41.5t-22.5 -34.5h-194v-616
q0 -35 1.5 -56t8 -39.5t15.5 -28t28.5 -17.5t43 -11.5t62.5 -7.5v-43h-419v43q78 10 98 37.5t20 122.5z" />
    <glyph glyph-name="g" unicode="g" horiz-adv-x="847" 
d="M418 920h2q92 0 172 -52q93 5 242 27l10 -16q-11 -27 -34.5 -59t-41.5 -42l-98 8q53 -69 53 -170q0 -79 -29.5 -143t-76.5 -103t-102.5 -60t-111.5 -21q-32 0 -63 2q-32 -13 -58 -39t-26 -51q0 -32 29 -53t92 -21q35 0 100 2t92 2q34 0 67.5 -6t69.5 -22.5t63 -42.5
t44.5 -69.5t17.5 -99.5q0 -107 -63.5 -200.5t-170 -148t-226.5 -54.5q-81 0 -146.5 23.5t-104 61.5t-59 81.5t-20.5 87.5q0 66 37 113q9 12 32.5 34t43.5 38.5t54 45.5t44 37q-47 12 -85 42t-58 61q-19 34 -19 80q55 19 104 52t78 66q-76 30 -127 103.5t-51 165.5
q0 82 30.5 149t79 107.5t104 62t110.5 21.5zM403 862h-2q-63 0 -108 -61t-45 -178q0 -127 47.5 -202t130.5 -75q62 0 108 60t46 178q0 125 -48 201.5t-129 76.5zM428 6h-2q-109 0 -160 -43q-84 -76 -82 -160q0 -101 74 -161t193 -60q131 0 199.5 67.5t68.5 168.5
q0 59 -24.5 100t-65.5 59q-67 29 -201 29z" />
    <glyph glyph-name="h" unicode="h" horiz-adv-x="960" 
d="M158 203v975v58.5t-5.5 38t-10.5 26.5t-23 14t-34.5 10t-53.5 6v43q121 17 268 72v-662q51 57 118 95t138 41q115 3 181.5 -79t66.5 -225v-415q0 -97 19.5 -123t99.5 -35v-43h-381v43q82 10 101.5 36.5t19.5 123.5v360q0 248 -177 248q-118 -3 -186 -96v-512
q0 -97 18.5 -123.5t96.5 -36.5v-43h-383l6 43q82 10 101.5 36.5t19.5 123.5z" />
    <glyph glyph-name="i" unicode="i" horiz-adv-x="487" 
d="M188 209v430q0 39 -0.5 57t-5 38.5t-9.5 27.5t-20.5 16t-31 12.5t-47.5 10.5v37q139 30 256 84v-713q0 -102 20.5 -129t108.5 -37v-43h-398v43q86 10 106.5 37t20.5 129zM258 1380h2q41 0 70.5 -31t29.5 -75q0 -42 -30 -73.5t-72 -31.5q-41 0 -71.5 31.5t-30.5 73.5
q0 44 30 75t72 31z" />
    <glyph glyph-name="j" unicode="j" horiz-adv-x="466" 
d="M188 242v407q0 94 -16 114.5t-104 37.5v37q157 34 262 84v-699q0 -116 -10 -190t-37 -152q-40 -121 -108.5 -231t-104.5 -142q-23 -20 -50 -20q-19 0 -44 24t-25 58q0 22 11 35t26 16q101 23 135 66q29 36 45 151q20 156 20 404zM258 1380h2q41 0 70.5 -31t29.5 -75
q0 -42 -30 -73.5t-72 -31.5q-41 0 -71.5 31.5t-30.5 73.5q0 44 30 75t72 31z" />
    <glyph glyph-name="k" unicode="k" horiz-adv-x="909" 
d="M158 203v977q0 38 -0.5 56.5t-5.5 38t-10 26t-21.5 14.5t-32 10.5t-49.5 7.5v41q123 15 260 72v-948q67 11 123 75q28 31 68.5 89t62.5 98q24 39 13 59.5t-72 26.5v41l354 20v-43q-89 -21 -127.5 -46t-85.5 -79q-90 -103 -164 -198q32 -56 130.5 -189.5t156.5 -197.5
q55 -62 82.5 -82.5t79.5 -28.5v-43l-228 -4q-129 155 -299 407q-33 48 -63 48q-6 0 -31 -7v-241q0 -97 21 -123.5t108 -36.5v-43h-403v43q89 10 111 36.5t22 123.5z" />
    <glyph glyph-name="l" unicode="l" horiz-adv-x="456" 
d="M158 203v977q0 38 -0.5 56.5t-6 38t-11 26t-23.5 14.5t-35 10.5t-53 7.5v41q136 18 270 72v-1243q0 -97 21 -123.5t108 -36.5v-43h-401v43q89 10 110 36.5t21 123.5z" />
    <glyph glyph-name="m" unicode="m" horiz-adv-x="1495" 
d="M188 201v444q0 39 -0.5 57t-5 38.5t-9.5 27t-20.5 15t-31.5 11t-47 7.5v39q127 25 256 84v-150q67 53 123 88q45 30 81 44t80 14q68 0 124 -41.5t79 -108.5q44 36 141 100q83 50 150 50q107 0 168 -75.5t61 -199.5v-446q0 -51 3 -76.5t16 -43.5t33 -24t61 -12v-43h-377
v43q84 10 103.5 36.5t19.5 129.5v379q0 107 -37.5 165t-130.5 58q-103 0 -197 -102q3 -27 3 -60v-450q0 -96 18 -121t96 -35v-43h-377v43q84 10 102.5 35t18.5 121v397q0 105 -37 160t-125 55q-48 0 -102.5 -28.5t-97.5 -71.5v-512q0 -96 17.5 -121t94.5 -35v-43h-387v43
q90 9 111.5 35t21.5 123z" />
    <glyph glyph-name="n" unicode="n" horiz-adv-x="987" 
d="M188 203v446q0 37 -0.5 54.5t-5 36.5t-9.5 25.5t-20 15t-30.5 11.5l-46.5 9v39q132 29 254 84v-146q47 39 123 88q83 54 147 54q110 0 170.5 -75.5t60.5 -201.5v-440q0 -96 18.5 -123t94.5 -37v-43h-377v43q84 10 103.5 39.5t19.5 140.5v365q0 109 -36.5 166t-129.5 57
q-92 0 -194 -102v-506q0 -97 18 -123.5t94 -36.5v-43h-389v43q92 10 113.5 36.5t21.5 123.5z" />
    <glyph glyph-name="o" unicode="o" horiz-adv-x="909" 
d="M434 858h-2q-90 0 -141 -94t-51 -264q0 -210 61.5 -336.5t177.5 -126.5q94 0 143.5 86.5t49.5 292.5q0 128 -23 224t-77.5 157t-137.5 61zM455 920h2q166 0 271.5 -132t105.5 -327q0 -116 -33.5 -211t-88 -153.5t-121 -90t-136.5 -31.5q-88 0 -162 39.5t-120.5 103.5
t-72.5 143t-26 161q0 99 23.5 183t61.5 141t88.5 97t103 58.5t104.5 18.5z" />
    <glyph glyph-name="p" unicode="p" horiz-adv-x="960" 
d="M170 -285v942q0 38 -0.5 56.5t-5.5 38t-10 26t-22 14.5t-32.5 11t-50.5 8v39q89 19 262 90v-145l195 108q31 17 63 17q97 0 171 -58.5t109.5 -143.5t35.5 -177q0 -226 -130 -376t-331 -190q-57 5 -113 39v-278q0 -41 1.5 -65t8.5 -45t16.5 -31t30.5 -19t45.5 -12.5
t65.5 -7.5v-43h-438v43q61 7 86 20t34 42t9 97zM311 731v-573q62 -82 178 -82q47 0 88 19t77.5 61t57.5 120t21 185q0 167 -65 257.5t-176 90.5q-43 0 -92 -22.5t-89 -55.5z" />
    <glyph glyph-name="q" unicode="q" horiz-adv-x="940" 
d="M805 680v-965q0 -52 3.5 -77.5t18.5 -44t37 -24.5t68 -13v-43h-432v43q41 4 65 8t44 13t29.5 19t16 30.5t8 42.5t1.5 61v323l-191 -78q-96 0 -174.5 39.5t-126 102.5t-73 138t-25.5 151q0 138 69 256.5t186.5 188t254.5 69.5q66 -11 106 -29q29 -10 49 -10q14 0 58 20
l14 -6q-6 -123 -6 -215zM664 111v657q-28 33 -77 50.5t-102 17.5q-109 0 -180.5 -92.5t-71.5 -268.5q0 -191 88 -295t220 -104q69 0 123 35z" />
    <glyph glyph-name="r" unicode="r" horiz-adv-x="679" 
d="M188 203v442q0 39 -0.5 57.5t-5 39t-9.5 27t-20.5 15t-31 11.5t-47.5 8v39q120 23 256 82v-205h4q38 76 99.5 138.5t121.5 62.5q41 0 72.5 -33.5t31.5 -67.5q0 -29 -17 -53.5t-44 -38.5q-35 -15 -51 4q-35 41 -74 41q-35 0 -73 -39.5t-70 -120.5v-401q0 -104 23.5 -131
t125.5 -37v-43h-416v43q45 6 67 12.5t36.5 25t18 44.5t3.5 78z" />
    <glyph glyph-name="s" unicode="s" horiz-adv-x="722" 
d="M612 670l-43 -15q-74 203 -200 203q-53 0 -88 -37.5t-35 -99.5q0 -66 42.5 -108.5t121.5 -80.5q116 -56 175.5 -120t59.5 -158q0 -66 -28.5 -120.5t-74.5 -88.5t-100.5 -52t-109.5 -18q-66 0 -130 23.5t-96 52.5q-8 30 -16.5 106t-7.5 132l43 8q15 -62 48 -119.5
t85.5 -99t108.5 -41.5q60 0 98.5 37t38.5 110q0 69 -37.5 117.5t-118.5 89.5q-52 26 -86 47t-71 52.5t-55.5 71t-18.5 87.5q0 116 83.5 193.5t209.5 77.5q87 0 159 -35q12 -30 25.5 -102t17.5 -113z" />
    <glyph glyph-name="t" unicode="t" horiz-adv-x="561" 
d="M170 219v600h-125l-10 23l51 53h84v131l113 129l28 -2v-258h207q11 -17 7 -40.5t-21 -35.5h-193v-547q0 -107 32.5 -148.5t76.5 -41.5q47 0 104 22l17 -45l-131 -65q-43 -19 -68 -19q-82 0 -127 62.5t-45 181.5z" />
    <glyph glyph-name="u" unicode="u" horiz-adv-x="968" 
d="M670 193v514q0 61 -15 83t-53 27l-72 12v41q52 3 144 17q28 3 137 22v-710q0 -66 14 -84t64 -21l51 -2v-45q-25 -2 -137 -31q-1 0 -119 -41l-14 13v137q-57 -52 -140 -105q-74 -45 -137 -45q-100 0 -160.5 69t-60.5 214v449q0 62 -12.5 82t-48.5 28l-48 12v41
q50 0 130 17q28 4 76.5 13t49.5 9q-6 -123 -6 -295v-303q0 -223 152 -223q106 0 205 105z" />
    <glyph glyph-name="v" unicode="v" horiz-adv-x="847" 
d="M444 -20h-51q-99 323 -237 727q-29 86 -50.5 109.5t-89.5 35.5v43h357v-43q-69 -12 -83 -32.5t5 -74.5q109 -338 166 -524q95 260 160 494q22 72 6.5 98.5t-95.5 38.5v43h324v-43q-66 -12 -89 -36t-58 -111q-159 -401 -265 -725z" />
    <glyph glyph-name="w" unicode="w" horiz-adv-x="1241" 
d="M397 -20h-49q-98 367 -205 735q-25 82 -46 103.5t-87 33.5v43h377v-43q-58 -10 -81.5 -22t-27.5 -34.5t7 -58.5q19 -75 63.5 -241.5t67.5 -257.5h4q35 104 106 321t107 326h45q38 -123 112 -343.5t101 -303.5h4q89 299 127 477q14 76 -3.5 99t-105.5 38v43h330v-43
q-63 -13 -86 -40t-53 -116q-135 -401 -219 -716h-51q-28 89 -62 191t-80 237t-76 225q-123 -343 -219 -653z" />
    <glyph glyph-name="x" unicode="x" horiz-adv-x="854" 
d="M35 895h354v-43q-54 -8 -65.5 -24t12.5 -64l113 -199q58 100 102 199q21 46 11.5 62.5t-64.5 25.5v43h327v-43q-85 -10 -119 -30.5t-81 -86.5q-74 -106 -144 -227l176 -313q50 -88 83 -113.5t116 -38.5v-43h-385v43q63 11 74.5 29t-15.5 71l-124 226q-54 -83 -119 -230
q-22 -46 -10 -64.5t75 -31.5v-43h-338v43q83 17 118 43t91 109q74 111 146 235l-156 281q-45 80 -74.5 104.5t-103.5 36.5v43z" />
    <glyph glyph-name="y" unicode="y" horiz-adv-x="837" 
d="M6 895h365v-43q-65 -9 -79 -32.5t7 -78.5l160 -512q96 259 166 512q10 34 7 55.5t-26.5 34.5t-77.5 21v43h328v-43q-67 -17 -90.5 -41t-60.5 -106q-50 -115 -226 -592q-151 -427 -184 -572q-12 -53 -64 -53q-39 0 -72.5 28t-33.5 64q0 13 7.5 26t15.5 21t28 27
q83 71 137 188q42 82 54 135q12 50 2 89q-55 176 -209 630q-29 89 -54 116t-100 40v43z" />
    <glyph glyph-name="z" unicode="z" horiz-adv-x="747" 
d="M258 895h420l12 -23q-54 -93 -119.5 -209.5t-101 -181.5t-122 -224.5t-107.5 -197.5h180q91 0 139.5 33t97.5 115l29 51l45 -18q-24 -94 -74 -240h-591l-13 23q133 225 453 813h-160q-84 0 -121.5 -30.5t-74.5 -111.5l-29 -55l-45 14q46 222 57 287h35q8 -24 26.5 -34
t63.5 -11z" />
    <glyph glyph-name="braceleft" unicode="{" horiz-adv-x="667" 
d="M123 520v49q45 3 76.5 17.5t48 31.5t25.5 44.5t10.5 47t1.5 48.5q0 21 -4.5 79.5t-6.5 102.5q-12 148 -12 250q0 65 17.5 113.5t43.5 75t64.5 42.5t71.5 20.5t73 4.5v-47q-48 -7 -79 -25t-45 -46t-18.5 -54t-4.5 -64q0 -29 12 -200q1 -13 7.5 -66t10 -92.5t3.5 -65.5
q0 -90 -36 -153t-110 -84v-8q74 -19 110 -83.5t36 -154.5q0 -26 -3.5 -64.5t-10 -92.5t-7.5 -64q-12 -177 -12 -199q0 -30 2.5 -52t11 -47t24 -41.5t43 -30t66.5 -19.5v-47q-40 0 -73 4.5t-71.5 20t-64.5 42t-43.5 75t-17.5 114.5q0 94 10 248q2 35 5.5 75.5t5.5 65.5t2 43
q0 28 -1.5 47t-10.5 46t-25.5 44t-48 31.5t-76.5 17.5z" />
    <glyph glyph-name="bar" unicode="|" horiz-adv-x="464" 
d="M172 -512v2048h123v-2048h-123z" />
    <glyph glyph-name="braceright" unicode="}" horiz-adv-x="667" 
d="M545 569v-49q-45 -3 -76.5 -17t-48 -31t-25.5 -44t-10.5 -46t-1.5 -48q0 -21 4 -81t6 -103q13 -157 13 -248q0 -81 -25 -135.5t-69 -79t-84.5 -33t-92.5 -8.5v47q90 14 119 62t29 130q0 12 -13 197q-20 190 -20 221q0 91 35.5 155t109.5 83v8q-74 21 -109.5 84t-35.5 153
q0 27 20 224q1 18 5 59t6 75t2 62q0 39 -5 66.5t-19 56t-45 46.5t-79 24v47q41 -1 73 -5.5t71 -20.5t65 -42.5t44 -74.5t18 -113q0 -78 -11 -250q-12 -180 -12 -184q0 -29 1.5 -48t10.5 -46.5t25.5 -44.5t48 -31t76.5 -17z" />
    <glyph glyph-name="asciitilde" unicode="~" horiz-adv-x="1267" 
d="M1085 674l80 -39q-34 -112 -104.5 -172t-171.5 -60q-48 0 -105.5 16t-88.5 29.5t-93 43.5q-66 31 -108.5 45t-90.5 14q-70 0 -117.5 -41.5t-84.5 -126.5l-78 47q96 223 287 223q62 0 117.5 -16.5t136.5 -54.5q59 -27 89 -40t71.5 -24.5t76.5 -11.5q66 0 108.5 40
t75.5 128z" />
    <glyph glyph-name="exclamdown" unicode="&#xa1;" horiz-adv-x="483" 
d="M242 -449h-2q-52 0 -74.5 13t-22.5 45q0 48 11 164q31 285 57 719q6 10 29.5 10t29.5 -10q27 -455 56 -719q12 -126 12 -164q0 -32 -22.5 -45t-73.5 -13zM240 911h2q47 0 78.5 -33t31.5 -87q0 -51 -32.5 -85t-79.5 -34q-48 0 -80.5 34t-32.5 85q0 54 32.5 87t80.5 33z
" />
    <glyph glyph-name="cent" unicode="&#xa2;" 
d="M463 307v723q-32 -1 -68 -20t-72.5 -57.5t-60.5 -108.5t-24 -160q0 -89 21 -160t55.5 -114t71.5 -68t77 -35zM528 1032v-731q74 3 126.5 31.5t115.5 95.5l33 -39q-55 -76 -131.5 -132.5t-143.5 -68.5v-204h-65v198q-106 5 -191.5 65.5t-131.5 154.5t-46 200
q0 117 46.5 216.5t123.5 168.5q100 87 199 111v172h65v-164q10 2 31 2q122 0 189 -45q28 -17 28 -55q0 -32 -20.5 -55t-48.5 -23q-12 0 -31 16q-71 78 -148 86z" />
    <glyph glyph-name="sterling" unicode="&#xa3;" 
d="M684 612h-240q5 -29 5 -61q0 -55 -18.5 -108.5t-52 -100.5t-63 -79.5t-69.5 -69.5q56 -9 153 -46q148 -55 238 -55q88 0 88 70q0 42 -14 74q-11 25 6 47q30 45 69 45q24 0 38 -26t14 -56q0 -49 -40.5 -107.5t-95.5 -97.5q-84 -61 -182 -61q-89 0 -254 81q-68 35 -98 35
q-18 0 -33 -19.5t-22 -56.5q-3 -26 -29 -26q-27 0 -44 19.5t-5 43.5q24 50 139 146q129 110 129 286q0 58 -14 123h-228v64h205q-4 14 -21.5 61t-29.5 94t-12 91q0 70 30.5 147t102.5 141q42 36 97 62t85 28q56 0 101 -21.5t67 -51.5q17 -26 6 -51q-9 -25 -43 -50
q-19 -13 -47 9q-68 65 -162 65q-53 0 -84.5 -41t-31.5 -108q0 -99 49 -217q46 -121 59 -158h252v-64z" />
    <glyph glyph-name="currency" unicode="&#xa4;" 
d="M424 985h-2q-101 0 -169.5 -90t-68.5 -229q0 -142 69 -231t171 -89q103 0 172.5 89.5t69.5 230.5q0 139 -69.5 229t-172.5 90zM424 1081q51 0 107.5 -20.5t101.5 -59.5l123 156l88 -88l-144 -139q82 -114 82 -264q0 -151 -82 -265l144 -139l-88 -88l-125 156
q-43 -39 -99.5 -59.5t-107.5 -20.5q-53 0 -109.5 21t-99.5 59l-125 -156l-86 88l141 139q-82 114 -82 265q0 150 82 264l-141 139l86 88l125 -156q42 39 98.5 59.5t110.5 20.5z" />
    <glyph glyph-name="yen" unicode="&#xa5;" 
d="M365 190v166h-285v64h285v102q0 28 -7 82h-278v64h258q-50 114 -201 440q-36 73 -60.5 94.5t-84.5 30.5v43h387v-43l-64 -12q-40 -7 -48.5 -26.5t5.5 -55.5q8 -25 43.5 -105.5t85 -189t66.5 -148.5q118 268 170 428q19 51 10.5 71.5t-57.5 27.5l-62 10v43h349v-43
q-71 -12 -98.5 -37.5t-71.5 -114.5q-81 -150 -185 -413h264v-64h-280q-2 -27 -2 -80v-104h282v-64h-282v-166q0 -49 3 -71t20.5 -40.5t48.5 -24.5t92 -11v-43h-465v43q60 5 90 11t47.5 24.5t21 41t3.5 70.5z" />
    <glyph glyph-name="brokenbar" unicode="&#xa6;" horiz-adv-x="464" 
d="M172 666v716h123v-716h-123zM172 -358v716h123v-716h-123z" />
    <glyph glyph-name="section" unicode="&#xa7;" horiz-adv-x="966" 
d="M874 408v-2q0 -110 -62 -236.5t-146 -235.5q-67 -89 -132.5 -138t-150.5 -75q-30 0 -71.5 11.5t-69.5 29.5q-43 27 -43 60q0 18 14.5 38t32.5 31q26 21 45 5q69 -43 145 -43q29 0 56 7.5t53 24.5t41.5 49t15.5 76q3 61 -29.5 111.5t-113.5 128.5q-32 29 -115 97t-111 95
q-68 68 -104.5 134t-36.5 147q0 101 48 212t126 206q77 94 144 141.5t165 71.5q37 0 76 -13.5t60 -31.5q24 -19 24 -47q-3 -50 -35 -74q-22 -22 -41 -6q-49 39 -94 51q-30 8 -63 8q-67 0 -105.5 -38.5t-40.5 -88.5q0 -97 93 -178q106 -92 219 -174q206 -154 206 -354z
M193 821v-2q0 -89 51 -168t196 -190q93 -72 150.5 -132.5t71.5 -92.5q29 -73 24 -156l4 -2q82 104 82 246q0 152 -180 303q-12 9 -48 37.5t-59 46.5t-53 43t-50.5 44.5t-31.5 32.5q-83 93 -76 213l-6 3q-75 -95 -75 -226z" />
    <glyph glyph-name="dieresis" unicode="&#xa8;" horiz-adv-x="819" 
d="M573 1040h-2q-40 0 -66 26.5t-26 68.5q0 39 26.5 66.5t67.5 27.5q37 0 64 -28t27 -66q0 -42 -26.5 -68.5t-64.5 -26.5zM250 1040h-2q-40 0 -66 26.5t-26 68.5q0 39 26.5 66.5t67.5 27.5q37 0 63.5 -28t26.5 -66q0 -42 -26 -68.5t-64 -26.5z" />
    <glyph glyph-name="copyright" unicode="&#xa9;" horiz-adv-x="1400" 
d="M987 784l-41 -6q-35 84 -82.5 125t-126.5 41q-107 0 -169 -78.5t-62 -203.5q0 -132 67.5 -214.5t171.5 -82.5q80 0 132.5 44t89.5 130l41 -11q-2 -9 -14 -59t-20.5 -79.5t-15.5 -45.5q-114 -39 -213 -39q-94 0 -168.5 30t-119.5 79.5t-68.5 109.5t-23.5 125
q0 160 113 256t278 96q120 0 209 -32q3 -29 10.5 -87.5t11.5 -97.5zM700 1264h2q168 0 307 -81.5t217.5 -221.5t78.5 -308q0 -167 -79 -306t-218 -219.5t-308 -80.5q-168 0 -307 80.5t-218 219.5t-79 306q0 168 79 308t218 221.5t307 81.5zM702 1188h-2q-214 0 -355.5 -153
t-141.5 -380q0 -149 64 -270.5t178.5 -191.5t256.5 -70q217 0 358.5 152.5t141.5 379.5q0 112 -37.5 210.5t-103 169.5t-159 112t-200.5 41z" />
    <glyph glyph-name="ordfeminine" unicode="&#xaa;" horiz-adv-x="612" 
d="M498 915v-253q0 -78 39 -78q23 0 51 14l14 -37l-127 -72q-31 1 -52.5 26t-31.5 54q-4 -3 -23 -14.5t-26 -16t-23.5 -14.5t-25.5 -14.5t-21.5 -10t-21 -8t-14.5 -2.5q-72 0 -119 50t-47 110q0 49 22 81t72 54q19 9 108.5 44.5t114.5 52.5v30q0 58 -28.5 92.5t-73.5 34.5
q-41 0 -63 -28t-36 -88q-8 -35 -41 -35q-23 0 -44 16.5t-21 38.5q0 31 39 62q32 27 91 55.5t116 38.5q66 0 114 -39q58 -45 58 -144zM387 621v208q-86 -32 -131 -57q-33 -19 -47 -41t-14 -57q0 -44 29 -72.5t63 -28.5q27 0 55.5 14.5t44.5 33.5z" />
    <glyph glyph-name="guillemotleft" unicode="&#xab;" horiz-adv-x="817" 
d="M418 113l-43 -33q-175 259 -291 387q121 140 293 387l41 -29l-172 -358zM725 113l-43 -33q-175 259 -291 387q126 146 291 387l43 -29l-172 -358z" />
    <glyph glyph-name="logicalnot" unicode="&#xac;" horiz-adv-x="1267" 
d="M104 815h1061v-596h-116v500h-945v96z" />
    <glyph glyph-name="registered" unicode="&#xae;" horiz-adv-x="1015" 
d="M508 1333h2q181 0 301.5 -122.5t120.5 -299.5q0 -176 -121 -299t-303 -123t-303 123t-121 299q0 177 121 299.5t303 122.5zM510 1268h-2q-142 0 -239 -103.5t-97 -253.5q0 -152 96.5 -253t241.5 -101q143 0 240.5 101t97.5 253q0 150 -98 253.5t-240 103.5zM367 778v260
q0 45 -10.5 55.5t-53.5 12.5v35h215q44 0 78.5 -9t61 -37.5t26.5 -74.5q0 -41 -27.5 -73t-70.5 -46q17 -33 59 -102q32 -46 51 -68q23 -23 39 -31l6 -2l-6 -28h-30q-45 3 -73 18t-52 51q-11 15 -66 115q-13 23 -39 23h-24v-99q0 -46 9.5 -56t53.5 -13v-35h-213v35
q45 3 55.5 13.5t10.5 55.5zM451 1073v-160h41q33 0 55 13q41 25 41 80q0 51 -28.5 73.5t-63.5 22.5q-34 -2 -39.5 -5.5t-5.5 -23.5z" />
    <glyph glyph-name="macron" unicode="&#xaf;" horiz-adv-x="819" 
d="M182 1210h457v-104h-457v104z" />
    <glyph glyph-name="macron" unicode="&#x2c9;" horiz-adv-x="819" 
d="M182 1210h457v-104h-457v104z" />
    <glyph glyph-name="degree" unicode="&#xb0;" horiz-adv-x="663" 
d="M330 1333h2q110 0 189 -78t79 -200q0 -126 -79 -202.5t-191 -76.5t-191.5 76.5t-79.5 202.5q0 122 80 200t191 78zM332 1251h-2q-70 0 -115 -54t-45 -142q0 -89 46 -143t116 -54q73 0 118.5 54t45.5 143q0 88 -45.5 142t-118.5 54z" />
    <glyph glyph-name="plusminus" unicode="&#xb1;" horiz-adv-x="1267" 
d="M102 96h1061v-96h-1061v96zM102 793h473v434h117v-434h471v-97h-471v-460h-117v460h-473v97z" />
    <glyph glyph-name="twosuperior" unicode="&#xb2;" horiz-adv-x="624" 
d="M532 504h-485v37q10 10 52.5 51t64.5 64.5t63 67.5t64.5 77.5t49.5 76t38 82.5t12 78q0 81 -36.5 121.5t-98.5 40.5q-28 0 -51.5 -9.5t-44.5 -29t-33 -34t-31 -40.5l-37 31l66 94q72 88 186 88q93 0 155 -62t62 -167q0 -78 -46 -149t-154 -183l-121 -123v-4h201
q52 0 72.5 13.5t49.5 70.5l41 -8q-24 -101 -39 -184z" />
    <glyph glyph-name="threesuperior" unicode="&#xb3;" horiz-adv-x="624" 
d="M305 1300h2q88 0 141.5 -47.5t53.5 -115.5q0 -45 -37 -82q-36 -32 -88 -56v-4q83 -22 127.5 -75.5t44.5 -128.5q0 -56 -26.5 -106.5t-67.5 -85t-89 -60.5t-91.5 -38t-75.5 -12q-71 0 -123 41q-26 26 -17 52q11 28 33 47q19 19 43 2q64 -60 150 -62q57 0 95 47t38 132
q0 87 -44 129.5t-110 42.5q-48 0 -90 -17l-10 41q205 67 205 168q0 49 -28.5 75.5t-74.5 26.5q-83 0 -143 -102l-37 25l59 92q26 30 70 50.5t90 20.5z" />
    <glyph glyph-name="acute" unicode="&#xb4;" horiz-adv-x="819" 
d="M330 1010l198 319q14 24 31.5 26t36.5 -12l33 -22q49 -32 -2 -80l-260 -258z" />
    <glyph glyph-name="mu" unicode="&#xb5;" horiz-adv-x="948" 
d="M145 229v666h142v-543q0 -143 46.5 -202.5t115.5 -59.5q30 0 59 10.5t59.5 34.5t50.5 75t23 122v563h141v-688q0 -113 47 -117q42 0 60 66l47 -17q-13 -75 -56 -119.5t-100 -44.5q-55 0 -92.5 42.5t-44.5 129.5h-4q-25 -72 -84.5 -122t-126.5 -50q-123 0 -170 119l-4 -2
l20 -545l-120 -59l-25 16q2 81 9 344.5t7 380.5z" />
    <glyph glyph-name="mu" unicode="&#x3bc;" horiz-adv-x="948" 
d="M145 229v666h142v-543q0 -143 46.5 -202.5t115.5 -59.5q30 0 59 10.5t59.5 34.5t50.5 75t23 122v563h141v-688q0 -113 47 -117q42 0 60 66l47 -17q-13 -75 -56 -119.5t-100 -44.5q-55 0 -92.5 42.5t-44.5 129.5h-4q-25 -72 -84.5 -122t-126.5 -50q-123 0 -170 119l-4 -2
l20 -545l-120 -59l-25 16q2 81 9 344.5t7 380.5z" />
    <glyph glyph-name="paragraph" unicode="&#xb6;" horiz-adv-x="962" 
d="M508 1309h383l8 -27l-55 -45l-168 -20v-1000q0 -126 -29.5 -213.5t-99.5 -171.5q-35 -42 -91 -75t-73 -33q-82 0 -141 51q-10 12 -12.5 28.5t3.5 26.5q12 21 31 45q23 23 39 10q61 -41 119 -41q26 0 46 6t41 26t34.5 54t22.5 94.5t9 143.5v340l-133 -64q-6 -6 -30 -6
q-41 0 -93 30t-100.5 81t-81.5 132t-33 171q0 94 34 180t89 146q59 59 137 95t144 36z" />
    <glyph glyph-name="periodcentered" unicode="&#xb7;" horiz-adv-x="448" 
d="M223 408h-2q-44 0 -74 31.5t-30 82.5q0 49 30.5 82t75.5 33q46 0 77.5 -33t31.5 -82q0 -51 -31 -82.5t-78 -31.5z" />
    <glyph glyph-name="periodcentered" unicode="&#x2219;" horiz-adv-x="448" 
d="M223 408h-2q-44 0 -74 31.5t-30 82.5q0 49 30.5 82t75.5 33q46 0 77.5 -33t31.5 -82q0 -51 -31 -82.5t-78 -31.5z" />
    <glyph glyph-name="cedilla" unicode="&#xb8;" horiz-adv-x="819" 
d="M418 0h67l-47 -68q-14 -21 -10 -37t27 -40q39 -43 55 -75.5t16 -68.5q0 -57 -57 -114t-154 -95l-26 43q57 28 88 65.5t31 72.5q0 9 -2 17.5t-8 18.5t-8.5 14t-12 16t-10.5 13q-36 41 -41.5 66.5t20.5 69.5z" />
    <glyph glyph-name="onesuperior" unicode="&#xb9;" horiz-adv-x="624" 
d="M262 668v432q0 64 -9 77.5t-54 16.5l-58 4v37q129 18 244 65v-632q0 -42 4 -64t20.5 -35.5t35.5 -17.5t63 -8v-39h-369v39q44 4 63 8t35.5 17.5t20.5 35.5t4 64z" />
    <glyph glyph-name="ordmasculine" unicode="&#xba;" horiz-adv-x="667" 
d="M322 1047h-3q-52 0 -88 -60.5t-36 -163.5q0 -128 41 -205t108 -77q129 0 129 223q0 124 -40.5 203.5t-110.5 79.5zM336 1098h2q115 0 190.5 -86.5t73.5 -208.5q1 -145 -78.5 -229.5t-183.5 -84.5q-87 0 -152 44.5t-96 110.5t-31 140q0 76 25.5 138t66.5 99.5t88.5 57
t94.5 19.5z" />
    <glyph glyph-name="guillemotright" unicode="&#xbb;" horiz-adv-x="806" 
d="M127 80l-43 33l172 354l-172 358l43 29q165 -241 291 -387q-116 -128 -291 -387zM434 80l-43 33l172 354l-172 358l43 29q165 -241 291 -387q-116 -128 -291 -387z" />
    <glyph glyph-name="onequarter" unicode="&#xbc;" horiz-adv-x="1474" 
d="M1243 799v-500h115v-76h-115v-71q0 -69 19.5 -88t87.5 -25v-39h-361v39q87 6 110 24.5t23 88.5v71h-319v43q150 234 366 533h74zM1122 299v336h-4q-123 -173 -215 -336h219zM1081 1341l64 -34l-729 -1358l-58 39zM254 668v432q0 63 -9.5 78t-54.5 16l-57 4v37
q129 18 244 65v-632q0 -77 21.5 -97t101.5 -28v-39h-369v39q80 8 101.5 28t21.5 97z" />
    <glyph glyph-name="onehalf" unicode="&#xbd;" horiz-adv-x="1474" 
d="M1059 1341l61 -34l-727 -1358l-59 39zM248 668v432q0 63 -9.5 77t-54.5 17l-57 4v37q129 18 244 65v-632q0 -42 4 -64t20.5 -35.5t35.5 -17.5t63 -8v-39h-369v39q44 4 63 8t35.5 17.5t20.5 35.5t4 64zM1352 0h-488v37q8 8 45.5 44.5t56 54.5t56 57.5t58 66t49 66t44 71
t26.5 68.5t11 70q0 79 -36.5 120t-98.5 41q-52 0 -89 -31t-71 -83l-36 32l65 95q72 88 186 88q93 0 155.5 -62.5t62.5 -167.5q0 -78 -46 -148t-155 -183l-121 -123v-4h201q53 0 74 13.5t49 70.5l41 -9q-24 -101 -39 -184z" />
    <glyph glyph-name="threequarters" unicode="&#xbe;" horiz-adv-x="1474" 
d="M1249 799v-500h115v-76h-115v-71q0 -69 19.5 -88t87.5 -25v-39h-361v39q87 6 110 24.5t23 88.5v71h-319v43q169 258 367 533h73zM1128 299v336h-4q-123 -173 -215 -336h219zM1092 1341l61 -34l-725 -1358l-59 39zM336 1300h2q88 0 141 -47.5t53 -115.5q0 -46 -36 -82
q-34 -31 -86 -56v-4q83 -22 127.5 -75.5t44.5 -128.5q0 -56 -26.5 -106.5t-67.5 -85t-89.5 -60.5t-92 -38t-75.5 -12q-70 0 -122 41q-26 26 -17 52q11 28 33 47q19 19 43 2q64 -60 149 -62q57 0 95.5 47t38.5 132q0 87 -44 129.5t-110 42.5q-43 0 -92 -17l-10 41
q204 67 204 168q0 49 -28 75.5t-74 26.5q-83 0 -143 -102l-37 25l59 92q26 30 70 50.5t90 20.5z" />
    <glyph glyph-name="questiondown" unicode="&#xbf;" horiz-adv-x="616" 
d="M360 -455h-2q-107 0 -195.5 99.5t-88.5 220.5q0 53 18 93t64 85q10 10 50 44.5t67.5 60.5t52 65.5t24.5 73.5q0 49 -20.5 88t-63.5 84l31 39q65 -29 131 -104t66 -154q0 -52 -33 -105.5t-113 -124.5q-3 -3 -30 -25t-35.5 -29.5t-31 -28.5t-31.5 -34.5t-22.5 -33.5
t-18.5 -39t-5 -39q0 -53 30.5 -83t78.5 -30q39 0 75.5 13t57 29t37.5 29t22 13q17 0 44.5 -26t27.5 -56q0 -29 -37 -61q-35 -29 -79.5 -46.5t-70.5 -17.5zM328 905h2q45 0 76.5 -33t31.5 -84q0 -50 -31.5 -82t-78.5 -32q-45 0 -77 32t-32 82q0 51 32 84t77 33z" />
    <glyph glyph-name="Agrave" unicode="&#xc0;" horiz-adv-x="1161" 
d="M717 481h-348q-58 -192 -76 -276q-22 -94 -1 -123t122 -39v-43h-387v43q44 6 67.5 14t45.5 33.5t37 62t40 109.5l348 1053l47 18l115 -379q99 -326 219 -704q42 -127 75 -162.5t114 -44.5v-43h-430v43q88 10 108 33t2 86q-2 8 -20 67t-39.5 128t-38.5 124zM391 557h301
l-145 498h-4q-27 -91 -78 -256.5t-74 -241.5zM637 1376l-340 135q-50 19 -18 60l22 35q32 46 78 12l283 -207z" />
    <glyph glyph-name="Aacute" unicode="&#xc1;" horiz-adv-x="1161" 
d="M717 481h-348q-58 -192 -76 -276q-22 -94 -1 -123t122 -39v-43h-387v43q44 6 67.5 14t45.5 33.5t37 62t40 109.5l348 1053l47 18l115 -379q99 -326 219 -704q42 -127 75 -162.5t114 -44.5v-43h-430v43q88 10 108 33t2 86q-2 8 -20 67t-39.5 128t-38.5 124zM391 557h301
l-145 498h-4q-27 -91 -78 -256.5t-74 -241.5zM883 1511l-340 -135l-25 35l283 207q46 34 78 -14l22 -33q29 -41 -18 -60z" />
    <glyph glyph-name="Acircumflex" unicode="&#xc2;" horiz-adv-x="1161" 
d="M717 481h-348q-58 -192 -76 -276q-22 -94 -1 -123t122 -39v-43h-387v43q44 6 67.5 14t45.5 33.5t37 62t40 109.5l348 1053l47 18l115 -379q99 -326 219 -704q42 -127 75 -162.5t114 -44.5v-43h-430v43q88 10 108 33t2 86q-2 8 -20 67t-39.5 128t-38.5 124zM391 557h301
l-145 498h-4q-27 -91 -78 -256.5t-74 -241.5zM567 1636h41q85 -101 234 -225l-25 -35q-123 56 -231 129q-104 -71 -230 -129l-26 35q110 85 237 225z" />
    <glyph glyph-name="Atilde" unicode="&#xc3;" horiz-adv-x="1161" 
d="M717 481h-348q-58 -192 -76 -276q-22 -94 -1 -123t122 -39v-43h-387v43q44 6 67.5 14t45.5 33.5t37 62t40 109.5l348 1053l47 18l115 -379q99 -326 219 -704q42 -127 75 -162.5t114 -44.5v-43h-430v43q88 10 108 33t2 86q-2 8 -20 67t-39.5 128t-38.5 124zM391 557h301
l-145 498h-4q-27 -91 -78 -256.5t-74 -241.5zM485 1579h2q43 0 121 -37q6 -2 21 -8.5t20.5 -8.5t17 -6t18.5 -5.5t16 -3t18 -1.5q55 0 96 78l39 -18q-27 -88 -69.5 -123t-88.5 -35q-9 0 -18.5 1t-20 4l-17.5 5t-19.5 7l-17.5 7t-19.5 8.5t-18.5 8.5q-69 27 -100 27
q-49 0 -94 -82l-39 24q33 84 73 121t80 37z" />
    <glyph glyph-name="Adieresis" unicode="&#xc4;" horiz-adv-x="1161" 
d="M717 481h-350q-51 -170 -74 -276q-22 -94 -1 -123t120 -39v-43h-385v43q44 6 67.5 14t45.5 33.5t37 62t40 109.5l346 1053l47 18l115 -379q143 -459 221 -704q42 -127 75 -162.5t114 -44.5v-43h-430v43q88 10 108 33t2 86q-2 8 -20 67t-39.5 128t-38.5 124zM391 557h301
l-145 498h-4q-27 -91 -78 -256.5t-74 -241.5zM762 1386h-2q-40 0 -66 27t-26 68q0 39 27 67.5t67 28.5q37 0 63.5 -29t26.5 -67q0 -41 -26.5 -68t-63.5 -27zM410 1386h-2q-39 0 -66 27t-27 68q0 39 28 67.5t67 28.5q38 0 65 -28.5t27 -67.5q0 -41 -26.5 -68t-65.5 -27z" />
    <glyph glyph-name="Aring" unicode="&#xc5;" horiz-adv-x="1161" 
d="M715 481h-348q-4 -15 -20 -71.5t-31 -112t-23 -92.5q-22 -94 -1 -123t120 -39v-43h-385v43q44 6 67.5 14t45.5 33.5t37 62t40 109.5l346 1053l47 18l115 -379q61 -197 221 -704q42 -127 75 -162.5t114 -44.5v-43h-433v43q89 10 110 33t3 86q-70 228 -100 319zM391 557
h301l-145 498h-4q-27 -91 -78 -256.5t-74 -241.5zM588 1708h2q71 0 124.5 -48.5t53.5 -123.5q0 -80 -53.5 -128t-126.5 -48t-126.5 48t-53.5 128q0 75 54 123.5t126 48.5zM592 1645h-2q-41 0 -66.5 -31.5t-25.5 -77.5q0 -48 26 -80.5t68 -32.5q41 0 66.5 32.5t25.5 80.5
q0 46 -25.5 77.5t-66.5 31.5z" />
    <glyph glyph-name="AE" unicode="&#xc6;" horiz-adv-x="1540" 
d="M768 256v391h-293q-138 -299 -196 -459q-29 -80 -9 -104.5t123 -38.5v-45h-409v45q80 14 115.5 44t86.5 134q226 451 426 877q32 67 39 95.5t-5 40.5t-52 17l-78 9l2 47h877q9 -157 20 -281l-49 -6q-26 121 -72 170q-49 55 -190 55h-135q-38 0 -46 -9t-8 -52v-467h168
q49 0 76.5 3.5t48 10t31.5 25t18 40t15 64.5h49v-366h-49q-20 102 -50.5 126.5t-138.5 24.5h-168v-385q0 -77 9.5 -117.5t33.5 -58.5q24 -17 61 -21t116 -4q167 0 221 68q52 61 96 186l49 -8q-7 -43 -29 -156.5t-32 -150.5h-850v43q44 4 70.5 8t48.5 14.5t32 22.5t17 38
t8.5 54t1.5 76zM508 719h260v522h-6q-107 -214 -254 -522z" />
    <glyph glyph-name="Ccedilla" unicode="&#xc7;" horiz-adv-x="1042" 
d="M948 319l49 -12q-37 -144 -86 -293q-125 -32 -215 -37l-32 -45q-14 -21 -10.5 -37t26.5 -40q39 -44 55.5 -76t16.5 -68q0 -57 -57 -114t-154 -95l-27 45q56 28 87.5 66t31.5 72q0 31 -41 77q-36 41 -41.5 66.5t20.5 69.5l54 77q-111 2 -203 40.5t-153.5 101.5t-104 148
t-61.5 178t-19 192q0 314 169 506t437 192q119 0 250 -35q14 -130 31 -290l-49 -7q-38 144 -104 207.5t-171 63.5q-94 0 -169 -49t-120.5 -133.5t-69.5 -191.5t-24 -228q0 -184 46 -328t130 -224.5t193 -80.5q108 0 179 71.5t136 210.5z" />
    <glyph glyph-name="Egrave" unicode="&#xc8;" horiz-adv-x="1007" 
d="M231 242v825q0 123 -25 156t-130 43v43h788q11 -185 21 -281l-51 -6q-21 113 -70 172q-47 53 -193 53h-135q-38 0 -45.5 -9t-7.5 -52v-467h168q41 0 66 1.5t46 8t31.5 14t20 26.5t14.5 38t12 55h50v-366h-50q-20 103 -50.5 127t-139.5 24h-168v-397q0 -131 43 -164
q17 -12 44.5 -17.5t52 -6.5t79.5 -1q169 0 225 68q53 66 95 186l49 -8q-37 -210 -62 -307h-858v43q44 4 71 8t49 14t32.5 21.5t17.5 35.5t8.5 49.5t1.5 70.5zM584 1376l-340 135q-50 20 -17 62l21 33q34 45 78 12l282 -205z" />
    <glyph glyph-name="Eacute" unicode="&#xc9;" horiz-adv-x="1007" 
d="M231 242v825q0 123 -25 156t-130 43v43h788q11 -185 21 -281l-51 -6q-21 113 -70 172q-47 53 -193 53h-135q-38 0 -45.5 -9t-7.5 -52v-467h168q41 0 66 1.5t46 8t31.5 14t20 26.5t14.5 38t12 55h50v-366h-50q-20 103 -50.5 127t-139.5 24h-168v-397q0 -131 43 -164
q17 -12 44.5 -17.5t52 -6.5t79.5 -1q169 0 225 68q53 66 95 186l49 -8q-37 -210 -62 -307h-858v43q44 4 71 8t49 14t32.5 21.5t17.5 35.5t8.5 49.5t1.5 70.5zM799 1511l-340 -135l-25 37l283 205q46 34 78 -14l22 -31q33 -43 -18 -62z" />
    <glyph glyph-name="Ecircumflex" unicode="&#xca;" horiz-adv-x="1007" 
d="M231 242v825q0 123 -25 156t-130 43v43h788q11 -185 21 -281l-51 -6q-21 113 -70 172q-47 53 -193 53h-135q-38 0 -45.5 -9t-7.5 -52v-467h168q41 0 66 1.5t46 8t31.5 14t20 26.5t14.5 38t12 55h50v-366h-50q-20 103 -50.5 127t-139.5 24h-168v-397q0 -131 43 -164
q17 -12 44.5 -17.5t52 -6.5t79.5 -1q169 0 225 68q53 66 95 186l49 -8q-37 -210 -62 -307h-858v43q44 4 71 8t49 14t32.5 21.5t17.5 35.5t8.5 49.5t1.5 70.5zM510 1636h41q94 -110 233 -225l-24 -35q-130 58 -232 131q-102 -72 -229 -131l-27 35q114 87 238 225z" />
    <glyph glyph-name="Edieresis" unicode="&#xcb;" horiz-adv-x="1007" 
d="M231 242v825q0 123 -25 156t-130 43v43h788q11 -185 21 -281l-51 -6q-21 113 -70 172q-47 53 -193 53h-135q-38 0 -45.5 -9t-7.5 -52v-467h168q41 0 66 1.5t46 8t31.5 14t20 26.5t14.5 38t12 55h50v-366h-50q-20 103 -50.5 127t-139.5 24h-168v-397q0 -131 43 -164
q17 -12 44.5 -17.5t52 -6.5t79.5 -1q169 0 225 68q53 66 95 186l49 -8q-37 -210 -62 -307h-858v43q44 4 71 8t49 14t32.5 21.5t17.5 35.5t8.5 49.5t1.5 70.5zM694 1386h-2q-40 0 -66 27t-26 68q0 39 27 67.5t67 28.5q37 0 63.5 -29t26.5 -67q0 -41 -26.5 -68t-63.5 -27z
M342 1386h-2q-39 0 -65.5 27t-26.5 68q0 39 27.5 67.5t66.5 28.5q38 0 65 -28.5t27 -67.5q0 -41 -26.5 -68t-65.5 -27z" />
    <glyph glyph-name="Igrave" unicode="&#xcc;" horiz-adv-x="616" 
d="M231 238v831q0 44 -1.5 69.5t-8 49t-15.5 35t-28.5 21.5t-43 14t-62.5 8v43h471v-43q-39 -4 -63 -8t-43.5 -14t-29 -21.5t-15.5 -35t-7.5 -49t-1.5 -69.5v-831q0 -44 1.5 -69.5t7.5 -49t15.5 -35t29 -21t43.5 -13.5t63 -7v-43h-471v43q39 3 62.5 7t43 13.5t28.5 21
t15.5 35t8 49t1.5 69.5zM360 1376l-337 135q-54 20 -19 62l23 33q32 46 77 12l281 -205z" />
    <glyph glyph-name="Iacute" unicode="&#xcd;" horiz-adv-x="616" 
d="M231 238v831q0 44 -1.5 69.5t-8 49t-15.5 35t-28.5 21.5t-43 14t-62.5 8v43h471v-43q-39 -4 -63 -8t-43.5 -14t-29 -21.5t-15.5 -35t-7.5 -49t-1.5 -69.5v-831q0 -44 1.5 -69.5t7.5 -49t15.5 -35t29 -21t43.5 -13.5t63 -7v-43h-471v43q39 3 62.5 7t43 13.5t28.5 21
t15.5 35t8 49t1.5 69.5zM600 1511l-338 -135l-26 37l282 205q46 34 78 -14l22 -31q33 -43 -18 -62z" />
    <glyph glyph-name="Icircumflex" unicode="&#xce;" horiz-adv-x="616" 
d="M231 238v831q0 44 -1.5 69.5t-8 49t-15.5 35t-28.5 21.5t-43 14t-62.5 8v43h471v-43q-39 -4 -63 -8t-43.5 -14t-29 -21.5t-15.5 -35t-7.5 -49t-1.5 -69.5v-831q0 -44 1.5 -69.5t7.5 -49t15.5 -35t29 -21t43.5 -13.5t63 -7v-43h-471v43q39 3 62.5 7t43 13.5t28.5 21
t15.5 35t8 49t1.5 69.5zM289 1636h41q97 -114 235 -225l-26 -35q-121 55 -232 131q-98 -71 -227 -131l-27 35q113 89 236 225z" />
    <glyph glyph-name="Idieresis" unicode="&#xcf;" horiz-adv-x="616" 
d="M231 238v831q0 44 -1.5 69.5t-8 49t-15.5 35t-28.5 21.5t-43 14t-62.5 8v43h471v-43q-39 -4 -63 -8t-43.5 -14t-29 -21.5t-15.5 -35t-7.5 -49t-1.5 -69.5v-831q0 -44 1.5 -69.5t7.5 -49t15.5 -35t29 -21t43.5 -13.5t63 -7v-43h-471v43q39 3 62.5 7t43 13.5t28.5 21
t15.5 35t8 49t1.5 69.5zM485 1386h-2q-40 0 -66 27t-26 68q0 39 27 67.5t67 28.5q37 0 63.5 -29t26.5 -67q0 -41 -26.5 -68t-63.5 -27zM133 1386h-2q-39 0 -65.5 27t-26.5 68q0 39 27.5 67.5t66.5 28.5q38 0 65 -28.5t27 -67.5q0 -41 -26.5 -68t-65.5 -27z" />
    <glyph glyph-name="Eth" unicode="&#xd0;" horiz-adv-x="1230" 
d="M248 256v389h-185v74h185v332q0 134 -25 169.5t-129 45.5v43h404q340 0 497 -168q152 -166 152 -441q0 -347 -201 -532q-183 -168 -514 -168h-350v43q41 4 65.5 8t45 14.5t30 22.5t16 37.5t8 53.5t1.5 77zM399 1182v-463h283v-74h-283v-379q0 -115 25 -156.5t113 -41.5
q146 0 245.5 79.5t145 215.5t45.5 321q0 372 -211 500q-104 67 -262 67q-63 0 -86 -10q-15 -12 -15 -59z" />
    <glyph glyph-name="Ntilde" unicode="&#xd1;" horiz-adv-x="1243" 
d="M229 492v493q0 106 -4.5 139.5t-27.5 65.5q-25 37 -61.5 53.5t-96.5 22.5v43h264l651 -1004h4v512q0 178 -16 330q-7 58 -49.5 86t-130.5 33v43h434v-43q-69 -3 -105.5 -32t-43.5 -87q-15 -143 -15 -330v-831h-61l-664 1052h-4v-546q0 -210 16 -328q8 -58 48.5 -86.5
t128.5 -34.5v-43h-433v43q71 4 107.5 33.5t44.5 87.5q14 103 14 328zM532 1579h3q39 0 120 -37q6 -2 21 -8.5t20.5 -8.5t17 -6t18.5 -5.5t16 -3t18 -1.5q55 0 96 78l39 -18q-27 -88 -69.5 -123t-88.5 -35q-11 0 -23 2t-20.5 4t-22.5 7t-21 8t-23.5 10.5t-22.5 9.5
q-66 27 -100 27q-49 0 -94 -82l-37 24q33 84 73 121t80 37z" />
    <glyph glyph-name="Ograve" unicode="&#xd2;" horiz-adv-x="1163" 
d="M600 1333h2q96 0 183.5 -48.5t153 -134t104 -210t38.5 -268.5q0 -316 -142 -506.5t-364 -190.5q-141 0 -253.5 87t-175 239t-62.5 340q0 103 20 201.5t62 188t101.5 156.5t145.5 106.5t187 39.5zM559 1270h-2q-138 0 -214.5 -148.5t-76.5 -425.5q0 -300 88 -478.5
t256 -178.5q142 0 217.5 142t75.5 419q0 327 -86 498.5t-258 171.5zM655 1374l-338 137q-50 19 -18 60l23 35q32 46 77 12l281 -207z" />
    <glyph glyph-name="Oacute" unicode="&#xd3;" horiz-adv-x="1163" 
d="M600 1333h2q96 0 183.5 -48.5t153 -134t104 -210t38.5 -268.5q0 -316 -142 -506.5t-364 -190.5q-141 0 -253.5 87t-175 239t-62.5 340q0 103 20 201.5t62 188t101.5 156.5t145.5 106.5t187 39.5zM559 1270h-2q-138 0 -214.5 -148.5t-76.5 -425.5q0 -300 88 -478.5
t256 -178.5q142 0 217.5 142t75.5 419q0 327 -86 498.5t-258 171.5zM858 1511l-338 -137l-24 37l280 207q46 34 80 -14l21 -33q32 -41 -19 -60z" />
    <glyph glyph-name="Ocircumflex" unicode="&#xd4;" horiz-adv-x="1163" 
d="M600 1333h2q96 0 183.5 -48.5t153 -134t104 -210t38.5 -268.5q0 -316 -142 -506.5t-364 -190.5q-141 0 -253.5 87t-175 239t-62.5 340q0 103 20 201.5t62 188t101.5 156.5t145.5 106.5t187 39.5zM559 1270h-2q-138 0 -214.5 -148.5t-76.5 -425.5q0 -300 88 -478.5
t256 -178.5q142 0 217.5 142t75.5 419q0 327 -86 498.5t-258 171.5zM565 1636h41q85 -101 234 -225l-25 -37q-118 56 -231 131q-103 -70 -228 -131l-26 37q110 86 235 225z" />
    <glyph glyph-name="Otilde" unicode="&#xd5;" horiz-adv-x="1163" 
d="M600 1333h2q96 0 183.5 -48.5t153 -134t104 -210t38.5 -268.5q0 -316 -142 -506.5t-364 -190.5q-141 0 -253.5 87t-175 239t-62.5 340q0 103 20 201.5t62 188t101.5 156.5t145.5 106.5t187 39.5zM559 1270h-2q-138 0 -214.5 -148.5t-76.5 -425.5q0 -300 88 -478.5
t256 -178.5q142 0 217.5 142t75.5 419q0 327 -86 498.5t-258 171.5zM477 1579h2q43 0 121 -37q6 -2 21 -8.5t20.5 -8.5t17 -6t18.5 -5.5t16 -3t18 -1.5q56 0 94 78l39 -18q-48 -158 -156 -158q-11 0 -23 2t-20.5 4t-22.5 7t-21 8t-23.5 10.5t-22.5 9.5q-66 27 -98 27
q-50 0 -95 -82l-38 24q33 84 73 121t80 37z" />
    <glyph glyph-name="Odieresis" unicode="&#xd6;" horiz-adv-x="1163" 
d="M600 1333h2q96 0 183.5 -48.5t153 -134t104 -210t38.5 -268.5q0 -316 -142 -506.5t-364 -190.5q-141 0 -253.5 87t-175 239t-62.5 340q0 103 20 201.5t62 188t101.5 156.5t145.5 106.5t187 39.5zM559 1270h-2q-138 0 -214.5 -148.5t-76.5 -425.5q0 -300 88 -478.5
t256 -178.5q142 0 217.5 142t75.5 419q0 327 -86 498.5t-258 171.5zM760 1386h-2q-40 0 -66 27t-26 68q0 39 27 67.5t67 28.5q37 0 63.5 -29t26.5 -67q0 -41 -26.5 -68t-63.5 -27zM408 1386h-2q-39 0 -66 27t-27 68q0 39 28 67.5t67 28.5q38 0 65 -28.5t27 -67.5
q0 -41 -26.5 -68t-65.5 -27z" />
    <glyph glyph-name="multiply" unicode="&#xd7;" horiz-adv-x="1267" 
d="M1149 1001l-440 -452l440 -451l-76 -78l-440 451l-440 -451l-72 78l436 451l-436 448l72 78l440 -450l440 452z" />
    <glyph glyph-name="Oslash" unicode="&#xd8;" horiz-adv-x="1165" 
d="M336 252l446 899q-80 119 -225 119q-139 0 -218 -149t-79 -425q0 -268 76 -444zM821 1075l-446 -899q86 -139 233 -139q143 0 219 141t76 420q0 169 -19 282t-63 195zM827 1257l82 158l62 -33l-88 -172q94 -89 146 -228t52 -310q0 -314 -143.5 -505.5t-364.5 -191.5
q-134 0 -256 84l-73 -147l-54 39l78 155q-88 91 -137 229.5t-49 303.5q0 104 19.5 203t61.5 188t101.5 156.5t145 107t186.5 39.5q119 0 231 -76z" />
    <glyph glyph-name="Ugrave" unicode="&#xd9;" horiz-adv-x="1241" 
d="M217 494v577q0 44 -1.5 69t-8 48.5t-15.5 34t-29.5 20.5t-44.5 14t-65 9v43h471v-43q-38 -4 -60.5 -8.5t-42 -14t-28.5 -20.5t-15 -34t-7.5 -48.5t-1.5 -69.5v-498q-1 -92 7 -164t28 -136t53.5 -106.5t85.5 -66.5t121 -24q90 0 152 44.5t94.5 127.5t45.5 181.5t11 225.5
v154q0 214 -17 344q-8 54 -46 80t-128 33v43h432v-43q-75 -7 -110 -33.5t-41 -79.5q-17 -130 -17 -344v-225q0 -172 -30 -288t-99 -198q-55 -62 -133.5 -92.5t-159.5 -30.5q-166 0 -270 88q-68 62 -99.5 167t-31.5 264zM700 1376l-338 135q-51 19 -18 62l23 33
q17 24 34.5 27t42.5 -15l283 -205z" />
    <glyph glyph-name="Uacute" unicode="&#xda;" horiz-adv-x="1241" 
d="M217 494v577q0 44 -1.5 69t-8 48.5t-15.5 34t-29.5 20.5t-44.5 14t-65 9v43h471v-43q-38 -4 -60.5 -8.5t-42 -14t-28.5 -20.5t-15 -34t-7.5 -48.5t-1.5 -69.5v-498q-1 -92 7 -164t28 -136t53.5 -106.5t85.5 -66.5t121 -24q90 0 152 44.5t94.5 127.5t45.5 181.5t11 225.5
v154q0 214 -17 344q-8 54 -46 80t-128 33v43h432v-43q-75 -7 -110 -33.5t-41 -79.5q-17 -130 -17 -344v-225q0 -172 -30 -288t-99 -198q-55 -62 -133.5 -92.5t-159.5 -30.5q-166 0 -270 88q-68 62 -99.5 167t-31.5 264zM946 1511l-340 -135l-24 37l282 205q46 34 78 -14
l23 -31q33 -43 -19 -62z" />
    <glyph glyph-name="Ucircumflex" unicode="&#xdb;" horiz-adv-x="1241" 
d="M217 494v577q0 44 -1.5 69t-8 48.5t-15.5 34t-29.5 20.5t-44.5 14t-65 9v43h471v-43q-38 -4 -60.5 -8.5t-42 -14t-28.5 -20.5t-15 -34t-7.5 -48.5t-1.5 -69.5v-498q-1 -92 7 -164t28 -136t53.5 -106.5t85.5 -66.5t121 -24q90 0 152 44.5t94.5 127.5t45.5 181.5t11 225.5
v154q0 214 -17 344q-8 54 -46 80t-128 33v43h432v-43q-75 -7 -110 -33.5t-41 -79.5q-17 -130 -17 -344v-225q0 -172 -30 -288t-99 -198q-55 -62 -133.5 -92.5t-159.5 -30.5q-166 0 -270 88q-68 62 -99.5 167t-31.5 264zM635 1636h39q98 -112 235 -225l-24 -35
q-124 55 -232 131q-102 -72 -229 -131l-27 35q114 87 238 225z" />
    <glyph glyph-name="Udieresis" unicode="&#xdc;" horiz-adv-x="1241" 
d="M217 494v577q0 44 -1.5 69t-8 48.5t-15.5 34t-29.5 20.5t-44.5 14t-65 9v43h473v-43q-46 -5 -71 -11.5t-44.5 -17.5t-27 -33.5t-11 -51.5t-3.5 -81v-498q-1 -91 7 -163.5t28.5 -136.5t54 -106.5t86 -66.5t121.5 -24q72 0 126 30.5t87.5 81.5t54 127t27.5 157.5t6 182.5
v154q0 214 -17 344q-8 54 -46 80t-128 33v43h432v-43q-75 -7 -110 -33.5t-41 -79.5q-17 -130 -17 -344v-225q0 -172 -30 -288t-99 -198q-54 -62 -132 -92.5t-158 -30.5q-167 0 -273 88q-68 62 -99.5 167t-31.5 264zM840 1386h-2q-40 0 -66.5 27t-26.5 68q0 39 27.5 67.5
t67.5 28.5q37 0 63.5 -29t26.5 -67q0 -41 -26.5 -68t-63.5 -27zM489 1386h-2q-39 0 -65.5 27t-26.5 68q0 39 27.5 67.5t66.5 28.5q38 0 65.5 -28.5t27.5 -67.5q0 -41 -27 -68t-66 -27z" />
    <glyph glyph-name="Yacute" unicode="&#xdd;" horiz-adv-x="1077" 
d="M457 236v288q0 24 -1 36t-8 33.5t-22 53.5q-88 189 -221 453q-50 101 -78 127.5t-100 38.5v43h419v-43q-95 -13 -112.5 -32t8.5 -77q106 -228 231 -477q135 281 195 438q33 86 14.5 112t-123.5 36v43h392v-43q-35 -6 -58 -13.5t-39 -16t-33 -30.5t-28 -40t-35 -62
q-81 -141 -223 -445q-18 -36 -22.5 -57t-4.5 -57v-309q0 -44 1.5 -69t8.5 -48.5t17.5 -34.5t32.5 -20.5t49 -13.5t71 -7v-43h-501v43q43 3 68.5 7t46.5 14t30.5 20.5t16 34.5t7.5 48.5t1 68.5zM874 1511l-339 -135l-25 37l283 205q23 18 42 15t37 -29l21 -31q33 -43 -19 -62
z" />
    <glyph glyph-name="Thorn" unicode="&#xde;" horiz-adv-x="1003" 
d="M231 250v803q0 50 -1 76.5t-7 53t-15 37.5t-28.5 21.5t-43.5 14.5t-64 8v45h471v-43q-42 -5 -65 -9t-43.5 -16t-28.5 -24t-14.5 -43t-7.5 -62.5t-1 -91.5h147q189 0 295.5 -78.5t106.5 -247.5q0 -80 -28 -145t-72.5 -105.5t-102 -68t-112.5 -38.5t-109 -11l-125 26v-102
q0 -48 1.5 -75t8 -52t16 -37t30.5 -22t46.5 -14t67.5 -7v-43h-481v43q39 3 62.5 7t43 14t28.5 22t15.5 37t8 52.5t1.5 74.5zM383 899v-485q52 -23 115 -23q133 0 199.5 73.5t66.5 209.5q0 289 -277 289q-59 0 -90 -9q-14 -8 -14 -55z" />
    <glyph glyph-name="germandbls" unicode="&#xdf;" horiz-adv-x="985" 
d="M188 199v618h-122l-13 25l49 53h86v33q0 107 21 172q36 141 145 239q105 92 226 107q130 -2 208.5 -77.5t81.5 -219.5q0 -89 -57 -162q-170 -109 -170 -209q0 -26 9.5 -50.5t33.5 -53t41.5 -46.5t56.5 -55q32 -32 51.5 -54.5t44 -58t36.5 -76t12 -85.5
q0 -72 -31.5 -135.5t-79.5 -104.5t-102 -64.5t-101 -23.5q-72 0 -127 37q-37 28 -28 64q11 26 37 49q20 14 45 -8q55 -58 129 -58q20 0 39 6.5t41 22t35.5 50t13.5 83.5q0 128 -135 246q-154 138 -154 239q0 49 28.5 93t98.5 114q73 73 94 125q12 46 12 66q0 115 -58 189.5
t-150 74.5q-45 0 -79 -18.5t-56.5 -54.5t-37 -79.5t-21.5 -104.5t-9.5 -117t-1.5 -128v-663q0 -93 17.5 -121t82.5 -35v-43h-371v43q87 9 108 34.5t21 121.5z" />
    <glyph glyph-name="agrave" unicode="&#xe0;" horiz-adv-x="825" 
d="M666 666v-455q0 -115 53 -115q29 0 69 21l21 -41l-166 -101q-49 8 -77.5 46.5t-37.5 82.5q-188 -129 -233 -129q-94 0 -157.5 75t-63.5 171q0 72 34 121.5t107 83.5q28 13 102 41.5t131 53.5t78 44l2 68q-2 98 -42 150.5t-117 52.5q-59 0 -95 -52q-32 -42 -49 -122
q-9 -41 -51 -41q-27 0 -54.5 22t-27.5 51q0 38 60 88q44 37 123 78.5t159 59.5q99 0 158 -56q74 -62 74 -198zM526 170v328q-22 -12 -106 -49t-101 -46q-51 -33 -72.5 -64.5t-21.5 -84.5q0 -75 41.5 -119.5t93.5 -44.5q40 0 86 23t80 57zM266 1329l197 -319l-37 -27
l-260 258q-50 47 -2 80l33 22q21 15 37 13t32 -27z" />
    <glyph glyph-name="aacute" unicode="&#xe1;" horiz-adv-x="825" 
d="M666 666v-455q0 -115 53 -115q29 0 69 21l21 -41l-166 -101q-49 8 -77.5 46.5t-37.5 82.5q-188 -129 -233 -129q-94 0 -157.5 75t-63.5 171q0 72 34 121.5t107 83.5q28 13 102 41.5t131 53.5t78 44l2 68q-2 98 -42 150.5t-117 52.5q-59 0 -95 -52q-32 -42 -49 -122
q-9 -41 -51 -41q-27 0 -54.5 22t-27.5 51q0 38 60 88q44 37 123 78.5t159 59.5q99 0 158 -56q74 -62 74 -198zM526 170v328q-22 -12 -106 -49t-101 -46q-51 -33 -72.5 -64.5t-21.5 -84.5q0 -75 41.5 -119.5t93.5 -44.5q40 0 86 23t80 57zM367 1010l198 319q16 24 33 26
t35 -12l35 -22q48 -33 -2 -80l-260 -258z" />
    <glyph glyph-name="acircumflex" unicode="&#xe2;" horiz-adv-x="825" 
d="M666 666v-455q0 -115 53 -115q29 0 69 21l21 -41l-166 -101q-49 8 -77.5 46.5t-37.5 82.5q-188 -129 -233 -129q-94 0 -157.5 75t-63.5 171q0 72 34 121.5t107 83.5q28 13 102 41.5t131 53.5t78 44l2 68q-2 98 -42 150.5t-117 52.5q-59 0 -95 -52q-32 -42 -49 -122
q-9 -41 -51 -41q-27 0 -54.5 22t-27.5 51q0 38 60 88q44 37 123 78.5t159 59.5q99 0 158 -56q74 -62 74 -198zM526 170v328q-22 -12 -106 -49t-101 -46q-51 -33 -72.5 -64.5t-21.5 -84.5q0 -75 41.5 -119.5t93.5 -44.5q40 0 86 23t80 57zM381 1362h49q71 -162 180 -346
l-43 -31q-115 145 -161 219q-45 -66 -166 -219l-45 31q104 165 186 346z" />
    <glyph glyph-name="atilde" unicode="&#xe3;" horiz-adv-x="825" 
d="M666 666v-455q0 -115 53 -115q29 0 69 21l21 -41l-166 -101q-49 8 -77.5 46.5t-37.5 82.5q-188 -129 -233 -129q-94 0 -157.5 75t-63.5 171q0 72 34 121.5t107 83.5q28 13 102 41.5t131 53.5t78 44l2 68q-2 98 -42 150.5t-117 52.5q-59 0 -95 -52q-32 -42 -49 -122
q-9 -41 -51 -41q-27 0 -54.5 22t-27.5 51q0 38 60 88q44 37 123 78.5t159 59.5q99 0 158 -56q74 -62 74 -198zM526 170v328q-22 -12 -106 -49t-101 -46q-51 -33 -72.5 -64.5t-21.5 -84.5q0 -75 41.5 -119.5t93.5 -44.5q40 0 86 23t80 57zM303 1229h2q42 0 123 -37
q83 -33 113 -33q52 0 94 80l39 -22q-27 -86 -69 -122t-87 -36q-47 0 -135 43q-63 26 -100 26q-53 0 -97 -84l-36 27q31 84 72 121t81 37z" />
    <glyph glyph-name="adieresis" unicode="&#xe4;" horiz-adv-x="825" 
d="M666 666v-455q0 -115 53 -115q29 0 69 21l21 -41l-166 -101q-49 8 -77.5 46.5t-37.5 82.5q-188 -129 -233 -129q-94 0 -157.5 75t-63.5 171q0 72 34 121.5t107 83.5q28 13 102 41.5t131 53.5t78 44l2 68q-2 98 -42 150.5t-117 52.5q-59 0 -95 -52q-32 -42 -49 -122
q-9 -41 -51 -41q-27 0 -54.5 22t-27.5 51q0 38 60 88q44 37 123 78.5t159 59.5q99 0 158 -56q74 -62 74 -198zM526 170v328q-22 -12 -106 -49t-101 -46q-51 -33 -72.5 -64.5t-21.5 -84.5q0 -75 41.5 -119.5t93.5 -44.5q40 0 86 23t80 57zM575 1040h-2q-40 0 -66 26.5
t-26 68.5q0 39 26.5 66.5t67.5 27.5q37 0 64 -28t27 -66q0 -42 -26.5 -68.5t-64.5 -26.5zM254 1040h-2q-40 0 -66 26.5t-26 68.5q0 39 26.5 66.5t67.5 27.5q37 0 63.5 -28t26.5 -66q0 -42 -26 -68.5t-64 -26.5z" />
    <glyph glyph-name="aring" unicode="&#xe5;" horiz-adv-x="825" 
d="M666 666v-455q0 -115 53 -115q29 0 69 21l21 -41l-166 -101q-49 8 -77.5 46.5t-37.5 82.5q-188 -129 -233 -129q-94 0 -157.5 75t-63.5 171q0 72 34 121.5t107 83.5q28 13 102 41.5t131 53.5t78 44l2 68q-3 203 -159 203q-59 0 -95 -52q-33 -48 -49 -122q-9 -41 -51 -41
q-27 0 -54.5 22t-27.5 51q0 40 60 88q47 37 125 78.5t157 59.5q99 0 158 -56q74 -62 74 -198zM526 170v328q-22 -12 -106 -49t-101 -46q-51 -33 -72.5 -64.5t-21.5 -84.5q0 -75 41.5 -119.5t93.5 -44.5q40 0 86 23t80 57zM420 1364h2q71 0 125.5 -49t54.5 -125
q0 -78 -54.5 -127t-127.5 -49q-75 0 -129.5 48.5t-54.5 127.5q0 77 54.5 125.5t129.5 48.5zM422 1303h-2q-42 0 -68 -32t-26 -79q0 -52 26 -84.5t70 -32.5q42 0 68 32.5t26 84.5q0 47 -26 79t-68 32z" />
    <glyph glyph-name="ae" unicode="&#xe6;" horiz-adv-x="1218" 
d="M365 96h2q41 0 93 31t99 88q-38 102 -35 285q-166 -73 -200 -94q-53 -28 -76 -63t-23 -89q0 -73 40.5 -115.5t99.5 -42.5zM526 563v70q0 96 -41 149.5t-118 53.5q-54 0 -95 -52q-24 -35 -47 -125q-6 -41 -49 -41q-27 0 -54.5 23.5t-27.5 52.5q0 37 60 88
q49 39 122.5 79.5t149.5 58.5q84 0 139 -39q49 -37 76 -103q56 65 125.5 103.5t134.5 38.5q114 0 193.5 -91.5t79.5 -207.5q0 -40 -7.5 -52t-33.5 -20q-21 -5 -170.5 -15t-307.5 -16q-1 -90 15 -162t43.5 -118.5t65 -77t77.5 -43.5t84 -13q113 0 195 95l30 -35
q-68 -98 -148.5 -143.5t-135.5 -45.5q-97 0 -173 50t-122 137l-62 -56q-162 -131 -227 -131q-92 0 -156.5 75t-64.5 171q0 74 33 123t104 80q33 15 104.5 43t126.5 52.5t82 43.5zM858 850h-2q-71 0 -126 -68.5t-66 -191.5q146 3 317 6q18 0 26.5 11t8.5 42q0 82 -43.5 141.5
t-114.5 59.5z" />
    <glyph glyph-name="ccedilla" unicode="&#xe7;" horiz-adv-x="768" 
d="M702 213l33 -35q-44 -64 -106.5 -118t-118.5 -72l-35 -54q-14 -22 -10 -37.5t27 -41.5q39 -43 55 -75.5t16 -68.5q0 -58 -56 -113.5t-155 -93.5l-24 43q55 30 85.5 67.5t30.5 70.5q0 31 -41 77q-36 42 -41 68t21 68l53 79h-8q-69 3 -127 27.5t-99 65t-70 94t-42.5 113.5
t-13.5 124q0 236 174 394q73 67 151.5 96t133.5 29q39 0 86 -14.5t73 -39.5q28 -25 23 -61q-2 -26 -24.5 -57t-41.5 -31q-13 0 -28 18q-80 90 -191 90q-39 0 -74.5 -18t-66.5 -55t-49 -103t-19 -153q-1 -110 25 -191t68 -123t85 -61t86 -19q63 0 109 23t106 88z" />
    <glyph glyph-name="egrave" unicode="&#xe8;" horiz-adv-x="786" 
d="M469 920h2q109 0 188.5 -92.5t79.5 -204.5q0 -36 -9 -49t-36 -21q-17 -2 -81.5 -7.5t-178.5 -12.5t-221 -11q-1 -112 24 -196.5t68.5 -131.5t94 -69.5t106.5 -22.5q103 0 192 97l29 -37q-47 -67 -107.5 -112t-104 -60t-75.5 -15q-111 0 -195.5 59.5t-127.5 157.5t-43 218
t42.5 226t116.5 177q53 50 115.5 78.5t120.5 28.5zM424 850h-2q-69 0 -127.5 -69.5t-69.5 -186.5q53 1 163 3t163 3q21 0 29 11.5t8 39.5q2 83 -42 141t-122 58zM283 1329l198 -319l-39 -27l-258 258q-52 46 -4 80l35 22q19 15 36.5 13t31.5 -27z" />
    <glyph glyph-name="eacute" unicode="&#xe9;" horiz-adv-x="786" 
d="M469 920h2q109 0 188.5 -92.5t79.5 -204.5q0 -36 -9 -49t-36 -21q-17 -2 -81.5 -7.5t-178.5 -12.5t-221 -11q-1 -112 24 -196.5t68.5 -131.5t94 -69.5t106.5 -22.5q103 0 192 97l29 -37q-47 -67 -107.5 -112t-104 -60t-75.5 -15q-111 0 -195.5 59.5t-127.5 157.5t-43 218
t42.5 226t116.5 177q53 50 115.5 78.5t120.5 28.5zM424 850h-2q-69 0 -127.5 -69.5t-69.5 -186.5q53 1 163 3t163 3q21 0 29 11.5t8 39.5q2 83 -42 141t-122 58zM393 1010l197 319q16 25 32.5 27t34.5 -13l35 -22q48 -33 -2 -80l-260 -258z" />
    <glyph glyph-name="ecircumflex" unicode="&#xea;" horiz-adv-x="786" 
d="M469 920h2q109 0 188.5 -92.5t79.5 -204.5q0 -36 -9 -49t-36 -21q-17 -2 -81.5 -7.5t-178.5 -12.5t-221 -11q-1 -112 24 -196.5t68.5 -131.5t94 -69.5t106.5 -22.5q103 0 192 97l29 -37q-47 -67 -107.5 -112t-104 -60t-75.5 -15q-111 0 -195.5 59.5t-127.5 157.5t-43 218
t42.5 226t116.5 177q53 50 115.5 78.5t120.5 28.5zM424 850h-2q-69 0 -127.5 -69.5t-69.5 -186.5q53 1 163 3t163 3q21 0 29 11.5t8 39.5q2 83 -42 141t-122 58zM420 1362h49q74 -170 182 -346l-45 -31q-119 151 -162 219q-57 -87 -165 -219l-43 31q105 171 184 346z" />
    <glyph glyph-name="edieresis" unicode="&#xeb;" horiz-adv-x="786" 
d="M469 920h2q109 0 188.5 -92.5t79.5 -204.5q0 -36 -9 -49t-36 -21q-17 -2 -81.5 -7.5t-178.5 -12.5t-221 -11q-1 -112 24 -196.5t68.5 -131.5t94 -69.5t106.5 -22.5q103 0 192 97l29 -37q-47 -67 -107.5 -112t-104 -60t-75.5 -15q-111 0 -195.5 59.5t-127.5 157.5t-43 218
t42.5 226t116.5 177q53 50 115.5 78.5t120.5 28.5zM424 850h-2q-69 0 -127.5 -69.5t-69.5 -186.5q53 1 163 3t163 3q21 0 29 11.5t8 39.5q2 83 -42 141t-122 58zM598 1040h-2q-40 0 -66 26.5t-26 68.5q0 39 26.5 66.5t67.5 27.5q37 0 63.5 -28t26.5 -66q0 -42 -26 -68.5
t-64 -26.5zM276 1040h-2q-40 0 -66 26.5t-26 68.5q0 39 26.5 66.5t67.5 27.5q37 0 64 -28t27 -66q0 -42 -26.5 -68.5t-64.5 -26.5z" />
    <glyph glyph-name="igrave" unicode="&#xec;" horiz-adv-x="487" 
d="M188 209v430q0 39 -0.5 57t-5 38.5t-9.5 27.5t-20.5 16t-31 12.5t-47.5 10.5v37q139 30 256 84v-713q0 -102 20.5 -129t108.5 -37v-43h-398v43q86 10 106.5 37t20.5 129zM92 1329l197 -319l-37 -27l-260 258q-53 47 -2 80l33 22q21 14 38 12t31 -26z" />
    <glyph glyph-name="iacute" unicode="&#xed;" horiz-adv-x="487" 
d="M188 209v430q0 39 -0.5 57t-5 38.5t-9.5 27.5t-20.5 16t-31 12.5t-47.5 10.5v37q139 30 256 84v-713q0 -102 20.5 -129t108.5 -37v-43h-398v43q86 10 106.5 37t20.5 129zM174 1010l197 319q16 24 33 26t36 -12l33 -22q49 -32 -2 -80l-260 -258z" />
    <glyph glyph-name="icircumflex" unicode="&#xee;" horiz-adv-x="487" 
d="M188 209v430q0 39 -0.5 57t-5 38.5t-9.5 27.5t-20.5 16t-31 12.5t-47.5 10.5v37q139 30 256 84v-713q0 -102 20.5 -129t108.5 -37v-43h-398v43q86 10 106.5 37t20.5 129zM221 1360h49q73 -164 183 -344l-47 -31q-110 139 -160 219q-44 -68 -164 -219l-45 31
q103 168 184 344z" />
    <glyph glyph-name="idieresis" unicode="&#xef;" horiz-adv-x="487" 
d="M188 209v430q0 39 -0.5 57t-5 38.5t-9.5 27.5t-20.5 16t-31 12.5t-47.5 10.5v37q139 30 256 84v-713q0 -102 20.5 -129t108.5 -37v-43h-398v43q86 10 106.5 37t20.5 129zM408 1040h-2q-40 0 -66.5 26.5t-26.5 68.5q0 39 27 66.5t68 27.5q37 0 63.5 -28t26.5 -66
q0 -42 -26 -68.5t-64 -26.5zM86 1040h-2q-40 0 -67 26.5t-27 68.5q0 39 27.5 66.5t68.5 27.5q37 0 63.5 -28t26.5 -66q0 -42 -26 -68.5t-64 -26.5z" />
    <glyph glyph-name="eth" unicode="&#xf0;" horiz-adv-x="884" 
d="M440 858h-2q-87 0 -143.5 -95t-56.5 -253q0 -210 61 -341.5t166 -131.5q34 0 61 11.5t52 40.5t42 76t27.5 121.5t11.5 172.5q2 160 -7 224.5t-42 98.5q-36 39 -75 57.5t-95 18.5zM451 920h2q107 0 174 -62q-58 208 -138 305l-239 -145l-27 55l228 139q-63 74 -143 122
t-150 61q-8 10 -5.5 27t15.5 24q83 -8 183.5 -56t180.5 -124l216 133l30 -53l-198 -123q32 -41 51 -68q86 -122 132 -279.5t46 -322.5q0 -143 -31.5 -256.5t-84.5 -182t-118 -104t-137 -35.5q-108 0 -194 70t-129 173.5t-43 213.5q0 118 36.5 214.5t94 154t122 88.5
t126.5 31z" />
    <glyph glyph-name="ntilde" unicode="&#xf1;" horiz-adv-x="987" 
d="M188 203v446q0 37 -0.5 54.5t-5 36.5t-9.5 25.5t-20 15t-30.5 11.5l-46.5 9v39q132 29 254 84v-146q47 39 123 88q83 54 147 54q110 0 170.5 -75.5t60.5 -201.5v-440q0 -96 18.5 -123t94.5 -37v-43h-377v43q84 10 103.5 39.5t19.5 140.5v365q0 109 -36.5 166t-129.5 57
q-92 0 -194 -102v-506q0 -97 18 -123.5t94 -36.5v-43h-389v43q92 10 113.5 36.5t21.5 123.5zM387 1229h2q42 0 123 -37q82 -33 113 -33q52 0 94 80l41 -22q-27 -87 -69.5 -122.5t-88.5 -35.5q-47 0 -135 43q-63 26 -100 26q-53 0 -97 -84l-39 27q33 84 74.5 121t81.5 37z
" />
    <glyph glyph-name="ograve" unicode="&#xf2;" horiz-adv-x="909" 
d="M434 858h-2q-90 0 -141 -94t-51 -264q0 -210 61.5 -336.5t177.5 -126.5q95 0 144 86t49 293q0 128 -22.5 224t-77 157t-138.5 61zM457 920h2q166 0 270.5 -132t104.5 -327q0 -116 -33 -211t-87.5 -153.5t-121 -90t-137.5 -31.5q-88 0 -162 39.5t-120.5 103.5t-72.5 143
t-26 161q0 100 23.5 184t62 141t88.5 97t103 58t106 18zM309 1329l197 -319l-37 -27l-260 258q-51 48 -2 80l33 22q21 14 37 12t32 -26z" />
    <glyph glyph-name="oacute" unicode="&#xf3;" horiz-adv-x="909" 
d="M434 858h-2q-90 0 -141 -94t-51 -264q0 -210 61.5 -336.5t177.5 -126.5q95 0 144 86t49 293q0 128 -22.5 224t-77 157t-138.5 61zM457 920h2q166 0 270.5 -132t104.5 -327q0 -116 -33 -211t-87.5 -153.5t-121 -90t-137.5 -31.5q-88 0 -162 39.5t-120.5 103.5t-72.5 143
t-26 161q0 100 23.5 184t62 141t88.5 97t103 58t106 18zM412 1010l198 319q24 42 68 14l35 -22q48 -34 -4 -80l-258 -258z" />
    <glyph glyph-name="ocircumflex" unicode="&#xf4;" horiz-adv-x="909" 
d="M434 858h-2q-90 0 -141 -94t-51 -264q0 -210 61.5 -336.5t177.5 -126.5q95 0 144 86t49 293q0 128 -22.5 224t-77 157t-138.5 61zM457 920h2q166 0 270.5 -132t104.5 -327q0 -116 -33 -211t-87.5 -153.5t-121 -90t-137.5 -31.5q-88 0 -162 39.5t-120.5 103.5t-72.5 143
t-26 161q0 100 23.5 184t62 141t88.5 97t103 58t106 18zM434 1362h49q71 -164 183 -346l-48 -31q-105 133 -159 219q-66 -97 -166 -219l-45 31q104 165 186 346z" />
    <glyph glyph-name="otilde" unicode="&#xf5;" horiz-adv-x="909" 
d="M434 858h-2q-90 0 -141 -94t-51 -264q0 -210 61.5 -336.5t177.5 -126.5q95 0 144 86t49 293q0 128 -22.5 224t-77 157t-138.5 61zM457 920h2q166 0 270.5 -132t104.5 -327q0 -116 -33 -211t-87.5 -153.5t-121 -90t-137.5 -31.5q-88 0 -162 39.5t-120.5 103.5t-72.5 143
t-26 161q0 100 23.5 184t62 141t88.5 97t103 58t106 18zM348 1229h2q42 0 123 -37q5 -2 21 -8.5t21 -8.5t17 -6t19 -5.5t16.5 -3t18.5 -1.5q52 0 94 80l41 -22q-27 -86 -70.5 -122t-89.5 -36q-45 0 -133 43q-63 26 -100 26q-54 0 -95 -84l-40 27q34 84 74.5 121t80.5 37z
" />
    <glyph glyph-name="odieresis" unicode="&#xf6;" horiz-adv-x="909" 
d="M434 858h-2q-90 0 -141 -94t-51 -264q0 -210 61.5 -336.5t177.5 -126.5q95 0 144 86t49 293q0 128 -22.5 224t-77 157t-138.5 61zM457 920h2q166 0 270.5 -132t104.5 -327q0 -116 -33 -211t-87.5 -153.5t-121 -90t-137.5 -31.5q-88 0 -162 39.5t-120.5 103.5t-72.5 143
t-26 161q0 100 23.5 184t62 141t88.5 97t103 58t106 18zM618 1040h-2q-40 0 -66 26.5t-26 68.5q0 39 26.5 66.5t67.5 27.5q37 0 64 -28t27 -66q0 -42 -26.5 -68.5t-64.5 -26.5zM295 1040h-2q-40 0 -66 26.5t-26 68.5q0 39 26.5 66.5t67.5 27.5q37 0 63.5 -28t26.5 -66
q0 -42 -26 -68.5t-64 -26.5z" />
    <glyph glyph-name="divide" unicode="&#xf7;" horiz-adv-x="1267" 
d="M635 352h2q38 0 69 -30t31 -72q0 -41 -31.5 -72t-70.5 -31q-43 0 -74 31t-31 72q0 42 31 72t74 30zM637 780h-2q-38 0 -69 30.5t-31 72.5q0 41 31.5 71.5t70.5 30.5q43 0 73.5 -30.5t30.5 -71.5q0 -43 -30.5 -73t-73.5 -30zM104 614h1059v-96h-1059v96z" />
    <glyph glyph-name="oslash" unicode="&#xf8;" horiz-adv-x="909" 
d="M285 205l317 561q-64 92 -168 92q-89 0 -143.5 -96.5t-54.5 -265.5q0 -180 49 -291zM635 694l-318 -559q54 -97 162 -100q61 1 102.5 33.5t68 119t26.5 228.5q0 173 -41 278zM643 864l78 133l55 -32l-80 -140q140 -134 140 -364q0 -116 -33 -211t-87 -153.5t-121 -90
t-138 -31.5q-105 0 -191 60l-82 -141l-51 38l82 144q-66 65 -102.5 157.5t-36.5 188.5q0 123 35.5 222t92.5 157t122 88.5t131 30.5q103 0 186 -56z" />
    <glyph glyph-name="ugrave" unicode="&#xf9;" horiz-adv-x="968" 
d="M670 193v514q0 61 -15 83t-53 27l-72 12v41q136 7 281 39v-710q0 -66 14 -84t64 -21l51 -2v-45q-97 -14 -256 -72l-14 13v137q-57 -52 -140 -105q-74 -45 -137 -45q-100 0 -160.5 69t-60.5 214v449q0 62 -12.5 82t-48.5 28l-48 12v43q91 5 256 37q-6 -123 -6 -295v-303
q0 -223 152 -223q106 0 205 105zM319 1329l197 -319l-37 -27l-260 258q-51 48 -2 80l33 22q21 14 37 12t32 -26z" />
    <glyph glyph-name="uacute" unicode="&#xfa;" horiz-adv-x="968" 
d="M670 193v514q0 61 -15 83t-53 27l-72 12v41q136 7 281 39v-710q0 -66 14 -84t64 -21l51 -2v-45q-97 -14 -256 -72l-14 13v137q-57 -52 -140 -105q-74 -45 -137 -45q-100 0 -160.5 69t-60.5 214v449q0 62 -12.5 82t-48.5 28l-48 12v43q91 5 256 37q-6 -123 -6 -295v-303
q0 -223 152 -223q106 0 205 105zM426 1010l199 319q16 24 32.5 26t34.5 -12l35 -22q48 -33 -2 -80l-260 -258z" />
    <glyph glyph-name="ucircumflex" unicode="&#xfb;" horiz-adv-x="968" 
d="M670 193v514q0 61 -15 83t-53 27l-72 12v41q136 7 281 39v-710q0 -66 14 -84t64 -21l51 -2v-45q-97 -14 -256 -72l-14 13v137q-57 -52 -140 -105q-74 -45 -137 -45q-100 0 -160.5 69t-60.5 214v449q0 62 -12.5 82t-48.5 28l-48 12v43q91 5 256 37q-6 -123 -6 -295v-303
q0 -223 152 -223q106 0 205 105zM461 1360h49q66 -149 182 -344l-45 -31q-107 136 -162 217q-54 -80 -166 -217l-43 31q107 174 185 344z" />
    <glyph glyph-name="udieresis" unicode="&#xfc;" horiz-adv-x="968" 
d="M670 193v514q0 61 -15 83t-53 27l-72 12v41q136 7 281 39v-710q0 -66 14 -84t64 -21l51 -2v-45q-97 -14 -256 -72l-14 13v137q-57 -52 -140 -105q-74 -45 -137 -45q-100 0 -160.5 69t-60.5 214v449q0 62 -12.5 82t-48.5 28l-48 12v43q91 5 256 37q-6 -123 -6 -295v-303
q0 -223 152 -223q106 0 205 105zM653 1040h-2q-40 0 -66 26.5t-26 68.5q0 39 26.5 66.5t67.5 27.5q37 0 63.5 -28t26.5 -66q0 -42 -26 -68.5t-64 -26.5zM330 1040h-2q-40 0 -66 26.5t-26 68.5q0 39 26.5 66.5t67.5 27.5q37 0 63.5 -28t26.5 -66q0 -42 -26 -68.5t-64 -26.5z
" />
    <glyph glyph-name="yacute" unicode="&#xfd;" horiz-adv-x="837" 
d="M6 895h365v-43q-65 -9 -79 -32.5t7 -78.5l160 -512q96 259 166 512q10 34 7 55.5t-26.5 34.5t-77.5 21v43h328v-43q-67 -17 -91 -41t-60 -106q-50 -115 -226 -592q-151 -427 -184 -572q-12 -53 -64 -53q-39 0 -72.5 28t-33.5 64q0 13 7.5 26t15.5 21t28 27q83 71 137 188
q42 82 54 135q12 50 2 89q-74 237 -209 630q-29 89 -54 116t-100 40v43zM420 1010l198 319q14 25 31.5 27t36.5 -13l33 -22q49 -32 -2 -80l-260 -258z" />
    <glyph glyph-name="thorn" unicode="&#xfe;" horiz-adv-x="927" 
d="M135 -285v1413q0 38 -0.5 56t-6 38t-11.5 26.5t-23.5 15t-36 11l-55.5 7.5v43q116 14 274 70v-598q48 26 193 106q34 17 68 17q59 0 111 -22.5t88.5 -60.5t63 -87t39.5 -102.5t13 -106.5q0 -115 -35.5 -213.5t-98 -169t-145.5 -117.5t-180 -66q-61 5 -117 39v-284
q0 -58 4 -86.5t23.5 -48.5t48 -26.5t88.5 -12.5v-43h-434v43q89 10 109 35.5t20 123.5zM276 731v-573q28 -38 76 -60t107 -22q47 0 87.5 18t76.5 57t56.5 112.5t20.5 174.5q0 184 -64 276.5t-181 92.5q-84 0 -179 -76z" />
    <glyph glyph-name="ydieresis" unicode="&#xff;" horiz-adv-x="837" 
d="M6 895h365v-43q-65 -9 -79 -32.5t7 -78.5l160 -512q96 259 166 512q10 34 7 55.5t-26.5 34.5t-77.5 21v43h328v-43q-67 -17 -91 -41t-60 -106q-50 -115 -226 -592q-151 -427 -184 -572q-12 -53 -64 -53q-39 0 -72.5 28t-33.5 64q0 13 7.5 26t15.5 21t28 27q83 71 137 188
q42 82 54 135q12 50 2 89q-74 237 -209 630q-29 89 -54 116t-100 40v43zM612 1040h-2q-40 0 -66 26.5t-26 68.5q0 39 26.5 66.5t67.5 27.5q37 0 63.5 -28t26.5 -66q0 -42 -26 -68.5t-64 -26.5zM291 1040h-2q-40 0 -66 26.5t-26 68.5q0 39 26.5 66.5t67.5 27.5q37 0 63.5 -28
t26.5 -66q0 -42 -26 -68.5t-64 -26.5z" />
    <glyph glyph-name="dotlessi" unicode="&#x131;" horiz-adv-x="487" 
d="M188 209v430q0 39 -0.5 57t-5 38.5t-9.5 27.5t-20.5 16t-31 12.5t-47.5 10.5v37q139 30 256 84v-713q0 -102 20.5 -129t108.5 -37v-43h-398v43q86 10 106.5 37t20.5 129z" />
    <glyph glyph-name="Lslash" unicode="&#x141;" horiz-adv-x="1007" 
d="M623 879l-215 -177v-456q0 -133 41 -158q41 -27 161 -27q152 0 209 68q49 63 92 190l50 -10q-6 -41 -29 -155t-33 -154h-809v43q41 4 65.5 8t45 13.5t30 21t16 34.5t8 48.5t1.5 69.5v327l-174 -143v82l174 145v420q0 44 -1.5 69.5t-8 49t-16 35t-29.5 21.5t-44.5 14
t-64.5 8v43h481v-43q-41 -4 -66 -8t-45 -14t-29.5 -21t-15.5 -35t-7.5 -49t-1.5 -70v-283l215 181v-88z" />
    <glyph glyph-name="lslash" unicode="&#x142;" horiz-adv-x="497" 
d="M504 911l-180 -178v-536q0 -91 22 -117.5t109 -36.5v-43h-404v43q88 10 109.5 36t21.5 118v393l-159 -160v88l159 158v504q0 38 -0.5 56t-5.5 37.5t-10.5 26t-23 14.5t-34 11t-51.5 8v41q69 9 147.5 30t119.5 42v-627l180 178v-86z" />
    <glyph glyph-name="OE" unicode="&#x152;" horiz-adv-x="1632" 
d="M1008 1186v-467h168q41 0 65.5 1.5t45 8t31 14t20 26.5t14.5 38t12 55h49v-366h-49q-20 103 -50.5 127t-137.5 24h-168v-385q0 -77 9.5 -117.5t33.5 -58.5q17 -12 44.5 -17.5t52 -6.5t79.5 -1q169 0 223 68q51 64 94 186l49 -8q-40 -223 -61 -307h-571q-98 -3 -154 -8
q-77 -6 -125 -6q-186 0 -323.5 89t-206 236t-68.5 330q0 130 34.5 241.5t95 191.5t141.5 137t175 84.5t195 27.5q30 0 182 -10q70 -4 111 -4h469q9 -157 20 -281l-49 -6q-24 114 -72 172q-24 28 -67 40.5t-123 12.5h-135q-38 0 -45.5 -9t-7.5 -52zM856 203v938q0 43 -5.5 62
t-19.5 28q-45 26 -137 26q-205 0 -319.5 -156.5t-114.5 -434.5q0 -104 15 -194.5t49 -168.5t84 -134t123.5 -88t164.5 -32q57 0 111 21q27 14 38 43t11 90z" />
    <glyph glyph-name="oe" unicode="&#x153;" horiz-adv-x="1353" 
d="M446 920h3q91 0 165.5 -52t114.5 -141q56 88 137.5 140.5t165.5 52.5q114 0 195.5 -91t81.5 -208q0 -36 -8 -47t-35 -19q-24 -5 -175.5 -16.5t-308.5 -16.5q-1 -115 23 -199.5t67 -131t92.5 -68t106.5 -21.5q107 0 201 97l28 -37q-69 -98 -150.5 -142.5t-141.5 -44.5
q-91 0 -168 45.5t-121 124.5q-54 -83 -128.5 -126.5t-152.5 -43.5q-108 0 -192.5 67t-127 168.5t-42.5 213.5q0 124 34.5 222.5t90 156t118.5 87.5t127 30zM426 858h-2q-82 0 -132 -94t-50 -262q0 -209 60.5 -337t166.5 -128q86 0 133 88t47 293q0 129 -21 224.5
t-72.5 155.5t-129.5 60zM991 850h-2q-71 0 -127 -66t-69 -190q161 0 327 6q19 0 26 10.5t7 42.5q0 83 -43 140t-119 57z" />
    <glyph glyph-name="Scaron" unicode="&#x160;" horiz-adv-x="878" 
d="M78 340l49 10q11 -37 24.5 -72t40.5 -81t59.5 -79t82 -56t106.5 -23q104 0 163 68.5t59 183.5q0 105 -58.5 175.5t-171.5 135.5q-37 22 -50 29.5t-53.5 34.5t-60.5 45t-52 51.5t-47.5 63.5t-28.5 71.5t-13 85.5q0 147 102.5 248.5t274.5 101.5q36 0 73.5 -5.5t54 -9
t53.5 -15t38 -11.5q4 -43 16.5 -131t18.5 -133l-49 -10q-17 55 -31.5 90t-42.5 77t-70.5 63.5t-99.5 21.5q-95 0 -146 -63.5t-51 -157.5q0 -93 55 -156.5t166 -128.5q118 -68 166 -107q152 -123 152 -301q0 -167 -113 -274t-288 -107q-87 0 -162 23q-16 4 -117 41
q-7 27 -14.5 72.5t-18.5 120t-16 108.5zM479 1384h-37q-92 108 -235 226l24 37q121 -58 232 -134q108 76 229 134l25 -37q-117 -92 -238 -226z" />
    <glyph glyph-name="scaron" unicode="&#x161;" horiz-adv-x="722" 
d="M612 670l-43 -15q-73 203 -200 203q-52 0 -87.5 -37.5t-35.5 -99.5q0 -66 42.5 -108.5t121.5 -80.5q116 -56 175.5 -120t59.5 -158q0 -66 -28.5 -120.5t-74.5 -88.5t-100.5 -52t-109.5 -18q-66 0 -130 23.5t-96 52.5q-8 30 -16.5 106t-7.5 132l43 8q15 -62 48 -119.5
t85.5 -99t108.5 -41.5q60 0 98.5 37t38.5 110q0 69 -37.5 117.5t-118.5 89.5q-52 26 -86 47t-71 52.5t-55.5 71t-18.5 87.5q0 116 83.5 193.5t209.5 77.5q87 0 159 -35q12 -30 25.5 -102t17.5 -113zM406 997h-50q-76 170 -180 346l45 31q110 -139 160 -219q53 81 166 219
l43 -31q-99 -162 -184 -346z" />
    <glyph glyph-name="Ydieresis" unicode="&#x178;" horiz-adv-x="1077" 
d="M457 236v288q0 24 -1 36t-8 33.5t-22 53.5q-88 189 -221 453q-50 101 -78 127.5t-100 38.5v43h419v-43q-95 -13 -112.5 -32t8.5 -77q106 -228 231 -477q135 281 195 438q33 86 14.5 112t-123.5 36v43h392v-43q-35 -6 -58 -13.5t-39 -16t-33 -30.5t-28 -40t-35 -62
q-81 -141 -223 -445q-18 -36 -22.5 -57t-4.5 -57v-309q0 -44 1.5 -69t8.5 -48.5t17.5 -34.5t32.5 -20.5t49 -13.5t71 -7v-43h-501v43q43 3 68.5 7t46.5 14t30.5 20.5t16 34.5t7.5 48.5t1 68.5zM752 1386h-2q-40 0 -66.5 27t-26.5 68q0 39 27.5 67.5t67.5 28.5q37 0 63.5 -29
t26.5 -67q0 -41 -26.5 -68t-63.5 -27zM399 1386h-2q-39 0 -65.5 27t-26.5 68q0 39 27.5 67.5t66.5 28.5q38 0 65.5 -28.5t27.5 -67.5q0 -41 -27 -68t-66 -27z" />
    <glyph glyph-name="Zcaron" unicode="&#x17d;" horiz-adv-x="997" 
d="M293 1309h620l11 -21q-388 -692 -668 -1216q90 -11 258 -11q230 0 297 72q54 57 102 193l52 -13q-53 -267 -64 -313h-833l-15 25q418 749 674 1222h-231q-109 0 -160 -17.5t-76 -49.5q-42 -52 -70 -172h-47q3 50 11 172t10 178h35q18 -32 35.5 -40.5t58.5 -8.5zM543 1384
h-37q-95 114 -238 226l27 37q119 -53 231 -131q113 77 230 131l26 -37q-113 -82 -239 -226z" />
    <glyph glyph-name="zcaron" unicode="&#x17e;" horiz-adv-x="747" 
d="M258 895h420l12 -23q-54 -93 -119.5 -209.5t-101 -181.5t-122 -224.5t-107.5 -197.5h180q91 0 139.5 33t97.5 115l29 51l45 -18q-24 -94 -74 -240h-591l-13 23q133 225 453 813h-160q-84 0 -121.5 -30.5t-74.5 -111.5l-29 -55l-45 14q46 222 57 287h35q8 -24 26.5 -34
t63.5 -11zM424 997h-49q-82 177 -182 346l45 31q103 -130 161 -219q50 80 164 219l45 -31q-103 -163 -184 -346z" />
    <glyph glyph-name="florin" unicode="&#x192;" 
d="M168 758h180l17 102q38 226 163 354q112 119 226 119q37 0 75.5 -24t38.5 -54q0 -29 -21.5 -59t-43.5 -22q-82 59 -146 59q-52 0 -77 -49q-45 -72 -82 -426h217l-2 -64h-221l-58 -411q-47 -339 -201 -484q-53 -49 -90.5 -66.5t-76.5 -17.5q-38 0 -71.5 22t-33.5 46
q0 25 21 53.5t36 28.5q6 0 54.5 -21.5t74.5 -21.5q54 0 80 53q35 77 70 395l41 424h-170v64z" />
    <glyph glyph-name="circumflex" unicode="&#x2c6;" horiz-adv-x="819" 
d="M387 1360h49q75 -170 182 -344l-45 -31q-101 127 -161 217q-44 -65 -164 -217l-45 31q103 168 184 344z" />
    <glyph glyph-name="caron" unicode="&#x2c7;" horiz-adv-x="819" 
d="M434 999h-49q-75 170 -182 344l45 31q94 -114 162 -219q49 75 163 219l45 -31q-114 -186 -184 -344z" />
    <glyph glyph-name="breve" unicode="&#x2d8;" horiz-adv-x="819" 
d="M408 1042h-2q-96 0 -154.5 64t-58.5 207h51q9 -81 53.5 -122.5t110.5 -41.5q69 0 113.5 41t53.5 123h52q0 -143 -60 -207t-159 -64z" />
    <glyph glyph-name="dotaccent" unicode="&#x2d9;" horiz-adv-x="512" 
d="M258 1040h-2q-39 0 -65.5 26.5t-26.5 68.5q0 39 27.5 66.5t66.5 27.5q38 0 65 -28t27 -66q0 -42 -26.5 -68.5t-65.5 -26.5z" />
    <glyph glyph-name="ring" unicode="&#x2da;" horiz-adv-x="819" 
d="M412 1364h2q71 0 125.5 -49t54.5 -125q0 -78 -54.5 -127t-127.5 -49q-75 0 -130 48.5t-55 127.5q0 77 55 125.5t130 48.5zM414 1303h-2q-42 0 -68.5 -32t-26.5 -79q0 -52 26.5 -84.5t70.5 -32.5q42 0 68 32.5t26 84.5q0 47 -26 79t-68 32z" />
    <glyph glyph-name="ogonek" unicode="&#x2db;" horiz-adv-x="819" 
d="M489 61h70q-201 -180 -201 -313q0 -59 29.5 -91t75.5 -32q36 0 84 23l18 -41l-94 -68q-24 -18 -63 -18q-84 0 -125 52.5t-41 115.5q0 171 247 372z" />
    <glyph glyph-name="tilde" unicode="&#x2dc;" horiz-adv-x="819" 
d="M303 1229h2q43 0 121 -37q83 -33 113 -33q52 0 94 80l41 -22q-27 -87 -69.5 -122.5t-88.5 -35.5q-47 0 -135 43q-63 26 -98 26q-53 0 -97 -84l-39 27q33 84 74.5 121t81.5 37z" />
    <glyph glyph-name="hungarumlaut" unicode="&#x2dd;" horiz-adv-x="821" 
d="M102 1051l199 319q14 24 32.5 26t37.5 -12l32 -22q48 -34 -4 -80l-260 -258zM399 1010l199 319q14 24 31.5 26t36.5 -12l32 -22q49 -32 -2 -80l-260 -258z" />
    <glyph glyph-name="endash" unicode="&#x2013;" horiz-adv-x="1026" 
d="M102 520h822v-104h-822v104z" />
    <glyph glyph-name="emdash" unicode="&#x2014;" horiz-adv-x="2052" 
d="M102 518h1848v-104h-1848v104z" />
    <glyph glyph-name="quoteleft" unicode="&#x2018;" horiz-adv-x="440" 
d="M276 944h-2q-68 0 -127 61.5t-59 153.5q0 56 22 105t59.5 84t80.5 59t90 39l20 -47q-76 -36 -115.5 -81.5t-39.5 -109.5q0 -61 35.5 -97.5t91.5 -49.5q10 0 17 -9.5t7 -27.5q0 -37 -25 -58.5t-55 -21.5z" />
    <glyph glyph-name="quoteright" unicode="&#x2019;" horiz-adv-x="438" 
d="M164 1434h2q69 0 128.5 -62t59.5 -153q0 -107 -75 -181t-179 -106l-20 47q77 36 116.5 80.5t39.5 107.5t-36 99.5t-91 48.5q-25 4 -25 39q0 37 26 58.5t54 21.5z" />
    <glyph glyph-name="quotesinglbase" unicode="&#x201a;" horiz-adv-x="440" 
d="M164 274h2q70 0 131 -63t61 -156q0 -110 -76.5 -185.5t-181.5 -107.5l-22 50q160 73 160 192q0 63 -37.5 99.5t-94.5 50.5q-24 4 -24 39q0 38 26 59.5t56 21.5z" />
    <glyph glyph-name="quotedblleft" unicode="&#x201c;" horiz-adv-x="798" 
d="M279 944h-3q-68 0 -127 61.5t-59 153.5q0 56 22 105t59.5 84t80.5 59t90 39l20 -47q-76 -36 -115.5 -81.5t-39.5 -109.5q0 -62 36 -98t93 -49q22 0 22 -37t-25 -58.5t-54 -21.5zM633 944h-2q-68 0 -127.5 61.5t-59.5 153.5q0 56 22 105t59.5 84t80.5 59t90 39l21 -47
q-77 -36 -116.5 -81.5t-39.5 -109.5q0 -61 35.5 -97.5t91.5 -49.5q10 0 17.5 -9.5t7.5 -27.5q0 -37 -25 -58.5t-55 -21.5z" />
    <glyph glyph-name="quotedblright" unicode="&#x201d;" horiz-adv-x="800" 
d="M166 1434h2q69 0 128.5 -62t59.5 -153q0 -107 -75 -181t-179 -106l-20 47q77 36 116.5 80.5t39.5 107.5t-36 99.5t-91 48.5q-25 4 -25 39q0 37 26 58.5t54 21.5zM526 1434h2q69 0 129 -62t60 -153q0 -107 -75 -181t-179 -106l-21 47q77 36 116.5 80.5t39.5 107.5
t-36.5 99.5t-92.5 48.5q-23 5 -23 39q0 37 26 58.5t54 21.5z" />
    <glyph glyph-name="quotedblbase" unicode="&#x201e;" horiz-adv-x="798" 
d="M166 268h2q68 0 128 -62t60 -153q0 -107 -75 -180.5t-179 -105.5l-20 49q77 34 116.5 79t39.5 109q0 62 -36 98t-91 48q-25 4 -25 38q0 37 26 58.5t54 21.5zM528 268h2q68 0 128.5 -62t60.5 -153q0 -107 -75 -180.5t-179 -105.5l-21 49q77 34 116.5 79t39.5 109
q0 62 -36.5 98t-92.5 48q-22 4 -22 38q0 37 25 58.5t54 21.5z" />
    <glyph glyph-name="dagger" unicode="&#x2020;" horiz-adv-x="970" 
d="M528 -283h-86q4 74 4 244q0 186 -18 348.5t-45 229.5q62 138 68 278q-87 -1 -145 -19.5t-107 -54.5q-27 11 -60 41.5t-47 61.5q14 32 46 61t61 41q97 -68 252 -71q-5 112 -19.5 175.5t-56.5 145.5q18 41 49 78.5t61 56.5q31 -19 60.5 -55.5t48.5 -79.5
q-41 -83 -56.5 -147t-19.5 -174q158 3 252 71q29 -12 61 -41t46 -61q-14 -33 -46.5 -62t-60.5 -41q-94 71 -252 74q6 -137 72 -278q-26 -70 -46 -234t-20 -344q0 -170 4 -244z" />
    <glyph glyph-name="daggerdbl" unicode="&#x2021;" horiz-adv-x="970" 
d="M518 244v-6q167 5 256 73q27 -11 59 -41t46 -61q-14 -33 -46 -63t-59 -42q-90 69 -256 74q4 -117 19.5 -182t58.5 -150q-20 -40 -51 -76t-60 -55q-64 41 -110 131q43 85 58.5 150t19.5 182q-164 -5 -254 -74q-28 11 -60.5 42t-46.5 63q14 31 46.5 61t60.5 41
q89 -68 254 -73q-3 130 -18 199t-56 110q40 45 55.5 113.5t18.5 189.5q-164 -5 -254 -74q-28 11 -60.5 41.5t-46.5 61.5q14 32 46.5 62.5t60.5 41.5q90 -69 254 -74q-5 89 -20.5 149.5t-57.5 143.5q46 90 110 131q64 -39 111 -131q-42 -83 -57.5 -143.5t-20.5 -149.5
q166 5 256 74q27 -11 59 -41.5t46 -62.5q-14 -32 -46 -62t-59 -41q-90 69 -256 74q3 -120 19 -189t57 -114q-40 -41 -56.5 -110.5t-19.5 -192.5z" />
    <glyph glyph-name="bullet" unicode="&#x2022;" horiz-adv-x="591" 
d="M297 870h2q82 0 139.5 -59.5t57.5 -144.5q0 -86 -58 -145.5t-141 -59.5q-84 0 -142.5 59.5t-58.5 145.5q0 85 59 144.5t142 59.5z" />
    <glyph glyph-name="ellipsis" unicode="&#x2026;" horiz-adv-x="2029" 
d="M1014 -25h-2q-44 0 -74.5 32t-30.5 83q0 49 31 82t76 33q46 0 77 -33t31 -82q0 -52 -30.5 -83.5t-77.5 -31.5zM1690 -25h-2q-44 0 -74.5 32t-30.5 83q0 49 31 82t76 33q46 0 77 -33t31 -82q0 -52 -30.5 -83.5t-77.5 -31.5zM338 -25h-2q-44 0 -74.5 32t-30.5 83
q0 49 31 82t76 33q46 0 77 -33t31 -82q0 -52 -30.5 -83.5t-77.5 -31.5z" />
    <glyph glyph-name="perthousand" unicode="&#x2030;" horiz-adv-x="2035" 
d="M1065 729h2q66 0 119.5 -36.5t84 -94t46.5 -121t16 -125.5t-16 -125.5t-47 -121t-84.5 -94t-120.5 -36.5q-68 0 -122 36.5t-85 94t-47 120.5t-16 124q0 62 16 126t47 122t85 94.5t122 36.5zM1067 676h-2q-41 0 -69.5 -33.5t-41 -89t-17.5 -103.5t-5 -98q0 -51 5 -98.5
t17.5 -102.5t41.5 -88.5t71 -33.5t70.5 34t41 90t17 102t4.5 95q0 50 -4.5 97.5t-17 103.5t-41 90.5t-70.5 34.5zM346 1300h2q67 0 120.5 -36.5t84.5 -93.5t47 -120.5t16 -125.5q0 -48 -9.5 -98.5t-31 -100.5t-52 -89.5t-76.5 -64t-101 -24.5q-67 0 -120.5 36.5t-84.5 94.5
t-47 121t-16 123q0 62 16 126t47 121.5t84.5 94t120.5 36.5zM350 1247h-2q-40 0 -68.5 -33.5t-41.5 -88.5t-18 -103t-5 -98t5 -98t18 -103t42 -89t70 -34q42 0 71.5 34t42 90.5t17 102.5t4.5 95q0 39 -2 75.5t-10.5 84t-22.5 82t-40 59t-60 24.5zM1688 729h2
q68 0 121.5 -36.5t84.5 -94t46.5 -121t15.5 -125.5t-15.5 -125.5t-46.5 -121t-85 -94t-123 -36.5q-68 0 -122 36.5t-84.5 94t-46.5 120.5t-16 124q0 63 16 126.5t47 121.5t84.5 94.5t121.5 36.5zM1692 676h-2q-41 0 -70 -34t-41.5 -89t-17.5 -103t-5 -98t5 -98t18 -103
t42 -88.5t71 -33.5t70.5 34t41 90t17 102t4.5 95q0 50 -4.5 97.5t-17 103.5t-41 90.5t-70.5 34.5zM1083 1292l-731 -1374l-59 39l729 1370z" />
    <glyph glyph-name="guilsinglleft" unicode="&#x2039;" horiz-adv-x="501" 
d="M418 113l-43 -33q-175 259 -291 387q126 146 291 387l43 -29l-172 -358z" />
    <glyph glyph-name="guilsinglright" unicode="&#x203a;" horiz-adv-x="501" 
d="M127 80l-43 33l172 354l-172 358l43 29q165 -241 291 -387q-116 -128 -291 -387z" />
    <glyph glyph-name="fraction" unicode="&#x2044;" horiz-adv-x="825" 
d="M743 1341l62 -34l-725 -1360l-60 41z" />
    <glyph glyph-name="fraction" unicode="&#x2215;" horiz-adv-x="825" 
d="M743 1341l62 -34l-725 -1360l-60 41z" />
    <glyph glyph-name="Euro" unicode="&#x20ac;" 
d="M811 1065h-37q-10 79 -62.5 121.5t-138.5 42.5q-128 0 -189 -114.5t-75 -348.5h418l-25 -64h-395v-57v-65h350l-24 -64h-324q21 -469 266 -469q79 0 132.5 39.5t66.5 124.5h37l-8 -133q-76 -101 -262 -101t-280 133t-109 406h-119l22 64h88v65v57h-110l22 64h92
q21 277 111.5 405.5t282.5 128.5q189 0 262 -98z" />
    <glyph glyph-name="trademark" unicode="&#x2122;" horiz-adv-x="1363" 
d="M360 1262v-361q0 -68 14 -84.5t72 -19.5v-37h-262v37q56 3 69 19t13 85v361h-45q-55 0 -76 -29q-19 -28 -32 -80h-35q1 29 5.5 91t4.5 85l25 -2q11 -14 18 -14q6 -4 25 -4h327q24 0 39 20h23q1 -12 4.5 -74.5t5.5 -99.5l-35 -2q-19 67 -31 84q-22 25 -83 25h-46z
M1100 1309h178v-39q-49 -5 -60 -18.5t-10 -73.5l6 -283q2 -65 12 -79.5t60 -18.5v-37h-237v37q50 5 60.5 19.5t10.5 78.5l-2 326h-4l-180 -451h-29l-172 436h-4l-10 -225q-2 -81 2 -139q1 -23 19.5 -32.5t58.5 -12.5v-37h-219v37q35 2 51.5 11.5t19.5 33.5q12 73 17 149
l10 168q2 27 2 42.5t-2.5 29t-6 19.5t-14 10.5t-21.5 6t-32 3.5v39h187l155 -377z" />
    <glyph glyph-name="minus" unicode="&#x2212;" horiz-adv-x="1267" 
d="M102 614h1061v-96h-1061v96z" />
    <glyph glyph-name="fi" unicode="&#xfb01;" horiz-adv-x="980" 
d="M188 203v616h-127l-8 23l49 53h86v29q0 78 15 155q39 152 145 254q109 100 242 113q69 -3 120 -31t74 -61t9 -64q-10 -23 -41 -45q-36 -25 -60 4q-33 42 -83 72.5t-107 30.5q-75 0 -117 -72q-55 -87 -55 -332v-53h153q229 0 338 25v-719q0 -96 20.5 -122t108.5 -36v-43
h-387v43q55 7 77.5 20t31 42t8.5 96v518q0 67 -13 83.5t-75 16.5h-262v-616q0 -97 19 -123.5t97 -36.5v-43h-383v43q85 10 105 36.5t20 123.5z" />
    <glyph glyph-name="fl" unicode="&#xfb02;" horiz-adv-x="976" 
d="M188 201v618h-125l-10 23l49 53h86v29q0 107 23 178q38 145 141 235q102 89 219 107q101 -3 160 -45q16 7 74 37l16 -11v-1224q0 -96 20.5 -122t110.5 -36v-43h-391v43q82 10 100.5 35.5t18.5 122.5v618h-350v-618q0 -97 18 -122.5t98 -35.5v-43h-380v43
q83 10 102.5 36.5t19.5 121.5zM330 895h350v389q-20 34 -63.5 56t-102.5 22q-81 0 -135 -82q-49 -80 -49 -283v-102z" />
    </font>
</defs>
</svg>
