<?xml version="1.0" standalone="no"?>
<!DOCTYPE svg PUBLIC "-//W3C//DTD SVG 1.1//EN" "http://www.w3.org/Graphics/SVG/1.1/DTD/svg11.dtd" >
<svg xmlns="http://www.w3.org/2000/svg" xmlns:xlink="http://www.w3.org/1999/xlink" version="1.1">
<metadata>
Created by FontForge 20170731 at Fri Mar 17 09:02:13 2023
 By Aleksey,,,
Copyright (c) 2023 by Typehill. All rights reserved.
</metadata>
<defs>
<font id="TheBohemian-Regular" horiz-adv-x="1300" >
  <font-face 
    font-family="The Bohemian"
    font-weight="400"
    font-stretch="normal"
    units-per-em="2048"
    panose-1="2 0 5 6 0 0 0 2 0 3"
    ascent="1638"
    descent="-410"
    x-height="1397"
    cap-height="2146"
    bbox="-2523.12 -2220.02 9679 3631.02"
    underline-thickness="102"
    underline-position="-358"
    unicode-range="U+000D-FB01"
  />
<missing-glyph horiz-adv-x="446" 
 />
    <glyph glyph-name="fi" unicode="fi" horiz-adv-x="1398" 
d="M358 -438q0 -62 -28 -86.5t-92 -24.5q-20 0 -36 2.5t-28 6t-21.5 11.5t-15.5 13.5t-10 18.5t-6 20t-3 24.5t-1 25.5v28.5v29.5q0 1017 8 1403q2 86 24.5 158.5t67 128.5t116.5 87.5t165 31.5q165 0 252.5 -96.5t87.5 -264.5q0 -64 -31 -94.5t-96 -30.5q-26 0 -40 3
t-18.5 13t-4.5 18.5t2.5 29.5t2.5 37q0 35 -4 71t-15.5 80t-37 71.5t-61.5 27.5q-40 0 -70.5 -15.5t-48.5 -43.5t-29.5 -60t-16 -71.5t-6.5 -70.5t-2 -65v-16q-4 -168 -4 -291q27 1 106.5 4.5t112 3.5t93.5 -4q24 -2 24 -53q0 -45 -24 -50q-29 -4 -312 -4v-1007zM1128 1575
q-60 0 -102.5 40.5t-42.5 98.5q0 57 42.5 97t102.5 40q62 0 105 -40t43 -97q0 -58 -43 -98.5t-105 -40.5zM1012 193q0 151 -10.5 554t-10.5 553q0 23 18 40.5t46 26.5t53.5 13t46.5 4q125 0 125 -69q0 -148 1 -546t1 -544q0 -14 0.5 -40t1 -39.5t-1.5 -35t-6.5 -33t-14 -26
t-23.5 -22t-35.5 -12.5t-49.5 -5q-39 0 -66.5 10t-42 24t-22 40t-9 48t-1.5 59z" />
    <glyph glyph-name=".notdef" horiz-adv-x="446" 
 />
    <glyph glyph-name="uni0000" horiz-adv-x="0" 
 />
    <glyph glyph-name="uni0000" horiz-adv-x="0" 
 />
    <glyph glyph-name="uni000D" unicode="&#xd;" horiz-adv-x="446" 
 />
    <glyph glyph-name="space" unicode=" " horiz-adv-x="446" 
 />
    <glyph glyph-name="exclam" unicode="!" horiz-adv-x="595" 
d="M289 307q67 0 114.5 -47t47.5 -113t-47.5 -112.5t-114.5 -46.5q-68 0 -116 46.5t-48 112.5t48 113t116 47zM387 498q0 -29 -20.5 -48.5t-49.5 -23.5t-58 1t-49.5 27t-21.5 54q-1 42 -19 424t-31 728t-5 370q31 44 113 56.5t151 -9.5t68 -64z" />
    <glyph glyph-name="quotedbl" unicode="&#x22;" horiz-adv-x="692" 
d="M596 1690l6 -232q-10 -24 -83 -17q-72 7 -92 32q-4 7 -3 14l4 188l4 185q0 32 38 49t77.5 12.5t44.5 -25.5q4 -140 4 -206zM270 1896q0 -79 4 -235q0 -33 5 -203q-10 -24 -83 -17q-72 7 -92 31q-6 8 -4 15l4 170l5 198q1 34 38.5 52t77 13.5t45.5 -24.5z" />
    <glyph glyph-name="numbersign" unicode="#" horiz-adv-x="1472" 
d="M1321 1305q43 -3 58.5 -46t-2 -86t-54.5 -45l-147 -6l-21 -82l-35 -133h84q43 -2 58.5 -45t-2 -86t-54.5 -45q-88 0 -133 -2l-182 -698q-16 -27 -80 -37.5t-117.5 6t-44.5 57.5l174 666q-39 0 -121 -4q-22 0 -73 -1t-80 -1l-178 -686q-16 -27 -80 -37.5t-117.5 6
t-44.5 57.5l172 658h-129q-39 1 -49 47t11.5 92t60.5 47l157 4l31 123l23 82h-173q-23 0 -38 18.5t-18 44.5t1.5 52t21 44t40.5 17q137 0 213 2l170 651q8 32 47 43.5t82 4.5t77 -27.5t33 -46.5l-162 -619q25 2 70 2q137 0 205 2l168 641q8 32 47 43.5t82 4.5t77 -27.5
t33 -46.5l-159 -610q17 0 49 1t49 1zM903 1028l25 88q-41 -2 -121 -2q-43 -2 -154 -2l-18 -72l-35 -133h272z" />
    <glyph glyph-name="dollar" unicode="$" horiz-adv-x="1525" 
d="M725 47l-10 750q-82 47 -125 72t-117.5 74.5t-116 87t-95 95t-81 113t-47.5 128t-20 151.5q0 125 47 237.5t127 194.5t186.5 136.5t226.5 72.5v55q-1 52 48 74.5t98 6.5t49 -57l2 -75q110 -12 206.5 -53.5t170 -109t116 -166.5t42.5 -216q0 -111 -67.5 -228t-162.5 -188
q-17 -10 -33 -10q-20 0 -35.5 15.5t-15.5 35.5q0 12 33 48t72.5 78.5t72.5 111t33 137.5q0 95 -34.5 174t-94.5 132.5t-137 87.5t-166 46l18 -1085q81 -49 137.5 -87.5t119.5 -93.5t101 -107.5t63.5 -122t25.5 -144.5q0 -90 -35.5 -166.5t-96.5 -131t-136 -92.5t-162 -59
l4 -254q-5 -32 -37.5 -54t-69.5 -25.5t-67 16.5t-31 61l-4 232q-75 1 -147 18t-135.5 52t-111.5 84t-76 117.5t-28 148.5q0 227 242 393q11 8 25 8q22 0 37.5 -16.5t15.5 -38.5q0 -10 -22 -30.5t-53.5 -49.5t-63.5 -65t-54 -88.5t-22 -110.5q0 -77 34.5 -139t91 -100.5
t125 -59t140.5 -21.5zM711 1096l-9 958q-165 -32 -275 -152t-110 -290q0 -69 21.5 -132t55.5 -113t88 -100.5t106 -88t123 -82.5zM920 676l10 -598q104 32 169.5 97.5t65.5 164.5t-64 179.5t-181 156.5z" />
    <glyph glyph-name="percent" unicode="%" horiz-adv-x="1572" 
d="M668 1593q5 -96 -19.5 -187t-87 -156.5t-151.5 -65.5q-108 0 -169 95t-63 237q-1 90 21 168t72.5 135.5t123.5 68.5q122 16 194.5 -71.5t78.5 -223.5zM416 1251q50 0 87 83.5t27 219.5q-7 120 -36 190.5t-64 70.5t-62.5 -70t-37.5 -209q-10 -138 16 -210.5t70 -74.5z
M1442 578q5 -96 -19.5 -187t-87 -157t-151.5 -66q-108 0 -169 94.5t-63 235.5q-2 89 20 168t72.5 136.5t122.5 67.5q83 12 145.5 -27.5t93.5 -108.5t36 -156zM1190 236q50 -2 87.5 82.5t27.5 220.5q-9 119 -37.5 189.5t-63.5 70.5q-34 0 -62.5 -70.5t-39.5 -208.5
q-10 -138 17 -211t71 -73zM877 2011q6 33 36 45.5t64 5t61 -28.5t27 -48q-79 -455 -156 -906q-91 -525 -180 -1050q-11 -28 -60 -39t-91.5 6t-36.5 59q95 542 174 1010q78 446 162 946z" />
    <glyph glyph-name="ampersand" unicode="&#x26;" horiz-adv-x="1482" 
d="M432 1217q0 -59 25.5 -112t67.5 -91t89.5 -64.5t96.5 -40.5q19 -6 50.5 -9t41.5 -5q24 -3 34.5 -15.5t10.5 -41.5q0 -50 -43 -56q-6 -1 -50 -7t-69 -15q-98 -38 -159.5 -136.5t-61.5 -215.5q0 -148 89.5 -229t225.5 -81q82 0 148 45t108 120t67.5 156t37.5 169
q-24 -11 -104.5 -56t-150 -84.5t-71.5 -39.5q-19 0 -42.5 24.5t-39 57.5t-7 71t47.5 62l608 198q25 0 40.5 -32t15.5 -62q0 -23 -20.5 -40.5t-44 -25t-56 -16.5t-41.5 -12q0 -213 -71.5 -378t-213 -261t-334.5 -96q-101 0 -191.5 33t-160.5 94t-111.5 157t-41.5 213
q0 91 29 166t81 126.5t116.5 86t143.5 55.5q-143 16 -236 108.5t-93 248.5q0 141 74 253.5t186.5 170t236.5 57.5q74 0 142.5 -18t128 -54.5t103.5 -89t69.5 -126t25.5 -160.5q0 -39 -38.5 -58.5t-76.5 -8t-38 45.5q0 87 -26.5 162t-87.5 126.5t-147 51.5q-119 0 -216 -95.5
t-97 -225.5z" />
    <glyph glyph-name="quotesingle" unicode="'" horiz-adv-x="337" 
d="M254 1690q0 -76 4 -232q-10 -24 -83 -17q-72 7 -92 32q-4 7 -3 14q4 126 4 188l4 185q1 32 39 49t77.5 12.5t45.5 -25.5q0 -66 4 -206z" />
    <glyph glyph-name="parenleft" unicode="(" horiz-adv-x="1193" 
d="M1100 -332q48 -5 68.5 -57.5t1.5 -102t-66 -47.5q-188 8 -345.5 87t-265 206.5t-180.5 294.5t-104 353t-23 382q6 189 47 369t119.5 340.5t185.5 283.5t255 199.5t319 87.5q43 3 63 -45t0 -100t-75 -59q-134 -17 -246.5 -108.5t-188.5 -232.5t-122 -314.5t-58 -362.5
q-11 -168 5.5 -329.5t63.5 -309t120 -261.5t182.5 -187.5t243.5 -86.5z" />
    <glyph glyph-name="parenright" unicode=")" horiz-adv-x="1347" 
d="M223 -332q134 13 243.5 86.5t182.5 187.5t120 261.5t63.5 309t5.5 329.5q-12 189 -58 362.5t-122 314.5t-188.5 232.5t-246.5 108.5q-55 7 -75 59t0 100t63 45q171 -11 319 -87.5t255 -199.5t185.5 -283.5t119.5 -340.5t47 -369q8 -196 -23 -382t-104 -353t-180.5 -294.5
t-265 -206.5t-345.5 -87q-47 -2 -66 47.5t1.5 102t68.5 57.5z" />
    <glyph glyph-name="asterisk" unicode="*" horiz-adv-x="1009" 
d="M877 1999q27 -9 37 -43t-3 -66.5t-43 -36.5q-62 0 -180 -4l186 -198q11 -23 2.5 -49t-28.5 -42t-45 -21t-47 15q-72 81 -226 240q-142 -173 -227 -268q-20 -13 -48 -9.5t-47 19.5t-28 38.5t8 45.5q115 132 179 215q-67 -4 -197 -8q-51 -1 -74 37t-12.5 78t39.5 45
q69 -2 217 2l-147 153q-21 23 -15.5 52t27.5 47.5t48.5 27t47.5 -9.5q64 -73 217 -234l184 226q44 44 83 38t61 -43.5t4 -66.5l-152 -178q30 1 99 -0.5t80 -1.5z" />
    <glyph glyph-name="plus" unicode="+" horiz-adv-x="1173" 
d="M1079 1075q43 -4 58 -62.5t-3 -117t-55 -61.5q-146 0 -368 -11q-4 -250 -2 -379q-5 -43 -64.5 -58t-117.5 3t-60 55q0 2 -6 371q-198 -7 -369 -4q-23 1 -41 27t-25.5 63t-7 74t14 63t37.5 27q63 3 383 8q-3 192 2 359q1 23 27 41.5t63 25.5t74 6.5t63 -14.5t27 -37
q4 -131 4 -381q241 0 366 2z" />
    <glyph glyph-name="comma" unicode="," horiz-adv-x="495" 
d="M242 414q69 0 114.5 -43t61.5 -106t10 -136q-9 -104 -60.5 -178t-121.5 -78q-84 -7 -162 90q-8 11 -4.5 25t14 24t23.5 18t25.5 7.5t19.5 -8.5q41 -52 78 -52q34 0 57 38t31 96q-47 -21 -86 -21q-69 0 -118.5 47.5t-49.5 114.5t49.5 114.5t118.5 47.5z" />
    <glyph glyph-name="hyphen" unicode="-" horiz-adv-x="1337" 
d="M1151 963q43 -4 58 -62.5t-3 -116.5t-55 -61q-268 -15 -514 -21q-312 -4 -473 -2q-38 0 -60 63.5t-12.5 126.5t49.5 62q156 -2 459 -2q106 1 302.5 6.5t248.5 6.5z" />
    <glyph glyph-name="period" unicode="." horiz-adv-x="516" 
d="M272 414q69 0 118.5 -47.5t49.5 -114.5t-49.5 -114.5t-118.5 -47.5t-118.5 47.5t-49.5 114.5t49.5 114.5t118.5 47.5z" />
    <glyph glyph-name="slash" unicode="/" horiz-adv-x="825" 
d="M532 2054q9 55 66.5 76.5t104.5 -9.5t30 -102l-487 -2478q-13 -34 -66.5 -47t-98.5 9t-38 73z" />
    <glyph glyph-name="zero" unicode="0" horiz-adv-x="1613" 
d="M817 -35q-109 0 -203.5 38t-164 102t-125.5 152t-92.5 184.5t-61 203.5t-35 205t-10.5 192q0 93 10.5 191.5t35 206t61.5 205t93 186t125.5 153.5t163.5 103.5t203 38.5q107 0 200 -37t161 -100t122.5 -149t90 -181t59 -199.5t33.5 -201t10 -189.5q0 -91 -10 -189
t-34 -207t-59.5 -209t-90.5 -192t-122.5 -159.5t-160 -107.5t-199.5 -40zM831 1993q-74 0 -137.5 -44.5t-107 -116.5t-78.5 -168t-56 -193t-35 -198t-19 -177t-5 -135q0 -53 3.5 -112t11.5 -134t23.5 -147t37 -145.5t54.5 -134.5t73.5 -109.5t96.5 -75.5t122 -27
q81 0 147 55.5t107.5 147.5t71 197.5t44.5 221t21 200.5t6 153q0 55 -3.5 122.5t-14.5 160.5t-28 181t-47 176.5t-68 154t-95 106.5t-125 41z" />
    <glyph glyph-name="one" unicode="1" horiz-adv-x="763" 
d="M651 80q26 1 38 -26t1 -54t-41 -27l-506 -8q-15 0 -21.5 28t1 56t27.5 29l129 6l10 1829l-168 -281q-23 -19 -58 11t-20 55l193 325q30 38 73 62t85 30t80 0.5t62.5 -25.5t26.5 -50l-33 -1958z" />
    <glyph glyph-name="two" unicode="2" horiz-adv-x="1374" 
d="M164 -33q-13 0 -24 7t-11 20q0 28 43 82q96 116 200 264t210.5 329.5t190.5 359t137 358t53 319.5q0 133 -62.5 208t-173.5 75q-163 0 -276.5 -96t-233.5 -334q-9 -18 -20.5 -24.5t-32.5 -6.5q-28 0 -53 17t-25 44q0 9 4 21q77 233 268.5 375.5t417.5 142.5
q210 0 341.5 -127t131.5 -330q0 -153 -81.5 -382t-207.5 -455.5t-288 -436.5t-312 -327q309 8 930 8q17 0 28 -17.5t11 -35.5q0 -56 -124 -56h-13h-10z" />
    <glyph glyph-name="three" unicode="3" horiz-adv-x="1282" 
d="M831 1020q108 -9 186 -74.5t114 -159t36 -200.5q0 -173 -80 -308t-219 -208.5t-311 -73.5q-219 0 -354 133t-135 352q0 246 100 246q22 0 39.5 -14.5t17.5 -36.5q0 -18 -15 -87.5t-15 -109.5q0 -98 37.5 -182.5t114 -138.5t177.5 -54q180 0 270 162q74 133 62 318
q-11 167 -86 264q-55 72 -129 72q-3 0 -29.5 -1t-40 0t-34 5t-30 15t-9.5 28q0 14 0.5 22.5t4.5 15t6.5 10t11.5 12t16 15.5q128 141 222.5 326t94.5 344q0 73 -23.5 136.5t-77 107t-128.5 43.5q-63 0 -114.5 -25.5t-84.5 -65.5t-57.5 -96t-37 -108.5t-20.5 -112.5
q-1 -14 -2 -59.5t-6 -67.5q-6 -31 -19 -41t-46 -10q-35 0 -60.5 23t-25.5 57q0 120 29.5 229t88 199.5t157 144.5t224.5 54q198 0 332.5 -135.5t134.5 -333.5q0 -294 -287 -631z" />
    <glyph glyph-name="four" unicode="4" horiz-adv-x="1265" 
d="M1092 80q26 1 38 -26t1 -54t-41 -27l-506 -8q-15 0 -22 28t0.5 56t27.5 29l129 6l2 442q-162 -2 -619 -2q-8 0 -13 0.5t-17.5 5.5t-20 14t-14 29.5t-6.5 49.5v43l645 1357q30 38 73 62t85.5 30t80.5 0.5t62.5 -25.5t26.5 -50l-23 -1370q29 0 87.5 1t84.5 1q29 0 43.5 -36
t0 -72t-57.5 -36l-160 -2l-8 -444zM207 666l516 2l27 1204z" />
    <glyph glyph-name="five" unicode="5" horiz-adv-x="1132" 
d="M276 1126q3 -31 -16.5 -48t-50.5 -17q-38 0 -56.5 14.5t-29.5 50.5q-4 8 -4 514q0 70 4 125.5t12.5 101t21.5 79t32 59t43 42.5t55 28.5t68 18t81.5 9.5t96 4t111.5 2h24q35 0 103 2.5t103 2.5q132 0 132 -58q0 -26 -17.5 -45.5t-42.5 -19.5q-13 0 -93 1t-154 1t-159 -1
t-143.5 -6t-72.5 -14q-56 -36 -68 -567q113 78 254 78q250 0 399 -200q128 -172 143 -434q15 -259 -86 -481q-104 -228 -293 -321q-109 -53 -237 -53q-77 0 -139.5 27t-103.5 71.5t-69 106t-40 128t-12 138.5q0 199 82 199q28 0 43.5 -15t15.5 -43t-9 -85t-9 -85
q0 -80 25 -149.5t83 -117.5t141 -48q102 0 181 63t118.5 163.5t57.5 222t-0.5 243.5t-56.5 222.5t-109 163.5t-160 63q-65 0 -116.5 -37.5t-82.5 -98.5z" />
    <glyph glyph-name="six" unicode="6" 
d="M633 1135q-57 0 -130 -72.5t-89 -132.5q-17 -64 -26 -164t-3 -216t27 -217t71.5 -168t124.5 -67q77 0 141 37t105.5 95t70.5 132.5t41.5 147.5t12.5 141t-11 133.5t-37.5 129.5t-65 112.5t-98.5 78.5t-134 30zM414 1083q57 65 143 109.5t166 44.5q95 0 174.5 -33.5
t133.5 -90t91.5 -132.5t54.5 -159.5t17 -172.5q0 -94 -19.5 -188t-62 -182.5t-102 -156t-146 -108.5t-188.5 -41q-259 0 -409 247q-137 227 -148 592q-11 356 99 684q114 338 313 501q149 123 327 123q108 0 188.5 -58.5t119 -149t38.5 -196.5q0 -23 -4.5 -56.5t-14 -71.5
t-29 -64.5t-44.5 -26.5q-21 0 -36 17t-15 38q0 28 19.5 84.5t19.5 87.5q0 121 -68 206t-186 85q-55 0 -109.5 -55t-98.5 -146t-82.5 -194.5t-67.5 -213t-47 -189t-27 -134.5z" />
    <glyph glyph-name="seven" unicode="7" horiz-adv-x="1142" 
d="M129 1946q-53 -6 -79 36q-22 37 -1 67q12 19 39 24q49 6 107.5 11.5t144.5 11.5t168 7t170 -1t159.5 -14t127.5 -31.5t83 -53t17 -78.5l-393 -1857q-15 -67 -81 -86t-123 4.5t-52 62.5l358 1751q8 34 12 57t3.5 43.5t-4.5 32.5t-16 22t-26.5 14t-41.5 6.5t-55.5 2.5
t-72.5 -2q-158 -6 -444 -30z" />
    <glyph glyph-name="eight" unicode="8" horiz-adv-x="1224" 
d="M915 899q201 -227 201 -442q0 -154 -74 -267t-195.5 -169t-273.5 -56q-77 0 -148.5 16.5t-134.5 50.5t-110 83t-74.5 118t-27.5 150q0 175 104 378t244 349q-80 87 -122 204t-42 240q0 113 48 218t127.5 181t186 121.5t218.5 45.5q139 0 224 -77.5t85 -215.5
q0 -136 -36 -287.5t-108 -361t-92 -279.5zM494 1036q-177 -299 -177 -592q0 -63 11.5 -125t37.5 -122.5t76.5 -98t118.5 -37.5q65 0 118.5 33t86 85.5t50.5 113.5t18 121q0 86 -29 173t-83 169t-105.5 144.5t-122.5 135.5zM831 989q53 109 96.5 321t43.5 341q0 51 -9.5 103
t-30 105t-61.5 86t-96 33q-54 0 -96 -31.5t-65 -81.5t-34.5 -102t-11.5 -102q0 -300 264 -672z" />
    <glyph glyph-name="nine" unicode="9" horiz-adv-x="1206" 
d="M668 958q60 0 135.5 72t83.5 133q4 35 4 113q0 131 -27 260q-13 60 -38.5 125.5t-64 135t-95 114.5t-119.5 45q-48 0 -86.5 -28t-62 -76.5t-40 -102t-23.5 -116t-10 -106.5t-3 -85q0 -68 11 -133.5t37.5 -129.5t65 -112.5t98.5 -78.5t134 -30zM887 1010
q-59 -65 -143.5 -109.5t-165.5 -44.5q-95 0 -174.5 33.5t-133.5 90t-92 132.5t-55 159.5t-17 172.5q0 94 19.5 187.5t62 182t102 156.5t146.5 109t189 41q92 0 170.5 -36t134 -96t100 -142.5t71.5 -170t45 -183.5t25 -178.5t7 -160.5q0 -89 -9.5 -189.5t-33 -216t-58.5 -224
t-89.5 -209.5t-122 -176t-160.5 -120t-201 -45t-188.5 58.5t-119 149t-38.5 196.5q0 23 4.5 56.5t14 71.5t29 64.5t44.5 26.5q21 0 36 -17t15 -38q0 -30 -19.5 -86.5t-19.5 -85.5q0 -121 68 -206t186 -85q68 0 122.5 38.5t90 107.5t61 148t41 177t24.5 176t17.5 163
t14.5 122z" />
    <glyph glyph-name="colon" unicode=":" horiz-adv-x="536" 
d="M272 1067q-69 0 -118.5 48t-49.5 114q0 67 49.5 115.5t118.5 48.5t118.5 -48.5t49.5 -115.5q0 -66 -49.5 -114t-118.5 -48zM272 578q69 0 118.5 -47.5t49.5 -114.5t-49.5 -114.5t-118.5 -47.5t-118.5 47.5t-49.5 114.5t49.5 114.5t118.5 47.5z" />
    <glyph glyph-name="semicolon" unicode=";" horiz-adv-x="720" 
d="M319 557q69 0 115 -43t62 -106t10 -136q-9 -104 -60.5 -178t-121.5 -78q-84 -7 -162 90q-8 11 -4.5 25t14 24t23.5 18t25.5 7.5t19.5 -8.5q40 -51 77 -51q34 0 57.5 38t31.5 95q-47 -21 -87 -21q-69 0 -118 47.5t-49 114.5t49 114.5t118 47.5zM356 1047
q-69 0 -118.5 47.5t-49.5 113.5q0 67 49.5 115.5t118.5 48.5q70 0 120 -48t50 -116q0 -66 -50 -113.5t-120 -47.5z" />
    <glyph glyph-name="less" unicode="&#x3c;" horiz-adv-x="1132" 
d="M848 1487q35 24 110 -19q62 -36 82 -76q13 -28 -8 -42q-164 -106 -348 -236l-293 -205l266 -188q230 -156 351 -234q33 -23 -15 -73q-47 -49 -108 -68q-41 -12 -62 2q-213 146 -354 246q-13 9 -65 41.5t-101 65t-100.5 70t-81.5 70t-27 52.5q9 54 105 135q99 85 307 227
q65 46 137.5 95t131 88z" />
    <glyph glyph-name="equal" unicode="=" horiz-adv-x="1236" 
d="M1120 672q43 -4 58 -63t-3 -117.5t-55 -61.5l-987 -22q-23 1 -41 27t-25.5 62.5t-7 73.5t14 63.5t37.5 27.5zM133 1051q-38 0 -60 63.5t-12 127t50 63.5l1009 8q43 -3 58 -61.5t-3 -117t-55 -61.5z" />
    <glyph glyph-name="greater" unicode="&#x3e;" horiz-adv-x="1112" 
d="M946 885q58 -51 56 -128.5t-56 -115.5q-57 -44 -165 -112.5t-119 -77.5q-64 -46 -216 -145t-200 -132q-17 -12 -42 -2.5t-45.5 32t-37 50t-16 52t17.5 38.5q136 88 348 234q64 43 266 188l-293 205q-168 119 -348 235q-18 12 -16.5 38t17.5 53.5t38.5 52t47 33.5t42.5 -1
q14 -10 87 -58.5t159.5 -107t151.5 -104.5q25 -17 106 -71t130.5 -89t86.5 -67z" />
    <glyph glyph-name="question" unicode="?" horiz-adv-x="876" 
d="M508 313q-69 0 -118.5 -46.5t-49.5 -114.5t50 -116t118 -48t119 48t51 116t-50.5 114.5t-119.5 46.5zM55 1176q0 75 15.5 147.5t48.5 138.5t80 115.5t115 79t149 29.5q150 0 241 -102.5t91 -254.5q0 -77 -24.5 -171.5t-58.5 -183t-67.5 -176t-54.5 -175.5t-17 -156
q0 -25 -24.5 -35.5t-50 0.5t-27.5 39q-4 32 -4 49q0 116 44 342t44 342q0 61 -20.5 124t-68 112t-110.5 49q-46 0 -81 -27.5t-54 -67.5t-31.5 -93t-16 -95t-3.5 -82q0 -26 4 -76t4 -75q0 -51 -53 -51q-71 0 -70 243v11z" />
    <glyph glyph-name="at" unicode="@" horiz-adv-x="1726" 
d="M268 723q0 -134 41 -261t116 -228t192 -162.5t257 -61.5q17 0 27 -14t10 -31q0 -18 -9.5 -30.5t-27.5 -12.5q-229 0 -410 107t-279.5 291.5t-98.5 412.5q0 230 101.5 415t284.5 290.5t413 105.5q216 0 383 -95t257.5 -264t90.5 -384q0 -80 -16 -159t-51 -153.5
t-85 -131.5t-123.5 -91.5t-160.5 -34.5q-64 0 -112.5 26.5t-76.5 67t-45 98t-22.5 109.5t-5.5 111q0 80 10 178q-15 -34 -23.5 -52t-27 -53.5t-35.5 -56t-40 -44.5t-49 -35t-55 -11q-91 0 -141.5 64.5t-50.5 157.5q0 132 87.5 219.5t219.5 87.5q89 0 131 -88q11 54 32.5 77
t72.5 23q81 0 81 -51q0 -25 -5 -52.5t-13.5 -61t-11.5 -50.5q-37 -189 -37 -315q0 -232 131 -232q56 0 101.5 31t73 78t46.5 107t26 114t7 104q0 128 -37.5 241.5t-106.5 199.5t-176.5 136t-238.5 50q-140 0 -258.5 -56t-197 -150.5t-122 -218.5t-43.5 -261zM834 1026
q-32 0 -62.5 -35t-50 -83t-31.5 -96t-12 -77q0 -78 47 -78q27 0 58 33.5t57.5 84t44 90.5t28.5 73q-53 88 -79 88z" />
    <glyph glyph-name="A" unicode="A" horiz-adv-x="1294" 
d="M18 43q0 2 153 491t314 995.5t177 541.5q20 43 100 43q117 0 133 -37q6 -15 43 -283q33 -229 113 -723q19 -118 44 -258t43.5 -238t50 -264t46.5 -245l2 -15q0 -36 -32 -55t-70 -19q-53 0 -94.5 23.5t-55.5 67.5q-7 22 -12.5 49.5t-11.5 63t-9 50.5q-38 199 -78 424
q-352 0 -528 -6q-6 -20 -110 -407q-4 -15 -13 -59t-18 -80.5t-17 -53.5q-13 -31 -34.5 -42t-57.5 -11q-27 0 -52.5 11t-25.5 36zM371 752q162 6 485 6q-29 162 -56.5 346t-58 406.5t-49.5 347.5q-20 -59 -39.5 -118.5t-40 -127t-35.5 -117t-37.5 -128.5t-33.5 -118
t-35.5 -128.5t-32 -118t-34.5 -129.5t-33 -121z" />
    <glyph glyph-name="B" unicode="B" horiz-adv-x="1484" 
d="M223 -2q-41 0 -84 17.5t-43 52.5v2000q0 35 43 52.5t84 17.5q44 0 85 -20.5t40 -57.5l-20 -1075q17 78 39 163.5t59.5 205t80 227.5t100.5 217.5t120.5 189t141.5 129.5t161 50q152 0 224.5 -98.5t72.5 -256.5q0 -208 -101.5 -435t-254.5 -376q196 -12 303.5 -154
t107.5 -347q0 -175 -83.5 -308.5t-224 -202.5t-314.5 -69q-157 0 -242.5 93.5t-85.5 252.5q0 62 18.5 134t52.5 139.5t91.5 112t126.5 44.5q104 0 166 -54t94 -159q16 -61 16 -73q0 -64 -43 -64q-26 0 -39.5 25t-21.5 61t-21.5 72t-51 61t-99.5 25q-36 0 -68 -24t-53 -60.5
t-36 -80.5t-22 -84t-7 -71q0 -111 57 -177t168 -66q177 0 291 145q97 124 109 294q13 171 -68 285q-87 120 -248 121q-25 0 -54.5 -3.5t-45.5 -6.5t-56 -12.5t-51 -11.5q-21 -4 -30 13.5t-9 41.5q0 19 8 31.5t16 16t28.5 9t27.5 8.5q125 48 216.5 178.5t130 284t50.5 299.5
t-7.5 243t-57.5 97q-114 0 -222.5 -141t-189.5 -364.5t-143.5 -490t-94.5 -528t-32 -468.5q0 -35 -33.5 -52.5t-71.5 -17.5z" />
    <glyph glyph-name="C" unicode="C" horiz-adv-x="1241" 
d="M791 2140q91 0 163 -37t116 -100t66.5 -141.5t22.5 -165.5q0 -28 -20.5 -43t-48.5 -15q-30 0 -47 29.5t-22.5 73.5t-17.5 96t-29.5 96t-61.5 73.5t-111 29.5q-78 0 -144.5 -50t-112.5 -130.5t-82.5 -187.5t-58.5 -215t-36 -219.5t-19.5 -194t-5.5 -144.5q0 -53 3 -112
t12 -143t23.5 -160.5t41.5 -155t62 -135t87.5 -92.5t116.5 -36q78 0 145.5 50.5t109.5 126t65.5 159t23.5 154.5q0 19 0.5 27.5t3.5 23t8.5 21.5t17.5 12.5t30 5.5q59 0 59 -70q0 -82 -21.5 -168t-64.5 -165t-101 -141.5t-137.5 -100t-167.5 -37.5q-98 0 -182 37t-144 99
t-108.5 146.5t-78.5 175.5t-50.5 191t-28.5 188t-8 171q0 98 11 202.5t37 220.5t65 222t98.5 203.5t132.5 168.5t173 113.5t215 42.5z" />
    <glyph glyph-name="D" unicode="D" horiz-adv-x="1427" 
d="M715 2097q107 0 198.5 -43t157.5 -119t115.5 -177.5t78 -221.5t39 -249t3.5 -263q-9 -153 -40 -298t-85.5 -273t-126.5 -223.5t-169 -151t-206 -55.5q-64 0 -129 23.5t-109 64.5q-2 -33 -2 -80q-8 -19 -52 -32.5t-94.5 -13.5t-90 32.5t-37.5 95.5q7 146 -16 850
q-10 257 -16.5 586.5t-6.5 435.5q-7 82 64 120q60 33 122 13q63 -29 68 -88q2 -9 5 -72t5 -78q68 103 162 160t162 57zM664 121q74 0 138 77.5t107.5 207.5t71.5 292t37 338q9 184 -5.5 354t-50 308.5t-101 221.5t-152.5 83q-99 -3 -189.5 -113t-99.5 -270q-4 -91 4 -584
t16 -602q9 -131 75 -222t149 -91z" />
    <glyph glyph-name="E" unicode="E" horiz-adv-x="1030" 
d="M109 1950q-1 62 37.5 100t99 48.5t133.5 14t141 -2.5q22 -1 33 -1q55 -2 154.5 -6.5t164.5 -7t93 -2.5q19 -2 27.5 -18t7 -34.5t-11 -33.5t-23.5 -16q-268 0 -381 2h-1h-1h-1h-1h-1h-1h-1h-1h-1h-1h-1h-1h-1h-1h-1h-1h-1h-1h-1l-2 1q-136 3 -162 -6q-27 -9 -29 -43
q-1 -12 1 -47q2 -41 2 -67l12 -756l170 4q94 2 317 2q21 -2 22.5 -49t-22.5 -53q-233 0 -317 -2l-172 -4q0 -15 -1 -299t-1 -422q0 -26 -2 -66q-3 -72 17.5 -83t150.5 -8q27 1 43 1q113 2 381 2q14 -1 23.5 -16t11 -33.5t-7 -34.5t-27.5 -18q-28 0 -93 -2.5t-164.5 -7
t-154.5 -6.5q-26 -1 -70.5 -4t-75 -5t-71.5 -1.5t-68.5 5t-57 16t-47 29.5t-28.5 48.5t-10 70.5q3 179 -4 551q-4 153 -11.5 680.5t-8.5 579.5z" />
    <glyph glyph-name="F" unicode="F" horiz-adv-x="1030" 
d="M381 96q0 -64 -62.5 -97t-124 -2t-59.5 122q3 190 -4 571q-4 153 -11.5 680.5t-8.5 579.5q-1 62 37.5 100t99 48.5t133.5 14t141 -2.5q22 -1 33 -1q55 -2 154.5 -6.5t164.5 -7t93 -2.5q19 -2 27.5 -18t7 -34.5t-11 -33.5t-23.5 -16q-268 0 -381 2h-1h-1h-1h-1h-1h-1h-1
h-1h-1h-1h-1h-1h-1h-1h-1h-1h-1h-1h-1l-2 1q-136 3 -162 -6q-27 -9 -29 -43q-1 -12 1 -47q2 -41 2 -67l12 -756l170 4q94 2 318 2q21 -2 22.5 -49t-22.5 -53q-234 0 -318 -2l-172 -4q0 -14 -1.5 -180.5t-3 -374.5t-1.5 -322z" />
    <glyph glyph-name="G" unicode="G" horiz-adv-x="1243" 
d="M659 -41q-105 0 -192.5 37t-148 98.5t-107.5 147t-75 175t-46 191.5t-24.5 188t-6.5 171q0 98 11 202.5t37 220.5t65 222t98.5 203.5t132.5 168.5t173 113.5t215 42.5q91 0 163 -37t116 -100t66.5 -141.5t22.5 -165.5q0 -28 -20.5 -43t-48.5 -15q-30 0 -47 29.5
t-22.5 73.5t-17.5 96t-29.5 96t-61.5 73.5t-111 29.5q-78 0 -144.5 -50t-112.5 -130.5t-82.5 -187.5t-58.5 -215t-36 -219.5t-19.5 -194t-5.5 -144.5q0 -834 346 -834q60 1 110 25t85 65.5t62.5 95t44 115t27 122.5t14 121.5t3.5 108t-4 85.5q-246 0 -356 -23q-25 -4 -30 30
q-7 38 13 61q8 9 19 10q5 0 50 4.5t80.5 7t91 5t96.5 1t81.5 -6t62.5 -16.5t23 -30q3 -73 -2.5 -152t-21.5 -165.5t-41.5 -167t-66.5 -153.5t-92 -127t-122.5 -86t-155.5 -32z" />
    <glyph glyph-name="H" unicode="H" horiz-adv-x="1282" 
d="M1159 2056q3 -103 0.5 -315t-7 -556t-3.5 -478q3 -382 -4 -605q-2 -48 -30.5 -73.5t-68 -25.5t-78 12t-65 38.5t-24.5 55.5q2 44 5.5 442t4.5 422q-311 0 -494 -8q0 -745 -4 -863q-2 -48 -29 -74t-65 -27t-75 10t-62.5 37.5t-24.5 55.5q7 102 -4 586q-10 758 -10 1325
q-1 56 52.5 85t120.5 12.5t99 -74.5q4 -38 4 -135.5t-1.5 -268.5t-0.5 -299q2 -94 2 -268q183 8 494 8q2 106 2 322q-1 91 -4.5 293.5t-3.5 324.5q-1 55 53 81t121 14t100 -54z" />
    <glyph glyph-name="I" unicode="I" horiz-adv-x="557" 
d="M381 90h123q18 -3 22 -28t-4 -49t-20 -25q-37 1 -115.5 2t-116.5 2q-107 2 -254 6q-20 1 -26.5 27t4 51t29.5 24q14 -1 54 0t60 0q2 143 -6 590q-3 151 -11 716.5t-9 633.5q-23 -1 -93 -6q-19 -1 -29 24t-3.5 51t26.5 27q141 4 258 6q39 1 117 2t115 2q12 -1 20 -25
t4 -49t-22 -28q-34 0 -127 -6l10 -1065q0 -14 -1.5 -182t-3 -377.5t-1.5 -323.5z" />
    <glyph glyph-name="J" unicode="J" horiz-adv-x="1015" 
d="M866 2038q5 -101 8 -205t4 -223.5t1.5 -199.5t0 -224t-0.5 -205t-0.5 -105t-4.5 -125.5t-11 -143.5t-21 -144t-33.5 -142t-50.5 -123.5t-69.5 -104t-92 -66t-117.5 -25.5q-255 0 -378 183q-84 127 -81 294q2 126 52 188q25 31 55 31q33 0 68 -21q31 -19 14 -34
q-13 -12 -25 -46t-18 -81.5t-5.5 -101.5t17 -106.5t45 -95t83.5 -69t128 -26.5q40 0 71.5 22t51.5 61.5t34 97t21.5 125t11 148.5t4.5 164.5t1 177.5v91q1 195 -6 422t-14.5 403.5t-8.5 210.5q-14 -1 -30 -1t-36 0.5t-30 0.5q-18 0 -28 23.5t-3.5 47.5t29.5 25q96 4 315 0
q11 0 19.5 -3t13.5 -10t8 -12.5t4.5 -17t2 -17.5t1 -19.5t0.5 -18.5z" />
    <glyph glyph-name="K" unicode="K" horiz-adv-x="1284" 
d="M424 37q0 -28 -66 -45t-130.5 11t-61.5 110q7 146 -16 850q-10 257 -16.5 586.5t-6.5 435.5q-7 82 64 120q60 33 122 13q63 -29 68 -88q2 -9 5 -72t5 -78q0 -312 17 -1069l630 733q9 9 54.5 -8.5t80 -49t17.5 -56.5l-617 -676l656 -717q25 -35 -38 -41q-66 -7 -135 14
q-29 9 -34 19l-610 667q9 -332 12 -659z" />
    <glyph glyph-name="L" unicode="L" horiz-adv-x="950" 
d="M977 98q17 0 26 -18.5t9 -36.5q0 -41 -35 -47q-36 -7 -365 -16q-30 -1 -101.5 -6t-111.5 -5q-52 0 -90 6t-73 23.5t-53 52.5t-19 88l-37 1846v12q0 58 41.5 92.5t99.5 34.5q47 0 79.5 -24.5t33.5 -69.5l47 -1833q1 -67 25 -85t94 -18q71 0 215 2t215 2z" />
    <glyph glyph-name="M" unicode="M" horiz-adv-x="1556" 
d="M1454 2056q3 -37 0 -161.5t-8 -310.5t-4 -324q2 -180 1 -626t-5 -532q-3 -71 -76 -95q-64 -21 -124 5q-52 22 -52 64q0 982 2 1181q2 127 2 388q-42 -88 -188.5 -503t-180.5 -480q-22 -31 -83.5 -32t-82.5 32q-30 63 -142 481.5t-126 460.5q0 -1021 -8 -1502
q-1 -62 -66 -87.5t-128.5 -5.5t-61.5 69q1 345 -6.5 991t-7.5 936q-1 37 24 63.5t62 35.5t76.5 7t72 -22.5t43.5 -52.5q68 -195 208.5 -681t154.5 -528q23 52 139 366.5t221.5 603.5t106.5 290q29 26 80 34t97 -9t60 -56z" />
    <glyph glyph-name="N" unicode="N" horiz-adv-x="1372" 
d="M1247 2077q13 -52 -2 -561q-3 -146 -9 -489t-10.5 -615t-6.5 -310q-3 -63 -43 -86.5t-88 -9.5t-80 49q-77 213 -294.5 748.5t-316.5 818.5v-1520q0 -43 -27 -69t-65 -30t-75.5 4.5t-63.5 35t-25 61.5q4 78 2.5 503t-6.5 636q-10 758 -10 762q-1 48 44.5 82.5t103 31
t87.5 -50.5q82 -224 187 -493.5t242.5 -616t195.5 -495.5l4 1089v510q-1 32 36.5 55t84 28.5t88 -12t47.5 -56.5z" />
    <glyph glyph-name="O" unicode="O" horiz-adv-x="1423" 
d="M784 2093q95 0 175.5 -31.5t138 -85t102.5 -127.5t73.5 -154.5t47 -171t26 -172.5t7.5 -163q0 -71 -8 -155t-24 -182.5t-43 -197t-63 -194.5t-87 -178.5t-110.5 -145.5t-137.5 -99t-166 -36q-101 0 -189.5 38.5t-153 103.5t-117 153.5t-87 184.5t-57.5 200t-33 197.5
t-10 179.5q0 98 11 196.5t37 201.5t64.5 195t96.5 173.5t130 141t168.5 94t208.5 34.5zM715 78q81 0 152 48t121.5 126.5t92 182t68 210.5t44 215.5t25 194t7.5 149.5t-4.5 129.5t-17 145t-32 150t-53.5 138t-77.5 116.5t-106.5 78.5t-139 29.5q-81 0 -149 -39t-115 -102.5
t-83.5 -150t-58 -175t-35.5 -184t-19 -170.5t-5 -142q0 -53 4 -122t15.5 -162t29.5 -182.5t48.5 -178.5t69 -155.5t95 -108t123.5 -41.5z" />
    <glyph glyph-name="P" unicode="P" horiz-adv-x="1136" 
d="M608 2126q104 0 192 -36.5t148.5 -98.5t103.5 -145t63 -175.5t20 -189.5q0 -106 -23 -209.5t-71.5 -198t-117 -166.5t-166 -114.5t-210.5 -42.5q-87 0 -146 30q0 -54 2 -236.5t0 -302.5t-10 -235q-12 -18 -51 -26.5t-72 -8.5q-129 0 -129 97q0 637 -8 954
q-18 725 -18 965q-22 65 27.5 105t111.5 40q59 0 83 -27t32 -86q50 45 115 76t124 31zM541 864q75 0 136 47.5t97.5 118t61 159.5t34 165t9.5 141q0 58 -6.5 121t-26 138t-49.5 133t-81.5 97t-117.5 39q-72 0 -141.5 -91.5t-69.5 -164.5q0 -98 4.5 -279t5.5 -253
q0 -18 -2 -74.5t-1.5 -100.5t5.5 -71q11 -57 48 -91t94 -34z" />
    <glyph glyph-name="Q" unicode="Q" horiz-adv-x="1421" 
d="M784 2093q95 0 175.5 -31.5t138 -85t102.5 -127.5t73.5 -154.5t47 -171t26 -172.5t7.5 -163q0 -112 -19.5 -250.5t-58 -292t-110 -296t-162.5 -228.5q1 -3 8 -17l67 -145q8 -18 2.5 -37.5t-24 -33t-39.5 -20.5t-44 -1.5t-38 24.5l-76 136q-68 -27 -145 -27
q-101 0 -189.5 38.5t-153 103.5t-117 153.5t-87 184.5t-57.5 200t-33 197.5t-10 179.5q0 98 11 196.5t37 201.5t64.5 195t96.5 173.5t130 141t168.5 94t208.5 34.5zM715 78q57 0 104 20l-164 281q-3 23 17.5 48t50.5 40t60.5 20t47.5 -12q10 -22 58.5 -117.5t71.5 -142.5
q70 89 124.5 229.5t83 284.5t42.5 266t14 209q0 64 -4.5 129.5t-17 145t-32 150t-53.5 138t-77.5 116.5t-106.5 78.5t-139 29.5q-81 0 -149 -39t-115 -102.5t-83.5 -150t-58 -175t-35.5 -184t-19 -170.5t-5 -142q0 -53 4 -122t15.5 -162t29.5 -182.5t48.5 -178.5t69 -155.5
t95 -108t123.5 -41.5z" />
    <glyph glyph-name="R" unicode="R" horiz-adv-x="1159" 
d="M608 2126q104 0 192 -36.5t148.5 -98.5t103.5 -145t63 -175.5t20 -189.5q0 -113 -27 -222.5t-78 -205.5t-133 -170t-184 -107l438 -682q2 -4 2 -12q0 -34 -41 -64t-82 -30q-26 0 -41 12q-342 531 -495 754q-53 7 -93 26q0 -54 2 -236.5t0 -302.5t-10 -235
q-12 -18 -51 -26.5t-72 -8.5q-129 0 -129 97q0 637 -8 954q-18 725 -18 965q-22 65 27.5 105t111.5 40q59 0 83 -27t32 -86q50 45 115 76t124 31zM541 864q75 0 136 47.5t97.5 118t61 159.5t34 165t9.5 141q0 58 -6.5 121t-26 138t-49.5 133t-81.5 97t-117.5 39
q-72 0 -141.5 -91.5t-69.5 -164.5q0 -98 4.5 -279t5.5 -253q0 -18 -2 -74.5t-1.5 -100.5t5.5 -71q11 -57 48 -91t94 -34z" />
    <glyph glyph-name="S" unicode="S" horiz-adv-x="1406" 
d="M756 2167q124 0 235.5 -37t197.5 -105t136.5 -173.5t50.5 -233.5q0 -111 -67 -228t-162 -188q-17 -10 -33 -10q-20 0 -35.5 15.5t-15.5 35.5q0 12 33 48t72.5 78.5t72.5 111t33 137.5q0 106 -43.5 192.5t-116.5 141t-165.5 83.5t-194.5 29q-131 0 -242.5 -55.5
t-180.5 -160t-69 -236.5q0 -82 29.5 -155.5t79.5 -131t117 -112.5t142 -100t154.5 -94t154.5 -94t142 -101t117 -114t79.5 -133.5t29.5 -158.5q0 -94 -39 -173.5t-103 -133.5t-146.5 -92.5t-169.5 -56t-173 -17.5q-95 0 -184 27.5t-160.5 78.5t-114.5 132.5t-43 181.5
q0 227 242 393q11 8 24 8q22 0 38 -16.5t16 -38.5q0 -10 -22 -30.5t-54 -49.5t-63.5 -65t-53.5 -88.5t-22 -110.5q0 -77 35 -140t92.5 -101t127 -58.5t142.5 -20.5q56 0 113 9.5t115.5 31.5t103.5 54.5t73.5 84t28.5 113.5q0 72 -36 136.5t-97 115.5t-140 100.5t-166.5 98
t-174.5 100t-166 115.5t-140 136t-97 168.5t-36 207.5q0 185 98.5 335.5t258 232t342.5 81.5z" />
    <glyph glyph-name="T" unicode="T" horiz-adv-x="952" 
d="M1147 2101q23 -2 31.5 -24.5t-0.5 -46.5t-31 -31q-186 0 -336 -2q-41 -2 -119 -2l6 -1944q-37 -41 -100 -47.5t-112 26t-48 91.5l-12 1882q-300 4 -471 4q-22 6 -30.5 30t0 46.5t30.5 25.5q193 0 569 -4q414 -4 623 -4z" />
    <glyph glyph-name="U" unicode="U" horiz-adv-x="1421" 
d="M1010 2003q0 40 26 66.5t63.5 33t75 1t63.5 -29t26 -57.5q0 -219 -4.5 -655t-4.5 -655q0 -50 3 -186.5t1.5 -236.5t-10.5 -182q-12 -114 -125 -114q-44 0 -83.5 22t-39.5 64q0 8 1.5 23.5t1.5 23.5q-49 -54 -152 -82.5t-193 -28.5q-88 0 -159.5 21t-122 56.5t-88.5 89
t-61 111.5t-37.5 131.5t-19.5 141.5t-5 148q0 215 9 646.5t9 647.5q0 49 39 75.5t90 26.5q44 0 83.5 -21.5t60.5 -58.5q-25 -775 -25 -1312q0 -582 238 -582q68 0 123 23.5t90.5 59.5t61.5 92.5t40 108.5t21.5 121.5t9.5 119t2 112.5q0 206 -4 617.5t-4 617.5z" />
    <glyph glyph-name="V" unicode="V" horiz-adv-x="1310" 
d="M1196 2052q2 44 46 63t86 2.5t38 -57.5q-4 -40 -13 -137q-54 -565 -116 -891q-202 -1071 -655 -1071q-76 0 -142 47t-114.5 129t-89 193.5t-67 240.5t-48.5 270t-32.5 281.5t-19.5 275.5t-9 252t-2.5 211t1.5 152q2 42 47 69.5t101 32.5t111.5 -15t76.5 -64
q-9 -66 -13.5 -234t-2.5 -388.5t16.5 -457t39 -435.5t70 -327t105.5 -128q76 0 143.5 60t119 158t96 236.5t76 282.5t57.5 309t41.5 302.5t27.5 277t17 219t8 141.5z" />
    <glyph glyph-name="W" unicode="W" horiz-adv-x="2322" 
d="M2208 2052q2 44 46 63t86 2.5t38 -57.5q-4 -40 -13 -135q-13 -132 -21 -208.5t-26 -232.5t-36 -259.5t-46 -257.5t-61 -259.5t-75 -232t-94.5 -210t-113.5 -158t-137.5 -110.5t-161.5 -36q-61 0 -111.5 33t-88.5 98t-67 150.5t-50.5 202.5t-36 241t-25.5 279
q-39 -227 -95 -407t-130.5 -315.5t-172 -208.5t-212.5 -73q-108 0 -194.5 93.5t-139.5 245.5t-94 346t-57 396t-28.5 394t-9.5 340.5t1 236.5q2 42 47 69.5t101 32.5t111.5 -15t76.5 -64q-9 -66 -13.5 -234t-2.5 -388.5t16.5 -457t39 -435.5t70 -327t105.5 -128q78 0 151 85
t129 226t104 314t81 360.5t54 352.5t30 302q3 41 35.5 69t71.5 34t74.5 -13.5t43.5 -62.5q-3 -110 -4.5 -192t-3.5 -208t-0.5 -223t4.5 -219t11 -215t19 -193t28.5 -170.5t40 -129t53 -88t67.5 -29.5q76 0 143.5 60t119 158t96 236.5t76 282.5t57.5 309t41.5 302.5t27.5 277
t17 219t8 141.5z" />
    <glyph glyph-name="X" unicode="X" horiz-adv-x="1402" 
d="M766 860l-457 -860q-11 -4 -42 -0.5t-68 13.5t-68.5 28.5t-44.5 44.5t4 61l537 961l-516 913q-8 17 0.5 34t27 27.5t39.5 15.5t40.5 -0.5t27.5 -20.5q31 -57 463 -822l473 846q32 35 132 18q75 -13 93 -36q5 -7 2 -12l-561 -1059l545 -965q7 -26 -33 -41q-50 -18 -96 5
q-29 14 -41 42z" />
    <glyph glyph-name="Y" unicode="Y" horiz-adv-x="935" 
d="M385 66l-4 966l-516 989q-8 17 0.5 34t27 27.5t39.5 15.5t40.5 -0.5t27.5 -20.5q2 -3 74.5 -140t186 -349t214.5 -398l461 911q32 35 132 18q75 -13 93 -36q5 -7 2 -12l-561 -1059l-4 -961q0 -20 -22.5 -34t-54.5 -17.5t-63.5 0t-53 21.5t-19.5 45z" />
    <glyph glyph-name="Z" unicode="Z" horiz-adv-x="1480" 
d="M360 129l1055 -12q21 0 31 -17.5t10 -40.5t-9.5 -41t-29.5 -18l-1300 8q-31 0 -48.5 17.5t-17.5 46.5q0 44 27 86l1169 1847q-217 4 -651 4h-434q-15 0 -23 17.5t-8 33.5q0 54 49 60q50 5 109 5.5t135 -1.5t111 -2q157 0 471 -2t471 -2q75 0 75 -54q0 -33 -34 -90z" />
    <glyph glyph-name="bracketleft" unicode="[" horiz-adv-x="987" 
d="M801 -324q26 0 38.5 -40t7 -83.5t-25.5 -52.5l-600 -10q-21 4 -32 28t-11 50l-10 2433q0 58 37 67l600 21q26 -9 32 -83q6 -75 -15 -99q-7 -8 -17 -6l-432 -3l8 -2228z" />
    <glyph glyph-name="backslash" unicode="\" horiz-adv-x="821" 
d="M264 2054l490 -2478q7 -51 -38 -73t-98.5 -9t-66.5 47l-488 2478q-17 71 30 102t104.5 9.5t66.5 -76.5z" />
    <glyph glyph-name="bracketright" unicode="]" horiz-adv-x="886" 
d="M723 2068q37 -9 37 -67l-19 -1256l-18 -1177q0 -25 -11.5 -49.5t-31.5 -28.5l-600 10q-20 9 -28.5 53t3.5 84.5t41 40.5l424 -8l17 1026l18 1202l-428 -10q-24 1 -35 42t-4 84t27 50z" />
    <glyph glyph-name="asciicircum" unicode="^" horiz-adv-x="960" 
d="M936 1636q3 -13 -11 -29.5t-37 -30t-47.5 -22.5t-44 -7.5t-24.5 14.5l-252 358l-360 -342q-32 -12 -71 4.5t-51.5 44t11.5 55.5l469 437q20 12 36 10t26 -10z" />
    <glyph glyph-name="underscore" unicode="_" horiz-adv-x="1495" 
d="M1315 240q44 -4 59 -63t-3.5 -117.5t-55.5 -61.5l-1157 2q-23 1 -39.5 25.5t-21.5 59t-2.5 69.5t18 60t39.5 26h1163z" />
    <glyph glyph-name="grave" unicode="`" horiz-adv-x="606" 
d="M256 1896l242 -366q7 -13 -3.5 -31.5t-31.5 -33.5t-44.5 -25.5t-45.5 -9t-31 17.5l-209 354q-12 21 0 44t36 36t49 19.5t38 -5.5z" />
    <glyph glyph-name="a" unicode="a" 
d="M940 512q-15 -62 -41 -127.5t-66.5 -132.5t-88.5 -119.5t-111.5 -85.5t-130.5 -33q-94 0 -170.5 37.5t-126 98.5t-83 141.5t-47.5 163.5t-14 168q0 86 15 175t44 178t77 166.5t109 138t144.5 95.5t178.5 35q72 0 146 -30t112 -83q-1 36 11 60.5t36 36t50 16t60 4.5
q51 0 81 -9t44 -33.5t17.5 -51t3.5 -78.5q0 -177 -4 -530.5t-4 -530.5q0 -18 2 -52.5t2 -51.5t-5 -41.5t-17 -36t-37 -20.5t-62 -9q-20 0 -36 2.5t-28 6t-21.5 11.5t-15.5 13.5t-10 19t-6 20.5t-3 24.5t-1 25.5v28.5v29.5q0 22 -1 67t-1 68q0 187 -2 225zM883 997
q0 48 -2 79.5t-12 71t-28.5 62.5t-52.5 39.5t-83 16.5q-80 0 -143.5 -48t-101.5 -120t-63.5 -163.5t-35 -170t-9.5 -148.5q0 -44 4 -94t17.5 -115.5t34.5 -116.5t59.5 -86.5t87.5 -35.5q67 0 122 46.5t89 124.5t58.5 167t36.5 187.5t17 171t5 132.5z" />
    <glyph glyph-name="b" unicode="b" horiz-adv-x="1269" 
d="M766 1397q94 0 169.5 -38.5t123.5 -100.5t80.5 -144.5t45.5 -165.5t13 -168q0 -103 -19.5 -208.5t-64 -209t-107.5 -183.5t-158.5 -129.5t-209.5 -49.5q-116 0 -217 63l-2 -57q-28 -35 -135 -35q-142 0 -142 97q0 114 -11 332.5t-13 308.5q-13 479 -13 1325q0 30 27 50.5
t57.5 27t59.5 6.5q125 0 125 -117q0 -129 -1 -385.5t-1 -384.5q0 -9 -0.5 -26t-0.5 -30.5t1 -25.5q67 108 171 178t222 70zM627 156q62 0 113.5 52t83 129t53 169t30 166t8.5 127q0 42 -4 91t-17.5 114t-34.5 116.5t-59 87t-87 35.5q-69 0 -124.5 -53t-87 -129t-52.5 -171
t-28 -168.5t-7 -131.5v-84q0 -48 2 -81t8 -78t20.5 -75.5t37 -59t59.5 -42.5t86 -14z" />
    <glyph glyph-name="c" unicode="c" horiz-adv-x="1071" 
d="M561 18q-100 0 -183.5 37.5t-140 100t-96 145t-57.5 171.5t-18 181q0 84 15.5 171t45 172t77 159.5t108 132t142.5 90.5t175 33q134 0 224.5 -90t90.5 -223q0 -34 -6 -64q-32 -37 -82 -37q-24 0 -35.5 22.5t-12.5 56.5t-5 74t-12 74t-35.5 56.5t-73.5 22.5
q-75 0 -134.5 -51.5t-94 -127.5t-57 -171.5t-30.5 -173t-8 -142.5q0 -49 4.5 -106.5t20 -133t39 -134.5t67 -100.5t99.5 -41.5q62 0 113 37.5t82 94t52 128t29 134.5t8 118q0 67 58 67q32 0 47.5 -20.5t15.5 -52.5q0 -81 -15 -163t-48.5 -163t-82.5 -143.5t-123 -101
t-163 -38.5z" />
    <glyph glyph-name="d" unicode="d" 
d="M883 997q0 48 -2 79.5t-12 71t-28.5 62.5t-52.5 39.5t-83 16.5q-80 0 -143.5 -48t-101.5 -120t-63.5 -163.5t-35 -170t-9.5 -148.5q0 -44 4 -94t17.5 -115.5t34.5 -116.5t59.5 -86.5t87.5 -35.5q67 0 122 46.5t89 124.5t58.5 167t36.5 187.5t17 171t5 132.5zM1192 2001
q0 -303 -5 -909.5t-5 -909.5q0 -18 2 -52.5t2 -51.5t-5 -41.5t-17 -36t-37 -20.5t-62 -9q-20 0 -36 2.5t-28 6t-21.5 11.5t-15.5 13.5t-10 19t-6 20.5t-3 24.5t-1 25.5v28.5v29.5q0 22 -1 67t-1 68q0 187 -2 225q-15 -62 -41 -127.5t-66.5 -132.5t-88.5 -119.5t-111.5 -85.5
t-130.5 -33q-94 0 -170.5 37.5t-126 98.5t-83 141.5t-47.5 163.5t-14 168q0 86 15 175t44 178t77 166.5t109 138t144.5 95.5t178.5 35q77 0 168.5 -31t128.5 -82q-2 246 -2 736q0 23 15 40.5t38.5 26.5t46 13t43.5 4q81 0 125 -41v-76z" />
    <glyph glyph-name="e" unicode="e" horiz-adv-x="1071" 
d="M360 731q-10 -154 11.5 -291.5t78.5 -228t138 -90.5q64 -1 115.5 38t82.5 98t51.5 132.5t28 138.5t6.5 119q0 19 11 32.5t27.5 17.5t33.5 1t31 -16.5t18 -34.5q2 -128 -24.5 -236.5t-71 -180t-102.5 -121.5t-117.5 -71.5t-116.5 -19.5q-150 5 -261.5 84t-163 202.5
t-68.5 271t20.5 294.5t103.5 268.5t182 197t255 75.5q172 0 252 -105q69 -90 40 -214q-32 -135 -165 -232q-155 -114 -396 -129zM682 1303q-81 0 -145.5 -64t-103.5 -163.5t-58 -225.5q235 16 354 146q79 85 75 181q-3 79 -61 111q-27 15 -61 15z" />
    <glyph glyph-name="f" unicode="f" horiz-adv-x="888" 
d="M358 -438q0 -62 -28 -86.5t-92 -24.5q-20 0 -36 2.5t-28 6t-21.5 11.5t-15.5 13.5t-10 18.5t-6 20t-3 24.5t-1 25.5v28.5v29.5q0 1017 8 1403q2 86 24.5 158.5t67 128.5t116.5 87.5t165 31.5q165 0 252.5 -96.5t87.5 -264.5q0 -64 -31 -94.5t-96 -30.5q-26 0 -40 3
t-18.5 13t-4.5 18.5t2.5 29.5t2.5 37q0 35 -4 71t-15.5 80t-37 71.5t-61.5 27.5q-40 0 -70.5 -15.5t-48.5 -43.5t-29.5 -60t-16 -71.5t-6.5 -70.5t-2 -65v-16q-4 -168 -4 -291q27 1 106.5 4.5t112 3.5t93.5 -4q24 -2 24 -53q0 -45 -24 -50q-29 -4 -312 -4v-1007z" />
    <glyph glyph-name="g" unicode="g" horiz-adv-x="1040" 
d="M694 662q-51 -68 -121 -111t-147 -43q-71 0 -129.5 25.5t-98 68.5t-66.5 100.5t-39.5 119.5t-12.5 128q0 104 28.5 199t82 172.5t140.5 123.5t195 46q68 0 130 -25.5t85 -79.5q25 11 56 11q40 0 74.5 -14t41.5 -46q7 -35 9 -73.5t0 -96.5t-2 -75q4 -324 4 -488v-649
q0 -90 -23.5 -179t-69 -168t-123.5 -128t-176 -49q-165 0 -252 96.5t-87 263.5q0 125 126 125q16 0 21.5 -0.5t18.5 -3t18.5 -10t5.5 -19.5q0 -11 -3 -33t-3 -34q0 -36 4.5 -72.5t15.5 -80t37 -70.5t62 -27q48 0 85.5 29t58 71t33.5 97.5t17 100.5t4 89v709zM694 840v440
q0 50 -41 87.5t-92 37.5q-205 0 -205 -514q0 -289 88 -289q74 0 132 50t94 126q24 48 24 62z" />
    <glyph glyph-name="h" unicode="h" horiz-adv-x="1208" 
d="M127 2034q0 29 27.5 50.5t67 29t79 5t67 -23t27.5 -53.5q0 -146 -1 -437t-1 -436q91 207 330 207q62 0 113 -12.5t88 -31.5t65 -52t46 -64.5t30 -79t17.5 -85t7.5 -94t1.5 -94t-1 -96.5t-0.5 -91q0 -86 2 -258t2 -258t-32 -129t-118 -43q-61 0 -84.5 26t-23.5 88
q0 60 3 182t3 183q0 409 -10 526q-16 198 -78 253q-32 28 -82 28q-277 0 -277 -645q0 -90 -4 -269.5t-4 -269.5q0 -49 -41.5 -73.5t-93.5 -24.5q-75 0 -119 55q-16 69 -16 246q0 290 5 870.5t5 870.5z" />
    <glyph glyph-name="i" unicode="i" horiz-adv-x="509" 
d="M240 1575q-60 0 -103 40.5t-43 98.5q0 57 43 97t103 40q61 0 104 -40t43 -97q0 -58 -42.5 -98.5t-104.5 -40.5zM123 193q0 151 -10.5 554t-10.5 553q0 23 18 40.5t46 26.5t53.5 13t46.5 4q125 0 125 -69q0 -148 1 -546t1 -544q0 -14 0.5 -40t1 -39.5t-1.5 -35t-6.5 -33
t-14 -26t-23.5 -22t-35.5 -12.5t-49.5 -5q-39 0 -66.5 10t-42 24t-22 40t-9 48t-1.5 59z" />
    <glyph glyph-name="j" unicode="j" horiz-adv-x="497" 
d="M152 1325q10 38 44 55t58 17q42 0 81 -14.5t40 -45.5q6 -244 6 -733v-649q0 -72 -12 -142.5t-40 -140.5t-69.5 -123t-106 -85.5t-143.5 -32.5q-165 0 -252.5 96.5t-87.5 263.5q0 125 127 125q16 0 21.5 -0.5t18.5 -3t18.5 -10t5.5 -19.5q0 -11 -3 -33t-3 -34
q0 -36 4 -72.5t15.5 -80t37 -70.5t61.5 -27q179 0 179 387v709v663zM266 1575q62 0 105 40.5t43 98.5q0 57 -43 97t-105 40q-60 0 -102.5 -40t-42.5 -97q0 -58 42.5 -98.5t102.5 -40.5z" />
    <glyph glyph-name="k" unicode="k" horiz-adv-x="1007" 
d="M119 152q0 315 -10.5 941.5t-10.5 940.5q0 29 27.5 50.5t67 28.5t79.5 4.5t67.5 -22.5t27.5 -53q0 -228 -4 -669.5t-5 -606.5l510 604q17 17 41.5 18t45.5 -12t35.5 -32.5t12.5 -45.5t-24 -49l-498 -587q104 -133 297.5 -358.5t251.5 -295.5q3 -3 -12 -6q-54 -10 -134 -4
q-37 3 -42 10q-71 76 -150 169t-186.5 224.5t-147.5 178.5q0 -68 -1 -201t-1 -197q0 -18 1.5 -45.5t2 -44.5t-1 -38.5t-8.5 -34.5t-19.5 -25t-35.5 -17.5t-55 -5.5q-20 0 -36 2.5t-28 6t-21.5 11.5t-15.5 13.5t-10 19t-6 20.5t-3 24.5t-1 25.5v28.5v29.5z" />
    <glyph glyph-name="l" unicode="l" horiz-adv-x="927" 
d="M504 18q-69 0 -125.5 22.5t-96 59.5t-70.5 93t-49.5 114.5t-31 133.5t-17.5 140.5t-7 145t-1 137.5t2 127t1 105q-11 559 -11 938q0 29 27.5 50.5t67 28.5t79.5 4.5t67.5 -22.5t27.5 -53q0 -229 -4 -690.5t-5 -622.5q0 -9 -0.5 -46.5t-0.5 -68t0.5 -79t4.5 -87.5t9.5 -84
t16 -79t24.5 -63t35 -44.5t47 -15.5q61 0 111.5 38t82.5 96t54 129t30.5 135.5t7.5 117.5q0 19 11 32.5t27.5 17.5t33.5 1t31 -16.5t18 -34.5q2 -128 -23.5 -239.5t-68 -187.5t-96 -131t-107.5 -79.5t-102 -22.5z" />
    <glyph glyph-name="m" unicode="m" horiz-adv-x="1894" 
d="M1440 1376q58 0 106 -12t81.5 -32t59.5 -52t42 -65t26 -78.5t14.5 -84.5t6 -92t0.5 -92.5t-1.5 -92.5t-0.5 -87q10 -498 10 -598q0 -51 -39.5 -76.5t-91.5 -25.5q-27 0 -48 6t-34.5 15t-22.5 25.5t-13.5 30.5t-6.5 37.5t-1.5 39t1 42.5t0.5 41l2 445v36q3 41 1 99
t-4.5 121t-14 125t-28.5 111.5t-48.5 80.5t-73.5 31q-281 0 -281 -952q0 -18 2.5 -116t-0.5 -116q-3 -50 -47 -76t-98 -26q-63 0 -86 27t-23 87q0 74 3.5 221.5t3.5 219.5q0 731 -170 731q-66 0 -118 -52t-80.5 -126t-47.5 -168t-25 -166.5t-6 -132.5q0 -90 -4 -269.5
t-4 -269.5q0 -49 -41.5 -73.5t-93.5 -24.5q-75 0 -119 55q-5 17 -7.5 36.5t-3.5 42.5t-1.5 37.5t0 43t0.5 37.5q0 53 -0.5 199t0 221t2.5 194t8 220t16 198q6 61 31 88t82 27q29 0 51 -5.5t36.5 -11.5t24.5 -22t15 -26t6.5 -34.5t1.5 -36t-1 -42.5t-1 -44q91 207 330 207
q124 0 207 -73.5t110 -196.5q44 145 146 207.5t260 62.5z" />
    <glyph glyph-name="n" unicode="n" horiz-adv-x="1202" 
d="M717 1376q92 0 159.5 -25t105.5 -69t63 -102.5t31 -125.5t9.5 -139t-1.5 -142q0 -22 -0.5 -34t-0.5 -30v-33q4 -344 4 -516q0 -87 -32 -129.5t-117 -42.5q-62 0 -85.5 26t-23.5 88q0 61 3.5 182.5t3.5 182.5q0 409 -10 526q-16 198 -78 253q-32 28 -82 28
q-277 0 -277 -645q0 -90 -4 -269.5t-4 -269.5q0 -49 -41.5 -73.5t-93.5 -24.5q-75 0 -119 55q-16 69 -16 246q0 146 5 501.5t5 495.5q0 64 66 91.5t132 6.5t66 -75q0 -28 1 -70.5t1 -73.5q91 207 330 207z" />
    <glyph glyph-name="o" unicode="o" horiz-adv-x="1067" 
d="M567 1405q100 0 179.5 -43t129.5 -111.5t83.5 -159t47 -178.5t13.5 -178q0 -67 -9.5 -143t-29 -160t-54.5 -160t-81 -137.5t-112.5 -98t-145.5 -36.5q-110 0 -201.5 43t-153 114.5t-104.5 165t-62.5 192.5t-19.5 200q0 98 18 193t59 185.5t100 159.5t147.5 110.5
t195.5 41.5zM901 727q0 60 -7.5 128t-28 151.5t-52.5 148.5t-87.5 109.5t-125.5 44.5q-61 0 -111.5 -33t-83 -88t-56 -120t-35.5 -137.5t-17.5 -130.5t-5.5 -108q0 -43 5 -97.5t16 -121.5t31.5 -129t48 -115t70 -84.5t93.5 -31.5q77 0 138.5 44.5t99.5 111.5t63 152.5
t35 161.5t10 144z" />
    <glyph glyph-name="p" unicode="p" horiz-adv-x="1310" 
d="M129 -670q-16 75 -16 201q0 298 5 893t5 893q0 30 28 51t60 28t61 7q68 0 93.5 -25.5t25.5 -89.5q94 121 271 121q140 0 251 -55t179.5 -148.5t104.5 -212.5t36 -254q0 -76 -14 -158t-40.5 -166t-70.5 -158.5t-99.5 -132.5t-131.5 -92t-162 -34q-100 0 -184 47.5
t-144 132.5q-4 -536 -4 -805q0 -49 -41.5 -73.5t-93.5 -24.5q-76 0 -119 55zM389 537q0 -42 19 -110t50.5 -137t79 -119t97.5 -50q76 0 138 48.5t100 122t64 164t36 169t10 143.5q0 57 -7 115.5t-21.5 121.5t-41.5 117.5t-63.5 98.5t-91 69t-119.5 25q-98 0 -166.5 -88
t-81.5 -193q-2 -17 -2 -38.5t1 -47.5t1 -39q0 -63 -1 -186t-1 -186z" />
    <glyph glyph-name="q" unicode="q" horiz-adv-x="1314" 
d="M1198 -670q-43 -55 -119 -55q-52 0 -93.5 24.5t-41.5 73.5q0 269 -4 805q-60 -85 -144 -132.5t-184 -47.5q-106 0 -195 44t-149 116.5t-102 166t-61 191t-19 193.5q0 108 22 209t69 190.5t114.5 156t164 105.5t210.5 39q176 0 270 -121q-3 64 25.5 89.5t93.5 25.5
q29 0 61 -7t60 -28t28 -51q0 -298 5 -893t5 -893q0 -126 -16 -201zM938 537v456q0 70 -29 143t-88 126t-133 53q-64 0 -117 -28t-88 -76t-60.5 -106t-39.5 -124.5t-20.5 -125t-6.5 -112.5q0 -53 7 -114.5t21.5 -133.5t41 -137t62 -119t88.5 -86t116 -32q48 0 95.5 48.5
t79.5 116.5t51.5 137t19.5 114z" />
    <glyph glyph-name="r" unicode="r" horiz-adv-x="1050" 
d="M123 193q0 151 -10.5 554t-10.5 553q0 23 18 40.5t46 26.5t53.5 13t46.5 4q125 0 125 -69v-117q49 87 144.5 140.5t195.5 50.5q140 -3 223 -104.5t76 -315.5q0 -50 -39.5 -78.5t-87.5 -28.5t-87.5 28.5t-39.5 78.5q0 325 -114 325q-73 0 -156 -128t-111 -300q-1 -3 -2 -9
t-2 -9q0 -119 1 -333t1 -290q0 -14 0.5 -40t1 -39.5t-1.5 -35t-6.5 -33t-14 -26t-23.5 -22t-35.5 -12.5t-49.5 -5q-39 0 -66.5 10t-42 24t-22 40t-9 48t-1.5 59z" />
    <glyph glyph-name="s" unicode="s" horiz-adv-x="1064" 
d="M1030 371q0 -109 -52.5 -194.5t-137 -130t-186.5 -65t-204 0t-186.5 64.5t-137 129t-52.5 194q0 33 10.5 99.5t36.5 134t59 67.5q92 0 92 -41q0 -2 -31.5 -114t-31.5 -173q0 -128 112 -197q96 -60 217 -48q122 13 181 93q37 50 37 119q0 68 -37.5 129.5t-97 109.5
t-132 93.5t-145 92.5t-132 96.5t-97 114.5t-37.5 138q0 169 140 280q125 99 300 110q185 12 318 -82q165 -117 172 -351v-18q0 -36 -23 -61t-59 -25q-31 0 -51.5 19.5t-20.5 50.5q0 243 -118 339q-82 66 -183 39q-89 -24 -136 -103q-32 -54 -32 -118q0 -54 22 -101.5
t59.5 -85.5t86 -73.5t102 -69.5t106.5 -68.5t101.5 -75.5t86 -86.5t59.5 -105t22 -126.5z" />
    <glyph glyph-name="t" unicode="t" horiz-adv-x="927" 
d="M504 18q-99 0 -173.5 46t-115 122t-67.5 174t-32.5 203t-9.5 209t2 190q1 75 1 107q0 63 -3 179.5t-4 144.5q-8 0 -32 -2t-40.5 -1.5t-36 4t-30 16t-10.5 32.5t9.5 33t30 17.5t34 6t41.5 0t32 -1.5q0 41 -1 123t-1 123q0 29 28 50t60 28.5t60 7.5q46 0 83.5 -18.5
t37.5 -59.5v-252h215q25 0 35 -25.5t-0.5 -51t-34.5 -25.5q-3 0 -105 -2t-112 -2q-1 -81 -8 -262t-7 -277q0 -692 144 -692q76 0 135 56t90 141t46 167t15 152q0 24 17 38.5t41 14.5q32 0 47.5 -21t15.5 -53q0 -139 -33 -260q-18 -63 -50 -126.5t-77.5 -121.5t-107.5 -94.5
t-129 -36.5z" />
    <glyph glyph-name="u" unicode="u" horiz-adv-x="1175" 
d="M1047 1368q2 -49 5 -141t5 -149.5t3.5 -138t0.5 -148.5q-2 -275 -3 -289q-8 -204 -67 -300q-78 -128 -288 -159q-61 -10 -136 -12q-77 0 -140 13.5t-109.5 33.5t-82.5 57t-60 71t-40.5 90t-25 98.5t-13 111.5t-5.5 115t-1 122q0 86 -2 256t-2 256q0 87 32.5 129.5
t117.5 42.5q60 0 84 -26.5t24 -87.5q0 -78 -3 -232.5t-3 -232.5v-214q15 -517 229 -517q49 0 88 17t64 42.5t43.5 64.5t28 74t15 81.5t6.5 76.5t1 68q0 154 -9.5 444t-10.5 340q-1 49 40.5 73.5t94.5 24.5q76 0 119 -55z" />
    <glyph glyph-name="v" unicode="v" horiz-adv-x="1282" 
d="M1057 836q0 95 -18.5 163t-44.5 102t-52 59t-44.5 51.5t-18.5 60.5q0 49 27 87t73 38q52 0 93 -22.5t67 -62t44.5 -85.5t27.5 -101t12.5 -100t3.5 -90q0 -102 -17.5 -207.5t-51.5 -211.5t-90.5 -199t-128.5 -165t-171 -113.5t-213 -41.5q-66 0 -122 21.5t-98 57.5t-76 89
t-57 110t-40.5 126t-27 131.5t-15.5 132.5t-8 122.5t-2 108.5q0 288 26 414q12 57 66.5 82.5t122.5 25.5q27 0 58 -5.5t61 -24t30 -46.5q0 -2 -1 -5t-1 -5q-41 -186 -41 -522q0 -46 1 -86.5t6 -113.5t14 -132.5t26.5 -127t42 -113.5t63 -76.5t85.5 -30.5q79 0 146 53
t110.5 134t74.5 179t44.5 184.5t13.5 154.5z" />
    <glyph glyph-name="w" unicode="w" horiz-adv-x="2123" 
d="M930 952q0 41 33 76t80 48.5t94.5 10.5t81 -38.5t34.5 -96.5q-2 -45 -2.5 -84t0 -113.5t6 -136.5t14.5 -138t27.5 -134t43 -109t62.5 -78.5t85 -27.5q78 0 145 53t110 134t74 179t44.5 184.5t13.5 154.5q0 96 -18.5 164t-44.5 102t-52 58.5t-44.5 51t-18.5 60.5
q0 49 27 87t73 38q52 0 93 -22.5t67 -62t44.5 -85.5t27.5 -101t12.5 -100t3.5 -90q0 -102 -17.5 -207.5t-51.5 -211.5t-90.5 -199t-128.5 -165t-171 -113.5t-213 -41.5q-78 0 -142.5 31t-108 79t-77 116.5t-52.5 133t-33 138.5q-18 -46 -31 -78t-39 -88.5t-49 -96t-56.5 -87
t-66 -77t-73.5 -49.5t-83 -20q-83 0 -152 34.5t-115.5 90.5t-82 135t-56 158.5t-33 171t-16.5 163.5t-4 144q0 13 -0.5 76t0 92t3 80.5t8.5 91t16 74.5q31 108 188 108q19 0 42 -3.5t48.5 -11t42.5 -22.5t17 -36l-2 -13q-41 -219 -41 -522q0 -32 0.5 -58t2 -89t6.5 -114
t13 -118t21.5 -117.5t31 -96.5t43.5 -70.5t58 -24.5q56 0 110 72.5t93 179.5t69 224.5t44.5 213t11.5 139.5z" />
    <glyph glyph-name="x" unicode="x" horiz-adv-x="1132" 
d="M158 27q-14 -19 -33 -23.5t-35 3t-30 20t-17.5 28.5t2.5 29l397 571l-434 617q-12 28 10 62.5t58 57.5t72.5 34t54.5 -9l391 -553l350 512q29 30 61 28t51 -29.5t1 -53.5l-395 -576l440 -620q21 -31 14 -61.5t-35.5 -54t-62 -37.5t-65.5 -13t-46 21l-395 557z" />
    <glyph glyph-name="y" unicode="y" horiz-adv-x="1062" 
d="M717 666v659q10 38 44 55t58 17q42 0 81 -14.5t40 -45.5q6 -244 6 -733v-649q0 -72 -12 -142.5t-40 -140.5t-69.5 -123t-106 -85.5t-143.5 -32.5q-165 0 -252 96.5t-87 263.5q0 125 126 125q16 0 21.5 -0.5t18.5 -3t18.5 -10t5.5 -19.5v-16l-6 -35q0 -40 3.5 -76t14 -84
t36.5 -77t65 -29q178 0 178 387v571q-126 -116 -301 -116q-75 0 -134.5 38t-96 100t-61.5 145t-35 170t-12 178t3 165.5t14 136.5q5 41 48.5 59.5t97.5 18.5q36 0 75 -13t39 -42q-6 -44 -11.5 -101t-10 -142.5t-4 -166.5t9.5 -165t27.5 -146t54 -101.5t84.5 -39.5
q126 0 213 164z" />
    <glyph glyph-name="z" unicode="z" horiz-adv-x="1042" 
d="M991 1245q-82 -129 -264.5 -433t-275.5 -450q-25 -40 -65 -98q-21 -31 -29 -43t-13.5 -26.5t-1.5 -18t18 -7t33.5 -3t55.5 1.5q47 2 75 2q80 1 195 7t213 7q34 2 50.5 -35.5t2.5 -78t-53 -45.5q-162 8 -862 0q-25 0 -31.5 31t0.5 64.5t16 47.5q332 561 572 940
q21 33 33.5 54t21 39.5t12.5 28.5t1 18t-7.5 10.5t-19 4.5t-26.5 1t-38 -1.5t-45 -0.5q-92 0 -201.5 1t-169.5 1t-104 -2q-29 0 -43.5 33t-3 66.5t46.5 35.5q790 -4 872 -4q29 0 42 -52.5t-7 -95.5z" />
    <glyph glyph-name="braceleft" unicode="{" horiz-adv-x="964" 
d="M852 -348q45 4 67.5 -46t13 -102t-43.5 -53q-106 -19 -195.5 -14.5t-157 30.5t-122 71t-90.5 105.5t-63 133.5t-38 156.5t-16.5 174t0.5 185.5q0 8 2.5 42t3.5 56.5t2.5 62t-0.5 68t-5.5 64.5t-12.5 60.5t-21.5 47.5t-31.5 35.5t-44 13.5q-27 -2 -36.5 49t-0.5 103t27 53
q24 3 43.5 12.5t34 29.5t26 39.5t20 54.5t14.5 60t11 70.5t8 72.5t7 79q21 253 49 368q63 255 237 351q130 72 332 65q30 -3 46 -31.5t15 -63t-18.5 -67t-48.5 -42.5q-74 2 -133 -14.5t-99.5 -47t-70 -76.5t-47 -96.5t-29.5 -112.5t-18 -120.5t-12 -123.5v-5
q-8 -99 -13.5 -150.5t-19 -127.5t-35.5 -129t-55 -93q17 -22 30.5 -48t22 -60.5t15 -60.5t9.5 -70t5 -66t1.5 -72.5t-1 -65t-2.5 -67t-2 -57.5q-10 -228 -6 -303q12 -207 112 -284q107 -83 334 -44z" />
    <glyph glyph-name="bar" unicode="|" horiz-adv-x="507" 
d="M332 2025l8 -2451q-1 -30 -22.5 -51.5t-51.5 -28t-60 -2.5t-50.5 25.5t-20.5 54.5l-10 2429q0 39 30 60t67.5 21t70.5 -15.5t39 -41.5z" />
    <glyph glyph-name="braceright" unicode="}" horiz-adv-x="1114" 
d="M958 842q27 2 39 -49t4.5 -103t-26.5 -53q-23 -3 -42 -12.5t-33 -30t-24.5 -39.5t-17.5 -54t-11.5 -59.5t-8 -71t-5.5 -72.5t-4 -79q-12 -251 -36 -365q-52 -253 -218 -350q-129 -74 -335 -67q-30 2 -47 30.5t-17.5 63t16 67t46.5 42.5q75 -3 133.5 15.5t97.5 46
t67.5 79.5t44 94.5t25.5 116t13 119t6 125.5q4 94 8 149.5t14.5 128.5t30.5 127t51 94q-38 48 -61.5 123t-29 150t-8 156t0.5 139q1 229 -6 302q-19 206 -120 283q-110 84 -339 45q-44 -3 -68.5 47t-17 101.5t42.5 52.5q95 20 174.5 15.5t145 -21t118.5 -53.5t94 -82.5
t71.5 -107t52 -127t34 -143.5t18 -156t5.5 -165q0 -10 -1.5 -43t-1.5 -56.5v-62.5t3 -68t8 -64.5t14.5 -61t22.5 -48t32.5 -35t44.5 -13.5z" />
    <glyph glyph-name="asciitilde" unicode="~" horiz-adv-x="1206" 
d="M37 1802q31 77 77.5 122.5t100 59.5t113.5 11.5t121.5 -18t121.5 -33t116 -30t102 -12.5t82 24t55 75q7 26 35 30.5t49.5 -12.5t13.5 -43q-21 -80 -61 -128t-91.5 -63.5t-112 -13t-125 18.5t-128.5 34.5t-123.5 32t-108.5 14.5t-85.5 -22.5t-53.5 -74.5
q-12 -33 -38.5 -34t-46 20t-13.5 42z" />
    <glyph glyph-name="exclamdown" unicode="&#xa1;" horiz-adv-x="540" 
d="M293 1114q-67 0 -114.5 47t-47.5 113t47.5 113t114.5 47q68 0 116 -47t48 -113t-48 -113t-116 -47zM195 924q0 29 20 48.5t49 23.5t58 -1.5t49.5 -27.5t21.5 -54q1 -47 19 -346.5t31.5 -568.5t5.5 -293q-31 -45 -113 -57.5t-151 9.5t-68 64z" />
    <glyph glyph-name="cent" unicode="&#xa2;" horiz-adv-x="1071" 
d="M674 1944l2 -537q117 -15 192.5 -101.5t75.5 -207.5q0 -34 -6 -64q-32 -37 -82 -37q-24 0 -35.5 22.5t-12.5 56.5t-5 74t-12 74t-35.5 56.5t-73.5 22.5h-6l4 -1160q67 37 113 131.5t62.5 186t16.5 172.5q0 67 58 67q32 0 47.5 -20.5t15.5 -52.5q0 -87 -18 -175.5
t-54 -172.5t-98.5 -149t-142.5 -93l2 -545q-1 -30 -22.5 -51.5t-51.5 -28t-60 -2.5t-50.5 25.5t-20.5 54.5l-2 537q-102 18 -182.5 80t-128.5 150.5t-73 189.5t-25 206q0 108 25 219.5t73 214t127 182.5t178 115l-2 535q0 52 48.5 71.5t99.5 4t59 -50.5zM475 176l-4 979
q-59 -105 -86 -252.5t-27 -265.5q0 -112 27 -250t90 -211z" />
    <glyph glyph-name="sterling" unicode="&#xa3;" horiz-adv-x="1374" 
d="M311 969q0 28 10.5 57t34.5 29l197 -4q1 28 1 94.5t0.5 118.5t4 130.5t9.5 141t19 138t31 132.5t47 113.5t64.5 93.5t86 59.5t110.5 22.5q65 0 111 -29.5t69 -80.5t33 -104t10 -114v-7q1 -195 -62 -195q-53 0 -53 53q0 24 7.5 73.5t7.5 75.5q0 37 -4.5 70.5t-16 71.5
t-38 61t-64.5 23q-32 0 -57.5 -28.5t-41 -80t-26 -106t-15.5 -125.5t-7.5 -118.5t-3.5 -104t-1 -64.5q-8 -215 -14 -319l186 -5q28 0 44 -28.5t16 -59.5q0 -32 -18.5 -53.5t-49.5 -21.5q-64 0 -190 4q-41 -430 -154 -647q5 -2 35.5 -11.5t39 -12t36.5 -10.5t40.5 -11.5
t37.5 -9.5t41.5 -8.5t38 -6t40.5 -5t37 -1.5q191 0 238 194q3 15 6 45.5t6 46.5q8 33 47 33q23 0 39 -11.5t16 -33.5q0 -51 -20 -129q-32 -128 -105.5 -194t-199.5 -66q-22 0 -45.5 1.5t-50 6.5t-46.5 8.5t-51 11.5t-47 12t-50.5 15t-45.5 14.5t-48 16t-44 14.5
q-151 -204 -297 -204q-141 0 -204 95t-10.5 190.5t191.5 95.5q84 0 240 -46q33 82 53.5 199.5t26.5 204t10 207.5l-199 4q-15 0 -24.5 15.5t-12 31.5t-2.5 31zM410 186q-112 33 -191 33q-37 0 -60.5 -18t-28 -43.5t3 -51t32 -43.5t59.5 -18q89 0 185 141z" />
    <glyph glyph-name="yen" unicode="&#xa5;" horiz-adv-x="1343" 
d="M999 483q43 -4 58 -46.5t-3 -84.5t-55 -45l-225 -8l-2 -248q0 -20 -22.5 -34t-54.5 -17.5t-63.5 0t-53 21.5t-19.5 45v227l-209 -8q-38 1 -60 47t-12 92.5t50 48.5l229 4v148l-219 -7q-23 0 -40 20.5t-22.5 50.5t-3.5 59.5t17 50.5t39 22l227 2v209l-516 989
q-8 17 0.5 34t27 27.5t39.5 15.5t40.5 -0.5t27.5 -20.5q2 -3 74.5 -140t186 -349t214.5 -398l461 911q32 35 132 18q75 -13 93 -36q5 -7 2 -12l-561 -1059v-185l223 2q43 -3 58 -49t-3 -92t-55 -49l-225 -6v-154z" />
    <glyph glyph-name="dieresis" unicode="&#xa8;" horiz-adv-x="1083" 
d="M252 1470q-69 0 -118.5 48t-49.5 114q0 67 49.5 115.5t118.5 48.5t118.5 -48.5t49.5 -115.5q0 -66 -49.5 -114t-118.5 -48zM758 1790q69 0 118.5 -47.5t49.5 -114.5t-49.5 -114.5t-118.5 -47.5t-118.5 47.5t-49.5 114.5t49.5 114.5t118.5 47.5z" />
    <glyph glyph-name="plusminus" unicode="&#xb1;" horiz-adv-x="1341" 
d="M1176 860q43 -4 58 -63t-3 -117.5t-55 -61.5q-167 0 -369 -10q-4 -250 -2 -379q-5 -43 -64.5 -58t-117.5 3t-60 55q0 2 -6 371q-198 -7 -369 -4q-23 1 -41 27t-25.5 63t-7 74t14 63t37.5 27q63 3 383 8q-3 192 2 359q1 23 27 41.5t63 25.5t74 6.5t63 -14.5t27 -37
q4 -131 4 -381q242 0 367 2zM1133 137q35 -3 46.5 -49t-3 -91.5t-43.5 -47.5q-217 -3 -443 -12q-323 -8 -448 -5q-29 1 -46 49.5t-10 97t37 50.5q145 6 459 6q306 0 451 2z" />
    <glyph glyph-name="acute" unicode="&#xb4;" horiz-adv-x="606" 
d="M365 1896q20 11 54 2t59 -39t9 -57l-208 -354q-9 -16 -31 -17.5t-45.5 9t-44.5 25.5t-31.5 33.5t-3.5 31.5z" />
    <glyph glyph-name="cedilla" unicode="&#xb8;" horiz-adv-x="395" 
d="M35 -78q5 6 66 22.5t81 16.5q138 0 189.5 -89t-12 -178t-203.5 -89q-71 0 -105.5 33t-34.5 79q0 47 31 47q15 0 19 -4t4 -18l-7 -21q0 -43 25.5 -64.5t69.5 -21.5q89 0 123.5 68t0.5 136.5t-112 68.5q-52 0 -76 -31q-14 -16 -35.5 -15t-29.5 16.5t6 43.5z" />
    <glyph glyph-name="onequarter" unicode="&#xbc;" horiz-adv-x="2242" 
d="M657 1044q26 0 38 -14t1 -28.5t-41 -14.5l-505 -4q-15 0 -22 14.5t0.5 29t27.5 15.5l129 5l10 966l-168 -147q-25 -12 -62 7q-30 16 -16 28l193 172q49 33 127 45t137 1t63 -38l-32 -1037h120zM1098 2054q9 55 66.5 76.5t104 -9.5t29.5 -102l-487 -2478
q-13 -34 -66.5 -47t-98.5 9t-38 73zM2048 -430q23 0 34 -16.5t1 -33t-37 -16.5l-444 -4q-13 0 -19 16.5t0.5 33.5t24.5 18l112 4l2 266q-141 -2 -542 -2q-64 0 -64 60v26l567 817q44 37 112 51t120 1.5t55 -43.5l-18 -824q25 0 76.5 1t74.5 1q30 0 40 -29q11 -31 -15 -49
q-15 -10 -39 -10h-139l-8 -268h106zM1272 -78h452l23 725z" />
    <glyph glyph-name="onehalf" unicode="&#xbd;" horiz-adv-x="2519" 
d="M1296 2054q9 55 66.5 76.5t104.5 -9.5t30 -102l-487 -2478q-13 -34 -66.5 -47t-98.5 9t-38 73zM1487 -475q-11 0 -21 4t-10 10q0 13 13 37t24 35q104 90 214 209.5t214.5 256.5t171 277t66.5 244q0 82 -52.5 127t-146.5 45q-137 0 -233 -58t-197 -202q-13 -18 -43 -18
q-24 0 -45 10t-21 26q0 9 2 13q65 141 227 228t351 87q179 0 289 -77t110 -201t-113.5 -317t-290 -376t-345.5 -278q262 6 784 6q14 0 23.5 -11.5t9.5 -23.5q0 -27 -27 -39t-98 -12zM657 1044q26 0 38 -14t1 -28.5t-41 -14.5l-505 -4q-15 0 -22 14.5t0.5 29t27.5 15.5l129 5
l10 966l-168 -147q-25 -12 -62 7q-30 16 -16 28l193 172q49 33 127 45t137 1t63 -38l-32 -1037h120z" />
    <glyph glyph-name="threequarters" unicode="&#xbe;" horiz-adv-x="2283" 
d="M598 1470q111 -7 172 -82t61 -174q0 -154 -120.5 -251t-302.5 -97q-152 0 -246 79t-94 208q0 145 69 145q15 0 28 -8.5t13 -21.5q0 -10 -11 -51.5t-11 -65.5q0 -90 62.5 -155.5t166.5 -65.5q138 0 198 115q49 93 26 207q-20 102 -84 142q-28 17 -60 17q-1 0 -19.5 -0.5
t-27.5 0t-23.5 3t-21 9.5t-6.5 17t2 16t3 8.5t9 9.5t12 11q89 82 155 191t66 204q0 68 -41 118t-118 50q-54 0 -95.5 -22t-65.5 -59t-37 -76t-19 -83q-2 -10 -3 -36t-4 -39q-4 -19 -13.5 -25t-31.5 -6q-25 0 -42 13.5t-17 33.5q0 57 12.5 109.5t39.5 100.5t66.5 83.5
t98 56.5t129.5 21q138 0 231 -80t93 -197q0 -174 -199 -373zM1241 2054q9 55 66.5 76.5t104.5 -9.5t30 -102l-488 -2478q-13 -34 -66 -47t-98 9t-38 73zM2111 -344q20 1 29.5 -15.5t0.5 -33.5t-32 -17l-387 -6q-11 0 -16.5 17.5t0 35.5t20.5 19l101 4l2 277h-475
q-8 0 -13.5 1t-17.5 5.5t-18.5 18.5t-6.5 36v27l496 854q38 39 97.5 53t104.5 1t48 -44l-16 -862q22 0 66.5 1t64.5 1q22 0 33 -22t-0.5 -44.5t-43.5 -23.5l-123 -2l-6 -279zM1434 25l395 2l20 755z" />
    <glyph glyph-name="questiondown" unicode="&#xbf;" horiz-adv-x="825" 
d="M336 1100q68 0 118 47t50 115t-50 115.5t-118 47.5q-69 0 -119.5 -47.5t-50.5 -115.5t50.5 -115t119.5 -47zM788 238q0 -75 -15 -147.5t-48 -138.5t-80 -115.5t-115 -79t-149 -29.5q-150 0 -241 102t-91 254q0 77 24.5 171.5t58.5 183t67 176t54 175.5t17 156
q0 25 25 35.5t50.5 -0.5t27.5 -39q4 -32 4 -49q0 -115 -44 -342t-44 -342q0 -44 12.5 -92.5t35.5 -92t62.5 -72t87.5 -28.5q46 0 81 27.5t54.5 67.5t31.5 93t16 95t4 82q0 25 -4 75t-4 76q0 52 53 52q71 0 69 -241v-13z" />
    <glyph glyph-name="Agrave" unicode="&#xc0;" horiz-adv-x="1294" 
d="M590 2587l241 -367q7 -13 -3.5 -31.5t-31 -33.5t-44 -25.5t-45.5 -9t-31 17.5l-209 354q-12 21 0 44t36 36.5t49 20t38 -5.5zM18 43q0 2 153 491t314 995.5t177 541.5q20 43 100 43q117 0 133 -37q6 -15 43 -283q33 -229 113 -723q19 -118 44 -258t43.5 -238t50 -264
t46.5 -245l2 -15q0 -36 -32 -55t-70 -19q-53 0 -94.5 23.5t-55.5 67.5q-7 22 -12.5 49.5t-11.5 63t-9 50.5q-38 199 -78 424q-352 0 -528 -6q-6 -20 -110 -407q-4 -15 -13 -59t-18 -80.5t-17 -53.5q-13 -31 -34.5 -42t-57.5 -11q-27 0 -52.5 11t-25.5 36zM371 752
q162 6 485 6q-29 162 -56.5 346t-58 406.5t-49.5 347.5q-20 -59 -39.5 -118.5t-40 -127t-35.5 -117t-37.5 -128.5t-33.5 -118t-35.5 -128.5t-32 -118t-34.5 -129.5t-33 -121z" />
    <glyph glyph-name="Aacute" unicode="&#xc1;" horiz-adv-x="1294" 
d="M18 43q0 2 153 491t314 995.5t177 541.5q20 43 100 43q117 0 133 -37q6 -15 43 -283q33 -229 113 -723q19 -118 44 -258t43.5 -238t50 -264t46.5 -245l2 -15q0 -36 -32 -55t-70 -19q-53 0 -94.5 23.5t-55.5 67.5q-7 22 -12.5 49.5t-11.5 63t-9 50.5q-38 199 -78 424
q-352 0 -528 -6q-6 -20 -110 -407q-4 -15 -13 -59t-18 -80.5t-17 -53.5q-13 -31 -34.5 -42t-57.5 -11q-27 0 -52.5 11t-25.5 36zM371 752q162 6 485 6q-29 162 -56.5 346t-58 406.5t-49.5 347.5q-20 -59 -39.5 -118.5t-40 -127t-35.5 -117t-37.5 -128.5t-33.5 -118
t-35.5 -128.5t-32 -118t-34.5 -129.5t-33 -121zM928 2587q12 11 38 6t49 -20.5t36.5 -37t-0.5 -43.5l-209 -354q-9 -16 -31 -17.5t-45.5 9t-44.5 25.5t-31.5 33.5t-3.5 31.5z" />
    <glyph glyph-name="Acircumflex" unicode="&#xc2;" horiz-adv-x="1294" 
d="M1214 2152q19 -27 -12.5 -61.5t-75 -40.5t-75.5 27l-256 342l-353 -314q-32 -12 -70.5 5t-51 44.5t11.5 55.5l465 424q20 12 35.5 10t25.5 -10zM18 43q0 2 153 491t314 995.5t177 541.5q20 43 100 43q117 0 133 -37q6 -15 43 -283q33 -229 113 -723q19 -118 44 -258
t43.5 -238t50 -264t46.5 -245l2 -15q0 -36 -32 -55t-70 -19q-53 0 -94.5 23.5t-55.5 67.5q-7 22 -12.5 49.5t-11.5 63t-9 50.5q-38 199 -78 424q-352 0 -528 -6q-6 -20 -110 -407q-4 -15 -13 -59t-18 -80.5t-17 -53.5q-13 -31 -34.5 -42t-57.5 -11q-27 0 -52.5 11t-25.5 36z
M371 752q162 6 485 6q-29 162 -56.5 346t-58 406.5t-49.5 347.5q-20 -59 -39.5 -118.5t-40 -127t-35.5 -117t-37.5 -128.5t-33.5 -118t-35.5 -128.5t-32 -118t-34.5 -129.5t-33 -121z" />
    <glyph glyph-name="Atilde" unicode="&#xc3;" horiz-adv-x="1294" 
d="M248 2251q31 77 77.5 122.5t100 59.5t113.5 11.5t121.5 -18.5t121.5 -33.5t116 -30t102 -12.5t82 24t55 75q7 26 35 30.5t49.5 -12t13.5 -42.5q-21 -80 -61 -128t-91.5 -63.5t-112 -13t-125 18t-128.5 34t-123.5 32t-108.5 14.5t-85.5 -22.5t-53.5 -74.5
q-12 -33 -38.5 -34t-46 20.5t-13.5 42.5zM18 43q0 2 153 491t314 995.5t177 541.5q20 43 100 43q117 0 133 -37q6 -15 43 -283q33 -229 113 -723q19 -118 44 -258t43.5 -238t50 -264t46.5 -245l2 -15q0 -36 -32 -55t-70 -19q-53 0 -94.5 23.5t-55.5 67.5q-7 22 -12.5 49.5
t-11.5 63t-9 50.5q-38 199 -78 424q-352 0 -528 -6q-6 -20 -110 -407q-4 -15 -13 -59t-18 -80.5t-17 -53.5q-13 -31 -34.5 -42t-57.5 -11q-27 0 -52.5 11t-25.5 36zM371 752q162 6 485 6q-29 162 -56.5 346t-58 406.5t-49.5 347.5q-20 -59 -39.5 -118.5t-40 -127t-35.5 -117
t-37.5 -128.5t-33.5 -118t-35.5 -128.5t-32 -118t-34.5 -129.5t-33 -121z" />
    <glyph glyph-name="Adieresis" unicode="&#xc4;" horiz-adv-x="1294" 
d="M18 43q0 2 153 491t314 995.5t177 541.5q20 43 100 43q117 0 133 -37q6 -15 43 -283q33 -229 113 -723q19 -118 44 -258t43.5 -238t50 -264t46.5 -245l2 -15q0 -36 -32 -55t-70 -19q-53 0 -94.5 23.5t-55.5 67.5q-7 22 -12.5 49.5t-11.5 63t-9 50.5q-38 199 -78 424
q-352 0 -528 -6q-6 -20 -110 -407q-4 -15 -13 -59t-18 -80.5t-17 -53.5q-13 -31 -34.5 -42t-57.5 -11q-27 0 -52.5 11t-25.5 36zM371 752q162 6 485 6q-29 162 -56.5 346t-58 406.5t-49.5 347.5q-20 -59 -39.5 -118.5t-40 -127t-35.5 -117t-37.5 -128.5t-33.5 -118
t-35.5 -128.5t-32 -118t-34.5 -129.5t-33 -121zM512 2161q-69 0 -118.5 47.5t-49.5 113.5q0 67 49.5 115.5t118.5 48.5t118.5 -48.5t49.5 -115.5q0 -66 -49.5 -113.5t-118.5 -47.5zM1018 2480q69 0 118.5 -47.5t49.5 -114.5t-49.5 -114t-118.5 -47t-118.5 47t-49.5 114
t49.5 114.5t118.5 47.5z" />
    <glyph glyph-name="Aring" unicode="&#xc5;" horiz-adv-x="1294" 
d="M803 2691q83 0 160 -35t129.5 -106t52.5 -162q0 -115 -77.5 -193.5t-188.5 -101.5q13 -6 16 -16q6 -15 43 -283q33 -229 113 -723q19 -118 44 -258t43.5 -238t50 -264t46.5 -245l2 -15q0 -36 -32 -55t-70 -19q-53 0 -94.5 23.5t-55.5 67.5q-7 22 -12.5 49.5t-11.5 63
t-9 50.5q-38 199 -78 424q-352 0 -528 -6q-6 -20 -110 -407q-4 -15 -13 -59t-18 -80.5t-17 -53.5q-13 -31 -34.5 -42t-57.5 -11q-27 0 -52.5 11t-25.5 36q0 2 153 491t314 995.5t177 541.5q8 19 30 30q-99 31 -165 106.5t-66 180.5q0 91 52.5 162t129.5 106t160 35z
M803 2548q-45 0 -91 -16.5t-81 -54.5t-35 -89t35 -89t81 -54.5t91 -16.5t91.5 16.5t82 54.5t35.5 89t-35.5 89t-82 54.5t-91.5 16.5zM371 752q162 6 485 6q-29 162 -56.5 346t-58 406.5t-49.5 347.5q-20 -59 -39.5 -118.5t-40 -127t-35.5 -117t-37.5 -128.5t-33.5 -118
t-35.5 -128.5t-32 -118t-34.5 -129.5t-33 -121z" />
    <glyph glyph-name="AE" unicode="&#xc6;" horiz-adv-x="2076" 
d="M1155 1950q-1 62 37.5 100t99 48.5t133.5 14t141 -2.5q22 -1 33 -1q55 -2 154.5 -6.5t164.5 -7t93 -2.5q19 -2 27.5 -18t7 -34.5t-11 -33.5t-23.5 -16q-268 0 -381 2h-1h-1h-1h-1h-1h-1h-1h-1h-1h-1h-1h-1h-1h-1h-1h-1h-1h-1h-1l-2 1q-136 3 -162 -6q-27 -9 -29 -43
q-1 -12 1 -47q2 -41 2 -67l13 -756l170 4q94 2 317 2q21 -2 22.5 -49t-22.5 -53q-233 0 -317 -2l-172 -4q0 -15 -1 -299t-1 -422q0 -27 -2 -68q-4 -70 17 -81t150 -8h14t13.5 0.5t15.5 0.5q113 2 381 2q14 -1 23.5 -16t11 -33.5t-7 -34.5t-27.5 -18q-28 0 -92.5 -2.5
t-164 -7t-154.5 -6.5q-27 -1 -93 -5.5t-103 -5.5t-85 5.5t-78 23.5q-30 -21 -73 -21q-53 0 -94.5 23.5t-55.5 67.5q-7 22 -12.5 49.5t-11.5 63t-9 50.5q-38 199 -78 424q-352 0 -528 -6q-74 -270 -111 -407q-4 -15 -13 -59t-17.5 -80.5t-16.5 -53.5q-13 -31 -34.5 -42
t-57.5 -11q-27 0 -52.5 11t-25.5 36q0 2 152.5 491t313.5 995.5t177 541.5q20 43 101 43q117 0 133 -37q6 -15 43 -283q102 -694 199 -1208q0 18 -1 52t-1 52q-4 156 -12.5 695t-8.5 565zM412 752q162 6 485 6q-29 162 -56.5 346t-58 406.5t-49.5 347.5
q-20 -59 -39.5 -118.5t-40 -127t-35.5 -117t-37.5 -128.5t-33.5 -118t-35.5 -128.5t-32 -118t-34.5 -129.5t-33 -121z" />
    <glyph glyph-name="Ccedilla" unicode="&#xc7;" horiz-adv-x="1241" 
d="M791 2140q91 0 163 -37t116 -100t66.5 -141.5t22.5 -165.5q0 -28 -20.5 -43t-48.5 -15q-30 0 -47 29.5t-22.5 73.5t-17.5 96t-29.5 96t-61.5 73.5t-111 29.5q-78 0 -144.5 -50t-112.5 -130.5t-82.5 -187.5t-58.5 -215t-36 -219.5t-19.5 -194t-5.5 -144.5q0 -53 3 -112
t12 -143t23.5 -160.5t41.5 -155t62 -135t87.5 -92.5t116.5 -36q78 0 145.5 50.5t109.5 126t65.5 159t23.5 154.5q0 19 0.5 27.5t3.5 23t8.5 21.5t17.5 12.5t30 5.5q59 0 59 -70q0 -102 -33.5 -207.5t-93 -195t-151.5 -147.5t-199 -62q-4 -16 -6 -39t-2.5 -43t-1.5 -24
q44 18 96 18q138 0 189.5 -89t-12.5 -178t-204 -89q-71 0 -105 32.5t-34 79.5t31 47q15 0 18.5 -4t3.5 -18l-6 -21q0 -86 94 -86q89 0 124 68.5t1 136.5t-112 68q-52 0 -76 -31q1 -7 -6.5 -11.5t-20.5 -4.5q-25 0 -33 16v123q0 37 2 51q-90 8 -167.5 50t-133.5 105.5
t-100.5 147t-72.5 172.5t-47 185t-26.5 181t-7.5 165q0 98 11 202.5t37 220.5t65 222t98.5 203.5t132.5 168.5t173 113.5t215 42.5z" />
    <glyph glyph-name="Egrave" unicode="&#xc8;" horiz-adv-x="1030" 
d="M109 1950q-1 62 37.5 100t99 48.5t133.5 14t141 -2.5q22 -1 33 -1q55 -2 154.5 -6.5t164.5 -7t93 -2.5q19 -2 27.5 -18t7 -34.5t-11 -33.5t-23.5 -16q-268 0 -381 2h-1h-1h-1h-1h-1h-1h-1h-1h-1h-1h-1h-1h-1h-1h-1h-1h-1h-1h-1l-2 1q-136 3 -162 -6q-27 -9 -29 -43
q-1 -12 1 -47q2 -41 2 -67l12 -756l170 4q94 2 317 2q21 -2 22.5 -49t-22.5 -53q-233 0 -317 -2l-172 -4q0 -15 -1 -299t-1 -422q0 -26 -2 -66q-3 -72 17.5 -83t150.5 -8q27 1 43 1q113 2 381 2q14 -1 23.5 -16t11 -33.5t-7 -34.5t-27.5 -18q-28 0 -93 -2.5t-164.5 -7
t-154.5 -6.5q-26 -1 -70.5 -4t-75 -5t-71.5 -1.5t-68.5 5t-57 16t-47 29.5t-28.5 48.5t-10 70.5q3 179 -4 551q-4 153 -11.5 680.5t-8.5 579.5zM457 2587l241 -367q7 -13 -3.5 -31.5t-31 -33.5t-44 -25.5t-45.5 -9t-31 17.5l-209 354q-12 21 0 44t36 36.5t49 20t38 -5.5z
" />
    <glyph glyph-name="Eacute" unicode="&#xc9;" horiz-adv-x="1030" 
d="M109 1950q-1 62 37.5 100t99 48.5t133.5 14t141 -2.5q22 -1 33 -1q55 -2 154.5 -6.5t164.5 -7t93 -2.5q19 -2 27.5 -18t7 -34.5t-11 -33.5t-23.5 -16q-268 0 -381 2h-1h-1h-1h-1h-1h-1h-1h-1h-1h-1h-1h-1h-1h-1h-1h-1h-1h-1h-1l-2 1q-136 3 -162 -6q-27 -9 -29 -43
q-1 -12 1 -47q2 -41 2 -67l12 -756l170 4q94 2 317 2q21 -2 22.5 -49t-22.5 -53q-233 0 -317 -2l-172 -4q0 -15 -1 -299t-1 -422q0 -26 -2 -66q-3 -72 17.5 -83t150.5 -8q27 1 43 1q113 2 381 2q14 -1 23.5 -16t11 -33.5t-7 -34.5t-27.5 -18q-28 0 -93 -2.5t-164.5 -7
t-154.5 -6.5q-26 -1 -70.5 -4t-75 -5t-71.5 -1.5t-68.5 5t-57 16t-47 29.5t-28.5 48.5t-10 70.5q3 179 -4 551q-4 153 -11.5 680.5t-8.5 579.5zM573 2587q12 11 38 6t49 -20.5t36.5 -37t-0.5 -43.5l-209 -354q-9 -16 -31 -17.5t-45.5 9t-44 25.5t-31 33.5t-3.5 31.5z" />
    <glyph glyph-name="Ecircumflex" unicode="&#xca;" horiz-adv-x="1030" 
d="M975 2277q21 -26 -8 -62.5t-72 -46.5t-78 21l-280 322l-328 -340q-31 -14 -71 0t-55 40.5t7 55.5l430 459q19 13 35.5 12.5t26.5 -8.5zM109 1950q-1 62 37.5 100t99 48.5t133.5 14t141 -2.5q22 -1 33 -1q55 -2 154.5 -6.5t164.5 -7t93 -2.5q19 -2 27.5 -18t7 -34.5
t-11 -33.5t-23.5 -16q-268 0 -381 2h-1h-1h-1h-1h-1h-1h-1h-1h-1h-1h-1h-1h-1h-1h-1h-1h-1h-1h-1l-2 1q-136 3 -162 -6q-27 -9 -29 -43q-1 -12 1 -47q2 -41 2 -67l12 -756l170 4q94 2 317 2q21 -2 22.5 -49t-22.5 -53q-233 0 -317 -2l-172 -4q0 -15 -1 -299t-1 -422
q0 -26 -2 -66q-3 -72 17.5 -83t150.5 -8q27 1 43 1q113 2 381 2q14 -1 23.5 -16t11 -33.5t-7 -34.5t-27.5 -18q-28 0 -93 -2.5t-164.5 -7t-154.5 -6.5q-26 -1 -70.5 -4t-75 -5t-71.5 -1.5t-68.5 5t-57 16t-47 29.5t-28.5 48.5t-10 70.5q3 179 -4 551q-4 153 -11.5 680.5
t-8.5 579.5z" />
    <glyph glyph-name="Edieresis" unicode="&#xcb;" horiz-adv-x="1030" 
d="M324 2161q-69 0 -118.5 47.5t-49.5 113.5q0 67 49.5 115.5t118.5 48.5t118.5 -48.5t49.5 -115.5q0 -66 -49.5 -113.5t-118.5 -47.5zM768 2480q69 0 118.5 -47.5t49.5 -114.5t-49.5 -114t-118.5 -47t-118.5 47t-49.5 114t49.5 114.5t118.5 47.5zM109 1950q-1 62 37.5 100
t99 48.5t133.5 14t141 -2.5q22 -1 33 -1q55 -2 154.5 -6.5t164.5 -7t93 -2.5q19 -2 27.5 -18t7 -34.5t-11 -33.5t-23.5 -16q-268 0 -381 2h-1h-1h-1h-1h-1h-1h-1h-1h-1h-1h-1h-1h-1h-1h-1h-1h-1h-1h-1l-2 1q-136 3 -162 -6q-27 -9 -29 -43q-1 -12 1 -47q2 -41 2 -67l12 -756
l170 4q94 2 317 2q21 -2 22.5 -49t-22.5 -53q-233 0 -317 -2l-172 -4q0 -15 -1 -299t-1 -422q0 -26 -2 -66q-3 -72 17.5 -83t150.5 -8q27 1 43 1q113 2 381 2q14 -1 23.5 -16t11 -33.5t-7 -34.5t-27.5 -18q-28 0 -93 -2.5t-164.5 -7t-154.5 -6.5q-26 -1 -70.5 -4t-75 -5
t-71.5 -1.5t-68.5 5t-57 16t-47 29.5t-28.5 48.5t-10 70.5q3 179 -4 551q-4 153 -11.5 680.5t-8.5 579.5z" />
    <glyph glyph-name="Igrave" unicode="&#xcc;" horiz-adv-x="557" 
d="M381 90h123q18 -3 22 -28t-4 -49t-20 -25q-37 1 -115.5 2t-116.5 2q-107 2 -254 6q-20 1 -26.5 27t4 51t29.5 24q14 -1 54 0t60 0q2 143 -6 590q-3 151 -11 716.5t-9 633.5q-23 -1 -93 -6q-19 -1 -29 24t-3.5 51t26.5 27q141 4 258 6q39 1 117 2t115 2q12 -1 20 -25
t4 -49t-22 -28q-34 0 -127 -6l10 -1065q0 -14 -1.5 -182t-3 -377.5t-1.5 -323.5zM137 2669l242 -367q7 -13 -3.5 -31.5t-31.5 -33.5t-44.5 -25.5t-45.5 -9t-31 17.5l-209 354q-12 21 0 44t36 36.5t49 20t38 -5.5z" />
    <glyph glyph-name="Iacute" unicode="&#xcd;" horiz-adv-x="557" 
d="M340 2648q12 11 38 6t49 -20t36.5 -36.5t-0.5 -43.5l-209 -354q-9 -16 -31 -18t-45.5 8.5t-44.5 26t-31.5 33.5t-3.5 31zM381 90h123q18 -3 22 -28t-4 -49t-20 -25q-37 1 -115.5 2t-116.5 2q-107 2 -254 6q-20 1 -26.5 27t4 51t29.5 24q14 -1 54 0t60 0q2 143 -6 590
q-3 151 -11 716.5t-9 633.5q-23 -1 -93 -6q-19 -1 -29 24t-3.5 51t26.5 27q141 4 258 6q39 1 117 2t115 2q12 -1 20 -25t4 -49t-22 -28q-34 0 -127 -6l10 -1065q0 -14 -1.5 -182t-3 -377.5t-1.5 -323.5z" />
    <glyph glyph-name="Icircumflex" unicode="&#xce;" horiz-adv-x="557" 
d="M698 2279q22 -26 -6.5 -62.5t-71 -47t-77.5 19.5l-285 320l-324 -342q-30 -15 -69.5 -2t-54.5 39.5t6 56.5l426 463q17 13 34 12.5t27 -8.5zM381 90h123q18 -3 22 -28t-4 -49t-20 -25q-37 1 -115.5 2t-116.5 2q-107 2 -254 6q-20 1 -26.5 27t4 51t29.5 24q14 -1 54 0
t60 0q2 143 -6 590q-3 151 -11 716.5t-9 633.5q-23 -1 -93 -6q-19 -1 -29 24t-3.5 51t26.5 27q141 4 258 6q39 1 117 2t115 2q12 -1 20 -25t4 -49t-22 -28q-34 0 -127 -6l10 -1065q0 -14 -1.5 -182t-3 -377.5t-1.5 -323.5z" />
    <glyph glyph-name="Idieresis" unicode="&#xcf;" horiz-adv-x="557" 
d="M66 2161q-69 0 -118.5 47.5t-49.5 113.5q0 67 49.5 115.5t118.5 48.5t118 -48t49 -116q0 -66 -49 -113.5t-118 -47.5zM469 2480q69 0 118.5 -47.5t49.5 -114.5t-49.5 -114t-118.5 -47t-118.5 47t-49.5 114t49.5 114.5t118.5 47.5zM381 90h123q18 -3 22 -28t-4 -49
t-20 -25q-37 1 -115.5 2t-116.5 2q-107 2 -254 6q-20 1 -26.5 27t4 51t29.5 24q14 -1 54 0t60 0q2 143 -6 590q-3 151 -11 716.5t-9 633.5q-23 -1 -93 -6q-19 -1 -29 24t-3.5 51t26.5 27q141 4 258 6q39 1 117 2t115 2q12 -1 20 -25t4 -49t-22 -28q-34 0 -127 -6l10 -1065
q0 -14 -1.5 -182t-3 -377.5t-1.5 -323.5z" />
    <glyph glyph-name="Eth" unicode="&#xd0;" horiz-adv-x="1427" 
d="M715 2097q107 0 198.5 -43t157.5 -119t115.5 -177.5t78 -221.5t39 -249t3.5 -263q-9 -153 -40 -298t-85.5 -273t-126.5 -223.5t-169 -151t-206 -55.5q-64 0 -129 23.5t-109 64.5q-2 -33 -2 -80q-8 -19 -52 -32.5t-94.5 -13.5t-90 32.5t-37.5 95.5q6 106 -14 757h-177
q-53 0 -74.5 63.5t-4.5 126.5t57 62q41 0 103.5 -1t86.5 -1q-16 495 -16 865q-7 82 64 120q60 33 122 13q63 -29 68 -88q2 -9 5 -72t5 -78q68 103 162 160t162 57zM664 121q74 0 138 77.5t107.5 207.5t71.5 292t37 338q9 184 -5.5 354t-50 308.5t-101 221.5t-152.5 83
q-99 -3 -189.5 -113t-99.5 -270q-4 -123 2 -494q211 6 254 7q43 -4 58 -62.5t-3 -116.5t-55 -61q-39 -2 -126 -7t-124 -7q7 -340 14 -445q9 -131 75 -222t149 -91z" />
    <glyph glyph-name="Ntilde" unicode="&#xd1;" horiz-adv-x="1372" 
d="M219 2302q31 77 77.5 122.5t100 59.5t113.5 11.5t121.5 -18t121.5 -33t116 -30t102 -12.5t82 24t55 75q7 26 35 30.5t49.5 -12.5t13.5 -43q-21 -80 -61 -128t-91.5 -63.5t-112 -13t-125 18t-128.5 34t-123.5 32t-108.5 14.5t-85.5 -22.5t-53.5 -74.5q-12 -33 -38.5 -34
t-46 20.5t-13.5 42.5zM1247 2077q13 -52 -2 -561q-3 -146 -9 -489t-10.5 -615t-6.5 -310q-3 -63 -43 -86.5t-88 -9.5t-80 49q-77 213 -294.5 748.5t-316.5 818.5v-1520q0 -43 -27 -69t-65 -30t-75.5 4.5t-63.5 35t-25 61.5q4 78 2.5 503t-6.5 636q-10 758 -10 762
q-1 48 44.5 82.5t103 31t87.5 -50.5q82 -224 187 -493.5t242.5 -616t195.5 -495.5l4 1089v510q-1 32 36.5 55t84 28.5t88 -12t47.5 -56.5z" />
    <glyph glyph-name="Ograve" unicode="&#xd2;" horiz-adv-x="1423" 
d="M784 2093q95 0 175.5 -31.5t138 -85t102.5 -127.5t73.5 -154.5t47 -171t26 -172.5t7.5 -163q0 -71 -8 -155t-24 -182.5t-43 -197t-63 -194.5t-87 -178.5t-110.5 -145.5t-137.5 -99t-166 -36q-101 0 -189.5 38.5t-153 103.5t-117 153.5t-87 184.5t-57.5 200t-33 197.5
t-10 179.5q0 98 11 196.5t37 201.5t64.5 195t96.5 173.5t130 141t168.5 94t208.5 34.5zM715 78q81 0 152 48t121.5 126.5t92 182t68 210.5t44 215.5t25 194t7.5 149.5t-4.5 129.5t-17 145t-32 150t-53.5 138t-77.5 116.5t-106.5 78.5t-139 29.5q-81 0 -149 -39t-115 -102.5
t-83.5 -150t-58 -175t-35.5 -184t-19 -170.5t-5 -142q0 -53 4 -122t15.5 -162t29.5 -182.5t48.5 -178.5t69 -155.5t95 -108t123.5 -41.5zM653 2587l242 -367q7 -13 -3.5 -31.5t-31.5 -33.5t-44.5 -25.5t-45.5 -9t-31 17.5l-209 354q-12 21 0 44t36 36.5t49 20t38 -5.5z" />
    <glyph glyph-name="Oacute" unicode="&#xd3;" horiz-adv-x="1423" 
d="M918 2587q12 11 38 6t48.5 -20.5t36 -37t-0.5 -43.5l-209 -354q-9 -16 -31 -17.5t-45.5 9t-44 25.5t-31 33.5t-3.5 31.5zM784 2093q95 0 175.5 -31.5t138 -85t102.5 -127.5t73.5 -154.5t47 -171t26 -172.5t7.5 -163q0 -71 -8 -155t-24 -182.5t-43 -197t-63 -194.5
t-87 -178.5t-110.5 -145.5t-137.5 -99t-166 -36q-101 0 -189.5 38.5t-153 103.5t-117 153.5t-87 184.5t-57.5 200t-33 197.5t-10 179.5q0 98 11 196.5t37 201.5t64.5 195t96.5 173.5t130 141t168.5 94t208.5 34.5zM715 78q81 0 152 48t121.5 126.5t92 182t68 210.5t44 215.5
t25 194t7.5 149.5t-4.5 129.5t-17 145t-32 150t-53.5 138t-77.5 116.5t-106.5 78.5t-139 29.5q-81 0 -149 -39t-115 -102.5t-83.5 -150t-58 -175t-35.5 -184t-19 -170.5t-5 -142q0 -53 4 -122t15.5 -162t29.5 -182.5t48.5 -178.5t69 -155.5t95 -108t123.5 -41.5z" />
    <glyph glyph-name="Ocircumflex" unicode="&#xd4;" horiz-adv-x="1423" 
d="M1225 2138q19 -27 -13 -61.5t-75.5 -41t-75.5 26.5l-256 342l-352 -313q-32 -12 -71 4.5t-51.5 44t11.5 55.5l465 424q20 12 35.5 10t25.5 -10zM784 2093q95 0 175.5 -31.5t138 -85t102.5 -127.5t73.5 -154.5t47 -171t26 -172.5t7.5 -163q0 -71 -8 -155t-24 -182.5
t-43 -197t-63 -194.5t-87 -178.5t-110.5 -145.5t-137.5 -99t-166 -36q-101 0 -189.5 38.5t-153 103.5t-117 153.5t-87 184.5t-57.5 200t-33 197.5t-10 179.5q0 98 11 196.5t37 201.5t64.5 195t96.5 173.5t130 141t168.5 94t208.5 34.5zM715 78q81 0 152 48t121.5 126.5
t92 182t68 210.5t44 215.5t25 194t7.5 149.5t-4.5 129.5t-17 145t-32 150t-53.5 138t-77.5 116.5t-106.5 78.5t-139 29.5q-81 0 -149 -39t-115 -102.5t-83.5 -150t-58 -175t-35.5 -184t-19 -170.5t-5 -142q0 -53 4 -122t15.5 -162t29.5 -182.5t48.5 -178.5t69 -155.5
t95 -108t123.5 -41.5z" />
    <glyph glyph-name="Otilde" unicode="&#xd5;" horiz-adv-x="1423" 
d="M264 2261q31 77 77.5 122.5t100 59.5t113.5 11.5t121.5 -18t121.5 -33t116 -30t102 -12.5t82 24t55 75q7 26 35 30.5t49.5 -12.5t13.5 -43q-21 -80 -61 -128t-91.5 -63.5t-112 -13t-125 18t-128.5 34t-123.5 32t-108.5 14.5t-85.5 -22.5t-53.5 -74.5q-12 -33 -38.5 -34
t-46 20.5t-13.5 42.5zM784 2093q95 0 175.5 -31.5t138 -85t102.5 -127.5t73.5 -154.5t47 -171t26 -172.5t7.5 -163q0 -71 -8 -155t-24 -182.5t-43 -197t-63 -194.5t-87 -178.5t-110.5 -145.5t-137.5 -99t-166 -36q-101 0 -189.5 38.5t-153 103.5t-117 153.5t-87 184.5
t-57.5 200t-33 197.5t-10 179.5q0 98 11 196.5t37 201.5t64.5 195t96.5 173.5t130 141t168.5 94t208.5 34.5zM715 78q81 0 152 48t121.5 126.5t92 182t68 210.5t44 215.5t25 194t7.5 149.5t-4.5 129.5t-17 145t-32 150t-53.5 138t-77.5 116.5t-106.5 78.5t-139 29.5
q-81 0 -149 -39t-115 -102.5t-83.5 -150t-58 -175t-35.5 -184t-19 -170.5t-5 -142q0 -53 4 -122t15.5 -162t29.5 -182.5t48.5 -178.5t69 -155.5t95 -108t123.5 -41.5z" />
    <glyph glyph-name="Odieresis" unicode="&#xd6;" horiz-adv-x="1423" 
d="M784 2093q95 0 175.5 -31.5t138 -85t102.5 -127.5t73.5 -154.5t47 -171t26 -172.5t7.5 -163q0 -71 -8 -155t-24 -182.5t-43 -197t-63 -194.5t-87 -178.5t-110.5 -145.5t-137.5 -99t-166 -36q-101 0 -189.5 38.5t-153 103.5t-117 153.5t-87 184.5t-57.5 200t-33 197.5
t-10 179.5q0 98 11 196.5t37 201.5t64.5 195t96.5 173.5t130 141t168.5 94t208.5 34.5zM715 78q81 0 152 48t121.5 126.5t92 182t68 210.5t44 215.5t25 194t7.5 149.5t-4.5 129.5t-17 145t-32 150t-53.5 138t-77.5 116.5t-106.5 78.5t-139 29.5q-81 0 -149 -39t-115 -102.5
t-83.5 -150t-58 -175t-35.5 -184t-19 -170.5t-5 -142q0 -53 4 -122t15.5 -162t29.5 -182.5t48.5 -178.5t69 -155.5t95 -108t123.5 -41.5zM459 2161q-69 0 -118.5 47.5t-49.5 113.5q0 67 49.5 115.5t118.5 48.5t118.5 -48.5t49.5 -115.5q0 -66 -49.5 -113.5t-118.5 -47.5z
M965 2480q69 0 118.5 -47.5t49.5 -114.5t-49.5 -114t-118.5 -47t-118.5 47t-49.5 114t49.5 114.5t118.5 47.5z" />
    <glyph glyph-name="multiply" unicode="&#xd7;" horiz-adv-x="1341" 
d="M1096 401q17 -28 -3.5 -64.5t-57.5 -59.5t-75.5 -33.5t-58.5 12.5q-89 121 -227 291q-242 -175 -305 -225q-29 -17 -65.5 3.5t-60 57.5t-34 75.5t13.5 57.5q56 42 157.5 120t137.5 105q-109 135 -223 295q-13 19 -3 49.5t34.5 58t55 50t58.5 25.5t45 -15q11 -13 234 -301
q170 129 289 211q19 13 50 3t58.5 -35t50 -55.5t25.5 -58.5t-14 -44q-114 -89 -304 -230q154 -205 222 -293z" />
    <glyph glyph-name="Oslash" unicode="&#xd8;" horiz-adv-x="1423" 
d="M915 2271q9 55 66.5 76.5t104.5 -9.5t30 -102l-47 -237q79 -61 137 -159.5t89 -212t45 -222t14 -217.5q0 -71 -8 -155t-24 -182.5t-43 -197t-63 -194.5t-87 -178.5t-110.5 -145.5t-137.5 -99t-166 -36q-6 0 -19.5 1t-19.5 1l-47 -244q-13 -34 -66.5 -47t-98.5 9t-38 73
l53 268q-88 50 -159.5 140.5t-117.5 195t-77 225t-44 228.5t-13 207q0 98 11 196.5t37 201.5t64.5 195t96.5 173.5t130 141t168.5 94t208.5 34.5q56 0 95 -8zM508 209l350 1776q-30 6 -63 6q-81 0 -149 -39t-115 -102.5t-83.5 -150t-58 -175t-35.5 -184t-19 -170.5t-5 -142
q0 -72 8 -168t26 -216.5t55.5 -238.5t88.5 -196zM715 78q81 0 152 48t121.5 126.5t92 182t68 210.5t44 215.5t25 194t7.5 149.5q0 81 -8 165t-27 178.5t-56.5 181.5t-89.5 147l-352 -1796q4 0 11.5 -1t11.5 -1z" />
    <glyph glyph-name="Ugrave" unicode="&#xd9;" horiz-adv-x="1421" 
d="M1010 2003q0 40 26 66.5t63.5 33t75 1t63.5 -29t26 -57.5q0 -219 -4.5 -655t-4.5 -655q0 -50 3 -186.5t1.5 -236.5t-10.5 -182q-12 -114 -125 -114q-44 0 -83.5 22t-39.5 64q0 8 1.5 23.5t1.5 23.5q-49 -54 -152 -82.5t-193 -28.5q-88 0 -159.5 21t-122 56.5t-88.5 89
t-61 111.5t-37.5 131.5t-19.5 141.5t-5 148q0 215 9 646.5t9 647.5q0 49 39 75.5t90 26.5q44 0 83.5 -21.5t60.5 -58.5q-25 -775 -25 -1312q0 -582 238 -582q68 0 123 23.5t90.5 59.5t61.5 92.5t40 108.5t21.5 121.5t9.5 119t2 112.5q0 206 -4 617.5t-4 617.5zM653 2587
l242 -367q7 -13 -3.5 -31.5t-31.5 -33.5t-44.5 -25.5t-45.5 -9t-31 17.5l-209 354q-12 21 0 44t36 36.5t49 20t38 -5.5z" />
    <glyph glyph-name="Uacute" unicode="&#xda;" horiz-adv-x="1421" 
d="M1010 2003q0 40 26 66.5t63.5 33t75 1t63.5 -29t26 -57.5q0 -219 -4.5 -655t-4.5 -655q0 -50 3 -186.5t1.5 -236.5t-10.5 -182q-12 -114 -125 -114q-44 0 -83.5 22t-39.5 64q0 8 1.5 23.5t1.5 23.5q-49 -54 -152 -82.5t-193 -28.5q-88 0 -159.5 21t-122 56.5t-88.5 89
t-61 111.5t-37.5 131.5t-19.5 141.5t-5 148q0 215 9 646.5t9 647.5q0 49 39 75.5t90 26.5q44 0 83.5 -21.5t60.5 -58.5q-25 -775 -25 -1312q0 -582 238 -582q68 0 123 23.5t90.5 59.5t61.5 92.5t40 108.5t21.5 121.5t9.5 119t2 112.5q0 206 -4 617.5t-4 617.5zM768 2587
q12 11 38 6t49 -20.5t36.5 -37t-0.5 -43.5l-209 -354q-9 -16 -31 -17.5t-45.5 9t-44.5 25.5t-31.5 33.5t-3.5 31.5z" />
    <glyph glyph-name="Ucircumflex" unicode="&#xdb;" horiz-adv-x="1421" 
d="M1157 2327q19 -27 -13 -61.5t-75.5 -41t-75.5 26.5l-256 342l-352 -314q-32 -12 -71 5t-51.5 44.5t11.5 55.5l465 424q20 12 36 10t26 -10zM1010 2003q0 40 26 66.5t63.5 33t75 1t63.5 -29t26 -57.5q0 -219 -4.5 -655t-4.5 -655q0 -50 3 -186.5t1.5 -236.5t-10.5 -182
q-12 -114 -125 -114q-44 0 -83.5 22t-39.5 64q0 8 1.5 23.5t1.5 23.5q-49 -54 -152 -82.5t-193 -28.5q-88 0 -159.5 21t-122 56.5t-88.5 89t-61 111.5t-37.5 131.5t-19.5 141.5t-5 148q0 215 9 646.5t9 647.5q0 49 39 75.5t90 26.5q44 0 83.5 -21.5t60.5 -58.5
q-25 -775 -25 -1312q0 -582 238 -582q68 0 123 23.5t90.5 59.5t61.5 92.5t40 108.5t21.5 121.5t9.5 119t2 112.5q0 206 -4 617.5t-4 617.5z" />
    <glyph glyph-name="Udieresis" unicode="&#xdc;" horiz-adv-x="1421" 
d="M1010 2003q0 40 26 66.5t63.5 33t75 1t63.5 -29t26 -57.5q0 -219 -4.5 -655t-4.5 -655q0 -50 3 -186.5t1.5 -236.5t-10.5 -182q-12 -114 -125 -114q-44 0 -83.5 22t-39.5 64q0 8 1.5 23.5t1.5 23.5q-49 -54 -152 -82.5t-193 -28.5q-88 0 -159.5 21t-122 56.5t-88.5 89
t-61 111.5t-37.5 131.5t-19.5 141.5t-5 148q0 215 9 646.5t9 647.5q0 49 39 75.5t90 26.5q44 0 83.5 -21.5t60.5 -58.5q-25 -775 -25 -1312q0 -582 238 -582q68 0 123 23.5t90.5 59.5t61.5 92.5t40 108.5t21.5 121.5t9.5 119t2 112.5q0 206 -4 617.5t-4 617.5zM459 2161
q-69 0 -118.5 47.5t-49.5 113.5q0 67 49.5 115.5t118.5 48.5t118.5 -48.5t49.5 -115.5q0 -66 -49.5 -113.5t-118.5 -47.5zM965 2480q69 0 118.5 -47.5t49.5 -114.5t-49.5 -114t-118.5 -47t-118.5 47t-49.5 114t49.5 114.5t118.5 47.5z" />
    <glyph glyph-name="Yacute" unicode="&#xdd;" horiz-adv-x="935" 
d="M526 2587q12 11 38 6t49 -20.5t36.5 -37t-0.5 -43.5l-209 -354q-9 -16 -31 -17.5t-45.5 9t-44 25.5t-31 33.5t-3.5 31.5zM381 1032l-516 989q-8 17 0.5 34t27 27.5t39.5 15.5t40.5 -0.5t27.5 -20.5q2 -3 74.5 -140t186 -349t214.5 -398l461 911q32 35 132 18
q75 -13 93 -36q5 -7 2 -12l-561 -1059l-4 -961q0 -20 -22.5 -34t-54.5 -17.5t-63.5 0t-53 21.5t-19.5 45z" />
    <glyph glyph-name="germandbls" unicode="&#xdf;" horiz-adv-x="1269" 
d="M557 -4q-31 2 -46 27.5t-10 51.5t23 29q180 0 270 162q74 133 62 318q-11 167 -86 264q-55 72 -129 72q-3 0 -29.5 -1t-40 0t-34 5t-30 15t-9.5 28q0 14 0.5 22.5t4.5 15t6.5 10t11.5 12t16 15.5q128 141 222.5 326t94.5 344q0 73 -23.5 136.5t-77 107t-128.5 43.5
q-45 0 -83 -11.5t-66 -29t-51.5 -47t-38.5 -57t-27.5 -69t-19 -72t-12 -77t-7.5 -73.5t-5 -70v-1442q0 -37 -42.5 -51.5t-83.5 1.5t-37 50v1442q0 120 29.5 229t88 199.5t157 144.5t224.5 54q198 0 332.5 -135.5t134.5 -333.5q0 -294 -287 -631q108 -9 186 -74.5t114 -159
t36 -200.5q0 -173 -80 -308t-219 -208.5t-311 -73.5z" />
    <glyph glyph-name="agrave" unicode="&#xe0;" 
d="M940 512q-15 -62 -41 -127.5t-66.5 -132.5t-88.5 -119.5t-111.5 -85.5t-130.5 -33q-94 0 -170.5 37.5t-126 98.5t-83 141.5t-47.5 163.5t-14 168q0 86 15 175t44 178t77 166.5t109 138t144.5 95.5t178.5 35q72 0 146 -30t112 -83q-1 36 11 60.5t36 36t50 16t60 4.5
q51 0 81 -9t44 -33.5t17.5 -51t3.5 -78.5q0 -177 -4 -530.5t-4 -530.5q0 -18 2 -52.5t2 -51.5t-5 -41.5t-17 -36t-37 -20.5t-62 -9q-20 0 -36 2.5t-28 6t-21.5 11.5t-15.5 13.5t-10 19t-6 20.5t-3 24.5t-1 25.5v28.5v29.5q0 22 -1 67t-1 68q0 187 -2 225zM883 997
q0 48 -2 79.5t-12 71t-28.5 62.5t-52.5 39.5t-83 16.5q-80 0 -143.5 -48t-101.5 -120t-63.5 -163.5t-35 -170t-9.5 -148.5q0 -44 4 -94t17.5 -115.5t34.5 -116.5t59.5 -86.5t87.5 -35.5q67 0 122 46.5t89 124.5t58.5 167t36.5 187.5t17 171t5 132.5zM592 1896l242 -366
q7 -13 -3.5 -31.5t-31.5 -33.5t-44.5 -25.5t-45.5 -9t-31 17.5l-209 354q-12 21 0 44t36 36t49 19.5t38 -5.5z" />
    <glyph glyph-name="aacute" unicode="&#xe1;" 
d="M940 512q-15 -62 -41 -127.5t-66.5 -132.5t-88.5 -119.5t-111.5 -85.5t-130.5 -33q-94 0 -170.5 37.5t-126 98.5t-83 141.5t-47.5 163.5t-14 168q0 86 15 175t44 178t77 166.5t109 138t144.5 95.5t178.5 35q72 0 146 -30t112 -83q-1 36 11 60.5t36 36t50 16t60 4.5
q51 0 81 -9t44 -33.5t17.5 -51t3.5 -78.5q0 -177 -4 -530.5t-4 -530.5q0 -18 2 -52.5t2 -51.5t-5 -41.5t-17 -36t-37 -20.5t-62 -9q-20 0 -36 2.5t-28 6t-21.5 11.5t-15.5 13.5t-10 19t-6 20.5t-3 24.5t-1 25.5v28.5v29.5q0 22 -1 67t-1 68q0 187 -2 225zM883 997
q0 48 -2 79.5t-12 71t-28.5 62.5t-52.5 39.5t-83 16.5q-80 0 -143.5 -48t-101.5 -120t-63.5 -163.5t-35 -170t-9.5 -148.5q0 -44 4 -94t17.5 -115.5t34.5 -116.5t59.5 -86.5t87.5 -35.5q67 0 122 46.5t89 124.5t58.5 167t36.5 187.5t17 171t5 132.5zM791 1896q20 11 54 2
t59 -39t9 -57l-208 -354q-9 -16 -31 -17.5t-45.5 9t-44.5 25.5t-31.5 33.5t-3.5 31.5z" />
    <glyph glyph-name="acircumflex" unicode="&#xe2;" 
d="M940 512q-15 -62 -41 -127.5t-66.5 -132.5t-88.5 -119.5t-111.5 -85.5t-130.5 -33q-94 0 -170.5 37.5t-126 98.5t-83 141.5t-47.5 163.5t-14 168q0 86 15 175t44 178t77 166.5t109 138t144.5 95.5t178.5 35q72 0 146 -30t112 -83q-1 36 11 60.5t36 36t50 16t60 4.5
q51 0 81 -9t44 -33.5t17.5 -51t3.5 -78.5q0 -177 -4 -530.5t-4 -530.5q0 -18 2 -52.5t2 -51.5t-5 -41.5t-17 -36t-37 -20.5t-62 -9q-20 0 -36 2.5t-28 6t-21.5 11.5t-15.5 13.5t-10 19t-6 20.5t-3 24.5t-1 25.5v28.5v29.5q0 22 -1 67t-1 68q0 187 -2 225zM883 997
q0 48 -2 79.5t-12 71t-28.5 62.5t-52.5 39.5t-83 16.5q-80 0 -143.5 -48t-101.5 -120t-63.5 -163.5t-35 -170t-9.5 -148.5q0 -44 4 -94t17.5 -115.5t34.5 -116.5t59.5 -86.5t87.5 -35.5q67 0 122 46.5t89 124.5t58.5 167t36.5 187.5t17 171t5 132.5zM1124 1569
q19 -27 -12.5 -61.5t-75 -41t-75.5 26.5l-256 342l-353 -313q-32 -12 -70.5 4.5t-51 44t11.5 55.5l465 424q20 12 35.5 10t25.5 -10z" />
    <glyph glyph-name="atilde" unicode="&#xe3;" 
d="M229 1634q31 77 77.5 122.5t100 59.5t113.5 11.5t121.5 -18t121.5 -33t116 -30t102 -12.5t82 24t55 75q7 26 35 30.5t50 -12.5t14 -43q-21 -80 -61 -128t-91.5 -63.5t-112 -13t-125 18.5t-128.5 34.5t-123.5 32t-108.5 14.5t-85.5 -22.5t-53.5 -74.5q-12 -33 -38.5 -34
t-46.5 20t-14 42zM940 512q-15 -62 -41 -127.5t-66.5 -132.5t-88.5 -119.5t-111.5 -85.5t-130.5 -33q-94 0 -170.5 37.5t-126 98.5t-83 141.5t-47.5 163.5t-14 168q0 86 15 175t44 178t77 166.5t109 138t144.5 95.5t178.5 35q72 0 146 -30t112 -83q-1 36 11 60.5t36 36
t50 16t60 4.5q51 0 81 -9t44 -33.5t17.5 -51t3.5 -78.5q0 -177 -4 -530.5t-4 -530.5q0 -18 2 -52.5t2 -51.5t-5 -41.5t-17 -36t-37 -20.5t-62 -9q-20 0 -36 2.5t-28 6t-21.5 11.5t-15.5 13.5t-10 19t-6 20.5t-3 24.5t-1 25.5v28.5v29.5q0 22 -1 67t-1 68q0 187 -2 225z
M883 997q0 48 -2 79.5t-12 71t-28.5 62.5t-52.5 39.5t-83 16.5q-80 0 -143.5 -48t-101.5 -120t-63.5 -163.5t-35 -170t-9.5 -148.5q0 -44 4 -94t17.5 -115.5t34.5 -116.5t59.5 -86.5t87.5 -35.5q67 0 122 46.5t89 124.5t58.5 167t36.5 187.5t17 171t5 132.5z" />
    <glyph glyph-name="adieresis" unicode="&#xe4;" 
d="M520 1470q-69 0 -118.5 48t-49.5 114q0 67 49.5 115.5t118.5 48.5t118.5 -48.5t49.5 -115.5q0 -66 -49.5 -114t-118.5 -48zM965 1790q69 0 118.5 -47.5t49.5 -114.5t-49.5 -114.5t-118.5 -47.5t-118.5 47.5t-49.5 114.5t49.5 114.5t118.5 47.5zM940 512
q-15 -62 -41 -127.5t-66.5 -132.5t-88.5 -119.5t-111.5 -85.5t-130.5 -33q-94 0 -170.5 37.5t-126 98.5t-83 141.5t-47.5 163.5t-14 168q0 86 15 175t44 178t77 166.5t109 138t144.5 95.5t178.5 35q72 0 146 -30t112 -83q-1 36 11 60.5t36 36t50 16t60 4.5q51 0 81 -9
t44 -33.5t17.5 -51t3.5 -78.5q0 -177 -4 -530.5t-4 -530.5q0 -18 2 -52.5t2 -51.5t-5 -41.5t-17 -36t-37 -20.5t-62 -9q-20 0 -36 2.5t-28 6t-21.5 11.5t-15.5 13.5t-10 19t-6 20.5t-3 24.5t-1 25.5v28.5v29.5q0 22 -1 67t-1 68q0 187 -2 225zM883 997q0 48 -2 79.5t-12 71
t-28.5 62.5t-52.5 39.5t-83 16.5q-80 0 -143.5 -48t-101.5 -120t-63.5 -163.5t-35 -170t-9.5 -148.5q0 -44 4 -94t17.5 -115.5t34.5 -116.5t59.5 -86.5t87.5 -35.5q67 0 122 46.5t89 124.5t58.5 167t36.5 187.5t17 171t5 132.5z" />
    <glyph glyph-name="aring" unicode="&#xe5;" 
d="M645 1937q113 0 204 -72t91 -188q0 -79 -45.5 -140.5t-111.5 -91.5t-138 -30t-138 30t-111.5 91.5t-45.5 140.5q0 116 91 188t204 72zM645 1815q-63 0 -120.5 -37.5t-57.5 -100.5q0 -44 30 -77t69.5 -47.5t78.5 -14.5t79 14.5t70.5 47.5t30.5 77q0 63 -58.5 100.5
t-121.5 37.5zM940 512q-15 -62 -41 -127.5t-66.5 -132.5t-88.5 -119.5t-111.5 -85.5t-130.5 -33q-94 0 -170.5 37.5t-126 98.5t-83 141.5t-47.5 163.5t-14 168q0 86 15 175t44 178t77 166.5t109 138t144.5 95.5t178.5 35q72 0 146 -30t112 -83q-1 36 11 60.5t36 36t50 16
t60 4.5q51 0 81 -9t44 -33.5t17.5 -51t3.5 -78.5q0 -177 -4 -530.5t-4 -530.5q0 -18 2 -52.5t2 -51.5t-5 -41.5t-17 -36t-37 -20.5t-62 -9q-20 0 -36 2.5t-28 6t-21.5 11.5t-15.5 13.5t-10 19t-6 20.5t-3 24.5t-1 25.5v28.5v29.5q0 22 -1 67t-1 68q0 187 -2 225zM883 997
q0 48 -2 79.5t-12 71t-28.5 62.5t-52.5 39.5t-83 16.5q-80 0 -143.5 -48t-101.5 -120t-63.5 -163.5t-35 -170t-9.5 -148.5q0 -44 4 -94t17.5 -115.5t34.5 -116.5t59.5 -86.5t87.5 -35.5q67 0 122 46.5t89 124.5t58.5 167t36.5 187.5t17 171t5 132.5z" />
    <glyph glyph-name="ae" unicode="&#xe6;" horiz-adv-x="2166" 
d="M1456 731q-8 -114 3.5 -222.5t38.5 -195t75 -139.5t110 -53q64 -1 115.5 38t82.5 98t52 132.5t28.5 138.5t6.5 119q0 19 11 32.5t27.5 17.5t33.5 1t31 -16.5t18 -34.5q2 -128 -24.5 -236.5t-71 -180t-102.5 -121.5t-117.5 -71.5t-116.5 -19.5q-190 6 -310.5 124.5
t-162.5 306.5q0 -44 -1 -133t-1 -134q0 -18 2 -52.5t2 -51.5t-5 -41.5t-17 -36t-37 -20.5t-62 -9q-20 0 -36 2.5t-28 6t-21.5 11.5t-15.5 13.5t-10 19t-6 20.5t-3 24.5t-1 25.5v28.5v29.5q0 22 -1 67t-1 68q0 187 -2 225q-15 -62 -41 -127.5t-66.5 -132.5t-88.5 -119.5
t-111.5 -85.5t-130.5 -33q-94 0 -170.5 37.5t-126 98.5t-83 141.5t-47.5 163.5t-14 168q0 86 15 175t44 178t77 166.5t109 138t144.5 95.5t178.5 35q72 0 146 -30t112 -83q-1 36 11 60.5t36 36t50 16t60 4.5q51 0 81 -9t44 -33.5t17.5 -51t3.5 -78.5q0 -237 -2 -356
q25 108 72 201.5t113.5 166.5t156.5 114.5t194 41.5q173 0 253 -106q69 -91 39 -215q-33 -136 -168 -233q-155 -111 -392 -126zM1778 1303q-81 0 -146 -64t-104 -163.5t-58 -225.5q235 16 354 146q79 85 76 181q-3 79 -61 111q-27 15 -61 15zM883 997q0 48 -2 79.5t-12 71
t-28.5 62.5t-52.5 39.5t-83 16.5q-80 0 -143.5 -48t-101.5 -120t-63.5 -163.5t-35 -170t-9.5 -148.5q0 -44 4 -94t17.5 -115.5t34.5 -116.5t59.5 -86.5t87.5 -35.5q67 0 122 46.5t89 124.5t58.5 167t36.5 187.5t17 171t5 132.5z" />
    <glyph glyph-name="ccedilla" unicode="&#xe7;" horiz-adv-x="1071" 
d="M549 -258l-6 -21q0 -86 94 -86q89 0 123.5 68t0.5 136.5t-112 68.5q-52 0 -76 -31q1 -7 -6.5 -11.5t-19.5 -4.5q-25 0 -33 16v123v20q-90 8 -165.5 49.5t-127 103.5t-87 142t-52 165t-16.5 173q0 84 15.5 171t45 172t77 159.5t108 132t142.5 90.5t175 33q134 0 224.5 -90
t90.5 -223q0 -34 -6 -64q-32 -37 -82 -37q-24 0 -35.5 22.5t-12.5 56.5t-5 74t-12 74t-35.5 56.5t-73.5 22.5q-75 0 -134.5 -51.5t-94 -127.5t-57 -171.5t-30.5 -173t-8 -142.5q0 -49 4.5 -106.5t20 -133t39 -134.5t67 -100.5t99.5 -41.5q62 0 113 37.5t82 94t52 128
t29 134.5t8 118q0 67 58 67q32 0 47.5 -20.5t15.5 -52.5q0 -80 -14.5 -161.5t-47.5 -162t-80.5 -142.5t-120 -101.5t-159.5 -41.5q-2 -17 -3.5 -44t-2.5 -31q43 18 97 18q138 0 189.5 -89t-12.5 -178t-204 -89q-71 0 -105 32.5t-34 79.5t30 47q15 0 19 -4t4 -18z" />
    <glyph glyph-name="egrave" unicode="&#xe8;" horiz-adv-x="1071" 
d="M477 1896l242 -366q7 -13 -3.5 -31.5t-31.5 -33.5t-44.5 -25.5t-45.5 -9t-31 17.5l-209 354q-12 21 0 44t36 36t49 19.5t38 -5.5zM360 731q-10 -154 11.5 -291.5t78.5 -228t138 -90.5q64 -1 115.5 38t82.5 98t51.5 132.5t28 138.5t6.5 119q0 19 11 32.5t27.5 17.5t33.5 1
t31 -16.5t18 -34.5q2 -128 -24.5 -236.5t-71 -180t-102.5 -121.5t-117.5 -71.5t-116.5 -19.5q-150 5 -261.5 84t-163 202.5t-68.5 271t20.5 294.5t103.5 268.5t182 197t255 75.5q172 0 252 -105q69 -90 40 -214q-32 -135 -165 -232q-155 -114 -396 -129zM682 1303
q-81 0 -145.5 -64t-103.5 -163.5t-58 -225.5q235 16 354 146q79 85 75 181q-3 79 -61 111q-27 15 -61 15z" />
    <glyph glyph-name="eacute" unicode="&#xe9;" horiz-adv-x="1071" 
d="M360 731q-10 -154 11.5 -291.5t78.5 -228t138 -90.5q64 -1 115.5 38t82.5 98t51.5 132.5t28 138.5t6.5 119q0 19 11 32.5t27.5 17.5t33.5 1t31 -16.5t18 -34.5q2 -128 -24.5 -236.5t-71 -180t-102.5 -121.5t-117.5 -71.5t-116.5 -19.5q-150 5 -261.5 84t-163 202.5
t-68.5 271t20.5 294.5t103.5 268.5t182 197t255 75.5q172 0 252 -105q69 -90 40 -214q-32 -135 -165 -232q-155 -114 -396 -129zM682 1303q-81 0 -145.5 -64t-103.5 -163.5t-58 -225.5q235 16 354 146q79 85 75 181q-3 79 -61 111q-27 15 -61 15zM352 1530l242 366
q12 11 38 6t49 -20t36.5 -36.5t-0.5 -43.5l-209 -354q-9 -16 -31 -17.5t-45.5 9t-44.5 25.5t-31.5 33.5t-3.5 31.5z" />
    <glyph glyph-name="ecircumflex" unicode="&#xea;" horiz-adv-x="1071" 
d="M1014 1511q19 -27 -13 -61.5t-75.5 -40.5t-75.5 27l-256 342l-352 -314q-32 -12 -71 5t-51.5 44.5t11.5 55.5l465 424q20 12 35.5 10t25.5 -10zM360 731q-10 -154 11.5 -291.5t78.5 -228t138 -90.5q64 -1 115.5 38t82.5 98t51.5 132.5t28 138.5t6.5 119q0 19 11 32.5
t27.5 17.5t33.5 1t31 -16.5t18 -34.5q2 -128 -24.5 -236.5t-71 -180t-102.5 -121.5t-117.5 -71.5t-116.5 -19.5q-150 5 -261.5 84t-163 202.5t-68.5 271t20.5 294.5t103.5 268.5t182 197t255 75.5q172 0 252 -105q69 -90 40 -214q-32 -135 -165 -232q-155 -114 -396 -129z
M682 1303q-81 0 -145.5 -64t-103.5 -163.5t-58 -225.5q235 16 354 146q79 85 75 181q-3 79 -61 111q-27 15 -61 15z" />
    <glyph glyph-name="edieresis" unicode="&#xeb;" horiz-adv-x="1071" 
d="M360 731q-10 -154 11.5 -291.5t78.5 -228t138 -90.5q64 -1 115.5 38t82.5 98t51.5 132.5t28 138.5t6.5 119q0 19 11 32.5t27.5 17.5t33.5 1t31 -16.5t18 -34.5q2 -128 -24.5 -236.5t-71 -180t-102.5 -121.5t-117.5 -71.5t-116.5 -19.5q-150 5 -261.5 84t-163 202.5
t-68.5 271t20.5 294.5t103.5 268.5t182 197t255 75.5q172 0 252 -105q69 -90 40 -214q-32 -135 -165 -232q-155 -114 -396 -129zM682 1303q-81 0 -145.5 -64t-103.5 -163.5t-58 -225.5q235 16 354 146q79 85 75 181q-3 79 -61 111q-27 15 -61 15zM322 1470q-69 0 -118.5 48
t-49.5 114q0 67 49.5 115.5t118.5 48.5t118 -48t49 -116q0 -66 -49 -114t-118 -48zM788 1790q69 0 118.5 -47.5t49.5 -114.5t-49.5 -114.5t-118.5 -47.5t-118 47.5t-49 114.5t49 114.5t118 47.5z" />
    <glyph glyph-name="igrave" unicode="&#xec;" horiz-adv-x="509" 
d="M123 193q0 151 -10.5 554t-10.5 553q0 23 18 40.5t46 26.5t53.5 13t46.5 4q125 0 125 -69q0 -148 1 -546t1 -544q0 -14 0.5 -40t1 -39.5t-1.5 -35t-6.5 -33t-14 -26t-23.5 -22t-35.5 -12.5t-49.5 -5q-39 0 -66.5 10t-42 24t-22 40t-9 48t-1.5 59zM115 1896l241 -366
q7 -13 -3.5 -31.5t-31 -33.5t-44 -25.5t-45.5 -9t-31 17.5l-209 354q-12 21 0 44t36 36t49 19.5t38 -5.5z" />
    <glyph glyph-name="iacute" unicode="&#xed;" horiz-adv-x="509" 
d="M123 193q0 151 -10.5 554t-10.5 553q0 23 18 40.5t46 26.5t53.5 13t46.5 4q125 0 125 -69q0 -148 1 -546t1 -544q0 -14 0.5 -40t1 -39.5t-1.5 -35t-6.5 -33t-14 -26t-23.5 -22t-35.5 -12.5t-49.5 -5q-39 0 -66.5 10t-42 24t-22 40t-9 48t-1.5 59zM313 1896q12 11 38 6
t49 -20t36.5 -36.5t-0.5 -43.5l-209 -354q-9 -16 -31 -17.5t-45.5 9t-44 25.5t-31 33.5t-3.5 31.5z" />
    <glyph glyph-name="icircumflex" unicode="&#xee;" horiz-adv-x="509" 
d="M123 193q0 151 -10.5 554t-10.5 553q0 23 18 40.5t46 26.5t53.5 13t46.5 4q125 0 125 -69q0 -148 1 -546t1 -544q0 -14 0.5 -40t1 -39.5t-1.5 -35t-6.5 -33t-14 -26t-23.5 -22t-35.5 -12.5t-49.5 -5q-39 0 -66.5 10t-42 24t-22 40t-9 48t-1.5 59zM702 1513
q19 -27 -12.5 -61.5t-75 -40.5t-75.5 27l-256 342l-353 -314q-32 -12 -70.5 5t-51 44.5t11.5 55.5l465 424q20 12 35.5 10t25.5 -10z" />
    <glyph glyph-name="idieresis" unicode="&#xef;" horiz-adv-x="509" 
d="M123 193q0 151 -10.5 554t-10.5 553q0 23 18 40.5t46 26.5t53.5 13t46.5 4q125 0 125 -69q0 -148 1 -546t1 -544q0 -14 0.5 -40t1 -39.5t-1.5 -35t-6.5 -33t-14 -26t-23.5 -22t-35.5 -12.5t-49.5 -5q-39 0 -66.5 10t-42 24t-22 40t-9 48t-1.5 59zM2 1470q-69 0 -118.5 48
t-49.5 114q0 67 49.5 115.5t118.5 48.5t118.5 -48.5t49.5 -115.5q0 -66 -49.5 -114t-118.5 -48zM508 1790q69 0 118.5 -47.5t49.5 -114.5t-49.5 -114.5t-118.5 -47.5t-118.5 47.5t-49.5 114.5t49.5 114.5t118.5 47.5z" />
    <glyph glyph-name="eth" unicode="&#xf0;" horiz-adv-x="1269" 
d="M889 1083q-15 99 -61 274t-105 326l-125 -196q-16 -23 -42 -20.5t-50.5 16.5t-37 39t-1.5 47l178 280q-93 166 -188 166q-118 0 -186 -85t-68 -206q0 -31 19.5 -87.5t19.5 -84.5q0 -21 -15.5 -38t-36.5 -17q-25 0 -44.5 26.5t-29 64.5t-14 71.5t-4.5 56.5
q0 106 38.5 196.5t119 149t188.5 58.5q164 0 306 -107l118 187q14 22 37 27.5t43.5 -4t38 -26t21 -38.5t-8.5 -41l-135 -213q85 -100 151 -239t106 -292t55 -318.5t4.5 -320t-51.5 -294t-106.5 -243t-167.5 -164.5t-228 -61q-102 0 -188.5 41t-146 108.5t-102 156t-62 182.5
t-19.5 188q0 89 17 172.5t54.5 159.5t91.5 132.5t133.5 90t174.5 33.5q80 0 166 -44.5t143 -109.5zM670 1135q-74 0 -134 -30t-98.5 -78.5t-65 -112.5t-37.5 -129.5t-11 -133.5t12.5 -141t41 -147.5t70 -132.5t105.5 -95t141 -37q62 0 108 47.5t70 123.5t36.5 169t11.5 187
t-9 173.5t-22 131.5q-16 60 -89 132.5t-130 72.5z" />
    <glyph glyph-name="ntilde" unicode="&#xf1;" horiz-adv-x="1202" 
d="M106 1612q31 77 77.5 122.5t100 59.5t113.5 11.5t121.5 -18.5t121.5 -33.5t116 -30t102 -12.5t82 24t55 75q7 26 35 30.5t50 -12t14 -42.5q-21 -80 -61 -128t-91.5 -63.5t-112 -13t-125 18t-128.5 34t-123.5 32t-108.5 14.5t-85.5 -22.5t-53.5 -74.5q-12 -33 -38.5 -34
t-46.5 20.5t-14 42.5zM717 1376q92 0 159.5 -25t105.5 -69t63 -102.5t31 -125.5t9.5 -139t-1.5 -142q0 -22 -0.5 -34t-0.5 -30v-33q4 -344 4 -516q0 -87 -32 -129.5t-117 -42.5q-62 0 -85.5 26t-23.5 88q0 61 3.5 182.5t3.5 182.5q0 409 -10 526q-16 198 -78 253
q-32 28 -82 28q-277 0 -277 -645q0 -90 -4 -269.5t-4 -269.5q0 -49 -41.5 -73.5t-93.5 -24.5q-75 0 -119 55q-16 69 -16 246q0 146 5 501.5t5 495.5q0 64 66 91.5t132 6.5t66 -75q0 -28 1 -70.5t1 -73.5q91 207 330 207z" />
    <glyph glyph-name="ograve" unicode="&#xf2;" horiz-adv-x="1067" 
d="M567 1405q100 0 179.5 -43t129.5 -111.5t83.5 -159t47 -178.5t13.5 -178q0 -67 -9.5 -143t-29 -160t-54.5 -160t-81 -137.5t-112.5 -98t-145.5 -36.5q-110 0 -201.5 43t-153 114.5t-104.5 165t-62.5 192.5t-19.5 200q0 98 18 193t59 185.5t100 159.5t147.5 110.5
t195.5 41.5zM901 727q0 60 -7.5 128t-28 151.5t-52.5 148.5t-87.5 109.5t-125.5 44.5q-61 0 -111.5 -33t-83 -88t-56 -120t-35.5 -137.5t-17.5 -130.5t-5.5 -108q0 -43 5 -97.5t16 -121.5t31.5 -129t48 -115t70 -84.5t93.5 -31.5q77 0 138.5 44.5t99.5 111.5t63 152.5
t35 161.5t10 144zM475 1896l242 -366q7 -13 -3.5 -31.5t-31.5 -33.5t-44.5 -25.5t-45.5 -9t-31 17.5l-209 354q-12 21 0 44t36 36t49 19.5t38 -5.5z" />
    <glyph glyph-name="oacute" unicode="&#xf3;" horiz-adv-x="1067" 
d="M567 1405q100 0 179.5 -43t129.5 -111.5t83.5 -159t47 -178.5t13.5 -178q0 -67 -9.5 -143t-29 -160t-54.5 -160t-81 -137.5t-112.5 -98t-145.5 -36.5q-110 0 -201.5 43t-153 114.5t-104.5 165t-62.5 192.5t-19.5 200q0 98 18 193t59 185.5t100 159.5t147.5 110.5
t195.5 41.5zM901 727q0 60 -7.5 128t-28 151.5t-52.5 148.5t-87.5 109.5t-125.5 44.5q-61 0 -111.5 -33t-83 -88t-56 -120t-35.5 -137.5t-17.5 -130.5t-5.5 -108q0 -43 5 -97.5t16 -121.5t31.5 -129t48 -115t70 -84.5t93.5 -31.5q77 0 138.5 44.5t99.5 111.5t63 152.5
t35 161.5t10 144zM592 1896q12 11 38 6t49 -20t36.5 -36.5t-0.5 -43.5l-209 -354q-9 -16 -31 -17.5t-45.5 9t-44.5 25.5t-31.5 33.5t-3.5 31.5z" />
    <glyph glyph-name="ocircumflex" unicode="&#xf4;" horiz-adv-x="1067" 
d="M567 1405q100 0 179.5 -43t129.5 -111.5t83.5 -159t47 -178.5t13.5 -178q0 -67 -9.5 -143t-29 -160t-54.5 -160t-81 -137.5t-112.5 -98t-145.5 -36.5q-110 0 -201.5 43t-153 114.5t-104.5 165t-62.5 192.5t-19.5 200q0 98 18 193t59 185.5t100 159.5t147.5 110.5
t195.5 41.5zM901 727q0 60 -7.5 128t-28 151.5t-52.5 148.5t-87.5 109.5t-125.5 44.5q-61 0 -111.5 -33t-83 -88t-56 -120t-35.5 -137.5t-17.5 -130.5t-5.5 -108q0 -43 5 -97.5t16 -121.5t31.5 -129t48 -115t70 -84.5t93.5 -31.5q77 0 138.5 44.5t99.5 111.5t63 152.5
t35 161.5t10 144zM981 1493q19 -27 -13 -61.5t-75.5 -41t-75.5 26.5l-256 342l-352 -313q-32 -12 -71 4.5t-51.5 44t11.5 55.5l465 424q20 12 36 10t26 -10z" />
    <glyph glyph-name="otilde" unicode="&#xf5;" horiz-adv-x="1067" 
d="M567 1405q100 0 179.5 -43t129.5 -111.5t83.5 -159t47 -178.5t13.5 -178q0 -67 -9.5 -143t-29 -160t-54.5 -160t-81 -137.5t-112.5 -98t-145.5 -36.5q-110 0 -201.5 43t-153 114.5t-104.5 165t-62.5 192.5t-19.5 200q0 98 18 193t59 185.5t100 159.5t147.5 110.5
t195.5 41.5zM901 727q0 60 -7.5 128t-28 151.5t-52.5 148.5t-87.5 109.5t-125.5 44.5q-61 0 -111.5 -33t-83 -88t-56 -120t-35.5 -137.5t-17.5 -130.5t-5.5 -108q0 -43 5 -97.5t16 -121.5t31.5 -129t48 -115t70 -84.5t93.5 -31.5q77 0 138.5 44.5t99.5 111.5t63 152.5
t35 161.5t10 144zM39 1575q31 77 77.5 122.5t100 59.5t113.5 11.5t121.5 -18t121.5 -33t116 -30t102 -12.5t82 24t55 75q7 26 35 30.5t49.5 -12.5t13.5 -43q-21 -80 -61 -128t-91.5 -63.5t-112 -13t-125 18t-128.5 34t-123.5 32t-108.5 14.5t-85.5 -22.5t-53.5 -74.5
q-12 -33 -38.5 -34t-46 20.5t-13.5 42.5z" />
    <glyph glyph-name="odieresis" unicode="&#xf6;" horiz-adv-x="1067" 
d="M567 1405q100 0 179.5 -43t129.5 -111.5t83.5 -159t47 -178.5t13.5 -178q0 -67 -9.5 -143t-29 -160t-54.5 -160t-81 -137.5t-112.5 -98t-145.5 -36.5q-110 0 -201.5 43t-153 114.5t-104.5 165t-62.5 192.5t-19.5 200q0 98 18 193t59 185.5t100 159.5t147.5 110.5
t195.5 41.5zM901 727q0 60 -7.5 128t-28 151.5t-52.5 148.5t-87.5 109.5t-125.5 44.5q-61 0 -111.5 -33t-83 -88t-56 -120t-35.5 -137.5t-17.5 -130.5t-5.5 -108q0 -43 5 -97.5t16 -121.5t31.5 -129t48 -115t70 -84.5t93.5 -31.5q77 0 138.5 44.5t99.5 111.5t63 152.5
t35 161.5t10 144zM281 1470q-69 0 -118.5 48t-49.5 114q0 67 49.5 115.5t118.5 48.5t118.5 -48.5t49.5 -115.5q0 -66 -49.5 -114t-118.5 -48zM786 1790q69 0 118.5 -47.5t49.5 -114.5t-49.5 -114.5t-118.5 -47.5t-118.5 47.5t-49.5 114.5t49.5 114.5t118.5 47.5z" />
    <glyph glyph-name="divide" unicode="&#xf7;" horiz-adv-x="1673" 
d="M854 983q-69 0 -118.5 47.5t-49.5 114.5t49.5 115.5t118.5 48.5q70 0 119 -48t49 -116t-49 -115t-119 -47zM1526 901q35 -2 57 -27t26 -59t-2.5 -68t-28 -58.5t-50.5 -26.5q-358 -15 -686 -21q-414 -4 -629 -2q-52 0 -81.5 63.5t-16.5 126.5t65 62q209 -2 613 -2
q108 1 230 3t270 5t233 4zM854 494q70 0 119 -47t49 -115t-49 -116t-119 -48q-69 0 -118.5 48.5t-49.5 115.5t49.5 114.5t118.5 47.5z" />
    <glyph glyph-name="oslash" unicode="&#xf8;" horiz-adv-x="1067" 
d="M676 2054q9 55 66.5 76.5t104.5 -9.5t30 -102l-129 -657q73 -39 128 -111t85.5 -160t44.5 -177t14 -179q0 -67 -9.5 -143t-29 -160t-54.5 -160t-81 -137.5t-112.5 -98t-145.5 -36.5q-66 0 -107 10l-92 -469q-13 -34 -66.5 -47t-98.5 9t-38 73l105 526q-120 98 -182 266.5
t-62 346.5q0 96 17.5 189.5t57 183t96 158.5t142 112.5t187.5 46.5zM340 354l186 940q-55 -22 -98.5 -77t-68 -121t-41 -145t-22 -141.5t-5.5 -117.5q0 -175 49 -338zM901 727q0 59 -8 128.5t-26 149t-54.5 150t-85.5 109.5l-223 -1143q21 -8 51 -8q77 0 138.5 44.5
t99.5 111.5t63 152.5t35 161.5t10 144z" />
    <glyph glyph-name="ugrave" unicode="&#xf9;" horiz-adv-x="1175" 
d="M442 1896l242 -366q7 -13 -3.5 -31.5t-31.5 -33.5t-44.5 -25.5t-45.5 -9t-31 17.5l-209 354q-12 21 0 44t36 36t49 19.5t38 -5.5zM1047 1368q2 -49 5 -141t5 -149.5t3.5 -138t0.5 -148.5q-2 -275 -3 -289q-8 -204 -67 -300q-78 -128 -288 -159q-61 -10 -136 -12
q-77 0 -140 13.5t-109.5 33.5t-82.5 57t-60 71t-40.5 90t-25 98.5t-13 111.5t-5.5 115t-1 122q0 86 -2 256t-2 256q0 87 32.5 129.5t117.5 42.5q60 0 84 -26.5t24 -87.5q0 -78 -3 -232.5t-3 -232.5v-214q15 -517 229 -517q49 0 88 17t64 42.5t43.5 64.5t28 74t15 81.5
t6.5 76.5t1 68q0 154 -9.5 444t-10.5 340q-1 49 40.5 73.5t94.5 24.5q76 0 119 -55z" />
    <glyph glyph-name="uacute" unicode="&#xfa;" horiz-adv-x="1175" 
d="M1047 1368q2 -49 5 -141t5 -149.5t3.5 -138t0.5 -148.5q-2 -275 -3 -289q-8 -204 -67 -300q-78 -128 -288 -159q-61 -10 -136 -12q-77 0 -140 13.5t-109.5 33.5t-82.5 57t-60 71t-40.5 90t-25 98.5t-13 111.5t-5.5 115t-1 122q0 86 -2 256t-2 256q0 87 32.5 129.5
t117.5 42.5q60 0 84 -26.5t24 -87.5q0 -78 -3 -232.5t-3 -232.5v-214q15 -517 229 -517q49 0 88 17t64 42.5t43.5 64.5t28 74t15 81.5t6.5 76.5t1 68q0 154 -9.5 444t-10.5 340q-1 49 40.5 73.5t94.5 24.5q76 0 119 -55zM645 1896q12 11 38 6t49 -20t36.5 -36.5t-0.5 -43.5
l-209 -354q-9 -16 -31 -17.5t-45.5 9t-44.5 25.5t-31.5 33.5t-3.5 31.5z" />
    <glyph glyph-name="ucircumflex" unicode="&#xfb;" horiz-adv-x="1175" 
d="M1047 1368q2 -49 5 -141t5 -149.5t3.5 -138t0.5 -148.5q-2 -275 -3 -289q-8 -204 -67 -300q-78 -128 -288 -159q-61 -10 -136 -12q-77 0 -140 13.5t-109.5 33.5t-82.5 57t-60 71t-40.5 90t-25 98.5t-13 111.5t-5.5 115t-1 122q0 86 -2 256t-2 256q0 87 32.5 129.5
t117.5 42.5q60 0 84 -26.5t24 -87.5q0 -78 -3 -232.5t-3 -232.5v-214q15 -517 229 -517q49 0 88 17t64 42.5t43.5 64.5t28 74t15 81.5t6.5 76.5t1 68q0 154 -9.5 444t-10.5 340q-1 49 40.5 73.5t94.5 24.5q76 0 119 -55zM1034 1636q19 -27 -13 -61.5t-75.5 -40.5t-75.5 27
l-256 342l-352 -314q-32 -12 -70.5 5t-51 44.5t11.5 55.5l464 424q20 12 36 10t26 -10z" />
    <glyph glyph-name="udieresis" unicode="&#xfc;" horiz-adv-x="1175" 
d="M1047 1368q2 -49 5 -141t5 -149.5t3.5 -138t0.5 -148.5q-2 -275 -3 -289q-8 -204 -67 -300q-78 -128 -288 -159q-61 -10 -136 -12q-77 0 -140 13.5t-109.5 33.5t-82.5 57t-60 71t-40.5 90t-25 98.5t-13 111.5t-5.5 115t-1 122q0 86 -2 256t-2 256q0 87 32.5 129.5
t117.5 42.5q60 0 84 -26.5t24 -87.5q0 -78 -3 -232.5t-3 -232.5v-214q15 -517 229 -517q49 0 88 17t64 42.5t43.5 64.5t28 74t15 81.5t6.5 76.5t1 68q0 154 -9.5 444t-10.5 340q-1 49 40.5 73.5t94.5 24.5q76 0 119 -55zM336 1470q-69 0 -118.5 48t-49.5 114
q0 67 49.5 115.5t118.5 48.5t118.5 -48.5t49.5 -115.5q0 -66 -49.5 -114t-118.5 -48zM842 1790q69 0 118.5 -47.5t49.5 -114.5t-49.5 -114.5t-118.5 -47.5t-118.5 47.5t-49.5 114.5t49.5 114.5t118.5 47.5z" />
    <glyph glyph-name="yacute" unicode="&#xfd;" horiz-adv-x="1062" 
d="M717 666v659q10 38 44 55t58 17q42 0 81 -14.5t40 -45.5q6 -244 6 -733v-649q0 -72 -12 -142.5t-40 -140.5t-69.5 -123t-106 -85.5t-143.5 -32.5q-165 0 -252 96.5t-87 263.5q0 125 126 125q16 0 21.5 -0.5t18.5 -3t18.5 -10t5.5 -19.5v-16l-6 -35q0 -40 3.5 -76t14 -84
t36.5 -77t65 -29q178 0 178 387v571q-126 -116 -301 -116q-75 0 -134.5 38t-96 100t-61.5 145t-35 170t-12 178t3 165.5t14 136.5q5 41 48.5 59.5t97.5 18.5q36 0 75 -13t39 -42q-6 -44 -11.5 -101t-10 -142.5t-4 -166.5t9.5 -165t27.5 -146t54 -101.5t84.5 -39.5
q126 0 213 164zM348 1530l242 366q12 11 38 6t49 -20t36.5 -36.5t-0.5 -43.5l-209 -354q-9 -16 -31 -17.5t-45.5 9t-44.5 25.5t-31.5 33.5t-3.5 31.5z" />
    <glyph glyph-name="ydieresis" unicode="&#xff;" horiz-adv-x="1062" 
d="M717 666v659q10 38 44 55t58 17q42 0 81 -14.5t40 -45.5q6 -244 6 -733v-649q0 -72 -12 -142.5t-40 -140.5t-69.5 -123t-106 -85.5t-143.5 -32.5q-165 0 -252 96.5t-87 263.5q0 125 126 125q16 0 21.5 -0.5t18.5 -3t18.5 -10t5.5 -19.5v-16l-6 -35q0 -40 3.5 -76t14 -84
t36.5 -77t65 -29q178 0 178 387v571q-126 -116 -301 -116q-75 0 -134.5 38t-96 100t-61.5 145t-35 170t-12 178t3 165.5t14 136.5q5 41 48.5 59.5t97.5 18.5q36 0 75 -13t39 -42q-6 -44 -11.5 -101t-10 -142.5t-4 -166.5t9.5 -165t27.5 -146t54 -101.5t84.5 -39.5
q126 0 213 164zM279 1470q-69 0 -118.5 48t-49.5 114q0 67 49.5 115.5t118.5 48.5t118 -48t49 -116q0 -66 -49 -114t-118 -48zM784 1790q69 0 118.5 -47.5t49.5 -114.5t-49.5 -114.5t-118.5 -47.5t-118.5 47.5t-49.5 114.5t49.5 114.5t118.5 47.5z" />
    <glyph glyph-name="Dcroat" unicode="&#x110;" horiz-adv-x="1427" 
d="M715 2097q107 0 198.5 -43t157.5 -119t115.5 -177.5t78 -221.5t39 -249t3.5 -263q-9 -153 -40 -298t-85.5 -273t-126.5 -223.5t-169 -151t-206 -55.5q-64 0 -129 23.5t-109 64.5q-2 -33 -2 -80q-8 -19 -52 -32.5t-94.5 -13.5t-90 32.5t-37.5 95.5q6 106 -14 757h-177
q-53 0 -74.5 63.5t-4.5 126.5t57 62q41 0 103.5 -1t86.5 -1q-16 495 -16 865q-7 82 64 120q60 33 122 13q63 -29 68 -88q2 -9 5 -72t5 -78q68 103 162 160t162 57zM664 121q74 0 138 77.5t107.5 207.5t71.5 292t37 338q9 184 -5.5 354t-50 308.5t-101 221.5t-152.5 83
q-99 -3 -189.5 -113t-99.5 -270q-4 -123 2 -494q211 6 254 7q43 -4 58 -62.5t-3 -116.5t-55 -61q-39 -2 -126 -7t-124 -7q7 -340 14 -445q9 -131 75 -222t149 -91z" />
    <glyph glyph-name="Lslash" unicode="&#x141;" horiz-adv-x="950" 
d="M752 1198q24 11 51.5 -3.5t47 -44t32 -62t8.5 -61t-25 -38.5l-452 -252l14 -540q1 -67 25 -85t94 -18q71 0 215 2t215 2q17 0 26 -18.5t9 -36.5q0 -41 -35 -47q-36 -7 -365 -16q-30 -1 -101.5 -6t-111.5 -5q-52 0 -90 6t-73 23.5t-53 52.5t-19 88l-8 455l-166 -92
q-20 -11 -46.5 2.5t-47.5 42t-36 60.5t-13 60.5t24 39.5l279 155l-23 1123v12q0 58 41.5 92.5t99.5 34.5q47 0 79.5 -24.5t33.5 -69.5l27 -1024z" />
    <glyph glyph-name="lslash" unicode="&#x142;" horiz-adv-x="927" 
d="M702 1219q24 11 51.5 -3t48 -43t33.5 -62t10 -61.5t-24 -39.5l-463 -269v-12q0 -9 -0.5 -46.5t-0.5 -68t0.5 -79t4.5 -87.5t9.5 -84t16 -79t24.5 -63t35 -44.5t47 -15.5q61 0 111.5 38t82.5 96t54 129t30.5 135.5t7.5 117.5q0 19 11 32.5t27.5 17.5t33.5 1t31 -16.5
t18 -34.5q2 -128 -23.5 -239.5t-68 -187.5t-96 -131t-107.5 -79.5t-102 -22.5q-84 0 -149.5 33t-107.5 86t-71 131t-43 157.5t-20 174.5l-160 -92q-20 -12 -46.5 1.5t-48.5 41.5t-37 59.5t-13.5 60.5t22.5 40l276 159q0 46 1.5 122.5t1.5 103.5q-11 559 -11 938
q0 29 27.5 50.5t67 28.5t79.5 4.5t67.5 -22.5t27.5 -53q0 -184 -3 -554t-4 -468z" />
    <glyph glyph-name="OE" unicode="&#x152;" horiz-adv-x="2228" 
d="M1307 1950q-1 62 37.5 100t99 48.5t133.5 14t141 -2.5q22 -1 33 -1q55 -2 154.5 -6.5t164.5 -7t93 -2.5q19 -2 27.5 -18t7 -34.5t-11 -33.5t-23.5 -16q-268 0 -381 2h-1h-1h-1h-1h-1h-1h-1h-1h-1h-1h-1h-1h-1h-1h-1h-1h-1h-1h-1l-2 1q-136 3 -162 -6q-27 -9 -29 -43
q-1 -12 1 -47q2 -41 2 -67l12 -756l170 4q94 2 318 2q21 -2 22.5 -49t-22.5 -53q-234 0 -318 -2l-172 -4q0 -15 -1 -299t-1 -422q0 -26 -2 -66q-3 -72 17.5 -83t150.5 -8q27 1 43 1q113 2 381 2q14 -1 23.5 -16t11 -33.5t-7 -34.5t-27.5 -18q-28 0 -93 -2.5t-164.5 -7
t-154.5 -6.5q-26 -1 -70.5 -4t-75 -5t-71.5 -1.5t-68.5 5t-57 16t-47 29.5t-28.5 48.5t-10 70.5q5 321 -8 721q-21 -125 -53 -239t-84 -230t-117 -200.5t-156.5 -137.5t-197.5 -53q-101 0 -189.5 38.5t-153 103.5t-117 153.5t-87 184.5t-57.5 200t-33 197.5t-10 179.5
q0 98 11 196.5t37 201.5t64.5 195t96.5 173.5t130 141t168.5 94t208.5 34.5q113 0 205 -43.5t154.5 -120.5t103.5 -167.5t66 -200.5q-4 292 -6 389zM715 78q81 0 152 48t121.5 126.5t92 182t68 210.5t44 215.5t25 194t7.5 149.5t-4.5 129.5t-17 145t-32 150t-53.5 138
t-77.5 116.5t-106.5 78.5t-139 29.5q-81 0 -149 -39t-115 -102.5t-83.5 -150t-58 -175t-35.5 -184t-19 -170.5t-5 -142q0 -53 4 -122t15.5 -162t29.5 -182.5t48.5 -178.5t69 -155.5t95 -108t123.5 -41.5z" />
    <glyph glyph-name="oe" unicode="&#x153;" horiz-adv-x="1974" 
d="M1264 731q-8 -114 3.5 -222.5t38.5 -195t75 -139.5t110 -53q64 -1 115.5 38t82.5 98t52 132.5t28.5 138.5t6.5 119q0 32 27 46t56.5 1.5t36.5 -47.5q2 -128 -24.5 -236.5t-71 -180t-102.5 -121.5t-117.5 -71.5t-116.5 -19.5q-194 6 -315 128t-162 315q-16 -72 -39 -135.5
t-58 -124.5t-77.5 -104.5t-100.5 -70t-124 -26.5q-110 0 -201.5 43t-153 114.5t-104.5 165t-62.5 192.5t-19.5 200q0 98 18 193t59 185.5t100 159.5t147.5 110.5t195.5 41.5q79 0 146 -27.5t114 -72.5t83.5 -108.5t58.5 -130t35 -142.5q28 102 76 188.5t113.5 154t152.5 106
t186 38.5q173 0 253 -106q69 -91 39 -215q-33 -136 -168 -233q-155 -111 -392 -126zM901 727q0 60 -7.5 128t-28 151.5t-52.5 148.5t-87.5 109.5t-125.5 44.5q-61 0 -111.5 -33t-83 -88t-56 -120t-35.5 -137.5t-17.5 -130.5t-5.5 -108q0 -43 5 -97.5t16 -121.5t31.5 -129
t48 -115t70 -84.5t93.5 -31.5q77 0 138.5 44.5t99.5 111.5t63 152.5t35 161.5t10 144zM1585 1303q-81 0 -145.5 -64t-103.5 -163.5t-58 -225.5q235 16 354 146q79 85 75 181q-3 79 -61 111q-27 15 -61 15z" />
    <glyph glyph-name="Scaron" unicode="&#x160;" horiz-adv-x="1406" 
d="M985 2753q14 19 52.5 11t78 -37t33.5 -50l-356 -482q-9 -7 -41.5 -8t-51.5 11l-419 434q-23 28 -7 58.5t59 50t75 7.5l321 -338zM756 2167q124 0 235.5 -37t197.5 -105t136.5 -173.5t50.5 -233.5q0 -111 -67 -228t-162 -188q-17 -10 -33 -10q-20 0 -35.5 15.5t-15.5 35.5
q0 12 33 48t72.5 78.5t72.5 111t33 137.5q0 106 -43.5 192.5t-116.5 141t-165.5 83.5t-194.5 29q-131 0 -242.5 -55.5t-180.5 -160t-69 -236.5q0 -82 29.5 -155.5t79.5 -131t117 -112.5t142 -100t154.5 -94t154.5 -94t142 -101t117 -114t79.5 -133.5t29.5 -158.5
q0 -94 -39 -173.5t-103 -133.5t-146.5 -92.5t-169.5 -56t-173 -17.5q-95 0 -184 27.5t-160.5 78.5t-114.5 132.5t-43 181.5q0 227 242 393q11 8 24 8q22 0 38 -16.5t16 -38.5q0 -10 -22 -30.5t-54 -49.5t-63.5 -65t-53.5 -88.5t-22 -110.5q0 -77 35 -140t92.5 -101
t127 -58.5t142.5 -20.5q56 0 113 9.5t115.5 31.5t103.5 54.5t73.5 84t28.5 113.5q0 72 -36 136.5t-97 115.5t-140 100.5t-166.5 98t-174.5 100t-166 115.5t-140 136t-97 168.5t-36 207.5q0 185 98.5 335.5t258 232t342.5 81.5z" />
    <glyph glyph-name="scaron" unicode="&#x161;" horiz-adv-x="1064" 
d="M1030 371q0 -109 -52.5 -194.5t-137 -130t-186.5 -65t-204 0t-186.5 64.5t-137 129t-52.5 194q0 33 10.5 99.5t36.5 134t59 67.5q92 0 92 -41q0 -2 -31.5 -114t-31.5 -173q0 -128 112 -197q96 -60 217 -48q122 13 181 93q37 50 37 119q0 68 -37.5 129.5t-97 109.5
t-132 93.5t-145 92.5t-132 96.5t-97 114.5t-37.5 138q0 169 140 280q125 99 300 110q185 12 318 -82q165 -117 172 -351v-18q0 -36 -23 -61t-59 -25q-31 0 -51.5 19.5t-20.5 50.5q0 243 -118 339q-82 66 -183 39q-89 -24 -136 -103q-32 -54 -32 -118q0 -54 22 -101.5
t59.5 -85.5t86 -73.5t102 -69.5t106.5 -68.5t101.5 -75.5t86 -86.5t59.5 -105t22 -126.5zM811 2073q14 19 52.5 11t78 -37t33.5 -50l-357 -481q-9 -7 -41 -8.5t-51 10.5l-420 434q-23 28 -7 58.5t59 50t75 7.5l322 -337z" />
    <glyph glyph-name="Ydieresis" unicode="&#x178;" horiz-adv-x="935" 
d="M385 66l-4 966l-516 989q-8 17 0.5 34t27 27.5t39.5 15.5t40.5 -0.5t27.5 -20.5q2 -3 74.5 -140t186 -349t214.5 -398l461 911q32 35 132 18q75 -13 93 -36q5 -7 2 -12l-561 -1059l-4 -961q0 -20 -22.5 -34t-54.5 -17.5t-63.5 0t-53 21.5t-19.5 45zM215 2161
q-69 0 -118.5 47.5t-49.5 113.5q0 67 49.5 115.5t118.5 48.5t118.5 -48.5t49.5 -115.5q0 -66 -49.5 -113.5t-118.5 -47.5zM721 2480q69 0 118.5 -47.5t49.5 -114.5t-49.5 -114t-118.5 -47t-118.5 47t-49.5 114t49.5 114.5t118.5 47.5z" />
    <glyph glyph-name="Zcaron" unicode="&#x17d;" horiz-adv-x="1480" 
d="M1155 2804q14 19 52.5 11t78 -37t33.5 -50l-356 -481q-9 -7 -41.5 -8.5t-51.5 10.5l-419 434q-23 28 -7 58.5t59 50.5t75 8l321 -338zM360 129l1055 -12q21 0 31 -17.5t10 -40.5t-9.5 -41t-29.5 -18l-1300 8q-31 0 -48.5 17.5t-17.5 46.5q0 44 27 86l1169 1847
q-217 4 -651 4h-434q-15 0 -23 17.5t-8 33.5q0 54 49 60q50 5 109 5.5t135 -1.5t111 -2q157 0 471 -2t471 -2q75 0 75 -54q0 -33 -34 -90z" />
    <glyph glyph-name="zcaron" unicode="&#x17e;" horiz-adv-x="1042" 
d="M799 2011q14 19 52.5 11t78 -37t33.5 -50l-357 -481q-9 -7 -41 -8.5t-51 10.5l-420 434q-23 28 -7 58.5t59 50.5t75 8l322 -338zM991 1245q-82 -129 -264.5 -433t-275.5 -450q-25 -40 -65 -98q-21 -31 -29 -43t-13.5 -26.5t-1.5 -18t18 -7t33.5 -3t55.5 1.5q47 2 75 2
q80 1 195 7t213 7q34 2 50.5 -35.5t2.5 -78t-53 -45.5q-162 8 -862 0q-25 0 -31.5 31t0.5 64.5t16 47.5q332 561 572 940q21 33 33.5 54t21 39.5t12.5 28.5t1 18t-7.5 10.5t-19 4.5t-26.5 1t-38 -1.5t-45 -0.5q-92 0 -201.5 1t-169.5 1t-104 -2q-29 0 -43.5 33t-3 66.5
t46.5 35.5q790 -4 872 -4q29 0 42 -52.5t-7 -95.5z" />
    <glyph glyph-name="circumflex" unicode="&#x2c6;" horiz-adv-x="987" 
d="M934 1636q19 -27 -13 -61.5t-75.5 -40.5t-75.5 27l-256 342l-352 -314q-32 -12 -71 5t-51.5 44.5t11.5 55.5l465 424q20 12 36 10t26 -10z" />
    <glyph glyph-name="caron" unicode="&#x2c7;" horiz-adv-x="1017" 
d="M795 2114q14 19 52.5 11t77.5 -37t33 -50l-356 -482q-9 -7 -41 -8t-51 11l-420 434q-23 28 -7 58.5t59 50t75 7.5l322 -337z" />
    <glyph glyph-name="breve" unicode="&#x2d8;" horiz-adv-x="677" 
d="M23 1784q3 24 42.5 34.5t76 0t32.5 -38.5q0 -57 16.5 -109t57.5 -91.5t100 -39.5q84 0 128 73.5t44 162.5q0 35 38.5 44.5t76 -5t35.5 -37.5q0 -148 -88.5 -246t-235.5 -98q-145 0 -234 96.5t-89 243.5v10z" />
    <glyph glyph-name="ring" unicode="&#x2da;" horiz-adv-x="940" 
d="M449 2001q83 0 160 -35t129.5 -106t52.5 -162t-52.5 -162t-129.5 -106t-160 -35t-160.5 35t-130 106t-52.5 162t52.5 162t130 106t160.5 35zM449 1858q-45 0 -91 -16.5t-81 -54.5t-35 -89t35 -89t81 -54.5t91 -16.5t91 16.5t81.5 54.5t35.5 89t-35.5 89t-81.5 54.5
t-91 16.5z" />
    <glyph glyph-name="tilde" unicode="&#x2dc;" horiz-adv-x="1060" 
d="M37 1802q31 77 77.5 122.5t100 59.5t113.5 11.5t121.5 -18t121.5 -33t116 -30t102 -12.5t82 24t55 75q7 26 35 30.5t49.5 -12.5t13.5 -43q-21 -80 -61 -128t-91.5 -63.5t-112 -13t-125 18.5t-128.5 34.5t-123.5 32t-108.5 14.5t-85.5 -22.5t-53.5 -74.5
q-12 -33 -38.5 -34t-46 20t-13.5 42z" />
    <glyph glyph-name="hungarumlaut" unicode="&#x2dd;" horiz-adv-x="966" 
d="M365 1896q20 11 54 2t59 -39t9 -57l-188 -332q-22 -25 -66 -20t-83 31.5t-27 48.5zM725 1896q12 11 38 6t49 -20t36.5 -36.5t-0.5 -43.5l-209 -354q-22 -25 -67.5 -23.5t-87 24t-29.5 44.5z" />
    <glyph glyph-name="endash" unicode="&#x2013;" horiz-adv-x="1337" 
d="M1151 901q26 -2 43 -28t20.5 -61t-1.5 -69.5t-22 -58t-40 -22.5l-1004 -9q-23 0 -39.5 24.5t-21.5 60t-2.5 70.5t18 59.5t39.5 23.5z" />
    <glyph glyph-name="emdash" unicode="&#x2014;" horiz-adv-x="1574" 
d="M1346 877q34 0 51.5 -37.5t16 -82.5t-20 -82.5t-47.5 -37.5l-1182 2q-23 0 -39 24.5t-20 60t-0.5 70.5t19.5 59.5t40 23.5h1182z" />
    <glyph glyph-name="quoteleft" unicode="&#x2018;" horiz-adv-x="495" 
d="M242 1446q-69 0 -115 43t-62 106t-10 136q9 104 61 178t122 78q82 6 161 -91q7 -12 4.5 -25t-13.5 -24t-23.5 -18t-25 -7t-19.5 9q-40 51 -78 51q-34 0 -57 -38t-31 -95q45 20 86 20q69 0 118.5 -47t49.5 -114t-49.5 -114.5t-118.5 -47.5z" />
    <glyph glyph-name="quoteright" unicode="&#x2019;" horiz-adv-x="495" 
d="M227 1991q69 0 115 -43t62 -106t10 -136q-9 -104 -61 -178t-122 -78q-83 -7 -161 90q-8 11 -4.5 25t13.5 24t23 18t25.5 7.5t19.5 -8.5q41 -52 78 -52q34 0 57 38t31 96q-47 -21 -86 -21q-69 0 -118.5 47.5t-49.5 114.5t49.5 114.5t118.5 47.5z" />
    <glyph glyph-name="quotesinglbase" unicode="&#x201a;" horiz-adv-x="495" 
d="M242 414q69 0 114.5 -43t61.5 -106t10 -136q-9 -104 -60.5 -178t-121.5 -78q-84 -7 -162 90q-8 11 -4.5 25t14 24t23.5 18t25.5 7.5t19.5 -8.5q41 -52 78 -52q34 0 57 38t31 96q-47 -21 -86 -21q-69 0 -118.5 47.5t-49.5 114.5t49.5 114.5t118.5 47.5z" />
    <glyph glyph-name="quotedblleft" unicode="&#x201c;" horiz-adv-x="944" 
d="M676 1440q-69 0 -115 43t-62 105.5t-10 135.5q9 104 61 178t122 78q84 7 162 -90q7 -12 4.5 -25t-13.5 -24t-24 -18t-25.5 -7t-19.5 9q-40 51 -78 51q-34 0 -57 -38t-31 -95q45 20 86 20q69 0 118.5 -47t49.5 -114t-49.5 -114.5t-118.5 -47.5zM242 1446q-69 0 -115 43
t-62 106t-10 136q9 104 61 178t122 78q82 6 161 -91q7 -12 4.5 -25t-13.5 -24t-23.5 -18t-25 -7t-19.5 9q-40 51 -78 51q-34 0 -57 -38t-31 -95q45 20 86 20q69 0 118.5 -47t49.5 -114t-49.5 -114.5t-118.5 -47.5z" />
    <glyph glyph-name="quotedblright" unicode="&#x201d;" horiz-adv-x="980" 
d="M676 1989q69 0 114.5 -43t61.5 -106t10 -136q-9 -104 -60.5 -178t-121.5 -78q-84 -7 -162 90q-8 11 -4.5 25t14 24t23.5 18t25.5 7.5t19.5 -8.5q41 -52 78 -52q34 0 57 38t31 96q-47 -21 -86 -21q-69 0 -118.5 47.5t-49.5 114.5t49.5 114.5t118.5 47.5zM227 1991
q69 0 115 -43t62 -106t10 -136q-9 -104 -61 -178t-122 -78q-83 -7 -161 90q-8 11 -4.5 25t13.5 24t23 18t25.5 7.5t19.5 -8.5q41 -52 78 -52q34 0 57 38t31 96q-47 -21 -86 -21q-69 0 -118.5 47.5t-49.5 114.5t49.5 114.5t118.5 47.5z" />
    <glyph glyph-name="quotedblbase" unicode="&#x201e;" horiz-adv-x="909" 
d="M643 424q69 0 114.5 -43t61.5 -106t10 -136q-9 -104 -60.5 -178t-121.5 -78q-84 -7 -162 90q-8 11 -4.5 25t14 24t23.5 18t25.5 7.5t19.5 -8.5q40 -51 78 -51q34 0 57 38t31 95q-47 -21 -86 -21q-69 0 -118.5 47.5t-49.5 114.5t49.5 114.5t118.5 47.5zM242 414
q69 0 114.5 -43t61.5 -106t10 -136q-9 -104 -60.5 -178t-121.5 -78q-84 -7 -162 90q-8 11 -4.5 25t14 24t23.5 18t25.5 7.5t19.5 -8.5q41 -52 78 -52q34 0 57 38t31 96q-47 -21 -86 -21q-69 0 -118.5 47.5t-49.5 114.5t49.5 114.5t118.5 47.5z" />
    <glyph glyph-name="perthousand" unicode="&#x2030;" horiz-adv-x="2154" 
d="M668 1593q5 -96 -19.5 -187t-87 -156.5t-151.5 -65.5q-108 0 -169 95t-63 237q-1 90 21 168t72.5 135.5t123.5 68.5q122 16 194.5 -71.5t78.5 -223.5zM416 1251q50 0 87 83.5t27 219.5q-7 120 -36 190.5t-64 70.5t-62.5 -70t-37.5 -209q-10 -138 16 -210.5t70 -74.5z
M1442 578q5 -96 -19.5 -187t-87 -157t-151.5 -66q-108 0 -169 94.5t-63 235.5q-2 89 20 168t72.5 136.5t122.5 67.5q83 12 145.5 -27.5t93.5 -108.5t36 -156zM1190 236q48 -2 81.5 80.5t33.5 222.5q0 115 -32 187.5t-69 72.5q-34 0 -62.5 -70.5t-39.5 -208.5
q-10 -138 17 -211t71 -73zM877 2011q6 33 36 45.5t64 5t61 -28.5t27 -48q-79 -455 -156 -906q-91 -525 -180 -1050q-11 -28 -60 -39t-91.5 6t-36.5 59q95 542 174 1010q78 446 162 946zM2036 578q5 -96 -19.5 -187t-87 -157t-151.5 -66q-108 0 -169 94.5t-63 235.5
q-2 89 20 168t72.5 136.5t122.5 67.5q83 12 145.5 -27.5t93.5 -108.5t36 -156zM1784 236q48 -2 81 80.5t33 222.5q0 115 -31.5 187.5t-68.5 72.5q-34 0 -62.5 -70.5t-39.5 -208.5q-10 -138 17 -211t71 -73z" />
    <glyph glyph-name="guilsinglleft" unicode="&#x2039;" horiz-adv-x="1148" 
d="M848 1487q35 24 110 -19q62 -36 82 -76q13 -28 -8 -42q-164 -106 -348 -236l-293 -205l266 -188q230 -156 351 -234q33 -23 -15 -73q-47 -49 -108 -68q-41 -12 -62 2q-213 146 -354 246q-13 9 -65 41.5t-101 65t-100.5 70t-81.5 70t-27 52.5q9 54 105 135q99 85 307 227
q65 46 137.5 95t131 88z" />
    <glyph glyph-name="guilsinglright" unicode="&#x203a;" horiz-adv-x="1183" 
d="M330 1487l73.5 -49t131 -88t137.5 -95q208 -142 307 -227q95 -80 104 -135q3 -20 -26.5 -52.5t-81.5 -70t-100.5 -70t-100.5 -65t-65 -41.5q-118 -84 -355 -246q-34 -23 -107 18q-63 36 -84 77q-15 29 7 44q101 65 350 234l266 188l-292 205q-174 123 -349 236
q-33 22 14 72q47 49 109 67q41 12 62 -2z" />
    <glyph glyph-name="fraction" unicode="&#x2044;" horiz-adv-x="780" 
d="M487 1989q5 33 27.5 49.5t51 14.5t56.5 -13.5t47 -35.5t19 -50l-190 -1110l-222 -1288q-13 -34 -66 -47.5t-98 8.5t-38 73q102 583 213 1237z" />
    <glyph glyph-name="Euro" unicode="&#x20ac;" horiz-adv-x="1202" 
d="M932 92q33 -4 47 -41t1 -71.5t-46 -30.5q-108 14 -202 67.5t-160 127.5t-117.5 168t-82 184t-46.5 180l-238 -4q-24 1 -34.5 42t-0.5 82t35 42l213 4q-4 97 -2 145v4l-209 2q-24 0 -35 39.5t-1.5 79.5t34.5 41l227 4q30 231 114.5 416.5t217.5 299t293 124.5q30 2 44 -32
t0 -70.5t-52 -41.5q-97 -13 -183 -105.5t-146 -246.5t-83 -344l309 2q28 -2 37 -39.5t-2.5 -74.5t-34.5 -39l-325 -11q-2 -51 2 -153l323 2q28 -3 37 -41t-2 -75.5t-35 -39.5l-301 -6q15 -87 43.5 -173.5t75.5 -176.5t121 -155.5t164 -84.5z" />
    <glyph glyph-name="trademark" unicode="&#x2122;" horiz-adv-x="1665" 
d="M1548 2093q3 -44 1 -97t-5 -164.5t-2 -189.5q0 -581 -4 -653q-2 -38 -43 -52.5t-81 -2t-40 40.5q0 25 -0.5 185t-0.5 296t1 186q0 36 1 108.5t1 109.5q-28 -49 -123.5 -283.5t-117.5 -271.5q-14 -18 -55.5 -18t-53.5 18q-19 35 -93 271t-83 261q0 -440 -6 -848
q-1 -35 -43.5 -49.5t-83.5 -3t-39 38.5q0 185 -5 547.5t-5 537.5q-94 0 -164 -2h-78l4 -1097q-24 -23 -65 -27.5t-73.5 13.5t-31.5 52l-8 1063q-98 2 -309 2q-22 6 -22.5 31.5t22.5 28.5q64 0 187.5 -2t184.5 -2q135 -2 404 -2q35 12 77.5 1.5t53.5 -38.5
q44 -110 136 -384.5t101 -297.5q15 30 91.5 207t145 339.5t69.5 163.5q29 25 85.5 20.5t69.5 -36.5z" />
    <glyph glyph-name="minus" unicode="&#x2212;" horiz-adv-x="1337" 
d="M1151 901q43 -4 58 -62t-3 -116t-55 -61q-268 -15 -514 -21q-312 -4 -473 -2q-38 0 -60 63.5t-12.5 126.5t49.5 62q156 -2 459 -2q81 1 172.5 3t203 5t175.5 4z" />
    <glyph glyph-name="uniE000" unicode="&#xe000;" horiz-adv-x="1306" 
d="M360 82q0 -63 -28 -87t-92 -24q-26 0 -45.5 4t-32.5 11.5t-21.5 18.5t-13 24.5t-6.5 29.5t-2 33.5v36.5v23q0 314 -10.5 941t-10.5 941q0 42 50 64t98 22q46 0 83.5 -18.5t37.5 -59.5q0 -207 -4 -586t-5 -518q68 100 171.5 153.5t230.5 53.5q90 0 159 -21.5t114 -49.5
t76 -87t46.5 -101.5t23 -127.5t8.5 -130.5t1 -143.5v-44v-149q0 -19 1 -53.5t1.5 -55.5t-1.5 -51t-7 -48.5t-15.5 -40t-26.5 -33t-41.5 -19.5t-58.5 -8q-41 0 -64.5 12.5t-37.5 48.5q-14 34 -14 584q0 49 -5 98.5t-20.5 107.5t-40 102t-67.5 73.5t-99 29.5q-64 0 -119.5 -34
t-92.5 -87.5t-64.5 -120t-41 -130t-16.5 -119.5q-6 -25 -2 -231.5t4 -233.5z" />
    <glyph glyph-name="uniE001" unicode="&#xe001;" horiz-adv-x="1617" 
d="M287 -2q-23 0 -50 6t-52 23t-25 41v2000q0 24 25 41t52 23t50 6q39 0 71.5 -20t32.5 -58v-1032q75 353 143 553q198 582 490 582q220 0 357 -242q132 -233 153 -611q21 -381 -79 -727q-105 -366 -306 -538q-147 -125 -326 -125q-157 0 -242 93.5t-85 252.5q0 63 18 135
t52 139.5t91.5 111.5t126.5 44q107 0 164.5 -52t95.5 -161q17 -42 17 -73q0 -64 -43 -64q-25 0 -38.5 25t-22 61t-23 72t-52 61t-98.5 25q-45 0 -82.5 -35.5t-59 -87.5t-33 -104.5t-11.5 -92.5q0 -111 57 -177t168 -66q157 0 267 206.5t145 501.5t28 589.5t-77.5 501
t-177.5 206.5q-89 0 -170 -91t-141.5 -239t-112.5 -336.5t-86.5 -382.5t-59.5 -378t-36 -321.5t-11 -215.5q0 -34 -34 -52t-70 -18z" />
    <glyph glyph-name="uniE002" unicode="&#xe002;" horiz-adv-x="1484" 
d="M328 256v-188q0 -35 -33.5 -52.5t-71.5 -17.5q-41 0 -84 17.5t-43 52.5v2000q0 35 43 52.5t84 17.5q60 0 84.5 -32t24.5 -93q0 -17 -2 -51t-2 -51q95 112 235 172.5t291 60.5q225 0 370.5 -152t145.5 -378q0 -198 -117 -340.5t-311 -188.5q215 -47 339 -206t124 -381
q0 -230 -145.5 -362t-376.5 -132q-161 0 -310 66t-245 186zM1114 496q0 260 -116 398t-371 138q-6 0 -26.5 -1.5t-30 -0.5t-23 5.5t-19.5 16.5t-6 31q0 30 14 43t44 13q111 0 201.5 26t160 78.5t107.5 139t38 200.5q0 65 -7 123.5t-27 119.5t-52 104.5t-86 71.5t-124 28
q-80 0 -187.5 -46.5t-191.5 -128.5t-84 -165v-1219q0 -64 56 -124.5t135.5 -101t162 -65t139.5 -24.5q150 0 221.5 92.5t71.5 247.5z" />
    <glyph glyph-name="uniE003" unicode="&#xe003;" horiz-adv-x="1183" 
d="M236 -2q-41 0 -84 17.5t-43 52.5v2000q0 35 43 52.5t84 17.5q39 0 71.5 -20t32.5 -58v-1075q17 78 39 164.5t59.5 205.5t80 226.5t100.5 217t120.5 189t141.5 129.5t161 50q80 0 141.5 -35.5t96.5 -95t52.5 -128.5t17.5 -145q0 -189 -82 -366.5t-224 -310t-319 -197.5
q-149 -51 -203 -51q-39 0 -39 55q0 13 3.5 23t7.5 16t14.5 10.5t15 6t20 5t19.5 4.5q133 36 241.5 123.5t177.5 203.5t106.5 249.5t37.5 269.5q0 30 -3.5 66t-13.5 82.5t-32.5 77t-54.5 30.5q-75 0 -147.5 -60t-128 -152.5t-108 -221.5t-88.5 -249.5t-68.5 -254t-49 -217.5
t-29.5 -157q-63 -380 -63 -680q0 -34 -34 -52t-70 -18z" />
    <glyph glyph-name="uniE004" unicode="&#xe004;" horiz-adv-x="1267" 
d="M236 -2q-41 0 -84 17.5t-43 52.5v2000q0 35 43 52.5t84 17.5q39 0 71.5 -20t32.5 -58v-1075q17 78 39 164.5t59.5 205.5t80 226.5t100.5 217t120.5 189t141.5 129.5t161 50q80 0 142.5 -39.5t98.5 -103.5t54.5 -136.5t18.5 -146.5q0 -166 -66 -315t-178.5 -260
t-252.5 -191.5t-298 -126.5l590 -754q0 -2 1 -6t1 -6q0 -37 -42.5 -65.5t-80.5 -28.5q-31 0 -41 12q-14 16 -36.5 52t-26.5 42q-68 95 -127 170q-78 106 -229 298t-214 276q-5 -62 -8 -131t-5 -122.5t-2.5 -134t-0.5 -123v-134v-125.5q0 -35 -33 -52.5t-71 -17.5zM436 924
q15 4 59.5 15t67.5 19q174 57 303.5 188t194.5 300.5t65 353.5q0 30 -3.5 66.5t-13.5 84t-32.5 78.5t-54.5 31q-54 0 -107 -31t-96.5 -82t-86 -125.5t-75.5 -150.5t-65.5 -169t-55 -169t-44 -163t-33.5 -139t-23 -107z" />
    <glyph glyph-name="uniE005" unicode="&#xe005;" 
d="M-297 -1055q-49 0 -49 49q0 16 1.5 25t10.5 15t13.5 7.5t23.5 6.5q155 48 238.5 154.5t83.5 267.5q0 91 -38 162.5t-97 114t-140 70.5t-158.5 38t-160.5 10q-157 0 -294 -54t-236.5 -148.5t-156.5 -230.5t-57 -294q0 -144 46.5 -267.5t128 -212.5t191 -152t237.5 -93.5
t266 -30.5q87 0 175.5 17.5t167.5 46t164 74.5t155.5 92t152 111.5t143.5 120.5t140 130t131 128.5t127.5 129t119.5 119.5q-68 258 -85.5 536t-6.5 625q-15 -62 -41 -127.5t-66.5 -132.5t-88.5 -119.5t-111.5 -85.5t-130.5 -33q-94 0 -170.5 37.5t-126 98.5t-83 141.5
t-47.5 163.5t-14 168q0 86 15 175t44 178t77 166.5t109 138t144.5 95.5t178.5 35q76 0 145 -28.5t113 -84.5q0 36 12 60t35.5 36t49 16.5t60.5 4.5q51 0 80.5 -9t44 -33t18 -51t3.5 -79q0 -153 -11.5 -461.5t-11.5 -462.5q0 -460 52 -792q430 383 815 383q174 0 318 -84.5
t226 -229.5t82 -319q0 -119 -46.5 -226.5t-126 -187t-181.5 -138t-215.5 -88.5t-226.5 -30q-290 0 -497.5 172t-301.5 459q-35 -35 -108 -109q-110 -112 -170 -171t-174 -164t-192 -164t-194.5 -135.5t-215 -116.5t-218.5 -69t-237 -29q-156 0 -299.5 35.5t-265.5 107
t-212.5 172.5t-142 240t-51.5 301q0 239 110.5 429.5t303.5 296t432 105.5q71 0 139 -7.5t138 -24.5t131 -43t114.5 -66t91.5 -90t60 -118t22 -148q0 -86 -31.5 -178t-85.5 -169.5t-135.5 -127.5t-171.5 -50zM883 997q0 48 -2 79.5t-12 71t-28.5 62.5t-52.5 39.5t-83 16.5
q-80 0 -143.5 -48t-101.5 -119.5t-63.5 -163t-35 -170.5t-9.5 -149q0 -45 4 -95.5t17.5 -115.5t34.5 -116t59.5 -86t87.5 -35q67 0 122 46.5t89 124.5t58.5 167t36.5 187.5t17 171t5 132.5zM1241 -592q22 -108 56.5 -204.5t90.5 -189.5t126.5 -160t169 -107.5t212.5 -40.5
q110 0 226.5 44t211.5 117.5t155.5 180t60.5 221.5q0 146 -72.5 266.5t-195.5 188t-269 67.5q-359 0 -772 -383z" />
    <glyph glyph-name="uniE006" unicode="&#xe006;" horiz-adv-x="509" 
d="M264 12q-47 0 -76 11.5t-43 38t-18 55t-4 76.5q0 185 -10.5 554t-10.5 553q0 23 18 40.5t46 26.5t53.5 13t46.5 4q125 0 125 -69q0 -195 2 -583t2 -582q0 -74 -29 -106t-102 -32zM246 1505h-4q-73 33 -122.5 88.5t-49.5 126.5q0 44 22.5 79.5t63.5 35.5q30 0 53 -22.5
t35 -55.5q12 33 35.5 55.5t54.5 22.5q41 0 62.5 -35.5t21.5 -79.5q0 -71 -49.5 -126.5t-122.5 -88.5z" />
    <glyph glyph-name="uniE007" unicode="&#xe007;" horiz-adv-x="1525" 
d="M971 1001q98 -15 179 -62t136 -116.5t96 -153t63.5 -179t33 -186t10.5 -181.5q0 -269 -74 -526q1167 -25 2521 -25q675 0 2023.5 7t2023.5 7q884 0 1061 -2q59 -1 168 0t198.5 0t167.5 -6q101 -7 101 -92q0 -40 -30 -66t-71 -26q-268 0 -803 4t-804 4q-679 0 -2038 -7
t-2038 -7q-1410 0 -2541 24q-47 -114 -111.5 -212.5t-149.5 -181.5t-195.5 -131t-233.5 -48q-80 0 -158.5 25.5t-144 70.5t-106 116.5t-40.5 155.5q0 85 37.5 155t97.5 115t138 76t156 44.5t155 13.5q69 0 195.5 -4.5t176.5 -5.5q58 251 58 485q0 71 -5.5 139.5t-20.5 146
t-38 144.5t-60.5 129.5t-86 107t-116.5 71t-150 26.5q-20 0 -58 -6t-57 -6q-39 0 -39 55q0 19 8 31.5t16 16t28.5 9t27.5 8.5q106 42 187.5 141t126 223t66 247.5t21.5 240.5q0 26 -2 59t-8.5 80.5t-21.5 79t-37 31.5q-76 0 -149 -61.5t-130 -158.5t-110 -229t-90.5 -260
t-70 -264.5t-50 -230t-29.5 -168.5q-53 -350 -53 -620q0 -34 -34 -52t-71 -18q-23 0 -50 6t-52 23t-25 41v2000q0 24 25 41t52 23t50 6q43 0 84.5 -19.5t40.5 -58.5l-20 -1075q17 78 39 164.5t59.5 205.5t80 226.5t100.5 217t120.5 189t141.5 129.5t161 50
q152 0 224.5 -98.5t72.5 -256.5q0 -209 -101 -433.5t-255 -377.5zM1118 -582q-39 1 -150 5t-171 4q-50 0 -102 -5.5t-112.5 -21.5t-107 -41t-77.5 -68.5t-31 -99.5q0 -102 93.5 -175t198.5 -73q71 0 135.5 31t112 78t90.5 113.5t70.5 126t50.5 126.5z" />
    <glyph glyph-name="uniE008" unicode="&#xe008;" horiz-adv-x="1525" 
d="M4682 -610h-408h-433.5t-398.5 0.5t-433.5 1t-399 2.5t-433 4t-398 5.5t-424.5 8.5q-47 -114 -111.5 -212.5t-149.5 -181.5t-195.5 -131t-233.5 -48q-80 0 -158.5 25.5t-144 70.5t-106 116.5t-40.5 155.5q0 85 37.5 155t97.5 115t138 76t156 44.5t155 13.5
q69 0 195.5 -4.5t176.5 -5.5q58 251 58 485q0 71 -5.5 139.5t-20.5 146t-38 144.5t-60.5 129.5t-86 107t-116.5 71t-150 26.5q-20 0 -58 -6t-57 -6q-39 0 -39 55q0 19 8 31.5t16 16t28.5 9t27.5 8.5q106 42 187.5 141t126 223t66 247.5t21.5 240.5q0 26 -2 59t-8.5 80.5
t-21.5 79t-37 31.5q-76 0 -149 -61.5t-130 -158.5t-110 -229t-90.5 -260t-70 -264.5t-50 -230t-29.5 -168.5q-53 -350 -53 -620q0 -34 -34 -52t-71 -18q-23 0 -50 6t-52 23t-25 41v2000q0 24 25 41t52 23t50 6q43 0 84.5 -19.5t40.5 -58.5l-20 -1075q17 78 39 164.5
t59.5 205.5t80 226.5t100.5 217t120.5 189t141.5 129.5t161 50q152 0 224.5 -98.5t72.5 -256.5q0 -209 -101 -433.5t-255 -377.5q98 -15 179 -62t136 -116.5t96 -153t63.5 -179t33 -186t10.5 -181.5q0 -269 -74 -526q480 -11 1021 -15t1205.5 -4.5t1040.5 -3.5
q45 0 72.5 -23.5t27.5 -68.5q0 -40 -29.5 -66t-70.5 -26zM1118 -582q-39 1 -150 5t-171 4q-50 0 -102 -5.5t-112.5 -21.5t-107 -41t-77.5 -68.5t-31 -99.5q0 -102 93.5 -175t198.5 -73q71 0 135.5 31t112 78t90.5 113.5t70.5 126t50.5 126.5z" />
    <glyph glyph-name="uniE009" unicode="&#xe009;" horiz-adv-x="1294" 
d="M371 752q162 6 485 6q-29 162 -56.5 346t-58 406.5t-49.5 347.5q-57 -169 -121 -387.5t-94 -327t-106 -391.5zM2439 -432q273 0 797 4t797 4l395 -2q44 0 72 -24t28 -68q0 -40 -29.5 -66t-70.5 -26q-395 0 -1074.5 7.5t-904.5 8.5q-112 1 -312 -1q-146 -6 -270.5 0
t-226 10t-186.5 31.5t-153 63t-124 104.5t-99.5 156.5t-80.5 219t-66 291.5t-57 374q-352 0 -528 -6q-89 -324 -110 -407q-4 -17 -11.5 -60t-16 -75t-20.5 -58q-14 -31 -34.5 -42t-57.5 -11q-27 0 -52.5 11t-25.5 36q0 17 318 1017t326 1011q22 29 41 36t59 7q107 0 133 -37
q3 -4 20.5 -123t22.5 -160q68 -468 113 -723q25 -143 107 -670q52 -339 98 -473q57 -166 163 -240q114 -80 359 -103q175 -17 661 -17z" />
    <glyph glyph-name="uniE00A" unicode="&#xe00a;" horiz-adv-x="1294" 
d="M371 752q162 6 485 6q-29 162 -56.5 346t-58 406.5t-49.5 347.5q-57 -169 -121 -387.5t-94 -327t-106 -391.5zM2449 -594q-112 1 -312 -1q-146 -6 -270.5 0t-226 10t-186.5 31.5t-153 63t-124 104.5t-99.5 156.5t-80.5 219t-66 291.5t-57 374q-352 0 -528 -6
q-89 -324 -110 -407q-4 -17 -11.5 -60t-16 -75t-20.5 -58q-14 -31 -34.5 -42t-57.5 -11q-27 0 -52.5 11t-25.5 36q0 17 318 1017t326 1011q22 29 41 36t59 7q107 0 133 -37q3 -4 20.5 -123t22.5 -160q68 -468 113 -723q25 -143 107 -670q52 -339 98 -473q57 -166 163 -240
q114 -80 359 -103q175 -17 661 -17q819 0 2202 9.5t2201.5 13.5t2201.5 -7q59 -1 168 0t198.5 0t167.5 -6q101 -7 101 -92q0 -40 -30 -66t-71 -26q-4753 0 -7129 12z" />
    <glyph glyph-name="uniE00B" unicode="&#xe00b;" horiz-adv-x="1050" 
d="M3936 -428q908 0 2722 8t2720 8q9 0 42 1t55 0.5t56 -2.5t56.5 -8.5t45.5 -17.5t34.5 -30t11.5 -45q0 -40 -30 -66t-71 -26q-268 0 -803 4t-804 4q-679 0 -2038 -7t-2038 -7q-437 0 -1312.5 4t-1312.5 4q-114 0 -180.5 1.5t-173 8t-194.5 24.5t-161 46q-80 31 -147 83.5
t-115 111t-86 144t-62 156t-41.5 175t-25.5 175t-12.5 181t-5 167t-0.5 158.5v13q0 106 8 216t30.5 240.5t57 247t92 227.5t130.5 191.5t177.5 129t229.5 48.5q91 0 163 -37t116 -100t66.5 -141.5t22.5 -165.5q0 -28 -20.5 -43t-48.5 -15q-30 0 -47 29.5t-22.5 73.5
t-17.5 96t-29.5 96t-61.5 73.5t-111 29.5q-439 0 -439 -1399v-2q0 -151 3 -240.5t17.5 -212.5t42 -195t79.5 -155t127.5 -127.5t188 -77t259.5 -37.5q82 -3 738 -8q1178 -10 2119 -10z" />
    <glyph glyph-name="uniE00C" unicode="&#xe00c;" horiz-adv-x="1050" 
d="M4252 -410q36 0 61.5 -20t33 -49t3 -58t-30 -49t-65.5 -20q-496 0 -1492.5 1t-1491.5 1q-112 0 -179 1.5t-174.5 8t-196 24.5t-159.5 46q-91 36 -166 107.5t-126 158t-90 197.5t-61 216.5t-36 225t-18.5 213.5t-4.5 190q0 107 8 219t30 248t56.5 258t92 239.5
t131.5 202.5t180.5 137t233.5 52q91 0 163 -37t116 -100t66.5 -141.5t22.5 -165.5q0 -28 -20.5 -43t-48.5 -15q-30 0 -47 29.5t-22.5 73.5t-17.5 96t-29.5 96t-61.5 73.5t-111 29.5q-82 0 -149.5 -57.5t-113 -148t-80 -212.5t-53.5 -241t-31.5 -245t-16 -211t-3.5 -153
q0 -116 1.5 -193t9 -183.5t21.5 -178.5t40 -159.5t62.5 -146.5t91.5 -120.5t125 -98.5t165 -64t209 -34q466 -27 996.5 -27t1178.5 13.5t998 13.5z" />
    <glyph glyph-name="uniE00D" unicode="&#xe00d;" horiz-adv-x="1724" 
d="M1171 -399q85 238 127.5 638.5t42.5 735.5q0 49 -0.5 92t-4 124.5t-9.5 150.5t-18 158t-28 160t-42 143t-57.5 120t-76 78.5t-97.5 30.5q-89 0 -170 -91t-141.5 -239t-112.5 -336.5t-86.5 -382t-59.5 -377.5t-36 -322t-11 -216q0 -34 -34 -52t-70 -18q-23 0 -50 6t-52 23
t-25 41v2000q0 24 25 41t52 23t50 6q39 0 71.5 -20t32.5 -58v-1032q78 372 154 586q195 549 479 549q110 0 200.5 -51t150 -131.5t104.5 -195t69 -225.5t39 -241t19 -223t4 -189q0 -321 -49.5 -697t-145.5 -613q1167 -25 2521 -25q763 0 2289 7t2289 7q100 0 298 -1t298 -1
q41 0 145 2.5t179.5 1t143.5 -9.5q49 -5 75 -25t26 -67q0 -40 -30 -66t-71 -26q-268 0 -803 4t-804 4q-679 0 -2038 -7t-2038 -7q-1410 0 -2541 24q-47 -114 -111.5 -212.5t-150 -181.5t-196 -131t-232.5 -48q-80 0 -158.5 25.5t-144 70.5t-106 116.5t-40.5 155.5
q0 85 37.5 155t97.5 115t138 76t156 44.5t155 13.5q69 0 195.5 -4.5t176.5 -5.5zM1118 -582q-39 1 -150 5t-171 4q-50 0 -102 -5.5t-112.5 -21.5t-107 -41t-77.5 -68.5t-31 -99.5q0 -102 93.5 -175t198.5 -73q71 0 135.5 31t112 78t90 112.5t70.5 126t51 127.5z" />
    <glyph glyph-name="uniE00E" unicode="&#xe00e;" horiz-adv-x="1724" 
d="M1171 -399q35 97 66 253.5t55 345t36.5 398t13 413t-20 389t-57.5 325.5t-102.5 223.5t-153.5 83.5q-89 0 -170 -91t-141.5 -239t-112.5 -336.5t-86.5 -382.5t-59.5 -378t-36 -321.5t-11 -215.5q0 -34 -34 -52t-70 -18q-23 0 -50 6t-52 23t-25 41v2000q0 24 25 41t52 23
t50 6q39 0 71.5 -20t32.5 -58v-1032q75 353 143 553q198 582 490 582q117 0 212 -56.5t159 -156.5t110.5 -235.5t69 -293.5t31.5 -331t1 -347.5t-25 -343.5t-43.5 -319.5t-58 -274.5t-65.5 -208q1433 -33 3299 -19q101 -7 101 -92q0 -40 -30 -66t-71 -26q-1935 -14 -3360 18
q-47 -114 -111.5 -212.5t-149.5 -181.5t-195.5 -131t-233.5 -48q-80 0 -158.5 25.5t-144 70.5t-106 116.5t-40.5 155.5q0 85 37.5 155t97.5 115t138 76t156 44.5t155 13.5q69 0 195.5 -4.5t176.5 -5.5zM1118 -582q-39 1 -150 5t-171 4q-50 0 -102 -5.5t-112.5 -21.5
t-107 -41t-77.5 -68.5t-31 -99.5q0 -102 93.5 -175t198.5 -73q71 0 135.5 31t112 78t90.5 113.5t70.5 126t50.5 126.5z" />
    <glyph glyph-name="uniE00F" unicode="&#xe00f;" horiz-adv-x="1030" 
d="M9044 -416q59 -1 168 0t198.5 0t167.5 -6q101 -7 101 -92q0 -40 -30 -66t-71 -26q-924 0 -2617.5 -2t-3079 -2t-2617.5 4q-1138 -5 -1131 291q2 86 0.5 468t-4.5 537q-4 153 -11.5 680.5t-8.5 579.5q-1 62 37.5 100t99 48.5t133.5 14t141 -2.5q22 -1 33 -1
q55 -2 154.5 -6.5t164.5 -7t93 -2.5q19 -2 27.5 -18t7 -34.5t-11 -33.5t-23.5 -16q-268 0 -381 2h-1h-1h-1h-1h-1h-1h-1h-1h-1h-1h-1h-1h-1h-1h-1h-1h-1h-1h-1l-2 1q-136 3 -162 -6q-27 -9 -29 -43q-1 -12 1 -47q2 -41 2 -67l12 -756l170 4q94 2 317 2q21 -2 22.5 -49
t-22.5 -53q-233 0 -317 -2l-172 -4q0 -15 -1 -508.5t-1 -632.5q0 -59 41 -104.5t110.5 -72.5t159.5 -45.5t188 -24.5t197 -9.5t185 0.5q972 -1 2593.5 7.5t2593.5 11.5t2593 -11z" />
    <glyph glyph-name="uniE010" unicode="&#xe010;" horiz-adv-x="1030" 
d="M1264 -424l3029 2q45 0 72.5 -23.5t27.5 -68.5q0 -40 -29.5 -66t-70.5 -26h-3029q-1138 -5 -1131 291q2 86 0.5 468t-4.5 537q-4 153 -11.5 680.5t-8.5 579.5q-1 62 37.5 100t99 48.5t133.5 14t141 -2.5q22 -1 33 -1q55 -2 154.5 -6.5t164.5 -7t93 -2.5q19 -2 27.5 -18
t7 -34.5t-11 -33.5t-23.5 -16q-268 0 -381 2h-1h-1h-1h-1h-1h-1h-1h-1h-1h-1h-1h-1h-1h-1h-1h-1h-1h-1h-1l-2 1q-136 3 -162 -6q-27 -9 -29 -43q-1 -12 1 -47q2 -41 2 -67l12 -756l170 4q94 2 317 2q21 -2 22.5 -49t-22.5 -53q-233 0 -317 -2l-172 -4q0 -15 -1 -508.5
t-1 -632.5q0 -59 41 -104.5t110.5 -72.5t159.5 -45.5t188 -24.5t197 -9.5t185 0.5z" />
    <glyph glyph-name="uniE011" unicode="&#xe011;" 
d="M883 997q0 48 -2 79.5t-12 71t-28.5 62.5t-52.5 39.5t-83 16.5q-80 0 -143.5 -48t-101.5 -120t-63.5 -163.5t-35 -170t-9.5 -148.5q0 -44 4 -94t17.5 -115.5t34.5 -116.5t59.5 -86.5t87.5 -35.5q67 0 122 46.5t89 124.5t58.5 167t36.5 187.5t17 171t5 132.5zM1241 -592
q22 -108 56.5 -204.5t90.5 -189.5t126.5 -160t169 -107.5t212.5 -40.5q110 0 226.5 44t211.5 117.5t155.5 180t60.5 221.5q0 146 -72.5 266.5t-195.5 188t-269 67.5q-359 0 -772 -383zM940 512q-15 -62 -41 -127.5t-66.5 -132.5t-88.5 -119.5t-111.5 -85.5t-130.5 -33
q-94 0 -170.5 37.5t-126 98.5t-83 141.5t-47.5 163.5t-14 168q0 86 15 175t44 178t77 166.5t109 138t144.5 95.5t178.5 35q77 0 168.5 -31t128.5 -82q-2 246 -2 736q0 23 15 40.5t38.5 26.5t46 13t43.5 4q81 0 125 -41v-76q0 -311 -4.5 -882t-5.5 -793v-86.5v-92.5t0.5 -85
t1.5 -93.5t2.5 -85.5t4.5 -93t7 -84.5t9 -92.5t12 -86q430 383 815 383q174 0 318 -84.5t226 -229.5t82 -319q0 -119 -46.5 -226.5t-126 -187t-181.5 -138t-215.5 -88.5t-226.5 -30q-290 0 -497.5 172t-301.5 459q-35 -35 -108 -109q-110 -112 -170 -171t-174 -164
t-192 -164t-194.5 -135.5t-215 -116.5t-218.5 -69t-237 -29q-156 0 -299.5 35.5t-265.5 107t-212.5 172.5t-142 240t-51.5 301q0 239 110.5 429.5t303.5 296t432 105.5q71 0 139 -7.5t138 -24.5t131 -43t114.5 -66t91.5 -90t60 -118t22 -148q0 -86 -31.5 -178t-85.5 -169.5
t-135.5 -127.5t-171.5 -50q-49 0 -49 49q0 16 1.5 25t10.5 15t13.5 7.5t23.5 6.5q155 48 238.5 154.5t83.5 267.5q0 91 -38 162.5t-97 114t-140 70.5t-158.5 38t-160.5 10q-157 0 -294 -54t-236.5 -148.5t-156.5 -230.5t-57 -294q0 -144 46.5 -267.5t128 -212.5t191 -152
t237.5 -93.5t266 -30.5q87 0 175.5 17.5t167.5 46t164 74.5t155.5 92t152 111.5t143.5 120.5t140 130t131 128.5t127.5 129t119.5 119.5q-68 258 -85.5 536t-6.5 625z" />
    <glyph glyph-name="uniE012" unicode="&#xe012;" horiz-adv-x="1208" 
d="M842 526q0 441 -26.5 594.5t-143.5 153.5q-277 0 -277 -645q0 -90 -4 -269.5t-4 -269.5q0 -49 -41.5 -73.5t-93.5 -24.5q-75 0 -119 55q-16 69 -16 246q0 290 5 870.5t5 870.5q0 29 27.5 50.5t67 29t79 5t67 -23t27.5 -53.5q0 -146 -1 -437t-1 -436q91 207 330 207
q62 0 113 -12.5t88 -31.5t65 -52t46 -64.5t30 -79t17.5 -85t7.5 -94t1.5 -94t-1 -96.5t-0.5 -91q0 -87 -3 -279.5t-3 -305t9 -273t29 -291.5q430 383 815 383q174 0 318.5 -84.5t226.5 -229.5t82 -319q0 -119 -46.5 -226.5t-126 -187t-181.5 -138t-216 -88.5t-227 -30
q-290 0 -497 172t-301 459q-35 -35 -106 -107q-111 -113 -171 -172t-174 -164t-192.5 -164t-195 -135.5t-215 -117t-219 -69.5t-237.5 -29q-129 0 -251 25.5t-230 73.5t-197.5 122t-154.5 167t-101 213t-36 255q0 240 110 430t303 295.5t432 105.5q101 0 195.5 -14.5
t187.5 -50.5t161 -91t110.5 -142.5t42.5 -198.5q0 -86 -31.5 -178t-85.5 -169.5t-135.5 -127.5t-171.5 -50q-49 0 -49 49q0 16 1.5 25t10.5 15t13.5 7.5t23.5 6.5q155 48 238 154.5t83 267.5q0 91 -38 162.5t-97 114t-140 70.5t-158.5 38t-160.5 10q-209 0 -378.5 -91.5
t-267 -258.5t-97.5 -377q0 -144 46.5 -267.5t127.5 -212.5t191 -152t237.5 -93.5t265.5 -30.5q87 0 175.5 17.5t167.5 45.5t164.5 74.5t155.5 92.5t152 111.5t144 120t140 130t131 129t127.5 129t119.5 119.5q-68 258 -86.5 544.5t-7.5 630.5zM1145 -592
q22 -108 56.5 -204.5t90.5 -189.5t126.5 -160t169 -107.5t212.5 -40.5q110 0 226.5 44t211.5 117.5t155.5 180t60.5 221.5q0 146 -72.5 266.5t-195.5 188t-269 67.5q-359 0 -772 -383z" />
    <glyph glyph-name="uniE013" unicode="&#xe013;" horiz-adv-x="509" 
d="M240 1575q-60 0 -103 40.5t-43 98.5q0 57 43 97t103 40q61 0 104 -40t43 -97q0 -58 -42.5 -98.5t-104.5 -40.5zM391 1315q0 -112 -2.5 -337t-3 -383t3.5 -359t17.5 -379.5t37.5 -329.5q430 383 816 383q174 0 318 -84.5t226 -229.5t82 -319q0 -119 -46.5 -226.5
t-126 -187t-181.5 -138t-215.5 -88.5t-226.5 -30q-290 0 -497.5 172t-301.5 459q-35 -35 -106 -107q-111 -113 -171 -172t-174 -164t-192.5 -164t-195 -135.5t-215 -117t-219 -69.5t-237.5 -29q-129 0 -251 25.5t-230 73.5t-197.5 122t-154.5 167t-101 213t-36 255
q0 239 110.5 429.5t303.5 296t432 105.5q71 0 139 -7.5t138 -24.5t131 -43t114.5 -66t91.5 -90t60 -118t22 -148q0 -86 -31.5 -178t-85.5 -169.5t-135.5 -127.5t-171.5 -50q-49 0 -49 49q0 16 1.5 25t10.5 15t13.5 7.5t23.5 6.5q155 48 238 154.5t83 267.5q0 66 -19.5 121.5
t-53 95.5t-80.5 71.5t-99 51t-112 32.5t-115.5 18t-113.5 5q-157 0 -294 -54t-236.5 -148.5t-156.5 -230.5t-57 -294q0 -144 46.5 -267.5t127.5 -212.5t191 -152t237.5 -93.5t265.5 -30.5q87 0 175.5 17.5t167.5 45.5t164.5 74.5t155.5 92.5t152 111.5t144 120t140 130
t131 129t127.5 129t119.5 119.5q-33 123 -58.5 260t-41.5 249t-27.5 271t-17 253.5t-8.5 273.5t-3 253.5v267.5v41.5v37.5v42q0 23 18 40.5t46 26.5t53.5 13t46.5 4q125 0 125 -69zM467 -592q22 -108 56.5 -204.5t90.5 -189.5t126.5 -160t169 -107.5t212.5 -40.5
q110 0 226.5 44t211.5 117.5t155.5 180t60.5 221.5q0 146 -72.5 266.5t-195.5 188t-269 67.5q-359 0 -772 -383z" />
    <glyph glyph-name="uniE014" unicode="&#xe014;" horiz-adv-x="942" 
d="M358 580q0 -83 1 -249t1 -249q0 -62 -28.5 -86.5t-91.5 -24.5q-20 0 -36 3t-28 6.5t-21.5 11.5t-15.5 14t-10 19t-6 20.5t-3 24.5t-1 25v28.5v28.5q0 314 -10.5 941t-10.5 941q0 29 28 50t60 28.5t60 7.5q45 0 83 -18.5t38 -59.5q0 -240 -4 -678t-5 -598l510 604
q16 19 45 19q35 0 63 -25.5t28 -60.5q0 -25 -25 -54l-498 -587q45 -71 85.5 -143.5t102.5 -194t76 -148.5q215 -413 412 -745q65 59 107 96.5t110.5 93.5t121 91.5t123.5 77t133.5 65t136 39.5t145.5 16q186 0 335 -74.5t236.5 -216.5t87.5 -328q0 -195 -95 -346.5
t-254 -231t-353 -79.5q-116 0 -227.5 35t-202.5 91.5t-179.5 139.5t-156 165.5t-135.5 182.5q-45 -43 -125 -121t-134 -130.5t-137 -129t-146 -130t-148.5 -119.5t-158 -111t-161 -91t-170 -73.5t-173 -45t-181.5 -17.5q-155 0 -298.5 35.5t-265.5 107.5t-213 173
t-142.5 240t-51.5 300q0 239 110.5 429.5t303.5 296t432 105.5q71 0 139 -7.5t138 -24.5t131 -43t114.5 -66t91.5 -90t60 -118t22 -148q0 -86 -31.5 -178t-85.5 -169.5t-135.5 -127.5t-171.5 -50q-49 0 -49 49q0 11 1.5 19t3 12.5t7.5 8t8.5 5t13.5 4.5t15 5
q162 60 242 158.5t80 263.5q0 91 -38 162.5t-97 114t-140 70.5t-158.5 38t-160.5 10q-157 0 -294 -54t-236.5 -148.5t-156.5 -230.5t-57 -294q0 -144 46.5 -267.5t128 -212.5t191 -152t237.5 -93.5t266 -30.5q104 0 213.5 27.5t203 68t202.5 111t188 130t185.5 154.5
t169.5 155.5t165.5 161t148.5 144.5q-215 333 -444 791q-20 39 -70 141t-86.5 174.5t-73.5 139.5zM1212 -657q44 -69 79.5 -121.5t88 -120.5t99.5 -118t109 -102t122.5 -84.5t134 -53.5t148.5 -21q161 0 295 70t213 199.5t79 291.5q0 159 -78 276t-205 174.5t-284 57.5
q-91 0 -185.5 -29t-168 -68t-164.5 -108t-145 -116.5t-138 -126.5z" />
    <glyph glyph-name="uniE015" unicode="&#xe015;" horiz-adv-x="1894" 
d="M1847 -592q22 -108 57 -205t91 -189.5t126.5 -159.5t169 -107.5t212.5 -40.5q110 0 226.5 44t211 117.5t155 180t60.5 221.5q0 146 -72.5 266.5t-195.5 188t-269 67.5q-359 0 -772 -383zM1774 319q0 -466 51 -792q430 383 815 383q174 0 318.5 -84.5t226.5 -229.5
t82 -319q0 -119 -46.5 -226.5t-126 -187t-181.5 -138t-216 -88.5t-227 -30q-290 0 -497.5 172t-301.5 459q-35 -35 -108 -109q-110 -112 -170 -171t-174 -164t-192 -164t-194.5 -135.5t-215 -116.5t-218.5 -69t-237 -29q-156 0 -299.5 35.5t-265.5 107t-212.5 172.5
t-142 240t-51.5 301q0 239 110.5 429.5t303.5 296t432 105.5q71 0 139 -7.5t138 -24.5t131 -43t114.5 -66t91.5 -90t60 -118t22 -148q0 -86 -31.5 -178t-85.5 -169.5t-135.5 -127.5t-171.5 -50q-49 0 -49 49q0 16 1.5 25t10.5 15t13.5 7.5t23.5 6.5q155 48 238.5 154.5
t83.5 267.5q0 91 -38 162.5t-97 114t-140 70.5t-158.5 38t-160.5 10q-157 0 -294 -54t-236.5 -148.5t-156.5 -230.5t-57 -294q0 -144 46.5 -267.5t128 -212.5t191 -152t237.5 -93.5t266 -30.5q87 0 175.5 17.5t167.5 46t164 74.5t155.5 92t152 111.5t143.5 120.5t140 130
t131 128.5t127.5 129t119.5 119.5q-39 146 -62.5 295.5t-33 327t-11 286t-1.5 320.5v90v36q3 41 1 99t-4.5 121t-14 125t-28.5 111.5t-48.5 80.5t-73.5 31q-281 0 -281 -952q0 -18 2.5 -116t-0.5 -116q-3 -50 -47 -76t-98 -26q-63 0 -86 27t-23 87q0 74 3.5 221.5t3.5 219.5
q0 731 -170 731q-66 0 -118 -52t-80.5 -126t-47.5 -168t-25 -166.5t-6 -132.5q0 -90 -4 -269.5t-4 -269.5q0 -49 -41.5 -73.5t-93.5 -24.5q-75 0 -119 55q-5 17 -7.5 36.5t-3.5 42.5t-1.5 37.5t0 43t0.5 37.5q0 53 -0.5 199t0 221t2.5 194t8 220t16 198q6 61 31 88t82 27
q29 0 51 -5.5t36.5 -11.5t24.5 -22t15 -26t6.5 -34.5t1.5 -36t-1 -42.5t-1 -44q91 207 330 207q124 0 207 -73.5t110 -196.5q44 145 146 207.5t260 62.5q58 0 106 -12t81.5 -32t59.5 -52t42 -65t26 -78.5t14.5 -84.5t6 -92t0.5 -92.5t-1.5 -92.5t-0.5 -87q1 -29 0 -184.5
t0 -184.5z" />
    <glyph glyph-name="uniE016" unicode="&#xe016;" horiz-adv-x="1202" 
d="M1083 676q2 -103 -1.5 -358.5t2.5 -446t30 -344.5q430 383 815 383q174 0 318.5 -84.5t226.5 -229.5t82 -319q0 -119 -46.5 -226.5t-126 -187t-181.5 -138t-216 -88.5t-227 -30q-290 0 -497 172t-301 459q-35 -35 -106 -107q-111 -113 -171 -172t-174 -164t-192.5 -164
t-195 -135.5t-215 -117t-219 -69.5t-237.5 -29q-156 0 -299.5 35.5t-265.5 107t-212.5 172.5t-142 240t-51.5 301q0 239 110.5 429.5t303.5 296t432 105.5q101 0 195.5 -14.5t187.5 -50.5t161 -91t110.5 -142.5t42.5 -198.5q0 -86 -31.5 -178t-85.5 -169.5t-135.5 -127.5
t-171.5 -50q-50 0 -50 49q0 28 8.5 36.5t34.5 15.5q2 1 3.5 1.5t3.5 0.5q155 48 238 154.5t83 267.5q0 91 -38 162.5t-97 114t-140 70.5t-158.5 38t-160.5 10q-209 0 -378.5 -91.5t-267 -258.5t-97.5 -377q0 -144 46.5 -267.5t127.5 -212.5t191 -152t237.5 -93.5
t265.5 -30.5q87 0 175.5 17.5t167.5 45.5t164.5 74.5t155.5 92.5t152 111.5t144 120t140 130t131 129t127.5 129t119.5 119.5q-69 259 -86 517t-6 599q0 409 -10 526q-16 198 -78 253q-32 28 -82 28q-277 0 -277 -645q0 -90 -4 -269.5t-4 -269.5q0 -49 -41.5 -73.5
t-93.5 -24.5q-75 0 -119 55q-16 69 -16 246q0 146 5 501.5t5 495.5q0 64 66 91.5t132 6.5t66 -75q0 -28 1 -70.5t1 -73.5q91 207 330 207q92 0 159.5 -25t105.5 -69t63 -102.5t31 -125.5t9.5 -139t-1.5 -142q0 -22 -0.5 -34t-0.5 -30v-33zM1137 -592q22 -108 56.5 -204.5
t90.5 -189.5t126.5 -160t169 -107.5t212.5 -40.5q110 0 226.5 44t211 117.5t155 180t60.5 221.5q0 146 -72 266.5t-195 188t-269 67.5q-359 0 -772 -383z" />
    <glyph glyph-name="uniE017" unicode="&#xe017;" horiz-adv-x="909" 
d="M582 -815q-231 296 -371.5 688.5t-140.5 759.5q0 115 16 220t56.5 209t102 179.5t160.5 122.5t224 47q134 0 224.5 -90t90.5 -223q0 -34 -6 -64q-32 -37 -82 -37q-24 0 -35.5 22.5t-12.5 56.5t-5 74t-12 74t-35.5 56.5t-73.5 22.5q-60 0 -109 -27t-82.5 -71t-59 -105
t-39.5 -121.5t-23 -129t-12 -120.5t-3 -102q0 -330 96 -682t265 -629q71 69 124 118t131 116t142.5 113.5t148 96.5t159.5 80t164 50t173 20q174 0 318.5 -84.5t226.5 -229.5t82 -319q0 -129 -51 -240t-136.5 -189.5t-196 -134.5t-230 -83t-238.5 -27q-131 0 -259.5 39
t-240 109.5t-207.5 158t-182 193.5q-243 -239 -338 -325q-338 -305 -625 -418q-202 -80 -401 -80q-155 0 -298.5 35.5t-265.5 107t-213 172.5t-142.5 240t-51.5 301q0 239 110.5 429.5t303.5 296t432 105.5q71 0 139 -7.5t138 -24.5t131 -43t114.5 -66t91.5 -90t60 -118
t22 -148q0 -86 -31.5 -178t-85 -169.5t-135 -127.5t-171.5 -50q-50 0 -50 49q0 11 1.5 19t3 12.5t7.5 8t9 5t13.5 4.5t15.5 5q159 56 240 157t81 265q0 91 -38 162.5t-97 114t-140 70.5t-158.5 38t-160.5 10q-209 0 -378.5 -91.5t-267 -258.5t-97.5 -377q0 -144 46.5 -267.5
t127.5 -212.5t191 -152t237.5 -93.5t265.5 -30.5q81 0 163.5 15.5t156.5 40.5t152.5 66t144.5 82t141 99t132.5 107t128.5 115.5t120.5 115t115.5 114.5zM1536 -1294h84q111 0 227 44t210.5 117.5t155 180t60.5 221.5q0 146 -72 266.5t-195 188t-269 67.5
q-78 0 -159.5 -19.5t-152 -48.5t-149 -77.5t-138 -92t-134 -108t-122 -109t-114.5 -110.5q68 -108 145.5 -196.5t173.5 -164t211 -117.5t238 -42z" />
    <glyph glyph-name="uniE018" unicode="&#xe018;" horiz-adv-x="942" 
d="M688 1303q-58 0 -107.5 -32.5t-81.5 -80.5t-57.5 -113t-38.5 -118.5t-22 -108.5q55 4 112 17.5t114.5 39.5t102.5 61.5t73 87.5t28 113q0 58 -33 96t-90 38zM367 731q-30 -433 46.5 -744t307.5 -671q72 70 124 118.5t130.5 115.5t142.5 113t148 96.5t159.5 80.5t163.5 50
t174 20q174 0 318.5 -84.5t226.5 -229.5t82 -319q0 -129 -51 -240t-136.5 -189.5t-196 -134.5t-230 -83t-238.5 -27q-131 0 -259.5 39.5t-240.5 110t-208 157.5t-181 193q-243 -239 -338 -325q-338 -305 -625 -418q-202 -80 -401 -80q-155 0 -298.5 35.5t-265.5 107.5
t-213 173t-142.5 240t-51.5 300q0 239 110.5 429.5t303.5 296t432 105.5q101 0 195.5 -14.5t187.5 -50.5t161 -91t110.5 -142.5t42.5 -198.5q0 -86 -31.5 -178t-85.5 -169.5t-135.5 -127.5t-171.5 -50q-49 0 -49 49q0 11 1.5 19t3 12.5t7.5 8t8.5 5t13.5 4.5t15 5
q107 41 175 93t107 134t39 195q0 91 -38 162.5t-97 114t-140 70.5t-158.5 38t-160.5 10q-209 0 -378.5 -91.5t-267 -258.5t-97.5 -377q0 -144 46.5 -267.5t127.5 -212.5t191 -152t237.5 -93.5t265.5 -30.5q81 0 163.5 15.5t156.5 40.5t152.5 66t144.5 82t141 99t132.5 107
t128.5 115.5t120.5 115t115.5 114.5l48 48q-140 181 -229.5 323t-158.5 306.5t-99.5 344t-30.5 398.5q0 80 7.5 159t26.5 165t47.5 161t74 144t102.5 118t135.5 78t171.5 29q126 0 213.5 -65t87.5 -187q0 -81 -37 -151t-96 -117.5t-135 -83t-152 -54t-149 -22.5zM1542 -1294
h84q111 0 227 44t210.5 117.5t155 180t60.5 221.5q0 146 -72 266.5t-195 188t-269 67.5q-78 0 -159.5 -19.5t-152 -48.5t-149 -77.5t-138 -92t-134 -108t-122 -109t-114.5 -110.5q68 -108 145.5 -196.5t173.5 -164t211 -117.5t238 -42z" />
    <glyph glyph-name="uniE019" unicode="&#xe019;" horiz-adv-x="1132" 
d="M1550 -657q44 -69 79.5 -121.5t88 -120.5t99.5 -118t109 -102t122.5 -84.5t134 -53.5t148.5 -21q161 0 295 70t213 199.5t79 291.5q0 159 -78 276t-205 174.5t-284 57.5q-91 0 -185.5 -29t-168 -68t-164.5 -108t-145 -116.5t-138 -126.5zM662 745l833 -1314
q65 59 107 96.5t110.5 93.5t121 91.5t123.5 77t133.5 65t136 39.5t145.5 16q186 0 335 -74.5t236.5 -216.5t87.5 -328q0 -195 -95 -346.5t-254 -231t-353 -79.5q-116 0 -228 35t-202.5 91.5t-179.5 139.5t-156.5 165.5t-135.5 182.5q-84 -80 -145 -137t-157 -142
t-172 -146.5t-179 -138t-191 -130.5t-194 -109t-202 -89t-201.5 -55t-204.5 -21q-155 0 -298.5 35.5t-265.5 107.5t-213 173t-142.5 240t-51.5 300q0 239 110.5 429.5t303.5 296t432 105.5q71 0 139 -7.5t138 -24.5t131 -43t114.5 -66t91.5 -90t60 -118t22 -148
q0 -86 -31.5 -178t-85.5 -169.5t-135.5 -127.5t-171.5 -50q-49 0 -49 49q0 11 1.5 19t3 12.5t7.5 8t8.5 5t13.5 4.5t15 5q162 60 242 158.5t80 263.5q0 91 -38 162.5t-97 114t-140 70.5t-158.5 38t-160.5 10q-209 0 -378.5 -91.5t-267 -258.5t-97.5 -377q0 -144 46.5 -267.5
t127.5 -212.5t191 -152t237.5 -93.5t265.5 -30.5q93 0 193.5 21.5t193 55.5t195.5 89t189 109t186.5 129.5t175 136.5t167.5 144t151 137t138 130l-858 1203l-354 -510q-14 -19 -33 -23.5t-35 3t-30 20t-17.5 28.5t2.5 29l397 571l-434 617q-12 28 10 62.5t58 57.5t72.5 34
t54.5 -9l391 -553l350 512q29 30 61 28t51 -29.5t1 -53.5z" />
    <glyph glyph-name="uniE01A" unicode="&#xe01a;" horiz-adv-x="888" 
d="M432 -592q22 -108 56.5 -204.5t90.5 -189.5t126.5 -160t169 -107.5t212.5 -40.5q110 0 226.5 44t211.5 117.5t155.5 180t60.5 221.5q0 146 -72.5 266.5t-195.5 188t-269 67.5q-359 0 -772 -383zM358 569q0 -238 1.5 -360.5t13.5 -322t37 -359.5q430 383 815 383
q174 0 318 -84.5t226 -229.5t82 -319q0 -119 -46.5 -226.5t-126 -187t-181.5 -138t-215.5 -88.5t-226.5 -30q-290 0 -497.5 172t-301.5 459q-35 -35 -108 -109q-110 -112 -170 -171t-174 -164t-192 -164t-194.5 -135.5t-215 -116.5t-218.5 -69t-237 -29q-156 0 -299.5 35.5
t-265.5 107t-212.5 172.5t-142 240t-51.5 301q0 239 110.5 429.5t303.5 296t432 105.5q71 0 139 -7.5t138 -24.5t131 -43t114.5 -66t91.5 -90t60 -118t22 -148q0 -86 -31.5 -178t-85.5 -169.5t-135.5 -127.5t-171.5 -50q-49 0 -49 49q0 16 1.5 25t10.5 15t13.5 7.5t23.5 6.5
q155 48 238.5 154.5t83.5 267.5q0 91 -38 162.5t-97 114t-140 70.5t-158.5 38t-160.5 10q-157 0 -294 -54t-236.5 -148.5t-156.5 -230.5t-57 -294q0 -144 46.5 -267.5t128 -212.5t191 -152t237.5 -93.5t266 -30.5q87 0 175.5 17.5t167.5 46t164 74.5t155.5 92t152 111.5
t143.5 120.5t140 130t131 128.5t127.5 129t119.5 119.5q-26 99 -46 208.5t-32.5 202.5t-19.5 216.5t-10 206t-2.5 218.5t2 206.5t5.5 218t5 206.5q2 86 24.5 158.5t67 128.5t116.5 87.5t165 31.5q165 0 252.5 -96.5t87.5 -264.5q0 -64 -31 -94.5t-96 -30.5q-26 0 -40 3
t-18.5 13t-4.5 18.5t2.5 29.5t2.5 37q0 35 -4 71t-15.5 80t-37 71.5t-61.5 27.5q-40 0 -70.5 -15.5t-48.5 -43.5t-29.5 -60t-16 -71.5t-6.5 -70.5t-2 -65v-16q-4 -168 -4 -291q27 1 106.5 4.5t112 3.5t93.5 -4q15 -2 21.5 -26.5t0.5 -49t-22 -27.5q-29 -4 -312 -4z" />
    <glyph glyph-name="uniE01B" unicode="&#xe01b;" horiz-adv-x="1310" 
d="M389 537q0 -42 19 -110t50.5 -137t79 -119t97.5 -50q76 0 138 48.5t100 122t64 164t36 169t10 143.5q0 57 -7 115.5t-21.5 121.5t-41.5 117.5t-63.5 98.5t-91 69t-119.5 25q-98 0 -166.5 -88t-81.5 -193q-2 -17 -2 -38.5t1 -47.5t1 -39q0 -63 -1 -186t-1 -186zM360 199
q-4 -504 -96 -848q45 -44 119.5 -119.5t127.5 -129t131 -129t140 -130t144 -120t152 -111.5t155.5 -92.5t164.5 -74.5t167.5 -45.5t175.5 -17.5q138 0 265.5 30.5t237.5 93.5t191 152t127.5 212.5t46.5 267.5q0 210 -97.5 377t-267 258.5t-378.5 91.5q-83 0 -160.5 -10
t-158.5 -38t-140 -70.5t-97 -114t-38 -162.5q0 -161 83 -267.5t238 -154.5q34 -10 41 -18q8 -11 8 -36q0 -49 -49 -49q-90 0 -171.5 50t-135.5 127.5t-85.5 169.5t-31.5 178q0 111 42.5 198.5t110.5 142.5t161 91t187.5 50.5t195.5 14.5q239 0 432 -105.5t303.5 -296
t110.5 -429.5q0 -162 -51.5 -301t-142 -240t-212.5 -172.5t-265.5 -107t-299.5 -35.5q-117 0 -237.5 29t-219 69.5t-215 117t-195 135.5t-192.5 164t-174 164.5t-171 171.5q-24 24 -37 37.5t-33 33.5l-36 36q-94 -287 -301 -459t-497 -172q-113 0 -227 30t-216 88.5
t-181.5 138t-126 187t-46.5 226.5q0 174 82 319t226.5 229.5t318.5 84.5q385 0 815 -383q19 122 28 276t10 239t1 277q6 568 6 998q0 30 28 51t60 28t61 7q68 0 93.5 -25.5t25.5 -89.5q94 121 271 121q140 0 251 -55t179.5 -148.5t104.5 -212.5t36 -254q0 -76 -14 -158
t-40.5 -166t-70.5 -158.5t-99.5 -132.5t-131.5 -92t-162 -34q-104 0 -201 54.5t-154 146.5zM55 -592q-413 383 -772 383q-146 0 -269 -67.5t-195 -188t-72 -266.5q0 -115 60.5 -221.5t155 -180t211 -117.5t226.5 -44q114 0 212.5 40.5t169 107.5t126.5 160t90.5 189.5
t56.5 204.5z" />
    <glyph glyph-name="uniE01C" unicode="&#xe01c;" horiz-adv-x="1062" 
d="M641 -592q-413 383 -772 383q-146 0 -269 -67.5t-195.5 -188t-72.5 -266.5q0 -115 60.5 -221.5t155.5 -180t211.5 -117.5t226.5 -44q114 0 212.5 40.5t169 107.5t126.5 160t90.5 189.5t56.5 204.5zM717 524q-126 -116 -301 -116q-75 0 -134.5 38t-96 100t-61.5 145
t-35 170t-12 178t3 165.5t14 136.5q5 41 48.5 59.5t97.5 18.5q36 0 75 -13t39 -42q-6 -44 -11.5 -101t-10 -142.5t-4 -166.5t9.5 -165t27.5 -146t54 -101.5t84.5 -39.5q126 0 213 164v659q10 38 44 55t58 17q42 0 81 -14.5t40 -45.5q6 -244 6 -733q0 -29 0.5 -175.5t0 -191
t-3 -168.5t-9 -189t-17 -167.5t-27.5 -188.5t-40 -173q45 -44 119.5 -119.5t127.5 -129t131 -129t140 -130t144 -120t152 -111.5t155.5 -92.5t164.5 -74.5t167.5 -45.5t175.5 -17.5q138 0 265.5 30.5t237.5 93.5t191 152t127.5 212.5t46.5 267.5q0 158 -57 294t-156.5 230.5
t-236.5 148.5t-294 54q-58 0 -113.5 -5t-115.5 -18t-112 -32.5t-99 -51t-80.5 -71.5t-53 -95.5t-19.5 -121.5q0 -161 83 -267.5t238 -154.5q34 -10 41 -18q8 -11 8 -36q0 -49 -49 -49q-90 0 -171.5 50t-135.5 127.5t-85.5 169.5t-31.5 178q0 80 22 148t60 118t91.5 90
t114.5 66t131 43t138 24.5t139 7.5q239 0 432 -105.5t303.5 -296t110.5 -429.5q0 -135 -36 -255t-101 -213t-154.5 -167t-197.5 -122t-230 -73.5t-251 -25.5q-117 0 -237.5 29t-219 69.5t-215 117t-195 135.5t-192.5 164t-174 164.5t-171 171.5q-24 24 -37 37.5t-33 33.5
l-36 36q-94 -287 -301.5 -459t-497.5 -172q-113 0 -226.5 30t-215.5 88.5t-181.5 138t-126 187t-46.5 226.5q0 174 82 319t226 229.5t318 84.5q386 0 816 -383q24 155 36.5 339.5t14.5 315.5t2 342z" />
    <glyph glyph-name="uniE01D" unicode="&#xe01d;" horiz-adv-x="497" 
d="M266 1575q62 0 105 40.5t43 98.5q0 57 -43 97t-105 40q-60 0 -102.5 -40t-42.5 -97q0 -58 42.5 -98.5t102.5 -40.5zM289 -649q45 -44 119.5 -119.5t127.5 -129t131 -128.5t140 -130t143.5 -120.5t152 -111.5t155.5 -92t164 -74.5t167.5 -46t175.5 -17.5q138 0 266 30.5
t237.5 93.5t191 152t128 212.5t46.5 267.5q0 158 -57 294t-156.5 230.5t-236.5 148.5t-294 54q-83 0 -160.5 -10t-158.5 -38t-140 -70.5t-97 -114t-38 -162.5q0 -161 83.5 -267.5t238.5 -154.5q34 -10 41 -18q8 -11 8 -36q0 -49 -49 -49q-90 0 -171.5 50t-135.5 127.5
t-85.5 169.5t-31.5 178q0 80 22 148t60 118t91.5 90t114.5 66t131 43t138 24.5t139 7.5q239 0 432 -105.5t303.5 -296t110.5 -429.5q0 -162 -51.5 -301t-142 -240t-212.5 -172.5t-265.5 -107t-299.5 -35.5q-117 0 -237 29t-218.5 69t-215 117t-194.5 135t-192.5 164
t-173 164t-170.5 171q-73 74 -108 109q-94 -287 -301.5 -459t-497.5 -172q-113 0 -226.5 30t-215.5 88.5t-181.5 138t-126 187t-46.5 226.5q0 174 82 319t226 229.5t318 84.5q385 0 815 -383q52 332 52 792l-2 343v663q10 38 44 55t58 17q42 0 81 -14.5t40 -45.5
q6 -244 6 -733q0 -40 1 -205t0 -222t-5.5 -196t-14 -220.5t-28 -195.5t-45.5 -214zM80 -592q-413 383 -772 383q-146 0 -269 -67.5t-195.5 -188t-72.5 -266.5q0 -115 60.5 -221.5t155.5 -180t211.5 -117.5t226.5 -44q114 0 212.5 40.5t169 107.5t126.5 160t90.5 189.5
t56.5 204.5z" />
    <glyph glyph-name="uniE01E" unicode="&#xe01e;" horiz-adv-x="1040" 
d="M694 840v440q0 50 -41 87.5t-92 37.5q-205 0 -205 -514q0 -289 88 -289q74 0 132 50t94 126q24 48 24 62zM823 -649q45 -44 119.5 -119.5t127.5 -129t131 -129t140 -130t144 -120t152 -111.5t155.5 -92.5t164.5 -74.5t167.5 -45.5t175.5 -17.5q138 0 265.5 30.5
t237.5 93.5t191 152t127.5 212.5t46.5 267.5q0 210 -97.5 377t-267 258.5t-378.5 91.5q-83 0 -160.5 -10t-158.5 -38t-140 -70.5t-97 -114t-38 -162.5q0 -161 83 -267.5t238 -154.5q35 -10 41 -18q9 -12 9 -36q0 -49 -50 -49q-90 0 -171.5 50t-135 127.5t-85 169.5
t-31.5 178q0 80 22 148t60 118t91.5 90t114.5 66t131 43t138 24.5t139 7.5q239 0 432 -105.5t303.5 -296t110.5 -429.5q0 -162 -51.5 -301t-142 -240t-212.5 -172.5t-265.5 -107t-299.5 -35.5q-117 0 -237 29t-218.5 69t-215 117t-194.5 135t-192.5 164t-173 164t-170.5 171
q-73 74 -108 109q-94 -287 -301.5 -459t-497.5 -172q-113 0 -227 30t-216 88.5t-181.5 138t-126 187t-46.5 226.5q0 174 82 319t226.5 229.5t318.5 84.5q385 0 815 -383q51 326 51 792l6 343q-51 -68 -121 -111t-147 -43q-71 0 -129.5 25.5t-98 68.5t-66.5 100.5
t-39.5 119.5t-12.5 128q0 104 28.5 199t82 172.5t140.5 123.5t195 46q68 0 130 -25.5t85 -79.5q25 11 56 11q40 0 74.5 -14t41.5 -46q7 -35 9 -73.5t0 -96.5t-2 -75q1 -77 4.5 -279.5t4.5 -307t-2.5 -288.5t-14 -309t-33 -277.5t-56.5 -279.5zM614 -592q-413 383 -772 383
q-146 0 -269 -67.5t-195 -188t-72 -266.5q0 -115 60.5 -221.5t155 -180t211 -117.5t226.5 -44q114 0 212.5 40.5t169 107.5t126.5 160t90.5 189.5t56.5 204.5z" />
    <glyph glyph-name="uniE01F" unicode="&#xe01f;" horiz-adv-x="1269" 
d="M627 156q62 0 113.5 52t83 129t53 169t30 166t8.5 127q0 42 -4 91t-17.5 114t-34.5 116.5t-59 87t-87 35.5q-69 0 -124.5 -53t-87 -129t-52.5 -171t-28 -168.5t-7 -131.5v-84q0 -48 2 -81t8 -78t20.5 -75.5t37 -59t59.5 -42.5t86 -14zM72 2230q-67 331 -240.5 517
t-415.5 186q-110 0 -226.5 -44t-211 -117.5t-155 -180t-60.5 -221.5q0 -146 72.5 -267t195.5 -188.5t269 -67.5q359 0 772 383zM373 1149q67 108 171 178t222 70q94 0 169.5 -38.5t123.5 -100.5t80.5 -144.5t45.5 -165.5t13 -168q0 -103 -19.5 -208.5t-64 -209
t-107.5 -183.5t-158.5 -129.5t-209.5 -49.5q-116 0 -217 63l-2 -57q-28 -35 -135 -35q-142 0 -142 97q0 155 5 500.5t5.5 558t-13.5 494.5t-46 490q-429 -382 -815 -382q-130 0 -246.5 49.5t-200 134t-132 201.5t-48.5 247q0 119 46.5 226.5t126 187t181.5 138t216 88.5
t227 30q280 0 490.5 -166.5t308.5 -464.5q65 59 161 150.5t168.5 162t171.5 158.5t182.5 153t188 131.5t201.5 108.5t210.5 68.5t225.5 26.5q156 0 299.5 -35.5t265.5 -107t212.5 -172.5t142 -240t51.5 -301q0 -240 -110.5 -430.5t-303.5 -296t-432 -105.5q-101 0 -195 14.5
t-187 51t-161.5 91.5t-110.5 142.5t-42 198.5q0 86 31.5 178t85.5 169t135 127t172 50q49 0 49 -49q0 -6 -0.5 -11.5t-1 -9.5t-2.5 -7.5t-3 -6t-4.5 -4.5t-5 -3t-7 -3t-7 -2.5t-8.5 -2.5t-10 -3q-155 -48 -238.5 -154.5t-83.5 -267.5q0 -91 38 -162.5t97 -114t140 -70.5
t158.5 -38t160.5 -10q157 0 294 54t236.5 148.5t156.5 230.5t57 294q0 144 -46.5 267.5t-128 212t-191 151.5t-237.5 93.5t-266 30.5q-142 0 -288 -48.5t-264.5 -120t-255 -182t-232.5 -203.5t-226.5 -218.5t-209.5 -195.5q28 -106 47 -208.5t29 -177.5t14 -184t4 -168.5
t-1 -195t-1 -205.5z" />
    <glyph glyph-name="uniE020" unicode="&#xe020;" 
d="M883 997q0 48 -2 79.5t-12 71t-28.5 62.5t-52.5 39.5t-83 16.5q-80 0 -143.5 -48t-101.5 -119.5t-63.5 -163t-35 -170.5t-9.5 -149q0 -45 4 -95.5t17.5 -115.5t34.5 -116t59.5 -86t87.5 -35q67 0 122 46.5t89 124.5t58.5 167t36.5 187.5t17 171t5 132.5zM926 1298
q5 293 21 472t69 415q-51 48 -132 131t-149 154t-161 159.5t-176 159t-186 141t-200 118t-208 77t-218 29.5q-415 0 -680 -211q-198 -158 -263 -394q-62 -226 21 -437q84 -214 290 -331q194 -110 460 -110q275 0 434.5 106t159.5 289q0 158 -79 261.5t-242 160.5q-4 2 -15 5
t-13.5 4.5t-8.5 5t-7.5 8t-3 12.5t-1.5 19q0 26 12.5 39.5t36.5 9.5q190 -35 307 -181.5t117 -343.5q0 -229 -188 -363t-509 -134q-393 0 -637 210q-192 164 -245 415q-53 248 48 488q106 250 346 402q273 172 660 172q112 0 227 -28.5t213 -73t204 -114.5t188.5 -136
t179.5 -156t162.5 -157.5t152.5 -156t136 -136.5q98 298 309 464.5t489 166.5q127 0 247.5 -34.5t219 -97.5t173.5 -145.5t116 -184t41 -208.5q0 -174 -82.5 -319.5t-227 -229.5t-317.5 -84q-385 0 -815 383q-43 -274 -43 -711q0 -203 13.5 -608t13.5 -608q0 -62 -28 -86.5
t-93 -24.5q-72 0 -96.5 29t-24.5 100q0 30 -1 93t-1 94q0 187 -2 225q-15 -62 -41 -127.5t-66.5 -132.5t-88.5 -119.5t-111.5 -85.5t-130.5 -33q-94 0 -170 37.5t-125.5 98.5t-83 141.5t-48 163.5t-14.5 168q0 86 15 175t44 178t77 166.5t109 138t144.5 95.5t178.5 35
q78 0 167 -30t130 -83zM1225 2128q413 -383 772 -383q148 0 271.5 69t194 189t70.5 264q0 141 -93 272t-244.5 211t-315.5 80q-239 0 -414 -187.5t-241 -514.5z" />
    <glyph glyph-name="uniE021" unicode="&#xe021;" horiz-adv-x="1208" 
d="M72 2128q-67 331 -240.5 516.5t-415.5 185.5q-110 0 -226.5 -44t-211 -117.5t-155 -180t-60.5 -221.5q0 -146 72.5 -266.5t195.5 -188t269 -67.5q359 0 772 383zM373 1149q47 107 140.5 167t209.5 60q62 0 113 -12.5t88 -31.5t65 -52t46 -64.5t30 -79t17.5 -85t7.5 -94
t1.5 -94t-1 -96.5t-0.5 -91q0 -86 2 -258t2 -258t-32 -129t-118 -43q-61 0 -84.5 26t-23.5 88q0 60 3 182t3 183q0 409 -10 526q-16 198 -78 253q-32 28 -82 28q-277 0 -277 -645q0 -90 -4 -269.5t-4 -269.5q0 -49 -41.5 -73.5t-93.5 -24.5q-75 0 -119 55q-16 69 -16 246
q0 441 6 887q0 80 1 224t0 217t-8 181t-22 207q-430 -383 -815 -383q-174 0 -318.5 84.5t-226.5 229.5t-82 319q0 119 46.5 226.5t126 187t181.5 138t216 88.5t227 30q280 0 490.5 -166.5t308.5 -464.5q65 59 161 150.5t168.5 162t171.5 158t182.5 153t188 131.5t201.5 108
t210.5 68.5t225.5 26.5q156 0 299.5 -35.5t265.5 -107t212.5 -172.5t142 -240t51.5 -301q0 -239 -110.5 -429.5t-303.5 -296t-432 -105.5q-71 0 -139 7.5t-138 24.5t-131 43t-114.5 66t-91.5 90t-60 118t-22 148q0 86 31.5 178t85.5 169.5t135.5 127.5t171.5 50q49 0 49 -49
q0 -16 -1.5 -25t-10.5 -15t-13.5 -7.5t-23.5 -6.5q-155 -48 -238.5 -154.5t-83.5 -267.5q0 -91 38 -162.5t97 -114t140 -70.5t158.5 -38t160.5 -10q157 0 294 54t236.5 148.5t156.5 230.5t57 294q0 144 -46.5 267.5t-128 212.5t-191 152t-237.5 93.5t-266 30.5
q-142 0 -288 -48.5t-264.5 -120t-255 -182.5t-232.5 -204t-226 -218.5t-210 -195.5q29 -107 47.5 -201t28.5 -158.5t14 -158.5t4.5 -144.5t-1 -176t-1.5 -197.5z" />
    <glyph glyph-name="uniE022" unicode="&#xe022;" horiz-adv-x="927" 
d="M41 2120q-67 331 -240 516.5t-415 185.5q-110 0 -226.5 -44t-211.5 -117.5t-155.5 -180t-60.5 -221.5q0 -146 72.5 -266.5t195.5 -188t269 -67.5q359 0 772 383zM360 1141q0 -24 -2.5 -106.5t-4 -163t-1 -186t9 -193t23 -165t42.5 -121.5t67 -44q61 0 111.5 38t82.5 96
t54 129t30.5 135.5t7.5 117.5q0 19 11 32.5t27.5 17.5t33.5 1t31 -16.5t18 -34.5q2 -128 -23.5 -239.5t-68 -187.5t-96 -131t-107.5 -79.5t-102 -22.5q-73 0 -133 31t-100 85t-71 126.5t-47.5 156t-28.5 172.5t-14 176t-4.5 168t0.5 147v89q-2 406 -12 551q-10 143 -31 281
q-430 -383 -815 -383q-174 0 -318 84.5t-226 229.5t-82 319q0 119 46.5 226.5t126 186.5t181.5 138t215.5 88.5t226.5 29.5q280 0 490.5 -166t308.5 -464q65 59 161 150.5t168.5 162t171.5 158t182.5 153t188 131.5t201.5 108t210.5 68.5t225.5 26.5q156 0 299.5 -35.5
t265.5 -107t212.5 -172.5t142 -240t51.5 -301q0 -239 -110.5 -429.5t-303.5 -296t-432 -105.5q-71 0 -139 7.5t-138 24.5t-131 43t-114.5 66t-91.5 90t-60 118t-22 148q0 86 31.5 178t85.5 169.5t135.5 127.5t171.5 50q49 0 49 -50q0 -6 -0.5 -11.5t-1 -9.5t-2.5 -7.5t-3 -6
t-4.5 -4.5t-5 -3t-7 -3t-7 -2.5t-8.5 -2.5t-10 -3q-155 -48 -238.5 -154.5t-83.5 -267.5q0 -91 38 -162.5t97 -114t140 -70.5t158.5 -38t160.5 -10q157 0 294 54t236.5 148.5t156.5 230.5t57 294q0 144 -46.5 267.5t-128 212.5t-191 152t-237.5 93.5t-266 30.5
q-142 0 -288 -48.5t-264.5 -120t-255 -182.5t-232.5 -204t-226 -218.5t-210 -195.5q33 -116 54 -220t32.5 -180.5t16.5 -195.5t6 -193.5t1 -246.5z" />
    <glyph glyph-name="uniE023" unicode="&#xe023;" 
d="M883 997q0 48 -2 79.5t-12 71t-28.5 62.5t-52.5 39.5t-83 16.5q-80 0 -143.5 -48t-101.5 -119.5t-63.5 -163t-35 -170.5t-9.5 -149q0 -45 4 -95.5t17.5 -115.5t34.5 -116t59.5 -86t87.5 -35q67 0 122 46.5t89 124.5t58.5 167t36.5 187.5t17 171t5 132.5zM1190 1243
q0 -75 -3 -224.5t-3 -225.5q0 -138 3.5 -243.5t20 -263.5t45 -275.5t84 -247t132 -212.5t194 -137.5t264.5 -54.5q199 0 382.5 53t332 148t275.5 226t220.5 288t159 332.5t98.5 361t33 371.5q0 123 -16 242.5t-50.5 236t-85.5 219t-125.5 189.5t-165.5 149.5t-209.5 97.5
t-254.5 35q-143 0 -264 -41.5t-215.5 -133.5t-138.5 -226q-10 -28 -16 -60.5t-8.5 -52.5t-5.5 -61.5t-5 -57.5q-6 -45 -49 -45q-21 0 -37.5 12.5t-16.5 32.5q0 337 209 536t547 199q149 0 280 -37.5t232.5 -104.5t184.5 -160.5t140.5 -204t96.5 -237t57.5 -257.5t18.5 -268
q0 -174 -27.5 -347.5t-80.5 -338.5t-133 -318t-181 -286t-230 -242.5t-274.5 -187.5t-318.5 -121t-359 -43q-152 0 -282 37.5t-227 103t-175.5 159.5t-131 201.5t-90 235t-56.5 254t-25 264.5q-15 -62 -41 -127.5t-66.5 -132.5t-88.5 -119.5t-111.5 -85.5t-130.5 -33
q-94 0 -170.5 37.5t-126 98.5t-83 141.5t-47.5 163.5t-14 168q0 86 15 175t44 178t77 166.5t109 138t144.5 95.5t178.5 35q74 0 145 -29t113 -84q-3 36 10 60.5t38.5 36t51 16t57.5 4.5q51 0 80.5 -9t44 -33.5t18 -51.5t3.5 -78z" />
    <glyph glyph-name="uniE024" unicode="&#xe024;" horiz-adv-x="1269" 
d="M420 6q-46 -35 -135 -35q-36 0 -65 7t-53 30t-24 60q0 122 -11 346t-13 295q-13 479 -13 1325q0 31 27.5 51.5t57.5 26.5t59 6q125 0 125 -117q0 -143 -1 -426t-1 -426q67 108 171 178t222 70q94 0 169.5 -39t123.5 -101t80.5 -144.5t45.5 -165t13 -167.5
q0 -145 -37.5 -286t-111.5 -256q60 -56 129.5 -134t123.5 -145t124.5 -143t136.5 -137.5t156.5 -119.5t187.5 -97.5t225.5 -63t275.5 -23.5q377 0 659 298q243 257 363 674q118 412 79 835q-41 439 -242 732q-223 326 -593 383q-74 11 -153 11q-139 0 -261.5 -42
t-219.5 -134.5t-137 -224.5q-9 -29 -15.5 -106t-20.5 -124t-48 -47q-21 0 -37.5 12.5t-16.5 32.5q0 223 96.5 390.5t267.5 256t392 88.5q458 0 747 -326q241 -273 320 -717q76 -426 -18 -874q-95 -450 -329 -764q-255 -342 -612 -428q-110 -26 -227 -26q-153 0 -286.5 23.5
t-234.5 62.5t-195 98t-162.5 120.5t-142 140t-129 146.5t-128.5 151t-135 143q-68 -77 -158.5 -118.5t-191.5 -41.5q-70 30 -113 88t-43 131q0 59 39.5 99.5t91.5 56.5t109 16q54 0 100 -14q40 94 66 210.5t26 211.5q0 43 -4.5 93.5t-18 115t-34.5 115t-59 85.5t-86 35
q-54 0 -99 -30.5t-75 -79.5t-53.5 -116.5t-36.5 -133.5t-21.5 -138.5t-11 -125.5t-2.5 -99q0 -76 1 -161.5t2.5 -190t2.5 -162.5zM600 160q96 0 176 125q-32 4 -47 4q-29 0 -58 -4.5t-57 -22t-28 -45.5q0 -25 14 -57z" />
    <glyph glyph-name="uniE025" unicode="&#xe025;" horiz-adv-x="1077" 
d="M688 1303q-58 0 -107.5 -37.5t-84 -98t-62 -140t-44 -160.5t-27.5 -163.5t-15 -144t-4 -106.5q0 -103 9.5 -204.5t33.5 -211.5t61 -206.5t95.5 -184.5t132 -150.5t176 -99.5t223.5 -37q232 0 441 62t374.5 174t299.5 268t222.5 343t135.5 400t47 438q0 144 -23 288.5
t-69 288t-122.5 266.5t-175.5 217.5t-237 149t-299 54.5q-105 0 -200.5 -24.5t-178.5 -72t-145.5 -125.5t-93.5 -179q-11 -36 -17 -74t-10 -84.5t-8 -73.5q-6 -45 -49 -45q-21 0 -37.5 12.5t-16.5 32.5q0 223 96 390.5t267 256t393 88.5q152 0 285.5 -42.5t236.5 -117.5
t187.5 -179t143 -224t98.5 -255t58.5 -271t18.5 -272q0 -240 -50.5 -468t-145 -428.5t-237.5 -367.5t-319.5 -286t-399.5 -183t-470 -59q-146 3 -275.5 43t-230.5 109t-185 163.5t-143 205t-99.5 235.5t-59.5 253.5t-19 259.5q0 92 12.5 187t38.5 196.5t72 190t106.5 159
t149 111.5t193.5 41q134 0 224.5 -90t90.5 -223q0 -34 -6 -64q-32 -37 -82 -37q-24 0 -35.5 22.5t-12.5 56.5t-5 74t-12 74t-35.5 56.5t-73.5 22.5z" />
    <glyph glyph-name="uniE026" unicode="&#xe026;" 
d="M883 997q0 48 -2 79.5t-12 71t-28.5 62.5t-52.5 39.5t-83 16.5q-80 0 -143.5 -48t-101.5 -120t-63.5 -163.5t-35 -170t-9.5 -148.5q0 -44 4 -94t17.5 -115.5t34.5 -116.5t59.5 -86.5t87.5 -35.5q67 0 122 46.5t89 124.5t58.5 167t36.5 187.5t17 171t5 132.5zM940 512
q-15 -62 -41 -127.5t-66.5 -132.5t-88.5 -119.5t-111.5 -85.5t-130.5 -33q-94 0 -170.5 37.5t-126 98.5t-83 141.5t-47.5 163.5t-14 168q0 86 15 175t44 178t77 166.5t109 138t144.5 95.5t178.5 35q77 0 168.5 -31t128.5 -82q-2 246 -2 736q0 23 15 40.5t38.5 26.5t46 13
t43.5 4q81 0 125 -41v-76q0 -410 -8 -1208q0 -138 3.5 -243.5t20 -263.5t45 -275.5t84 -247t132 -212.5t194 -137.5t264.5 -54.5q199 0 382.5 53t332 148t275.5 226t220.5 288t159 332.5t98.5 361t33 371.5q0 123 -16 242.5t-50.5 236t-85.5 219t-125.5 189.5t-165.5 149.5
t-209.5 97.5t-254.5 35q-143 0 -264 -41.5t-215.5 -133.5t-138.5 -226q-10 -28 -16 -60.5t-8.5 -52.5t-5.5 -61.5t-5 -57.5q-6 -45 -49 -45q-21 0 -37.5 12.5t-16.5 32.5q0 337 209 536t547 199q149 0 280 -37.5t232.5 -104.5t184.5 -160.5t140.5 -204t96.5 -237
t57.5 -257.5t18.5 -268q0 -174 -27.5 -347.5t-80.5 -338.5t-133 -318t-181 -286t-230 -242.5t-274.5 -187.5t-318.5 -121t-359 -43q-152 0 -282 37.5t-227 103t-175.5 159.5t-131 201.5t-90 235t-56.5 254t-25 264.5z" />
    <glyph glyph-name="uniE027" unicode="&#xe027;" horiz-adv-x="1077" 
d="M688 1303q-81 0 -145.5 -64t-103.5 -163.5t-58 -225.5q235 16 354 146q79 85 75 181q-3 79 -61 111q-27 15 -61 15zM635 1411q173 0 253 -106q69 -91 39 -215q-33 -136 -168 -233q-155 -111 -392 -126q-13 -97 -14 -205t9.5 -223.5t37 -229t66 -219t99 -195.5t133 -157
t172 -105t211.5 -38q235 0 445 62t375.5 174t298.5 268t220.5 343t134 399.5t46.5 438.5q0 144 -23 288.5t-69 288t-122.5 266.5t-175.5 217.5t-237 149t-299 54.5q-105 0 -200.5 -24.5t-178.5 -72t-145.5 -125.5t-93.5 -179q-11 -36 -17 -74t-10 -84.5t-8 -73.5
q-6 -45 -49 -45q-20 0 -36.5 12.5t-16.5 32.5q0 223 95.5 390.5t266.5 256t393 88.5q152 0 285.5 -42.5t236.5 -117.5t187.5 -179t143 -224t98.5 -255t58.5 -271t18.5 -272q0 -288 -70 -555t-208.5 -491.5t-331.5 -391t-453.5 -260.5t-558.5 -94q-391 0 -660 287
q-217 232 -308 594q-84 335 -32 653q52 311 215 477q141 143 339 143z" />
    <glyph glyph-name="uniE028" unicode="&#xe028;" horiz-adv-x="888" 
d="M358 -438q0 -62 -28 -86.5t-92 -24.5q-20 0 -36 2.5t-28 6t-21.5 11.5t-15.5 13.5t-10 18.5t-6 20t-3 24.5t-1 25.5v28.5v29.5q0 1017 8 1403q2 86 24.5 158.5t67 128.5t116.5 87.5t165 31.5q165 0 252.5 -96.5t87.5 -264.5q0 -64 -31 -94.5t-96 -30.5q-26 0 -40 3
t-18.5 13t-4.5 18.5t2.5 29.5t2.5 37q0 35 -4 71t-15.5 80t-37 71.5t-61.5 27.5q-40 0 -70.5 -15.5t-48.5 -43.5t-29.5 -60t-16 -71.5t-6.5 -70.5t-2 -65v-16q-4 -168 -4 -291q27 1 106.5 4.5t112 3.5t93.5 -4q24 -2 24 -53q0 -45 -24 -50q-29 -4 -312 -4v-47
q6 -100 30 -209.5t67 -222.5t100.5 -219t135 -199.5t166 -163t197 -109.5t224.5 -40q232 0 441 62t374.5 174t299.5 268t222.5 343t135.5 400t47 438q0 144 -23 288.5t-69 288t-122.5 266.5t-175.5 217.5t-237 149t-299 54.5q-141 0 -263 -41.5t-218 -134t-138 -225.5
q-11 -35 -16.5 -73.5t-9.5 -85t-8 -73.5q-6 -45 -50 -45q-20 0 -36.5 12.5t-16.5 32.5q0 223 96 390.5t267 256t393 88.5q152 0 285.5 -42.5t236.5 -117.5t187.5 -179t143 -224t98.5 -255t58.5 -271t18.5 -272q0 -240 -50.5 -468t-145 -428.5t-237.5 -367.5t-319.5 -286
t-399.5 -183t-470 -59q-171 4 -320 61t-262 156t-197 224t-141 275v-411z" />
    <glyph glyph-name="uniE029" unicode="&#xe029;" horiz-adv-x="1040" 
d="M1669 2410q157 0 296.5 -46.5t247 -128.5t193.5 -193.5t141.5 -243t85 -275t29.5 -290.5q0 -227 -50.5 -417t-141 -327t-217.5 -245t-280 -171.5t-328 -105.5t-361.5 -47.5t-380.5 2.5q-10 -104 -25.5 -197t-44 -200t-66 -195.5t-95.5 -172t-128.5 -141t-168.5 -92
t-213 -34.5q-88 0 -164 41.5t-126.5 108.5t-87 151.5t-53 170t-16.5 165.5q0 111 29 207.5t85.5 171t147 117.5t205.5 43q182 0 502 -27q12 203 12 403q0 37 -1 110t-1 110q-51 -68 -121 -111t-147 -43q-71 0 -129.5 25.5t-98 68.5t-66.5 100.5t-39.5 119.5t-12.5 128
q0 103 28.5 198t82 172.5t140.5 124t195 46.5q69 0 129 -25t86 -80q25 11 56 11q49 0 70.5 -10.5t45.5 -49.5q11 -17 11 -675q0 -444 -13 -642q127 -10 251.5 -6.5t244.5 13t233 36.5t216.5 63t195.5 92.5t170 125.5t140 161.5t105.5 200.5t67 242.5t23.5 288.5
q0 160 -35.5 314t-109.5 291t-178 241t-250 164.5t-316 60.5q-139 0 -261.5 -42t-220.5 -134.5t-136 -224.5q-7 -23 -13.5 -100t-21.5 -127t-49 -50q-21 0 -37.5 12.5t-16.5 32.5q0 222 96.5 389.5t267.5 256.5t392 89zM694 840v440q0 50 -41 87.5t-92 37.5
q-205 0 -205 -526q0 -277 88 -277q74 0 131.5 50.5t94.5 125.5q24 56 24 62zM676 -63q-355 26 -494 26q-92 0 -163 -34.5t-114 -95t-65 -136.5t-22 -164q0 -79 20.5 -168.5t59.5 -175t108.5 -141.5t155.5 -56q83 0 153.5 37.5t119.5 96.5t89.5 144.5t65 168t43.5 181.5
t28 169.5t15 147.5z" />
    <glyph glyph-name="uniE02A" unicode="&#xe02a;" horiz-adv-x="1208" 
d="M1821 -641q232 0 441 62t374.5 174t299 268t222 343t135.5 400t47 438q0 144 -23 288.5t-69 288t-122 266.5t-175.5 217.5t-237 149t-298.5 54.5q-141 0 -263 -41.5t-218 -134t-138 -225.5q-11 -36 -17 -74t-10 -84.5t-8 -73.5q-6 -45 -49 -45q-20 0 -36.5 12.5
t-16.5 32.5q0 223 96 390.5t267 256t393 88.5q152 0 285.5 -42.5t236.5 -117.5t187.5 -179t143 -224t98.5 -255t58.5 -271t18.5 -272q0 -240 -50.5 -468t-145 -428.5t-237.5 -367.5t-319.5 -286t-399.5 -183t-470 -59q-146 3 -273.5 43t-226 109t-178.5 163.5t-135.5 205
t-93 235.5t-55 253t-17.5 260q0 393 -9 499q-15 170 -70 219q-34 30 -91 30q-277 0 -277 -645q0 -90 -4 -269.5t-4 -269.5q0 -49 -41.5 -73.5t-93.5 -24.5q-75 0 -119 55q-16 69 -16 246q0 290 5 870.5t5 870.5q0 29 27.5 50.5t67 29t79 5t67 -23t27.5 -53.5q0 -146 -1 -437
t-1 -436q91 207 330 207q62 0 113 -12.5t88 -31.5t65 -52t46 -64.5t30 -79t17.5 -85t7.5 -94t1.5 -94t-1 -96.5t-0.5 -91q0 -94 3 -176t12 -188.5t25 -197t44 -190.5t65.5 -179t93.5 -153.5t124.5 -124t161.5 -79t202 -29.5z" />
    <glyph glyph-name="uniE02B" unicode="&#xe02b;" horiz-adv-x="497" 
d="M266 1575q-60 0 -102.5 40.5t-42.5 98.5q0 57 42.5 97t102.5 40q62 0 105 -40t43 -97q0 -58 -43 -98.5t-105 -40.5zM375 1337q10 -15 10 -675q0 -459 -12 -642q127 -11 254 -7t251 13.5t242.5 36.5t228 63t208 92.5t182.5 125.5t151.5 161.5t115.5 200.5t73.5 243
t25.5 288q0 160 -35.5 314t-109.5 291t-177.5 241t-249.5 164.5t-316 60.5q-139 0 -262 -42t-221 -134.5t-136 -224.5q-7 -23 -13.5 -100t-21.5 -127t-49 -50q-20 0 -36.5 12.5t-16.5 32.5q0 222 96.5 389.5t267.5 256.5t392 89q157 0 296.5 -46.5t247 -128.5t193.5 -193.5
t141.5 -243t85 -275t29.5 -290.5q0 -314 -106.5 -556.5t-283 -391t-419 -238.5t-498.5 -117t-538 -8q-8 -79 -18.5 -152t-28.5 -156t-41.5 -156t-57 -148t-73.5 -135.5t-94.5 -114.5t-117 -91t-142 -58t-169.5 -21q-88 0 -163.5 41.5t-126.5 108.5t-87 151.5t-52.5 170
t-16.5 165.5q0 111 29 207.5t85.5 171t147 117.5t205.5 43q181 0 501 -27q13 219 13 403q0 37 -1 110t-1 110q2 5 2.5 32t0 56.5t-1.5 58.5t-1 31v501q-1 27 20.5 47.5t53 26.5t63.5 2.5t56 -25t26 -55.5zM137 -63q-355 26 -493 26q-92 0 -163 -34.5t-114.5 -95
t-65.5 -136.5t-22 -164q0 -79 20.5 -168.5t59.5 -175t108.5 -141.5t155.5 -56q83 0 153.5 37.5t119.5 96.5t89.5 144.5t65 168t43.5 181.5t28 169.5t15 147.5z" />
    <glyph glyph-name="uniE02C" unicode="&#xe02c;" horiz-adv-x="1007" 
d="M1432 -641q228 0 431 56.5t365 159.5t292 248t216 321.5t132 381.5t46 426q0 136 -20 272t-61.5 270t-102.5 254t-147.5 223t-190.5 177.5t-238 117t-284 42.5q-139 0 -262 -42t-220.5 -134.5t-136.5 -224.5q-9 -28 -15.5 -105t-20.5 -124.5t-48 -47.5q-20 0 -36.5 12.5
t-16.5 32.5q0 223 96.5 390.5t267.5 256t392 88.5q163 0 309 -44.5t260.5 -123t210 -187.5t162.5 -237t114 -271.5t69 -291.5t22 -297q0 -236 -49.5 -454.5t-142 -407t-231.5 -343.5t-312 -265t-390 -170.5t-460 -60.5q-130 0 -244 41t-199 107.5t-161.5 163.5t-130 195.5
t-106 218.5t-87 217.5t-76 206.5t-70.5 173q0 -83 1 -249t1 -249q0 -62 -28 -86.5t-92 -24.5q-22 0 -40 2.5t-30.5 9.5t-21.5 12.5t-14.5 19t-9 21t-4.5 26t-1.5 27.5t0 31.5t0.5 31.5q0 314 -10.5 941t-10.5 941q0 30 29 51t60.5 28t58.5 7q45 0 83 -18.5t38 -59.5
q0 -240 -4 -678t-5 -598l510 604q16 19 45 19q33 0 62 -26t29 -60q0 -25 -25 -54l-498 -587q24 -52 58.5 -148.5t66.5 -192.5t78.5 -213t95.5 -219.5t117.5 -202t144.5 -170t176.5 -114t213.5 -43.5z" />
    <glyph glyph-name="uniE02D" unicode="&#xe02d;" horiz-adv-x="645" 
d="M367 2042q0 -79 -4.5 -236.5t-9 -301t-3.5 -336.5t7.5 -361t28 -356.5t55.5 -341t92.5 -296t136 -241t189 -155.5t247.5 -58q199 0 382.5 53t332 148t275.5 226t220.5 288t159 332.5t98.5 361t33 371.5q0 123 -16 242.5t-50.5 236t-85.5 219t-125.5 189.5t-165.5 149.5
t-209.5 97.5t-254.5 35q-143 0 -264.5 -41.5t-216 -133.5t-138.5 -226q-9 -28 -15.5 -60t-8.5 -53.5t-5 -61t-5 -57.5q-6 -45 -50 -45q-20 0 -36.5 12.5t-16.5 32.5q0 337 209 536t547 199q149 0 280 -37.5t232.5 -104.5t184.5 -160.5t140.5 -204t96.5 -237t57.5 -257.5
t18.5 -268q0 -174 -27.5 -347.5t-80.5 -338.5t-133 -318t-181 -286t-230 -242.5t-274.5 -187.5t-318.5 -121t-359 -43q-610 0 -838 560q-127 310 -150 856q-5 108 -9 423q-11 559 -11 938q0 29 27.5 50.5t67 28.5t79.5 4.5t67.5 -22.5t27.5 -53z" />
    <glyph glyph-name="uniE02E" unicode="&#xe02e;" horiz-adv-x="1894" 
d="M1530 774q0 500 -168 500q-60 0 -107 -42.5t-75.5 -113t-49.5 -163t-29 -192.5t-14 -200.5t-3.5 -188t0.5 -154.5q1 -53 1 -73q0 -82 -31 -120.5t-116 -38.5q-62 0 -85.5 26t-23.5 88q0 80 3.5 240t3.5 240q0 40 -0.5 65t-2 92t-6 115.5t-12 116.5t-20.5 116.5t-30 94
t-42.5 69t-56.5 23.5q-66 0 -118 -52t-80.5 -126t-47.5 -168t-25 -166.5t-6 -132.5q0 -90 -4 -269.5t-4 -269.5q0 -49 -41.5 -73.5t-93.5 -24.5q-75 0 -119 55q-13 52 -16 145.5t0.5 229t3.5 151.5q0 35 -0.5 135t0 151.5t2.5 133t8 150.5t16 133q10 62 32 88.5t81 26.5
q29 0 51.5 -5.5t37 -12.5t24 -22.5t14.5 -26.5t7 -34.5t2 -36.5t-1.5 -42t-1.5 -42q91 207 330 207q123 0 206.5 -73.5t110.5 -196.5q42 144 145 207t261 63q62 0 111 -11.5t83.5 -38t59.5 -52.5t40 -73t24.5 -80t13 -93t4 -92.5t0.5 -97.5v-21q0 -127 2 -219.5t10 -221
t22 -222.5t41 -206.5t64.5 -192t93.5 -159t127.5 -128.5t168 -79t212.5 -30q199 0 382.5 53t332 148t275.5 226t220.5 288t159 332.5t98.5 361t33 371.5q0 174 -31.5 338t-102 316.5t-173.5 265.5t-257.5 181t-342.5 68q-141 0 -262.5 -41.5t-217.5 -134t-139 -225.5
q-11 -35 -16.5 -73t-9.5 -85t-8 -74q-6 -45 -50 -45q-20 0 -36.5 12.5t-16.5 32.5q0 223 96 390.5t267 256t393 88.5q149 0 280 -37.5t232.5 -104.5t184.5 -160.5t140.5 -204t96.5 -237t57.5 -257.5t18.5 -268q0 -174 -27.5 -347.5t-80.5 -338.5t-133 -318t-181 -286
t-230 -242.5t-274.5 -187.5t-318.5 -121t-359 -43q-139 0 -257.5 27t-210 74t-166 119t-128 155t-93.5 189t-65 212.5t-40.5 235t-21 248t-5.5 257.5z" />
    <glyph glyph-name="uniE02F" unicode="&#xe02f;" horiz-adv-x="1202" 
d="M1083 676q0 -137 3.5 -237t19.5 -247t44 -252.5t83.5 -222t131.5 -189.5t193.5 -121t264.5 -48q199 0 382.5 53t332 148t275.5 226t220.5 288t159 332.5t98.5 361t33 371.5q0 123 -16 242.5t-50.5 236t-85.5 219t-125.5 189.5t-165.5 149.5t-209.5 97.5t-254.5 35
q-143 0 -264.5 -41.5t-216 -133.5t-138.5 -226q-10 -28 -16 -60.5t-8.5 -52.5t-5.5 -61.5t-5 -57.5q-6 -45 -49 -45q-20 0 -36.5 12.5t-16.5 32.5q0 337 209 536t547 199q149 0 280 -37.5t232 -104.5t184 -160.5t140.5 -204t97 -237t57.5 -257.5t18 -268q0 -232 -49 -461.5
t-141 -439t-232.5 -389.5t-314.5 -312t-396.5 -207t-469.5 -75q-152 0 -281.5 35t-227 96.5t-175.5 150.5t-131.5 192t-90.5 226.5t-56 247.5t-25 262q0 409 -10 526q-16 198 -78 253q-32 28 -82 28q-277 0 -277 -645q0 -90 -4 -269.5t-4 -269.5q0 -49 -41.5 -73.5
t-93.5 -24.5q-75 0 -119 55q-16 69 -16 246q0 146 5 501.5t5 495.5q0 64 66 91.5t132 6.5t66 -75q0 -28 1 -70.5t1 -73.5q91 207 330 207q92 0 159.5 -25t105.5 -69t63 -102.5t31 -125.5t9.5 -139t-1.5 -142q0 -22 -0.5 -34t-0.5 -30v-33z" />
    <glyph glyph-name="uniE030" unicode="&#xe030;" horiz-adv-x="1105" 
d="M567 1405q31 3 47.5 -20t9.5 -48t-34 -28q-72 0 -128 -47t-87.5 -115.5t-51 -157.5t-26 -160.5t-6.5 -136.5q0 -43 5 -97.5t16 -121.5t31.5 -129t48 -115t70 -84.5t93.5 -31.5q53 0 90 18q-106 400 -106 729q0 430 233 430q64 0 115 -42.5t80 -105.5t48.5 -142
t26.5 -143.5t7 -119.5q0 -93 -14.5 -186.5t-45.5 -188t-87 -175t-132 -128.5q33 -116 80.5 -218.5t117 -195t153 -158.5t193.5 -105t234 -39q192 0 372.5 63t327.5 173t275 258t223 320.5t163 358t102 372.5t34 361q0 166 -33 320t-104 289.5t-173 236t-249 159t-323 58.5
q-101 0 -202 -25t-192.5 -72.5t-159 -127.5t-91.5 -180q-2 -7 -9.5 -87.5t-25 -135t-49.5 -54.5q-21 0 -37.5 12.5t-16.5 32.5q0 165 61 305.5t166 236.5t248.5 150t305.5 54q159 0 299 -45.5t247 -127t191 -192t138 -242t82 -275t28 -292.5q0 -165 -29 -339t-83 -345.5
t-136 -336.5t-184 -312t-232 -270.5t-274 -213.5t-315 -140t-351 -50q-168 0 -312 62t-249.5 171.5t-180.5 244t-122 294.5q-35 -12 -90 -12q-110 0 -201.5 43t-153 114.5t-104.5 165t-62.5 192.5t-19.5 200q0 97 18.5 192t60 186t100.5 159.5t147 110.5t194 42zM735 190
q68 54 111.5 150t58.5 188t15 189q0 44 -7.5 110t-23.5 148t-51 139t-82 57q-31 0 -53 -31.5t-31 -81.5t-12 -87t-3 -70q0 -340 78 -711z" />
    <glyph glyph-name="uniE031" unicode="&#xe031;" horiz-adv-x="1310" 
d="M397 1169q142 228 373 228q94 0 169.5 -39t123.5 -101t80.5 -144.5t45.5 -165t13 -167.5q0 -145 -37.5 -286t-111.5 -256q60 -56 129.5 -134t123.5 -145t124.5 -143t137 -137.5t156.5 -119.5t187.5 -97.5t226 -63t275.5 -23.5q377 0 659 298q243 257 363 674
q118 412 78 835q-41 439 -241 732q-224 326 -594 383q-74 11 -153 11q-139 0 -261.5 -42t-219.5 -134.5t-137 -224.5q-9 -29 -15.5 -106t-20.5 -124t-48 -47q-21 0 -37.5 12.5t-16.5 32.5q0 223 96.5 390.5t267.5 256t392 88.5q458 0 747 -326q241 -273 320 -717
q76 -426 -18 -874q-95 -450 -329 -764q-255 -342 -612 -428q-110 -26 -227 -26q-153 0 -286.5 23.5t-234.5 62.5t-195 98t-162.5 120.5t-142 140t-129 146.5t-128.5 151t-135 143q-68 -77 -158.5 -118.5t-191.5 -41.5q-70 30 -113 88t-43 131q0 59 39.5 99.5t91.5 56.5
t109 16q54 0 100 -14q40 95 66.5 211t26.5 211q0 43 -4.5 94t-18.5 115t-35 114.5t-59 85.5t-86 35q-63 0 -115.5 -40t-87.5 -106.5t-62 -145t-41 -162t-21 -151t-7 -118.5q-1 -119 -1 -335.5t0.5 -475.5t0.5 -336q0 -49 -41.5 -73.5t-93.5 -24.5q-76 0 -119 55
q-16 75 -16 201q0 298 5 893t5 893q0 30 28 51t60 28t61 7q69 0 97 -52t28 -182zM604 160q96 0 176 125q-32 4 -47 4q-29 0 -58 -4.5t-57 -22t-28 -45.5q0 -25 14 -57z" />
    <glyph glyph-name="uniE032" unicode="&#xe032;" horiz-adv-x="1058" 
d="M739 377q-20 61 -68.5 116t-108.5 96.5t-128 83t-131.5 83.5t-115.5 88t-83.5 107.5t-31.5 131.5q0 91 42.5 167t111 124t152 74.5t169.5 26.5q204 0 329 -124.5t125 -328.5q0 -36 -22.5 -61t-58.5 -25q-31 0 -51.5 19.5t-20.5 50.5q0 50 -7 99.5t-24.5 102t-44.5 92.5
t-71.5 65.5t-100.5 25.5q-91 0 -156 -68t-65 -160q0 -73 37.5 -132.5t96.5 -103.5t129.5 -87.5t139 -96t122.5 -116.5t82.5 -162.5t17.5 -220.5q76 -72 158.5 -161.5t141 -158t131 -145.5t136.5 -133t149.5 -109.5t177 -87.5t212.5 -54t262 -20q163 0 308 55t255.5 149
t202.5 222.5t154.5 273t106 302t63.5 308.5t20 294q0 136 -17 269t-54 265.5t-92.5 249.5t-137 217.5t-181.5 173t-232 113.5t-284 41q-98 0 -196 -25.5t-185 -73t-151 -126.5t-86 -176q0 -1 -9 -85t-27 -138t-48 -54q-20 0 -36.5 12.5t-16.5 32.5q0 219 97 387t268 258
t390 90q165 0 309 -43t254 -119.5t200.5 -183t152 -231t103.5 -267t61.5 -287t19.5 -294.5q0 -156 -22.5 -320t-71 -332t-118.5 -321.5t-171 -288.5t-222 -234t-279 -156.5t-335 -57.5q-147 0 -272.5 20t-220 52.5t-183.5 86t-154 109t-140.5 134t-134.5 148t-145 164.5
t-163 171q-61 -88 -175 -157.5t-238.5 -104.5t-235.5 -35q-87 0 -150 52t-63 138q0 65 34.5 118t92.5 87t125.5 58.5t144 37t137.5 18t115 5.5zM739 285q-44 3 -105 -1t-134.5 -19t-135.5 -40t-103.5 -70t-41.5 -102q0 -29 31.5 -47t83.5 -18q126 0 237.5 87t167.5 210z" />
    <glyph glyph-name="uniE033" unicode="&#xe033;" horiz-adv-x="618" 
d="M365 1393q-1 -69 -8 -241q-6 -153 -8.5 -238.5t-2 -252t9.5 -271t30.5 -256t56 -248t91.5 -207t131.5 -173t180.5 -105t235 -42.5q235 0 445 62t375.5 174t298.5 268t220.5 343t134 399.5t46.5 438.5q0 144 -23 288.5t-69 288t-122.5 266.5t-175.5 217.5t-237 149
t-299 54.5q-105 0 -200.5 -24.5t-178.5 -72t-145.5 -125.5t-93.5 -179q-11 -36 -17 -74t-10 -84.5t-8 -73.5q-6 -45 -49 -45q-20 0 -36.5 12.5t-16.5 32.5q0 223 95.5 390.5t266.5 256t393 88.5q152 0 285.5 -42.5t236.5 -117.5t187.5 -179t143 -224t98.5 -255t58.5 -271
t18.5 -272q0 -288 -70 -555t-208.5 -491.5t-331.5 -391t-453.5 -260.5t-558.5 -94q-160 0 -292.5 36.5t-228 96.5t-170 152.5t-122 190t-80 225t-48.5 240.5t-23.5 254t-8.5 248t0 238q1 89 1 131q0 63 -3 179.5t-4 144.5q-8 0 -32 -2t-40.5 -1.5t-36 4t-30 16t-10.5 32.5
t9.5 33t30 17.5t34 6t41.5 0t32 -1.5q0 41 -1 123t-1 123q0 29 28 50t60 28.5t60 7.5q46 0 83.5 -18.5t37.5 -59.5v-252h215q25 0 35 -25.5t-0.5 -51t-34.5 -25.5q-3 0 -105 -2t-112 -2z" />
    <glyph glyph-name="uniE034" unicode="&#xe034;" horiz-adv-x="1050" 
d="M391 848q0 -61 -1.5 -253.5t0 -284.5t5.5 -247.5t16.5 -283.5t32.5 -252q430 383 816 383q174 0 318 -84.5t226 -229.5t82 -319q0 -119 -46.5 -226.5t-126 -187t-181.5 -138t-215.5 -88.5t-226.5 -30q-290 0 -497.5 172t-301.5 459q-35 -35 -106 -107
q-111 -113 -171 -172t-174 -164t-192.5 -164t-195 -135.5t-215 -117t-219 -69.5t-237.5 -29q-129 0 -251 25.5t-230 73.5t-197.5 122t-154.5 167t-101 213t-36 255q0 239 110.5 429.5t303.5 296t432 105.5q71 0 139 -7.5t138 -24.5t131 -43t114.5 -66t91.5 -90t60 -118
t22 -148q0 -86 -31.5 -178t-85.5 -169.5t-135.5 -127.5t-171.5 -50q-49 0 -49 49q0 16 1.5 25t10.5 15t13.5 7.5t23.5 6.5q155 48 238 154.5t83 267.5q0 66 -19.5 121.5t-53 95.5t-80.5 71.5t-99 51t-112 32.5t-115.5 18t-113.5 5q-157 0 -294 -54t-236.5 -148.5
t-156.5 -230.5t-57 -294q0 -144 46.5 -267.5t127.5 -212.5t191 -152t237.5 -93.5t265.5 -30.5q87 0 175.5 17.5t167.5 45.5t164.5 74.5t155.5 92.5t152 111.5t144 120t140 130t131 129t127.5 129t119.5 119.5q-25 93 -45.5 194.5t-36 183.5t-27.5 202.5t-19.5 187t-13 205
t-8.5 188.5t-4.5 205.5t-1.5 188v204.5v190q0 23 18 40.5t46 26.5t53.5 13t46.5 4q125 0 125 -69v-117q49 87 144.5 140.5t195.5 50.5q140 -3 223 -104.5t76 -315.5q0 -50 -39.5 -78.5t-87.5 -28.5t-87.5 28.5t-39.5 78.5q0 325 -114 325q-73 0 -156 -128t-111 -300
q-1 -3 -2 -9t-2 -9zM467 -592q22 -108 56.5 -204.5t90.5 -189.5t126.5 -160t169 -107.5t212.5 -40.5q110 0 226.5 44t211.5 117.5t155.5 180t60.5 221.5q0 146 -72.5 266.5t-195.5 188t-269 67.5q-359 0 -772 -383z" />
    <glyph glyph-name="uniE035" unicode="&#xe035;" horiz-adv-x="1175" 
d="M1047 1368q2 -49 5 -141t5 -149.5t3.5 -138t0.5 -148.5q0 -110 1 -182.5t8 -198.5t20 -214.5t38.5 -206t61.5 -199.5t92 -169t126.5 -140.5t168.5 -87.5t215 -34q232 0 441 62t374.5 174t299.5 268t222.5 343t135.5 400t47 438q0 144 -23 288.5t-69 288t-122.5 266.5
t-175.5 217.5t-237 149t-299 54.5q-141 0 -263 -41.5t-218 -134t-138 -225.5q-11 -35 -16.5 -73.5t-9.5 -85t-8 -73.5q-6 -45 -50 -45q-20 0 -36.5 12.5t-16.5 32.5q0 223 96 390.5t267 256t393 88.5q152 0 285.5 -42.5t236.5 -117.5t187.5 -179t143 -224t98.5 -255
t58.5 -271t18.5 -272q0 -240 -50.5 -468t-145 -428.5t-237.5 -367.5t-319.5 -286t-399.5 -183t-470 -59q-154 3 -296 56.5t-252 143t-196 206t-138 248t-68 265.5q-101 -140 -275 -145q-77 0 -140 13.5t-109.5 33.5t-82.5 57t-60 71t-40.5 90t-25 98.5t-13 111.5t-5.5 115
t-1 122q0 86 -2 256t-2 256q0 87 32.5 129.5t117.5 42.5q60 0 84 -26.5t24 -87.5q0 -78 -3 -232.5t-3 -232.5v-214q15 -517 229 -517q49 0 88 17t64 42.5t43.5 64.5t28 74t15 81.5t6.5 76.5t1 68q0 154 -9.5 444t-10.5 340q-1 49 40.5 73.5t94.5 24.5q76 0 119 -55z" />
    <glyph glyph-name="uniE036" unicode="&#xe036;" horiz-adv-x="1282" 
d="M473 1341l-2 -6q-41 -206 -41 -524q0 -609 153 -681q19 -9 40 -9q112 0 229 143q-104 406 -104 733q0 430 233 430q57 0 100.5 -26.5t68 -65.5t39.5 -94t20 -103t5 -100q0 -190 -65 -408t-182 -378q36 -129 83.5 -238.5t117 -210t153.5 -170.5t195.5 -111.5t240.5 -41.5
q192 0 372.5 63t327.5 173t275 258t223 320.5t163 358t102 372.5t34 361q0 166 -33 320t-104 289.5t-173 236t-249 159t-323 58.5q-101 0 -202 -25t-193 -72.5t-159.5 -127.5t-91.5 -180q-2 -7 -9.5 -87.5t-25 -135t-49.5 -54.5q-20 0 -36.5 12.5t-16.5 32.5q0 165 61 305.5
t166 236.5t248.5 150t305.5 54q159 0 298.5 -45.5t246.5 -127t191.5 -192t138.5 -242t82 -275t28 -292.5q0 -165 -29 -339t-83 -345.5t-136 -336.5t-184 -312t-232 -270.5t-274 -213.5t-315 -140t-351 -50q-128 0 -246.5 44t-212 117.5t-173.5 174.5t-136.5 210.5
t-97.5 230.5q-63 -63 -147 -109.5t-156 -46.5q-89 0 -161.5 34t-120.5 88t-84.5 133t-56 157t-31.5 172t-15.5 165.5t-3.5 149.5q0 5 -0.5 72t0 96.5t3 84.5t8.5 94t15 67q34 108 189 108q27 0 57.5 -5.5t61 -24.5t30.5 -48zM934 385q80 144 128 329.5t48 372.5
q0 222 -145 222q-31 0 -53 -32t-31 -82t-12 -87t-3 -70q0 -345 68 -653z" />
    <glyph glyph-name="uniE037" unicode="&#xe037;" horiz-adv-x="2123" 
d="M1489 121q112 0 229 143q-104 406 -104 733q0 430 233 430q57 0 100.5 -26.5t68 -65.5t40 -94t20.5 -103t5 -100q0 -189 -65.5 -407t-182.5 -379q36 -129 83.5 -238.5t117 -210t153.5 -170.5t195.5 -111.5t240.5 -41.5q168 0 328 48.5t294.5 135t255.5 205.5t216.5 259.5
t172 297.5t127 319.5t77.5 325.5t27 315q0 166 -33 320t-104.5 289.5t-173.5 236t-249 159t-323 58.5q-101 0 -202 -25t-192.5 -72.5t-159 -127.5t-91.5 -180q-2 -7 -9.5 -87.5t-25 -135t-49.5 -54.5q-20 0 -36.5 12.5t-16.5 32.5q0 165 60.5 305.5t165.5 236.5t248.5 150
t305.5 54q159 0 298.5 -45.5t246.5 -127t191.5 -192t138.5 -242t82 -275t28 -292.5q0 -165 -29 -339t-83 -345.5t-136 -336.5t-184 -312t-232 -270.5t-274 -213.5t-315 -140t-351 -50q-128 0 -246.5 44t-212 117.5t-173.5 174.5t-136.5 210.5t-97.5 230.5
q-156 -156 -377 -156q-78 0 -142.5 31t-108 79t-77 116.5t-52.5 133t-33 138.5q-18 -46 -31 -78t-39 -88.5t-49 -96t-56.5 -87t-66 -77t-73.5 -49.5t-83 -20q-83 0 -152 34.5t-115.5 90.5t-82 135t-56 158.5t-33 171t-16.5 163.5t-4 144q0 13 -0.5 76t0 92t3 80.5t8.5 91
t16 74.5q31 108 188 108q19 0 42 -3.5t48.5 -11t42.5 -22.5t17 -36l-2 -13q-41 -219 -41 -522q0 -32 0.5 -58t2 -89t6.5 -114t13 -118t21.5 -117.5t31 -96.5t43.5 -70.5t58 -24.5q56 0 110 72.5t93 179.5t69 224.5t44.5 213t11.5 139.5q0 41 33 76t80 48.5t94.5 10.5
t81 -38.5t34.5 -96.5q-2 -45 -2.5 -84.5t0 -114.5t6 -138t14.5 -140t27.5 -136t43 -110.5t62.5 -79.5t85 -28zM1800 385q80 144 128 329.5t48 372.5q0 222 -145 222q-31 0 -52.5 -32t-30.5 -82.5t-12 -87t-3 -69.5q0 -350 67 -653z" />
    <glyph glyph-name="uniE038" unicode="&#xe038;" horiz-adv-x="1062" 
d="M940 1337q21 -742 0 -1317q127 -11 254 -7t251 13.5t242.5 36.5t228 63t208 92.5t183 125.5t152 161.5t115.5 200.5t73.5 243t25.5 288q0 160 -35.5 314t-109.5 291t-178 241t-250 164.5t-316 60.5q-139 0 -262 -42t-221 -134.5t-136 -224.5q-7 -23 -13.5 -100
t-21.5 -127t-49 -50q-20 0 -36.5 12.5t-16.5 32.5q0 222 96.5 389.5t267.5 256.5t392 89q157 0 296.5 -46.5t247 -128.5t193.5 -193.5t141.5 -243t85 -275t29.5 -290.5q0 -314 -106.5 -556.5t-283 -391t-419 -238.5t-498.5 -117t-538 -8q-8 -79 -18.5 -152t-28.5 -156
t-41.5 -156t-57 -148t-73.5 -135.5t-94.5 -114.5t-117 -91t-142 -58t-169.5 -21q-88 0 -163.5 41.5t-126.5 108.5t-87 151.5t-52.5 170t-16.5 165.5q0 111 29 207.5t85.5 171t147 117.5t205.5 43q182 0 502 -27q4 61 5 140t0 205t-1 140q-126 -116 -301 -116
q-75 0 -134.5 38t-96 100t-61.5 145t-35 170t-12 178t3 165.5t14 136.5q5 41 48.5 59.5t97.5 18.5q36 0 75 -13t39 -42q-6 -44 -11.5 -101t-10 -142.5t-4 -166.5t9.5 -165t27.5 -146t54 -101.5t84.5 -39.5q126 0 213 164v659q10 38 44 55t58 17q42 0 81 -14.5t40 -45.5z
M705 -63q-355 26 -494 26q-92 0 -163 -34.5t-114.5 -95t-65.5 -136.5t-22 -164q0 -79 20.5 -168.5t59.5 -175t108.5 -141.5t155.5 -56q65 0 122.5 23t101.5 61.5t82 94.5t65.5 116t50.5 133t37.5 138.5t26.5 139t18 128t11 111.5z" />
    <glyph glyph-name="uniE039" unicode="&#xe039;" horiz-adv-x="929" 
d="M35 80q0 67 103.5 248t227 362t227 347t103.5 206q0 9 -11.5 14.5t-30.5 6.5t-36.5 0.5t-36 -1.5t-22.5 -1h-475q-25 0 -38 21.5t-13 47.5q0 25 13.5 45.5t37.5 20.5q146 0 436.5 -2t435.5 -2q24 0 36 -30.5t12 -59.5q0 -46 -107.5 -225.5t-236 -370.5t-236 -357
t-107.5 -188q0 -45 105.5 -98t261.5 -97t324.5 -81t305 -58t191.5 -21q515 0 841 317q259 251 354 651q87 371 11 754q-75 372 -279 621q-224 273 -544 314q-51 6 -104 6q-96 0 -194.5 -26t-186.5 -74t-152.5 -127t-85.5 -175q0 -1 -8 -85.5t-25.5 -137.5t-50.5 -53
q-20 0 -36.5 12.5t-16.5 32.5q0 219 97.5 387t269 258t389.5 90q407 0 694 -279q244 -237 349 -619q106 -383 41 -784q-68 -423 -305 -722q-277 -349 -717 -439q-145 -30 -304 -30q-260 0 -726 121.5t-761 245.5q-20 7 -20 14z" />
    <glyph glyph-name="uniE03A" unicode="&#xe03a;" 
d="M1190 1243q0 -157 -11.5 -471t-11.5 -471q0 -342 25 -586q183 39 354 39q88 0 172 -16.5t162.5 -53.5t137.5 -90t94.5 -132t35.5 -173q0 -83 -28 -154.5t-76.5 -124t-113 -90.5t-139 -56.5t-153.5 -18.5q-81 0 -153.5 22.5t-130.5 62t-108.5 95t-88.5 117.5t-69.5 134.5
t-52.5 142t-36 143.5q-158 -47 -401.5 -137t-415.5 -152.5t-401.5 -113t-431.5 -50.5q-79 0 -149.5 12t-136 41t-112.5 73t-75.5 111t-28.5 152q0 36 12 89t33 107.5t56 93t75 38.5q20 0 34.5 -17t14.5 -36q0 -10 -19 -33.5t-42.5 -51.5t-42.5 -80.5t-19 -111.5
q0 -66 24 -116.5t62.5 -81.5t92 -51t107.5 -27.5t114 -7.5q164 0 335.5 30.5t337 83t313 107.5t329 122t317.5 107q-45 266 -45 629q0 73 4 221q-15 -62 -41 -127.5t-66.5 -132.5t-88.5 -119.5t-111.5 -85.5t-130.5 -33q-94 0 -170 37.5t-125.5 98.5t-83 141.5t-48 163.5
t-14.5 168q0 86 15 175t44 178t77 166.5t109 138t144.5 95.5t178.5 35q74 0 145 -29t113 -84q-6 33 7 57.5t39 36.5t53.5 17.5t57.5 5.5q50 0 79.5 -9t44 -33t18.5 -51.5t4 -78.5zM883 997q0 48 -2 79.5t-12 71t-28.5 62.5t-52.5 39.5t-83 16.5q-80 0 -143.5 -48
t-101.5 -119.5t-63.5 -163t-35 -170.5t-9.5 -149q0 -45 4 -95.5t17.5 -115.5t34.5 -116t59.5 -86t87.5 -35q67 0 122 46.5t89 124.5t58.5 167t36.5 187.5t17 171t5 132.5zM1204 -387q8 -59 19 -115.5t30.5 -125t43.5 -127t60 -115.5t78.5 -96.5t100 -64t123.5 -24.5
q158 0 272.5 94.5t114.5 249.5q0 94 -46 167t-121 114t-160 61.5t-173 20.5q-166 0 -342 -39z" />
    <glyph glyph-name="uniE03B" unicode="&#xe03b;" horiz-adv-x="903" 
d="M385 -387q89 -657 395 -657q249 0 372 126q94 96 80 226q-13 130 -126 224q-144 120 -379 120q-163 0 -342 -39zM682 1303q-89 0 -155 -75t-101.5 -192t-56 -275t-24 -308t1 -307.5t11.5 -257.5t15 -173q186 39 354 39q282 0 453 -150q131 -114 152 -274
q21 -158 -75 -284q-117 -152 -356 -185q-58 -8 -121 -8q-455 0 -600 709q-133 -39 -317 -107t-336 -124t-324.5 -110t-350.5 -84t-345 -28q-134 2 -233 39t-149 95t-76 128.5t-20.5 143.5t26 136t56 109t74.5 60q25 16 51 -9q26 -26 12 -57q-8 -17 -26 -28q-18 -7 -39 -38
t-35 -77t-19 -98.5t14 -105t57.5 -95.5t117.5 -70.5t189 -29.5q166 -2 341.5 27.5t345.5 83t320 109t332.5 123t315.5 107.5q-63 385 -80 603q-78 1016 415 1132q62 14 132 14q134 0 224.5 -90t90.5 -223q0 -34 -6 -64q-32 -37 -82 -37q-24 0 -35.5 22.5t-12.5 56.5t-5 74
t-12 74t-35.5 56.5t-73.5 22.5z" />
    <glyph glyph-name="uniE03C" unicode="&#xe03c;" 
d="M883 997q0 48 -2 79.5t-12 71t-28.5 62.5t-52.5 39.5t-83 16.5q-80 0 -143.5 -48t-101.5 -120t-63.5 -163.5t-35 -170t-9.5 -148.5q0 -44 4 -94t17.5 -115.5t34.5 -116.5t59.5 -86.5t87.5 -35.5q67 0 122 46.5t89 124.5t58.5 167t36.5 187.5t17 171t5 132.5zM1241 -387
q89 -657 395 -657q249 0 372 126q94 96 80 226q-13 130 -126 224q-144 120 -379 120q-163 0 -342 -39zM1192 2001q0 -199 -5.5 -561t-7 -594.5t9.5 -548.5t40 -582q186 39 354 39q282 0 453 -150q131 -114 152 -274q21 -158 -75 -284q-117 -152 -356 -185q-58 -8 -121 -8
q-455 0 -600 709q-133 -39 -317 -107t-336 -124t-324.5 -110t-350.5 -84t-345 -28q-134 2 -232.5 39t-149 95t-76.5 128.5t-20 143.5t26.5 136t56 109t74.5 60q25 16 50 -9q26 -26 12 -57q-8 -17 -26 -28q-18 -7 -39 -38t-35 -77t-19 -98.5t14 -105t57.5 -95.5t117.5 -70.5
t189 -29.5q166 -2 341.5 27.5t345.5 83t320 109t332.5 123t315.5 107.5q-23 140 -38.5 284t-21.5 236t-15 272q-2 38 -3 58q-15 -62 -41 -127.5t-66.5 -132.5t-88.5 -119.5t-111.5 -85.5t-130.5 -33q-94 0 -170.5 37.5t-126 98.5t-83 141.5t-47.5 163.5t-14 168q0 86 15 175
t44 178t77 166.5t109 138t144.5 95.5t178.5 35q77 0 168.5 -31t128.5 -82q-2 246 -2 736q0 23 15 40.5t38.5 26.5t46 13t43.5 4q81 0 125 -41v-76z" />
    <glyph glyph-name="uniE03D" unicode="&#xe03d;" horiz-adv-x="886" 
d="M360 731q-27 -279 -25 -574.5t38 -441.5q186 39 354 39q283 0 466 -151q138 -114 170 -274q33 -159 -56 -285q-105 -150 -338 -183q-59 -8 -123 -8q-152 0 -290.5 97.5t-235 257.5t-140.5 354q-133 -39 -317 -107t-336 -124t-324.5 -110t-350.5 -84t-345 -28
q-134 2 -233 39t-149 95t-76 128.5t-20.5 143.5t26 136t56 109t74.5 60q25 16 51 -9q26 -26 12 -57q-8 -17 -26 -28q-18 -7 -39 -38t-35 -77t-19 -98.5t14 -105t57.5 -95.5t117.5 -70.5t189 -29.5q166 -2 341.5 27.5t345.5 83t320 109t332.5 123t315.5 107.5
q-20 81 -38 178.5t-34 223t-23.5 251.5t-2.5 260.5t24 254t61.5 227.5t104.5 185.5t157.5 123t217.5 45.5q172 0 252 -105q69 -90 40 -214q-32 -135 -165 -232q-155 -114 -396 -129zM682 1303q-81 0 -145.5 -64t-103.5 -163.5t-58 -225.5q235 16 354 146q79 85 75 181
q-3 79 -61 111q-27 15 -61 15zM385 -387q25 -182 98 -334.5t170 -237.5t193 -85q248 0 359 125q86 96 60 226q-25 130 -147 224q-155 121 -391 121q-163 0 -342 -39z" />
    <glyph glyph-name="uniE03E" unicode="&#xe03e;" horiz-adv-x="888" 
d="M358 569v-55q0 -458 17 -689l10 -110q186 39 354 39q282 0 453 -150q131 -114 153 -274q21 -159 -76 -285q-117 -152 -356 -184q-57 -8 -120 -8q-455 0 -600 709q-151 -45 -397.5 -136t-423 -155t-412.5 -114.5t-441 -47.5q-134 2 -232.5 39t-149 95t-76.5 128.5
t-20 143.5t26.5 136t56 109t74.5 60q25 16 51 -9q26 -26 12 -57q-8 -17 -26 -28q-18 -7 -39 -38t-35 -77t-19 -98.5t13.5 -105t57 -95.5t117.5 -70.5t189 -29.5q166 -2 341.5 27.5t345.5 83t320 109t332.5 123t315.5 107.5q-16 101 -27 197.5t-17 205t-9.5 181.5t-3.5 199.5
t0.5 182.5t3.5 206.5t4 199.5q2 86 24.5 158.5t67 128.5t116.5 87.5t165 31.5q165 0 252.5 -96.5t87.5 -264.5q0 -64 -31 -94.5t-96 -30.5q-26 0 -40 3t-18.5 13t-4.5 18.5t2.5 29.5t2.5 37q0 35 -4 71t-15.5 80t-37 71.5t-61.5 27.5q-40 0 -70.5 -15.5t-48.5 -43.5
t-29.5 -60t-16 -71.5t-6.5 -70.5t-2 -65v-16q-4 -168 -4 -291q27 1 106.5 4.5t112 3.5t93.5 -4q24 -2 24 -53q0 -45 -24 -50q-29 -4 -312 -4zM397 -387q89 -657 396 -657q249 0 372 126q94 96 80 226q-14 129 -126 224q-144 120 -380 120q-163 0 -342 -39z" />
    <glyph glyph-name="uniE03F" unicode="&#xe03f;" horiz-adv-x="1040" 
d="M694 840v440q0 50 -41 87.5t-92 37.5q-205 0 -205 -514q0 -289 88 -289q74 0 132 50t94 126q24 48 24 62zM174 -109q77 26 117.5 22t62 -31t25.5 -65.5t8 -82.5t9.5 -81.5t30 -62t69.5 -24.5q48 0 85.5 29t58 71t33.5 97.5t17 100.5t4 89v709q-51 -68 -121 -111t-147 -43
q-71 0 -129.5 25.5t-98 68.5t-66.5 100.5t-39.5 119.5t-12.5 128q0 104 28.5 199t82 172.5t140.5 123.5t195 46q68 0 130 -25.5t85 -79.5q25 11 56 11q40 0 74.5 -14t41.5 -46q7 -35 9 -73.5t0 -96.5t-2 -75q4 -324 4 -488v-649q0 -90 -23.5 -179t-69 -168t-123.5 -128
t-176 -49q-165 0 -252 96.5t-87 263.5q-121 -36 -269 -105.5t-276 -143.5t-279.5 -154t-286.5 -141.5t-289 -100.5t-294 -37q-134 2 -233 39t-149 95t-76 128.5t-20.5 143.5t26 136t56 109t74.5 60q25 16 51 -9q26 -26 12 -57q-8 -17 -26 -28q-18 -7 -39 -38t-35 -77
t-19 -98.5t14 -105t57.5 -95.5t117.5 -70.5t189 -29.5q164 -2 344.5 51.5t349 140t327 177t335.5 179.5t319 131z" />
    <glyph glyph-name="uniE040" unicode="&#xe040;" horiz-adv-x="497" 
d="M152 -47v709v663q10 38 44 55t58 17q42 0 81 -14.5t40 -45.5q6 -244 6 -733v-649q0 -71 -14 -142.5t-45 -140.5t-75.5 -122.5t-111 -86t-145.5 -32.5q-165 0 -252.5 96.5t-87.5 263.5q-121 -36 -269 -105.5t-276 -143.5t-279.5 -154t-286.5 -141.5t-289 -100.5t-294 -37
q-134 2 -232.5 39t-149 95t-76.5 128.5t-20 143.5t26.5 136t56 109t74.5 60q25 16 50 -9q26 -26 12 -57q-8 -17 -26 -28q-18 -7 -39 -38t-35 -77t-19 -98.5t14 -105t57.5 -95.5t117.5 -70.5t189 -29.5q164 -2 344.5 51.5t349 140t327 177t335.5 179.5t319 131
q77 26 117.5 22t62 -31t25.5 -65.5t8 -82.5t9.5 -81.5t30 -62t69.5 -24.5q48 0 85.5 29t58.5 71t34 97.5t17 100.5t4 89zM266 1575q62 0 105 40.5t43 98.5q0 57 -43 97t-105 40q-60 0 -102.5 -40t-42.5 -97q0 -58 42.5 -98.5t102.5 -40.5z" />
    <glyph glyph-name="uniE041" unicode="&#xe041;" horiz-adv-x="509" 
d="M240 1575q-60 0 -103 40.5t-43 98.5q0 57 43 97t103 40q61 0 104 -40t43 -97q0 -58 -42.5 -98.5t-104.5 -40.5zM426 -387q89 -657 395 -657q249 0 372 126q94 96 80 226q-13 130 -126 224q-144 120 -379 120q-163 0 -342 -39zM391 1315q0 -172 -10 -523.5t-4.5 -594.5
t37.5 -482q186 39 354 39q282 0 453 -150q131 -114 152 -274q21 -158 -75 -284q-117 -152 -356 -185q-58 -8 -121 -8q-455 0 -600 709q-133 -39 -317 -107t-336 -124t-324.5 -110t-350.5 -84t-345 -28q-134 2 -233 39t-149 95t-76 128.5t-20.5 143.5t26 136t56 109t74.5 60
q25 16 51 -9q26 -26 12 -57q-8 -17 -26 -28q-18 -7 -39 -38t-35 -77t-19 -98.5t14 -105t57.5 -95.5t117.5 -70.5t189 -29.5q166 -2 341.5 27.5t345.5 83t320 109t332.5 123t315.5 107.5q-37 188 -58.5 365t-30.5 389.5t-10.5 348t-1.5 415.5v40.5v37.5v42q0 23 18 40.5
t46 26.5t53.5 13t46.5 4q125 0 125 -69z" />
    <glyph glyph-name="uniE042" unicode="&#xe042;" horiz-adv-x="966" 
d="M1108 -387q46 -121 85.5 -212.5t86.5 -179t92.5 -143t98 -89t106.5 -33.5q246 0 357 124q85 95 58 226q-26 129 -148 224q-157 122 -394 122q-163 0 -342 -39zM358 580q0 -68 -1 -201t-1 -197q0 -18 1.5 -45.5t2 -44.5t-1 -38.5t-8.5 -34.5t-19.5 -25t-35.5 -17.5
t-55 -5.5q-20 0 -36 2.5t-28 6t-21.5 11.5t-15.5 13.5t-10 19t-6 20.5t-3 24.5t-1 25.5v28.5v29.5q0 315 -10.5 941.5t-10.5 940.5q0 29 27.5 50.5t67 28.5t79.5 4.5t67.5 -22.5t27.5 -53q0 -228 -4 -669.5t-5 -606.5l510 604q17 17 41.5 18t45.5 -12t35.5 -32.5t12.5 -45.5
t-24 -49l-498 -587q197 -250 332.5 -465t261.5 -490q224 47 375 47q284 0 468 -152q139 -115 172 -274q34 -159 -54 -284q-103 -150 -336 -183q-58 -8 -123 -8q-64 0 -125 20.5t-112.5 55t-102.5 88.5t-93 110.5t-86.5 133t-79 145.5t-75.5 156q-133 -39 -317 -107
t-336 -124t-324.5 -110t-350.5 -84t-345 -28q-134 2 -233 39t-149 95t-76 128.5t-20.5 143.5t26 136t56 109t74.5 60q25 16 51 -9q26 -26 12 -57q-8 -17 -26 -28q-18 -7 -39 -38t-35 -77t-19 -98.5t14 -105t57.5 -95.5t117.5 -70.5t189 -29.5q204 -3 435.5 45.5t403 110
t415 150.5t393.5 134q-26 58 -69.5 157t-62 139t-53.5 113.5t-61.5 118t-68.5 112.5t-91 136t-113 152z" />
    <glyph glyph-name="uniE043" unicode="&#xe043;" horiz-adv-x="1894" 
d="M1829 -387q89 -657 395 -657q249 0 372 126q94 96 80 226q-13 130 -126 224q-144 120 -379 120q-163 0 -342 -39zM1774 688q1 -51 3 -233t4.5 -265.5t11.5 -223t24 -251.5q186 39 354 39q282 0 453 -150q131 -114 152 -274q21 -158 -75 -284q-117 -152 -356 -185
q-58 -8 -121 -8q-455 0 -600 709q-133 -39 -317 -107t-336 -124t-324.5 -110t-350.5 -84t-345 -28q-134 2 -233 39t-149 95t-76 128.5t-20.5 143.5t26 136t56 109t74.5 60q25 16 51 -9q26 -26 12 -57q-8 -17 -26 -28q-18 -7 -39 -38t-35 -77t-19 -98.5t14 -105t57.5 -95.5
t117.5 -70.5t189 -29.5q166 -2 341.5 27.5t345.5 83t320 109t332.5 123t315.5 107.5q-46 237 -62 477t-14 531v36q3 41 1 99t-4.5 121t-14 125t-28.5 111.5t-48.5 80.5t-73.5 31q-281 0 -281 -952q0 -18 2.5 -116t-0.5 -116q-3 -50 -47 -76t-98 -26q-63 0 -86 27t-23 87
q0 74 3.5 221.5t3.5 219.5q0 731 -170 731q-66 0 -118 -52t-80.5 -126t-47.5 -168t-25 -166.5t-6 -132.5q0 -90 -4 -269.5t-4 -269.5q0 -49 -41.5 -73.5t-93.5 -24.5q-75 0 -119 55q-5 17 -7.5 36.5t-3.5 42.5t-1.5 37.5t0 43t0.5 37.5q0 53 -0.5 199t0 221t2.5 194t8 220
t16 198q6 61 31 88t82 27q29 0 51 -5.5t36.5 -11.5t24.5 -22t15 -26t6.5 -34.5t1.5 -36t-1 -42.5t-1 -44q91 207 330 207q124 0 207 -73.5t110 -196.5q44 145 146 207.5t260 62.5q58 0 106 -12t81.5 -32t59.5 -52t42 -65t26 -78.5t14.5 -84.5t6 -92t0.5 -92.5t-1.5 -92.5
t-0.5 -87z" />
    <glyph glyph-name="uniE044" unicode="&#xe044;" horiz-adv-x="1202" 
d="M1130 -387q89 -657 396 -657q249 0 372 126q94 96 80 226q-13 130 -126 224q-144 120 -379 120q-164 0 -343 -39zM1118 -285q186 39 355 39q282 0 453 -150q131 -114 152 -274q21 -158 -75 -284q-117 -152 -356 -185q-58 -8 -121 -8q-455 0 -600 709
q-151 -45 -397.5 -136t-423 -155t-412.5 -114.5t-441 -47.5q-134 2 -232.5 39t-149 95t-76.5 128.5t-20 143.5t26.5 136t56 109t74.5 60q25 16 51 -9q26 -26 12 -57q-8 -17 -26 -28q-18 -7 -39 -38t-35 -77t-19 -98.5t13.5 -105t57 -95.5t117.5 -70.5t189 -29.5
q166 -2 341.5 27.5t345.5 83t320 109t332.5 123t315.5 107.5q-71 381 -71 805q0 409 -10 526q-16 198 -78 253q-32 28 -82 28q-277 0 -277 -645q0 -90 -4 -269.5t-4 -269.5q0 -49 -41.5 -73.5t-93.5 -24.5q-75 0 -119 55q-16 69 -16 246q0 146 5 501.5t5 495.5q0 64 66 91.5
t132 6.5t66 -75q0 -28 1 -70.5t1 -73.5q91 207 330 207q92 0 159.5 -25t105.5 -69t63 -102.5t31 -125.5t9.5 -139t-1.5 -142q0 -22 -0.5 -34t-0.5 -30v-33q1 -70 1 -233t1.5 -255t9.5 -227t23 -246z" />
    </font>
</defs>
</svg>
