<?xml version="1.0" standalone="no"?>
<!DOCTYPE svg PUBLIC "-//W3C//DTD SVG 1.1//EN" "http://www.w3.org/Graphics/SVG/1.1/DTD/svg11.dtd" >
<svg xmlns="http://www.w3.org/2000/svg" xmlns:xlink="http://www.w3.org/1999/xlink" version="1.1">
<metadata>
Created by FontForge 20170731 at Fri Apr 27 14:08:30 2018
 By Aleksey,,,
Copyright (c) 2018 by Creativetacos. All rights reserved.
</metadata>
<defs>
<font id="WensleyDemo" horiz-adv-x="659" >
  <font-face 
    font-family="Wensley Demo"
    font-weight="400"
    font-stretch="normal"
    units-per-em="1000"
    panose-1="0 0 0 0 0 0 0 0 0 0"
    ascent="800"
    descent="-200"
    x-height="698"
    cap-height="699"
    bbox="46 -125 1143 856"
    underline-thickness="0"
    underline-position="0"
    unicode-range="U+000A-00A0"
  />
<missing-glyph horiz-adv-x="500" 
 />
    <glyph glyph-name=".notdef" horiz-adv-x="500" 
 />
    <glyph glyph-name=".null" horiz-adv-x="0" 
 />
    <glyph glyph-name="nonmarkingreturn" unicode="&#xd;" horiz-adv-x="0" 
 />
    <glyph glyph-name="nonmarkingreturn" horiz-adv-x="0" 
 />
    <glyph glyph-name="controlLF" unicode="&#xa;" horiz-adv-x="0" 
 />
    <glyph glyph-name="space" unicode=" " horiz-adv-x="385" 
 />
    <glyph glyph-name="zero" unicode="0" horiz-adv-x="667" 
d="M50 366q0 61 20.5 110.5t58 85t89.5 55t116 19.5t116 -19.5t89 -55t57.5 -85t20.5 -110.5t-20.5 -110.5t-57.5 -85t-89 -55t-116 -19.5t-116 19.5t-89.5 55t-58 85t-20.5 110.5zM163 366q0 -55 12.5 -101t35 -78t54 -50t69.5 -18t69.5 18t54 50t34.5 78t12 101
q0 56 -12 101.5t-34.5 77.5t-54 50t-69.5 18t-69.5 -18t-54 -50t-35 -77.5t-12.5 -101.5z" />
    <glyph glyph-name="one" unicode="1" horiz-adv-x="360" 
d="M310 113v-12h-260v12l12 1q36 2 52 21t16 60v340q0 41 -16 60t-52 21l-12 1v12h260v-12l-12 -1q-36 -2 -52 -21t-16 -60v-340q0 -41 16 -60t52 -21z" />
    <glyph glyph-name="two" unicode="2" horiz-adv-x="587" 
d="M535 282l4 -1q-2 -29 -5 -64t-5 -65h-1l-5 -51h-470v22q78 48 142.5 85t110 72t70.5 72.5t25 86.5q0 54 -34 87.5t-90 33.5q-58 0 -103.5 -24t-61.5 -64l-13 8q14 35 37.5 63.5t53.5 48.5t65 31t72 11q42 0 76.5 -11.5t58.5 -32.5t37.5 -50.5t13.5 -65.5
q0 -34 -20.5 -65.5t-58.5 -63.5t-93 -67t-123 -76h216q41 0 61.5 16t25.5 52l2 12h12z" />
    <glyph glyph-name="three" unicode="3" horiz-adv-x="557" 
d="M233 283l-1 2q-11 0 -28 -4.5t-29 -7.5v17q14 5 25.5 8.5t21.5 7.5q69 29 109 72t40 88t-33 71.5t-87 26.5q-61 0 -113 -19.5t-76 -51.5l-12 8q23 30 52.5 55t62.5 43t67.5 27.5t68.5 9.5q77 0 123.5 -37.5t46.5 -99.5q0 -45 -43.5 -91t-120.5 -85q45 -4 82 -18.5
t63.5 -37.5t40.5 -54t14 -67q0 -56 -31.5 -104t-89.5 -83.5t-139.5 -57.5t-180.5 -26l-1 18q75 3 137 22.5t106 51.5t68 76t24 96q0 66 -46 105t-121 39z" />
    <glyph glyph-name="four" unicode="4" horiz-adv-x="640" 
d="M50 121h-1q102 139 184 251q50 67 80 106.5t56.5 73t46 57t25.5 26.5h17v-488h131v-45h-131v-158h-101v158h-307v19zM108 147l248 2v324q0 6 1 10q-31 -41 -66 -88t-68.5 -92.5t-63.5 -86.5t-51 -69z" />
    <glyph glyph-name="five" unicode="5" horiz-adv-x="534" 
d="M425 523h-291q-2 -31 -5 -62.5t-6 -60.5h77q60 0 109.5 -15t84.5 -43t54.5 -67t19.5 -87q0 -60 -30 -109.5t-85 -86t-132 -57.5t-171 -24l-1 20q72 2 130.5 19t100 46.5t64.5 70t23 89.5q0 33 -15.5 59.5t-44 45.5t-69 29.5t-89.5 10.5h-38q1 0 3 15q-1 -7 -1 -13
q-1 -2 -1 -4h-25q7 66 12 128q3 36 5 60.5t3.5 50t2.5 49t1 42.5h251q41 0 65.5 16t38.5 52l5 12h12q-5 -17 -11 -38t-12 -41z" />
    <glyph glyph-name="six" unicode="6" horiz-adv-x="615" 
d="M537 856l3 -19q-84 -3 -152.5 -32.5t-116.5 -81.5t-74.5 -123.5t-26.5 -157.5q23 54 66 83.5t103 29.5q51 0 92.5 -16.5t71 -46t46 -71.5t16.5 -93q3 -52 -14.5 -95t-51.5 -74t-83 -47.5t-111 -16.5q-57 0 -104 23t-80.5 64.5t-51.5 100t-18 129.5q0 96 35 176t98.5 138
t153.5 92t199 38zM324 526l-1 1q-73 0 -113.5 -58t-42.5 -153q0 -43 11 -78.5t30.5 -60.5t47 -39t61.5 -14t61.5 14.5t46 40.5t27.5 62.5t7 81.5q0 46 -9.5 83.5t-27.5 64t-43 41t-55 14.5z" />
    <glyph glyph-name="seven" unicode="7" horiz-adv-x="567" 
d="M50 447l1 1q2 29 5 65t5 66l4 52h443l8 -9q-58 -168 -116 -333.5t-117 -333.5h-112l297 572h-317q-41 0 -61.5 -16t-25.5 -52l-2 -12h-12z" />
    <glyph glyph-name="eight" unicode="8" horiz-adv-x="588" 
d="M370 475l2 -1q77 -38 122 -88t45 -98q0 -43 -17.5 -79t-49.5 -61t-77 -39t-100 -14t-100 12.5t-77 35.5t-49.5 55.5t-17.5 72.5q0 62 42.5 104.5t115.5 57.5q-60 34 -94.5 83t-34.5 103q0 41 15 75t43 58t67 37.5t87 13.5t86.5 -11t66.5 -31t43 -48.5t15 -63.5
q0 -59 -36 -104.5t-97 -69.5zM149 287l2 1q0 -77 42 -123.5t111 -46.5q66 0 105 37.5t39 98.5q0 40 -48 81t-128 70q-24 8 -44 18q-37 -16 -58 -51.5t-21 -84.5zM359 482l2 -1q29 20 46 59.5t17 90.5h1q0 68 -36.5 108.5t-96.5 40.5q-56 0 -89.5 -33.5t-33.5 -89.5
q0 -47 38 -89.5t101 -65.5q14 -5 26.5 -10t24.5 -10z" />
    <glyph glyph-name="nine" unicode="9" horiz-adv-x="615" 
d="M78 -125l-3 19q84 3 152.5 32.5t116.5 81.5t74.5 123.5t26.5 157.5q-23 -54 -66 -83.5t-103 -29.5q-51 0 -92.5 16.5t-71 46t-46 71.5t-16.5 93q-3 53 14.5 95.5t51.5 73.5t83.5 47.5t110.5 16.5q57 0 104 -23t80.5 -64.5t51.5 -100t18 -129.5q0 -96 -35 -176t-98.5 -138
t-153 -92t-199.5 -38zM291 205l1 -1q73 0 113.5 58t42.5 153q0 43 -11 78.5t-30.5 60.5t-47 39t-61.5 14t-61.5 -14.5t-46 -40.5t-27.5 -62.5t-7 -81.5q0 -46 9.5 -83.5t27.5 -64t43 -41t55 -14.5z" />
    <glyph glyph-name="A" unicode="A" horiz-adv-x="849" 
d="M50 2v12l13 1q65 3 94 70l239 630h27l271 -619q22 -48 44.5 -65t60.5 -17v-12h-298v12l26 1q41 2 51.5 20.5t-6.5 60.5l-64 152h-256l-52 -143q-16 -46 -1.5 -67t62.5 -23l17 -1v-12h-228zM495 277l-124 294l-108 -294h232z" />
    <glyph glyph-name="A" unicode="&#xc5;" horiz-adv-x="849" 
d="M50 2v12l13 1q65 3 94 70l239 630h27l271 -619q22 -48 44.5 -65t60.5 -17v-12h-298v12l26 1q41 2 51.5 20.5t-6.5 60.5l-64 152h-256l-52 -143q-16 -46 -1.5 -67t62.5 -23l17 -1v-12h-228zM495 277l-124 294l-108 -294h232z" />
    <glyph glyph-name="A" unicode="&#xc4;" horiz-adv-x="849" 
d="M50 2v12l13 1q65 3 94 70l239 630h27l271 -619q22 -48 44.5 -65t60.5 -17v-12h-298v12l26 1q41 2 51.5 20.5t-6.5 60.5l-64 152h-256l-52 -143q-16 -46 -1.5 -67t62.5 -23l17 -1v-12h-228zM495 277l-124 294l-108 -294h232z" />
    <glyph glyph-name="A" unicode="&#xc3;" horiz-adv-x="849" 
d="M50 2v12l13 1q65 3 94 70l239 630h27l271 -619q22 -48 44.5 -65t60.5 -17v-12h-298v12l26 1q41 2 51.5 20.5t-6.5 60.5l-64 152h-256l-52 -143q-16 -46 -1.5 -67t62.5 -23l17 -1v-12h-228zM495 277l-124 294l-108 -294h232z" />
    <glyph glyph-name="A" unicode="&#xc2;" horiz-adv-x="849" 
d="M50 2v12l13 1q65 3 94 70l239 630h27l271 -619q22 -48 44.5 -65t60.5 -17v-12h-298v12l26 1q41 2 51.5 20.5t-6.5 60.5l-64 152h-256l-52 -143q-16 -46 -1.5 -67t62.5 -23l17 -1v-12h-228zM495 277l-124 294l-108 -294h232z" />
    <glyph glyph-name="A" unicode="&#xc1;" horiz-adv-x="849" 
d="M50 2v12l13 1q65 3 94 70l239 630h27l271 -619q22 -48 44.5 -65t60.5 -17v-12h-298v12l26 1q41 2 51.5 20.5t-6.5 60.5l-64 152h-256l-52 -143q-16 -46 -1.5 -67t62.5 -23l17 -1v-12h-228zM495 277l-124 294l-108 -294h232z" />
    <glyph glyph-name="A" unicode="&#xc0;" horiz-adv-x="849" 
d="M50 2v12l13 1q65 3 94 70l239 630h27l271 -619q22 -48 44.5 -65t60.5 -17v-12h-298v12l26 1q41 2 51.5 20.5t-6.5 60.5l-64 152h-256l-52 -143q-16 -46 -1.5 -67t62.5 -23l17 -1v-12h-228zM495 277l-124 294l-108 -294h232z" />
    <glyph glyph-name="B" unicode="B" horiz-adv-x="741" 
d="M50 687v12h340q55 0 99.5 -11.5t76.5 -33t49.5 -51.5t17.5 -67q0 -59 -45.5 -100t-125.5 -58q105 -14 167 -63t62 -120q0 -43 -19.5 -79t-55.5 -61t-86.5 -39t-112.5 -14h-367v12l12 1q36 2 52 21t16 60v509q0 41 -16 60t-52 21zM242 384h119q72 0 116 41t44 110
q0 61 -36 98t-95 37h-148v-286zM243 30l164 1q75 0 121 44.5t46 119.5q0 37 -16 67.5t-45.5 52t-71 33t-92.5 11.5h-106v-329z" />
    <glyph glyph-name="C" unicode="C" horiz-adv-x="766" 
d="M708 485l-1 -1q-3 9 -7 20t-7 20q-23 60 -70.5 99.5t-104.5 47.5q0 1 -11.5 2t-26 1.5t-27.5 1t-15 0.5q-59 0 -108 -23.5t-83.5 -66t-53.5 -102.5t-19 -133t19 -133t53.5 -102.5t83.5 -66t108 -23.5h18t18 1q37 2 71.5 14t63 31.5t50.5 46.5t34 58q3 9 7 20t7 20h9v-157
q-24 -14 -56 -25.5t-68.5 -19.5t-76 -12.5t-77.5 -4.5q-87 0 -158.5 25.5t-122 71.5t-78.5 111.5t-28 144.5q0 80 28 145t78.5 111t122 71.5t158.5 25.5q38 0 77.5 -4.5t76 -12.5t68.5 -19.5t56 -25.5v-157h-8z" />
    <glyph glyph-name="C" unicode="&#xc7;" horiz-adv-x="766" 
d="M708 485l-1 -1q-3 9 -7 20t-7 20q-23 60 -70.5 99.5t-104.5 47.5q0 1 -11.5 2t-26 1.5t-27.5 1t-15 0.5q-59 0 -108 -23.5t-83.5 -66t-53.5 -102.5t-19 -133t19 -133t53.5 -102.5t83.5 -66t108 -23.5h18t18 1q37 2 71.5 14t63 31.5t50.5 46.5t34 58q3 9 7 20t7 20h9v-157
q-24 -14 -56 -25.5t-68.5 -19.5t-76 -12.5t-77.5 -4.5q-87 0 -158.5 25.5t-122 71.5t-78.5 111.5t-28 144.5q0 80 28 145t78.5 111t122 71.5t158.5 25.5q38 0 77.5 -4.5t76 -12.5t68.5 -19.5t56 -25.5v-157h-8z" />
    <glyph glyph-name="D" unicode="D" horiz-adv-x="810" 
d="M50 699l321 -1q87 0 158.5 -25t122.5 -70.5t79 -110t28 -142.5t-25 -142.5t-70 -110t-108.5 -70.5t-141.5 -25h-364v12l12 1q36 2 52 21t16 60v509q0 41 -16 60t-52 21l-12 1v12zM242 30h173q53 0 95.5 23t73.5 65t47.5 101t16.5 131t-20 131t-56.5 101t-87.5 65t-113 23
h-129v-640z" />
    <glyph glyph-name="E" unicode="E" horiz-adv-x="657" 
d="M496 270h-1l-4 14q-12 40 -42 58t-84 18h-124v-329h166q60 0 102 27.5t74 87.5l15 27h8q-6 -36 -13.5 -79t-13.5 -79h-1l-2 -14h-527v12l12 1q36 2 52 21t16 60v509q0 41 -16 60t-52 21l-12 1v12h527v-171h-8l-9 27q-20 60 -57.5 87.5t-97.5 27.5h-162v-283h124
q54 0 83.5 16t42.5 52l4 12h9v-196h-9z" />
    <glyph glyph-name="E" unicode="&#xcb;" horiz-adv-x="657" 
d="M496 270h-1l-4 14q-12 40 -42 58t-84 18h-124v-329h166q60 0 102 27.5t74 87.5l15 27h8q-6 -36 -13.5 -79t-13.5 -79h-1l-2 -14h-527v12l12 1q36 2 52 21t16 60v509q0 41 -16 60t-52 21l-12 1v12h527v-171h-8l-9 27q-20 60 -57.5 87.5t-97.5 27.5h-162v-283h124
q54 0 83.5 16t42.5 52l4 12h9v-196h-9z" />
    <glyph glyph-name="E" unicode="&#xca;" horiz-adv-x="657" 
d="M496 270h-1l-4 14q-12 40 -42 58t-84 18h-124v-329h166q60 0 102 27.5t74 87.5l15 27h8q-6 -36 -13.5 -79t-13.5 -79h-1l-2 -14h-527v12l12 1q36 2 52 21t16 60v509q0 41 -16 60t-52 21l-12 1v12h527v-171h-8l-9 27q-20 60 -57.5 87.5t-97.5 27.5h-162v-283h124
q54 0 83.5 16t42.5 52l4 12h9v-196h-9z" />
    <glyph glyph-name="E" unicode="&#xc9;" horiz-adv-x="657" 
d="M496 270h-1l-4 14q-12 40 -42 58t-84 18h-124v-329h166q60 0 102 27.5t74 87.5l15 27h8q-6 -36 -13.5 -79t-13.5 -79h-1l-2 -14h-527v12l12 1q36 2 52 21t16 60v509q0 41 -16 60t-52 21l-12 1v12h527v-171h-8l-9 27q-20 60 -57.5 87.5t-97.5 27.5h-162v-283h124
q54 0 83.5 16t42.5 52l4 12h9v-196h-9z" />
    <glyph glyph-name="E" unicode="&#xc8;" horiz-adv-x="657" 
d="M496 270h-1l-4 14q-12 40 -42 58t-84 18h-124v-329h166q60 0 102 27.5t74 87.5l15 27h8q-6 -36 -13.5 -79t-13.5 -79h-1l-2 -14h-527v12l12 1q36 2 52 21t16 60v509q0 41 -16 60t-52 21l-12 1v12h527v-171h-8l-9 27q-20 60 -57.5 87.5t-97.5 27.5h-162v-283h124
q54 0 83.5 16t42.5 52l4 12h9v-196h-9z" />
    <glyph glyph-name="F" unicode="F" 
d="M50 687l-2 11h559v-171h-8l-9 27q-20 60 -57.5 87.5t-97.5 27.5h-193v-288h113q54 0 83.5 16t42.5 52l4 12h9v-196h-9l-4 14q-12 40 -42 58t-84 18h-113v-259q0 -41 18 -60t58 -21l14 -1v-12h-282v12l12 1q36 2 52 21t16 60v509q0 41 -16 60t-52 21z" />
    <glyph glyph-name="G" unicode="G" horiz-adv-x="830" 
d="M695 484l-9 1q-3 9 -7 20t-7 20q-23 60 -71 100.5t-105 46.5q0 1 -10 2t-22 1.5t-23 0.5h-13q-57 0 -103.5 -23.5t-80 -66t-51.5 -102.5t-18 -133t18 -133t51.5 -102.5t80 -66t103.5 -23.5q44 0 88 6t84 17v186q0 41 -16 60t-52 21l-12 1v12h260v-12l-12 -1
q-36 -2 -52 -21t-16 -60v-176q-24 -14 -55.5 -25.5t-67.5 -19.5t-74.5 -12.5t-75.5 -4.5q-85 0 -154.5 25.5t-119 71.5t-76.5 111.5t-27 144.5q0 80 27 145t76.5 111t119 71.5t154.5 25.5q36 0 73.5 -4.5t72.5 -12.5t66.5 -19.5t55.5 -25.5v-157z" />
    <glyph glyph-name="H" unicode="H" horiz-adv-x="868" 
d="M818 14v-12h-271v12l12 1q36 2 52 21t16 60v259h-383v-259q0 -41 16 -60t52 -21l12 -1v-12h-271v12l12 1q36 2 52 21t16 60v509q0 41 -16 60t-52 21l-12 1v12h271v-12l-12 -1q-36 -2 -52 -21t-16 -60v-223h383v223q0 41 -16 60t-52 21l-12 1v12h271v-12l-12 -1
q-36 -2 -52 -21t-16 -60v-509q0 -41 16 -60t52 -21z" />
    <glyph glyph-name="I" unicode="I" horiz-adv-x="371" 
d="M321 14v-12h-271v12l12 1q36 2 52 21t16 60v509q0 41 -16 60t-52 21l-12 1v12h271v-12l-12 -1q-36 -2 -52 -21t-16 -60v-509q0 -41 16 -60t52 -21z" />
    <glyph glyph-name="I" unicode="&#xcf;" horiz-adv-x="371" 
d="M321 14v-12h-271v12l12 1q36 2 52 21t16 60v509q0 41 -16 60t-52 21l-12 1v12h271v-12l-12 -1q-36 -2 -52 -21t-16 -60v-509q0 -41 16 -60t52 -21z" />
    <glyph glyph-name="I" unicode="&#xce;" horiz-adv-x="371" 
d="M321 14v-12h-271v12l12 1q36 2 52 21t16 60v509q0 41 -16 60t-52 21l-12 1v12h271v-12l-12 -1q-36 -2 -52 -21t-16 -60v-509q0 -41 16 -60t52 -21z" />
    <glyph glyph-name="I" unicode="&#xcd;" horiz-adv-x="371" 
d="M321 14v-12h-271v12l12 1q36 2 52 21t16 60v509q0 41 -16 60t-52 21l-12 1v12h271v-12l-12 -1q-36 -2 -52 -21t-16 -60v-509q0 -41 16 -60t52 -21z" />
    <glyph glyph-name="I" unicode="&#xcc;" horiz-adv-x="371" 
d="M321 14v-12h-271v12l12 1q36 2 52 21t16 60v509q0 41 -16 60t-52 21l-12 1v12h271v-12l-12 -1q-36 -2 -52 -21t-16 -60v-509q0 -41 16 -60t52 -21z" />
    <glyph glyph-name="J" unicode="J" horiz-adv-x="512" 
d="M462 699l3 -12l-12 -1q-36 -2 -52 -21t-16 -60v-297q0 -85 -11 -145.5t-35.5 -98.5t-63 -55.5t-93.5 -17.5q-51 0 -86.5 18t-42.5 48q-5 20 7.5 32t37.5 12q18 0 31.5 -12t18.5 -32t21.5 -32t39.5 -12q33 0 47.5 46t14.5 154v392q0 41 -16 60t-52 21l-12 1v12h271z" />
    <glyph glyph-name="K" unicode="K" horiz-adv-x="789" 
d="M684 699l5 -11l-13 -1q-36 -2 -70 -19t-73 -53l-188 -182q20 -26 62.5 -80t102.5 -129q45 -57 79.5 -96t61.5 -63t48.5 -35t41.5 -11v-22h-39q-42 0 -77.5 8t-68.5 26t-64.5 46.5t-63.5 68.5q-22 27 -50.5 63t-54.5 68q-30 38 -62 77l-18 23v-281q0 -41 16 -60t52 -21
l12 -1v-12h-271v12l12 1q36 2 52 21t16 60v509q0 41 -16 60t-52 21l-12 1v12h271v-12l-12 -1q-36 -2 -52 -21t-16 -60v-228l249 243q62 63 11 66l-9 1v12h190z" />
    <glyph glyph-name="L" unicode="L" 
d="M595 189l1 -1q4 -1 7 -2q7 -4 7 -6q-6 -38 -14 -82.5t-14 -82.5l-2 -14h-528v12l12 1q36 2 52 21t16 60v509q0 41 -16 60t-52 21l-12 1v12h271v-12l-12 -1q-36 -2 -52 -21t-16 -60v-574h177q55 0 90.5 25t60.5 80z" />
    <glyph glyph-name="M" unicode="M" horiz-adv-x="1005" 
d="M923 687l3 1l-13 -1q-34 -2 -48.5 -20.5t-13.5 -57.5l23 -512q2 -41 18.5 -60t51.5 -21l13 -1v-12h-270v12l12 1q35 2 50 21.5t14 59.5l-16 517l-263 -617h-29l-270 564l-17 -449q-2 -49 19.5 -72t70.5 -25l21 -1v-12h-229v12l13 1q35 2 51 21.5t18 59.5l20 522
q-1 65 -64 68l-12 1v12h167l262 -569l2 -3l235 572h181v-12z" />
    <glyph glyph-name="N" unicode="N" horiz-adv-x="800" 
d="M50 687l-1 12h181l407 -535v441q0 41 -16 60t-52 21l-12 1v12h192v-12l-12 -1q-36 -2 -52 -21t-16 -60v-624h-34q-118 156 -236 310.5t-237 310.5v-506q0 -41 16 -60t52 -21l12 -1v-12h-192v12l12 1q36 2 52 21t16 60v509q0 41 -16 60t-52 21z" />
    <glyph glyph-name="N" unicode="&#xd1;" horiz-adv-x="800" 
d="M50 687l-1 12h181l407 -535v441q0 41 -16 60t-52 21l-12 1v12h192v-12l-12 -1q-36 -2 -52 -21t-16 -60v-624h-34q-118 156 -236 310.5t-237 310.5v-506q0 -41 16 -60t52 -21l12 -1v-12h-192v12l12 1q36 2 52 21t16 60v509q0 41 -16 60t-52 21z" />
    <glyph glyph-name="O" unicode="O" horiz-adv-x="825" 
d="M50 350q0 72 23 136t69 112.5t114 77t158 28.5t157.5 -28.5t113.5 -77t69 -112.5t23 -136t-23 -136t-69 -112.5t-113.5 -77t-157.5 -28.5t-158 28.5t-114 77t-69 112.5t-23 136zM174 350q0 -66 15 -125t45 -103.5t75 -70.5t104 -26t103.5 26t74 70.5t44.5 103.5t15 125
t-15 125t-44.5 103.5t-74 70.5t-103.5 26t-104 -26t-75 -70.5t-45 -103.5t-15 -125z" />
    <glyph glyph-name="O" unicode="&#xd8;" horiz-adv-x="825" 
d="M50 350q0 72 23 136t69 112.5t114 77t158 28.5t157.5 -28.5t113.5 -77t69 -112.5t23 -136t-23 -136t-69 -112.5t-113.5 -77t-157.5 -28.5t-158 28.5t-114 77t-69 112.5t-23 136zM174 350q0 -66 15 -125t45 -103.5t75 -70.5t104 -26t103.5 26t74 70.5t44.5 103.5t15 125
t-15 125t-44.5 103.5t-74 70.5t-103.5 26t-104 -26t-75 -70.5t-45 -103.5t-15 -125z" />
    <glyph glyph-name="O" unicode="&#xd6;" horiz-adv-x="825" 
d="M50 350q0 72 23 136t69 112.5t114 77t158 28.5t157.5 -28.5t113.5 -77t69 -112.5t23 -136t-23 -136t-69 -112.5t-113.5 -77t-157.5 -28.5t-158 28.5t-114 77t-69 112.5t-23 136zM174 350q0 -66 15 -125t45 -103.5t75 -70.5t104 -26t103.5 26t74 70.5t44.5 103.5t15 125
t-15 125t-44.5 103.5t-74 70.5t-103.5 26t-104 -26t-75 -70.5t-45 -103.5t-15 -125z" />
    <glyph glyph-name="O" unicode="&#xd5;" horiz-adv-x="825" 
d="M50 350q0 72 23 136t69 112.5t114 77t158 28.5t157.5 -28.5t113.5 -77t69 -112.5t23 -136t-23 -136t-69 -112.5t-113.5 -77t-157.5 -28.5t-158 28.5t-114 77t-69 112.5t-23 136zM174 350q0 -66 15 -125t45 -103.5t75 -70.5t104 -26t103.5 26t74 70.5t44.5 103.5t15 125
t-15 125t-44.5 103.5t-74 70.5t-103.5 26t-104 -26t-75 -70.5t-45 -103.5t-15 -125z" />
    <glyph glyph-name="O" unicode="&#xd4;" horiz-adv-x="825" 
d="M50 350q0 72 23 136t69 112.5t114 77t158 28.5t157.5 -28.5t113.5 -77t69 -112.5t23 -136t-23 -136t-69 -112.5t-113.5 -77t-157.5 -28.5t-158 28.5t-114 77t-69 112.5t-23 136zM174 350q0 -66 15 -125t45 -103.5t75 -70.5t104 -26t103.5 26t74 70.5t44.5 103.5t15 125
t-15 125t-44.5 103.5t-74 70.5t-103.5 26t-104 -26t-75 -70.5t-45 -103.5t-15 -125z" />
    <glyph glyph-name="O" unicode="&#xd3;" horiz-adv-x="825" 
d="M50 350q0 72 23 136t69 112.5t114 77t158 28.5t157.5 -28.5t113.5 -77t69 -112.5t23 -136t-23 -136t-69 -112.5t-113.5 -77t-157.5 -28.5t-158 28.5t-114 77t-69 112.5t-23 136zM174 350q0 -66 15 -125t45 -103.5t75 -70.5t104 -26t103.5 26t74 70.5t44.5 103.5t15 125
t-15 125t-44.5 103.5t-74 70.5t-103.5 26t-104 -26t-75 -70.5t-45 -103.5t-15 -125z" />
    <glyph glyph-name="O" unicode="&#xd2;" horiz-adv-x="825" 
d="M50 350q0 72 23 136t69 112.5t114 77t158 28.5t157.5 -28.5t113.5 -77t69 -112.5t23 -136t-23 -136t-69 -112.5t-113.5 -77t-157.5 -28.5t-158 28.5t-114 77t-69 112.5t-23 136zM174 350q0 -66 15 -125t45 -103.5t75 -70.5t104 -26t103.5 26t74 70.5t44.5 103.5t15 125
t-15 125t-44.5 103.5t-74 70.5t-103.5 26t-104 -26t-75 -70.5t-45 -103.5t-15 -125z" />
    <glyph glyph-name="P" unicode="P" horiz-adv-x="695" 
d="M321 14l-1 -13h-271v12l12 1q36 2 52 21t16 60v509q0 41 -16 60t-52 21l-12 1v12h343q57 0 103.5 -14t79.5 -39t51 -60.5t18 -78.5t-20.5 -79t-57.5 -61.5t-89 -39.5t-115 -14h-121v-216q0 -41 16 -60t52 -21zM241 340h122q74 0 118.5 45.5t44.5 120.5q0 74 -37 118.5
t-97 44.5h-151v-329z" />
    <glyph glyph-name="Q" unicode="Q" horiz-adv-x="933" 
d="M883 -16l-4 -1q-32 -42 -84.5 -66.5t-106.5 -24.5q-103 0 -178.5 27.5t-128.5 74.5q-83 5 -145.5 35t-104.5 78t-63.5 110t-21.5 131q0 72 23 136t69 112.5t114 77t158 28.5t157.5 -28.5t113.5 -77t69 -112.5t23 -136q0 -70 -22 -132.5t-65 -110.5t-107 -77t-149 -32
q31 -13 97 -20.5t175 -7.5q68 0 114.5 7.5t55.5 18.5l11 -8v-2zM169 347q0 -66 15 -125t45 -103.5t75 -70.5t104 -26t103.5 26t74 70.5t44.5 103.5t15 125t-15 125t-44.5 103.5t-74 70.5t-103.5 26t-104 -26t-75 -70.5t-45 -103.5t-15 -125z" />
    <glyph glyph-name="R" unicode="R" horiz-adv-x="805" 
d="M51 687l-3 14h340q56 0 101.5 -13t78 -36.5t50.5 -56.5t18 -74q0 -66 -46.5 -111.5t-127.5 -63.5q22 -27 72 -92t121 -159q20 -25 31 -39t20.5 -21t19.5 -8t27 -1v-22h-40q-46 0 -73 2.5t-47.5 13t-40.5 33.5t-50 63q-57 75 -99.5 131.5t-65.5 85.5h-95v-237
q0 -41 16 -60t52 -21l12 -1v-12h-271v12l12 1q36 2 52 21t16 60v509q0 41 -16 60t-52 21zM358 363h1q72 0 115.5 43t43.5 115q0 69 -35.5 110t-94.5 41h-148v-309h118z" />
    <glyph glyph-name="S" unicode="S" horiz-adv-x="576" 
d="M483 489l-9 1q-7 19 -15.5 41.5t-16.5 41.5q-14 38 -43 64.5t-63 33.5q0 1 -7.5 2t-17 2t-18 1.5l-8.5 0.5q-69 0 -111 -37.5t-42 -99.5q0 -20 14.5 -40.5t40.5 -39.5t63.5 -35.5t82.5 -29.5q44 -12 79.5 -32.5t61 -47t39.5 -57t14 -63.5q0 -45 -17 -81.5t-48 -62.5
t-74.5 -40t-96.5 -14q-34 0 -68.5 3.5t-66 10t-58.5 16t-47 20.5v166h9q3 -9 7 -20t7 -20q23 -60 72 -100t106 -45l5.5 -0.5t12.5 -1t13 -0.5h7q71 0 114 34t43 90q0 23 -14.5 45.5t-41 43t-64 38t-82.5 30.5q-43 12 -78.5 31.5t-60.5 44t-38.5 53.5t-13.5 59q0 47 17 86
t47.5 66.5t74 42.5t96.5 15q49 0 102 -13.5t92 -36.5v0v-166z" />
    <glyph glyph-name="T" unicode="T" horiz-adv-x="782" 
d="M60 512l-12 1q0 5 2.5 32.5t5 59t4.5 56.5t3 25l1 14h650l1 -14q3 -39 7 -87t7 -87h-9l-27 64q-20 49 -51.5 71.5t-82.5 22.5h-113v-574q0 -41 16 -60t52 -21l12 -1v-12h-271v12l12 1q36 2 52 21t16 60v574h-114q-49 0 -80.5 -22.5t-53.5 -71.5z" />
    <glyph glyph-name="U" unicode="U" horiz-adv-x="799" 
d="M749 699l1 -12l-14 -1q-40 -2 -58 -24t-18 -68v-394q0 -46 -14.5 -83.5t-45.5 -64t-80.5 -41t-119.5 -14.5q-73 0 -124 17t-83.5 47.5t-47.5 74t-15 96.5v373q0 41 -16 60t-52 21l-12 1v12h271v-12l-12 -1q-36 -2 -52 -21t-16 -60v-395q0 -79 40.5 -127t134.5 -48
q57 0 96.5 13t64.5 36t36.5 55.5t11.5 72.5v382q0 46 -19 68t-61 24l-15 1v12h219z" />
    <glyph glyph-name="U" unicode="&#xdc;" horiz-adv-x="799" 
d="M749 699l1 -12l-14 -1q-40 -2 -58 -24t-18 -68v-394q0 -46 -14.5 -83.5t-45.5 -64t-80.5 -41t-119.5 -14.5q-73 0 -124 17t-83.5 47.5t-47.5 74t-15 96.5v373q0 41 -16 60t-52 21l-12 1v12h271v-12l-12 -1q-36 -2 -52 -21t-16 -60v-395q0 -79 40.5 -127t134.5 -48
q57 0 96.5 13t64.5 36t36.5 55.5t11.5 72.5v382q0 46 -19 68t-61 24l-15 1v12h219z" />
    <glyph glyph-name="U" unicode="&#xdb;" horiz-adv-x="799" 
d="M749 699l1 -12l-14 -1q-40 -2 -58 -24t-18 -68v-394q0 -46 -14.5 -83.5t-45.5 -64t-80.5 -41t-119.5 -14.5q-73 0 -124 17t-83.5 47.5t-47.5 74t-15 96.5v373q0 41 -16 60t-52 21l-12 1v12h271v-12l-12 -1q-36 -2 -52 -21t-16 -60v-395q0 -79 40.5 -127t134.5 -48
q57 0 96.5 13t64.5 36t36.5 55.5t11.5 72.5v382q0 46 -19 68t-61 24l-15 1v12h219z" />
    <glyph glyph-name="U" unicode="&#xda;" horiz-adv-x="799" 
d="M749 699l1 -12l-14 -1q-40 -2 -58 -24t-18 -68v-394q0 -46 -14.5 -83.5t-45.5 -64t-80.5 -41t-119.5 -14.5q-73 0 -124 17t-83.5 47.5t-47.5 74t-15 96.5v373q0 41 -16 60t-52 21l-12 1v12h271v-12l-12 -1q-36 -2 -52 -21t-16 -60v-395q0 -79 40.5 -127t134.5 -48
q57 0 96.5 13t64.5 36t36.5 55.5t11.5 72.5v382q0 46 -19 68t-61 24l-15 1v12h219z" />
    <glyph glyph-name="U" unicode="&#xd9;" horiz-adv-x="799" 
d="M749 699l1 -12l-14 -1q-40 -2 -58 -24t-18 -68v-394q0 -46 -14.5 -83.5t-45.5 -64t-80.5 -41t-119.5 -14.5q-73 0 -124 17t-83.5 47.5t-47.5 74t-15 96.5v373q0 41 -16 60t-52 21l-12 1v12h271v-12l-12 -1q-36 -2 -52 -21t-16 -60v-395q0 -79 40.5 -127t134.5 -48
q57 0 96.5 13t64.5 36t36.5 55.5t11.5 72.5v382q0 46 -19 68t-61 24l-15 1v12h219z" />
    <glyph glyph-name="V" unicode="V" horiz-adv-x="844" 
d="M337 687l2 -1l-20 -1q-73 -3 -50 -67l214 -485l158 439q20 57 5 84t-69 29l-18 1v12h235v-12l-12 -1q-65 -3 -94 -70l-231 -629h-29l-279 619q-18 41 -39.5 60t-50.5 21l-9 1v12h287v-12z" />
    <glyph glyph-name="W" unicode="W" horiz-adv-x="1195" 
d="M329 687l-2 -1l-14 -1q-73 -3 -51 -70l170 -470l183 564h29l-235 -723h-27l-238 619q-16 41 -36 60t-49 21l-9 1v12h279v-12zM811 -15l-225 544l58 179l220 -553zM1143 698l-1 -12l-12 -1q-36 -2 -57.5 -21.5t-35.5 -59.5l-198 -619h-29l193 619q13 42 1 60.5t-54 20.5
l-27 1v12h220z" />
    <glyph glyph-name="X" unicode="X" horiz-adv-x="794" 
d="M460 2l3 9l17 1q39 2 46.5 19.5t-15.5 53.5l-146 220l-127 -194q-32 -49 -25.5 -72t53.5 -25l16 -1v-12h-231v12l13 1q37 2 66 21t57 60l160 238q-45 68 -90 135.5t-90 136.5q-27 41 -52 60t-52 21l-9 1v12h284v-12l-17 -1q-39 -2 -46.5 -19.5t15.5 -53.5l128 -192
l121 190q23 38 15 55t-48 19l-27 1v12h234v-12l-13 -1q-37 -2 -66 -21t-57 -60l-143 -210q48 -75 98 -149t99 -149q27 -41 52 -60t52 -21l9 -1v-12h-284z" />
    <glyph glyph-name="Y" unicode="Y" horiz-adv-x="812" 
d="M264 2l3 14l12 1q33 2 48.5 18.5t17.5 51.5l-1 213l-186 306q-25 41 -49 60t-51 21l-8 1v12h281v-12l-13 -1q-38 -2 -43.5 -21.5t18.5 -59.5l150 -249l157 241q27 45 18.5 65.5t-52.5 22.5l-16 1v12h211v-12l-11 -1q-32 -2 -59 -21.5t-55 -59.5l-182 -271v-238
q0 -41 16 -60t52 -21l12 -1v-12h-270z" />
    <glyph glyph-name="Y" unicode="&#xdd;" horiz-adv-x="812" 
d="M264 2l3 14l12 1q33 2 48.5 18.5t17.5 51.5l-1 213l-186 306q-25 41 -49 60t-51 21l-8 1v12h281v-12l-13 -1q-38 -2 -43.5 -21.5t18.5 -59.5l150 -249l157 241q27 45 18.5 65.5t-52.5 22.5l-16 1v12h211v-12l-11 -1q-32 -2 -59 -21.5t-55 -59.5l-182 -271v-238
q0 -41 16 -60t52 -21l12 -1v-12h-270z" />
    <glyph glyph-name="Z" unicode="Z" horiz-adv-x="648" 
d="M584 190h-3q4 -1 7 -2q7 -4 7 -6q-6 -38 -14 -82.5t-14 -82.5l-2 -15h-517l400 668h-193q-49 0 -86.5 -22.5t-72.5 -71.5l-22 -33h-9q9 32 19.5 70t19.5 70h-1l4 15h489l-401 -667h214q55 0 90.5 25t60.5 80z" />
    <glyph glyph-name="a" unicode="a" horiz-adv-x="849" 
d="M50 2v12l13 1q65 3 94 70l239 630h27l271 -619q22 -48 44.5 -65t60.5 -17v-12h-298v12l26 1q41 2 51.5 20.5t-6.5 60.5l-64 152h-256l-52 -143q-16 -46 -1.5 -67t62.5 -23l17 -1v-12h-228zM495 277l-124 294l-108 -294h232z" />
    <glyph glyph-name="a" unicode="&#xe5;" horiz-adv-x="849" 
d="M50 2v12l13 1q65 3 94 70l239 630h27l271 -619q22 -48 44.5 -65t60.5 -17v-12h-298v12l26 1q41 2 51.5 20.5t-6.5 60.5l-64 152h-256l-52 -143q-16 -46 -1.5 -67t62.5 -23l17 -1v-12h-228zM495 277l-124 294l-108 -294h232z" />
    <glyph glyph-name="a" unicode="&#xe4;" horiz-adv-x="849" 
d="M50 2v12l13 1q65 3 94 70l239 630h27l271 -619q22 -48 44.5 -65t60.5 -17v-12h-298v12l26 1q41 2 51.5 20.5t-6.5 60.5l-64 152h-256l-52 -143q-16 -46 -1.5 -67t62.5 -23l17 -1v-12h-228zM495 277l-124 294l-108 -294h232z" />
    <glyph glyph-name="a" unicode="&#xe3;" horiz-adv-x="849" 
d="M50 2v12l13 1q65 3 94 70l239 630h27l271 -619q22 -48 44.5 -65t60.5 -17v-12h-298v12l26 1q41 2 51.5 20.5t-6.5 60.5l-64 152h-256l-52 -143q-16 -46 -1.5 -67t62.5 -23l17 -1v-12h-228zM495 277l-124 294l-108 -294h232z" />
    <glyph glyph-name="a" unicode="&#xe2;" horiz-adv-x="849" 
d="M50 2v12l13 1q65 3 94 70l239 630h27l271 -619q22 -48 44.5 -65t60.5 -17v-12h-298v12l26 1q41 2 51.5 20.5t-6.5 60.5l-64 152h-256l-52 -143q-16 -46 -1.5 -67t62.5 -23l17 -1v-12h-228zM495 277l-124 294l-108 -294h232z" />
    <glyph glyph-name="a" unicode="&#xe1;" horiz-adv-x="849" 
d="M50 2v12l13 1q65 3 94 70l239 630h27l271 -619q22 -48 44.5 -65t60.5 -17v-12h-298v12l26 1q41 2 51.5 20.5t-6.5 60.5l-64 152h-256l-52 -143q-16 -46 -1.5 -67t62.5 -23l17 -1v-12h-228zM495 277l-124 294l-108 -294h232z" />
    <glyph glyph-name="a" unicode="&#xe0;" horiz-adv-x="849" 
d="M50 2v12l13 1q65 3 94 70l239 630h27l271 -619q22 -48 44.5 -65t60.5 -17v-12h-298v12l26 1q41 2 51.5 20.5t-6.5 60.5l-64 152h-256l-52 -143q-16 -46 -1.5 -67t62.5 -23l17 -1v-12h-228zM495 277l-124 294l-108 -294h232z" />
    <glyph glyph-name="b" unicode="b" horiz-adv-x="741" 
d="M50 687v12h340q55 0 99.5 -11.5t76.5 -33t49.5 -51.5t17.5 -67q0 -59 -45.5 -100t-125.5 -58q105 -14 167 -63t62 -120q0 -43 -19.5 -79t-55.5 -61t-86.5 -39t-112.5 -14h-367v12l12 1q36 2 52 21t16 60v509q0 41 -16 60t-52 21zM242 384h119q72 0 116 41t44 110
q0 61 -36 98t-95 37h-148v-286zM243 30l164 1q75 0 121 44.5t46 119.5q0 37 -16 67.5t-45.5 52t-71 33t-92.5 11.5h-106v-329z" />
    <glyph glyph-name="c" unicode="c" horiz-adv-x="766" 
d="M708 485l-1 -1q-3 9 -7 20t-7 20q-23 60 -70.5 99.5t-104.5 47.5q0 1 -11.5 2t-26 1.5t-27.5 1t-15 0.5q-59 0 -108 -23.5t-83.5 -66t-53.5 -102.5t-19 -133t19 -133t53.5 -102.5t83.5 -66t108 -23.5h18t18 1q37 2 71.5 14t63 31.5t50.5 46.5t34 58q3 9 7 20t7 20h9v-157
q-24 -14 -56 -25.5t-68.5 -19.5t-76 -12.5t-77.5 -4.5q-87 0 -158.5 25.5t-122 71.5t-78.5 111.5t-28 144.5q0 80 28 145t78.5 111t122 71.5t158.5 25.5q38 0 77.5 -4.5t76 -12.5t68.5 -19.5t56 -25.5v-157h-8z" />
    <glyph glyph-name="c" unicode="&#xe7;" horiz-adv-x="766" 
d="M708 485l-1 -1q-3 9 -7 20t-7 20q-23 60 -70.5 99.5t-104.5 47.5q0 1 -11.5 2t-26 1.5t-27.5 1t-15 0.5q-59 0 -108 -23.5t-83.5 -66t-53.5 -102.5t-19 -133t19 -133t53.5 -102.5t83.5 -66t108 -23.5h18t18 1q37 2 71.5 14t63 31.5t50.5 46.5t34 58q3 9 7 20t7 20h9v-157
q-24 -14 -56 -25.5t-68.5 -19.5t-76 -12.5t-77.5 -4.5q-87 0 -158.5 25.5t-122 71.5t-78.5 111.5t-28 144.5q0 80 28 145t78.5 111t122 71.5t158.5 25.5q38 0 77.5 -4.5t76 -12.5t68.5 -19.5t56 -25.5v-157h-8z" />
    <glyph glyph-name="d" unicode="d" horiz-adv-x="810" 
d="M50 699l321 -1q87 0 158.5 -25t122.5 -70.5t79 -110t28 -142.5t-25 -142.5t-70 -110t-108.5 -70.5t-141.5 -25h-364v12l12 1q36 2 52 21t16 60v509q0 41 -16 60t-52 21l-12 1v12zM242 30h173q53 0 95.5 23t73.5 65t47.5 101t16.5 131t-20 131t-56.5 101t-87.5 65t-113 23
h-129v-640z" />
    <glyph glyph-name="e" unicode="e" horiz-adv-x="657" 
d="M496 270h-1l-4 14q-12 40 -42 58t-84 18h-124v-329h166q60 0 102 27.5t74 87.5l15 27h8q-6 -36 -13.5 -79t-13.5 -79h-1l-2 -14h-527v12l12 1q36 2 52 21t16 60v509q0 41 -16 60t-52 21l-12 1v12h527v-171h-8l-9 27q-20 60 -57.5 87.5t-97.5 27.5h-162v-283h124
q54 0 83.5 16t42.5 52l4 12h9v-196h-9z" />
    <glyph glyph-name="e" unicode="&#xeb;" horiz-adv-x="657" 
d="M496 270h-1l-4 14q-12 40 -42 58t-84 18h-124v-329h166q60 0 102 27.5t74 87.5l15 27h8q-6 -36 -13.5 -79t-13.5 -79h-1l-2 -14h-527v12l12 1q36 2 52 21t16 60v509q0 41 -16 60t-52 21l-12 1v12h527v-171h-8l-9 27q-20 60 -57.5 87.5t-97.5 27.5h-162v-283h124
q54 0 83.5 16t42.5 52l4 12h9v-196h-9z" />
    <glyph glyph-name="e" unicode="&#xea;" horiz-adv-x="657" 
d="M496 270h-1l-4 14q-12 40 -42 58t-84 18h-124v-329h166q60 0 102 27.5t74 87.5l15 27h8q-6 -36 -13.5 -79t-13.5 -79h-1l-2 -14h-527v12l12 1q36 2 52 21t16 60v509q0 41 -16 60t-52 21l-12 1v12h527v-171h-8l-9 27q-20 60 -57.5 87.5t-97.5 27.5h-162v-283h124
q54 0 83.5 16t42.5 52l4 12h9v-196h-9z" />
    <glyph glyph-name="e" unicode="&#xe9;" horiz-adv-x="657" 
d="M496 270h-1l-4 14q-12 40 -42 58t-84 18h-124v-329h166q60 0 102 27.5t74 87.5l15 27h8q-6 -36 -13.5 -79t-13.5 -79h-1l-2 -14h-527v12l12 1q36 2 52 21t16 60v509q0 41 -16 60t-52 21l-12 1v12h527v-171h-8l-9 27q-20 60 -57.5 87.5t-97.5 27.5h-162v-283h124
q54 0 83.5 16t42.5 52l4 12h9v-196h-9z" />
    <glyph glyph-name="e" unicode="&#xe8;" horiz-adv-x="657" 
d="M496 270h-1l-4 14q-12 40 -42 58t-84 18h-124v-329h166q60 0 102 27.5t74 87.5l15 27h8q-6 -36 -13.5 -79t-13.5 -79h-1l-2 -14h-527v12l12 1q36 2 52 21t16 60v509q0 41 -16 60t-52 21l-12 1v12h527v-171h-8l-9 27q-20 60 -57.5 87.5t-97.5 27.5h-162v-283h124
q54 0 83.5 16t42.5 52l4 12h9v-196h-9z" />
    <glyph glyph-name="f" unicode="f" 
d="M50 687l-2 11h559v-171h-8l-9 27q-20 60 -57.5 87.5t-97.5 27.5h-193v-288h113q54 0 83.5 16t42.5 52l4 12h9v-196h-9l-4 14q-12 40 -42 58t-84 18h-113v-259q0 -41 18 -60t58 -21l14 -1v-12h-282v12l12 1q36 2 52 21t16 60v509q0 41 -16 60t-52 21z" />
    <glyph glyph-name="g" unicode="g" horiz-adv-x="830" 
d="M695 484l-9 1q-3 9 -7 20t-7 20q-23 60 -71 100.5t-105 46.5q0 1 -10 2t-22 1.5t-23 0.5h-13q-57 0 -103.5 -23.5t-80 -66t-51.5 -102.5t-18 -133t18 -133t51.5 -102.5t80 -66t103.5 -23.5q44 0 88 6t84 17v186q0 41 -16 60t-52 21l-12 1v12h260v-12l-12 -1
q-36 -2 -52 -21t-16 -60v-176q-24 -14 -55.5 -25.5t-67.5 -19.5t-74.5 -12.5t-75.5 -4.5q-85 0 -154.5 25.5t-119 71.5t-76.5 111.5t-27 144.5q0 80 27 145t76.5 111t119 71.5t154.5 25.5q36 0 73.5 -4.5t72.5 -12.5t66.5 -19.5t55.5 -25.5v-157z" />
    <glyph glyph-name="h" unicode="h" horiz-adv-x="868" 
d="M818 14v-12h-271v12l12 1q36 2 52 21t16 60v259h-383v-259q0 -41 16 -60t52 -21l12 -1v-12h-271v12l12 1q36 2 52 21t16 60v509q0 41 -16 60t-52 21l-12 1v12h271v-12l-12 -1q-36 -2 -52 -21t-16 -60v-223h383v223q0 41 -16 60t-52 21l-12 1v12h271v-12l-12 -1
q-36 -2 -52 -21t-16 -60v-509q0 -41 16 -60t52 -21z" />
    <glyph glyph-name="i" unicode="i" horiz-adv-x="371" 
d="M321 14v-12h-271v12l12 1q36 2 52 21t16 60v509q0 41 -16 60t-52 21l-12 1v12h271v-12l-12 -1q-36 -2 -52 -21t-16 -60v-509q0 -41 16 -60t52 -21z" />
    <glyph glyph-name="i" unicode="&#xef;" horiz-adv-x="371" 
d="M321 14v-12h-271v12l12 1q36 2 52 21t16 60v509q0 41 -16 60t-52 21l-12 1v12h271v-12l-12 -1q-36 -2 -52 -21t-16 -60v-509q0 -41 16 -60t52 -21z" />
    <glyph glyph-name="i" unicode="&#xee;" horiz-adv-x="371" 
d="M321 14v-12h-271v12l12 1q36 2 52 21t16 60v509q0 41 -16 60t-52 21l-12 1v12h271v-12l-12 -1q-36 -2 -52 -21t-16 -60v-509q0 -41 16 -60t52 -21z" />
    <glyph glyph-name="i" unicode="&#xed;" horiz-adv-x="371" 
d="M321 14v-12h-271v12l12 1q36 2 52 21t16 60v509q0 41 -16 60t-52 21l-12 1v12h271v-12l-12 -1q-36 -2 -52 -21t-16 -60v-509q0 -41 16 -60t52 -21z" />
    <glyph glyph-name="i" unicode="&#xec;" horiz-adv-x="371" 
d="M321 14v-12h-271v12l12 1q36 2 52 21t16 60v509q0 41 -16 60t-52 21l-12 1v12h271v-12l-12 -1q-36 -2 -52 -21t-16 -60v-509q0 -41 16 -60t52 -21z" />
    <glyph glyph-name="j" unicode="j" horiz-adv-x="512" 
d="M462 699l3 -12l-12 -1q-36 -2 -52 -21t-16 -60v-297q0 -85 -11 -145.5t-35.5 -98.5t-63 -55.5t-93.5 -17.5q-51 0 -86.5 18t-42.5 48q-5 20 7.5 32t37.5 12q18 0 31.5 -12t18.5 -32t21.5 -32t39.5 -12q33 0 47.5 46t14.5 154v392q0 41 -16 60t-52 21l-12 1v12h271z" />
    <glyph glyph-name="k" unicode="k" horiz-adv-x="789" 
d="M684 699l5 -11l-13 -1q-36 -2 -70 -19t-73 -53l-188 -182q20 -26 62.5 -80t102.5 -129q45 -57 79.5 -96t61.5 -63t48.5 -35t41.5 -11v-22h-39q-42 0 -77.5 8t-68.5 26t-64.5 46.5t-63.5 68.5q-22 27 -50.5 63t-54.5 68q-30 38 -62 77l-18 23v-281q0 -41 16 -60t52 -21
l12 -1v-12h-271v12l12 1q36 2 52 21t16 60v509q0 41 -16 60t-52 21l-12 1v12h271v-12l-12 -1q-36 -2 -52 -21t-16 -60v-228l249 243q62 63 11 66l-9 1v12h190z" />
    <glyph glyph-name="l" unicode="l" 
d="M595 189l1 -1q4 -1 7 -2q7 -4 7 -6q-6 -38 -14 -82.5t-14 -82.5l-2 -14h-528v12l12 1q36 2 52 21t16 60v509q0 41 -16 60t-52 21l-12 1v12h271v-12l-12 -1q-36 -2 -52 -21t-16 -60v-574h177q55 0 90.5 25t60.5 80z" />
    <glyph glyph-name="m" unicode="m" horiz-adv-x="1005" 
d="M923 687l3 1l-13 -1q-34 -2 -48.5 -20.5t-13.5 -57.5l23 -512q2 -41 18.5 -60t51.5 -21l13 -1v-12h-270v12l12 1q35 2 50 21.5t14 59.5l-16 517l-263 -617h-29l-270 564l-17 -449q-2 -49 19.5 -72t70.5 -25l21 -1v-12h-229v12l13 1q35 2 51 21.5t18 59.5l20 522
q-1 65 -64 68l-12 1v12h167l262 -569l2 -3l235 572h181v-12z" />
    <glyph glyph-name="n" unicode="n" horiz-adv-x="800" 
d="M50 687l-1 12h181l407 -535v441q0 41 -16 60t-52 21l-12 1v12h192v-12l-12 -1q-36 -2 -52 -21t-16 -60v-624h-34q-118 156 -236 310.5t-237 310.5v-506q0 -41 16 -60t52 -21l12 -1v-12h-192v12l12 1q36 2 52 21t16 60v509q0 41 -16 60t-52 21z" />
    <glyph glyph-name="n" unicode="&#xf1;" horiz-adv-x="800" 
d="M50 687l-1 12h181l407 -535v441q0 41 -16 60t-52 21l-12 1v12h192v-12l-12 -1q-36 -2 -52 -21t-16 -60v-624h-34q-118 156 -236 310.5t-237 310.5v-506q0 -41 16 -60t52 -21l12 -1v-12h-192v12l12 1q36 2 52 21t16 60v509q0 41 -16 60t-52 21z" />
    <glyph glyph-name="o" unicode="o" horiz-adv-x="825" 
d="M50 350q0 72 23 136t69 112.5t114 77t158 28.5t157.5 -28.5t113.5 -77t69 -112.5t23 -136t-23 -136t-69 -112.5t-113.5 -77t-157.5 -28.5t-158 28.5t-114 77t-69 112.5t-23 136zM174 350q0 -66 15 -125t45 -103.5t75 -70.5t104 -26t103.5 26t74 70.5t44.5 103.5t15 125
t-15 125t-44.5 103.5t-74 70.5t-103.5 26t-104 -26t-75 -70.5t-45 -103.5t-15 -125z" />
    <glyph glyph-name="o" unicode="&#xf8;" horiz-adv-x="825" 
d="M50 350q0 72 23 136t69 112.5t114 77t158 28.5t157.5 -28.5t113.5 -77t69 -112.5t23 -136t-23 -136t-69 -112.5t-113.5 -77t-157.5 -28.5t-158 28.5t-114 77t-69 112.5t-23 136zM174 350q0 -66 15 -125t45 -103.5t75 -70.5t104 -26t103.5 26t74 70.5t44.5 103.5t15 125
t-15 125t-44.5 103.5t-74 70.5t-103.5 26t-104 -26t-75 -70.5t-45 -103.5t-15 -125z" />
    <glyph glyph-name="o" unicode="&#xf6;" horiz-adv-x="825" 
d="M50 350q0 72 23 136t69 112.5t114 77t158 28.5t157.5 -28.5t113.5 -77t69 -112.5t23 -136t-23 -136t-69 -112.5t-113.5 -77t-157.5 -28.5t-158 28.5t-114 77t-69 112.5t-23 136zM174 350q0 -66 15 -125t45 -103.5t75 -70.5t104 -26t103.5 26t74 70.5t44.5 103.5t15 125
t-15 125t-44.5 103.5t-74 70.5t-103.5 26t-104 -26t-75 -70.5t-45 -103.5t-15 -125z" />
    <glyph glyph-name="o" unicode="&#xf5;" horiz-adv-x="825" 
d="M50 350q0 72 23 136t69 112.5t114 77t158 28.5t157.5 -28.5t113.5 -77t69 -112.5t23 -136t-23 -136t-69 -112.5t-113.5 -77t-157.5 -28.5t-158 28.5t-114 77t-69 112.5t-23 136zM174 350q0 -66 15 -125t45 -103.5t75 -70.5t104 -26t103.5 26t74 70.5t44.5 103.5t15 125
t-15 125t-44.5 103.5t-74 70.5t-103.5 26t-104 -26t-75 -70.5t-45 -103.5t-15 -125z" />
    <glyph glyph-name="o" unicode="&#xf4;" horiz-adv-x="825" 
d="M50 350q0 72 23 136t69 112.5t114 77t158 28.5t157.5 -28.5t113.5 -77t69 -112.5t23 -136t-23 -136t-69 -112.5t-113.5 -77t-157.5 -28.5t-158 28.5t-114 77t-69 112.5t-23 136zM174 350q0 -66 15 -125t45 -103.5t75 -70.5t104 -26t103.5 26t74 70.5t44.5 103.5t15 125
t-15 125t-44.5 103.5t-74 70.5t-103.5 26t-104 -26t-75 -70.5t-45 -103.5t-15 -125z" />
    <glyph glyph-name="o" unicode="&#xf3;" horiz-adv-x="825" 
d="M50 350q0 72 23 136t69 112.5t114 77t158 28.5t157.5 -28.5t113.5 -77t69 -112.5t23 -136t-23 -136t-69 -112.5t-113.5 -77t-157.5 -28.5t-158 28.5t-114 77t-69 112.5t-23 136zM174 350q0 -66 15 -125t45 -103.5t75 -70.5t104 -26t103.5 26t74 70.5t44.5 103.5t15 125
t-15 125t-44.5 103.5t-74 70.5t-103.5 26t-104 -26t-75 -70.5t-45 -103.5t-15 -125z" />
    <glyph glyph-name="o" unicode="&#xf2;" horiz-adv-x="825" 
d="M50 350q0 72 23 136t69 112.5t114 77t158 28.5t157.5 -28.5t113.5 -77t69 -112.5t23 -136t-23 -136t-69 -112.5t-113.5 -77t-157.5 -28.5t-158 28.5t-114 77t-69 112.5t-23 136zM174 350q0 -66 15 -125t45 -103.5t75 -70.5t104 -26t103.5 26t74 70.5t44.5 103.5t15 125
t-15 125t-44.5 103.5t-74 70.5t-103.5 26t-104 -26t-75 -70.5t-45 -103.5t-15 -125z" />
    <glyph glyph-name="p" unicode="p" horiz-adv-x="695" 
d="M321 14l-1 -13h-271v12l12 1q36 2 52 21t16 60v509q0 41 -16 60t-52 21l-12 1v12h343q57 0 103.5 -14t79.5 -39t51 -60.5t18 -78.5t-20.5 -79t-57.5 -61.5t-89 -39.5t-115 -14h-121v-216q0 -41 16 -60t52 -21zM241 340h122q74 0 118.5 45.5t44.5 120.5q0 74 -37 118.5
t-97 44.5h-151v-329z" />
    <glyph glyph-name="q" unicode="q" horiz-adv-x="933" 
d="M883 -16l-4 -1q-32 -42 -84.5 -66.5t-106.5 -24.5q-103 0 -178.5 27.5t-128.5 74.5q-83 5 -145.5 35t-104.5 78t-63.5 110t-21.5 131q0 72 23 136t69 112.5t114 77t158 28.5t157.5 -28.5t113.5 -77t69 -112.5t23 -136q0 -70 -22 -132.5t-65 -110.5t-107 -77t-149 -32
q31 -13 97 -20.5t175 -7.5q68 0 114.5 7.5t55.5 18.5l11 -8v-2zM169 347q0 -66 15 -125t45 -103.5t75 -70.5t104 -26t103.5 26t74 70.5t44.5 103.5t15 125t-15 125t-44.5 103.5t-74 70.5t-103.5 26t-104 -26t-75 -70.5t-45 -103.5t-15 -125z" />
    <glyph glyph-name="r" unicode="r" horiz-adv-x="805" 
d="M51 687l-3 14h340q56 0 101.5 -13t78 -36.5t50.5 -56.5t18 -74q0 -66 -46.5 -111.5t-127.5 -63.5q22 -27 72 -92t121 -159q20 -25 31 -39t20.5 -21t19.5 -8t27 -1v-22h-40q-46 0 -73 2.5t-47.5 13t-40.5 33.5t-50 63q-57 75 -99.5 131.5t-65.5 85.5h-95v-237
q0 -41 16 -60t52 -21l12 -1v-12h-271v12l12 1q36 2 52 21t16 60v509q0 41 -16 60t-52 21zM358 363h1q72 0 115.5 43t43.5 115q0 69 -35.5 110t-94.5 41h-148v-309h118z" />
    <glyph glyph-name="s" unicode="s" horiz-adv-x="576" 
d="M483 489l-9 1q-7 19 -15.5 41.5t-16.5 41.5q-14 38 -43 64.5t-63 33.5q0 1 -7.5 2t-17 2t-18 1.5l-8.5 0.5q-69 0 -111 -37.5t-42 -99.5q0 -20 14.5 -40.5t40.5 -39.5t63.5 -35.5t82.5 -29.5q44 -12 79.5 -32.5t61 -47t39.5 -57t14 -63.5q0 -45 -17 -81.5t-48 -62.5
t-74.5 -40t-96.5 -14q-34 0 -68.5 3.5t-66 10t-58.5 16t-47 20.5v166h9q3 -9 7 -20t7 -20q23 -60 72 -100t106 -45l5.5 -0.5t12.5 -1t13 -0.5h7q71 0 114 34t43 90q0 23 -14.5 45.5t-41 43t-64 38t-82.5 30.5q-43 12 -78.5 31.5t-60.5 44t-38.5 53.5t-13.5 59q0 47 17 86
t47.5 66.5t74 42.5t96.5 15q49 0 102 -13.5t92 -36.5v0v-166z" />
    <glyph glyph-name="s" unicode="&#xdf;" horiz-adv-x="576" 
d="M483 489l-9 1q-7 19 -15.5 41.5t-16.5 41.5q-14 38 -43 64.5t-63 33.5q0 1 -7.5 2t-17 2t-18 1.5l-8.5 0.5q-69 0 -111 -37.5t-42 -99.5q0 -20 14.5 -40.5t40.5 -39.5t63.5 -35.5t82.5 -29.5q44 -12 79.5 -32.5t61 -47t39.5 -57t14 -63.5q0 -45 -17 -81.5t-48 -62.5
t-74.5 -40t-96.5 -14q-34 0 -68.5 3.5t-66 10t-58.5 16t-47 20.5v166h9q3 -9 7 -20t7 -20q23 -60 72 -100t106 -45l5.5 -0.5t12.5 -1t13 -0.5h7q71 0 114 34t43 90q0 23 -14.5 45.5t-41 43t-64 38t-82.5 30.5q-43 12 -78.5 31.5t-60.5 44t-38.5 53.5t-13.5 59q0 47 17 86
t47.5 66.5t74 42.5t96.5 15q49 0 102 -13.5t92 -36.5v0v-166z" />
    <glyph glyph-name="t" unicode="t" horiz-adv-x="782" 
d="M60 512l-12 1q0 5 2.5 32.5t5 59t4.5 56.5t3 25l1 14h650l1 -14q3 -39 7 -87t7 -87h-9l-27 64q-20 49 -51.5 71.5t-82.5 22.5h-113v-574q0 -41 16 -60t52 -21l12 -1v-12h-271v12l12 1q36 2 52 21t16 60v574h-114q-49 0 -80.5 -22.5t-53.5 -71.5z" />
    <glyph glyph-name="u" unicode="u" horiz-adv-x="799" 
d="M749 699l1 -12l-14 -1q-40 -2 -58 -24t-18 -68v-394q0 -46 -14.5 -83.5t-45.5 -64t-80.5 -41t-119.5 -14.5q-73 0 -124 17t-83.5 47.5t-47.5 74t-15 96.5v373q0 41 -16 60t-52 21l-12 1v12h271v-12l-12 -1q-36 -2 -52 -21t-16 -60v-395q0 -79 40.5 -127t134.5 -48
q57 0 96.5 13t64.5 36t36.5 55.5t11.5 72.5v382q0 46 -19 68t-61 24l-15 1v12h219z" />
    <glyph glyph-name="u" unicode="&#xfc;" horiz-adv-x="799" 
d="M749 699l1 -12l-14 -1q-40 -2 -58 -24t-18 -68v-394q0 -46 -14.5 -83.5t-45.5 -64t-80.5 -41t-119.5 -14.5q-73 0 -124 17t-83.5 47.5t-47.5 74t-15 96.5v373q0 41 -16 60t-52 21l-12 1v12h271v-12l-12 -1q-36 -2 -52 -21t-16 -60v-395q0 -79 40.5 -127t134.5 -48
q57 0 96.5 13t64.5 36t36.5 55.5t11.5 72.5v382q0 46 -19 68t-61 24l-15 1v12h219z" />
    <glyph glyph-name="u" unicode="&#xfb;" horiz-adv-x="799" 
d="M749 699l1 -12l-14 -1q-40 -2 -58 -24t-18 -68v-394q0 -46 -14.5 -83.5t-45.5 -64t-80.5 -41t-119.5 -14.5q-73 0 -124 17t-83.5 47.5t-47.5 74t-15 96.5v373q0 41 -16 60t-52 21l-12 1v12h271v-12l-12 -1q-36 -2 -52 -21t-16 -60v-395q0 -79 40.5 -127t134.5 -48
q57 0 96.5 13t64.5 36t36.5 55.5t11.5 72.5v382q0 46 -19 68t-61 24l-15 1v12h219z" />
    <glyph glyph-name="u" unicode="&#xfa;" horiz-adv-x="799" 
d="M749 699l1 -12l-14 -1q-40 -2 -58 -24t-18 -68v-394q0 -46 -14.5 -83.5t-45.5 -64t-80.5 -41t-119.5 -14.5q-73 0 -124 17t-83.5 47.5t-47.5 74t-15 96.5v373q0 41 -16 60t-52 21l-12 1v12h271v-12l-12 -1q-36 -2 -52 -21t-16 -60v-395q0 -79 40.5 -127t134.5 -48
q57 0 96.5 13t64.5 36t36.5 55.5t11.5 72.5v382q0 46 -19 68t-61 24l-15 1v12h219z" />
    <glyph glyph-name="u" unicode="&#xf9;" horiz-adv-x="799" 
d="M749 699l1 -12l-14 -1q-40 -2 -58 -24t-18 -68v-394q0 -46 -14.5 -83.5t-45.5 -64t-80.5 -41t-119.5 -14.5q-73 0 -124 17t-83.5 47.5t-47.5 74t-15 96.5v373q0 41 -16 60t-52 21l-12 1v12h271v-12l-12 -1q-36 -2 -52 -21t-16 -60v-395q0 -79 40.5 -127t134.5 -48
q57 0 96.5 13t64.5 36t36.5 55.5t11.5 72.5v382q0 46 -19 68t-61 24l-15 1v12h219z" />
    <glyph glyph-name="v" unicode="v" horiz-adv-x="844" 
d="M337 687l2 -1l-20 -1q-73 -3 -50 -67l214 -485l158 439q20 57 5 84t-69 29l-18 1v12h235v-12l-12 -1q-65 -3 -94 -70l-231 -629h-29l-279 619q-18 41 -39.5 60t-50.5 21l-9 1v12h287v-12z" />
    <glyph glyph-name="w" unicode="w" horiz-adv-x="1195" 
d="M329 687l-2 -1l-14 -1q-73 -3 -51 -70l170 -470l183 564h29l-235 -723h-27l-238 619q-16 41 -36 60t-49 21l-9 1v12h279v-12zM811 -15l-225 544l58 179l220 -553zM1143 698l-1 -12l-12 -1q-36 -2 -57.5 -21.5t-35.5 -59.5l-198 -619h-29l193 619q13 42 1 60.5t-54 20.5
l-27 1v12h220z" />
    <glyph glyph-name="x" unicode="x" horiz-adv-x="794" 
d="M460 2l3 9l17 1q39 2 46.5 19.5t-15.5 53.5l-146 220l-127 -194q-32 -49 -25.5 -72t53.5 -25l16 -1v-12h-231v12l13 1q37 2 66 21t57 60l160 238q-45 68 -90 135.5t-90 136.5q-27 41 -52 60t-52 21l-9 1v12h284v-12l-17 -1q-39 -2 -46.5 -19.5t15.5 -53.5l128 -192
l121 190q23 38 15 55t-48 19l-27 1v12h234v-12l-13 -1q-37 -2 -66 -21t-57 -60l-143 -210q48 -75 98 -149t99 -149q27 -41 52 -60t52 -21l9 -1v-12h-284z" />
    <glyph glyph-name="y" unicode="y" horiz-adv-x="812" 
d="M264 2l3 14l12 1q33 2 48.5 18.5t17.5 51.5l-1 213l-186 306q-25 41 -49 60t-51 21l-8 1v12h281v-12l-13 -1q-38 -2 -43.5 -21.5t18.5 -59.5l150 -249l157 241q27 45 18.5 65.5t-52.5 22.5l-16 1v12h211v-12l-11 -1q-32 -2 -59 -21.5t-55 -59.5l-182 -271v-238
q0 -41 16 -60t52 -21l12 -1v-12h-270z" />
    <glyph glyph-name="y" unicode="&#xff;" horiz-adv-x="812" 
d="M264 2l3 14l12 1q33 2 48.5 18.5t17.5 51.5l-1 213l-186 306q-25 41 -49 60t-51 21l-8 1v12h281v-12l-13 -1q-38 -2 -43.5 -21.5t18.5 -59.5l150 -249l157 241q27 45 18.5 65.5t-52.5 22.5l-16 1v12h211v-12l-11 -1q-32 -2 -59 -21.5t-55 -59.5l-182 -271v-238
q0 -41 16 -60t52 -21l12 -1v-12h-270z" />
    <glyph glyph-name="y" unicode="&#xfd;" horiz-adv-x="812" 
d="M264 2l3 14l12 1q33 2 48.5 18.5t17.5 51.5l-1 213l-186 306q-25 41 -49 60t-51 21l-8 1v12h281v-12l-13 -1q-38 -2 -43.5 -21.5t18.5 -59.5l150 -249l157 241q27 45 18.5 65.5t-52.5 22.5l-16 1v12h211v-12l-11 -1q-32 -2 -59 -21.5t-55 -59.5l-182 -271v-238
q0 -41 16 -60t52 -21l12 -1v-12h-270z" />
    <glyph glyph-name="z" unicode="z" horiz-adv-x="648" 
d="M584 190h-3q4 -1 7 -2q7 -4 7 -6q-6 -38 -14 -82.5t-14 -82.5l-2 -15h-517l400 668h-193q-49 0 -86.5 -22.5t-72.5 -71.5l-22 -33h-9q9 32 19.5 70t19.5 70h-1l4 15h489l-401 -667h214q55 0 90.5 25t60.5 80z" />
    <glyph glyph-name="nonbreakingspace" unicode="&#xa0;" horiz-adv-x="385" 
 />
  </font>
</defs>
</svg>
